<svg xmlns="http://www.w3.org/2000/svg" xmlns:xlink="http://www.w3.org/1999/xlink" contentStyleType="text/css" height="1075px" preserveAspectRatio="none" style="width:1319px;height:1075px;background:#FFFFFF;" version="1.1" viewBox="0 0 1319 1075" width="1319px" zoomAndPan="magnify"><title>Modele de Donnees Application Chantier</title><defs/><g><text fill="#000000" font-family="sans-serif" font-size="14" font-weight="bold" lengthAdjust="spacing" textLength="272.2549" x="516.4001" y="24.5332">Modele de Donnees Application Chantier</text><!--class Chantier--><g id="elem_Chantier"><rect codeLine="4" fill="#F1F1F1" height="294.5313" id="Chantier" rx="2.5" ry="2.5" style="stroke:#181818;stroke-width:0.5;" width="209.6543" x="592.27" y="45.6094"/><ellipse cx="666.3887" cy="61.6094" fill="#ADD1B2" rx="11" ry="11" style="stroke:#181818;stroke-width:1;"/><path d="M669.1543,57.4844 Q669.3105,57.2656 669.498,57.1563 Q669.6855,57.0469 669.9043,57.0469 Q670.2793,57.0469 670.5137,57.3125 Q670.748,57.5625 670.748,58.1719 L670.748,59.625 Q670.748,60.2344 670.5137,60.5 Q670.2793,60.7656 669.9043,60.7656 Q669.5605,60.7656 669.3574,60.5625 Q669.1543,60.375 669.0449,59.8594 Q668.998,59.5 668.8105,59.3125 Q668.4824,58.9375 667.873,58.7188 Q667.2637,58.5 666.6387,58.5 Q665.873,58.5 665.2324,58.8281 Q664.6074,59.1563 664.1074,59.9063 Q663.623,60.6563 663.623,61.6875 L663.623,62.7813 Q663.623,64.0156 664.5137,64.8438 Q665.4043,65.6563 666.998,65.6563 Q667.9355,65.6563 668.5918,65.4063 Q668.9824,65.25 669.4043,64.8125 Q669.6699,64.5469 669.8105,64.4688 Q669.9668,64.3906 670.1699,64.3906 Q670.498,64.3906 670.748,64.6563 Q671.0137,64.9063 671.0137,65.25 Q671.0137,65.5938 670.6699,66 Q670.1699,66.5781 669.373,66.9063 Q668.2949,67.3594 666.998,67.3594 Q665.4824,67.3594 664.2793,66.7344 Q663.2949,66.2344 662.6074,65.1719 Q661.9199,64.0938 661.9199,62.8125 L661.9199,61.6563 Q661.9199,60.3281 662.5293,59.1875 Q663.1543,58.0313 664.248,57.4219 Q665.3418,56.7969 666.5762,56.7969 Q667.3105,56.7969 667.9512,56.9688 Q668.6074,57.125 669.1543,57.4844 Z " fill="#000000"/><text fill="#000000" font-family="sans-serif" font-size="14" lengthAdjust="spacing" textLength="52.917" x="686.8887" y="67.3379">Chantier</text><line style="stroke:#181818;stroke-width:0.5;" x1="593.27" x2="800.9243" y1="77.6094" y2="77.6094"/><ellipse cx="603.27" cy="91.9141" fill="none" rx="3" ry="3" style="stroke:#038048;stroke-width:1;"/><text fill="#000000" font-family="sans-serif" font-size="14" lengthAdjust="spacing" textLength="52.8965" x="612.27" y="96.1426">id: UUID</text><ellipse cx="603.27" cy="109.5234" fill="none" rx="3" ry="3" style="stroke:#038048;stroke-width:1;"/><text fill="#000000" font-family="sans-serif" font-size="14" lengthAdjust="spacing" textLength="121.4063" x="612.27" y="113.752">code_affaire: String</text><ellipse cx="603.27" cy="127.1328" fill="none" rx="3" ry="3" style="stroke:#038048;stroke-width:1;"/><text fill="#000000" font-family="sans-serif" font-size="14" lengthAdjust="spacing" textLength="71.5859" x="612.27" y="131.3613">nom: String</text><ellipse cx="603.27" cy="144.7422" fill="none" rx="3" ry="3" style="stroke:#038048;stroke-width:1;"/><text fill="#000000" font-family="sans-serif" font-size="14" lengthAdjust="spacing" textLength="93.3652" x="612.27" y="148.9707">client_id: UUID</text><ellipse cx="603.27" cy="162.3516" fill="none" rx="3" ry="3" style="stroke:#038048;stroke-width:1;"/><text fill="#000000" font-family="sans-serif" font-size="14" lengthAdjust="spacing" textLength="94.1582" x="612.27" y="166.5801">adresse: String</text><ellipse cx="603.27" cy="179.9609" fill="none" rx="3" ry="3" style="stroke:#038048;stroke-width:1;"/><text fill="#000000" font-family="sans-serif" font-size="14" lengthAdjust="spacing" textLength="107.4199" x="612.27" y="184.1895">date_debut: Date</text><ellipse cx="603.27" cy="197.5703" fill="none" rx="3" ry="3" style="stroke:#038048;stroke-width:1;"/><text fill="#000000" font-family="sans-serif" font-size="14" lengthAdjust="spacing" textLength="137.7646" x="612.27" y="201.7988">date_fin_prevue: Date</text><ellipse cx="603.27" cy="215.1797" fill="none" rx="3" ry="3" style="stroke:#038048;stroke-width:1;"/><text fill="#000000" font-family="sans-serif" font-size="14" lengthAdjust="spacing" textLength="78.5928" x="612.27" y="219.4082">statut: Enum</text><ellipse cx="603.27" cy="232.7891" fill="none" rx="3" ry="3" style="stroke:#038048;stroke-width:1;"/><text fill="#000000" font-family="sans-serif" font-size="14" lengthAdjust="spacing" textLength="140.8545" x="612.27" y="237.0176">budget_initial: Decimal</text><ellipse cx="603.27" cy="250.3984" fill="none" rx="3" ry="3" style="stroke:#038048;stroke-width:1;"/><text fill="#000000" font-family="sans-serif" font-size="14" lengthAdjust="spacing" textLength="183.6543" x="612.27" y="254.627">responsable_affaire_id: UUID</text><ellipse cx="603.27" cy="268.0078" fill="none" rx="3" ry="3" style="stroke:#038048;stroke-width:1;"/><text fill="#000000" font-family="sans-serif" font-size="14" lengthAdjust="spacing" textLength="144.7373" x="612.27" y="272.2363">chef_chantier_id: UUID</text><line style="stroke:#181818;stroke-width:1;" x1="593.27" x2="800.9243" y1="279.3125" y2="279.3125"/><ellipse cx="603.27" cy="293.6172" fill="#84BE84" rx="3" ry="3" style="stroke:#038048;stroke-width:1;"/><text fill="#000000" font-family="sans-serif" font-size="14" lengthAdjust="spacing" textLength="124.5166" x="612.27" y="297.8457">getPhotos(): Photo[]</text><ellipse cx="603.27" cy="311.2266" fill="#84BE84" rx="3" ry="3" style="stroke:#038048;stroke-width:1;"/><text fill="#000000" font-family="sans-serif" font-size="14" lengthAdjust="spacing" textLength="149.4131" x="612.27" y="315.4551">getIncidents(): Incident[]</text><ellipse cx="603.27" cy="328.8359" fill="#84BE84" rx="3" ry="3" style="stroke:#038048;stroke-width:1;"/><text fill="#000000" font-family="sans-serif" font-size="14" lengthAdjust="spacing" textLength="150.958" x="612.27" y="333.0645">getRapports(): Rapport[]</text></g><!--class Photo--><g id="elem_Photo"><rect codeLine="22" fill="#F1F1F1" height="259.3125" id="Photo" rx="2.5" ry="2.5" style="stroke:#181818;stroke-width:0.5;" width="245.4404" x="117.77" y="809.6094"/><ellipse cx="217.9472" cy="825.6094" fill="#ADD1B2" rx="11" ry="11" style="stroke:#181818;stroke-width:1;"/><path d="M220.7129,821.4844 Q220.8691,821.2656 221.0566,821.1563 Q221.2441,821.0469 221.4629,821.0469 Q221.8379,821.0469 222.0722,821.3125 Q222.3066,821.5625 222.3066,822.1719 L222.3066,823.625 Q222.3066,824.2344 222.0722,824.5 Q221.8379,824.7656 221.4629,824.7656 Q221.1191,824.7656 220.916,824.5625 Q220.7129,824.375 220.6035,823.8594 Q220.5566,823.5 220.3691,823.3125 Q220.041,822.9375 219.4316,822.7188 Q218.8222,822.5 218.1972,822.5 Q217.4316,822.5 216.791,822.8281 Q216.166,823.1563 215.666,823.9063 Q215.1816,824.6563 215.1816,825.6875 L215.1816,826.7813 Q215.1816,828.0156 216.0722,828.8438 Q216.9629,829.6563 218.5566,829.6563 Q219.4941,829.6563 220.1504,829.4063 Q220.541,829.25 220.9629,828.8125 Q221.2285,828.5469 221.3691,828.4688 Q221.5254,828.3906 221.7285,828.3906 Q222.0566,828.3906 222.3066,828.6563 Q222.5722,828.9063 222.5722,829.25 Q222.5722,829.5938 222.2285,830 Q221.7285,830.5781 220.9316,830.9063 Q219.8535,831.3594 218.5566,831.3594 Q217.041,831.3594 215.8379,830.7344 Q214.8535,830.2344 214.166,829.1719 Q213.4785,828.0938 213.4785,826.8125 L213.4785,825.6563 Q213.4785,824.3281 214.0879,823.1875 Q214.7129,822.0313 215.8066,821.4219 Q216.9004,820.7969 218.1347,820.7969 Q218.8691,820.7969 219.5097,820.9688 Q220.166,821.125 220.7129,821.4844 Z " fill="#000000"/><text fill="#000000" font-family="sans-serif" font-size="14" lengthAdjust="spacing" textLength="36.5859" x="238.4472" y="831.3379">Photo</text><line style="stroke:#181818;stroke-width:0.5;" x1="118.77" x2="362.2104" y1="841.6094" y2="841.6094"/><ellipse cx="128.77" cy="855.9141" fill="none" rx="3" ry="3" style="stroke:#038048;stroke-width:1;"/><text fill="#000000" font-family="sans-serif" font-size="14" lengthAdjust="spacing" textLength="52.8965" x="137.77" y="860.1426">id: UUID</text><ellipse cx="128.77" cy="873.5234" fill="none" rx="3" ry="3" style="stroke:#038048;stroke-width:1;"/><text fill="#000000" font-family="sans-serif" font-size="14" lengthAdjust="spacing" textLength="110.4893" x="137.77" y="877.752">chantier_id: UUID</text><ellipse cx="128.77" cy="891.1328" fill="none" rx="3" ry="3" style="stroke:#038048;stroke-width:1;"/><text fill="#000000" font-family="sans-serif" font-size="14" lengthAdjust="spacing" textLength="123.7373" x="137.77" y="895.3613">chemin_blob: String</text><ellipse cx="128.77" cy="908.7422" fill="#84BE84" rx="3" ry="3" style="stroke:#038048;stroke-width:1;"/><text fill="#000000" font-family="sans-serif" font-size="14" lengthAdjust="spacing" textLength="219.4404" x="137.77" y="912.9707">type: Enum (avant/apres/probleme)</text><ellipse cx="128.77" cy="926.3516" fill="none" rx="3" ry="3" style="stroke:#038048;stroke-width:1;"/><text fill="#000000" font-family="sans-serif" font-size="14" lengthAdjust="spacing" textLength="74.71" x="137.77" y="930.5801">zone: String</text><ellipse cx="128.77" cy="943.9609" fill="none" rx="3" ry="3" style="stroke:#038048;stroke-width:1;"/><text fill="#000000" font-family="sans-serif" font-size="14" lengthAdjust="spacing" textLength="133.8408" x="137.77" y="948.1895">date_prise: DateTime</text><ellipse cx="128.77" cy="961.5703" fill="none" rx="3" ry="3" style="stroke:#038048;stroke-width:1;"/><text fill="#000000" font-family="sans-serif" font-size="14" lengthAdjust="spacing" textLength="114.4063" x="137.77" y="965.7988">gps_latitude: Float</text><ellipse cx="128.77" cy="979.1797" fill="none" rx="3" ry="3" style="stroke:#038048;stroke-width:1;"/><text fill="#000000" font-family="sans-serif" font-size="14" lengthAdjust="spacing" textLength="126.0889" x="137.77" y="983.4082">gps_longitude: Float</text><ellipse cx="128.77" cy="996.7891" fill="none" rx="3" ry="3" style="stroke:#038048;stroke-width:1;"/><text fill="#000000" font-family="sans-serif" font-size="14" lengthAdjust="spacing" textLength="146.2822" x="137.77" y="1001.0176">pris_par_user_id: UUID</text><ellipse cx="128.77" cy="1014.3984" fill="none" rx="3" ry="3" style="stroke:#038048;stroke-width:1;"/><text fill="#000000" font-family="sans-serif" font-size="14" lengthAdjust="spacing" textLength="115.9238" x="137.77" y="1018.627">commentaire: Text</text><line style="stroke:#181818;stroke-width:1;" x1="118.77" x2="362.2104" y1="1025.7031" y2="1025.7031"/><ellipse cx="128.77" cy="1040.0078" fill="#84BE84" rx="3" ry="3" style="stroke:#038048;stroke-width:1;"/><text fill="#000000" font-family="sans-serif" font-size="14" lengthAdjust="spacing" textLength="110.5234" x="137.77" y="1044.2363">upload(): Boolean</text><ellipse cx="128.77" cy="1057.6172" fill="#84BE84" rx="3" ry="3" style="stroke:#038048;stroke-width:1;"/><text fill="#000000" font-family="sans-serif" font-size="14" lengthAdjust="spacing" textLength="103.4688" x="137.77" y="1061.8457">compress(): void</text></g><!--class Incident--><g id="elem_Incident"><rect codeLine="38" fill="#F1F1F1" height="329.75" id="Incident" rx="2.5" ry="2.5" style="stroke:#181818;stroke-width:0.5;" width="271.9229" x="407.27" y="401.6094"/><ellipse cx="514.4643" cy="417.6094" fill="#ADD1B2" rx="11" ry="11" style="stroke:#181818;stroke-width:1;"/><path d="M517.23,413.4844 Q517.3862,413.2656 517.5737,413.1563 Q517.7612,413.0469 517.98,413.0469 Q518.355,413.0469 518.5893,413.3125 Q518.8237,413.5625 518.8237,414.1719 L518.8237,415.625 Q518.8237,416.2344 518.5893,416.5 Q518.355,416.7656 517.98,416.7656 Q517.6362,416.7656 517.4331,416.5625 Q517.23,416.375 517.1206,415.8594 Q517.0737,415.5 516.8862,415.3125 Q516.5581,414.9375 515.9487,414.7188 Q515.3393,414.5 514.7143,414.5 Q513.9487,414.5 513.3081,414.8281 Q512.6831,415.1563 512.1831,415.9063 Q511.6987,416.6563 511.6987,417.6875 L511.6987,418.7813 Q511.6987,420.0156 512.5893,420.8438 Q513.48,421.6563 515.0737,421.6563 Q516.0112,421.6563 516.6675,421.4063 Q517.0581,421.25 517.48,420.8125 Q517.7456,420.5469 517.8862,420.4688 Q518.0425,420.3906 518.2456,420.3906 Q518.5737,420.3906 518.8237,420.6563 Q519.0893,420.9063 519.0893,421.25 Q519.0893,421.5938 518.7456,422 Q518.2456,422.5781 517.4487,422.9063 Q516.3706,423.3594 515.0737,423.3594 Q513.5581,423.3594 512.355,422.7344 Q511.3706,422.2344 510.6831,421.1719 Q509.9956,420.0938 509.9956,418.8125 L509.9956,417.6563 Q509.9956,416.3281 510.605,415.1875 Q511.23,414.0313 512.3237,413.4219 Q513.4175,412.7969 514.6518,412.7969 Q515.3862,412.7969 516.0268,412.9688 Q516.6831,413.125 517.23,413.4844 Z " fill="#000000"/><text fill="#000000" font-family="sans-serif" font-size="14" lengthAdjust="spacing" textLength="49.0342" x="534.9643" y="423.3379">Incident</text><line style="stroke:#181818;stroke-width:0.5;" x1="408.27" x2="678.1929" y1="433.6094" y2="433.6094"/><ellipse cx="418.27" cy="447.9141" fill="none" rx="3" ry="3" style="stroke:#038048;stroke-width:1;"/><text fill="#000000" font-family="sans-serif" font-size="14" lengthAdjust="spacing" textLength="52.8965" x="427.27" y="452.1426">id: UUID</text><ellipse cx="418.27" cy="465.5234" fill="none" rx="3" ry="3" style="stroke:#038048;stroke-width:1;"/><text fill="#000000" font-family="sans-serif" font-size="14" lengthAdjust="spacing" textLength="110.4893" x="427.27" y="469.752">chantier_id: UUID</text><ellipse cx="418.27" cy="483.1328" fill="none" rx="3" ry="3" style="stroke:#038048;stroke-width:1;"/><text fill="#000000" font-family="sans-serif" font-size="14" lengthAdjust="spacing" textLength="70.8135" x="427.27" y="487.3613">type: Enum</text><ellipse cx="418.27" cy="500.7422" fill="none" rx="3" ry="3" style="stroke:#038048;stroke-width:1;"/><text fill="#000000" font-family="sans-serif" font-size="14" lengthAdjust="spacing" textLength="101.9443" x="427.27" y="504.9707">categorie: Enum</text><ellipse cx="418.27" cy="518.3516" fill="#84BE84" rx="3" ry="3" style="stroke:#038048;stroke-width:1;"/><text fill="#000000" font-family="sans-serif" font-size="14" lengthAdjust="spacing" textLength="245.9229" x="427.27" y="522.5801">urgence: Enum (basse/moyenne/haute)</text><ellipse cx="418.27" cy="535.9609" fill="none" rx="3" ry="3" style="stroke:#038048;stroke-width:1;"/><text fill="#000000" font-family="sans-serif" font-size="14" lengthAdjust="spacing" textLength="67.6895" x="427.27" y="540.1895">titre: String</text><ellipse cx="418.27" cy="553.5703" fill="none" rx="3" ry="3" style="stroke:#038048;stroke-width:1;"/><text fill="#000000" font-family="sans-serif" font-size="14" lengthAdjust="spacing" textLength="102.71" x="427.27" y="557.7988">description: Text</text><ellipse cx="418.27" cy="571.1797" fill="none" rx="3" ry="3" style="stroke:#038048;stroke-width:1;"/><text fill="#000000" font-family="sans-serif" font-size="14" lengthAdjust="spacing" textLength="78.5928" x="427.27" y="575.4082">statut: Enum</text><ellipse cx="418.27" cy="588.7891" fill="none" rx="3" ry="3" style="stroke:#038048;stroke-width:1;"/><text fill="#000000" font-family="sans-serif" font-size="14" lengthAdjust="spacing" textLength="115.9375" x="427.27" y="593.0176">cree_par_id: UUID</text><ellipse cx="418.27" cy="606.3984" fill="none" rx="3" ry="3" style="stroke:#038048;stroke-width:1;"/><text fill="#000000" font-family="sans-serif" font-size="14" lengthAdjust="spacing" textLength="124.5098" x="427.27" y="610.627">assigne_a_id: UUID</text><ellipse cx="418.27" cy="624.0078" fill="none" rx="3" ry="3" style="stroke:#038048;stroke-width:1;"/><text fill="#000000" font-family="sans-serif" font-size="14" lengthAdjust="spacing" textLength="153.3027" x="427.27" y="628.2363">date_creation: DateTime</text><ellipse cx="418.27" cy="641.6172" fill="none" rx="3" ry="3" style="stroke:#038048;stroke-width:1;"/><text fill="#000000" font-family="sans-serif" font-size="14" lengthAdjust="spacing" textLength="164.1992" x="427.27" y="645.8457">date_resolution: DateTime</text><ellipse cx="418.27" cy="659.2266" fill="none" rx="3" ry="3" style="stroke:#038048;stroke-width:1;"/><text fill="#000000" font-family="sans-serif" font-size="14" lengthAdjust="spacing" textLength="91.8135" x="427.27" y="663.4551">photos: UUID[]</text><line style="stroke:#181818;stroke-width:1;" x1="408.27" x2="678.1929" y1="670.5313" y2="670.5313"/><ellipse cx="418.27" cy="684.8359" fill="#84BE84" rx="3" ry="3" style="stroke:#038048;stroke-width:1;"/><text fill="#000000" font-family="sans-serif" font-size="14" lengthAdjust="spacing" textLength="166.5303" x="427.27" y="689.0645">notifierResponsable(): void</text><ellipse cx="418.27" cy="702.4453" fill="#84BE84" rx="3" ry="3" style="stroke:#038048;stroke-width:1;"/><text fill="#000000" font-family="sans-serif" font-size="14" lengthAdjust="spacing" textLength="164.1992" x="427.27" y="706.6738">changerStatut(statut): void</text><ellipse cx="418.27" cy="720.0547" fill="#84BE84" rx="3" ry="3" style="stroke:#038048;stroke-width:1;"/><text fill="#000000" font-family="sans-serif" font-size="14" lengthAdjust="spacing" textLength="199.9717" x="427.27" y="724.2832">ajouterCommentaire(texte): void</text></g><!--class Rapport--><g id="elem_Rapport"><rect codeLine="58" fill="#F1F1F1" height="312.1406" id="Rapport" rx="2.5" ry="2.5" style="stroke:#181818;stroke-width:0.5;" width="262.5645" x="108.77" y="410.6094"/><ellipse cx="210.8989" cy="426.6094" fill="#ADD1B2" rx="11" ry="11" style="stroke:#181818;stroke-width:1;"/><path d="M213.6645,422.4844 Q213.8208,422.2656 214.0083,422.1563 Q214.1958,422.0469 214.4145,422.0469 Q214.7895,422.0469 215.0239,422.3125 Q215.2583,422.5625 215.2583,423.1719 L215.2583,424.625 Q215.2583,425.2344 215.0239,425.5 Q214.7895,425.7656 214.4145,425.7656 Q214.0708,425.7656 213.8677,425.5625 Q213.6645,425.375 213.5552,424.8594 Q213.5083,424.5 213.3208,424.3125 Q212.9927,423.9375 212.3833,423.7188 Q211.7739,423.5 211.1489,423.5 Q210.3833,423.5 209.7427,423.8281 Q209.1177,424.1563 208.6177,424.9063 Q208.1333,425.6563 208.1333,426.6875 L208.1333,427.7813 Q208.1333,429.0156 209.0239,429.8438 Q209.9145,430.6563 211.5083,430.6563 Q212.4458,430.6563 213.102,430.4063 Q213.4927,430.25 213.9145,429.8125 Q214.1802,429.5469 214.3208,429.4688 Q214.477,429.3906 214.6802,429.3906 Q215.0083,429.3906 215.2583,429.6563 Q215.5239,429.9063 215.5239,430.25 Q215.5239,430.5938 215.1802,431 Q214.6802,431.5781 213.8833,431.9063 Q212.8052,432.3594 211.5083,432.3594 Q209.9927,432.3594 208.7895,431.7344 Q207.8052,431.2344 207.1177,430.1719 Q206.4302,429.0938 206.4302,427.8125 L206.4302,426.6563 Q206.4302,425.3281 207.0395,424.1875 Q207.6645,423.0313 208.7583,422.4219 Q209.852,421.7969 211.0864,421.7969 Q211.8208,421.7969 212.4614,421.9688 Q213.1177,422.125 213.6645,422.4844 Z " fill="#000000"/><text fill="#000000" font-family="sans-serif" font-size="14" lengthAdjust="spacing" textLength="49.8066" x="231.3989" y="432.3379">Rapport</text><line style="stroke:#181818;stroke-width:0.5;" x1="109.77" x2="370.3345" y1="442.6094" y2="442.6094"/><ellipse cx="119.77" cy="456.9141" fill="none" rx="3" ry="3" style="stroke:#038048;stroke-width:1;"/><text fill="#000000" font-family="sans-serif" font-size="14" lengthAdjust="spacing" textLength="52.8965" x="128.77" y="461.1426">id: UUID</text><ellipse cx="119.77" cy="474.5234" fill="none" rx="3" ry="3" style="stroke:#038048;stroke-width:1;"/><text fill="#000000" font-family="sans-serif" font-size="14" lengthAdjust="spacing" textLength="110.4893" x="128.77" y="478.752">chantier_id: UUID</text><ellipse cx="119.77" cy="492.1328" fill="#84BE84" rx="3" ry="3" style="stroke:#038048;stroke-width:1;"/><text fill="#000000" font-family="sans-serif" font-size="14" lengthAdjust="spacing" textLength="236.5645" x="128.77" y="496.3613">type: Enum (intervention/avancement)</text><ellipse cx="119.77" cy="509.7422" fill="none" rx="3" ry="3" style="stroke:#038048;stroke-width:1;"/><text fill="#000000" font-family="sans-serif" font-size="14" lengthAdjust="spacing" textLength="144.7646" x="128.77" y="513.9707">date_intervention: Date</text><ellipse cx="119.77" cy="527.3516" fill="none" rx="3" ry="3" style="stroke:#038048;stroke-width:1;"/><text fill="#000000" font-family="sans-serif" font-size="14" lengthAdjust="spacing" textLength="117.5166" x="128.77" y="531.5801">heure_debut: Time</text><ellipse cx="119.77" cy="544.9609" fill="none" rx="3" ry="3" style="stroke:#038048;stroke-width:1;"/><text fill="#000000" font-family="sans-serif" font-size="14" lengthAdjust="spacing" textLength="97.2686" x="128.77" y="549.1895">heure_fin: Time</text><ellipse cx="119.77" cy="562.5703" fill="none" rx="3" ry="3" style="stroke:#038048;stroke-width:1;"/><text fill="#000000" font-family="sans-serif" font-size="14" lengthAdjust="spacing" textLength="128.3789" x="128.77" y="566.7988">materiel_utilise: Text</text><ellipse cx="119.77" cy="580.1797" fill="none" rx="3" ry="3" style="stroke:#038048;stroke-width:1;"/><text fill="#000000" font-family="sans-serif" font-size="14" lengthAdjust="spacing" textLength="114.3857" x="128.77" y="584.4082">observations: Text</text><ellipse cx="119.77" cy="597.7891" fill="none" rx="3" ry="3" style="stroke:#038048;stroke-width:1;"/><text fill="#000000" font-family="sans-serif" font-size="14" lengthAdjust="spacing" textLength="117.4961" x="128.77" y="602.0176">photos_ids: UUID[]</text><ellipse cx="119.77" cy="615.3984" fill="none" rx="3" ry="3" style="stroke:#038048;stroke-width:1;"/><text fill="#000000" font-family="sans-serif" font-size="14" lengthAdjust="spacing" textLength="133.1025" x="128.77" y="619.627">pdf_blob_path: String</text><ellipse cx="119.77" cy="633.0078" fill="none" rx="3" ry="3" style="stroke:#038048;stroke-width:1;"/><text fill="#000000" font-family="sans-serif" font-size="14" lengthAdjust="spacing" textLength="176.668" x="128.77" y="637.2363">signature_client_blob: String</text><ellipse cx="119.77" cy="650.6172" fill="none" rx="3" ry="3" style="stroke:#038048;stroke-width:1;"/><text fill="#000000" font-family="sans-serif" font-size="14" lengthAdjust="spacing" textLength="144.7715" x="128.77" y="654.8457">envoye_client: Boolean</text><ellipse cx="119.77" cy="668.2266" fill="none" rx="3" ry="3" style="stroke:#038048;stroke-width:1;"/><text fill="#000000" font-family="sans-serif" font-size="14" lengthAdjust="spacing" textLength="169.6611" x="128.77" y="672.4551">date_generation: DateTime</text><line style="stroke:#181818;stroke-width:1;" x1="109.77" x2="370.3345" y1="679.5313" y2="679.5313"/><ellipse cx="119.77" cy="693.8359" fill="#84BE84" rx="3" ry="3" style="stroke:#038048;stroke-width:1;"/><text fill="#000000" font-family="sans-serif" font-size="14" lengthAdjust="spacing" textLength="129.9307" x="128.77" y="698.0645">genererPDF(): String</text><ellipse cx="119.77" cy="711.4453" fill="#84BE84" rx="3" ry="3" style="stroke:#038048;stroke-width:1;"/><text fill="#000000" font-family="sans-serif" font-size="14" lengthAdjust="spacing" textLength="153.2959" x="128.77" y="715.6738">envoyerEmail(): Boolean</text></g><!--class Commande--><g id="elem_Commande"><rect codeLine="77" fill="#F1F1F1" height="241.7031" id="Commande" rx="2.5" ry="2.5" style="stroke:#181818;stroke-width:0.5;" width="261.7852" x="1050.27" y="445.6094"/><ellipse cx="1140.73" cy="461.6094" fill="#ADD1B2" rx="11" ry="11" style="stroke:#181818;stroke-width:1;"/><path d="M1143.4956,457.4844 Q1143.6518,457.2656 1143.8393,457.1563 Q1144.0268,457.0469 1144.2456,457.0469 Q1144.6206,457.0469 1144.855,457.3125 Q1145.0893,457.5625 1145.0893,458.1719 L1145.0893,459.625 Q1145.0893,460.2344 1144.855,460.5 Q1144.6206,460.7656 1144.2456,460.7656 Q1143.9018,460.7656 1143.6987,460.5625 Q1143.4956,460.375 1143.3862,459.8594 Q1143.3393,459.5 1143.1518,459.3125 Q1142.8237,458.9375 1142.2143,458.7188 Q1141.605,458.5 1140.98,458.5 Q1140.2143,458.5 1139.5737,458.8281 Q1138.9487,459.1563 1138.4487,459.9063 Q1137.9643,460.6563 1137.9643,461.6875 L1137.9643,462.7813 Q1137.9643,464.0156 1138.855,464.8438 Q1139.7456,465.6563 1141.3393,465.6563 Q1142.2768,465.6563 1142.9331,465.4063 Q1143.3237,465.25 1143.7456,464.8125 Q1144.0112,464.5469 1144.1518,464.4688 Q1144.3081,464.3906 1144.5112,464.3906 Q1144.8393,464.3906 1145.0893,464.6563 Q1145.355,464.9063 1145.355,465.25 Q1145.355,465.5938 1145.0112,466 Q1144.5112,466.5781 1143.7143,466.9063 Q1142.6362,467.3594 1141.3393,467.3594 Q1139.8237,467.3594 1138.6206,466.7344 Q1137.6362,466.2344 1136.9487,465.1719 Q1136.2612,464.0938 1136.2612,462.8125 L1136.2612,461.6563 Q1136.2612,460.3281 1136.8706,459.1875 Q1137.4956,458.0313 1138.5893,457.4219 Q1139.6831,456.7969 1140.9175,456.7969 Q1141.6518,456.7969 1142.2925,456.9688 Q1142.9487,457.125 1143.4956,457.4844 Z " fill="#000000"/><text fill="#000000" font-family="sans-serif" font-size="14" lengthAdjust="spacing" textLength="72.3652" x="1161.23" y="467.3379">Commande</text><line style="stroke:#181818;stroke-width:0.5;" x1="1051.27" x2="1311.0552" y1="477.6094" y2="477.6094"/><ellipse cx="1061.27" cy="491.9141" fill="none" rx="3" ry="3" style="stroke:#038048;stroke-width:1;"/><text fill="#000000" font-family="sans-serif" font-size="14" lengthAdjust="spacing" textLength="52.8965" x="1070.27" y="496.1426">id: UUID</text><ellipse cx="1061.27" cy="509.5234" fill="none" rx="3" ry="3" style="stroke:#038048;stroke-width:1;"/><text fill="#000000" font-family="sans-serif" font-size="14" lengthAdjust="spacing" textLength="110.4893" x="1070.27" y="513.752">chantier_id: UUID</text><ellipse cx="1061.27" cy="527.1328" fill="none" rx="3" ry="3" style="stroke:#038048;stroke-width:1;"/><text fill="#000000" font-family="sans-serif" font-size="14" lengthAdjust="spacing" textLength="103.4893" x="1070.27" y="531.3613">produit_id: UUID</text><ellipse cx="1061.27" cy="544.7422" fill="none" rx="3" ry="3" style="stroke:#038048;stroke-width:1;"/><text fill="#000000" font-family="sans-serif" font-size="14" lengthAdjust="spacing" textLength="101.1855" x="1070.27" y="548.9707">quantite: Integer</text><ellipse cx="1061.27" cy="562.3516" fill="none" rx="3" ry="3" style="stroke:#038048;stroke-width:1;"/><text fill="#000000" font-family="sans-serif" font-size="14" lengthAdjust="spacing" textLength="147.082" x="1070.27" y="566.5801">demande_par_id: UUID</text><ellipse cx="1061.27" cy="579.9609" fill="#84BE84" rx="3" ry="3" style="stroke:#038048;stroke-width:1;"/><text fill="#000000" font-family="sans-serif" font-size="14" lengthAdjust="spacing" textLength="235.7852" x="1070.27" y="584.1895">statut: Enum (demande/validee/livree)</text><ellipse cx="1061.27" cy="597.5703" fill="none" rx="3" ry="3" style="stroke:#038048;stroke-width:1;"/><text fill="#000000" font-family="sans-serif" font-size="14" lengthAdjust="spacing" textLength="161.875" x="1070.27" y="601.7988">date_demande: DateTime</text><ellipse cx="1061.27" cy="615.1797" fill="none" rx="3" ry="3" style="stroke:#038048;stroke-width:1;"/><text fill="#000000" font-family="sans-serif" font-size="14" lengthAdjust="spacing" textLength="174.3301" x="1070.27" y="619.4082">date_livraison_prevue: Date</text><ellipse cx="1061.27" cy="632.7891" fill="none" rx="3" ry="3" style="stroke:#038048;stroke-width:1;"/><text fill="#000000" font-family="sans-serif" font-size="14" lengthAdjust="spacing" textLength="165.7646" x="1070.27" y="637.0176">date_livraison_reelle: Date</text><line style="stroke:#181818;stroke-width:1;" x1="1051.27" x2="1311.0552" y1="644.0938" y2="644.0938"/><ellipse cx="1061.27" cy="658.3984" fill="#84BE84" rx="3" ry="3" style="stroke:#038048;stroke-width:1;"/><text fill="#000000" font-family="sans-serif" font-size="14" lengthAdjust="spacing" textLength="109.7236" x="1070.27" y="662.627">valider(): Boolean</text><ellipse cx="1061.27" cy="676.0078" fill="#84BE84" rx="3" ry="3" style="stroke:#038048;stroke-width:1;"/><text fill="#000000" font-family="sans-serif" font-size="14" lengthAdjust="spacing" textLength="140.834" x="1070.27" y="680.2363">notifierLivraison(): void</text></g><!--class User--><g id="elem_User"><rect codeLine="92" fill="#F1F1F1" height="188.875" id="User" rx="2.5" ry="2.5" style="stroke:#181818;stroke-width:0.5;" width="158.2959" x="670.27" y="844.6094"/><ellipse cx="730.3887" cy="860.6094" fill="#ADD1B2" rx="11" ry="11" style="stroke:#181818;stroke-width:1;"/><path d="M733.1543,856.4844 Q733.3105,856.2656 733.498,856.1563 Q733.6855,856.0469 733.9043,856.0469 Q734.2793,856.0469 734.5137,856.3125 Q734.748,856.5625 734.748,857.1719 L734.748,858.625 Q734.748,859.2344 734.5137,859.5 Q734.2793,859.7656 733.9043,859.7656 Q733.5605,859.7656 733.3574,859.5625 Q733.1543,859.375 733.0449,858.8594 Q732.998,858.5 732.8105,858.3125 Q732.4824,857.9375 731.873,857.7188 Q731.2637,857.5 730.6387,857.5 Q729.873,857.5 729.2324,857.8281 Q728.6074,858.1563 728.1074,858.9063 Q727.623,859.6563 727.623,860.6875 L727.623,861.7813 Q727.623,863.0156 728.5137,863.8438 Q729.4043,864.6563 730.998,864.6563 Q731.9355,864.6563 732.5918,864.4063 Q732.9824,864.25 733.4043,863.8125 Q733.6699,863.5469 733.8105,863.4688 Q733.9668,863.3906 734.1699,863.3906 Q734.498,863.3906 734.748,863.6563 Q735.0137,863.9063 735.0137,864.25 Q735.0137,864.5938 734.6699,865 Q734.1699,865.5781 733.373,865.9063 Q732.2949,866.3594 730.998,866.3594 Q729.4824,866.3594 728.2793,865.7344 Q727.2949,865.2344 726.6074,864.1719 Q725.9199,863.0938 725.9199,861.8125 L725.9199,860.6563 Q725.9199,859.3281 726.5293,858.1875 Q727.1543,857.0313 728.248,856.4219 Q729.3418,855.7969 730.5762,855.7969 Q731.3105,855.7969 731.9512,855.9688 Q732.6074,856.125 733.1543,856.4844 Z " fill="#000000"/><text fill="#000000" font-family="sans-serif" font-size="14" lengthAdjust="spacing" textLength="29.5586" x="750.8887" y="866.3379">User</text><line style="stroke:#181818;stroke-width:0.5;" x1="671.27" x2="827.5659" y1="876.6094" y2="876.6094"/><ellipse cx="681.27" cy="890.9141" fill="none" rx="3" ry="3" style="stroke:#038048;stroke-width:1;"/><text fill="#000000" font-family="sans-serif" font-size="14" lengthAdjust="spacing" textLength="52.8965" x="690.27" y="895.1426">id: UUID</text><ellipse cx="681.27" cy="908.5234" fill="none" rx="3" ry="3" style="stroke:#038048;stroke-width:1;"/><text fill="#000000" font-family="sans-serif" font-size="14" lengthAdjust="spacing" textLength="71.5859" x="690.27" y="912.752">nom: String</text><ellipse cx="681.27" cy="926.1328" fill="none" rx="3" ry="3" style="stroke:#038048;stroke-width:1;"/><text fill="#000000" font-family="sans-serif" font-size="14" lengthAdjust="spacing" textLength="91.8203" x="690.27" y="930.3613">prenom: String</text><ellipse cx="681.27" cy="943.7422" fill="none" rx="3" ry="3" style="stroke:#038048;stroke-width:1;"/><text fill="#000000" font-family="sans-serif" font-size="14" lengthAdjust="spacing" textLength="77.8066" x="690.27" y="947.9707">email: String</text><ellipse cx="681.27" cy="961.3516" fill="none" rx="3" ry="3" style="stroke:#038048;stroke-width:1;"/><text fill="#000000" font-family="sans-serif" font-size="14" lengthAdjust="spacing" textLength="67.6963" x="690.27" y="965.5801">role: Enum</text><ellipse cx="681.27" cy="978.9609" fill="none" rx="3" ry="3" style="stroke:#038048;stroke-width:1;"/><text fill="#000000" font-family="sans-serif" font-size="14" lengthAdjust="spacing" textLength="105.8545" x="690.27" y="983.1895">telephone: String</text><ellipse cx="681.27" cy="996.5703" fill="none" rx="3" ry="3" style="stroke:#038048;stroke-width:1;"/><text fill="#000000" font-family="sans-serif" font-size="14" lengthAdjust="spacing" textLength="84.834" x="690.27" y="1000.7988">actif: Boolean</text><line style="stroke:#181818;stroke-width:1;" x1="671.27" x2="827.5659" y1="1007.875" y2="1007.875"/><ellipse cx="681.27" cy="1022.1797" fill="#84BE84" rx="3" ry="3" style="stroke:#038048;stroke-width:1;"/><text fill="#000000" font-family="sans-serif" font-size="14" lengthAdjust="spacing" textLength="132.2959" x="690.27" y="1026.4082">authenticate(): Token</text></g><!--link Chantier to Photo--><g id="link_Chantier_Photo"><path codeLine="104" d="M592.15,195.4594 C451.25,203.6294 205.63,241.5794 91.27,401.6094 C6,520.9394 46.18,592.0494 91.27,731.6094 C100,758.6394 110.5053,780.056 126.1753,804.536 " fill="none" id="Chantier-to-Photo" style="stroke:#181818;stroke-width:1;"/><polygon fill="#181818" points="129.41,809.5894,127.9268,799.8528,126.7144,805.3782,121.189,804.1658,129.41,809.5894" style="stroke:#181818;stroke-width:1;"/><text fill="#000000" font-family="sans-serif" font-size="13" lengthAdjust="spacing" textLength="7.23" x="577.1944" y="192.5697">1</text><text fill="#000000" font-family="sans-serif" font-size="13" lengthAdjust="spacing" textLength="19.5127" x="103.0778" y="798.7056">0..*</text></g><!--link Chantier to Incident--><g id="link_Chantier_Incident"><path codeLine="105" d="M636.52,340.6694 C628.23,360.6594 621.976,375.7361 613.576,396.0161 " fill="none" id="Chantier-to-Incident" style="stroke:#181818;stroke-width:1;"/><polygon fill="#181818" points="611.28,401.5594,618.4196,394.7751,613.1934,396.94,611.0285,391.7137,611.28,401.5594" style="stroke:#181818;stroke-width:1;"/><text fill="#000000" font-family="sans-serif" font-size="13" lengthAdjust="spacing" textLength="7.23" x="626.4218" y="361.7193">1</text><text fill="#000000" font-family="sans-serif" font-size="13" lengthAdjust="spacing" textLength="19.5127" x="595.1284" y="390.687">0..*</text></g><!--link Chantier to Rapport--><g id="link_Chantier_Rapport"><path codeLine="106" d="M591.95,256.6094 C530.55,295.1194 453.09,347.3794 390.27,401.6094 C384.14,406.9094 382.3839,408.3329 376.2839,414.0329 " fill="none" id="Chantier-to-Rapport" style="stroke:#181818;stroke-width:1;"/><polygon fill="#181818" points="371.9,418.1294,381.2069,414.9073,375.5533,414.7157,375.7449,409.062,371.9,418.1294" style="stroke:#181818;stroke-width:1;"/><text fill="#000000" font-family="sans-serif" font-size="13" lengthAdjust="spacing" textLength="7.23" x="576.9797" y="258.2104">1</text><text fill="#000000" font-family="sans-serif" font-size="13" lengthAdjust="spacing" textLength="19.5127" x="379.2015" y="407.5614">0..*</text></g><!--link Chantier to Commande--><g id="link_Chantier_Commande"><path codeLine="107" d="M802.51,252.4494 C868.58,291.1194 954.06,345.0194 1023.27,401.6094 C1039.64,414.9994 1051.7763,425.7687 1067.5163,441.0587 " fill="none" id="Chantier-to-Commande" style="stroke:#181818;stroke-width:1;"/><polygon fill="#181818" points="1071.82,445.2394,1068.1515,436.0992,1068.2336,441.7555,1062.5773,441.8375,1071.82,445.2394" style="stroke:#181818;stroke-width:1;"/><text fill="#000000" font-family="sans-serif" font-size="13" lengthAdjust="spacing" textLength="7.23" x="809.8353" y="253.4215">1</text><text fill="#000000" font-family="sans-serif" font-size="13" lengthAdjust="spacing" textLength="19.5127" x="1045.5937" y="434.8708">0..*</text></g><!--link Chantier to User--><g id="link_Chantier_User"><path codeLine="108" d="M707.51,340.6594 C717.96,490.1994 733.4516,711.804 742.3116,838.564 " fill="none" id="Chantier-to-User" style="stroke:#181818;stroke-width:1;"/><polygon fill="#181818" points="742.73,844.5494,746.0927,835.2924,742.3814,839.5615,738.1122,835.8502,742.73,844.5494" style="stroke:#181818;stroke-width:1;"/><text fill="#000000" font-family="sans-serif" font-size="13" lengthAdjust="spacing" textLength="114.188" x="735.27" y="572.1045">responsable_affaire</text><text fill="#000000" font-family="sans-serif" font-size="13" lengthAdjust="spacing" textLength="7.23" x="700.8504" y="361.7088">1</text><text fill="#000000" font-family="sans-serif" font-size="13" lengthAdjust="spacing" textLength="7.23" x="734.9273" y="833.8907">1</text></g><!--link Chantier to User--><g id="link_Chantier_User"><path codeLine="109" d="M802.3,302.0794 C825.16,332.0294 846.12,366.1294 858.27,401.6094 C905.79,540.3694 893.54,589.2494 858.27,731.6094 C848.6,770.6594 832.9714,805.2342 813.8714,839.3442 " fill="none" id="Chantier-to-User-1" style="stroke:#181818;stroke-width:1;"/><polygon fill="#181818" points="810.94,844.5794,818.8272,838.681,813.3829,840.2168,811.8471,834.7724,810.94,844.5794" style="stroke:#181818;stroke-width:1;"/><text fill="#000000" font-family="sans-serif" font-size="13" lengthAdjust="spacing" textLength="78.0508" x="890.27" y="572.1045">chef_chantier</text><text fill="#000000" font-family="sans-serif" font-size="13" lengthAdjust="spacing" textLength="7.23" x="809.9513" y="306.7028">1</text><text fill="#000000" font-family="sans-serif" font-size="13" lengthAdjust="spacing" textLength="7.23" x="808.7545" y="833.6035">1</text></g><!--link Incident to Photo--><g id="link_Incident_Photo"><path codeLine="111" d="M409.05,731.7294 C387.76,757.7694 369.799,779.7253 349.299,804.7853 " fill="none" id="Incident-to-Photo" style="stroke:#181818;stroke-width:1;"/><polygon fill="#181818" points="345.5,809.4294,354.2946,804.9959,348.6659,805.5593,348.1025,799.9306,345.5,809.4294" style="stroke:#181818;stroke-width:1;"/><text fill="#000000" font-family="sans-serif" font-size="13" lengthAdjust="spacing" textLength="7.23" x="395.8165" y="753.0826">1</text><text fill="#000000" font-family="sans-serif" font-size="13" lengthAdjust="spacing" textLength="19.5127" x="332.0365" y="798.966">0..*</text></g><!--link Incident to User--><g id="link_Incident_User"><path codeLine="112" d="M538.88,731.8594 C542.43,748.5094 547.7,764.7494 555.27,779.6094 C580.34,828.8294 623.2456,864.9551 665.1956,892.1551 " fill="none" id="Incident-to-User" style="stroke:#181818;stroke-width:1;"/><polygon fill="#181818" points="670.23,895.4194,664.8546,887.1668,666.0347,892.6992,660.5023,893.8793,670.23,895.4194" style="stroke:#181818;stroke-width:1;"/><text fill="#000000" font-family="sans-serif" font-size="13" lengthAdjust="spacing" textLength="51.3081" x="556.27" y="776.1045">cree_par</text><text fill="#000000" font-family="sans-serif" font-size="13" lengthAdjust="spacing" textLength="7.23" x="531.5536" y="752.6762">1</text><text fill="#000000" font-family="sans-serif" font-size="13" lengthAdjust="spacing" textLength="7.23" x="655.1017" y="887.8497">1</text></g><!--link Incident to User--><g id="link_Incident_User"><path codeLine="113" d="M634.52,731.7294 C655.99,770.3494 675.233,804.9662 694.293,839.2262 " fill="none" id="Incident-to-User-1" style="stroke:#181818;stroke-width:1;"/><polygon fill="#181818" points="697.21,844.4694,696.33,834.6599,694.7792,840.1,689.3391,838.5492,697.21,844.4694" style="stroke:#181818;stroke-width:1;"/><text fill="#000000" font-family="sans-serif" font-size="13" lengthAdjust="spacing" textLength="59.2681" x="659.27" y="776.1045">assigne_a</text><text fill="#000000" font-family="sans-serif" font-size="13" lengthAdjust="spacing" textLength="7.23" x="631.5031" y="753.0826">1</text><text fill="#000000" font-family="sans-serif" font-size="13" lengthAdjust="spacing" textLength="21.6836" x="671.2402" y="833.8044">0..1</text></g><!--link Rapport to Photo--><g id="link_Rapport_Photo"><path codeLine="115" d="M240.27,722.8594 C240.27,751.6894 240.27,775.5194 240.27,803.4494 " fill="none" id="Rapport-to-Photo" style="stroke:#181818;stroke-width:1;"/><polygon fill="#181818" points="240.27,809.4494,244.27,800.4494,240.27,804.4494,236.27,800.4494,240.27,809.4494" style="stroke:#181818;stroke-width:1;"/><text fill="#000000" font-family="sans-serif" font-size="13" lengthAdjust="spacing" textLength="7.23" x="233.1166" y="744.3155">1</text><text fill="#000000" font-family="sans-serif" font-size="13" lengthAdjust="spacing" textLength="19.5127" x="220.6933" y="798.557">0..*</text></g><!--link Commande to User--><g id="link_Commande_User"><path codeLine="117" d="M1069.33,687.8994 C1054.17,702.9594 1038.57,717.8794 1023.27,731.6094 C961.1,787.4094 889.7084,840.5845 833.4284,880.3945 " fill="none" id="Commande-to-User" style="stroke:#181818;stroke-width:1;"/><polygon fill="#181818" points="828.53,883.8594,838.1875,881.9276,832.612,880.9719,833.5677,875.3964,828.53,883.8594" style="stroke:#181818;stroke-width:1;"/><text fill="#000000" font-family="sans-serif" font-size="13" lengthAdjust="spacing" textLength="80.228" x="988.27" y="776.1045">demande_par</text><text fill="#000000" font-family="sans-serif" font-size="13" lengthAdjust="spacing" textLength="7.23" x="1055.669" y="708.8878">1</text><text fill="#000000" font-family="sans-serif" font-size="13" lengthAdjust="spacing" textLength="7.23" x="836.6734" y="875.1518">1</text></g><!--SRC=[bLLDRzGm4BtdLrXxsgLg5wvxG89kArK2gUh72Q78IMOJWsCRsuaeYF_Es4aSvsDHEIMPcOndthnvjino89zb0VWeW1ob4026V52AivnQ9WMvhgYm37IIv9mQ4xx9xuIG2rOSoFFptT6zvvWdfQSJPHeEvD5g9afd5xAEFtFEGDWq_fCM6eoP_5HG2sa1MMCFv8ZlmNPY8bKQsWP6Xx7Kki0RqTJkEskA4l08mIoZ7ECWPpNbpeK7AIaCpNYeTL9ANi4fpViUOy_bfNDZsljAMccskmFnRr- -zlOxaRC2E_EkuIDu7wXIKdVE_XrzVmPKVQeLI5SASINM24B6PHOZPbyKT12GBMtnlpr5dCnUQOdDrh1pGR-aMCAiD3Czca-izeYMogGS2M2R0ZstN58Rp5AKSxlBa2ggqyRCYvLrZJXqd7Y2dpP0sIZykt1uV9II0nLzk2lQmzHALem83OY-4gGH3H-2hPLIiyZKw1947X3By0pOr_85S0Ns5Mri1nX2C6Lp0IRNJBdT20qj29Xh08_7XEN6i58WxIPMFm6Cfrt6U0ZUXMX8tYoTojEmo-DPrg4gf6Kd1EDXv7d0iiUg1FtewzrsPKTk-arYu_fw7DhMOekmc4PFuVyU1jaoWGUqc1qxsZkUvk3EseM6uu1nnIjeT1240OFEY8emccgCnpdp527ZdjR3Z6I6t6mzp6QqTZ1YjJ6K5weu-Vt26TegdhwR86A6f_OoDjz242rogFTEgEsRGyw1Nevw41TqWhu_thgHpNFgcveo7kzBc8QR5nKeuAyR1of2qR2f1FzeNA059rsuAwZtdki-xOB9CTt9je_QjvJZXiAUinRflujKtFjNkEqYAJDogUWpD-RZV7HtS7NdwPc230lmQVXvAINFPktwcbrJMD7C0Wx_sA0bZmJ5uYMAR9hgAysnchY-hdIKbyentEcIg-z9VWS_pt2xRjvjCFOzsRozkdgpwUw7izv16yy6zEjwrZyGQ2K0dnwl0rcvElyPFxbAaoG8-6fhIs-Kg5VJzHHZN13O91dqQVMi9EpBoc4HvvE_]--></g></svg>