<svg xmlns="http://www.w3.org/2000/svg" xmlns:xlink="http://www.w3.org/1999/xlink" contentStyleType="text/css" height="1961px" preserveAspectRatio="none" style="width:1435px;height:1961px;background:#FFFFFF;" version="1.1" viewBox="0 0 1435 1961" width="1435px" zoomAndPan="magnify"><title>Arborescence Fonctionnelle Application Mobile Chantier</title><defs/><g><text fill="#000000" font-family="sans-serif" font-size="14" font-weight="bold" lengthAdjust="spacing" textLength="377.2754" x="527.7178" y="34.5332">Arborescence Fonctionnelle Application Mobile Chantier</text><rect fill="#F1F1F1" height="72.8281" rx="12.5" ry="12.5" style="stroke:#181818;stroke-width:1.5;" width="88.4893" x="688.46" y="962.75"/><text fill="#000000" font-family="sans-serif" font-size="14" lengthAdjust="spacing" textLength="68.4893" x="698.46" y="987.2832">Application</text><text fill="#000000" font-family="sans-serif" font-size="14" lengthAdjust="spacing" textLength="41.2412" x="698.46" y="1004.8926">Mobile</text><text fill="#000000" font-family="sans-serif" font-size="14" lengthAdjust="spacing" textLength="52.917" x="698.46" y="1022.502">Chantier</text><rect fill="#F1F1F1" height="37.6094" rx="12.5" ry="12.5" style="stroke:#181818;stroke-width:1.5;" width="115.7236" x="826.9492" y="634.7031"/><text fill="#000000" font-family="sans-serif" font-size="14" lengthAdjust="spacing" textLength="95.7236" x="836.9492" y="659.2363">Gestion Photos</text><rect fill="#F1F1F1" height="37.6094" rx="12.5" ry="12.5" style="stroke:#181818;stroke-width:1.5;" width="92.3721" x="992.6729" y="461.875"/><text fill="#000000" font-family="sans-serif" font-size="14" lengthAdjust="spacing" textLength="72.3721" x="1002.6729" y="486.4082">Prise Photo</text><rect fill="#F1F1F1" height="37.6094" rx="12.5" ry="12.5" style="stroke:#181818;stroke-width:1.5;" width="167.8613" x="1135.0449" y="404.2656"/><text fill="#000000" font-family="sans-serif" font-size="14" lengthAdjust="spacing" textLength="147.8613" x="1145.0449" y="428.7988">Directement depuis app</text><path d="M1085.0449,480.6797 L1095.0449,480.6797 C1110.0449,480.6797 1110.0449,423.0703 1125.0449,423.0703 L1135.0449,423.0703 " fill="none" style="stroke:#181818;stroke-width:1;"/><rect fill="#F1F1F1" height="37.6094" rx="12.5" ry="12.5" style="stroke:#181818;stroke-width:1.5;" width="208.3369" x="1135.0449" y="461.875"/><text fill="#000000" font-family="sans-serif" font-size="14" lengthAdjust="spacing" textLength="188.3369" x="1145.0449" y="486.4082">Organisation auto par chantier</text><path d="M1085.0449,480.6797 L1095.0449,480.6797 C1110.0449,480.6797 1110.0449,480.6797 1125.0449,480.6797 L1135.0449,480.6797 " fill="none" style="stroke:#181818;stroke-width:1;"/><rect fill="#F1F1F1" height="37.6094" rx="12.5" ry="12.5" style="stroke:#181818;stroke-width:1.5;" width="192.3545" x="1135.0449" y="519.4844"/><text fill="#000000" font-family="sans-serif" font-size="14" lengthAdjust="spacing" textLength="172.3545" x="1145.0449" y="544.0176">Metadata GPS + timestamp</text><path d="M1085.0449,480.6797 L1095.0449,480.6797 C1110.0449,480.6797 1110.0449,538.2891 1125.0449,538.2891 L1135.0449,538.2891 " fill="none" style="stroke:#181818;stroke-width:1;"/><path d="M942.6729,653.5078 L952.6729,653.5078 C967.6729,653.5078 967.6729,480.6797 982.6729,480.6797 L992.6729,480.6797 " fill="none" style="stroke:#181818;stroke-width:1;"/><rect fill="#F1F1F1" height="37.6094" rx="12.5" ry="12.5" style="stroke:#181818;stroke-width:1.5;" width="146.8613" x="992.6729" y="634.7031"/><text fill="#000000" font-family="sans-serif" font-size="14" lengthAdjust="spacing" textLength="126.8613" x="1002.6729" y="659.2363">Upload Automatique</text><rect fill="#F1F1F1" height="37.6094" rx="12.5" ry="12.5" style="stroke:#181818;stroke-width:1.5;" width="171.7305" x="1189.5342" y="577.0938"/><text fill="#000000" font-family="sans-serif" font-size="14" lengthAdjust="spacing" textLength="151.7305" x="1199.5342" y="601.627">Vers serveur Azure Blob</text><path d="M1139.5342,653.5078 L1149.5342,653.5078 C1164.5342,653.5078 1164.5342,595.8984 1179.5342,595.8984 L1189.5342,595.8984 " fill="none" style="stroke:#181818;stroke-width:1;"/><rect fill="#F1F1F1" height="37.6094" rx="12.5" ry="12.5" style="stroke:#181818;stroke-width:1.5;" width="173.3027" x="1189.5342" y="634.7031"/><text fill="#000000" font-family="sans-serif" font-size="14" lengthAdjust="spacing" textLength="153.3027" x="1199.5342" y="659.2363">Compression intelligente</text><path d="M1139.5342,653.5078 L1149.5342,653.5078 C1164.5342,653.5078 1164.5342,653.5078 1179.5342,653.5078 L1189.5342,653.5078 " fill="none" style="stroke:#181818;stroke-width:1;"/><rect fill="#F1F1F1" height="37.6094" rx="12.5" ry="12.5" style="stroke:#181818;stroke-width:1.5;" width="171.7578" x="1189.5342" y="692.3125"/><text fill="#000000" font-family="sans-serif" font-size="14" lengthAdjust="spacing" textLength="151.7578" x="1199.5342" y="716.8457">Mode hors ligne (queue)</text><path d="M1139.5342,653.5078 L1149.5342,653.5078 C1164.5342,653.5078 1164.5342,711.1172 1179.5342,711.1172 L1189.5342,711.1172 " fill="none" style="stroke:#181818;stroke-width:1;"/><path d="M942.6729,653.5078 L952.6729,653.5078 C967.6729,653.5078 967.6729,653.5078 982.6729,653.5078 L992.6729,653.5078 " fill="none" style="stroke:#181818;stroke-width:1;"/><rect fill="#F1F1F1" height="37.6094" rx="12.5" ry="12.5" style="stroke:#181818;stroke-width:1.5;" width="121.9375" x="992.6729" y="807.5313"/><text fill="#000000" font-family="sans-serif" font-size="14" lengthAdjust="spacing" textLength="101.9375" x="1002.6729" y="832.0645">Galerie Chantier</text><rect fill="#F1F1F1" height="37.6094" rx="12.5" ry="12.5" style="stroke:#181818;stroke-width:1.5;" width="170.9512" x="1164.6104" y="749.9219"/><text fill="#000000" font-family="sans-serif" font-size="14" lengthAdjust="spacing" textLength="150.9512" x="1174.6104" y="774.4551">Filtres (date, type, zone)</text><path d="M1114.6104,826.3359 L1124.6104,826.3359 C1139.6104,826.3359 1139.6104,768.7266 1154.6104,768.7266 L1164.6104,768.7266 " fill="none" style="stroke:#181818;stroke-width:1;"/><rect fill="#F1F1F1" height="37.6094" rx="12.5" ry="12.5" style="stroke:#181818;stroke-width:1.5;" width="133.627" x="1164.6104" y="807.5313"/><text fill="#000000" font-family="sans-serif" font-size="14" lengthAdjust="spacing" textLength="113.627" x="1174.6104" y="832.0645">Recherche photos</text><path d="M1114.6104,826.3359 L1124.6104,826.3359 C1139.6104,826.3359 1139.6104,826.3359 1154.6104,826.3359 L1164.6104,826.3359 " fill="none" style="stroke:#181818;stroke-width:1;"/><rect fill="#F1F1F1" height="37.6094" rx="12.5" ry="12.5" style="stroke:#181818;stroke-width:1.5;" width="116.4961" x="1164.6104" y="865.1406"/><text fill="#000000" font-family="sans-serif" font-size="14" lengthAdjust="spacing" textLength="96.4961" x="1174.6104" y="889.6738">Partage selectif</text><path d="M1114.6104,826.3359 L1124.6104,826.3359 C1139.6104,826.3359 1139.6104,883.9453 1154.6104,883.9453 L1164.6104,883.9453 " fill="none" style="stroke:#181818;stroke-width:1;"/><path d="M942.6729,653.5078 L952.6729,653.5078 C967.6729,653.5078 967.6729,826.3359 982.6729,826.3359 L992.6729,826.3359 " fill="none" style="stroke:#181818;stroke-width:1;"/><path d="M776.9492,999.1641 L786.9492,999.1641 C801.9492,999.1641 801.9492,653.5078 816.9492,653.5078 L826.9492,653.5078 " fill="none" style="stroke:#181818;stroke-width:1;"/><rect fill="#F1F1F1" height="37.6094" rx="12.5" ry="12.5" style="stroke:#181818;stroke-width:1.5;" width="153.8545" x="826.9492" y="1239.6016"/><text fill="#000000" font-family="sans-serif" font-size="14" lengthAdjust="spacing" textLength="133.8545" x="836.9492" y="1264.1348">Rapports Intervention</text><rect fill="#F1F1F1" height="37.6094" rx="12.5" ry="12.5" style="stroke:#181818;stroke-width:1.5;" width="85.3584" x="1030.8037" y="980.3594"/><text fill="#000000" font-family="sans-serif" font-size="14" lengthAdjust="spacing" textLength="65.3584" x="1040.8037" y="1004.8926">Templates</text><rect fill="#F1F1F1" height="37.6094" rx="12.5" ry="12.5" style="stroke:#181818;stroke-width:1.5;" width="204.4473" x="1166.1621" y="922.75"/><text fill="#000000" font-family="sans-serif" font-size="14" lengthAdjust="spacing" textLength="184.4473" x="1176.1621" y="947.2832">Rapport intervention standard</text><path d="M1116.1621,999.1641 L1126.1621,999.1641 C1141.1621,999.1641 1141.1621,941.5547 1156.1621,941.5547 L1166.1621,941.5547 " fill="none" style="stroke:#181818;stroke-width:1;"/><rect fill="#F1F1F1" height="37.6094" rx="12.5" ry="12.5" style="stroke:#181818;stroke-width:1.5;" width="149.9648" x="1166.1621" y="980.3594"/><text fill="#000000" font-family="sans-serif" font-size="14" lengthAdjust="spacing" textLength="129.9648" x="1176.1621" y="1004.8926">Rapport avancement</text><path d="M1116.1621,999.1641 L1126.1621,999.1641 C1141.1621,999.1641 1141.1621,999.1641 1156.1621,999.1641 L1166.1621,999.1641 " fill="none" style="stroke:#181818;stroke-width:1;"/><rect fill="#F1F1F1" height="37.6094" rx="12.5" ry="12.5" style="stroke:#181818;stroke-width:1.5;" width="131.2891" x="1166.1621" y="1037.9688"/><text fill="#000000" font-family="sans-serif" font-size="14" lengthAdjust="spacing" textLength="111.2891" x="1176.1621" y="1062.502">Rapport reception</text><path d="M1116.1621,999.1641 L1126.1621,999.1641 C1141.1621,999.1641 1141.1621,1056.7734 1156.1621,1056.7734 L1166.1621,1056.7734 " fill="none" style="stroke:#181818;stroke-width:1;"/><path d="M980.8037,1258.4063 L990.8037,1258.4063 C1005.8037,1258.4063 1005.8037,999.1641 1020.8037,999.1641 L1030.8037,999.1641 " fill="none" style="stroke:#181818;stroke-width:1;"/><rect fill="#F1F1F1" height="37.6094" rx="12.5" ry="12.5" style="stroke:#181818;stroke-width:1.5;" width="121.958" x="1030.8037" y="1153.1875"/><text fill="#000000" font-family="sans-serif" font-size="14" lengthAdjust="spacing" textLength="101.958" x="1040.8037" y="1177.7207">Generation Auto</text><rect fill="#F1F1F1" height="37.6094" rx="12.5" ry="12.5" style="stroke:#181818;stroke-width:1.5;" width="220.9492" x="1202.7617" y="1095.5781"/><text fill="#000000" font-family="sans-serif" font-size="14" lengthAdjust="spacing" textLength="200.9492" x="1212.7617" y="1120.1113">Pr&#195;&#169;-remplissage infos chantier</text><path d="M1152.7617,1171.9922 L1162.7617,1171.9922 C1177.7617,1171.9922 1177.7617,1114.3828 1192.7617,1114.3828 L1202.7617,1114.3828 " fill="none" style="stroke:#181818;stroke-width:1;"/><rect fill="#F1F1F1" height="37.6094" rx="12.5" ry="12.5" style="stroke:#181818;stroke-width:1.5;" width="209.1299" x="1202.7617" y="1153.1875"/><text fill="#000000" font-family="sans-serif" font-size="14" lengthAdjust="spacing" textLength="189.1299" x="1212.7617" y="1177.7207">Integration photos avant/apres</text><path d="M1152.7617,1171.9922 L1162.7617,1171.9922 C1177.7617,1171.9922 1177.7617,1171.9922 1192.7617,1171.9922 L1202.7617,1171.9922 " fill="none" style="stroke:#181818;stroke-width:1;"/><rect fill="#F1F1F1" height="37.6094" rx="12.5" ry="12.5" style="stroke:#181818;stroke-width:1.5;" width="156.9443" x="1202.7617" y="1210.7969"/><text fill="#000000" font-family="sans-serif" font-size="14" lengthAdjust="spacing" textLength="136.9443" x="1212.7617" y="1235.3301">Generation PDF 1 clic</text><path d="M1152.7617,1171.9922 L1162.7617,1171.9922 C1177.7617,1171.9922 1177.7617,1229.6016 1192.7617,1229.6016 L1202.7617,1229.6016 " fill="none" style="stroke:#181818;stroke-width:1;"/><path d="M980.8037,1258.4063 L990.8037,1258.4063 C1005.8037,1258.4063 1005.8037,1171.9922 1020.8037,1171.9922 L1030.8037,1171.9922 " fill="none" style="stroke:#181818;stroke-width:1;"/><rect fill="#F1F1F1" height="37.6094" rx="12.5" ry="12.5" style="stroke:#181818;stroke-width:1.5;" width="161.6475" x="1030.8037" y="1326.0156"/><text fill="#000000" font-family="sans-serif" font-size="14" lengthAdjust="spacing" textLength="141.6475" x="1040.8037" y="1350.5488">Signature Electronique</text><rect fill="#F1F1F1" height="37.6094" rx="12.5" ry="12.5" style="stroke:#181818;stroke-width:1.5;" width="136.7305" x="1242.4512" y="1268.4063"/><text fill="#000000" font-family="sans-serif" font-size="14" lengthAdjust="spacing" textLength="116.7305" x="1252.4512" y="1292.9395">Sur tablette/mobile</text><path d="M1192.4512,1344.8203 L1202.4512,1344.8203 C1217.4512,1344.8203 1217.4512,1287.2109 1232.4512,1287.2109 L1242.4512,1287.2109 " fill="none" style="stroke:#181818;stroke-width:1;"/><rect fill="#F1F1F1" height="37.6094" rx="12.5" ry="12.5" style="stroke:#181818;stroke-width:1.5;" width="116.5029" x="1242.4512" y="1326.0156"/><text fill="#000000" font-family="sans-serif" font-size="14" lengthAdjust="spacing" textLength="96.5029" x="1252.4512" y="1350.5488">Signature client</text><path d="M1192.4512,1344.8203 L1202.4512,1344.8203 C1217.4512,1344.8203 1217.4512,1344.8203 1232.4512,1344.8203 L1242.4512,1344.8203 " fill="none" style="stroke:#181818;stroke-width:1;"/><rect fill="#F1F1F1" height="37.6094" rx="12.5" ry="12.5" style="stroke:#181818;stroke-width:1.5;" width="93.165" x="1242.4512" y="1383.625"/><text fill="#000000" font-family="sans-serif" font-size="14" lengthAdjust="spacing" textLength="73.165" x="1252.4512" y="1408.1582">Horodatage</text><path d="M1192.4512,1344.8203 L1202.4512,1344.8203 C1217.4512,1344.8203 1217.4512,1402.4297 1232.4512,1402.4297 L1242.4512,1402.4297 " fill="none" style="stroke:#181818;stroke-width:1;"/><path d="M980.8037,1258.4063 L990.8037,1258.4063 C1005.8037,1258.4063 1005.8037,1344.8203 1020.8037,1344.8203 L1030.8037,1344.8203 " fill="none" style="stroke:#181818;stroke-width:1;"/><rect fill="#F1F1F1" height="37.6094" rx="12.5" ry="12.5" style="stroke:#181818;stroke-width:1.5;" width="87.71" x="1030.8037" y="1498.8438"/><text fill="#000000" font-family="sans-serif" font-size="14" lengthAdjust="spacing" textLength="67.71" x="1040.8037" y="1523.377">Envoi Auto</text><rect fill="#F1F1F1" height="37.6094" rx="12.5" ry="12.5" style="stroke:#181818;stroke-width:1.5;" width="91.5791" x="1168.5137" y="1441.2344"/><text fill="#000000" font-family="sans-serif" font-size="14" lengthAdjust="spacing" textLength="71.5791" x="1178.5137" y="1465.7676">Email client</text><path d="M1118.5137,1517.6484 L1128.5137,1517.6484 C1143.5137,1517.6484 1143.5137,1460.0391 1158.5137,1460.0391 L1168.5137,1460.0391 " fill="none" style="stroke:#181818;stroke-width:1;"/><rect fill="#F1F1F1" height="37.6094" rx="12.5" ry="12.5" style="stroke:#181818;stroke-width:1.5;" width="102.4893" x="1168.5137" y="1498.8438"/><text fill="#000000" font-family="sans-serif" font-size="14" lengthAdjust="spacing" textLength="82.4893" x="1178.5137" y="1523.377">Email bureau</text><path d="M1118.5137,1517.6484 L1128.5137,1517.6484 C1143.5137,1517.6484 1143.5137,1517.6484 1158.5137,1517.6484 L1168.5137,1517.6484 " fill="none" style="stroke:#181818;stroke-width:1;"/><rect fill="#F1F1F1" height="37.6094" rx="12.5" ry="12.5" style="stroke:#181818;stroke-width:1.5;" width="132.8271" x="1168.5137" y="1556.4531"/><text fill="#000000" font-family="sans-serif" font-size="14" lengthAdjust="spacing" textLength="112.8271" x="1178.5137" y="1580.9863">Archivage serveur</text><path d="M1118.5137,1517.6484 L1128.5137,1517.6484 C1143.5137,1517.6484 1143.5137,1575.2578 1158.5137,1575.2578 L1168.5137,1575.2578 " fill="none" style="stroke:#181818;stroke-width:1;"/><path d="M980.8037,1258.4063 L990.8037,1258.4063 C1005.8037,1258.4063 1005.8037,1517.6484 1020.8037,1517.6484 L1030.8037,1517.6484 " fill="none" style="stroke:#181818;stroke-width:1;"/><path d="M776.9492,999.1641 L786.9492,999.1641 C801.9492,999.1641 801.9492,1258.4063 816.9492,1258.4063 L826.9492,1258.4063 " fill="none" style="stroke:#181818;stroke-width:1;"/><rect fill="#F1F1F1" height="37.6094" rx="12.5" ry="12.5" style="stroke:#181818;stroke-width:1.5;" width="128.1719" x="510.2881" y="289.0469"/><text fill="#000000" font-family="sans-serif" font-size="14" lengthAdjust="spacing" textLength="108.1719" x="520.2881" y="313.5801">Gestion Incidents</text><rect fill="#F1F1F1" height="37.6094" rx="12.5" ry="12.5" style="stroke:#181818;stroke-width:1.5;" width="167.0684" x="293.2197" y="116.2188"/><text fill="#000000" font-family="sans-serif" font-size="14" lengthAdjust="spacing" textLength="147.0684" x="303.2197" y="140.752">Remontees Structurees</text><rect fill="#F1F1F1" height="37.6094" rx="12.5" ry="12.5" style="stroke:#181818;stroke-width:1.5;" width="233.2197" x="10" y="58.6094"/><text fill="#000000" font-family="sans-serif" font-size="14" lengthAdjust="spacing" textLength="213.2197" x="20" y="83.1426">Formulaire type/categorie/urgence</text><path d="M293.2197,135.0234 L283.2197,135.0234 C268.2197,135.0234 268.2197,77.4141 253.2197,77.4141 L243.2197,77.4141 " fill="none" style="stroke:#181818;stroke-width:1;"/><rect fill="#F1F1F1" height="37.6094" rx="12.5" ry="12.5" style="stroke:#181818;stroke-width:1.5;" width="128.1855" x="115.0342" y="116.2188"/><text fill="#000000" font-family="sans-serif" font-size="14" lengthAdjust="spacing" textLength="108.1855" x="125.0342" y="140.752">Photos attachees</text><path d="M293.2197,135.0234 L283.2197,135.0234 C268.2197,135.0234 268.2197,135.0234 253.2197,135.0234 L243.2197,135.0234 " fill="none" style="stroke:#181818;stroke-width:1;"/><rect fill="#F1F1F1" height="37.6094" rx="12.5" ry="12.5" style="stroke:#181818;stroke-width:1.5;" width="174.0684" x="69.1514" y="173.8281"/><text fill="#000000" font-family="sans-serif" font-size="14" lengthAdjust="spacing" textLength="154.0684" x="79.1514" y="198.3613">Description voix possible</text><path d="M293.2197,135.0234 L283.2197,135.0234 C268.2197,135.0234 268.2197,192.6328 253.2197,192.6328 L243.2197,192.6328 " fill="none" style="stroke:#181818;stroke-width:1;"/><path d="M510.2881,307.8516 L500.2881,307.8516 C485.2881,307.8516 485.2881,135.0234 470.2881,135.0234 L460.2881,135.0234 " fill="none" style="stroke:#181818;stroke-width:1;"/><rect fill="#F1F1F1" height="37.6094" rx="12.5" ry="12.5" style="stroke:#181818;stroke-width:1.5;" width="90.8135" x="369.4746" y="289.0469"/><text fill="#000000" font-family="sans-serif" font-size="14" lengthAdjust="spacing" textLength="70.8135" x="379.4746" y="313.5801">Suivi Statut</text><rect fill="#F1F1F1" height="37.6094" rx="12.5" ry="12.5" style="stroke:#181818;stroke-width:1.5;" width="165.5029" x="153.9717" y="231.4375"/><text fill="#000000" font-family="sans-serif" font-size="14" lengthAdjust="spacing" textLength="145.5029" x="163.9717" y="255.9707">Notifications temps reel</text><path d="M369.4746,307.8516 L359.4746,307.8516 C344.4746,307.8516 344.4746,250.2422 329.4746,250.2422 L319.4746,250.2422 " fill="none" style="stroke:#181818;stroke-width:1;"/><rect fill="#F1F1F1" height="37.6094" rx="12.5" ry="12.5" style="stroke:#181818;stroke-width:1.5;" width="156.9307" x="162.5439" y="289.0469"/><text fill="#000000" font-family="sans-serif" font-size="14" lengthAdjust="spacing" textLength="136.9307" x="172.5439" y="313.5801">Commentaires RA/BE</text><path d="M369.4746,307.8516 L359.4746,307.8516 C344.4746,307.8516 344.4746,307.8516 329.4746,307.8516 L319.4746,307.8516 " fill="none" style="stroke:#181818;stroke-width:1;"/><rect fill="#F1F1F1" height="37.6094" rx="12.5" ry="12.5" style="stroke:#181818;stroke-width:1.5;" width="135.9375" x="183.5371" y="346.6563"/><text fill="#000000" font-family="sans-serif" font-size="14" lengthAdjust="spacing" textLength="115.9375" x="193.5371" y="371.1895">Historique complet</text><path d="M369.4746,307.8516 L359.4746,307.8516 C344.4746,307.8516 344.4746,365.4609 329.4746,365.4609 L319.4746,365.4609 " fill="none" style="stroke:#181818;stroke-width:1;"/><path d="M510.2881,307.8516 L500.2881,307.8516 C485.2881,307.8516 485.2881,307.8516 470.2881,307.8516 L460.2881,307.8516 " fill="none" style="stroke:#181818;stroke-width:1;"/><rect fill="#F1F1F1" height="37.6094" rx="12.5" ry="12.5" style="stroke:#181818;stroke-width:1.5;" width="71.3447" x="388.9434" y="461.875"/><text fill="#000000" font-family="sans-serif" font-size="14" lengthAdjust="spacing" textLength="51.3447" x="398.9434" y="486.4082">Priorites</text><rect fill="#F1F1F1" height="37.6094" rx="12.5" ry="12.5" style="stroke:#181818;stroke-width:1.5;" width="160.8613" x="178.082" y="404.2656"/><text fill="#000000" font-family="sans-serif" font-size="14" lengthAdjust="spacing" textLength="140.8613" x="188.082" y="428.7988">Urgence haute (rouge)</text><path d="M388.9434,480.6797 L378.9434,480.6797 C363.9434,480.6797 363.9434,423.0703 348.9434,423.0703 L338.9434,423.0703 " fill="none" style="stroke:#181818;stroke-width:1;"/><rect fill="#F1F1F1" height="37.6094" rx="12.5" ry="12.5" style="stroke:#181818;stroke-width:1.5;" width="191.2061" x="147.7373" y="461.875"/><text fill="#000000" font-family="sans-serif" font-size="14" lengthAdjust="spacing" textLength="171.2061" x="157.7373" y="486.4082">Urgence moyenne (orange)</text><path d="M388.9434,480.6797 L378.9434,480.6797 C363.9434,480.6797 363.9434,480.6797 348.9434,480.6797 L338.9434,480.6797 " fill="none" style="stroke:#181818;stroke-width:1;"/><rect fill="#F1F1F1" height="37.6094" rx="12.5" ry="12.5" style="stroke:#181818;stroke-width:1.5;" width="158.5029" x="180.4404" y="519.4844"/><text fill="#000000" font-family="sans-serif" font-size="14" lengthAdjust="spacing" textLength="138.5029" x="190.4404" y="544.0176">Urgence basse (verte)</text><path d="M388.9434,480.6797 L378.9434,480.6797 C363.9434,480.6797 363.9434,538.2891 348.9434,538.2891 L338.9434,538.2891 " fill="none" style="stroke:#181818;stroke-width:1;"/><path d="M510.2881,307.8516 L500.2881,307.8516 C485.2881,307.8516 485.2881,480.6797 470.2881,480.6797 L460.2881,480.6797 " fill="none" style="stroke:#181818;stroke-width:1;"/><path d="M688.46,999.1641 L678.46,999.1641 C663.46,999.1641 663.46,307.8516 648.46,307.8516 L638.46,307.8516 " fill="none" style="stroke:#181818;stroke-width:1;"/><rect fill="#F1F1F1" height="37.6094" rx="12.5" ry="12.5" style="stroke:#181818;stroke-width:1.5;" width="97.0342" x="541.4258" y="778.7266"/><text fill="#000000" font-family="sans-serif" font-size="14" lengthAdjust="spacing" textLength="77.0342" x="551.4258" y="803.2598">Acces Plans</text><rect fill="#F1F1F1" height="37.6094" rx="12.5" ry="12.5" style="stroke:#181818;stroke-width:1.5;" width="98.5996" x="392.8262" y="634.7031"/><text fill="#000000" font-family="sans-serif" font-size="14" lengthAdjust="spacing" textLength="78.5996" x="402.8262" y="659.2363">Visualisation</text><rect fill="#F1F1F1" height="37.6094" rx="12.5" ry="12.5" style="stroke:#181818;stroke-width:1.5;" width="106.3721" x="236.4541" y="577.0938"/><text fill="#000000" font-family="sans-serif" font-size="14" lengthAdjust="spacing" textLength="86.3721" x="246.4541" y="601.627">Zoom/rotation</text><path d="M392.8262,653.5078 L382.8262,653.5078 C367.8262,653.5078 367.8262,595.8984 352.8262,595.8984 L342.8262,595.8984 " fill="none" style="stroke:#181818;stroke-width:1;"/><rect fill="#F1F1F1" height="37.6094" rx="12.5" ry="12.5" style="stroke:#181818;stroke-width:1.5;" width="118.8203" x="224.0059" y="634.7031"/><text fill="#000000" font-family="sans-serif" font-size="14" lengthAdjust="spacing" textLength="98.8203" x="234.0059" y="659.2363">Toutes versions</text><path d="M392.8262,653.5078 L382.8262,653.5078 C367.8262,653.5078 367.8262,653.5078 352.8262,653.5078 L342.8262,653.5078 " fill="none" style="stroke:#181818;stroke-width:1;"/><rect fill="#F1F1F1" height="37.6094" rx="12.5" ry="12.5" style="stroke:#181818;stroke-width:1.5;" width="127.3994" x="215.4268" y="692.3125"/><text fill="#000000" font-family="sans-serif" font-size="14" lengthAdjust="spacing" textLength="107.3994" x="225.4268" y="716.8457">Offline disponible</text><path d="M392.8262,653.5078 L382.8262,653.5078 C367.8262,653.5078 367.8262,711.1172 352.8262,711.1172 L342.8262,711.1172 " fill="none" style="stroke:#181818;stroke-width:1;"/><path d="M541.4258,797.5313 L531.4258,797.5313 C516.4258,797.5313 516.4258,653.5078 501.4258,653.5078 L491.4258,653.5078 " fill="none" style="stroke:#181818;stroke-width:1;"/><rect fill="#F1F1F1" height="37.6094" rx="12.5" ry="12.5" style="stroke:#181818;stroke-width:1.5;" width="93.9443" x="397.4814" y="807.5313"/><text fill="#000000" font-family="sans-serif" font-size="14" lengthAdjust="spacing" textLength="73.9443" x="407.4814" y="832.0645">Annotations</text><rect fill="#F1F1F1" height="37.6094" rx="12.5" ry="12.5" style="stroke:#181818;stroke-width:1.5;" width="105.5928" x="241.8887" y="749.9219"/><text fill="#000000" font-family="sans-serif" font-size="14" lengthAdjust="spacing" textLength="85.5928" x="251.8887" y="774.4551">Crayon tactile</text><path d="M397.4814,826.3359 L387.4814,826.3359 C372.4814,826.3359 372.4814,768.7266 357.4814,768.7266 L347.4814,768.7266 " fill="none" style="stroke:#181818;stroke-width:1;"/><rect fill="#F1F1F1" height="37.6094" rx="12.5" ry="12.5" style="stroke:#181818;stroke-width:1.5;" width="111.0273" x="236.4541" y="807.5313"/><text fill="#000000" font-family="sans-serif" font-size="14" lengthAdjust="spacing" textLength="91.0273" x="246.4541" y="832.0645">Commentaires</text><path d="M397.4814,826.3359 L387.4814,826.3359 C372.4814,826.3359 372.4814,826.3359 357.4814,826.3359 L347.4814,826.3359 " fill="none" style="stroke:#181818;stroke-width:1;"/><rect fill="#F1F1F1" height="37.6094" rx="12.5" ry="12.5" style="stroke:#181818;stroke-width:1.5;" width="114.9648" x="232.5166" y="865.1406"/><text fill="#000000" font-family="sans-serif" font-size="14" lengthAdjust="spacing" textLength="94.9648" x="242.5166" y="889.6738">Partage equipe</text><path d="M397.4814,826.3359 L387.4814,826.3359 C372.4814,826.3359 372.4814,883.9453 357.4814,883.9453 L347.4814,883.9453 " fill="none" style="stroke:#181818;stroke-width:1;"/><path d="M541.4258,797.5313 L531.4258,797.5313 C516.4258,797.5313 516.4258,826.3359 501.4258,826.3359 L491.4258,826.3359 " fill="none" style="stroke:#181818;stroke-width:1;"/><rect fill="#F1F1F1" height="37.6094" rx="12.5" ry="12.5" style="stroke:#181818;stroke-width:1.5;" width="119.6133" x="371.8125" y="951.5547"/><text fill="#000000" font-family="sans-serif" font-size="14" lengthAdjust="spacing" textLength="99.6133" x="381.8125" y="976.0879">Synchronisation</text><rect fill="#F1F1F1" height="37.6094" rx="12.5" ry="12.5" style="stroke:#181818;stroke-width:1.5;" width="167.8408" x="153.9717" y="922.75"/><text fill="#000000" font-family="sans-serif" font-size="14" lengthAdjust="spacing" textLength="147.8408" x="163.9717" y="947.2832">Auto-sync modifications</text><path d="M371.8125,970.3594 L361.8125,970.3594 C346.8125,970.3594 346.8125,941.5547 331.8125,941.5547 L321.8125,941.5547 " fill="none" style="stroke:#181818;stroke-width:1;"/><rect fill="#F1F1F1" height="37.6094" rx="12.5" ry="12.5" style="stroke:#181818;stroke-width:1.5;" width="115.71" x="206.1025" y="980.3594"/><text fill="#000000" font-family="sans-serif" font-size="14" lengthAdjust="spacing" textLength="95.71" x="216.1025" y="1004.8926">Gestion conflits</text><path d="M371.8125,970.3594 L361.8125,970.3594 C346.8125,970.3594 346.8125,999.1641 331.8125,999.1641 L321.8125,999.1641 " fill="none" style="stroke:#181818;stroke-width:1;"/><path d="M541.4258,797.5313 L531.4258,797.5313 C516.4258,797.5313 516.4258,970.3594 501.4258,970.3594 L491.4258,970.3594 " fill="none" style="stroke:#181818;stroke-width:1;"/><path d="M688.46,999.1641 L678.46,999.1641 C663.46,999.1641 663.46,797.5313 648.46,797.5313 L638.46,797.5313 " fill="none" style="stroke:#181818;stroke-width:1;"/><rect fill="#F1F1F1" height="37.6094" rx="12.5" ry="12.5" style="stroke:#181818;stroke-width:1.5;" width="153.0479" x="485.4121" y="1268.4063"/><text fill="#000000" font-family="sans-serif" font-size="14" lengthAdjust="spacing" textLength="133.0479" x="495.4121" y="1292.9395">Commandes Materiel</text><rect fill="#F1F1F1" height="37.6094" rx="12.5" ry="12.5" style="stroke:#181818;stroke-width:1.5;" width="139.0752" x="296.3369" y="1095.5781"/><text fill="#000000" font-family="sans-serif" font-size="14" lengthAdjust="spacing" textLength="119.0752" x="306.3369" y="1120.1113">Catalogue Produits</text><rect fill="#F1F1F1" height="37.6094" rx="12.5" ry="12.5" style="stroke:#181818;stroke-width:1.5;" width="130.5098" x="115.8271" y="1037.9688"/><text fill="#000000" font-family="sans-serif" font-size="14" lengthAdjust="spacing" textLength="110.5098" x="125.8271" y="1062.502">Recherche rapide</text><path d="M296.3369,1114.3828 L286.3369,1114.3828 C271.3369,1114.3828 271.3369,1056.7734 256.3369,1056.7734 L246.3369,1056.7734 " fill="none" style="stroke:#181818;stroke-width:1;"/><rect fill="#F1F1F1" height="37.6094" rx="12.5" ry="12.5" style="stroke:#181818;stroke-width:1.5;" width="65.8965" x="180.4404" y="1095.5781"/><text fill="#000000" font-family="sans-serif" font-size="14" lengthAdjust="spacing" textLength="45.8965" x="190.4404" y="1120.1113">Favoris</text><path d="M296.3369,1114.3828 L286.3369,1114.3828 C271.3369,1114.3828 271.3369,1114.3828 256.3369,1114.3828 L246.3369,1114.3828 " fill="none" style="stroke:#181818;stroke-width:1;"/><rect fill="#F1F1F1" height="37.6094" rx="12.5" ry="12.5" style="stroke:#181818;stroke-width:1.5;" width="163.1719" x="83.165" y="1153.1875"/><text fill="#000000" font-family="sans-serif" font-size="14" lengthAdjust="spacing" textLength="143.1719" x="93.165" y="1177.7207">Historique commandes</text><path d="M296.3369,1114.3828 L286.3369,1114.3828 C271.3369,1114.3828 271.3369,1171.9922 256.3369,1171.9922 L246.3369,1171.9922 " fill="none" style="stroke:#181818;stroke-width:1;"/><path d="M485.4121,1287.2109 L475.4121,1287.2109 C460.4121,1287.2109 460.4121,1114.3828 445.4121,1114.3828 L435.4121,1114.3828 " fill="none" style="stroke:#181818;stroke-width:1;"/><rect fill="#F1F1F1" height="37.6094" rx="12.5" ry="12.5" style="stroke:#181818;stroke-width:1.5;" width="77.5586" x="357.8535" y="1268.4063"/><text fill="#000000" font-family="sans-serif" font-size="14" lengthAdjust="spacing" textLength="57.5586" x="367.8535" y="1292.9395">Workflow</text><rect fill="#F1F1F1" height="37.6094" rx="12.5" ry="12.5" style="stroke:#181818;stroke-width:1.5;" width="164.751" x="143.1025" y="1210.7969"/><text fill="#000000" font-family="sans-serif" font-size="14" lengthAdjust="spacing" textLength="144.751" x="153.1025" y="1235.3301">Demande chef chantier</text><path d="M357.8535,1287.2109 L347.8535,1287.2109 C332.8535,1287.2109 332.8535,1229.6016 317.8535,1229.6016 L307.8535,1229.6016 " fill="none" style="stroke:#181818;stroke-width:1;"/><rect fill="#F1F1F1" height="37.6094" rx="12.5" ry="12.5" style="stroke:#181818;stroke-width:1.5;" width="169.0098" x="138.8438" y="1268.4063"/><text fill="#000000" font-family="sans-serif" font-size="14" lengthAdjust="spacing" textLength="149.0098" x="148.8438" y="1292.9395">Validation RA (si &gt;seuil)</text><path d="M357.8535,1287.2109 L347.8535,1287.2109 C332.8535,1287.2109 332.8535,1287.2109 317.8535,1287.2109 L307.8535,1287.2109 " fill="none" style="stroke:#181818;stroke-width:1;"/><rect fill="#F1F1F1" height="37.6094" rx="12.5" ry="12.5" style="stroke:#181818;stroke-width:1.5;" width="161.6201" x="146.2334" y="1326.0156"/><text fill="#000000" font-family="sans-serif" font-size="14" lengthAdjust="spacing" textLength="141.6201" x="156.2334" y="1350.5488">Notification magasinier</text><path d="M357.8535,1287.2109 L347.8535,1287.2109 C332.8535,1287.2109 332.8535,1344.8203 317.8535,1344.8203 L307.8535,1344.8203 " fill="none" style="stroke:#181818;stroke-width:1;"/><path d="M485.4121,1287.2109 L475.4121,1287.2109 C460.4121,1287.2109 460.4121,1287.2109 445.4121,1287.2109 L435.4121,1287.2109 " fill="none" style="stroke:#181818;stroke-width:1;"/><rect fill="#F1F1F1" height="37.6094" rx="12.5" ry="12.5" style="stroke:#181818;stroke-width:1.5;" width="117.2617" x="318.1504" y="1441.2344"/><text fill="#000000" font-family="sans-serif" font-size="14" lengthAdjust="spacing" textLength="97.2617" x="328.1504" y="1465.7676">Suivi Livraisons</text><rect fill="#F1F1F1" height="37.6094" rx="12.5" ry="12.5" style="stroke:#181818;stroke-width:1.5;" width="125.8271" x="142.3232" y="1383.625"/><text fill="#000000" font-family="sans-serif" font-size="14" lengthAdjust="spacing" textLength="105.8271" x="152.3232" y="1408.1582">Statut temps reel</text><path d="M318.1504,1460.0391 L308.1504,1460.0391 C293.1504,1460.0391 293.1504,1402.4297 278.1504,1402.4297 L268.1504,1402.4297 " fill="none" style="stroke:#181818;stroke-width:1;"/><rect fill="#F1F1F1" height="37.6094" rx="12.5" ry="12.5" style="stroke:#181818;stroke-width:1.5;" width="118.8135" x="149.3369" y="1441.2344"/><text fill="#000000" font-family="sans-serif" font-size="14" lengthAdjust="spacing" textLength="98.8135" x="159.3369" y="1465.7676">Alertes livraison</text><path d="M318.1504,1460.0391 L308.1504,1460.0391 C293.1504,1460.0391 293.1504,1460.0391 278.1504,1460.0391 L268.1504,1460.0391 " fill="none" style="stroke:#181818;stroke-width:1;"/><rect fill="#F1F1F1" height="37.6094" rx="12.5" ry="12.5" style="stroke:#181818;stroke-width:1.5;" width="128.1719" x="139.9785" y="1498.8438"/><text fill="#000000" font-family="sans-serif" font-size="14" lengthAdjust="spacing" textLength="108.1719" x="149.9785" y="1523.377">Reception mobile</text><path d="M318.1504,1460.0391 L308.1504,1460.0391 C293.1504,1460.0391 293.1504,1517.6484 278.1504,1517.6484 L268.1504,1517.6484 " fill="none" style="stroke:#181818;stroke-width:1;"/><path d="M485.4121,1287.2109 L475.4121,1287.2109 C460.4121,1287.2109 460.4121,1460.0391 445.4121,1460.0391 L435.4121,1460.0391 " fill="none" style="stroke:#181818;stroke-width:1;"/><path d="M688.46,999.1641 L678.46,999.1641 C663.46,999.1641 663.46,1287.2109 648.46,1287.2109 L638.46,1287.2109 " fill="none" style="stroke:#181818;stroke-width:1;"/><rect fill="#F1F1F1" height="37.6094" rx="12.5" ry="12.5" style="stroke:#181818;stroke-width:1.5;" width="145.2959" x="493.1641" y="1729.2813"/><text fill="#000000" font-family="sans-serif" font-size="14" lengthAdjust="spacing" textLength="125.2959" x="503.1641" y="1753.8145">Dashboard Chantier</text><rect fill="#F1F1F1" height="37.6094" rx="12.5" ry="12.5" style="stroke:#181818;stroke-width:1.5;" width="128.9307" x="314.2334" y="1642.8672"/><text fill="#000000" font-family="sans-serif" font-size="14" lengthAdjust="spacing" textLength="108.9307" x="324.2334" y="1667.4004">Informations Cles</text><rect fill="#F1F1F1" height="37.6094" rx="12.5" ry="12.5" style="stroke:#181818;stroke-width:1.5;" width="190.4131" x="73.8203" y="1556.4531"/><text fill="#000000" font-family="sans-serif" font-size="14" lengthAdjust="spacing" textLength="170.4131" x="83.8203" y="1580.9863">Budget initial vs consomme</text><path d="M314.2334,1661.6719 L304.2334,1661.6719 C289.2334,1661.6719 289.2334,1575.2578 274.2334,1575.2578 L264.2334,1575.2578 " fill="none" style="stroke:#181818;stroke-width:1;"/><rect fill="#F1F1F1" height="37.6094" rx="12.5" ry="12.5" style="stroke:#181818;stroke-width:1.5;" width="120.4199" x="143.8135" y="1614.0625"/><text fill="#000000" font-family="sans-serif" font-size="14" lengthAdjust="spacing" textLength="100.4199" x="153.8135" y="1638.5957">Planning equipe</text><path d="M314.2334,1661.6719 L304.2334,1661.6719 C289.2334,1661.6719 289.2334,1632.8672 274.2334,1632.8672 L264.2334,1632.8672 " fill="none" style="stroke:#181818;stroke-width:1;"/><rect fill="#F1F1F1" height="37.6094" rx="12.5" ry="12.5" style="stroke:#181818;stroke-width:1.5;" width="156.9512" x="107.2822" y="1671.6719"/><text fill="#000000" font-family="sans-serif" font-size="14" lengthAdjust="spacing" textLength="136.9512" x="117.2822" y="1696.2051">Commandes en cours</text><path d="M314.2334,1661.6719 L304.2334,1661.6719 C289.2334,1661.6719 289.2334,1690.4766 274.2334,1690.4766 L264.2334,1690.4766 " fill="none" style="stroke:#181818;stroke-width:1;"/><rect fill="#F1F1F1" height="37.6094" rx="12.5" ry="12.5" style="stroke:#181818;stroke-width:1.5;" width="125.834" x="138.3994" y="1729.2813"/><text fill="#000000" font-family="sans-serif" font-size="14" lengthAdjust="spacing" textLength="105.834" x="148.3994" y="1753.8145">Incidents ouverts</text><path d="M314.2334,1661.6719 L304.2334,1661.6719 C289.2334,1661.6719 289.2334,1748.0859 274.2334,1748.0859 L264.2334,1748.0859 " fill="none" style="stroke:#181818;stroke-width:1;"/><path d="M493.1641,1748.0859 L483.1641,1748.0859 C468.1641,1748.0859 468.1641,1661.6719 453.1641,1661.6719 L443.1641,1661.6719 " fill="none" style="stroke:#181818;stroke-width:1;"/><rect fill="#F1F1F1" height="37.6094" rx="12.5" ry="12.5" style="stroke:#181818;stroke-width:1.5;" width="126.6133" x="316.5508" y="1844.5"/><text fill="#000000" font-family="sans-serif" font-size="14" lengthAdjust="spacing" textLength="106.6133" x="326.5508" y="1869.0332">Mode Hors Ligne</text><rect fill="#F1F1F1" height="37.6094" rx="12.5" ry="12.5" style="stroke:#181818;stroke-width:1.5;" width="150.751" x="115.7998" y="1786.8906"/><text fill="#000000" font-family="sans-serif" font-size="14" lengthAdjust="spacing" textLength="130.751" x="125.7998" y="1811.4238">Synchronisation auto</text><path d="M316.5508,1863.3047 L306.5508,1863.3047 C291.5508,1863.3047 291.5508,1805.6953 276.5508,1805.6953 L266.5508,1805.6953 " fill="none" style="stroke:#181818;stroke-width:1;"/><rect fill="#F1F1F1" height="37.6094" rx="12.5" ry="12.5" style="stroke:#181818;stroke-width:1.5;" width="95.4824" x="171.0684" y="1844.5"/><text fill="#000000" font-family="sans-serif" font-size="14" lengthAdjust="spacing" textLength="75.4824" x="181.0684" y="1869.0332">SQLite local</text><path d="M316.5508,1863.3047 L306.5508,1863.3047 C291.5508,1863.3047 291.5508,1863.3047 276.5508,1863.3047 L266.5508,1863.3047 " fill="none" style="stroke:#181818;stroke-width:1;"/><rect fill="#F1F1F1" height="37.6094" rx="12.5" ry="12.5" style="stroke:#181818;stroke-width:1.5;" width="131.2754" x="135.2754" y="1902.1094"/><text fill="#000000" font-family="sans-serif" font-size="14" lengthAdjust="spacing" textLength="111.2754" x="145.2754" y="1926.6426">Conflict resolution</text><path d="M316.5508,1863.3047 L306.5508,1863.3047 C291.5508,1863.3047 291.5508,1920.9141 276.5508,1920.9141 L266.5508,1920.9141 " fill="none" style="stroke:#181818;stroke-width:1;"/><path d="M493.1641,1748.0859 L483.1641,1748.0859 C468.1641,1748.0859 468.1641,1863.3047 453.1641,1863.3047 L443.1641,1863.3047 " fill="none" style="stroke:#181818;stroke-width:1;"/><path d="M688.46,999.1641 L678.46,999.1641 C663.46,999.1641 663.46,1748.0859 648.46,1748.0859 L638.46,1748.0859 " fill="none" style="stroke:#181818;stroke-width:1;"/><!--SRC=[RLNRRXit47tVhvX7sQsZsd22G0z5P5bo4aYDAjakK0GegDtHYYYNt91SjSvhlwQ_qVvO3o-hI7OV944SpktCESDtpWlh6wchHhIqIB-_pOmklJHQ2oKzkwBmqYkciTqOowvaNJ8Txh0AfhPLiXJXW1Pc8t4qsGdj9TkYE3ysVzR9_baVNJYdEtRHURaptZYSdDFIIiVf8Fm_frjfkVJSiFPKSTj9Hw9ja-sJhOMMBbKWEc-e5PRAFaMyis0lAk45tItNz1rvsI2fQ684UcYL4HMDuTeWofUEazCZMqUExPuxI-EldMMwKMQJZ1FJj434XQHIUq0XQrINNHUcOjeP-EDOCmqGjEEpcEvEABRo2ANeCPFA8nuDK2P_J_wfnVTNevFJEQsutB75Xze3JW0A8nGreqe5VEGs0he2DCPwHnzG3whN0PcO-fwRLeamrnGpNOprz_S8kEXAsEhqYjWBZ3xWVtgEiN1xY7_7ccqQH40prsZ__UkVlozio2sT2-LAlJNksOX2iNLsJYt6f7ue0ixfpb7yvUsCBga4jsBcDM0MFene6f2mHd-RunhZysAZs7iUDf62sN1mGfn3Q- -DDO4hTRn5KxqtygYTQIEaEd589nl44Lqw6MDGSfy64-bJ58gtdfoi-8Jp7tI98-qJxLVS6A005gozxSfGMT_vpDYcKm8oYDGOGb5S6z1esDawg39ZdO7pNe0glVCjb6jb71EXcJ-fDI3k9i40UEHU8YEGo0tzP42bB5f7a5thC6XM1-O77eHQ7At6mvjfnaqwZue0EvKG1-3kjOpJ0-SUKhcqWrAX2skwkgTuRshC4-iW6cE5Vc7T28VTCDYpzJ05CCTbYKgMIkW4uwDq7TPNsWZ9-LTZcg4r_kZetg00HuWJD9oh-xJTAedKbNGjADH3DDOw- -Px4okU02PGzWSs7UDogax-qiasW_saorrWvt5rWLmN3XQqNdr3lkTyeaffD6e3KugS2p95_GiG0JI8iw49QAjCZGaimU5EUlTyULZH1WucJeaz9kF-RtefU8pvYx6_RvNvewTID46xl7qcu4TWNYLnhiOqS99-TDn9TVQILDI8MZYfis-cu5pkhP3kq7cYv0l-ZLKOVTYi-VgXnxI9A4iyu7Ght6vZiCrEjYrajuMUChydgf_NJLVL7DQXz58eshi0kWjZpVC4nRJKzT50ZqV1OKYTTVq-oz8cqmMo9ZJZm_0-F0ppy33aHaz94H-nRFbv3kcGCgKug2_Ge0oRrndLHH8LxnYlTth1Yo9KwHyMyvxQTFdgweUhwrTl1pChCOOzNRwcoxUZw-lHzHkQJEyfcC-AmTroJWuDb97_tifD37zMVCGYfbMdmxCvel1lSByue_MqFmnBKgA1-3vyV5oaI-ZJhrlZu-KtrnStqjCwx4DBZulYbhUYKnwk9KYlwn5DsikhrrV57ABl89iHRMqnCSXWdqOqM_q7]--></g></svg>