<svg xmlns="http://www.w3.org/2000/svg" xmlns:xlink="http://www.w3.org/1999/xlink" contentStyleType="text/css" height="1526px" preserveAspectRatio="none" style="width:1296px;height:1526px;background:#FFFFFF;" version="1.1" viewBox="0 0 1296 1526" width="1296px" zoomAndPan="magnify"><title>Cas d'Usage Application Mobile Chantier</title><defs/><g><text fill="#000000" font-family="sans-serif" font-size="14" font-weight="bold" lengthAdjust="spacing" textLength="272.4805" x="504.7598" y="24.5332">Cas d'Usage Application Mobile Chantier</text><!--cluster Application Mobile Chantier--><g id="cluster_Application Mobile Chantier"><rect fill="none" height="750" rx="2.5" ry="2.5" style="stroke:#181818;stroke-width:1;" width="1151" x="139" y="512.6094"/><text fill="#000000" font-family="sans-serif" font-size="14" font-weight="bold" lengthAdjust="spacing" textLength="185.1172" x="621.9414" y="529.1426">Application Mobile Chantier</text></g><g id="elem_UC1"><ellipse cx="254.9768" cy="856.7047" fill="#F1F1F1" rx="73.4768" ry="17.0954" style="stroke:#181818;stroke-width:0.5;"/><text fill="#000000" font-family="sans-serif" font-size="14" lengthAdjust="spacing" textLength="97.2754" x="203.3391" y="861.2213">Consulter plans</text></g><g id="elem_UC2"><ellipse cx="255.093" cy="925.428" fill="#F1F1F1" rx="69.593" ry="16.3186" style="stroke:#181818;stroke-width:0.5;"/><text fill="#000000" font-family="sans-serif" font-size="14" lengthAdjust="spacing" textLength="86.3926" x="208.8967" y="929.9446">Annoter plans</text></g><g id="elem_UC3"><ellipse cx="1200.9128" cy="693.5919" fill="#F1F1F1" rx="72.9128" ry="16.9826" style="stroke:#181818;stroke-width:0.5;"/><text fill="#000000" font-family="sans-serif" font-size="14" lengthAdjust="spacing" textLength="95.7305" x="1150.0476" y="698.1085">Prendre photos</text></g><g id="elem_UC4"><ellipse cx="952.9296" cy="1074.5953" fill="#F1F1F1" rx="82.9296" ry="18.9859" style="stroke:#181818;stroke-width:0.5;"/><text fill="#000000" font-family="sans-serif" font-size="14" lengthAdjust="spacing" textLength="121.4268" x="892.2162" y="1078.3238">Upload auto photos</text></g><g id="elem_UC5"><ellipse cx="637.1775" cy="1074.4449" fill="#F1F1F1" rx="87.1775" ry="19.8355" style="stroke:#181818;stroke-width:0.5;"/><text fill="#000000" font-family="sans-serif" font-size="14" lengthAdjust="spacing" textLength="131.4961" x="571.4294" y="1078.1734">Generer rapport PDF</text></g><g id="elem_UC6"><ellipse cx="254.9635" cy="1074.7021" fill="#F1F1F1" rx="95.9635" ry="21.5927" style="stroke:#181818;stroke-width:0.5;"/><text fill="#000000" font-family="sans-serif" font-size="14" lengthAdjust="spacing" textLength="151.7578" x="179.0846" y="1078.4306">Signer electroniquement</text></g><g id="elem_UC7"><ellipse cx="255.2234" cy="785.4541" fill="#F1F1F1" rx="79.7234" ry="18.3447" style="stroke:#181818;stroke-width:0.5;"/><text fill="#000000" font-family="sans-serif" font-size="14" lengthAdjust="spacing" textLength="113.6133" x="197.3058" y="789.4996">Remonter incident</text></g><g id="elem_UC8"><ellipse cx="254.8427" cy="997.3779" fill="#F1F1F1" rx="86.8427" ry="19.7685" style="stroke:#181818;stroke-width:0.5;"/><text fill="#000000" font-family="sans-serif" font-size="14" lengthAdjust="spacing" textLength="130.71" x="189.4877" y="1001.1064">Commander materiel</text></g><g id="elem_UC9"><ellipse cx="255.1971" cy="1148.5488" fill="#F1F1F1" rx="75.1971" ry="17.4394" style="stroke:#181818;stroke-width:0.5;"/><text fill="#000000" font-family="sans-serif" font-size="14" lengthAdjust="spacing" textLength="101.9238" x="201.2352" y="1153.0654">Suivre livraisons</text></g><g id="elem_UC10"><ellipse cx="254.7568" cy="1223.4607" fill="#F1F1F1" rx="99.7568" ry="22.3514" style="stroke:#181818;stroke-width:0.5;"/><text fill="#000000" font-family="sans-serif" font-size="14" lengthAdjust="spacing" textLength="160.3232" x="174.5952" y="1227.1893">Consulter budget chantier</text></g><g id="elem_UC11"><ellipse cx="255.0463" cy="568.6186" fill="#F1F1F1" rx="85.5463" ry="19.5093" style="stroke:#181818;stroke-width:0.5;"/><text fill="#000000" font-family="sans-serif" font-size="14" lengthAdjust="spacing" textLength="127.6543" x="191.2192" y="572.3472">Voir planning equipe</text></g><g id="elem_UC12"><ellipse cx="254.8737" cy="642.4841" fill="#F1F1F1" rx="84.8737" ry="19.3747" style="stroke:#181818;stroke-width:0.5;"/><text fill="#000000" font-family="sans-serif" font-size="14" lengthAdjust="spacing" textLength="126.0615" x="191.843" y="646.2126">Messagerie chantier</text></g><g id="elem_UC13"><ellipse cx="254.8377" cy="714.3769" fill="#F1F1F1" rx="74.3377" ry="17.2675" style="stroke:#181818;stroke-width:0.5;"/><text fill="#000000" font-family="sans-serif" font-size="14" lengthAdjust="spacing" textLength="99.6133" x="202.0311" y="718.8935">Mode hors ligne</text></g><!--entity Chef--><g id="elem_Chef"><ellipse cx="49.1895" cy="895.1094" fill="#F1F1F1" rx="8" ry="8" style="stroke:#181818;stroke-width:0.5;"/><path d="M49.1895,903.1094 L49.1895,930.1094 M36.1895,911.1094 L62.1895,911.1094 M49.1895,930.1094 L36.1895,945.1094 M49.1895,930.1094 L62.1895,945.1094 " fill="none" style="stroke:#181818;stroke-width:0.5;"/><text fill="#000000" font-family="sans-serif" font-size="14" lengthAdjust="spacing" textLength="86.3789" x="6" y="961.1426">Chef Chantier</text></g><!--entity RA--><g id="elem_RA"><ellipse cx="637.0376" cy="201.1094" fill="#F1F1F1" rx="8" ry="8" style="stroke:#181818;stroke-width:0.5;"/><path d="M637.0376,209.1094 L637.0376,236.1094 M624.0376,217.1094 L650.0376,217.1094 M637.0376,236.1094 L624.0376,251.1094 M637.0376,236.1094 L650.0376,251.1094 " fill="none" style="stroke:#181818;stroke-width:0.5;"/><text fill="#000000" font-family="sans-serif" font-size="14" lengthAdjust="spacing" textLength="126.0752" x="574" y="267.1426">Responsable Affaire</text></g><!--entity BE--><g id="elem_BE"><ellipse cx="636.8101" cy="314.1094" fill="#F1F1F1" rx="8" ry="8" style="stroke:#181818;stroke-width:0.5;"/><path d="M636.8101,322.1094 L636.8101,349.1094 M623.8101,330.1094 L649.8101,330.1094 M636.8101,349.1094 L623.8101,364.1094 M636.8101,349.1094 L649.8101,364.1094 " fill="none" style="stroke:#181818;stroke-width:0.5;"/><text fill="#000000" font-family="sans-serif" font-size="14" lengthAdjust="spacing" textLength="92.6201" x="590.5" y="380.1426">Bureau Etudes</text></g><!--entity Mag--><g id="elem_Mag"><ellipse cx="637.2378" cy="427.1094" fill="#F1F1F1" rx="8" ry="8" style="stroke:#181818;stroke-width:0.5;"/><path d="M637.2378,435.1094 L637.2378,462.1094 M624.2378,443.1094 L650.2378,443.1094 M637.2378,462.1094 L624.2378,477.1094 M637.2378,462.1094 L650.2378,477.1094 " fill="none" style="stroke:#181818;stroke-width:0.5;"/><text fill="#000000" font-family="sans-serif" font-size="14" lengthAdjust="spacing" textLength="68.4756" x="603" y="493.1426">Magasinier</text></g><!--entity Client--><g id="elem_Client"><ellipse cx="952.8965" cy="427.1094" fill="#F1F1F1" rx="8" ry="8" style="stroke:#181818;stroke-width:0.5;"/><path d="M952.8965,435.1094 L952.8965,462.1094 M939.8965,443.1094 L965.8965,443.1094 M952.8965,462.1094 L939.8965,477.1094 M952.8965,462.1094 L965.8965,477.1094 " fill="none" style="stroke:#181818;stroke-width:0.5;"/><text fill="#000000" font-family="sans-serif" font-size="14" lengthAdjust="spacing" textLength="35.793" x="935" y="493.1426">Client</text></g><g id="elem_GMN41"><path d="M533,98.1094 L533,157.1641 L741.1733,157.1641 L741.1733,108.1094 L731.1733,98.1094 L533,98.1094 " fill="#FEFFDD" style="stroke:#181818;stroke-width:0.5;"/><path d="M731.1733,98.1094 L731.1733,108.1094 L741.1733,108.1094 L731.1733,98.1094 " fill="#FEFFDD" style="stroke:#181818;stroke-width:1;"/><text fill="#000000" font-family="sans-serif" font-size="13" lengthAdjust="spacing" textLength="187.1733" x="539" y="116.6045">Fonctionnement sans connexion</text><text fill="#000000" font-family="sans-serif" font-size="13" lengthAdjust="spacing" textLength="167.6606" x="539" y="132.9561">Synchronisation automatique</text><text fill="#000000" font-family="sans-serif" font-size="13" lengthAdjust="spacing" textLength="155.3906" x="539" y="149.3076">des que connexion retablie</text></g><g id="elem_GMN44"><path d="M184.5,404.6094 L184.5,496.3672 L325.4199,496.3672 L325.4199,414.6094 L315.4199,404.6094 L184.5,404.6094 " fill="#FEFFDD" style="stroke:#181818;stroke-width:0.5;"/><path d="M315.4199,404.6094 L315.4199,414.6094 L325.4199,414.6094 L315.4199,404.6094 " fill="#FEFFDD" style="stroke:#181818;stroke-width:1;"/><text fill="#000000" font-family="sans-serif" font-size="13" lengthAdjust="spacing" textLength="119.9199" x="190.5" y="423.1045">Formulaire structure:</text><text fill="#000000" font-family="sans-serif" font-size="13" lengthAdjust="spacing" textLength="85.2617" x="190.5" y="439.4561">- Type incident</text><text fill="#000000" font-family="sans-serif" font-size="13" lengthAdjust="spacing" textLength="57.0781" x="190.5" y="455.8076">- Urgence</text><text fill="#000000" font-family="sans-serif" font-size="13" lengthAdjust="spacing" textLength="48.4136" x="190.5" y="472.1592">- Photos</text><text fill="#000000" font-family="sans-serif" font-size="13" lengthAdjust="spacing" textLength="72.9663" x="190.5" y="488.5107">- Description</text></g><!--link Chef to UC1--><g id="link_Chef_UC1"><path d="M92.08,906.8094 C104.5,901.5794 118.19,896.0994 131,891.6094 C154.99,883.1894 176.3293,876.8703 198.9993,870.7203 " fill="none" id="Chef-to-UC1" style="stroke:#181818;stroke-width:1;"/><polygon fill="#181818" points="204.79,869.1494,195.0567,867.6453,199.9644,870.4585,197.1512,875.3662,204.79,869.1494" style="stroke:#181818;stroke-width:1;"/></g><!--link Chef to UC2--><g id="link_Chef_UC2"><path d="M92.27,925.6094 C119.11,925.6094 148.47,925.6094 179.29,925.6094 " fill="none" id="Chef-to-UC2" style="stroke:#181818;stroke-width:1;"/><polygon fill="#181818" points="185.29,925.6094,176.29,921.6094,180.29,925.6094,176.29,929.6094,185.29,925.6094" style="stroke:#181818;stroke-width:1;"/></g><!--link Chef to UC3--><g id="link_Chef_UC3"><path d="M50.55,886.3294 C53.99,715.3594 78.65,44.6094 254,44.6094 C254,44.6094 254,44.6094 954,44.6094 C1093.32,44.6094 1180.7562,568.2494 1196.5362,670.6494 " fill="none" id="Chef-to-UC3" style="stroke:#181818;stroke-width:1;"/><polygon fill="#181818" points="1197.45,676.5794,1200.0326,667.0752,1196.6885,671.6377,1192.1259,668.2936,1197.45,676.5794" style="stroke:#181818;stroke-width:1;"/></g><!--link Chef to UC4--><g id="link_Chef_UC4"><path d="M52.22,964.8594 C58.17,1053.8194 77.75,1266.4194 131,1309.6094 C390.37,1519.9694 824.3209,1182.0627 925.9409,1096.9227 " fill="none" id="Chef-to-UC4" style="stroke:#181818;stroke-width:1;"/><polygon fill="#181818" points="930.54,1093.0694,921.0724,1095.7832,926.7074,1096.2805,926.2101,1101.9154,930.54,1093.0694" style="stroke:#181818;stroke-width:1;"/></g><!--link Chef to UC5--><g id="link_Chef_UC5"><path d="M53.43,964.7094 C61.41,1045.5694 84.21,1226.7094 131,1263.6094 C291.24,1389.9794 540.4814,1168.2553 612.2114,1098.4053 " fill="none" id="Chef-to-UC5" style="stroke:#181818;stroke-width:1;"/><polygon fill="#181818" points="616.51,1094.2194,607.2715,1097.6325,612.9278,1097.7077,612.8527,1103.364,616.51,1094.2194" style="stroke:#181818;stroke-width:1;"/></g><!--link Chef to UC6--><g id="link_Chef_UC6"><path d="M70.81,964.7694 C84.98,988.0294 105.73,1016.4494 131,1034.6094 C146.68,1045.8794 160.0007,1052.2444 178.3507,1058.1744 " fill="none" id="Chef-to-UC6" style="stroke:#181818;stroke-width:1;"/><polygon fill="#181818" points="184.06,1060.0194,176.7261,1053.4457,179.3023,1058.4819,174.2661,1061.058,184.06,1060.0194" style="stroke:#181818;stroke-width:1;"/></g><!--link Chef to UC7--><g id="link_Chef_UC7"><path d="M72,886.4694 C86.21,864.4794 106.58,838.1994 131,821.6094 C148.48,809.7294 164.1348,803.2536 184.1948,797.8736 " fill="none" id="Chef-to-UC7" style="stroke:#181818;stroke-width:1;"/><polygon fill="#181818" points="189.99,796.3194,180.261,794.7873,185.1607,797.6146,182.3334,802.5142,189.99,796.3194" style="stroke:#181818;stroke-width:1;"/></g><!--link Chef to UC8--><g id="link_Chef_UC8"><path d="M92.15,944.2194 C104.57,949.4494 118.24,954.9694 131,959.6094 C153.27,967.6994 172.4349,973.8692 193.9849,980.3592 " fill="none" id="Chef-to-UC8" style="stroke:#181818;stroke-width:1;"/><polygon fill="#181818" points="199.73,982.0894,192.2658,975.664,194.9424,980.6475,189.9589,983.3242,199.73,982.0894" style="stroke:#181818;stroke-width:1;"/></g><!--link Chef to UC9--><g id="link_Chef_UC9"><path d="M56.64,964.9294 C65.9,1007.5894 86.8,1074.7994 131,1113.6094 C146.68,1127.3794 161.6157,1134.2682 181.5957,1139.3582 " fill="none" id="Chef-to-UC9" style="stroke:#181818;stroke-width:1;"/><polygon fill="#181818" points="187.41,1140.8394,179.676,1134.7414,182.5648,1139.605,177.7011,1142.4937,187.41,1140.8394" style="stroke:#181818;stroke-width:1;"/></g><!--link Chef to UC10--><g id="link_Chef_UC10"><path d="M51.49,964.9094 C55.75,1020.9694 71.72,1123.7194 131,1183.6094 C143.01,1195.7394 153.0824,1202.1358 169.2524,1208.0258 " fill="none" id="Chef-to-UC10" style="stroke:#181818;stroke-width:1;"/><polygon fill="#181818" points="174.89,1210.0794,167.8026,1203.2406,170.192,1208.3681,165.0645,1210.7575,174.89,1210.0794" style="stroke:#181818;stroke-width:1;"/></g><!--link Chef to UC11--><g id="link_Chef_UC11"><path d="M55.07,886.3394 C65.66,810.0994 92.42,645.9294 131,605.6094 C143.95,592.0694 155.9038,585.1989 173.8338,579.6989 " fill="none" id="Chef-to-UC11" style="stroke:#181818;stroke-width:1;"/><polygon fill="#181818" points="179.57,577.9394,169.7927,576.7546,174.7898,579.4057,172.1388,584.4029,179.57,577.9394" style="stroke:#181818;stroke-width:1;"/></g><!--link Chef to UC12--><g id="link_Chef_UC12"><path d="M52.01,886.5694 C56.91,832.5794 73.68,735.4594 131,679.6094 C144.66,666.2994 157.1632,659.484 175.4232,654.004 " fill="none" id="Chef-to-UC12" style="stroke:#181818;stroke-width:1;"/><polygon fill="#181818" points="181.17,652.2794,171.4,651.0352,176.381,653.7166,173.6996,658.6976,181.17,652.2794" style="stroke:#181818;stroke-width:1;"/></g><!--link Chef to UC13--><g id="link_Chef_UC13"><path d="M57.91,886.5494 C68.04,846.4994 89.49,785.1694 131,749.6094 C147.02,735.8794 162.2726,728.9982 182.4326,723.9082 " fill="none" id="Chef-to-UC13" style="stroke:#181818;stroke-width:1;"/><polygon fill="#181818" points="188.25,722.4394,178.5446,720.7643,183.4021,723.6634,180.503,728.5209,188.25,722.4394" style="stroke:#181818;stroke-width:1;"/></g><!--link UC7 to RA--><g id="link_UC7_RA"><path d="M319.27,774.5994 C333.04,769.2694 346.12,761.3494 355,749.6094 C410.36,676.3794 331.52,412.2194 385,337.6094 C428.75,276.5794 508.862,251.5812 567.902,240.5512 " fill="none" id="UC7-to-RA" style="stroke:#181818;stroke-width:1;stroke-dasharray:7.0,7.0;"/><polygon fill="#181818" points="573.8,239.4494,564.2185,237.1702,568.885,240.3676,565.6876,245.0342,573.8,239.4494" style="stroke:#181818;stroke-width:1;"/><text fill="#000000" font-family="sans-serif" font-size="13" lengthAdjust="spacing" textLength="34.6899" x="427" y="257.1045">notifie</text></g><!--link UC7 to BE--><g id="link_UC7_BE"><path d="M318.84,774.5694 C332.7,769.2394 345.94,761.3294 355,749.6094 C441.82,637.2894 297.33,543.2694 385,431.6094 C434.56,368.4894 526.7201,351.4699 584.5101,346.7299 " fill="none" id="UC7-to-BE" style="stroke:#181818;stroke-width:1;stroke-dasharray:7.0,7.0;"/><polygon fill="#181818" points="590.49,346.2394,581.1931,342.9885,585.5067,346.6481,581.8471,350.9617,590.49,346.2394" style="stroke:#181818;stroke-width:1;"/><text fill="#000000" font-family="sans-serif" font-size="13" lengthAdjust="spacing" textLength="116.3398" x="386" y="360.1045">notifie (si technique)</text></g><!--link UC8 to Mag--><g id="link_UC8_Mag"><path d="M316.29,983.2894 C330.3,977.7094 344.24,970.0594 355,959.6094 C502.44,816.2994 405.61,693.9994 533,532.6094 C551.91,508.6494 575.2193,491.7968 597.4293,478.5268 " fill="none" id="UC8-to-Mag" style="stroke:#181818;stroke-width:1;stroke-dasharray:7.0,7.0;"/><polygon fill="#181818" points="602.58,475.4494,592.8024,476.6317,598.2878,478.0139,596.9056,483.4993,602.58,475.4494" style="stroke:#181818;stroke-width:1;"/><text fill="#000000" font-family="sans-serif" font-size="13" lengthAdjust="spacing" textLength="34.6899" x="427" y="577.1045">notifie</text></g><!--link UC5 to Client--><g id="link_UC5_Client"><path d="M643.21,1054.6094 C663.25,980.2694 740.71,714.7794 870,532.6094 C888.31,506.7994 912.0065,486.8747 930.1365,473.3047 " fill="none" id="UC5-to-Client" style="stroke:#181818;stroke-width:1;stroke-dasharray:7.0,7.0;"/><polygon fill="#181818" points="934.94,469.7094,925.3379,471.9,930.9371,472.7055,930.1316,478.3047,934.94,469.7094" style="stroke:#181818;stroke-width:1;"/><text fill="#000000" font-family="sans-serif" font-size="13" lengthAdjust="spacing" textLength="67.9199" x="772" y="583.1045">envoie PDF</text></g><!--link UC4 to UC3--><g id="link_UC4_UC3"><path d="M966.2,1055.7094 C1008.57,990.0994 1145.675,777.7397 1185.895,715.4597 " fill="none" id="UC4-to-UC3" style="stroke:#181818;stroke-width:1;stroke-dasharray:7.0,7.0;"/><polygon fill="#181818" points="1189.15,710.4194,1180.9073,715.8099,1186.4375,714.6196,1187.6277,720.1499,1189.15,710.4194" style="stroke:#181818;stroke-width:1;"/><text fill="#000000" font-family="sans-serif" font-size="13" lengthAdjust="spacing" textLength="30.3481" x="1067" y="858.1045">inclut</text></g><!--link UC5 to UC4--><g id="link_UC5_UC4"><path d="M724.22,1074.6094 C769.61,1074.6094 818.98,1074.6094 863.76,1074.6094 " fill="none" id="UC5-to-UC4" style="stroke:#181818;stroke-width:1;stroke-dasharray:7.0,7.0;"/><polygon fill="#181818" points="869.76,1074.6094,860.76,1070.6094,864.76,1074.6094,860.76,1078.6094,869.76,1074.6094" style="stroke:#181818;stroke-width:1;"/><text fill="#000000" font-family="sans-serif" font-size="13" lengthAdjust="spacing" textLength="30.3481" x="790.5" y="1071.1045">inclut</text></g><!--link UC6 to UC5--><g id="link_UC6_UC5"><path d="M351.4,1074.6094 C412.41,1074.6094 484.89,1074.6094 543.98,1074.6094 " fill="none" id="UC6-to-UC5" style="stroke:#181818;stroke-width:1;stroke-dasharray:7.0,7.0;"/><polygon fill="#181818" points="549.98,1074.6094,540.98,1070.6094,544.98,1074.6094,540.98,1078.6094,549.98,1074.6094" style="stroke:#181818;stroke-width:1;"/><text fill="#000000" font-family="sans-serif" font-size="13" lengthAdjust="spacing" textLength="32.5317" x="428" y="1071.1045">etend</text></g><!--link UC13 to GMN41--><g id="link_UC13_GMN41"><path d="M317.48,704.9594 C331.9,699.7694 345.74,691.8094 355,679.6094 C414.91,600.6494 327.61,315.4094 385,234.6094 C419.22,186.4294 479.69,159.7994 532.71,145.1494 " fill="none" id="UC13-GMN41" style="stroke:#181818;stroke-width:1;stroke-dasharray:7.0,7.0;"/></g><!--link UC7 to GMN44--><g id="link_UC7_GMN44"><path d="M179.84,779.3094 C151.59,772.4494 123.42,758.8194 111.5,732.1094 C95.02,695.1694 95.02,587.0394 111.5,550.1094 C125.52,518.6794 155.32,495.5694 184.14,479.5694 " fill="none" id="UC7-GMN44" style="stroke:#181818;stroke-width:1;stroke-dasharray:7.0,7.0;"/></g><!--SRC=[VPHBRzim383l-XL4BjiEAThcsHuA96cwKu0WNNPNPDeMe4Yk7iMAOVzzb1mxyZRiOeZa9_5XabvwXR3X3efFHyShX5NJA2cubqR3pfnaDDTSUucMCOMb1s_0oghsK4YB8eACSU6DXT6cnhB7Hq3FHardFQ1hZ7RyH6-kofBJzSGSLXsn3XPvWAqF1RfaMsyxsuvNt4dTFKnYxrL9rBvrbuwCnS2uhiZHw3y9ZU0dOm31eU2Eq0r55vH72utYkWtWkBdBaPNMva_WFWVs5dLX4PhQUDCHavmuDihm0dYWGWweQKvzHOsM75dUDCPws3-_NB1PZhtAYZX0HGbRe-LRm7DNZEDcdgC7F1iTOvTQoE8ABOObE9-vBeWwSs8bgWkr77WDyfroLFJbqfc-4W__hkOf51Lw47bZK5rlS_gxaMrLjTGLu5kG3NRWu0_iqCL6fT3-Ud3m8tQcGAYDTHGcrQXZ9kmNOwbFn-Edz7SpuJuN9hampOLPBinpOP4Bornu63Yz7KY36Eu6GL2yZ9w5cvidcXDu16e_MKhibUljLGcVdGIFeavzy8MOPM9eLWOtPqdRpWePKByRkamT5drDav7I9mjrYWg-ln6DcN9-KSxY6vxQdh4u79VjOCesV80NezEQqAarmT7aW8ZYZxWx05u_jAXZyxfsIkDaKFV57CXAcm3eTBq15Ztj4Cg4NCQiyEBtP3nTR1qlabzx3Ygk6N3U1k5fkpoIVWpVFXhino1fZhP2BJ2Tzsaeq_4PdR2oIKkkz_OR]--></g></svg>