<svg xmlns="http://www.w3.org/2000/svg" xmlns:xlink="http://www.w3.org/1999/xlink" contentStyleType="text/css" height="1337px" preserveAspectRatio="none" style="width:1815px;height:1337px;background:#FFFFFF;" version="1.1" viewBox="0 0 1815 1337" width="1815px" zoomAndPan="magnify"><title>Architecture Composants - Solution CIBLE SAV</title><defs/><g><text fill="#000000" font-family="sans-serif" font-size="14" font-weight="bold" lengthAdjust="spacing" textLength="318.1377" x="741.4312" y="24.5332">Architecture Composants - Solution CIBLE SAV</text><!--cluster Presentation (Front-End)--><g id="cluster_Presentation (Front-End)"><path d="M93.5,86.7294 L259.3828,86.7294 A3.75,3.75 0 0 1 261.8828,89.2294 L268.8828,110.3387 L427.5,110.3387 A2.5,2.5 0 0 1 430,112.8387 L430,219.2294 A2.5,2.5 0 0 1 427.5,221.7294 L93.5,221.7294 A2.5,2.5 0 0 1 91,219.2294 L91,89.2294 A2.5,2.5 0 0 1 93.5,86.7294 " fill="none" style="stroke:#000000;stroke-width:1.5;"/><line style="stroke:#000000;stroke-width:1.5;" x1="91" x2="268.8828" y1="110.3387" y2="110.3387"/><text fill="#000000" font-family="sans-serif" font-size="14" font-weight="bold" lengthAdjust="spacing" textLength="164.8828" x="95" y="103.2626">Presentation (Front-End)</text></g><!--cluster ERP/CRM Terrain (SaaS Cloud)--><g id="cluster_ERP/CRM Terrain (SaaS Cloud)"><path d="M176.5,306.2294 L384.417,306.2294 A3.75,3.75 0 0 1 386.917,308.7294 L393.917,329.8387 L490.5,329.8387 A2.5,2.5 0 0 1 493,332.3387 L493,886.7294 A2.5,2.5 0 0 1 490.5,889.2294 L176.5,889.2294 A2.5,2.5 0 0 1 174,886.7294 L174,308.7294 A2.5,2.5 0 0 1 176.5,306.2294 " fill="none" style="stroke:#000000;stroke-width:1.5;"/><line style="stroke:#000000;stroke-width:1.5;" x1="174" x2="393.917" y1="329.8387" y2="329.8387"/><text fill="#000000" font-family="sans-serif" font-size="14" font-weight="bold" lengthAdjust="spacing" textLength="206.917" x="178" y="322.7626">ERP/CRM Terrain (SaaS Cloud)</text></g><!--cluster Donnees Data--><g id="cluster_Donnees Data"><path d="M892.5,958.7294 L986.8584,958.7294 A3.75,3.75 0 0 1 989.3584,961.2294 L996.3584,982.3387 L1805.5,982.3387 A2.5,2.5 0 0 1 1808,984.8387 L1808,1328.2294 A2.5,2.5 0 0 1 1805.5,1330.7294 L892.5,1330.7294 A2.5,2.5 0 0 1 890,1328.2294 L890,961.2294 A2.5,2.5 0 0 1 892.5,958.7294 " fill="none" style="stroke:#000000;stroke-width:1.5;"/><line style="stroke:#000000;stroke-width:1.5;" x1="890" x2="996.3584" y1="982.3387" y2="982.3387"/><text fill="#000000" font-family="sans-serif" font-size="14" font-weight="bold" lengthAdjust="spacing" textLength="93.3584" x="894" y="975.2626">Donnees Data</text></g><!--cluster DB--><g id="cluster_DB"><path d="M922,1020.7294 C922,1010.7294 1120,1010.7294 1120,1010.7294 C1120,1010.7294 1318,1010.7294 1318,1020.7294 L1318,1288.7294 C1318,1298.7294 1120,1298.7294 1120,1298.7294 C1120,1298.7294 922,1298.7294 922,1288.7294 L922,1020.7294 " fill="none" style="stroke:#181818;stroke-width:1;"/><path d="M922,1020.7294 C922,1030.7294 1120,1030.7294 1120,1030.7294 C1120,1030.7294 1318,1030.7294 1318,1020.7294 " fill="none" style="stroke:#181818;stroke-width:1;"/><text fill="#000000" font-family="sans-serif" font-size="14" font-weight="bold" lengthAdjust="spacing" textLength="66.1445" x="1086.9277" y="1047.2626">Base ERP</text><text fill="#000000" font-family="sans-serif" font-size="14" font-weight="bold" lengthAdjust="spacing" textLength="90.2275" x="1074.8862" y="1064.872">(PostgreSQL)</text></g><!--cluster Integrations Externe--><g id="cluster_Integrations Externe"><path d="M907.5,772.2294 L1043.8652,772.2294 A3.75,3.75 0 0 1 1046.3652,774.7294 L1053.3652,795.8387 L1413.5,795.8387 A2.5,2.5 0 0 1 1416,798.3387 L1416,886.7294 A2.5,2.5 0 0 1 1413.5,889.2294 L907.5,889.2294 A2.5,2.5 0 0 1 905,886.7294 L905,774.7294 A2.5,2.5 0 0 1 907.5,772.2294 " fill="none" style="stroke:#000000;stroke-width:1.5;"/><line style="stroke:#000000;stroke-width:1.5;" x1="905" x2="1053.3652" y1="795.8387" y2="795.8387"/><text fill="#000000" font-family="sans-serif" font-size="14" font-weight="bold" lengthAdjust="spacing" textLength="135.3652" x="909" y="788.7626">Integrations Externe</text></g><!--entity AppMobile--><g id="elem_AppMobile"><rect fill="#F1F1F1" height="82.8281" rx="2.5" ry="2.5" style="stroke:#181818;stroke-width:0.5;" width="124.8066" x="288.5" y="122.7294"/><rect fill="#F1F1F1" height="10" style="stroke:#181818;stroke-width:0.5;" width="15" x="393.3066" y="127.7294"/><rect fill="#F1F1F1" height="2" style="stroke:#181818;stroke-width:0.5;" width="4" x="391.3066" y="129.7294"/><rect fill="#F1F1F1" height="2" style="stroke:#181818;stroke-width:0.5;" width="4" x="391.3066" y="133.7294"/><text fill="#000000" font-family="sans-serif" font-size="14" lengthAdjust="spacing" textLength="70.041" x="303.5" y="157.2626">App Mobile</text><text fill="#000000" font-family="sans-serif" font-size="14" lengthAdjust="spacing" textLength="74.7031" x="303.5" y="174.872">Techniciens</text><text fill="#000000" font-family="sans-serif" font-size="14" lengthAdjust="spacing" textLength="84.8066" x="303.5" y="192.4813">(iOS/Android)</text></g><!--entity PortailWeb--><g id="elem_PortailWeb"><rect fill="#F1F1F1" height="65.2188" rx="2.5" ry="2.5" style="stroke:#181818;stroke-width:0.5;" width="145.8271" x="107" y="131.7294"/><rect fill="#F1F1F1" height="10" style="stroke:#181818;stroke-width:0.5;" width="15" x="232.8271" y="136.7294"/><rect fill="#F1F1F1" height="2" style="stroke:#181818;stroke-width:0.5;" width="4" x="230.8271" y="138.7294"/><rect fill="#F1F1F1" height="2" style="stroke:#181818;stroke-width:0.5;" width="4" x="230.8271" y="142.7294"/><text fill="#000000" font-family="sans-serif" font-size="14" lengthAdjust="spacing" textLength="79.3652" x="122" y="166.2626">Portail Client</text><text fill="#000000" font-family="sans-serif" font-size="14" lengthAdjust="spacing" textLength="105.8271" x="122" y="183.872">Web Responsive</text></g><!--entity CRM--><g id="elem_CRM"><rect fill="#F1F1F1" height="65.2188" rx="2.5" ry="2.5" style="stroke:#181818;stroke-width:0.5;" width="126.3721" x="190" y="342.2294"/><rect fill="#F1F1F1" height="10" style="stroke:#181818;stroke-width:0.5;" width="15" x="296.3721" y="347.2294"/><rect fill="#F1F1F1" height="2" style="stroke:#181818;stroke-width:0.5;" width="4" x="294.3721" y="349.2294"/><rect fill="#F1F1F1" height="2" style="stroke:#181818;stroke-width:0.5;" width="4" x="294.3721" y="353.2294"/><text fill="#000000" font-family="sans-serif" font-size="14" lengthAdjust="spacing" textLength="78.5654" x="205" y="376.7626">CRM Clients</text><text fill="#000000" font-family="sans-serif" font-size="14" lengthAdjust="spacing" textLength="86.3721" x="205" y="394.372">(300 contrats)</text></g><!--entity Planning--><g id="elem_Planning"><rect fill="#F1F1F1" height="47.6094" rx="2.5" ry="2.5" style="stroke:#181818;stroke-width:0.5;" width="94.4893" x="330" y="485.2294"/><rect fill="#F1F1F1" height="10" style="stroke:#181818;stroke-width:0.5;" width="15" x="404.4893" y="490.2294"/><rect fill="#F1F1F1" height="2" style="stroke:#181818;stroke-width:0.5;" width="4" x="402.4893" y="492.2294"/><rect fill="#F1F1F1" height="2" style="stroke:#181818;stroke-width:0.5;" width="4" x="402.4893" y="496.2294"/><text fill="#000000" font-family="sans-serif" font-size="14" lengthAdjust="spacing" textLength="54.4893" x="345" y="519.7626">Planning</text></g><!--entity Devis--><g id="elem_Devis"><rect fill="#F1F1F1" height="47.6094" rx="2.5" ry="2.5" style="stroke:#181818;stroke-width:0.5;" width="124.8135" x="351.5" y="350.7294"/><rect fill="#F1F1F1" height="10" style="stroke:#181818;stroke-width:0.5;" width="15" x="456.3135" y="355.7294"/><rect fill="#F1F1F1" height="2" style="stroke:#181818;stroke-width:0.5;" width="4" x="454.3135" y="357.7294"/><rect fill="#F1F1F1" height="2" style="stroke:#181818;stroke-width:0.5;" width="4" x="454.3135" y="361.7294"/><text fill="#000000" font-family="sans-serif" font-size="14" lengthAdjust="spacing" textLength="84.8135" x="366.5" y="385.2626">Module Devis</text></g><!--entity Workflows--><g id="elem_Workflows"><rect fill="#F1F1F1" height="65.2188" rx="2.5" ry="2.5" style="stroke:#181818;stroke-width:0.5;" width="116.2617" x="361" y="627.2294"/><rect fill="#F1F1F1" height="10" style="stroke:#181818;stroke-width:0.5;" width="15" x="457.2617" y="632.2294"/><rect fill="#F1F1F1" height="2" style="stroke:#181818;stroke-width:0.5;" width="4" x="455.2617" y="634.2294"/><rect fill="#F1F1F1" height="2" style="stroke:#181818;stroke-width:0.5;" width="4" x="455.2617" y="638.2294"/><text fill="#000000" font-family="sans-serif" font-size="14" lengthAdjust="spacing" textLength="64.5586" x="376" y="661.7626">Workflows</text><text fill="#000000" font-family="sans-serif" font-size="14" lengthAdjust="spacing" textLength="76.2617" x="376" y="679.372">Alertes Auto</text></g><!--entity Analytics--><g id="elem_Analytics"><rect fill="#F1F1F1" height="65.2188" rx="2.5" ry="2.5" style="stroke:#181818;stroke-width:0.5;" width="115.4893" x="358.5" y="808.2294"/><rect fill="#F1F1F1" height="10" style="stroke:#181818;stroke-width:0.5;" width="15" x="453.9893" y="813.2294"/><rect fill="#F1F1F1" height="2" style="stroke:#181818;stroke-width:0.5;" width="4" x="451.9893" y="815.2294"/><rect fill="#F1F1F1" height="2" style="stroke:#181818;stroke-width:0.5;" width="4" x="451.9893" y="819.2294"/><text fill="#000000" font-family="sans-serif" font-size="14" lengthAdjust="spacing" textLength="56.0205" x="373.5" y="842.7626">Analytics</text><text fill="#000000" font-family="sans-serif" font-size="14" lengthAdjust="spacing" textLength="75.4893" x="373.5" y="860.372">Dashboards</text></g><!--entity Cloud--><g id="elem_Cloud"><path d="M1490.6148,1088.3726 C1492.8229,1083.7573 1496.1359,1081.6561 1500.3488,1086.2547 C1503.0068,1080.9971 1508.8767,1080.4371 1512.5109,1085.0523 C1514.5385,1079.6728 1519.5816,1077.8237 1523.7744,1082.6667 C1525.8451,1077.1463 1529.7259,1075.3507 1534.4908,1079.7587 C1537.5004,1073.8486 1542.2306,1073.7941 1545.9818,1078.9916 C1551.5067,1073.5838 1555.1429,1075.6645 1558.2119,1081.6321 C1562.2103,1077.2871 1566.3712,1078.0467 1569.158,1083.0507 C1573.0542,1077.5922 1578.199,1079.8062 1580.1363,1085.0585 C1584.9718,1080.7702 1589.0356,1081.7578 1591.8342,1087.4467 C1596.2298,1083.6285 1599.7066,1083.0571 1602.5482,1089.13 C1608.4335,1093.3122 1607.9338,1096.9356 1602.4429,1101.017 C1607.7819,1104.1332 1609.3807,1108.5314 1604.0456,1113.0673 C1610.0928,1118.5848 1609.5891,1122.4535 1601.9795,1125.7455 C1608.0854,1129.6459 1607.1618,1133.7052 1601.9604,1137.5873 C1599.0255,1144.3974 1595.2735,1144.8823 1590.155,1139.7449 C1587.9516,1145.7633 1583.3964,1145.883 1579.2495,1141.8544 C1575.9792,1147.6717 1571.6332,1146.7773 1567.9491,1142.309 C1565.8015,1147.7942 1561.2093,1148.5448 1557.046,1144.6527 C1554.4719,1150.0726 1550.9528,1151.0215 1546.8179,1146.2135 C1541.7117,1152.2855 1537.0002,1150.919 1534.0829,1144.0581 C1530.5392,1148.4641 1526.9484,1147.7871 1524.4839,1142.9386 C1520.4746,1147.2155 1515.0327,1146.509 1513.1939,1140.5456 C1509.0788,1145.5376 1504.3211,1146.0081 1501.1174,1139.5817 C1496.0827,1144.5321 1491.1911,1142.773 1488.8897,1136.5818 C1483.4527,1133.0646 1484.9944,1128.8249 1489.4714,1125.8448 C1482.615,1122.6399 1482.2988,1116.5146 1488.8486,1112.6757 C1483.192,1108.2773 1483.0618,1104.3936 1488.7082,1099.8713 C1484.0582,1095.4204 1483.8461,1090.9303 1490.6148,1088.3726 " fill="#F1F1F1" style="stroke:#181818;stroke-width:0.5;"/><text fill="#000000" font-family="sans-serif" font-size="14" lengthAdjust="spacing" textLength="98.8408" x="1495.5" y="1108.7626">Stockage Cloud</text><text fill="#000000" font-family="sans-serif" font-size="14" lengthAdjust="spacing" textLength="77.8066" x="1495.5" y="1126.372">(Azure Blob)</text></g><g id="elem_GMN22"><path d="M1342.5,1057.7294 L1342.5,1165.8388 L1445.1499,1165.8388 L1445.1499,1067.7294 L1435.1499,1057.7294 L1342.5,1057.7294 " fill="#FEFFDD" style="stroke:#181818;stroke-width:0.5;"/><path d="M1435.1499,1057.7294 L1435.1499,1067.7294 L1445.1499,1067.7294 L1435.1499,1057.7294 " fill="#FEFFDD" style="stroke:#181818;stroke-width:1;"/><text fill="#000000" font-family="sans-serif" font-size="13" font-weight="bold" lengthAdjust="spacing" textLength="45.5127" x="1348.5" y="1076.2245">Tables:</text><text fill="#000000" font-family="sans-serif" font-size="13" lengthAdjust="spacing" textLength="44.7891" x="1348.5" y="1092.5761">- clients</text><text fill="#000000" font-family="sans-serif" font-size="13" lengthAdjust="spacing" textLength="54.1836" x="1348.5" y="1108.9276">- contrats</text><text fill="#000000" font-family="sans-serif" font-size="13" lengthAdjust="spacing" textLength="81.6499" x="1348.5" y="1125.2792">- interventions</text><text fill="#000000" font-family="sans-serif" font-size="13" lengthAdjust="spacing" textLength="57.0972" x="1348.5" y="1141.6307">- planning</text><text fill="#000000" font-family="sans-serif" font-size="13" lengthAdjust="spacing" textLength="54.1836" x="1348.5" y="1157.9823">- factures</text></g><g id="elem_GMN25"><path d="M1644.5,1065.7294 L1644.5,1107.7294 L1609.54,1111.7294 L1644.5,1115.7294 L1644.5,1157.4872 A0,0 0 0 0 1644.5,1157.4872 L1791.2344,1157.4872 A0,0 0 0 0 1791.2344,1157.4872 L1791.2344,1075.7294 L1781.2344,1065.7294 L1644.5,1065.7294 A0,0 0 0 0 1644.5,1065.7294 " fill="#FEFFDD" style="stroke:#181818;stroke-width:0.5;"/><path d="M1781.2344,1065.7294 L1781.2344,1075.7294 L1791.2344,1075.7294 L1781.2344,1065.7294 " fill="#FEFFDD" style="stroke:#181818;stroke-width:0.5;"/><text fill="#000000" font-family="sans-serif" font-size="13" font-weight="bold" lengthAdjust="spacing" textLength="54.1836" x="1650.5" y="1084.2245">Fichiers:</text><text fill="#000000" font-family="sans-serif" font-size="13" lengthAdjust="spacing" textLength="125.7344" x="1650.5" y="1100.5761">- Photos interventions</text><text fill="#000000" font-family="sans-serif" font-size="13" lengthAdjust="spacing" textLength="85.2427" x="1650.5" y="1116.9276">- PDF rapports</text><text fill="#000000" font-family="sans-serif" font-size="13" lengthAdjust="spacing" textLength="67.9009" x="1650.5" y="1133.2792">- PDF devis</text><text fill="#000000" font-family="sans-serif" font-size="13" lengthAdjust="spacing" textLength="65.73" x="1650.5" y="1149.6307">- Certificats</text></g><!--entity Tables--><g id="elem_Tables"><rect fill="#F1F1F1" height="47.6094" rx="2.5" ry="2.5" style="stroke:#181818;stroke-width:0.5;" width="82.0205" x="965" y="1087.7294"/><rect fill="#F1F1F1" height="10" style="stroke:#181818;stroke-width:0.5;" width="15" x="1027.0205" y="1092.7294"/><rect fill="#F1F1F1" height="2" style="stroke:#181818;stroke-width:0.5;" width="4" x="1025.0205" y="1094.7294"/><rect fill="#F1F1F1" height="2" style="stroke:#181818;stroke-width:0.5;" width="4" x="1025.0205" y="1098.7294"/><text fill="#000000" font-family="sans-serif" font-size="14" lengthAdjust="spacing" textLength="42.0205" x="980" y="1122.2626">Tables</text></g><!--entity Clients--><g id="elem_Clients"><rect fill="#F1F1F1" height="47.6094" rx="2.5" ry="2.5" style="stroke:#181818;stroke-width:0.5;" width="82.793" x="1082.5" y="1087.7294"/><rect fill="#F1F1F1" height="10" style="stroke:#181818;stroke-width:0.5;" width="15" x="1145.293" y="1092.7294"/><rect fill="#F1F1F1" height="2" style="stroke:#181818;stroke-width:0.5;" width="4" x="1143.293" y="1094.7294"/><rect fill="#F1F1F1" height="2" style="stroke:#181818;stroke-width:0.5;" width="4" x="1143.293" y="1098.7294"/><text fill="#000000" font-family="sans-serif" font-size="14" lengthAdjust="spacing" textLength="42.793" x="1097.5" y="1122.2626">Clients</text></g><!--entity Contrats--><g id="elem_Contrats"><rect fill="#F1F1F1" height="47.6094" rx="2.5" ry="2.5" style="stroke:#181818;stroke-width:0.5;" width="92.9102" x="1200.5" y="1087.7294"/><rect fill="#F1F1F1" height="10" style="stroke:#181818;stroke-width:0.5;" width="15" x="1273.4102" y="1092.7294"/><rect fill="#F1F1F1" height="2" style="stroke:#181818;stroke-width:0.5;" width="4" x="1271.4102" y="1094.7294"/><rect fill="#F1F1F1" height="2" style="stroke:#181818;stroke-width:0.5;" width="4" x="1271.4102" y="1098.7294"/><text fill="#000000" font-family="sans-serif" font-size="14" lengthAdjust="spacing" textLength="52.9102" x="1215.5" y="1122.2626">Contrats</text></g><!--entity Interventions--><g id="elem_Interventions"><rect fill="#F1F1F1" height="47.6094" rx="2.5" ry="2.5" style="stroke:#181818;stroke-width:0.5;" width="120.1582" x="965" y="1226.7294"/><rect fill="#F1F1F1" height="10" style="stroke:#181818;stroke-width:0.5;" width="15" x="1065.1582" y="1231.7294"/><rect fill="#F1F1F1" height="2" style="stroke:#181818;stroke-width:0.5;" width="4" x="1063.1582" y="1233.7294"/><rect fill="#F1F1F1" height="2" style="stroke:#181818;stroke-width:0.5;" width="4" x="1063.1582" y="1237.7294"/><text fill="#000000" font-family="sans-serif" font-size="14" lengthAdjust="spacing" textLength="80.1582" x="980" y="1261.2626">Interventions</text></g><!--entity Factures--><g id="elem_Factures"><rect fill="#F1F1F1" height="47.6094" rx="2.5" ry="2.5" style="stroke:#181818;stroke-width:0.5;" width="94.4619" x="1120" y="1226.7294"/><rect fill="#F1F1F1" height="10" style="stroke:#181818;stroke-width:0.5;" width="15" x="1194.4619" y="1231.7294"/><rect fill="#F1F1F1" height="2" style="stroke:#181818;stroke-width:0.5;" width="4" x="1192.4619" y="1233.7294"/><rect fill="#F1F1F1" height="2" style="stroke:#181818;stroke-width:0.5;" width="4" x="1192.4619" y="1237.7294"/><text fill="#000000" font-family="sans-serif" font-size="14" lengthAdjust="spacing" textLength="54.4619" x="1135" y="1261.2626">Factures</text></g><!--entity GAO--><g id="elem_GAO"><rect fill="#F1F1F1" height="65.2188" rx="2.5" ry="2.5" style="stroke:#181818;stroke-width:0.5;" width="78.9102" x="1320.5" y="808.2294"/><rect fill="#F1F1F1" height="10" style="stroke:#181818;stroke-width:0.5;" width="15" x="1379.4102" y="813.2294"/><rect fill="#F1F1F1" height="2" style="stroke:#181818;stroke-width:0.5;" width="4" x="1377.4102" y="815.2294"/><rect fill="#F1F1F1" height="2" style="stroke:#181818;stroke-width:0.5;" width="4" x="1377.4102" y="819.2294"/><text fill="#000000" font-family="sans-serif" font-size="14" lengthAdjust="spacing" textLength="31.1172" x="1335.5" y="842.7626">GAO</text><text fill="#000000" font-family="sans-serif" font-size="14" lengthAdjust="spacing" textLength="38.9102" x="1335.5" y="860.372">Actuel</text></g><!--entity SAGE--><g id="elem_SAGE"><rect fill="#F1F1F1" height="65.2188" rx="2.5" ry="2.5" style="stroke:#181818;stroke-width:0.5;" width="117.8135" x="1167" y="808.2294"/><rect fill="#F1F1F1" height="10" style="stroke:#181818;stroke-width:0.5;" width="15" x="1264.8135" y="813.2294"/><rect fill="#F1F1F1" height="2" style="stroke:#181818;stroke-width:0.5;" width="4" x="1262.8135" y="815.2294"/><rect fill="#F1F1F1" height="2" style="stroke:#181818;stroke-width:0.5;" width="4" x="1262.8135" y="819.2294"/><text fill="#000000" font-family="sans-serif" font-size="14" lengthAdjust="spacing" textLength="38.9033" x="1182" y="842.7626">SAGE</text><text fill="#000000" font-family="sans-serif" font-size="14" lengthAdjust="spacing" textLength="77.8135" x="1182" y="860.372">Comptabilite</text></g><!--entity SMS--><g id="elem_SMS"><rect fill="#F1F1F1" height="65.2188" rx="2.5" ry="2.5" style="stroke:#181818;stroke-width:0.5;" width="75.7793" x="921" y="808.2294"/><rect fill="#F1F1F1" height="10" style="stroke:#181818;stroke-width:0.5;" width="15" x="976.7793" y="813.2294"/><rect fill="#F1F1F1" height="2" style="stroke:#181818;stroke-width:0.5;" width="4" x="974.7793" y="815.2294"/><rect fill="#F1F1F1" height="2" style="stroke:#181818;stroke-width:0.5;" width="4" x="974.7793" y="819.2294"/><text fill="#000000" font-family="sans-serif" font-size="14" lengthAdjust="spacing" textLength="35.7793" x="936" y="842.7626">Twilio</text><text fill="#000000" font-family="sans-serif" font-size="14" lengthAdjust="spacing" textLength="30.3379" x="936" y="860.372">SMS</text></g><!--entity Email--><g id="elem_Email"><rect fill="#F1F1F1" height="65.2188" rx="2.5" ry="2.5" style="stroke:#181818;stroke-width:0.5;" width="99.1445" x="1032.5" y="808.2294"/><rect fill="#F1F1F1" height="10" style="stroke:#181818;stroke-width:0.5;" width="15" x="1111.6445" y="813.2294"/><rect fill="#F1F1F1" height="2" style="stroke:#181818;stroke-width:0.5;" width="4" x="1109.6445" y="815.2294"/><rect fill="#F1F1F1" height="2" style="stroke:#181818;stroke-width:0.5;" width="4" x="1109.6445" y="819.2294"/><text fill="#000000" font-family="sans-serif" font-size="14" lengthAdjust="spacing" textLength="59.1445" x="1047.5" y="842.7626">SendGrid</text><text fill="#000000" font-family="sans-serif" font-size="14" lengthAdjust="spacing" textLength="35.0068" x="1047.5" y="860.372">Email</text></g><g id="elem_GMN49"><path d="M692.5,102.2294 L692.5,226.6903 L877.041,226.6903 L877.041,112.2294 L867.041,102.2294 L692.5,102.2294 " fill="#FEFFDD" style="stroke:#181818;stroke-width:0.5;"/><path d="M867.041,102.2294 L867.041,112.2294 L877.041,112.2294 L867.041,102.2294 " fill="#FEFFDD" style="stroke:#181818;stroke-width:1;"/><text fill="#000000" font-family="sans-serif" font-size="13" font-weight="bold" lengthAdjust="spacing" textLength="106.1646" x="698.5" y="120.7245">FONCTIONS CLE</text><text fill="#000000" font-family="sans-serif" font-size="13" lengthAdjust="spacing" textLength="3.6118" x="808.2764" y="120.7245">:</text><text fill="#000000" font-family="sans-serif" font-size="13" lengthAdjust="spacing" textLength="163.541" x="698.5" y="137.0761">&#8226; Rapport intervention digital</text><text fill="#000000" font-family="sans-serif" font-size="13" lengthAdjust="spacing" textLength="142.562" x="698.5" y="153.4276">&#8226; Devis terrain (45K&#8364;/an)</text><text fill="#000000" font-family="sans-serif" font-size="13" lengthAdjust="spacing" textLength="151.9819" x="698.5" y="169.7792">&#8226; Pointage GPS (30K&#8364;/an)</text><text fill="#000000" font-family="sans-serif" font-size="13" lengthAdjust="spacing" textLength="106.4565" x="698.5" y="186.1307">&#8226; Photos integrees</text><text fill="#000000" font-family="sans-serif" font-size="13" lengthAdjust="spacing" textLength="138.9819" x="698.5" y="202.4823">&#8226; Signature electronique</text><text fill="#000000" font-family="sans-serif" font-size="13" lengthAdjust="spacing" textLength="79.7139" x="698.5" y="218.8339">&#8226; Mode offline</text></g><g id="elem_GMN52"><path d="M448.5,110.2294 L448.5,218.3387 L657.5684,218.3387 L657.5684,120.2294 L647.5684,110.2294 L448.5,110.2294 " fill="#FEFFDD" style="stroke:#181818;stroke-width:0.5;"/><path d="M647.5684,110.2294 L647.5684,120.2294 L657.5684,120.2294 L647.5684,110.2294 " fill="#FEFFDD" style="stroke:#181818;stroke-width:1;"/><text fill="#000000" font-family="sans-serif" font-size="13" font-weight="bold" lengthAdjust="spacing" textLength="123.5381" x="454.5" y="128.7245">SELF-SERVICE 24/7</text><text fill="#000000" font-family="sans-serif" font-size="13" lengthAdjust="spacing" textLength="3.6118" x="581.6499" y="128.7245">:</text><text fill="#000000" font-family="sans-serif" font-size="13" lengthAdjust="spacing" textLength="118.7202" x="454.5" y="145.0761">&#8226; Prise RDV en ligne</text><text fill="#000000" font-family="sans-serif" font-size="13" lengthAdjust="spacing" textLength="144.7393" x="454.5" y="161.4276">&#8226; Historique interventions</text><text fill="#000000" font-family="sans-serif" font-size="13" lengthAdjust="spacing" textLength="188.0684" x="454.5" y="177.7792">&#8226; Documents (rapports, factures)</text><text fill="#000000" font-family="sans-serif" font-size="13" lengthAdjust="spacing" textLength="146.1929" x="454.5" y="194.1307">&#8226; Renouvellement contrat</text><text fill="#000000" font-family="sans-serif" font-size="13" lengthAdjust="spacing" textLength="63.2607" x="454.5" y="210.4823">&#8594; 35K&#8364;/an</text></g><g id="elem_GMN55"><path d="M509,786.7294 L509,894.8387 A0,0 0 0 0 509,894.8387 L700.752,894.8387 A0,0 0 0 0 700.752,894.8387 L700.752,796.7294 L690.752,786.7294 L553.91,786.7294 L451.82,692.3194 L545.91,786.7294 L509,786.7294 A0,0 0 0 0 509,786.7294 " fill="#FEFFDD" style="stroke:#181818;stroke-width:0.5;"/><path d="M690.752,786.7294 L690.752,796.7294 L700.752,796.7294 L690.752,786.7294 " fill="#FEFFDD" style="stroke:#181818;stroke-width:0.5;"/><text fill="#000000" font-family="sans-serif" font-size="13" font-weight="bold" lengthAdjust="spacing" textLength="126.3818" x="515" y="805.2245">AUTOMATISATIONS</text><text fill="#000000" font-family="sans-serif" font-size="13" lengthAdjust="spacing" textLength="3.6118" x="644.9937" y="805.2245">:</text><text fill="#000000" font-family="sans-serif" font-size="13" lengthAdjust="spacing" textLength="170.022" x="515" y="821.5761">&#8226; Alerte fin contrat (J-60/30/7)</text><text fill="#000000" font-family="sans-serif" font-size="13" lengthAdjust="spacing" textLength="170.752" x="515" y="837.9276">&#8226; Interventions auto (contrats)</text><text fill="#000000" font-family="sans-serif" font-size="13" lengthAdjust="spacing" textLength="150.9028" x="515" y="854.2792">&#8226; Enquete satisfaction J+2</text><text fill="#000000" font-family="sans-serif" font-size="13" lengthAdjust="spacing" textLength="63.0894" x="515" y="870.6307">&#8226; Relances</text><text fill="#000000" font-family="sans-serif" font-size="13" lengthAdjust="spacing" textLength="63.2607" x="515" y="886.9823">&#8594; 50K&#8364;/an</text></g><!--link CRM to Planning--><g id="link_CRM_Planning"><path d="M282.7,407.4694 C305.06,431.3494 331.0792,459.1695 351.2092,480.6695 " fill="none" id="CRM-to-Planning" style="stroke:#181818;stroke-width:1;stroke-dasharray:7.0,7.0;"/><polygon fill="#181818" points="355.31,485.0494,352.0787,475.7457,351.8927,481.3995,346.2389,481.2134,355.31,485.0494" style="stroke:#181818;stroke-width:1;"/><text fill="#000000" font-family="sans-serif" font-size="13" lengthAdjust="spacing" textLength="36.8481" x="328" y="451.7245">clients</text></g><!--link Planning to Workflows--><g id="link_Planning_Workflows"><path d="M383.56,533.4294 C390.69,558.6394 400.4861,593.2861 408.4361,621.3761 " fill="none" id="Planning-to-Workflows" style="stroke:#181818;stroke-width:1;stroke-dasharray:7.0,7.0;"/><polygon fill="#181818" points="410.07,627.1494,411.4679,617.4002,408.7084,622.3383,403.7703,619.5788,410.07,627.1494" style="stroke:#181818;stroke-width:1;"/><text fill="#000000" font-family="sans-serif" font-size="13" lengthAdjust="spacing" textLength="43.3481" x="401" y="585.7245">triggers</text></g><!--link Workflows to Analytics--><g id="link_Workflows_Analytics"><path d="M418.47,692.3194 C417.92,724.9394 417.1812,769.5402 416.6312,802.1602 " fill="none" id="Workflows-to-Analytics" style="stroke:#181818;stroke-width:1;stroke-dasharray:7.0,7.0;"/><polygon fill="#181818" points="416.53,808.1594,420.6812,799.2281,416.6143,803.1601,412.6823,799.0932,416.53,808.1594" style="stroke:#181818;stroke-width:1;"/><text fill="#000000" font-family="sans-serif" font-size="13" lengthAdjust="spacing" textLength="23.8481" x="418" y="744.7245">logs</text></g><!--link DB to GMN22--><g id="link_DB_GMN22"><path d="M921.9901,1064.5401 C921.9611,1064.2601 921.9323,1063.9793 921.9037,1063.6977 C921.8467,1063.1345 921.7906,1062.5683 921.7357,1061.9992 C921.6258,1060.861 921.5202,1059.7112 921.4196,1058.5506 C920.6148,1049.2655 920.1241,1039.2909 920.2163,1029.0781 C920.585,988.2269 930.28,943.5644 966.5,923.9794 C1030.22,889.5194 1228.78,889.5194 1292.5,923.9794 C1342.2,950.8594 1368.71,1012.3394 1382.02,1057.6594 " fill="none" id="DB-GMN22" style="stroke:#181818;stroke-width:1;stroke-dasharray:7.0,7.0;"/></g><!--link AppMobile to CRM--><g id="link_AppMobile_CRM"><path d="M311.62,205.9394 C299.2,220.7594 286.51,238.2994 278,256.2294 C265.04,283.5494 259.4767,311.6648 256.4567,336.0748 " fill="none" id="AppMobile-to-CRM" style="stroke:#181818;stroke-width:1;"/><polygon fill="#181818" points="255.72,342.0294,260.7948,333.5886,256.3339,337.0672,252.8553,332.6063,255.72,342.0294" style="stroke:#181818;stroke-width:1;"/><text fill="#000000" font-family="sans-serif" font-size="13" lengthAdjust="spacing" textLength="59.2363" x="295.2563" y="270.7245">API REST</text><text fill="#000000" font-family="sans-serif" font-size="13" lengthAdjust="spacing" textLength="91.749" x="279" y="287.0761">HTTPS/TLS 1.3</text></g><!--link AppMobile to Devis--><g id="link_AppMobile_Devis"><path d="M363.3,205.9294 C376.33,249.0594 394.7243,309.9359 405.2743,344.8459 " fill="none" id="AppMobile-to-Devis" style="stroke:#181818;stroke-width:1;"/><polygon fill="#181818" points="407.01,350.5894,408.2354,340.817,405.5636,345.8032,400.5775,343.1313,407.01,350.5894" style="stroke:#181818;stroke-width:1;"/><text fill="#000000" font-family="sans-serif" font-size="13" lengthAdjust="spacing" textLength="44.8081" x="403" y="270.7245">generer</text><text fill="#000000" font-family="sans-serif" font-size="13" lengthAdjust="spacing" textLength="70.8081" x="390" y="287.0761">devis terrain</text></g><!--link AppMobile to DB--><g id="link_AppMobile_DB"><path d="M307.09,205.7794 C295.66,214.7094 282.91,223.3894 270,229.7294 C225.64,251.5194 208.03,238.2294 162,256.2294 C126.06,270.2794 117.17,275.4694 86,298.2294 C46.52,327.0594 6,324.8394 6,373.7294 C6,373.7294 6,373.7294 6,841.7294 C6,948.2394 235.2,1015.3819 465.295,1055.9506 C580.3425,1076.235 695.6138,1089.8759 782.5706,1098.4727 C826.0491,1102.771 862.4489,1105.8083 888.2029,1107.7845 C901.0799,1108.7725 911.2954,1109.4953 918.4036,1109.9778 C919.2921,1110.0381 914.1454,1109.6945 914.936,1109.7473 " fill="none" id="AppMobile-to-DB" style="stroke:#181818;stroke-width:1;"/><polygon fill="#181818" points="920.9226,1110.1475,912.2095,1105.5561,915.9337,1109.814,911.6758,1113.5383,920.9226,1110.1475" style="stroke:#181818;stroke-width:1;"/><text fill="#000000" font-family="sans-serif" font-size="13" lengthAdjust="spacing" textLength="65.0317" x="9.5295" y="577.7245">sync offline</text><text fill="#000000" font-family="sans-serif" font-size="13" lengthAdjust="spacing" textLength="70.0908" x="7" y="594.0761">SQLite local</text></g><!--link PortailWeb to CRM--><g id="link_PortailWeb_CRM"><path d="M172.7,196.9394 C168.24,222.9194 165.37,260.1694 177,290.2294 C184.64,309.9694 195.0702,323.7244 209.5402,337.8744 " fill="none" id="PortailWeb-to-CRM" style="stroke:#181818;stroke-width:1;"/><polygon fill="#181818" points="213.83,342.0694,210.1919,332.9171,210.2552,338.5736,204.5987,338.6368,213.83,342.0694" style="stroke:#181818;stroke-width:1;"/><text fill="#000000" font-family="sans-serif" font-size="13" lengthAdjust="spacing" textLength="59.2363" x="178" y="278.7245">API REST</text></g><!--link PortailWeb to Planning--><g id="link_PortailWeb_Planning"><path d="M155.29,196.9894 C120.36,246.0394 65.6,341.4194 111,407.2294 C160.37,478.7894 261.6085,499.1056 323.7985,505.1856 " fill="none" id="PortailWeb-to-Planning" style="stroke:#181818;stroke-width:1;"/><polygon fill="#181818" points="329.77,505.7694,321.2019,500.9126,324.7937,505.2829,320.4235,508.8747,329.77,505.7694" style="stroke:#181818;stroke-width:1;"/><text fill="#000000" font-family="sans-serif" font-size="13" lengthAdjust="spacing" textLength="59.2363" x="112" y="372.2245">prise RDV</text><text fill="#000000" font-family="sans-serif" font-size="13" lengthAdjust="spacing" textLength="45.5381" x="118.8491" y="388.5761">en ligne</text></g><!--link CRM to DB--><g id="link_CRM_DB"><path d="M316.25,401.7694 C322.2,403.7794 328.18,405.6394 334,407.2294 C413.94,429.0294 436.29,423.5094 518,437.2294 C936.89,507.5394 1220.2,387.2994 1416,764.2294 C1443.25,816.6894 1455.35,853.1194 1416,897.2294 C1276.94,1053.1294 1097.03,803.3094 949,950.7294 C924.025,975.5994 919.0325,1014.7469 920.4025,1048.0931 C920.5738,1052.2614 920.8444,1056.339 921.1879,1060.2868 C921.3596,1062.2607 921.5496,1064.2021 921.7544,1066.1062 C921.8056,1066.5822 921.8577,1067.0559 921.9107,1067.5271 C921.9372,1067.7628 921.279,1062.037 921.3059,1062.2715 " fill="none" id="CRM-to-DB" style="stroke:#181818;stroke-width:1;"/><polygon fill="#181818" points="921.9909,1068.2322,924.9373,1058.8344,921.4201,1063.2649,916.9896,1059.7477,921.9909,1068.2322" style="stroke:#181818;stroke-width:1;"/><text fill="#000000" font-family="sans-serif" font-size="13" lengthAdjust="spacing" textLength="37.5527" x="1374" y="665.2245">CRUD</text></g><!--link Planning to DB--><g id="link_Planning_DB"><path d="M424.33,521.9494 C519.73,548.1194 735.42,620.6094 846,764.2294 C869.98,795.3744 890.84,880.8944 905.7738,959.1744 C909.5072,978.7444 912.8702,997.8619 915.819,1015.5641 C917.2934,1024.4153 918.6643,1032.9126 919.9261,1040.9358 C920.557,1044.9474 921.1606,1048.8404 921.7363,1052.5999 C921.8083,1053.0698 920.9745,1047.6064 921.0456,1048.0721 " fill="none" id="Planning-to-DB" style="stroke:#181818;stroke-width:1;"/><polygon fill="#181818" points="921.9509,1054.0034,924.5471,1044.5029,921.1965,1049.0606,916.6387,1045.71,921.9509,1054.0034" style="stroke:#181818;stroke-width:1;"/><text fill="#000000" font-family="sans-serif" font-size="13" lengthAdjust="spacing" textLength="57.0781" x="840" y="744.7245">read/write</text></g><!--link Devis to DB--><g id="link_Devis_DB"><path d="M476.64,377.1594 C685.78,382.2694 1351.82,401.2194 1441,437.2294 C1486.01,455.3994 1524,459.6894 1524,508.2294 C1524,508.2294 1524,508.2294 1524,841.7294 C1524,890.8694 1520.02,915.6594 1479,942.7294 C1454.42,958.9494 970.87,931.0094 949,950.7294 C922.825,974.3344 917.8125,1013.4619 919.4725,1047.1144 C919.8875,1055.5275 920.7195,1063.5984 921.7422,1070.9991 C921.8061,1071.4616 921.0218,1065.9819 921.0872,1066.4392 " fill="none" id="Devis-to-DB" style="stroke:#181818;stroke-width:1;"/><polygon fill="#181818" points="921.9361,1072.3788,924.6225,1062.9034,921.2287,1067.4291,916.7029,1064.0353,921.9361,1072.3788" style="stroke:#181818;stroke-width:1;"/><text fill="#000000" font-family="sans-serif" font-size="13" lengthAdjust="spacing" textLength="28.9009" x="1525" y="665.2245">store</text></g><!--link Workflows to DB--><g id="link_Workflows_DB"><path d="M477.28,668.5894 C542.36,679.9394 647.87,706.2994 719,764.2294 C772.31,807.6494 762.37,838.4294 798,897.2294 C826.46,944.1894 858.8825,996.6444 884.4725,1037.8081 C897.2675,1058.39 908.3544,1076.1491 916.3838,1088.987 C918.3911,1092.1965 917.0229,1090.0132 918.627,1092.5748 " fill="none" id="Workflows-to-DB" style="stroke:#181818;stroke-width:1;"/><polygon fill="#181818" points="921.8114,1097.66,920.425,1087.9092,919.1577,1093.4223,913.6447,1092.1551,921.8114,1097.66" style="stroke:#181818;stroke-width:1;"/><text fill="#000000" font-family="sans-serif" font-size="13" lengthAdjust="spacing" textLength="42.6372" x="799" y="846.2245">queries</text></g><!--link Analytics to DB--><g id="link_Analytics_DB"><path d="M456.5,873.3494 C467.73,881.5394 480.1,890.0594 492,897.2294 C584.03,952.6644 692.545,1005.6419 778.5387,1044.9569 C821.5356,1064.6144 858.9022,1080.8562 885.7627,1092.2819 C899.1929,1097.9947 909.9966,1102.5034 917.5643,1105.633 C918.5103,1106.0242 919.4057,1106.3939 920.2493,1106.7417 C920.6712,1106.9155 915.5316,1104.8005 915.9274,1104.9633 " fill="none" id="Analytics-to-DB" style="stroke:#181818;stroke-width:1;"/><polygon fill="#181818" points="921.4758,1107.2468,914.6754,1100.1226,916.8521,1105.3439,911.6308,1107.5206,921.4758,1107.2468" style="stroke:#181818;stroke-width:1;"/><text fill="#000000" font-family="sans-serif" font-size="13" lengthAdjust="spacing" textLength="54.1963" x="562" y="939.2245">read-only</text></g><!--link AppMobile to Cloud--><g id="link_AppMobile_Cloud"><path d="M390.92,205.8194 C402.83,215.4594 416.59,224.4594 431,229.7294 C493.74,252.6494 1575.19,222.7694 1633,256.2294 C1685.81,286.7894 1704,312.7094 1704,373.7294 C1704,373.7294 1704,373.7294 1704,841.7294 C1704,896.5994 1665.24,898.3294 1633,942.7294 C1630.39,946.3294 1629.36,946.9594 1627,950.7294 C1600.2,993.6094 1577.0054,1040.8467 1561.7354,1073.7567 " fill="none" id="AppMobile-to-Cloud" style="stroke:#181818;stroke-width:1;"/><polygon fill="#181818" points="1559.21,1079.1994,1566.6265,1072.719,1561.3145,1074.6638,1559.3696,1069.3518,1559.21,1079.1994" style="stroke:#181818;stroke-width:1;"/><text fill="#000000" font-family="sans-serif" font-size="13" lengthAdjust="spacing" textLength="39.0381" x="1719.8027" y="577.7245">upload</text><text fill="#000000" font-family="sans-serif" font-size="13" lengthAdjust="spacing" textLength="68.6436" x="1705" y="594.0761">photos/PDF</text></g><!--link PortailWeb to Cloud--><g id="link_PortailWeb_Cloud"><path d="M215.6,196.8794 C231.48,209.2194 251.08,222.1894 271,229.7294 C410.63,282.5994 1607,224.4294 1607,373.7294 C1607,373.7294 1607,373.7294 1607,841.7294 C1607,929.4294 1577.3676,1023.5696 1559.2976,1073.3396 " fill="none" id="PortailWeb-to-Cloud" style="stroke:#181818;stroke-width:1;"/><polygon fill="#181818" points="1557.25,1078.9794,1564.0813,1071.8848,1558.9564,1074.2796,1556.5616,1069.1546,1557.25,1078.9794" style="stroke:#181818;stroke-width:1;"/><text fill="#000000" font-family="sans-serif" font-size="13" lengthAdjust="spacing" textLength="55.6563" x="1608" y="577.7245">download</text><text fill="#000000" font-family="sans-serif" font-size="13" lengthAdjust="spacing" textLength="47.6899" x="1611.9832" y="594.0761">rapports</text></g><!--link CRM to GAO--><g id="link_CRM_GAO"><path d="M322.0417,403.3138 C327.9617,405.4238 328.24,405.4194 334,407.2294 C388.1,424.2094 403.17,422.7894 458,437.2294 C847.41,539.7994 993.29,506.8494 1303,764.2294 C1317.78,776.5094 1327.5766,788.3775 1337.5366,803.0275 " fill="none" id="CRM-GAO" style="stroke:#181818;stroke-width:1;"/><polygon fill="#181818" points="316.39,401.2994,323.5247,408.0888,321.0998,402.978,326.2105,400.5531,316.39,401.2994" style="stroke:#181818;stroke-width:1;"/><polygon fill="#181818" points="1340.91,807.9894,1339.1578,798.2976,1338.0988,803.8545,1332.542,802.7955,1340.91,807.9894" style="stroke:#181818;stroke-width:1;"/><text fill="#000000" font-family="sans-serif" font-size="13" lengthAdjust="spacing" textLength="51.2954" x="1061.0422" y="577.7245">API CSV</text><text fill="#000000" font-family="sans-serif" font-size="13" lengthAdjust="spacing" textLength="69.3799" x="1052" y="594.0761">consultation</text></g><!--link CRM to SAGE--><g id="link_CRM_SAGE"><path d="M316.21,400.2994 C519.27,479.2494 1141.91,721.3794 1143,722.2294 C1172.61,745.3794 1193.21,776.6558 1207.54,802.8458 " fill="none" id="CRM-to-SAGE" style="stroke:#181818;stroke-width:1;"/><polygon fill="#181818" points="1210.42,808.1094,1209.6091,798.294,1208.02,803.723,1202.5909,802.134,1210.42,808.1094" style="stroke:#181818;stroke-width:1;"/><text fill="#000000" font-family="sans-serif" font-size="13" lengthAdjust="spacing" textLength="60.7026" x="825.4241" y="577.7245">facturation</text><text fill="#000000" font-family="sans-serif" font-size="13" lengthAdjust="spacing" textLength="71.5508" x="820" y="594.0761">automatique</text></g><!--link Workflows to SMS--><g id="link_Workflows_SMS"><path d="M477.11,659.8494 C596.11,659.2694 861.89,664.6494 928,722.2294 C952.26,743.3594 958.3601,775.015 959.5301,802.005 " fill="none" id="Workflows-to-SMS" style="stroke:#181818;stroke-width:1;"/><polygon fill="#181818" points="959.79,807.9994,963.3965,798.8346,959.5735,803.0041,955.404,799.1811,959.79,807.9994" style="stroke:#181818;stroke-width:1;"/><text fill="#000000" font-family="sans-serif" font-size="13" lengthAdjust="spacing" textLength="68.6499" x="950" y="736.7245">notifications</text><text fill="#000000" font-family="sans-serif" font-size="13" lengthAdjust="spacing" textLength="36.8481" x="965.9009" y="753.0761">clients</text></g><!--link Workflows to Email--><g id="link_Workflows_Email"><path d="M477.02,663.3594 C620.33,670.3094 982.7,690.8094 1027,722.2294 C1055.29,742.2994 1068.0093,774.9149 1074.7993,802.3649 " fill="none" id="Workflows-to-Email" style="stroke:#181818;stroke-width:1;"/><polygon fill="#181818" points="1076.24,808.1894,1077.9619,798.4922,1075.0394,803.3357,1070.1959,800.4132,1076.24,808.1894" style="stroke:#181818;stroke-width:1;"/><text fill="#000000" font-family="sans-serif" font-size="13" lengthAdjust="spacing" textLength="77.3081" x="1057" y="736.7245">confirmations</text><text fill="#000000" font-family="sans-serif" font-size="13" lengthAdjust="spacing" textLength="39.019" x="1076.1445" y="753.0761">alertes</text></g><!--link AppMobile to GMN49--><g id="link_AppMobile_GMN49"><path d="M377.46,122.5994 C394.56,100.0394 419.09,74.6094 448.5,63.7294 C492.06,47.6194 613.62,48.5094 657.5,63.7294 C681.2,71.9494 703.83,86.5994 723.27,102.2194 " fill="none" id="AppMobile-GMN49" style="stroke:#181818;stroke-width:1;stroke-dasharray:7.0,7.0;"/></g><!--link GMN52 to PortailWeb--><g id="link_GMN52_PortailWeb"><path d="M494.63,110.0894 C470.96,91.6294 442.2,73.2594 412.5,63.7294 C360.02,46.8894 340.19,44.6094 288.5,63.7294 C253.34,76.7394 223,107.5994 203.41,131.7094 " fill="none" id="GMN52-PortailWeb" style="stroke:#181818;stroke-width:1;stroke-dasharray:7.0,7.0;"/></g><!--SRC=[RLN1Sjis4BtpAtPoajNASkEacV5qCaDBjAFKYbcHSGvL3X09oPZ000D2TjrEPZezz0Fw2Jttg_8bVG18Yf9pqGYxZy1xYxSBAwpa59lYLbXUsAtXDD5tbQwPiZMDADDoQuLMD9cTNoMKnJTHLB7Y4zjmUfOQNdDbcGSCBenMTfIeykWP_H4H_HfN5StrIaY-L3alRfKe15VrKWt4TJQELMcqA8y-4gi9q81qtwNQM2OaJIJWTga-y1KjU5rfLOjxxl4D19deIuzGiaZ7ayMSScuC4-2KCPPX7xtjIBbqsDWHEJqveGAq3RDrO8Ayvo2PKa9jbcgcB9TIRF15EBh9EDHSbrkKRyhlHUsJ_f_BVD3cqrhg1nmIIsuiXyQjrHxKvNoH59EFLXG0JbbzkzBCb66lBXC1vsWV7x_kJgSpAe8A9BkWGtIx0sADs6ouSPXTs86wlG6IUbFlLN6gbU8WF6MMXQgL-BTYDNBdxXTbHkrINTkDuTalLwYjqtxkiT2KivNazSUmQ8hThffYDqjNN7EFF1pKnberpVA2ULlwx1TNYi9T9ptBh0vy_VM2J_oxS- -vrAl0nyVT1qfRJgZ4hIMz1as_xt0OM9uDXtuzwjNJhngYpLBqYJQnQkS4jrmtHB7aglIdFZqza0e4BWIw3hUpev3UQglhRnwMJY_8iAg2yVkXiZ6SMq_WCx4MHM3TSUXVhQltnlY6hIdv3SSetZJ6PNmDhq82bzv-MBjm5bycI-Lc0YmW9AQ4pxgmI-SFYEcbokPPYCyp_nLElpG2rvBSeKzzolzpRBfcfz7ejNVs6SNfZ1P9bY_LcpnFit5-bT4FnwS7MDzUGACPkU5cgRnyig7T3y7dGDQFga3Trr8eJ25u5GBW-8B9ADeDaMyGESps6gyo0asmcDui5LU4qQ1mqUxhxjJ9ulqqwhxemeQpSlnWG24AIdOqhJOyslLeb_YyvKR0Kxk6tTjjf9LyV59Hto1djAsaPhY2ohjg3BiyaTmWI_sW0hQpc1VqamF124rT9Xaaep7ghGn3lrFjx01GQ06VMYg6UNU7_v1me0mc0HZc36vrPiI-JVljGxrftB3JQYtCNGjcOQP6qNvtzPyHzDVrkqa-ktw75-0g6Gxf3D6lV_vBYw1nhyse51jXuOe0cVPzHOCNBt_- -jT_OwQEcdogyR7hgCiq8xmYX-bT7sD2-f7WmXcimlmRooKUMxoNlZWXYRU4jqwDTWF42vHyxVNrdZqdC4kkBaPPihYPJH9w_cBygYSoRKrAdKT3uermPdC7FvapNhakjdVk8cZGUk7xRhIr-XPSwUqzdaNkeEsiTCc__w7JjbY7AbRQmX5EH_y570xZz_drFCvdMUnlgoSYF9sqnXqqPz3WxUZ7a_7foVXLIsRl3I7dEXfqRtg3IHJqOgSQ1ggT6dVbRxzxtkb1hnRXdg3WvSaJ1Vy3]--></g></svg>