<svg xmlns="http://www.w3.org/2000/svg" xmlns:xlink="http://www.w3.org/1999/xlink" contentStyleType="text/css" height="784px" preserveAspectRatio="none" style="width:954px;height:784px;background:#FFFFFF;" version="1.1" viewBox="0 0 954 784" width="954px" zoomAndPan="magnify"><title>Flux de Donnees Architecture Cible SAV Maintenance</title><defs/><g><text fill="#000000" font-family="sans-serif" font-size="14" font-weight="bold" lengthAdjust="spacing" textLength="357.8613" x="291.3911" y="24.5332">Flux de Donnees Architecture Cible SAV Maintenance</text><!--cluster Internet--><g id="cluster_Internet"><path d="M627.5,46.6094 L679.8379,46.6094 A3.75,3.75 0 0 1 682.3379,49.1094 L689.3379,70.2188 L924.5,70.2188 A2.5,2.5 0 0 1 927,72.7188 L927,161.1094 A2.5,2.5 0 0 1 924.5,163.6094 L627.5,163.6094 A2.5,2.5 0 0 1 625,161.1094 L625,49.1094 A2.5,2.5 0 0 1 627.5,46.6094 " fill="#E0F7FA" style="stroke:#000000;stroke-width:1.5;"/><line style="stroke:#000000;stroke-width:1.5;" x1="625" x2="689.3379" y1="70.2188" y2="70.2188"/><text fill="#000000" font-family="sans-serif" font-size="14" font-weight="bold" lengthAdjust="spacing" textLength="51.3379" x="629" y="63.1426">Internet</text></g><!--cluster Azure Cloud EU France--><g id="cluster_Azure Cloud EU France"><path d="M622.5,265.6094 L779.0791,265.6094 A3.75,3.75 0 0 1 781.5791,268.1094 L788.5791,289.2188 L888.5,289.2188 A2.5,2.5 0 0 1 891,291.7188 L891,591.6094 A2.5,2.5 0 0 1 888.5,594.1094 L622.5,594.1094 A2.5,2.5 0 0 1 620,591.6094 L620,268.1094 A2.5,2.5 0 0 1 622.5,265.6094 " fill="#E3F2FD" style="stroke:#000000;stroke-width:1.5;"/><line style="stroke:#000000;stroke-width:1.5;" x1="620" x2="788.5791" y1="289.2188" y2="289.2188"/><text fill="#000000" font-family="sans-serif" font-size="14" font-weight="bold" lengthAdjust="spacing" textLength="155.5791" x="624" y="282.1426">Azure Cloud EU France</text></g><!--cluster Services Complementaires--><g id="cluster_Services Complementaires"><path d="M8.5,660.1094 L188.4785,660.1094 A3.75,3.75 0 0 1 190.9785,662.6094 L197.9785,683.7188 L431.5,683.7188 A2.5,2.5 0 0 1 434,686.2188 L434,774.6094 A2.5,2.5 0 0 1 431.5,777.1094 L8.5,777.1094 A2.5,2.5 0 0 1 6,774.6094 L6,662.6094 A2.5,2.5 0 0 1 8.5,660.1094 " fill="#F3E5F5" style="stroke:#000000;stroke-width:1.5;"/><line style="stroke:#000000;stroke-width:1.5;" x1="6" x2="197.9785" y1="683.7188" y2="683.7188"/><text fill="#000000" font-family="sans-serif" font-size="14" font-weight="bold" lengthAdjust="spacing" textLength="178.9785" x="10" y="676.6426">Services Complementaires</text></g><!--cluster On Premise Duret Annecy--><g id="cluster_On Premise Duret Annecy"><path d="M327.5,477.1094 L501.2236,477.1094 A3.75,3.75 0 0 1 503.7236,479.6094 L510.7236,500.7188 L593.5,500.7188 A2.5,2.5 0 0 1 596,503.2188 L596,591.6094 A2.5,2.5 0 0 1 593.5,594.1094 L327.5,594.1094 A2.5,2.5 0 0 1 325,591.6094 L325,479.6094 A2.5,2.5 0 0 1 327.5,477.1094 " fill="#FFF8E1" style="stroke:#000000;stroke-width:1.5;"/><line style="stroke:#000000;stroke-width:1.5;" x1="325" x2="510.7236" y1="500.7188" y2="500.7188"/><text fill="#000000" font-family="sans-serif" font-size="14" font-weight="bold" lengthAdjust="spacing" textLength="172.7236" x="329" y="493.6426">On Premise Duret Annecy</text></g><!--entity client--><g id="elem_client"><rect fill="#F1F1F1" height="65.2188" rx="2.5" ry="2.5" style="stroke:#181818;stroke-width:0.5;" width="119.3652" x="641.5" y="82.6094"/><rect fill="#F1F1F1" height="10" style="stroke:#181818;stroke-width:0.5;" width="15" x="740.8652" y="87.6094"/><rect fill="#F1F1F1" height="2" style="stroke:#181818;stroke-width:0.5;" width="4" x="738.8652" y="89.6094"/><rect fill="#F1F1F1" height="2" style="stroke:#181818;stroke-width:0.5;" width="4" x="738.8652" y="93.6094"/><text fill="#000000" font-family="sans-serif" font-size="14" lengthAdjust="spacing" textLength="79.3652" x="656.5" y="117.1426">Portail Client</text><text fill="#000000" font-family="sans-serif" font-size="14" lengthAdjust="spacing" textLength="38.1104" x="656.5" y="134.752">(Web)</text></g><!--entity mobile--><g id="elem_mobile"><rect fill="#F1F1F1" height="65.2188" rx="2.5" ry="2.5" style="stroke:#181818;stroke-width:0.5;" width="114.7031" x="795.5" y="82.6094"/><rect fill="#F1F1F1" height="10" style="stroke:#181818;stroke-width:0.5;" width="15" x="890.2031" y="87.6094"/><rect fill="#F1F1F1" height="2" style="stroke:#181818;stroke-width:0.5;" width="4" x="888.2031" y="89.6094"/><rect fill="#F1F1F1" height="2" style="stroke:#181818;stroke-width:0.5;" width="4" x="888.2031" y="93.6094"/><text fill="#000000" font-family="sans-serif" font-size="14" lengthAdjust="spacing" textLength="70.041" x="810.5" y="117.1426">App Mobile</text><text fill="#000000" font-family="sans-serif" font-size="14" lengthAdjust="spacing" textLength="74.7031" x="810.5" y="134.752">Techniciens</text></g><!--entity erp--><g id="elem_erp"><rect fill="#F1F1F1" height="65.2188" rx="2.5" ry="2.5" style="stroke:#181818;stroke-width:0.5;" width="178.5166" x="636.5" y="301.6094"/><rect fill="#F1F1F1" height="10" style="stroke:#181818;stroke-width:0.5;" width="15" x="795.0166" y="306.6094"/><rect fill="#F1F1F1" height="2" style="stroke:#181818;stroke-width:0.5;" width="4" x="793.0166" y="308.6094"/><rect fill="#F1F1F1" height="2" style="stroke:#181818;stroke-width:0.5;" width="4" x="793.0166" y="312.6094"/><text fill="#000000" font-family="sans-serif" font-size="14" lengthAdjust="spacing" textLength="112.793" x="651.5" y="336.1426">ERP CRM Terrain</text><text fill="#000000" font-family="sans-serif" font-size="14" lengthAdjust="spacing" textLength="138.5166" x="651.5" y="353.752">Praxedo Synchroteam</text></g><!--entity blob--><g id="elem_blob"><rect fill="#F1F1F1" height="65.2188" rx="2.5" ry="2.5" style="stroke:#181818;stroke-width:0.5;" width="108.4824" x="767" y="513.1094"/><rect fill="#F1F1F1" height="10" style="stroke:#181818;stroke-width:0.5;" width="15" x="855.4824" y="518.1094"/><rect fill="#F1F1F1" height="2" style="stroke:#181818;stroke-width:0.5;" width="4" x="853.4824" y="520.1094"/><rect fill="#F1F1F1" height="2" style="stroke:#181818;stroke-width:0.5;" width="4" x="853.4824" y="524.1094"/><text fill="#000000" font-family="sans-serif" font-size="14" lengthAdjust="spacing" textLength="68.4824" x="782" y="547.6426">Azure Blob</text><text fill="#000000" font-family="sans-serif" font-size="14" lengthAdjust="spacing" textLength="49.0342" x="782" y="565.252">Storage</text></g><!--entity db--><g id="elem_db"><path d="M636,523.6094 C636,513.6094 684.1309,513.6094 684.1309,513.6094 C684.1309,513.6094 732.2617,513.6094 732.2617,523.6094 L732.2617,567.8281 C732.2617,577.8281 684.1309,577.8281 684.1309,577.8281 C684.1309,577.8281 636,577.8281 636,567.8281 L636,523.6094 " fill="#F1F1F1" style="stroke:#181818;stroke-width:0.5;"/><path d="M636,523.6094 C636,533.6094 684.1309,533.6094 684.1309,533.6094 C684.1309,533.6094 732.2617,533.6094 732.2617,523.6094 " fill="none" style="stroke:#181818;stroke-width:0.5;"/><text fill="#000000" font-family="sans-serif" font-size="14" lengthAdjust="spacing" textLength="76.2617" x="646" y="552.1426">PostgreSQL</text><text fill="#000000" font-family="sans-serif" font-size="14" lengthAdjust="spacing" textLength="64.5859" x="646" y="569.752">Base ERP</text></g><!--entity sms--><g id="elem_sms"><rect fill="#F1F1F1" height="65.2188" rx="2.5" ry="2.5" style="stroke:#181818;stroke-width:0.5;" width="129.4756" x="22.5" y="696.1094"/><rect fill="#F1F1F1" height="10" style="stroke:#181818;stroke-width:0.5;" width="15" x="131.9756" y="701.1094"/><rect fill="#F1F1F1" height="2" style="stroke:#181818;stroke-width:0.5;" width="4" x="129.9756" y="703.1094"/><rect fill="#F1F1F1" height="2" style="stroke:#181818;stroke-width:0.5;" width="4" x="129.9756" y="707.1094"/><text fill="#000000" font-family="sans-serif" font-size="14" lengthAdjust="spacing" textLength="35.7793" x="37.5" y="730.6426">Twilio</text><text fill="#000000" font-family="sans-serif" font-size="14" lengthAdjust="spacing" textLength="89.4756" x="37.5" y="748.252">SMS Gateway</text></g><!--entity email--><g id="elem_email"><rect fill="#F1F1F1" height="65.2188" rx="2.5" ry="2.5" style="stroke:#181818;stroke-width:0.5;" width="99.1445" x="186.5" y="696.1094"/><rect fill="#F1F1F1" height="10" style="stroke:#181818;stroke-width:0.5;" width="15" x="265.6445" y="701.1094"/><rect fill="#F1F1F1" height="2" style="stroke:#181818;stroke-width:0.5;" width="4" x="263.6445" y="703.1094"/><rect fill="#F1F1F1" height="2" style="stroke:#181818;stroke-width:0.5;" width="4" x="263.6445" y="707.1094"/><text fill="#000000" font-family="sans-serif" font-size="14" lengthAdjust="spacing" textLength="59.1445" x="201.5" y="730.6426">SendGrid</text><text fill="#000000" font-family="sans-serif" font-size="14" lengthAdjust="spacing" textLength="35.0068" x="201.5" y="748.252">Email</text></g><!--entity powerbi--><g id="elem_powerbi"><rect fill="#F1F1F1" height="65.2188" rx="2.5" ry="2.5" style="stroke:#181818;stroke-width:0.5;" width="96.7998" x="320.5" y="696.1094"/><rect fill="#F1F1F1" height="10" style="stroke:#181818;stroke-width:0.5;" width="15" x="397.2998" y="701.1094"/><rect fill="#F1F1F1" height="2" style="stroke:#181818;stroke-width:0.5;" width="4" x="395.2998" y="703.1094"/><rect fill="#F1F1F1" height="2" style="stroke:#181818;stroke-width:0.5;" width="4" x="395.2998" y="707.1094"/><text fill="#000000" font-family="sans-serif" font-size="14" lengthAdjust="spacing" textLength="56.7998" x="335.5" y="730.6426">Power BI</text><text fill="#000000" font-family="sans-serif" font-size="14" lengthAdjust="spacing" textLength="56.0205" x="335.5" y="748.252">Analytics</text></g><!--entity gao--><g id="elem_gao"><rect fill="#F1F1F1" height="65.2188" rx="2.5" ry="2.5" style="stroke:#181818;stroke-width:0.5;" width="85.1445" x="341.5" y="513.1094"/><rect fill="#F1F1F1" height="10" style="stroke:#181818;stroke-width:0.5;" width="15" x="406.6445" y="518.1094"/><rect fill="#F1F1F1" height="2" style="stroke:#181818;stroke-width:0.5;" width="4" x="404.6445" y="520.1094"/><rect fill="#F1F1F1" height="2" style="stroke:#181818;stroke-width:0.5;" width="4" x="404.6445" y="524.1094"/><text fill="#000000" font-family="sans-serif" font-size="14" lengthAdjust="spacing" textLength="31.1172" x="356.5" y="547.6426">GAO</text><text fill="#000000" font-family="sans-serif" font-size="14" lengthAdjust="spacing" textLength="45.1445" x="356.5" y="565.252">Legacy</text></g><!--entity sage--><g id="elem_sage"><rect fill="#F1F1F1" height="65.2188" rx="2.5" ry="2.5" style="stroke:#181818;stroke-width:0.5;" width="117.8135" x="462" y="513.1094"/><rect fill="#F1F1F1" height="10" style="stroke:#181818;stroke-width:0.5;" width="15" x="559.8135" y="518.1094"/><rect fill="#F1F1F1" height="2" style="stroke:#181818;stroke-width:0.5;" width="4" x="557.8135" y="520.1094"/><rect fill="#F1F1F1" height="2" style="stroke:#181818;stroke-width:0.5;" width="4" x="557.8135" y="524.1094"/><text fill="#000000" font-family="sans-serif" font-size="14" lengthAdjust="spacing" textLength="38.9033" x="477" y="547.6426">SAGE</text><text fill="#000000" font-family="sans-serif" font-size="14" lengthAdjust="spacing" textLength="77.8135" x="477" y="565.252">Comptabilite</text></g><g id="elem_N1"><path d="M143.5,44.6094 L143.5,185.4219 L414.1597,185.4219 L414.1597,54.6094 L404.1597,44.6094 L143.5,44.6094 " fill="#FEFFDD" style="stroke:#181818;stroke-width:0.5;"/><path d="M404.1597,44.6094 L404.1597,54.6094 L414.1597,54.6094 L404.1597,44.6094 " fill="#FEFFDD" style="stroke:#181818;stroke-width:1;"/><text fill="#000000" font-family="sans-serif" font-size="13" font-weight="bold" lengthAdjust="spacing" textLength="101.1309" x="149.5" y="63.1045">Flux Principaux:</text><text fill="#000000" font-family="sans-serif" font-size="13" lengthAdjust="spacing" textLength="249.6597" x="149.5" y="79.4561">1. Client portail &#8594; ERP (RDV en ligne 24/7)</text><text fill="#000000" font-family="sans-serif" font-size="13" lengthAdjust="spacing" textLength="238.8306" x="149.5" y="95.8076">2. Technicien app &#8594; ERP (rapport digital)</text><text fill="#000000" font-family="sans-serif" font-size="13" lengthAdjust="spacing" textLength="243.915" x="149.5" y="112.1592">3. Technicien app &#8594; Blob (photos geoloc.)</text><text fill="#000000" font-family="sans-serif" font-size="13" lengthAdjust="spacing" textLength="188.9316" x="149.5" y="128.5107">4. ERP &#8594; SMS (rappel RDV J-2)</text><text fill="#000000" font-family="sans-serif" font-size="13" lengthAdjust="spacing" textLength="209.1616" x="149.5" y="144.8623">5. ERP &#8594; Email (PDF rapport client)</text><text fill="#000000" font-family="sans-serif" font-size="13" lengthAdjust="spacing" textLength="176.6743" x="149.5" y="161.2139">6. ERP &#8594; SAGE (facture auto)</text><text fill="#000000" font-family="sans-serif" font-size="13" lengthAdjust="spacing" textLength="230.8452" x="149.5" y="177.5654">7. Power BI &#8592; DB (analytics temps reel)</text></g><g id="elem_N2"><path d="M450,44.6094 L450,185.4219 L606.0781,185.4219 L606.0781,54.6094 L596.0781,44.6094 L450,44.6094 " fill="#FEFFDD" style="stroke:#181818;stroke-width:0.5;"/><path d="M596.0781,44.6094 L596.0781,54.6094 L606.0781,54.6094 L596.0781,44.6094 " fill="#FEFFDD" style="stroke:#181818;stroke-width:1;"/><text fill="#000000" font-family="sans-serif" font-size="13" font-weight="bold" lengthAdjust="spacing" textLength="55.6309" x="456" y="63.1045">Securite:</text><text fill="#000000" font-family="sans-serif" font-size="13" lengthAdjust="spacing" textLength="101.1372" x="456" y="79.4561">- TLS 1.3 (transit)</text><text fill="#000000" font-family="sans-serif" font-size="13" lengthAdjust="spacing" textLength="104.7617" x="456" y="95.8076">- AES-256 (repos)</text><text fill="#000000" font-family="sans-serif" font-size="13" lengthAdjust="spacing" textLength="108.0054" x="456" y="112.1592">- OAuth 2.0 + JWT</text><text fill="#000000" font-family="sans-serif" font-size="13" lengthAdjust="spacing" textLength="97.5381" x="456" y="128.5107">- MFA disponible</text><text fill="#000000" font-family="sans-serif" font-size="13" lengthAdjust="spacing" textLength="135.0781" x="456" y="144.8623">- RGPD compliant (EU)</text><text fill="#000000" font-family="sans-serif" font-size="13" lengthAdjust="spacing" textLength="107.6816" x="456" y="161.2139">- Backup quotidien</text><text fill="#000000" font-family="sans-serif" font-size="13" lengthAdjust="spacing" textLength="99.7026" x="456" y="177.5654">- Audit trail (1 an)</text></g><g id="elem_N3"><path d="M170.5,288.1094 L170.5,379.8672 L387.3379,379.8672 L387.3379,298.1094 L377.3379,288.1094 L170.5,288.1094 " fill="#FEFFDD" style="stroke:#181818;stroke-width:0.5;"/><path d="M377.3379,288.1094 L377.3379,298.1094 L387.3379,298.1094 L377.3379,288.1094 " fill="#FEFFDD" style="stroke:#181818;stroke-width:1;"/><text fill="#000000" font-family="sans-serif" font-size="13" font-weight="bold" lengthAdjust="spacing" textLength="78.7173" x="176.5" y="306.6045">Mode Offline</text><text fill="#000000" font-family="sans-serif" font-size="13" lengthAdjust="spacing" textLength="3.6118" x="258.8291" y="306.6045">:</text><text fill="#000000" font-family="sans-serif" font-size="13" lengthAdjust="spacing" textLength="153.9053" x="176.5" y="322.9561">- App mobile : SQLite local</text><text fill="#000000" font-family="sans-serif" font-size="13" lengthAdjust="spacing" textLength="124.9663" x="176.5" y="339.3076">- Sync auto (WiFi/4G)</text><text fill="#000000" font-family="sans-serif" font-size="13" lengthAdjust="spacing" textLength="195.8379" x="176.5" y="355.6592">- Queue upload (photos, rapports)</text><text fill="#000000" font-family="sans-serif" font-size="13" lengthAdjust="spacing" textLength="113.4326" x="176.5" y="372.0107">- Max 7 jours offline</text></g><!--link client to erp--><g id="link_client_erp"><path d="M697.05,147.6294 C694.42,174.8194 692.36,215.0594 698,249.6094 C700.88,267.2694 704.8737,280.6012 710.6437,295.9912 " fill="none" id="client-to-erp" style="stroke:#181818;stroke-width:1;"/><polygon fill="#181818" points="712.75,301.6094,713.3359,291.778,710.9947,296.9276,705.8451,294.5864,712.75,301.6094" style="stroke:#181818;stroke-width:1;"/><text fill="#000000" font-family="sans-serif" font-size="13" lengthAdjust="spacing" textLength="42.6118" x="707.3123" y="230.1045">HTTPS</text><text fill="#000000" font-family="sans-serif" font-size="13" lengthAdjust="spacing" textLength="59.2363" x="699" y="246.4561">REST API</text></g><!--link mobile to erp--><g id="link_mobile_erp"><path d="M834.53,147.6594 C810.45,188.8094 771.6107,255.1811 747.5207,296.3411 " fill="none" id="mobile-to-erp" style="stroke:#181818;stroke-width:1;"/><polygon fill="#181818" points="744.49,301.5194,752.4883,295.7724,747.0156,297.2041,745.5839,291.7315,744.49,301.5194" style="stroke:#181818;stroke-width:1;"/><text fill="#000000" font-family="sans-serif" font-size="13" lengthAdjust="spacing" textLength="42.6118" x="802.3123" y="230.1045">HTTPS</text><text fill="#000000" font-family="sans-serif" font-size="13" lengthAdjust="spacing" textLength="59.2363" x="794" y="246.4561">REST API</text></g><!--link mobile to blob--><g id="link_mobile_blob"><path d="M859.62,148.0894 C871.16,209.6994 891.24,348.7094 864,461.1094 C859.58,479.3294 853.465,492.8461 844.745,507.9161 " fill="none" id="mobile-to-blob" style="stroke:#181818;stroke-width:1;"/><polygon fill="#181818" points="841.74,513.1094,849.7097,507.3228,844.2442,508.7817,842.7853,503.3161,841.74,513.1094" style="stroke:#181818;stroke-width:1;"/><text fill="#000000" font-family="sans-serif" font-size="13" lengthAdjust="spacing" textLength="41.1963" x="891.7236" y="331.6045">Upload</text><text fill="#000000" font-family="sans-serif" font-size="13" lengthAdjust="spacing" textLength="68.6436" x="878" y="347.9561">photos/PDF</text></g><!--link erp to db--><g id="link_erp_db"><path d="M706.66,366.8194 C699.77,379.7694 692.77,395.1894 689,410.1094 C680.26,444.6594 679.8669,479.7765 681.2169,507.3765 " fill="none" id="erp-to-db" style="stroke:#181818;stroke-width:1;"/><polygon fill="#181818" points="681.51,513.3694,685.0655,504.1847,681.2657,508.3753,677.0751,504.5755,681.51,513.3694" style="stroke:#181818;stroke-width:1;"/><text fill="#000000" font-family="sans-serif" font-size="13" lengthAdjust="spacing" textLength="26.0127" x="695.77" y="433.1045">SQL</text><text fill="#000000" font-family="sans-serif" font-size="13" lengthAdjust="spacing" textLength="37.5527" x="690" y="449.4561">CRUD</text></g><!--link erp to blob--><g id="link_erp_blob"><path d="M736.95,366.6594 C746.21,392.4394 760.29,429.6394 775,461.1094 C783.2,478.6494 790.5397,492.3862 799.3197,507.7962 " fill="none" id="erp-to-blob" style="stroke:#181818;stroke-width:1;"/><polygon fill="#181818" points="802.29,513.0094,801.3101,503.2094,799.8148,508.665,794.3591,507.1698,802.29,513.0094" style="stroke:#181818;stroke-width:1;"/><text fill="#000000" font-family="sans-serif" font-size="13" lengthAdjust="spacing" textLength="83.0908" x="776" y="433.1045">Store/Retrieve</text><text fill="#000000" font-family="sans-serif" font-size="13" lengthAdjust="spacing" textLength="41.1772" x="796.9568" y="449.4561">fichiers</text></g><!--link erp to sms--><g id="link_erp_sms"><path d="M636.4,347.4694 C507.79,365.4594 282.26,398.0194 246,410.1094 C193,427.7794 168.05,424.0594 135,469.1094 C84.65,537.7494 81.9078,637.5756 84.2878,689.9756 " fill="none" id="erp-to-sms" style="stroke:#181818;stroke-width:1;"/><polygon fill="#181818" points="84.56,695.9694,88.1475,686.7972,84.3331,690.9745,80.1558,687.1601,84.56,695.9694" style="stroke:#181818;stroke-width:1;"/><text fill="#000000" font-family="sans-serif" font-size="13" lengthAdjust="spacing" textLength="20.9536" x="159.8481" y="534.6045">API</text><text fill="#000000" font-family="sans-serif" font-size="13" lengthAdjust="spacing" textLength="68.6499" x="136" y="550.9561">notifications</text><text fill="#000000" font-family="sans-serif" font-size="13" lengthAdjust="spacing" textLength="36.8481" x="151.9009" y="567.3076">clients</text></g><!--link erp to email--><g id="link_erp_email"><path d="M636.34,347.1294 C510.85,366.0094 292.87,406.9894 246,469.1094 C195.42,536.1494 211.929,637.3625 225.289,690.1925 " fill="none" id="erp-to-email" style="stroke:#181818;stroke-width:1;"/><polygon fill="#181818" points="226.76,696.0094,228.4314,686.3034,225.5342,691.162,220.6756,688.2647,226.76,696.0094" style="stroke:#181818;stroke-width:1;"/><text fill="#000000" font-family="sans-serif" font-size="13" lengthAdjust="spacing" textLength="20.9536" x="275.1772" y="534.6045">API</text><text fill="#000000" font-family="sans-serif" font-size="13" lengthAdjust="spacing" textLength="77.3081" x="247" y="550.9561">confirmations</text><text fill="#000000" font-family="sans-serif" font-size="13" lengthAdjust="spacing" textLength="47.6899" x="261.8091" y="567.3076">rapports</text></g><!--link db to powerbi--><g id="link_db_powerbi"><path d="M635.89,577.6494 C623.03,585.7594 609.06,594.3894 596,602.1094 C535.33,637.9694 469.2974,674.0532 423.0074,698.8832 " fill="none" id="db-to-powerbi" style="stroke:#181818;stroke-width:1;"/><polygon fill="#181818" points="417.72,701.7194,427.5418,700.9901,422.1261,699.3559,423.7603,693.9402,417.72,701.7194" style="stroke:#181818;stroke-width:1;"/><text fill="#000000" font-family="sans-serif" font-size="13" lengthAdjust="spacing" textLength="69.3481" x="578" y="624.6045">DirectQuery</text><text fill="#000000" font-family="sans-serif" font-size="13" lengthAdjust="spacing" textLength="50.5781" x="587.385" y="640.9561">analytics</text></g><!--link erp to gao--><g id="link_erp_gao"><path d="M636.31,348.3994 C587.28,359.0094 527.46,377.6794 482,410.1094 C444.49,436.8694 418.5137,477.2107 402.1237,507.8007 " fill="none" id="erp-to-gao" style="stroke:#181818;stroke-width:1;stroke-dasharray:7.0,7.0;"/><polygon fill="#181818" points="399.29,513.0894,407.0663,507.0454,401.6514,508.6821,400.0147,503.2672,399.29,513.0894" style="stroke:#181818;stroke-width:1;"/><text fill="#000000" font-family="sans-serif" font-size="13" lengthAdjust="spacing" textLength="51.2954" x="492.0422" y="424.6045">API CSV</text><text fill="#000000" font-family="sans-serif" font-size="13" lengthAdjust="spacing" textLength="69.3799" x="483" y="440.9561">consultation</text><text fill="#000000" font-family="sans-serif" font-size="13" lengthAdjust="spacing" textLength="52.7681" x="491.3059" y="457.3076">optionnel</text></g><!--link erp to sage--><g id="link_erp_sage"><path d="M659.08,366.6294 C638.57,378.3594 616.96,393.0494 600,410.1094 C570.12,440.1694 549.7233,478.2728 536.4533,507.6028 " fill="none" id="erp-to-sage" style="stroke:#181818;stroke-width:1;"/><polygon fill="#181818" points="533.98,513.0694,541.3343,506.5184,536.0411,508.5139,534.0455,503.2207,533.98,513.0694" style="stroke:#181818;stroke-width:1;"/><text fill="#000000" font-family="sans-serif" font-size="13" lengthAdjust="spacing" textLength="20.9536" x="626.2986" y="424.6045">API</text><text fill="#000000" font-family="sans-serif" font-size="13" lengthAdjust="spacing" textLength="60.7026" x="606.4241" y="440.9561">facturation</text><text fill="#000000" font-family="sans-serif" font-size="13" lengthAdjust="spacing" textLength="71.5508" x="601" y="457.3076">automatique</text></g><!--SRC=[ZLJ1Sjis4BthAtRSYw9KSYpPSSU7p50YgJfZrOmesuUo1uXSIsWfW070s6gdrvux_SH-INS1od9cSkY9dCN3xjltTk6agn7Ikds62Y7MIY5QY4ovbGvBrng4cLmJ98_kOI6aSgY4Ah7NQqJvczWWd5nJp2Xq9_1TyYwzJ2FuemVmSwQD4xA6MIrHkKBr7t3zvXSG5aeVOKpKDB3GQrbZeLPORfKiwSXwrCx7Ut- -gXJzxldKkgqWkOFKC1CkEqd7QHpA9iiCPii5hD0Oebkep8Xdh3JaUrLkZNOeTZu_ciPJy3cdjLuNAdVQK25_lAO8dLV2YRMmL3pJrcqCvfzk2ZNb25KwOMIr_efaZkQBB4d4cTurDUweLI4DMkAPJfABz2BmN3t9McggkSXXBXm-YRslQtUMZtDKrTp8gb39ZbGCZFalIFk41gRNXOgKgFTEba6oXkDh-HMTMmMPmPqamZ5rwY0YYyiziqdJ7vApm6OUtHRg1ZUY32msGdiMqJmf53T2AX1V5xInb9cB12DXEFp0Qi8L_BXQPNcXbac-WYYxxWKF_n-01IV4NLDhGMqtM-sqFStYjDVZkmof6E0Dc2tlufTmTvFTmzCbEYFn2mtKewGXHcEFzqbRmb7TGYdj9064arhPGeLEx0lIItt0bffocTq1QqJJq6nJNkB3u4vsWiTaTEa-jMZs1Qr9vqqWC1fzO5b3KfZbzpwnRMld4nTAD_nLM1_vieCTYKV1szX1HUiqy_dSqY9IAyYk_7H6bWq6VfSp8rKf6z4-Nmq653uRTNi8JRUM__xr3qymz9VnFQ22McuKmlZyzF8DuSSZEEuZKCD7VDS-L78ZdQWPFVaccdSA-i57sA2kTJbYzFd89s883xzFY3KmZu_3CICkZWW__T2dCO13uU0Luzw_oaIJ2lqW4gb1-Z3WSWI7NI7Ktn1FeVzY2pZSDHOC8ZL1wmOiv2ivnrxE7ClMqE077OUmkib9pGdq7Rq-LdeUGuYIV3Y-U4_DOADjYDr6hTkIak_WBNnyMFdOWbx7Ijf6AtvKVMWvps8e-QsGWlpf9tVX-fGsk6tWSqkJMb77eKvRIGTKcaKv0w6-oNpYcIyqlUYtZu-rL3WOm5L8GEPqI-TNYJe3CaRK_fJVI2yUz1zaAa_Fvu4BJNIBqFhLF5Zw_S6Ghjs5U8PB-5Mtne8ELO_S_WC0]--></g></svg>