<svg xmlns="http://www.w3.org/2000/svg" xmlns:xlink="http://www.w3.org/1999/xlink" contentStyleType="text/css" height="1925px" preserveAspectRatio="none" style="width:804px;height:1925px;background:#FFFFFF;" version="1.1" viewBox="0 0 804 1925" width="804px" zoomAndPan="magnify"><title>S&#233;quence Intervention SAV - Syst&#232;me ACTUEL (CERFA Papier)</title><defs/><g><text fill="#000000" font-family="sans-serif" font-size="14" font-weight="bold" lengthAdjust="spacing" textLength="421.6406" x="187.2317" y="29.5332">S&#233;quence Intervention SAV - Syst&#232;me ACTUEL (CERFA Papier)</text><line style="stroke:#181818;stroke-width:0.5;stroke-dasharray:5.0,5.0;" x1="46" x2="46" y1="138.8281" y2="1825.9766"/><line style="stroke:#181818;stroke-width:0.5;stroke-dasharray:5.0,5.0;" x1="220.7749" x2="220.7749" y1="138.8281" y2="1825.9766"/><line style="stroke:#181818;stroke-width:0.5;stroke-dasharray:5.0,5.0;" x1="302.2231" x2="302.2231" y1="138.8281" y2="1825.9766"/><line style="stroke:#181818;stroke-width:0.5;stroke-dasharray:5.0,5.0;" x1="440.2979" x2="440.2979" y1="138.8281" y2="1825.9766"/><line style="stroke:#181818;stroke-width:0.5;stroke-dasharray:5.0,5.0;" x1="583.499" x2="583.499" y1="138.8281" y2="1825.9766"/><line style="stroke:#181818;stroke-width:0.5;stroke-dasharray:5.0,5.0;" x1="662.0918" x2="662.0918" y1="138.8281" y2="1825.9766"/><line style="stroke:#181818;stroke-width:0.5;stroke-dasharray:5.0,5.0;" x1="723.5674" x2="723.5674" y1="138.8281" y2="1825.9766"/><text fill="#000000" font-family="sans-serif" font-size="14" lengthAdjust="spacing" textLength="45.9238" x="20.5518" y="118.1426">Ga&#235;tan</text><text fill="#000000" font-family="sans-serif" font-size="14" lengthAdjust="spacing" textLength="77.0273" x="5" y="135.752">(Technicien)</text><ellipse cx="46.5137" cy="52.1094" fill="#E2E2F0" rx="8" ry="8" style="stroke:#181818;stroke-width:0.5;"/><path d="M46.5137,60.1094 L46.5137,87.1094 M33.5137,68.1094 L59.5137,68.1094 M46.5137,87.1094 L33.5137,102.1094 M46.5137,87.1094 L59.5137,102.1094 " fill="none" style="stroke:#181818;stroke-width:0.5;"/><text fill="#000000" font-family="sans-serif" font-size="14" lengthAdjust="spacing" textLength="45.9238" x="20.5518" y="1839.5098">Ga&#235;tan</text><text fill="#000000" font-family="sans-serif" font-size="14" lengthAdjust="spacing" textLength="77.0273" x="5" y="1857.1191">(Technicien)</text><ellipse cx="46.5137" cy="1868.6953" fill="#E2E2F0" rx="8" ry="8" style="stroke:#181818;stroke-width:0.5;"/><path d="M46.5137,1876.6953 L46.5137,1903.6953 M33.5137,1884.6953 L59.5137,1884.6953 M46.5137,1903.6953 L33.5137,1918.6953 M46.5137,1903.6953 L59.5137,1918.6953 " fill="none" style="stroke:#181818;stroke-width:0.5;"/><rect fill="#E2E2F0" height="49.2188" rx="2.5" ry="2.5" style="stroke:#181818;stroke-width:0.5;" width="61.4482" x="190.7749" y="88.6094"/><text fill="#000000" font-family="sans-serif" font-size="14" lengthAdjust="spacing" textLength="47.4482" x="197.7749" y="110.1426">CERFA</text><text fill="#000000" font-family="sans-serif" font-size="14" lengthAdjust="spacing" textLength="40.4688" x="201.2646" y="127.752">Papier</text><rect fill="#E2E2F0" height="49.2188" rx="2.5" ry="2.5" style="stroke:#181818;stroke-width:0.5;" width="61.4482" x="190.7749" y="1824.9766"/><text fill="#000000" font-family="sans-serif" font-size="14" lengthAdjust="spacing" textLength="47.4482" x="197.7749" y="1846.5098">CERFA</text><text fill="#000000" font-family="sans-serif" font-size="14" lengthAdjust="spacing" textLength="40.4688" x="201.2646" y="1864.1191">Papier</text><rect fill="#E2E2F0" height="49.2188" rx="2.5" ry="2.5" style="stroke:#181818;stroke-width:0.5;" width="80.165" x="262.2231" y="88.6094"/><text fill="#000000" font-family="sans-serif" font-size="14" lengthAdjust="spacing" textLength="66.165" x="269.2231" y="110.1426">T&#233;l&#233;phone</text><text fill="#000000" font-family="sans-serif" font-size="14" lengthAdjust="spacing" textLength="36.5723" x="284.0195" y="127.752">Perso</text><rect fill="#E2E2F0" height="49.2188" rx="2.5" ry="2.5" style="stroke:#181818;stroke-width:0.5;" width="80.165" x="262.2231" y="1824.9766"/><text fill="#000000" font-family="sans-serif" font-size="14" lengthAdjust="spacing" textLength="66.165" x="269.2231" y="1846.5098">T&#233;l&#233;phone</text><text fill="#000000" font-family="sans-serif" font-size="14" lengthAdjust="spacing" textLength="36.5723" x="284.0195" y="1864.1191">Perso</text><rect fill="#E2E2F0" height="49.2188" rx="2.5" ry="2.5" style="stroke:#181818;stroke-width:0.5;" width="77.8135" x="402.2979" y="88.6094"/><text fill="#000000" font-family="sans-serif" font-size="14" lengthAdjust="spacing" textLength="54.4756" x="413.9668" y="110.1426">Clothilde</text><text fill="#000000" font-family="sans-serif" font-size="14" lengthAdjust="spacing" textLength="63.8135" x="409.2979" y="127.752">(Planning)</text><rect fill="#E2E2F0" height="49.2188" rx="2.5" ry="2.5" style="stroke:#181818;stroke-width:0.5;" width="77.8135" x="402.2979" y="1824.9766"/><text fill="#000000" font-family="sans-serif" font-size="14" lengthAdjust="spacing" textLength="54.4756" x="413.9668" y="1846.5098">Clothilde</text><text fill="#000000" font-family="sans-serif" font-size="14" lengthAdjust="spacing" textLength="63.8135" x="409.2979" y="1864.1191">(Planning)</text><text fill="#000000" font-family="sans-serif" font-size="14" lengthAdjust="spacing" textLength="34.2344" x="563.6782" y="118.1426">Excel</text><text fill="#000000" font-family="sans-serif" font-size="14" lengthAdjust="spacing" textLength="78.5928" x="541.499" y="135.752">Base Clients</text><path d="M565.7954,67.6094 C565.7954,57.6094 583.7954,57.6094 583.7954,57.6094 C583.7954,57.6094 601.7954,57.6094 601.7954,67.6094 L601.7954,93.6094 C601.7954,103.6094 583.7954,103.6094 583.7954,103.6094 C583.7954,103.6094 565.7954,103.6094 565.7954,93.6094 L565.7954,67.6094 " fill="#E2E2F0" style="stroke:#181818;stroke-width:1.5;"/><path d="M565.7954,67.6094 C565.7954,77.6094 583.7954,77.6094 583.7954,77.6094 C583.7954,77.6094 601.7954,77.6094 601.7954,67.6094 " fill="none" style="stroke:#181818;stroke-width:1.5;"/><text fill="#000000" font-family="sans-serif" font-size="14" lengthAdjust="spacing" textLength="34.2344" x="563.6782" y="1839.5098">Excel</text><text fill="#000000" font-family="sans-serif" font-size="14" lengthAdjust="spacing" textLength="78.5928" x="541.499" y="1857.1191">Base Clients</text><path d="M565.7954,1870.1953 C565.7954,1860.1953 583.7954,1860.1953 583.7954,1860.1953 C583.7954,1860.1953 601.7954,1860.1953 601.7954,1870.1953 L601.7954,1896.1953 C601.7954,1906.1953 583.7954,1906.1953 583.7954,1906.1953 C583.7954,1906.1953 565.7954,1906.1953 565.7954,1896.1953 L565.7954,1870.1953 " fill="#E2E2F0" style="stroke:#181818;stroke-width:1.5;"/><path d="M565.7954,1870.1953 C565.7954,1880.1953 583.7954,1880.1953 583.7954,1880.1953 C583.7954,1880.1953 601.7954,1880.1953 601.7954,1870.1953 " fill="none" style="stroke:#181818;stroke-width:1.5;"/><text fill="#000000" font-family="sans-serif" font-size="14" lengthAdjust="spacing" textLength="31.1172" x="644.271" y="118.1426">GAO</text><text fill="#000000" font-family="sans-serif" font-size="14" lengthAdjust="spacing" textLength="47.4756" x="636.0918" y="135.752">Logiciel</text><path d="M644.8296,67.6094 C644.8296,57.6094 662.8296,57.6094 662.8296,57.6094 C662.8296,57.6094 680.8296,57.6094 680.8296,67.6094 L680.8296,93.6094 C680.8296,103.6094 662.8296,103.6094 662.8296,103.6094 C662.8296,103.6094 644.8296,103.6094 644.8296,93.6094 L644.8296,67.6094 " fill="#E2E2F0" style="stroke:#181818;stroke-width:1.5;"/><path d="M644.8296,67.6094 C644.8296,77.6094 662.8296,77.6094 662.8296,77.6094 C662.8296,77.6094 680.8296,77.6094 680.8296,67.6094 " fill="none" style="stroke:#181818;stroke-width:1.5;"/><text fill="#000000" font-family="sans-serif" font-size="14" lengthAdjust="spacing" textLength="31.1172" x="644.271" y="1839.5098">GAO</text><text fill="#000000" font-family="sans-serif" font-size="14" lengthAdjust="spacing" textLength="47.4756" x="636.0918" y="1857.1191">Logiciel</text><path d="M644.8296,1870.1953 C644.8296,1860.1953 662.8296,1860.1953 662.8296,1860.1953 C662.8296,1860.1953 680.8296,1860.1953 680.8296,1870.1953 L680.8296,1896.1953 C680.8296,1906.1953 662.8296,1906.1953 662.8296,1906.1953 C662.8296,1906.1953 644.8296,1906.1953 644.8296,1896.1953 L644.8296,1870.1953 " fill="#E2E2F0" style="stroke:#181818;stroke-width:1.5;"/><path d="M644.8296,1870.1953 C644.8296,1880.1953 662.8296,1880.1953 662.8296,1880.1953 C662.8296,1880.1953 680.8296,1880.1953 680.8296,1870.1953 " fill="none" style="stroke:#181818;stroke-width:1.5;"/><rect fill="#E2E2F0" height="31.6094" rx="2.5" ry="2.5" style="stroke:#181818;stroke-width:0.5;" width="49.793" x="699.5674" y="106.2188"/><text fill="#000000" font-family="sans-serif" font-size="14" lengthAdjust="spacing" textLength="35.793" x="706.5674" y="127.752">Client</text><rect fill="#E2E2F0" height="31.6094" rx="2.5" ry="2.5" style="stroke:#181818;stroke-width:0.5;" width="49.793" x="699.5674" y="1824.9766"/><text fill="#000000" font-family="sans-serif" font-size="14" lengthAdjust="spacing" textLength="35.793" x="706.5674" y="1846.5098">Client</text><rect fill="#EEEEEE" height="3" style="stroke:#EEEEEE;stroke-width:1;" width="797.104" x="0" y="170.0039"/><line style="stroke:#000000;stroke-width:1;" x1="0" x2="797.104" y1="170.0039" y2="170.0039"/><line style="stroke:#000000;stroke-width:1;" x1="0" x2="797.104" y1="173.0039" y2="173.0039"/><rect fill="#EEEEEE" height="24.3516" style="stroke:#000000;stroke-width:2;" width="168.5908" x="314.2566" y="158.8281"/><text fill="#000000" font-family="sans-serif" font-size="13" font-weight="bold" lengthAdjust="spacing" textLength="150.979" x="320.2566" y="176.3232">Matin 8h30 : Pr&#233;paration</text><line style="stroke:#181818;stroke-width:1;" x1="46.5137" x2="88.5137" y1="215.5313" y2="215.5313"/><line style="stroke:#181818;stroke-width:1;" x1="88.5137" x2="88.5137" y1="215.5313" y2="228.5313"/><line style="stroke:#181818;stroke-width:1;" x1="47.5137" x2="88.5137" y1="228.5313" y2="228.5313"/><polygon fill="#181818" points="57.5137,224.5313,47.5137,228.5313,57.5137,232.5313,53.5137,228.5313" style="stroke:#181818;stroke-width:1;"/><text fill="#000000" font-family="sans-serif" font-size="13" lengthAdjust="spacing" textLength="138.7217" x="53.5137" y="210.6748">Prend 5 CERFA vierges</text><line style="stroke:#181818;stroke-width:1;" x1="46.5137" x2="88.5137" y1="263.5586" y2="263.5586"/><line style="stroke:#181818;stroke-width:1;" x1="88.5137" x2="88.5137" y1="263.5586" y2="276.5586"/><line style="stroke:#181818;stroke-width:1;" x1="47.5137" x2="88.5137" y1="276.5586" y2="276.5586"/><polygon fill="#181818" points="57.5137,272.5586,47.5137,276.5586,57.5137,280.5586,53.5137,276.5586" style="stroke:#181818;stroke-width:1;"/><text fill="#000000" font-family="sans-serif" font-size="13" lengthAdjust="spacing" textLength="125.0044" x="53.5137" y="258.7021">Imprime planning jour</text><path d="M190.0044,241.5313 L190.0044,283.5313 L310.0044,283.5313 L310.0044,251.5313 L300.0044,241.5313 L190.0044,241.5313 " fill="#FEFFDD" style="stroke:#181818;stroke-width:0.5;"/><path d="M300.0044,241.5313 L300.0044,251.5313 L310.0044,251.5313 L300.0044,241.5313 " fill="#FEFFDD" style="stroke:#181818;stroke-width:0.5;"/><text fill="#000000" font-family="sans-serif" font-size="13" lengthAdjust="spacing" textLength="99.3218" x="196.0044" y="260.0264">Pas d'app mobile</text><text fill="#000000" font-family="sans-serif" font-size="13" lengthAdjust="spacing" textLength="97.5571" x="196.0044" y="276.3779">avec toutes infos</text><rect fill="#EEEEEE" height="3" style="stroke:#EEEEEE;stroke-width:1;" width="797.104" x="0" y="310.4102"/><line style="stroke:#000000;stroke-width:1;" x1="0" x2="797.104" y1="310.4102" y2="310.4102"/><line style="stroke:#000000;stroke-width:1;" x1="0" x2="797.104" y1="313.4102" y2="313.4102"/><rect fill="#EEEEEE" height="24.3516" style="stroke:#000000;stroke-width:2;" width="192.4517" x="302.3262" y="299.2344"/><text fill="#000000" font-family="sans-serif" font-size="13" font-weight="bold" lengthAdjust="spacing" textLength="174.8398" x="308.3262" y="316.7295">Intervention #1 : 9h00-10h45</text><polygon fill="#181818" points="290.3057,384.6406,300.3057,388.6406,290.3057,392.6406,294.3057,388.6406" style="stroke:#181818;stroke-width:1;"/><line style="stroke:#181818;stroke-width:1;" x1="46.5137" x2="296.3057" y1="388.6406" y2="388.6406"/><text fill="#000000" font-family="sans-serif" font-size="13" lengthAdjust="spacing" textLength="104.7871" x="53.5137" y="351.0811">Appelle Clothilde :</text><text fill="#000000" font-family="sans-serif" font-size="13" lengthAdjust="spacing" textLength="121.9956" x="53.5137" y="367.4326">"C'est quelle adresse</text><text fill="#000000" font-family="sans-serif" font-size="13" lengthAdjust="spacing" textLength="103.6191" x="53.5137" y="383.7842">M. Dupont d&#233;j&#224; ?"</text><polygon fill="#181818" points="429.2046,414.9922,439.2046,418.9922,429.2046,422.9922,433.2046,418.9922" style="stroke:#181818;stroke-width:1;"/><line style="stroke:#181818;stroke-width:1;" x1="302.3057" x2="435.2046" y1="418.9922" y2="418.9922"/><text fill="#000000" font-family="sans-serif" font-size="13" lengthAdjust="spacing" textLength="114.8989" x="309.3057" y="414.1357">Demande info client</text><polygon fill="#181818" points="571.7954,461.6953,581.7954,465.6953,571.7954,469.6953,575.7954,465.6953" style="stroke:#181818;stroke-width:1;"/><line style="stroke:#181818;stroke-width:1;" x1="441.2046" x2="577.7954" y1="465.6953" y2="465.6953"/><text fill="#000000" font-family="sans-serif" font-size="13" lengthAdjust="spacing" textLength="96.8271" x="448.2046" y="444.4873">Recherche client</text><text fill="#000000" font-family="sans-serif" font-size="13" lengthAdjust="spacing" textLength="40.4473" x="448.2046" y="460.8389">(2 min)</text><polygon fill="#181818" points="452.2046,492.0469,442.2046,496.0469,452.2046,500.0469,448.2046,496.0469" style="stroke:#181818;stroke-width:1;"/><line style="stroke:#181818;stroke-width:1;stroke-dasharray:2.0,2.0;" x1="446.2046" x2="582.7954" y1="496.0469" y2="496.0469"/><text fill="#000000" font-family="sans-serif" font-size="13" lengthAdjust="spacing" textLength="62.1436" x="458.2046" y="491.1904">Infos client</text><polygon fill="#181818" points="313.3057,538.75,303.3057,542.75,313.3057,546.75,309.3057,542.75" style="stroke:#181818;stroke-width:1;"/><line style="stroke:#181818;stroke-width:1;stroke-dasharray:2.0,2.0;" x1="307.3057" x2="440.2046" y1="542.75" y2="542.75"/><text fill="#000000" font-family="sans-serif" font-size="13" lengthAdjust="spacing" textLength="52.311" x="319.3057" y="521.542">"24 rue...</text><text fill="#000000" font-family="sans-serif" font-size="13" lengthAdjust="spacing" textLength="89.1592" x="319.3057" y="537.8936">Contrat Argent"</text><polygon fill="#181818" points="57.5137,580.2773,47.5137,584.2773,57.5137,588.2773,53.5137,584.2773" style="stroke:#181818;stroke-width:1;"/><line style="stroke:#181818;stroke-width:1;stroke-dasharray:2.0,2.0;" x1="51.5137" x2="301.3057" y1="584.2773" y2="584.2773"/><text fill="#000000" font-family="sans-serif" font-size="13" lengthAdjust="spacing" textLength="67.9199" x="63.5137" y="579.4209">Re&#231;oit infos</text><path d="M307,555.75 L307,597.75 L434,597.75 L434,565.75 L424,555.75 L307,555.75 " fill="#FEFFDD" style="stroke:#181818;stroke-width:0.5;"/><path d="M424,555.75 L424,565.75 L434,565.75 L424,555.75 " fill="#FEFFDD" style="stroke:#181818;stroke-width:0.5;"/><text fill="#000000" font-family="sans-serif" font-size="13" lengthAdjust="spacing" textLength="68.6499" x="313" y="574.2451">5 min perdu</text><text fill="#000000" font-family="sans-serif" font-size="13" lengthAdjust="spacing" textLength="106.2534" x="313" y="590.5967">info non dispo app</text><line style="stroke:#181818;stroke-width:1;" x1="46.5137" x2="88.5137" y1="625.8047" y2="625.8047"/><line style="stroke:#181818;stroke-width:1;" x1="88.5137" x2="88.5137" y1="625.8047" y2="638.8047"/><line style="stroke:#181818;stroke-width:1;" x1="47.5137" x2="88.5137" y1="638.8047" y2="638.8047"/><polygon fill="#181818" points="57.5137,634.8047,47.5137,638.8047,57.5137,642.8047,53.5137,638.8047" style="stroke:#181818;stroke-width:1;"/><text fill="#000000" font-family="sans-serif" font-size="13" lengthAdjust="spacing" textLength="109.1226" x="53.5137" y="620.9482">Intervention (1h30)</text><polygon fill="#181818" points="209.499,684.5078,219.499,688.5078,209.499,692.5078,213.499,688.5078" style="stroke:#181818;stroke-width:1;"/><line style="stroke:#181818;stroke-width:1;" x1="46.5137" x2="215.499" y1="688.5078" y2="688.5078"/><text fill="#000000" font-family="sans-serif" font-size="13" lengthAdjust="spacing" textLength="91.7363" x="53.5137" y="667.2998">Remplit CERFA</text><text fill="#000000" font-family="sans-serif" font-size="13" font-weight="bold" lengthAdjust="spacing" textLength="55.6372" x="148.8618" y="667.2998">&#224; la main</text><text fill="#000000" font-family="sans-serif" font-size="13" lengthAdjust="spacing" textLength="47.6772" x="53.5137" y="683.6514">(12 min)</text><path d="M226,651.8047 L226,693.8047 L387,693.8047 L387,661.8047 L377,651.8047 L226,651.8047 " fill="#FEFFDD" style="stroke:#181818;stroke-width:0.5;"/><path d="M377,651.8047 L377,661.8047 L387,661.8047 L377,651.8047 " fill="#FEFFDD" style="stroke:#181818;stroke-width:0.5;"/><text fill="#000000" font-family="sans-serif" font-size="13" lengthAdjust="spacing" textLength="86.6899" x="232" y="670.2998">&#201;criture illisible</text><text fill="#000000" font-family="sans-serif" font-size="13" lengthAdjust="spacing" textLength="140.207" x="232" y="686.6514">Pas de photos int&#233;gr&#233;es</text><polygon fill="#181818" points="290.3057,737.2109,300.3057,741.2109,290.3057,745.2109,294.3057,741.2109" style="stroke:#181818;stroke-width:1;"/><line style="stroke:#181818;stroke-width:1;" x1="46.5137" x2="296.3057" y1="741.2109" y2="741.2109"/><text fill="#000000" font-family="sans-serif" font-size="13" lengthAdjust="spacing" textLength="112.0171" x="53.5137" y="720.0029">Photos avant/apr&#232;s</text><text fill="#000000" font-family="sans-serif" font-size="13" lengthAdjust="spacing" textLength="114.9116" x="53.5137" y="736.3545">sur t&#233;l&#233;phone perso</text><path d="M307,704.5078 L307,746.5078 L432,746.5078 L432,714.5078 L422,704.5078 L307,704.5078 " fill="#FEFFDD" style="stroke:#181818;stroke-width:0.5;"/><path d="M422,704.5078 L422,714.5078 L432,714.5078 L422,704.5078 " fill="#FEFFDD" style="stroke:#181818;stroke-width:0.5;"/><text fill="#000000" font-family="sans-serif" font-size="13" lengthAdjust="spacing" textLength="104.7871" x="313" y="723.0029">Pas g&#233;olocalis&#233;es</text><text fill="#000000" font-family="sans-serif" font-size="13" lengthAdjust="spacing" textLength="93.958" x="313" y="739.3545">Pas dat&#233;es auto</text><polygon fill="#181818" points="209.499,786.9141,219.499,790.9141,209.499,794.9141,213.499,790.9141" style="stroke:#181818;stroke-width:1;"/><line style="stroke:#181818;stroke-width:1;" x1="46.5137" x2="215.499" y1="790.9141" y2="790.9141"/><text fill="#000000" font-family="sans-serif" font-size="13" lengthAdjust="spacing" textLength="94.6499" x="53.5137" y="769.7061">Fait signer client</text><text fill="#000000" font-family="sans-serif" font-size="13" lengthAdjust="spacing" textLength="44.7954" x="53.5137" y="786.0576">(papier)</text><rect fill="#EEEEEE" height="3" style="stroke:#EEEEEE;stroke-width:1;" width="797.104" x="0" y="820.0898"/><line style="stroke:#000000;stroke-width:1;" x1="0" x2="797.104" y1="820.0898" y2="820.0898"/><line style="stroke:#000000;stroke-width:1;" x1="0" x2="797.104" y1="823.0898" y2="823.0898"/><rect fill="#EEEEEE" height="24.3516" style="stroke:#000000;stroke-width:2;" width="328.9453" x="234.0793" y="808.9141"/><text fill="#000000" font-family="sans-serif" font-size="13" font-weight="bold" lengthAdjust="spacing" textLength="311.3335" x="240.0793" y="826.4092">Intervention #2 : 11h30 - CLIENT DEMANDE DEVIS</text><line style="stroke:#181818;stroke-width:1;" x1="46.5137" x2="88.5137" y1="865.6172" y2="865.6172"/><line style="stroke:#181818;stroke-width:1;" x1="88.5137" x2="88.5137" y1="865.6172" y2="878.6172"/><line style="stroke:#181818;stroke-width:1;" x1="47.5137" x2="88.5137" y1="878.6172" y2="878.6172"/><polygon fill="#181818" points="57.5137,874.6172,47.5137,878.6172,57.5137,882.6172,53.5137,878.6172" style="stroke:#181818;stroke-width:1;"/><text fill="#000000" font-family="sans-serif" font-size="13" lengthAdjust="spacing" textLength="109.1226" x="53.5137" y="860.7607">Intervention (1h15)</text><polygon fill="#181818" points="57.5137,937.6719,47.5137,941.6719,57.5137,945.6719,53.5137,941.6719" style="stroke:#181818;stroke-width:1;"/><line style="stroke:#181818;stroke-width:1;stroke-dasharray:2.0,2.0;" x1="51.5137" x2="723.4639" y1="941.6719" y2="941.6719"/><text fill="#000000" font-family="sans-serif" font-size="13" lengthAdjust="spacing" textLength="111.5601" x="63.5137" y="904.1123">"Au fait, je voudrais</text><text fill="#000000" font-family="sans-serif" font-size="13" lengthAdjust="spacing" textLength="122.1416" x="63.5137" y="920.4639">changer mon tableau</text><text fill="#000000" font-family="sans-serif" font-size="13" lengthAdjust="spacing" textLength="163.9092" x="63.5137" y="936.8154">secondaire, c'est possible ?"</text><line style="stroke:#181818;stroke-width:1;" x1="46.5137" x2="88.5137" y1="988.375" y2="988.375"/><line style="stroke:#181818;stroke-width:1;" x1="88.5137" x2="88.5137" y1="988.375" y2="1001.375"/><line style="stroke:#181818;stroke-width:1;" x1="47.5137" x2="88.5137" y1="1001.375" y2="1001.375"/><polygon fill="#181818" points="57.5137,997.375,47.5137,1001.375,57.5137,1005.375,53.5137,1001.375" style="stroke:#181818;stroke-width:1;"/><text fill="#000000" font-family="sans-serif" font-size="13" lengthAdjust="spacing" textLength="153.8989" x="53.5137" y="967.167">&#10060; **IMPOSSIBLE g&#233;n&#233;rer</text><text fill="#000000" font-family="sans-serif" font-size="13" lengthAdjust="spacing" textLength="80.9263" x="53.5137" y="983.5186">devis terrain**</text><line style="stroke:#181818;stroke-width:1;" x1="46.5137" x2="88.5137" y1="1048.0781" y2="1048.0781"/><line style="stroke:#181818;stroke-width:1;" x1="88.5137" x2="88.5137" y1="1048.0781" y2="1061.0781"/><line style="stroke:#181818;stroke-width:1;" x1="47.5137" x2="88.5137" y1="1061.0781" y2="1061.0781"/><polygon fill="#181818" points="57.5137,1057.0781,47.5137,1061.0781,57.5137,1065.0781,53.5137,1061.0781" style="stroke:#181818;stroke-width:1;"/><text fill="#000000" font-family="sans-serif" font-size="13" lengthAdjust="spacing" textLength="95.3672" x="53.5137" y="1026.8701">Note sur post-it :</text><text fill="#000000" font-family="sans-serif" font-size="13" lengthAdjust="spacing" textLength="142.9111" x="53.5137" y="1043.2217">"Client B - devis tableau"</text><path d="M207.9111,1017.875 L207.9111,1059.875 L438.9111,1059.875 L438.9111,1027.875 L428.9111,1017.875 L207.9111,1017.875 " fill="#FEFFDD" style="stroke:#181818;stroke-width:0.5;"/><path d="M428.9111,1017.875 L428.9111,1027.875 L438.9111,1027.875 L428.9111,1017.875 " fill="#FEFFDD" style="stroke:#181818;stroke-width:0.5;"/><rect fill="#000000" height="3.5" style="stroke:#000000;stroke-width:0;" width="3.5" x="222.9111" y="1029.2266"/><text fill="#000000" font-family="sans-serif" font-size="13" lengthAdjust="spacing" textLength="194.2954" x="229.9111" y="1036.3701">OPPORTUNIT&#201; COMMERCIALE</text><text fill="#000000" font-family="sans-serif" font-size="13" lengthAdjust="spacing" textLength="132.9453" x="213.9111" y="1052.7217">&#192; RISQUE** (45K&#8364;/an)</text><polygon fill="#181818" points="209.499,1087.4297,219.499,1091.4297,209.499,1095.4297,213.499,1091.4297" style="stroke:#181818;stroke-width:1;"/><line style="stroke:#181818;stroke-width:1;" x1="46.5137" x2="215.499" y1="1091.4297" y2="1091.4297"/><text fill="#000000" font-family="sans-serif" font-size="13" lengthAdjust="spacing" textLength="143.0254" x="53.5137" y="1086.5732">Remplit CERFA (12 min)</text><rect fill="#EEEEEE" height="3" style="stroke:#EEEEEE;stroke-width:1;" width="797.104" x="0" y="1120.6055"/><line style="stroke:#000000;stroke-width:1;" x1="0" x2="797.104" y1="1120.6055" y2="1120.6055"/><line style="stroke:#000000;stroke-width:1;" x1="0" x2="797.104" y1="1123.6055" y2="1123.6055"/><rect fill="#EEEEEE" height="24.3516" style="stroke:#000000;stroke-width:2;" width="318.1226" x="239.4907" y="1109.4297"/><text fill="#000000" font-family="sans-serif" font-size="13" font-weight="bold" lengthAdjust="spacing" textLength="300.5107" x="245.4907" y="1126.9248">Intervention #3 : 14h30 - D&#201;PASSEMENT HEURE</text><line style="stroke:#181818;stroke-width:1;" x1="46.5137" x2="88.5137" y1="1203.5117" y2="1203.5117"/><line style="stroke:#181818;stroke-width:1;" x1="88.5137" x2="88.5137" y1="1203.5117" y2="1216.5117"/><line style="stroke:#181818;stroke-width:1;" x1="47.5137" x2="88.5137" y1="1216.5117" y2="1216.5117"/><polygon fill="#181818" points="57.5137,1212.5117,47.5137,1216.5117,57.5137,1220.5117,53.5137,1216.5117" style="stroke:#181818;stroke-width:1;"/><text fill="#000000" font-family="sans-serif" font-size="13" lengthAdjust="spacing" textLength="143.8252" x="53.5137" y="1182.3037">Intervention pr&#233;vue 1h30</text><text fill="#000000" font-family="sans-serif" font-size="13" lengthAdjust="spacing" textLength="142.0034" x="53.5137" y="1198.6553">&#8594; R&#233;el 2h30 (complexe)</text><path d="M208.8252,1148.7813 L208.8252,1239.7813 L386.8252,1239.7813 L386.8252,1158.7813 L376.8252,1148.7813 L208.8252,1148.7813 " fill="#FEFFDD" style="stroke:#181818;stroke-width:0.5;"/><path d="M376.8252,1148.7813 L376.8252,1158.7813 L386.8252,1158.7813 L376.8252,1148.7813 " fill="#FEFFDD" style="stroke:#181818;stroke-width:0.5;"/><text fill="#000000" font-family="sans-serif" font-size="13" lengthAdjust="spacing" textLength="145.2026" x="214.8252" y="1167.2764">&#10060; **PAS DE POINTAGE</text><text fill="#000000" font-family="sans-serif" font-size="13" lengthAdjust="spacing" textLength="91.749" x="214.8252" y="1183.6279">GPS DIGITAL**</text><text fill="#000000" font-family="sans-serif" font-size="13" lengthAdjust="spacing" textLength="104.4126" x="214.8252" y="1199.9795">&#8594; Difficile prouver</text><text fill="#000000" font-family="sans-serif" font-size="13" lengthAdjust="spacing" textLength="157.1743" x="214.8252" y="1216.3311">&#8594; Refacturation impossible</text><text fill="#000000" font-family="sans-serif" font-size="13" lengthAdjust="spacing" textLength="93.9517" x="214.8252" y="1232.6826">(30K&#8364;/an perdu)</text><polygon fill="#181818" points="209.499,1263.8906,219.499,1267.8906,209.499,1271.8906,213.499,1267.8906" style="stroke:#181818;stroke-width:1;"/><line style="stroke:#181818;stroke-width:1;" x1="46.5137" x2="215.499" y1="1267.8906" y2="1267.8906"/><text fill="#000000" font-family="sans-serif" font-size="13" lengthAdjust="spacing" textLength="143.0254" x="53.5137" y="1263.0342">Remplit CERFA (15 min)</text><rect fill="#EEEEEE" height="3" style="stroke:#EEEEEE;stroke-width:1;" width="797.104" x="0" y="1297.0664"/><line style="stroke:#000000;stroke-width:1;" x1="0" x2="797.104" y1="1297.0664" y2="1297.0664"/><line style="stroke:#000000;stroke-width:1;" x1="0" x2="797.104" y1="1300.0664" y2="1300.0664"/><rect fill="#EEEEEE" height="24.3516" style="stroke:#000000;stroke-width:2;" width="141.1563" x="327.9739" y="1285.8906"/><text fill="#000000" font-family="sans-serif" font-size="13" font-weight="bold" lengthAdjust="spacing" textLength="123.5444" x="333.9739" y="1303.3857">Retour base : 18h00</text><polygon fill="#181818" points="429.2046,1338.5938,439.2046,1342.5938,429.2046,1346.5938,433.2046,1342.5938" style="stroke:#181818;stroke-width:1;"/><line style="stroke:#181818;stroke-width:1;" x1="46.5137" x2="435.2046" y1="1342.5938" y2="1342.5938"/><text fill="#000000" font-family="sans-serif" font-size="13" lengthAdjust="spacing" textLength="136.5508" x="53.5137" y="1337.7373">Remet 3 CERFA papier</text><line style="stroke:#181818;stroke-width:1;" x1="441.2046" x2="483.2046" y1="1372.9453" y2="1372.9453"/><line style="stroke:#181818;stroke-width:1;" x1="483.2046" x2="483.2046" y1="1372.9453" y2="1385.9453"/><line style="stroke:#181818;stroke-width:1;" x1="442.2046" x2="483.2046" y1="1385.9453" y2="1385.9453"/><polygon fill="#181818" points="452.2046,1381.9453,442.2046,1385.9453,452.2046,1389.9453,448.2046,1385.9453" style="stroke:#181818;stroke-width:1;"/><text fill="#000000" font-family="sans-serif" font-size="13" lengthAdjust="spacing" textLength="128.5908" x="448.2046" y="1368.0889">Scan CERFA (30 min)</text><polygon fill="#181818" points="650.8296,1431.6484,660.8296,1435.6484,650.8296,1439.6484,654.8296,1435.6484" style="stroke:#181818;stroke-width:1;"/><line style="stroke:#181818;stroke-width:1;" x1="441.2046" x2="656.8296" y1="1435.6484" y2="1435.6484"/><text fill="#000000" font-family="sans-serif" font-size="13" lengthAdjust="spacing" textLength="91.7744" x="448.2046" y="1414.4404">Saisie manuelle</text><text fill="#000000" font-family="sans-serif" font-size="13" lengthAdjust="spacing" textLength="131.4854" x="448.2046" y="1430.792">rapports GAO (20 min)</text><path d="M667,1398.9453 L667,1440.9453 L786,1440.9453 L786,1408.9453 L776,1398.9453 L667,1398.9453 " fill="#FEFFDD" style="stroke:#181818;stroke-width:0.5;"/><path d="M776,1398.9453 L776,1408.9453 L786,1408.9453 L776,1398.9453 " fill="#FEFFDD" style="stroke:#181818;stroke-width:0.5;"/><text fill="#000000" font-family="sans-serif" font-size="13" font-weight="bold" lengthAdjust="spacing" textLength="83.0781" x="673" y="1417.4404">50 min admin</text><text fill="#000000" font-family="sans-serif" font-size="13" lengthAdjust="spacing" textLength="98.2744" x="673" y="1433.792">par jour Clothilde</text><line style="stroke:#181818;stroke-width:1;" x1="46.5137" x2="88.5137" y1="1485.3516" y2="1485.3516"/><line style="stroke:#181818;stroke-width:1;" x1="88.5137" x2="88.5137" y1="1485.3516" y2="1498.3516"/><line style="stroke:#181818;stroke-width:1;" x1="47.5137" x2="88.5137" y1="1498.3516" y2="1498.3516"/><polygon fill="#181818" points="57.5137,1494.3516,47.5137,1498.3516,57.5137,1502.3516,53.5137,1498.3516" style="stroke:#181818;stroke-width:1;"/><text fill="#000000" font-family="sans-serif" font-size="13" lengthAdjust="spacing" textLength="130.7681" x="53.5137" y="1464.1436">Post-it devis Client B...</text><text fill="#000000" font-family="sans-serif" font-size="13" font-weight="bold" lengthAdjust="spacing" textLength="127.8672" x="53.5137" y="1480.4951">PERDU le lendemain</text><text fill="#000000" font-family="sans-serif" font-size="13" lengthAdjust="spacing" textLength="13" x="184.9927" y="1480.4951">&#128176;</text><path d="M209.479,1463.3242 L209.479,1489.3242 L336.479,1489.3242 L336.479,1473.3242 L326.479,1463.3242 L209.479,1463.3242 " fill="#FEFFDD" style="stroke:#181818;stroke-width:0.5;"/><path d="M326.479,1463.3242 L326.479,1473.3242 L336.479,1473.3242 L326.479,1463.3242 " fill="#FEFFDD" style="stroke:#181818;stroke-width:0.5;"/><text fill="#000000" font-family="sans-serif" font-size="13" font-weight="bold" lengthAdjust="spacing" textLength="106.2026" x="215.479" y="1481.8193">-3,000&#8364; CA perdu</text><rect fill="#EEEEEE" height="3" style="stroke:#EEEEEE;stroke-width:1;" width="797.104" x="0" y="1527.5273"/><line style="stroke:#000000;stroke-width:1;" x1="0" x2="797.104" y1="1527.5273" y2="1527.5273"/><line style="stroke:#000000;stroke-width:1;" x1="0" x2="797.104" y1="1530.5273" y2="1530.5273"/><rect fill="#EEEEEE" height="24.3516" style="stroke:#000000;stroke-width:2;" width="103.5781" x="346.7629" y="1516.3516"/><text fill="#000000" font-family="sans-serif" font-size="13" font-weight="bold" lengthAdjust="spacing" textLength="85.9663" x="352.7629" y="1533.8467">Bilan Journ&#233;e</text><path d="M14,1555.7031 L14,1810.7031 L693,1810.7031 L693,1565.7031 L683,1555.7031 L14,1555.7031 " fill="#FEFFDD" style="stroke:#181818;stroke-width:0.5;"/><path d="M683,1555.7031 L683,1565.7031 L693,1565.7031 L683,1555.7031 " fill="#FEFFDD" style="stroke:#181818;stroke-width:0.5;"/><text fill="#000000" font-family="sans-serif" font-size="13" font-weight="bold" lengthAdjust="spacing" textLength="93.9009" x="233.3469" y="1574.1982">TEMPS PERDU</text><text fill="#000000" font-family="sans-serif" font-size="13" lengthAdjust="spacing" textLength="3.6118" x="330.8596" y="1574.1982">:</text><text fill="#000000" font-family="sans-serif" font-size="13" lengthAdjust="spacing" textLength="215.8901" x="233.3469" y="1590.5498">&#8226; CERFA papier : 39 min (3 &#215; 13 min)</text><text fill="#000000" font-family="sans-serif" font-size="13" lengthAdjust="spacing" textLength="115.8384" x="233.3469" y="1606.9014">&#8226; Appels info : 5 min</text><text fill="#000000" font-family="sans-serif" font-size="13" lengthAdjust="spacing" textLength="172.5674" x="233.3469" y="1623.2529">&#8226; Post-it perdu : 1 devis = 3K&#8364;</text><text fill="#000000" font-family="sans-serif" font-size="13" lengthAdjust="spacing" textLength="3.6118" x="233.3469" y="1639.6045">&#160;</text><text fill="#000000" font-family="sans-serif" font-size="13" font-weight="bold" lengthAdjust="spacing" textLength="195.7236" x="233.3469" y="1655.9561">REFACTURATION IMPOSSIBLE</text><text fill="#000000" font-family="sans-serif" font-size="13" lengthAdjust="spacing" textLength="3.6118" x="432.6824" y="1655.9561">:</text><text fill="#000000" font-family="sans-serif" font-size="13" lengthAdjust="spacing" textLength="204.7246" x="233.3469" y="1672.3076">&#8226; D&#233;passement 1h (intervention #3)</text><text fill="#000000" font-family="sans-serif" font-size="13" lengthAdjust="spacing" textLength="78.6475" x="233.3469" y="1688.6592">&#8226; = 50&#8364; perdu</text><text fill="#000000" font-family="sans-serif" font-size="13" lengthAdjust="spacing" textLength="3.6118" x="233.3469" y="1705.0107">&#160;</text><text fill="#000000" font-family="sans-serif" font-size="13" font-weight="bold" lengthAdjust="spacing" textLength="136.4873" x="233.3469" y="1721.3623">TOTAL INEFFICACIT&#201;</text><text fill="#000000" font-family="sans-serif" font-size="13" lengthAdjust="spacing" textLength="3.6118" x="373.446" y="1721.3623">:</text><text fill="#000000" font-family="sans-serif" font-size="13" lengthAdjust="spacing" textLength="203.3027" x="233.3469" y="1737.7139">&#8226; 44 min/jour &#215; 220 jours = 161h/an</text><text fill="#000000" font-family="sans-serif" font-size="13" lengthAdjust="spacing" textLength="231.8735" x="233.3469" y="1754.0654">&#8226; + 50&#8364; &#215; 50 d&#233;passements/an = 2,500&#8364;</text><text fill="#000000" font-family="sans-serif" font-size="13" lengthAdjust="spacing" textLength="155.2319" x="233.3469" y="1770.417">&#8226; + Devis perdus : 45K&#8364;/an</text><text fill="#000000" font-family="sans-serif" font-size="13" lengthAdjust="spacing" textLength="3.6118" x="233.3469" y="1786.7686">&#160;</text><text fill="#000000" font-family="sans-serif" font-size="13" font-weight="bold" lengthAdjust="spacing" textLength="197.5898" x="233.3469" y="1803.1201">= 50K&#8364;/an PERDU (1 technicien)</text><!--SRC=[ZLRBZXj55DttLroPHMmpdlWnHac4GJrspz0mVc1xilAcOjVO5RMhckfgA-mY5aWZiSg65GAn8HOi-8V-a_a2Fe5JrMrFR2E5HJJfwjltddlEgNjjX8auJRBjTocNSqwXD5nlk3H2IPhuBwb6a-yJaxrVS_AxqzlWXihTO7pbquZ5WkkAvx6vKPfAropxqp0va-Kfdw-ac0ikAoLY2TbdBsRQu2ncqb39PPZ9F8MBSIU7GTDi6sNRUAKaHoZNYNAH8tjmb2vIPYMY1UBAeuX9AUGoBuqtte8Pzeebd4h1cpcFPlBIFdGZu3E9YtBd7yHT-yEPl55BsqFa8d3YUPqEzPaHafwjMdLwGICDU4mpnrMdutcsKQfzuHfsxxbSK3llZJPeTScJuw1m7Mi1SkC2DxrMgVQaCfoqMAwCpGC0YoSiZccjNea8NR8DdvDHgU492Ncd4WVkGBjF6lZo-QfUhpNgguls0Jv78LxxSSoZo79Hy4SlPhBKVS8JG_23VSKMcYS9IlRFgPV62dGlikthx3VwikJbUP0G2P2knzTC8eb5H7F7hsVV8C0nZ90n472DVyLx2DQajP0LBu-exPE5jgs3B1y0BpKlIAVy_Fny9hl010t81xlIx44zCZpcsHzAc8Ae0sRRjZR5N2_IcNIm9QXRY2HM1BvF53rWkDo03Ihxa5nbMsuTHoYNFrUhe2fYj6P2Lgjejr7qUu0ZkvzhOL8Dxg989EAL5Td93cEib55MPfDjbt0SB7GYv2YFOHjSXwSirjdxP2QJL9Dvl4EspKITEckPRLMavWnrRVAYBZFsWLXgb7VIuXL3VubOIguVTOnty-34YKryqh1aOPXqRy9WCALUqFS7lG1_NuQJ_xexnqmtsfKYvlDQpTvuMxLahU2dT0SyP_IQqqQb2yq4cfYlc5m2tXgVurf7d47XXC-LN32X-HdDdSjZbJYshPkF8JpyyXFa2_kZuMGINju4bYcPRJNNCxXy8n82HErqFVvqO4cs_2E_gO4iTwySPhe42yNdEIvKFX2bMXsEHiFnz7OGJhDxwWxx_M3S3VsRO2QpjpGE9z_U1jKgbI_QtppyyDTJ9YlUHrouTzsfE2qhpaKkJY-x7_cJIT2t4dqLt8w3Zqe3hsqtAIShxqm-_FYEnZ1EH4sRiJnNGC7VyCfHYpcrg0K3q6WO3gR-DRgx7k4Wl0wd_eszApPRJzpTOGn3eLYhT6EvTqNu7TPEMinUiTxf21-swWKh-Rt-7zoq7xaPSqnLJMuDW9Tdc9y75EIp2GcueLQH83V-RjBb4PCvwXVvGOJBNmHWbTW0k5HmZ0NfvknCQimRfOrRDLHk5jySEwFjpZ6Lr_aumVfn2-DnX9zkeSA2kUTs9dIZ4n84uzujWTq8guhdGuh- -VNTtoULQwspUhqEPgdhvyp2zfQoIu7DHLy312u7TsovJnN4SXZEtFQiLgT17_gwYYZomdju-_i1WoZJUkxQAxSe-vaQhPm36-SsLRxhTcFRdU-QSu2iOaMR7MfP5tWeEmwkx0-NiJyDXmDwlCvx33sxnR7ZrfQOnehAul22v0Wwr7RTkqesxtG8cr8u2AwkmgxVjNTrd_BYmY9ywfH19qt8QVzlSJK-QwnWJXVsQP4J8H1syG6EnFgtGyspjkEyYEwvtXo21Ctkxx-5O_7jZ9-hMcvWGEr_YK4j-sl4IkFz2m00]--></g></svg>