<svg xmlns="http://www.w3.org/2000/svg" xmlns:xlink="http://www.w3.org/1999/xlink" contentStyleType="text/css" height="393px" preserveAspectRatio="none" style="width:7147px;height:393px;background:#FFFFFF;" version="1.1" viewBox="0 0 7147 393" width="7147px" zoomAndPan="magnify"><title>Timeline Comparee Intervention SAV CERFA Papier vs Digital</title><defs/><g><text fill="#000000" font-family="sans-serif" font-size="14" font-weight="bold" lengthAdjust="spacing" textLength="410.7646" x="3284.1177" y="34.5332">Timeline Comparee Intervention SAV CERFA Papier vs Digital</text><line style="stroke:#333333;stroke-width:0.5;" x1="10" x2="10" y1="48.6094" y2="362.25"/><line style="stroke:#333333;stroke-width:0.5;" x1="6970" x2="6970" y1="48.6094" y2="362.25"/><rect fill="#F08080" height="313.6406" style="stroke:none;stroke-width:1;" width="250" x="1065" y="48.6094"/><rect fill="#F08080" height="313.6406" style="stroke:none;stroke-width:1;" width="950" x="5815" y="48.6094"/><rect fill="#90EE90" height="313.6406" style="stroke:none;stroke-width:1;" width="1100" x="5815" y="48.6094"/><line style="stroke:#333333;stroke-width:0.5;stroke-dasharray:3.0,5.0;" x1="15" x2="15" y1="48.6094" y2="362.25"/><line style="stroke:#333333;stroke-width:0.5;stroke-dasharray:3.0,5.0;" x1="65" x2="65" y1="48.6094" y2="362.25"/><line style="stroke:#333333;stroke-width:0.5;stroke-dasharray:3.0,5.0;" x1="115" x2="115" y1="48.6094" y2="362.25"/><line style="stroke:#333333;stroke-width:0.5;stroke-dasharray:3.0,5.0;" x1="165" x2="165" y1="48.6094" y2="362.25"/><line style="stroke:#333333;stroke-width:0.5;stroke-dasharray:3.0,5.0;" x1="215" x2="215" y1="48.6094" y2="362.25"/><line style="stroke:#333333;stroke-width:0.5;stroke-dasharray:3.0,5.0;" x1="265" x2="265" y1="48.6094" y2="362.25"/><line style="stroke:#333333;stroke-width:0.5;stroke-dasharray:3.0,5.0;" x1="315" x2="315" y1="48.6094" y2="362.25"/><line style="stroke:#333333;stroke-width:0.5;stroke-dasharray:3.0,5.0;" x1="365" x2="365" y1="48.6094" y2="362.25"/><line style="stroke:#333333;stroke-width:0.5;stroke-dasharray:3.0,5.0;" x1="415" x2="415" y1="48.6094" y2="362.25"/><line style="stroke:#333333;stroke-width:0.5;stroke-dasharray:3.0,5.0;" x1="465" x2="465" y1="48.6094" y2="362.25"/><line style="stroke:#333333;stroke-width:0.5;stroke-dasharray:3.0,5.0;" x1="515" x2="515" y1="48.6094" y2="362.25"/><line style="stroke:#333333;stroke-width:0.5;stroke-dasharray:3.0,5.0;" x1="565" x2="565" y1="48.6094" y2="362.25"/><line style="stroke:#333333;stroke-width:0.5;stroke-dasharray:3.0,5.0;" x1="615" x2="615" y1="48.6094" y2="362.25"/><line style="stroke:#333333;stroke-width:0.5;stroke-dasharray:3.0,5.0;" x1="665" x2="665" y1="48.6094" y2="362.25"/><line style="stroke:#333333;stroke-width:0.5;stroke-dasharray:3.0,5.0;" x1="715" x2="715" y1="48.6094" y2="362.25"/><line style="stroke:#333333;stroke-width:0.5;stroke-dasharray:3.0,5.0;" x1="765" x2="765" y1="48.6094" y2="362.25"/><line style="stroke:#333333;stroke-width:0.5;stroke-dasharray:3.0,5.0;" x1="815" x2="815" y1="48.6094" y2="362.25"/><line style="stroke:#333333;stroke-width:0.5;stroke-dasharray:3.0,5.0;" x1="865" x2="865" y1="48.6094" y2="362.25"/><line style="stroke:#333333;stroke-width:0.5;stroke-dasharray:3.0,5.0;" x1="915" x2="915" y1="48.6094" y2="362.25"/><line style="stroke:#333333;stroke-width:0.5;stroke-dasharray:3.0,5.0;" x1="965" x2="965" y1="48.6094" y2="362.25"/><line style="stroke:#333333;stroke-width:0.5;stroke-dasharray:3.0,5.0;" x1="1015" x2="1015" y1="48.6094" y2="362.25"/><line style="stroke:#333333;stroke-width:0.5;stroke-dasharray:3.0,5.0;" x1="1065" x2="1065" y1="48.6094" y2="362.25"/><line style="stroke:#333333;stroke-width:0.5;stroke-dasharray:3.0,5.0;" x1="1115" x2="1115" y1="48.6094" y2="362.25"/><line style="stroke:#333333;stroke-width:0.5;stroke-dasharray:3.0,5.0;" x1="1165" x2="1165" y1="48.6094" y2="362.25"/><line style="stroke:#333333;stroke-width:0.5;stroke-dasharray:3.0,5.0;" x1="1215" x2="1215" y1="48.6094" y2="362.25"/><line style="stroke:#333333;stroke-width:0.5;stroke-dasharray:3.0,5.0;" x1="1265" x2="1265" y1="48.6094" y2="362.25"/><line style="stroke:#333333;stroke-width:0.5;stroke-dasharray:3.0,5.0;" x1="1315" x2="1315" y1="48.6094" y2="362.25"/><line style="stroke:#333333;stroke-width:0.5;stroke-dasharray:3.0,5.0;" x1="1365" x2="1365" y1="48.6094" y2="362.25"/><line style="stroke:#333333;stroke-width:0.5;stroke-dasharray:3.0,5.0;" x1="1415" x2="1415" y1="48.6094" y2="362.25"/><line style="stroke:#333333;stroke-width:0.5;stroke-dasharray:3.0,5.0;" x1="1465" x2="1465" y1="48.6094" y2="362.25"/><line style="stroke:#333333;stroke-width:0.5;stroke-dasharray:3.0,5.0;" x1="1515" x2="1515" y1="48.6094" y2="362.25"/><line style="stroke:#333333;stroke-width:0.5;stroke-dasharray:3.0,5.0;" x1="1565" x2="1565" y1="48.6094" y2="362.25"/><line style="stroke:#333333;stroke-width:0.5;stroke-dasharray:3.0,5.0;" x1="1615" x2="1615" y1="48.6094" y2="362.25"/><line style="stroke:#333333;stroke-width:0.5;stroke-dasharray:3.0,5.0;" x1="1665" x2="1665" y1="48.6094" y2="362.25"/><line style="stroke:#333333;stroke-width:0.5;stroke-dasharray:3.0,5.0;" x1="1715" x2="1715" y1="48.6094" y2="362.25"/><line style="stroke:#333333;stroke-width:0.5;stroke-dasharray:3.0,5.0;" x1="1765" x2="1765" y1="48.6094" y2="362.25"/><line style="stroke:#333333;stroke-width:0.5;stroke-dasharray:3.0,5.0;" x1="1815" x2="1815" y1="48.6094" y2="362.25"/><line style="stroke:#333333;stroke-width:0.5;stroke-dasharray:3.0,5.0;" x1="1865" x2="1865" y1="48.6094" y2="362.25"/><line style="stroke:#333333;stroke-width:0.5;stroke-dasharray:3.0,5.0;" x1="1915" x2="1915" y1="48.6094" y2="362.25"/><line style="stroke:#333333;stroke-width:0.5;stroke-dasharray:3.0,5.0;" x1="1965" x2="1965" y1="48.6094" y2="362.25"/><line style="stroke:#333333;stroke-width:0.5;stroke-dasharray:3.0,5.0;" x1="2015" x2="2015" y1="48.6094" y2="362.25"/><line style="stroke:#333333;stroke-width:0.5;stroke-dasharray:3.0,5.0;" x1="2065" x2="2065" y1="48.6094" y2="362.25"/><line style="stroke:#333333;stroke-width:0.5;stroke-dasharray:3.0,5.0;" x1="2115" x2="2115" y1="48.6094" y2="362.25"/><line style="stroke:#333333;stroke-width:0.5;stroke-dasharray:3.0,5.0;" x1="2165" x2="2165" y1="48.6094" y2="362.25"/><line style="stroke:#333333;stroke-width:0.5;stroke-dasharray:3.0,5.0;" x1="2215" x2="2215" y1="48.6094" y2="362.25"/><line style="stroke:#333333;stroke-width:0.5;stroke-dasharray:3.0,5.0;" x1="2265" x2="2265" y1="48.6094" y2="362.25"/><line style="stroke:#333333;stroke-width:0.5;stroke-dasharray:3.0,5.0;" x1="2315" x2="2315" y1="48.6094" y2="362.25"/><line style="stroke:#333333;stroke-width:0.5;stroke-dasharray:3.0,5.0;" x1="2365" x2="2365" y1="48.6094" y2="362.25"/><line style="stroke:#333333;stroke-width:0.5;stroke-dasharray:3.0,5.0;" x1="2415" x2="2415" y1="48.6094" y2="362.25"/><line style="stroke:#333333;stroke-width:0.5;stroke-dasharray:3.0,5.0;" x1="2465" x2="2465" y1="48.6094" y2="362.25"/><line style="stroke:#333333;stroke-width:0.5;stroke-dasharray:3.0,5.0;" x1="2515" x2="2515" y1="48.6094" y2="362.25"/><line style="stroke:#333333;stroke-width:0.5;stroke-dasharray:3.0,5.0;" x1="2565" x2="2565" y1="48.6094" y2="362.25"/><line style="stroke:#333333;stroke-width:0.5;stroke-dasharray:3.0,5.0;" x1="2615" x2="2615" y1="48.6094" y2="362.25"/><line style="stroke:#333333;stroke-width:0.5;stroke-dasharray:3.0,5.0;" x1="2665" x2="2665" y1="48.6094" y2="362.25"/><line style="stroke:#333333;stroke-width:0.5;stroke-dasharray:3.0,5.0;" x1="2715" x2="2715" y1="48.6094" y2="362.25"/><line style="stroke:#333333;stroke-width:0.5;stroke-dasharray:3.0,5.0;" x1="2765" x2="2765" y1="48.6094" y2="362.25"/><line style="stroke:#333333;stroke-width:0.5;stroke-dasharray:3.0,5.0;" x1="2815" x2="2815" y1="48.6094" y2="362.25"/><line style="stroke:#333333;stroke-width:0.5;stroke-dasharray:3.0,5.0;" x1="2865" x2="2865" y1="48.6094" y2="362.25"/><line style="stroke:#333333;stroke-width:0.5;stroke-dasharray:3.0,5.0;" x1="2915" x2="2915" y1="48.6094" y2="362.25"/><line style="stroke:#333333;stroke-width:0.5;stroke-dasharray:3.0,5.0;" x1="2965" x2="2965" y1="48.6094" y2="362.25"/><line style="stroke:#333333;stroke-width:0.5;stroke-dasharray:3.0,5.0;" x1="3015" x2="3015" y1="48.6094" y2="362.25"/><line style="stroke:#333333;stroke-width:0.5;stroke-dasharray:3.0,5.0;" x1="3065" x2="3065" y1="48.6094" y2="362.25"/><line style="stroke:#333333;stroke-width:0.5;stroke-dasharray:3.0,5.0;" x1="3115" x2="3115" y1="48.6094" y2="362.25"/><line style="stroke:#333333;stroke-width:0.5;stroke-dasharray:3.0,5.0;" x1="3165" x2="3165" y1="48.6094" y2="362.25"/><line style="stroke:#333333;stroke-width:0.5;stroke-dasharray:3.0,5.0;" x1="3215" x2="3215" y1="48.6094" y2="362.25"/><line style="stroke:#333333;stroke-width:0.5;stroke-dasharray:3.0,5.0;" x1="3265" x2="3265" y1="48.6094" y2="362.25"/><line style="stroke:#333333;stroke-width:0.5;stroke-dasharray:3.0,5.0;" x1="3315" x2="3315" y1="48.6094" y2="362.25"/><line style="stroke:#333333;stroke-width:0.5;stroke-dasharray:3.0,5.0;" x1="3365" x2="3365" y1="48.6094" y2="362.25"/><line style="stroke:#333333;stroke-width:0.5;stroke-dasharray:3.0,5.0;" x1="3415" x2="3415" y1="48.6094" y2="362.25"/><line style="stroke:#333333;stroke-width:0.5;stroke-dasharray:3.0,5.0;" x1="3465" x2="3465" y1="48.6094" y2="362.25"/><line style="stroke:#333333;stroke-width:0.5;stroke-dasharray:3.0,5.0;" x1="3515" x2="3515" y1="48.6094" y2="362.25"/><line style="stroke:#333333;stroke-width:0.5;stroke-dasharray:3.0,5.0;" x1="3565" x2="3565" y1="48.6094" y2="362.25"/><line style="stroke:#333333;stroke-width:0.5;stroke-dasharray:3.0,5.0;" x1="3615" x2="3615" y1="48.6094" y2="362.25"/><line style="stroke:#333333;stroke-width:0.5;stroke-dasharray:3.0,5.0;" x1="3665" x2="3665" y1="48.6094" y2="362.25"/><line style="stroke:#333333;stroke-width:0.5;stroke-dasharray:3.0,5.0;" x1="3715" x2="3715" y1="48.6094" y2="362.25"/><line style="stroke:#333333;stroke-width:0.5;stroke-dasharray:3.0,5.0;" x1="3765" x2="3765" y1="48.6094" y2="362.25"/><line style="stroke:#333333;stroke-width:0.5;stroke-dasharray:3.0,5.0;" x1="3815" x2="3815" y1="48.6094" y2="362.25"/><line style="stroke:#333333;stroke-width:0.5;stroke-dasharray:3.0,5.0;" x1="3865" x2="3865" y1="48.6094" y2="362.25"/><line style="stroke:#333333;stroke-width:0.5;stroke-dasharray:3.0,5.0;" x1="3915" x2="3915" y1="48.6094" y2="362.25"/><line style="stroke:#333333;stroke-width:0.5;stroke-dasharray:3.0,5.0;" x1="3965" x2="3965" y1="48.6094" y2="362.25"/><line style="stroke:#333333;stroke-width:0.5;stroke-dasharray:3.0,5.0;" x1="4015" x2="4015" y1="48.6094" y2="362.25"/><line style="stroke:#333333;stroke-width:0.5;stroke-dasharray:3.0,5.0;" x1="4065" x2="4065" y1="48.6094" y2="362.25"/><line style="stroke:#333333;stroke-width:0.5;stroke-dasharray:3.0,5.0;" x1="4115" x2="4115" y1="48.6094" y2="362.25"/><line style="stroke:#333333;stroke-width:0.5;stroke-dasharray:3.0,5.0;" x1="4165" x2="4165" y1="48.6094" y2="362.25"/><line style="stroke:#333333;stroke-width:0.5;stroke-dasharray:3.0,5.0;" x1="4215" x2="4215" y1="48.6094" y2="362.25"/><line style="stroke:#333333;stroke-width:0.5;stroke-dasharray:3.0,5.0;" x1="4265" x2="4265" y1="48.6094" y2="362.25"/><line style="stroke:#333333;stroke-width:0.5;stroke-dasharray:3.0,5.0;" x1="4315" x2="4315" y1="48.6094" y2="362.25"/><line style="stroke:#333333;stroke-width:0.5;stroke-dasharray:3.0,5.0;" x1="4365" x2="4365" y1="48.6094" y2="362.25"/><line style="stroke:#333333;stroke-width:0.5;stroke-dasharray:3.0,5.0;" x1="4415" x2="4415" y1="48.6094" y2="362.25"/><line style="stroke:#333333;stroke-width:0.5;stroke-dasharray:3.0,5.0;" x1="4465" x2="4465" y1="48.6094" y2="362.25"/><line style="stroke:#333333;stroke-width:0.5;stroke-dasharray:3.0,5.0;" x1="4515" x2="4515" y1="48.6094" y2="362.25"/><line style="stroke:#333333;stroke-width:0.5;stroke-dasharray:3.0,5.0;" x1="4565" x2="4565" y1="48.6094" y2="362.25"/><line style="stroke:#333333;stroke-width:0.5;stroke-dasharray:3.0,5.0;" x1="4615" x2="4615" y1="48.6094" y2="362.25"/><line style="stroke:#333333;stroke-width:0.5;stroke-dasharray:3.0,5.0;" x1="4665" x2="4665" y1="48.6094" y2="362.25"/><line style="stroke:#333333;stroke-width:0.5;stroke-dasharray:3.0,5.0;" x1="4715" x2="4715" y1="48.6094" y2="362.25"/><line style="stroke:#333333;stroke-width:0.5;stroke-dasharray:3.0,5.0;" x1="4765" x2="4765" y1="48.6094" y2="362.25"/><line style="stroke:#333333;stroke-width:0.5;stroke-dasharray:3.0,5.0;" x1="4815" x2="4815" y1="48.6094" y2="362.25"/><line style="stroke:#333333;stroke-width:0.5;stroke-dasharray:3.0,5.0;" x1="4865" x2="4865" y1="48.6094" y2="362.25"/><line style="stroke:#333333;stroke-width:0.5;stroke-dasharray:3.0,5.0;" x1="4915" x2="4915" y1="48.6094" y2="362.25"/><line style="stroke:#333333;stroke-width:0.5;stroke-dasharray:3.0,5.0;" x1="4965" x2="4965" y1="48.6094" y2="362.25"/><line style="stroke:#333333;stroke-width:0.5;stroke-dasharray:3.0,5.0;" x1="5015" x2="5015" y1="48.6094" y2="362.25"/><line style="stroke:#333333;stroke-width:0.5;stroke-dasharray:3.0,5.0;" x1="5065" x2="5065" y1="48.6094" y2="362.25"/><line style="stroke:#333333;stroke-width:0.5;stroke-dasharray:3.0,5.0;" x1="5115" x2="5115" y1="48.6094" y2="362.25"/><line style="stroke:#333333;stroke-width:0.5;stroke-dasharray:3.0,5.0;" x1="5165" x2="5165" y1="48.6094" y2="362.25"/><line style="stroke:#333333;stroke-width:0.5;stroke-dasharray:3.0,5.0;" x1="5215" x2="5215" y1="48.6094" y2="362.25"/><line style="stroke:#333333;stroke-width:0.5;stroke-dasharray:3.0,5.0;" x1="5265" x2="5265" y1="48.6094" y2="362.25"/><line style="stroke:#333333;stroke-width:0.5;stroke-dasharray:3.0,5.0;" x1="5315" x2="5315" y1="48.6094" y2="362.25"/><line style="stroke:#333333;stroke-width:0.5;stroke-dasharray:3.0,5.0;" x1="5365" x2="5365" y1="48.6094" y2="362.25"/><line style="stroke:#333333;stroke-width:0.5;stroke-dasharray:3.0,5.0;" x1="5415" x2="5415" y1="48.6094" y2="362.25"/><line style="stroke:#333333;stroke-width:0.5;stroke-dasharray:3.0,5.0;" x1="5465" x2="5465" y1="48.6094" y2="362.25"/><line style="stroke:#333333;stroke-width:0.5;stroke-dasharray:3.0,5.0;" x1="5515" x2="5515" y1="48.6094" y2="362.25"/><line style="stroke:#333333;stroke-width:0.5;stroke-dasharray:3.0,5.0;" x1="5565" x2="5565" y1="48.6094" y2="362.25"/><line style="stroke:#333333;stroke-width:0.5;stroke-dasharray:3.0,5.0;" x1="5615" x2="5615" y1="48.6094" y2="362.25"/><line style="stroke:#333333;stroke-width:0.5;stroke-dasharray:3.0,5.0;" x1="5665" x2="5665" y1="48.6094" y2="362.25"/><line style="stroke:#333333;stroke-width:0.5;stroke-dasharray:3.0,5.0;" x1="5715" x2="5715" y1="48.6094" y2="362.25"/><line style="stroke:#333333;stroke-width:0.5;stroke-dasharray:3.0,5.0;" x1="5765" x2="5765" y1="48.6094" y2="362.25"/><line style="stroke:#333333;stroke-width:0.5;stroke-dasharray:3.0,5.0;" x1="5815" x2="5815" y1="48.6094" y2="362.25"/><line style="stroke:#333333;stroke-width:0.5;stroke-dasharray:3.0,5.0;" x1="5865" x2="5865" y1="48.6094" y2="362.25"/><line style="stroke:#333333;stroke-width:0.5;stroke-dasharray:3.0,5.0;" x1="5915" x2="5915" y1="48.6094" y2="362.25"/><line style="stroke:#333333;stroke-width:0.5;stroke-dasharray:3.0,5.0;" x1="5965" x2="5965" y1="48.6094" y2="362.25"/><line style="stroke:#333333;stroke-width:0.5;stroke-dasharray:3.0,5.0;" x1="6015" x2="6015" y1="48.6094" y2="362.25"/><line style="stroke:#333333;stroke-width:0.5;stroke-dasharray:3.0,5.0;" x1="6065" x2="6065" y1="48.6094" y2="362.25"/><line style="stroke:#333333;stroke-width:0.5;stroke-dasharray:3.0,5.0;" x1="6115" x2="6115" y1="48.6094" y2="362.25"/><line style="stroke:#333333;stroke-width:0.5;stroke-dasharray:3.0,5.0;" x1="6165" x2="6165" y1="48.6094" y2="362.25"/><line style="stroke:#333333;stroke-width:0.5;stroke-dasharray:3.0,5.0;" x1="6215" x2="6215" y1="48.6094" y2="362.25"/><line style="stroke:#333333;stroke-width:0.5;stroke-dasharray:3.0,5.0;" x1="6265" x2="6265" y1="48.6094" y2="362.25"/><line style="stroke:#333333;stroke-width:0.5;stroke-dasharray:3.0,5.0;" x1="6315" x2="6315" y1="48.6094" y2="362.25"/><line style="stroke:#333333;stroke-width:0.5;stroke-dasharray:3.0,5.0;" x1="6365" x2="6365" y1="48.6094" y2="362.25"/><line style="stroke:#333333;stroke-width:0.5;stroke-dasharray:3.0,5.0;" x1="6415" x2="6415" y1="48.6094" y2="362.25"/><line style="stroke:#333333;stroke-width:0.5;stroke-dasharray:3.0,5.0;" x1="6465" x2="6465" y1="48.6094" y2="362.25"/><line style="stroke:#333333;stroke-width:0.5;stroke-dasharray:3.0,5.0;" x1="6515" x2="6515" y1="48.6094" y2="362.25"/><line style="stroke:#333333;stroke-width:0.5;stroke-dasharray:3.0,5.0;" x1="6565" x2="6565" y1="48.6094" y2="362.25"/><line style="stroke:#333333;stroke-width:0.5;stroke-dasharray:3.0,5.0;" x1="6615" x2="6615" y1="48.6094" y2="362.25"/><line style="stroke:#333333;stroke-width:0.5;stroke-dasharray:3.0,5.0;" x1="6665" x2="6665" y1="48.6094" y2="362.25"/><line style="stroke:#333333;stroke-width:0.5;stroke-dasharray:3.0,5.0;" x1="6715" x2="6715" y1="48.6094" y2="362.25"/><line style="stroke:#333333;stroke-width:0.5;stroke-dasharray:3.0,5.0;" x1="6765" x2="6765" y1="48.6094" y2="362.25"/><line style="stroke:#333333;stroke-width:0.5;stroke-dasharray:3.0,5.0;" x1="6815" x2="6815" y1="48.6094" y2="362.25"/><line style="stroke:#333333;stroke-width:0.5;stroke-dasharray:3.0,5.0;" x1="6865" x2="6865" y1="48.6094" y2="362.25"/><line style="stroke:#333333;stroke-width:0.5;stroke-dasharray:3.0,5.0;" x1="6915" x2="6915" y1="48.6094" y2="362.25"/><line style="stroke:#333333;stroke-width:0.5;stroke-dasharray:3.0,5.0;" x1="6965" x2="6965" y1="48.6094" y2="362.25"/><line style="stroke:#333333;stroke-width:0.5;" x1="10" x2="6970" y1="48.6094" y2="48.6094"/><text fill="#333333" font-family="sans-serif" font-size="14" font-weight="bold" lengthAdjust="spacing" textLength="164.8965" x="15" y="63.1426">ACTUEL (CERFA Papier)</text><line style="stroke:#333333;stroke-width:0.5;" x1="10" x2="180.8965" y1="67.2188" y2="67.2188"/><line style="stroke:#333333;stroke-width:0.5;" x1="180.8965" x2="190.8965" y1="67.2188" y2="48.6094"/><polygon fill="#E2E2F0" points="27,107.4063,53,107.4063,65,119.4063,53,131.4063,27,131.4063,15,119.4063" style="stroke:#006400;stroke-width:1.5;"/><polygon fill="#E2E2F0" points="77,107.4063,1053,107.4063,1065,119.4063,1053,131.4063,77,131.4063,65,119.4063" style="stroke:#006400;stroke-width:1.5;"/><polygon fill="#E2E2F0" points="1077,107.4063,1303,107.4063,1315,119.4063,1303,131.4063,1077,131.4063,1065,119.4063" style="stroke:#006400;stroke-width:1.5;"/><polygon fill="#E2E2F0" points="1327,107.4063,5803,107.4063,5815,119.4063,5803,131.4063,1327,131.4063,1315,119.4063" style="stroke:#006400;stroke-width:1.5;"/><polygon fill="#E2E2F0" points="5827,107.4063,6403,107.4063,6415,119.4063,6403,131.4063,5827,131.4063,5815,119.4063" style="stroke:#006400;stroke-width:1.5;"/><polygon fill="#E2E2F0" points="6427,107.4063,6653,107.4063,6665,119.4063,6653,131.4063,6427,131.4063,6415,119.4063" style="stroke:#006400;stroke-width:1.5;"/><polygon fill="#E2E2F0" points="6677,107.4063,6753,107.4063,6765,119.4063,6753,131.4063,6677,131.4063,6665,119.4063" style="stroke:#006400;stroke-width:1.5;"/><polygon fill="#E2E2F0" points="6777,107.4063,6965,107.4063,6965,131.4063,6777,131.4063,6765,119.4063" style="stroke:#E2E2F0;stroke-width:1.5;"/><path d="M6965,107.4063 L6777,107.4063 L6765,119.4063 L6777,131.4063 L6965,131.4063 " fill="#E2E2F0" style="stroke:#006400;stroke-width:1.5;"/><text fill="#333333" font-family="sans-serif" font-size="12" font-weight="bold" lengthAdjust="spacing" textLength="66.6855" x="6.6572" y="124.3164">Preparation</text><text fill="#333333" font-family="sans-serif" font-size="12" font-weight="bold" lengthAdjust="spacing" textLength="74.6953" x="527.6523" y="124.3164">Deplacement</text><text fill="#333333" font-family="sans-serif" font-size="12" font-weight="bold" lengthAdjust="spacing" textLength="84.6621" x="1147.6689" y="124.3164">AppelClothilde</text><text fill="#333333" font-family="sans-serif" font-size="12" font-weight="bold" lengthAdjust="spacing" textLength="68.6719" x="3530.6641" y="124.3164">Intervention</text><text fill="#333333" font-family="sans-serif" font-size="12" font-weight="bold" lengthAdjust="spacing" textLength="78.0176" x="6075.9912" y="124.3164">CERFAPapier</text><text fill="#333333" font-family="sans-serif" font-size="12" font-weight="bold" lengthAdjust="spacing" textLength="58.002" x="6510.999" y="124.3164">PhotosTel</text><text fill="#333333" font-family="sans-serif" font-size="12" font-weight="bold" lengthAdjust="spacing" textLength="92.0273" x="6668.9863" y="124.3164">SignaturePapier</text><text fill="#333333" font-family="sans-serif" font-size="12" font-weight="bold" lengthAdjust="spacing" textLength="86.666" x="6777" y="124.3164">FinIntervention</text><line style="stroke:#8B0000;stroke-width:1.5;" x1="16" x2="64" y1="97.3594" y2="97.3594"/><polygon fill="#8B0000" points="24,101.3594,24,93.3594,16,97.3594" style="stroke:#8B0000;stroke-width:1;"/><polygon fill="#8B0000" points="56,101.3594,56,93.3594,64,97.3594" style="stroke:#8B0000;stroke-width:1;"/><text fill="#8B0000" font-family="sans-serif" font-size="12" lengthAdjust="spacing" textLength="32.6836" x="23.6582" y="89.7227">30min</text><line style="stroke:#8B0000;stroke-width:1.5;" x1="66" x2="1064" y1="97.3594" y2="97.3594"/><polygon fill="#8B0000" points="74,101.3594,74,93.3594,66,97.3594" style="stroke:#8B0000;stroke-width:1;"/><polygon fill="#8B0000" points="1056,101.3594,1056,93.3594,1064,97.3594" style="stroke:#8B0000;stroke-width:1;"/><text fill="#8B0000" font-family="sans-serif" font-size="12" lengthAdjust="spacing" textLength="32.6836" x="548.6582" y="89.7227">20min</text><line style="stroke:#8B0000;stroke-width:1.5;" x1="1066" x2="1314" y1="97.3594" y2="97.3594"/><polygon fill="#8B0000" points="1074,101.3594,1074,93.3594,1066,97.3594" style="stroke:#8B0000;stroke-width:1;"/><polygon fill="#8B0000" points="1306,101.3594,1306,93.3594,1314,97.3594" style="stroke:#8B0000;stroke-width:1;"/><text fill="#8B0000" font-family="sans-serif" font-size="12" lengthAdjust="spacing" textLength="26.0098" x="1176.9951" y="89.7227">5min</text><line style="stroke:#8B0000;stroke-width:1.5;" x1="1316" x2="5814" y1="97.3594" y2="97.3594"/><polygon fill="#8B0000" points="1324,101.3594,1324,93.3594,1316,97.3594" style="stroke:#8B0000;stroke-width:1;"/><polygon fill="#8B0000" points="5806,101.3594,5806,93.3594,5814,97.3594" style="stroke:#8B0000;stroke-width:1;"/><text fill="#8B0000" font-family="sans-serif" font-size="12" lengthAdjust="spacing" textLength="26.6953" x="3551.6523" y="89.7227">1h30</text><line style="stroke:#8B0000;stroke-width:1.5;" x1="5816" x2="6414" y1="97.3594" y2="97.3594"/><polygon fill="#8B0000" points="5824,101.3594,5824,93.3594,5816,97.3594" style="stroke:#8B0000;stroke-width:1;"/><polygon fill="#8B0000" points="6406,101.3594,6406,93.3594,6414,97.3594" style="stroke:#8B0000;stroke-width:1;"/><text fill="#8B0000" font-family="sans-serif" font-size="12" lengthAdjust="spacing" textLength="32.6836" x="6098.6582" y="89.7227">12min</text><line style="stroke:#8B0000;stroke-width:1.5;" x1="6416" x2="6664" y1="97.3594" y2="97.3594"/><polygon fill="#8B0000" points="6424,101.3594,6424,93.3594,6416,97.3594" style="stroke:#8B0000;stroke-width:1;"/><polygon fill="#8B0000" points="6656,101.3594,6656,93.3594,6664,97.3594" style="stroke:#8B0000;stroke-width:1;"/><text fill="#8B0000" font-family="sans-serif" font-size="12" lengthAdjust="spacing" textLength="26.0098" x="6526.9951" y="89.7227">5min</text><line style="stroke:#8B0000;stroke-width:1.5;" x1="6666" x2="6764" y1="97.3594" y2="97.3594"/><polygon fill="#8B0000" points="6674,101.3594,6674,93.3594,6666,97.3594" style="stroke:#8B0000;stroke-width:1;"/><polygon fill="#8B0000" points="6756,101.3594,6756,93.3594,6764,97.3594" style="stroke:#8B0000;stroke-width:1;"/><text fill="#8B0000" font-family="sans-serif" font-size="12" lengthAdjust="spacing" textLength="26.0098" x="6701.9951" y="89.7227">2min</text><path d="M6915,136.4063 L6915,179.1094 L7110.8018,179.1094 L7110.8018,146.4063 L7100.8018,136.4063 L6915,136.4063 " fill="#FEFFDD" style="stroke:#333333;stroke-width:0.5;"/><path d="M7100.8018,136.4063 L7100.8018,146.4063 L7110.8018,146.4063 L7100.8018,136.4063 " fill="#FEFFDD" style="stroke:#333333;stroke-width:0.5;"/><text fill="#333333" font-family="sans-serif" font-size="13" font-weight="bold" lengthAdjust="spacing" textLength="154.5845" x="6921" y="154.9014">ACTUEL : 2h44 (164 min)</text><text fill="#333333" font-family="sans-serif" font-size="13" font-weight="bold" lengthAdjust="spacing" textLength="174.8018" x="6921" y="171.2529">Admin : 1h14 (74 min) perdu</text><line style="stroke:#333333;stroke-width:0.5;" x1="10" x2="6970" y1="194.1094" y2="194.1094"/><text fill="#333333" font-family="sans-serif" font-size="14" font-weight="bold" lengthAdjust="spacing" textLength="130.6484" x="15" y="208.6426">CIBLE (App Mobile)</text><line style="stroke:#333333;stroke-width:0.5;" x1="10" x2="146.6484" y1="212.7188" y2="212.7188"/><line style="stroke:#333333;stroke-width:0.5;" x1="146.6484" x2="156.6484" y1="212.7188" y2="194.1094"/><polygon fill="#E2E2F0" points="27,237.8125,53,237.8125,65,249.8125,53,261.8125,27,261.8125,15,249.8125" style="stroke:#006400;stroke-width:1.5;"/><polygon fill="#E2E2F0" points="77,237.8125,1053,237.8125,1065,249.8125,1053,261.8125,77,261.8125,65,249.8125" style="stroke:#006400;stroke-width:1.5;"/><polygon fill="#E2E2F0" points="1077,237.8125,5803,237.8125,5815,249.8125,5803,261.8125,1077,261.8125,1065,249.8125" style="stroke:#006400;stroke-width:1.5;"/><polygon fill="#E2E2F0" points="5827,237.8125,6403,237.8125,6415,249.8125,6403,261.8125,5827,261.8125,5815,249.8125" style="stroke:#006400;stroke-width:1.5;"/><polygon fill="#E2E2F0" points="6427,237.8125,6753,237.8125,6765,249.8125,6753,261.8125,6427,261.8125,6415,249.8125" style="stroke:#006400;stroke-width:1.5;"/><polygon fill="#E2E2F0" points="6777,237.8125,6903,237.8125,6915,249.8125,6903,261.8125,6777,261.8125,6765,249.8125" style="stroke:#006400;stroke-width:1.5;"/><polygon fill="#E2E2F0" points="6927,237.8125,6965,237.8125,6965,261.8125,6927,261.8125,6915,249.8125" style="stroke:#E2E2F0;stroke-width:1.5;"/><path d="M6965,237.8125 L6927,237.8125 L6915,249.8125 L6927,261.8125 L6965,261.8125 " fill="#E2E2F0" style="stroke:#006400;stroke-width:1.5;"/><text fill="#333333" font-family="sans-serif" font-size="12" font-weight="bold" lengthAdjust="spacing" textLength="66.6855" x="6.6572" y="254.7227">Preparation</text><text fill="#333333" font-family="sans-serif" font-size="12" font-weight="bold" lengthAdjust="spacing" textLength="74.6953" x="527.6523" y="254.7227">Deplacement</text><text fill="#333333" font-family="sans-serif" font-size="12" font-weight="bold" lengthAdjust="spacing" textLength="113.9883" x="3383.0059" y="254.7227">InterventionInfoApp</text><text fill="#333333" font-family="sans-serif" font-size="12" font-weight="bold" lengthAdjust="spacing" textLength="122.0273" x="6053.9863" y="254.7227">InterventionTerminee</text><text fill="#333333" font-family="sans-serif" font-size="12" font-weight="bold" lengthAdjust="spacing" textLength="82.6641" x="6548.668" y="254.7227">RapportDigital</text><text fill="#333333" font-family="sans-serif" font-size="12" font-weight="bold" lengthAdjust="spacing" textLength="65.3496" x="6807.3252" y="254.7227">EmailClient</text><text fill="#333333" font-family="sans-serif" font-size="12" font-weight="bold" lengthAdjust="spacing" textLength="86.666" x="6927" y="254.7227">FinIntervention</text><line style="stroke:#8B0000;stroke-width:1.5;" x1="16" x2="64" y1="227.7656" y2="227.7656"/><polygon fill="#8B0000" points="24,231.7656,24,223.7656,16,227.7656" style="stroke:#8B0000;stroke-width:1;"/><polygon fill="#8B0000" points="56,231.7656,56,223.7656,64,227.7656" style="stroke:#8B0000;stroke-width:1;"/><text fill="#8B0000" font-family="sans-serif" font-size="12" lengthAdjust="spacing" textLength="32.6836" x="23.6582" y="220.1289">30min</text><line style="stroke:#8B0000;stroke-width:1.5;" x1="66" x2="1064" y1="227.7656" y2="227.7656"/><polygon fill="#8B0000" points="74,231.7656,74,223.7656,66,227.7656" style="stroke:#8B0000;stroke-width:1;"/><polygon fill="#8B0000" points="1056,231.7656,1056,223.7656,1064,227.7656" style="stroke:#8B0000;stroke-width:1;"/><text fill="#8B0000" font-family="sans-serif" font-size="12" lengthAdjust="spacing" textLength="32.6836" x="548.6582" y="220.1289">20min</text><line style="stroke:#8B0000;stroke-width:1.5;" x1="1066" x2="5814" y1="227.7656" y2="227.7656"/><polygon fill="#8B0000" points="1074,231.7656,1074,223.7656,1066,227.7656" style="stroke:#8B0000;stroke-width:1;"/><polygon fill="#8B0000" points="5806,231.7656,5806,223.7656,5814,227.7656" style="stroke:#8B0000;stroke-width:1;"/><text fill="#8B0000" font-family="sans-serif" font-size="12" lengthAdjust="spacing" textLength="26.6953" x="3426.6523" y="220.1289">1h35</text><line style="stroke:#8B0000;stroke-width:1.5;" x1="5816" x2="6914" y1="227.7656" y2="227.7656"/><polygon fill="#8B0000" points="5824,231.7656,5824,223.7656,5816,227.7656" style="stroke:#8B0000;stroke-width:1;"/><polygon fill="#8B0000" points="6906,231.7656,6906,223.7656,6914,227.7656" style="stroke:#8B0000;stroke-width:1;"/><text fill="#8B0000" font-family="sans-serif" font-size="12" lengthAdjust="spacing" textLength="26.0098" x="6351.9951" y="220.1289">3min</text><path d="M6915,266.8125 L6915,347.25 L7135.8745,347.25 L7135.8745,276.8125 L7125.8745,266.8125 L6915,266.8125 " fill="#FEFFDD" style="stroke:#333333;stroke-width:0.5;"/><path d="M7125.8745,266.8125 L7125.8745,276.8125 L7135.8745,276.8125 L7125.8745,266.8125 " fill="#FEFFDD" style="stroke:#333333;stroke-width:0.5;"/><text fill="#333333" font-family="sans-serif" font-size="13" font-weight="bold" lengthAdjust="spacing" textLength="140.8672" x="6921" y="285.3076">CIBLE : 2h17 (137 min)</text><text fill="#333333" font-family="sans-serif" font-size="13" font-weight="bold" lengthAdjust="spacing" textLength="135.0781" x="6921" y="301.6592">Admin : 0h42 (42 min)</text><text fill="#333333" font-family="sans-serif" font-size="13" font-weight="bold" lengthAdjust="spacing" textLength="163.2427" x="6921" y="318.0107">GAIN : 27 min/intervention</text><text fill="#333333" font-family="sans-serif" font-size="17" font-weight="bold" lengthAdjust="spacing" textLength="199.8745" x="6921" y="338.5146">1,980h/an = 99,000 euros</text><line style="stroke:#333333;stroke-width:2;" x1="15" x2="15" y1="362.25" y2="367.25"/><line style="stroke:#333333;stroke-width:2;" x1="65" x2="65" y1="362.25" y2="367.25"/><line style="stroke:#333333;stroke-width:2;" x1="115" x2="115" y1="362.25" y2="367.25"/><line style="stroke:#333333;stroke-width:2;" x1="165" x2="165" y1="362.25" y2="367.25"/><line style="stroke:#333333;stroke-width:2;" x1="215" x2="215" y1="362.25" y2="367.25"/><line style="stroke:#333333;stroke-width:2;" x1="265" x2="265" y1="362.25" y2="367.25"/><line style="stroke:#333333;stroke-width:2;" x1="315" x2="315" y1="362.25" y2="367.25"/><line style="stroke:#333333;stroke-width:2;" x1="365" x2="365" y1="362.25" y2="367.25"/><line style="stroke:#333333;stroke-width:2;" x1="415" x2="415" y1="362.25" y2="367.25"/><line style="stroke:#333333;stroke-width:2;" x1="465" x2="465" y1="362.25" y2="367.25"/><line style="stroke:#333333;stroke-width:2;" x1="515" x2="515" y1="362.25" y2="367.25"/><line style="stroke:#333333;stroke-width:2;" x1="565" x2="565" y1="362.25" y2="367.25"/><line style="stroke:#333333;stroke-width:2;" x1="615" x2="615" y1="362.25" y2="367.25"/><line style="stroke:#333333;stroke-width:2;" x1="665" x2="665" y1="362.25" y2="367.25"/><line style="stroke:#333333;stroke-width:2;" x1="715" x2="715" y1="362.25" y2="367.25"/><line style="stroke:#333333;stroke-width:2;" x1="765" x2="765" y1="362.25" y2="367.25"/><line style="stroke:#333333;stroke-width:2;" x1="815" x2="815" y1="362.25" y2="367.25"/><line style="stroke:#333333;stroke-width:2;" x1="865" x2="865" y1="362.25" y2="367.25"/><line style="stroke:#333333;stroke-width:2;" x1="915" x2="915" y1="362.25" y2="367.25"/><line style="stroke:#333333;stroke-width:2;" x1="965" x2="965" y1="362.25" y2="367.25"/><line style="stroke:#333333;stroke-width:2;" x1="1015" x2="1015" y1="362.25" y2="367.25"/><line style="stroke:#333333;stroke-width:2;" x1="1065" x2="1065" y1="362.25" y2="367.25"/><line style="stroke:#333333;stroke-width:2;" x1="1115" x2="1115" y1="362.25" y2="367.25"/><line style="stroke:#333333;stroke-width:2;" x1="1165" x2="1165" y1="362.25" y2="367.25"/><line style="stroke:#333333;stroke-width:2;" x1="1215" x2="1215" y1="362.25" y2="367.25"/><line style="stroke:#333333;stroke-width:2;" x1="1265" x2="1265" y1="362.25" y2="367.25"/><line style="stroke:#333333;stroke-width:2;" x1="1315" x2="1315" y1="362.25" y2="367.25"/><line style="stroke:#333333;stroke-width:2;" x1="1365" x2="1365" y1="362.25" y2="367.25"/><line style="stroke:#333333;stroke-width:2;" x1="1415" x2="1415" y1="362.25" y2="367.25"/><line style="stroke:#333333;stroke-width:2;" x1="1465" x2="1465" y1="362.25" y2="367.25"/><line style="stroke:#333333;stroke-width:2;" x1="1515" x2="1515" y1="362.25" y2="367.25"/><line style="stroke:#333333;stroke-width:2;" x1="1565" x2="1565" y1="362.25" y2="367.25"/><line style="stroke:#333333;stroke-width:2;" x1="1615" x2="1615" y1="362.25" y2="367.25"/><line style="stroke:#333333;stroke-width:2;" x1="1665" x2="1665" y1="362.25" y2="367.25"/><line style="stroke:#333333;stroke-width:2;" x1="1715" x2="1715" y1="362.25" y2="367.25"/><line style="stroke:#333333;stroke-width:2;" x1="1765" x2="1765" y1="362.25" y2="367.25"/><line style="stroke:#333333;stroke-width:2;" x1="1815" x2="1815" y1="362.25" y2="367.25"/><line style="stroke:#333333;stroke-width:2;" x1="1865" x2="1865" y1="362.25" y2="367.25"/><line style="stroke:#333333;stroke-width:2;" x1="1915" x2="1915" y1="362.25" y2="367.25"/><line style="stroke:#333333;stroke-width:2;" x1="1965" x2="1965" y1="362.25" y2="367.25"/><line style="stroke:#333333;stroke-width:2;" x1="2015" x2="2015" y1="362.25" y2="367.25"/><line style="stroke:#333333;stroke-width:2;" x1="2065" x2="2065" y1="362.25" y2="367.25"/><line style="stroke:#333333;stroke-width:2;" x1="2115" x2="2115" y1="362.25" y2="367.25"/><line style="stroke:#333333;stroke-width:2;" x1="2165" x2="2165" y1="362.25" y2="367.25"/><line style="stroke:#333333;stroke-width:2;" x1="2215" x2="2215" y1="362.25" y2="367.25"/><line style="stroke:#333333;stroke-width:2;" x1="2265" x2="2265" y1="362.25" y2="367.25"/><line style="stroke:#333333;stroke-width:2;" x1="2315" x2="2315" y1="362.25" y2="367.25"/><line style="stroke:#333333;stroke-width:2;" x1="2365" x2="2365" y1="362.25" y2="367.25"/><line style="stroke:#333333;stroke-width:2;" x1="2415" x2="2415" y1="362.25" y2="367.25"/><line style="stroke:#333333;stroke-width:2;" x1="2465" x2="2465" y1="362.25" y2="367.25"/><line style="stroke:#333333;stroke-width:2;" x1="2515" x2="2515" y1="362.25" y2="367.25"/><line style="stroke:#333333;stroke-width:2;" x1="2565" x2="2565" y1="362.25" y2="367.25"/><line style="stroke:#333333;stroke-width:2;" x1="2615" x2="2615" y1="362.25" y2="367.25"/><line style="stroke:#333333;stroke-width:2;" x1="2665" x2="2665" y1="362.25" y2="367.25"/><line style="stroke:#333333;stroke-width:2;" x1="2715" x2="2715" y1="362.25" y2="367.25"/><line style="stroke:#333333;stroke-width:2;" x1="2765" x2="2765" y1="362.25" y2="367.25"/><line style="stroke:#333333;stroke-width:2;" x1="2815" x2="2815" y1="362.25" y2="367.25"/><line style="stroke:#333333;stroke-width:2;" x1="2865" x2="2865" y1="362.25" y2="367.25"/><line style="stroke:#333333;stroke-width:2;" x1="2915" x2="2915" y1="362.25" y2="367.25"/><line style="stroke:#333333;stroke-width:2;" x1="2965" x2="2965" y1="362.25" y2="367.25"/><line style="stroke:#333333;stroke-width:2;" x1="3015" x2="3015" y1="362.25" y2="367.25"/><line style="stroke:#333333;stroke-width:2;" x1="3065" x2="3065" y1="362.25" y2="367.25"/><line style="stroke:#333333;stroke-width:2;" x1="3115" x2="3115" y1="362.25" y2="367.25"/><line style="stroke:#333333;stroke-width:2;" x1="3165" x2="3165" y1="362.25" y2="367.25"/><line style="stroke:#333333;stroke-width:2;" x1="3215" x2="3215" y1="362.25" y2="367.25"/><line style="stroke:#333333;stroke-width:2;" x1="3265" x2="3265" y1="362.25" y2="367.25"/><line style="stroke:#333333;stroke-width:2;" x1="3315" x2="3315" y1="362.25" y2="367.25"/><line style="stroke:#333333;stroke-width:2;" x1="3365" x2="3365" y1="362.25" y2="367.25"/><line style="stroke:#333333;stroke-width:2;" x1="3415" x2="3415" y1="362.25" y2="367.25"/><line style="stroke:#333333;stroke-width:2;" x1="3465" x2="3465" y1="362.25" y2="367.25"/><line style="stroke:#333333;stroke-width:2;" x1="3515" x2="3515" y1="362.25" y2="367.25"/><line style="stroke:#333333;stroke-width:2;" x1="3565" x2="3565" y1="362.25" y2="367.25"/><line style="stroke:#333333;stroke-width:2;" x1="3615" x2="3615" y1="362.25" y2="367.25"/><line style="stroke:#333333;stroke-width:2;" x1="3665" x2="3665" y1="362.25" y2="367.25"/><line style="stroke:#333333;stroke-width:2;" x1="3715" x2="3715" y1="362.25" y2="367.25"/><line style="stroke:#333333;stroke-width:2;" x1="3765" x2="3765" y1="362.25" y2="367.25"/><line style="stroke:#333333;stroke-width:2;" x1="3815" x2="3815" y1="362.25" y2="367.25"/><line style="stroke:#333333;stroke-width:2;" x1="3865" x2="3865" y1="362.25" y2="367.25"/><line style="stroke:#333333;stroke-width:2;" x1="3915" x2="3915" y1="362.25" y2="367.25"/><line style="stroke:#333333;stroke-width:2;" x1="3965" x2="3965" y1="362.25" y2="367.25"/><line style="stroke:#333333;stroke-width:2;" x1="4015" x2="4015" y1="362.25" y2="367.25"/><line style="stroke:#333333;stroke-width:2;" x1="4065" x2="4065" y1="362.25" y2="367.25"/><line style="stroke:#333333;stroke-width:2;" x1="4115" x2="4115" y1="362.25" y2="367.25"/><line style="stroke:#333333;stroke-width:2;" x1="4165" x2="4165" y1="362.25" y2="367.25"/><line style="stroke:#333333;stroke-width:2;" x1="4215" x2="4215" y1="362.25" y2="367.25"/><line style="stroke:#333333;stroke-width:2;" x1="4265" x2="4265" y1="362.25" y2="367.25"/><line style="stroke:#333333;stroke-width:2;" x1="4315" x2="4315" y1="362.25" y2="367.25"/><line style="stroke:#333333;stroke-width:2;" x1="4365" x2="4365" y1="362.25" y2="367.25"/><line style="stroke:#333333;stroke-width:2;" x1="4415" x2="4415" y1="362.25" y2="367.25"/><line style="stroke:#333333;stroke-width:2;" x1="4465" x2="4465" y1="362.25" y2="367.25"/><line style="stroke:#333333;stroke-width:2;" x1="4515" x2="4515" y1="362.25" y2="367.25"/><line style="stroke:#333333;stroke-width:2;" x1="4565" x2="4565" y1="362.25" y2="367.25"/><line style="stroke:#333333;stroke-width:2;" x1="4615" x2="4615" y1="362.25" y2="367.25"/><line style="stroke:#333333;stroke-width:2;" x1="4665" x2="4665" y1="362.25" y2="367.25"/><line style="stroke:#333333;stroke-width:2;" x1="4715" x2="4715" y1="362.25" y2="367.25"/><line style="stroke:#333333;stroke-width:2;" x1="4765" x2="4765" y1="362.25" y2="367.25"/><line style="stroke:#333333;stroke-width:2;" x1="4815" x2="4815" y1="362.25" y2="367.25"/><line style="stroke:#333333;stroke-width:2;" x1="4865" x2="4865" y1="362.25" y2="367.25"/><line style="stroke:#333333;stroke-width:2;" x1="4915" x2="4915" y1="362.25" y2="367.25"/><line style="stroke:#333333;stroke-width:2;" x1="4965" x2="4965" y1="362.25" y2="367.25"/><line style="stroke:#333333;stroke-width:2;" x1="5015" x2="5015" y1="362.25" y2="367.25"/><line style="stroke:#333333;stroke-width:2;" x1="5065" x2="5065" y1="362.25" y2="367.25"/><line style="stroke:#333333;stroke-width:2;" x1="5115" x2="5115" y1="362.25" y2="367.25"/><line style="stroke:#333333;stroke-width:2;" x1="5165" x2="5165" y1="362.25" y2="367.25"/><line style="stroke:#333333;stroke-width:2;" x1="5215" x2="5215" y1="362.25" y2="367.25"/><line style="stroke:#333333;stroke-width:2;" x1="5265" x2="5265" y1="362.25" y2="367.25"/><line style="stroke:#333333;stroke-width:2;" x1="5315" x2="5315" y1="362.25" y2="367.25"/><line style="stroke:#333333;stroke-width:2;" x1="5365" x2="5365" y1="362.25" y2="367.25"/><line style="stroke:#333333;stroke-width:2;" x1="5415" x2="5415" y1="362.25" y2="367.25"/><line style="stroke:#333333;stroke-width:2;" x1="5465" x2="5465" y1="362.25" y2="367.25"/><line style="stroke:#333333;stroke-width:2;" x1="5515" x2="5515" y1="362.25" y2="367.25"/><line style="stroke:#333333;stroke-width:2;" x1="5565" x2="5565" y1="362.25" y2="367.25"/><line style="stroke:#333333;stroke-width:2;" x1="5615" x2="5615" y1="362.25" y2="367.25"/><line style="stroke:#333333;stroke-width:2;" x1="5665" x2="5665" y1="362.25" y2="367.25"/><line style="stroke:#333333;stroke-width:2;" x1="5715" x2="5715" y1="362.25" y2="367.25"/><line style="stroke:#333333;stroke-width:2;" x1="5765" x2="5765" y1="362.25" y2="367.25"/><line style="stroke:#333333;stroke-width:2;" x1="5815" x2="5815" y1="362.25" y2="367.25"/><line style="stroke:#333333;stroke-width:2;" x1="5865" x2="5865" y1="362.25" y2="367.25"/><line style="stroke:#333333;stroke-width:2;" x1="5915" x2="5915" y1="362.25" y2="367.25"/><line style="stroke:#333333;stroke-width:2;" x1="5965" x2="5965" y1="362.25" y2="367.25"/><line style="stroke:#333333;stroke-width:2;" x1="6015" x2="6015" y1="362.25" y2="367.25"/><line style="stroke:#333333;stroke-width:2;" x1="6065" x2="6065" y1="362.25" y2="367.25"/><line style="stroke:#333333;stroke-width:2;" x1="6115" x2="6115" y1="362.25" y2="367.25"/><line style="stroke:#333333;stroke-width:2;" x1="6165" x2="6165" y1="362.25" y2="367.25"/><line style="stroke:#333333;stroke-width:2;" x1="6215" x2="6215" y1="362.25" y2="367.25"/><line style="stroke:#333333;stroke-width:2;" x1="6265" x2="6265" y1="362.25" y2="367.25"/><line style="stroke:#333333;stroke-width:2;" x1="6315" x2="6315" y1="362.25" y2="367.25"/><line style="stroke:#333333;stroke-width:2;" x1="6365" x2="6365" y1="362.25" y2="367.25"/><line style="stroke:#333333;stroke-width:2;" x1="6415" x2="6415" y1="362.25" y2="367.25"/><line style="stroke:#333333;stroke-width:2;" x1="6465" x2="6465" y1="362.25" y2="367.25"/><line style="stroke:#333333;stroke-width:2;" x1="6515" x2="6515" y1="362.25" y2="367.25"/><line style="stroke:#333333;stroke-width:2;" x1="6565" x2="6565" y1="362.25" y2="367.25"/><line style="stroke:#333333;stroke-width:2;" x1="6615" x2="6615" y1="362.25" y2="367.25"/><line style="stroke:#333333;stroke-width:2;" x1="6665" x2="6665" y1="362.25" y2="367.25"/><line style="stroke:#333333;stroke-width:2;" x1="6715" x2="6715" y1="362.25" y2="367.25"/><line style="stroke:#333333;stroke-width:2;" x1="6765" x2="6765" y1="362.25" y2="367.25"/><line style="stroke:#333333;stroke-width:2;" x1="6815" x2="6815" y1="362.25" y2="367.25"/><line style="stroke:#333333;stroke-width:2;" x1="6865" x2="6865" y1="362.25" y2="367.25"/><line style="stroke:#333333;stroke-width:2;" x1="6915" x2="6915" y1="362.25" y2="367.25"/><line style="stroke:#333333;stroke-width:2;" x1="6965" x2="6965" y1="362.25" y2="367.25"/><line style="stroke:#333333;stroke-width:2;" x1="15" x2="6965" y1="362.25" y2="362.25"/><text fill="#333333" font-family="sans-serif" font-size="11" lengthAdjust="spacing" textLength="6.1177" x="11.9412" y="379.6689">0</text><text fill="#333333" font-family="sans-serif" font-size="11" lengthAdjust="spacing" textLength="6.1177" x="61.9412" y="379.6689">1</text><text fill="#333333" font-family="sans-serif" font-size="11" lengthAdjust="spacing" textLength="12.2354" x="1058.8823" y="379.6689">21</text><text fill="#333333" font-family="sans-serif" font-size="11" lengthAdjust="spacing" textLength="12.2354" x="1308.8823" y="379.6689">26</text><text fill="#333333" font-family="sans-serif" font-size="11" lengthAdjust="spacing" textLength="18.353" x="5805.8235" y="379.6689">116</text><text fill="#333333" font-family="sans-serif" font-size="11" lengthAdjust="spacing" textLength="18.353" x="6405.8235" y="379.6689">128</text><text fill="#333333" font-family="sans-serif" font-size="11" lengthAdjust="spacing" textLength="18.353" x="6655.8235" y="379.6689">133</text><text fill="#333333" font-family="sans-serif" font-size="11" lengthAdjust="spacing" textLength="18.353" x="6755.8235" y="379.6689">135</text><text fill="#333333" font-family="sans-serif" font-size="11" lengthAdjust="spacing" textLength="18.353" x="6905.8235" y="379.6689">138</text><line style="stroke:#333333;stroke-width:2;stroke-dasharray:4.0,4.0;" x1="1065" x2="1065" y1="48.6094" y2="362.25"/><line style="stroke:#333333;stroke-width:2;stroke-dasharray:4.0,4.0;" x1="1315" x2="1315" y1="48.6094" y2="362.25"/><text fill="#000000" font-family="sans-serif" font-size="12" lengthAdjust="spacing" textLength="70.6992" x="1068" y="63.0664">Temps perdu</text><line style="stroke:#333333;stroke-width:2;stroke-dasharray:4.0,4.0;" x1="5815" x2="5815" y1="48.6094" y2="362.25"/><line style="stroke:#333333;stroke-width:2;stroke-dasharray:4.0,4.0;" x1="6765" x2="6765" y1="48.6094" y2="362.25"/><text fill="#000000" font-family="sans-serif" font-size="12" lengthAdjust="spacing" textLength="90.375" x="5818" y="63.0664">CERFA + photos</text><line style="stroke:#333333;stroke-width:2;stroke-dasharray:4.0,4.0;" x1="5815" x2="5815" y1="48.6094" y2="362.25"/><line style="stroke:#333333;stroke-width:2;stroke-dasharray:4.0,4.0;" x1="6915" x2="6915" y1="48.6094" y2="362.25"/><text fill="#000000" font-family="sans-serif" font-size="12" lengthAdjust="spacing" textLength="77.3789" x="5818" y="63.0664">Rapport digital</text><!--SRC=[RLFRRgCm47tdAqRjIwhjgXXo8QlT5InDgqZfgchflZl9D5WoDWAdtxzZ3CHD-e1avbnyPkGnmaY4GbGeXKB8TLNp1X7Moc3pWSe8hU0r-mVvwkKXWsTU2spWeuLxSH26oo3OQRKJBS9LbXTlgmrCVERD5V0MifqveZmny_MVpGecMLt3azuAYOwMYwt484Z3m0b0jF3S80NYDaRGuUV586KU_HvhoNTOKV0JtIy6QUJpAGBAN6fJ2hd7ayHlVwtUDV6iTEv9VOfDmNomcu4RmTUc1JOL3TosowB4RxZKHhS5ZMlKlV2wreqP9vwoEFOKh-AWk3assDzdyPc7FmZrAUlekwgueEQ5cmkBanDqhkdjqX1-VlyDAOCV48VKm51dhXvP8FA1Q43cXCnyODvRCOkmCWv7BpP0KMAXoB-7IWwBupD3M-cXcKrX8TVGPMfNlWpjwaFcCTfi48p9OfiixguenQ6Kz1aWdT50ZLrlx7-k6ow9Lc1Ljr1ZipzwPEj5R1lsCzsjppUekuSGV2L9UiaZRQeYIVz0O3-y4AKDmbOReolGxyF-0VGhIksMqobCs7mArCEDHVPqwBfb12nSlG-DQW_MySBNBIo0ssVhoXRa6Y_ENSDo6i64lhx-cAt_Mdv7l1F-ImFu1UnscOJb7LTqNYvlmp04F3OqZ379Vm00]--></g></svg>