<svg xmlns="http://www.w3.org/2000/svg" xmlns:xlink="http://www.w3.org/1999/xlink" contentStyleType="text/css" height="1604px" preserveAspectRatio="none" style="width:1205px;height:1604px;background:#FFFFFF;" version="1.1" viewBox="0 0 1205 1604" width="1205px" zoomAndPan="magnify"><title>Sequence : Commande de Materiel (Le parcours du combattant)</title><defs/><g><text fill="#000000" font-family="Verdana" font-size="22" font-weight="bold" lengthAdjust="spacing" textLength="790.9902" x="205.8386" y="60.2715">Sequence : Commande de Materiel (Le parcours du combattant)</text><rect fill="#FFFFFF" height="1521.2285" style="stroke:#000000;stroke-width:1;" width="123.1084" x="40" y="76.8906"/><text fill="#000000" font-family="Verdana" font-size="13" font-weight="bold" lengthAdjust="spacing" textLength="62.0737" x="70.5173" y="89.9604">Chantier</text><rect fill="#F0F8FF" height="1521.2285" style="stroke:#000000;stroke-width:1;" width="609.9395" x="298.7622" y="76.8906"/><text fill="#000000" font-family="Verdana" font-size="13" font-weight="bold" lengthAdjust="spacing" textLength="110.0874" x="548.6882" y="89.9604">Bureau / Siege</text><rect fill="#FFFFFF" height="1521.2285" style="stroke:#000000;stroke-width:1;" width="271.9658" x="920.7017" y="76.8906"/><text fill="#000000" font-family="Verdana" font-size="13" font-weight="bold" lengthAdjust="spacing" textLength="150.1411" x="981.614" y="89.9604">Logistique / Externe</text><rect fill="#FFFFFF" height="462.9897" style="stroke:#000000;stroke-width:1;" width="10" x="330.5908" y="434.3145"/><rect fill="#FFFFFF" height="29.7993" style="stroke:#000000;stroke-width:1;" width="10" x="631.6396" y="464.1138"/><rect fill="#FFFFFF" height="239.5952" style="stroke:#000000;stroke-width:1;" width="10" x="949.9907" y="970.9028"/><line style="stroke:#000000;stroke-width:1;" x1="101" x2="101" y1="191.7192" y2="1500.0898"/><line style="stroke:#000000;stroke-width:1;" x1="334.7622" x2="334.7622" y1="191.7192" y2="1500.0898"/><line style="stroke:#000000;stroke-width:1;" x1="635.939" x2="635.939" y1="191.7192" y2="1500.0898"/><line style="stroke:#000000;stroke-width:1;" x1="753.3403" x2="753.3403" y1="191.7192" y2="1500.0898"/><line style="stroke:#000000;stroke-width:1;" x1="868.1401" x2="868.1401" y1="191.7192" y2="1500.0898"/><line style="stroke:#000000;stroke-width:1;" x1="954.7017" x2="954.7017" y1="191.7192" y2="1500.0898"/><line style="stroke:#000000;stroke-width:1;" x1="1129.8276" x2="1129.8276" y1="191.7192" y2="1500.0898"/><text fill="#000000" font-family="Verdana" font-size="14" lengthAdjust="spacing" textLength="33.4756" x="81.8164" y="171.7651">Marc</text><text fill="#000000" font-family="Verdana" font-size="14" lengthAdjust="spacing" textLength="109.1084" x="44" y="188.7798">(Chef Chantier)</text><ellipse cx="101.5542" cy="105.6899" fill="#FFFFFF" rx="8" ry="8" style="stroke:#000000;stroke-width:1;"/><path d="M101.5542,113.6899 L101.5542,140.6899 M88.5542,121.6899 L114.5542,121.6899 M101.5542,140.6899 L88.5542,155.6899 M101.5542,140.6899 L114.5542,155.6899 " fill="none" style="stroke:#000000;stroke-width:1;"/><text fill="#000000" font-family="Verdana" font-size="14" lengthAdjust="spacing" textLength="33.4756" x="81.8164" y="1513.165">Marc</text><text fill="#000000" font-family="Verdana" font-size="14" lengthAdjust="spacing" textLength="109.1084" x="44" y="1530.1797">(Chef Chantier)</text><ellipse cx="101.5542" cy="1542.1191" fill="#FFFFFF" rx="8" ry="8" style="stroke:#000000;stroke-width:1;"/><path d="M101.5542,1550.1191 L101.5542,1577.1191 M88.5542,1558.1191 L114.5542,1558.1191 M101.5542,1577.1191 L88.5542,1592.1191 M101.5542,1577.1191 L114.5542,1592.1191 " fill="none" style="stroke:#000000;stroke-width:1;"/><text fill="#000000" font-family="Verdana" font-size="14" lengthAdjust="spacing" textLength="42.1641" x="311.5088" y="171.7651">Sylvie</text><text fill="#000000" font-family="Verdana" font-size="14" lengthAdjust="spacing" textLength="59.6572" x="302.7622" y="188.7798">(Achats)</text><ellipse cx="335.5908" cy="105.6899" fill="#FFFFFF" rx="8" ry="8" style="stroke:#000000;stroke-width:1;"/><path d="M335.5908,113.6899 L335.5908,140.6899 M322.5908,121.6899 L348.5908,121.6899 M335.5908,140.6899 L322.5908,155.6899 M335.5908,140.6899 L348.5908,155.6899 " fill="none" style="stroke:#000000;stroke-width:1;"/><text fill="#000000" font-family="Verdana" font-size="14" lengthAdjust="spacing" textLength="42.1641" x="311.5088" y="1513.165">Sylvie</text><text fill="#000000" font-family="Verdana" font-size="14" lengthAdjust="spacing" textLength="59.6572" x="302.7622" y="1530.1797">(Achats)</text><ellipse cx="335.5908" cy="1542.1191" fill="#FFFFFF" rx="8" ry="8" style="stroke:#000000;stroke-width:1;"/><path d="M335.5908,1550.1191 L335.5908,1577.1191 M322.5908,1558.1191 L348.5908,1558.1191 M335.5908,1577.1191 L322.5908,1592.1191 M335.5908,1577.1191 L348.5908,1592.1191 " fill="none" style="stroke:#000000;stroke-width:1;"/><text fill="#000000" font-family="Verdana" font-size="14" lengthAdjust="spacing" textLength="71.4014" x="597.939" y="188.7798">Sage MDE</text><path d="M618.6396,138.7046 C618.6396,128.7046 636.6396,128.7046 636.6396,128.7046 C636.6396,128.7046 654.6396,128.7046 654.6396,138.7046 L654.6396,164.7046 C654.6396,174.7046 636.6396,174.7046 636.6396,174.7046 C636.6396,174.7046 618.6396,174.7046 618.6396,164.7046 L618.6396,138.7046 " fill="#FFFFFF" style="stroke:#000000;stroke-width:1.5;"/><path d="M618.6396,138.7046 C618.6396,148.7046 636.6396,148.7046 636.6396,148.7046 C636.6396,148.7046 654.6396,148.7046 654.6396,138.7046 " fill="none" style="stroke:#000000;stroke-width:1.5;"/><text fill="#000000" font-family="Verdana" font-size="14" lengthAdjust="spacing" textLength="71.4014" x="597.939" y="1513.165">Sage MDE</text><path d="M618.6396,1526.1045 C618.6396,1516.1045 636.6396,1516.1045 636.6396,1516.1045 C636.6396,1516.1045 654.6396,1516.1045 654.6396,1526.1045 L654.6396,1552.1045 C654.6396,1562.1045 636.6396,1562.1045 636.6396,1562.1045 C636.6396,1562.1045 618.6396,1562.1045 618.6396,1552.1045 L618.6396,1526.1045 " fill="#FFFFFF" style="stroke:#000000;stroke-width:1.5;"/><path d="M618.6396,1526.1045 C618.6396,1536.1045 636.6396,1536.1045 636.6396,1536.1045 C636.6396,1536.1045 654.6396,1536.1045 654.6396,1526.1045 " fill="none" style="stroke:#000000;stroke-width:1.5;"/><rect fill="#FFFFFF" height="48.0293" style="stroke:#000000;stroke-width:1;" width="112.7998" x="699.3403" y="138.6899"/><rect fill="#FFFFFF" height="48.0293" style="stroke:#000000;stroke-width:1;" width="112.7998" x="695.3403" y="142.6899"/><text fill="#000000" font-family="Verdana" font-size="14" lengthAdjust="spacing" textLength="36.6133" x="733.4336" y="163.7651">Excel</text><text fill="#000000" font-family="Verdana" font-size="14" lengthAdjust="spacing" textLength="98.7998" x="702.3403" y="180.7798">(Suivi/Fourn.)</text><rect fill="#FFFFFF" height="48.0293" style="stroke:#000000;stroke-width:1;" width="112.7998" x="699.3403" y="1499.0898"/><rect fill="#FFFFFF" height="48.0293" style="stroke:#000000;stroke-width:1;" width="112.7998" x="695.3403" y="1503.0898"/><text fill="#000000" font-family="Verdana" font-size="14" lengthAdjust="spacing" textLength="36.6133" x="733.4336" y="1524.165">Excel</text><text fill="#000000" font-family="Verdana" font-size="14" lengthAdjust="spacing" textLength="98.7998" x="702.3403" y="1541.1797">(Suivi/Fourn.)</text><rect fill="#FFFFFF" height="31.0146" rx="2.5" ry="2.5" style="stroke:#000000;stroke-width:1;" width="52.5615" x="842.1401" y="159.7046"/><text fill="#000000" font-family="Verdana" font-size="14" lengthAdjust="spacing" textLength="38.5615" x="849.1401" y="180.7798">Email</text><rect fill="#FFFFFF" height="31.0146" rx="2.5" ry="2.5" style="stroke:#000000;stroke-width:1;" width="52.5615" x="842.1401" y="1499.0898"/><text fill="#000000" font-family="Verdana" font-size="14" lengthAdjust="spacing" textLength="38.5615" x="849.1401" y="1520.165">Email</text><text fill="#000000" font-family="Verdana" font-size="14" lengthAdjust="spacing" textLength="25.9629" x="939.0093" y="171.7651">Eric</text><text fill="#000000" font-family="Verdana" font-size="14" lengthAdjust="spacing" textLength="54.5781" x="924.7017" y="188.7798">(Depot)</text><ellipse cx="954.9907" cy="105.6899" fill="#FFFFFF" rx="8" ry="8" style="stroke:#000000;stroke-width:1;"/><path d="M954.9907,113.6899 L954.9907,140.6899 M941.9907,121.6899 L967.9907,121.6899 M954.9907,140.6899 L941.9907,155.6899 M954.9907,140.6899 L967.9907,155.6899 " fill="none" style="stroke:#000000;stroke-width:1;"/><text fill="#000000" font-family="Verdana" font-size="14" lengthAdjust="spacing" textLength="25.9629" x="939.0093" y="1513.165">Eric</text><text fill="#000000" font-family="Verdana" font-size="14" lengthAdjust="spacing" textLength="54.5781" x="924.7017" y="1530.1797">(Depot)</text><ellipse cx="954.9907" cy="1542.1191" fill="#FFFFFF" rx="8" ry="8" style="stroke:#000000;stroke-width:1;"/><path d="M954.9907,1550.1191 L954.9907,1577.1191 M941.9907,1558.1191 L967.9907,1558.1191 M954.9907,1577.1191 L941.9907,1592.1191 M954.9907,1577.1191 L967.9907,1592.1191 " fill="none" style="stroke:#000000;stroke-width:1;"/><rect fill="#FFFFFF" height="31.0146" rx="2.5" ry="2.5" style="stroke:#000000;stroke-width:1;" width="95.8398" x="1082.8276" y="159.7046"/><text fill="#000000" font-family="Verdana" font-size="14" lengthAdjust="spacing" textLength="81.8398" x="1089.8276" y="180.7798">Fournisseur</text><rect fill="#FFFFFF" height="31.0146" rx="2.5" ry="2.5" style="stroke:#000000;stroke-width:1;" width="95.8398" x="1082.8276" y="1499.0898"/><text fill="#000000" font-family="Verdana" font-size="14" lengthAdjust="spacing" textLength="81.8398" x="1089.8276" y="1520.165">Fournisseur</text><rect fill="#FFFFFF" height="462.9897" style="stroke:#000000;stroke-width:1;" width="10" x="330.5908" y="434.3145"/><rect fill="#FFFFFF" height="29.7993" style="stroke:#000000;stroke-width:1;" width="10" x="631.6396" y="464.1138"/><rect fill="#FFFFFF" height="239.5952" style="stroke:#000000;stroke-width:1;" width="10" x="949.9907" y="970.9028"/><rect fill="#FFFFFF" height="3" style="stroke:#FFFFFF;stroke-width:1;" width="1193.6675" x="5" y="222.6189"/><line style="stroke:#000000;stroke-width:0.5;" x1="5" x2="1198.6675" y1="222.6189" y2="222.6189"/><line style="stroke:#000000;stroke-width:0.5;" x1="5" x2="1198.6675" y1="225.6189" y2="225.6189"/><rect fill="#FFFFFF" height="23.7993" style="stroke:#000000;stroke-width:1;" width="253.6875" x="474.99" y="211.7192"/><text fill="#000000" font-family="Verdana" font-size="13" font-weight="bold" lengthAdjust="spacing" textLength="235.2441" x="480.99" y="228.7891">Jour 1 - Identification du besoin</text><line style="stroke:#000000;stroke-width:1;" x1="101.5542" x2="143.5542" y1="267.3179" y2="267.3179"/><line style="stroke:#000000;stroke-width:1;" x1="143.5542" x2="143.5542" y1="267.3179" y2="280.3179"/><line style="stroke:#000000;stroke-width:1;" x1="102.5542" x2="143.5542" y1="280.3179" y2="280.3179"/><polygon fill="#000000" points="112.5542,276.3179,102.5542,280.3179,112.5542,284.3179,108.5542,280.3179" style="stroke:#000000;stroke-width:1;"/><text fill="#000000" font-family="Verdana" font-size="13" font-weight="bold" lengthAdjust="spacing" textLength="9.2422" x="108.5542" y="262.5884">1</text><text fill="#000000" font-family="Verdana" font-size="13" lengthAdjust="spacing" textLength="125.8486" x="121.7964" y="262.5884">Besoin c&#226;ble 3G2.5</text><line style="stroke:#000000;stroke-width:1;" x1="101.5542" x2="143.5542" y1="325.9165" y2="325.9165"/><line style="stroke:#000000;stroke-width:1;" x1="143.5542" x2="143.5542" y1="325.9165" y2="338.9165"/><line style="stroke:#000000;stroke-width:1;" x1="102.5542" x2="143.5542" y1="338.9165" y2="338.9165"/><polygon fill="#000000" points="112.5542,334.9165,102.5542,338.9165,112.5542,342.9165,108.5542,338.9165" style="stroke:#000000;stroke-width:1;"/><text fill="#000000" font-family="Verdana" font-size="13" font-weight="bold" lengthAdjust="spacing" textLength="9.2422" x="108.5542" y="313.2874">2</text><text fill="#000000" font-family="Verdana" font-size="13" lengthAdjust="spacing" textLength="177.6582" x="121.7964" y="305.3877">Remplit bon papier (5 min)</text><text fill="#FF0000" font-family="Verdana" font-size="13" lengthAdjust="spacing" textLength="173.1196" x="121.7964" y="321.187">Note: R&#233;f&#233;rence impr&#233;cise</text><line style="stroke:#000000;stroke-width:2;" x1="317.5908" x2="327.5908" y1="363.7158" y2="373.7158"/><line style="stroke:#000000;stroke-width:2;" x1="317.5908" x2="327.5908" y1="373.7158" y2="363.7158"/><line style="stroke:#000000;stroke-width:1;" x1="101.5542" x2="322.5908" y1="368.7158" y2="368.7158"/><text fill="#000000" font-family="Verdana" font-size="13" font-weight="bold" lengthAdjust="spacing" textLength="9.2422" x="108.5542" y="363.9863">3</text><text fill="#000000" font-family="Verdana" font-size="13" lengthAdjust="spacing" textLength="152.2041" x="121.7964" y="363.9863">Appel (Pas de r&#233;ponse)</text><path d="M106,381.7158 L106,406.7158 L319,406.7158 L319,391.7158 L309,381.7158 L106,381.7158 " fill="#FFCCCC" style="stroke:#000000;stroke-width:1;"/><path d="M309,381.7158 L309,391.7158 L319,391.7158 L309,381.7158 " fill="#FFCCCC" style="stroke:#000000;stroke-width:1;"/><text fill="#000000" font-family="Verdana" font-size="13" lengthAdjust="spacing" textLength="192.2769" x="112" y="399.7856">&#128308; 25 min perdues &#224; attendre</text><polygon fill="#000000" points="318.5908,430.3145,328.5908,434.3145,318.5908,438.3145,322.5908,434.3145" style="stroke:#000000;stroke-width:1;"/><line style="stroke:#000000;stroke-width:1;" x1="101.5542" x2="324.5908" y1="434.3145" y2="434.3145"/><text fill="#000000" font-family="Verdana" font-size="13" font-weight="bold" lengthAdjust="spacing" textLength="9.2422" x="108.5542" y="429.585">4</text><text fill="#000000" font-family="Verdana" font-size="13" lengthAdjust="spacing" textLength="137.2617" x="121.7964" y="429.585">Appel r&#233;ussi (10h45)</text><polygon fill="#000000" points="619.6396,460.1138,629.6396,464.1138,619.6396,468.1138,623.6396,464.1138" style="stroke:#000000;stroke-width:1;"/><line style="stroke:#000000;stroke-width:1;" x1="340.5908" x2="625.6396" y1="464.1138" y2="464.1138"/><text fill="#000000" font-family="Verdana" font-size="13" font-weight="bold" lengthAdjust="spacing" textLength="9.2422" x="347.5908" y="459.3843">5</text><text fill="#000000" font-family="Verdana" font-size="13" lengthAdjust="spacing" textLength="162.4873" x="360.833" y="459.3843">Recherche "c&#226;ble 3G2.5"</text><polygon fill="#000000" points="351.5908,489.9131,341.5908,493.9131,351.5908,497.9131,347.5908,493.9131" style="stroke:#000000;stroke-width:1;"/><line style="stroke:#000000;stroke-width:1;stroke-dasharray:2.0,2.0;" x1="345.5908" x2="635.6396" y1="493.9131" y2="493.9131"/><text fill="#000000" font-family="Verdana" font-size="13" font-weight="bold" lengthAdjust="spacing" textLength="9.2422" x="357.5908" y="489.1836">6</text><text fill="#000000" font-family="Verdana" font-size="13" lengthAdjust="spacing" textLength="131.3521" x="370.833" y="489.1836">12 r&#233;sultats trouv&#233;s</text><path d="M641,506.9131 L641,547.9131 L877,547.9131 L877,516.9131 L867,506.9131 L641,506.9131 " fill="#FFCCCC" style="stroke:#000000;stroke-width:1;"/><path d="M867,506.9131 L867,516.9131 L877,516.9131 L867,506.9131 " fill="#FFCCCC" style="stroke:#000000;stroke-width:1;"/><text fill="#000000" font-family="Verdana" font-size="13" lengthAdjust="spacing" textLength="215.0649" x="647" y="524.9829">&#128308; 12 r&#233;f&#233;rences pour 1 produit !</text><text fill="#000000" font-family="Verdana" font-size="13" lengthAdjust="spacing" textLength="139.0327" x="647" y="540.7822">Risque d'erreur &#233;lev&#233;</text><polygon fill="#000000" points="624.6396,571.311,634.6396,575.311,624.6396,579.311,628.6396,575.311" style="stroke:#000000;stroke-width:1;"/><line style="stroke:#000000;stroke-width:1;" x1="340.5908" x2="630.6396" y1="575.311" y2="575.311"/><text fill="#000000" font-family="Verdana" font-size="13" font-weight="bold" lengthAdjust="spacing" textLength="9.2422" x="347.5908" y="570.5815">7</text><text fill="#000000" font-family="Verdana" font-size="13" lengthAdjust="spacing" textLength="258.8066" x="360.833" y="570.5815">S&#233;lectionne une r&#233;f&#233;rence (au hasard?)</text><polygon fill="#000000" points="741.7402,601.1104,751.7402,605.1104,741.7402,609.1104,745.7402,605.1104" style="stroke:#000000;stroke-width:1;"/><line style="stroke:#000000;stroke-width:1;" x1="340.5908" x2="747.7402" y1="605.1104" y2="605.1104"/><text fill="#000000" font-family="Verdana" font-size="13" font-weight="bold" lengthAdjust="spacing" textLength="9.2422" x="347.5908" y="600.3809">8</text><text fill="#000000" font-family="Verdana" font-size="13" lengthAdjust="spacing" textLength="197.7676" x="360.833" y="600.3809">Recherche contact fournisseur</text><polygon fill="#000000" points="1118.7476,630.9097,1128.7476,634.9097,1118.7476,638.9097,1122.7476,634.9097" style="stroke:#000000;stroke-width:1;"/><line style="stroke:#000000;stroke-width:1;" x1="340.5908" x2="1124.7476" y1="634.9097" y2="634.9097"/><text fill="#000000" font-family="Verdana" font-size="13" font-weight="bold" lengthAdjust="spacing" textLength="9.2422" x="347.5908" y="630.1802">9</text><text fill="#000000" font-family="Verdana" font-size="13" lengthAdjust="spacing" textLength="125.2266" x="360.833" y="630.1802">Appel t&#233;l&#233;phonique</text><path d="M345,647.9097 L345,672.9097 L559,672.9097 L559,657.9097 L549,647.9097 L345,647.9097 " fill="#FFCCCC" style="stroke:#000000;stroke-width:1;"/><path d="M549,647.9097 L549,657.9097 L559,657.9097 L549,647.9097 " fill="#FFCCCC" style="stroke:#000000;stroke-width:1;"/><text fill="#000000" font-family="Verdana" font-size="13" lengthAdjust="spacing" textLength="193.1211" x="351" y="665.9795">&#128308; Pas de commande en ligne</text><polygon fill="#000000" points="856.4209,696.5083,866.4209,700.5083,856.4209,704.5083,860.4209,700.5083" style="stroke:#000000;stroke-width:1;"/><line style="stroke:#000000;stroke-width:1;" x1="340.5908" x2="862.4209" y1="700.5083" y2="700.5083"/><text fill="#000000" font-family="Verdana" font-size="13" font-weight="bold" lengthAdjust="spacing" textLength="18.4844" x="347.5908" y="695.7788">10</text><text fill="#000000" font-family="Verdana" font-size="13" lengthAdjust="spacing" textLength="190.5757" x="370.0752" y="695.7788">R&#233;daction email confirmation</text><path d="M741,713.5083 L741,738.5083 L862,738.5083 L862,723.5083 L852,713.5083 L741,713.5083 " fill="#FFCCCC" style="stroke:#000000;stroke-width:1;"/><path d="M852,713.5083 L852,723.5083 L862,723.5083 L852,713.5083 " fill="#FFCCCC" style="stroke:#000000;stroke-width:1;"/><text fill="#000000" font-family="Verdana" font-size="13" lengthAdjust="spacing" textLength="100.8325" x="747" y="731.5781">&#128308; Ressaisie #4</text><polygon fill="#000000" points="624.6396,762.1069,634.6396,766.1069,624.6396,770.1069,628.6396,766.1069" style="stroke:#000000;stroke-width:1;"/><line style="stroke:#000000;stroke-width:1;" x1="340.5908" x2="630.6396" y1="766.1069" y2="766.1069"/><text fill="#000000" font-family="Verdana" font-size="13" font-weight="bold" lengthAdjust="spacing" textLength="18.4844" x="347.5908" y="761.3774">11</text><text fill="#000000" font-family="Verdana" font-size="13" lengthAdjust="spacing" textLength="114.7466" x="370.0752" y="761.3774">Saisie commande</text><path d="M509,779.1069 L509,804.1069 L630,804.1069 L630,789.1069 L620,779.1069 L509,779.1069 " fill="#FFCCCC" style="stroke:#000000;stroke-width:1;"/><path d="M620,779.1069 L620,789.1069 L630,789.1069 L620,779.1069 " fill="#FFCCCC" style="stroke:#000000;stroke-width:1;"/><text fill="#000000" font-family="Verdana" font-size="13" lengthAdjust="spacing" textLength="100.8325" x="515" y="797.1768">&#128308; Ressaisie #5</text><polygon fill="#000000" points="741.7402,827.7056,751.7402,831.7056,741.7402,835.7056,745.7402,831.7056" style="stroke:#000000;stroke-width:1;"/><line style="stroke:#000000;stroke-width:1;" x1="340.5908" x2="747.7402" y1="831.7056" y2="831.7056"/><text fill="#000000" font-family="Verdana" font-size="13" font-weight="bold" lengthAdjust="spacing" textLength="18.4844" x="347.5908" y="826.9761">12</text><text fill="#000000" font-family="Verdana" font-size="13" lengthAdjust="spacing" textLength="72.7441" x="370.0752" y="826.9761">Saisie suivi</text><path d="M626,844.7056 L626,869.7056 L747,869.7056 L747,854.7056 L737,844.7056 L626,844.7056 " fill="#FFCCCC" style="stroke:#000000;stroke-width:1;"/><path d="M737,844.7056 L737,854.7056 L747,854.7056 L737,844.7056 " fill="#FFCCCC" style="stroke:#000000;stroke-width:1;"/><text fill="#000000" font-family="Verdana" font-size="13" lengthAdjust="spacing" textLength="100.8325" x="632" y="862.7754">&#128308; Ressaisie #6</text><polygon fill="#000000" points="112.5542,893.3042,102.5542,897.3042,112.5542,901.3042,108.5542,897.3042" style="stroke:#000000;stroke-width:1;"/><line style="stroke:#000000;stroke-width:1;" x1="106.5542" x2="334.5908" y1="897.3042" y2="897.3042"/><text fill="#000000" font-family="Verdana" font-size="13" font-weight="bold" lengthAdjust="spacing" textLength="18.4844" x="118.5542" y="892.5747">13</text><text fill="#000000" font-family="Verdana" font-size="13" lengthAdjust="spacing" textLength="182.5522" x="141.0386" y="892.5747">SMS "Livraison pr&#233;vue J+2"</text><rect fill="#FFFFFF" height="3" style="stroke:#FFFFFF;stroke-width:1;" width="1193.6675" x="5" y="926.2039"/><line style="stroke:#000000;stroke-width:0.5;" x1="5" x2="1198.6675" y1="926.2039" y2="926.2039"/><line style="stroke:#000000;stroke-width:0.5;" x1="5" x2="1198.6675" y1="929.2039" y2="929.2039"/><rect fill="#FFFFFF" height="23.7993" style="stroke:#000000;stroke-width:1;" width="151.8457" x="525.9109" y="915.3042"/><text fill="#000000" font-family="Verdana" font-size="13" font-weight="bold" lengthAdjust="spacing" textLength="133.4023" x="531.9109" y="932.374">Jour 3 - R&#233;ception</text><polygon fill="#000000" points="970.9907,966.9028,960.9907,970.9028,970.9907,974.9028,966.9907,970.9028" style="stroke:#000000;stroke-width:1;"/><line style="stroke:#000000;stroke-width:1;" x1="964.9907" x2="1129.7476" y1="970.9028" y2="970.9028"/><text fill="#000000" font-family="Verdana" font-size="13" font-weight="bold" lengthAdjust="spacing" textLength="18.4844" x="976.9907" y="966.1733">14</text><text fill="#000000" font-family="Verdana" font-size="13" lengthAdjust="spacing" textLength="116.6255" x="999.4751" y="966.1733">Livraison mat&#233;riel</text><line style="stroke:#000000;stroke-width:1;" x1="959.9907" x2="1001.9907" y1="1000.7021" y2="1000.7021"/><line style="stroke:#000000;stroke-width:1;" x1="1001.9907" x2="1001.9907" y1="1000.7021" y2="1013.7021"/><line style="stroke:#000000;stroke-width:1;" x1="960.9907" x2="1001.9907" y1="1013.7021" y2="1013.7021"/><polygon fill="#000000" points="970.9907,1009.7021,960.9907,1013.7021,970.9907,1017.7021,966.9907,1013.7021" style="stroke:#000000;stroke-width:1;"/><text fill="#000000" font-family="Verdana" font-size="13" font-weight="bold" lengthAdjust="spacing" textLength="18.4844" x="966.9907" y="995.9727">15</text><text fill="#000000" font-family="Verdana" font-size="13" lengthAdjust="spacing" textLength="119.2725" x="989.4751" y="995.9727">Comptage manuel</text><path d="M964,1026.7021 L964,1051.7021 L1105,1051.7021 L1105,1036.7021 L1095,1026.7021 L964,1026.7021 " fill="#FFCCCC" style="stroke:#000000;stroke-width:1;"/><path d="M1095,1026.7021 L1095,1036.7021 L1105,1036.7021 L1095,1026.7021 " fill="#FFCCCC" style="stroke:#000000;stroke-width:1;"/><text fill="#000000" font-family="Verdana" font-size="13" lengthAdjust="spacing" textLength="120.2881" x="970" y="1044.772">&#128308; Pas de scanette</text><polygon fill="#000000" points="346.5908,1075.3008,336.5908,1079.3008,346.5908,1083.3008,342.5908,1079.3008" style="stroke:#000000;stroke-width:1;"/><line style="stroke:#000000;stroke-width:1;" x1="340.5908" x2="948.9907" y1="1079.3008" y2="1079.3008"/><text fill="#000000" font-family="Verdana" font-size="13" font-weight="bold" lengthAdjust="spacing" textLength="18.4844" x="352.5908" y="1074.5713">16</text><text fill="#000000" font-family="Verdana" font-size="13" lengthAdjust="spacing" textLength="140.207" x="375.0752" y="1074.5713">Appel v&#233;rification r&#233;f.</text><path d="M964,1092.3008 L964,1117.3008 L1177,1117.3008 L1177,1102.3008 L1167,1092.3008 L964,1092.3008 " fill="#FFFFFF" style="stroke:#000000;stroke-width:1;"/><path d="M1167,1092.3008 L1167,1102.3008 L1177,1102.3008 L1167,1092.3008 " fill="#FFFFFF" style="stroke:#000000;stroke-width:1;"/><text fill="#000000" font-family="Verdana" font-size="13" lengthAdjust="spacing" textLength="192.2451" x="970" y="1110.3706">Nomenclatures incompatibles</text><polygon fill="#000000" points="647.6396,1140.8994,637.6396,1144.8994,647.6396,1148.8994,643.6396,1144.8994" style="stroke:#000000;stroke-width:1;"/><line style="stroke:#000000;stroke-width:1;" x1="641.6396" x2="948.9907" y1="1144.8994" y2="1144.8994"/><text fill="#000000" font-family="Verdana" font-size="13" font-weight="bold" lengthAdjust="spacing" textLength="18.4844" x="653.6396" y="1140.1699">17</text><text fill="#000000" font-family="Verdana" font-size="13" lengthAdjust="spacing" textLength="165.5469" x="676.124" y="1140.1699">Saisie r&#233;ception (20 min)</text><path d="M641,1157.8994 L641,1182.8994 L762,1182.8994 L762,1167.8994 L752,1157.8994 L641,1157.8994 " fill="#FFCCCC" style="stroke:#000000;stroke-width:1;"/><path d="M752,1157.8994 L752,1167.8994 L762,1167.8994 L752,1157.8994 " fill="#FFCCCC" style="stroke:#000000;stroke-width:1;"/><text fill="#000000" font-family="Verdana" font-size="13" lengthAdjust="spacing" textLength="100.8325" x="647" y="1175.9692">&#128308; Ressaisie #7</text><polygon fill="#000000" points="112.5542,1206.498,102.5542,1210.498,112.5542,1214.498,108.5542,1210.498" style="stroke:#000000;stroke-width:1;"/><line style="stroke:#000000;stroke-width:1;" x1="106.5542" x2="953.9907" y1="1210.498" y2="1210.498"/><text fill="#000000" font-family="Verdana" font-size="13" font-weight="bold" lengthAdjust="spacing" textLength="18.4844" x="118.5542" y="1205.7686">18</text><text fill="#000000" font-family="Verdana" font-size="13" lengthAdjust="spacing" textLength="181.3906" x="141.0386" y="1205.7686">Notification "Mat&#233;riel dispo"</text><polygon fill="#000000" points="942.9907,1236.2974,952.9907,1240.2974,942.9907,1244.2974,946.9907,1240.2974" style="stroke:#000000;stroke-width:1;"/><line style="stroke:#000000;stroke-width:1;" x1="101.5542" x2="948.9907" y1="1240.2974" y2="1240.2974"/><text fill="#000000" font-family="Verdana" font-size="13" font-weight="bold" lengthAdjust="spacing" textLength="18.4844" x="108.5542" y="1235.5679">19</text><text fill="#000000" font-family="Verdana" font-size="13" lengthAdjust="spacing" textLength="147.9194" x="131.0386" y="1235.5679">R&#233;cup&#233;ration au d&#233;p&#244;t</text><line style="stroke:#000000;stroke-width:2;" x1="92.5542" x2="110.5542" y1="1231.2974" y2="1249.2974"/><line style="stroke:#000000;stroke-width:2;" x1="92.5542" x2="110.5542" y1="1249.2974" y2="1231.2974"/><path d="M10,1253.2974 L10,1310.2974 L195,1310.2974 L195,1263.2974 L185,1253.2974 L10,1253.2974 " fill="#FF0000" style="stroke:#000000;stroke-width:1;"/><path d="M185,1253.2974 L185,1263.2974 L195,1263.2974 L185,1253.2974 " fill="#FF0000" style="stroke:#000000;stroke-width:1;"/><text fill="#000000" font-family="Verdana" font-size="13" lengthAdjust="spacing" textLength="135.6494" x="16" y="1271.3672">&#10060; MAUVAIS C&#194;BLE !</text><text fill="#000000" font-family="Verdana" font-size="13" lengthAdjust="spacing" textLength="138.3979" x="16" y="1287.1665">&#128308; Chantier bloqu&#233; 3j</text><text fill="#000000" font-family="Verdana" font-size="13" lengthAdjust="spacing" textLength="164.0044" x="16" y="1302.9658">&#128176; Perte estim&#233;e: 2,400&#8364;</text><rect fill="#FFFFFF" height="3" style="stroke:#FFFFFF;stroke-width:1;" width="1193.6675" x="5" y="1336.595"/><line style="stroke:#000000;stroke-width:0.5;" x1="5" x2="1198.6675" y1="1336.595" y2="1336.595"/><line style="stroke:#000000;stroke-width:0.5;" x1="5" x2="1198.6675" y1="1339.595" y2="1339.595"/><rect fill="#FFFFFF" height="23.7993" style="stroke:#000000;stroke-width:1;" width="174.0117" x="514.8279" y="1325.6953"/><text fill="#000000" font-family="Verdana" font-size="13" font-weight="bold" lengthAdjust="spacing" textLength="155.5684" x="520.8279" y="1342.7651">&#128202; BILAN PROCESSUS</text><path d="M46,1364.4946 L46,1484.4946 L1185,1484.4946 L1185,1374.4946 L1175,1364.4946 L46,1364.4946 " fill="#FFCCCC" style="stroke:#000000;stroke-width:1;"/><path d="M1175,1364.4946 L1175,1374.4946 L1185,1374.4946 L1175,1364.4946 " fill="#FFCCCC" style="stroke:#000000;stroke-width:1;"/><text fill="#000000" font-family="Verdana" font-size="13" font-weight="bold" lengthAdjust="spacing" textLength="173.9766" x="517.5884" y="1382.5645">M&#201;TRIQUES ACTUELLES</text><text fill="#000000" font-family="Verdana" font-size="13" lengthAdjust="spacing" textLength="187.4907" x="517.5884" y="1398.3638">&#9200; Dur&#233;e: 3 jours vs 2h cible</text><text fill="#000000" font-family="Verdana" font-size="13" lengthAdjust="spacing" textLength="158.4946" x="517.5884" y="1414.1631">&#128222; 15 appels/commande</text><text fill="#000000" font-family="Verdana" font-size="13" lengthAdjust="spacing" textLength="177.3472" x="517.5884" y="1429.9624">&#9851;&#65039; 7 ressaisies manuelles</text><text fill="#000000" font-family="Verdana" font-size="13" lengthAdjust="spacing" textLength="135.2305" x="517.5884" y="1445.7617">&#10060; Taux erreur: 50%</text><text fill="#000000" font-family="Verdana" font-size="13" lengthAdjust="spacing" textLength="165.8008" x="517.5884" y="1461.561">&#128176; Co&#251;t erreurs: 60K&#8364;/an</text><text fill="#000000" font-family="Verdana" font-size="13" lengthAdjust="spacing" textLength="152.3057" x="517.5884" y="1477.3604">&#128557; Stress &#233;lev&#233; &#233;quipes</text><text fill="#000000" font-family="Verdana" font-size="10" lengthAdjust="spacing" textLength="184.5947" x="1008.0728" y="20.0537">Etat des lieux - PROCESSUS ACTUEL</text><!--SRC=[ZLPDRzj64BtpLqmK59NSE9PbAm6Cs8KiouLJstLDkxtuiY97rWRaajvT2iurjnO50hGzj8SsHMy2MY2770hag7_YFz3yXBvTKjP7LQ02WfZScJSpRzxCye4TSigK9qAgG1GsKqNQPnq4GnOnQ-fPOIbcGudaufRMwUpyYsul32z3wdGlBdl7WPKsOGhvfc0LCUrGDqjJeMA66vq8orfoGlLZ114woWfjA2ueojA-i5OesmY2VdPBjUuG3v9rZHv-FPIM0y9FH3RJL3k1vvMgTuSyeAbTeqR2a3i9MCK4Z0felz0i2jgWKF8r0wwJo8Ztas81CdoPZ2G3j1CDXJKbMldIcyN2Yhum34jnZK8EUgK57lnvb2K9HrPcob2jTnjn0goma2EvSOWYrUCIqPzu1rHlPIHpP0-7LCYaD71_BLLmd5rBOoKOHHMzMr2eU1KjFIqTBGUSPxOAXpV_ZkOJaiPmeRsLVvx5tDsbvtX3csZlKSnWTo0ZuKfpdUgpoQIYtTqWS6JJ-fud7OtUBq-YoUzzA63hizRZzhB9EQTv8YtYAAIKesrKRrCgLUDAFGE5cTxH7E-TPfPXF1aF9cFjPIJJN4_6aJJyRCFRxKt3trPT0dedpvsqpb0Ij0Rx7DtWHg00HrfU3orbWpALXuU7NVpWzE7DZ- -evPEWd7LSGDoJtmXY126QPrKkXG5yOOoa-cPpkDrk1EY1747UKz44bRtpT8fnnKT3rlX7jNcEQdEkJatUUdq-u6RBHJD5Wk4pP7LMZF0OnBpek5YcXragimIQaceeBzkSwomkq9K7L-fS6YUp-6FM6lAWoJXX15jHJUYElE0LKw5u7fdg6BYXC4B7dpRcNBtw5vY8CcLH1GrcafopzyAyPzmY8dewp9GRXULoIwUbWYifHDCLn0gBwrejTCTF77cvnS8NHEnV8RU1rAbNVXajuO4FLheinJfdOuGqBedj5NILHzDC5l5MzMeEhhs2mWhFk0spb9ot-6-q9_F5LtCPdeHOCtAaOUD64xqSGGRFFsdL5cHMINkw8RQm8K1RnBcdpUs4icKkKQmU8Cz0GIJaWUK_qxjVJzvmve3h8hUE3_1Km7YnpTveTPDD91HZQeDxnAM97RdmzwlCoVNnAlGTEirIg3WH5ZU78QdGj1nEc5Wp1xxGLprZeTvg-etsF-PnhYjFPyXLJx04PzdYoglOerYQF5jeYwVnVazLHRY-53byIW0CP8pXcRopy3JO8I_Bkz8dcOsmYATxiOaV_Ez- -OvEEfTVTOv2wavUxH_tt7xmQK-lNEedsKqn6TFM2tVo_LiwOmquuCjqCiOARptQRZRlNltX9VFXpG_VqlxHSUTqxgi1cbbCuL4rzHLLkBtMrauctroS7trvsPj-PHptmhKr7DszVai7XVQnjkY5_veO6MeDANBjWWM2_agRRH9E0cRZVlxW-_Fxl_zwJKz9JxjWAisvFfCdu4BW8wTSXJlKRdxa0L5dDvkyjzM1sQ4dpSzHv8PG_lodFocq3dIwFV7_JI5peBexrfKR_0C0]--></g></svg>