<svg xmlns="http://www.w3.org/2000/svg" xmlns:xlink="http://www.w3.org/1999/xlink" contentStyleType="text/css" height="2925px" preserveAspectRatio="none" style="width:1140px;height:2925px;background:#FFFFFF;" version="1.1" viewBox="0 0 1140 2925" width="1140px" zoomAndPan="magnify"><title>Processus Commande Materiel - ETAT ACTUEL (CHAOS)</title><defs/><g><text fill="#000000" font-family="Arial" font-size="16" font-weight="bold" lengthAdjust="spacing" textLength="435.625" x="348.2372" y="40.0078">Processus Commande Materiel - ETAT ACTUEL (CHAOS)</text><line style="stroke:#333333;stroke-width:0.5;stroke-dasharray:5.0,5.0;" x1="95" x2="95" y1="172.6963" y2="2663.3638"/><line style="stroke:#333333;stroke-width:0.5;stroke-dasharray:5.0,5.0;" x1="252.9614" x2="252.9614" y1="172.6963" y2="2663.3638"/><line style="stroke:#333333;stroke-width:0.5;stroke-dasharray:5.0,5.0;" x1="405.5525" x2="405.5525" y1="172.6963" y2="2663.3638"/><line style="stroke:#333333;stroke-width:0.5;stroke-dasharray:5.0,5.0;" x1="562.6104" x2="562.6104" y1="172.6963" y2="2663.3638"/><line style="stroke:#333333;stroke-width:0.5;stroke-dasharray:5.0,5.0;" x1="686.8003" x2="686.8003" y1="172.6963" y2="2663.3638"/><line style="stroke:#333333;stroke-width:0.5;stroke-dasharray:5.0,5.0;" x1="797.6987" x2="797.6987" y1="172.6963" y2="2663.3638"/><line style="stroke:#333333;stroke-width:0.5;stroke-dasharray:5.0,5.0;" x1="925.2041" x2="925.2041" y1="172.6963" y2="2663.3638"/><text fill="#000000" font-family="Arial" font-size="11" font-weight="bold" lengthAdjust="spacing" textLength="25.6792" x="79.8823" y="147.7163">Marc</text><text fill="#000000" font-family="Arial" font-size="11" font-weight="bold" lengthAdjust="spacing" textLength="79.4438" x="53" y="160.3652">(Chef Chantier)</text><ellipse cx="95.7219" cy="74.3984" fill="#FFB6C1" rx="8" ry="8" style="stroke:#333333;stroke-width:2;"/><path d="M95.7219,82.3984 L95.7219,109.3984 M82.7219,90.3984 L108.7219,90.3984 M95.7219,109.3984 L82.7219,124.3984 M95.7219,109.3984 L108.7219,124.3984 " fill="none" style="stroke:#333333;stroke-width:2;"/><text fill="#000000" font-family="Arial" font-size="11" font-weight="bold" lengthAdjust="spacing" textLength="25.6792" x="79.8823" y="2682.6816">Marc</text><text fill="#000000" font-family="Arial" font-size="11" font-weight="bold" lengthAdjust="spacing" textLength="79.4438" x="53" y="2695.3306">(Chef Chantier)</text><ellipse cx="95.7219" cy="2717.6616" fill="#FFB6C1" rx="8" ry="8" style="stroke:#333333;stroke-width:2;"/><path d="M95.7219,2725.6616 L95.7219,2752.6616 M82.7219,2733.6616 L108.7219,2733.6616 M95.7219,2752.6616 L82.7219,2767.6616 M95.7219,2752.6616 L108.7219,2767.6616 " fill="none" style="stroke:#333333;stroke-width:2;"/><text fill="#000000" font-family="Arial" font-size="11" font-weight="bold" lengthAdjust="spacing" textLength="31.8022" x="234.063" y="147.7163">Sylvie</text><text fill="#000000" font-family="Arial" font-size="11" font-weight="bold" lengthAdjust="spacing" textLength="44.0054" x="227.9614" y="160.3652">(Achats)</text><ellipse cx="252.9641" cy="74.3984" fill="#ADD8E6" rx="8" ry="8" style="stroke:#333333;stroke-width:2;"/><path d="M252.9641,82.3984 L252.9641,109.3984 M239.9641,90.3984 L265.9641,90.3984 M252.9641,109.3984 L239.9641,124.3984 M252.9641,109.3984 L265.9641,124.3984 " fill="none" style="stroke:#333333;stroke-width:2;"/><text fill="#000000" font-family="Arial" font-size="11" font-weight="bold" lengthAdjust="spacing" textLength="31.8022" x="234.063" y="2682.6816">Sylvie</text><text fill="#000000" font-family="Arial" font-size="11" font-weight="bold" lengthAdjust="spacing" textLength="44.0054" x="227.9614" y="2695.3306">(Achats)</text><ellipse cx="252.9641" cy="2717.6616" fill="#ADD8E6" rx="8" ry="8" style="stroke:#333333;stroke-width:2;"/><path d="M252.9641,2725.6616 L252.9641,2752.6616 M239.9641,2733.6616 L265.9641,2733.6616 M252.9641,2752.6616 L239.9641,2767.6616 M252.9641,2752.6616 L265.9641,2767.6616 " fill="none" style="stroke:#333333;stroke-width:2;"/><text fill="#000000" font-family="Arial" font-size="11" font-weight="bold" lengthAdjust="spacing" textLength="20.7915" x="392.4014" y="147.7163">Eric</text><text fill="#000000" font-family="Arial" font-size="11" font-weight="bold" lengthAdjust="spacing" textLength="38.4893" x="383.5525" y="160.3652">(Depot)</text><ellipse cx="405.7971" cy="74.3984" fill="#98FB98" rx="8" ry="8" style="stroke:#333333;stroke-width:2;"/><path d="M405.7971,82.3984 L405.7971,109.3984 M392.7971,90.3984 L418.7971,90.3984 M405.7971,109.3984 L392.7971,124.3984 M405.7971,109.3984 L418.7971,124.3984 " fill="none" style="stroke:#333333;stroke-width:2;"/><text fill="#000000" font-family="Arial" font-size="11" font-weight="bold" lengthAdjust="spacing" textLength="20.7915" x="392.4014" y="2682.6816">Eric</text><text fill="#000000" font-family="Arial" font-size="11" font-weight="bold" lengthAdjust="spacing" textLength="38.4893" x="383.5525" y="2695.3306">(Depot)</text><ellipse cx="405.7971" cy="2717.6616" fill="#98FB98" rx="8" ry="8" style="stroke:#333333;stroke-width:2;"/><path d="M405.7971,2725.6616 L405.7971,2752.6616 M392.7971,2733.6616 L418.7971,2733.6616 M405.7971,2752.6616 L392.7971,2767.6616 M405.7971,2752.6616 L418.7971,2767.6616 " fill="none" style="stroke:#333333;stroke-width:2;"/><rect fill="#FF6B6B" height="46.6489" rx="2.5" ry="2.5" style="stroke:#333333;stroke-width:2;" width="87.1899" x="519.6104" y="125.0474"/><text fill="#000000" font-family="Arial" font-size="11" lengthAdjust="spacing" textLength="53.1899" x="536.6104" y="152.3652">Sage MDE</text><rect fill="#FF6B6B" height="46.6489" rx="2.5" ry="2.5" style="stroke:#333333;stroke-width:2;" width="87.1899" x="519.6104" y="2662.3638"/><text fill="#000000" font-family="Arial" font-size="11" lengthAdjust="spacing" textLength="53.1899" x="536.6104" y="2689.6816">Sage MDE</text><rect fill="#FFD700" height="46.6489" rx="2.5" ry="2.5" style="stroke:#333333;stroke-width:2;" width="60.8984" x="656.8003" y="125.0474"/><text fill="#000000" font-family="Arial" font-size="11" lengthAdjust="spacing" textLength="26.8984" x="673.8003" y="152.3652">Excel</text><rect fill="#FFD700" height="46.6489" rx="2.5" ry="2.5" style="stroke:#333333;stroke-width:2;" width="60.8984" x="656.8003" y="2662.3638"/><text fill="#000000" font-family="Arial" font-size="11" lengthAdjust="spacing" textLength="26.8984" x="673.8003" y="2689.6816">Excel</text><rect fill="#E2E2F0" height="46.6489" rx="2.5" ry="2.5" style="stroke:#333333;stroke-width:2;" width="61.5054" x="767.6987" y="125.0474"/><text fill="#000000" font-family="Arial" font-size="11" lengthAdjust="spacing" textLength="27.5054" x="784.6987" y="152.3652">Email</text><rect fill="#E2E2F0" height="46.6489" rx="2.5" ry="2.5" style="stroke:#333333;stroke-width:2;" width="61.5054" x="767.6987" y="2662.3638"/><text fill="#000000" font-family="Arial" font-size="11" lengthAdjust="spacing" textLength="27.5054" x="784.6987" y="2689.6816">Email</text><rect fill="#F5DEB3" height="46.6489" rx="2.5" ry="2.5" style="stroke:#333333;stroke-width:2;" width="92.0776" x="879.2041" y="125.0474"/><text fill="#000000" font-family="Arial" font-size="11" lengthAdjust="spacing" textLength="58.0776" x="896.2041" y="152.3652">Fournisseur</text><rect fill="#F5DEB3" height="46.6489" rx="2.5" ry="2.5" style="stroke:#333333;stroke-width:2;" width="92.0776" x="879.2041" y="2662.3638"/><text fill="#000000" font-family="Arial" font-size="11" lengthAdjust="spacing" textLength="58.0776" x="896.2041" y="2689.6816">Fournisseur</text><rect fill="#EEEEEE" height="3" style="stroke:#EEEEEE;stroke-width:1;" width="1133.0994" x="0" y="212.0208"/><line style="stroke:#000000;stroke-width:1;" x1="0" x2="1133.0994" y1="212.0208" y2="212.0208"/><line style="stroke:#000000;stroke-width:1;" x1="0" x2="1133.0994" y1="215.0208" y2="215.0208"/><rect fill="#EEEEEE" height="40.6489" style="stroke:#000000;stroke-width:2;" width="144.6284" x="494.2355" y="192.6963"/><text fill="#000000" font-family="Arial" font-size="11" font-weight="bold" lengthAdjust="spacing" textLength="107.5723" x="510.2355" y="217.0142">JOUR 1 - Lundi 9h00</text><path d="M28,248.3452 L28,300.3452 L162,300.3452 L162,258.3452 L152,248.3452 L28,248.3452 " fill="#FFF9E6" style="stroke:#333333;stroke-width:1;"/><path d="M152,248.3452 L152,258.3452 L162,258.3452 L152,248.3452 " fill="#FFF9E6" style="stroke:#333333;stroke-width:1;"/><text fill="#000000" font-family="Arial" font-size="10" font-weight="bold" lengthAdjust="spacing" textLength="74.4531" x="58.0171" y="272.7251">Besoin identifie</text><text fill="#000000" font-family="Arial" font-size="10" lengthAdjust="spacing" textLength="84.4873" x="53" y="284.2241">Cable 3G2.5 - 50m</text><line style="stroke:#333333;stroke-width:2;" x1="95.7219" x2="137.7219" y1="346.0918" y2="346.0918"/><line style="stroke:#333333;stroke-width:2;" x1="137.7219" x2="137.7219" y1="346.0918" y2="359.0918"/><line style="stroke:#333333;stroke-width:2;" x1="96.7219" x2="137.7219" y1="359.0918" y2="359.0918"/><polygon fill="#333333" points="106.7219,355.0918,96.7219,359.0918,106.7219,363.0918,102.7219,359.0918" style="stroke:#333333;stroke-width:1;"/><text fill="#000000" font-family="Arial" font-size="10" lengthAdjust="spacing" textLength="87.8369" x="112.7219" y="331.9727">Cherche bon papier</text><path d="M221.8369,311.3433 L221.8369,363.3433 L413.8369,363.3433 L413.8369,321.3433 L403.8369,311.3433 L221.8369,311.3433 " fill="#FFCCCC" style="stroke:#333333;stroke-width:1;"/><path d="M403.8369,311.3433 L403.8369,321.3433 L413.8369,321.3433 L403.8369,311.3433 " fill="#FFCCCC" style="stroke:#333333;stroke-width:1;"/><text fill="#000000" font-family="Arial" font-size="10" lengthAdjust="spacing" textLength="142.3096" x="246.8369" y="335.7231">&#240;&#376;&#8221;&#180; Support papier uniquement</text><text fill="#000000" font-family="Arial" font-size="10" lengthAdjust="spacing" textLength="72.6465" x="281.6685" y="347.2222">&#226;&#65533;&#176; 5 min perdu</text><line style="stroke:#333333;stroke-width:2;" x1="95.7219" x2="137.7219" y1="409.0898" y2="409.0898"/><line style="stroke:#333333;stroke-width:2;" x1="137.7219" x2="137.7219" y1="409.0898" y2="422.0898"/><line style="stroke:#333333;stroke-width:2;" x1="96.7219" x2="137.7219" y1="422.0898" y2="422.0898"/><polygon fill="#333333" points="106.7219,418.0898,96.7219,422.0898,106.7219,426.0898,102.7219,422.0898" style="stroke:#333333;stroke-width:1;"/><text fill="#000000" font-family="Arial" font-size="10" lengthAdjust="spacing" textLength="96.7139" x="112.7219" y="394.9707">Remplit bon a la main</text><path d="M230.7139,374.3413 L230.7139,426.3413 L396.7139,426.3413 L396.7139,384.3413 L386.7139,374.3413 L230.7139,374.3413 " fill="#FFCCCC" style="stroke:#333333;stroke-width:1;"/><path d="M386.7139,374.3413 L386.7139,384.3413 L396.7139,384.3413 L386.7139,374.3413 " fill="#FFCCCC" style="stroke:#333333;stroke-width:1;"/><text fill="#000000" font-family="Arial" font-size="10" lengthAdjust="spacing" textLength="113.374" x="257.3325" y="398.7212">&#240;&#376;&#8221;&#180; Reference imprecise</text><text fill="#000000" font-family="Arial" font-size="10" lengthAdjust="spacing" textLength="116.6113" x="255.7139" y="410.2202">"cable 3G2.5" sans details</text><line style="stroke:#333333;stroke-width:2;" x1="234.9641" x2="244.9641" y1="473.5879" y2="483.5879"/><line style="stroke:#333333;stroke-width:2;" x1="234.9641" x2="244.9641" y1="483.5879" y2="473.5879"/><line style="stroke:#333333;stroke-width:2;" x1="95.7219" x2="239.9641" y1="478.5879" y2="478.5879"/><text fill="#000000" font-family="Arial" font-size="10" lengthAdjust="spacing" textLength="85.6299" x="131.5281" y="464.4688">Appel telephonique</text><path d="M257,437.3394 L257,489.3394 L398,489.3394 L398,447.3394 L388,437.3394 L257,437.3394 " fill="#FFCCCC" style="stroke:#333333;stroke-width:1;"/><path d="M388,437.3394 L388,447.3394 L398,447.3394 L388,437.3394 " fill="#FFCCCC" style="stroke:#333333;stroke-width:1;"/><text fill="#000000" font-family="Arial" font-size="10" lengthAdjust="spacing" textLength="91.7188" x="282" y="461.7192">&#240;&#376;&#8221;&#180; Pas de reponse</text><text fill="#000000" font-family="Arial" font-size="10" lengthAdjust="spacing" textLength="48.3691" x="303.6748" y="473.2183">En reunion</text><line style="stroke:#333333;stroke-width:2;" x1="95.7219" x2="137.7219" y1="532.8364" y2="532.8364"/><line style="stroke:#333333;stroke-width:2;" x1="137.7219" x2="137.7219" y1="532.8364" y2="545.8364"/><line style="stroke:#333333;stroke-width:2;" x1="96.7219" x2="137.7219" y1="545.8364" y2="545.8364"/><polygon fill="#333333" points="106.7219,541.8364,96.7219,545.8364,106.7219,549.8364,102.7219,545.8364" style="stroke:#333333;stroke-width:1;"/><text fill="#000000" font-family="Arial" font-size="10" lengthAdjust="spacing" textLength="74.4873" x="112.7219" y="518.7173">Rappelle... 3 fois</text><path d="M208.4873,503.8374 L208.4873,544.8374 L365.4873,544.8374 L365.4873,513.8374 L355.4873,503.8374 L208.4873,503.8374 " fill="#FFCCCC" style="stroke:#333333;stroke-width:1;"/><path d="M355.4873,503.8374 L355.4873,513.8374 L365.4873,513.8374 L355.4873,503.8374 " fill="#FFCCCC" style="stroke:#333333;stroke-width:1;"/><text fill="#000000" font-family="Arial" font-size="10" lengthAdjust="spacing" textLength="107.6709" x="233.4873" y="528.2173">&#226;&#65533;&#176; 25 minutes perdues</text><polygon fill="#333333" points="240.9641,587.3354,250.9641,591.3354,240.9641,595.3354,244.9641,591.3354" style="stroke:#333333;stroke-width:1;"/><line style="stroke:#333333;stroke-width:2;" x1="95.7219" x2="246.9641" y1="591.3354" y2="591.3354"/><text fill="#000000" font-family="Arial" font-size="10" lengthAdjust="spacing" textLength="92.2754" x="128.2053" y="577.2163">Appel reussi (10h45)</text><path d="M54,604.3354 L54,656.3354 L293,656.3354 L293,614.3354 L283,604.3354 L54,604.3354 " fill="#FFFFCC" style="stroke:#333333;stroke-width:1;"/><path d="M283,604.3354 L283,614.3354 L293,614.3354 L283,604.3354 " fill="#FFFFCC" style="stroke:#333333;stroke-width:1;"/><text fill="#000000" font-family="Arial" font-size="10" lengthAdjust="spacing" textLength="69.4922" x="139.2373" y="628.7153">Echange verbal</text><text fill="#000000" font-family="Arial" font-size="10" lengthAdjust="spacing" textLength="102.959" x="122.5039" y="640.2144">"J'ai besoin de cable..."</text><polygon fill="#333333" points="551.2053,695.8325,561.2053,699.8325,551.2053,703.8325,555.2053,699.8325" style="stroke:#333333;stroke-width:1;"/><line style="stroke:#333333;stroke-width:2;" x1="252.9641" x2="557.2053" y1="699.8325" y2="699.8325"/><text fill="#000000" font-family="Arial" font-size="10" lengthAdjust="spacing" textLength="112.1631" x="352.0032" y="685.7134">Recherche "cable 3G2.5"</text><polygon fill="#333333" points="263.9641,784.5781,253.9641,788.5781,263.9641,792.5781,259.9641,788.5781" style="stroke:#333333;stroke-width:1;"/><line style="stroke:#333333;stroke-width:2;stroke-dasharray:2.0,2.0;" x1="257.9641" x2="562.2053" y1="788.5781" y2="788.5781"/><text fill="#000000" font-family="Arial" font-size="10" lengthAdjust="spacing" textLength="57.251" x="379.4592" y="774.459">12 resultats !</text><path d="M568,712.8325 L568,833.8325 L758,833.8325 L758,722.8325 L748,712.8325 L568,712.8325 " fill="#FFCCCC" style="stroke:#333333;stroke-width:1;"/><path d="M748,712.8325 L748,722.8325 L758,722.8325 L748,712.8325 " fill="#FFCCCC" style="stroke:#333333;stroke-width:1;"/><text fill="#000000" font-family="Arial" font-size="10" lengthAdjust="spacing" textLength="18.8916" x="593" y="737.2124">&#240;&#376;&#8221;&#180;</text><text fill="#000000" font-family="Arial" font-size="10" font-weight="bold" lengthAdjust="spacing" textLength="118.9063" x="614.6699" y="737.2124">BASE DONNEES CHAOS</text><text fill="#000000" font-family="Arial" font-size="10" lengthAdjust="spacing" textLength="110.6201" x="607.978" y="748.7114">12 references differentes</text><text fill="#000000" font-family="Arial" font-size="10" lengthAdjust="spacing" textLength="99.4873" x="613.5444" y="760.2104">pour le MEME produit:</text><text fill="#000000" font-family="Arial" font-size="10" lengthAdjust="spacing" textLength="132.2559" x="597.1602" y="771.7095">- CABLE-3G2.5-ROUGE-50M</text><text fill="#000000" font-family="Arial" font-size="10" lengthAdjust="spacing" textLength="85.0537" x="620.7612" y="783.2085">- CBL_3G25_R_50</text><text fill="#000000" font-family="Arial" font-size="10" lengthAdjust="spacing" textLength="109.4727" x="608.5518" y="794.7075">- 3G2.5-CABLE-ROUGE</text><text fill="#000000" font-family="Arial" font-size="10" lengthAdjust="spacing" textLength="119.4971" x="603.5396" y="806.2065">- CABLE_3G_2.5_ROUGE</text><text fill="#000000" font-family="Arial" font-size="10" lengthAdjust="spacing" textLength="14.4434" x="656.0664" y="817.7056">- ...</text><line style="stroke:#333333;stroke-width:2;" x1="252.9641" x2="294.9641" y1="879.5732" y2="879.5732"/><line style="stroke:#333333;stroke-width:2;" x1="294.9641" x2="294.9641" y1="879.5732" y2="892.5732"/><line style="stroke:#333333;stroke-width:2;" x1="253.9641" x2="294.9641" y1="892.5732" y2="892.5732"/><polygon fill="#333333" points="263.9641,888.5732,253.9641,892.5732,263.9641,896.5732,259.9641,892.5732" style="stroke:#333333;stroke-width:1;"/><text fill="#000000" font-family="Arial" font-size="10" lengthAdjust="spacing" textLength="118.833" x="269.9641" y="865.4541">Choisit une ref "au hasard"</text><path d="M409.833,844.8247 L409.833,896.8247 L548.833,896.8247 L548.833,854.8247 L538.833,844.8247 L409.833,844.8247 " fill="#FFF9E6" style="stroke:#333333;stroke-width:1;"/><path d="M538.833,844.8247 L538.833,854.8247 L548.833,854.8247 L538.833,844.8247 " fill="#FFF9E6" style="stroke:#333333;stroke-width:1;"/><text fill="#000000" font-family="Arial" font-size="10" lengthAdjust="spacing" textLength="86.7188" x="436.2295" y="869.2046">&#240;&#376;&#376;&#160; Faible chance</text><text fill="#000000" font-family="Arial" font-size="10" lengthAdjust="spacing" textLength="89.5117" x="434.833" y="880.7036">que ce soit la bonne</text><polygon fill="#333333" points="675.2495,945.0713,685.2495,949.0713,675.2495,953.0713,679.2495,949.0713" style="stroke:#333333;stroke-width:1;"/><line style="stroke:#333333;stroke-width:2;" x1="252.9641" x2="681.2495" y1="949.0713" y2="949.0713"/><text fill="#000000" font-family="Arial" font-size="10" lengthAdjust="spacing" textLength="90.0439" x="425.0848" y="934.9521">Cherche fournisseur</text><path d="M692,907.8228 L692,959.8228 L854,959.8228 L854,917.8228 L844,907.8228 L692,907.8228 " fill="#FFCCCC" style="stroke:#333333;stroke-width:1;"/><path d="M844,907.8228 L844,917.8228 L854,917.8228 L844,907.8228 " fill="#FFCCCC" style="stroke:#333333;stroke-width:1;"/><text fill="#000000" font-family="Arial" font-size="10" lengthAdjust="spacing" textLength="112.8418" x="717" y="932.2026">&#240;&#376;&#8221;&#180; Donnees eparpillees</text><text fill="#000000" font-family="Arial" font-size="10" lengthAdjust="spacing" textLength="44.292" x="751.2749" y="943.7017">&#226;&#65533;&#176; 8 min</text><polygon fill="#333333" points="913.2429,1008.0693,923.2429,1012.0693,913.2429,1016.0693,917.2429,1012.0693" style="stroke:#333333;stroke-width:1;"/><line style="stroke:#333333;stroke-width:2;" x1="252.9641" x2="919.2429" y1="1012.0693" y2="1012.0693"/><text fill="#000000" font-family="Arial" font-size="10" lengthAdjust="spacing" textLength="85.6299" x="546.2886" y="997.9502">Appel telephonique</text><path d="M930,970.8208 L930,1022.8208 L1122,1022.8208 L1122,980.8208 L1112,970.8208 L930,970.8208 " fill="#FFCCCC" style="stroke:#333333;stroke-width:1;"/><path d="M1112,970.8208 L1112,980.8208 L1122,980.8208 L1112,970.8208 " fill="#FFCCCC" style="stroke:#333333;stroke-width:1;"/><text fill="#000000" font-family="Arial" font-size="10" lengthAdjust="spacing" textLength="142.8564" x="955" y="995.2007">&#240;&#376;&#8221;&#180; Pas de commande en ligne</text><text fill="#000000" font-family="Arial" font-size="10" lengthAdjust="spacing" textLength="110.4639" x="971.1963" y="1006.6997">&#226;&#65533;&#176; 15 min au telephone</text><polygon fill="#333333" points="263.9641,1062.3179,253.9641,1066.3179,263.9641,1070.3179,259.9641,1066.3179" style="stroke:#333333;stroke-width:1;"/><line style="stroke:#333333;stroke-width:2;stroke-dasharray:2.0,2.0;" x1="257.9641" x2="924.2429" y1="1066.3179" y2="1066.3179"/><text fill="#000000" font-family="Arial" font-size="10" lengthAdjust="spacing" textLength="76.0303" x="551.0884" y="1052.1987">"Dispo sous 48h"</text><polygon fill="#333333" points="786.4514,1139.5645,796.4514,1143.5645,786.4514,1147.5645,790.4514,1143.5645" style="stroke:#333333;stroke-width:1;"/><line style="stroke:#333333;stroke-width:2;" x1="252.9641" x2="792.4514" y1="1143.5645" y2="1143.5645"/><text fill="#000000" font-family="Arial" font-size="10" lengthAdjust="spacing" textLength="103.9209" x="473.7473" y="1129.4453">Ecrit email confirmation</text><path d="M803,1079.3179 L803,1177.3179 L995,1177.3179 L995,1089.3179 L985,1079.3179 L803,1079.3179 " fill="#FFCCCC" style="stroke:#333333;stroke-width:1;"/><path d="M985,1079.3179 L985,1089.3179 L995,1089.3179 L985,1079.3179 " fill="#FFCCCC" style="stroke:#333333;stroke-width:1;"/><text fill="#000000" font-family="Arial" font-size="10" lengthAdjust="spacing" textLength="18.8916" x="856.4937" y="1103.6978">&#240;&#376;&#8221;&#180;</text><text fill="#000000" font-family="Arial" font-size="10" font-weight="bold" lengthAdjust="spacing" textLength="63.9111" x="878.1636" y="1103.6978">RE-SAISIE #4</text><text fill="#000000" font-family="Arial" font-size="10" lengthAdjust="spacing" textLength="142.5684" x="828" y="1115.1968">&#226;&#8482;&#187;&#239;&#184;&#65533; Recopie manuellement:</text><text fill="#000000" font-family="Arial" font-size="10" lengthAdjust="spacing" textLength="52.2461" x="873.1611" y="1126.6958">- Reference</text><text fill="#000000" font-family="Arial" font-size="10" lengthAdjust="spacing" textLength="43.9111" x="877.3286" y="1138.1948">- Quantite</text><text fill="#000000" font-family="Arial" font-size="10" lengthAdjust="spacing" textLength="23.3301" x="887.6191" y="1149.6938">- Prix</text><text fill="#000000" font-family="Arial" font-size="10" lengthAdjust="spacing" textLength="42.793" x="877.8877" y="1161.1929">- Adresse</text><polygon fill="#333333" points="551.2053,1219.811,561.2053,1223.811,551.2053,1227.811,555.2053,1223.811" style="stroke:#333333;stroke-width:1;"/><line style="stroke:#333333;stroke-width:2;" x1="252.9641" x2="557.2053" y1="1223.811" y2="1223.811"/><text fill="#000000" font-family="Arial" font-size="10" lengthAdjust="spacing" textLength="76.6992" x="369.7351" y="1209.6919">Saisit commande</text><path d="M568,1188.312 L568,1229.312 L703,1229.312 L703,1198.312 L693,1188.312 L568,1188.312 " fill="#FFCCCC" style="stroke:#333333;stroke-width:1;"/><path d="M693,1188.312 L693,1198.312 L703,1198.312 L693,1188.312 " fill="#FFCCCC" style="stroke:#333333;stroke-width:1;"/><text fill="#000000" font-family="Arial" font-size="10" lengthAdjust="spacing" textLength="18.8916" x="593" y="1212.6919">&#240;&#376;&#8221;&#180;</text><text fill="#000000" font-family="Arial" font-size="10" font-weight="bold" lengthAdjust="spacing" textLength="63.9111" x="614.6699" y="1212.6919">RE-SAISIE #5</text><polygon fill="#333333" points="675.2495,1271.3101,685.2495,1275.3101,675.2495,1279.3101,679.2495,1275.3101" style="stroke:#333333;stroke-width:1;"/><line style="stroke:#333333;stroke-width:2;" x1="252.9641" x2="681.2495" y1="1275.3101" y2="1275.3101"/><text fill="#000000" font-family="Arial" font-size="10" lengthAdjust="spacing" textLength="71.6992" x="434.2572" y="1261.1909">Saisit dans suivi</text><path d="M692,1239.811 L692,1280.811 L827,1280.811 L827,1249.811 L817,1239.811 L692,1239.811 " fill="#FFCCCC" style="stroke:#333333;stroke-width:1;"/><path d="M817,1239.811 L817,1249.811 L827,1249.811 L817,1239.811 " fill="#FFCCCC" style="stroke:#333333;stroke-width:1;"/><text fill="#000000" font-family="Arial" font-size="10" lengthAdjust="spacing" textLength="18.8916" x="717" y="1264.1909">&#240;&#376;&#8221;&#180;</text><text fill="#000000" font-family="Arial" font-size="10" font-weight="bold" lengthAdjust="spacing" textLength="63.9111" x="738.6699" y="1264.1909">RE-SAISIE #6</text><polygon fill="#333333" points="106.7219,1319.8091,96.7219,1323.8091,106.7219,1327.8091,102.7219,1323.8091" style="stroke:#333333;stroke-width:1;"/><line style="stroke:#333333;stroke-width:2;" x1="100.7219" x2="251.9641" y1="1323.8091" y2="1323.8091"/><text fill="#000000" font-family="Arial" font-size="10" lengthAdjust="spacing" textLength="113.2422" x="117.7219" y="1309.6899">SMS "Livraison mercredi"</text><rect fill="#EEEEEE" height="3" style="stroke:#EEEEEE;stroke-width:1;" width="1133.0994" x="0" y="1361.1335"/><line style="stroke:#000000;stroke-width:1;" x1="0" x2="1133.0994" y1="1361.1335" y2="1361.1335"/><line style="stroke:#000000;stroke-width:1;" x1="0" x2="1133.0994" y1="1364.1335" y2="1364.1335"/><rect fill="#EEEEEE" height="40.6489" style="stroke:#000000;stroke-width:2;" width="115.9038" x="508.5978" y="1341.8091"/><text fill="#000000" font-family="Arial" font-size="11" font-weight="bold" lengthAdjust="spacing" textLength="78.8477" x="524.5978" y="1366.127">JOUR 2 - Mardi</text><path d="M38,1397.458 L38,1449.458 L981,1449.458 L981,1407.458 L971,1397.458 L38,1397.458 " fill="#FFFFCC" style="stroke:#333333;stroke-width:1;"/><path d="M971,1397.458 L971,1407.458 L981,1407.458 L971,1397.458 " fill="#FFFFCC" style="stroke:#333333;stroke-width:1;"/><text fill="#000000" font-family="Arial" font-size="10" lengthAdjust="spacing" textLength="30" x="444.6409" y="1421.8379">&#226;&#65533;&#184;&#239;&#184;&#65533;</text><text fill="#000000" font-family="Arial" font-size="10" font-weight="bold" lengthAdjust="spacing" textLength="97.2217" x="477.4192" y="1421.8379">CHANTIER BLOQUE</text><text fill="#000000" font-family="Arial" font-size="10" lengthAdjust="spacing" textLength="71.1475" x="474.0671" y="1433.3369">Attente livraison</text><polygon fill="#333333" points="240.9641,1497.7046,250.9641,1501.7046,240.9641,1505.7046,244.9641,1501.7046" style="stroke:#333333;stroke-width:1;"/><line style="stroke:#333333;stroke-width:2;" x1="95.7219" x2="246.9641" y1="1501.7046" y2="1501.7046"/><text fill="#000000" font-family="Arial" font-size="10" lengthAdjust="spacing" textLength="85.0488" x="131.8186" y="1487.5854">Rappelle pour suivi</text><path d="M257,1460.4561 L257,1512.4561 L400,1512.4561 L400,1470.4561 L390,1460.4561 L257,1460.4561 " fill="#FFCCCC" style="stroke:#333333;stroke-width:1;"/><path d="M390,1460.4561 L390,1470.4561 L400,1470.4561 L390,1460.4561 " fill="#FFCCCC" style="stroke:#333333;stroke-width:1;"/><text fill="#000000" font-family="Arial" font-size="10" lengthAdjust="spacing" textLength="93.374" x="282" y="1484.8359">&#240;&#376;&#8221;&#180; Aucune visibilite</text><text fill="#000000" font-family="Arial" font-size="10" lengthAdjust="spacing" textLength="46.6846" x="305.3447" y="1496.335">temps reel</text><rect fill="#EEEEEE" height="3" style="stroke:#EEEEEE;stroke-width:1;" width="1133.0994" x="0" y="1547.7786"/><line style="stroke:#000000;stroke-width:1;" x1="0" x2="1133.0994" y1="1547.7786" y2="1547.7786"/><line style="stroke:#000000;stroke-width:1;" x1="0" x2="1133.0994" y1="1550.7786" y2="1550.7786"/><rect fill="#EEEEEE" height="40.6489" style="stroke:#000000;stroke-width:2;" width="160.5483" x="486.2755" y="1528.4541"/><text fill="#000000" font-family="Arial" font-size="11" font-weight="bold" lengthAdjust="spacing" textLength="123.4922" x="502.2755" y="1552.772">JOUR 3 - Mercredi 9h00</text><polygon fill="#333333" points="416.7971,1612.6021,406.7971,1616.6021,416.7971,1620.6021,412.7971,1616.6021" style="stroke:#333333;stroke-width:1;"/><line style="stroke:#333333;stroke-width:2;" x1="410.7971" x2="924.2429" y1="1616.6021" y2="1616.6021"/><text fill="#000000" font-family="Arial" font-size="10" lengthAdjust="spacing" textLength="75.0342" x="628.0029" y="1602.4829">Livraison camion</text><line style="stroke:#333333;stroke-width:2;" x1="405.7971" x2="447.7971" y1="1664.3506" y2="1664.3506"/><line style="stroke:#333333;stroke-width:2;" x1="447.7971" x2="447.7971" y1="1664.3506" y2="1677.3506"/><line style="stroke:#333333;stroke-width:2;" x1="406.7971" x2="447.7971" y1="1677.3506" y2="1677.3506"/><polygon fill="#333333" points="416.7971,1673.3506,406.7971,1677.3506,416.7971,1681.3506,412.7971,1677.3506" style="stroke:#333333;stroke-width:1;"/><text fill="#000000" font-family="Arial" font-size="10" lengthAdjust="spacing" textLength="123.4082" x="422.7971" y="1650.2314">Cherche bon de commande</text><path d="M567.4082,1629.6021 L567.4082,1681.6021 L749.4082,1681.6021 L749.4082,1639.6021 L739.4082,1629.6021 L567.4082,1629.6021 " fill="#FFCCCC" style="stroke:#333333;stroke-width:1;"/><path d="M739.4082,1629.6021 L739.4082,1639.6021 L749.4082,1639.6021 L739.4082,1629.6021 " fill="#FFCCCC" style="stroke:#333333;stroke-width:1;"/><text fill="#000000" font-family="Arial" font-size="10" lengthAdjust="spacing" textLength="132.8418" x="592.4082" y="1653.9819">&#240;&#376;&#8221;&#180; Pas de reference croisee</text><text fill="#000000" font-family="Arial" font-size="10" lengthAdjust="spacing" textLength="99.8779" x="608.8901" y="1665.481">&#226;&#65533;&#176; 15 min a chercher</text><line style="stroke:#333333;stroke-width:2;" x1="405.7971" x2="447.7971" y1="1738.8477" y2="1738.8477"/><line style="stroke:#333333;stroke-width:2;" x1="447.7971" x2="447.7971" y1="1738.8477" y2="1751.8477"/><line style="stroke:#333333;stroke-width:2;" x1="406.7971" x2="447.7971" y1="1751.8477" y2="1751.8477"/><polygon fill="#333333" points="416.7971,1747.8477,406.7971,1751.8477,416.7971,1755.8477,412.7971,1751.8477" style="stroke:#333333;stroke-width:1;"/><text fill="#000000" font-family="Arial" font-size="10" lengthAdjust="spacing" textLength="91.1523" x="422.7971" y="1724.7285">Compare references</text><path d="M535.1523,1692.6001 L535.1523,1767.6001 L732.1523,1767.6001 L732.1523,1702.6001 L722.1523,1692.6001 L535.1523,1692.6001 " fill="#FFCCCC" style="stroke:#333333;stroke-width:1;"/><path d="M722.1523,1692.6001 L722.1523,1702.6001 L732.1523,1702.6001 L722.1523,1692.6001 " fill="#FFCCCC" style="stroke:#333333;stroke-width:1;"/><text fill="#000000" font-family="Arial" font-size="10" lengthAdjust="spacing" textLength="18.8916" x="566.5049" y="1716.98">&#240;&#376;&#8221;&#180;</text><text fill="#000000" font-family="Arial" font-size="10" font-weight="bold" lengthAdjust="spacing" textLength="112.7832" x="588.1748" y="1716.98">NOMENCLATURES &#226;&#8240;&#160;</text><text fill="#000000" font-family="Arial" font-size="10" lengthAdjust="spacing" textLength="102.7002" x="582.3813" y="1728.479">Bon: "CBL-3x2.5-R-50"</text><text fill="#000000" font-family="Arial" font-size="10" lengthAdjust="spacing" textLength="147.1582" x="560.1523" y="1739.978">Cmd: "CABLE_3G_2.5_ROUGE"</text><text fill="#000000" font-family="Arial" font-size="10" lengthAdjust="spacing" textLength="83.0566" x="592.2031" y="1751.4771">C'est le meme ???</text><polygon fill="#333333" points="263.9641,1815.8447,253.9641,1819.8447,263.9641,1823.8447,259.9641,1819.8447" style="stroke:#333333;stroke-width:1;"/><line style="stroke:#333333;stroke-width:2;" x1="257.9641" x2="404.7971" y1="1819.8447" y2="1819.8447"/><text fill="#000000" font-family="Arial" font-size="10" lengthAdjust="spacing" textLength="76.1523" x="291.3044" y="1805.7256">Appel verification</text><path d="M410,1778.5962 L410,1830.5962 L558,1830.5962 L558,1788.5962 L548,1778.5962 L410,1778.5962 " fill="#FFCCCC" style="stroke:#333333;stroke-width:1;"/><path d="M548,1778.5962 L548,1788.5962 L558,1788.5962 L548,1778.5962 " fill="#FFCCCC" style="stroke:#333333;stroke-width:1;"/><text fill="#000000" font-family="Arial" font-size="10" lengthAdjust="spacing" textLength="98.3789" x="435" y="1802.9761">&#240;&#376;&#8221;&#180; Pas de tracabilite</text><text fill="#000000" font-family="Arial" font-size="10" lengthAdjust="spacing" textLength="49.8535" x="459.2627" y="1814.4751">&#226;&#65533;&#176; 10 min</text><line style="stroke:#333333;stroke-width:2;" x1="405.7971" x2="447.7971" y1="1876.3428" y2="1876.3428"/><line style="stroke:#333333;stroke-width:2;" x1="447.7971" x2="447.7971" y1="1876.3428" y2="1889.3428"/><line style="stroke:#333333;stroke-width:2;" x1="406.7971" x2="447.7971" y1="1889.3428" y2="1889.3428"/><polygon fill="#333333" points="416.7971,1885.3428,406.7971,1889.3428,416.7971,1893.3428,412.7971,1889.3428" style="stroke:#333333;stroke-width:1;"/><text fill="#000000" font-family="Arial" font-size="10" lengthAdjust="spacing" textLength="100.6055" x="422.7971" y="1862.2236">Compte manuellement</text><path d="M544.6055,1841.5942 L544.6055,1893.5942 L670.6055,1893.5942 L670.6055,1851.5942 L660.6055,1841.5942 L544.6055,1841.5942 " fill="#FFCCCC" style="stroke:#333333;stroke-width:1;"/><path d="M660.6055,1841.5942 L660.6055,1851.5942 L670.6055,1851.5942 L660.6055,1841.5942 " fill="#FFCCCC" style="stroke:#333333;stroke-width:1;"/><text fill="#000000" font-family="Arial" font-size="10" lengthAdjust="spacing" textLength="76.7041" x="569.6055" y="1865.9741">&#240;&#376;&#8221;&#180; Pas de scan</text><text fill="#000000" font-family="Arial" font-size="10" lengthAdjust="spacing" textLength="49.8535" x="583.0308" y="1877.4731">&#226;&#65533;&#176; 10 min</text><polygon fill="#333333" points="551.2053,1947.5903,561.2053,1951.5903,551.2053,1955.5903,555.2053,1951.5903" style="stroke:#333333;stroke-width:1;"/><line style="stroke:#333333;stroke-width:2;" x1="405.7971" x2="557.2053" y1="1951.5903" y2="1951.5903"/><text fill="#000000" font-family="Arial" font-size="10" lengthAdjust="spacing" textLength="68.3691" x="450.3167" y="1937.4712">Saisit reception</text><path d="M568,1904.5923 L568,1968.5923 L703,1968.5923 L703,1914.5923 L693,1904.5923 L568,1904.5923 " fill="#FFCCCC" style="stroke:#333333;stroke-width:1;"/><path d="M693,1904.5923 L693,1914.5923 L703,1914.5923 L693,1904.5923 " fill="#FFCCCC" style="stroke:#333333;stroke-width:1;"/><text fill="#000000" font-family="Arial" font-size="10" lengthAdjust="spacing" textLength="18.8916" x="593" y="1928.9722">&#240;&#376;&#8221;&#180;</text><text fill="#000000" font-family="Arial" font-size="10" font-weight="bold" lengthAdjust="spacing" textLength="63.9111" x="614.6699" y="1928.9722">RE-SAISIE #7</text><text fill="#000000" font-family="Arial" font-size="10" lengthAdjust="spacing" textLength="84.4873" x="593.5469" y="1940.4712">Interface complexe</text><text fill="#000000" font-family="Arial" font-size="10" lengthAdjust="spacing" textLength="49.8535" x="610.8638" y="1951.9702">&#226;&#65533;&#176; 20 min</text><polygon fill="#333333" points="106.7219,2007.5884,96.7219,2011.5884,106.7219,2015.5884,102.7219,2011.5884" style="stroke:#333333;stroke-width:1;"/><line style="stroke:#333333;stroke-width:2;" x1="100.7219" x2="404.7971" y1="2011.5884" y2="2011.5884"/><text fill="#000000" font-family="Arial" font-size="10" lengthAdjust="spacing" textLength="69.3506" x="216.0842" y="1997.4692">"Materiel dispo"</text><rect fill="#EEEEEE" height="3" style="stroke:#EEEEEE;stroke-width:1;" width="1133.0994" x="0" y="2048.9128"/><line style="stroke:#000000;stroke-width:1;" x1="0" x2="1133.0994" y1="2048.9128" y2="2048.9128"/><line style="stroke:#000000;stroke-width:1;" x1="0" x2="1133.0994" y1="2051.9128" y2="2051.9128"/><rect fill="#EEEEEE" height="40.6489" style="stroke:#000000;stroke-width:2;" width="117.7568" x="507.6713" y="2029.5884"/><text fill="#000000" font-family="Arial" font-size="11" font-weight="bold" lengthAdjust="spacing" textLength="80.7007" x="523.6713" y="2053.9063">JOUR 3 - 16h00</text><line style="stroke:#333333;stroke-width:2;" x1="95.7219" x2="137.7219" y1="2117.7363" y2="2117.7363"/><line style="stroke:#333333;stroke-width:2;" x1="137.7219" x2="137.7219" y1="2117.7363" y2="2130.7363"/><line style="stroke:#333333;stroke-width:2;" x1="96.7219" x2="137.7219" y1="2130.7363" y2="2130.7363"/><polygon fill="#333333" points="106.7219,2126.7363,96.7219,2130.7363,106.7219,2134.7363,102.7219,2130.7363" style="stroke:#333333;stroke-width:1;"/><text fill="#000000" font-family="Arial" font-size="10" lengthAdjust="spacing" textLength="85.0635" x="112.7219" y="2103.6172">Recupere au depot</text><line style="stroke:#333333;stroke-width:2;" x1="95.7219" x2="137.7219" y1="2176.2354" y2="2176.2354"/><line style="stroke:#333333;stroke-width:2;" x1="137.7219" x2="137.7219" y1="2176.2354" y2="2189.2354"/><line style="stroke:#333333;stroke-width:2;" x1="96.7219" x2="137.7219" y1="2189.2354" y2="2189.2354"/><polygon fill="#333333" points="106.7219,2185.2354,96.7219,2189.2354,106.7219,2193.2354,102.7219,2189.2354" style="stroke:#333333;stroke-width:1;"/><text fill="#000000" font-family="Arial" font-size="10" lengthAdjust="spacing" textLength="100.0586" x="112.7219" y="2162.1162">Deballage sur chantier</text><path d="M5,2202.2354 L5,2289.2354 L187,2289.2354 L187,2212.2354 L177,2202.2354 L5,2202.2354 " fill="#FF6B6B" style="stroke:#333333;stroke-width:1;"/><path d="M177,2202.2354 L177,2212.2354 L187,2212.2354 L177,2202.2354 " fill="#FF6B6B" style="stroke:#333333;stroke-width:1;"/><text fill="#000000" font-family="Arial" font-size="10" lengthAdjust="spacing" textLength="23.0615" x="45.2759" y="2226.6152">&#226;&#65533;&#338;</text><text fill="#000000" font-family="Arial" font-size="10" font-weight="bold" lengthAdjust="spacing" textLength="76.1133" x="71.1157" y="2226.6152">CATASTROPHE</text><text fill="#000000" font-family="Arial" font-size="10" lengthAdjust="spacing" textLength="132.5049" x="30" y="2238.1143">C'EST LE MAUVAIS CABLE !</text><text fill="#000000" font-family="Arial" font-size="10" lengthAdjust="spacing" textLength="2.7783" x="94.8633" y="2249.6133">&#160;</text><text fill="#000000" font-family="Arial" font-size="10" lengthAdjust="spacing" textLength="92.2754" x="50.1147" y="2261.1123">&#240;&#376;&#8221;&#180; Chantier bloque</text><text fill="#000000" font-family="Arial" font-size="10" lengthAdjust="spacing" textLength="107.8223" x="42.3413" y="2272.6113">Il faut tout recommencer</text><polygon fill="#333333" points="240.9641,2328.2295,250.9641,2332.2295,240.9641,2336.2295,244.9641,2332.2295" style="stroke:#333333;stroke-width:1;"/><line style="stroke:#333333;stroke-width:2;" x1="95.7219" x2="246.9641" y1="2332.2295" y2="2332.2295"/><text fill="#000000" font-family="Arial" font-size="10" lengthAdjust="spacing" textLength="58.3691" x="145.1584" y="2318.1104">Appel furieux</text><path d="M54,2345.2295 L54,2397.2295 L293,2397.2295 L293,2355.2295 L283,2345.2295 L54,2345.2295 " fill="#FF6B6B" style="stroke:#333333;stroke-width:1;"/><path d="M283,2345.2295 L283,2355.2295 L293,2355.2295 L283,2345.2295 " fill="#FF6B6B" style="stroke:#333333;stroke-width:1;"/><text fill="#000000" font-family="Arial" font-size="10" font-weight="bold" lengthAdjust="spacing" textLength="121.6602" x="113.1533" y="2369.6094">IL FAUT RECOMMENCER</text><text fill="#000000" font-family="Arial" font-size="10" lengthAdjust="spacing" textLength="126.7236" x="110.6216" y="2381.1084">Tout le processus a refaire...</text><rect fill="#EEEEEE" height="3" style="stroke:#EEEEEE;stroke-width:1;" width="1133.0994" x="0" y="2432.552"/><line style="stroke:#000000;stroke-width:1;" x1="0" x2="1133.0994" y1="2432.552" y2="2432.552"/><line style="stroke:#000000;stroke-width:1;" x1="0" x2="1133.0994" y1="2435.552" y2="2435.552"/><rect fill="#EEEEEE" height="40.6489" style="stroke:#000000;stroke-width:2;" width="70.6631" x="531.2181" y="2413.2275"/><text fill="#000000" font-family="Arial" font-size="11" font-weight="bold" lengthAdjust="spacing" textLength="33.6069" x="547.2181" y="2437.5454">BILAN</text><path d="M38,2468.8765 L38,2647.8765 L981,2647.8765 L981,2478.8765 L971,2468.8765 L38,2468.8765 " fill="#FFCCCC" style="stroke:#333333;stroke-width:1;"/><path d="M971,2468.8765 L971,2478.8765 L981,2478.8765 L971,2468.8765 " fill="#FFCCCC" style="stroke:#333333;stroke-width:1;"/><text fill="#000000" font-family="Arial" font-size="10" font-weight="bold" lengthAdjust="spacing" textLength="125.0195" x="447.1311" y="2493.2563">METRIQUES PROCESSUS</text><text fill="#000000" font-family="Arial" font-size="10" lengthAdjust="spacing" textLength="77.0947" x="450.3904" y="2504.7554">&#226;&#65533;&#176; Duree totale:</text><text fill="#000000" font-family="Arial" font-size="10" font-weight="bold" lengthAdjust="spacing" textLength="38.6279" x="530.2634" y="2504.7554">~3 jours</text><text fill="#000000" font-family="Arial" font-size="10" lengthAdjust="spacing" textLength="101.7139" x="458.7839" y="2516.2544">&#240;&#376;&#8220;&#382; Nombreux appels</text><text fill="#000000" font-family="Arial" font-size="10" lengthAdjust="spacing" textLength="154.2041" x="432.5388" y="2527.7534">&#226;&#8482;&#187;&#239;&#184;&#65533; Multiples re-saisies (7&#195;&#8212;)</text><text fill="#000000" font-family="Arial" font-size="10" lengthAdjust="spacing" textLength="80.3027" x="440.3074" y="2539.2524">&#226;&#65533;&#338; Taux erreur:</text><text fill="#000000" font-family="Arial" font-size="10" font-weight="bold" lengthAdjust="spacing" textLength="55.5859" x="523.3884" y="2539.2524">Eleve (30%)</text><text fill="#000000" font-family="Arial" font-size="10" lengthAdjust="spacing" textLength="55.0244" x="482.1287" y="2550.7515">Stress eleve</text><text fill="#000000" font-family="Arial" font-size="10" lengthAdjust="spacing" textLength="103.3838" x="457.949" y="2562.2505">&#226;&#65533;&#184;&#239;&#184;&#65533; Chantier bloque</text><text fill="#000000" font-family="Arial" font-size="10" lengthAdjust="spacing" textLength="2.7783" x="508.2517" y="2573.7495">&#160;</text><text fill="#000000" font-family="Arial" font-size="10" font-weight="bold" lengthAdjust="spacing" textLength="83.335" x="467.9734" y="2585.2485">COUTS CACHES:</text><text fill="#000000" font-family="Arial" font-size="10" lengthAdjust="spacing" textLength="109.2236" x="455.0291" y="2596.7476">- Temps perdu total: ~6h</text><text fill="#000000" font-family="Arial" font-size="10" lengthAdjust="spacing" textLength="86.1475" x="466.5671" y="2608.2466">- Chantier arrete: 2j</text><text fill="#000000" font-family="Arial" font-size="10" lengthAdjust="spacing" textLength="87.8076" x="465.7371" y="2619.7456">- Retour materiel: 1j</text><text fill="#000000" font-family="Arial" font-size="10" lengthAdjust="spacing" textLength="3.3301" x="452.9636" y="2631.2446">-</text><text fill="#000000" font-family="Arial" font-size="10" font-weight="bold" lengthAdjust="spacing" textLength="107.2461" x="459.072" y="2631.2446">COUT TOTAL: ~800&#226;&#8218;&#172;</text><rect fill="#F5F5F5" height="121.9922" id="_legend" rx="7.5" ry="7.5" style="stroke:#333333;stroke-width:1;" width="152.5488" x="967.5505" y="2783.6616"/><text fill="#000000" font-family="Arial" font-size="10" font-weight="bold" lengthAdjust="spacing" textLength="48.3398" x="1019.655" y="2808.0415">LEGENDE</text><text fill="#000000" font-family="Arial" font-size="10" lengthAdjust="spacing" textLength="99.4824" x="994.0837" y="2819.5405">&#240;&#376;&#8221;&#180; Probleme critique</text><text fill="#000000" font-family="Arial" font-size="10" lengthAdjust="spacing" textLength="99.5068" x="994.0715" y="2831.0396">&#240;&#376;&#376;&#160; Attention requise</text><text fill="#000000" font-family="Arial" font-size="10" lengthAdjust="spacing" textLength="78.7549" x="1004.4475" y="2842.5386">&#226;&#65533;&#176; Temps perdu</text><text fill="#000000" font-family="Arial" font-size="10" lengthAdjust="spacing" textLength="122.5488" x="982.5505" y="2854.0376">&#226;&#8482;&#187;&#239;&#184;&#65533; Re-saisie manuelle</text><text fill="#000000" font-family="Arial" font-size="10" lengthAdjust="spacing" textLength="117.2705" x="985.1897" y="2865.5366">&#226;&#65533;&#184;&#239;&#184;&#65533; Blocage processus</text><text fill="#000000" font-family="Arial" font-size="10" lengthAdjust="spacing" textLength="105.0488" x="991.3005" y="2877.0356">&#226;&#339;&#8230; Succes operation</text><text fill="#000000" font-family="Arial" font-size="10" lengthAdjust="spacing" textLength="93.6328" x="997.0085" y="2888.5347">&#226;&#65533;&#338; Erreur systeme</text><!--SRC=[hLZRRYF74NtdLvHf1988KwAerNejOBqO3LkxT7YHPuPE30GWMiEcsCRSqjqZQ5yC0_c5FEKfo7CU_0tsd_XBVBfdU1ckj5d90GHX-bPLVQhgL3KFwFNhrpHcaJVm8iyEMWSK2dKdOt51NhpYHdT7-QtKHlwz55WSS2F8Lu8RcMSNrE_rpxkdfzr-Zmu3iUInoPLO766ZLnfHAWYv5PcXwuHdPZOUqQ1Kmc3vEw5q9U4OHzNcAF4x4PCsxnEXgU3Ay5kXhRpeVI5e8FcjucaAuq81WxBOsIHqh6HHMNIjybXeNMgAypJbsK9G2fkL50a9mmr1KOdlGrmkrqVKNPi2fTZDrK9gOQLQPAw6aoOwhSza5YSbX1uVdsp-QiJqoLolE2vnKgR9INM7auMzy3pEarpfum8BpnMHyFTvQVwO205dB6epMaQQHEpWvQ_n6g_nwXBk7f7dHpCseaF_dJSDZrejvofgZxcA_vOT-Ykn97y5_qgXZjh4DTaLygUZQJ37MVp7oKaqPC7wQFW-kPC2XwiGgqvLaurpbxE0URFrAQQaLJWGHMwg8tQcSM30hgTHoyQDZ6K1cw0B4KJZ0Qjqs45r8Fm-ZDYOpKVihUT_tpp3xcEHL1hirzu9zbUVZVOEf5pM1-nNS_4gBrKcjKO-k2rkt33xQZeB9iCmPBEWrKBSVOCndGB_KPaj97srwlN8Hb-M8_loEw5s8RO-cl_5Wu39snPHftCfT2upaWjadbnAqUbWskStyFRPs_xnEUIUzz8MGe6im5RB2Uj-xOHUm9T2nIj1DyY9WXVmQgLNoTkLsTN9Wc0QG3GRJ-T-C8o6lZUYi2oAN9dw99MP9OuKbjGRe-6OqJcbCB0GQb4-QaOWqYAHnfd1AU58OvaznHBmaL2M8aYcXH8nyXfRsl4MY3PfdcbQW1TaeZ-mvBuEIP1OKI0AZ4X4iShTZPvYo3MtEaWXRZDd0yim039vzlZjkLMPYEFZOpgZPIxr9sXqsFOTk61VNG4iz0DAcXU3CLfBEZpjhLwS7-r5sHVrPgi3sPeXWR1qmnCBvZS7ND9D5M-ueiCM9hTtLDPfRPKY-QnVuph06gvekTJixjXsseTXkan0sfe-UmhWI04lP3IOJYQCXUHuooM14rb71NmYb-uRK66jG5OIp1aZnQbG-QAKvWBpNVAzon7hEZExmNJsbdNFU-DgvN8qn_pvF9YVzznCjQiwuVPk9M3d78lpxJIGUXYe6W5_1RyZ1ShCHi-Ishoa5TUeKUr7uDZIW0Ma7j4LbnPewxtO-X7nIqWBUCtOn4A6PU91GnpxRHbXkIMofxXZOEK3Rm5MB2I2sk6z2TXNDbuVLE-8yl-KVPjkG6IKoDjCx9fmMX4Iu5rhsSMZuklTq6mFf2vo08Yo-UBLgjt0p1Q02-IA0hh23g0xMqgLkfxfQN4Si6xe3SCXeyzVk0Yswm6hvv1AELWMp9YLbYmipLOXk-4-D_gsjDNPL8Dh9U_TXxT0UcdnaLGDkGk_DNJFDlqSfdyal6er2yl5kfHtyjcANZwYgEBKS1nIUoJl5FIXgAG8QhH9ihqjkNt0ChOju0FLzej6tNO6NOwc_f_Pe3Qf7i6YTRj3cFfsnfpZF6Ciqo3sQlqVOUKr-LUSz6H8l3AsZ747L6zaKldTe9fga8X8TlIkhtrchrsZiMqswh3_sdLP5xG5BkQf3UIMwxuswxjjmqw-FQjGhWjth7BNZJ-GgbHN4RLpdps3yXI4ioDEFosk9jCnc_WZBq8J6jAl__djfvz_-RVpvQLzQBH1_jspUrSKK13QjiTA5tR-0x9tQmT26rjVKgGflNdpvW6xcrKPWOVkBNuoQzGe6iLHNzV-t-BNswFR3q4pJKPvXcuTy-oJb3Pu1ZsQAFuGHtxft3D4dYayA5qG5ecuRm3GVyoMYYJQczVFmd9ykvabfo_NsR7VhCObkYrXIyZ2la_sDmm4EgR4jZWQAHtNpwL7ElhhO8eG6hFQR7TlIojuXOPHCBr-Lr6AVy32Y4QCnjxiEo1GjHbebVOnMh_Ew2R9RVK4H0ajUMd8u4bfSKUosWnH_xDLN9R0fhnlFT8aVdY1JcSueYjl5b70_EdOfXGBdFcHrMr9RlC2vJPNkLIYsHZ10PV3aJVvD59UHqcdWvTxC0J_XWHxV1Q6it1JGrqes1yZa2YvuGaksEdyU4O_G9pUxBf-DvqmckJf3LhaUtAqhFUhy1WjgYpixnLATBKDPNmUVldhFtxxwPz73HT674A4Kkw7aKw79U9EqE5Pxqz7JcDeR44cOQVtQig-1ztz_Eaiiaxttx7mmadeKkHutZN-rSKkwCUNgwe9NSlWiC3WmlqVwbx1s3Ap_fK4ZNSrNocWQ1fv8qXvrUjP3lpNB_zj55aydzbaC0yZRpBmWi7XKUjt]--></g></svg>