<svg xmlns="http://www.w3.org/2000/svg" xmlns:xlink="http://www.w3.org/1999/xlink" contentStyleType="text/css" height="1584px" preserveAspectRatio="none" style="width:1616px;height:1584px;background:#FFFFFF;" version="1.1" viewBox="0 0 1616 1584" width="1616px" zoomAndPan="magnify"><title>Processus Commande Materiel - Swimlanes (Etat ACTUEL)</title><defs/><g><text fill="#000000" font-family="Verdana" font-size="22" font-weight="bold" lengthAdjust="spacing" textLength="721.0371" x="446.1471" y="37.1182">Processus Commande Materiel - Swimlanes (Etat ACTUEL)</text><rect fill="#FFFFFF" height="21.876" style="stroke:#FFFFFF;stroke-width:1;" width="1593.3313" x="10" y="55.0166"/><rect fill="#FFC0CB" height="1522.7349" style="stroke:#FFC0CB;stroke-width:1;" width="598.6375" x="10" y="55.0166"/><ellipse cx="303.6282" cy="91.8926" fill="#FFFFFF" rx="10" ry="10" style="stroke:#000000;stroke-width:1;"/><path d="M407.1516,126.2849 L407.1516,135.1846 L387.1516,139.1846 L407.1516,143.1846 L407.1516,152.0842 A0,0 0 0 0 407.1516,152.0842 L552.8386,152.0842 A0,0 0 0 0 552.8386,152.0842 L552.8386,136.2849 L542.8386,126.2849 L407.1516,126.2849 A0,0 0 0 0 407.1516,126.2849 " fill="#FFFFFF" style="stroke:#000000;stroke-width:1;"/><path d="M542.8386,126.2849 L542.8386,136.2849 L552.8386,136.2849 L542.8386,126.2849 " fill="#FFFFFF" style="stroke:#000000;stroke-width:1;"/><text fill="#000000" font-family="Verdana" font-size="13" lengthAdjust="spacing" textLength="124.687" x="413.1516" y="144.3547">Cable 3G2.5 - 50m</text><rect fill="#FFFFFF" height="34.584" rx="12.5" ry="12.5" style="stroke:#000000;stroke-width:1;" width="167.0469" x="220.1047" y="121.8926"/><text fill="#000000" font-family="Verdana" font-size="12" lengthAdjust="spacing" textLength="147.0469" x="230.1047" y="143.957">Identifie besoin materiel</text><path d="M392.5032,180.8689 L392.5032,189.7686 L372.5032,193.7686 L392.5032,197.7686 L392.5032,206.6682 A0,0 0 0 0 392.5032,206.6682 L554.4275,206.6682 A0,0 0 0 0 554.4275,206.6682 L554.4275,190.8689 L544.4275,180.8689 L392.5032,180.8689 A0,0 0 0 0 392.5032,180.8689 " fill="#FFCCCC" style="stroke:#000000;stroke-width:1;"/><path d="M544.4275,180.8689 L544.4275,190.8689 L554.4275,190.8689 L544.4275,180.8689 " fill="#FFCCCC" style="stroke:#000000;stroke-width:1;"/><text fill="#000000" font-family="Verdana" font-size="13" lengthAdjust="spacing" textLength="140.9243" x="398.5032" y="198.9387">&#240;&#376;&#8221;&#180; 5 min recherche</text><rect fill="#FFFFFF" height="34.584" rx="12.5" ry="12.5" style="stroke:#000000;stroke-width:1;" width="137.75" x="234.7532" y="176.4766"/><text fill="#000000" font-family="Verdana" font-size="12" lengthAdjust="spacing" textLength="117.75" x="244.7532" y="198.541">Cherche bon papier</text><path d="M414.0393,235.4529 L414.0393,244.3525 L394.0393,248.3525 L414.0393,252.3525 L414.0393,261.2522 A0,0 0 0 0 414.0393,261.2522 L601.9573,261.2522 A0,0 0 0 0 601.9573,261.2522 L601.9573,245.4529 L591.9573,235.4529 L414.0393,235.4529 A0,0 0 0 0 414.0393,235.4529 " fill="#FFCCCC" style="stroke:#000000;stroke-width:1;"/><path d="M591.9573,235.4529 L591.9573,245.4529 L601.9573,245.4529 L591.9573,235.4529 " fill="#FFCCCC" style="stroke:#000000;stroke-width:1;"/><text fill="#000000" font-family="Verdana" font-size="13" lengthAdjust="spacing" textLength="166.918" x="420.0393" y="253.5227">&#240;&#376;&#8221;&#180; Reference imprecise</text><rect fill="#FFFFFF" height="34.584" rx="12.5" ry="12.5" style="stroke:#000000;stroke-width:1;" width="180.8223" x="213.217" y="231.0605"/><text fill="#000000" font-family="Verdana" font-size="12" lengthAdjust="spacing" textLength="160.8223" x="223.217" y="253.125">Remplit &#195;&#160; la main (5 min)</text><path d="M400.2932,338.7212 L400.2932,347.6208 L380.2932,351.6208 L400.2932,355.6208 L400.2932,364.5205 A0,0 0 0 0 400.2932,364.5205 L558.3899,364.5205 A0,0 0 0 0 558.3899,364.5205 L558.3899,348.7212 L548.3899,338.7212 L400.2932,338.7212 A0,0 0 0 0 400.2932,338.7212 " fill="#FFCCCC" style="stroke:#000000;stroke-width:1;"/><path d="M548.3899,338.7212 L548.3899,348.7212 L558.3899,348.7212 L548.3899,338.7212 " fill="#FFCCCC" style="stroke:#000000;stroke-width:1;"/><text fill="#000000" font-family="Verdana" font-size="13" lengthAdjust="spacing" textLength="137.0967" x="406.2932" y="356.791">&#240;&#376;&#8221;&#180; 25 min perdues</text><rect fill="#FFFFFF" height="34.584" rx="12.5" ry="12.5" style="stroke:#000000;stroke-width:1;" width="153.3301" x="226.9631" y="334.3289"/><text fill="#000000" font-family="Verdana" font-size="12" lengthAdjust="spacing" textLength="133.3301" x="236.9631" y="356.3933">Attente + Rappel (x3)</text><rect fill="#FFFFFF" height="34.584" rx="12.5" ry="12.5" style="stroke:#000000;stroke-width:1;" width="130.0625" x="238.5969" y="1296.7876"/><text fill="#000000" font-family="Verdana" font-size="12" lengthAdjust="spacing" textLength="110.0625" x="248.5969" y="1318.8521">Recupere materiel</text><path d="M15,1341.3716 L15,1446.1675 L236.8081,1446.1675 L236.8081,1351.3716 L226.8081,1341.3716 L15,1341.3716 " fill="#FFFFFF" style="stroke:#000000;stroke-width:1;"/><path d="M226.8081,1341.3716 L226.8081,1351.3716 L236.8081,1351.3716 L226.8081,1341.3716 " fill="#FFFFFF" style="stroke:#000000;stroke-width:1;"/><text fill="#000000" font-family="Verdana" font-size="13" font-weight="bold" lengthAdjust="spacing" textLength="200.8081" x="21" y="1359.4414">STATISTIQUES PROCESSUS</text><text fill="#000000" font-family="Verdana" font-size="13" lengthAdjust="spacing" textLength="191.7246" x="21" y="1375.2407">&#226;&#65533;&#176; Duree moyenne: 3 jours</text><text fill="#000000" font-family="Verdana" font-size="13" lengthAdjust="spacing" textLength="170.0156" x="21" y="1391.04">&#226;&#8482;&#187;&#239;&#184;&#65533; Ressaisies: 7 fois</text><text fill="#000000" font-family="Verdana" font-size="13" lengthAdjust="spacing" textLength="156.0063" x="21" y="1406.8394">&#226;&#65533;&#338; Taux erreur: 50%</text><text fill="#000000" font-family="Verdana" font-size="13" lengthAdjust="spacing" textLength="181.2256" x="21" y="1422.6387">&#240;&#376;&#8220;&#382; Appels: 15/commande</text><text fill="#000000" font-family="Verdana" font-size="13" lengthAdjust="spacing" textLength="192.9624" x="21" y="1438.438">&#240;&#376;&#8217;&#176; Cout erreurs: 60K&#226;&#8218;&#172;/an</text><polygon fill="#FFFFFF" points="248.8081,1446.1675,358.4482,1446.1675,370.4482,1458.1675,358.4482,1470.1675,248.8081,1470.1675,236.8081,1458.1675,248.8081,1446.1675" style="stroke:#000000;stroke-width:1;"/><text fill="#000000" font-family="Verdana" font-size="11" lengthAdjust="spacing" textLength="109.6401" x="248.8081" y="1462.5422">Materiel conforme ?</text><text fill="#000000" font-family="Verdana" font-size="11" lengthAdjust="spacing" textLength="21.8657" x="214.9424" y="1455.8579">Non</text><text fill="#000000" font-family="Verdana" font-size="11" lengthAdjust="spacing" textLength="18.6377" x="370.4482" y="1455.8579">Oui</text><path d="M194.4412,1480.1675 L194.4412,1504.8665 L174.4412,1508.8665 L194.4412,1512.8665 L194.4412,1537.5654 A0,0 0 0 0 194.4412,1537.5654 L391.9441,1537.5654 A0,0 0 0 0 391.9441,1537.5654 L391.9441,1490.1675 L381.9441,1480.1675 L194.4412,1480.1675 A0,0 0 0 0 194.4412,1480.1675 " fill="#FF0000" style="stroke:#000000;stroke-width:1;"/><path d="M381.9441,1480.1675 L381.9441,1490.1675 L391.9441,1490.1675 L381.9441,1480.1675 " fill="#FF0000" style="stroke:#000000;stroke-width:1;"/><text fill="#000000" font-family="Verdana" font-size="13" lengthAdjust="spacing" textLength="176.5029" x="200.4412" y="1498.2373">&#240;&#376;&#8217;&#176; Cout erreur: 2,400&#226;&#8218;&#172;</text><text fill="#000000" font-family="Verdana" font-size="13" lengthAdjust="spacing" textLength="131.0664" x="200.4412" y="1514.0366">&#226;&#65533;&#176; Retard: 3 jours</text><text fill="#000000" font-family="Verdana" font-size="13" lengthAdjust="spacing" textLength="130.3618" x="200.4412" y="1529.8359">&#240;&#376;&#732;&#173; Stress equipes</text><rect fill="#FF0000" height="34.584" rx="12.5" ry="12.5" style="stroke:#000000;stroke-width:1;" width="150.9512" x="23.49" y="1491.5745"/><text fill="#000000" font-family="Verdana" font-size="12" lengthAdjust="spacing" textLength="130.9512" x="33.49" y="1513.6389">&#226;&#65533;&#338; Chantier bloque</text><rect fill="#008000" height="34.584" rx="12.5" ry="12.5" style="stroke:#000000;stroke-width:1;" width="192.6934" x="411.9441" y="1480.1675"/><text fill="#000000" font-family="Verdana" font-size="12" lengthAdjust="spacing" textLength="172.6934" x="421.9441" y="1502.2319">&#226;&#339;&#8230; Fin (Chantier continue)</text><ellipse cx="508.2908" cy="1560.7515" fill="none" rx="11" ry="11" style="stroke:#000000;stroke-width:1;"/><ellipse cx="508.2908" cy="1560.7515" fill="#FFFFFF" rx="6" ry="6" style="stroke:#000000;stroke-width:1;"/><line style="stroke:#000000;stroke-width:1;" x1="10" x2="10" y1="55.0166" y2="1577.7515"/><rect fill="#ADD8E6" height="1522.7349" style="stroke:#ADD8E6;stroke-width:1;" width="442.7319" x="608.6375" y="55.0166"/><polygon fill="#FFFFFF" points="657.1504,285.6445,759.5503,285.6445,771.5503,297.6445,759.5503,309.6445,657.1504,309.6445,645.1504,297.6445,657.1504,285.6445" style="stroke:#000000;stroke-width:1;"/><text fill="#000000" font-family="Verdana" font-size="11" lengthAdjust="spacing" textLength="21.8657" x="712.3503" y="320.7036">Non</text><text fill="#000000" font-family="Verdana" font-size="11" lengthAdjust="spacing" textLength="102.3999" x="657.1504" y="302.0193">Sylvie disponible ?</text><text fill="#000000" font-family="Verdana" font-size="11" lengthAdjust="spacing" textLength="18.6377" x="771.5503" y="295.335">Oui</text><polygon fill="#FFFFFF" points="708.3503,388.9128,720.3503,400.9128,708.3503,412.9128,696.3503,400.9128,708.3503,388.9128" style="stroke:#000000;stroke-width:1;"/><rect fill="#FFFFFF" height="34.584" rx="12.5" ry="12.5" style="stroke:#000000;stroke-width:1;" width="103.4492" x="656.6257" y="432.9128"/><text fill="#000000" font-family="Verdana" font-size="12" lengthAdjust="spacing" textLength="83.4492" x="666.6257" y="454.9773">Re&#195;&#167;oit appel</text><path d="M812.0525,491.8892 L812.0525,500.7888 L792.0525,504.7888 L812.0525,508.7888 L812.0525,517.6885 A0,0 0 0 0 812.0525,517.6885 L991.5916,517.6885 A0,0 0 0 0 991.5916,517.6885 L991.5916,501.8892 L981.5916,491.8892 L812.0525,491.8892 A0,0 0 0 0 812.0525,491.8892 " fill="#FFFFFF" style="stroke:#000000;stroke-width:1;"/><path d="M981.5916,491.8892 L981.5916,501.8892 L991.5916,501.8892 L981.5916,491.8892 " fill="#FFFFFF" style="stroke:#000000;stroke-width:1;"/><text fill="#000000" font-family="Verdana" font-size="13" lengthAdjust="spacing" textLength="158.5391" x="818.0525" y="509.959">Base donnees chaotique</text><rect fill="#FFFFFF" height="34.584" rx="12.5" ry="12.5" style="stroke:#000000;stroke-width:1;" width="167.4043" x="624.6482" y="487.4968"/><text fill="#000000" font-family="Verdana" font-size="12" lengthAdjust="spacing" textLength="147.4043" x="634.6482" y="509.5613">Cherche dans Sage MDE</text><path d="M821.3689,590.7651 L821.3689,607.5645 L801.3689,611.5645 L821.3689,615.5645 L821.3689,632.3638 A0,0 0 0 0 821.3689,632.3638 L1022.3694,632.3638 A0,0 0 0 0 1022.3694,632.3638 L1022.3694,600.7651 L1012.3694,590.7651 L821.3689,590.7651 A0,0 0 0 0 821.3689,590.7651 " fill="#FFCCCC" style="stroke:#000000;stroke-width:1;"/><path d="M1012.3694,590.7651 L1012.3694,600.7651 L1022.3694,600.7651 L1012.3694,590.7651 " fill="#FFCCCC" style="stroke:#000000;stroke-width:1;"/><text fill="#000000" font-family="Verdana" font-size="13" lengthAdjust="spacing" textLength="180.0005" x="827.3689" y="608.835">&#240;&#376;&#8221;&#180; 12 variantes possibles</text><text fill="#000000" font-family="Verdana" font-size="13" lengthAdjust="spacing" textLength="123.4683" x="827.3689" y="624.6343">Risque erreur 50%</text><rect fill="#FFFFFF" height="34.584" rx="12.5" ry="12.5" style="stroke:#000000;stroke-width:1;" width="186.0371" x="615.3318" y="594.2725"/><text fill="#000000" font-family="Verdana" font-size="12" lengthAdjust="spacing" textLength="166.0371" x="625.3318" y="616.3369">Choisit reference au hasard</text><polygon fill="#FFFFFF" points="652.7864,542.0808,763.9143,542.0808,775.9143,554.0808,763.9143,566.0808,652.7864,566.0808,640.7864,554.0808,652.7864,542.0808" style="stroke:#000000;stroke-width:1;"/><text fill="#000000" font-family="Verdana" font-size="11" lengthAdjust="spacing" textLength="57.5728" x="712.3503" y="577.1399">Non / Flou</text><text fill="#000000" font-family="Verdana" font-size="11" lengthAdjust="spacing" textLength="111.1279" x="652.7864" y="558.4556">Reference trouvee ?</text><text fill="#000000" font-family="Verdana" font-size="11" lengthAdjust="spacing" textLength="18.6377" x="775.9143" y="551.7712">Oui</text><polygon fill="#FFFFFF" points="708.3503,652.3638,720.3503,664.3638,708.3503,676.3638,696.3503,664.3638,708.3503,652.3638" style="stroke:#000000;stroke-width:1;"/><path d="M822.0632,700.7561 L822.0632,709.6558 L802.0632,713.6558 L822.0632,717.6558 L822.0632,726.5554 A0,0 0 0 0 822.0632,726.5554 L1009.2703,726.5554 A0,0 0 0 0 1009.2703,726.5554 L1009.2703,710.7561 L999.2703,700.7561 L822.0632,700.7561 A0,0 0 0 0 822.0632,700.7561 " fill="#FFCCCC" style="stroke:#000000;stroke-width:1;"/><path d="M999.2703,700.7561 L999.2703,710.7561 L1009.2703,710.7561 L999.2703,700.7561 " fill="#FFCCCC" style="stroke:#000000;stroke-width:1;"/><text fill="#000000" font-family="Verdana" font-size="13" lengthAdjust="spacing" textLength="166.207" x="828.0632" y="718.8259">&#240;&#376;&#8221;&#180; Donnees eparpillees</text><rect fill="#FFFFFF" height="34.584" rx="12.5" ry="12.5" style="stroke:#000000;stroke-width:1;" width="187.4258" x="614.6375" y="696.3638"/><text fill="#000000" font-family="Verdana" font-size="12" lengthAdjust="spacing" textLength="167.4258" x="624.6375" y="718.4282">Cherche fournisseur (Excel)</text><path d="M796.2146,755.3401 L796.2146,764.2397 L776.2146,768.2397 L796.2146,772.2397 L796.2146,781.1394 A0,0 0 0 0 796.2146,781.1394 L1027.5188,781.1394 A0,0 0 0 0 1027.5188,781.1394 L1027.5188,765.3401 L1017.5188,755.3401 L796.2146,755.3401 A0,0 0 0 0 796.2146,755.3401 " fill="#FFCCCC" style="stroke:#000000;stroke-width:1;"/><path d="M1017.5188,755.3401 L1017.5188,765.3401 L1027.5188,765.3401 L1017.5188,755.3401 " fill="#FFCCCC" style="stroke:#000000;stroke-width:1;"/><text fill="#000000" font-family="Verdana" font-size="13" lengthAdjust="spacing" textLength="210.3042" x="802.2146" y="773.4099">&#240;&#376;&#8221;&#180; Pas de commande en ligne</text><rect fill="#FFFFFF" height="34.584" rx="12.5" ry="12.5" style="stroke:#000000;stroke-width:1;" width="135.7285" x="640.4861" y="750.9478"/><text fill="#000000" font-family="Verdana" font-size="12" lengthAdjust="spacing" textLength="115.7285" x="650.4861" y="773.0122">Appelle fournisseur</text><path d="M816.8689,809.9241 L816.8689,818.8237 L796.8689,822.8237 L816.8689,826.8237 L816.8689,835.7234 A0,0 0 0 0 816.8689,835.7234 L955.8845,835.7234 A0,0 0 0 0 955.8845,835.7234 L955.8845,819.9241 L945.8845,809.9241 L816.8689,809.9241 A0,0 0 0 0 816.8689,809.9241 " fill="#FFCCCC" style="stroke:#000000;stroke-width:1;"/><path d="M945.8845,809.9241 L945.8845,819.9241 L955.8845,819.9241 L945.8845,809.9241 " fill="#FFCCCC" style="stroke:#000000;stroke-width:1;"/><text fill="#000000" font-family="Verdana" font-size="13" lengthAdjust="spacing" textLength="118.0156" x="822.8689" y="827.9939">&#240;&#376;&#8221;&#180; Ressaisie #4</text><rect fill="#FFFFFF" height="34.584" rx="12.5" ry="12.5" style="stroke:#000000;stroke-width:1;" width="177.0371" x="619.8318" y="805.5317"/><text fill="#000000" font-family="Verdana" font-size="12" lengthAdjust="spacing" textLength="157.0371" x="629.8318" y="827.5962">Envoie Email confirmation</text><path d="M788.3396,864.5081 L788.3396,873.4077 L768.3396,877.4077 L788.3396,881.4077 L788.3396,890.3074 A0,0 0 0 0 788.3396,890.3074 L927.3552,890.3074 A0,0 0 0 0 927.3552,890.3074 L927.3552,874.5081 L917.3552,864.5081 L788.3396,864.5081 A0,0 0 0 0 788.3396,864.5081 " fill="#FFCCCC" style="stroke:#000000;stroke-width:1;"/><path d="M917.3552,864.5081 L917.3552,874.5081 L927.3552,874.5081 L917.3552,864.5081 " fill="#FFCCCC" style="stroke:#000000;stroke-width:1;"/><text fill="#000000" font-family="Verdana" font-size="13" lengthAdjust="spacing" textLength="118.0156" x="794.3396" y="882.5779">&#240;&#376;&#8221;&#180; Ressaisie #5</text><rect fill="#FFFFFF" height="34.584" rx="12.5" ry="12.5" style="stroke:#000000;stroke-width:1;" width="119.9785" x="648.3611" y="860.1157"/><text fill="#000000" font-family="Verdana" font-size="12" lengthAdjust="spacing" textLength="99.9785" x="658.3611" y="882.1802">Saisit dans Sage</text><path d="M805.865,919.092 L805.865,927.9917 L785.865,931.9917 L805.865,935.9917 L805.865,944.8914 A0,0 0 0 0 805.865,944.8914 L944.8806,944.8914 A0,0 0 0 0 944.8806,944.8914 L944.8806,929.092 L934.8806,919.092 L805.865,919.092 A0,0 0 0 0 805.865,919.092 " fill="#FFCCCC" style="stroke:#000000;stroke-width:1;"/><path d="M934.8806,919.092 L934.8806,929.092 L944.8806,929.092 L934.8806,919.092 " fill="#FFCCCC" style="stroke:#000000;stroke-width:1;"/><text fill="#000000" font-family="Verdana" font-size="13" lengthAdjust="spacing" textLength="118.0156" x="811.865" y="937.1619">&#240;&#376;&#8221;&#180; Ressaisie #6</text><rect fill="#FFFFFF" height="34.584" rx="12.5" ry="12.5" style="stroke:#000000;stroke-width:1;" width="155.0293" x="630.8357" y="914.6997"/><text fill="#000000" font-family="Verdana" font-size="12" lengthAdjust="spacing" textLength="135.0293" x="640.8357" y="936.7642">Saisit dans Excel Suivi</text><line style="stroke:#000000;stroke-width:1;" x1="608.6375" x2="608.6375" y1="55.0166" y2="1577.7515"/><rect fill="#FFFFFF" height="34.584" rx="12.5" ry="12.5" style="stroke:#000000;stroke-width:1;" width="125.416" x="1057.3694" y="969.2837"/><text fill="#000000" font-family="Verdana" font-size="12" lengthAdjust="spacing" textLength="105.416" x="1067.3694" y="991.3481">Traite commande</text><rect fill="#FFFFFF" height="34.584" rx="12.5" ry="12.5" style="stroke:#000000;stroke-width:1;" width="119.7676" x="1060.1936" y="1023.8677"/><text fill="#000000" font-family="Verdana" font-size="12" lengthAdjust="spacing" textLength="99.7676" x="1070.1936" y="1045.9321">Livre (2-3 jours)</text><line style="stroke:#000000;stroke-width:1;" x1="1051.3694" x2="1051.3694" y1="55.0166" y2="1577.7515"/><rect fill="#FFFFE0" height="1522.7349" style="stroke:#FFFFE0;stroke-width:1;" width="414.3818" x="1186.7854" y="55.0166"/><rect fill="#FFFFFF" height="34.584" rx="12.5" ry="12.5" style="stroke:#000000;stroke-width:1;" width="148.666" x="1208.5735" y="1078.4517"/><text fill="#000000" font-family="Verdana" font-size="12" lengthAdjust="spacing" textLength="128.666" x="1218.5735" y="1100.5161">Receptionne livraison</text><path d="M1375.5461,1137.428 L1375.5461,1146.3276 L1355.5461,1150.3276 L1375.5461,1154.3276 L1375.5461,1163.2273 A0,0 0 0 0 1375.5461,1163.2273 L1596.1672,1163.2273 A0,0 0 0 0 1596.1672,1163.2273 L1596.1672,1147.428 L1586.1672,1137.428 L1375.5461,1137.428 A0,0 0 0 0 1375.5461,1137.428 " fill="#FFCCCC" style="stroke:#000000;stroke-width:1;"/><path d="M1586.1672,1137.428 L1586.1672,1147.428 L1596.1672,1147.428 L1586.1672,1137.428 " fill="#FFCCCC" style="stroke:#000000;stroke-width:1;"/><text fill="#000000" font-family="Verdana" font-size="13" lengthAdjust="spacing" textLength="199.6211" x="1381.5461" y="1155.4978">&#240;&#376;&#8221;&#180; Incompatibilite frequente</text><rect fill="#FFFFFF" height="34.584" rx="12.5" ry="12.5" style="stroke:#000000;stroke-width:1;" width="145.2793" x="1210.2668" y="1133.0356"/><text fill="#000000" font-family="Verdana" font-size="12" lengthAdjust="spacing" textLength="125.2793" x="1220.2668" y="1155.1001">Verifie nomenclature</text><path d="M1381.4055,1192.012 L1381.4055,1200.9116 L1361.4055,1204.9116 L1381.4055,1208.9116 L1381.4055,1217.8113 A0,0 0 0 0 1381.4055,1217.8113 L1514.1433,1217.8113 A0,0 0 0 0 1514.1433,1217.8113 L1514.1433,1202.012 L1504.1433,1192.012 L1381.4055,1192.012 A0,0 0 0 0 1381.4055,1192.012 " fill="#FFCCCC" style="stroke:#000000;stroke-width:1;"/><path d="M1504.1433,1192.012 L1504.1433,1202.012 L1514.1433,1202.012 L1504.1433,1192.012 " fill="#FFCCCC" style="stroke:#000000;stroke-width:1;"/><text fill="#000000" font-family="Verdana" font-size="13" lengthAdjust="spacing" textLength="111.7378" x="1387.4055" y="1210.0818">&#240;&#376;&#8221;&#180; Pas de scan</text><rect fill="#FFFFFF" height="34.584" rx="12.5" ry="12.5" style="stroke:#000000;stroke-width:1;" width="156.998" x="1204.4075" y="1187.6196"/><text fill="#000000" font-family="Verdana" font-size="12" lengthAdjust="spacing" textLength="136.998" x="1214.4075" y="1209.6841">Compte manuellement</text><path d="M1393.0276,1246.5959 L1393.0276,1255.4956 L1373.0276,1259.4956 L1393.0276,1263.4956 L1393.0276,1272.3953 A0,0 0 0 0 1393.0276,1272.3953 L1593.9583,1272.3953 A0,0 0 0 0 1593.9583,1272.3953 L1593.9583,1256.5959 L1583.9583,1246.5959 L1393.0276,1246.5959 A0,0 0 0 0 1393.0276,1246.5959 " fill="#FFCCCC" style="stroke:#000000;stroke-width:1;"/><path d="M1583.9583,1246.5959 L1583.9583,1256.5959 L1593.9583,1256.5959 L1583.9583,1246.5959 " fill="#FFCCCC" style="stroke:#000000;stroke-width:1;"/><text fill="#000000" font-family="Verdana" font-size="13" lengthAdjust="spacing" textLength="179.9307" x="1399.0276" y="1264.6658">&#240;&#376;&#8221;&#180; Ressaisie #7 (20 min)</text><rect fill="#FFFFFF" height="34.584" rx="12.5" ry="12.5" style="stroke:#000000;stroke-width:1;" width="180.2422" x="1192.7854" y="1242.2036"/><text fill="#000000" font-family="Verdana" font-size="12" lengthAdjust="spacing" textLength="160.2422" x="1202.7854" y="1264.2681">Saisit reception dans Sage</text><line style="stroke:#000000;stroke-width:1;" x1="1186.7854" x2="1186.7854" y1="55.0166" y2="1577.7515"/><line style="stroke:#000000;stroke-width:1;" x1="1601.1672" x2="1601.1672" y1="55.0166" y2="1577.7515"/><line style="stroke:#000000;stroke-width:1;" x1="303.6282" x2="303.6282" y1="101.8926" y2="121.8926"/><polygon fill="#000000" points="299.6282,111.8926,303.6282,121.8926,307.6282,111.8926,303.6282,115.8926" style="stroke:#000000;stroke-width:1;"/><line style="stroke:#000000;stroke-width:1;" x1="303.6282" x2="303.6282" y1="156.4766" y2="176.4766"/><polygon fill="#000000" points="299.6282,166.4766,303.6282,176.4766,307.6282,166.4766,303.6282,170.4766" style="stroke:#000000;stroke-width:1;"/><line style="stroke:#000000;stroke-width:1;" x1="303.6282" x2="303.6282" y1="211.0605" y2="231.0605"/><polygon fill="#000000" points="299.6282,221.0605,303.6282,231.0605,307.6282,221.0605,303.6282,225.0605" style="stroke:#000000;stroke-width:1;"/><line style="stroke:#000000;stroke-width:1;" x1="508.2908" x2="508.2908" y1="1514.7515" y2="1549.7515"/><polygon fill="#000000" points="504.2908,1539.7515,508.2908,1549.7515,512.2908,1539.7515,508.2908,1543.7515" style="stroke:#000000;stroke-width:1;"/><line style="stroke:#000000;stroke-width:1;" x1="236.8081" x2="98.9656" y1="1458.1675" y2="1458.1675"/><line style="stroke:#000000;stroke-width:1;" x1="98.9656" x2="98.9656" y1="1458.1675" y2="1491.5745"/><polygon fill="#000000" points="94.9656,1481.5745,98.9656,1491.5745,102.9656,1481.5745,98.9656,1485.5745" style="stroke:#000000;stroke-width:1;"/><line style="stroke:#000000;stroke-width:1;" x1="370.4482" x2="508.2908" y1="1458.1675" y2="1458.1675"/><line style="stroke:#000000;stroke-width:1;" x1="508.2908" x2="508.2908" y1="1458.1675" y2="1480.1675"/><polygon fill="#000000" points="504.2908,1470.1675,508.2908,1480.1675,512.2908,1470.1675,508.2908,1474.1675" style="stroke:#000000;stroke-width:1;"/><line style="stroke:#000000;stroke-width:1;" x1="303.6282" x2="303.6282" y1="1331.3716" y2="1446.1675"/><polygon fill="#000000" points="299.6282,1436.1675,303.6282,1446.1675,307.6282,1436.1675,303.6282,1440.1675" style="stroke:#000000;stroke-width:1;"/><line style="stroke:#000000;stroke-width:1;" x1="771.5503" x2="973.1121" y1="297.6445" y2="297.6445"/><polygon fill="#000000" points="969.1121,341.6208,973.1121,351.6208,977.1121,341.6208,973.1121,345.6208" style="stroke:#000000;stroke-width:1;"/><line style="stroke:#000000;stroke-width:1;" x1="973.1121" x2="973.1121" y1="297.6445" y2="400.9128"/><line style="stroke:#000000;stroke-width:1;" x1="973.1121" x2="720.3503" y1="400.9128" y2="400.9128"/><polygon fill="#000000" points="730.3503,396.9128,720.3503,400.9128,730.3503,404.9128,726.3503,400.9128" style="stroke:#000000;stroke-width:1;"/><line style="stroke:#000000;stroke-width:1;" x1="708.3503" x2="708.3503" y1="412.9128" y2="432.9128"/><polygon fill="#000000" points="704.3503,422.9128,708.3503,432.9128,712.3503,422.9128,708.3503,426.9128" style="stroke:#000000;stroke-width:1;"/><line style="stroke:#000000;stroke-width:1;" x1="708.3503" x2="708.3503" y1="467.4968" y2="487.4968"/><polygon fill="#000000" points="704.3503,477.4968,708.3503,487.4968,712.3503,477.4968,708.3503,481.4968" style="stroke:#000000;stroke-width:1;"/><line style="stroke:#000000;stroke-width:1;" x1="708.3503" x2="708.3503" y1="566.0808" y2="594.2725"/><polygon fill="#000000" points="704.3503,584.2725,708.3503,594.2725,712.3503,584.2725,708.3503,588.2725" style="stroke:#000000;stroke-width:1;"/><line style="stroke:#000000;stroke-width:1;" x1="775.9143" x2="1032.3694" y1="554.0808" y2="554.0808"/><polygon fill="#000000" points="1028.3694,601.5645,1032.3694,611.5645,1036.3694,601.5645,1032.3694,605.5645" style="stroke:#000000;stroke-width:1;"/><line style="stroke:#000000;stroke-width:1;" x1="1032.3694" x2="1032.3694" y1="554.0808" y2="664.3638"/><line style="stroke:#000000;stroke-width:1;" x1="1032.3694" x2="720.3503" y1="664.3638" y2="664.3638"/><polygon fill="#000000" points="730.3503,660.3638,720.3503,664.3638,730.3503,668.3638,726.3503,664.3638" style="stroke:#000000;stroke-width:1;"/><line style="stroke:#000000;stroke-width:1;" x1="708.3503" x2="708.3503" y1="628.8564" y2="652.3638"/><polygon fill="#000000" points="704.3503,642.3638,708.3503,652.3638,712.3503,642.3638,708.3503,646.3638" style="stroke:#000000;stroke-width:1;"/><line style="stroke:#000000;stroke-width:1;" x1="708.3503" x2="708.3503" y1="522.0808" y2="542.0808"/><polygon fill="#000000" points="704.3503,532.0808,708.3503,542.0808,712.3503,532.0808,708.3503,536.0808" style="stroke:#000000;stroke-width:1;"/><line style="stroke:#000000;stroke-width:1;" x1="708.3503" x2="708.3503" y1="676.3638" y2="696.3638"/><polygon fill="#000000" points="704.3503,686.3638,708.3503,696.3638,712.3503,686.3638,708.3503,690.3638" style="stroke:#000000;stroke-width:1;"/><line style="stroke:#000000;stroke-width:1;" x1="708.3503" x2="708.3503" y1="730.9478" y2="750.9478"/><polygon fill="#000000" points="704.3503,740.9478,708.3503,750.9478,712.3503,740.9478,708.3503,744.9478" style="stroke:#000000;stroke-width:1;"/><line style="stroke:#000000;stroke-width:1;" x1="708.3503" x2="708.3503" y1="785.5317" y2="805.5317"/><polygon fill="#000000" points="704.3503,795.5317,708.3503,805.5317,712.3503,795.5317,708.3503,799.5317" style="stroke:#000000;stroke-width:1;"/><line style="stroke:#000000;stroke-width:1;" x1="708.3503" x2="708.3503" y1="840.1157" y2="860.1157"/><polygon fill="#000000" points="704.3503,850.1157,708.3503,860.1157,712.3503,850.1157,708.3503,854.1157" style="stroke:#000000;stroke-width:1;"/><line style="stroke:#000000;stroke-width:1;" x1="708.3503" x2="708.3503" y1="894.6997" y2="914.6997"/><polygon fill="#000000" points="704.3503,904.6997,708.3503,914.6997,712.3503,904.6997,708.3503,908.6997" style="stroke:#000000;stroke-width:1;"/><line style="stroke:#000000;stroke-width:1;" x1="1120.0774" x2="1120.0774" y1="1003.8677" y2="1023.8677"/><polygon fill="#000000" points="1116.0774,1013.8677,1120.0774,1023.8677,1124.0774,1013.8677,1120.0774,1017.8677" style="stroke:#000000;stroke-width:1;"/><line style="stroke:#000000;stroke-width:1;" x1="1282.9065" x2="1282.9065" y1="1113.0356" y2="1133.0356"/><polygon fill="#000000" points="1278.9065,1123.0356,1282.9065,1133.0356,1286.9065,1123.0356,1282.9065,1127.0356" style="stroke:#000000;stroke-width:1;"/><line style="stroke:#000000;stroke-width:1;" x1="1282.9065" x2="1282.9065" y1="1167.6196" y2="1187.6196"/><polygon fill="#000000" points="1278.9065,1177.6196,1282.9065,1187.6196,1286.9065,1177.6196,1282.9065,1181.6196" style="stroke:#000000;stroke-width:1;"/><line style="stroke:#000000;stroke-width:1;" x1="1282.9065" x2="1282.9065" y1="1222.2036" y2="1242.2036"/><polygon fill="#000000" points="1278.9065,1232.2036,1282.9065,1242.2036,1286.9065,1232.2036,1282.9065,1236.2036" style="stroke:#000000;stroke-width:1;"/><line style="stroke:#000000;stroke-width:1;" x1="708.3503" x2="708.3503" y1="309.6445" y2="321.9867"/><line style="stroke:#000000;stroke-width:1;" x1="708.3503" x2="303.6282" y1="321.9867" y2="321.9867"/><line style="stroke:#000000;stroke-width:1;" x1="303.6282" x2="303.6282" y1="321.9867" y2="334.3289"/><polygon fill="#000000" points="299.6282,324.3289,303.6282,334.3289,307.6282,324.3289,303.6282,328.3289" style="stroke:#000000;stroke-width:1;"/><line style="stroke:#000000;stroke-width:1;" x1="303.6282" x2="303.6282" y1="368.9128" y2="376.5707"/><line style="stroke:#000000;stroke-width:1;" x1="303.6282" x2="708.3503" y1="376.5707" y2="376.5707"/><line style="stroke:#000000;stroke-width:1;" x1="708.3503" x2="708.3503" y1="376.5707" y2="388.9128"/><polygon fill="#000000" points="704.3503,378.9128,708.3503,388.9128,712.3503,378.9128,708.3503,382.9128" style="stroke:#000000;stroke-width:1;"/><line style="stroke:#000000;stroke-width:1;" x1="303.6282" x2="303.6282" y1="265.6445" y2="270.6445"/><line style="stroke:#000000;stroke-width:1;" x1="303.6282" x2="708.3503" y1="270.6445" y2="270.6445"/><line style="stroke:#000000;stroke-width:1;" x1="708.3503" x2="708.3503" y1="270.6445" y2="285.6445"/><polygon fill="#000000" points="704.3503,275.6445,708.3503,285.6445,712.3503,275.6445,708.3503,279.6445" style="stroke:#000000;stroke-width:1;"/><line style="stroke:#000000;stroke-width:1;" x1="708.3503" x2="708.3503" y1="949.2837" y2="954.2837"/><line style="stroke:#000000;stroke-width:1;" x1="708.3503" x2="1120.0774" y1="954.2837" y2="954.2837"/><line style="stroke:#000000;stroke-width:1;" x1="1120.0774" x2="1120.0774" y1="954.2837" y2="969.2837"/><polygon fill="#000000" points="1116.0774,959.2837,1120.0774,969.2837,1124.0774,959.2837,1120.0774,963.2837" style="stroke:#000000;stroke-width:1;"/><line style="stroke:#000000;stroke-width:1;" x1="1120.0774" x2="1120.0774" y1="1058.4517" y2="1063.4517"/><line style="stroke:#000000;stroke-width:1;" x1="1120.0774" x2="1282.9065" y1="1063.4517" y2="1063.4517"/><line style="stroke:#000000;stroke-width:1;" x1="1282.9065" x2="1282.9065" y1="1063.4517" y2="1078.4517"/><polygon fill="#000000" points="1278.9065,1068.4517,1282.9065,1078.4517,1286.9065,1068.4517,1282.9065,1072.4517" style="stroke:#000000;stroke-width:1;"/><line style="stroke:#000000;stroke-width:1;" x1="1282.9065" x2="1282.9065" y1="1276.7876" y2="1281.7876"/><line style="stroke:#000000;stroke-width:1;" x1="1282.9065" x2="303.6282" y1="1281.7876" y2="1281.7876"/><line style="stroke:#000000;stroke-width:1;" x1="303.6282" x2="303.6282" y1="1281.7876" y2="1296.7876"/><polygon fill="#000000" points="299.6282,1286.7876,303.6282,1296.7876,307.6282,1286.7876,303.6282,1290.7876" style="stroke:#000000;stroke-width:1;"/><text fill="#000000" font-family="Verdana" font-size="18" lengthAdjust="spacing" textLength="142.3125" x="238.1625" y="73.1133">Marc (Chantier)</text><text fill="#000000" font-family="Verdana" font-size="18" lengthAdjust="spacing" textLength="141.2227" x="759.3921" y="73.1133">Sylvie (Bureau)</text><text fill="#000000" font-family="Verdana" font-size="18" lengthAdjust="spacing" textLength="105.2227" x="1066.4661" y="73.1133">Fournisseur</text><text fill="#000000" font-family="Verdana" font-size="18" lengthAdjust="spacing" textLength="109.8809" x="1339.0359" y="73.1133">Eric (Depot)</text><!--SRC=[dPNFRYD54CRlynI58YGxiCJhh7UbsGDA77iLaMM3nq52sajdfXmtz7GFtJtUhEH397W2E84M2UK05n1xuB0I0YHREV4MUG5UWQ_7_nACC8jFe_vJ_TMllYg_uOUSCnLAI1rvwHNJiJKfErSwQfiy5pfZUYmyMycAxb3oJEPAQ7PKwtZXQQ_TF-aSrQDel7KizIVZnyAcL6iFXVQIRNqSEI-iZ-B3ZB4oa4odx8pKbCzZFeoqyKnMdWrzJ6rn2WcxZvhljF1Ogv57SNl8DXtYdj5KY09HRrwXhMwtZLzCqvTNhwullfdyJ2tAyO3bT7OpYdkS5qfwcdus-PQKmDlOhrN7wfk2zNZ0bdNA9FC2CQNZaEnHEB-lIXudpzK8QTNsIykYHCPoGBNvOYPTORGCERrR9x36i-yRNO-8raaHnNlU0nFJMzGJHG7WjVDTA2JwTutDMSO5swna5x5oqFEabFM8TIO7qBic4an0uti3AjLB3rUWCw4T9U8CTJ_et2xFla3ap6ZDC40w5CRBJqlm22clG7bhoX7VJfbsgAjC6JB7GqOwF6oNDqH9G-64pJRdUhT98s4bg452OPmBTDrJtPCEKeYjvTB2EM_-0uPbYWDJMYsT2qThdVEKrKOV7CopvaBOGYg5xoZU2-ZKhNYRuXmBHsYfTD5RuAFacOPBEtfaKACEtAcmhmVIeacaqPijwfm0KQQjUr6SY0hkieglSRjr-tO5Xf9IZkHh1BaFktLNF62rlXNIhrA6rOxaoA8spJkxz36EEj1VzDH706gUZJjMeZiEk31-vjQKYy12Ct2D4D05Bl67c25Xg6YJmqXAUFXxazP33IK5o9vA5NGDBCCvy1FyWGsiG6OPwegO_Z_MqwL2B-dPXTh_LOK70DEePXEWh4s9WA94f_ED2Lhrtt981-iOcw-FdAqUP_7qyi_VVxtwWXOXwLGPfB_UU0tyi4XpaLzDNk8FeVJp3ekf-VQzHcDwUNtnzUI7sRaG6QTwZ96VnJIlxJB67oycFrBYBJ8b49S5XpsqPlKmFZDSJ8St-nQQ7rbc3TLNNrvVV4VTCBYNqf6fboXLDIATDyMYqGVAeBxwR9QIuW5cr_Psqj_h7oRzmmzEEWaTzvwqEqboacnlFzKBwGUm3y2QvmoZBJC8-zUVNqv-cVuqUOM3gsAvc1wW-QMRXm3NlYZFbummXh1JyNjnzHjLum9txhPs5ismsFuRNXowttXlJdS7rleB]--></g></svg>