<svg xmlns="http://www.w3.org/2000/svg" xmlns:xlink="http://www.w3.org/1999/xlink" contentStyleType="text/css" height="955px" preserveAspectRatio="none" style="width:3757px;height:955px;background:#FFFFFF;" version="1.1" viewBox="0 0 3757 955" width="3757px" zoomAndPan="magnify"><title>Architecture CIBLE - Systeme Integre &amp; Moderne</title><defs/><g><text fill="#000000" font-family="Verdana" font-size="22" font-weight="bold" lengthAdjust="spacing" textLength="607.2773" x="1570.4645" y="37.1182">Architecture CIBLE - Systeme Integre &amp; Moderne</text><!--cluster Terrain--><g id="cluster_Terrain"><polygon fill="#E6FFE6" points="2177.1697,68.7373,2187.1697,58.7373,2502.1697,58.7373,2502.1697,403.7373,2492.1697,413.7373,2177.1697,413.7373,2177.1697,68.7373" style="stroke:#000000;stroke-width:1;"/><line style="stroke:#000000;stroke-width:1;" x1="2492.1697" x2="2502.1697" y1="68.7373" y2="58.7373"/><line style="stroke:#000000;stroke-width:1;" x1="2177.1697" x2="2492.1697" y1="68.7373" y2="68.7373"/><line style="stroke:#000000;stroke-width:1;" x1="2492.1697" x2="2492.1697" y1="68.7373" y2="413.7373"/><text fill="#000000" font-family="Verdana" font-size="14" font-weight="bold" lengthAdjust="spacing" textLength="113.1895" x="2279.075" y="85.8125">Terrain Mobile</text></g><!--cluster DataCenter--><g id="cluster_DataCenter"><polygon fill="#E6F3FF" points="549.1697,277.7373,559.1697,267.7373,2040.1697,267.7373,2040.1697,799.7373,2030.1697,809.7373,549.1697,809.7373,549.1697,277.7373" style="stroke:#000000;stroke-width:1;"/><line style="stroke:#000000;stroke-width:1;" x1="2030.1697" x2="2040.1697" y1="277.7373" y2="267.7373"/><line style="stroke:#000000;stroke-width:1;" x1="549.1697" x2="2030.1697" y1="277.7373" y2="277.7373"/><line style="stroke:#000000;stroke-width:1;" x1="2030.1697" x2="2030.1697" y1="277.7373" y2="809.7373"/><text fill="#000000" font-family="Verdana" font-size="14" font-weight="bold" lengthAdjust="spacing" textLength="150.4658" x="1215.4368" y="294.8125">Data Center Hybrid</text></g><!--cluster DepotConnecte--><g id="cluster_DepotConnecte"><polygon fill="#FFF0E6" points="2640.1697,277.7373,2650.1697,267.7373,3190.1697,267.7373,3190.1697,622.7373,3180.1697,632.7373,2640.1697,632.7373,2640.1697,277.7373" style="stroke:#000000;stroke-width:1;"/><line style="stroke:#000000;stroke-width:1;" x1="3180.1697" x2="3190.1697" y1="277.7373" y2="267.7373"/><line style="stroke:#000000;stroke-width:1;" x1="2640.1697" x2="3180.1697" y1="277.7373" y2="277.7373"/><line style="stroke:#000000;stroke-width:1;" x1="3180.1697" x2="3180.1697" y1="277.7373" y2="632.7373"/><text fill="#000000" font-family="Verdana" font-size="14" font-weight="bold" lengthAdjust="spacing" textLength="124.3799" x="2848.9797" y="294.8125">Depot Connecte</text></g><!--cluster CloudAPI--><g id="cluster_CloudAPI"><path d="M2081.5637,507.9487 C2090.9432,492.5798 2109.3308,487.9343 2118.8098,507.8436 C2127.7372,489.1261 2140.6265,485.857 2154.1112,503.4077 C2165.5057,485.7922 2185.1445,480.5258 2196.9128,503.0087 C2208.1949,483.1381 2224.0436,483.8821 2235.1377,503.1921 C2245.4603,485.8755 2261.2228,484.3495 2271.7754,502.9575 C2280.26,486.2974 2291.9196,484.907 2303.0063,500.4325 C2312.6837,481.1851 2329.3837,474.5108 2344.5028,494.7077 C2355.9809,477.5663 2372.5335,483.5654 2378.7331,500.0769 C2390.5885,482.1481 2404.3027,479.7034 2417.9398,498.1569 C2429.6866,482.3144 2448.5027,483.0296 2458.4858,500.3154 C2471.2534,487.1668 2482.6343,488.8624 2491.4485,504.7962 C2504.3341,486.2359 2517.9901,486.1661 2531.9343,503.6057 C2543.263,488.7992 2558.453,489.0131 2567.1327,506.4936 C2583.3847,487.5916 2597.6317,490.3147 2608.1697,512.2373 C2611.4131,514.4053 2612.0176,516.461 2608.6001,519.0497 C2630.4483,534.0382 2634.7538,549.3599 2613.2718,568.4464 C2635.7556,588.9537 2629.8341,615.6296 2601.1697,625.2373 C2603.0455,623.7733 2604.3907,624.7808 2604.76,626.7932 C2594.3116,644.3859 2581.3933,646.246 2569.3375,628.3998 C2561.4225,649.9526 2546.4008,652.9534 2531.9073,634.5647 C2518.9733,653.1149 2504.2002,651.7641 2495.5757,630.6204 C2486.3435,653.3833 2473.5281,652.4601 2457.5478,637.4061 C2445.8875,653.05 2433.2987,655.7989 2421.4475,637.6098 C2409.2112,658.2616 2394.9064,657.7649 2381.5592,638.7262 C2371.2723,660.228 2351.0639,656.9745 2341.0628,638.4371 C2333.958,654.7807 2317.2693,656.3907 2307.0171,641.9139 C2292.6078,655.4904 2275.0376,657.2949 2267.6873,634.3186 C2256.539,650.8821 2237.6654,650.6044 2228.5317,632.0711 C2219.4837,649.1452 2208.8793,650.778 2195.3113,636.9265 C2180.3103,652.3043 2164.7319,653.0736 2155.4563,630.8569 C2143.8485,644.8622 2132.611,647.6467 2121.1837,630.6574 C2100.8545,649.1069 2080.3397,647.7722 2072.1697,618.2373 C2075.7403,616.1244 2078.5615,617.9469 2078.0563,622.0791 C2049.0627,609.0578 2043.2547,587.5443 2068.8775,565.6406 C2044.6819,540.569 2045.0475,520.3721 2079.1697,505.2373 C2081.1668,505.0335 2082.088,505.9262 2081.5637,507.9487 " fill="#F0F8FF" style="stroke:#000000;stroke-width:1;"/><text fill="#000000" font-family="Verdana" font-size="14" font-weight="bold" lengthAdjust="spacing" textLength="187.5439" x="2246.3977" y="524.3125">Fournisseurs Connectes</text></g><!--cluster ServicesCloud--><g id="cluster_ServicesCloud"><path d="M57.6565,291.1667 C65.293,275.8329 77.9602,275.55 88.1718,288.3762 C96.4386,270.9204 106.6578,270.0967 119.1245,284.2656 C128.7465,270.0903 141.4899,269.6824 151.64,283.6556 C159.9855,265.3264 172.4712,268.0214 184.1802,280.0502 C195.1945,260.5139 208.705,260.7421 221.0509,278.7422 C233.1156,264.3909 244.4633,268.0265 253.3407,282.3334 C262.1514,264.7527 271.7204,267.526 283.545,279.2243 C292.4024,262.8416 305.9913,262.2125 315.424,278.6657 C325.3583,262.5568 339.4136,265.2176 348.0992,279.987 C360.0833,264.9279 377.7258,267.3415 385.3583,284.9501 C394.9236,269.0977 407.9707,269.2185 418.0434,284.416 C429.7932,271.3405 440.525,270.4463 450.6871,286.213 C458.5627,272.1605 472.7057,273.3902 479.6089,287.2216 C493.2059,271.1779 508.5011,275.2197 517.1697,292.7373 C520.6151,291.6024 523.0373,293.891 522.4276,297.3642 C545.031,311.3683 547.5353,334.7844 525.2557,351.1485 C546.8964,374.0974 543.6383,398.0183 510.1697,405.7373 C512.0446,405.5144 513.5514,406.465 512.7032,408.6284 C502.6716,427.8115 490.8133,428.2127 477.5505,411.8213 C466.6004,423.8979 455.9056,423.1143 448.1118,408.3585 C438.8609,424.1342 424.6152,424.8828 414.7743,408.9793 C407.1744,424.301 394.9651,427.098 384.1511,412.2406 C375.6181,428.7446 359.7456,429.2445 350.8911,412.5628 C341.7736,424.7166 327.533,423.9687 319.6791,410.9933 C310.4506,427.1281 298.1112,429.8198 287.1907,412.6435 C276.0763,431.3397 259.864,431.1511 249.7267,411.6843 C239.9577,424.485 227.5118,423.3499 219.8047,409.3797 C208.7351,425.7435 198.7548,422.2329 188.5672,408.4653 C181.3717,425.1487 164.4704,428.9037 153.4507,412.5276 C143.2685,428.4442 133.2138,427.9127 123.1568,412.4069 C110.2631,428.8557 97.2916,426.9406 89.6081,407.5321 C73.0107,426.7099 53.5658,420.9986 45.1697,398.7373 C49.0576,399.7221 49.3896,401.7492 47.1326,404.7425 C15.3927,391.285 13.9611,372.4433 35.2651,347.9095 C11,321.3923 16.5191,295.9634 52.1697,285.7373 C56.2578,285.4166 57.991,287.018 57.6565,291.1667 " fill="#F5F5F5" style="stroke:#000000;stroke-width:1;"/><text fill="#000000" font-family="Verdana" font-size="14" font-weight="bold" lengthAdjust="spacing" textLength="115.001" x="223.6692" y="304.8125">Services Cloud</text></g><!--entity Marc--><g id="elem_Marc"><rect fill="#FFFFFF" height="54.0293" rx="2.5" ry="2.5" style="stroke:#000000;stroke-width:1;" width="129.1084" x="2356.6697" y="129.7373"/><text fill="#000000" font-family="Verdana" font-size="14" lengthAdjust="spacing" textLength="33.4756" x="2366.6697" y="153.8125">Marc</text><text fill="#000000" font-family="Verdana" font-size="14" lengthAdjust="spacing" textLength="109.1084" x="2366.6697" y="170.8271">(Chef Chantier)</text></g><!--entity AppMobile--><g id="elem_AppMobile"><rect fill="#90EE90" height="64.0293" rx="2.5" ry="2.5" style="stroke:#000000;stroke-width:1;" width="158.46" x="2265.1697" y="333.7373"/><rect fill="#90EE90" height="10" style="stroke:#000000;stroke-width:1;" width="15" x="2403.6297" y="338.7373"/><rect fill="#90EE90" height="2" style="stroke:#000000;stroke-width:1;" width="4" x="2401.6297" y="340.7373"/><rect fill="#90EE90" height="2" style="stroke:#000000;stroke-width:1;" width="4" x="2401.6297" y="344.7373"/><text fill="#000000" font-family="Verdana" font-size="14" lengthAdjust="spacing" textLength="118.46" x="2280.1697" y="367.8125">App Odoo Native</text><text fill="#000000" font-family="Verdana" font-size="14" lengthAdjust="spacing" textLength="112.6357" x="2280.1697" y="384.8271">(iOS + Android)</text></g><!--entity Offline--><g id="elem_Offline"><rect fill="#98FB98" height="64.0293" rx="2.5" ry="2.5" style="stroke:#000000;stroke-width:1;" width="128.0264" x="2193.1697" y="124.7373"/><rect fill="#98FB98" height="10" style="stroke:#000000;stroke-width:1;" width="15" x="2301.1961" y="129.7373"/><rect fill="#98FB98" height="2" style="stroke:#000000;stroke-width:1;" width="4" x="2299.1961" y="131.7373"/><rect fill="#98FB98" height="2" style="stroke:#000000;stroke-width:1;" width="4" x="2299.1961" y="135.7373"/><text fill="#000000" font-family="Verdana" font-size="14" lengthAdjust="spacing" textLength="88.0264" x="2208.1697" y="158.8125">Mode Offline</text><text fill="#000000" font-family="Verdana" font-size="14" lengthAdjust="spacing" textLength="82.9268" x="2208.1697" y="175.8271">(Sync auto)</text></g><!--entity Odoo--><g id="elem_Odoo"><rect fill="#87CEEB" height="64.0293" rx="2.5" ry="2.5" style="stroke:#000000;stroke-width:1;" width="139.6953" x="565.1697" y="553.2373"/><rect fill="#87CEEB" height="10" style="stroke:#000000;stroke-width:1;" width="15" x="684.865" y="558.2373"/><rect fill="#87CEEB" height="2" style="stroke:#000000;stroke-width:1;" width="4" x="682.865" y="560.2373"/><rect fill="#87CEEB" height="2" style="stroke:#000000;stroke-width:1;" width="4" x="682.865" y="564.2373"/><text fill="#000000" font-family="Verdana" font-size="14" lengthAdjust="spacing" textLength="99.6953" x="580.1697" y="587.3125">ERP Odoo v17</text><text fill="#000000" font-family="Verdana" font-size="14" lengthAdjust="spacing" textLength="95.0811" x="580.1697" y="604.3271">(On-premise)</text></g><!--entity Postgres--><g id="elem_Postgres"><path d="M565.1697,740.7373 C565.1697,730.7373 649.1448,730.7373 649.1448,730.7373 C649.1448,730.7373 733.1199,730.7373 733.1199,740.7373 L733.1199,783.7666 C733.1199,793.7666 649.1448,793.7666 649.1448,793.7666 C649.1448,793.7666 565.1697,793.7666 565.1697,783.7666 L565.1697,740.7373 " fill="#4682B4" style="stroke:#000000;stroke-width:1;"/><path d="M565.1697,740.7373 C565.1697,750.7373 649.1448,750.7373 649.1448,750.7373 C649.1448,750.7373 733.1199,750.7373 733.1199,740.7373 " fill="none" style="stroke:#000000;stroke-width:1;"/><text fill="#000000" font-family="Verdana" font-size="14" lengthAdjust="spacing" textLength="103.8926" x="575.1697" y="768.8125">PostgreSQL 15</text><text fill="#000000" font-family="Verdana" font-size="14" lengthAdjust="spacing" textLength="147.9502" x="575.1697" y="785.8271">(Haute Performance)</text></g><!--entity APIGateway--><g id="elem_APIGateway"><rect fill="#5F9EA0" height="64.0293" rx="2.5" ry="2.5" style="stroke:#000000;stroke-width:1;" width="172.4326" x="937.1697" y="553.2373"/><rect fill="#5F9EA0" height="10" style="stroke:#000000;stroke-width:1;" width="15" x="1089.6023" y="558.2373"/><rect fill="#5F9EA0" height="2" style="stroke:#000000;stroke-width:1;" width="4" x="1087.6023" y="560.2373"/><rect fill="#5F9EA0" height="2" style="stroke:#000000;stroke-width:1;" width="4" x="1087.6023" y="564.2373"/><text fill="#000000" font-family="Verdana" font-size="14" lengthAdjust="spacing" textLength="90.0977" x="952.1697" y="587.3125">API Gateway</text><text fill="#000000" font-family="Verdana" font-size="14" lengthAdjust="spacing" textLength="132.4326" x="952.1697" y="604.3271">(REST + GraphQL)</text></g><!--entity MLEngine--><g id="elem_MLEngine"><rect fill="#48D1CC" height="64.0293" rx="2.5" ry="2.5" style="stroke:#000000;stroke-width:1;" width="129.3389" x="1276.6697" y="333.7373"/><rect fill="#48D1CC" height="10" style="stroke:#000000;stroke-width:1;" width="15" x="1386.0086" y="338.7373"/><rect fill="#48D1CC" height="2" style="stroke:#000000;stroke-width:1;" width="4" x="1384.0086" y="340.7373"/><rect fill="#48D1CC" height="2" style="stroke:#000000;stroke-width:1;" width="4" x="1384.0086" y="344.7373"/><text fill="#000000" font-family="Verdana" font-size="14" lengthAdjust="spacing" textLength="71.9893" x="1291.6697" y="367.8125">ML Engine</text><text fill="#000000" font-family="Verdana" font-size="14" lengthAdjust="spacing" textLength="89.3389" x="1291.6697" y="384.8271">(Predictions)</text></g><!--entity Eric--><g id="elem_Eric"><rect fill="#FFFFFF" height="54.0293" rx="2.5" ry="2.5" style="stroke:#000000;stroke-width:1;" width="108.2041" x="2916.1697" y="558.2373"/><text fill="#000000" font-family="Verdana" font-size="14" lengthAdjust="spacing" textLength="25.9629" x="2926.1697" y="582.3125">Eric</text><text fill="#000000" font-family="Verdana" font-size="14" lengthAdjust="spacing" textLength="88.2041" x="2926.1697" y="599.3271">(Magasinier)</text></g><!--entity PortiqueRFID--><g id="elem_PortiqueRFID"><rect fill="#FFD700" height="64.0293" rx="2.5" ry="2.5" style="stroke:#000000;stroke-width:1;" width="151.9111" x="2782.1697" y="333.7373"/><rect fill="#FFD700" height="10" style="stroke:#000000;stroke-width:1;" width="15" x="2914.0808" y="338.7373"/><rect fill="#FFD700" height="2" style="stroke:#000000;stroke-width:1;" width="4" x="2912.0808" y="340.7373"/><rect fill="#FFD700" height="2" style="stroke:#000000;stroke-width:1;" width="4" x="2912.0808" y="344.7373"/><text fill="#000000" font-family="Verdana" font-size="14" lengthAdjust="spacing" textLength="97.5762" x="2797.1697" y="367.8125">Portique RFID</text><text fill="#000000" font-family="Verdana" font-size="14" lengthAdjust="spacing" textLength="111.9111" x="2797.1697" y="384.8271">(Zebra FX9600)</text></g><!--entity Douchettes--><g id="elem_Douchettes"><rect fill="#FFA500" height="64.0293" rx="2.5" ry="2.5" style="stroke:#000000;stroke-width:1;" width="158.3574" x="2971.1697" y="333.7373"/><rect fill="#FFA500" height="10" style="stroke:#000000;stroke-width:1;" width="15" x="3109.5271" y="338.7373"/><rect fill="#FFA500" height="2" style="stroke:#000000;stroke-width:1;" width="4" x="3107.5271" y="340.7373"/><rect fill="#FFA500" height="2" style="stroke:#000000;stroke-width:1;" width="4" x="3107.5271" y="344.7373"/><text fill="#000000" font-family="Verdana" font-size="14" lengthAdjust="spacing" textLength="118.3574" x="2986.1697" y="367.8125">Douchettes Scan</text><text fill="#000000" font-family="Verdana" font-size="14" lengthAdjust="spacing" textLength="115.8486" x="2986.1697" y="384.8271">(Zebra MC3300)</text></g><!--entity StockReel--><g id="elem_StockReel"><path d="M2656.1697,563.7373 C2656.1697,553.7373 2729.1013,553.7373 2729.1013,553.7373 C2729.1013,553.7373 2802.033,553.7373 2802.033,563.7373 L2802.033,606.7666 C2802.033,616.7666 2729.1013,616.7666 2729.1013,616.7666 C2729.1013,616.7666 2656.1697,616.7666 2656.1697,606.7666 L2656.1697,563.7373 " fill="#FF8C00" style="stroke:#000000;stroke-width:1;"/><path d="M2656.1697,563.7373 C2656.1697,573.7373 2729.1013,573.7373 2729.1013,573.7373 C2729.1013,573.7373 2802.033,573.7373 2802.033,563.7373 " fill="none" style="stroke:#000000;stroke-width:1;"/><text fill="#000000" font-family="Verdana" font-size="14" lengthAdjust="spacing" textLength="125.8633" x="2666.1697" y="591.8125">Stock Temps Reel</text><text fill="#000000" font-family="Verdana" font-size="14" lengthAdjust="spacing" textLength="85.1484" x="2666.1697" y="608.8271">(RFID Tags)</text></g><!--entity RexelAPI--><g id="elem_RexelAPI"><rect fill="#B0E0E6" height="64.0293" rx="2.5" ry="2.5" style="stroke:#000000;stroke-width:1;" width="183.5479" x="2080.1697" y="553.2373"/><rect fill="#B0E0E6" height="10" style="stroke:#000000;stroke-width:1;" width="15" x="2243.7175" y="558.2373"/><rect fill="#B0E0E6" height="2" style="stroke:#000000;stroke-width:1;" width="4" x="2241.7175" y="560.2373"/><rect fill="#B0E0E6" height="2" style="stroke:#000000;stroke-width:1;" width="4" x="2241.7175" y="564.2373"/><text fill="#000000" font-family="Verdana" font-size="14" lengthAdjust="spacing" textLength="67.3682" x="2095.1697" y="587.3125">Rexel API</text><text fill="#000000" font-family="Verdana" font-size="14" lengthAdjust="spacing" textLength="143.5479" x="2095.1697" y="604.3271">(Catalogue + Stock)</text></g><!--entity SoneAPI--><g id="elem_SoneAPI"><rect fill="#B0E0E6" height="64.0293" rx="2.5" ry="2.5" style="stroke:#000000;stroke-width:1;" width="139.7021" x="2460.1697" y="553.2373"/><rect fill="#B0E0E6" height="10" style="stroke:#000000;stroke-width:1;" width="15" x="2579.8718" y="558.2373"/><rect fill="#B0E0E6" height="2" style="stroke:#000000;stroke-width:1;" width="4" x="2577.8718" y="560.2373"/><rect fill="#B0E0E6" height="2" style="stroke:#000000;stroke-width:1;" width="4" x="2577.8718" y="564.2373"/><text fill="#000000" font-family="Verdana" font-size="14" lengthAdjust="spacing" textLength="87.1992" x="2475.1697" y="587.3125">Sonepar API</text><text fill="#000000" font-family="Verdana" font-size="14" lengthAdjust="spacing" textLength="99.7021" x="2475.1697" y="604.3271">(Prix + Dispo)</text></g><!--entity AutresAPI--><g id="elem_AutresAPI"><rect fill="#B0E0E6" height="64.0293" rx="2.5" ry="2.5" style="stroke:#000000;stroke-width:1;" width="124.6084" x="2299.6697" y="553.2373"/><rect fill="#B0E0E6" height="10" style="stroke:#000000;stroke-width:1;" width="15" x="2404.2781" y="558.2373"/><rect fill="#B0E0E6" height="2" style="stroke:#000000;stroke-width:1;" width="4" x="2402.2781" y="560.2373"/><rect fill="#B0E0E6" height="2" style="stroke:#000000;stroke-width:1;" width="4" x="2402.2781" y="564.2373"/><text fill="#000000" font-family="Verdana" font-size="14" lengthAdjust="spacing" textLength="81.6758" x="2314.6697" y="587.3125">Autres APIs</text><text fill="#000000" font-family="Verdana" font-size="14" lengthAdjust="spacing" textLength="84.6084" x="2314.6697" y="604.3271">(Extensible)</text></g><!--entity PowerBI--><g id="elem_PowerBI"><rect fill="#FFE4B5" height="64.0293" rx="2.5" ry="2.5" style="stroke:#000000;stroke-width:1;" width="135.6826" x="224.1697" y="333.7373"/><rect fill="#FFE4B5" height="10" style="stroke:#000000;stroke-width:1;" width="15" x="339.8523" y="338.7373"/><rect fill="#FFE4B5" height="2" style="stroke:#000000;stroke-width:1;" width="4" x="337.8523" y="340.7373"/><rect fill="#FFE4B5" height="2" style="stroke:#000000;stroke-width:1;" width="4" x="337.8523" y="344.7373"/><text fill="#000000" font-family="Verdana" font-size="14" lengthAdjust="spacing" textLength="63.123" x="239.1697" y="367.8125">Power BI</text><text fill="#000000" font-family="Verdana" font-size="14" lengthAdjust="spacing" textLength="95.6826" x="239.1697" y="384.8271">(Dashboards)</text></g><!--entity Backup--><g id="elem_Backup"><rect fill="#D3D3D3" height="64.0293" rx="2.5" ry="2.5" style="stroke:#000000;stroke-width:1;" width="136.1885" x="53.1697" y="333.7373"/><rect fill="#D3D3D3" height="10" style="stroke:#000000;stroke-width:1;" width="15" x="169.3582" y="338.7373"/><rect fill="#D3D3D3" height="2" style="stroke:#000000;stroke-width:1;" width="4" x="167.3582" y="340.7373"/><rect fill="#D3D3D3" height="2" style="stroke:#000000;stroke-width:1;" width="4" x="167.3582" y="344.7373"/><text fill="#000000" font-family="Verdana" font-size="14" lengthAdjust="spacing" textLength="96.1885" x="68.1697" y="367.8125">Azure Backup</text><text fill="#000000" font-family="Verdana" font-size="14" lengthAdjust="spacing" textLength="33.2363" x="68.1697" y="384.8271">(DR)</text></g><!--entity Monitor--><g id="elem_Monitor"><rect fill="#C0C0C0" height="64.0293" rx="2.5" ry="2.5" style="stroke:#000000;stroke-width:1;" width="114.4092" x="395.1697" y="333.7373"/><rect fill="#C0C0C0" height="10" style="stroke:#000000;stroke-width:1;" width="15" x="489.5789" y="338.7373"/><rect fill="#C0C0C0" height="2" style="stroke:#000000;stroke-width:1;" width="4" x="487.5789" y="340.7373"/><rect fill="#C0C0C0" height="2" style="stroke:#000000;stroke-width:1;" width="4" x="487.5789" y="344.7373"/><text fill="#000000" font-family="Verdana" font-size="14" lengthAdjust="spacing" textLength="74.4092" x="410.1697" y="367.8125">Monitoring</text><text fill="#000000" font-family="Verdana" font-size="14" lengthAdjust="spacing" textLength="45.7734" x="410.1697" y="384.8271">(24/7)</text></g><g id="elem_GMN47"><path d="M3206.1697,313.2373 L3206.1697,418.0332 L3459.9129,418.0332 L3459.9129,323.2373 L3449.9129,313.2373 L3206.1697,313.2373 " fill="#E6FFE6" style="stroke:#000000;stroke-width:1;"/><path d="M3449.9129,313.2373 L3449.9129,323.2373 L3459.9129,323.2373 L3449.9129,313.2373 " fill="#E6FFE6" style="stroke:#000000;stroke-width:1;"/><text fill="#000000" font-family="Verdana" font-size="13" lengthAdjust="spacing" textLength="32.2144" x="3212.1697" y="331.3071">&#240;&#376;&#376;&#162;</text><text fill="#000000" font-family="Verdana" font-size="13" font-weight="bold" lengthAdjust="spacing" textLength="195.9585" x="3248.9544" y="331.3071">AMELIORATIONS TERRAIN</text><text fill="#000000" font-family="Verdana" font-size="13" lengthAdjust="spacing" textLength="145.3232" x="3212.1697" y="347.1064">&#226;&#8364;&#162; Interface intuitive</text><text fill="#000000" font-family="Verdana" font-size="13" lengthAdjust="spacing" textLength="162.2778" x="3212.1697" y="362.9058">&#226;&#8364;&#162; Mode offline robuste</text><text fill="#000000" font-family="Verdana" font-size="13" lengthAdjust="spacing" textLength="162.4746" x="3212.1697" y="378.7051">&#226;&#8364;&#162; Scan QR/Code barre</text><text fill="#000000" font-family="Verdana" font-size="13" lengthAdjust="spacing" textLength="163.1602" x="3212.1697" y="394.5044">&#226;&#8364;&#162; Photos geolocalisees</text><text fill="#000000" font-family="Verdana" font-size="13" lengthAdjust="spacing" textLength="176.96" x="3212.1697" y="410.3037">&#226;&#8364;&#162; Signature electronique</text></g><g id="elem_GMN50"><path d="M3206.6697,532.7373 L3206.6697,637.5332 L3463.4978,637.5332 L3463.4978,542.7373 L3453.4978,532.7373 L3206.6697,532.7373 " fill="#E6F3FF" style="stroke:#000000;stroke-width:1;"/><path d="M3453.4978,532.7373 L3453.4978,542.7373 L3463.4978,542.7373 L3453.4978,532.7373 " fill="#E6F3FF" style="stroke:#000000;stroke-width:1;"/><text fill="#000000" font-family="Verdana" font-size="13" lengthAdjust="spacing" textLength="32.2144" x="3212.6697" y="550.8071">&#240;&#376;&#376;&#162;</text><text fill="#000000" font-family="Verdana" font-size="13" font-weight="bold" lengthAdjust="spacing" textLength="199.0435" x="3249.4544" y="550.8071">COEUR SYSTEME MODERNE</text><text fill="#000000" font-family="Verdana" font-size="13" lengthAdjust="spacing" textLength="201.7983" x="3212.6697" y="566.6064">&#226;&#8364;&#162; Architecture microservices</text><text fill="#000000" font-family="Verdana" font-size="13" lengthAdjust="spacing" textLength="188.1636" x="3212.6697" y="582.4058">&#226;&#8364;&#162; APIs REST documentees</text><text fill="#000000" font-family="Verdana" font-size="13" lengthAdjust="spacing" textLength="198.123" x="3212.6697" y="598.2051">&#226;&#8364;&#162; Haute disponibilite 99.9%</text><text fill="#000000" font-family="Verdana" font-size="13" lengthAdjust="spacing" textLength="172.4087" x="3212.6697" y="614.0044">&#226;&#8364;&#162; Scalabilite horizontale</text><text fill="#000000" font-family="Verdana" font-size="13" lengthAdjust="spacing" textLength="160.0117" x="3212.6697" y="629.8037">&#226;&#8364;&#162; Integrations natives</text></g><g id="elem_GMN53"><path d="M3495.6697,313.2373 L3495.6697,418.0332 L3750.2063,418.0332 L3750.2063,323.2373 L3740.2063,313.2373 L3495.6697,313.2373 " fill="#FFF0E6" style="stroke:#000000;stroke-width:1;"/><path d="M3740.2063,313.2373 L3740.2063,323.2373 L3750.2063,323.2373 L3740.2063,313.2373 " fill="#FFF0E6" style="stroke:#000000;stroke-width:1;"/><text fill="#000000" font-family="Verdana" font-size="13" lengthAdjust="spacing" textLength="32.2144" x="3501.6697" y="331.3071">&#240;&#376;&#376;&#162;</text><text fill="#000000" font-family="Verdana" font-size="13" font-weight="bold" lengthAdjust="spacing" textLength="196.752" x="3538.4544" y="331.3071">AUTOMATISATION TOTALE</text><text fill="#000000" font-family="Verdana" font-size="13" lengthAdjust="spacing" textLength="200.9541" x="3501.6697" y="347.1064">&#226;&#8364;&#162; Reception 2 sec vs 20 min</text><text fill="#000000" font-family="Verdana" font-size="13" lengthAdjust="spacing" textLength="150.8521" x="3501.6697" y="362.9058">&#226;&#8364;&#162; 0 erreur comptage</text><text fill="#000000" font-family="Verdana" font-size="13" lengthAdjust="spacing" textLength="139.4009" x="3501.6697" y="378.7051">&#226;&#8364;&#162; Stock temps reel</text><text fill="#000000" font-family="Verdana" font-size="13" lengthAdjust="spacing" textLength="160.6782" x="3501.6697" y="394.5044">&#226;&#8364;&#162; Tracabilite complete</text><text fill="#000000" font-family="Verdana" font-size="13" lengthAdjust="spacing" textLength="101.9307" x="3501.6697" y="410.3037">&#226;&#8364;&#162; ROI 6 mois</text></g><g id="elem_GMN56"><path d="M3498.6697,532.7373 L3498.6697,637.5332 L3735.7312,637.5332 L3735.7312,542.7373 L3725.7312,532.7373 L3498.6697,532.7373 " fill="#F0F8FF" style="stroke:#000000;stroke-width:1;"/><path d="M3725.7312,532.7373 L3725.7312,542.7373 L3735.7312,542.7373 L3725.7312,532.7373 " fill="#F0F8FF" style="stroke:#000000;stroke-width:1;"/><text fill="#000000" font-family="Verdana" font-size="13" lengthAdjust="spacing" textLength="32.2144" x="3504.6697" y="550.8071">&#240;&#376;&#376;&#162;</text><text fill="#000000" font-family="Verdana" font-size="13" font-weight="bold" lengthAdjust="spacing" textLength="179.2769" x="3541.4544" y="550.8071">ECOSYSTEME CONNECTE</text><text fill="#000000" font-family="Verdana" font-size="13" lengthAdjust="spacing" textLength="189.8076" x="3504.6697" y="566.6064">&#226;&#8364;&#162; Catalogues synchronises</text><text fill="#000000" font-family="Verdana" font-size="13" lengthAdjust="spacing" textLength="127.6831" x="3504.6697" y="582.4058">&#226;&#8364;&#162; Prix temps reel</text><text fill="#000000" font-family="Verdana" font-size="13" lengthAdjust="spacing" textLength="176.8521" x="3504.6697" y="598.2051">&#226;&#8364;&#162; Stock fournisseurs live</text><text fill="#000000" font-family="Verdana" font-size="13" lengthAdjust="spacing" textLength="203.417" x="3504.6697" y="614.0044">&#226;&#8364;&#162; Commandes automatiques</text><text fill="#000000" font-family="Verdana" font-size="13" lengthAdjust="spacing" textLength="162.1382" x="3504.6697" y="629.8037">&#226;&#8364;&#162; 0 ressaisie manuelle</text></g><!--link Marc to AppMobile--><g id="link_Marc_AppMobile"><path d="M2411.4197,183.9573 C2397.2097,222.1373 2372.9722,287.314 2357.8122,328.054 " fill="none" id="Marc-to-AppMobile" style="stroke:#000000;stroke-width:1;"/><polygon fill="#000000" points="2355.7197,333.6773,2362.6073,326.6374,2357.4635,328.9912,2355.1096,323.8474,2355.7197,333.6773" style="stroke:#000000;stroke-width:1;"/><text fill="#000000" font-family="Verdana" font-size="13" lengthAdjust="spacing" textLength="140.4102" x="2399.1697" y="232.8071">&#240;&#376;&#8220;&#177; Interface tactile</text><text fill="#000000" font-family="Verdana" font-size="13" lengthAdjust="spacing" textLength="97.9507" x="2420.3994" y="248.6064">(UX optimisee)</text></g><!--link AppMobile to APIGateway--><g id="link_AppMobile_APIGateway"><path d="M2266.9497,397.7973 C2198.0997,424.1873 2093.9897,460.9273 2000.1697,481.2373 C1676.1497,551.3773 1286.9247,574.1423 1115.4247,581.1523 " fill="none" id="AppMobile-to-APIGateway" style="stroke:#000000;stroke-width:1;"/><polygon fill="#000000" points="1109.4297,581.3973,1118.5855,585.0264,1114.4255,581.1931,1118.2588,577.0331,1109.4297,581.3973" style="stroke:#000000;stroke-width:1;"/><text fill="#000000" font-family="Verdana" font-size="13" lengthAdjust="spacing" textLength="127.6196" x="2116.1697" y="462.3071">&#240;&#376;&#8221;&#65533; HTTPS + JWT</text><text fill="#000000" font-family="Verdana" font-size="13" lengthAdjust="spacing" textLength="67.0693" x="2146.4448" y="478.1064">(Securise)</text></g><!--link APIGateway to Odoo--><g id="link_APIGateway_Odoo"><path d="M1003.3397,553.0473 C984.7997,526.3073 954.4097,490.1673 917.1697,474.2373 C841.3297,441.7973 804.6797,449.8973 732.1697,489.2373 C703.4297,504.8273 681.3406,526.9061 663.5306,548.1861 " fill="none" id="APIGateway-to-Odoo" style="stroke:#000000;stroke-width:1;"/><polygon fill="#000000" points="659.6797,552.7873,668.5235,548.4528,662.8888,548.953,662.3886,543.3183,659.6797,552.7873" style="stroke:#000000;stroke-width:1;"/><text fill="#000000" font-family="Verdana" font-size="13" lengthAdjust="spacing" textLength="114.9814" x="802.1697" y="462.3071">&#240;&#376;&#8221;&#8222; Transactions</text><text fill="#000000" font-family="Verdana" font-size="13" lengthAdjust="spacing" textLength="84.2524" x="817.5342" y="478.1064">(Temps reel)</text></g><!--link Odoo to Postgres--><g id="link_Odoo_Postgres"><path d="M637.6697,617.5273 C640.2297,649.4773 643.6912,692.7864 646.2312,724.5364 " fill="none" id="Odoo-to-Postgres" style="stroke:#000000;stroke-width:1;"/><polygon fill="#000000" points="646.7097,730.5173,649.9792,721.227,646.311,725.5332,642.0047,721.8649,646.7097,730.5173" style="stroke:#000000;stroke-width:1;"/><text fill="#000000" font-family="Verdana" font-size="13" lengthAdjust="spacing" textLength="110.9316" x="647.4678" y="681.8071">&#240;&#376;&#8217;&#190; Persistance</text><text fill="#000000" font-family="Verdana" font-size="13" lengthAdjust="spacing" textLength="113.5278" x="646.1697" y="697.6064">(ACID compliant)</text></g><!--reverse link MLEngine to APIGateway--><g id="link_MLEngine_APIGateway"><path d="M1411.8093,366.7765 C1539.3493,368.2465 1810.1497,379.4073 1869.1697,448.2373 C1878.7197,459.3673 1878.8897,470.2573 1869.1697,481.2373 C1819.2897,537.5573 1314.7297,569.3973 1109.3997,580.1073 " fill="none" id="MLEngine-backto-APIGateway" style="stroke:#000000;stroke-width:1;"/><polygon fill="#000000" points="1405.8097,366.7073,1414.763,370.8108,1410.8094,366.7649,1414.8552,362.8113,1405.8097,366.7073" style="stroke:#000000;stroke-width:1;"/><text fill="#000000" font-family="Verdana" font-size="13" lengthAdjust="spacing" textLength="114.0991" x="1877.1697" y="462.3071">&#240;&#376;&#164;- Suggestions</text><text fill="#000000" font-family="Verdana" font-size="13" lengthAdjust="spacing" textLength="84.5317" x="1891.9534" y="478.1064">(IA integree)</text></g><!--reverse link PortiqueRFID to Eric--><g id="link_PortiqueRFID_Eric"><path d="M2847.225,403.68 C2841.645,427.57 2839.1697,454.9773 2851.1697,481.2373 C2866.1097,513.9173 2897.0997,540.1973 2923.7097,558.0373 " fill="none" id="PortiqueRFID-backto-Eric" style="stroke:#000000;stroke-width:1;"/><polygon fill="#000000" points="2848.5897,397.8373,2842.6475,405.6916,2847.4524,402.7063,2850.4378,407.5112,2848.5897,397.8373" style="stroke:#000000;stroke-width:1;"/><text fill="#000000" font-family="Verdana" font-size="13" lengthAdjust="spacing" textLength="150.9155" x="2852.1697" y="462.3071">&#240;&#376;&#8220;&#166; Scan automatique</text><text fill="#000000" font-family="Verdana" font-size="13" lengthAdjust="spacing" textLength="80.4058" x="2887.4246" y="478.1064">(2 sec/colis)</text></g><!--reverse link Douchettes to Eric--><g id="link_Douchettes_Eric"><path d="M3038.1164,403.6841 C3030.4764,426.7941 3021.4897,453.2573 3011.1697,481.2373 C3001.4397,507.5973 2989.4697,537.3973 2980.9897,558.1273 " fill="none" id="Douchettes-backto-Eric" style="stroke:#000000;stroke-width:1;"/><polygon fill="#000000" points="3039.9997,397.9873,3033.3769,405.2769,3038.4303,402.7346,3040.9726,407.788,3039.9997,397.9873" style="stroke:#000000;stroke-width:1;"/><text fill="#000000" font-family="Verdana" font-size="13" lengthAdjust="spacing" textLength="116.9048" x="3026.2102" y="462.3071">&#240;&#376;&#8220;&#177; Scan mobile</text><text fill="#000000" font-family="Verdana" font-size="13" lengthAdjust="spacing" textLength="122.9858" x="3023.1697" y="478.1064">(QR + Code barre)</text></g><!--link PortiqueRFID to StockReel--><g id="link_PortiqueRFID_StockReel"><path d="M2782.1397,389.3773 C2753.7797,401.9273 2724.5297,420.7273 2708.1697,448.2373 C2688.9397,480.5773 2698.9718,519.0858 2711.3418,548.1758 " fill="none" id="PortiqueRFID-to-StockReel" style="stroke:#000000;stroke-width:1;"/><polygon fill="#000000" points="2713.6897,553.6973,2713.8488,543.8497,2711.7331,549.096,2706.4868,546.9803,2713.6897,553.6973" style="stroke:#000000;stroke-width:1;"/><text fill="#000000" font-family="Verdana" font-size="13" lengthAdjust="spacing" textLength="125.5757" x="2709.1697" y="462.3071">&#240;&#376;&#65533;&#183;&#239;&#184;&#65533; RFID tags</text><text fill="#000000" font-family="Verdana" font-size="13" lengthAdjust="spacing" textLength="102.7622" x="2720.5764" y="478.1064">(5000 produits)</text></g><!--link APIGateway to RexelAPI--><g id="link_APIGateway_RexelAPI"><path d="M1109.5297,585.2373 C1320.8997,585.2373 1856.7797,585.2373 2074.0297,585.2373 " fill="none" id="APIGateway-to-RexelAPI" style="stroke:#000000;stroke-width:1;"/><polygon fill="#000000" points="2080.0297,585.2373,2071.0297,581.2373,2075.0297,585.2373,2071.0297,589.2373,2080.0297,585.2373" style="stroke:#000000;stroke-width:1;"/><text fill="#000000" font-family="Verdana" font-size="13" lengthAdjust="spacing" textLength="145.8691" x="1522.1697" y="602.3071">&#240;&#376;&#338;&#65533; Catalogue sync</text><text fill="#000000" font-family="Verdana" font-size="13" lengthAdjust="spacing" textLength="84.2524" x="1552.978" y="618.1064">(Temps reel)</text></g><!--link APIGateway to SoneAPI--><g id="link_APIGateway_SoneAPI"><path d="M1037.7497,552.9873 C1051.7297,526.3973 1075.5997,490.5073 1108.6697,474.2373 C1166.4897,445.7873 1189.2297,473.8273 1253.6697,474.2373 C1385.7297,475.0673 2321.6197,435.2973 2442.1697,489.2373 C2471.4797,502.3473 2491.9466,525.5158 2507.3866,547.9358 " fill="none" id="APIGateway-to-SoneAPI" style="stroke:#000000;stroke-width:1;"/><polygon fill="#000000" points="2510.7897,552.8773,2508.9794,543.1962,2507.9538,548.7593,2502.3907,547.7337,2510.7897,552.8773" style="stroke:#000000;stroke-width:1;"/><text fill="#000000" font-family="Verdana" font-size="13" lengthAdjust="spacing" textLength="143.3047" x="1109.6697" y="462.3071">&#240;&#376;&#8217;&#176; Prix comparaison</text><text fill="#000000" font-family="Verdana" font-size="13" lengthAdjust="spacing" textLength="41.9326" x="1160.3557" y="478.1064">(Auto)</text></g><!--link APIGateway to AutresAPI--><g id="link_APIGateway_AutresAPI"><path d="M1109.4297,567.7873 C1245.4597,541.2473 1518.4197,491.9573 1752.6697,474.2373 C1803.6397,470.3773 1816.5697,473.3173 1867.6697,474.2373 C2051.9797,477.5673 2116.6697,408.0373 2282.1697,489.2373 C2309.8297,502.8073 2328.2723,525.7491 2342.0123,548.0491 " fill="none" id="APIGateway-to-AutresAPI" style="stroke:#000000;stroke-width:1;"/><polygon fill="#000000" points="2345.1597,553.1573,2343.8441,543.3967,2342.5369,548.9005,2337.0331,547.5932,2345.1597,553.1573" style="stroke:#000000;stroke-width:1;"/><text fill="#000000" font-family="Verdana" font-size="13" lengthAdjust="spacing" textLength="113.769" x="1753.6697" y="462.3071">&#240;&#376;&#8220;&#710; Extensibilite</text><text fill="#000000" font-family="Verdana" font-size="13" lengthAdjust="spacing" textLength="54.1455" x="1783.4815" y="478.1064">(Future)</text></g><!--reverse link PowerBI to Odoo--><g id="link_PowerBI_Odoo"><path d="M325.8833,402.1489 C350.3733,426.8589 382.7697,456.8973 419.1697,481.2373 C464.9297,511.8373 521.1897,538.3473 564.8097,556.8173 " fill="none" id="PowerBI-backto-Odoo" style="stroke:#000000;stroke-width:1;"/><polygon fill="#000000" points="321.6597,397.8873,325.1541,407.0954,325.1794,401.4386,330.8362,401.4639,321.6597,397.8873" style="stroke:#000000;stroke-width:1;"/><text fill="#000000" font-family="Verdana" font-size="13" lengthAdjust="spacing" textLength="93.793" x="420.1697" y="462.3071">&#240;&#376;&#8220;&#352; Analytics</text><text fill="#000000" font-family="Verdana" font-size="13" lengthAdjust="spacing" textLength="90.0225" x="422.0549" y="478.1064">(DirectQuery)</text></g><!--reverse link Backup to Postgres--><g id="link_Backup_Postgres"><path d="M152.3315,402.2978 C200.9915,456.6578 303.9597,565.9073 411.1697,641.2373 C462.6597,677.4173 526.6197,709.0273 575.2597,730.7073 " fill="none" id="Backup-backto-Postgres" style="stroke:#000000;stroke-width:1;"/><polygon fill="#000000" points="148.3297,397.8273,151.352,407.201,151.6645,401.5528,157.3127,401.8653,148.3297,397.8273" style="stroke:#000000;stroke-width:1;"/><text fill="#000000" font-family="Verdana" font-size="13" lengthAdjust="spacing" textLength="134.2529" x="412.1697" y="582.8071">&#226;&#732;&#65533;&#239;&#184;&#65533; Sauvegarde</text><text fill="#000000" font-family="Verdana" font-size="13" lengthAdjust="spacing" textLength="90.4541" x="434.0691" y="598.6064">(Quotidienne)</text></g><!--reverse link Monitor to Odoo--><g id="link_Monitor_Odoo"><path d="M482.2525,402.4885 C517.0425,443.8385 574.2397,511.8173 608.9997,553.1373 " fill="none" id="Monitor-backto-Odoo" style="stroke:#000000;stroke-width:1;"/><polygon fill="#000000" points="478.3897,397.8973,481.1231,407.3593,481.6087,401.7233,487.2447,402.2089,478.3897,397.8973" style="stroke:#000000;stroke-width:1;"/><text fill="#000000" font-family="Verdana" font-size="13" lengthAdjust="spacing" textLength="98.5347" x="545.1697" y="462.3071">&#240;&#376;&#8220;&#710; Metriques</text><text fill="#000000" font-family="Verdana" font-size="13" lengthAdjust="spacing" textLength="57.1924" x="565.8408" y="478.1064">(Alertes)</text></g><!--reverse link Odoo to StockReel--><g id="link_Odoo_StockReel"><path d="M661.0267,548.2238 C678.4667,525.8338 701.2397,502.4773 732.1697,489.2373 C839.7797,443.1873 1141.6297,475.9073 1258.6697,474.2373 C1794.7297,466.6073 2432.7097,420.5773 2616.1697,489.2373 C2650.8897,502.2273 2682.2997,530.9773 2703.1397,553.6473 " fill="none" id="Odoo-backto-StockReel" style="stroke:#000000;stroke-width:1;"/><polygon fill="#000000" points="657.3397,552.9573,666.0259,548.3151,660.4122,549.0127,659.7145,543.3991,657.3397,552.9573" style="stroke:#000000;stroke-width:1;"/><text fill="#000000" font-family="Verdana" font-size="13" lengthAdjust="spacing" textLength="105.7773" x="1259.6697" y="462.3071">&#240;&#376;&#8220;&#352; Stock sync</text><text fill="#000000" font-family="Verdana" font-size="13" lengthAdjust="spacing" textLength="100.3628" x="1262.377" y="478.1064">(Bidirectionnel)</text></g><!--link MLEngine to Postgres--><g id="link_MLEngine_Postgres"><path d="M1276.1797,366.8173 C1145.5997,368.4373 858.2497,379.8873 793.1697,448.2373 C715.3997,529.9073 831.8097,607.6373 768.1697,700.7373 C759.3397,713.6573 752.0363,720.8664 738.4863,729.0464 " fill="none" id="MLEngine-to-Postgres" style="stroke:#000000;stroke-width:1;"/><polygon fill="#000000" points="733.3497,732.1473,743.1218,730.9203,737.6302,729.5632,738.9873,724.0716,733.3497,732.1473" style="stroke:#000000;stroke-width:1;"/><text fill="#000000" font-family="Verdana" font-size="13" lengthAdjust="spacing" textLength="125.8486" x="789.1697" y="582.8071">&#240;&#376;&#167;&#160; Apprentissage</text><text fill="#000000" font-family="Verdana" font-size="13" lengthAdjust="spacing" textLength="78.1143" x="813.0369" y="598.6064">(Historique)</text></g><!--link AppMobile to GMN47--><g id="link_AppMobile_GMN47"><path d="M2396.6897,333.6173 C2457.0897,298.7173 2560.4697,245.1573 2657.6697,224.2373 C2769.5497,200.1573 3065.6097,183.7873 3172.6697,224.2373 C3219.7597,242.0273 3261.9597,280.6273 3291.2597,313.0273 " fill="none" id="AppMobile-GMN47" style="stroke:#000000;stroke-width:1;stroke-dasharray:7.0,7.0;"/></g><!--link Odoo to GMN50--><g id="link_Odoo_GMN50"><path d="M652.5597,553.1173 C671.6597,521.5673 705.5797,475.3773 749.6697,455.4873 C811.0197,427.8073 3109.1497,433.2373 3172.6697,455.4873 C3216.6197,470.8773 3257.5397,503.7073 3287.3197,532.4873 " fill="none" id="Odoo-GMN50" style="stroke:#000000;stroke-width:1;stroke-dasharray:7.0,7.0;"/></g><!--link PortiqueRFID to GMN53--><g id="link_PortiqueRFID_GMN53"><path d="M2873.0797,333.6473 C2891.0097,299.3173 2924.6797,246.7873 2971.6697,224.2373 C3069.6397,177.2273 3358.8997,186.1373 3460.6697,224.2373 C3508.1397,242.0073 3550.8797,280.6073 3580.6097,313.0073 " fill="none" id="PortiqueRFID-GMN53" style="stroke:#000000;stroke-width:1;stroke-dasharray:7.0,7.0;"/></g><!--link RexelAPI to GMN56--><g id="link_RexelAPI_GMN56"><path d="M2192.4397,553.0173 C2214.4397,521.3973 2252.7797,475.1473 2299.6697,455.4873 C2359.3097,430.4773 3402.9397,433.2573 3463.6697,455.4873 C3505.9397,470.9573 3544.5897,503.7873 3572.5297,532.5473 " fill="none" id="RexelAPI-GMN56" style="stroke:#000000;stroke-width:1;stroke-dasharray:7.0,7.0;"/></g><rect fill="none" height="112.0879" id="_legend" rx="7.5" ry="7.5" style="stroke:#000000;stroke-width:1;" width="218.0791" x="1765.0636" y="830.7373"/><text fill="#000000" font-family="Verdana" font-size="14" lengthAdjust="spacing" textLength="208.0791" x="1770.0636" y="849.8125">&#240;&#376;&#376;&#162; = Amelioration majeure</text><text fill="#000000" font-family="Verdana" font-size="14" lengthAdjust="spacing" textLength="135.3105" x="1770.0636" y="866.8271">&#240;&#376;&#8220;&#177; = Mobile-first</text><text fill="#000000" font-family="Verdana" font-size="14" lengthAdjust="spacing" textLength="149.666" x="1770.0636" y="883.8418">&#240;&#376;&#164;- = IA/ML integre</text><text fill="#000000" font-family="Verdana" font-size="14" lengthAdjust="spacing" textLength="187.0928" x="1770.0636" y="900.8564">&#240;&#376;&#8221;&#65533; = Securite renforcee</text><text fill="#000000" font-family="Verdana" font-size="14" lengthAdjust="spacing" textLength="204.1143" x="1770.0636" y="917.8711">&#226;&#353;&#161; = Performance optimisee</text><text fill="#000000" font-family="Verdana" font-size="14" lengthAdjust="spacing" textLength="197.2168" x="1770.0636" y="934.8857">&#240;&#376;&#8220;&#352; = Analytics temps reel</text><!--SRC=[VLTBRoF55jxxLnp6uf51OJoFP98h1SbkTpD6SUpOdWltwcxAxR9TqAvgggep2GW9iU07i4C212C46wJBNLqsW6GqA_x5_07-0kTKzSkT3F4YITLvr7bytpb-oQxvXaEQC25RLjY4GrV7Qs5vR3FD8HZqJaFOX-cLiIGua9QlyFmL6Ae5rvAtMXB_W5iphZNQmEEvIFWjO0QAetPu64NX8NpK0lnXAoujt1eo7Vz7lXQi-HA2DPDMSBtdrEZ6ISPgaohffBjf2gE5Kd36hBZWg2X6KtWTkdAXbLXuHHJotg5zt0d3uqxJ2ZqPHijb8YIPc5x965XcbLVFBr3vAEeT7xK-BaBhCyiWG0jSmwEhkHOB9q_7-Ib5U3-AyWXh7iF9sB_xukv3z3YI-wdc6s5uxfAksaSFWp3iETK5sfmpWqx7obXCzFJy5EuUeEeZV2Y7CTTBfJTCnhc5NCn0-y7XqRtUWsk96m_WBMRv4tQ5HYRXT8PPUqkpT7r-ccTjFCW5e7qG7OVTwsaxXL2kVCx6cYz4R8MI9g_MgR_31nprxmP1BMqyLHO29INsaky8TrISG3kAeawpBq8jg2-6RCMCa6LJq77pNMEbhVWWup291dtK-JUVQmRHkyU7dKwH7Iz10kIk_x1pBRg-ok8rjnPpE8sPBEqCW_lt2pir6RJIFSYjLDMQMXM_Zms_IGrCE4yer-HpnbPvdfm4NP65em0jOABYH6KBk1MfJ4jX3C-qAHDcd5f04bJ4TjI9ZcvgiGc_HACeGcZ21oLgXIbvtJlqlfs8CzBhX9Znfeaf_awPpesCjRX4_RumQOuCklyRzMvcgGDHmg1wU6cvD6AUv1tgR-lgLU1JhYz4pFCmlQ_yo9rWr0VqkHxrM3r1tFNelNrcrdF5zC8KHSUh7cKi2X_q3gwzzaFYjHwBtyzIqfvuBNy0xVvz-bnd3YciqaAkKENUWpiFy-Rtnz0EElIXo5xr1RmaX42A6h58MO8XxiC_kRQGOgs1_bycsIMer0gY0zCYreFzXNeYzz-iCTa_uFUVdlty_9Clj_zptAkNBEPW6K8m8Jm-VhUqmVTQbLvfgK9tOUghFt_x1HxDPcCYqBVVcH4JyZZJn4gjLarXNulLsg8HHrEb-lDFleQPPj8mpmEexnjVOtVljPnmuRwafqBxY-slH69664iaXhhT0752gKu4Je6zdGTaATee6SRRs7w7qoXRhRWfl0-w8FnOeW28ANBD7VXNcVpU0Tqn_uOv0Ieg61xVYLKYp5xTHWtwzLeu2nkNQrG-ds0g0sAzETCQNx7ZkKX6HG7U4jPX-__V_xkbFno7OLrN513oImTxHoqoOV4rs5E4BU28B9ouviOQbHZtjfzzJaOhFZ0uwng5kibAWVIgN3-1umCg4CDfRXGnP9U6veq6AhINsVhZCoWuGIIuMA1-bD5ouI8hAS1HGjuzUVKyZaj3pxx1US-IAojYob9VQEJ9yuphAqfutcXUDqSpgZxzuqlCH97bASik-0gvmbKjKrOi14UuxjKT5wYkHp3aLbD1oN4tGI1pNvY8K8nrNn3eUONuxB9LbNi_uSjhEA9m_DZ8QzF3jr14WanXVSg-Vm6OjZzilo6cqCXGE3nmVjAQWC1IxgM-RwHKbZcWu2iDi0rFXDB-1ESqJc5NEL3B-lha5pP7WgwPVju-XTktkyFmT32QT6U3qTaKPk5aqXsStRxjnPu-__H7bAeu2Y69xOlBsiwzMy5KlcbfDSzmhTmHSC0wdzofqBHpFLuhgmoik4fKp1AYFREhBrQIkTML9vXCZRN4PBIuN025sse4xJSmlxurumr6uUC9JFyrdON348QZVZWv2nlnxYpB6n5hPVA6tXKZ_BhjQw7YR4DROqF2xtSB6heo1meS7xzn_78pEmdBRzTOvm-LH8JpQoLOvIK6wVPbyyBucnjIrBcXxezdeo5MVUeg3xFHh7lQpCE4npmbb-2852uCtEjWGkIEL0VmAm5kEOvEaEmQfNTei2L5xLpYn8cBoDsqu8t6cOm6S8YKB5uSRBK7-MMg6MWOZ8fg1wEpip2ODSCi2TKurAwflKoZaeulNn253t5Pt_UI9aG2jS45tw6rcb2caKUa0ODiBB3fcCnuajHR_DMAheYRqkfBGolXAvARAukcT-C_WMwD7T3kU_W-NihukNUIVy7RNmfjR7b9G_a41jqx-5qXdyKrHRTnd83VCgWWNEA3Obx4_UpRxRTuN_joKoqrTV_8c2VL2AZdc6BoeRN-0W00]--></g></svg>