<svg xmlns="http://www.w3.org/2000/svg" xmlns:xlink="http://www.w3.org/1999/xlink" contentStyleType="text/css" height="734px" preserveAspectRatio="none" style="width:1249px;height:734px;background:#FFFFFF;" version="1.1" viewBox="0 0 1249 734" width="1249px" zoomAndPan="magnify"><title>Network Diagram - Flux de Donn&#195;&#169;es ACTUEL</title><defs/><g><text fill="#000000" font-family="sans-serif" font-size="14" font-weight="bold" lengthAdjust="spacing" textLength="312.9082" x="461.4267" y="24.5332">Network Diagram - Flux de Donn&#195;&#169;es ACTUEL</text><!--cluster Chantiers (Terrain)--><g id="cluster_Chantiers (Terrain)"><path d="M632.2617,128.1094 L758.5097,128.1094 A3.75,3.75 0 0 1 761.0097,130.6094 L768.0097,151.7188 L1041.2617,151.7188 A2.5,2.5 0 0 1 1043.7617,154.2188 L1043.7617,242.6094 A2.5,2.5 0 0 1 1041.2617,245.1094 L632.2617,245.1094 A2.5,2.5 0 0 1 629.7617,242.6094 L629.7617,130.6094 A2.5,2.5 0 0 1 632.2617,128.1094 " fill="#FFE4E1" style="stroke:#000000;stroke-width:1.5;"/><line style="stroke:#000000;stroke-width:1.5;" x1="629.7617" x2="768.0097" y1="151.7188" y2="151.7188"/><text fill="#000000" font-family="sans-serif" font-size="14" font-weight="bold" lengthAdjust="spacing" textLength="125.248" x="633.7617" y="144.6426">Chantiers (Terrain)</text></g><!--cluster Bureau Si??ge--><g id="cluster_Bureau Si&#195;&#168;ge"><path d="M768.2617,421.6094 L865.7236,421.6094 A3.75,3.75 0 0 1 868.2236,424.1094 L875.2236,445.2188 L1048.2617,445.2188 A2.5,2.5 0 0 1 1050.7617,447.7188 L1050.7617,712.1094 A2.5,2.5 0 0 1 1048.2617,714.6094 L768.2617,714.6094 A2.5,2.5 0 0 1 765.7617,712.1094 L765.7617,424.1094 A2.5,2.5 0 0 1 768.2617,421.6094 " fill="#E6F3FF" style="stroke:#000000;stroke-width:1.5;"/><line style="stroke:#000000;stroke-width:1.5;" x1="765.7617" x2="875.2236" y1="445.2188" y2="445.2188"/><text fill="#000000" font-family="sans-serif" font-size="14" font-weight="bold" lengthAdjust="spacing" textLength="96.4619" x="769.7617" y="438.1426">Bureau Si&#195;&#168;ge</text></g><!--cluster D??p??t--><g id="cluster_D&#195;&#169;p&#195;&#180;t"><path d="M1077.2617,412.6094 L1136.7841,412.6094 A3.75,3.75 0 0 1 1139.2841,415.1094 L1146.2841,436.2188 L1240.2617,436.2188 A2.5,2.5 0 0 1 1242.7617,438.7188 L1242.7617,545.1094 A2.5,2.5 0 0 1 1240.2617,547.6094 L1077.2617,547.6094 A2.5,2.5 0 0 1 1074.7617,545.1094 L1074.7617,415.1094 A2.5,2.5 0 0 1 1077.2617,412.6094 " fill="#E8F5E9" style="stroke:#000000;stroke-width:1.5;"/><line style="stroke:#000000;stroke-width:1.5;" x1="1074.7617" x2="1146.2841" y1="436.2188" y2="436.2188"/><text fill="#000000" font-family="sans-serif" font-size="14" font-weight="bold" lengthAdjust="spacing" textLength="58.5225" x="1078.7617" y="429.1426">D&#195;&#169;p&#195;&#180;t</text></g><!--cluster Internet--><g id="cluster_Internet"><path d="M28.6752,605.9463 C34.029,598.7555 42.4592,599.6734 45.7845,608.1601 C52.346,596.236 59.6837,594.9027 68.8348,605.511 C75.4405,597.1058 84.3875,596.6629 90.2538,606.3846 C94.454,596.6776 103.1052,596.8842 108.8869,604.7032 C114.5531,593.6134 123.5298,594.3642 130.4503,603.3563 C139.3773,593.2089 146.2064,594.7484 152.8411,605.7798 C157.227,594.2124 166.5074,592.8175 174.1131,602.5668 C180.2193,594.5884 187.4884,593.7899 192.9542,603.2584 C201.0686,593.844 209.7424,596.7686 214.3413,607.0716 C219.9351,596.4774 226.2764,595.538 234.8033,603.9065 C241.8084,593.8567 248.7956,594.6158 254.294,605.3213 C260.7005,595.2235 270.7895,595.4277 275.0589,607.3377 C282.095,597.7207 291.8835,595.5178 298.4098,607.8792 C308.5478,599.3508 316.5555,600.8965 322.7617,612.6094 C325.9797,612.1101 327.1541,613.2168 326.4189,616.4662 C336.3087,621.7037 337.2824,630.0452 327.4085,636.2703 C338.9484,638.8923 340.692,648.6387 333.794,656.9531 C345.338,666.2504 343.4537,675.4543 330.0899,680.8986 C339.4108,694.8113 332.9616,707.4764 315.7617,706.6094 C317.6545,707.4859 317.9645,708.6364 316.682,710.3039 C310.8539,720.2539 301.5086,719.8552 296.8836,709.1507 C291.1782,718.4186 282.3437,719.2296 275.1843,710.9486 C269.642,720.8008 261.2761,720.3517 255.4543,711.2394 C249.5837,721.6743 239.8493,723.5092 232.8944,712.3734 C227.3279,719.1778 221.2606,719.1154 215.8235,712.2124 C209.5882,725.4619 197.8404,723.8574 191.2097,712.6097 C187.0628,720.8575 179.8214,724.4616 173.0947,715.2929 C165.9,727.3883 155.1,724.3573 149.5857,713.5666 C143.5569,723.5914 137.2224,722.9083 130.2008,714.6175 C122.5078,724.5734 116.4309,723.2259 110.8425,712.6346 C102.3951,721.7264 95.3151,721.9003 89.1074,710.2838 C82.0691,722.1874 73.0047,721.2484 66.7615,709.5316 C61.1903,719.5795 54.7002,720.8781 47.5659,711.0406 C33.7438,723.7186 19.629,718.1007 17.7617,699.6094 C18.4829,698.5832 19.614,698.7002 20.1807,699.7864 C10.9372,695.4 9.9185,686.1511 18.7769,680.4505 C6.7163,674.5328 6,664.1799 17.9031,657.3556 C8.6877,649.2821 8.4734,641.2159 19.5079,634.5684 C8.2795,624.4825 8.9578,610.791 24.7617,605.6094 C25.929,603.9339 27.8148,604.0557 28.6752,605.9463 " fill="#E0F7FA" style="stroke:#181818;stroke-width:1;"/><text fill="#000000" font-family="sans-serif" font-size="14" font-weight="bold" lengthAdjust="spacing" textLength="51.3379" x="144.5927" y="625.1426">Internet</text></g><!--cluster Fournisseurs--><g id="cluster_Fournisseurs"><path d="M357.2617,597.6094 L446.9511,597.6094 A3.75,3.75 0 0 1 449.4511,600.1094 L456.4511,621.2188 L739.2617,621.2188 A2.5,2.5 0 0 1 741.7617,623.7188 L741.7617,712.1094 A2.5,2.5 0 0 1 739.2617,714.6094 L357.2617,714.6094 A2.5,2.5 0 0 1 354.7617,712.1094 L354.7617,600.1094 A2.5,2.5 0 0 1 357.2617,597.6094 " fill="#E0E0E0" style="stroke:#000000;stroke-width:1.5;"/><line style="stroke:#000000;stroke-width:1.5;" x1="354.7617" x2="456.4511" y1="621.2188" y2="621.2188"/><text fill="#000000" font-family="sans-serif" font-size="14" font-weight="bold" lengthAdjust="spacing" textLength="88.6895" x="358.7617" y="614.1426">Fournisseurs</text></g><!--entity marc1--><g id="elem_marc1"><rect fill="#F1F1F1" height="65.2188" rx="2.5" ry="2.5" style="stroke:#181818;stroke-width:0.5;" width="104.4697" x="645.7617" y="164.1094"/><rect fill="#F1F1F1" height="10" style="stroke:#181818;stroke-width:0.5;" width="15" x="730.2314" y="169.1094"/><rect fill="#F1F1F1" height="2" style="stroke:#181818;stroke-width:0.5;" width="4" x="728.2314" y="171.1094"/><rect fill="#F1F1F1" height="2" style="stroke:#181818;stroke-width:0.5;" width="4" x="728.2314" y="175.1094"/><text fill="#000000" font-family="sans-serif" font-size="14" lengthAdjust="spacing" textLength="64.4697" x="660.7617" y="198.6426">&#240;&#376;&#8220;&#177; Marc</text><text fill="#000000" font-family="sans-serif" font-size="14" lengthAdjust="spacing" textLength="41.248" x="660.7617" y="216.252">Chef 1</text></g><!--entity marc2--><g id="elem_marc2"><rect fill="#F1F1F1" height="65.2188" rx="2.5" ry="2.5" style="stroke:#181818;stroke-width:0.5;" width="104.4697" x="784.7617" y="164.1094"/><rect fill="#F1F1F1" height="10" style="stroke:#181818;stroke-width:0.5;" width="15" x="869.2314" y="169.1094"/><rect fill="#F1F1F1" height="2" style="stroke:#181818;stroke-width:0.5;" width="4" x="867.2314" y="171.1094"/><rect fill="#F1F1F1" height="2" style="stroke:#181818;stroke-width:0.5;" width="4" x="867.2314" y="175.1094"/><text fill="#000000" font-family="sans-serif" font-size="14" lengthAdjust="spacing" textLength="64.4697" x="799.7617" y="198.6426">&#240;&#376;&#8220;&#177; Marc</text><text fill="#000000" font-family="sans-serif" font-size="14" lengthAdjust="spacing" textLength="41.248" x="799.7617" y="216.252">Chef 2</text></g><!--entity marc3--><g id="elem_marc3"><rect fill="#F1F1F1" height="65.2188" rx="2.5" ry="2.5" style="stroke:#181818;stroke-width:0.5;" width="104.4697" x="923.7617" y="164.1094"/><rect fill="#F1F1F1" height="10" style="stroke:#181818;stroke-width:0.5;" width="15" x="1008.2314" y="169.1094"/><rect fill="#F1F1F1" height="2" style="stroke:#181818;stroke-width:0.5;" width="4" x="1006.2314" y="171.1094"/><rect fill="#F1F1F1" height="2" style="stroke:#181818;stroke-width:0.5;" width="4" x="1006.2314" y="175.1094"/><text fill="#000000" font-family="sans-serif" font-size="14" lengthAdjust="spacing" textLength="64.4697" x="938.7617" y="198.6426">&#240;&#376;&#8220;&#177; Marc</text><text fill="#000000" font-family="sans-serif" font-size="14" lengthAdjust="spacing" textLength="41.248" x="938.7617" y="216.252">Chef 3</text></g><!--entity sylvie--><g id="elem_sylvie"><rect fill="#F1F1F1" height="65.2188" rx="2.5" ry="2.5" style="stroke:#181818;stroke-width:0.5;" width="109.2549" x="782.2617" y="457.6094"/><rect fill="#F1F1F1" height="10" style="stroke:#181818;stroke-width:0.5;" width="15" x="871.5166" y="462.6094"/><rect fill="#F1F1F1" height="2" style="stroke:#181818;stroke-width:0.5;" width="4" x="869.5166" y="464.6094"/><rect fill="#F1F1F1" height="2" style="stroke:#181818;stroke-width:0.5;" width="4" x="869.5166" y="468.6094"/><text fill="#000000" font-family="sans-serif" font-size="14" lengthAdjust="spacing" textLength="69.2549" x="797.2617" y="492.1426">&#240;&#376;&#8217;&#187; Sylvie</text><text fill="#000000" font-family="sans-serif" font-size="14" lengthAdjust="spacing" textLength="42.7998" x="797.2617" y="509.752">Achats</text></g><!--entity julien--><g id="elem_julien"><rect fill="#F1F1F1" height="65.2188" rx="2.5" ry="2.5" style="stroke:#181818;stroke-width:0.5;" width="108.4893" x="926.7617" y="457.6094"/><rect fill="#F1F1F1" height="10" style="stroke:#181818;stroke-width:0.5;" width="15" x="1015.2509" y="462.6094"/><rect fill="#F1F1F1" height="2" style="stroke:#181818;stroke-width:0.5;" width="4" x="1013.2509" y="464.6094"/><rect fill="#F1F1F1" height="2" style="stroke:#181818;stroke-width:0.5;" width="4" x="1013.2509" y="468.6094"/><text fill="#000000" font-family="sans-serif" font-size="14" lengthAdjust="spacing" textLength="68.4893" x="941.7617" y="492.1426">&#240;&#376;&#8217;&#187; Julien</text><text fill="#000000" font-family="sans-serif" font-size="14" lengthAdjust="spacing" textLength="47.4619" x="941.7617" y="509.752">Affaires</text></g><!--entity server--><g id="elem_server"><rect fill="#F1F1F1" height="65.2188" rx="2.5" ry="2.5" style="stroke:#181818;stroke-width:0.5;" width="141.5342" x="892.7617" y="633.6094"/><rect fill="#F1F1F1" height="10" style="stroke:#181818;stroke-width:0.5;" width="15" x="1014.2959" y="638.6094"/><rect fill="#F1F1F1" height="2" style="stroke:#181818;stroke-width:0.5;" width="4" x="1012.2959" y="640.6094"/><rect fill="#F1F1F1" height="2" style="stroke:#181818;stroke-width:0.5;" width="4" x="1012.2959" y="644.6094"/><text fill="#000000" font-family="sans-serif" font-size="14" lengthAdjust="spacing" textLength="101.5342" x="907.7617" y="668.1426">&#240;&#376;-&#165;&#239;&#184;&#65533; Serveur</text><text fill="#000000" font-family="sans-serif" font-size="14" lengthAdjust="spacing" textLength="67.6963" x="907.7617" y="685.752">Sage MDE</text></g><!--entity eric--><g id="elem_eric"><rect fill="#F1F1F1" height="82.8281" rx="2.5" ry="2.5" style="stroke:#181818;stroke-width:0.5;" width="134.9238" x="1091.2617" y="448.6094"/><rect fill="#F1F1F1" height="10" style="stroke:#181818;stroke-width:0.5;" width="15" x="1206.1855" y="453.6094"/><rect fill="#F1F1F1" height="2" style="stroke:#181818;stroke-width:0.5;" width="4" x="1204.1855" y="455.6094"/><rect fill="#F1F1F1" height="2" style="stroke:#181818;stroke-width:0.5;" width="4" x="1204.1855" y="459.6094"/><text fill="#000000" font-family="sans-serif" font-size="14" lengthAdjust="spacing" textLength="72.96" x="1106.2617" y="483.1426">&#240;&#376;&#8217;&#187; &#195;&#8240;ric</text><text fill="#000000" font-family="sans-serif" font-size="14" lengthAdjust="spacing" textLength="55.4395" x="1106.2617" y="500.752">D&#195;&#169;p&#195;&#180;t</text><text fill="#000000" font-family="sans-serif" font-size="14" lengthAdjust="spacing" textLength="94.9238" x="1106.2617" y="518.3613">&#240;&#376;&#8221;&#180; 1 seul PC!</text></g><!--entity cloud--><g id="elem_cloud"><rect fill="#F1F1F1" height="65.2188" rx="2.5" ry="2.5" style="stroke:#181818;stroke-width:0.5;" width="145.0205" x="169.2617" y="633.6094"/><rect fill="#F1F1F1" height="10" style="stroke:#181818;stroke-width:0.5;" width="15" x="294.2822" y="638.6094"/><rect fill="#F1F1F1" height="2" style="stroke:#181818;stroke-width:0.5;" width="4" x="292.2822" y="640.6094"/><rect fill="#F1F1F1" height="2" style="stroke:#181818;stroke-width:0.5;" width="4" x="292.2822" y="644.6094"/><text fill="#000000" font-family="sans-serif" font-size="14" lengthAdjust="spacing" textLength="105.0205" x="184.2617" y="668.1426">&#226;&#732;&#65533;&#239;&#184;&#65533; OneDrive</text><text fill="#000000" font-family="sans-serif" font-size="14" lengthAdjust="spacing" textLength="52.9102" x="184.2617" y="685.752">Excel x4</text></g><!--entity email--><g id="elem_email"><rect fill="#F1F1F1" height="65.2188" rx="2.5" ry="2.5" style="stroke:#181818;stroke-width:0.5;" width="108.4688" x="25.7617" y="633.6094"/><rect fill="#F1F1F1" height="10" style="stroke:#181818;stroke-width:0.5;" width="15" x="114.2304" y="638.6094"/><rect fill="#F1F1F1" height="2" style="stroke:#181818;stroke-width:0.5;" width="4" x="112.2304" y="640.6094"/><rect fill="#F1F1F1" height="2" style="stroke:#181818;stroke-width:0.5;" width="4" x="112.2304" y="644.6094"/><text fill="#000000" font-family="sans-serif" font-size="14" lengthAdjust="spacing" textLength="68.4688" x="40.7617" y="668.1426">&#240;&#376;&#8220;&#167; Email</text><text fill="#000000" font-family="sans-serif" font-size="14" lengthAdjust="spacing" textLength="48.248" x="40.7617" y="685.752">Outlook</text></g><!--entity fourn1--><g id="elem_fourn1"><rect fill="#F1F1F1" height="65.2188" rx="2.5" ry="2.5" style="stroke:#181818;stroke-width:0.5;" width="160.2373" x="565.7617" y="633.6094"/><rect fill="#F1F1F1" height="10" style="stroke:#181818;stroke-width:0.5;" width="15" x="705.999" y="638.6094"/><rect fill="#F1F1F1" height="2" style="stroke:#181818;stroke-width:0.5;" width="4" x="703.999" y="640.6094"/><rect fill="#F1F1F1" height="2" style="stroke:#181818;stroke-width:0.5;" width="4" x="703.999" y="644.6094"/><text fill="#000000" font-family="sans-serif" font-size="14" lengthAdjust="spacing" textLength="82.4756" x="580.7617" y="668.1426">&#240;&#376;&#8220;&#382; Fourn A</text><text fill="#000000" font-family="sans-serif" font-size="14" lengthAdjust="spacing" textLength="120.2373" x="580.7617" y="685.752">&#240;&#376;&#8221;&#180; T&#195;&#169;l&#195;&#169;phone</text></g><!--entity fourn2--><g id="elem_fourn2"><rect fill="#F1F1F1" height="65.2188" rx="2.5" ry="2.5" style="stroke:#181818;stroke-width:0.5;" width="160.2373" x="370.7617" y="633.6094"/><rect fill="#F1F1F1" height="10" style="stroke:#181818;stroke-width:0.5;" width="15" x="510.999" y="638.6094"/><rect fill="#F1F1F1" height="2" style="stroke:#181818;stroke-width:0.5;" width="4" x="508.999" y="640.6094"/><rect fill="#F1F1F1" height="2" style="stroke:#181818;stroke-width:0.5;" width="4" x="508.999" y="644.6094"/><text fill="#000000" font-family="sans-serif" font-size="14" lengthAdjust="spacing" textLength="82.4756" x="385.7617" y="668.1426">&#240;&#376;&#8220;&#382; Fourn B</text><text fill="#000000" font-family="sans-serif" font-size="14" lengthAdjust="spacing" textLength="120.2373" x="385.7617" y="685.752">&#240;&#376;&#8221;&#180; T&#195;&#169;l&#195;&#169;phone</text></g><g id="elem_N1"><path d="M265.2617,44.6094 L265.2617,348.9375 L609.9795,348.9375 L609.9795,54.6094 L599.9795,44.6094 L265.2617,44.6094 " fill="#FEFFDD" style="stroke:#181818;stroke-width:0.5;"/><path d="M599.9795,44.6094 L599.9795,54.6094 L609.9795,54.6094 L599.9795,44.6094 " fill="#FEFFDD" style="stroke:#181818;stroke-width:1;"/><text fill="#000000" font-family="sans-serif" font-size="13" lengthAdjust="spacing" textLength="24.5591" x="271.2617" y="63.1045">&#240;&#376;&#8221;&#180;</text><text fill="#000000" font-family="sans-serif" font-size="13" font-weight="bold" lengthAdjust="spacing" textLength="230.6484" x="299.4326" y="63.1045">FLUX DE DONN&#195;&#8240;ES CHAOTIQUES</text><text fill="#000000" font-family="sans-serif" font-size="13" lengthAdjust="spacing" textLength="3.6118" x="271.2617" y="79.4561">&#160;</text><text fill="#000000" font-family="sans-serif" font-size="13" font-weight="bold" lengthAdjust="spacing" textLength="77.2891" x="271.2617" y="95.8076">Probl&#195;&#168;mes:</text><text fill="#000000" font-family="sans-serif" font-size="13" lengthAdjust="spacing" textLength="323.7178" x="271.2617" y="112.1592">1. Chantiers D&#195;&#8240;CONNECT&#195;&#8240;S (t&#195;&#169;l&#195;&#169;phone only)</text><text fill="#000000" font-family="sans-serif" font-size="13" lengthAdjust="spacing" textLength="203.3726" x="271.2617" y="128.5107">2. Sylvie = HUB CENTRAL (goulot)</text><text fill="#000000" font-family="sans-serif" font-size="13" lengthAdjust="spacing" textLength="169.6475" x="271.2617" y="144.8623">3. Donn&#195;&#169;es &#195;&#169;parpill&#195;&#169;es:</text><text fill="#000000" font-family="sans-serif" font-size="13" lengthAdjust="spacing" textLength="156.7681" x="282.0971" y="161.2139">- Sage MDE (serveur local)</text><text fill="#000000" font-family="sans-serif" font-size="13" lengthAdjust="spacing" textLength="124.249" x="282.0971" y="177.5654">- Excel x4 (OneDrive)</text><text fill="#000000" font-family="sans-serif" font-size="13" lengthAdjust="spacing" textLength="97.519" x="282.0971" y="193.917">- Email (Outlook)</text><text fill="#000000" font-family="sans-serif" font-size="13" lengthAdjust="spacing" textLength="175.2334" x="282.0971" y="210.2686">- T&#195;&#169;l&#195;&#169;phone (pas de trace)</text><text fill="#000000" font-family="sans-serif" font-size="13" lengthAdjust="spacing" textLength="85.979" x="282.0971" y="226.6201">- Papier (bons)</text><text fill="#000000" font-family="sans-serif" font-size="13" lengthAdjust="spacing" textLength="196.3267" x="271.2617" y="242.9717">4. Pas d'int&#195;&#169;gration fournisseurs</text><text fill="#000000" font-family="sans-serif" font-size="13" lengthAdjust="spacing" textLength="266.5508" x="271.2617" y="259.3232">5. Multiples re-saisies des m&#195;&#170;mes donn&#195;&#169;es</text><text fill="#000000" font-family="sans-serif" font-size="13" lengthAdjust="spacing" textLength="3.6118" x="271.2617" y="275.6748">&#160;</text><text fill="#000000" font-family="sans-serif" font-size="13" font-weight="bold" lengthAdjust="spacing" textLength="46.23" x="271.2617" y="292.0264">Impact:</text><text fill="#000000" font-family="sans-serif" font-size="13" lengthAdjust="spacing" textLength="178.4453" x="271.2617" y="308.3779">&#240;&#376;&#8221;&#180; Processus tr&#195;&#168;s inefficace</text><text fill="#000000" font-family="sans-serif" font-size="13" lengthAdjust="spacing" textLength="290.4624" x="271.2617" y="324.7295">&#226;&#65533;&#338; Taux &#195;&#169;lev&#195;&#169; de commandes incompl&#195;&#168;tes</text><text fill="#000000" font-family="sans-serif" font-size="13" lengthAdjust="spacing" textLength="249.6406" x="271.2617" y="341.0811">&#226;&#65533;&#184;&#239;&#184;&#65533; Chantiers bloqu&#195;&#169;s fr&#195;&#169;quemment</text></g><!--link marc1 to sylvie--><g id="link_marc1_sylvie"><path d="M699.6617,229.1894 C703.3017,270.1294 713.7717,342.6894 743.7617,396.6094 C756.7117,419.8894 772.7497,437.253 791.2397,453.543 " fill="none" id="marc1-to-sylvie" style="stroke:#181818;stroke-width:1;stroke-dasharray:7.0,7.0;"/><polygon fill="#181818" points="795.7417,457.5094,791.6329,448.5585,791.99,454.2041,786.3444,454.5612,795.7417,457.5094" style="stroke:#181818;stroke-width:1;"/><text fill="#000000" font-family="sans-serif" font-size="13" lengthAdjust="spacing" textLength="83.478" x="744.7617" y="393.1045">T&#195;&#169;l&#195;&#169;phone</text></g><!--link marc2 to sylvie--><g id="link_marc2_sylvie"><path d="M836.7617,229.3594 C836.7617,285.4294 836.7617,395.3494 836.7617,451.3994 " fill="none" id="marc2-to-sylvie" style="stroke:#181818;stroke-width:1;stroke-dasharray:7.0,7.0;"/><polygon fill="#181818" points="836.7617,457.3994,840.7617,448.3994,836.7617,452.3994,832.7617,448.3994,836.7617,457.3994" style="stroke:#181818;stroke-width:1;"/><text fill="#000000" font-family="sans-serif" font-size="13" lengthAdjust="spacing" textLength="83.478" x="837.7617" y="393.1045">T&#195;&#169;l&#195;&#169;phone</text></g><!--link marc3 to sylvie--><g id="link_marc3_sylvie"><path d="M976.9917,229.1494 C976.9617,272.0694 970.6117,348.9594 929.7617,396.6094 C923.5317,403.8794 917.5617,399.0494 909.7617,404.6094 C889.7117,418.8994 875.2075,435.0213 862.0375,452.4613 " fill="none" id="marc3-to-sylvie" style="stroke:#181818;stroke-width:1;stroke-dasharray:7.0,7.0;"/><polygon fill="#181818" points="858.4217,457.2494,867.0374,452.4777,861.4348,453.2593,860.6533,447.6567,858.4217,457.2494" style="stroke:#181818;stroke-width:1;"/><text fill="#000000" font-family="sans-serif" font-size="13" lengthAdjust="spacing" textLength="83.478" x="942.7617" y="393.1045">T&#195;&#169;l&#195;&#169;phone</text></g><!--link sylvie to server--><g id="link_sylvie_server"><path d="M859.7617,522.6194 C882.7017,554.0594 914.2246,597.2328 937.1846,628.6928 " fill="none" id="sylvie-to-server" style="stroke:#181818;stroke-width:1;"/><polygon fill="#181818" points="940.7217,633.5394,938.6471,623.9115,937.7741,629.5006,932.185,628.6276,940.7217,633.5394" style="stroke:#181818;stroke-width:1;"/><text fill="#000000" font-family="sans-serif" font-size="13" lengthAdjust="spacing" textLength="25.2891" x="900.7617" y="578.1045">LAN</text></g><!--link julien to server--><g id="link_julien_server"><path d="M977.6817,522.6194 C974.6117,554.0594 970.5063,596.1079 967.4263,627.5679 " fill="none" id="julien-to-server" style="stroke:#181818;stroke-width:1;"/><polygon fill="#181818" points="966.8417,633.5394,971.6996,624.9719,967.3289,628.5632,963.7376,624.1925,966.8417,633.5394" style="stroke:#181818;stroke-width:1;"/><text fill="#000000" font-family="sans-serif" font-size="13" lengthAdjust="spacing" textLength="25.2891" x="973.7617" y="578.1045">LAN</text></g><!--link eric to server--><g id="link_eric_server"><path d="M1113.0417,531.9094 C1078.2617,562.9394 1035.5686,601.0347 1003.6286,629.5347 " fill="none" id="eric-to-server" style="stroke:#181818;stroke-width:1;"/><polygon fill="#181818" points="999.1517,633.5294,1008.5301,630.5219,1002.8824,630.2005,1003.2039,624.5527,999.1517,633.5294" style="stroke:#181818;stroke-width:1;"/><text fill="#000000" font-family="sans-serif" font-size="13" lengthAdjust="spacing" textLength="25.2891" x="1073.7617" y="578.1045">LAN</text></g><!--link sylvie to cloud--><g id="link_sylvie_cloud"><path d="M782.2517,495.1294 C690.6717,503.4194 501.5417,527.1894 354.7617,589.6094 C328.4917,600.7794 306.6449,614.7041 285.8049,630.0341 " fill="none" id="sylvie-to-cloud" style="stroke:#181818;stroke-width:1;"/><polygon fill="#181818" points="280.9717,633.5894,290.5917,631.4785,284.9993,630.6266,285.8513,625.0343,280.9717,633.5894" style="stroke:#181818;stroke-width:1;"/><text fill="#000000" font-family="sans-serif" font-size="13" lengthAdjust="spacing" textLength="44.0845" x="417.7617" y="578.1045">Internet</text></g><!--link julien to cloud--><g id="link_julien_cloud"><path d="M953.6517,522.7494 C941.2717,535.0894 925.6117,548.0594 908.7617,555.6094 C879.7817,568.5994 869.1417,558.7494 837.7617,563.6094 C797.0217,569.9194 787.7517,577.1694 746.7617,581.6094 C703.4517,586.2994 396.3217,576.5394 354.7617,589.6094 C326.4017,598.5294 303.3023,613.2559 282.3723,629.6759 " fill="none" id="julien-to-cloud" style="stroke:#181818;stroke-width:1;"/><polygon fill="#181818" points="277.6517,633.3794,287.2016,630.9713,281.5856,630.2932,282.2637,624.6771,277.6517,633.3794" style="stroke:#181818;stroke-width:1;"/><text fill="#000000" font-family="sans-serif" font-size="13" lengthAdjust="spacing" textLength="44.0845" x="838.7617" y="578.1045">Internet</text></g><!--link sylvie to email--><g id="link_sylvie_email"><path d="M782.1817,494.3194 C640.0417,503.3994 261.8417,532.4194 151.7617,589.6094 C131.9917,599.8794 118.3736,613.0433 105.6336,628.8033 " fill="none" id="sylvie-to-email" style="stroke:#181818;stroke-width:1;"/><polygon fill="#181818" points="101.8617,633.4694,110.6303,628.9849,105.005,629.581,104.4089,623.9556,101.8617,633.4694" style="stroke:#181818;stroke-width:1;"/><text fill="#000000" font-family="sans-serif" font-size="13" lengthAdjust="spacing" textLength="44.0845" x="217.7617" y="578.1045">Internet</text></g><!--link sylvie to fourn1--><g id="link_sylvie_fourn1"><path d="M782.0417,498.2994 C741.1317,506.7094 687.3517,524.8294 657.7617,563.6094 C642.8017,583.2194 640.2591,605.4665 641.3191,627.1765 " fill="none" id="sylvie-to-fourn1" style="stroke:#181818;stroke-width:1;stroke-dasharray:7.0,7.0;"/><polygon fill="#181818" points="641.6117,633.1694,645.168,623.985,641.3678,628.1753,637.1775,624.3752,641.6117,633.1694" style="stroke:#181818;stroke-width:1;"/><text fill="#000000" font-family="sans-serif" font-size="13" lengthAdjust="spacing" textLength="83.478" x="658.7617" y="578.1045">T&#195;&#169;l&#195;&#169;phone</text></g><!--link sylvie to fourn2--><g id="link_sylvie_fourn2"><path d="M782.2117,496.6494 C723.0117,504.5294 627.2317,522.8394 554.7617,563.6094 C523.3217,581.2994 498.4366,606.3269 479.1666,629.0069 " fill="none" id="sylvie-to-fourn2" style="stroke:#181818;stroke-width:1;stroke-dasharray:7.0,7.0;"/><polygon fill="#181818" points="475.2817,633.5794,484.1574,629.3107,478.5191,629.769,478.0608,624.1308,475.2817,633.5794" style="stroke:#181818;stroke-width:1;"/><text fill="#000000" font-family="sans-serif" font-size="13" lengthAdjust="spacing" textLength="83.478" x="555.7617" y="578.1045">T&#195;&#169;l&#195;&#169;phone</text></g><!--SRC=[ZLNTJXD15BxVfpZYXQL96zk2FoIIb7OtOg15Mn8JwyMmJ65aTgRCp2B4c93m1jwPu0s94RmH4ov8Z9gKSELRy0A-WcTck-sM7xLDsksPxtppdVFDcHfcE8K6DQ-bse0w8skAH520WCVRi4gXBeKus-iVKGtLMdlPN_2y7Wato1g5YTew4OPHfI7NfaeH9YOdu7OG-5D-2Tvu02_EZizFBtRt-rzXaQYm8shhj0kbbq0qH1WetOWf3p7b6p6L8QRYlSt8ceiL9J6q6Ee-NACeoRyNL88WA-bz_nkqTlWMenrH3TU9qOvCkz0ux4dC6HK8wtO9KpG1ldB155ZeVppxqZ_z_VCxjAZQeh7gY9RLibZt4ruRLMCgwxQhFVmuCLRXWs3QVtXPuTdUnUwnObXm1jqH2U13_mHAo1npMAhTSjjGnDfDGYxZLPYO5uOgGHt_tU1-K1tm7_pQHwcfugQWTSMsi17-TaWvR4yvBiUHxVqdy2F2U4SqOyEbt4XsjA6nkW8PAy4qwbBQRMpVOwVX_0Su45IpfRHjXToLkIu5TUnT2ojTbphtNwbbgymTD2WMPmVkmipb10Sf_njI-Jl46wmK2hC3mn6qK6ruoM6v6hTsNOrcQH8ZPo1rCajrPIsRw7p9BWxMR059Lwyfu3AcV5sHGXfg6zomlemyoEU3XUNdKFUXtcmqtC7rMr1xN6ssvvyk-wrytaDyFh-av8gbEuoedi4WGAa8eukaxZ9hIE7Nskwv1JaphW6au3kJc5ak3cOO7i7ZvJce-Otsi-e2vDPapAMna4enUuCv2g9wZFCaCeCGV1KWdLR8wMI0WSkGyCbqFHqDoANZCbfohSuDfc8OljGuoFMmQNYX6aN2KV8IwM7Ta5kHGjlWL153YBl3XAiQRsF3f4Zy64mLmgQBi1XpmteSgrAqe0dJZ5f-l10nxtDaVmmBJre_7-6GcgJf8-FGa91g7MjKPdtHm0JjTbc8CYtm0E-8ytVG9lX_u4gYM_RBbXBAA2B2xia4FlUShuRgDAr_cjun8uDNkDoCBG6EgDtlQ3EcKKI5yQXO1Nkul3y0]--></g></svg>