<svg xmlns="http://www.w3.org/2000/svg" xmlns:xlink="http://www.w3.org/1999/xlink" contentStyleType="text/css" height="1624px" preserveAspectRatio="none" style="width:1149px;height:1624px;background:#FFFFFF;" version="1.1" viewBox="0 0 1149 1624" width="1149px" zoomAndPan="magnify"><title>Use Case Diagram - Achats &amp; Logistique ACTUEL</title><defs/><g><text fill="#000000" font-family="sans-serif" font-size="14" font-weight="bold" lengthAdjust="spacing" textLength="331.3994" x="401.8003" y="24.5332">Use Case Diagram - Achats &amp; Logistique ACTUEL</text><!--cluster Syst??me Achats-Logistique ACTUEL--><g id="cluster_Syst&#195;&#168;me Achats-Logistique ACTUEL"><rect fill="#FFFFCC" height="830" rx="2.5" ry="2.5" style="stroke:#181818;stroke-width:1;" width="936" x="207" y="168.6094"/><text fill="#000000" font-family="sans-serif" font-size="14" font-weight="bold" lengthAdjust="spacing" textLength="251.248" x="549.376" y="185.1426">Syst&#195;&#168;me Achats-Logistique ACTUEL</text></g><!--cluster Outils (Silos)--><g id="cluster_Outils (Silos)"><rect fill="#FFE4E1" height="516" rx="2.5" ry="2.5" style="stroke:#181818;stroke-width:1;" width="174" x="650.5" y="1023.6094"/><text fill="#000000" font-family="sans-serif" font-size="14" font-weight="bold" lengthAdjust="spacing" textLength="86.3379" x="694.3311" y="1040.1426">Outils (Silos)</text></g><g id="elem_UC1"><ellipse cx="737.4518" cy="463.5128" fill="#FFD700" rx="65.9518" ry="27.9034" style="stroke:#181818;stroke-width:0.5;"/><text fill="#000000" font-family="sans-serif" font-size="14" lengthAdjust="spacing" textLength="77.0273" x="698.9382" y="458.4366">Commander</text><text fill="#000000" font-family="sans-serif" font-size="14" lengthAdjust="spacing" textLength="61.6602" x="706.6218" y="476.046">mat&#195;&#169;riel</text></g><g id="elem_GMN9"><path d="M944,442.1094 L944,459.6094 L803.82,463.6094 L944,467.6094 L944,484.8125 A0,0 0 0 0 944,484.8125 L1126.8018,484.8125 A0,0 0 0 0 1126.8018,484.8125 L1126.8018,452.1094 L1116.8018,442.1094 L944,442.1094 A0,0 0 0 0 944,442.1094 " fill="#FEFFDD" style="stroke:#181818;stroke-width:0.5;"/><path d="M1116.8018,442.1094 L1116.8018,452.1094 L1126.8018,452.1094 L1116.8018,442.1094 " fill="#FEFFDD" style="stroke:#181818;stroke-width:0.5;"/><text fill="#000000" font-family="sans-serif" font-size="13" lengthAdjust="spacing" textLength="161.8018" x="950" y="460.6045">&#240;&#376;&#8221;&#180; Taux d'erreur &#195;&#169;lev&#195;&#169;</text><text fill="#000000" font-family="sans-serif" font-size="13" lengthAdjust="spacing" textLength="64.8096" x="950" y="476.9561">&#226;&#65533;&#176; 3 jours</text></g><g id="elem_UC2"><ellipse cx="323.353" cy="402.5128" fill="#FFD700" rx="53.853" ry="27.9034" style="stroke:#181818;stroke-width:0.5;"/><text fill="#000000" font-family="sans-serif" font-size="14" lengthAdjust="spacing" textLength="59.917" x="293.3945" y="397.4366">Consulter</text><text fill="#000000" font-family="sans-serif" font-size="14" lengthAdjust="spacing" textLength="32.6758" x="307.0151" y="415.046">stock</text></g><g id="elem_GMN13"><path d="M648,295.6094 L648,321.9609 L826.7202,321.9609 L826.7202,305.6094 L816.7202,295.6094 L648,295.6094 " fill="#FEFFDD" style="stroke:#181818;stroke-width:0.5;"/><path d="M816.7202,295.6094 L816.7202,305.6094 L826.7202,305.6094 L816.7202,295.6094 " fill="#FEFFDD" style="stroke:#181818;stroke-width:1;"/><text fill="#000000" font-family="sans-serif" font-size="13" lengthAdjust="spacing" textLength="157.7202" x="654" y="314.1045">&#240;&#376;&#8221;&#180; Donn&#195;&#169;es non fiables</text></g><g id="elem_UC3"><ellipse cx="737.4056" cy="754.5128" fill="#FFD700" rx="65.4056" ry="27.9034" style="stroke:#181818;stroke-width:0.5;"/><text fill="#000000" font-family="sans-serif" font-size="14" lengthAdjust="spacing" textLength="40.4482" x="717.1815" y="749.4366">Traiter</text><text fill="#000000" font-family="sans-serif" font-size="14" lengthAdjust="spacing" textLength="76.2549" x="699.2782" y="767.046">commandes</text></g><g id="elem_GMN17"><path d="M247.5,729.1094 L247.5,771.8125 A0,0 0 0 0 247.5,771.8125 L399.0713,771.8125 A0,0 0 0 0 399.0713,771.8125 L399.0713,755.3394 L671.75,753.9794 L399.0713,747.3394 L399.0713,739.1094 L389.0713,729.1094 L247.5,729.1094 A0,0 0 0 0 247.5,729.1094 " fill="#FEFFDD" style="stroke:#181818;stroke-width:0.5;"/><path d="M389.0713,729.1094 L389.0713,739.1094 L399.0713,739.1094 L389.0713,729.1094 " fill="#FEFFDD" style="stroke:#181818;stroke-width:0.5;"/><text fill="#000000" font-family="sans-serif" font-size="13" lengthAdjust="spacing" textLength="94.6372" x="253.5" y="747.6045">&#240;&#376;&#8221;&#180; 6 re-saisies</text><text fill="#000000" font-family="sans-serif" font-size="13" lengthAdjust="spacing" textLength="130.5713" x="253.5" y="763.9561">&#226;&#65533;&#176; 2h par commande</text></g><g id="elem_UC4"><ellipse cx="737.6088" cy="954.5128" fill="#FF6B6B" rx="103.1088" ry="27.9034" style="stroke:#181818;stroke-width:0.5;"/><text fill="#000000" font-family="sans-serif" font-size="14" lengthAdjust="spacing" textLength="72.3652" x="701.4262" y="949.4366">Rechercher</text><text fill="#000000" font-family="sans-serif" font-size="14" lengthAdjust="spacing" textLength="129.5752" x="672.8212" y="967.046">r&#195;&#169;f&#195;&#169;rence produit</text></g><g id="elem_GMN21"><path d="M954,933.1094 L954,950.6094 L840.78,954.6094 L954,958.6094 L954,975.8125 A0,0 0 0 0 954,975.8125 L1117.3525,975.8125 A0,0 0 0 0 1117.3525,975.8125 L1117.3525,943.1094 L1107.3525,933.1094 L954,933.1094 A0,0 0 0 0 954,933.1094 " fill="#FEFFDD" style="stroke:#181818;stroke-width:0.5;"/><path d="M1107.3525,933.1094 L1107.3525,943.1094 L1117.3525,943.1094 L1107.3525,933.1094 " fill="#FEFFDD" style="stroke:#181818;stroke-width:0.5;"/><text fill="#000000" font-family="sans-serif" font-size="13" lengthAdjust="spacing" textLength="142.3525" x="960" y="951.6045">&#240;&#376;&#8221;&#180; 12 variantes/produit</text><text fill="#000000" font-family="sans-serif" font-size="13" lengthAdjust="spacing" textLength="93.9517" x="960" y="967.9561">Confusion totale</text></g><g id="elem_UC5"><ellipse cx="737.2612" cy="554.5128" fill="#FFD700" rx="78.7612" ry="27.9034" style="stroke:#181818;stroke-width:0.5;"/><text fill="#000000" font-family="sans-serif" font-size="14" lengthAdjust="spacing" textLength="95.1426" x="689.69" y="549.4366">R&#195;&#169;ceptionner</text><text fill="#000000" font-family="sans-serif" font-size="14" lengthAdjust="spacing" textLength="58.3516" x="708.0855" y="567.046">livraisons</text></g><g id="elem_GMN25"><path d="M249,557.1094 L249,599.8125 A0,0 0 0 0 249,599.8125 L398.4067,599.8125 A0,0 0 0 0 398.4067,599.8125 L398.4067,578.3194 L659.29,559.1094 L398.4067,570.3194 L398.4067,567.1094 L388.4067,557.1094 L249,557.1094 A0,0 0 0 0 249,557.1094 " fill="#FEFFDD" style="stroke:#181818;stroke-width:0.5;"/><path d="M388.4067,557.1094 L388.4067,567.1094 L398.4067,567.1094 L388.4067,557.1094 " fill="#FEFFDD" style="stroke:#181818;stroke-width:0.5;"/><text fill="#000000" font-family="sans-serif" font-size="13" lengthAdjust="spacing" textLength="107.6689" x="255" y="575.6045">&#240;&#376;&#8221;&#180; 100% manuel</text><text fill="#000000" font-family="sans-serif" font-size="13" lengthAdjust="spacing" textLength="128.4067" x="255" y="591.9561">&#226;&#65533;&#176; 1h30 par livraison</text></g><g id="elem_UC6"><ellipse cx="737.5596" cy="645.5128" fill="#FF6B6B" rx="72.5596" ry="27.9034" style="stroke:#181818;stroke-width:0.5;"/><text fill="#000000" font-family="sans-serif" font-size="14" lengthAdjust="spacing" textLength="86.3721" x="694.3735" y="640.4366">Suivre co&#195;&#187;ts</text><text fill="#000000" font-family="sans-serif" font-size="14" lengthAdjust="spacing" textLength="63.0342" x="706.0425" y="658.046">par affaire</text></g><g id="elem_GMN29"><path d="M223,635.1094 L223,694.1641 A0,0 0 0 0 223,694.1641 L424.2988,694.1641 A0,0 0 0 0 424.2988,694.1641 L424.2988,664.0094 L665.43,648.8894 L424.2988,656.0094 L424.2988,645.1094 L414.2988,635.1094 L223,635.1094 A0,0 0 0 0 223,635.1094 " fill="#FEFFDD" style="stroke:#181818;stroke-width:0.5;"/><path d="M414.2988,635.1094 L414.2988,645.1094 L424.2988,645.1094 L414.2988,635.1094 " fill="#FEFFDD" style="stroke:#181818;stroke-width:0.5;"/><text fill="#000000" font-family="sans-serif" font-size="13" lengthAdjust="spacing" textLength="180.2988" x="229" y="653.6045">&#240;&#376;&#8221;&#180; Donn&#195;&#169;es incoh&#195;&#169;rentes</text><text fill="#000000" font-family="sans-serif" font-size="13" lengthAdjust="spacing" textLength="126.9658" x="229" y="669.9561">&#226;&#65533;&#176; 3h pour un chiffre</text><text fill="#000000" font-family="sans-serif" font-size="13" lengthAdjust="spacing" textLength="149.8809" x="229" y="686.3076">Marge d'erreur importante</text></g><g id="elem_UC7"><ellipse cx="323.3991" cy="493.5128" fill="#FFD700" rx="74.8991" ry="27.9034" style="stroke:#181818;stroke-width:0.5;"/><text fill="#000000" font-family="sans-serif" font-size="14" lengthAdjust="spacing" textLength="47.6533" x="299.5724" y="488.4366">G&#195;&#169;rer</text><text fill="#000000" font-family="sans-serif" font-size="14" lengthAdjust="spacing" textLength="89.6807" x="278.5588" y="506.046">stock d&#195;&#169;p&#195;&#180;t</text></g><g id="elem_GMN33"><path d="M653,357.1094 L653,399.8125 L822.313,399.8125 L822.313,367.1094 L812.313,357.1094 L653,357.1094 " fill="#FEFFDD" style="stroke:#181818;stroke-width:0.5;"/><path d="M812.313,357.1094 L812.313,367.1094 L822.313,367.1094 L812.313,357.1094 " fill="#FEFFDD" style="stroke:#181818;stroke-width:1;"/><text fill="#000000" font-family="sans-serif" font-size="13" lengthAdjust="spacing" textLength="148.313" x="659" y="375.6045">&#240;&#376;&#8221;&#180; Pas de tra&#195;&#167;abilit&#195;&#169;</text><text fill="#000000" font-family="sans-serif" font-size="13" lengthAdjust="spacing" textLength="127.2007" x="659" y="391.9561">Rangement chaotique</text></g><g id="elem_UC8"><ellipse cx="737.4056" cy="863.5128" fill="#FFD700" rx="65.4056" ry="27.9034" style="stroke:#181818;stroke-width:0.5;"/><text fill="#000000" font-family="sans-serif" font-size="14" lengthAdjust="spacing" textLength="60.6963" x="707.0575" y="858.4366">Contacter</text><text fill="#000000" font-family="sans-serif" font-size="14" lengthAdjust="spacing" textLength="76.2549" x="699.2782" y="876.046">fournisseurs</text></g><g id="elem_GMN37"><path d="M953,842.1094 L953,859.6094 L803.09,863.6094 L953,867.6094 L953,884.8125 A0,0 0 0 0 953,884.8125 L1118.1807,884.8125 A0,0 0 0 0 1118.1807,884.8125 L1118.1807,852.1094 L1108.1807,842.1094 L953,842.1094 A0,0 0 0 0 953,842.1094 " fill="#FEFFDD" style="stroke:#181818;stroke-width:0.5;"/><path d="M1108.1807,842.1094 L1108.1807,852.1094 L1118.1807,852.1094 L1108.1807,842.1094 " fill="#FEFFDD" style="stroke:#181818;stroke-width:0.5;"/><text fill="#000000" font-family="sans-serif" font-size="13" lengthAdjust="spacing" textLength="144.1807" x="959" y="860.6045">&#240;&#376;&#8221;&#180; 100% t&#195;&#169;l&#195;&#169;phone</text><text fill="#000000" font-family="sans-serif" font-size="13" lengthAdjust="spacing" textLength="81.9609" x="959" y="876.9561">Pas d'EDI/API</text></g><g id="elem_UC9"><ellipse cx="323.6307" cy="311.5128" fill="#F1F1F1" rx="78.6307" ry="27.9034" style="stroke:#181818;stroke-width:0.5;"/><text fill="#000000" font-family="sans-serif" font-size="14" lengthAdjust="spacing" textLength="43.5791" x="301.8412" y="306.4366">Valider</text><text fill="#000000" font-family="sans-serif" font-size="14" lengthAdjust="spacing" textLength="94.958" x="276.1517" y="324.046">budgets achats</text></g><g id="elem_UC10"><ellipse cx="737.5085" cy="232.5128" fill="#FF6B6B" rx="72.0085" ry="27.9034" style="stroke:#181818;stroke-width:0.5;"/><text fill="#000000" font-family="sans-serif" font-size="14" lengthAdjust="spacing" textLength="54.4688" x="710.2741" y="227.4366">Analyser</text><text fill="#000000" font-family="sans-serif" font-size="14" lengthAdjust="spacing" textLength="85.5928" x="694.7121" y="245.046">performances</text></g><g id="elem_GMN42"><path d="M240.5,205.1094 L240.5,247.8125 A0,0 0 0 0 240.5,247.8125 L406.9438,247.8125 A0,0 0 0 0 406.9438,247.8125 L406.9438,231.8094 L665.25,231.5694 L406.9438,223.8094 L406.9438,215.1094 L396.9438,205.1094 L240.5,205.1094 A0,0 0 0 0 240.5,205.1094 " fill="#FEFFDD" style="stroke:#181818;stroke-width:0.5;"/><path d="M396.9438,205.1094 L396.9438,215.1094 L406.9438,215.1094 L396.9438,205.1094 " fill="#FEFFDD" style="stroke:#181818;stroke-width:0.5;"/><text fill="#000000" font-family="sans-serif" font-size="13" lengthAdjust="spacing" textLength="90.3081" x="246.5" y="223.6045">&#240;&#376;&#8221;&#180; Impossible</text><text fill="#000000" font-family="sans-serif" font-size="13" lengthAdjust="spacing" textLength="145.4438" x="246.5" y="239.9561">Donn&#195;&#169;es inexploitables</text></g><g id="elem_Sage"><ellipse cx="737.5945" cy="1313.5128" fill="#FF6B6B" rx="62.0945" ry="27.9034" style="stroke:#181818;stroke-width:0.5;"/><text fill="#000000" font-family="sans-serif" font-size="14" lengthAdjust="spacing" textLength="67.6963" x="703.7464" y="1308.4366">Sage MDE</text><text fill="#000000" font-family="sans-serif" font-size="14" lengthAdjust="spacing" textLength="71.5723" x="701.8084" y="1326.046">(Obsol&#195;&#168;te)</text></g><g id="elem_Excel1"><ellipse cx="737.7022" cy="1404.5128" fill="#FFD700" rx="68.7022" ry="27.9034" style="stroke:#181818;stroke-width:0.5;"/><text fill="#000000" font-family="sans-serif" font-size="14" lengthAdjust="spacing" textLength="34.2344" x="720.585" y="1399.4366">Excel</text><text fill="#000000" font-family="sans-serif" font-size="14" lengthAdjust="spacing" textLength="80.917" x="697.2437" y="1417.046">Fournisseurs</text></g><g id="elem_Excel2"><ellipse cx="737.6926" cy="1495.5128" fill="#FFD700" rx="35.6926" ry="27.9034" style="stroke:#181818;stroke-width:0.5;"/><text fill="#000000" font-family="sans-serif" font-size="14" lengthAdjust="spacing" textLength="34.2344" x="720.5755" y="1490.4366">Excel</text><text fill="#000000" font-family="sans-serif" font-size="14" lengthAdjust="spacing" textLength="30.3447" x="722.5203" y="1508.046">Suivi</text></g><g id="elem_Email"><ellipse cx="737.7389" cy="1234.5611" fill="#F1F1F1" rx="36.2389" ry="15.4517" style="stroke:#181818;stroke-width:0.5;"/><text fill="#000000" font-family="sans-serif" font-size="14" lengthAdjust="spacing" textLength="35.0068" x="720.2354" y="1238.2896">Email</text></g><g id="elem_Tel"><ellipse cx="737.3211" cy="1167.6736" fill="#FFD700" rx="70.8211" ry="16.5642" style="stroke:#181818;stroke-width:0.5;"/><text fill="#000000" font-family="sans-serif" font-size="14" lengthAdjust="spacing" textLength="89.8994" x="689.3714" y="1172.1902">T&#195;&#169;l&#195;&#169;phone</text></g><g id="elem_Paper"><ellipse cx="737.6424" cy="1087.5128" fill="#FF6B6B" rx="40.6424" ry="27.9034" style="stroke:#181818;stroke-width:0.5;"/><text fill="#000000" font-family="sans-serif" font-size="14" lengthAdjust="spacing" textLength="40.4688" x="717.408" y="1082.4366">Papier</text><text fill="#000000" font-family="sans-serif" font-size="14" lengthAdjust="spacing" textLength="41.2344" x="717.0252" y="1100.046">(Bons)</text></g><!--entity Marc--><g id="elem_Marc"><ellipse cx="82.8516" cy="363.6094" fill="#FFB6C1" rx="8" ry="8" style="stroke:#181818;stroke-width:0.5;"/><path d="M82.8516,371.6094 L82.8516,398.6094 M69.8516,379.6094 L95.8516,379.6094 M82.8516,398.6094 L69.8516,413.6094 M82.8516,398.6094 L95.8516,413.6094 " fill="none" style="stroke:#181818;stroke-width:0.5;"/><text fill="#000000" font-family="sans-serif" font-size="14" lengthAdjust="spacing" textLength="31.1104" x="35" y="429.6426">Marc</text><text fill="#000000" font-family="sans-serif" font-size="14" lengthAdjust="spacing" textLength="95.7031" x="35" y="447.252">(Chef Chantier)</text></g><!--entity Sylvie--><g id="elem_Sylvie"><ellipse cx="323.6963" cy="1195.6094" fill="#ADD8E6" rx="8" ry="8" style="stroke:#181818;stroke-width:0.5;"/><path d="M323.6963,1203.6094 L323.6963,1230.6094 M310.6963,1211.6094 L336.6963,1211.6094 M323.6963,1230.6094 L310.6963,1245.6094 M323.6963,1230.6094 L336.6963,1245.6094 " fill="none" style="stroke:#181818;stroke-width:0.5;"/><text fill="#000000" font-family="sans-serif" font-size="14" lengthAdjust="spacing" textLength="37.3447" x="256" y="1261.6426">Sylvie</text><text fill="#000000" font-family="sans-serif" font-size="14" lengthAdjust="spacing" textLength="135.3926" x="256" y="1279.252">(Gestionnaire Achats)</text></g><!--entity Julien--><g id="elem_Julien"><ellipse cx="83.124" cy="1057.6094" fill="#FFDAB9" rx="8" ry="8" style="stroke:#181818;stroke-width:0.5;"/><path d="M83.124,1065.6094 L83.124,1092.6094 M70.124,1073.6094 L96.124,1073.6094 M83.124,1092.6094 L70.124,1107.6094 M83.124,1092.6094 L96.124,1107.6094 " fill="none" style="stroke:#181818;stroke-width:0.5;"/><text fill="#000000" font-family="sans-serif" font-size="14" lengthAdjust="spacing" textLength="36.5791" x="34.5" y="1123.6426">Julien</text><text fill="#000000" font-family="sans-serif" font-size="14" lengthAdjust="spacing" textLength="97.248" x="34.5" y="1141.252">(Resp. Affaires)</text></g><!--entity Eric--><g id="elem_Eric"><ellipse cx="82.8999" cy="729.6094" fill="#98FB98" rx="8" ry="8" style="stroke:#181818;stroke-width:0.5;"/><path d="M82.8999,737.6094 L82.8999,764.6094 M69.8999,745.6094 L95.8999,745.6094 M82.8999,764.6094 L69.8999,779.6094 M82.8999,764.6094 L95.8999,779.6094 " fill="none" style="stroke:#181818;stroke-width:0.5;"/><text fill="#000000" font-family="sans-serif" font-size="14" lengthAdjust="spacing" textLength="41.0498" x="44" y="795.6426">&#195;&#8240;ric</text><text fill="#000000" font-family="sans-serif" font-size="14" lengthAdjust="spacing" textLength="77.7998" x="44" y="813.252">(Magasinier)</text></g><!--entity Christine--><g id="elem_Christine"><ellipse cx="82.8291" cy="232.6094" fill="#DDA0DD" rx="8" ry="8" style="stroke:#181818;stroke-width:0.5;"/><path d="M82.8291,240.6094 L82.8291,267.6094 M69.8291,248.6094 L95.8291,248.6094 M82.8291,267.6094 L69.8291,282.6094 M82.8291,267.6094 L95.8291,282.6094 " fill="none" style="stroke:#181818;stroke-width:0.5;"/><text fill="#000000" font-family="sans-serif" font-size="14" lengthAdjust="spacing" textLength="55.2412" x="6" y="298.6426">Christine</text><text fill="#000000" font-family="sans-serif" font-size="14" lengthAdjust="spacing" textLength="153.6582" x="6" y="316.252">(Directrice G&#195;&#169;n&#195;&#169;rale)</text></g><g id="elem_GMN82"><path d="M592,44.6094 L592,152.7188 L883.1626,152.7188 L883.1626,54.6094 L873.1626,44.6094 L592,44.6094 " fill="#FEFFDD" style="stroke:#181818;stroke-width:0.5;"/><path d="M873.1626,44.6094 L873.1626,54.6094 L883.1626,54.6094 L873.1626,44.6094 " fill="#FEFFDD" style="stroke:#181818;stroke-width:1;"/><text fill="#000000" font-family="sans-serif" font-size="13" font-weight="bold" lengthAdjust="spacing" textLength="154.5654" x="598" y="63.1045">PROBL&#195;&#710;MES MAJEURS</text><text fill="#000000" font-family="sans-serif" font-size="13" lengthAdjust="spacing" textLength="214.8047" x="598" y="79.4561">&#240;&#376;&#8221;&#180; Aucune int&#195;&#169;gration entre outils</text><text fill="#000000" font-family="sans-serif" font-size="13" lengthAdjust="spacing" textLength="270.1626" x="598" y="95.8076">&#240;&#376;&#8221;&#180; Re-saisie 6-7 fois des m&#195;&#170;mes donn&#195;&#169;es</text><text fill="#000000" font-family="sans-serif" font-size="13" lengthAdjust="spacing" textLength="204.1089" x="598" y="112.1592">&#240;&#376;&#8221;&#180; Pas de visibilit&#195;&#169; temps r&#195;&#169;el</text><text fill="#000000" font-family="sans-serif" font-size="13" lengthAdjust="spacing" textLength="161.8018" x="598" y="128.5107">&#240;&#376;&#8221;&#180; Taux d'erreur &#195;&#169;lev&#195;&#169;</text><text fill="#000000" font-family="sans-serif" font-size="13" lengthAdjust="spacing" textLength="137.2744" x="598" y="144.8623">&#240;&#376;&#8221;&#180; Pertes importantes</text></g><!--link UC2 to GMN13--><g id="link_UC2_GMN13"><path d="M372.76,390.9394 C426.27,378.0694 515.2,356.8894 592,339.6094 C619.03,333.5294 648.98,327.0594 674.56,321.6194 " fill="none" id="UC2-GMN13" style="stroke:#181818;stroke-width:1;stroke-dasharray:7.0,7.0;"/></g><!--link UC7 to GMN33--><g id="link_UC7_GMN33"><path d="M383.41,476.6294 C437.57,461.0794 520.12,437.5194 592,417.6094 C612.66,411.8894 635.01,405.7994 655.82,400.1894 " fill="none" id="UC7-GMN33" style="stroke:#181818;stroke-width:1;stroke-dasharray:7.0,7.0;"/></g><!--link Marc to UC1--><g id="link_Marc_UC1"><path d="M131.12,369.4594 C141.92,359.9294 152.44,348.7794 160,336.6094 C196.12,278.4594 144.81,229.4394 199,187.6094 C278.16,126.5094 334.84,142.3294 424,187.6094 C536.86,244.9394 489.27,343.6394 592,417.6094 C616.68,435.3794 642.6769,445.0331 670.1769,451.8631 " fill="none" id="Marc-to-UC1" style="stroke:#181818;stroke-width:1;"/><polygon fill="#181818" points="676,453.3094,668.2295,447.2579,671.1474,452.1042,666.3012,455.0221,676,453.3094" style="stroke:#181818;stroke-width:1;"/></g><!--link Marc to UC2--><g id="link_Marc_UC2"><path d="M131.12,402.6094 C170.9,402.6094 221.82,402.6094 263.24,402.6094 " fill="none" id="Marc-to-UC2" style="stroke:#181818;stroke-width:1;"/><polygon fill="#181818" points="269.24,402.6094,260.24,398.6094,264.24,402.6094,260.24,406.6094,269.24,402.6094" style="stroke:#181818;stroke-width:1;"/></g><!--link Marc to Paper--><g id="link_Marc_Paper"><path d="M97.95,450.1694 C114.79,509.1594 142.99,613.0294 160,703.6094 C172.94,772.4994 157.67,959.9994 199,1016.6094 C299.04,1153.6194 393.82,1156.8594 562,1134.6094 C611.14,1128.1094 660.4063,1113.6218 695.2763,1102.0318 " fill="none" id="Marc-to-Paper" style="stroke:#181818;stroke-width:1;stroke-dasharray:7.0,7.0;"/><polygon fill="#181818" points="700.97,1100.1394,691.1678,1099.1823,696.2252,1101.7164,693.691,1106.7739,700.97,1100.1394" style="stroke:#181818;stroke-width:1;"/><text fill="#000000" font-family="sans-serif" font-size="13" lengthAdjust="spacing" textLength="33.2363" x="307" y="1013.1045">utilise</text></g><!--link Sylvie to UC3--><g id="link_Sylvie_UC3"><path d="M391,1196.7994 C403.95,1186.3994 415.98,1173.9594 424,1159.6094 C458.42,1098.0394 409.64,898.4494 454,843.6094 C468.57,825.5994 596.8711,790.3315 674.9511,770.1415 " fill="none" id="Sylvie-to-UC3" style="stroke:#181818;stroke-width:1;"/><polygon fill="#181818" points="680.76,768.6394,671.0452,767.0199,675.9192,769.8911,673.048,774.7651,680.76,768.6394" style="stroke:#181818;stroke-width:1;"/></g><!--link Sylvie to UC4--><g id="link_Sylvie_UC4"><path d="M391.03,1195.7494 C403.73,1185.4994 415.65,1173.3894 424,1159.6094 C466.05,1090.2594 394.49,1034.7094 454,979.6094 C507.11,930.4394 586.4191,928.7231 649.3991,936.8331 " fill="none" id="Sylvie-to-UC4" style="stroke:#181818;stroke-width:1;"/><polygon fill="#181818" points="655.35,937.5994,646.9346,932.4827,650.3909,936.9608,645.9128,940.4172,655.35,937.5994" style="stroke:#181818;stroke-width:1;"/></g><!--link Sylvie to UC8--><g id="link_Sylvie_UC8"><path d="M391,1196.4494 C403.87,1186.0994 415.86,1173.7694 424,1159.6094 C452.1,1110.7194 414.85,948.1994 454,907.6094 C483.25,877.2894 591.9247,868.0669 665.8747,865.1369 " fill="none" id="Sylvie-to-UC8" style="stroke:#181818;stroke-width:1;"/><polygon fill="#181818" points="671.87,864.8994,662.7187,861.2588,666.8739,865.0973,663.0354,869.2526,671.87,864.8994" style="stroke:#181818;stroke-width:1;"/></g><!--link Sylvie to Sage--><g id="link_Sylvie_Sage"><path d="M391.12,1266.2794 C410.95,1274.4994 433,1282.4694 454,1287.6094 C528.75,1305.9094 611.4924,1311.3913 669.3024,1313.0113 " fill="none" id="Sylvie-to-Sage" style="stroke:#181818;stroke-width:1;stroke-dasharray:7.0,7.0;"/><polygon fill="#181818" points="675.3,1313.1794,666.4156,1308.9288,670.302,1313.0393,666.1915,1316.9257,675.3,1313.1794" style="stroke:#181818;stroke-width:1;"/><text fill="#000000" font-family="sans-serif" font-size="13" lengthAdjust="spacing" textLength="33.2363" x="491.5" y="1284.1045">utilise</text></g><!--link Sylvie to Excel1--><g id="link_Sylvie_Excel1"><path d="M387.72,1282.1394 C399.78,1291.2394 412.29,1300.7094 424,1309.6094 C437.37,1319.7794 438.88,1325.2794 454,1332.6094 C524.58,1366.8594 607.3311,1385.0461 666.3211,1394.8461 " fill="none" id="Sylvie-to-Excel1" style="stroke:#181818;stroke-width:1;stroke-dasharray:7.0,7.0;"/><polygon fill="#181818" points="672.24,1395.8294,664.0172,1390.4085,667.3076,1395.01,662.7061,1398.3003,672.24,1395.8294" style="stroke:#181818;stroke-width:1;"/><text fill="#000000" font-family="sans-serif" font-size="13" lengthAdjust="spacing" textLength="33.2363" x="491.5" y="1329.1045">utilise</text></g><!--link Sylvie to Excel2--><g id="link_Sylvie_Excel2"><path d="M391.17,1276.0094 C403.33,1285.8594 414.99,1297.1694 424,1309.6094 C448.23,1343.0794 425.25,1367.9294 454,1397.6094 C521.9,1467.7094 636.4574,1487.1267 695.6974,1492.8067 " fill="none" id="Sylvie-to-Excel2" style="stroke:#181818;stroke-width:1;stroke-dasharray:7.0,7.0;"/><polygon fill="#181818" points="701.67,1493.3794,693.0929,1488.5386,696.6928,1492.9022,692.3293,1496.5021,701.67,1493.3794" style="stroke:#181818;stroke-width:1;"/><text fill="#000000" font-family="sans-serif" font-size="13" lengthAdjust="spacing" textLength="33.2363" x="491.5" y="1394.1045">utilise</text></g><!--link Sylvie to Email--><g id="link_Sylvie_Email"><path d="M391.05,1249.3594 C411.17,1253.1594 433.39,1256.7194 454,1258.6094 C544.68,1266.9394 645.929,1251.7849 698.389,1242.1349 " fill="none" id="Sylvie-to-Email" style="stroke:#181818;stroke-width:1;stroke-dasharray:7.0,7.0;"/><polygon fill="#181818" points="704.29,1241.0494,694.7149,1238.7436,699.3725,1241.9539,696.1622,1246.6116,704.29,1241.0494" style="stroke:#181818;stroke-width:1;"/><text fill="#000000" font-family="sans-serif" font-size="13" lengthAdjust="spacing" textLength="33.2363" x="491.5" y="1255.1045">utilise</text></g><!--link Sylvie to Tel--><g id="link_Sylvie_Tel"><path d="M391.17,1225.8794 C438.84,1219.4394 504.47,1210.1594 562,1200.6094 C602.76,1193.8394 642.7727,1186.2767 677.2627,1179.4967 " fill="none" id="Sylvie-to-Tel" style="stroke:#181818;stroke-width:1;stroke-dasharray:7.0,7.0;"/><polygon fill="#181818" points="683.15,1178.3394,673.5475,1176.1505,678.2439,1179.3038,675.0906,1184.0002,683.15,1178.3394" style="stroke:#181818;stroke-width:1;"/><text fill="#000000" font-family="sans-serif" font-size="13" lengthAdjust="spacing" textLength="33.2363" x="491.5" y="1197.1045">utilise</text></g><!--link Julien to UC1--><g id="link_Julien_UC1"><path d="M101.85,1049.0294 C120.41,1004.9694 153.19,940.0494 199,897.6094 C280.38,822.2294 350.92,873.0594 424,789.6094 C452.33,757.2594 434.41,735.8994 454,697.6094 C501.38,605.0194 507.41,569.1294 592,508.6094 C616.57,491.0294 642.3981,481.5695 669.8181,474.9395 " fill="none" id="Julien-to-UC1" style="stroke:#181818;stroke-width:1;"/><polygon fill="#181818" points="675.65,473.5294,665.962,471.7566,670.79,474.7045,667.8422,479.5325,675.65,473.5294" style="stroke:#181818;stroke-width:1;"/></g><!--link Julien to UC6--><g id="link_Julien_UC6"><path d="M131.79,1066.1794 C201.59,1020.1694 333,927.4994 424,826.6094 C440.6,808.2094 434.96,795.4794 454,779.6094 C493.82,746.4294 518.08,763.1394 562,735.6094 C577.2,726.0794 576.92,718.3194 592,708.6094 C620.3,690.3894 649.1763,677.2997 677.3463,666.3697 " fill="none" id="Julien-to-UC6" style="stroke:#181818;stroke-width:1;"/><polygon fill="#181818" points="682.94,664.1994,673.1025,663.7258,678.2786,666.008,675.9964,671.1841,682.94,664.1994" style="stroke:#181818;stroke-width:1;"/></g><!--link Julien to UC9--><g id="link_Julien_UC9"><path d="M100.94,1048.8294 C118.7,996.6494 145.93,910.2794 160,833.6094 C179.19,728.9994 134.51,441.1794 199,356.6094 C211.8,339.8294 225.7756,331.1899 245.6856,324.5799 " fill="none" id="Julien-to-UC9" style="stroke:#181818;stroke-width:1;"/><polygon fill="#181818" points="251.38,322.6894,241.5781,321.7289,246.6347,324.2648,244.0988,329.3214,251.38,322.6894" style="stroke:#181818;stroke-width:1;"/></g><!--link Julien to Sage--><g id="link_Julien_Sage"><path d="M86.43,1144.3294 C92.83,1213.4694 115.92,1339.4894 199,1396.6094 C265.48,1442.3194 488.69,1424.2794 562,1390.6094 C579.72,1382.4694 575.48,1368.9594 592,1358.6094 C618.61,1341.9394 646.0355,1332.4698 673.9355,1325.5698 " fill="none" id="Julien-to-Sage" style="stroke:#181818;stroke-width:1;stroke-dasharray:7.0,7.0;"/><polygon fill="#181818" points="679.76,1324.1294,670.0629,1322.4071,674.9062,1325.3298,671.9835,1330.1731,679.76,1324.1294" style="stroke:#181818;stroke-width:1;"/><text fill="#000000" font-family="sans-serif" font-size="13" lengthAdjust="spacing" textLength="48.4199" x="299.5" y="1393.1045">consulte</text></g><!--link Julien to Excel1--><g id="link_Julien_Excel1"><path d="M83.25,1144.4194 C84.94,1223.4294 101.24,1379.5794 199,1450.6094 C274.11,1505.1794 549.3872,1449.0039 672.4072,1420.2739 " fill="none" id="Julien-to-Excel1" style="stroke:#181818;stroke-width:1;stroke-dasharray:7.0,7.0;"/><polygon fill="#181818" points="678.25,1418.9094,668.5761,1417.061,673.381,1420.0465,670.3955,1424.8513,678.25,1418.9094" style="stroke:#181818;stroke-width:1;"/><text fill="#000000" font-family="sans-serif" font-size="13" lengthAdjust="spacing" textLength="48.4199" x="299.5" y="1447.1045">consulte</text></g><!--link Julien to Excel2--><g id="link_Julien_Excel2"><path d="M90.45,1144.4494 C104.62,1241.6094 141.86,1456.4994 199,1499.6094 C355.06,1617.3694 610.0121,1541.7344 699.5421,1509.6344 " fill="none" id="Julien-to-Excel2" style="stroke:#181818;stroke-width:1;stroke-dasharray:7.0,7.0;"/><polygon fill="#181818" points="705.19,1507.6094,695.3681,1506.8816,700.4834,1509.2969,698.0681,1514.4122,705.19,1507.6094" style="stroke:#181818;stroke-width:1;"/><text fill="#000000" font-family="sans-serif" font-size="13" lengthAdjust="spacing" textLength="48.4199" x="299.5" y="1496.1045">consulte</text></g><!--link Eric to UC5--><g id="link_Eric_UC5"><path d="M122,783.6694 C188.26,807.3094 327.1,845.0294 424,789.6094 C446.83,776.5494 434.11,755.8094 454,738.6094 C493.21,704.7094 526.86,732.7094 562,694.6094 C592.02,662.0594 560.63,630.8594 592,599.6094 C610.8,580.8794 631.4453,571.4091 656.5953,565.0091 " fill="none" id="Eric-to-UC5" style="stroke:#181818;stroke-width:1;"/><polygon fill="#181818" points="662.41,563.5294,652.7015,561.8724,657.5644,564.7624,654.6744,569.6254,662.41,563.5294" style="stroke:#181818;stroke-width:1;"/></g><!--link Eric to UC7--><g id="link_Eric_UC7"><path d="M96.55,720.9494 C112.37,669.5794 144.35,588.6194 199,539.6094 C215.61,524.7194 231.7915,516.4074 252.5115,509.4574 " fill="none" id="Eric-to-UC7" style="stroke:#181818;stroke-width:1;"/><polygon fill="#181818" points="258.2,507.5494,248.3952,506.6191,253.4596,509.1394,250.9393,514.2038,258.2,507.5494" style="stroke:#181818;stroke-width:1;"/></g><!--link Eric to UC2--><g id="link_Eric_UC2"><path d="M88.45,721.0894 C97.38,651.8794 123.65,523.3694 199,447.6094 C218.39,428.1094 241.0756,418.48 265.8156,412.18 " fill="none" id="Eric-to-UC2" style="stroke:#181818;stroke-width:1;"/><polygon fill="#181818" points="271.63,410.6994,261.9212,409.044,266.7846,411.9332,263.8954,416.7966,271.63,410.6994" style="stroke:#181818;stroke-width:1;"/></g><!--link Eric to Sage--><g id="link_Eric_Sage"><path d="M100.14,816.5494 C117.22,868.8594 143.87,955.3494 160,1031.6094 C173.27,1094.3694 150.68,1275.4294 199,1317.6094 C268.95,1378.6694 549.0106,1343.2973 672.9006,1324.1173 " fill="none" id="Eric-to-Sage" style="stroke:#181818;stroke-width:1;stroke-dasharray:7.0,7.0;"/><polygon fill="#181818" points="678.83,1323.1994,669.324,1320.6234,673.8889,1323.9643,670.5479,1328.5292,678.83,1323.1994" style="stroke:#181818;stroke-width:1;"/><text fill="#000000" font-family="sans-serif" font-size="13" lengthAdjust="spacing" textLength="33.2363" x="307" y="1314.1045">utilise</text></g><!--link Christine to UC10--><g id="link_Christine_UC10"><path d="M104.04,223.9894 C121.3,189.7294 149.81,146.0994 190,125.6094 C337.3,50.5294 415.83,48.3594 562,125.6094 C582.93,136.6694 573.77,154.5094 592,169.6094 C617.4,190.6494 645.2537,203.8099 673.6037,213.9999 " fill="none" id="Christine-to-UC10" style="stroke:#181818;stroke-width:1;"/><polygon fill="#181818" points="679.25,216.0294,672.1335,209.2209,674.5447,214.3381,669.4275,216.7494,679.25,216.0294" style="stroke:#181818;stroke-width:1;"/></g><!--link Christine to UC9--><g id="link_Christine_UC9"><path d="M160.12,284.3794 C189.56,289.3194 217.1528,293.936 246.0428,298.786 " fill="none" id="Christine-to-UC9" style="stroke:#181818;stroke-width:1;"/><polygon fill="#181818" points="251.96,299.7794,243.7464,294.3445,247.029,298.9516,242.422,302.2341,251.96,299.7794" style="stroke:#181818;stroke-width:1;"/></g><!--link UC1 to UC4--><g id="link_UC1_UC4"><path d="M672.95,469.6394 C644.66,475.4594 613.15,486.7594 592,508.6094 C496.57,607.2094 509.79,773.4794 517.5,798.6094 C534.82,855.0594 544.67,873.3094 592,908.6094 C609.94,921.9994 626.183,929.7385 647.533,936.5385 " fill="none" id="UC1-to-UC4" style="stroke:#181818;stroke-width:1;stroke-dasharray:7.0,7.0;"/><polygon fill="#181818" points="653.25,938.3594,645.8884,931.8167,648.4858,936.842,643.4605,939.4394,653.25,938.3594" style="stroke:#181818;stroke-width:1;"/><text fill="#000000" font-family="sans-serif" font-size="13" lengthAdjust="spacing" textLength="55.6563" x="480.5" y="795.1045">&#171;include&#187;</text></g><!--link UC3 to UC4--><g id="link_UC3_UC4"><path d="M684.11,770.8694 C601.43,798.6394 457.82,858.8494 517.5,926.6094 C549.18,962.5794 596.084,970.4084 642.074,968.7284 " fill="none" id="UC3-to-UC4" style="stroke:#181818;stroke-width:1;stroke-dasharray:7.0,7.0;"/><polygon fill="#181818" points="648.07,968.5094,638.93,964.8406,643.0733,968.6919,639.222,972.8353,648.07,968.5094" style="stroke:#181818;stroke-width:1;"/><text fill="#000000" font-family="sans-serif" font-size="13" lengthAdjust="spacing" textLength="55.6563" x="480.5" y="923.1045">&#171;include&#187;</text></g><!--link UC3 to UC8--><g id="link_UC3_UC8"><path d="M737.5,782.9594 C737.5,799.1594 737.5,813.3894 737.5,829.5394 " fill="none" id="UC3-to-UC8" style="stroke:#181818;stroke-width:1;stroke-dasharray:7.0,7.0;"/><polygon fill="#181818" points="737.5,835.5394,741.5,826.5394,737.5,830.5394,733.5,826.5394,737.5,835.5394" style="stroke:#181818;stroke-width:1;"/><text fill="#000000" font-family="sans-serif" font-size="13" lengthAdjust="spacing" textLength="55.6563" x="698" y="814.6045">&#171;include&#187;</text></g><!--link UC5 to UC4--><g id="link_UC5_UC4"><path d="M662.41,563.3994 C637.2,569.7894 610.75,580.7794 592,599.6094 C462.95,729.2694 506.64,843.1494 517.5,862.6094 C542.81,907.9894 590.3507,929.5583 638.1807,941.2183 " fill="none" id="UC5-to-UC4" style="stroke:#181818;stroke-width:1;stroke-dasharray:7.0,7.0;"/><polygon fill="#181818" points="644.01,942.6394,636.2134,936.6216,639.1523,941.4552,634.3187,944.394,644.01,942.6394" style="stroke:#181818;stroke-width:1;"/><text fill="#000000" font-family="sans-serif" font-size="13" lengthAdjust="spacing" textLength="55.6563" x="480.5" y="859.1045">&#171;include&#187;</text></g><!--link UC6 to UC3--><g id="link_UC6_UC3"><path d="M737.5,673.9594 C737.5,690.1594 737.5,704.3894 737.5,720.5394 " fill="none" id="UC6-to-UC3" style="stroke:#181818;stroke-width:1;stroke-dasharray:7.0,7.0;"/><polygon fill="#181818" points="737.5,726.5394,741.5,717.5394,737.5,721.5394,733.5,717.5394,737.5,726.5394" style="stroke:#181818;stroke-width:1;"/><text fill="#000000" font-family="sans-serif" font-size="13" lengthAdjust="spacing" textLength="55.6563" x="698" y="705.6045">&#171;include&#187;</text></g><!--link UC4 to Tel--><g id="link_UC4_Tel"><path d="M652.74,938.6894 C598.44,933.8494 531.06,938.8394 492,982.6094 C438.65,1042.3894 523.6,1090.8894 592,1132.6094 C616.18,1147.3594 640.242,1154.7878 666.692,1159.7278 " fill="none" id="UC4-to-Tel" style="stroke:#181818;stroke-width:1;stroke-dasharray:7.0,7.0;"/><polygon fill="#181818" points="672.59,1160.8294,664.4774,1155.245,667.675,1159.9114,663.0086,1163.109,672.59,1160.8294" style="stroke:#181818;stroke-width:1;"/><text fill="#000000" font-family="sans-serif" font-size="13" lengthAdjust="spacing" textLength="53.4917" x="481.7268" y="997.1045">&#171;extend&#187;</text><text fill="#000000" font-family="sans-serif" font-size="13" lengthAdjust="spacing" textLength="106.9453" x="455" y="1013.4561">appels clarification</text></g><!--link UC8 to Email--><g id="link_UC8_Email"><path d="M674.28,871.0194 C646.26,877.1294 614.61,888.2694 592,908.6094 C483.69,1006.0494 473.42,1055.7594 510,1133.6094 C543.81,1205.5794 640.5847,1225.6253 695.6947,1231.5753 " fill="none" id="UC8-to-Email" style="stroke:#181818;stroke-width:1;stroke-dasharray:7.0,7.0;"/><polygon fill="#181818" points="701.66,1232.2194,693.1414,1227.2764,696.6889,1231.6827,692.2826,1235.2302,701.66,1232.2194" style="stroke:#181818;stroke-width:1;"/><text fill="#000000" font-family="sans-serif" font-size="13" lengthAdjust="spacing" textLength="53.4917" x="481.6582" y="1114.1045">&#171;extend&#187;</text><text fill="#000000" font-family="sans-serif" font-size="13" lengthAdjust="spacing" textLength="70.8081" x="473" y="1130.4561">confirmation</text></g><!--link Paper to GMN82--><g id="link_Paper_GMN82"><path d="M697.37,1082.1694 C643.53,1072.4694 549.83,1046.6394 508,981.1094 C415.33,835.9494 415.59,351.4394 508,206.1094 C527.65,175.1994 558.8,153.0294 591.87,137.1794 " fill="none" id="Paper-GMN82" style="stroke:#181818;stroke-width:1;stroke-dasharray:7.0,7.0;"/></g><!--SRC=[ZLRDJYD74BxFKvH02GJ9h7_0s152iZqsOWK26SZ9b_Qun-wafsVItODOhIAjX9Ito2MNR7BYi8T8KHG9b5FUObyWhv3gdX_F31wK0uExw- -hdwugpJIdSAieZ0X-N4QMaWJGW86t8bh1bt0UBfdIxFkOmc1qSpi-TnnEVGqw1CcMAmqB9gcdMIWSXtWwbB1rGQGt4xkZ5VLXj292Cog_sWAYm51WUp8PTaUjZFlw7RzZ5FbFgJ9g1465gVr4Ak60xO7hziRTJEvjp1aLA3UbAjg7WUyRmLGa8HfJxc3OpqIU7pv_U9JCWBiWIwAOo96DyHgs-xt9iD_Bs4ShQLmN1fnhlKGc2gVF3q-_2lEHXDD4F6U5RTSTD5tNSGm_4KiCBxgeDF9_33A_6Y-YkcMmJYQZ4Rnt781OKSyaP6iK1W4H2ofd8Y3Q6cMKMvktevPryAZPH0aHQffc9FGD3Uy0dX___ltpXv-UFi4DYUzXiKEbfB44euZJE_CluVlvtx_-V7g43dmRnbBX7HKBgxE2HgYOQuD6wT3xBiNHVWL7kuB3nGmRirGXgm2VaJcdjGPl967Md9V6GQKcErMJjYYjnKx5OXSaRIZ25BDsriwsLn0H2PdgEWnJwgseD7yp8GrqtwQ12go5I8QBcEaKr841rHrsXnlYS511rMh37P4CNmTLRr8rbWLZxCSA7m8-COq5LWlBeF1ePD-CmSRP7KPBOOfIE8VrCJgiecaslm2CGanvAKIjLQTfWvGhhuDp7IC7nM0Yh3-qcWaZHP97cUBfLiEpnjEjhnA6kL-b4TUL37OmWrYl40lmLipt9RLaR3DBkYvs5aIXr2RITU1F4_rPMSF2d2FyVCfIU_HAYHzLm5-Xn8A2bWGr_4BcZ3ETlxGfzWGQe2k8c8Is1RposZIs8WFBHoy5KmhToRBRUmLHRrDwBGPkFLk58ecKXRepTi_U3AxEwd1yGpYp7MWUBvOKfmAnJIp5qI_n3WJXxvHXZgZqGuarvUMFjjMihu1MiuBv3BEc59lp16cf8kXzn4EcNxIE7qfjzpBMZ2lOlMOyD7C1ROyFnYtiiCMw9LWg5-uOU_pbN8KcFXzrsjKjROqubndVUvJFnAIQ57jVRCfL2VD8s9grlP4r82nfyFPNgHkMCsYPRYZVfEMAHCnaONU8_I3n1g-epDt1KEt0b79Y-aSocHqxdXkD4pi-2eTsSjZVFqcLV0qcj4pHif9aK3lfl4vaE-NZGVdOouv6jmttMdM1aWQsdjQkePa8RYQPkDMuaImFJhf3PF4e7RlbOpyx5jpmqbbP9EL-r1BRHM89LRQyE7PLIUmU5Wz7nKCxEMm8QqbflhSuwmqcTRZvugflPC-4nsESmuvPF_PjIb7vyJ5BxazE73ESNoVqNX0EwoIw2Q5J8I2GyRscmin90-K0yfGU7rD3MPoSp0I98eeTmECuQNtcMQSTOxzG6qL-ZBpFi6SbwwpjKFDGwp30fxMtTpMz79u_F_ppuyNu6Yu6RyUtq-kzFQVOj0Qn5sEycB3D5dTfemdxayRH6DfsL6AVPei9T1j7u8VC30u50Gh_5k2FHTxqd0q3vWuby-42cWQH0hkWs27-_rQ_Wb8gjMck-R1KJjvN_mC0]--></g></svg>