<svg xmlns="http://www.w3.org/2000/svg" xmlns:xlink="http://www.w3.org/1999/xlink" contentStyleType="text/css" height="1702px" preserveAspectRatio="none" style="width:716px;height:1702px;background:#FFFFFF;" version="1.1" viewBox="0 0 716 1702" width="716px" zoomAndPan="magnify"><title>Workflow Systeme Tickets Bureau Etudes</title><defs/><g><text fill="#000000" font-family="sans-serif" font-size="14" font-weight="bold" lengthAdjust="spacing" textLength="279.3027" x="216.9391" y="34.5332">Workflow Systeme Tickets Bureau Etudes</text><ellipse cx="358.0032" cy="58.6094" fill="#222222" rx="10" ry="10" style="stroke:#222222;stroke-width:1;"/><path d="M476.3684,78.6094 L476.3684,128.6641 L456.3684,132.6641 L476.3684,136.6641 L476.3684,186.7188 A0,0 0 0 0 476.3684,186.7188 L693.1809,186.7188 A0,0 0 0 0 693.1809,186.7188 L693.1809,88.6094 L683.1809,78.6094 L476.3684,78.6094 A0,0 0 0 0 476.3684,78.6094 " fill="#FEFFDD" style="stroke:#181818;stroke-width:0.5;"/><path d="M683.1809,78.6094 L683.1809,88.6094 L693.1809,88.6094 L683.1809,78.6094 " fill="#FEFFDD" style="stroke:#181818;stroke-width:0.5;"/><text fill="#000000" font-family="sans-serif" font-size="13" lengthAdjust="spacing" textLength="140.1689" x="482.3684" y="97.1045">Formulaire standardise :</text><text fill="#000000" font-family="sans-serif" font-size="13" lengthAdjust="spacing" textLength="195.8125" x="482.3684" y="113.4561">- Type etude (schema/plan/calcul)</text><text fill="#000000" font-family="sans-serif" font-size="13" lengthAdjust="spacing" textLength="114.1689" x="482.3684" y="129.8076">- Chantier concerne</text><text fill="#000000" font-family="sans-serif" font-size="13" lengthAdjust="spacing" textLength="119.2471" x="482.3684" y="146.1592">- Deadline souhaitee</text><text fill="#000000" font-family="sans-serif" font-size="13" lengthAdjust="spacing" textLength="145.9326" x="482.3684" y="162.5107">- Charge estimee (S/M/L)</text><text fill="#000000" font-family="sans-serif" font-size="13" lengthAdjust="spacing" textLength="87.4072" x="482.3684" y="178.8623">- Fichiers joints</text><rect fill="#F1F1F1" height="50.1875" rx="12.5" ry="12.5" style="stroke:#181818;stroke-width:0.5;" width="196.7305" x="259.6379" y="107.5703"/><text fill="#000000" font-family="sans-serif" font-size="12" lengthAdjust="spacing" textLength="176.7305" x="269.6379" y="130.0273">Demandeur (RA, Chef, Direction)</text><text fill="#000000" font-family="sans-serif" font-size="12" lengthAdjust="spacing" textLength="146.0625" x="269.6379" y="145.1211">remplit formulaire demande</text><rect fill="#F1F1F1" height="50.1875" rx="12.5" ry="12.5" style="stroke:#181818;stroke-width:0.5;" width="124.7012" x="295.6526" y="206.7188"/><text fill="#000000" font-family="sans-serif" font-size="12" lengthAdjust="spacing" textLength="104.7012" x="305.6526" y="229.1758">Systeme cree ticket</text><text fill="#000000" font-family="sans-serif" font-size="12" lengthAdjust="spacing" textLength="80.0508" x="305.6526" y="244.2695">avec ID unique</text><path d="M437.0256,266.9063 L437.0256,325.1367 L417.0256,329.1367 L437.0256,333.1367 L437.0256,391.3672 A0,0 0 0 0 437.0256,391.3672 L591.7327,391.3672 A0,0 0 0 0 591.7327,391.3672 L591.7327,276.9063 L581.7327,266.9063 L437.0256,266.9063 A0,0 0 0 0 437.0256,266.9063 " fill="#FEFFDD" style="stroke:#181818;stroke-width:0.5;"/><path d="M581.7327,266.9063 L581.7327,276.9063 L591.7327,276.9063 L581.7327,266.9063 " fill="#FEFFDD" style="stroke:#181818;stroke-width:0.5;"/><text fill="#000000" font-family="sans-serif" font-size="13" lengthAdjust="spacing" textLength="56.7163" x="443.0256" y="285.4014">Score = f(</text><text fill="#000000" font-family="sans-serif" font-size="13" lengthAdjust="spacing" textLength="99.728" x="450.2493" y="301.7529">Role demandeur,</text><text fill="#000000" font-family="sans-serif" font-size="13" lengthAdjust="spacing" textLength="54.9263" x="450.2493" y="318.1045">Deadline,</text><text fill="#000000" font-family="sans-serif" font-size="13" lengthAdjust="spacing" textLength="61.4136" x="450.2493" y="334.4561">CA affaire,</text><text fill="#000000" font-family="sans-serif" font-size="13" lengthAdjust="spacing" textLength="126.4834" x="450.2493" y="350.8076">Anciennete demande,</text><text fill="#000000" font-family="sans-serif" font-size="13" lengthAdjust="spacing" textLength="91.7681" x="450.2493" y="367.1592">Charge estimee</text><text fill="#000000" font-family="sans-serif" font-size="13" lengthAdjust="spacing" textLength="4.3291" x="443.0256" y="383.5107">)</text><rect fill="#F1F1F1" height="50.1875" rx="12.5" ry="12.5" style="stroke:#181818;stroke-width:0.5;" width="118.0449" x="298.9807" y="304.043"/><text fill="#000000" font-family="sans-serif" font-size="12" lengthAdjust="spacing" textLength="98.0449" x="308.9807" y="326.5">Algorithme calcule</text><text fill="#000000" font-family="sans-serif" font-size="12" lengthAdjust="spacing" textLength="69.3574" x="308.9807" y="341.5938">score priorite</text><rect fill="#F1F1F1" height="50.1875" rx="12.5" ry="12.5" style="stroke:#181818;stroke-width:0.5;" width="156.7227" x="279.6418" y="411.3672"/><text fill="#000000" font-family="sans-serif" font-size="12" lengthAdjust="spacing" textLength="68.0215" x="289.6418" y="433.8242">Ticket insere</text><text fill="#000000" font-family="sans-serif" font-size="12" lengthAdjust="spacing" textLength="136.7227" x="289.6418" y="448.918">file attente (trie par score)</text><path d="M435.0217,477.1211 L435.0217,502.6484 L415.0217,506.6484 L435.0217,510.6484 L435.0217,536.1758 A0,0 0 0 0 435.0217,536.1758 L683.2361,536.1758 A0,0 0 0 0 683.2361,536.1758 L683.2361,487.1211 L673.2361,477.1211 L435.0217,477.1211 A0,0 0 0 0 435.0217,477.1211 " fill="#FEFFDD" style="stroke:#181818;stroke-width:0.5;"/><path d="M673.2361,477.1211 L673.2361,487.1211 L683.2361,487.1211 L673.2361,477.1211 " fill="#FEFFDD" style="stroke:#181818;stroke-width:0.5;"/><text fill="#000000" font-family="sans-serif" font-size="13" lengthAdjust="spacing" textLength="227.2144" x="441.0217" y="495.6162">"Votre demande #12345 est classee #7</text><text fill="#000000" font-family="sans-serif" font-size="13" lengthAdjust="spacing" textLength="182.0889" x="441.0217" y="511.9678">Traitement estime : Jeudi 21/11</text><text fill="#000000" font-family="sans-serif" font-size="13" lengthAdjust="spacing" textLength="128.1719" x="441.0217" y="528.3193">Score priorite : 68 pts"</text><rect fill="#F1F1F1" height="50.1875" rx="12.5" ry="12.5" style="stroke:#181818;stroke-width:0.5;" width="114.0371" x="300.9846" y="481.5547"/><text fill="#000000" font-family="sans-serif" font-size="12" lengthAdjust="spacing" textLength="82.0371" x="310.9846" y="504.0117">Systeme notifie</text><text fill="#000000" font-family="sans-serif" font-size="12" lengthAdjust="spacing" textLength="94.0371" x="310.9846" y="519.1055">demandeur (mail)</text><rect fill="#555555" height="6" rx="2.5" ry="2.5" style="stroke:#555555;stroke-width:1;" width="694.1809" x="11" y="556.1758"/><rect fill="#F1F1F1" height="50.1875" rx="12.5" ry="12.5" style="stroke:#181818;stroke-width:0.5;" width="114.0547" x="189.6213" y="582.1758"/><text fill="#000000" font-family="sans-serif" font-size="12" lengthAdjust="spacing" textLength="91.377" x="199.6213" y="604.6328">Thomas consulte</text><text fill="#000000" font-family="sans-serif" font-size="12" lengthAdjust="spacing" textLength="94.0547" x="199.6213" y="619.7266">dashboard tickets</text><rect fill="#F1F1F1" height="50.1875" rx="12.5" ry="12.5" style="stroke:#181818;stroke-width:0.5;" width="120.7109" x="186.2932" y="652.3633"/><text fill="#000000" font-family="sans-serif" font-size="12" lengthAdjust="spacing" textLength="100.7109" x="196.2932" y="674.8203">Voit Top 5 priorites</text><text fill="#000000" font-family="sans-serif" font-size="12" lengthAdjust="spacing" textLength="62.0273" x="196.2932" y="689.9141">(ordre algo)</text><polygon fill="#F1F1F1" points="185.1926,722.5508,308.1047,722.5508,320.1047,734.5508,308.1047,746.5508,185.1926,746.5508,173.1926,734.5508,185.1926,722.5508" style="stroke:#181818;stroke-width:0.5;"/><text fill="#000000" font-family="sans-serif" font-size="11" lengthAdjust="spacing" textLength="122.9121" x="185.1926" y="739.0518">Capacite BE disponible ?</text><text fill="#000000" font-family="sans-serif" font-size="11" lengthAdjust="spacing" textLength="17.1177" x="156.075" y="732.1338">Oui</text><text fill="#000000" font-family="sans-serif" font-size="11" lengthAdjust="spacing" textLength="80.7061" x="320.1047" y="732.1338">Non - Surcharge</text><path d="M181.0664,756.5508 L181.0664,790.2539 L161.0664,794.2539 L181.0664,798.2539 L181.0664,831.957 A0,0 0 0 0 181.0664,831.957 L311.8999,831.957 A0,0 0 0 0 311.8999,831.957 L311.8999,766.5508 L301.8999,756.5508 L181.0664,756.5508 A0,0 0 0 0 181.0664,756.5508 " fill="#FEFFDD" style="stroke:#181818;stroke-width:0.5;"/><path d="M301.8999,756.5508 L301.8999,766.5508 L311.8999,766.5508 L301.8999,756.5508 " fill="#FEFFDD" style="stroke:#181818;stroke-width:0.5;"/><text fill="#000000" font-family="sans-serif" font-size="13" lengthAdjust="spacing" textLength="109.8335" x="187.0664" y="775.0459">Assignment selon :</text><text fill="#000000" font-family="sans-serif" font-size="13" lengthAdjust="spacing" textLength="88.1499" x="187.0664" y="791.3975">- Competences</text><text fill="#000000" font-family="sans-serif" font-size="13" lengthAdjust="spacing" textLength="98.998" x="187.0664" y="807.749">- Charge actuelle</text><text fill="#000000" font-family="sans-serif" font-size="13" lengthAdjust="spacing" textLength="78.0317" x="187.0664" y="824.1006">- Disponibilite</text><rect fill="#F1F1F1" height="50.1875" rx="12.5" ry="12.5" style="stroke:#181818;stroke-width:0.5;" width="138.0664" x="23" y="769.1602"/><text fill="#000000" font-family="sans-serif" font-size="12" lengthAdjust="spacing" textLength="118.0664" x="33" y="791.6172">Systeme assigne auto</text><text fill="#000000" font-family="sans-serif" font-size="12" lengthAdjust="spacing" textLength="103.3887" x="33" y="806.7109">ticket a dessinateur</text><path d="M490.6284,756.5508 L490.6284,782.0781 L470.6284,786.0781 L490.6284,790.0781 L490.6284,815.6055 A0,0 0 0 0 490.6284,815.6055 L693.0063,815.6055 A0,0 0 0 0 693.0063,815.6055 L693.0063,766.5508 L683.0063,756.5508 L490.6284,756.5508 A0,0 0 0 0 490.6284,756.5508 " fill="#FEFFDD" style="stroke:#181818;stroke-width:0.5;"/><path d="M683.0063,756.5508 L683.0063,766.5508 L693.0063,766.5508 L683.0063,756.5508 " fill="#FEFFDD" style="stroke:#181818;stroke-width:0.5;"/><text fill="#000000" font-family="sans-serif" font-size="13" lengthAdjust="spacing" textLength="87.4326" x="496.6284" y="775.0459">Transparence :</text><text fill="#000000" font-family="sans-serif" font-size="13" lengthAdjust="spacing" textLength="181.3779" x="496.6284" y="791.3975">Demandeurs voient position file</text><text fill="#000000" font-family="sans-serif" font-size="13" lengthAdjust="spacing" textLength="160.0562" x="496.6284" y="807.749">+ raison attente (surcharge)</text><rect fill="#F1F1F1" height="50.1875" rx="12.5" ry="12.5" style="stroke:#181818;stroke-width:0.5;" width="138.7285" x="331.8999" y="760.9844"/><text fill="#000000" font-family="sans-serif" font-size="12" lengthAdjust="spacing" textLength="118.7285" x="341.8999" y="783.4414">Ticket reste en attente</text><text fill="#000000" font-family="sans-serif" font-size="12" lengthAdjust="spacing" textLength="67.3535" x="341.8999" y="798.5352">(visible tous)</text><polygon fill="#F1F1F1" points="246.6487,837.957,258.6487,849.957,246.6487,861.957,234.6487,849.957,246.6487,837.957" style="stroke:#181818;stroke-width:0.5;"/><rect fill="#555555" height="6" rx="2.5" ry="2.5" style="stroke:#555555;stroke-width:1;" width="694.1809" x="11" y="881.957"/><rect fill="#F1F1F1" height="50.1875" rx="12.5" ry="12.5" style="stroke:#181818;stroke-width:0.5;" width="143.1934" x="286.4065" y="907.957"/><text fill="#000000" font-family="sans-serif" font-size="12" lengthAdjust="spacing" textLength="112.0488" x="296.4065" y="930.4141">Dessinateur demarre</text><text fill="#000000" font-family="sans-serif" font-size="12" lengthAdjust="spacing" textLength="123.1934" x="296.4065" y="945.5078">travail (clic "Demarrer")</text><rect fill="#F1F1F1" height="50.1875" rx="12.5" ry="12.5" style="stroke:#181818;stroke-width:0.5;" width="128.7383" x="293.634" y="978.1445"/><text fill="#000000" font-family="sans-serif" font-size="12" lengthAdjust="spacing" textLength="108.7383" x="303.634" y="1000.6016">Chrono automatique</text><text fill="#000000" font-family="sans-serif" font-size="12" lengthAdjust="spacing" textLength="30.0293" x="303.634" y="1015.6953">debut</text><rect fill="#F1F1F1" height="50.1875" rx="12.5" ry="12.5" style="stroke:#181818;stroke-width:0.5;" width="177.418" x="269.2942" y="1048.332"/><text fill="#000000" font-family="sans-serif" font-size="12" lengthAdjust="spacing" textLength="108.7148" x="279.2942" y="1070.7891">Dessinateur travaille</text><text fill="#000000" font-family="sans-serif" font-size="12" lengthAdjust="spacing" textLength="157.418" x="279.2942" y="1085.8828">(mode focus, notifs bloquees)</text><rect fill="#F1F1F1" height="50.1875" rx="12.5" ry="12.5" style="stroke:#181818;stroke-width:0.5;" width="127.3789" x="294.3137" y="1118.5195"/><text fill="#000000" font-family="sans-serif" font-size="12" lengthAdjust="spacing" textLength="107.3789" x="304.3137" y="1140.9766">Dessinateur termine</text><text fill="#000000" font-family="sans-serif" font-size="12" lengthAdjust="spacing" textLength="30.0293" x="304.3137" y="1156.0703">etude</text><rect fill="#F1F1F1" height="50.1875" rx="12.5" ry="12.5" style="stroke:#181818;stroke-width:0.5;" width="113.9961" x="301.0051" y="1188.707"/><text fill="#000000" font-family="sans-serif" font-size="12" lengthAdjust="spacing" textLength="85.377" x="311.0051" y="1211.1641">Upload livrables</text><text fill="#000000" font-family="sans-serif" font-size="12" lengthAdjust="spacing" textLength="93.9961" x="311.0051" y="1226.2578">(PDF, DWG, etc.)</text><rect fill="#F1F1F1" height="35.0938" rx="12.5" ry="12.5" style="stroke:#181818;stroke-width:0.5;" width="153.2305" x="281.3879" y="1258.8945"/><text fill="#000000" font-family="sans-serif" font-size="12" lengthAdjust="spacing" textLength="133.2305" x="291.3879" y="1281.3516">Clic "Terminer demande"</text><rect fill="#F1F1F1" height="50.1875" rx="12.5" ry="12.5" style="stroke:#181818;stroke-width:0.5;" width="128.7383" x="293.634" y="1313.9883"/><text fill="#000000" font-family="sans-serif" font-size="12" lengthAdjust="spacing" textLength="108.7383" x="303.634" y="1336.4453">Chrono automatique</text><text fill="#000000" font-family="sans-serif" font-size="12" lengthAdjust="spacing" textLength="12.6738" x="303.634" y="1351.5391">fin</text><path d="M448.3665,1379.7422 L448.3665,1405.2695 L428.3665,1409.2695 L448.3665,1413.2695 L448.3665,1438.7969 A0,0 0 0 0 448.3665,1438.7969 L685.009,1438.7969 A0,0 0 0 0 685.009,1438.7969 L685.009,1389.7422 L675.009,1379.7422 L448.3665,1379.7422 A0,0 0 0 0 448.3665,1379.7422 " fill="#FEFFDD" style="stroke:#181818;stroke-width:0.5;"/><path d="M675.009,1379.7422 L675.009,1389.7422 L685.009,1389.7422 L675.009,1379.7422 " fill="#FEFFDD" style="stroke:#181818;stroke-width:0.5;"/><text fill="#000000" font-family="sans-serif" font-size="13" lengthAdjust="spacing" textLength="215.6426" x="454.3665" y="1398.2373">"Votre demande #12345 est terminee</text><text fill="#000000" font-family="sans-serif" font-size="13" lengthAdjust="spacing" textLength="186.4116" x="454.3665" y="1414.5889">Livrables disponibles (PDF joint)</text><text fill="#000000" font-family="sans-serif" font-size="13" lengthAdjust="spacing" textLength="115.1846" x="454.3665" y="1430.9404">Duree reelle : 2h15"</text><rect fill="#F1F1F1" height="50.1875" rx="12.5" ry="12.5" style="stroke:#181818;stroke-width:0.5;" width="140.7266" x="287.6399" y="1384.1758"/><text fill="#000000" font-family="sans-serif" font-size="12" lengthAdjust="spacing" textLength="82.0371" x="297.6399" y="1406.6328">Systeme notifie</text><text fill="#000000" font-family="sans-serif" font-size="12" lengthAdjust="spacing" textLength="120.7266" x="297.6399" y="1421.7266">demandeur (mail auto)</text><rect fill="#F1F1F1" height="50.1875" rx="12.5" ry="12.5" style="stroke:#181818;stroke-width:0.5;" width="109.3906" x="303.3079" y="1458.7969"/><text fill="#000000" font-family="sans-serif" font-size="12" lengthAdjust="spacing" textLength="89.3906" x="313.3079" y="1481.2539">Demandeur note</text><text fill="#000000" font-family="sans-serif" font-size="12" lengthAdjust="spacing" textLength="88.6992" x="313.3079" y="1496.3477">satisfaction (1-5)</text><rect fill="#F1F1F1" height="50.1875" rx="12.5" ry="12.5" style="stroke:#181818;stroke-width:0.5;" width="120.043" x="297.9817" y="1528.9844"/><text fill="#000000" font-family="sans-serif" font-size="12" lengthAdjust="spacing" textLength="100.043" x="307.9817" y="1551.4414">Ticket passe statut</text><text fill="#000000" font-family="sans-serif" font-size="12" lengthAdjust="spacing" textLength="45.873" x="307.9817" y="1566.5352">"Closed"</text><rect fill="#F1F1F1" height="50.1875" rx="12.5" ry="12.5" style="stroke:#181818;stroke-width:0.5;" width="175.3965" x="270.3049" y="1599.1719"/><text fill="#000000" font-family="sans-serif" font-size="12" lengthAdjust="spacing" textLength="89.3672" x="280.3049" y="1621.6289">Statistiques MAJ</text><text fill="#000000" font-family="sans-serif" font-size="12" lengthAdjust="spacing" textLength="155.3965" x="280.3049" y="1636.7227">(productivite BE, satisfaction)</text><ellipse cx="358.0032" cy="1680.3594" fill="none" rx="11" ry="11" style="stroke:#222222;stroke-width:1;"/><ellipse cx="358.0032" cy="1680.3594" fill="#222222" rx="6" ry="6" style="stroke:#222222;stroke-width:1;"/><line style="stroke:#181818;stroke-width:1;" x1="358.0032" x2="358.0032" y1="68.6094" y2="107.5703"/><polygon fill="#181818" points="354.0032,97.5703,358.0032,107.5703,362.0032,97.5703,358.0032,101.5703" style="stroke:#181818;stroke-width:1;"/><line style="stroke:#181818;stroke-width:1;" x1="358.0032" x2="358.0032" y1="157.7578" y2="206.7188"/><polygon fill="#181818" points="354.0032,196.7188,358.0032,206.7188,362.0032,196.7188,358.0032,200.7188" style="stroke:#181818;stroke-width:1;"/><line style="stroke:#181818;stroke-width:1;" x1="358.0032" x2="358.0032" y1="256.9063" y2="304.043"/><polygon fill="#181818" points="354.0032,294.043,358.0032,304.043,362.0032,294.043,358.0032,298.043" style="stroke:#181818;stroke-width:1;"/><line style="stroke:#181818;stroke-width:1;" x1="358.0032" x2="358.0032" y1="354.2305" y2="411.3672"/><polygon fill="#181818" points="354.0032,401.3672,358.0032,411.3672,362.0032,401.3672,358.0032,405.3672" style="stroke:#181818;stroke-width:1;"/><line style="stroke:#181818;stroke-width:1;" x1="358.0032" x2="358.0032" y1="461.5547" y2="481.5547"/><polygon fill="#181818" points="354.0032,471.5547,358.0032,481.5547,362.0032,471.5547,358.0032,475.5547" style="stroke:#181818;stroke-width:1;"/><line style="stroke:#181818;stroke-width:1;" x1="246.6487" x2="246.6487" y1="632.3633" y2="652.3633"/><polygon fill="#181818" points="242.6487,642.3633,246.6487,652.3633,250.6487,642.3633,246.6487,646.3633" style="stroke:#181818;stroke-width:1;"/><line style="stroke:#181818;stroke-width:1;" x1="173.1926" x2="92.0332" y1="734.5508" y2="734.5508"/><line style="stroke:#181818;stroke-width:1;" x1="92.0332" x2="92.0332" y1="734.5508" y2="769.1602"/><polygon fill="#181818" points="88.0332,759.1602,92.0332,769.1602,96.0332,759.1602,92.0332,763.1602" style="stroke:#181818;stroke-width:1;"/><line style="stroke:#181818;stroke-width:1;" x1="320.1047" x2="401.2642" y1="734.5508" y2="734.5508"/><line style="stroke:#181818;stroke-width:1;" x1="401.2642" x2="401.2642" y1="734.5508" y2="760.9844"/><polygon fill="#181818" points="397.2642,750.9844,401.2642,760.9844,405.2642,750.9844,401.2642,754.9844" style="stroke:#181818;stroke-width:1;"/><line style="stroke:#181818;stroke-width:1;" x1="92.0332" x2="92.0332" y1="819.3477" y2="849.957"/><line style="stroke:#181818;stroke-width:1;" x1="92.0332" x2="234.6487" y1="849.957" y2="849.957"/><polygon fill="#181818" points="224.6487,845.957,234.6487,849.957,224.6487,853.957,228.6487,849.957" style="stroke:#181818;stroke-width:1;"/><line style="stroke:#181818;stroke-width:1;" x1="401.2642" x2="401.2642" y1="811.1719" y2="849.957"/><line style="stroke:#181818;stroke-width:1;" x1="401.2642" x2="258.6487" y1="849.957" y2="849.957"/><polygon fill="#181818" points="268.6487,845.957,258.6487,849.957,268.6487,853.957,264.6487,849.957" style="stroke:#181818;stroke-width:1;"/><line style="stroke:#181818;stroke-width:1;" x1="246.6487" x2="246.6487" y1="702.5508" y2="722.5508"/><polygon fill="#181818" points="242.6487,712.5508,246.6487,722.5508,250.6487,712.5508,246.6487,716.5508" style="stroke:#181818;stroke-width:1;"/><line style="stroke:#181818;stroke-width:1;" x1="246.6487" x2="246.6487" y1="562.1758" y2="582.1758"/><polygon fill="#181818" points="242.6487,572.1758,246.6487,582.1758,250.6487,572.1758,246.6487,576.1758" style="stroke:#181818;stroke-width:1;"/><line style="stroke:#181818;stroke-width:1;" x1="246.6487" x2="246.6487" y1="861.957" y2="881.957"/><polygon fill="#181818" points="242.6487,871.957,246.6487,881.957,250.6487,871.957,246.6487,875.957" style="stroke:#181818;stroke-width:1;"/><line style="stroke:#181818;stroke-width:1;" x1="358.0032" x2="358.0032" y1="531.7422" y2="556.1758"/><polygon fill="#181818" points="354.0032,546.1758,358.0032,556.1758,362.0032,546.1758,358.0032,550.1758" style="stroke:#181818;stroke-width:1;"/><line style="stroke:#181818;stroke-width:1;" x1="358.0032" x2="358.0032" y1="887.957" y2="907.957"/><polygon fill="#181818" points="354.0032,897.957,358.0032,907.957,362.0032,897.957,358.0032,901.957" style="stroke:#181818;stroke-width:1;"/><line style="stroke:#181818;stroke-width:1;" x1="358.0032" x2="358.0032" y1="958.1445" y2="978.1445"/><polygon fill="#181818" points="354.0032,968.1445,358.0032,978.1445,362.0032,968.1445,358.0032,972.1445" style="stroke:#181818;stroke-width:1;"/><line style="stroke:#181818;stroke-width:1;" x1="358.0032" x2="358.0032" y1="1028.332" y2="1048.332"/><polygon fill="#181818" points="354.0032,1038.332,358.0032,1048.332,362.0032,1038.332,358.0032,1042.332" style="stroke:#181818;stroke-width:1;"/><line style="stroke:#181818;stroke-width:1;" x1="358.0032" x2="358.0032" y1="1098.5195" y2="1118.5195"/><polygon fill="#181818" points="354.0032,1108.5195,358.0032,1118.5195,362.0032,1108.5195,358.0032,1112.5195" style="stroke:#181818;stroke-width:1;"/><line style="stroke:#181818;stroke-width:1;" x1="358.0032" x2="358.0032" y1="1168.707" y2="1188.707"/><polygon fill="#181818" points="354.0032,1178.707,358.0032,1188.707,362.0032,1178.707,358.0032,1182.707" style="stroke:#181818;stroke-width:1;"/><line style="stroke:#181818;stroke-width:1;" x1="358.0032" x2="358.0032" y1="1238.8945" y2="1258.8945"/><polygon fill="#181818" points="354.0032,1248.8945,358.0032,1258.8945,362.0032,1248.8945,358.0032,1252.8945" style="stroke:#181818;stroke-width:1;"/><line style="stroke:#181818;stroke-width:1;" x1="358.0032" x2="358.0032" y1="1293.9883" y2="1313.9883"/><polygon fill="#181818" points="354.0032,1303.9883,358.0032,1313.9883,362.0032,1303.9883,358.0032,1307.9883" style="stroke:#181818;stroke-width:1;"/><line style="stroke:#181818;stroke-width:1;" x1="358.0032" x2="358.0032" y1="1364.1758" y2="1384.1758"/><polygon fill="#181818" points="354.0032,1374.1758,358.0032,1384.1758,362.0032,1374.1758,358.0032,1378.1758" style="stroke:#181818;stroke-width:1;"/><line style="stroke:#181818;stroke-width:1;" x1="358.0032" x2="358.0032" y1="1434.3633" y2="1458.7969"/><polygon fill="#181818" points="354.0032,1448.7969,358.0032,1458.7969,362.0032,1448.7969,358.0032,1452.7969" style="stroke:#181818;stroke-width:1;"/><line style="stroke:#181818;stroke-width:1;" x1="358.0032" x2="358.0032" y1="1508.9844" y2="1528.9844"/><polygon fill="#181818" points="354.0032,1518.9844,358.0032,1528.9844,362.0032,1518.9844,358.0032,1522.9844" style="stroke:#181818;stroke-width:1;"/><line style="stroke:#181818;stroke-width:1;" x1="358.0032" x2="358.0032" y1="1579.1719" y2="1599.1719"/><polygon fill="#181818" points="354.0032,1589.1719,358.0032,1599.1719,362.0032,1589.1719,358.0032,1593.1719" style="stroke:#181818;stroke-width:1;"/><line style="stroke:#181818;stroke-width:1;" x1="358.0032" x2="358.0032" y1="1649.3594" y2="1669.3594"/><polygon fill="#181818" points="354.0032,1659.3594,358.0032,1669.3594,362.0032,1659.3594,358.0032,1663.3594" style="stroke:#181818;stroke-width:1;"/><!--SRC=[ZLLHZzis37xtho3I5nlBDSXjjmqv54MQz8OLxJOqMVkI5vrCdzcJ9K-KClJVZv8T9tT3WGO8O5CazV7ZHpfGC0YVdNziZFiNTbyvO8Um9_s8WU5DzAWYl0snHYuA3ig7ebXjiLEsnkYX_BYUmwR5PWvRygW3ELiThCUkDnIWSRwBHia9r4FCRM5TGF3qq8O2uExi8CbjhNnDZB2IeolOV-qHCDqD9UjM4Ynwe-n2AwEZgRBFfbKs47hGpchq5hDrYwesP2MfYwsYW7XozW-IaWDrA4btYm-BzqEUEzAjf67uuiW6Bj3Ma91AjITIj9UOa9avM7L43Rzl8Lhw9qfLnMfj7fodq2RF310FbhMJodfFwUHvxRjy-0gQKbu0FZepiHJzFDjETGnlcpMefaba3UzhgmcjnJ35ZNvFoXHJTLdEq5iWo-W5OaDohGe1hQGfWoV1gpnavDNjHVaIJWr9H7tkVgV8LC_AcdrouTnlUB6y_l6dcmG6j57Cmk6BNyHjxrDVEhbs10ehU8Un9hXUBfRBYPyJUNByyw_G1vvT52FwUXJFrRvrdUAa0Ouc98oAstidQXeRnbA9-7ro8igzw-5coii7MpfVoqrA6bXbFsgWtAXUwNJlcxSWckoTfNjXwdK5eKKBvP-HgipsH90KHm-YEHM3EzZXNb12XDYj2aBORGvumbRkOmxCL30QPxFyqqyKwxfU-YlIvhDjQA_I8Q8nEDct8qgIoHki4r7oQ6IioZya-HNiejSvnrZ0g0WlVH3Ls9CQX9WZSQuwkCZLDz1B8osBP1B82Vcq8HYEZb9blMDAsm6Iu4Ql7q14mCwUzSTFeLqMO6jgXewdvxo59cApsdoIS_3gAAA4KXlICDiETZ_BKjwqtbcN6zIfa0OtgVa-XjjdwSOiQOJBpecA6wSZpuSPOBWtJcAHg__5eUzaN0ysRwrq-dTldAh1qD4hOJAfxQ_jdMpBpx_DPRVfbmEm37O_HFlJxCo-XRaX-psJcOE-Vpn7y8dizoUu5z9dICY7_PYwiurf7yfVQ9BXl6wNDvUZUV6HI0RPXOAU6vK_4L0khsvovQFs-hGPqYSWH5ckiurnZ7MkVnTIN2wSuSFwdH3OUrT7oNCSndCEbwbJLWwkB_u3]--></g></svg>