<svg xmlns="http://www.w3.org/2000/svg" xmlns:xlink="http://www.w3.org/1999/xlink" contentStyleType="text/css" height="1594px" preserveAspectRatio="none" style="width:946px;height:1594px;background:#FFFFFF;" version="1.1" viewBox="0 0 946 1594" width="946px" zoomAndPan="magnify"><title>Machine Etats Affaire (Cycle de Vie)</title><defs/><g><text fill="#000000" font-family="sans-serif" font-size="14" font-weight="bold" lengthAdjust="spacing" textLength="238.0752" x="347.2532" y="24.5332">Machine Etats Affaire (Cycle de Vie)</text><ellipse cx="755.36" cy="54.6094" fill="#222222" rx="10" ry="10" style="stroke:#222222;stroke-width:1;"/><g id="Devis_Brouillon"><rect fill="#F1F1F1" height="67.7969" rx="12.5" ry="12.5" style="stroke:#181818;stroke-width:0.5;" width="175.4141" x="667.86" y="125.6094"/><line style="stroke:#181818;stroke-width:0.5;" x1="667.86" x2="843.2741" y1="153.2188" y2="153.2188"/><text fill="#000000" font-family="sans-serif" font-size="14" lengthAdjust="spacing" textLength="97.2686" x="706.9328" y="145.1426">Devis_Brouillon</text><text fill="#000000" font-family="sans-serif" font-size="12" lengthAdjust="spacing" textLength="103.3711" x="672.86" y="170.6758">entry / Cree par RA</text><text fill="#000000" font-family="sans-serif" font-size="12" lengthAdjust="spacing" textLength="155.4141" x="672.86" y="185.7695">do / Chiffrage, saisie produits</text></g><g id="Devis_Envoye"><rect fill="#F1F1F1" height="67.7969" rx="12.5" ry="12.5" style="stroke:#181818;stroke-width:0.5;" width="159.4238" x="675.86" y="271.6094"/><line style="stroke:#181818;stroke-width:0.5;" x1="675.86" x2="835.2838" y1="299.2188" y2="299.2188"/><text fill="#000000" font-family="sans-serif" font-size="14" lengthAdjust="spacing" textLength="89.4893" x="710.8273" y="291.1426">Devis_Envoye</text><text fill="#000000" font-family="sans-serif" font-size="12" lengthAdjust="spacing" textLength="116.7188" x="680.86" y="316.6758">entry / Mail auto client</text><text fill="#000000" font-family="sans-serif" font-size="12" lengthAdjust="spacing" textLength="139.4238" x="680.86" y="331.7695">do / Attente reponse client</text></g><g id="Devis_Accepte"><rect fill="#F1F1F1" height="67.7969" rx="12.5" ry="12.5" style="stroke:#181818;stroke-width:0.5;" width="206.7793" x="452.86" y="417.6094"/><line style="stroke:#181818;stroke-width:0.5;" x1="452.86" x2="659.6393" y1="445.2188" y2="445.2188"/><text fill="#000000" font-family="sans-serif" font-size="14" lengthAdjust="spacing" textLength="93.3789" x="509.5602" y="437.1426">Devis_Accepte</text><text fill="#000000" font-family="sans-serif" font-size="12" lengthAdjust="spacing" textLength="145.4121" x="457.86" y="462.6758">entry / Creation affaire auto</text><text fill="#000000" font-family="sans-serif" font-size="12" lengthAdjust="spacing" textLength="186.7793" x="457.86" y="477.7695">entry / Budget comptable auto cree</text></g><g id="Devis_Refuse"><rect fill="#F1F1F1" height="50" rx="12.5" ry="12.5" style="stroke:#181818;stroke-width:0.5;" width="107.1514" x="726.86" y="693.6094"/><line style="stroke:#181818;stroke-width:0.5;" x1="726.86" x2="834.0114" y1="721.2188" y2="721.2188"/><text fill="#000000" font-family="sans-serif" font-size="14" lengthAdjust="spacing" textLength="87.1514" x="736.86" y="713.1426">Devis_Refuse</text></g><g id="Devis_Perdu"><rect fill="#F1F1F1" height="50" rx="12.5" ry="12.5" style="stroke:#181818;stroke-width:0.5;" width="100.1514" x="832.36" y="515.6094"/><line style="stroke:#181818;stroke-width:0.5;" x1="832.36" x2="932.5114" y1="543.2188" y2="543.2188"/><text fill="#000000" font-family="sans-serif" font-size="14" lengthAdjust="spacing" textLength="80.1514" x="842.36" y="535.1426">Devis_Perdu</text></g><ellipse cx="686.36" cy="1577.6094" fill="none" rx="11" ry="11" style="stroke:#222222;stroke-width:1;"/><ellipse cx="686.36" cy="1577.6094" fill="#222222" rx="6" ry="6" style="stroke:#222222;stroke-width:1;"/><g id="Affaire_Planifiee"><rect fill="#F1F1F1" height="67.7969" rx="12.5" ry="12.5" style="stroke:#181818;stroke-width:0.5;" width="206.0996" x="303.36" y="595.6094"/><line style="stroke:#181818;stroke-width:0.5;" x1="303.36" x2="509.4596" y1="623.2188" y2="623.2188"/><text fill="#000000" font-family="sans-serif" font-size="14" lengthAdjust="spacing" textLength="101.9512" x="355.4342" y="615.1426">Affaire_Planifiee</text><text fill="#000000" font-family="sans-serif" font-size="12" lengthAdjust="spacing" textLength="152.748" x="308.36" y="640.6758">entry / Chef chantier assigne</text><text fill="#000000" font-family="sans-serif" font-size="12" lengthAdjust="spacing" textLength="186.0996" x="308.36" y="655.7695">do / Planification dates, ressources</text></g><g id="Affaire_EnCours"><rect fill="#F1F1F1" height="82.8906" rx="12.5" ry="12.5" style="stroke:#181818;stroke-width:0.5;" width="164.0879" x="97.36" y="778.1094"/><line style="stroke:#181818;stroke-width:0.5;" x1="97.36" x2="261.4479" y1="805.7188" y2="805.7188"/><text fill="#000000" font-family="sans-serif" font-size="14" lengthAdjust="spacing" textLength="102.7168" x="128.0455" y="797.6426">Affaire_EnCours</text><text fill="#000000" font-family="sans-serif" font-size="12" lengthAdjust="spacing" textLength="138.0527" x="102.36" y="823.1758">entry / Travaux demarrent</text><text fill="#000000" font-family="sans-serif" font-size="12" lengthAdjust="spacing" textLength="131.4082" x="102.36" y="838.2695">do / Suivi heures, achats</text><text fill="#000000" font-family="sans-serif" font-size="12" lengthAdjust="spacing" textLength="144.0879" x="102.36" y="853.3633">do / Consommation budget</text></g><g id="Affaire_Suspendue"><rect fill="#F1F1F1" height="67.7969" rx="12.5" ry="12.5" style="stroke:#181818;stroke-width:0.5;" width="139.0889" x="88.86" y="951.1094"/><line style="stroke:#181818;stroke-width:0.5;" x1="88.86" x2="227.9489" y1="978.7188" y2="978.7188"/><text fill="#000000" font-family="sans-serif" font-size="14" lengthAdjust="spacing" textLength="119.0889" x="98.86" y="970.6426">Affaire_Suspendue</text><text fill="#000000" font-family="sans-serif" font-size="12" lengthAdjust="spacing" textLength="116.7188" x="93.86" y="996.1758">entry / Alerte direction</text><text fill="#000000" font-family="sans-serif" font-size="12" lengthAdjust="spacing" textLength="116.7422" x="93.86" y="1011.2695">do / Attente resolution</text></g><g id="Affaire_Terminee"><rect fill="#F1F1F1" height="82.8906" rx="12.5" ry="12.5" style="stroke:#181818;stroke-width:0.5;" width="149.375" x="262.86" y="943.6094"/><line style="stroke:#181818;stroke-width:0.5;" x1="262.86" x2="412.235" y1="971.2188" y2="971.2188"/><text fill="#000000" font-family="sans-serif" font-size="14" lengthAdjust="spacing" textLength="107.3789" x="283.858" y="963.1426">Affaire_Terminee</text><text fill="#000000" font-family="sans-serif" font-size="12" lengthAdjust="spacing" textLength="129.375" x="267.86" y="988.6758">entry / Travaux termines</text><text fill="#000000" font-family="sans-serif" font-size="12" lengthAdjust="spacing" textLength="105.3926" x="267.86" y="1003.7695">do / Levee reserves</text><text fill="#000000" font-family="sans-serif" font-size="12" lengthAdjust="spacing" textLength="126.0645" x="267.86" y="1018.8633">do / Calcul marge finale</text></g><g id="Affaire_Annulee"><rect fill="#F1F1F1" height="50" rx="12.5" ry="12.5" style="stroke:#181818;stroke-width:0.5;" width="119.627" x="113.36" y="1202.6094"/><line style="stroke:#181818;stroke-width:0.5;" x1="113.36" x2="232.987" y1="1230.2188" y2="1230.2188"/><text fill="#000000" font-family="sans-serif" font-size="14" lengthAdjust="spacing" textLength="99.627" x="123.36" y="1222.1426">Affaire_Annulee</text></g><g id="Affaire_Facturee"><rect fill="#F1F1F1" height="67.7969" rx="12.5" ry="12.5" style="stroke:#181818;stroke-width:0.5;" width="177.4121" x="248.86" y="1104.6094"/><line style="stroke:#181818;stroke-width:0.5;" x1="248.86" x2="426.2721" y1="1132.2188" y2="1132.2188"/><text fill="#000000" font-family="sans-serif" font-size="14" lengthAdjust="spacing" textLength="103.4961" x="285.818" y="1124.1426">Affaire_Facturee</text><text fill="#000000" font-family="sans-serif" font-size="12" lengthAdjust="spacing" textLength="157.4121" x="253.86" y="1149.6758">entry / Facture envoyee client</text><text fill="#000000" font-family="sans-serif" font-size="12" lengthAdjust="spacing" textLength="114.0762" x="253.86" y="1164.7695">do / Attente paiement</text></g><g id="Affaire_Payee"><rect fill="#F1F1F1" height="82.8906" rx="12.5" ry="12.5" style="stroke:#181818;stroke-width:0.5;" width="186.0664" x="229.36" y="1418.1094"/><line style="stroke:#181818;stroke-width:0.5;" x1="229.36" x2="415.4264" y1="1445.7188" y2="1445.7188"/><text fill="#000000" font-family="sans-serif" font-size="14" lengthAdjust="spacing" textLength="87.9443" x="278.421" y="1437.6426">Affaire_Payee</text><text fill="#000000" font-family="sans-serif" font-size="12" lengthAdjust="spacing" textLength="123.3809" x="234.36" y="1463.1758">entry / CA comptabilise</text><text fill="#000000" font-family="sans-serif" font-size="12" lengthAdjust="spacing" textLength="158.0684" x="234.36" y="1478.2695">entry / Calcul marge definitive</text><text fill="#000000" font-family="sans-serif" font-size="12" lengthAdjust="spacing" textLength="166.0664" x="234.36" y="1493.3633">entry / REX (retour experience)</text></g><g id="Affaire_Impayee"><rect fill="#F1F1F1" height="52.7031" rx="12.5" ry="12.5" style="stroke:#181818;stroke-width:0.5;" width="152.7383" x="442.86" y="1282.6094"/><line style="stroke:#181818;stroke-width:0.5;" x1="442.86" x2="595.5983" y1="1310.2188" y2="1310.2188"/><text fill="#000000" font-family="sans-serif" font-size="14" lengthAdjust="spacing" textLength="101.9443" x="468.257" y="1302.1426">Affaire_Impayee</text><text fill="#000000" font-family="sans-serif" font-size="12" lengthAdjust="spacing" textLength="132.7383" x="447.86" y="1327.6758">entry / Alerte contentieux</text></g><g id="Affaire_Contentieux"><rect fill="#F1F1F1" height="50" rx="12.5" ry="12.5" style="stroke:#181818;stroke-width:0.5;" width="142.9648" x="614.86" y="1434.6094"/><line style="stroke:#181818;stroke-width:0.5;" x1="614.86" x2="757.8248" y1="1462.2188" y2="1462.2188"/><text fill="#000000" font-family="sans-serif" font-size="14" lengthAdjust="spacing" textLength="122.9648" x="624.86" y="1454.1426">Affaire_Contentieux</text></g><g id="elem_GMN2"><path d="M530.86,773.6094 L530.86,815.6094 L261.56,819.6094 L530.86,823.6094 L530.86,865.3672 A0,0 0 0 0 530.86,865.3672 L758.1652,865.3672 A0,0 0 0 0 758.1652,865.3672 L758.1652,783.6094 L748.1652,773.6094 L530.86,773.6094 A0,0 0 0 0 530.86,773.6094 " fill="#FEFFDD" style="stroke:#181818;stroke-width:0.5;"/><path d="M748.1652,773.6094 L748.1652,783.6094 L758.1652,783.6094 L748.1652,773.6094 " fill="#FEFFDD" style="stroke:#181818;stroke-width:0.5;"/><text fill="#000000" font-family="sans-serif" font-size="13" lengthAdjust="spacing" textLength="149.5762" x="536.86" y="792.1045">Anomalies detectees ML :</text><text fill="#000000" font-family="sans-serif" font-size="13" lengthAdjust="spacing" textLength="206.3052" x="536.86" y="808.4561">- Budget consomme &gt;80% (orange)</text><text fill="#000000" font-family="sans-serif" font-size="13" lengthAdjust="spacing" textLength="206.3052" x="536.86" y="824.8076">- Budget consomme &gt;100% (rouge)</text><text fill="#000000" font-family="sans-serif" font-size="13" lengthAdjust="spacing" textLength="196.5298" x="536.86" y="841.1592">- Vitesse consommation anormale</text><text fill="#000000" font-family="sans-serif" font-size="13" lengthAdjust="spacing" textLength="175.7603" x="536.86" y="857.5107">&#226;&#8224;&#8217; Alertes auto RA + Direction</text></g><g id="elem_GMN5"><path d="M450.86,1413.6094 L450.86,1455.6094 L415.47,1459.6094 L450.86,1463.6094 L450.86,1505.3672 A0,0 0 0 0 450.86,1505.3672 L579.5289,1505.3672 A0,0 0 0 0 579.5289,1505.3672 L579.5289,1423.6094 L569.5289,1413.6094 L450.86,1413.6094 A0,0 0 0 0 450.86,1413.6094 " fill="#FEFFDD" style="stroke:#181818;stroke-width:0.5;"/><path d="M569.5289,1413.6094 L569.5289,1423.6094 L579.5289,1423.6094 L569.5289,1413.6094 " fill="#FEFFDD" style="stroke:#181818;stroke-width:0.5;"/><text fill="#000000" font-family="sans-serif" font-size="13" lengthAdjust="spacing" textLength="107.6689" x="456.86" y="1432.1045">KPI calcules auto :</text><text fill="#000000" font-family="sans-serif" font-size="13" lengthAdjust="spacing" textLength="67.9072" x="456.86" y="1448.4561">- CA realise</text><text fill="#000000" font-family="sans-serif" font-size="13" lengthAdjust="spacing" textLength="78.0317" x="456.86" y="1464.8076">- Marge brute</text><text fill="#000000" font-family="sans-serif" font-size="13" lengthAdjust="spacing" textLength="92.4727" x="456.86" y="1481.1592">- Taux marge %</text><text fill="#000000" font-family="sans-serif" font-size="13" lengthAdjust="spacing" textLength="70.7954" x="456.86" y="1497.5107">- ROI affaire</text></g><!--link *start* to Devis_Brouillon--><g id="link_*start*_Devis_Brouillon"><path d="M755.36,64.7494 C755.36,78.2394 755.36,98.1694 755.36,119.3694 " fill="none" id="*start*-to-Devis_Brouillon" style="stroke:#181818;stroke-width:1;"/><polygon fill="#181818" points="755.36,125.3694,759.36,116.3694,755.36,120.3694,751.36,116.3694,755.36,125.3694" style="stroke:#181818;stroke-width:1;"/></g><!--link Devis_Brouillon to Devis_Envoye--><g id="link_Devis_Brouillon_Devis_Envoye"><path d="M755.36,193.6494 C755.36,216.8994 755.36,241.8994 755.36,265.2294 " fill="none" id="Devis_Brouillon-to-Devis_Envoye" style="stroke:#181818;stroke-width:1;"/><polygon fill="#181818" points="755.36,271.2294,759.36,262.2294,755.36,266.2294,751.36,262.2294,755.36,271.2294" style="stroke:#181818;stroke-width:1;"/><text fill="#000000" font-family="sans-serif" font-size="13" lengthAdjust="spacing" textLength="142.7207" x="756.36" y="238.1045">RA valide + envoie client</text></g><!--link Devis_Envoye to Devis_Accepte--><g id="link_Devis_Envoye_Devis_Accepte"><path d="M692.21,339.6394 C676.48,348.7094 659.95,358.9894 645.36,369.6094 C625.77,383.8694 610.0023,397.6988 593.8623,413.0888 " fill="none" id="Devis_Envoye-to-Devis_Accepte" style="stroke:#181818;stroke-width:1;"/><polygon fill="#181818" points="589.52,417.2294,598.7939,413.9134,593.1386,413.7789,593.2731,408.1237,589.52,417.2294" style="stroke:#181818;stroke-width:1;"/><text fill="#000000" font-family="sans-serif" font-size="13" lengthAdjust="spacing" textLength="82.3799" x="646.36" y="384.1045">Client accepte</text></g><!--link Devis_Envoye to Devis_Refuse--><g id="link_Devis_Envoye_Devis_Refuse"><path d="M754.3,339.6294 C753.4,375.5694 752.63,434.7194 755.36,485.6094 C759.45,561.6594 770.1955,645.1863 776.0455,687.3563 " fill="none" id="Devis_Envoye-to-Devis_Refuse" style="stroke:#181818;stroke-width:1;"/><polygon fill="#181818" points="776.87,693.2994,779.5954,683.8351,776.183,688.3468,771.6713,684.9344,776.87,693.2994" style="stroke:#181818;stroke-width:1;"/><text fill="#000000" font-family="sans-serif" font-size="13" lengthAdjust="spacing" textLength="72.979" x="756.36" y="457.1045">Client refuse</text></g><!--link Devis_Envoye to Devis_Perdu--><g id="link_Devis_Envoye_Devis_Perdu"><path d="M783.87,339.9194 C801.01,361.1394 822.35,389.7794 837.36,417.6094 C854.73,449.7994 866.4322,484.3476 873.9322,509.6076 " fill="none" id="Devis_Envoye-to-Devis_Perdu" style="stroke:#181818;stroke-width:1;"/><polygon fill="#181818" points="875.64,515.3594,876.9129,505.5931,874.2168,510.5662,869.2438,507.8702,875.64,515.3594" style="stroke:#181818;stroke-width:1;"/><text fill="#000000" font-family="sans-serif" font-size="13" lengthAdjust="spacing" textLength="119.2217" x="819.36" y="384.1045">Delai expiration (30j)</text></g><!--link Devis_Refuse to *end*--><g id="link_Devis_Refuse_*end*"><path d="M787.09,743.7994 C796.21,778.7694 811.36,845.6194 811.36,903.6094 C811.36,903.6094 811.36,903.6094 811.36,1460.6094 C811.36,1523.0794 732.0466,1559.2065 702.1866,1570.7465 " fill="none" id="Devis_Refuse-to-*end*" style="stroke:#181818;stroke-width:1;"/><polygon fill="#181818" points="696.59,1572.9094,706.4268,1573.3961,701.2538,1571.1069,703.5429,1565.9339,696.59,1572.9094" style="stroke:#181818;stroke-width:1;"/></g><!--link Devis_Perdu to *end*--><g id="link_Devis_Perdu_*end*"><path d="M882.36,565.8094 C882.36,599.7394 882.36,663.3694 882.36,717.6094 C882.36,717.6094 882.36,717.6094 882.36,1460.6094 C882.36,1547.3994 744.2285,1569.9346 703.1385,1574.7946 " fill="none" id="Devis_Perdu-to-*end*" style="stroke:#181818;stroke-width:1;"/><polygon fill="#181818" points="697.18,1575.4994,706.5875,1578.4146,702.1454,1574.9121,705.6479,1570.4699,697.18,1575.4994" style="stroke:#181818;stroke-width:1;"/></g><!--link Devis_Accepte to Affaire_Planifiee--><g id="link_Devis_Accepte_Affaire_Planifiee"><path d="M528.15,485.7094 C501.42,517.0794 465.3712,559.3723 438.6012,590.7923 " fill="none" id="Devis_Accepte-to-Affaire_Planifiee" style="stroke:#181818;stroke-width:1;"/><polygon fill="#181818" points="434.71,595.3594,443.5915,591.1028,437.9527,591.5534,437.5021,585.9146,434.71,595.3594" style="stroke:#181818;stroke-width:1;"/><text fill="#000000" font-family="sans-serif" font-size="13" lengthAdjust="spacing" textLength="144.5234" x="499.36" y="546.1045">RA assigne chef chantier</text></g><!--link Affaire_Planifiee to Affaire_EnCours--><g id="link_Affaire_Planifiee_Affaire_EnCours"><path d="M366.3,663.7894 C327.86,695.6194 274.3509,739.9422 233.1309,774.0822 " fill="none" id="Affaire_Planifiee-to-Affaire_EnCours" style="stroke:#181818;stroke-width:1;"/><polygon fill="#181818" points="228.51,777.9094,237.9928,775.2492,232.3607,774.72,232.8899,769.088,228.51,777.9094" style="stroke:#181818;stroke-width:1;"/><text fill="#000000" font-family="sans-serif" font-size="13" lengthAdjust="spacing" textLength="109.8589" x="327.36" y="724.1045">Date debut atteinte</text></g><!--link Affaire_EnCours to Affaire_EnCours--><g id="link_Affaire_EnCours_Affaire_EnCours"><path d="M261.37,811.8594 C281.43,812.4294 296.36,815.0194 296.36,819.6094 C296.36,824.1994 287.4276,826.619 267.3676,827.189 " fill="none" id="Affaire_EnCours-to-Affaire_EnCours" style="stroke:#181818;stroke-width:1;"/><polygon fill="#181818" points="261.37,827.3594,270.48,831.1021,266.368,827.2174,270.2528,823.1054,261.37,827.3594" style="stroke:#181818;stroke-width:1;"/><text fill="#000000" font-family="sans-serif" font-size="13" lengthAdjust="spacing" textLength="96.0908" x="302.36" y="825.1045">Achats materiels</text></g><!--link Affaire_EnCours to Affaire_EnCours--><g id="link_Affaire_EnCours_Affaire_EnCours"><path d="M261.58,805.5194 C327.94,801.0094 404.36,805.7094 404.36,819.6094 C404.36,833.5094 333.9262,838.6162 267.5662,834.1062 " fill="none" id="Affaire_EnCours-to-Affaire_EnCours-1" style="stroke:#181818;stroke-width:1;"/><polygon fill="#181818" points="261.58,833.6994,270.2881,838.3004,266.5685,834.0384,270.8305,830.3188,261.58,833.6994" style="stroke:#181818;stroke-width:1;"/><text fill="#000000" font-family="sans-serif" font-size="13" lengthAdjust="spacing" textLength="78.7681" x="410.36" y="825.1045">Saisie heures</text></g><!--link Affaire_EnCours to Affaire_Suspendue--><g id="link_Affaire_EnCours_Affaire_Suspendue"><path d="M97.21,841.5794 C69.86,852.8994 42.33,870.0094 26.36,895.6094 C6,928.2694 41.3642,949.6449 82.9142,964.1249 " fill="none" id="Affaire_EnCours-to-Affaire_Suspendue" style="stroke:#181818;stroke-width:1;"/><polygon fill="#181818" points="88.58,966.0994,81.3976,959.3604,83.8585,964.454,78.765,966.9148,88.58,966.0994" style="stroke:#181818;stroke-width:1;"/><text fill="#000000" font-family="sans-serif" font-size="13" lengthAdjust="spacing" textLength="109.1289" x="27.36" y="910.1045">Probleme bloquant</text></g><!--link Affaire_Suspendue to Affaire_EnCours--><g id="link_Affaire_Suspendue_Affaire_EnCours"><path d="M162.63,950.9294 C165.95,925.0794 169.8051,895.0204 173.3551,867.4004 " fill="none" id="Affaire_Suspendue-to-Affaire_EnCours" style="stroke:#181818;stroke-width:1;"/><polygon fill="#181818" points="174.12,861.4494,169.0053,869.866,173.4826,866.4086,176.94,870.8859,174.12,861.4494" style="stroke:#181818;stroke-width:1;"/><text fill="#000000" font-family="sans-serif" font-size="13" lengthAdjust="spacing" textLength="94.6563" x="171.36" y="910.1045">Probleme resolu</text></g><!--link Affaire_EnCours to Affaire_Terminee--><g id="link_Affaire_EnCours_Affaire_Terminee"><path d="M236.4,861.3394 C249.49,871.8394 262.92,883.5794 274.36,895.6094 C288.14,910.0894 297.9317,922.8008 308.6417,938.5208 " fill="none" id="Affaire_EnCours-to-Affaire_Terminee" style="stroke:#181818;stroke-width:1;"/><polygon fill="#181818" points="312.02,943.4794,310.2583,933.7894,309.2048,939.3472,303.6469,938.2937,312.02,943.4794" style="stroke:#181818;stroke-width:1;"/><text fill="#000000" font-family="sans-serif" font-size="13" lengthAdjust="spacing" textLength="73.6899" x="291.36" y="910.1045">Travaux finis</text></g><!--link Affaire_Suspendue to Affaire_Annulee--><g id="link_Affaire_Suspendue_Affaire_Annulee"><path d="M160.43,1019.2994 C163.5,1068.3894 168.7862,1153.231 171.4862,1196.491 " fill="none" id="Affaire_Suspendue-to-Affaire_Annulee" style="stroke:#181818;stroke-width:1;"/><polygon fill="#181818" points="171.86,1202.4794,175.2916,1193.2477,171.5485,1197.4891,167.3071,1193.746,171.86,1202.4794" style="stroke:#181818;stroke-width:1;"/><text fill="#000000" font-family="sans-serif" font-size="13" lengthAdjust="spacing" textLength="95.3989" x="165.36" y="1071.1045">Annulation client</text></g><!--link Affaire_Terminee to Affaire_Facturee--><g id="link_Affaire_Terminee_Affaire_Facturee"><path d="M337.36,1026.7094 C337.36,1051.0794 337.36,1075.6794 337.36,1098.5594 " fill="none" id="Affaire_Terminee-to-Affaire_Facturee" style="stroke:#181818;stroke-width:1;"/><polygon fill="#181818" points="337.36,1104.5594,341.36,1095.5594,337.36,1099.5594,333.36,1095.5594,337.36,1104.5594" style="stroke:#181818;stroke-width:1;"/><text fill="#000000" font-family="sans-serif" font-size="13" lengthAdjust="spacing" textLength="82.3608" x="338.36" y="1071.1045">Facture emise</text></g><!--link Affaire_Facturee to Affaire_Payee--><g id="link_Affaire_Facturee_Affaire_Payee"><path d="M335.8,1172.8494 C333.03,1231.7294 327.5518,1348.176 324.5518,1411.976 " fill="none" id="Affaire_Facturee-to-Affaire_Payee" style="stroke:#181818;stroke-width:1;"/><polygon fill="#181818" points="324.27,1417.9694,328.6883,1409.1672,324.5049,1412.9749,320.6971,1408.7914,324.27,1417.9694" style="stroke:#181818;stroke-width:1;"/><text fill="#000000" font-family="sans-serif" font-size="13" lengthAdjust="spacing" textLength="83.8208" x="331.36" y="1314.6045">Paiement recu</text></g><!--link Affaire_Facturee to Affaire_Impayee--><g id="link_Affaire_Facturee_Affaire_Impayee"><path d="M373.32,1172.8994 C408.13,1205.1294 455.7471,1249.2133 487.3971,1278.5133 " fill="none" id="Affaire_Facturee-to-Affaire_Impayee" style="stroke:#181818;stroke-width:1;"/><polygon fill="#181818" points="491.8,1282.5894,487.9129,1273.54,488.1309,1279.1927,482.4782,1279.4106,491.8,1282.5894" style="stroke:#181818;stroke-width:1;"/><text fill="#000000" font-family="sans-serif" font-size="13" lengthAdjust="spacing" textLength="58.1763" x="455.36" y="1233.1045">Delai &gt;60j</text></g><!--link Affaire_Payee to *end*--><g id="link_Affaire_Payee_*end*"><path d="M415.65,1499.2994 C421.62,1501.4994 427.56,1503.6294 433.36,1505.6094 C525.74,1537.1894 634.6365,1564.1857 669.7965,1572.6457 " fill="none" id="Affaire_Payee-to-*end*" style="stroke:#181818;stroke-width:1;"/><polygon fill="#181818" points="675.63,1574.0494,667.8155,1568.0549,670.7687,1572.8797,665.944,1575.8329,675.63,1574.0494" style="stroke:#181818;stroke-width:1;"/></g><!--link Affaire_Impayee to Affaire_Payee--><g id="link_Affaire_Impayee_Affaire_Payee"><path d="M485.5,1335.6394 C455.47,1358.2794 415.8713,1388.1277 380.9813,1414.4277 " fill="none" id="Affaire_Impayee-to-Affaire_Payee" style="stroke:#181818;stroke-width:1;"/><polygon fill="#181818" points="376.19,1418.0394,385.7846,1415.8161,380.1827,1415.0297,380.9691,1409.4278,376.19,1418.0394" style="stroke:#181818;stroke-width:1;"/><text fill="#000000" font-family="sans-serif" font-size="13" lengthAdjust="spacing" textLength="116.3335" x="444.36" y="1380.1045">Paiement tardif recu</text></g><!--link Affaire_Impayee to Affaire_Contentieux--><g id="link_Affaire_Impayee_Affaire_Contentieux"><path d="M548.07,1335.6394 C579.22,1363.3394 624.0959,1403.2427 654.6559,1430.4127 " fill="none" id="Affaire_Impayee-to-Affaire_Contentieux" style="stroke:#181818;stroke-width:1;"/><polygon fill="#181818" points="659.14,1434.3994,655.0717,1425.4301,655.4033,1431.0772,649.7562,1431.4088,659.14,1434.3994" style="stroke:#181818;stroke-width:1;"/><text fill="#000000" font-family="sans-serif" font-size="13" lengthAdjust="spacing" textLength="114.8926" x="598.36" y="1380.1045">Procedure judiciaire</text></g><!--link Affaire_Contentieux to *end*--><g id="link_Affaire_Contentieux_*end*"><path d="M686.36,1484.6494 C686.36,1509.8594 686.36,1542.3094 686.36,1560.4494 " fill="none" id="Affaire_Contentieux-to-*end*" style="stroke:#181818;stroke-width:1;"/><polygon fill="#181818" points="686.36,1566.4494,690.36,1557.4494,686.36,1561.4494,682.36,1557.4494,686.36,1566.4494" style="stroke:#181818;stroke-width:1;"/></g><!--link Affaire_Annulee to *end*--><g id="link_Affaire_Annulee_*end*"><path d="M168.23,1252.6594 C158.32,1306.3294 143.13,1436.5494 211.36,1505.6094 C278.9,1573.9694 603.9,1576.8004 669.17,1576.6804 " fill="none" id="Affaire_Annulee-to-*end*" style="stroke:#181818;stroke-width:1;"/><polygon fill="#181818" points="675.17,1576.6694,666.1627,1572.6859,670.17,1576.6786,666.1774,1580.6859,675.17,1576.6694" style="stroke:#181818;stroke-width:1;"/></g><!--SRC=[ZLRBQjn85DthA-ucu3nC70R2a8L1QJjW4fEcRK8WX51Tkkg-fbJLKmzXx_8RsGtpA_Cd-PBSAZsjLdUoQIJLELNddlkezkGLmhMGMz88brvu1tbP2h889ui7oOi5mYV2frdsvTbNE3qzXmkioNrxQqqWfOpEiia7U0EelNs0bx2mYB0J5bRv3Aem4RAbihHYWo_02NB4U6kAGDxjCOR3BtLj7f2tMELG2qMiyJaVMXkcIqLyVAUgHtQIhWKf4C6R3ZZ19L6vzxo4O75djCDPwA0cbn9tFf8N2GUY-N08ly8ok17SflT3w2NQ8Z3u0fKWmFiTMU69xJZvw-pkQHTdksUaSPwoCRNxbatLZhBKx2ZQp4Tx3gBVXcA37gIfTbwi5RPcSgOdb7XkMqlVbafeAWdRd0ddQCC59xTOye_Gdj1csHow5pc6TXlCCb86sm-o2QmG7jqBDjev4wn4DqCSoxtK2yQvw3epkGNMWRFAHK5S5OFE0TQflBMY5k6U6PMmDjRCFZRfkmbK4smns2YC-uyxxn1smJLegge9PPtituFEgy_Jli1Kj8JA_I7jfcd4HjrHparmEzH5YBulhU5og13MolmJX3ukyXPjnJCd4ZlJIjBa1dV7UtV-vWfjJ0YlosZ7B7ZImiweS00x7tuVICFz3I_NEgWKHtfgijGDePbefwNYcoKtXqsHVC0QanQqzH7OGYWP5EVQRZ1QAHJkOyV2tmdfWqqRj8-05RbHVOyGdUeUcSPKFnbd68-oi1F4Xiu17qq9yP2eonRDGSjmd79LxLfICn_FNv_TZGP9kzOFaRoRMwHYf0TnOoyBZ8NfgJwCNrr-XXEBdWieJkZOR5hodVaOtm_YVV6J-fP6Hzy8m_qU-AXXNjY2oiU-pH4Nmm5DmKiiObhlGa6I8cHGESPs8KoBlmzDczXpjDbwCEMqjpBW7Z4LNzZes5RFFOpyTFq1tl3IwN2rf7c7SFxtsHCuCLRe3PivYtXr5Y7y5w53V28UzGuxI7knQMEhs100___ty_k_Fx__QArspVN5Tz9pkEYd2dSvn4WEnPDyvytUBwz0fbhfDce2uJhZEpMLM7ozJdMqji4txxUnxvlYUf8-h3vUTPVlSFOl]--></g></svg>