<svg xmlns="http://www.w3.org/2000/svg" xmlns:xlink="http://www.w3.org/1999/xlink" contentStyleType="text/css" height="1908px" preserveAspectRatio="none" style="width:820px;height:1908px;background:#FFFFFF;" version="1.1" viewBox="0 0 820 1908" width="820px" zoomAndPan="magnify"><title>Cas d'Utilisation Systeme Gestion Operationnelle</title><defs/><g><text fill="#000000" font-family="sans-serif" font-size="14" font-weight="bold" lengthAdjust="spacing" textLength="328.5215" x="238.7393" y="24.5332">Cas d'Utilisation Systeme Gestion Operationnelle</text><!--cluster Systeme Gestion Operationnelle--><g id="cluster_Systeme Gestion Operationnelle"><rect fill="none" height="1320" rx="2.5" ry="2.5" style="stroke:#181818;stroke-width:1;" width="624" x="190" y="357.1094"/><text fill="#000000" font-family="sans-serif" font-size="14" font-weight="bold" lengthAdjust="spacing" textLength="215.5098" x="394.2451" y="373.6426">Systeme Gestion Operationnelle</text></g><!--cluster Module KPI & Dashboards--><g id="cluster_Module KPI &amp; Dashboards"><path d="M216.5,401.1094 L392.5205,401.1094 A3.75,3.75 0 0 1 395.0205,403.6094 L402.0205,424.7188 L783.5,424.7188 A2.5,2.5 0 0 1 786,427.2188 L786,583.6094 A2.5,2.5 0 0 1 783.5,586.1094 L216.5,586.1094 A2.5,2.5 0 0 1 214,583.6094 L214,403.6094 A2.5,2.5 0 0 1 216.5,401.1094 " fill="none" style="stroke:#000000;stroke-width:1.5;"/><line style="stroke:#000000;stroke-width:1.5;" x1="214" x2="402.0205" y1="424.7188" y2="424.7188"/><text fill="#000000" font-family="sans-serif" font-size="14" font-weight="bold" lengthAdjust="spacing" textLength="175.0205" x="218" y="417.6426">Module KPI &amp; Dashboards</text></g><!--cluster Module Tickets BE--><g id="cluster_Module Tickets BE"><path d="M239.5,610.1094 L364.9688,610.1094 A3.75,3.75 0 0 1 367.4688,612.6094 L374.4688,633.7188 L769,633.7188 A2.5,2.5 0 0 1 771.5,636.2188 L771.5,912.6094 A2.5,2.5 0 0 1 769,915.1094 L239.5,915.1094 A2.5,2.5 0 0 1 237,912.6094 L237,612.6094 A2.5,2.5 0 0 1 239.5,610.1094 " fill="none" style="stroke:#000000;stroke-width:1.5;"/><line style="stroke:#000000;stroke-width:1.5;" x1="237" x2="374.4688" y1="633.7188" y2="633.7188"/><text fill="#000000" font-family="sans-serif" font-size="14" font-weight="bold" lengthAdjust="spacing" textLength="124.4688" x="241" y="626.6426">Module Tickets BE</text></g><!--cluster Module Stocks RFID--><g id="cluster_Module Stocks RFID"><path d="M226.5,939.1094 L362.8447,939.1094 A3.75,3.75 0 0 1 365.3447,941.6094 L372.3447,962.7188 L775.5,962.7188 A2.5,2.5 0 0 1 778,965.2188 L778,1192.6094 A2.5,2.5 0 0 1 775.5,1195.1094 L226.5,1195.1094 A2.5,2.5 0 0 1 224,1192.6094 L224,941.6094 A2.5,2.5 0 0 1 226.5,939.1094 " fill="none" style="stroke:#000000;stroke-width:1.5;"/><line style="stroke:#000000;stroke-width:1.5;" x1="224" x2="372.3447" y1="962.7188" y2="962.7188"/><text fill="#000000" font-family="sans-serif" font-size="14" font-weight="bold" lengthAdjust="spacing" textLength="135.3447" x="228" y="955.6426">Module Stocks RFID</text></g><!--cluster Module RBAC Transparence--><g id="cluster_Module RBAC Transparence"><path d="M232.5,1480.1094 L422.5342,1480.1094 A3.75,3.75 0 0 1 425.0342,1482.6094 L432.0342,1503.7188 L787.5,1503.7188 A2.5,2.5 0 0 1 790,1506.2188 L790,1650.6094 A2.5,2.5 0 0 1 787.5,1653.1094 L232.5,1653.1094 A2.5,2.5 0 0 1 230,1650.6094 L230,1482.6094 A2.5,2.5 0 0 1 232.5,1480.1094 " fill="none" style="stroke:#000000;stroke-width:1.5;"/><line style="stroke:#000000;stroke-width:1.5;" x1="230" x2="432.0342" y1="1503.7188" y2="1503.7188"/><text fill="#000000" font-family="sans-serif" font-size="14" font-weight="bold" lengthAdjust="spacing" textLength="189.0342" x="234" y="1496.6426">Module RBAC Transparence</text></g><!--cluster Module ERP Odoo--><g id="cluster_Module ERP Odoo"><path d="M219,1219.1094 L342.1035,1219.1094 A3.75,3.75 0 0 1 344.6035,1221.6094 L351.6035,1242.7188 L465,1242.7188 A2.5,2.5 0 0 1 467.5,1245.2188 L467.5,1453.6094 A2.5,2.5 0 0 1 465,1456.1094 L219,1456.1094 A2.5,2.5 0 0 1 216.5,1453.6094 L216.5,1221.6094 A2.5,2.5 0 0 1 219,1219.1094 " fill="none" style="stroke:#000000;stroke-width:1.5;"/><line style="stroke:#000000;stroke-width:1.5;" x1="216.5" x2="351.6035" y1="1242.7188" y2="1242.7188"/><text fill="#000000" font-family="sans-serif" font-size="14" font-weight="bold" lengthAdjust="spacing" textLength="122.1035" x="220.5" y="1235.6426">Module ERP Odoo</text></g><g id="elem_UC1"><ellipse cx="672.6688" cy="538.0431" fill="#F1F1F1" rx="97.6688" ry="21.9338" style="stroke:#181818;stroke-width:0.5;"/><text fill="#000000" font-family="sans-serif" font-size="14" lengthAdjust="spacing" textLength="155.6201" x="594.8588" y="541.7717">Consulter KPI temps reel</text></g><g id="elem_UC2"><ellipse cx="342.0559" cy="461.9206" fill="#F1F1F1" rx="112.0559" ry="24.8112" style="stroke:#181818;stroke-width:0.5;"/><text fill="#000000" font-family="sans-serif" font-size="14" lengthAdjust="spacing" textLength="187.5508" x="248.2805" y="465.6491">Generer rapport mensuel auto</text></g><g id="elem_UC3"><ellipse cx="342.1488" cy="546.1391" fill="#F1F1F1" rx="108.1488" ry="24.0298" style="stroke:#181818;stroke-width:0.5;"/><text fill="#000000" font-family="sans-serif" font-size="14" lengthAdjust="spacing" textLength="178.9785" x="252.6595" y="549.8676">Configurer alertes anomalies</text></g><g id="elem_UC4"><ellipse cx="672.3271" cy="458.9748" fill="#F1F1F1" rx="97.3271" ry="21.8654" style="stroke:#181818;stroke-width:0.5;"/><text fill="#000000" font-family="sans-serif" font-size="14" lengthAdjust="spacing" textLength="154.8477" x="594.9033" y="462.7033">Consulter predictions ML</text></g><g id="elem_UC5"><ellipse cx="342.1906" cy="879.3475" fill="#F1F1F1" rx="89.1906" ry="20.2381" style="stroke:#181818;stroke-width:0.5;"/><text fill="#000000" font-family="sans-serif" font-size="14" lengthAdjust="spacing" textLength="136.1992" x="274.091" y="883.076">Creer demande etude</text></g><g id="elem_UC6"><ellipse cx="341.8646" cy="804.1823" fill="#F1F1F1" rx="85.8646" ry="19.5729" style="stroke:#181818;stroke-width:0.5;"/><text fill="#000000" font-family="sans-serif" font-size="14" lengthAdjust="spacing" textLength="128.4063" x="277.6615" y="807.9108">Consulter file attente</text></g><g id="elem_UC7"><ellipse cx="341.9299" cy="662.2954" fill="#F1F1F1" rx="66.4299" ry="15.686" style="stroke:#181818;stroke-width:0.5;"/><text fill="#000000" font-family="sans-serif" font-size="14" lengthAdjust="spacing" textLength="77.0137" x="300.423" y="666.812">Traiter ticket</text></g><g id="elem_UC8"><ellipse cx="342.103" cy="731.33" fill="#F1F1F1" rx="79.103" ry="18.2206" style="stroke:#181818;stroke-width:0.5;"/><text fill="#000000" font-family="sans-serif" font-size="14" lengthAdjust="spacing" textLength="112.0615" x="284.6801" y="735.4508">Cloturer demande</text></g><g id="elem_UC9"><ellipse cx="672.4068" cy="665.0907" fill="#F1F1F1" rx="82.9068" ry="18.9814" style="stroke:#181818;stroke-width:0.5;"/><text fill="#000000" font-family="sans-serif" font-size="14" lengthAdjust="spacing" textLength="121.3721" x="611.7207" y="668.8192">Prioriser algorithme</text></g><g id="elem_UC10"><ellipse cx="342.1567" cy="1076.0407" fill="#F1F1F1" rx="97.6567" ry="21.9313" style="stroke:#181818;stroke-width:0.5;"/><text fill="#000000" font-family="sans-serif" font-size="14" lengthAdjust="spacing" textLength="155.5928" x="264.3603" y="1079.7692">Recevoir BL (scan RFID)</text></g><g id="elem_UC11"><ellipse cx="342.172" cy="1155.9438" fill="#F1F1F1" rx="102.172" ry="22.8344" style="stroke:#181818;stroke-width:0.5;"/><text fill="#000000" font-family="sans-serif" font-size="14" lengthAdjust="spacing" textLength="165.7305" x="259.3068" y="1159.6723">Consulter stock temps reel</text></g><g id="elem_UC12"><ellipse cx="341.7888" cy="997.2671" fill="#F1F1F1" rx="96.2888" ry="21.6578" style="stroke:#181818;stroke-width:0.5;"/><text fill="#000000" font-family="sans-serif" font-size="14" lengthAdjust="spacing" textLength="152.4961" x="265.5408" y="1000.9957">Realiser inventaire RFID</text></g><g id="elem_UC13"><ellipse cx="672.4993" cy="1036.9092" fill="#F1F1F1" rx="89.4993" ry="20.2999" style="stroke:#181818;stroke-width:0.5;"/><text fill="#000000" font-family="sans-serif" font-size="14" lengthAdjust="spacing" textLength="136.917" x="604.0408" y="1040.6378">Valoriser stock CUMP</text></g><g id="elem_UC14"><ellipse cx="341.9665" cy="1615.2027" fill="#F1F1F1" rx="95.9665" ry="21.5933" style="stroke:#181818;stroke-width:0.5;"/><text fill="#000000" font-family="sans-serif" font-size="14" lengthAdjust="spacing" textLength="151.7646" x="266.0842" y="1618.9312">Acceder budget chantier</text></g><g id="elem_UC15"><ellipse cx="342.0645" cy="1537.2223" fill="#F1F1F1" rx="93.5645" ry="21.1129" style="stroke:#181818;stroke-width:0.5;"/><text fill="#000000" font-family="sans-serif" font-size="14" lengthAdjust="spacing" textLength="146.2891" x="268.9199" y="1540.9508">Consulter marge affaire</text></g><g id="elem_UC16"><ellipse cx="672.4805" cy="1608.3055" fill="#F1F1F1" rx="101.4805" ry="22.6961" style="stroke:#181818;stroke-width:0.5;"/><text fill="#000000" font-family="sans-serif" font-size="14" lengthAdjust="spacing" textLength="164.1855" x="590.3877" y="1612.034">Voir consommations detail</text></g><g id="elem_UC17"><ellipse cx="341.8139" cy="1355.8721" fill="#F1F1F1" rx="69.3139" ry="16.2628" style="stroke:#181818;stroke-width:0.5;"/><text fill="#000000" font-family="sans-serif" font-size="14" lengthAdjust="spacing" textLength="85.5859" x="296.0209" y="1360.3887">Gerer affaires</text></g><g id="elem_UC18"><ellipse cx="342.2261" cy="1424.0546" fill="#F1F1F1" rx="67.7261" ry="15.9452" style="stroke:#181818;stroke-width:0.5;"/><text fill="#000000" font-family="sans-serif" font-size="14" lengthAdjust="spacing" textLength="80.9238" x="298.7642" y="1428.5712">Gerer achats</text></g><g id="elem_UC19"><ellipse cx="342.0662" cy="1279.9226" fill="#F1F1F1" rx="109.5662" ry="24.3132" style="stroke:#181818;stroke-width:0.5;"/><text fill="#000000" font-family="sans-serif" font-size="14" lengthAdjust="spacing" textLength="182.0957" x="251.0183" y="1283.6511">Gerer comptabilite analytique</text></g><!--entity DIR--><g id="elem_DIR"><ellipse cx="74.6206" cy="52.6094" fill="#F1F1F1" rx="8" ry="8" style="stroke:#181818;stroke-width:0.5;"/><path d="M74.6206,60.6094 L74.6206,87.6094 M61.6206,68.6094 L87.6206,68.6094 M74.6206,87.6094 L61.6206,102.6094 M74.6206,87.6094 L87.6206,102.6094 " fill="none" style="stroke:#181818;stroke-width:0.5;"/><text fill="#000000" font-family="sans-serif" font-size="14" lengthAdjust="spacing" textLength="55.2412" x="47" y="118.6426">Direction</text></g><!--entity SYL--><g id="elem_SYL"><ellipse cx="74.6895" cy="339.1094" fill="#F1F1F1" rx="8" ry="8" style="stroke:#181818;stroke-width:0.5;"/><path d="M74.6895,347.1094 L74.6895,374.1094 M61.6895,355.1094 L87.6895,355.1094 M74.6895,374.1094 L61.6895,389.1094 M74.6895,374.1094 L87.6895,389.1094 " fill="none" style="stroke:#181818;stroke-width:0.5;"/><text fill="#000000" font-family="sans-serif" font-size="14" lengthAdjust="spacing" textLength="37.3447" x="17.5" y="405.1426">Sylvie</text><text fill="#000000" font-family="sans-serif" font-size="14" lengthAdjust="spacing" textLength="114.3789" x="17.5" y="422.752">(Controle Gestion)</text></g><!--entity THO--><g id="elem_THO"><ellipse cx="74.3066" cy="692.1094" fill="#F1F1F1" rx="8" ry="8" style="stroke:#181818;stroke-width:0.5;"/><path d="M74.3066,700.1094 L74.3066,727.1094 M61.3066,708.1094 L87.3066,708.1094 M74.3066,727.1094 L61.3066,742.1094 M74.3066,727.1094 L87.3066,742.1094 " fill="none" style="stroke:#181818;stroke-width:0.5;"/><text fill="#000000" font-family="sans-serif" font-size="14" lengthAdjust="spacing" textLength="50.5723" x="17.5" y="758.1426">Thomas</text><text fill="#000000" font-family="sans-serif" font-size="14" lengthAdjust="spacing" textLength="113.6133" x="17.5" y="775.752">(Responsable BE)</text></g><!--entity ISA--><g id="elem_ISA"><ellipse cx="74.4756" cy="1077.1094" fill="#F1F1F1" rx="8" ry="8" style="stroke:#181818;stroke-width:0.5;"/><path d="M74.4756,1085.1094 L74.4756,1112.1094 M61.4756,1093.1094 L87.4756,1093.1094 M74.4756,1112.1094 L61.4756,1127.1094 M74.4756,1112.1094 L87.4756,1127.1094 " fill="none" style="stroke:#181818;stroke-width:0.5;"/><text fill="#000000" font-family="sans-serif" font-size="14" lengthAdjust="spacing" textLength="48.2549" x="6" y="1143.1426">Isabelle</text><text fill="#000000" font-family="sans-serif" font-size="14" lengthAdjust="spacing" textLength="136.9512" x="6" y="1160.752">(Responsable Stocks)</text></g><!--entity RA--><g id="elem_RA"><ellipse cx="74.5376" cy="1393.6094" fill="#F1F1F1" rx="8" ry="8" style="stroke:#181818;stroke-width:0.5;"/><path d="M74.5376,1401.6094 L74.5376,1428.6094 M61.5376,1409.6094 L87.5376,1409.6094 M74.5376,1428.6094 L61.5376,1443.6094 M74.5376,1428.6094 L87.5376,1443.6094 " fill="none" style="stroke:#181818;stroke-width:0.5;"/><text fill="#000000" font-family="sans-serif" font-size="14" lengthAdjust="spacing" textLength="126.0752" x="11.5" y="1459.6426">Responsable Affaire</text></g><!--entity CHEF--><g id="elem_CHEF"><ellipse cx="74.6895" cy="1674.6094" fill="#F1F1F1" rx="8" ry="8" style="stroke:#181818;stroke-width:0.5;"/><path d="M74.6895,1682.6094 L74.6895,1709.6094 M61.6895,1690.6094 L87.6895,1690.6094 M74.6895,1709.6094 L61.6895,1724.6094 M74.6895,1709.6094 L87.6895,1724.6094 " fill="none" style="stroke:#181818;stroke-width:0.5;"/><text fill="#000000" font-family="sans-serif" font-size="14" lengthAdjust="spacing" textLength="86.3789" x="31.5" y="1740.6426">Chef Chantier</text></g><!--link DIR to UC1--><g id="link_DIR_UC1"><path d="M102.02,87.2794 C169.55,98.8994 351.4,136.5894 475.5,222.1094 C512.78,247.7994 522.36,258.8594 541,300.1094 C577.65,381.2194 515.65,428.4094 571,498.1094 C579.53,508.8494 585.9054,514.2099 598.4754,519.9699 " fill="none" id="DIR-to-UC1" style="stroke:#181818;stroke-width:1;"/><polygon fill="#181818" points="603.93,522.4694,597.4144,515.0838,599.3845,520.3865,594.0818,522.3566,603.93,522.4694" style="stroke:#181818;stroke-width:1;"/></g><!--link DIR to UC2--><g id="link_DIR_UC2"><path d="M102.17,121.1894 C156.35,198.5194 274.5375,367.2352 319.9875,432.1152 " fill="none" id="DIR-to-UC2" style="stroke:#181818;stroke-width:1;"/><polygon fill="#181818" points="323.43,437.0294,321.5424,427.3631,320.5612,432.9342,314.9901,431.9531,323.43,437.0294" style="stroke:#181818;stroke-width:1;"/></g><!--link DIR to UC4--><g id="link_DIR_UC4"><path d="M102.08,86.1394 C180.1,96.3994 411.12,136.6794 541,265.1094 C595.41,318.9094 637.6782,393.338 657.6382,431.658 " fill="none" id="DIR-to-UC4" style="stroke:#181818;stroke-width:1;"/><polygon fill="#181818" points="660.41,436.9794,659.7999,427.1494,658.1002,432.5449,652.7047,430.8451,660.41,436.9794" style="stroke:#181818;stroke-width:1;"/></g><!--link SYL to UC1--><g id="link_SYL_UC1"><path d="M104.53,330.5994 C121.37,307.7394 144.84,282.6294 173,270.1094 C295.86,215.5094 358.08,204.6394 475.5,270.1094 C523.87,297.0794 519.57,325.0394 541,376.1094 C562.61,427.5994 534.33,456.0094 571,498.1094 C580.13,508.5894 586.9053,513.8943 599.7053,519.6343 " fill="none" id="SYL-to-UC1" style="stroke:#181818;stroke-width:1;"/><polygon fill="#181818" points="605.18,522.0894,598.6046,514.7569,600.6177,520.0435,595.3312,522.0566,605.18,522.0894" style="stroke:#181818;stroke-width:1;"/></g><!--link SYL to UC2--><g id="link_SYL_UC2"><path d="M131.6,417.1894 C144.7,424.8394 158.95,432.0494 173,437.1094 C193.25,444.4094 209.6941,448.5783 231.3241,452.2383 " fill="none" id="SYL-to-UC2" style="stroke:#181818;stroke-width:1;"/><polygon fill="#181818" points="237.24,453.2394,229.0335,447.7939,232.3101,452.4052,227.6988,455.6818,237.24,453.2394" style="stroke:#181818;stroke-width:1;"/></g><!--link SYL to UC3--><g id="link_SYL_UC3"><path d="M105.07,425.7994 C123.97,452.5294 150.77,484.3694 182,504.1094 C203,517.3794 222.2835,524.9678 246.2535,531.2078 " fill="none" id="SYL-to-UC3" style="stroke:#181818;stroke-width:1;"/><polygon fill="#181818" points="252.06,532.7194,244.358,526.581,247.2213,531.4597,242.3426,534.323,252.06,532.7194" style="stroke:#181818;stroke-width:1;"/></g><!--link SYL to UC4--><g id="link_SYL_UC4"><path d="M104.53,330.5994 C121.37,307.7394 144.84,282.6294 173,270.1094 C295.86,215.5094 350.83,219.7894 475.5,270.1094 C560.54,304.4294 625.8975,390.2934 654.1875,432.2834 " fill="none" id="SYL-to-UC4" style="stroke:#181818;stroke-width:1;"/><polygon fill="#181818" points="657.54,437.2594,655.8286,427.5603,654.7462,433.1127,649.1939,432.0304,657.54,437.2594" style="stroke:#181818;stroke-width:1;"/></g><!--link SYL to UC13--><g id="link_SYL_UC13"><path d="M131.75,362.9494 C230.33,340.1694 433.97,310.6594 541,421.1094 C579.27,460.5994 550.87,863.9394 571,915.1094 C587.38,956.7294 619.2176,990.7544 643.4076,1012.9344 " fill="none" id="SYL-to-UC13" style="stroke:#181818;stroke-width:1;"/><polygon fill="#181818" points="647.83,1016.9894,643.8997,1007.9587,644.1447,1013.6103,638.4931,1013.8552,647.83,1016.9894" style="stroke:#181818;stroke-width:1;"/></g><!--link SYL to UC19--><g id="link_SYL_UC19"><path d="M89.11,425.8194 C104.73,482.5794 129.89,580.4494 143,666.1094 C160.84,782.6294 117.73,1096.2994 182,1195.1094 C202.82,1227.1194 234.3254,1245.7357 267.4454,1258.7457 " fill="none" id="SYL-to-UC19" style="stroke:#181818;stroke-width:1;"/><polygon fill="#181818" points="273.03,1260.9394,266.1156,1253.9258,268.3762,1259.1113,263.1906,1261.3719,273.03,1260.9394" style="stroke:#181818;stroke-width:1;"/></g><!--link THO to UC5--><g id="link_THO_UC5"><path d="M110.98,778.7194 C129.78,800.7794 154.63,825.5094 182,841.1094 C206.66,855.1694 230.4347,862.8225 257.4247,868.4125 " fill="none" id="THO-to-UC5" style="stroke:#181818;stroke-width:1;"/><polygon fill="#181818" points="263.3,869.6294,255.2983,863.8872,258.4039,868.6153,253.6758,871.721,263.3,869.6294" style="stroke:#181818;stroke-width:1;"/></g><!--link THO to UC6--><g id="link_THO_UC6"><path d="M131.61,750.5194 C147.79,755.8494 165.52,761.4394 182,766.1094 C213.95,775.1594 244.0617,782.5387 273.6817,789.3287 " fill="none" id="THO-to-UC6" style="stroke:#181818;stroke-width:1;"/><polygon fill="#181818" points="279.53,790.6694,271.6513,784.7595,274.6564,789.5522,269.8638,792.5573,279.53,790.6694" style="stroke:#181818;stroke-width:1;"/></g><!--link THO to UC7--><g id="link_THO_UC7"><path d="M131.76,710.6694 C147.86,705.2094 165.52,699.5894 182,695.1094 C217.1,685.5694 251.3045,678.3845 282.4445,672.4945 " fill="none" id="THO-to-UC7" style="stroke:#181818;stroke-width:1;"/><polygon fill="#181818" points="288.34,671.3794,278.7534,669.1217,283.4271,672.3086,280.2402,676.9823,288.34,671.3794" style="stroke:#181818;stroke-width:1;"/></g><!--link THO to UC8--><g id="link_THO_UC8"><path d="M131.81,731.1094 C169.94,731.1094 214.83,731.1094 256.87,731.1094 " fill="none" id="THO-to-UC8" style="stroke:#181818;stroke-width:1;"/><polygon fill="#181818" points="262.87,731.1094,253.87,727.1094,257.87,731.1094,253.87,735.1094,262.87,731.1094" style="stroke:#181818;stroke-width:1;"/></g><!--link THO to UC9--><g id="link_THO_UC9"><path d="M75.92,683.4594 C79.44,612.5794 97.7,481.2794 182,421.1094 C311.86,328.4094 418.5,318.8794 541,421.1094 C598.22,468.8694 532.54,522.2694 571,586.1094 C587.03,612.7194 610.4583,630.7504 633.0383,644.4304 " fill="none" id="THO-to-UC9" style="stroke:#181818;stroke-width:1;"/><polygon fill="#181818" points="638.17,647.5394,632.5452,639.4548,633.8936,644.9485,628.3998,646.297,638.17,647.5394" style="stroke:#181818;stroke-width:1;"/></g><!--link ISA to UC10--><g id="link_ISA_UC10"><path d="M143.18,1105.9094 C178.83,1100.5394 216.847,1094.8136 254.267,1089.1736 " fill="none" id="ISA-to-UC10" style="stroke:#181818;stroke-width:1;"/><polygon fill="#181818" points="260.2,1088.2794,250.7044,1085.6654,255.2558,1089.0246,251.8967,1093.576,260.2,1088.2794" style="stroke:#181818;stroke-width:1;"/></g><!--link ISA to UC11--><g id="link_ISA_UC11"><path d="M143.18,1126.3094 C177.75,1131.5194 214.2069,1137.006 250.8669,1142.526 " fill="none" id="ISA-to-UC11" style="stroke:#181818;stroke-width:1;"/><polygon fill="#181818" points="256.8,1143.4194,248.4959,1138.1239,251.8557,1142.6749,247.3047,1146.0347,256.8,1143.4194" style="stroke:#181818;stroke-width:1;"/></g><!--link ISA to UC12--><g id="link_ISA_UC12"><path d="M129.96,1068.5994 C145.9,1056.5794 163.92,1044.6694 182,1036.1094 C207.3,1024.1294 230.8161,1016.9052 257.3761,1010.9352 " fill="none" id="ISA-to-UC12" style="stroke:#181818;stroke-width:1;"/><polygon fill="#181818" points="263.23,1009.6194,253.5719,1007.6905,258.3517,1010.7159,255.3263,1015.4957,263.23,1009.6194" style="stroke:#181818;stroke-width:1;"/></g><!--link ISA to UC13--><g id="link_ISA_UC13"><path d="M90.27,1163.7994 C105.35,1213.9694 128.54,1295.4494 143,1367.1094 C155.69,1429.9894 143.47,1601.8294 182,1653.1094 C284.3,1789.2694 414.47,1901.0994 541,1787.1094 C588.64,1744.1894 560.85,1563.4294 571,1500.1094 C598.67,1327.5194 648.1652,1128.2528 664.6952,1063.5328 " fill="none" id="ISA-to-UC13" style="stroke:#181818;stroke-width:1;"/><polygon fill="#181818" points="666.18,1057.7194,660.0772,1065.4496,664.9427,1062.5639,667.8284,1067.4293,666.18,1057.7194" style="stroke:#181818;stroke-width:1;"/></g><!--link RA to UC1--><g id="link_RA_UC1"><path d="M80.81,1463.2394 C90.41,1516.8194 116.2,1611.1394 182,1653.1094 C316.52,1738.9094 426.54,1764.2694 541,1653.1094 C581.79,1613.4994 547.33,681.8094 571,630.1094 C584.89,599.7894 609.0307,578.3801 632.3607,562.1901 " fill="none" id="RA-to-UC1" style="stroke:#181818;stroke-width:1;"/><polygon fill="#181818" points="637.29,558.7694,627.6155,560.6143,633.1822,561.62,632.1765,567.1867,637.29,558.7694" style="stroke:#181818;stroke-width:1;"/></g><!--link RA to UC5--><g id="link_RA_UC5"><path d="M87.68,1384.8394 C102.2,1337.0494 126.58,1253.7094 143,1181.1094 C165.1,1083.3994 122.23,1039.5094 182,959.1094 C206.43,926.2494 242.4874,907.9342 277.0774,896.0142 " fill="none" id="RA-to-UC5" style="stroke:#181818;stroke-width:1;"/><polygon fill="#181818" points="282.75,894.0594,272.9378,893.2099,278.0228,895.6884,275.5443,900.7734,282.75,894.0594" style="stroke:#181818;stroke-width:1;"/></g><!--link RA to UC15--><g id="link_RA_UC15"><path d="M137.75,1450.5994 C186.79,1471.4794 248.4096,1497.6989 291.8596,1516.1989 " fill="none" id="RA-to-UC15" style="stroke:#181818;stroke-width:1;"/><polygon fill="#181818" points="297.38,1518.5494,290.6663,1511.3434,292.7796,1516.5906,287.5324,1518.704,297.38,1518.5494" style="stroke:#181818;stroke-width:1;"/></g><!--link RA to UC17--><g id="link_RA_UC17"><path d="M137.71,1403.1194 C152.17,1398.5594 167.56,1393.9494 182,1390.1094 C216.65,1380.8994 250.1661,1373.6339 281.0761,1367.4639 " fill="none" id="RA-to-UC17" style="stroke:#181818;stroke-width:1;"/><polygon fill="#181818" points="286.96,1366.2894,277.3511,1364.1285,282.0567,1367.2681,278.9171,1371.9737,286.96,1366.2894" style="stroke:#181818;stroke-width:1;"/></g><!--link RA to UC18--><g id="link_RA_UC18"><path d="M137.75,1424.1094 C178.67,1424.1094 226.19,1424.1094 268.03,1424.1094 " fill="none" id="RA-to-UC18" style="stroke:#181818;stroke-width:1;"/><polygon fill="#181818" points="274.03,1424.1094,265.03,1420.1094,269.03,1424.1094,265.03,1428.1094,274.03,1424.1094" style="stroke:#181818;stroke-width:1;"/></g><!--link CHEF to UC1--><g id="link_CHEF_UC1"><path d="M117.59,1723.5694 C214.34,1762.9294 451.13,1840.9094 541,1705.1094 C606.94,1605.4594 521.33,738.7894 571,630.1094 C584.86,599.7794 609.0107,578.3701 632.3407,562.1801 " fill="none" id="CHEF-to-UC1" style="stroke:#181818;stroke-width:1;"/><polygon fill="#181818" points="637.27,558.7594,627.5955,560.6043,633.1622,561.61,632.1565,567.1767,637.27,558.7594" style="stroke:#181818;stroke-width:1;"/></g><!--link CHEF to UC11--><g id="link_CHEF_UC11"><path d="M88.9,1666.0994 C103.81,1621.5594 127.79,1546.2894 143,1480.1094 C167.31,1374.3594 118.51,1327.0994 182,1239.1094 C204.96,1207.2894 238.2193,1188.8153 271.7893,1176.0953 " fill="none" id="CHEF-to-UC11" style="stroke:#181818;stroke-width:1;"/><polygon fill="#181818" points="277.4,1173.9694,267.5666,1173.4178,272.7244,1175.741,270.4012,1180.8988,277.4,1173.9694" style="stroke:#181818;stroke-width:1;"/></g><!--link CHEF to UC14--><g id="link_CHEF_UC14"><path d="M117.57,1690.8494 C163.77,1675.1894 232.3678,1651.9363 282.4678,1634.9463 " fill="none" id="CHEF-to-UC14" style="stroke:#181818;stroke-width:1;"/><polygon fill="#181818" points="288.15,1633.0194,278.3421,1632.1217,283.4149,1634.6252,280.9114,1639.6979,288.15,1633.0194" style="stroke:#181818;stroke-width:1;"/></g><!--link CHEF to UC16--><g id="link_CHEF_UC16"><path d="M93.41,1744.2794 C110.84,1777.1694 140.73,1821.9194 182,1842.1094 C299.17,1899.4394 345.59,1853.9094 475.5,1842.1094 C504.97,1839.4294 516.75,1847.0694 541,1830.1094 C612.81,1779.8894 649.4005,1682.1756 663.4305,1636.4356 " fill="none" id="CHEF-to-UC16" style="stroke:#181818;stroke-width:1;"/><polygon fill="#181818" points="665.19,1630.6994,658.7266,1638.1307,663.7238,1635.4796,666.3749,1640.4767,665.19,1630.6994" style="stroke:#181818;stroke-width:1;"/></g><!--link UC2 to UC1--><g id="link_UC2_UC1"><path d="M430.19,477.7294 C446.69,483.8294 462.75,492.3094 475.5,504.1094 C482.89,510.9494 475.85,519.1994 484,525.1094 C514.64,547.3394 550.0148,552.3303 586.0948,550.8803 " fill="none" id="UC2-to-UC1" style="stroke:#181818;stroke-width:1;stroke-dasharray:7.0,7.0;"/><polygon fill="#181818" points="592.09,550.6394,582.9366,547.004,587.094,550.8402,583.2579,554.9976,592.09,550.6394" style="stroke:#181818;stroke-width:1;"/><text fill="#000000" font-family="sans-serif" font-size="13" lengthAdjust="spacing" textLength="55.6563" x="485" y="521.6045">&#171;include&#187;</text></g><!--link UC3 to UC4--><g id="link_UC3_UC4"><path d="M404.52,526.3894 C429.13,518.7594 457.81,510.1694 484,503.1094 C522.74,492.6694 560.5082,483.6747 595.9182,475.6547 " fill="none" id="UC3-to-UC4" style="stroke:#181818;stroke-width:1;stroke-dasharray:7.0,7.0;"/><polygon fill="#181818" points="601.77,474.3294,592.1087,472.4162,596.8935,475.4338,593.8759,480.2186,601.77,474.3294" style="stroke:#181818;stroke-width:1;"/><text fill="#000000" font-family="sans-serif" font-size="13" lengthAdjust="spacing" textLength="55.6563" x="485" y="485.6045">&#171;include&#187;</text></g><!--link UC7 to UC9--><g id="link_UC7_UC9"><path d="M408.69,662.7094 C460.65,663.1794 527.4803,663.7946 583.3103,664.3046 " fill="none" id="UC7-to-UC9" style="stroke:#181818;stroke-width:1;stroke-dasharray:7.0,7.0;"/><polygon fill="#181818" points="589.31,664.3594,580.3469,660.2773,584.3102,664.3137,580.2738,668.277,589.31,664.3594" style="stroke:#181818;stroke-width:1;"/><text fill="#000000" font-family="sans-serif" font-size="13" lengthAdjust="spacing" textLength="55.6563" x="485" y="660.6045">&#171;include&#187;</text></g><!--link UC10 to UC13--><g id="link_UC10_UC13"><path d="M438.69,1073.0894 C471.25,1071.3194 507.8,1068.5294 541,1064.1094 C563.59,1061.0994 582.253,1057.6658 603.873,1053.0358 " fill="none" id="UC10-to-UC13" style="stroke:#181818;stroke-width:1;stroke-dasharray:7.0,7.0;"/><polygon fill="#181818" points="609.74,1051.7794,600.1019,1049.7527,604.8509,1052.8264,601.7772,1057.5753,609.74,1051.7794" style="stroke:#181818;stroke-width:1;"/><text fill="#000000" font-family="sans-serif" font-size="13" lengthAdjust="spacing" textLength="55.6563" x="485" y="1060.6045">&#171;include&#187;</text></g><!--link UC12 to UC13--><g id="link_UC12_UC13"><path d="M427.17,1007.3594 C478.31,1013.5894 537.1939,1020.7545 587.2339,1026.8445 " fill="none" id="UC12-to-UC13" style="stroke:#181818;stroke-width:1;stroke-dasharray:7.0,7.0;"/><polygon fill="#181818" points="593.19,1027.5694,584.7392,1022.5114,588.2266,1026.9653,583.7727,1030.4528,593.19,1027.5694" style="stroke:#181818;stroke-width:1;"/><text fill="#000000" font-family="sans-serif" font-size="13" lengthAdjust="spacing" textLength="55.6563" x="485" y="1011.6045">&#171;include&#187;</text></g><!--link UC14 to UC16--><g id="link_UC14_UC16"><path d="M438.02,1613.0894 C479.8,1612.1994 522.9014,1611.2768 565.2614,1610.3768 " fill="none" id="UC14-to-UC16" style="stroke:#181818;stroke-width:1;stroke-dasharray:7.0,7.0;"/><polygon fill="#181818" points="571.26,1610.2494,562.1771,1606.4415,566.2611,1610.3556,562.347,1614.4396,571.26,1610.2494" style="stroke:#181818;stroke-width:1;"/><text fill="#000000" font-family="sans-serif" font-size="13" lengthAdjust="spacing" textLength="53.4917" x="486" y="1607.6045">&#171;extend&#187;</text></g><!--SRC=[VPJTJzim4C3V_LUSUDZW0KG_QCk4a4eBh1g8AYr8a_RY9jVMmh4psq53q_xtNTmak4rBd-vwl_lqvPnm4c74BIHVdvsGmd8dj8BPktMO8joZzVfJXiPR54g9Z4bSEd0QZ5Yj7IJ2O5nO6UEnqmQEnjK_Hq2nnvEeCipUvPl0N-fuf9KpMjOfJZmv-_bGaVErJhabCaARQMNvWk2Rsmqt__vKSHEo54Nja3EdurUxeIUpOKM7o72vv5IdHwAQ6Arn2QCrLqwWyRRHzzixneg6k5gHtz7dqpc2lum1P3n-vIkY7tMIazUFwGI-m9ZRzK9pazW20_hb5cDkYQE9s5mwD1wb19a5WoXz3S-ZrZPzZmeDiOPdcJOEKYHlbC1pfqkFTYF-KgpomebBD0ujS4KpbW9jwT4vL55cC17-GIqyFfHqb-X_-rgTY_WLdQNNQZP97Hb8CEKgGK2N9rX6kpYKUoae97SEbQlOtZOxDrmKfFDvIwQ_4qzgvtilSvVKO9kQ6g6Di7v4AvBSEgt8oqFTRZODehl9kD5kX36-QM7WvW6ERSoLnqwg9pq_rBCjOkxPWTPkU7gzebgXtcWynJQNTMpmdGruuRBiRXD_zFmuhT3EeVQYc-48QCBAPjoWYh7Hv32ECQ6WYpnPeOCu_7OeSlTGaoatb8S7No7HEslmKWml9XUTfdopVmbIe_L4UeVglescy9HetIZttdytPTfgyrlzlH3rucfai0-9TPevlg3JwQWNnUMx4x_pkftDrb21T0FXzFJQVyWVSZkGkupH-QkX3xaTo9r0xePyQA2iZ2vagLq4SY-G-u4y26HofeDPXJeFbLQej4EbmrXKAn_YHV1lAFS3US1OSM5hvr3PrhfRMeyncWsSdNaDli7LbL2nf8joVKsMJcdfDYpzqdBPiBJEgt2TfgtzYQrRsNhUXd_eMYLa-Wy0]--></g></svg>