<svg xmlns="http://www.w3.org/2000/svg" xmlns:xlink="http://www.w3.org/1999/xlink" contentStyleType="text/css" height="436px" preserveAspectRatio="none" style="width:317px;height:436px;background:#FFFFFF;" version="1.1" viewBox="0 0 317 436" width="317px" zoomAndPan="magnify"><defs/><g><text fill="#000000" font-family="sans-serif" font-size="10" lengthAdjust="spacing" textLength="13.8916" x="150.9331" y="24.3809">Mo</text><text fill="#000000" font-family="sans-serif" font-size="10" lengthAdjust="spacing" textLength="11.123" x="152.3174" y="36.3809">17</text><text fill="#000000" font-family="sans-serif" font-size="12" font-weight="bold" lengthAdjust="spacing" textLength="22.6699" x="146.5439" y="12.457">Nov</text><line style="stroke:#C0C0C0;stroke-width:1;" x1="141.8789" x2="141.8789" y1="39" y2="374.2109"/><line style="stroke:#C0C0C0;stroke-width:1;" x1="173.8789" x2="173.8789" y1="39" y2="374.2109"/><line style="stroke:#C0C0C0;stroke-width:1;" x1="141.8789" x2="173.8789" y1="39" y2="39"/><line style="stroke:#C0C0C0;stroke-width:1;" x1="141.8789" x2="173.8789" y1="374.2109" y2="374.2109"/><line style="stroke:#181818;stroke-width:1;" x1="141.8789" x2="146.8789" y1="55.918" y2="55.918"/><line style="stroke:#181818;stroke-width:1;" x1="305.4326" x2="172.8789" y1="55.918" y2="55.918"/><rect fill="#FF7F50" height="13.8359" style="stroke:none;stroke-width:1;" width="28" x="143.8789" y="74.8359"/><line style="stroke:#FF7F50;stroke-width:1;" x1="143.8789" x2="171.8789" y1="74.8359" y2="74.8359"/><line style="stroke:#FF7F50;stroke-width:1;" x1="143.8789" x2="171.8789" y1="88.6719" y2="88.6719"/><line style="stroke:#FF7F50;stroke-width:1;" x1="143.8789" x2="143.8789" y1="74.8359" y2="88.6719"/><line style="stroke:#FF7F50;stroke-width:1;" x1="171.8789" x2="171.8789" y1="74.8359" y2="88.6719"/><rect fill="#FF7F50" height="13.8359" style="stroke:none;stroke-width:1;" width="28" x="143.8789" y="92.6719"/><line style="stroke:#FF7F50;stroke-width:1;" x1="143.8789" x2="171.8789" y1="92.6719" y2="92.6719"/><line style="stroke:#FF7F50;stroke-width:1;" x1="143.8789" x2="171.8789" y1="106.5078" y2="106.5078"/><line style="stroke:#FF7F50;stroke-width:1;" x1="143.8789" x2="143.8789" y1="92.6719" y2="106.5078"/><line style="stroke:#FF7F50;stroke-width:1;" x1="171.8789" x2="171.8789" y1="92.6719" y2="106.5078"/><rect fill="#FFA500" height="13.8359" style="stroke:none;stroke-width:1;" width="28" x="143.8789" y="110.5078"/><line style="stroke:#FFA500;stroke-width:1;" x1="143.8789" x2="171.8789" y1="110.5078" y2="110.5078"/><line style="stroke:#FFA500;stroke-width:1;" x1="143.8789" x2="171.8789" y1="124.3438" y2="124.3438"/><line style="stroke:#FFA500;stroke-width:1;" x1="143.8789" x2="143.8789" y1="110.5078" y2="124.3438"/><line style="stroke:#FFA500;stroke-width:1;" x1="171.8789" x2="171.8789" y1="110.5078" y2="124.3438"/><rect fill="#FF7F50" height="13.8359" style="stroke:none;stroke-width:1;" width="28" x="143.8789" y="128.3438"/><line style="stroke:#FF7F50;stroke-width:1;" x1="143.8789" x2="171.8789" y1="128.3438" y2="128.3438"/><line style="stroke:#FF7F50;stroke-width:1;" x1="143.8789" x2="171.8789" y1="142.1797" y2="142.1797"/><line style="stroke:#FF7F50;stroke-width:1;" x1="143.8789" x2="143.8789" y1="128.3438" y2="142.1797"/><line style="stroke:#FF7F50;stroke-width:1;" x1="171.8789" x2="171.8789" y1="128.3438" y2="142.1797"/><rect fill="#FF0000" height="13.8359" style="stroke:none;stroke-width:1;" width="28" x="143.8789" y="146.1797"/><line style="stroke:#FF0000;stroke-width:1;" x1="143.8789" x2="171.8789" y1="146.1797" y2="146.1797"/><line style="stroke:#FF0000;stroke-width:1;" x1="143.8789" x2="171.8789" y1="160.0156" y2="160.0156"/><line style="stroke:#FF0000;stroke-width:1;" x1="143.8789" x2="143.8789" y1="146.1797" y2="160.0156"/><line style="stroke:#FF0000;stroke-width:1;" x1="171.8789" x2="171.8789" y1="146.1797" y2="160.0156"/><rect fill="#FF7F50" height="13.8359" style="stroke:none;stroke-width:1;" width="28" x="143.8789" y="164.0156"/><line style="stroke:#FF7F50;stroke-width:1;" x1="143.8789" x2="171.8789" y1="164.0156" y2="164.0156"/><line style="stroke:#FF7F50;stroke-width:1;" x1="143.8789" x2="171.8789" y1="177.8516" y2="177.8516"/><line style="stroke:#FF7F50;stroke-width:1;" x1="143.8789" x2="143.8789" y1="164.0156" y2="177.8516"/><line style="stroke:#FF7F50;stroke-width:1;" x1="171.8789" x2="171.8789" y1="164.0156" y2="177.8516"/><rect fill="#FFA500" height="13.8359" style="stroke:none;stroke-width:1;" width="28" x="143.8789" y="181.8516"/><line style="stroke:#FFA500;stroke-width:1;" x1="143.8789" x2="171.8789" y1="181.8516" y2="181.8516"/><line style="stroke:#FFA500;stroke-width:1;" x1="143.8789" x2="171.8789" y1="195.6875" y2="195.6875"/><line style="stroke:#FFA500;stroke-width:1;" x1="143.8789" x2="143.8789" y1="181.8516" y2="195.6875"/><line style="stroke:#FFA500;stroke-width:1;" x1="171.8789" x2="171.8789" y1="181.8516" y2="195.6875"/><rect fill="#FF7F50" height="13.8359" style="stroke:none;stroke-width:1;" width="28" x="143.8789" y="199.6875"/><line style="stroke:#FF7F50;stroke-width:1;" x1="143.8789" x2="171.8789" y1="199.6875" y2="199.6875"/><line style="stroke:#FF7F50;stroke-width:1;" x1="143.8789" x2="171.8789" y1="213.5234" y2="213.5234"/><line style="stroke:#FF7F50;stroke-width:1;" x1="143.8789" x2="143.8789" y1="199.6875" y2="213.5234"/><line style="stroke:#FF7F50;stroke-width:1;" x1="171.8789" x2="171.8789" y1="199.6875" y2="213.5234"/><rect fill="#FF0000" height="13.8359" style="stroke:none;stroke-width:1;" width="28" x="143.8789" y="217.5234"/><line style="stroke:#FF0000;stroke-width:1;" x1="143.8789" x2="171.8789" y1="217.5234" y2="217.5234"/><line style="stroke:#FF0000;stroke-width:1;" x1="143.8789" x2="171.8789" y1="231.3594" y2="231.3594"/><line style="stroke:#FF0000;stroke-width:1;" x1="143.8789" x2="143.8789" y1="217.5234" y2="231.3594"/><line style="stroke:#FF0000;stroke-width:1;" x1="171.8789" x2="171.8789" y1="217.5234" y2="231.3594"/><rect fill="#FF7F50" height="13.8359" style="stroke:none;stroke-width:1;" width="28" x="143.8789" y="235.3594"/><line style="stroke:#FF7F50;stroke-width:1;" x1="143.8789" x2="171.8789" y1="235.3594" y2="235.3594"/><line style="stroke:#FF7F50;stroke-width:1;" x1="143.8789" x2="171.8789" y1="249.1953" y2="249.1953"/><line style="stroke:#FF7F50;stroke-width:1;" x1="143.8789" x2="143.8789" y1="235.3594" y2="249.1953"/><line style="stroke:#FF7F50;stroke-width:1;" x1="171.8789" x2="171.8789" y1="235.3594" y2="249.1953"/><rect fill="#FF7F50" height="13.8359" style="stroke:none;stroke-width:1;" width="28" x="143.8789" y="253.1953"/><line style="stroke:#FF7F50;stroke-width:1;" x1="143.8789" x2="171.8789" y1="253.1953" y2="253.1953"/><line style="stroke:#FF7F50;stroke-width:1;" x1="143.8789" x2="171.8789" y1="267.0313" y2="267.0313"/><line style="stroke:#FF7F50;stroke-width:1;" x1="143.8789" x2="143.8789" y1="253.1953" y2="267.0313"/><line style="stroke:#FF7F50;stroke-width:1;" x1="171.8789" x2="171.8789" y1="253.1953" y2="267.0313"/><rect fill="#FF7F50" height="13.8359" style="stroke:none;stroke-width:1;" width="28" x="143.8789" y="271.0313"/><line style="stroke:#FF7F50;stroke-width:1;" x1="143.8789" x2="171.8789" y1="271.0313" y2="271.0313"/><line style="stroke:#FF7F50;stroke-width:1;" x1="143.8789" x2="171.8789" y1="284.8672" y2="284.8672"/><line style="stroke:#FF7F50;stroke-width:1;" x1="143.8789" x2="143.8789" y1="271.0313" y2="284.8672"/><line style="stroke:#FF7F50;stroke-width:1;" x1="171.8789" x2="171.8789" y1="271.0313" y2="284.8672"/><line style="stroke:#181818;stroke-width:1;" x1="141.8789" x2="146.8789" y1="303.7852" y2="303.7852"/><line style="stroke:#181818;stroke-width:1;" x1="292.5903" x2="172.8789" y1="303.7852" y2="303.7852"/><rect fill="#ADFF2F" height="13.8359" style="stroke:none;stroke-width:1;" width="28" x="143.8789" y="322.7031"/><line style="stroke:#ADFF2F;stroke-width:1;" x1="143.8789" x2="171.8789" y1="322.7031" y2="322.7031"/><line style="stroke:#ADFF2F;stroke-width:1;" x1="143.8789" x2="171.8789" y1="336.5391" y2="336.5391"/><line style="stroke:#ADFF2F;stroke-width:1;" x1="143.8789" x2="143.8789" y1="322.7031" y2="336.5391"/><line style="stroke:#ADFF2F;stroke-width:1;" x1="171.8789" x2="171.8789" y1="322.7031" y2="336.5391"/><rect fill="#ADFF2F" height="13.8359" style="stroke:none;stroke-width:1;" width="28" x="143.8789" y="340.5391"/><line style="stroke:#ADFF2F;stroke-width:1;" x1="143.8789" x2="171.8789" y1="340.5391" y2="340.5391"/><line style="stroke:#ADFF2F;stroke-width:1;" x1="143.8789" x2="171.8789" y1="354.375" y2="354.375"/><line style="stroke:#ADFF2F;stroke-width:1;" x1="143.8789" x2="143.8789" y1="340.5391" y2="354.375"/><line style="stroke:#ADFF2F;stroke-width:1;" x1="171.8789" x2="171.8789" y1="340.5391" y2="354.375"/><rect fill="#ADFF2F" height="13.8359" style="stroke:none;stroke-width:1;" width="28" x="143.8789" y="358.375"/><line style="stroke:#ADFF2F;stroke-width:1;" x1="143.8789" x2="171.8789" y1="358.375" y2="358.375"/><line style="stroke:#ADFF2F;stroke-width:1;" x1="143.8789" x2="171.8789" y1="372.2109" y2="372.2109"/><line style="stroke:#ADFF2F;stroke-width:1;" x1="143.8789" x2="143.8789" y1="358.375" y2="372.2109"/><line style="stroke:#ADFF2F;stroke-width:1;" x1="171.8789" x2="171.8789" y1="358.375" y2="372.2109"/><text fill="#000000" font-family="sans-serif" font-size="11" lengthAdjust="spacing" textLength="148.5537" x="151.8789" y="60.4189">Syst&#232;me ACTUEL (48 heures)</text><text fill="#000000" font-family="sans-serif" font-size="11" lengthAdjust="spacing" textLength="66.6553" x="175.8789" y="86.2549">Client appelle</text><text fill="#000000" font-family="sans-serif" font-size="11" lengthAdjust="spacing" textLength="97.2114" x="175.8789" y="104.0908">Claire cherche infos</text><text fill="#000000" font-family="sans-serif" font-size="11" lengthAdjust="spacing" textLength="128.4121" x="175.8789" y="121.9268">Propose cr&#233;neau incertain</text><text fill="#000000" font-family="sans-serif" font-size="11" lengthAdjust="spacing" textLength="59.3076" x="175.8789" y="139.7627">Mail Ga&#235;tan</text><text fill="#000000" font-family="sans-serif" font-size="11" lengthAdjust="spacing" textLength="89.2515" x="175.8789" y="157.5986">ATTENTE Ga&#235;tan</text><text fill="#000000" font-family="sans-serif" font-size="11" lengthAdjust="spacing" textLength="73.3906" x="175.8789" y="175.4346">Ga&#235;tan r&#233;pond</text><text fill="#000000" font-family="sans-serif" font-size="11" lengthAdjust="spacing" textLength="117.4014" x="175.8789" y="193.2705">Appel client (r&#233;pondeur)</text><text fill="#000000" font-family="sans-serif" font-size="11" lengthAdjust="spacing" textLength="48.9038" x="175.8789" y="211.1064">Mail client</text><text fill="#000000" font-family="sans-serif" font-size="11" lengthAdjust="spacing" textLength="78.8477" x="175.8789" y="228.9424">ATTENTE client</text><text fill="#000000" font-family="sans-serif" font-size="11" lengthAdjust="spacing" textLength="84.3799" x="175.8789" y="246.7783">Client r&#233;pond OK</text><text fill="#000000" font-family="sans-serif" font-size="11" lengthAdjust="spacing" textLength="110.3599" x="175.8789" y="264.6143">Saisie Excel + Outlook</text><text fill="#000000" font-family="sans-serif" font-size="11" lengthAdjust="spacing" textLength="88.6392" x="175.8789" y="282.4502">Mails confirmation</text><text fill="#000000" font-family="sans-serif" font-size="11" lengthAdjust="spacing" textLength="135.7114" x="151.8789" y="308.2861">Syst&#232;me CIBLE (2 minutes)</text><text fill="#000000" font-family="sans-serif" font-size="11" lengthAdjust="spacing" textLength="79.4761" x="175.8789" y="334.1221">Client sur portail</text><text fill="#000000" font-family="sans-serif" font-size="11" lengthAdjust="spacing" textLength="105.7837" x="175.8789" y="351.958">Choisit cr&#233;neau dispo</text><text fill="#000000" font-family="sans-serif" font-size="11" lengthAdjust="spacing" textLength="125.9575" x="175.8789" y="369.7939">Confirmation automatique</text><text fill="#000000" font-family="sans-serif" font-size="10" lengthAdjust="spacing" textLength="13.8916" x="150.9331" y="384.5918">Mo</text><text fill="#000000" font-family="sans-serif" font-size="10" lengthAdjust="spacing" textLength="11.123" x="152.3174" y="398.5918">17</text><text fill="#000000" font-family="sans-serif" font-size="12" font-weight="bold" lengthAdjust="spacing" textLength="22.6699" x="146.5439" y="413.668">Nov</text><text fill="#000000" font-family="sans-serif" font-size="14" lengthAdjust="spacing" textLength="312.7578" x="1" y="429.7441">Syst&#232;me ACTUEL vs CIBLE - Prise de RDV Client</text><!--SRC=[VLJ1Rjf04BtlLymHL3cgaPCYJaaS9sqA0O51gg8UjlP0jZMxxkwQbdvHgtu6FzRPGDHWhpbOsBmtRsRUxiobiLpR5PVMib8BQKt62uISYs8BlvHQGu-nZ9TMA0cphR6xtsk4gpYT9qFO68W_N0yJ262YXQ4mXEdD0k92eBICJRJwYfc5vnm6Uczxvq4O1k4xneAWeTQ9-l24bKRJXI1WZtiLu6M9HO6VeU26H4AgRTi4XO5C5KfZ3a92h3Glc6DneH6o9zJq4B9KfY7ae_Zbg9zIKPkPtlsHo2l2CjIM2raJFKKybXvhBbT8sYDo7Exuxg_bTRLZo5_QLPec3sdIej10ZqMcc9F40GIgkLGohqaqq9Owt850jZ-Tpe5CXzgjLzJEEsNGFi3dpmjosXvlV1tqcNEuRuT2OVpHVnzVu_vAPbmOWP3ypAZ_Dp2kRA7KjvfQ6yalwVftW5mAlUPkKZq6rGbUgTTJkP_iJW_MGbQsDfIcqb0gTwCBln57XEDSTnfHVgAnLJ_yTC-wU8oV55bY_qzKBaofwhbRIEtvAUQLAy0hgzphzwgnRrff9yGlKURxrSec1VtEHxGpKHkd4PvHVz5PltEh1Joe3OJd4FO7KJI8BY1EKjT-r6MTkyaGZAfqXguRgyMNojNGPVTyms5QIIlME03trKb7NPWbBtz28ZT2Axbsk_X-CTgJuBsoirBPP_9555oJNpFKL1OiHkm6bxmgB8LcAXToDO1vUXlqsP26iE8hIhJKB5QKG6y7S3lz1m00]--></g></svg>