<svg xmlns="http://www.w3.org/2000/svg" xmlns:xlink="http://www.w3.org/1999/xlink" contentStyleType="text/css" height="834px" preserveAspectRatio="none" style="width:621px;height:834px;background:#FFFFFF;" version="1.1" viewBox="0 0 621 834" width="621px" zoomAndPan="magnify"><title>Appel Client - CIBLE (Odoo CRM + CTI)</title><defs/><g><text fill="#000000" font-family="sans-serif" font-size="14" font-weight="bold" lengthAdjust="spacing" textLength="260.1484" x="176.5769" y="29.5332">Appel Client - CIBLE (Odoo CRM + CTI)</text><rect fill="#FFFFFF" height="151.7578" style="stroke:#181818;stroke-width:1;" width="10" x="93.4307" y="215.5313"/><rect fill="#FFFFFF" height="60.7031" style="stroke:#181818;stroke-width:1;" width="10" x="268.3696" y="245.8828"/><rect fill="#FFFFFF" height="30.3516" style="stroke:#181818;stroke-width:1;" width="10" x="268.3696" y="441.9922"/><rect fill="#FFFFFF" height="47.5273" style="stroke:#181818;stroke-width:1;" width="10" x="268.3696" y="513.8711"/><line style="stroke:#181818;stroke-width:0.5;stroke-dasharray:5.0,5.0;" x1="25" x2="25" y1="138.8281" y2="734.8047"/><line style="stroke:#181818;stroke-width:0.5;stroke-dasharray:5.0,5.0;" x1="97.793" x2="97.793" y1="138.8281" y2="734.8047"/><line style="stroke:#181818;stroke-width:0.5;stroke-dasharray:5.0,5.0;" x1="273.0664" x2="273.0664" y1="138.8281" y2="734.8047"/><line style="stroke:#181818;stroke-width:0.5;stroke-dasharray:5.0,5.0;" x1="487.8984" x2="487.8984" y1="138.8281" y2="734.8047"/><text fill="#000000" font-family="sans-serif" font-size="14" lengthAdjust="spacing" textLength="35.793" x="5" y="135.752">Client</text><ellipse cx="25.8965" cy="69.7188" fill="#E2E2F0" rx="8" ry="8" style="stroke:#181818;stroke-width:0.5;"/><path d="M25.8965,77.7188 L25.8965,104.7188 M12.8965,85.7188 L38.8965,85.7188 M25.8965,104.7188 L12.8965,119.7188 M25.8965,104.7188 L38.8965,119.7188 " fill="none" style="stroke:#181818;stroke-width:0.5;"/><text fill="#000000" font-family="sans-serif" font-size="14" lengthAdjust="spacing" textLength="35.793" x="5" y="748.3379">Client</text><ellipse cx="25.8965" cy="759.9141" fill="#E2E2F0" rx="8" ry="8" style="stroke:#181818;stroke-width:0.5;"/><path d="M25.8965,767.9141 L25.8965,794.9141 M12.8965,775.9141 L38.8965,775.9141 M25.8965,794.9141 L12.8965,809.9141 M25.8965,794.9141 L38.8965,809.9141 " fill="none" style="stroke:#181818;stroke-width:0.5;"/><rect fill="#FFA500" height="49.2188" rx="2.5" ry="2.5" style="stroke:#181818;stroke-width:0.5;" width="83.2754" x="56.793" y="88.6094"/><text fill="#000000" font-family="sans-serif" font-size="14" lengthAdjust="spacing" textLength="69.2754" x="63.793" y="110.1426">T&#233;l&#233;phonie</text><text fill="#000000" font-family="sans-serif" font-size="14" lengthAdjust="spacing" textLength="31.876" x="82.4927" y="127.752">(CTI)</text><rect fill="#FFA500" height="49.2188" rx="2.5" ry="2.5" style="stroke:#181818;stroke-width:0.5;" width="83.2754" x="56.793" y="733.8047"/><text fill="#000000" font-family="sans-serif" font-size="14" lengthAdjust="spacing" textLength="69.2754" x="63.793" y="755.3379">T&#233;l&#233;phonie</text><text fill="#000000" font-family="sans-serif" font-size="14" lengthAdjust="spacing" textLength="31.876" x="82.4927" y="772.9473">(CTI)</text><rect fill="#87CEEB" height="49.2188" rx="2.5" ry="2.5" style="stroke:#181818;stroke-width:0.5;" width="120.6064" x="213.0664" y="88.6094"/><text fill="#000000" font-family="sans-serif" font-size="14" lengthAdjust="spacing" textLength="70.0205" x="238.3594" y="110.1426">Odoo CRM</text><text fill="#000000" font-family="sans-serif" font-size="14" lengthAdjust="spacing" textLength="106.6064" x="220.0664" y="127.752">(Remont&#233;e Auto)</text><rect fill="#87CEEB" height="49.2188" rx="2.5" ry="2.5" style="stroke:#181818;stroke-width:0.5;" width="120.6064" x="213.0664" y="733.8047"/><text fill="#000000" font-family="sans-serif" font-size="14" lengthAdjust="spacing" textLength="70.0205" x="238.3594" y="755.3379">Odoo CRM</text><text fill="#000000" font-family="sans-serif" font-size="14" lengthAdjust="spacing" textLength="106.6064" x="220.0664" y="772.9473">(Remont&#233;e Auto)</text><text fill="#000000" font-family="sans-serif" font-size="14" lengthAdjust="spacing" textLength="36.5654" x="467.4604" y="118.1426">Claire</text><text fill="#000000" font-family="sans-serif" font-size="14" lengthAdjust="spacing" textLength="95.6895" x="437.8984" y="135.752">(Service Client)</text><ellipse cx="488.7432" cy="52.1094" fill="#FFB6C1" rx="8" ry="8" style="stroke:#181818;stroke-width:0.5;"/><path d="M488.7432,60.1094 L488.7432,87.1094 M475.7432,68.1094 L501.7432,68.1094 M488.7432,87.1094 L475.7432,102.1094 M488.7432,87.1094 L501.7432,102.1094 " fill="none" style="stroke:#181818;stroke-width:0.5;"/><text fill="#000000" font-family="sans-serif" font-size="14" lengthAdjust="spacing" textLength="36.5654" x="467.4604" y="748.3379">Claire</text><text fill="#000000" font-family="sans-serif" font-size="14" lengthAdjust="spacing" textLength="95.6895" x="437.8984" y="765.9473">(Service Client)</text><ellipse cx="488.7432" cy="777.5234" fill="#FFB6C1" rx="8" ry="8" style="stroke:#181818;stroke-width:0.5;"/><path d="M488.7432,785.5234 L488.7432,812.5234 M475.7432,793.5234 L501.7432,793.5234 M488.7432,812.5234 L475.7432,827.5234 M488.7432,812.5234 L501.7432,827.5234 " fill="none" style="stroke:#181818;stroke-width:0.5;"/><rect fill="#FFFFFF" height="151.7578" style="stroke:#181818;stroke-width:1;" width="10" x="93.4307" y="215.5313"/><rect fill="#FFFFFF" height="60.7031" style="stroke:#181818;stroke-width:1;" width="10" x="268.3696" y="245.8828"/><rect fill="#FFFFFF" height="30.3516" style="stroke:#181818;stroke-width:1;" width="10" x="268.3696" y="441.9922"/><rect fill="#FFFFFF" height="47.5273" style="stroke:#181818;stroke-width:1;" width="10" x="268.3696" y="513.8711"/><rect fill="#EEEEEE" height="3" style="stroke:#EEEEEE;stroke-width:1;" width="614.3022" x="0" y="170.0039"/><line style="stroke:#000000;stroke-width:1;" x1="0" x2="614.3022" y1="170.0039" y2="170.0039"/><line style="stroke:#000000;stroke-width:1;" x1="0" x2="614.3022" y1="173.0039" y2="173.0039"/><rect fill="#EEEEEE" height="24.3516" style="stroke:#000000;stroke-width:2;" width="104.2891" x="255.0066" y="158.8281"/><text fill="#000000" font-family="sans-serif" font-size="13" font-weight="bold" lengthAdjust="spacing" textLength="86.6772" x="261.0066" y="176.3232">Client Appelle</text><polygon fill="#181818" points="81.4307,211.5313,91.4307,215.5313,81.4307,219.5313,85.4307,215.5313" style="stroke:#181818;stroke-width:1;"/><line style="stroke:#181818;stroke-width:1;" x1="25.8965" x2="87.4307" y1="215.5313" y2="215.5313"/><text fill="#000000" font-family="sans-serif" font-size="13" lengthAdjust="spacing" textLength="43.3672" x="32.8965" y="210.6748">Appelle</text><polygon fill="#181818" points="256.3696,241.8828,266.3696,245.8828,256.3696,249.8828,260.3696,245.8828" style="stroke:#181818;stroke-width:1;"/><line style="stroke:#181818;stroke-width:1;" x1="103.4307" x2="262.3696" y1="245.8828" y2="245.8828"/><text fill="#000000" font-family="sans-serif" font-size="13" lengthAdjust="spacing" textLength="145.939" x="110.4307" y="241.0264">Recherche Num&#233;ro (API)</text><polygon fill="#181818" points="114.4307,272.2344,104.4307,276.2344,114.4307,280.2344,110.4307,276.2344" style="stroke:#181818;stroke-width:1;"/><line style="stroke:#181818;stroke-width:1;stroke-dasharray:2.0,2.0;" x1="108.4307" x2="267.3696" y1="276.2344" y2="276.2344"/><text fill="#000000" font-family="sans-serif" font-size="13" lengthAdjust="spacing" textLength="119.939" x="120.4307" y="271.3779">Fiche Client Trouv&#233;e</text><polygon fill="#181818" points="476.7432,302.5859,486.7432,306.5859,476.7432,310.5859,480.7432,306.5859" style="stroke:#181818;stroke-width:1;"/><line style="stroke:#181818;stroke-width:1;" x1="273.3696" x2="482.7432" y1="306.5859" y2="306.5859"/><text fill="#000000" font-family="sans-serif" font-size="13" lengthAdjust="spacing" textLength="114.1689" x="280.3696" y="301.7295">Pop-up Fiche Client</text><polygon fill="#181818" points="476.7432,332.9375,486.7432,336.9375,476.7432,340.9375,480.7432,336.9375" style="stroke:#181818;stroke-width:1;"/><line style="stroke:#181818;stroke-width:1;" x1="103.4307" x2="482.7432" y1="336.9375" y2="336.9375"/><text fill="#000000" font-family="sans-serif" font-size="13" lengthAdjust="spacing" textLength="131.1489" x="110.4307" y="332.0811">Sonnerie + Nom Client</text><polygon fill="#181818" points="109.4307,363.2891,99.4307,367.2891,109.4307,371.2891,105.4307,367.2891" style="stroke:#181818;stroke-width:1;"/><line style="stroke:#181818;stroke-width:1;" x1="103.4307" x2="487.7432" y1="367.2891" y2="367.2891"/><text fill="#000000" font-family="sans-serif" font-size="13" lengthAdjust="spacing" textLength="55.6372" x="115.4307" y="362.4326">D&#233;croche</text><rect fill="#EEEEEE" height="3" style="stroke:#EEEEEE;stroke-width:1;" width="614.3022" x="0" y="396.4648"/><line style="stroke:#000000;stroke-width:1;" x1="0" x2="614.3022" y1="396.4648" y2="396.4648"/><line style="stroke:#000000;stroke-width:1;" x1="0" x2="614.3022" y1="399.4648" y2="399.4648"/><rect fill="#EEEEEE" height="24.3516" style="stroke:#000000;stroke-width:2;" width="146.2026" x="234.0498" y="385.2891"/><text fill="#000000" font-family="sans-serif" font-size="13" font-weight="bold" lengthAdjust="spacing" textLength="128.5908" x="240.0498" y="402.7842">Traitement Demande</text><polygon fill="#181818" points="289.3696,437.9922,279.3696,441.9922,289.3696,445.9922,285.3696,441.9922" style="stroke:#181818;stroke-width:1;"/><line style="stroke:#181818;stroke-width:1;" x1="283.3696" x2="487.7432" y1="441.9922" y2="441.9922"/><text fill="#000000" font-family="sans-serif" font-size="13" lengthAdjust="spacing" textLength="113.4453" x="295.3696" y="437.1357">Consulte Historique</text><polygon fill="#181818" points="476.7432,468.3438,486.7432,472.3438,476.7432,476.3438,480.7432,472.3438" style="stroke:#181818;stroke-width:1;"/><line style="stroke:#181818;stroke-width:1;stroke-dasharray:2.0,2.0;" x1="273.3696" x2="482.7432" y1="472.3438" y2="472.3438"/><text fill="#000000" font-family="sans-serif" font-size="13" lengthAdjust="spacing" textLength="186.3735" x="280.3696" y="467.4873">Derniers Tickets, RDV, Factures</text><polygon fill="#181818" points="289.3696,509.8711,279.3696,513.8711,289.3696,517.8711,285.3696,513.8711" style="stroke:#181818;stroke-width:1;"/><line style="stroke:#181818;stroke-width:1;" x1="283.3696" x2="487.7432" y1="513.8711" y2="513.8711"/><text fill="#000000" font-family="sans-serif" font-size="13" lengthAdjust="spacing" textLength="114.8481" x="295.3696" y="509.0146">Cr&#233;&#233; Ticket (3 clics)</text><path d="M493,485.3438 L493,527.3438 L603,527.3438 L603,495.3438 L593,485.3438 L493,485.3438 " fill="#E8F5E9" style="stroke:#181818;stroke-width:0.5;"/><path d="M593,485.3438 L593,495.3438 L603,495.3438 L593,485.3438 " fill="#E8F5E9" style="stroke:#181818;stroke-width:0.5;"/><text fill="#000000" font-family="sans-serif" font-size="13" font-weight="bold" lengthAdjust="spacing" textLength="89.5591" x="499" y="503.8389">Plus de post-it</text><text fill="#000000" font-family="sans-serif" font-size="13" lengthAdjust="spacing" textLength="79.479" x="499" y="520.1904">Tout est trac&#233;</text><line style="stroke:#181818;stroke-width:1;" x1="278.3696" x2="320.3696" y1="560.3984" y2="560.3984"/><line style="stroke:#181818;stroke-width:1;" x1="320.3696" x2="320.3696" y1="560.3984" y2="573.3984"/><line style="stroke:#181818;stroke-width:1;" x1="273.3696" x2="320.3696" y1="573.3984" y2="573.3984"/><polygon fill="#181818" points="283.3696,569.3984,273.3696,573.3984,283.3696,577.3984,279.3696,573.3984" style="stroke:#181818;stroke-width:1;"/><text fill="#000000" font-family="sans-serif" font-size="13" lengthAdjust="spacing" textLength="117.7681" x="285.3696" y="555.542">Notif Email Manager</text><polygon fill="#181818" points="36.8965,594.75,26.8965,598.75,36.8965,602.75,32.8965,598.75" style="stroke:#181818;stroke-width:1;"/><line style="stroke:#181818;stroke-width:1;" x1="30.8965" x2="487.7432" y1="598.75" y2="598.75"/><text fill="#000000" font-family="sans-serif" font-size="13" lengthAdjust="spacing" textLength="163.8838" x="42.8965" y="593.8936">"On vous rappelle sous 24h"</text><rect fill="#EEEEEE" height="3" style="stroke:#EEEEEE;stroke-width:1;" width="614.3022" x="0" y="627.9258"/><line style="stroke:#000000;stroke-width:1;" x1="0" x2="614.3022" y1="627.9258" y2="627.9258"/><line style="stroke:#000000;stroke-width:1;" x1="0" x2="614.3022" y1="630.9258" y2="630.9258"/><rect fill="#EEEEEE" height="24.3516" style="stroke:#000000;stroke-width:2;" width="112.2236" x="251.0393" y="616.75"/><text fill="#000000" font-family="sans-serif" font-size="13" font-weight="bold" lengthAdjust="spacing" textLength="94.6118" x="257.0393" y="634.2451">Automatisation</text><line style="stroke:#181818;stroke-width:1;" x1="273.3696" x2="315.3696" y1="673.4531" y2="673.4531"/><line style="stroke:#181818;stroke-width:1;" x1="315.3696" x2="315.3696" y1="673.4531" y2="686.4531"/><line style="stroke:#181818;stroke-width:1;" x1="274.3696" x2="315.3696" y1="686.4531" y2="686.4531"/><polygon fill="#181818" points="284.3696,682.4531,274.3696,686.4531,284.3696,690.4531,280.3696,686.4531" style="stroke:#181818;stroke-width:1;"/><text fill="#000000" font-family="sans-serif" font-size="13" lengthAdjust="spacing" textLength="182.457" x="280.3696" y="668.5967">Relance Auto J+1 (si non trait&#233;)</text><polygon fill="#181818" points="36.8965,712.8047,26.8965,716.8047,36.8965,720.8047,32.8965,716.8047" style="stroke:#181818;stroke-width:1;"/><line style="stroke:#181818;stroke-width:1;" x1="30.8965" x2="272.3696" y1="716.8047" y2="716.8047"/><text fill="#000000" font-family="sans-serif" font-size="13" lengthAdjust="spacing" textLength="148.0972" x="42.8965" y="711.9482">Email Confirmation Ticket</text><!--SRC=[VLDBRjim4Dtp50Dx8pinaBHDcnfm05kMqHIDQoX2LzqGyYGUL29LalATT0vTh4DHYkC6xOA0HCwRz-7GaIiGbbM51SG5eN8mW_X-zIs1wFjUQuZJ1xY0EBkV225pfmsCGjq8fEqXefB6KKwLPFWeQvkYRQg3LeG_LUIXNUsETn36cytovkhg738mSNcAfLQkRLXKxNH0TiVZsqznagnE8YGPt_yHpP5oxALCUbd-q7EjFiRNGYmMWxdEAJjUB8GO_Du5QVFXq5FGKJeC-o88vpAlOmufvWSql61RbsrZD4JB7SVpWl9bejCyE_NUa4Vqb9dHzP4zzbLtlU0vx7GrgwkpOh77yyudFGFgKIk5Xf0lQglB0TU7S9AmRflSQExykcMmw1FAZ2I7fTUtnbAg_P3Iq2ROZxMoTS78BsJv9kXtZV-oFkXRe-5PC1Oood-XivUGhdzSmePXjK7xrk4RJjCsRTF38NeFUK6v_JjofVdBqFF1mJYvtTmadmN0TBehQWjifjBMpSXDfxoRwTe1MWVEoBnj1AezUBXukP50lDMEdY0f9HNm89LyHlC_jI7vEG-qWgDcMYFxURF-xzs7mwYBsezsAHrPNbfrCP_pfbX8bOSt05ylhY6on0ALrqlyEYQl9YTG1eryEKzaoj0sn2N-0000]--></g></svg>