<svg xmlns="http://www.w3.org/2000/svg" xmlns:xlink="http://www.w3.org/1999/xlink" contentStyleType="text/css" height="1854px" preserveAspectRatio="none" style="width:986px;height:1854px;background:#FFFFFF;" version="1.1" viewBox="0 0 986 1854" width="986px" zoomAndPan="magnify"><title>Processus Appel Client - &#201;TAT ACTUEL (Syst&#232;me Post-it)</title><defs/><g><text fill="#000000" font-family="sans-serif" font-size="14" font-weight="bold" lengthAdjust="spacing" textLength="384.2822" x="297.1855" y="29.5332">Processus Appel Client - &#201;TAT ACTUEL (Syst&#232;me Post-it)</text><line style="stroke:#181818;stroke-width:0.5;stroke-dasharray:5.0,5.0;" x1="82" x2="82" y1="138.8281" y2="1754.5156"/><line style="stroke:#181818;stroke-width:0.5;stroke-dasharray:5.0,5.0;" x1="335.6626" x2="335.6626" y1="138.8281" y2="1754.5156"/><line style="stroke:#181818;stroke-width:0.5;stroke-dasharray:5.0,5.0;" x1="474.1079" x2="474.1079" y1="138.8281" y2="1754.5156"/><line style="stroke:#181818;stroke-width:0.5;stroke-dasharray:5.0,5.0;" x1="552.1353" x2="552.1353" y1="138.8281" y2="1754.5156"/><line style="stroke:#181818;stroke-width:0.5;stroke-dasharray:5.0,5.0;" x1="627.811" x2="627.811" y1="138.8281" y2="1754.5156"/><line style="stroke:#181818;stroke-width:0.5;stroke-dasharray:5.0,5.0;" x1="703.5972" x2="703.5972" y1="138.8281" y2="1754.5156"/><line style="stroke:#181818;stroke-width:0.5;stroke-dasharray:5.0,5.0;" x1="764.5005" x2="764.5005" y1="138.8281" y2="1754.5156"/><line style="stroke:#181818;stroke-width:0.5;stroke-dasharray:5.0,5.0;" x1="829.7349" x2="829.7349" y1="138.8281" y2="1754.5156"/><text fill="#000000" font-family="sans-serif" font-size="14" lengthAdjust="spacing" textLength="35.793" x="61.3965" y="118.1426">Client</text><text fill="#000000" font-family="sans-serif" font-size="14" lengthAdjust="spacing" textLength="64.5859" x="47" y="135.752">M. Dupont</text><ellipse cx="82.293" cy="52.1094" fill="#FFB6C1" rx="8" ry="8" style="stroke:#181818;stroke-width:0.5;"/><path d="M82.293,60.1094 L82.293,87.1094 M69.293,68.1094 L95.293,68.1094 M82.293,87.1094 L69.293,102.1094 M82.293,87.1094 L95.293,102.1094 " fill="none" style="stroke:#181818;stroke-width:0.5;"/><text fill="#000000" font-family="sans-serif" font-size="14" lengthAdjust="spacing" textLength="35.793" x="61.3965" y="1768.0488">Client</text><text fill="#000000" font-family="sans-serif" font-size="14" lengthAdjust="spacing" textLength="64.5859" x="47" y="1785.6582">M. Dupont</text><ellipse cx="82.293" cy="1797.2344" fill="#FFB6C1" rx="8" ry="8" style="stroke:#181818;stroke-width:0.5;"/><path d="M82.293,1805.2344 L82.293,1832.2344 M69.293,1813.2344 L95.293,1813.2344 M82.293,1832.2344 L69.293,1847.2344 M82.293,1832.2344 L95.293,1847.2344 " fill="none" style="stroke:#181818;stroke-width:0.5;"/><text fill="#000000" font-family="sans-serif" font-size="14" lengthAdjust="spacing" textLength="36.5654" x="315.335" y="118.1426">Claire</text><text fill="#000000" font-family="sans-serif" font-size="14" lengthAdjust="spacing" textLength="73.9102" x="296.6626" y="135.752">(Assistante)</text><ellipse cx="336.6177" cy="52.1094" fill="#ADD8E6" rx="8" ry="8" style="stroke:#181818;stroke-width:0.5;"/><path d="M336.6177,60.1094 L336.6177,87.1094 M323.6177,68.1094 L349.6177,68.1094 M336.6177,87.1094 L323.6177,102.1094 M336.6177,87.1094 L349.6177,102.1094 " fill="none" style="stroke:#181818;stroke-width:0.5;"/><text fill="#000000" font-family="sans-serif" font-size="14" lengthAdjust="spacing" textLength="36.5654" x="315.335" y="1768.0488">Claire</text><text fill="#000000" font-family="sans-serif" font-size="14" lengthAdjust="spacing" textLength="73.9102" x="296.6626" y="1785.6582">(Assistante)</text><ellipse cx="336.6177" cy="1797.2344" fill="#ADD8E6" rx="8" ry="8" style="stroke:#181818;stroke-width:0.5;"/><path d="M336.6177,1805.2344 L336.6177,1832.2344 M323.6177,1813.2344 L349.6177,1813.2344 M336.6177,1832.2344 L323.6177,1847.2344 M336.6177,1832.2344 L349.6177,1847.2344 " fill="none" style="stroke:#181818;stroke-width:0.5;"/><text fill="#000000" font-family="sans-serif" font-size="14" lengthAdjust="spacing" textLength="45.9238" x="448.6597" y="118.1426">Ga&#235;tan</text><text fill="#000000" font-family="sans-serif" font-size="14" lengthAdjust="spacing" textLength="77.0273" x="433.1079" y="135.752">(Technicien)</text><ellipse cx="474.6216" cy="52.1094" fill="#98FB98" rx="8" ry="8" style="stroke:#181818;stroke-width:0.5;"/><path d="M474.6216,60.1094 L474.6216,87.1094 M461.6216,68.1094 L487.6216,68.1094 M474.6216,87.1094 L461.6216,102.1094 M474.6216,87.1094 L487.6216,102.1094 " fill="none" style="stroke:#181818;stroke-width:0.5;"/><text fill="#000000" font-family="sans-serif" font-size="14" lengthAdjust="spacing" textLength="45.9238" x="448.6597" y="1768.0488">Ga&#235;tan</text><text fill="#000000" font-family="sans-serif" font-size="14" lengthAdjust="spacing" textLength="77.0273" x="433.1079" y="1785.6582">(Technicien)</text><ellipse cx="474.6216" cy="1797.2344" fill="#98FB98" rx="8" ry="8" style="stroke:#181818;stroke-width:0.5;"/><path d="M474.6216,1805.2344 L474.6216,1832.2344 M461.6216,1813.2344 L487.6216,1813.2344 M474.6216,1832.2344 L461.6216,1847.2344 M474.6216,1832.2344 L487.6216,1847.2344 " fill="none" style="stroke:#181818;stroke-width:0.5;"/><rect fill="#FFD700" height="31.6094" rx="2.5" ry="2.5" style="stroke:#181818;stroke-width:0.5;" width="53.6758" x="526.1353" y="106.2188"/><text fill="#000000" font-family="sans-serif" font-size="14" lengthAdjust="spacing" textLength="39.6758" x="533.1353" y="127.752">Post-it</text><rect fill="#FFD700" height="31.6094" rx="2.5" ry="2.5" style="stroke:#181818;stroke-width:0.5;" width="53.6758" x="526.1353" y="1753.5156"/><text fill="#000000" font-family="sans-serif" font-size="14" lengthAdjust="spacing" textLength="39.6758" x="533.1353" y="1775.0488">Post-it</text><rect fill="#FF6B6B" height="31.6094" rx="2.5" ry="2.5" style="stroke:#181818;stroke-width:0.5;" width="77.7861" x="589.811" y="106.2188"/><text fill="#000000" font-family="sans-serif" font-size="14" lengthAdjust="spacing" textLength="63.7861" x="596.811" y="127.752">MDE ERP</text><rect fill="#FF6B6B" height="31.6094" rx="2.5" ry="2.5" style="stroke:#181818;stroke-width:0.5;" width="77.7861" x="589.811" y="1753.5156"/><text fill="#000000" font-family="sans-serif" font-size="14" lengthAdjust="spacing" textLength="63.7861" x="596.811" y="1775.0488">MDE ERP</text><rect fill="#FF6B6B" height="31.6094" rx="2.5" ry="2.5" style="stroke:#181818;stroke-width:0.5;" width="52.9033" x="677.5972" y="106.2188"/><text fill="#000000" font-family="sans-serif" font-size="14" lengthAdjust="spacing" textLength="38.9033" x="684.5972" y="127.752">SAGE</text><rect fill="#FF6B6B" height="31.6094" rx="2.5" ry="2.5" style="stroke:#181818;stroke-width:0.5;" width="52.9033" x="677.5972" y="1753.5156"/><text fill="#000000" font-family="sans-serif" font-size="14" lengthAdjust="spacing" textLength="38.9033" x="684.5972" y="1775.0488">SAGE</text><rect fill="#FFD700" height="31.6094" rx="2.5" ry="2.5" style="stroke:#181818;stroke-width:0.5;" width="48.2344" x="740.5005" y="106.2188"/><text fill="#000000" font-family="sans-serif" font-size="14" lengthAdjust="spacing" textLength="34.2344" x="747.5005" y="127.752">Excel</text><rect fill="#FFD700" height="31.6094" rx="2.5" ry="2.5" style="stroke:#181818;stroke-width:0.5;" width="48.2344" x="740.5005" y="1753.5156"/><text fill="#000000" font-family="sans-serif" font-size="14" lengthAdjust="spacing" textLength="34.2344" x="747.5005" y="1775.0488">Excel</text><rect fill="#E2E2F0" height="31.6094" rx="2.5" ry="2.5" style="stroke:#181818;stroke-width:0.5;" width="62.248" x="798.7349" y="106.2188"/><text fill="#000000" font-family="sans-serif" font-size="14" lengthAdjust="spacing" textLength="48.248" x="805.7349" y="127.752">Outlook</text><rect fill="#E2E2F0" height="31.6094" rx="2.5" ry="2.5" style="stroke:#181818;stroke-width:0.5;" width="62.248" x="798.7349" y="1753.5156"/><text fill="#000000" font-family="sans-serif" font-size="14" lengthAdjust="spacing" textLength="48.248" x="805.7349" y="1775.0488">Outlook</text><rect fill="#EEEEEE" height="3" style="stroke:#EEEEEE;stroke-width:1;" width="979.6533" x="0" y="170.0039"/><line style="stroke:#000000;stroke-width:1;" x1="0" x2="979.6533" y1="170.0039" y2="170.0039"/><line style="stroke:#000000;stroke-width:1;" x1="0" x2="979.6533" y1="173.0039" y2="173.0039"/><rect fill="#EEEEEE" height="24.3516" style="stroke:#000000;stroke-width:2;" width="183.7363" x="397.9585" y="158.8281"/><text fill="#000000" font-family="sans-serif" font-size="13" font-weight="bold" lengthAdjust="spacing" textLength="166.1245" x="403.9585" y="176.3232">LUNDI 9:15 - Appel Entrant</text><path d="M5,198.1797 L5,240.1797 L159,240.1797 L159,208.1797 L149,198.1797 L5,198.1797 " fill="#FFAAAA" style="stroke:#181818;stroke-width:0.5;"/><path d="M149,198.1797 L149,208.1797 L159,208.1797 L149,198.1797 " fill="#FFAAAA" style="stroke:#181818;stroke-width:0.5;"/><text fill="#000000" font-family="sans-serif" font-size="13" font-weight="bold" lengthAdjust="spacing" textLength="124.2681" x="11" y="216.6748">Probl&#232;me &#233;lectrique</text><text fill="#000000" font-family="sans-serif" font-size="13" lengthAdjust="spacing" textLength="133.7007" x="11" y="233.0264">Tableau dysfonctionnel</text><polygon fill="#181818" points="324.6177,264.2344,334.6177,268.2344,324.6177,272.2344,328.6177,268.2344" style="stroke:#181818;stroke-width:1;"/><line style="stroke:#181818;stroke-width:1;" x1="82.293" x2="330.6177" y1="268.2344" y2="268.2344"/><text fill="#000000" font-family="sans-serif" font-size="13" lengthAdjust="spacing" textLength="127.9307" x="89.293" y="263.3779">&#128222; Appel t&#233;l&#233;phonique</text><path d="M244,281.2344 L244,323.2344 L427,323.2344 L427,291.2344 L417,281.2344 L244,281.2344 " fill="#FF6B6B" style="stroke:#181818;stroke-width:0.5;"/><path d="M417,281.2344 L417,291.2344 L427,291.2344 L417,281.2344 " fill="#FF6B6B" style="stroke:#181818;stroke-width:0.5;"/><text fill="#000000" font-family="sans-serif" font-size="13" lengthAdjust="spacing" textLength="11.1973" x="250" y="299.7295">&#128308;</text><text fill="#000000" font-family="sans-serif" font-size="13" font-weight="bold" lengthAdjust="spacing" textLength="81.6182" x="264.8091" y="299.7295">PAS DE CRM</text><text fill="#000000" font-family="sans-serif" font-size="13" lengthAdjust="spacing" textLength="162.6079" x="250" y="316.0811">Aucune remont&#233;e fiche auto</text><polygon fill="#181818" points="540.9731,358.4648,550.9731,362.4648,540.9731,366.4648,544.9731,362.4648" style="stroke:#181818;stroke-width:1;"/><line style="stroke:#181818;stroke-width:1;" x1="336.6177" x2="546.9731" y1="362.4648" y2="362.4648"/><text fill="#000000" font-family="sans-serif" font-size="13" lengthAdjust="spacing" textLength="127.1689" x="343.6177" y="357.6084">Cherche post-it vierge</text><path d="M557,333.9375 L557,375.9375 L701,375.9375 L701,343.9375 L691,333.9375 L557,333.9375 " fill="#FF6B6B" style="stroke:#181818;stroke-width:0.5;"/><path d="M691,333.9375 L691,343.9375 L701,343.9375 L691,333.9375 " fill="#FF6B6B" style="stroke:#181818;stroke-width:0.5;"/><text fill="#000000" font-family="sans-serif" font-size="13" lengthAdjust="spacing" textLength="90.3335" x="563" y="352.4326">&#9200; 30 secondes</text><text fill="#000000" font-family="sans-serif" font-size="13" lengthAdjust="spacing" textLength="123.208" x="563" y="368.7842">&#128308; Risque perte &#233;lev&#233;</text><polygon fill="#181818" points="540.9731,419.3438,550.9731,423.3438,540.9731,427.3438,544.9731,423.3438" style="stroke:#181818;stroke-width:1;"/><line style="stroke:#181818;stroke-width:1;" x1="336.6177" x2="546.9731" y1="423.3438" y2="423.3438"/><text fill="#000000" font-family="sans-serif" font-size="13" lengthAdjust="spacing" textLength="160.9956" x="343.6177" y="418.4873">Note "M Dupont pb tableau"</text><path d="M557,386.6406 L557,445.6406 L750,445.6406 L750,396.6406 L740,386.6406 L557,386.6406 " fill="#FF6B6B" style="stroke:#181818;stroke-width:0.5;"/><path d="M740,386.6406 L740,396.6406 L750,396.6406 L740,386.6406 " fill="#FF6B6B" style="stroke:#181818;stroke-width:0.5;"/><text fill="#000000" font-family="sans-serif" font-size="13" lengthAdjust="spacing" textLength="11.1973" x="563" y="405.1357">&#128308;</text><text fill="#000000" font-family="sans-serif" font-size="13" font-weight="bold" lengthAdjust="spacing" textLength="158.1899" x="577.8091" y="405.1357">Informations incompl&#232;tes</text><text fill="#000000" font-family="sans-serif" font-size="13" lengthAdjust="spacing" textLength="117.2349" x="563" y="421.4873">Pas de n&#176; t&#233;l&#233;phone</text><text fill="#000000" font-family="sans-serif" font-size="13" lengthAdjust="spacing" textLength="81.9736" x="563" y="437.8389">Pas d'adresse</text><polygon fill="#181818" points="616.7041,469.0469,626.7041,473.0469,616.7041,477.0469,620.7041,473.0469" style="stroke:#181818;stroke-width:1;"/><line style="stroke:#181818;stroke-width:1;" x1="336.6177" x2="622.7041" y1="473.0469" y2="473.0469"/><text fill="#000000" font-family="sans-serif" font-size="13" lengthAdjust="spacing" textLength="83.0781" x="343.6177" y="468.1904">Ouvre... ferme</text><polygon fill="#181818" points="692.0488,499.3984,702.0488,503.3984,692.0488,507.3984,696.0488,503.3984" style="stroke:#181818;stroke-width:1;"/><line style="stroke:#181818;stroke-width:1;" x1="336.6177" x2="698.0488" y1="503.3984" y2="503.3984"/><text fill="#000000" font-family="sans-serif" font-size="13" lengthAdjust="spacing" textLength="83.0781" x="343.6177" y="498.542">Ouvre... ferme</text><polygon fill="#181818" points="752.6177,540.9258,762.6177,544.9258,752.6177,548.9258,756.6177,544.9258" style="stroke:#181818;stroke-width:1;"/><line style="stroke:#181818;stroke-width:1;" x1="336.6177" x2="758.6177" y1="544.9258" y2="544.9258"/><text fill="#000000" font-family="sans-serif" font-size="13" lengthAdjust="spacing" textLength="67.2026" x="343.6177" y="540.0693">Ouvre enfin</text><path d="M769,516.3984 L769,558.3984 L942,558.3984 L942,526.3984 L932,516.3984 L769,516.3984 " fill="#FF6B6B" style="stroke:#181818;stroke-width:0.5;"/><path d="M932,516.3984 L932,526.3984 L942,526.3984 L932,516.3984 " fill="#FF6B6B" style="stroke:#181818;stroke-width:0.5;"/><text fill="#000000" font-family="sans-serif" font-size="13" lengthAdjust="spacing" textLength="11.1973" x="775" y="534.8936">&#128308;</text><text fill="#000000" font-family="sans-serif" font-size="13" font-weight="bold" lengthAdjust="spacing" textLength="126.439" x="789.8091" y="534.8936">Donn&#233;es &#233;parpill&#233;es</text><text fill="#000000" font-family="sans-serif" font-size="13" lengthAdjust="spacing" textLength="152.4644" x="775" y="551.2451">&#9200; 5 minutes de recherche</text><polygon fill="#181818" points="692.0488,593.6289,702.0488,597.6289,692.0488,601.6289,696.0488,597.6289" style="stroke:#181818;stroke-width:1;"/><line style="stroke:#181818;stroke-width:1;" x1="336.6177" x2="698.0488" y1="597.6289" y2="597.6289"/><text fill="#000000" font-family="sans-serif" font-size="13" lengthAdjust="spacing" textLength="74.4199" x="343.6177" y="592.7725">Trouve client</text><path d="M709,569.1016 L709,611.1016 L880,611.1016 L880,579.1016 L870,569.1016 L709,569.1016 " fill="#FFD700" style="stroke:#181818;stroke-width:0.5;"/><path d="M870,569.1016 L870,579.1016 L880,579.1016 L870,569.1016 " fill="#FFD700" style="stroke:#181818;stroke-width:0.5;"/><text fill="#000000" font-family="sans-serif" font-size="13" lengthAdjust="spacing" textLength="142.3335" x="715" y="587.5967">&#9888;&#65039; Historique incomplet</text><text fill="#000000" font-family="sans-serif" font-size="13" lengthAdjust="spacing" textLength="150.6235" x="715" y="603.9482">&#10060; Pas d'historique appels</text><polygon fill="#181818" points="93.293,635.1563,83.293,639.1563,93.293,643.1563,89.293,639.1563" style="stroke:#181818;stroke-width:1;"/><line style="stroke:#181818;stroke-width:1;" x1="87.293" x2="335.6177" y1="639.1563" y2="639.1563"/><text fill="#000000" font-family="sans-serif" font-size="13" lengthAdjust="spacing" textLength="145.7993" x="99.293" y="634.2998">"Je vous rappelle ce soir"</text><path d="M222,652.1563 L222,694.1563 L449,694.1563 L449,662.1563 L439,652.1563 L222,652.1563 " fill="#FF6B6B" style="stroke:#181818;stroke-width:0.5;"/><path d="M439,652.1563 L439,662.1563 L449,662.1563 L439,652.1563 " fill="#FF6B6B" style="stroke:#181818;stroke-width:0.5;"/><text fill="#000000" font-family="sans-serif" font-size="13" lengthAdjust="spacing" textLength="11.1973" x="228" y="670.6514">&#128308;</text><text fill="#000000" font-family="sans-serif" font-size="13" font-weight="bold" lengthAdjust="spacing" textLength="192.1626" x="242.8091" y="670.6514">Pas de confirmation imm&#233;diate</text><text fill="#000000" font-family="sans-serif" font-size="13" lengthAdjust="spacing" textLength="106.2344" x="228" y="687.0029">D&#233;lai inacceptable</text><path d="M216,704.8594 L216,730.8594 L455,730.8594 L455,714.8594 L445,704.8594 L216,704.8594 " fill="#FEFFDD" style="stroke:#181818;stroke-width:0.5;"/><path d="M445,704.8594 L445,714.8594 L455,714.8594 L445,704.8594 " fill="#FEFFDD" style="stroke:#181818;stroke-width:0.5;"/><text fill="#000000" font-family="sans-serif" font-size="13" lengthAdjust="spacing" textLength="218.3784" x="222" y="723.3545">&#128560; "J'esp&#232;re que je vais pas oublier..."</text><rect fill="#EEEEEE" height="3" style="stroke:#EEEEEE;stroke-width:1;" width="979.6533" x="0" y="757.3867"/><line style="stroke:#000000;stroke-width:1;" x1="0" x2="979.6533" y1="757.3867" y2="757.3867"/><line style="stroke:#000000;stroke-width:1;" x1="0" x2="979.6533" y1="760.3867" y2="760.3867"/><rect fill="#EEEEEE" height="24.3516" style="stroke:#000000;stroke-width:2;" width="243.7407" x="367.9563" y="746.2109"/><text fill="#000000" font-family="sans-serif" font-size="13" font-weight="bold" lengthAdjust="spacing" textLength="226.1289" x="373.9563" y="763.7061">LUNDI 10:45 - Recherche Technicien</text><polygon fill="#181818" points="462.6216,798.9141,472.6216,802.9141,462.6216,806.9141,466.6216,802.9141" style="stroke:#181818;stroke-width:1;"/><line style="stroke:#181818;stroke-width:1;" x1="336.6177" x2="468.6216" y1="802.9141" y2="802.9141"/><text fill="#000000" font-family="sans-serif" font-size="13" lengthAdjust="spacing" textLength="49.8608" x="343.6177" y="798.0576">&#128222; Appel</text><line style="stroke:#181818;stroke-width:2;" x1="343.6177" x2="353.6177" y1="839.4414" y2="849.4414"/><line style="stroke:#181818;stroke-width:2;" x1="343.6177" x2="353.6177" y1="849.4414" y2="839.4414"/><line style="stroke:#181818;stroke-width:1;" x1="348.6177" x2="473.6216" y1="844.4414" y2="844.4414"/><text fill="#000000" font-family="sans-serif" font-size="13" lengthAdjust="spacing" textLength="91.0635" x="353.6177" y="839.585">Pas de r&#233;ponse</text><path d="M479,815.9141 L479,857.9141 L623,857.9141 L623,825.9141 L613,815.9141 L479,815.9141 " fill="#FF6B6B" style="stroke:#181818;stroke-width:0.5;"/><path d="M613,815.9141 L613,825.9141 L623,825.9141 L613,815.9141 " fill="#FF6B6B" style="stroke:#181818;stroke-width:0.5;"/><text fill="#000000" font-family="sans-serif" font-size="13" lengthAdjust="spacing" textLength="105.8599" x="485" y="834.4092">&#128308; Sur intervention</text><text fill="#000000" font-family="sans-serif" font-size="13" lengthAdjust="spacing" textLength="123.5635" x="485" y="850.7607">&#9200; 2 minutes perdues</text><polygon fill="#181818" points="462.6216,893.1445,472.6216,897.1445,462.6216,901.1445,466.6216,897.1445" style="stroke:#181818;stroke-width:1;"/><line style="stroke:#181818;stroke-width:1;" x1="336.6177" x2="468.6216" y1="897.1445" y2="897.1445"/><text fill="#000000" font-family="sans-serif" font-size="13" lengthAdjust="spacing" textLength="44.7827" x="343.6177" y="892.2881">&#128172; SMS</text><path d="M479,868.6172 L479,910.6172 L705,910.6172 L705,878.6172 L695,868.6172 L479,868.6172 " fill="#FF6B6B" style="stroke:#181818;stroke-width:0.5;"/><path d="M695,868.6172 L695,878.6172 L705,878.6172 L695,868.6172 " fill="#FF6B6B" style="stroke:#181818;stroke-width:0.5;"/><text fill="#000000" font-family="sans-serif" font-size="13" lengthAdjust="spacing" textLength="11.1973" x="485" y="887.1123">&#128308;</text><text fill="#000000" font-family="sans-serif" font-size="13" font-weight="bold" lengthAdjust="spacing" textLength="157.5234" x="499.8091" y="887.1123">Pas de syst&#232;me structur&#233;</text><text fill="#000000" font-family="sans-serif" font-size="13" lengthAdjust="spacing" textLength="205.8164" x="485" y="903.4639">"Client Dupont pb tableau peux tu?"</text><path d="M245,921.3203 L245,963.3203 L427,963.3203 L427,931.3203 L417,921.3203 L245,921.3203 " fill="#FEFFDD" style="stroke:#181818;stroke-width:0.5;"/><path d="M417,921.3203 L417,931.3203 L427,931.3203 L417,921.3203 " fill="#FEFFDD" style="stroke:#181818;stroke-width:0.5;"/><text fill="#000000" font-family="sans-serif" font-size="13" lengthAdjust="spacing" textLength="13" x="251" y="939.8154">&#9200;</text><text fill="#000000" font-family="sans-serif" font-size="13" font-weight="bold" lengthAdjust="spacing" textLength="145.1646" x="267.6118" y="939.8154">ATTENTE... ATTENTE...</text><text fill="#000000" font-family="sans-serif" font-size="13" lengthAdjust="spacing" textLength="161.8652" x="251" y="956.167">Aucune notification syst&#232;me</text><rect fill="#EEEEEE" height="3" style="stroke:#EEEEEE;stroke-width:1;" width="979.6533" x="0" y="990.1992"/><line style="stroke:#000000;stroke-width:1;" x1="0" x2="979.6533" y1="990.1992" y2="990.1992"/><line style="stroke:#000000;stroke-width:1;" x1="0" x2="979.6533" y1="993.1992" y2="993.1992"/><rect fill="#EEEEEE" height="24.3516" style="stroke:#000000;stroke-width:2;" width="240.0908" x="369.7813" y="979.0234"/><text fill="#000000" font-family="sans-serif" font-size="13" font-weight="bold" lengthAdjust="spacing" textLength="222.479" x="375.7813" y="996.5186">LUNDI 16:00 - Ga&#235;tan r&#233;pond ENFIN</text><polygon fill="#181818" points="347.6177,1031.7266,337.6177,1035.7266,347.6177,1039.7266,343.6177,1035.7266" style="stroke:#181818;stroke-width:1;"/><line style="stroke:#181818;stroke-width:1;" x1="341.6177" x2="473.6216" y1="1035.7266" y2="1035.7266"/><text fill="#000000" font-family="sans-serif" font-size="13" lengthAdjust="spacing" textLength="114.0039" x="353.6177" y="1030.8701">&#128172; "Ok demain 14h"</text><polygon fill="#181818" points="540.9731,1062.0781,550.9731,1066.0781,540.9731,1070.0781,544.9731,1066.0781" style="stroke:#181818;stroke-width:1;"/><line style="stroke:#181818;stroke-width:1;" x1="336.6177" x2="546.9731" y1="1066.0781" y2="1066.0781"/><text fill="#000000" font-family="sans-serif" font-size="13" lengthAdjust="spacing" textLength="99.7153" x="343.6177" y="1061.2217">Regarde post-it...</text><path d="M253,1079.0781 L253,1121.0781 L418,1121.0781 L418,1089.0781 L408,1079.0781 L253,1079.0781 " fill="#FF0000" style="stroke:#181818;stroke-width:0.5;"/><path d="M408,1079.0781 L408,1089.0781 L418,1089.0781 L408,1079.0781 " fill="#FF0000" style="stroke:#181818;stroke-width:0.5;"/><text fill="#000000" font-family="sans-serif" font-size="13" lengthAdjust="spacing" textLength="13" x="259" y="1097.5732">&#128561;</text><text fill="#000000" font-family="sans-serif" font-size="13" font-weight="bold" lengthAdjust="spacing" textLength="98.9473" x="275.6118" y="1097.5732">CATASTROPHE</text><text fill="#000000" font-family="sans-serif" font-size="13" lengthAdjust="spacing" textLength="144.5171" x="259" y="1113.9248">Num&#233;ro client pas not&#233; !!</text><polygon fill="#181818" points="692.0488,1148.1328,702.0488,1152.1328,692.0488,1156.1328,696.0488,1152.1328" style="stroke:#181818;stroke-width:1;"/><line style="stroke:#181818;stroke-width:1;" x1="336.6177" x2="698.0488" y1="1152.1328" y2="1152.1328"/><text fill="#000000" font-family="sans-serif" font-size="13" lengthAdjust="spacing" textLength="139.6294" x="343.6177" y="1147.2764">Recherche n&#176; t&#233;l&#233;phone</text><path d="M709,1131.7813 L709,1157.7813 L802,1157.7813 L802,1141.7813 L792,1131.7813 L709,1131.7813 " fill="#FF6B6B" style="stroke:#181818;stroke-width:0.5;"/><path d="M792,1131.7813 L792,1141.7813 L802,1141.7813 L792,1131.7813 " fill="#FF6B6B" style="stroke:#181818;stroke-width:0.5;"/><text fill="#000000" font-family="sans-serif" font-size="13" lengthAdjust="spacing" textLength="72.9727" x="715" y="1150.2764">&#9200; 3 minutes</text><polygon fill="#181818" points="93.293,1181.4844,83.293,1185.4844,93.293,1189.4844,89.293,1185.4844" style="stroke:#181818;stroke-width:1;"/><line style="stroke:#181818;stroke-width:1;" x1="87.293" x2="335.6177" y1="1185.4844" y2="1185.4844"/><text fill="#000000" font-family="sans-serif" font-size="13" lengthAdjust="spacing" textLength="49.8608" x="99.293" y="1180.6279">&#128222; Appel</text><line style="stroke:#181818;stroke-width:2;" x1="318.6177" x2="328.6177" y1="1213.8359" y2="1223.8359"/><line style="stroke:#181818;stroke-width:2;" x1="318.6177" x2="328.6177" y1="1223.8359" y2="1213.8359"/><line style="stroke:#181818;stroke-width:1;" x1="82.293" x2="323.6177" y1="1218.8359" y2="1218.8359"/><text fill="#000000" font-family="sans-serif" font-size="13" lengthAdjust="spacing" textLength="64.3271" x="89.293" y="1213.9795">R&#233;pondeur</text><path d="M341,1198.4844 L341,1224.4844 L479,1224.4844 L479,1208.4844 L469,1198.4844 L341,1198.4844 " fill="#FFD700" style="stroke:#181818;stroke-width:0.5;"/><path d="M469,1198.4844 L469,1208.4844 L479,1208.4844 L469,1198.4844 " fill="#FFD700" style="stroke:#181818;stroke-width:0.5;"/><text fill="#000000" font-family="sans-serif" font-size="13" lengthAdjust="spacing" textLength="117.7935" x="347" y="1216.9795">&#128533; Client absent 17h</text><polygon fill="#181818" points="817.8589,1259.3633,827.8589,1263.3633,817.8589,1267.3633,821.8589,1263.3633" style="stroke:#181818;stroke-width:1;"/><line style="stroke:#181818;stroke-width:1;" x1="336.6177" x2="823.8589" y1="1263.3633" y2="1263.3633"/><text fill="#000000" font-family="sans-serif" font-size="13" lengthAdjust="spacing" textLength="163.9663" x="343.6177" y="1258.5068">&#201;crit mail MANUELLEMENT</text><path d="M834,1234.8359 L834,1276.8359 L968,1276.8359 L968,1244.8359 L958,1234.8359 L834,1234.8359 " fill="#FF6B6B" style="stroke:#181818;stroke-width:0.5;"/><path d="M958,1234.8359 L958,1244.8359 L968,1244.8359 L958,1234.8359 " fill="#FF6B6B" style="stroke:#181818;stroke-width:0.5;"/><text fill="#000000" font-family="sans-serif" font-size="13" lengthAdjust="spacing" textLength="11.1973" x="840" y="1253.3311">&#128308;</text><text fill="#000000" font-family="sans-serif" font-size="13" font-weight="bold" lengthAdjust="spacing" textLength="98.9854" x="854.8091" y="1253.3311">Pas de template</text><text fill="#000000" font-family="sans-serif" font-size="13" lengthAdjust="spacing" textLength="72.9727" x="840" y="1269.6826">&#9200; 5 minutes</text><polygon fill="#181818" points="540.9731,1303.8906,550.9731,1307.8906,540.9731,1311.8906,544.9731,1307.8906" style="stroke:#181818;stroke-width:1;"/><line style="stroke:#181818;stroke-width:1;" x1="336.6177" x2="546.9731" y1="1307.8906" y2="1307.8906"/><text fill="#000000" font-family="sans-serif" font-size="13" lengthAdjust="spacing" textLength="80.9263" x="343.6177" y="1303.0342">Jette le post-it</text><path d="M557,1287.5391 L557,1313.5391 L818,1313.5391 L818,1297.5391 L808,1287.5391 L557,1287.5391 " fill="#FF0000" style="stroke:#181818;stroke-width:0.5;"/><path d="M808,1287.5391 L808,1297.5391 L818,1297.5391 L808,1287.5391 " fill="#FF0000" style="stroke:#181818;stroke-width:0.5;"/><text fill="#000000" font-family="sans-serif" font-size="13" lengthAdjust="spacing" textLength="11.1973" x="563" y="1306.0342">&#128308;</text><text fill="#000000" font-family="sans-serif" font-size="13" font-weight="bold" lengthAdjust="spacing" textLength="226.0845" x="577.8091" y="1306.0342">AUCUNE TRA&#199;ABILIT&#201; conserv&#233;e !!</text><rect fill="#EEEEEE" height="3" style="stroke:#EEEEEE;stroke-width:1;" width="979.6533" x="0" y="1340.0664"/><line style="stroke:#000000;stroke-width:1;" x1="0" x2="979.6533" y1="1340.0664" y2="1340.0664"/><line style="stroke:#000000;stroke-width:1;" x1="0" x2="979.6533" y1="1343.0664" y2="1343.0664"/><rect fill="#EEEEEE" height="24.3516" style="stroke:#000000;stroke-width:2;" width="255.2808" x="362.1863" y="1328.8906"/><text fill="#000000" font-family="sans-serif" font-size="13" font-weight="bold" lengthAdjust="spacing" textLength="237.6689" x="368.1863" y="1346.3857">MARDI 13:00 - Client rappelle &#201;NERV&#201;</text><polygon fill="#181818" points="324.6177,1381.5938,334.6177,1385.5938,324.6177,1389.5938,328.6177,1385.5938" style="stroke:#181818;stroke-width:1;"/><line style="stroke:#181818;stroke-width:1;" x1="82.293" x2="330.6177" y1="1385.5938" y2="1385.5938"/><text fill="#000000" font-family="sans-serif" font-size="13" lengthAdjust="spacing" textLength="230.3247" x="89.293" y="1380.7373">&#128222; "Vous deviez me rappeler hier soir !!"</text><path d="M273,1398.5938 L273,1440.5938 L399,1440.5938 L399,1408.5938 L389,1398.5938 L273,1398.5938 " fill="#FF0000" style="stroke:#181818;stroke-width:0.5;"/><path d="M389,1398.5938 L389,1408.5938 L399,1408.5938 L389,1398.5938 " fill="#FF0000" style="stroke:#181818;stroke-width:0.5;"/><text fill="#000000" font-family="sans-serif" font-size="13" lengthAdjust="spacing" textLength="13" x="279" y="1417.0889">&#128561;</text><text fill="#000000" font-family="sans-serif" font-size="13" font-weight="bold" lengthAdjust="spacing" textLength="40.4409" x="295.6118" y="1417.0889">OUBLI</text><text fill="#000000" font-family="sans-serif" font-size="13" lengthAdjust="spacing" textLength="105.4917" x="279" y="1433.4404">Post-it jet&#233; trop t&#244;t</text><polygon fill="#181818" points="93.293,1464.6484,83.293,1468.6484,93.293,1472.6484,89.293,1468.6484" style="stroke:#181818;stroke-width:1;"/><line style="stroke:#181818;stroke-width:1;" x1="87.293" x2="335.6177" y1="1468.6484" y2="1468.6484"/><text fill="#000000" font-family="sans-serif" font-size="13" lengthAdjust="spacing" textLength="139.2803" x="99.293" y="1463.792">"Toutes mes excuses..."</text><path d="M16,1481.6484 L16,1523.6484 L148,1523.6484 L148,1491.6484 L138,1481.6484 L16,1481.6484 " fill="#FEFFDD" style="stroke:#181818;stroke-width:0.5;"/><path d="M138,1481.6484 L138,1491.6484 L148,1491.6484 L138,1481.6484 " fill="#FEFFDD" style="stroke:#181818;stroke-width:0.5;"/><text fill="#000000" font-family="sans-serif" font-size="13" lengthAdjust="spacing" textLength="111.2935" x="22" y="1500.1436">&#128544; Image d&#233;grad&#233;e</text><text fill="#000000" font-family="sans-serif" font-size="13" lengthAdjust="spacing" textLength="96.1162" x="22" y="1516.4951">Satisfaction 4/10</text><polygon fill="#181818" points="540.9731,1550.7031,550.9731,1554.7031,540.9731,1558.7031,544.9731,1554.7031" style="stroke:#181818;stroke-width:1;"/><line style="stroke:#181818;stroke-width:1;" x1="336.6177" x2="546.9731" y1="1554.7031" y2="1554.7031"/><text fill="#000000" font-family="sans-serif" font-size="13" lengthAdjust="spacing" textLength="103.3018" x="343.6177" y="1549.8467">NOUVEAU post-it</text><path d="M557,1534.3516 L557,1560.3516 L810,1560.3516 L810,1544.3516 L800,1534.3516 L557,1534.3516 " fill="#FF6B6B" style="stroke:#181818;stroke-width:0.5;"/><path d="M800,1534.3516 L800,1544.3516 L810,1544.3516 L800,1534.3516 " fill="#FF6B6B" style="stroke:#181818;stroke-width:0.5;"/><text fill="#000000" font-family="sans-serif" font-size="13" lengthAdjust="spacing" textLength="11.1973" x="563" y="1552.8467">&#128308;</text><text fill="#000000" font-family="sans-serif" font-size="13" font-weight="bold" lengthAdjust="spacing" textLength="218.188" x="577.8091" y="1552.8467">Retour au m&#234;me syst&#232;me d&#233;faillant</text><rect fill="#EEEEEE" height="3" style="stroke:#EEEEEE;stroke-width:1;" width="979.6533" x="0" y="1586.8789"/><line style="stroke:#000000;stroke-width:1;" x1="0" x2="979.6533" y1="1586.8789" y2="1586.8789"/><line style="stroke:#000000;stroke-width:1;" x1="0" x2="979.6533" y1="1589.8789" y2="1589.8789"/><rect fill="#EEEEEE" height="24.3516" style="stroke:#000000;stroke-width:2;" width="57.3291" x="461.1621" y="1575.7031"/><text fill="#000000" font-family="sans-serif" font-size="13" font-weight="bold" lengthAdjust="spacing" textLength="39.7173" x="467.1621" y="1593.1982">BILAN</text><path d="M51,1615.0547 L51,1739.0547 L859,1739.0547 L859,1625.0547 L849,1615.0547 L51,1615.0547 " fill="#FFCCCC" style="stroke:#181818;stroke-width:0.5;"/><path d="M849,1615.0547 L849,1625.0547 L859,1625.0547 L849,1615.0547 " fill="#FFCCCC" style="stroke:#181818;stroke-width:0.5;"/><text fill="#000000" font-family="sans-serif" font-size="13" font-weight="bold" lengthAdjust="spacing" textLength="162.5254" x="334.6643" y="1633.5498">M&#201;TRIQUES PROCESSUS</text><text fill="#000000" font-family="sans-serif" font-size="13" lengthAdjust="spacing" textLength="91.0444" x="334.6643" y="1649.9014">&#9200; Dur&#233;e totale:</text><text fill="#000000" font-family="sans-serif" font-size="13" font-weight="bold" lengthAdjust="spacing" textLength="55.6309" x="429.3206" y="1649.9014">2 JOURS</text><text fill="#000000" font-family="sans-serif" font-size="13" lengthAdjust="spacing" textLength="71.5254" x="334.6643" y="1666.2529">&#128222; Contacts:</text><text fill="#000000" font-family="sans-serif" font-size="13" font-weight="bold" lengthAdjust="spacing" textLength="7.23" x="409.8015" y="1666.2529">8</text><text fill="#000000" font-family="sans-serif" font-size="13" lengthAdjust="spacing" textLength="119.9199" x="420.6433" y="1666.2529">(appels, SMS, mails)</text><text fill="#000000" font-family="sans-serif" font-size="13" lengthAdjust="spacing" textLength="105.3203" x="334.6643" y="1682.6045">&#9201;&#65039; Temps perdu:</text><text fill="#000000" font-family="sans-serif" font-size="13" font-weight="bold" lengthAdjust="spacing" textLength="67.9136" x="443.5964" y="1682.6045">40 minutes</text><text fill="#000000" font-family="sans-serif" font-size="13" lengthAdjust="spacing" textLength="57.0654" x="334.6643" y="1698.9561">&#128221; Post-it:</text><text fill="#000000" font-family="sans-serif" font-size="13" font-weight="bold" lengthAdjust="spacing" textLength="7.23" x="395.3416" y="1698.9561">2</text><text fill="#000000" font-family="sans-serif" font-size="13" lengthAdjust="spacing" textLength="161.1353" x="406.1833" y="1698.9561">(dont 1 jet&#233; pr&#233;matur&#233;ment)</text><text fill="#000000" font-family="sans-serif" font-size="13" lengthAdjust="spacing" textLength="89.9653" x="334.6643" y="1715.3076">&#128308; Risque oubli:</text><text fill="#000000" font-family="sans-serif" font-size="13" font-weight="bold" lengthAdjust="spacing" textLength="63.6035" x="428.2415" y="1715.3076">Tr&#232;s &#233;lev&#233;</text><text fill="#000000" font-family="sans-serif" font-size="13" lengthAdjust="spacing" textLength="87.4263" x="334.6643" y="1731.6592">&#128548; Satisfaction:</text><text fill="#000000" font-family="sans-serif" font-size="13" font-weight="bold" lengthAdjust="spacing" textLength="37.5654" x="425.7024" y="1731.6592">Faible</text><!--SRC=[ZLRBRjj65DthAwwPHM8XTgN4SHm1Ra5BTAB0aboAoYeRchgo9k6hCqF1wGyK0Ge4w0C82gJDeWkhxI81ikYw_9F-GFi9lJCSwbL6Y01PDERoliwvvuvaCaGuvqc0GcG2x3J54DeXmrZ27kGlFTi3k-sDd3EuDNmXP7uTaNqYv1wJkxMQ7yY4WrMyy3JkxKCdIvDOMk2BqisDqzEJmtPpQUipZa_ZMxOGJ4W_bhXhpDK1tB0xdIFdi3H_wEU_an7PUnXCOnQGpyB-eOzq03SU79sUF3YgfJwNT9gIGx1CXjfEFJETHkT-ex5kr-iuuBZdsev-bT7XoU79kj7GVkXe2_LGRU9S1HWMNjHJTR119iCaUQxDp7EjTdmCPwD-fmiFMirxrF820IUMNBrpV5ohnOb4I6R8LnfgqwS6KAyJT1UX1YMVXnX8phxAi5wdCy-_2D7FOFn2J98ua2o9Omnh68z1UQpLIfG_DvrlmR-_VF-pIK2IktoUJfDOELnFee39j07ehHy-g4pi8L0tssvFXxUp88iHE4P4XtoEC6715C7FPBAMWtP6EHGejQ0zHQuCqm91c37abrZ4v-noAbSY__tg7TnjWC0WYSSeobnS9YXdI97BeYspVBurPbyvjtg6kv1UW2oQPrN7DHLtuqd28rzrLW2BWoHA2Gg9GZVWd50U8yH_lLjf9fO7D_qnfv73oho8YIrYo8pZ_lu-J917k7AgMBZbM1FGd0F64nPlBQ93j21u13MAo9goC5J_wGfKU-z1nEACQbArS9f0ZKvbraLU7a-o6KAWoRKHMOy4-VtfxJz_le97DFs9vclPF9JgzCstfaNJfO6lI2agmnOqRe7r666Ma8PnRKoo5Y28X77hKyXRW4KycZ03AR0eokTZvijYdZe4eiyeLJy8CDK4MSbdCuHs_VeTPNKJHPfVKr1LnpFAqMS2KegNP1UKEYSChHL72preDbe7IX3Sikcm542j2yiM54guEhyr8uvxLulXDYLomfduYbj8CSmubIcHpwYnr0b3XJiBAj1aZJEiXcEPotT_mB0tt4e-avCe5ukGF0jaHZdgbfkzyl-vf0ooAv3P5zPs25JQzRhjUKxVSzImB1zNHOhUP2HF1UnbCfMO7BOQ3SB4B2NJp34u_TDkNuDIzdrLLAaHrk0v5HhvB8RcmTIg4Y4NBtq-NWWVfLZ9sqP3pn2HwpsLrhOzU-YvW_D7ZYwedn5dUMB6JzECdEHpsDdPChDBYcsgrSTbjoJ3rfbS8MIvRPQ4T8lcOSQhPO9A_B5SUVw5K3_D-zFAU6QRjkZ24d1Q6jJe47fsdwujPqwF4FyK5aea2IgdVKtxjYwFnoZ9TRW0RYFK0YyToXwrHtq7FDVElx5FkcTTBt-fL4VGiAabkRD3qTU8rxDTHRox1V5CEnOIbx_iE-uJyb48GkL2jvueLHmZRTAlWOQiU9b8DINrqGf9OQrF8DjWT7BMBNQRMSxFK75ByYGbrdoGs_NPIxHuHFJ5go0JABJqRLvlYdXleHlvbmZZV7x9VVghndb84oeclhxBmC5dpSRshJuOFN7iqKTmMQU0Yp8XrIDbYVBVeXL5eiWJ8bD8bx5DP0W-krzvGxjT4b85QjD7NzLwT9jskr-Ed26SkuEsCnoEXWkkTPJe4GSJwOS4NBr-1nuFHcvXe65iamHIwK8T7jNhSAlOYRULoDxMZ1UxsjbxjLmz8hCHQlN2GQFaSkdmJGcY3gRyZPN6DWscAQL3Ur1b5L55knjtAxsxr9iUpwz5USaolb__keQKCZlr6GdtQWV_0m00]--></g></svg>