<svg xmlns="http://www.w3.org/2000/svg" xmlns:xlink="http://www.w3.org/1999/xlink" contentStyleType="text/css" height="812px" preserveAspectRatio="none" style="width:1049px;height:812px;background:#FFFFFF;" version="1.1" viewBox="0 0 1049 812" width="1049px" zoomAndPan="magnify"><title>Pain Points Service Client</title><defs/><g><text fill="#000000" font-family="sans-serif" font-size="14" font-weight="bold" lengthAdjust="spacing" textLength="172.7236" x="437.104" y="34.5332">Pain Points Service Client</text><rect fill="#F1F1F1" height="37.6094" rx="12.5" ry="12.5" style="stroke:#181818;stroke-width:1.5;" width="151.0859" x="469.8193" y="405.8984"/><text fill="#000000" font-family="sans-serif" font-size="14" lengthAdjust="spacing" textLength="131.0859" x="479.8193" y="430.4316">&#128308; SERVICE CLIENT</text><rect fill="#F1F1F1" height="37.6094" rx="12.5" ry="12.5" style="stroke:#181818;stroke-width:1.5;" width="102.4824" x="670.9053" y="175.4609"/><text fill="#000000" font-family="sans-serif" font-size="14" lengthAdjust="spacing" textLength="82.4824" x="680.9053" y="199.9941">Temps perdu</text><rect fill="#F1F1F1" height="37.6094" rx="12.5" ry="12.5" style="stroke:#181818;stroke-width:1.5;" width="128.917" x="823.3877" y="89.0469"/><text fill="#000000" font-family="sans-serif" font-size="14" lengthAdjust="spacing" textLength="108.917" x="833.3877" y="113.5801">Prise RDV (10h/j)</text><path d="M773.3877,194.2656 L783.3877,194.2656 C798.3877,194.2656 798.3877,107.8516 813.3877,107.8516 L823.3877,107.8516 " fill="none" style="stroke:#181818;stroke-width:1;"/><rect fill="#F1F1F1" height="37.6094" rx="12.5" ry="12.5" style="stroke:#181818;stroke-width:1.5;" width="114.165" x="823.3877" y="146.6563"/><text fill="#000000" font-family="sans-serif" font-size="14" lengthAdjust="spacing" textLength="94.165" x="833.3877" y="171.1895">Recherche info</text><path d="M773.3877,194.2656 L783.3877,194.2656 C798.3877,194.2656 798.3877,165.4609 813.3877,165.4609 L823.3877,165.4609 " fill="none" style="stroke:#181818;stroke-width:1;"/><rect fill="#F1F1F1" height="37.6094" rx="12.5" ry="12.5" style="stroke:#181818;stroke-width:1.5;" width="104.0479" x="823.3877" y="204.2656"/><text fill="#000000" font-family="sans-serif" font-size="14" lengthAdjust="spacing" textLength="84.0479" x="833.3877" y="228.7988">Double saisie</text><path d="M773.3877,194.2656 L783.3877,194.2656 C798.3877,194.2656 798.3877,223.0703 813.3877,223.0703 L823.3877,223.0703 " fill="none" style="stroke:#181818;stroke-width:1;"/><rect fill="#F1F1F1" height="37.6094" rx="12.5" ry="12.5" style="stroke:#181818;stroke-width:1.5;" width="146.0684" x="823.3877" y="261.875"/><text fill="#000000" font-family="sans-serif" font-size="14" lengthAdjust="spacing" textLength="126.0684" x="833.3877" y="286.4082">Relances manuelles</text><path d="M773.3877,194.2656 L783.3877,194.2656 C798.3877,194.2656 798.3877,280.6797 813.3877,280.6797 L823.3877,280.6797 " fill="none" style="stroke:#181818;stroke-width:1;"/><path d="M620.9053,424.7031 L630.9053,424.7031 C645.9053,424.7031 645.9053,194.2656 660.9053,194.2656 L670.9053,194.2656 " fill="none" style="stroke:#181818;stroke-width:1;"/><rect fill="#F1F1F1" height="37.6094" rx="12.5" ry="12.5" style="stroke:#181818;stroke-width:1.5;" width="154.6406" x="670.9053" y="434.7031"/><text fill="#000000" font-family="sans-serif" font-size="14" lengthAdjust="spacing" textLength="134.6406" x="680.9053" y="459.2363">Opportunit&#233;s perdues</text><rect fill="#F1F1F1" height="37.6094" rx="12.5" ry="12.5" style="stroke:#181818;stroke-width:1.5;" width="161.6338" x="875.5459" y="319.4844"/><text fill="#000000" font-family="sans-serif" font-size="14" lengthAdjust="spacing" textLength="141.6338" x="885.5459" y="344.0176">Demandes techniciens</text><path d="M825.5459,453.5078 L835.5459,453.5078 C850.5459,453.5078 850.5459,338.2891 865.5459,338.2891 L875.5459,338.2891 " fill="none" style="stroke:#181818;stroke-width:1;"/><rect fill="#F1F1F1" height="37.6094" rx="12.5" ry="12.5" style="stroke:#181818;stroke-width:1.5;" width="94.6963" x="875.5459" y="377.0938"/><text fill="#000000" font-family="sans-serif" font-size="14" lengthAdjust="spacing" textLength="74.6963" x="885.5459" y="401.627">Clients SAV</text><path d="M825.5459,453.5078 L835.5459,453.5078 C850.5459,453.5078 850.5459,395.8984 865.5459,395.8984 L875.5459,395.8984 " fill="none" style="stroke:#181818;stroke-width:1;"/><rect fill="#F1F1F1" height="37.6094" rx="12.5" ry="12.5" style="stroke:#181818;stroke-width:1.5;" width="98.5791" x="875.5459" y="434.7031"/><text fill="#000000" font-family="sans-serif" font-size="14" lengthAdjust="spacing" textLength="78.5791" x="885.5459" y="459.2363">Devis terrain</text><path d="M825.5459,453.5078 L835.5459,453.5078 C850.5459,453.5078 850.5459,453.5078 865.5459,453.5078 L875.5459,453.5078 " fill="none" style="stroke:#181818;stroke-width:1;"/><rect fill="#F1F1F1" height="37.6094" rx="12.5" ry="12.5" style="stroke:#181818;stroke-width:1.5;" width="149.9648" x="875.5459" y="492.3125"/><text fill="#000000" font-family="sans-serif" font-size="14" lengthAdjust="spacing" textLength="129.9648" x="885.5459" y="516.8457">Refacturation heures</text><path d="M825.5459,453.5078 L835.5459,453.5078 C850.5459,453.5078 850.5459,511.1172 865.5459,511.1172 L875.5459,511.1172 " fill="none" style="stroke:#181818;stroke-width:1;"/><rect fill="#F1F1F1" height="37.6094" rx="12.5" ry="12.5" style="stroke:#181818;stroke-width:1.5;" width="162.3857" x="875.5459" y="549.9219"/><text fill="#000000" font-family="sans-serif" font-size="14" lengthAdjust="spacing" textLength="142.3857" x="885.5459" y="574.4551">Clients oubli&#233;s (post-it)</text><path d="M825.5459,453.5078 L835.5459,453.5078 C850.5459,453.5078 850.5459,568.7266 865.5459,568.7266 L875.5459,568.7266 " fill="none" style="stroke:#181818;stroke-width:1;"/><path d="M620.9053,424.7031 L630.9053,424.7031 C645.9053,424.7031 645.9053,453.5078 660.9053,453.5078 L670.9053,453.5078 " fill="none" style="stroke:#181818;stroke-width:1;"/><rect fill="#F1F1F1" height="37.6094" rx="12.5" ry="12.5" style="stroke:#181818;stroke-width:1.5;" width="109.4893" x="670.9053" y="665.1406"/><text fill="#000000" font-family="sans-serif" font-size="14" lengthAdjust="spacing" textLength="89.4893" x="680.9053" y="689.6738">Clients perdus</text><rect fill="#F1F1F1" height="37.6094" rx="12.5" ry="12.5" style="stroke:#181818;stroke-width:1.5;" width="206.7646" x="830.3945" y="607.5313"/><text fill="#000000" font-family="sans-serif" font-size="14" lengthAdjust="spacing" textLength="186.7646" x="840.3945" y="632.0645">Insatisfaction (r&#233;tention faible)</text><path d="M780.3945,683.9453 L790.3945,683.9453 C805.3945,683.9453 805.3945,626.3359 820.3945,626.3359 L830.3945,626.3359 " fill="none" style="stroke:#181818;stroke-width:1;"/><rect fill="#F1F1F1" height="37.6094" rx="12.5" ry="12.5" style="stroke:#181818;stroke-width:1.5;" width="148.4063" x="830.3945" y="665.1406"/><text fill="#000000" font-family="sans-serif" font-size="14" lengthAdjust="spacing" textLength="128.4063" x="840.3945" y="689.6738">D&#233;lais inacceptables</text><path d="M780.3945,683.9453 L790.3945,683.9453 C805.3945,683.9453 805.3945,683.9453 820.3945,683.9453 L830.3945,683.9453 " fill="none" style="stroke:#181818;stroke-width:1;"/><rect fill="#F1F1F1" height="37.6094" rx="12.5" ry="12.5" style="stroke:#181818;stroke-width:1.5;" width="59.6826" x="830.3945" y="722.75"/><text fill="#000000" font-family="sans-serif" font-size="14" lengthAdjust="spacing" textLength="39.6826" x="840.3945" y="747.2832">Oublis</text><path d="M780.3945,683.9453 L790.3945,683.9453 C805.3945,683.9453 805.3945,741.5547 820.3945,741.5547 L830.3945,741.5547 " fill="none" style="stroke:#181818;stroke-width:1;"/><path d="M620.9053,424.7031 L630.9053,424.7031 C645.9053,424.7031 645.9053,683.9453 660.9053,683.9453 L670.9053,683.9453 " fill="none" style="stroke:#181818;stroke-width:1;"/><rect fill="#F1F1F1" height="55.2188" rx="12.5" ry="12.5" style="stroke:#181818;stroke-width:1.5;" width="116.4756" x="303.3438" y="96.2188"/><text fill="#000000" font-family="sans-serif" font-size="14" lengthAdjust="spacing" textLength="96.4756" x="313.3438" y="120.752">Syst&#232;me post-it</text><text fill="#000000" font-family="sans-serif" font-size="14" font-weight="bold" lengthAdjust="spacing" textLength="69.2754" x="313.3438" y="138.3613">&#128308; Critique</text><rect fill="#F1F1F1" height="55.2188" rx="12.5" ry="12.5" style="stroke:#181818;stroke-width:1.5;" width="148.7412" x="104.6025" y="58.6094"/><text fill="#000000" font-family="sans-serif" font-size="14" lengthAdjust="spacing" textLength="111.2891" x="114.6025" y="83.1426">Aucune tra&#231;abilit&#233;</text><text fill="#000000" font-family="sans-serif" font-size="14" lengthAdjust="spacing" textLength="128.7412" x="114.6025" y="100.752">(risque &#233;lev&#233; d'oubli)</text><path d="M303.3438,123.8281 L293.3438,123.8281 C278.3438,123.8281 278.3438,86.2188 263.3438,86.2188 L253.3438,86.2188 " fill="none" style="stroke:#181818;stroke-width:1;"/><rect fill="#F1F1F1" height="55.2188" rx="12.5" ry="12.5" style="stroke:#181818;stroke-width:1.5;" width="125.834" x="127.5098" y="133.8281"/><text fill="#000000" font-family="sans-serif" font-size="14" lengthAdjust="spacing" textLength="105.834" x="137.5098" y="158.3613">Post-it perdu/jet&#233;</text><text fill="#000000" font-family="sans-serif" font-size="14" lengthAdjust="spacing" textLength="89.4893" x="137.5098" y="175.9707">Clients perdus</text><path d="M303.3438,123.8281 L293.3438,123.8281 C278.3438,123.8281 278.3438,161.4375 263.3438,161.4375 L253.3438,161.4375 " fill="none" style="stroke:#181818;stroke-width:1;"/><path d="M469.8193,424.7031 L459.8193,424.7031 C444.8193,424.7031 444.8193,123.8281 429.8193,123.8281 L419.8193,123.8281 " fill="none" style="stroke:#181818;stroke-width:1;"/><rect fill="#F1F1F1" height="55.2188" rx="12.5" ry="12.5" style="stroke:#181818;stroke-width:1.5;" width="147.6406" x="272.1787" y="246.6563"/><text fill="#000000" font-family="sans-serif" font-size="14" lengthAdjust="spacing" textLength="127.6406" x="282.1787" y="271.1895">Donn&#233;es &#233;parpill&#233;es</text><text fill="#000000" font-family="sans-serif" font-size="14" font-weight="bold" lengthAdjust="spacing" textLength="69.2754" x="282.1787" y="288.7988">&#128308; Critique</text><rect fill="#F1F1F1" height="55.2188" rx="12.5" ry="12.5" style="stroke:#181818;stroke-width:1.5;" width="206.7236" x="15.4551" y="209.0469"/><text fill="#000000" font-family="sans-serif" font-size="14" lengthAdjust="spacing" textLength="186.7236" x="25.4551" y="233.5801">7 outils (ERP, SAGE, Excel...)</text><text fill="#000000" font-family="sans-serif" font-size="14" lengthAdjust="spacing" textLength="116.751" x="25.4551" y="251.1895">Aucune int&#233;gration</text><path d="M272.1787,274.2656 L262.1787,274.2656 C247.1787,274.2656 247.1787,236.6563 232.1787,236.6563 L222.1787,236.6563 " fill="none" style="stroke:#181818;stroke-width:1;"/><rect fill="#F1F1F1" height="55.2188" rx="12.5" ry="12.5" style="stroke:#181818;stroke-width:1.5;" width="138.2822" x="83.8965" y="284.2656"/><text fill="#000000" font-family="sans-serif" font-size="14" lengthAdjust="spacing" textLength="118.2822" x="93.8965" y="308.7988">Double/triple saisie</text><text fill="#000000" font-family="sans-serif" font-size="14" lengthAdjust="spacing" textLength="84.0547" x="93.8965" y="326.4082">Incoh&#233;rences</text><path d="M272.1787,274.2656 L262.1787,274.2656 C247.1787,274.2656 247.1787,311.875 232.1787,311.875 L222.1787,311.875 " fill="none" style="stroke:#181818;stroke-width:1;"/><path d="M469.8193,424.7031 L459.8193,424.7031 C444.8193,424.7031 444.8193,274.2656 429.8193,274.2656 L419.8193,274.2656 " fill="none" style="stroke:#181818;stroke-width:1;"/><rect fill="#F1F1F1" height="55.2188" rx="12.5" ry="12.5" style="stroke:#181818;stroke-width:1.5;" width="174.0957" x="245.7236" y="397.0938"/><text fill="#000000" font-family="sans-serif" font-size="14" lengthAdjust="spacing" textLength="154.0957" x="255.7236" y="421.627">Planning RDV archa&#239;que</text><text fill="#000000" font-family="sans-serif" font-size="14" font-weight="bold" lengthAdjust="spacing" textLength="69.2754" x="255.7236" y="439.2363">&#128308; Critique</text><rect fill="#F1F1F1" height="55.2188" rx="12.5" ry="12.5" style="stroke:#181818;stroke-width:1.5;" width="185.7236" x="10" y="359.4844"/><text fill="#000000" font-family="sans-serif" font-size="14" lengthAdjust="spacing" textLength="165.7236" x="20" y="384.0176">D&#233;lais excessifs pour RDV</text><text fill="#000000" font-family="sans-serif" font-size="14" lengthAdjust="spacing" textLength="137.751" x="20" y="401.627">vs instantan&#233; possible</text><path d="M245.7236,424.7031 L235.7236,424.7031 C220.7236,424.7031 220.7236,387.0938 205.7236,387.0938 L195.7236,387.0938 " fill="none" style="stroke:#181818;stroke-width:1;"/><rect fill="#F1F1F1" height="55.2188" rx="12.5" ry="12.5" style="stroke:#181818;stroke-width:1.5;" width="148.4199" x="47.3037" y="434.7031"/><text fill="#000000" font-family="sans-serif" font-size="14" lengthAdjust="spacing" textLength="94.1582" x="57.3037" y="459.2363">Excel non sync</text><text fill="#000000" font-family="sans-serif" font-size="14" lengthAdjust="spacing" textLength="128.4199" x="57.3037" y="476.8457">Ga&#235;tan pas consult&#233;</text><path d="M245.7236,424.7031 L235.7236,424.7031 C220.7236,424.7031 220.7236,462.3125 205.7236,462.3125 L195.7236,462.3125 " fill="none" style="stroke:#181818;stroke-width:1;"/><path d="M469.8193,424.7031 L459.8193,424.7031 C444.8193,424.7031 444.8193,424.7031 429.8193,424.7031 L419.8193,424.7031 " fill="none" style="stroke:#181818;stroke-width:1;"/><rect fill="#F1F1F1" height="55.2188" rx="12.5" ry="12.5" style="stroke:#181818;stroke-width:1.5;" width="110.2549" x="309.5645" y="547.5313"/><text fill="#000000" font-family="sans-serif" font-size="14" lengthAdjust="spacing" textLength="90.2549" x="319.5645" y="572.0645">CERFA papier</text><text fill="#000000" font-family="sans-serif" font-size="14" font-weight="bold" lengthAdjust="spacing" textLength="82.8789" x="319.5645" y="589.6738">&#128992; Important</text><rect fill="#F1F1F1" height="55.2188" rx="12.5" ry="12.5" style="stroke:#181818;stroke-width:1.5;" width="125.0342" x="134.5303" y="509.9219"/><text fill="#000000" font-family="sans-serif" font-size="14" lengthAdjust="spacing" textLength="84.8477" x="144.5303" y="534.4551">Chronophage</text><text fill="#000000" font-family="sans-serif" font-size="14" lengthAdjust="spacing" textLength="105.0342" x="144.5303" y="552.0645">Temps important</text><path d="M309.5645,575.1406 L299.5645,575.1406 C284.5645,575.1406 284.5645,537.5313 269.5645,537.5313 L259.5645,537.5313 " fill="none" style="stroke:#181818;stroke-width:1;"/><rect fill="#F1F1F1" height="55.2188" rx="12.5" ry="12.5" style="stroke:#181818;stroke-width:1.5;" width="68.248" x="191.3164" y="585.1406"/><text fill="#000000" font-family="sans-serif" font-size="14" lengthAdjust="spacing" textLength="42.0137" x="201.3164" y="609.6738">Illisible</text><text fill="#000000" font-family="sans-serif" font-size="14" lengthAdjust="spacing" textLength="48.248" x="201.3164" y="627.2832">Pas pro</text><path d="M309.5645,575.1406 L299.5645,575.1406 C284.5645,575.1406 284.5645,612.75 269.5645,612.75 L259.5645,612.75 " fill="none" style="stroke:#181818;stroke-width:1;"/><path d="M469.8193,424.7031 L459.8193,424.7031 C444.8193,424.7031 444.8193,575.1406 429.8193,575.1406 L419.8193,575.1406 " fill="none" style="stroke:#181818;stroke-width:1;"/><rect fill="#F1F1F1" height="55.2188" rx="12.5" ry="12.5" style="stroke:#181818;stroke-width:1.5;" width="159.2891" x="260.5303" y="697.9688"/><text fill="#000000" font-family="sans-serif" font-size="14" lengthAdjust="spacing" textLength="139.2891" x="270.5303" y="722.502">Portail client inexistant</text><text fill="#000000" font-family="sans-serif" font-size="14" font-weight="bold" lengthAdjust="spacing" textLength="82.8789" x="270.5303" y="740.1113">&#128992; Important</text><rect fill="#F1F1F1" height="55.2188" rx="12.5" ry="12.5" style="stroke:#181818;stroke-width:1.5;" width="161.6406" x="48.8896" y="660.3594"/><text fill="#000000" font-family="sans-serif" font-size="14" lengthAdjust="spacing" textLength="141.6406" x="58.8896" y="684.8926">Appels entrants &#233;lev&#233;s</text><text fill="#000000" font-family="sans-serif" font-size="14" lengthAdjust="spacing" textLength="118.2959" x="58.8896" y="702.502">R&#233;duction possible</text><path d="M260.5303,725.5781 L250.5303,725.5781 C235.5303,725.5781 235.5303,687.9688 220.5303,687.9688 L210.5303,687.9688 " fill="none" style="stroke:#181818;stroke-width:1;"/><rect fill="#F1F1F1" height="55.2188" rx="12.5" ry="12.5" style="stroke:#181818;stroke-width:1.5;" width="142.9648" x="67.5654" y="735.5781"/><text fill="#000000" font-family="sans-serif" font-size="14" lengthAdjust="spacing" textLength="122.9648" x="77.5654" y="760.1113">Disponibilit&#233; 8h-18h</text><text fill="#000000" font-family="sans-serif" font-size="14" lengthAdjust="spacing" textLength="45.1377" x="77.5654" y="777.7207">vs 24/7</text><path d="M260.5303,725.5781 L250.5303,725.5781 C235.5303,725.5781 235.5303,763.1875 220.5303,763.1875 L210.5303,763.1875 " fill="none" style="stroke:#181818;stroke-width:1;"/><path d="M469.8193,424.7031 L459.8193,424.7031 C444.8193,424.7031 444.8193,725.5781 429.8193,725.5781 L419.8193,725.5781 " fill="none" style="stroke:#181818;stroke-width:1;"/><!--SRC=[TLJ1RXen4BtlLyojW1eI8feWJg50KgAG822Sa29d6S94Y-tQNfJyH-_fhLtrq4l_O7-edz2nlLHDfKYiXEqtyzwy6VlCEc7SbkHgApHC1CcxYIBfxDqCpOvIlEjdXD8bYIENOK10H425W3sY0RzVllo2sN2w6FM7qByQ3Q_dIQC1Szng2nhDAkTb0oQ6BC9qi81QwsXp-5WFkrDCDsZu0v9h5RO6AhzdKYl84bQWJCWKBMo5p37Bq2QUuKPhPLmkoPL5nSGd8GKoSiK1ZjDBIbbgF8YgkOhUeWBkoAECuH8hhhL8NMw48oLXWxd1rw5U7Nd2cbRM7P2h1p7xuo0ZHeoavIpMv_EvQgOi76Fy_xKWhZ5QC2YBZ6jb0qIQedRYFgieRpmLrvhXse6b5GQcsRDrvVSjGiM_b8r6w47VaAFFEJOQ8RgNfxb4S4QKtyGzPTwcfQnn6nW3J8gxie3Lkr1Gb3A96MCHXuyO8lwhB0ajah8isD-oqC9eoZA_Ual8ANlcA6F7XjF9U_R-OlWUXayfPircixwKbL0Uhx9uYCR_CmY7pf3-EmzBEPAfsfI5GJyHGSs4fqEIV0Z39NYOHFcJsT-Ii_SRMO6rjERAL6vyy5BkV1luTaZ-iJdiiFMD2d51CKZkddsMwL9UYF87mq0B2wcIDizOVvo5uVIyn_kQq4GLBrzXjFNJofah6VsDKLBfZNXWfV6oq1uInoVZvdlsfPmmXJOgLkiXb44Qsi9oyOc2uZUPUbeZkyze8tmZgzPplwPbiShZTBugTK1MAqdLq41dSz3gR88xn-t3qoGvGtuwulEH9Dv-Tpk-WXqQwrErciT7n-rcftPk2AxL3beVeDNfjjlTzWbxCmT_N4zg5vChi6mzloOhBi7GVUwbr9DBiHCmpVcgRB4BVbMRZ-lynkmtOIXtnFPj_HDqkHX747nIRgQL2-2Jzi57dcJ_NA61nJWPyCNc5d5egbOyBLsudPyVT98h8HzoRa8NrYRfAoOmprqud_u1]--></g></svg>