<svg xmlns="http://www.w3.org/2000/svg" xmlns:xlink="http://www.w3.org/1999/xlink" contentStyleType="text/css" height="295px" preserveAspectRatio="none" style="width:843px;height:295px;background:#FFFFFF;" version="1.1" viewBox="0 0 843 295" width="843px" zoomAndPan="magnify"><title>Mind Map - Solutions Cibles (Odoo CRM)</title><defs/><g><text fill="#000000" font-family="sans-serif" font-size="14" font-weight="bold" lengthAdjust="spacing" textLength="272.1934" x="284.1953" y="34.5332">Mind Map - Solutions Cibles (Odoo CRM)</text><rect fill="#F1F1F1" height="37.6094" rx="12.5" ry="12.5" style="stroke:#181818;stroke-width:1.5;" width="154.5928" x="336.8682" y="147.4609"/><text fill="#000000" font-family="sans-serif" font-size="14" lengthAdjust="spacing" textLength="134.5928" x="346.8682" y="171.9941">SOLUTIONS CIBLES</text><rect fill="#F1F1F1" height="55.2188" rx="12.5" ry="12.5" style="stroke:#181818;stroke-width:1.5;" width="59.6758" x="541.4609" y="60.2188"/><text fill="#000000" font-family="sans-serif" font-size="14" lengthAdjust="spacing" textLength="38.9102" x="551.4609" y="84.752">Fin du</text><text fill="#000000" font-family="sans-serif" font-size="14" lengthAdjust="spacing" textLength="39.6758" x="551.4609" y="102.3613">Post-it</text><text fill="#000000" font-family="sans-serif" font-size="14" lengthAdjust="spacing" textLength="154.0547" x="654.1367" y="64.1426">Odoo Helpdesk (Tickets)</text><path d="M601.1367,87.8281 L611.1367,87.8281 C626.1367,87.8281 626.1367,58.4141 641.1367,58.4141 L651.1367,58.4141 " fill="none" style="stroke:#181818;stroke-width:1;"/><text fill="#000000" font-family="sans-serif" font-size="14" lengthAdjust="spacing" textLength="107.3789" x="654.1367" y="83.752">Tra&#231;abilit&#233; Totale</text><path d="M601.1367,87.8281 L611.1367,87.8281 C626.1367,87.8281 626.1367,78.0234 641.1367,78.0234 L651.1367,78.0234 " fill="none" style="stroke:#181818;stroke-width:1;"/><text fill="#000000" font-family="sans-serif" font-size="14" lengthAdjust="spacing" textLength="119.0479" x="654.1367" y="103.3613">Historique Complet</text><path d="M601.1367,87.8281 L611.1367,87.8281 C626.1367,87.8281 626.1367,97.6328 641.1367,97.6328 L651.1367,97.6328 " fill="none" style="stroke:#181818;stroke-width:1;"/><text fill="#000000" font-family="sans-serif" font-size="14" lengthAdjust="spacing" textLength="144.7646" x="654.1367" y="122.9707">Recherche Instantan&#233;e</text><path d="M601.1367,87.8281 L611.1367,87.8281 C626.1367,87.8281 626.1367,117.2422 641.1367,117.2422 L651.1367,117.2422 " fill="none" style="stroke:#181818;stroke-width:1;"/><path d="M491.4609,166.2656 L501.4609,166.2656 C516.4609,166.2656 516.4609,87.8281 531.4609,87.8281 L541.4609,87.8281 " fill="none" style="stroke:#181818;stroke-width:1;"/><rect fill="#F1F1F1" height="55.2188" rx="12.5" ry="12.5" style="stroke:#181818;stroke-width:1.5;" width="85.3447" x="541.4609" y="138.6563"/><text fill="#000000" font-family="sans-serif" font-size="14" lengthAdjust="spacing" textLength="65.3447" x="551.4609" y="163.1895">Prise RDV</text><text fill="#000000" font-family="sans-serif" font-size="14" lengthAdjust="spacing" textLength="55.2686" x="551.4609" y="180.7988">En Ligne</text><text fill="#000000" font-family="sans-serif" font-size="14" lengthAdjust="spacing" textLength="110.5029" x="679.8057" y="142.5801">Portail Client 24/7</text><path d="M626.8057,166.2656 L636.8057,166.2656 C651.8057,166.2656 651.8057,136.8516 666.8057,136.8516 L676.8057,136.8516 " fill="none" style="stroke:#181818;stroke-width:1;"/><text fill="#000000" font-family="sans-serif" font-size="14" lengthAdjust="spacing" textLength="143.9443" x="679.8057" y="162.1895">Calendrier Temps R&#233;el</text><path d="M626.8057,166.2656 L636.8057,166.2656 C651.8057,166.2656 651.8057,156.4609 666.8057,156.4609 L676.8057,156.4609 " fill="none" style="stroke:#181818;stroke-width:1;"/><text fill="#000000" font-family="sans-serif" font-size="14" lengthAdjust="spacing" textLength="111.2822" x="679.8057" y="181.7988">SMS Rappel Auto</text><path d="M626.8057,166.2656 L636.8057,166.2656 C651.8057,166.2656 651.8057,176.0703 666.8057,176.0703 L676.8057,176.0703 " fill="none" style="stroke:#181818;stroke-width:1;"/><text fill="#000000" font-family="sans-serif" font-size="14" lengthAdjust="spacing" textLength="82.0928" x="679.8057" y="201.4082">D&#233;lai &lt; 2 min</text><path d="M626.8057,166.2656 L636.8057,166.2656 C651.8057,166.2656 651.8057,195.6797 666.8057,195.6797 L676.8057,195.6797 " fill="none" style="stroke:#181818;stroke-width:1;"/><path d="M491.4609,166.2656 L501.4609,166.2656 C516.4609,166.2656 516.4609,166.2656 531.4609,166.2656 L541.4609,166.2656 " fill="none" style="stroke:#181818;stroke-width:1;"/><rect fill="#F1F1F1" height="55.2188" rx="12.5" ry="12.5" style="stroke:#181818;stroke-width:1.5;" width="95.4961" x="541.4609" y="217.0938"/><text fill="#000000" font-family="sans-serif" font-size="14" lengthAdjust="spacing" textLength="64.5928" x="551.4609" y="241.627">Remont&#233;e</text><text fill="#000000" font-family="sans-serif" font-size="14" lengthAdjust="spacing" textLength="75.4961" x="551.4609" y="259.2363">Auto Appels</text><text fill="#000000" font-family="sans-serif" font-size="14" lengthAdjust="spacing" textLength="70.0273" x="689.957" y="221.0176">CTI Int&#233;gr&#233;</text><path d="M636.957,244.7031 L646.957,244.7031 C661.957,244.7031 661.957,215.2891 676.957,215.2891 L686.957,215.2891 " fill="none" style="stroke:#181818;stroke-width:1;"/><text fill="#000000" font-family="sans-serif" font-size="14" lengthAdjust="spacing" textLength="122.9512" x="689.957" y="240.627">Pop-up Fiche Client</text><path d="M636.957,244.7031 L646.957,244.7031 C661.957,244.7031 661.957,234.8984 676.957,234.8984 L686.957,234.8984 " fill="none" style="stroke:#181818;stroke-width:1;"/><text fill="#000000" font-family="sans-serif" font-size="14" lengthAdjust="spacing" textLength="141.627" x="689.957" y="260.2363">Enregistrement Appels</text><path d="M636.957,244.7031 L646.957,244.7031 C661.957,244.7031 661.957,254.5078 676.957,254.5078 L686.957,254.5078 " fill="none" style="stroke:#181818;stroke-width:1;"/><text fill="#000000" font-family="sans-serif" font-size="14" lengthAdjust="spacing" textLength="111.2617" x="689.957" y="279.8457">Stats Temps R&#233;el</text><path d="M636.957,244.7031 L646.957,244.7031 C661.957,244.7031 661.957,274.1172 676.957,274.1172 L686.957,274.1172 " fill="none" style="stroke:#181818;stroke-width:1;"/><path d="M491.4609,166.2656 L501.4609,166.2656 C516.4609,166.2656 516.4609,244.7031 531.4609,244.7031 L541.4609,244.7031 " fill="none" style="stroke:#181818;stroke-width:1;"/><rect fill="#F1F1F1" height="55.2188" rx="12.5" ry="12.5" style="stroke:#181818;stroke-width:1.5;" width="87.7031" x="199.165" y="99.4375"/><text fill="#000000" font-family="sans-serif" font-size="14" lengthAdjust="spacing" textLength="67.7031" x="209.165" y="123.9707">Fin Double</text><text fill="#000000" font-family="sans-serif" font-size="14" lengthAdjust="spacing" textLength="38.1309" x="209.165" y="141.5801">Saisie</text><text fill="#000000" font-family="sans-serif" font-size="14" lengthAdjust="spacing" textLength="124.1201" x="22.0449" y="103.3613">Sync Odoo &gt; SAGE</text><path d="M199.165,127.0469 L189.165,127.0469 C174.165,127.0469 174.165,97.6328 159.165,97.6328 L149.165,97.6328 " fill="none" style="stroke:#181818;stroke-width:1;"/><text fill="#000000" font-family="sans-serif" font-size="14" lengthAdjust="spacing" textLength="77.8271" x="68.3379" y="122.9707">Data Unique</text><path d="M199.165,127.0469 L189.165,127.0469 C174.165,127.0469 174.165,117.2422 159.165,117.2422 L149.165,117.2422 " fill="none" style="stroke:#181818;stroke-width:1;"/><text fill="#000000" font-family="sans-serif" font-size="14" lengthAdjust="spacing" textLength="97.5898" x="48.5752" y="142.5801">Moins d'Erreurs</text><path d="M199.165,127.0469 L189.165,127.0469 C174.165,127.0469 174.165,136.8516 159.165,136.8516 L149.165,136.8516 " fill="none" style="stroke:#181818;stroke-width:1;"/><text fill="#000000" font-family="sans-serif" font-size="14" lengthAdjust="spacing" textLength="84.0684" x="62.0967" y="162.1895">Gain 825h/an</text><path d="M199.165,127.0469 L189.165,127.0469 C174.165,127.0469 174.165,156.4609 159.165,156.4609 L149.165,156.4609 " fill="none" style="stroke:#181818;stroke-width:1;"/><path d="M336.8682,166.2656 L326.8682,166.2656 C311.8682,166.2656 311.8682,127.0469 296.8682,127.0469 L286.8682,127.0469 " fill="none" style="stroke:#181818;stroke-width:1;"/><rect fill="#F1F1F1" height="55.2188" rx="12.5" ry="12.5" style="stroke:#181818;stroke-width:1.5;" width="76.0205" x="210.8477" y="177.875"/><text fill="#000000" font-family="sans-serif" font-size="14" lengthAdjust="spacing" textLength="35.793" x="220.8477" y="202.4082">KPI &amp;</text><text fill="#000000" font-family="sans-serif" font-size="14" lengthAdjust="spacing" textLength="56.0205" x="220.8477" y="220.0176">Analytics</text><text fill="#000000" font-family="sans-serif" font-size="14" lengthAdjust="spacing" textLength="147.8477" x="10" y="181.7988">Dashboard Temps R&#233;el</text><path d="M210.8477,205.4844 L200.8477,205.4844 C185.8477,205.4844 185.8477,176.0703 170.8477,176.0703 L160.8477,176.0703 " fill="none" style="stroke:#181818;stroke-width:1;"/><text fill="#000000" font-family="sans-serif" font-size="14" lengthAdjust="spacing" textLength="68.4688" x="89.3789" y="201.4082">NPS Client</text><path d="M210.8477,205.4844 L200.8477,205.4844 C185.8477,205.4844 185.8477,195.6797 170.8477,195.6797 L160.8477,195.6797 " fill="none" style="stroke:#181818;stroke-width:1;"/><text fill="#000000" font-family="sans-serif" font-size="14" lengthAdjust="spacing" textLength="102.7168" x="55.1309" y="221.0176">Temps R&#233;ponse</text><path d="M210.8477,205.4844 L200.8477,205.4844 C185.8477,205.4844 185.8477,215.2891 170.8477,215.2891 L160.8477,215.2891 " fill="none" style="stroke:#181818;stroke-width:1;"/><text fill="#000000" font-family="sans-serif" font-size="14" lengthAdjust="spacing" textLength="101.165" x="56.6826" y="240.627">Taux R&#233;solution</text><path d="M210.8477,205.4844 L200.8477,205.4844 C185.8477,205.4844 185.8477,234.8984 170.8477,234.8984 L160.8477,234.8984 " fill="none" style="stroke:#181818;stroke-width:1;"/><path d="M336.8682,166.2656 L326.8682,166.2656 C311.8682,166.2656 311.8682,205.4844 296.8682,205.4844 L286.8682,205.4844 " fill="none" style="stroke:#181818;stroke-width:1;"/><!--SRC=[PLF1Rjim3BthAtZQaW1fro3hWc0OsZfEcovk3SlfAK2Xs6nAL9OyIGxMBnho7VcnIR6xhHXW7yn7liT7qXVM2UCgKcKbQk1QDewqieySpOuAZ2IXSemvSX8XyMcG-BpXtqo8Q2FHGk- -r1gYBEapDW1-lrpbY_ix3j7YQXbpDXZ0d1IKpLgbsheXEHyQFCAnwWPbNQ9zWLvEnGiwss_1t8Z3Bx4XIUwmXrmx8R55RiWwRUX7Wn3fgfROqMLOFAFnBooKTwRySzWZ2_Af8OkGpHxMAbQmfAtgk59jd209hLSOZK-_j43avLHf20taMDKMCiybMumd739HroZXid6w3SuEUoa8li88_4IFgXbMMldkSQr27bo64jlnvmlVfWUtvh1_wwKUDhKVLR3G3Vy8nChWrfisM8Kc_wNXJZZxhaCcySc1fR9r7WO_qurVqrfnGPOwu_nL5Uq2lW6_l8ux4y89MAamspQGQF9hBZ_6nc1ZEj5huKadey_Ffw8r-ZrTm0TlKWdvwgYmRsJsUQE5AV-Vu5tAtpdyar3xg-gaSz7y327RNHjZ5tuZtRKobag_uLMoX1qQws4uEnbz6erF9hsv8RZJEpZx36UJwNWy7Pz35ESGu3xhNQTBiBen1K8PXagR8tsVtOgTWAnHZYgSGlZgvKaVUFmMz8lOaT4gR87TFYHj4jnensljZiddu-4LEGX_aB-SXuJDy4aqqldIGfUajbDOvVFXX2s5sZPYwuMU38kq5p2lKvXdlm40]--></g></svg>