<svg xmlns="http://www.w3.org/2000/svg" xmlns:xlink="http://www.w3.org/1999/xlink" contentStyleType="text/css" height="467px" preserveAspectRatio="none" style="width:3783px;height:467px;background:#FFFFFF;" version="1.1" viewBox="0 0 3783 467" width="3783px" zoomAndPan="magnify"><title>Timeline Compar&#233;e - Prise de RDV</title><defs/><g><text fill="#000000" font-family="sans-serif" font-size="14" font-weight="bold" lengthAdjust="spacing" textLength="229.5166" x="1773.0903" y="34.5332">Timeline Compar&#233;e - Prise de RDV</text><line style="stroke:#333333;stroke-width:0.5;" x1="10" x2="10" y1="48.6094" y2="436.9219"/><line style="stroke:#333333;stroke-width:0.5;" x1="3766.6973" x2="3766.6973" y1="48.6094" y2="436.9219"/><rect fill="#FFAAAA" height="388.3125" style="stroke:none;stroke-width:1;" width="3600" x="111.6973" y="48.6094"/><rect fill="#AAFFAA" height="388.3125" style="stroke:none;stroke-width:1;" width="2.5" x="111.6973" y="48.6094"/><line style="stroke:#333333;stroke-width:0.5;stroke-dasharray:3.0,5.0;" x1="111.6973" x2="111.6973" y1="48.6094" y2="436.9219"/><line style="stroke:#333333;stroke-width:0.5;stroke-dasharray:3.0,5.0;" x1="161.6973" x2="161.6973" y1="48.6094" y2="436.9219"/><line style="stroke:#333333;stroke-width:0.5;stroke-dasharray:3.0,5.0;" x1="211.6973" x2="211.6973" y1="48.6094" y2="436.9219"/><line style="stroke:#333333;stroke-width:0.5;stroke-dasharray:3.0,5.0;" x1="261.6973" x2="261.6973" y1="48.6094" y2="436.9219"/><line style="stroke:#333333;stroke-width:0.5;stroke-dasharray:3.0,5.0;" x1="311.6973" x2="311.6973" y1="48.6094" y2="436.9219"/><line style="stroke:#333333;stroke-width:0.5;stroke-dasharray:3.0,5.0;" x1="361.6973" x2="361.6973" y1="48.6094" y2="436.9219"/><line style="stroke:#333333;stroke-width:0.5;stroke-dasharray:3.0,5.0;" x1="411.6973" x2="411.6973" y1="48.6094" y2="436.9219"/><line style="stroke:#333333;stroke-width:0.5;stroke-dasharray:3.0,5.0;" x1="461.6973" x2="461.6973" y1="48.6094" y2="436.9219"/><line style="stroke:#333333;stroke-width:0.5;stroke-dasharray:3.0,5.0;" x1="511.6973" x2="511.6973" y1="48.6094" y2="436.9219"/><line style="stroke:#333333;stroke-width:0.5;stroke-dasharray:3.0,5.0;" x1="561.6973" x2="561.6973" y1="48.6094" y2="436.9219"/><line style="stroke:#333333;stroke-width:0.5;stroke-dasharray:3.0,5.0;" x1="611.6973" x2="611.6973" y1="48.6094" y2="436.9219"/><line style="stroke:#333333;stroke-width:0.5;stroke-dasharray:3.0,5.0;" x1="661.6973" x2="661.6973" y1="48.6094" y2="436.9219"/><line style="stroke:#333333;stroke-width:0.5;stroke-dasharray:3.0,5.0;" x1="711.6973" x2="711.6973" y1="48.6094" y2="436.9219"/><line style="stroke:#333333;stroke-width:0.5;stroke-dasharray:3.0,5.0;" x1="761.6973" x2="761.6973" y1="48.6094" y2="436.9219"/><line style="stroke:#333333;stroke-width:0.5;stroke-dasharray:3.0,5.0;" x1="811.6973" x2="811.6973" y1="48.6094" y2="436.9219"/><line style="stroke:#333333;stroke-width:0.5;stroke-dasharray:3.0,5.0;" x1="861.6973" x2="861.6973" y1="48.6094" y2="436.9219"/><line style="stroke:#333333;stroke-width:0.5;stroke-dasharray:3.0,5.0;" x1="911.6973" x2="911.6973" y1="48.6094" y2="436.9219"/><line style="stroke:#333333;stroke-width:0.5;stroke-dasharray:3.0,5.0;" x1="961.6973" x2="961.6973" y1="48.6094" y2="436.9219"/><line style="stroke:#333333;stroke-width:0.5;stroke-dasharray:3.0,5.0;" x1="1011.6973" x2="1011.6973" y1="48.6094" y2="436.9219"/><line style="stroke:#333333;stroke-width:0.5;stroke-dasharray:3.0,5.0;" x1="1061.6973" x2="1061.6973" y1="48.6094" y2="436.9219"/><line style="stroke:#333333;stroke-width:0.5;stroke-dasharray:3.0,5.0;" x1="1111.6973" x2="1111.6973" y1="48.6094" y2="436.9219"/><line style="stroke:#333333;stroke-width:0.5;stroke-dasharray:3.0,5.0;" x1="1161.6973" x2="1161.6973" y1="48.6094" y2="436.9219"/><line style="stroke:#333333;stroke-width:0.5;stroke-dasharray:3.0,5.0;" x1="1211.6973" x2="1211.6973" y1="48.6094" y2="436.9219"/><line style="stroke:#333333;stroke-width:0.5;stroke-dasharray:3.0,5.0;" x1="1261.6973" x2="1261.6973" y1="48.6094" y2="436.9219"/><line style="stroke:#333333;stroke-width:0.5;stroke-dasharray:3.0,5.0;" x1="1311.6973" x2="1311.6973" y1="48.6094" y2="436.9219"/><line style="stroke:#333333;stroke-width:0.5;stroke-dasharray:3.0,5.0;" x1="1361.6973" x2="1361.6973" y1="48.6094" y2="436.9219"/><line style="stroke:#333333;stroke-width:0.5;stroke-dasharray:3.0,5.0;" x1="1411.6973" x2="1411.6973" y1="48.6094" y2="436.9219"/><line style="stroke:#333333;stroke-width:0.5;stroke-dasharray:3.0,5.0;" x1="1461.6973" x2="1461.6973" y1="48.6094" y2="436.9219"/><line style="stroke:#333333;stroke-width:0.5;stroke-dasharray:3.0,5.0;" x1="1511.6973" x2="1511.6973" y1="48.6094" y2="436.9219"/><line style="stroke:#333333;stroke-width:0.5;stroke-dasharray:3.0,5.0;" x1="1561.6973" x2="1561.6973" y1="48.6094" y2="436.9219"/><line style="stroke:#333333;stroke-width:0.5;stroke-dasharray:3.0,5.0;" x1="1611.6973" x2="1611.6973" y1="48.6094" y2="436.9219"/><line style="stroke:#333333;stroke-width:0.5;stroke-dasharray:3.0,5.0;" x1="1661.6973" x2="1661.6973" y1="48.6094" y2="436.9219"/><line style="stroke:#333333;stroke-width:0.5;stroke-dasharray:3.0,5.0;" x1="1711.6973" x2="1711.6973" y1="48.6094" y2="436.9219"/><line style="stroke:#333333;stroke-width:0.5;stroke-dasharray:3.0,5.0;" x1="1761.6973" x2="1761.6973" y1="48.6094" y2="436.9219"/><line style="stroke:#333333;stroke-width:0.5;stroke-dasharray:3.0,5.0;" x1="1811.6973" x2="1811.6973" y1="48.6094" y2="436.9219"/><line style="stroke:#333333;stroke-width:0.5;stroke-dasharray:3.0,5.0;" x1="1861.6973" x2="1861.6973" y1="48.6094" y2="436.9219"/><line style="stroke:#333333;stroke-width:0.5;stroke-dasharray:3.0,5.0;" x1="1911.6973" x2="1911.6973" y1="48.6094" y2="436.9219"/><line style="stroke:#333333;stroke-width:0.5;stroke-dasharray:3.0,5.0;" x1="1961.6973" x2="1961.6973" y1="48.6094" y2="436.9219"/><line style="stroke:#333333;stroke-width:0.5;stroke-dasharray:3.0,5.0;" x1="2011.6973" x2="2011.6973" y1="48.6094" y2="436.9219"/><line style="stroke:#333333;stroke-width:0.5;stroke-dasharray:3.0,5.0;" x1="2061.6973" x2="2061.6973" y1="48.6094" y2="436.9219"/><line style="stroke:#333333;stroke-width:0.5;stroke-dasharray:3.0,5.0;" x1="2111.6973" x2="2111.6973" y1="48.6094" y2="436.9219"/><line style="stroke:#333333;stroke-width:0.5;stroke-dasharray:3.0,5.0;" x1="2161.6973" x2="2161.6973" y1="48.6094" y2="436.9219"/><line style="stroke:#333333;stroke-width:0.5;stroke-dasharray:3.0,5.0;" x1="2211.6973" x2="2211.6973" y1="48.6094" y2="436.9219"/><line style="stroke:#333333;stroke-width:0.5;stroke-dasharray:3.0,5.0;" x1="2261.6973" x2="2261.6973" y1="48.6094" y2="436.9219"/><line style="stroke:#333333;stroke-width:0.5;stroke-dasharray:3.0,5.0;" x1="2311.6973" x2="2311.6973" y1="48.6094" y2="436.9219"/><line style="stroke:#333333;stroke-width:0.5;stroke-dasharray:3.0,5.0;" x1="2361.6973" x2="2361.6973" y1="48.6094" y2="436.9219"/><line style="stroke:#333333;stroke-width:0.5;stroke-dasharray:3.0,5.0;" x1="2411.6973" x2="2411.6973" y1="48.6094" y2="436.9219"/><line style="stroke:#333333;stroke-width:0.5;stroke-dasharray:3.0,5.0;" x1="2461.6973" x2="2461.6973" y1="48.6094" y2="436.9219"/><line style="stroke:#333333;stroke-width:0.5;stroke-dasharray:3.0,5.0;" x1="2511.6973" x2="2511.6973" y1="48.6094" y2="436.9219"/><line style="stroke:#333333;stroke-width:0.5;stroke-dasharray:3.0,5.0;" x1="2561.6973" x2="2561.6973" y1="48.6094" y2="436.9219"/><line style="stroke:#333333;stroke-width:0.5;stroke-dasharray:3.0,5.0;" x1="2611.6973" x2="2611.6973" y1="48.6094" y2="436.9219"/><line style="stroke:#333333;stroke-width:0.5;stroke-dasharray:3.0,5.0;" x1="2661.6973" x2="2661.6973" y1="48.6094" y2="436.9219"/><line style="stroke:#333333;stroke-width:0.5;stroke-dasharray:3.0,5.0;" x1="2711.6973" x2="2711.6973" y1="48.6094" y2="436.9219"/><line style="stroke:#333333;stroke-width:0.5;stroke-dasharray:3.0,5.0;" x1="2761.6973" x2="2761.6973" y1="48.6094" y2="436.9219"/><line style="stroke:#333333;stroke-width:0.5;stroke-dasharray:3.0,5.0;" x1="2811.6973" x2="2811.6973" y1="48.6094" y2="436.9219"/><line style="stroke:#333333;stroke-width:0.5;stroke-dasharray:3.0,5.0;" x1="2861.6973" x2="2861.6973" y1="48.6094" y2="436.9219"/><line style="stroke:#333333;stroke-width:0.5;stroke-dasharray:3.0,5.0;" x1="2911.6973" x2="2911.6973" y1="48.6094" y2="436.9219"/><line style="stroke:#333333;stroke-width:0.5;stroke-dasharray:3.0,5.0;" x1="2961.6973" x2="2961.6973" y1="48.6094" y2="436.9219"/><line style="stroke:#333333;stroke-width:0.5;stroke-dasharray:3.0,5.0;" x1="3011.6973" x2="3011.6973" y1="48.6094" y2="436.9219"/><line style="stroke:#333333;stroke-width:0.5;stroke-dasharray:3.0,5.0;" x1="3061.6973" x2="3061.6973" y1="48.6094" y2="436.9219"/><line style="stroke:#333333;stroke-width:0.5;stroke-dasharray:3.0,5.0;" x1="3111.6973" x2="3111.6973" y1="48.6094" y2="436.9219"/><line style="stroke:#333333;stroke-width:0.5;stroke-dasharray:3.0,5.0;" x1="3161.6973" x2="3161.6973" y1="48.6094" y2="436.9219"/><line style="stroke:#333333;stroke-width:0.5;stroke-dasharray:3.0,5.0;" x1="3211.6973" x2="3211.6973" y1="48.6094" y2="436.9219"/><line style="stroke:#333333;stroke-width:0.5;stroke-dasharray:3.0,5.0;" x1="3261.6973" x2="3261.6973" y1="48.6094" y2="436.9219"/><line style="stroke:#333333;stroke-width:0.5;stroke-dasharray:3.0,5.0;" x1="3311.6973" x2="3311.6973" y1="48.6094" y2="436.9219"/><line style="stroke:#333333;stroke-width:0.5;stroke-dasharray:3.0,5.0;" x1="3361.6973" x2="3361.6973" y1="48.6094" y2="436.9219"/><line style="stroke:#333333;stroke-width:0.5;stroke-dasharray:3.0,5.0;" x1="3411.6973" x2="3411.6973" y1="48.6094" y2="436.9219"/><line style="stroke:#333333;stroke-width:0.5;stroke-dasharray:3.0,5.0;" x1="3461.6973" x2="3461.6973" y1="48.6094" y2="436.9219"/><line style="stroke:#333333;stroke-width:0.5;stroke-dasharray:3.0,5.0;" x1="3511.6973" x2="3511.6973" y1="48.6094" y2="436.9219"/><line style="stroke:#333333;stroke-width:0.5;stroke-dasharray:3.0,5.0;" x1="3561.6973" x2="3561.6973" y1="48.6094" y2="436.9219"/><line style="stroke:#333333;stroke-width:0.5;stroke-dasharray:3.0,5.0;" x1="3611.6973" x2="3611.6973" y1="48.6094" y2="436.9219"/><line style="stroke:#333333;stroke-width:0.5;stroke-dasharray:3.0,5.0;" x1="3661.6973" x2="3661.6973" y1="48.6094" y2="436.9219"/><line style="stroke:#333333;stroke-width:0.5;stroke-dasharray:3.0,5.0;" x1="3711.6973" x2="3711.6973" y1="48.6094" y2="436.9219"/><line style="stroke:#333333;stroke-width:0.5;stroke-dasharray:3.0,5.0;" x1="3761.6973" x2="3761.6973" y1="48.6094" y2="436.9219"/><line style="stroke:#333333;stroke-width:0.5;" x1="10" x2="3766.6973" y1="48.6094" y2="48.6094"/><text fill="#333333" font-family="sans-serif" font-size="14" font-weight="bold" lengthAdjust="spacing" textLength="155.5928" x="15" y="63.1426">Syst&#232;me ACTUEL (48h)</text><line style="stroke:#333333;stroke-width:0.5;" x1="10" x2="171.5928" y1="67.2188" y2="67.2188"/><line style="stroke:#333333;stroke-width:0.5;" x1="171.5928" x2="181.5928" y1="67.2188" y2="48.6094"/><text fill="#333333" font-family="sans-serif" font-size="12" lengthAdjust="spacing" textLength="62.0391" x="15" y="373.2227">Appel client</text><text fill="#333333" font-family="sans-serif" font-size="12" lengthAdjust="spacing" textLength="81.3691" x="15" y="353.2227">Cherche post-it</text><text fill="#333333" font-family="sans-serif" font-size="12" lengthAdjust="spacing" textLength="89.3789" x="15" y="325.6758">Recherche client</text><text fill="#333333" font-family="sans-serif" font-size="12" lengthAdjust="spacing" textLength="46.0137" x="15" y="340.7695">(3 outils)</text><text fill="#333333" font-family="sans-serif" font-size="12" lengthAdjust="spacing" textLength="91.3945" x="15" y="305.6758">Propose cr&#233;neau</text><text fill="#333333" font-family="sans-serif" font-size="12" lengthAdjust="spacing" textLength="72.6621" x="15" y="320.7695">(INCERTAIN)</text><text fill="#333333" font-family="sans-serif" font-size="12" lengthAdjust="spacing" textLength="64.6992" x="15" y="293.2227">Mail Ga&#235;tan</text><text fill="#333333" font-family="sans-serif" font-size="12" lengthAdjust="spacing" textLength="61.377" x="15" y="273.2227">Attend 7h...</text><text fill="#333333" font-family="sans-serif" font-size="12" lengthAdjust="spacing" textLength="80.0625" x="15" y="253.2227">Ga&#235;tan r&#233;pond</text><text fill="#333333" font-family="sans-serif" font-size="12" lengthAdjust="spacing" textLength="62.0391" x="15" y="225.6758">Appel client</text><text fill="#333333" font-family="sans-serif" font-size="12" lengthAdjust="spacing" textLength="62.7012" x="15" y="240.7695">(r&#233;pondeur)</text><text fill="#333333" font-family="sans-serif" font-size="12" lengthAdjust="spacing" textLength="53.3496" x="15" y="213.2227">Mail client</text><text fill="#333333" font-family="sans-serif" font-size="12" lengthAdjust="spacing" textLength="68.0508" x="15" y="193.2227">Attend 15h...</text><text fill="#333333" font-family="sans-serif" font-size="12" lengthAdjust="spacing" textLength="71.3789" x="15" y="173.2227">Client r&#233;pond</text><text fill="#333333" font-family="sans-serif" font-size="12" lengthAdjust="spacing" textLength="65.3613" x="15" y="153.2227">Saisie Excel</text><text fill="#333333" font-family="sans-serif" font-size="12" lengthAdjust="spacing" textLength="77.373" x="15" y="133.2227">Saisie Outlook</text><text fill="#333333" font-family="sans-serif" font-size="12" lengthAdjust="spacing" textLength="96.6973" x="15" y="113.2227">Mails confirmation</text><text fill="#333333" font-family="sans-serif" font-size="12" lengthAdjust="spacing" textLength="74.6836" x="15" y="85.6758">RDV confirm&#233;</text><text fill="#333333" font-family="sans-serif" font-size="12" lengthAdjust="spacing" textLength="76.0313" x="15" y="100.7695">APR&#200;S 48H !!</text><line style="stroke:#006400;stroke-width:2;" x1="111.6973" x2="117.9473" y1="367.3125" y2="367.3125"/><line style="stroke:#006400;stroke-width:2;" x1="117.9473" x2="124.1973" y1="347.3125" y2="347.3125"/><line style="stroke:#006400;stroke-width:2;" x1="124.1973" x2="130.4473" y1="327.3125" y2="327.3125"/><line style="stroke:#006400;stroke-width:2;" x1="130.4473" x2="136.6973" y1="307.3125" y2="307.3125"/><line style="stroke:#006400;stroke-width:2;" x1="136.6973" x2="636.6973" y1="287.3125" y2="287.3125"/><line style="stroke:#006400;stroke-width:2;" x1="636.6973" x2="642.9473" y1="267.3125" y2="267.3125"/><line style="stroke:#006400;stroke-width:2;" x1="642.9473" x2="649.1973" y1="247.3125" y2="247.3125"/><line style="stroke:#006400;stroke-width:2;" x1="649.1973" x2="655.4473" y1="227.3125" y2="227.3125"/><line style="stroke:#006400;stroke-width:2;" x1="655.4473" x2="1236.6973" y1="207.3125" y2="207.3125"/><line style="stroke:#006400;stroke-width:2;" x1="1236.6973" x2="1242.9473" y1="187.3125" y2="187.3125"/><line style="stroke:#006400;stroke-width:2;" x1="1242.9473" x2="1249.1973" y1="167.3125" y2="167.3125"/><line style="stroke:#006400;stroke-width:2;" x1="1249.1973" x2="1255.4473" y1="147.3125" y2="147.3125"/><line style="stroke:#006400;stroke-width:2;" x1="1255.4473" x2="1261.6973" y1="127.3125" y2="127.3125"/><line style="stroke:#006400;stroke-width:2;" x1="1261.6973" x2="3711.6973" y1="107.3125" y2="107.3125"/><line style="stroke:#006400;stroke-width:2;" x1="3711.6973" x2="3761.6973" y1="87.3125" y2="87.3125"/><line style="stroke:#006400;stroke-width:2;" x1="117.9473" x2="117.9473" y1="347.3125" y2="367.3125"/><line style="stroke:#006400;stroke-width:2;" x1="124.1973" x2="124.1973" y1="327.3125" y2="347.3125"/><line style="stroke:#006400;stroke-width:2;" x1="130.4473" x2="130.4473" y1="307.3125" y2="327.3125"/><line style="stroke:#006400;stroke-width:2;" x1="136.6973" x2="136.6973" y1="287.3125" y2="307.3125"/><line style="stroke:#006400;stroke-width:2;" x1="636.6973" x2="636.6973" y1="267.3125" y2="287.3125"/><line style="stroke:#006400;stroke-width:2;" x1="642.9473" x2="642.9473" y1="247.3125" y2="267.3125"/><line style="stroke:#006400;stroke-width:2;" x1="649.1973" x2="649.1973" y1="227.3125" y2="247.3125"/><line style="stroke:#006400;stroke-width:2;" x1="655.4473" x2="655.4473" y1="207.3125" y2="227.3125"/><line style="stroke:#006400;stroke-width:2;" x1="1236.6973" x2="1236.6973" y1="187.3125" y2="207.3125"/><line style="stroke:#006400;stroke-width:2;" x1="1242.9473" x2="1242.9473" y1="167.3125" y2="187.3125"/><line style="stroke:#006400;stroke-width:2;" x1="1249.1973" x2="1249.1973" y1="147.3125" y2="167.3125"/><line style="stroke:#006400;stroke-width:2;" x1="1255.4473" x2="1255.4473" y1="127.3125" y2="147.3125"/><line style="stroke:#006400;stroke-width:2;" x1="1261.6973" x2="1261.6973" y1="107.3125" y2="127.3125"/><line style="stroke:#006400;stroke-width:2;" x1="3711.6973" x2="3711.6973" y1="87.3125" y2="107.3125"/><line style="stroke:#333333;stroke-width:0.5;" x1="10" x2="3766.6973" y1="379.3125" y2="379.3125"/><text fill="#333333" font-family="sans-serif" font-size="14" font-weight="bold" lengthAdjust="spacing" textLength="149.3721" x="15" y="393.8457">Syst&#232;me CIBLE (2min)</text><line style="stroke:#333333;stroke-width:0.5;" x1="10" x2="165.3721" y1="397.9219" y2="397.9219"/><line style="stroke:#333333;stroke-width:0.5;" x1="165.3721" x2="175.3721" y1="397.9219" y2="379.3125"/><polygon fill="#E2E2F0" points="123.6973,402.9219,100.9473,402.9219,112.9473,414.9219,100.9473,426.9219,123.6973,426.9219,111.6973,414.9219" style="stroke:#006400;stroke-width:1.5;"/><polygon fill="#E2E2F0" points="124.9473,402.9219,102.1973,402.9219,114.1973,414.9219,102.1973,426.9219,124.9473,426.9219,112.9473,414.9219" style="stroke:#006400;stroke-width:1.5;"/><polygon fill="#E2E2F0" points="126.1973,402.9219,1249.6973,402.9219,1261.6973,414.9219,1249.6973,426.9219,126.1973,426.9219,114.1973,414.9219" style="stroke:#006400;stroke-width:1.5;"/><polygon fill="#E2E2F0" points="1273.6973,402.9219,3761.6973,402.9219,3761.6973,426.9219,1273.6973,426.9219,1261.6973,414.9219" style="stroke:#E2E2F0;stroke-width:1.5;"/><path d="M3761.6973,402.9219 L1273.6973,402.9219 L1261.6973,414.9219 L1273.6973,426.9219 L3761.6973,426.9219 " fill="#E2E2F0" style="stroke:#006400;stroke-width:1.5;"/><text fill="#333333" font-family="sans-serif" font-size="12" font-weight="bold" lengthAdjust="spacing" textLength="74.0098" x="75.3174" y="419.832">Appel/Portail</text><text fill="#333333" font-family="sans-serif" font-size="12" font-weight="bold" lengthAdjust="spacing" textLength="90.0234" x="68.5605" y="419.832">Choisit cr&#233;neau</text><text fill="#333333" font-family="sans-serif" font-size="12" font-weight="bold" lengthAdjust="spacing" textLength="103.3242" x="636.2852" y="419.832">Confirmation auto</text><text fill="#333333" font-family="sans-serif" font-size="12" font-weight="bold" lengthAdjust="spacing" textLength="79.3477" x="1273.6973" y="419.832">RDV confirm&#233;</text><line style="stroke:#333333;stroke-width:2;" x1="111.6973" x2="111.6973" y1="436.9219" y2="441.9219"/><line style="stroke:#333333;stroke-width:2;" x1="161.6973" x2="161.6973" y1="436.9219" y2="441.9219"/><line style="stroke:#333333;stroke-width:2;" x1="211.6973" x2="211.6973" y1="436.9219" y2="441.9219"/><line style="stroke:#333333;stroke-width:2;" x1="261.6973" x2="261.6973" y1="436.9219" y2="441.9219"/><line style="stroke:#333333;stroke-width:2;" x1="311.6973" x2="311.6973" y1="436.9219" y2="441.9219"/><line style="stroke:#333333;stroke-width:2;" x1="361.6973" x2="361.6973" y1="436.9219" y2="441.9219"/><line style="stroke:#333333;stroke-width:2;" x1="411.6973" x2="411.6973" y1="436.9219" y2="441.9219"/><line style="stroke:#333333;stroke-width:2;" x1="461.6973" x2="461.6973" y1="436.9219" y2="441.9219"/><line style="stroke:#333333;stroke-width:2;" x1="511.6973" x2="511.6973" y1="436.9219" y2="441.9219"/><line style="stroke:#333333;stroke-width:2;" x1="561.6973" x2="561.6973" y1="436.9219" y2="441.9219"/><line style="stroke:#333333;stroke-width:2;" x1="611.6973" x2="611.6973" y1="436.9219" y2="441.9219"/><line style="stroke:#333333;stroke-width:2;" x1="661.6973" x2="661.6973" y1="436.9219" y2="441.9219"/><line style="stroke:#333333;stroke-width:2;" x1="711.6973" x2="711.6973" y1="436.9219" y2="441.9219"/><line style="stroke:#333333;stroke-width:2;" x1="761.6973" x2="761.6973" y1="436.9219" y2="441.9219"/><line style="stroke:#333333;stroke-width:2;" x1="811.6973" x2="811.6973" y1="436.9219" y2="441.9219"/><line style="stroke:#333333;stroke-width:2;" x1="861.6973" x2="861.6973" y1="436.9219" y2="441.9219"/><line style="stroke:#333333;stroke-width:2;" x1="911.6973" x2="911.6973" y1="436.9219" y2="441.9219"/><line style="stroke:#333333;stroke-width:2;" x1="961.6973" x2="961.6973" y1="436.9219" y2="441.9219"/><line style="stroke:#333333;stroke-width:2;" x1="1011.6973" x2="1011.6973" y1="436.9219" y2="441.9219"/><line style="stroke:#333333;stroke-width:2;" x1="1061.6973" x2="1061.6973" y1="436.9219" y2="441.9219"/><line style="stroke:#333333;stroke-width:2;" x1="1111.6973" x2="1111.6973" y1="436.9219" y2="441.9219"/><line style="stroke:#333333;stroke-width:2;" x1="1161.6973" x2="1161.6973" y1="436.9219" y2="441.9219"/><line style="stroke:#333333;stroke-width:2;" x1="1211.6973" x2="1211.6973" y1="436.9219" y2="441.9219"/><line style="stroke:#333333;stroke-width:2;" x1="1261.6973" x2="1261.6973" y1="436.9219" y2="441.9219"/><line style="stroke:#333333;stroke-width:2;" x1="1311.6973" x2="1311.6973" y1="436.9219" y2="441.9219"/><line style="stroke:#333333;stroke-width:2;" x1="1361.6973" x2="1361.6973" y1="436.9219" y2="441.9219"/><line style="stroke:#333333;stroke-width:2;" x1="1411.6973" x2="1411.6973" y1="436.9219" y2="441.9219"/><line style="stroke:#333333;stroke-width:2;" x1="1461.6973" x2="1461.6973" y1="436.9219" y2="441.9219"/><line style="stroke:#333333;stroke-width:2;" x1="1511.6973" x2="1511.6973" y1="436.9219" y2="441.9219"/><line style="stroke:#333333;stroke-width:2;" x1="1561.6973" x2="1561.6973" y1="436.9219" y2="441.9219"/><line style="stroke:#333333;stroke-width:2;" x1="1611.6973" x2="1611.6973" y1="436.9219" y2="441.9219"/><line style="stroke:#333333;stroke-width:2;" x1="1661.6973" x2="1661.6973" y1="436.9219" y2="441.9219"/><line style="stroke:#333333;stroke-width:2;" x1="1711.6973" x2="1711.6973" y1="436.9219" y2="441.9219"/><line style="stroke:#333333;stroke-width:2;" x1="1761.6973" x2="1761.6973" y1="436.9219" y2="441.9219"/><line style="stroke:#333333;stroke-width:2;" x1="1811.6973" x2="1811.6973" y1="436.9219" y2="441.9219"/><line style="stroke:#333333;stroke-width:2;" x1="1861.6973" x2="1861.6973" y1="436.9219" y2="441.9219"/><line style="stroke:#333333;stroke-width:2;" x1="1911.6973" x2="1911.6973" y1="436.9219" y2="441.9219"/><line style="stroke:#333333;stroke-width:2;" x1="1961.6973" x2="1961.6973" y1="436.9219" y2="441.9219"/><line style="stroke:#333333;stroke-width:2;" x1="2011.6973" x2="2011.6973" y1="436.9219" y2="441.9219"/><line style="stroke:#333333;stroke-width:2;" x1="2061.6973" x2="2061.6973" y1="436.9219" y2="441.9219"/><line style="stroke:#333333;stroke-width:2;" x1="2111.6973" x2="2111.6973" y1="436.9219" y2="441.9219"/><line style="stroke:#333333;stroke-width:2;" x1="2161.6973" x2="2161.6973" y1="436.9219" y2="441.9219"/><line style="stroke:#333333;stroke-width:2;" x1="2211.6973" x2="2211.6973" y1="436.9219" y2="441.9219"/><line style="stroke:#333333;stroke-width:2;" x1="2261.6973" x2="2261.6973" y1="436.9219" y2="441.9219"/><line style="stroke:#333333;stroke-width:2;" x1="2311.6973" x2="2311.6973" y1="436.9219" y2="441.9219"/><line style="stroke:#333333;stroke-width:2;" x1="2361.6973" x2="2361.6973" y1="436.9219" y2="441.9219"/><line style="stroke:#333333;stroke-width:2;" x1="2411.6973" x2="2411.6973" y1="436.9219" y2="441.9219"/><line style="stroke:#333333;stroke-width:2;" x1="2461.6973" x2="2461.6973" y1="436.9219" y2="441.9219"/><line style="stroke:#333333;stroke-width:2;" x1="2511.6973" x2="2511.6973" y1="436.9219" y2="441.9219"/><line style="stroke:#333333;stroke-width:2;" x1="2561.6973" x2="2561.6973" y1="436.9219" y2="441.9219"/><line style="stroke:#333333;stroke-width:2;" x1="2611.6973" x2="2611.6973" y1="436.9219" y2="441.9219"/><line style="stroke:#333333;stroke-width:2;" x1="2661.6973" x2="2661.6973" y1="436.9219" y2="441.9219"/><line style="stroke:#333333;stroke-width:2;" x1="2711.6973" x2="2711.6973" y1="436.9219" y2="441.9219"/><line style="stroke:#333333;stroke-width:2;" x1="2761.6973" x2="2761.6973" y1="436.9219" y2="441.9219"/><line style="stroke:#333333;stroke-width:2;" x1="2811.6973" x2="2811.6973" y1="436.9219" y2="441.9219"/><line style="stroke:#333333;stroke-width:2;" x1="2861.6973" x2="2861.6973" y1="436.9219" y2="441.9219"/><line style="stroke:#333333;stroke-width:2;" x1="2911.6973" x2="2911.6973" y1="436.9219" y2="441.9219"/><line style="stroke:#333333;stroke-width:2;" x1="2961.6973" x2="2961.6973" y1="436.9219" y2="441.9219"/><line style="stroke:#333333;stroke-width:2;" x1="3011.6973" x2="3011.6973" y1="436.9219" y2="441.9219"/><line style="stroke:#333333;stroke-width:2;" x1="3061.6973" x2="3061.6973" y1="436.9219" y2="441.9219"/><line style="stroke:#333333;stroke-width:2;" x1="3111.6973" x2="3111.6973" y1="436.9219" y2="441.9219"/><line style="stroke:#333333;stroke-width:2;" x1="3161.6973" x2="3161.6973" y1="436.9219" y2="441.9219"/><line style="stroke:#333333;stroke-width:2;" x1="3211.6973" x2="3211.6973" y1="436.9219" y2="441.9219"/><line style="stroke:#333333;stroke-width:2;" x1="3261.6973" x2="3261.6973" y1="436.9219" y2="441.9219"/><line style="stroke:#333333;stroke-width:2;" x1="3311.6973" x2="3311.6973" y1="436.9219" y2="441.9219"/><line style="stroke:#333333;stroke-width:2;" x1="3361.6973" x2="3361.6973" y1="436.9219" y2="441.9219"/><line style="stroke:#333333;stroke-width:2;" x1="3411.6973" x2="3411.6973" y1="436.9219" y2="441.9219"/><line style="stroke:#333333;stroke-width:2;" x1="3461.6973" x2="3461.6973" y1="436.9219" y2="441.9219"/><line style="stroke:#333333;stroke-width:2;" x1="3511.6973" x2="3511.6973" y1="436.9219" y2="441.9219"/><line style="stroke:#333333;stroke-width:2;" x1="3561.6973" x2="3561.6973" y1="436.9219" y2="441.9219"/><line style="stroke:#333333;stroke-width:2;" x1="3611.6973" x2="3611.6973" y1="436.9219" y2="441.9219"/><line style="stroke:#333333;stroke-width:2;" x1="3661.6973" x2="3661.6973" y1="436.9219" y2="441.9219"/><line style="stroke:#333333;stroke-width:2;" x1="3711.6973" x2="3711.6973" y1="436.9219" y2="441.9219"/><line style="stroke:#333333;stroke-width:2;" x1="3761.6973" x2="3761.6973" y1="436.9219" y2="441.9219"/><line style="stroke:#333333;stroke-width:2;" x1="111.6973" x2="3761.6973" y1="436.9219" y2="436.9219"/><text fill="#333333" font-family="sans-serif" font-size="11" lengthAdjust="spacing" textLength="6.1177" x="108.6384" y="454.3408">0</text><text fill="#333333" font-family="sans-serif" font-size="11" lengthAdjust="spacing" textLength="6.1177" x="109.8884" y="454.3408">1</text><text fill="#333333" font-family="sans-serif" font-size="11" lengthAdjust="spacing" textLength="6.1177" x="111.1384" y="454.3408">2</text><text fill="#333333" font-family="sans-serif" font-size="11" lengthAdjust="spacing" textLength="6.1177" x="114.8884" y="454.3408">5</text><text fill="#333333" font-family="sans-serif" font-size="11" lengthAdjust="spacing" textLength="12.2354" x="118.0796" y="454.3408">10</text><text fill="#333333" font-family="sans-serif" font-size="11" lengthAdjust="spacing" textLength="12.2354" x="124.3296" y="454.3408">15</text><text fill="#333333" font-family="sans-serif" font-size="11" lengthAdjust="spacing" textLength="12.2354" x="130.5796" y="454.3408">20</text><text fill="#333333" font-family="sans-serif" font-size="11" lengthAdjust="spacing" textLength="18.353" x="627.5208" y="454.3408">420</text><text fill="#333333" font-family="sans-serif" font-size="11" lengthAdjust="spacing" textLength="18.353" x="633.7708" y="454.3408">425</text><text fill="#333333" font-family="sans-serif" font-size="11" lengthAdjust="spacing" textLength="18.353" x="640.0208" y="454.3408">430</text><text fill="#333333" font-family="sans-serif" font-size="11" lengthAdjust="spacing" textLength="18.353" x="646.2708" y="454.3408">435</text><text fill="#333333" font-family="sans-serif" font-size="11" lengthAdjust="spacing" textLength="18.353" x="1227.5208" y="454.3408">900</text><text fill="#333333" font-family="sans-serif" font-size="11" lengthAdjust="spacing" textLength="18.353" x="1233.7708" y="454.3408">905</text><text fill="#333333" font-family="sans-serif" font-size="11" lengthAdjust="spacing" textLength="18.353" x="1240.0208" y="454.3408">910</text><text fill="#333333" font-family="sans-serif" font-size="11" lengthAdjust="spacing" textLength="18.353" x="1246.2708" y="454.3408">915</text><text fill="#333333" font-family="sans-serif" font-size="11" lengthAdjust="spacing" textLength="18.353" x="1252.5208" y="454.3408">920</text><text fill="#333333" font-family="sans-serif" font-size="11" lengthAdjust="spacing" textLength="24.4707" x="3699.4619" y="454.3408">2880</text><line style="stroke:#333333;stroke-width:2;stroke-dasharray:4.0,4.0;" x1="111.6973" x2="111.6973" y1="48.6094" y2="436.9219"/><line style="stroke:#333333;stroke-width:2;stroke-dasharray:4.0,4.0;" x1="3711.6973" x2="3711.6973" y1="48.6094" y2="436.9219"/><text fill="#000000" font-family="sans-serif" font-size="12" lengthAdjust="spacing" textLength="160.0547" x="114.6973" y="63.0664">48 HEURES (Syst&#232;me actuel)</text><line style="stroke:#333333;stroke-width:2;stroke-dasharray:4.0,4.0;" x1="111.6973" x2="111.6973" y1="48.6094" y2="436.9219"/><line style="stroke:#333333;stroke-width:2;stroke-dasharray:4.0,4.0;" x1="114.1973" x2="114.1973" y1="48.6094" y2="436.9219"/><text fill="#000000" font-family="sans-serif" font-size="12" lengthAdjust="spacing" textLength="150.0293" x="114.6973" y="63.0664">2 MINUTES (Syst&#232;me cible)</text><!--SRC=[TPBHRjem58Rl_HIdwGsvA0CAAkogMPQkI2r30NhL6pUSBTOSEufFfEqDzYYhzXXviJaEb5XqaP2Y_Dz__FFxa229i1K5Ig4GObsKl6fU4QvWNGc3i4T8FpynLkcNsX04cr-6cZy5GXHlTya33ARpF0o06uWogb6oJAkiDPx8UFdf8O71f12g8sFn8f6nsn7hF20C155PshTC2bGKC8USldzOwugua85rpVgkECSgon5ARUXAKAkFlR4fPWUa6_si1jUWQnBIX8xsngqhRITPrdQWaDUMNgxY9Dr6ovN39zxmHni9ll3cBt7LgbDVZeXGxU4c7mw7dUmTTZ22FQlKQk-8w_zsOgCSGAohi8DdPs6E_R7RnUYzBEFPCSnYv1VfZFqi2x_83HT682G_CvITF7j7_bgJrFg70ywxCc2tuvke2av2g_ujsnqxQishAte-z- -n3pohQ9qslpSmdT_3nKNWTkaqxF1VojFEZFjghcrKUhjZTrfVxqK4NfEsG2w-vzB-24P06jfmS7bt5za7FjeKS9_iqcG3WxUbvovwUEQ4ooXgZTOsWSVbQhVrR5aR8sJ_0000]--></g></svg>