<svg xmlns="http://www.w3.org/2000/svg" xmlns:xlink="http://www.w3.org/1999/xlink" contentStyleType="text/css" height="2020px" preserveAspectRatio="none" style="width:1138px;height:2020px;background:#FFFFFF;" version="1.1" viewBox="0 0 1138 2020" width="1138px" zoomAndPan="magnify"><title>Use Case Diagram - Direction &amp; Gestion Affaires ACTUEL</title><defs/><g><text fill="#000000" font-family="sans-serif" font-size="14" font-weight="bold" lengthAdjust="spacing" textLength="382.7578" x="370.6211" y="24.5332">Use Case Diagram - Direction &amp; Gestion Affaires ACTUEL</text><!--cluster Systeme Direction-Affaires ACTUEL--><g id="cluster_Systeme Direction-Affaires ACTUEL"><rect fill="#FFFFCC" height="928" rx="2.5" ry="2.5" style="stroke:#181818;stroke-width:1;" width="989" x="143" y="184.6094"/><text fill="#000000" font-family="sans-serif" font-size="14" font-weight="bold" lengthAdjust="spacing" textLength="239.6133" x="517.6934" y="201.1426">Systeme Direction-Affaires ACTUEL</text></g><!--cluster Outils (Chaos)--><g id="cluster_Outils (Chaos)"><rect fill="#FFE4E1" height="515" rx="2.5" ry="2.5" style="stroke:#181818;stroke-width:1;" width="161" x="627.5" y="1338.6094"/><text fill="#000000" font-family="sans-serif" font-size="14" font-weight="bold" lengthAdjust="spacing" textLength="95.6689" x="660.1655" y="1355.1426">Outils (Chaos)</text></g><g id="elem_UC1"><ellipse cx="708.2389" cy="977.5128" fill="#FFD700" rx="36.2389" ry="27.9034" style="stroke:#181818;stroke-width:0.5;"/><text fill="#000000" font-family="sans-serif" font-size="14" lengthAdjust="spacing" textLength="35.0068" x="690.7354" y="972.4366">Creer</text><text fill="#000000" font-family="sans-serif" font-size="14" lengthAdjust="spacing" textLength="32.6826" x="691.8975" y="990.046">devis</text></g><g id="elem_GMN8"><path d="M894,943.1094 L894,970.4794 L744,977.0194 L894,978.4794 L894,1002.1641 A0,0 0 0 0 894,1002.1641 L1115.8589,1002.1641 A0,0 0 0 0 1115.8589,1002.1641 L1115.8589,953.1094 L1105.8589,943.1094 L894,943.1094 A0,0 0 0 0 894,943.1094 " fill="#FEFFDD" style="stroke:#181818;stroke-width:0.5;"/><path d="M1105.8589,943.1094 L1105.8589,953.1094 L1115.8589,953.1094 L1105.8589,943.1094 " fill="#FEFFDD" style="stroke:#181818;stroke-width:0.5;"/><text fill="#000000" font-family="sans-serif" font-size="13" lengthAdjust="spacing" textLength="99.728" x="900" y="961.6045">[!] 2h05 par devis</text><text fill="#000000" font-family="sans-serif" font-size="13" lengthAdjust="spacing" textLength="200.8589" x="900" y="977.9561">[TIME] Recherche template 30 min</text><text fill="#000000" font-family="sans-serif" font-size="13" lengthAdjust="spacing" textLength="93.9453" x="900" y="994.3076">[!] 100% manuel</text></g><g id="elem_UC2"><ellipse cx="707.8012" cy="880.5128" fill="#FF6B6B" rx="47.8012" ry="27.9034" style="stroke:#181818;stroke-width:0.5;"/><text fill="#000000" font-family="sans-serif" font-size="14" lengthAdjust="spacing" textLength="51.3584" x="682.122" y="875.4366">Generer</text><text fill="#000000" font-family="sans-serif" font-size="14" lengthAdjust="spacing" textLength="46.6895" x="684.4564" y="893.046">PPSPS</text></g><g id="elem_GMN12"><path d="M924.5,849.1094 L924.5,875.1494 L756.07,880.2894 L924.5,883.1494 L924.5,908.1641 A0,0 0 0 0 924.5,908.1641 L1085.6816,908.1641 A0,0 0 0 0 1085.6816,908.1641 L1085.6816,859.1094 L1075.6816,849.1094 L924.5,849.1094 A0,0 0 0 0 924.5,849.1094 " fill="#FEFFDD" style="stroke:#181818;stroke-width:0.5;"/><path d="M1075.6816,849.1094 L1075.6816,859.1094 L1085.6816,859.1094 L1075.6816,849.1094 " fill="#FEFFDD" style="stroke:#181818;stroke-width:0.5;"/><text fill="#000000" font-family="sans-serif" font-size="13" lengthAdjust="spacing" textLength="112.7344" x="930.5" y="867.6045">[!] 3h00 par PPSPS</text><text fill="#000000" font-family="sans-serif" font-size="13" lengthAdjust="spacing" textLength="111.6045" x="930.5" y="883.9561">[!] Ctrl+F remplacer</text><text fill="#000000" font-family="sans-serif" font-size="13" lengthAdjust="spacing" textLength="140.1816" x="930.5" y="900.3076">[!] Risque oublis clauses</text></g><g id="elem_UC3"><ellipse cx="259.6291" cy="339.5128" fill="#FF6B6B" rx="100.6291" ry="27.9034" style="stroke:#181818;stroke-width:0.5;"/><text fill="#000000" font-family="sans-serif" font-size="14" lengthAdjust="spacing" textLength="59.917" x="229.6706" y="334.4366">Consulter</text><text fill="#000000" font-family="sans-serif" font-size="14" lengthAdjust="spacing" textLength="126.0684" x="196.5949" y="352.046">avancement affaires</text></g><g id="elem_GMN16"><path d="M618,299.1094 L618,320.4094 L359.04,335.4194 L618,328.4094 L618,341.8125 A0,0 0 0 0 618,341.8125 L797.958,341.8125 A0,0 0 0 0 797.958,341.8125 L797.958,309.1094 L787.958,299.1094 L618,299.1094 A0,0 0 0 0 618,299.1094 " fill="#FEFFDD" style="stroke:#181818;stroke-width:0.5;"/><path d="M787.958,299.1094 L787.958,309.1094 L797.958,309.1094 L787.958,299.1094 " fill="#FEFFDD" style="stroke:#181818;stroke-width:0.5;"/><text fill="#000000" font-family="sans-serif" font-size="13" lengthAdjust="spacing" textLength="158.958" x="624" y="317.6045">[!] Impossible en temps reel</text><text fill="#000000" font-family="sans-serif" font-size="13" lengthAdjust="spacing" textLength="138.7153" x="624" y="333.9561">[TIME] 3h pour compiler</text></g><g id="elem_UC4"><ellipse cx="708.0278" cy="607.5128" fill="#FFD700" rx="72.0278" ry="27.9034" style="stroke:#181818;stroke-width:0.5;"/><text fill="#000000" font-family="sans-serif" font-size="14" lengthAdjust="spacing" textLength="39.6826" x="688.1865" y="602.4366">Suivre</text><text fill="#000000" font-family="sans-serif" font-size="14" lengthAdjust="spacing" textLength="85.6201" x="665.2178" y="620.046">budget affaire</text></g><g id="elem_GMN20"><path d="M182.5,584.1094 L182.5,626.8125 A0,0 0 0 0 182.5,626.8125 L336.4644,626.8125 A0,0 0 0 0 336.4644,626.8125 L336.4644,609.9494 L635.86,607.2894 L336.4644,601.9494 L336.4644,594.1094 L326.4644,584.1094 L182.5,584.1094 A0,0 0 0 0 182.5,584.1094 " fill="#FEFFDD" style="stroke:#181818;stroke-width:0.5;"/><path d="M326.4644,584.1094 L326.4644,594.1094 L336.4644,594.1094 L326.4644,584.1094 " fill="#FEFFDD" style="stroke:#181818;stroke-width:0.5;"/><text fill="#000000" font-family="sans-serif" font-size="13" lengthAdjust="spacing" textLength="132.9644" x="188.5" y="602.6045">[!] Donnees dispersees</text><text fill="#000000" font-family="sans-serif" font-size="13" lengthAdjust="spacing" textLength="132.9517" x="188.5" y="618.9561">[TIME] 1h30 par affaire</text></g><g id="elem_UC5"><ellipse cx="707.9997" cy="1068.5128" fill="#FFD700" rx="44.4997" ry="27.9034" style="stroke:#181818;stroke-width:0.5;"/><text fill="#000000" font-family="sans-serif" font-size="14" lengthAdjust="spacing" textLength="43.5791" x="686.2102" y="1063.4366">Valider</text><text fill="#000000" font-family="sans-serif" font-size="14" lengthAdjust="spacing" textLength="46.6895" x="684.655" y="1081.046">PPSPS</text></g><g id="elem_GMN24"><path d="M935,1037.1094 L935,1063.0794 L752.53,1068.3194 L935,1071.0794 L935,1096.1641 A0,0 0 0 0 935,1096.1641 L1075.1963,1096.1641 A0,0 0 0 0 1075.1963,1096.1641 L1075.1963,1047.1094 L1065.1963,1037.1094 L935,1037.1094 A0,0 0 0 0 935,1037.1094 " fill="#FEFFDD" style="stroke:#181818;stroke-width:0.5;"/><path d="M1065.1963,1037.1094 L1065.1963,1047.1094 L1075.1963,1047.1094 L1065.1963,1037.1094 " fill="#FEFFDD" style="stroke:#181818;stroke-width:0.5;"/><text fill="#000000" font-family="sans-serif" font-size="13" lengthAdjust="spacing" textLength="81.6245" x="941" y="1055.6045">[!] Email Word</text><text fill="#000000" font-family="sans-serif" font-size="13" lengthAdjust="spacing" textLength="119.1963" x="941" y="1071.9561">Commentaires Word</text><text fill="#000000" font-family="sans-serif" font-size="13" lengthAdjust="spacing" textLength="80.9072" x="941" y="1088.3076">[TIME] 30 min</text></g><g id="elem_UC6"><ellipse cx="708.0174" cy="698.5128" fill="#FF6B6B" rx="66.5174" ry="27.9034" style="stroke:#181818;stroke-width:0.5;"/><text fill="#000000" font-family="sans-serif" font-size="14" lengthAdjust="spacing" textLength="72.3652" x="671.8348" y="693.4366">Rechercher</text><text fill="#000000" font-family="sans-serif" font-size="14" lengthAdjust="spacing" textLength="77.8271" x="669.1038" y="711.046">ancien devis</text></g><g id="elem_GMN28"><path d="M162.5,662.1094 L162.5,737.5156 A0,0 0 0 0 162.5,737.5156 L356.1182,737.5156 A0,0 0 0 0 356.1182,737.5156 L356.1182,703.3994 L641.43,698.7594 L356.1182,695.3994 L356.1182,672.1094 L346.1182,662.1094 L162.5,662.1094 A0,0 0 0 0 162.5,662.1094 " fill="#FEFFDD" style="stroke:#181818;stroke-width:0.5;"/><path d="M346.1182,662.1094 L346.1182,672.1094 L356.1182,672.1094 L346.1182,662.1094 " fill="#FEFFDD" style="stroke:#181818;stroke-width:0.5;"/><text fill="#000000" font-family="sans-serif" font-size="13" lengthAdjust="spacing" textLength="10.8354" x="168.5" y="680.6045">[!]</text><text fill="#000000" font-family="sans-serif" font-size="13" font-weight="bold" lengthAdjust="spacing" textLength="158.1709" x="182.9473" y="680.6045">RECHERCHE MANUELLE</text><text fill="#000000" font-family="sans-serif" font-size="13" lengthAdjust="spacing" textLength="108.7417" x="168.5" y="696.9561">200+ fichiers Word</text><text fill="#000000" font-family="sans-serif" font-size="13" lengthAdjust="spacing" textLength="124.2871" x="168.5" y="713.3076">Nommage incoherent</text><text fill="#000000" font-family="sans-serif" font-size="13" lengthAdjust="spacing" textLength="136.5571" x="168.5" y="729.6592">[TIME] 30 min de fouille</text></g><g id="elem_UC7"><ellipse cx="259.6821" cy="520.5128" fill="#FF0000" rx="63.1821" ry="27.9034" style="stroke:#181818;stroke-width:0.5;"/><text fill="#000000" font-family="sans-serif" font-size="14" lengthAdjust="spacing" textLength="64.5791" x="227.3926" y="515.4366">Teletravail</text><text fill="#000000" font-family="sans-serif" font-size="14" lengthAdjust="spacing" textLength="73.1104" x="223.1269" y="533.046">(VPN/MDE)</text></g><g id="elem_GMN32"><path d="M612.5,469.1094 L612.5,505.5794 L322.58,518.6694 L612.5,513.5794 L612.5,544.5156 A0,0 0 0 0 612.5,544.5156 L803.998,544.5156 A0,0 0 0 0 803.998,544.5156 L803.998,479.1094 L793.998,469.1094 L612.5,469.1094 A0,0 0 0 0 612.5,469.1094 " fill="#FEFFDD" style="stroke:#181818;stroke-width:0.5;"/><path d="M793.998,469.1094 L793.998,479.1094 L803.998,479.1094 L793.998,469.1094 " fill="#FEFFDD" style="stroke:#181818;stroke-width:0.5;"/><text fill="#000000" font-family="sans-serif" font-size="13" lengthAdjust="spacing" textLength="112.728" x="618.5" y="487.6045">[!] 30-40s par ecran</text><text fill="#000000" font-family="sans-serif" font-size="13" lengthAdjust="spacing" textLength="125.7217" x="618.5" y="503.9561">[!] Timeouts frequents</text><text fill="#000000" font-family="sans-serif" font-size="13" lengthAdjust="spacing" textLength="85.5981" x="618.5" y="520.3076">[!] VPN + Citrix</text><text fill="#000000" font-family="sans-serif" font-size="13" lengthAdjust="spacing" textLength="170.498" x="618.5" y="536.6592">[FRUSTRE] Frustration 10/10</text></g><g id="elem_UC8"><ellipse cx="707.9032" cy="405.5128" fill="#FF6B6B" rx="48.9032" ry="27.9034" style="stroke:#181818;stroke-width:0.5;"/><text fill="#000000" font-family="sans-serif" font-size="14" lengthAdjust="spacing" textLength="39.6826" x="688.0619" y="400.4366">Suivre</text><text fill="#000000" font-family="sans-serif" font-size="14" lengthAdjust="spacing" textLength="52.917" x="681.4447" y="418.046">reliquats</text></g><g id="elem_GMN36"><path d="M187,403.1094 L187,445.8125 A0,0 0 0 0 187,445.8125 L331.5508,445.8125 A0,0 0 0 0 331.5508,445.8125 L331.5508,425.5594 L658.83,407.6594 L331.5508,417.5594 L331.5508,413.1094 L321.5508,403.1094 L187,403.1094 A0,0 0 0 0 187,403.1094 " fill="#FEFFDD" style="stroke:#181818;stroke-width:0.5;"/><path d="M321.5508,403.1094 L321.5508,413.1094 L331.5508,413.1094 L321.5508,403.1094 " fill="#FEFFDD" style="stroke:#181818;stroke-width:0.5;"/><text fill="#000000" font-family="sans-serif" font-size="13" lengthAdjust="spacing" textLength="80.9263" x="193" y="421.6045">[!] Aucun suivi</text><text fill="#000000" font-family="sans-serif" font-size="13" lengthAdjust="spacing" textLength="123.5508" x="193" y="437.9561">[!] Pertes importantes</text></g><g id="elem_UC9"><ellipse cx="259.5085" cy="248.5128" fill="#FF0000" rx="72.0085" ry="27.9034" style="stroke:#181818;stroke-width:0.5;"/><text fill="#000000" font-family="sans-serif" font-size="14" lengthAdjust="spacing" textLength="54.4688" x="232.2741" y="243.4366">Analyser</text><text fill="#000000" font-family="sans-serif" font-size="14" lengthAdjust="spacing" textLength="85.5928" x="216.7121" y="261.046">performances</text></g><g id="elem_GMN40"><path d="M641.5,221.1094 L641.5,239.4894 L331.74,247.6494 L641.5,247.4894 L641.5,263.8125 A0,0 0 0 0 641.5,263.8125 L774.5234,263.8125 A0,0 0 0 0 774.5234,263.8125 L774.5234,231.1094 L764.5234,221.1094 L641.5,221.1094 A0,0 0 0 0 641.5,221.1094 " fill="#FEFFDD" style="stroke:#181818;stroke-width:0.5;"/><path d="M764.5234,221.1094 L764.5234,231.1094 L774.5234,231.1094 L764.5234,221.1094 " fill="#FEFFDD" style="stroke:#181818;stroke-width:0.5;"/><text fill="#000000" font-family="sans-serif" font-size="13" lengthAdjust="spacing" textLength="76.5845" x="647.5" y="239.6045">[!] Impossible</text><text fill="#000000" font-family="sans-serif" font-size="13" lengthAdjust="spacing" textLength="112.0234" x="647.5" y="255.9561">Pas de dashboards</text></g><g id="elem_UC10"><ellipse cx="707.9559" cy="789.5128" fill="#F1F1F1" rx="60.4559" ry="27.9034" style="stroke:#181818;stroke-width:0.5;"/><text fill="#000000" font-family="sans-serif" font-size="14" lengthAdjust="spacing" textLength="51.3584" x="682.2767" y="784.4366">Envoyer</text><text fill="#000000" font-family="sans-serif" font-size="14" lengthAdjust="spacing" textLength="69.2549" x="673.3284" y="802.046">devis client</text></g><g id="elem_GMN44"><path d="M212,772.1094 L212,814.8125 A0,0 0 0 0 212,814.8125 L306.6772,814.8125 A0,0 0 0 0 306.6772,814.8125 L306.6772,797.1994 L647.18,790.1494 L306.6772,789.1994 L306.6772,782.1094 L296.6772,772.1094 L212,772.1094 A0,0 0 0 0 212,772.1094 " fill="#FEFFDD" style="stroke:#181818;stroke-width:0.5;"/><path d="M296.6772,772.1094 L296.6772,782.1094 L306.6772,782.1094 L296.6772,772.1094 " fill="#FEFFDD" style="stroke:#181818;stroke-width:0.5;"/><text fill="#000000" font-family="sans-serif" font-size="13" lengthAdjust="spacing" textLength="73.6772" x="218" y="790.6045">[TIME] 7 min</text><text fill="#000000" font-family="sans-serif" font-size="13" lengthAdjust="spacing" textLength="73.3218" x="218" y="806.9561">PDF + Email</text></g><g id="elem_Sage"><ellipse cx="707.8538" cy="1402.5128" fill="#FF0000" rx="59.3538" ry="27.9034" style="stroke:#181818;stroke-width:0.5;"/><text fill="#000000" font-family="sans-serif" font-size="14" lengthAdjust="spacing" textLength="67.6963" x="674.0056" y="1397.4366">MDE/Sage</text><text fill="#000000" font-family="sans-serif" font-size="14" lengthAdjust="spacing" textLength="54.4688" x="680.6194" y="1415.046">(Legacy)</text></g><g id="elem_Word"><ellipse cx="707.7939" cy="1560.5128" fill="#FFD700" rx="64.2939" ry="27.9034" style="stroke:#181818;stroke-width:0.5;"/><text fill="#000000" font-family="sans-serif" font-size="14" lengthAdjust="spacing" textLength="33.4482" x="691.0697" y="1555.4366">Word</text><text fill="#000000" font-family="sans-serif" font-size="14" lengthAdjust="spacing" textLength="74.6826" x="670.4526" y="1573.046">(Templates)</text></g><g id="elem_Excel"><ellipse cx="707.8417" cy="1651.5128" fill="#FFD700" rx="42.8417" ry="27.9034" style="stroke:#181818;stroke-width:0.5;"/><text fill="#000000" font-family="sans-serif" font-size="14" lengthAdjust="spacing" textLength="34.2344" x="690.7246" y="1646.4366">Excel</text><text fill="#000000" font-family="sans-serif" font-size="14" lengthAdjust="spacing" textLength="44.3447" x="685.6694" y="1664.046">(perso)</text></g><g id="elem_Dossiers"><ellipse cx="708.1074" cy="1742.5128" fill="#FF6B6B" rx="51.1074" ry="27.9034" style="stroke:#181818;stroke-width:0.5;"/><text fill="#000000" font-family="sans-serif" font-size="14" lengthAdjust="spacing" textLength="54.4551" x="680.8799" y="1737.4366">Dossiers</text><text fill="#000000" font-family="sans-serif" font-size="14" lengthAdjust="spacing" textLength="56.0342" x="680.0903" y="1755.046">Partages</text></g><g id="elem_Email"><ellipse cx="708.1385" cy="1481.5718" fill="#F1F1F1" rx="45.6385" ry="15.4624" style="stroke:#181818;stroke-width:0.5;"/><text fill="#000000" font-family="sans-serif" font-size="14" lengthAdjust="spacing" textLength="48.248" x="682.7641" y="1485.6658">Outlook</text></g><g id="elem_VPN"><ellipse cx="708.1259" cy="1821.674" fill="#FF0000" rx="57.6259" ry="15.5646" style="stroke:#181818;stroke-width:0.5;"/><text fill="#000000" font-family="sans-serif" font-size="14" lengthAdjust="spacing" textLength="64.5586" x="672.8466" y="1826.1906">VPN/Citrix</text></g><!--entity Laurent--><g id="elem_Laurent"><ellipse cx="51.124" cy="1318.6094" fill="#FFB6C1" rx="8" ry="8" style="stroke:#181818;stroke-width:0.5;"/><path d="M51.124,1326.6094 L51.124,1353.6094 M38.124,1334.6094 L64.124,1334.6094 M51.124,1353.6094 L38.124,1368.6094 M51.124,1353.6094 L64.124,1368.6094 " fill="none" style="stroke:#181818;stroke-width:0.5;"/><text fill="#000000" font-family="sans-serif" font-size="14" lengthAdjust="spacing" textLength="47.4824" x="6" y="1384.6426">Laurent</text><text fill="#000000" font-family="sans-serif" font-size="14" lengthAdjust="spacing" textLength="90.248" x="6" y="1402.252">(Resp. Affaire)</text></g><!--entity Marie--><g id="elem_Marie"><ellipse cx="51.2207" cy="300.6094" fill="#DDA0DD" rx="8" ry="8" style="stroke:#181818;stroke-width:0.5;"/><path d="M51.2207,308.6094 L51.2207,335.6094 M38.2207,316.6094 L64.2207,316.6094 M51.2207,335.6094 L38.2207,350.6094 M51.2207,335.6094 L64.2207,350.6094 " fill="none" style="stroke:#181818;stroke-width:0.5;"/><text fill="#000000" font-family="sans-serif" font-size="14" lengthAdjust="spacing" textLength="35.0068" x="17" y="366.6426">Marie</text><text fill="#000000" font-family="sans-serif" font-size="14" lengthAdjust="spacing" textLength="68.4414" x="17" y="384.252">(Directrice)</text></g><!--entity Thomas--><g id="elem_Thomas"><ellipse cx="259.4722" cy="1507.6094" fill="#98FB98" rx="8" ry="8" style="stroke:#181818;stroke-width:0.5;"/><path d="M259.4722,1515.6094 L259.4722,1542.6094 M246.4722,1523.6094 L272.4722,1523.6094 M259.4722,1542.6094 L246.4722,1557.6094 M259.4722,1542.6094 L272.4722,1557.6094 " fill="none" style="stroke:#181818;stroke-width:0.5;"/><text fill="#000000" font-family="sans-serif" font-size="14" lengthAdjust="spacing" textLength="50.5723" x="208.5" y="1573.6426">Thomas</text><text fill="#000000" font-family="sans-serif" font-size="14" lengthAdjust="spacing" textLength="101.9443" x="208.5" y="1591.252">(Bureau Etudes)</text></g><!--entity Client--><g id="elem_Client"><ellipse cx="259.3965" cy="1164.1094" fill="#ADD8E6" rx="8" ry="8" style="stroke:#181818;stroke-width:0.5;"/><path d="M259.3965,1172.1094 L259.3965,1199.1094 M246.3965,1180.1094 L272.3965,1180.1094 M259.3965,1199.1094 L246.3965,1214.1094 M259.3965,1199.1094 L272.3965,1214.1094 " fill="none" style="stroke:#181818;stroke-width:0.5;"/><text fill="#000000" font-family="sans-serif" font-size="14" lengthAdjust="spacing" textLength="35.793" x="241.5" y="1230.1426">Client</text></g><g id="elem_GMN78"><path d="M583,44.6094 L583,169.0703 L833.0488,169.0703 L833.0488,54.6094 L823.0488,44.6094 L583,44.6094 " fill="#FEFFDD" style="stroke:#181818;stroke-width:0.5;"/><path d="M823.0488,44.6094 L823.0488,54.6094 L833.0488,54.6094 L823.0488,44.6094 " fill="#FEFFDD" style="stroke:#181818;stroke-width:1;"/><text fill="#000000" font-family="sans-serif" font-size="13" font-weight="bold" lengthAdjust="spacing" textLength="149.519" x="589" y="63.1045">PROBLEMES MAJEURS</text><text fill="#000000" font-family="sans-serif" font-size="13" lengthAdjust="spacing" textLength="229.0488" x="589" y="79.4561">[!] ERP Legacy ultra-lent (30-40s/ecran)</text><text fill="#000000" font-family="sans-serif" font-size="13" lengthAdjust="spacing" textLength="211.3643" x="589" y="95.8076">[!] Recherche manuelle 200+ fichiers</text><text fill="#000000" font-family="sans-serif" font-size="13" lengthAdjust="spacing" textLength="167.6416" x="589" y="112.1592">[!] PPSPS 100% manuel (3h)</text><text fill="#000000" font-family="sans-serif" font-size="13" lengthAdjust="spacing" textLength="196.5552" x="589" y="128.5107">[!] Pas de templates automatiques</text><text fill="#000000" font-family="sans-serif" font-size="13" lengthAdjust="spacing" textLength="156.7935" x="589" y="144.8623">[!] Pas de visibilite direction</text><text fill="#000000" font-family="sans-serif" font-size="13" lengthAdjust="spacing" textLength="139.439" x="589" y="161.2139">[!] Teletravail impossible</text></g><!--link Laurent to UC1--><g id="link_Laurent_UC1"><path d="M96.14,1360.4494 C206.34,1366.5194 489.28,1375.4794 553,1312.6094 C599.12,1267.1094 543.13,1073.6794 583,1022.6094 C604.21,995.4394 637.4055,985.5538 666.0555,981.2838 " fill="none" id="Laurent-to-UC1" style="stroke:#181818;stroke-width:1;"/><polygon fill="#181818" points="671.99,980.3994,662.4987,977.7698,667.0446,981.1364,663.678,985.6824,671.99,980.3994" style="stroke:#181818;stroke-width:1;"/></g><!--link Laurent to UC2--><g id="link_Laurent_UC2"><path d="M96.2,1345.0094 C106.01,1342.2294 116.36,1339.3094 126,1336.6094 C220.8,1310.0594 489.38,1293.7394 553,1218.6094 C635.88,1120.7394 506.17,1034.2994 583,931.6094 C601.48,906.9194 628.2197,895.5361 655.3397,888.9461 " fill="none" id="Laurent-to-UC2" style="stroke:#181818;stroke-width:1;"/><polygon fill="#181818" points="661.17,887.5294,651.48,885.7676,656.3114,888.71,653.369,893.5414,661.17,887.5294" style="stroke:#181818;stroke-width:1;"/></g><!--link Laurent to UC4--><g id="link_Laurent_UC4"><path d="M57.75,1309.7994 C68.16,1232.9194 93.03,1087.6394 135,1060.6094 C213.38,1010.1294 487.25,1090.7194 553,1024.6094 C611.48,965.8094 532.71,718.5594 583,652.6094 C596.82,634.4894 612.8845,625.3884 634.3845,618.9184 " fill="none" id="Laurent-to-UC4" style="stroke:#181818;stroke-width:1;"/><polygon fill="#181818" points="640.13,617.1894,630.3591,615.9525,635.3421,618.6302,632.6644,623.6132,640.13,617.1894" style="stroke:#181818;stroke-width:1;"/></g><!--link Laurent to UC6--><g id="link_Laurent_UC6"><path d="M51.5,1309.8694 C53.75,1248.7794 67.96,1144.9794 135,1095.6094 C209.99,1040.3894 486.45,1130.7594 553,1065.6094 C604.35,1015.3394 539.06,800.4794 583,743.6094 C597.84,724.3994 615.8672,714.9791 638.6772,708.6691 " fill="none" id="Laurent-to-UC6" style="stroke:#181818;stroke-width:1;"/><polygon fill="#181818" points="644.46,707.0694,634.7193,705.6137,639.641,708.4025,636.8523,713.3242,644.46,707.0694" style="stroke:#181818;stroke-width:1;"/></g><!--link Laurent to UC7--><g id="link_Laurent_UC7"><path d="M54.1,1310.0294 C61.64,1148.1494 89.32,625.5394 135,566.6094 C150.49,546.6294 169.8298,536.9023 193.3898,530.5023 " fill="none" id="Laurent-to-UC7" style="stroke:#181818;stroke-width:1;"/><polygon fill="#181818" points="199.18,528.9294,189.4462,527.4286,194.3549,530.2401,191.5433,535.1488,199.18,528.9294" style="stroke:#181818;stroke-width:1;"/></g><!--link Laurent to UC10--><g id="link_Laurent_UC10"><path d="M55.5,1309.7394 C62.05,1258.1594 80.89,1178.0694 135,1137.6094 C284.19,1026.0594 418.94,1235.9594 553,1106.6094 C596.76,1064.3894 545.42,882.4194 583,834.6094 C599.07,814.1794 619.4423,804.487 643.6223,798.387 " fill="none" id="Laurent-to-UC10" style="stroke:#181818;stroke-width:1;"/><polygon fill="#181818" points="649.44,796.9194,639.735,795.2424,644.5919,798.1424,641.6919,802.9994,649.44,796.9194" style="stroke:#181818;stroke-width:1;"/></g><!--link Laurent to Sage--><g id="link_Laurent_Sage"><path d="M96.05,1386.0194 C108.2,1392.4194 121.71,1398.2894 135,1401.6094 C319.27,1447.6094 541.5152,1426.2516 645.1552,1412.0916 " fill="none" id="Laurent-to-Sage" style="stroke:#181818;stroke-width:1;stroke-dasharray:7.0,7.0;"/><polygon fill="#181818" points="651.1,1411.2794,641.6414,1408.5345,646.146,1411.9562,642.7243,1416.4609,651.1,1411.2794" style="stroke:#181818;stroke-width:1;"/><text fill="#000000" font-family="sans-serif" font-size="13" lengthAdjust="spacing" textLength="33.2363" x="243" y="1398.1045">utilise</text></g><!--link Laurent to Word--><g id="link_Laurent_Word"><path d="M56.1,1405.1194 C64.68,1492.0594 87.79,1671.2694 135,1708.6094 C213.43,1770.6594 261.97,1728.3494 360,1708.6094 C451.2,1690.2494 472.04,1673.4394 553,1627.6094 C567.39,1619.4694 568.41,1613.3994 583,1605.6094 C605.32,1593.6894 625.7897,1585.582 648.3097,1578.052 " fill="none" id="Laurent-to-Word" style="stroke:#181818;stroke-width:1;stroke-dasharray:7.0,7.0;"/><polygon fill="#181818" points="654,1576.1494,644.1961,1575.2098,649.2581,1577.7349,646.733,1582.7969,654,1576.1494" style="stroke:#181818;stroke-width:1;"/><text fill="#000000" font-family="sans-serif" font-size="13" lengthAdjust="spacing" textLength="33.2363" x="243" y="1705.1045">utilise</text></g><!--link Laurent to Excel--><g id="link_Laurent_Excel"><path d="M54.35,1405.3194 C60.28,1503.3894 79.56,1722.2694 135,1767.6094 C212.41,1830.9194 261.03,1781.9194 360,1767.6094 C448.52,1754.8094 469.35,1742.2794 553,1710.6094 C566.76,1705.3994 569.4,1702.2394 583,1696.6094 C611.67,1684.7494 639.0605,1674.7932 663.8305,1666.2132 " fill="none" id="Laurent-to-Excel" style="stroke:#181818;stroke-width:1;stroke-dasharray:7.0,7.0;"/><polygon fill="#181818" points="669.5,1664.2494,659.6865,1663.4155,664.7754,1665.8859,662.305,1670.9748,669.5,1664.2494" style="stroke:#181818;stroke-width:1;"/><text fill="#000000" font-family="sans-serif" font-size="13" lengthAdjust="spacing" textLength="33.2363" x="243" y="1764.1045">utilise</text></g><!--link Laurent to Dossiers--><g id="link_Laurent_Dossiers"><path d="M53.03,1405.3494 C56.49,1513.5694 71.37,1772.2694 135,1825.6094 C215.27,1892.8894 539.2591,1797.0993 658.2291,1758.7693 " fill="none" id="Laurent-to-Dossiers" style="stroke:#181818;stroke-width:1;stroke-dasharray:7.0,7.0;"/><polygon fill="#181818" points="663.94,1756.9294,654.147,1755.882,659.1809,1758.4627,656.6003,1763.4966,663.94,1756.9294" style="stroke:#181818;stroke-width:1;"/><text fill="#000000" font-family="sans-serif" font-size="13" lengthAdjust="spacing" textLength="33.9663" x="243" y="1822.1045">fouille</text></g><!--link Laurent to VPN--><g id="link_Laurent_VPN"><path d="M52.06,1405.2394 C53.31,1521.7494 63.64,1815.9494 135,1875.6094 C300.1,2013.6494 587.8526,1883.4002 675.9326,1838.1702 " fill="none" id="Laurent-to-VPN" style="stroke:#181818;stroke-width:1;stroke-dasharray:7.0,7.0;"/><polygon fill="#181818" points="681.27,1835.4294,671.4367,1835.9823,676.8222,1837.7134,675.0911,1843.0989,681.27,1835.4294" style="stroke:#181818;stroke-width:1;"/><text fill="#000000" font-family="sans-serif" font-size="13" lengthAdjust="spacing" textLength="39.7427" x="240" y="1872.1045">souffre</text></g><!--link Marie to UC3--><g id="link_Marie_UC3"><path d="M85.18,339.6094 C105.36,339.6094 126.3,339.6094 152.91,339.6094 " fill="none" id="Marie-to-UC3" style="stroke:#181818;stroke-width:1;"/><polygon fill="#181818" points="158.91,339.6094,149.91,335.6094,153.91,339.6094,149.91,343.6094,158.91,339.6094" style="stroke:#181818;stroke-width:1;"/></g><!--link Marie to UC9--><g id="link_Marie_UC9"><path d="M85.3,319.5894 C100.23,311.0294 118.21,301.2694 135,293.6094 C157.01,283.5794 176.3092,276.1281 197.9992,268.5081 " fill="none" id="Marie-to-UC9" style="stroke:#181818;stroke-width:1;"/><polygon fill="#181818" points="203.66,266.5194,193.8429,265.7286,198.9426,268.1766,196.4946,273.2764,203.66,266.5194" style="stroke:#181818;stroke-width:1;"/></g><!--link Marie to Excel--><g id="link_Marie_Excel"><path d="M54.2,387.3094 C64.94,617.9594 112.29,1607.4794 135,1629.6094 C209.73,1702.4394 540.8001,1671.2822 659.5101,1657.4822 " fill="none" id="Marie-to-Excel" style="stroke:#181818;stroke-width:1;stroke-dasharray:7.0,7.0;"/><polygon fill="#181818" points="665.47,1656.7894,656.0683,1653.8554,660.5034,1657.3667,656.9921,1661.8019,665.47,1656.7894" style="stroke:#181818;stroke-width:1;"/><text fill="#000000" font-family="sans-serif" font-size="13" lengthAdjust="spacing" textLength="100.4517" x="209.5" y="1626.1045">demande exports</text></g><!--link Thomas to UC5--><g id="link_Thomas_UC5"><path d="M310.72,1513.9494 C334.63,1498.5294 363.68,1479.9494 390,1463.6094 C461.81,1419.0194 495.14,1427.2394 553,1365.6094 C630.92,1282.6194 677.9175,1158.3064 696.5475,1101.9264 " fill="none" id="Thomas-to-UC5" style="stroke:#181818;stroke-width:1;"/><polygon fill="#181818" points="698.43,1096.2294,691.8082,1103.5199,696.8612,1100.9769,699.4043,1106.0299,698.43,1096.2294" style="stroke:#181818;stroke-width:1;"/></g><!--link Thomas to Word--><g id="link_Thomas_Word"><path d="M310.56,1577.0294 C333.83,1589.4494 362.41,1602.3494 390,1608.6094 C460.65,1624.6494 481.38,1619.5094 553,1608.6094 C589.82,1603.0094 624.3124,1592.323 654.3724,1581.373 " fill="none" id="Thomas-to-Word" style="stroke:#181818;stroke-width:1;stroke-dasharray:7.0,7.0;"/><polygon fill="#181818" points="660.01,1579.3194,650.1845,1578.6414,655.312,1581.0307,652.9227,1586.1582,660.01,1579.3194" style="stroke:#181818;stroke-width:1;"/><text fill="#000000" font-family="sans-serif" font-size="13" lengthAdjust="spacing" textLength="60.6899" x="441.5" y="1605.1045">commente</text></g><!--link Thomas to Email--><g id="link_Thomas_Email"><path d="M310.67,1529.3394 C334.44,1521.8194 363.4,1513.5994 390,1508.6094 C486.09,1490.6094 594.8531,1484.7829 656.5231,1482.7929 " fill="none" id="Thomas-to-Email" style="stroke:#181818;stroke-width:1;stroke-dasharray:7.0,7.0;"/><polygon fill="#181818" points="662.52,1482.5994,653.3957,1478.8917,657.5226,1482.7606,653.6537,1486.8876,662.52,1482.5994" style="stroke:#181818;stroke-width:1;"/><text fill="#000000" font-family="sans-serif" font-size="13" lengthAdjust="spacing" textLength="33.2363" x="455" y="1486.1045">utilise</text></g><!--reverse link Client to UC10--><g id="link_Client_UC10"><path d="M283.7316,1199.884 C334.5716,1210.574 478.35,1232.4994 553,1154.6094 C602.42,1103.0494 539.32,891.1194 583,834.6094 C598.9,814.0494 625.07,802.8694 649.29,796.7994 " fill="none" id="Client-backto-UC10" style="stroke:#181818;stroke-width:1;"/><polygon fill="#181818" points="277.86,1198.6494,285.8443,1204.4157,282.753,1199.6782,287.4905,1196.5869,277.86,1198.6494" style="stroke:#181818;stroke-width:1;"/></g><!--link UC1 to UC6--><g id="link_UC1_UC6"><path d="M673.37,985.6194 C622.74,995.0294 529.39,1003.2294 482,949.6094 C468.56,934.4094 458.28,851.1694 583,743.6094 C601.25,727.8694 619.691,719.2297 641.921,712.4497 " fill="none" id="UC1-to-UC6" style="stroke:#181818;stroke-width:1;stroke-dasharray:7.0,7.0;"/><polygon fill="#181818" points="647.66,710.6994,637.8846,709.4989,642.8775,712.158,640.2184,717.1509,647.66,710.6994" style="stroke:#181818;stroke-width:1;"/><text fill="#000000" font-family="sans-serif" font-size="13" lengthAdjust="spacing" textLength="55.6563" x="444" y="946.1045">&#171;include&#187;</text></g><!--link UC2 to UC6--><g id="link_UC2_UC6"><path d="M660.83,886.3094 C608.04,889.7394 524.36,885.6894 482,833.6094 C429.87,769.5294 558.1625,729.9392 641.5325,711.4392 " fill="none" id="UC2-to-UC6" style="stroke:#181818;stroke-width:1;stroke-dasharray:7.0,7.0;"/><polygon fill="#181818" points="647.39,710.1394,637.7372,708.1841,642.5087,711.2225,639.4703,715.9941,647.39,710.1394" style="stroke:#181818;stroke-width:1;"/><text fill="#000000" font-family="sans-serif" font-size="13" lengthAdjust="spacing" textLength="55.6563" x="444" y="830.1045">&#171;include&#187;</text></g><!--link UC2 to UC5--><g id="link_UC2_UC5"><path d="M662.77,870.7694 C610.57,862.3794 526.25,858.5494 482,908.6094 C419.52,979.3094 579.8682,1034.0359 660.8182,1056.4859 " fill="none" id="UC2-to-UC5" style="stroke:#181818;stroke-width:1;stroke-dasharray:7.0,7.0;"/><polygon fill="#181818" points="666.6,1058.0894,658.9963,1051.8297,661.7819,1056.7532,656.8584,1059.5387,666.6,1058.0894" style="stroke:#181818;stroke-width:1;"/><text fill="#000000" font-family="sans-serif" font-size="13" lengthAdjust="spacing" textLength="55.6563" x="444" y="923.1045">&#171;include&#187;</text></g><!--link UC4 to UC8--><g id="link_UC4_UC8"><path d="M637.45,613.5194 C585.73,613.5594 518.42,603.7694 482,558.6094 C424.82,487.6994 575.168,438.4995 656.488,417.6495 " fill="none" id="UC4-to-UC8" style="stroke:#181818;stroke-width:1;stroke-dasharray:7.0,7.0;"/><polygon fill="#181818" points="662.3,416.1594,652.5885,414.52,657.4567,417.4012,654.5754,422.2693,662.3,416.1594" style="stroke:#181818;stroke-width:1;"/><text fill="#000000" font-family="sans-serif" font-size="13" lengthAdjust="spacing" textLength="55.6563" x="444" y="555.1045">&#171;include&#187;</text></g><!--link UC1 to VPN--><g id="link_UC1_VPN"><path d="M672.25,981.0594 C643.9,985.7294 605.43,996.7194 583,1022.6094 C379.4,1257.6294 464.41,1449.2494 483,1543.6094 C505.65,1658.5994 495.18,1710.0094 583,1787.6094 C602.04,1804.4394 622.7281,1811.9588 646.4881,1816.3088 " fill="none" id="UC1-to-VPN" style="stroke:#181818;stroke-width:1;stroke-dasharray:7.0,7.0;"/><polygon fill="#181818" points="652.39,1817.3894,644.2575,1811.834,647.4717,1816.4889,642.8168,1819.7032,652.39,1817.3894" style="stroke:#181818;stroke-width:1;"/><text fill="#000000" font-family="sans-serif" font-size="13" lengthAdjust="spacing" textLength="53.4917" x="445" y="1524.1045">&#171;extend&#187;</text><text fill="#000000" font-family="sans-serif" font-size="13" lengthAdjust="spacing" textLength="39.749" x="451.8713" y="1540.4561">lenteur</text></g><!--link UC7 to Sage--><g id="link_UC7_Sage"><path d="M315.05,533.8994 C332.17,540.8194 349.35,551.1794 360,566.6094 C413.78,644.5294 356.32,903.1294 390,991.6094 C454.6,1161.3094 609.4682,1314.4547 674.3682,1373.6847 " fill="none" id="UC7-to-Sage" style="stroke:#181818;stroke-width:1;stroke-dasharray:7.0,7.0;"/><polygon fill="#181818" points="678.8,1377.7294,674.8487,1368.7079,675.1068,1374.3589,669.4559,1374.617,678.8,1377.7294" style="stroke:#181818;stroke-width:1;"/><text fill="#000000" font-family="sans-serif" font-size="13" lengthAdjust="spacing" textLength="53.4917" x="445.1899" y="972.1045">&#171;extend&#187;</text><text fill="#000000" font-family="sans-serif" font-size="13" lengthAdjust="spacing" textLength="161.8716" x="391" y="988.4561">performance catastrophique</text></g><!--link VPN to GMN78--><g id="link_VPN_GMN78"><path d="M654.31,1827.2694 C598.86,1829.7594 514.54,1823.5294 471.5,1770.1094 C363.59,1636.1694 380.39,367.9994 471.5,222.1094 C496.55,181.9994 540,155.4394 582.88,138.0394 " fill="none" id="VPN-GMN78" style="stroke:#181818;stroke-width:1;stroke-dasharray:7.0,7.0;"/></g><!--SRC=[XLPHJ-Cu47xFhvW3tIqK5L9QIbcXIYL9zpW1MxLbx-7O1pTnM-iIksid27Iw_tvZEt7IRiizW9gPiVtvcvdFaxCyfV2iA0G4_uMCh2J9e8s_98rp9ZZy1b-eChz6ooL1iu9HC7-E7ZmlfSiSSW6IhTOv9DKIpoDnBYGSFP12Kfw_y9CfLPlpQeFJ8o0AIYSSZyTt_Q1JhNaaab5SOG585fVXnWx7OJZomx0Adgz5HXH6t-5Uf80eBnAgx0BhW-ERmVZkPb2j25A6Xve0-nEEHs4uYFgUfyyZV8Ly7CtULKupMhFGthdxaOOz7WS1_EDv08MYiURlA92KoXUUq5Ucp27FGKU7XjU-Zt5SvBHaIoor3sq0V_to7IxN_XLiY0Ipr9hdzu_HTvZIU4qb_W52sgG4T-Zwa37krdPy_rV822zeYZRA4tFE5gulb5EfaKqciyciH7QfaVNl-dTxa5swtRjhtpV8p59d3dAPder16amnbSunPUf7GK4KYvGfY5E28DGXN87WgaXpZOoy4XuZwPWIKf9Tukn-WBFhphtFDa8fji3yKMwuKeZEKEAuxAvX8me9iSWsB3MWzyAQ5UnLOXKkYcH57PuIJcyteQOD39gUGnCApYcMIyBKXaf5wLPEE-kkvRJS-H2ERoHboMxQhZueg2i78Ce8I-5F8HDZ2aIcgRKrxAmLBLKzxGNX2b0dYSVODD2ix_vkTcew-WvDgpMDWj-ZAVx1u-W9E-WXQhMC-zBtps39uZL3dcfeJmYOh2Wm7Wiy6h7_Z1Xnm58KB4qFCZYdASqbrXPBKIQ-JPuk7iFej8H-hQ7x_buch-i6yDizNvbqqLYIkk_cBAEYo1Ki9SMIvxboBZm8pY1WA61lrZYUFi_cKuG-beL2H4PHE_v5n_-_8fGqPJyAabU43muJFd00HaLSS52u1NEs2PKvPfzXeqXKklnmMuuuIT-LJZWMxrB8JBTcTVxD1wpTx6b7OvhWKinMGjHw8OXC3XuTyLVnxZGKzSFfDShbdfOpDbSNrquO9-4OCs2we7dKlriw_xN8MQhW95WJePyDl5ZKYpeewWr4M30NCon5h9y7kYBnkoqVRMemuS9r1MFel1JhyZNIraRVrjTzYwckJ2qImeOQqxxOK1EASIW711EuAZDIcHjbuPRW1LCX_hRxbbpKweBTO4lK-7NDLlT1cZxXovEQCdLljLUzsUtsqBnUsz-NEz-zdU_-plVrxdw-CvoV3ot1dq6dY2cwvJ9ixdTPzlRx75EVdMmqtPg0pw14iSI6tYR0J1-UdK4isExMrqtvrKIGK6mRh7dwfljDRMzefnEl75Bi9bVLP-EAiTLjsdHPQQ-lkBMndMgyShYvRRSjiHXpp-DKZqUUdadEJK9mazjRPkt3eQT7WeyTLpyvUjOns77WUT5RJhdIeAeJBS6tjrHxak7mXQVwReNqj1RNAMz6D0G8Of8Jr4wnMQCWuhsD52n4deiCwxhLcao_tZr4Zz4CtvW_ekVfp3mnvZMSJi0sB-2u8KbR7mmdLjelZAoVbg7rl6L7AjI9hIUg33ClSdFqmjtMrHwbsbK3cm9I84RC4C9Msp4eSco1USIRr0Dq-RxKRvSHxL9EdPRz1m00]--></g></svg>