<svg xmlns="http://www.w3.org/2000/svg" xmlns:xlink="http://www.w3.org/1999/xlink" contentStyleType="text/css" height="1109px" preserveAspectRatio="none" style="width:2072px;height:1109px;background:#FFFFFF;" version="1.1" viewBox="0 0 2072 1109" width="2072px" zoomAndPan="magnify"><title>Flux de Donn&#233;es - Architecture Cible Service Client</title><defs/><g><text fill="#000000" font-family="sans-serif" font-size="14" font-weight="bold" lengthAdjust="spacing" textLength="341.5371" x="858.3953" y="24.5332">Flux de Donn&#233;es - Architecture Cible Service Client</text><!--cluster Internet--><g id="cluster_Internet"><path d="M387.5,44.6094 L439.8379,44.6094 A3.75,3.75 0 0 1 442.3379,47.1094 L449.3379,68.2188 L667.5,68.2188 A2.5,2.5 0 0 1 670,70.7188 L670,215.1094 A2.5,2.5 0 0 1 667.5,217.6094 L387.5,217.6094 A2.5,2.5 0 0 1 385,215.1094 L385,47.1094 A2.5,2.5 0 0 1 387.5,44.6094 " fill="#FFFFFF" style="stroke:#000000;stroke-width:1.5;"/><line style="stroke:#000000;stroke-width:1.5;" x1="385" x2="449.3379" y1="68.2188" y2="68.2188"/><text fill="#000000" font-family="sans-serif" font-size="14" font-weight="bold" lengthAdjust="spacing" textLength="51.3379" x="389" y="61.1426">Internet</text><text fill="#000000" font-family="sans-serif" font-size="14" font-style="italic" lengthAdjust="spacing" textLength="52.1514" x="505.4243" y="84.752">&#171;Cloud&#187;</text></g><!--cluster SaaS Services--><g id="cluster_SaaS Services"><path d="M1445.5,283.6094 L1542.2441,283.6094 A3.75,3.75 0 0 1 1544.7441,286.1094 L1551.7441,307.2188 L1709.5,307.2188 A2.5,2.5 0 0 1 1712,309.7188 L1712,721.6094 A2.5,2.5 0 0 1 1709.5,724.1094 L1445.5,724.1094 A2.5,2.5 0 0 1 1443,721.6094 L1443,286.1094 A2.5,2.5 0 0 1 1445.5,283.6094 " fill="#E3F2FD" style="stroke:#000000;stroke-width:1.5;"/><line style="stroke:#000000;stroke-width:1.5;" x1="1443" x2="1551.7441" y1="307.2188" y2="307.2188"/><text fill="#000000" font-family="sans-serif" font-size="14" font-weight="bold" lengthAdjust="spacing" textLength="95.7441" x="1447" y="300.1426">SaaS Services</text><text fill="#000000" font-family="sans-serif" font-size="14" font-style="italic" lengthAdjust="spacing" textLength="52.1514" x="1555.4243" y="323.752">&#171;Cloud&#187;</text></g><!--cluster Azure Cloud--><g id="cluster_Azure Cloud"><path d="M8.5,551.1094 L91.9414,551.1094 A3.75,3.75 0 0 1 94.4414,553.6094 L101.4414,574.7188 L683.5,574.7188 A2.5,2.5 0 0 1 686,577.2188 L686,721.6094 A2.5,2.5 0 0 1 683.5,724.1094 L8.5,724.1094 A2.5,2.5 0 0 1 6,721.6094 L6,553.6094 A2.5,2.5 0 0 1 8.5,551.1094 " fill="#E8F5E8" style="stroke:#000000;stroke-width:1.5;"/><line style="stroke:#000000;stroke-width:1.5;" x1="6" x2="101.4414" y1="574.7188" y2="574.7188"/><text fill="#000000" font-family="sans-serif" font-size="14" font-weight="bold" lengthAdjust="spacing" textLength="82.4414" x="10" y="567.6426">Azure Cloud</text><text fill="#000000" font-family="sans-serif" font-size="14" font-style="italic" lengthAdjust="spacing" textLength="52.1514" x="323.9243" y="591.252">&#171;Cloud&#187;</text></g><!--cluster On-Premise Duret--><g id="cluster_On-Premise Duret"><path d="M988.5,774.1094 L1108.5342,774.1094 A3.75,3.75 0 0 1 1111.0342,776.6094 L1118.0342,797.7188 L1410.5,797.7188 A2.5,2.5 0 0 1 1413,800.2188 L1413,944.6094 A2.5,2.5 0 0 1 1410.5,947.1094 L988.5,947.1094 A2.5,2.5 0 0 1 986,944.6094 L986,776.6094 A2.5,2.5 0 0 1 988.5,774.1094 " fill="#FFF3E0" style="stroke:#000000;stroke-width:1.5;"/><line style="stroke:#000000;stroke-width:1.5;" x1="986" x2="1118.0342" y1="797.7188" y2="797.7188"/><text fill="#000000" font-family="sans-serif" font-size="14" font-weight="bold" lengthAdjust="spacing" textLength="119.0342" x="990" y="790.6426">On-Premise Duret</text><text fill="#000000" font-family="sans-serif" font-size="14" font-style="italic" lengthAdjust="spacing" textLength="98.0479" x="1154.4761" y="814.252">&#171;Infrastructure&#187;</text></g><!--cluster External APIs--><g id="cluster_External APIs"><path d="M712.5,551.1094 L803.7617,551.1094 A3.75,3.75 0 0 1 806.2617,553.6094 L813.2617,574.7188 L1153.5,574.7188 A2.5,2.5 0 0 1 1156,577.2188 L1156,721.6094 A2.5,2.5 0 0 1 1153.5,724.1094 L712.5,724.1094 A2.5,2.5 0 0 1 710,721.6094 L710,553.6094 A2.5,2.5 0 0 1 712.5,551.1094 " fill="#F3E5F5" style="stroke:#000000;stroke-width:1.5;"/><line style="stroke:#000000;stroke-width:1.5;" x1="710" x2="813.2617" y1="574.7188" y2="574.7188"/><text fill="#000000" font-family="sans-serif" font-size="14" font-weight="bold" lengthAdjust="spacing" textLength="90.2617" x="714" y="567.6426">External APIs</text><text fill="#000000" font-family="sans-serif" font-size="14" font-style="italic" lengthAdjust="spacing" textLength="66.9307" x="903.5347" y="591.252">&#171;External&#187;</text></g><!--entity client--><g id="elem_client"><rect fill="#F1F1F1" height="65.2188" rx="2.5" ry="2.5" style="stroke:#181818;stroke-width:0.5;" width="108.4688" x="546" y="136.6094"/><rect fill="#F1F1F1" height="10" style="stroke:#181818;stroke-width:0.5;" width="15" x="634.4688" y="141.6094"/><rect fill="#F1F1F1" height="2" style="stroke:#181818;stroke-width:0.5;" width="4" x="632.4688" y="143.6094"/><rect fill="#F1F1F1" height="2" style="stroke:#181818;stroke-width:0.5;" width="4" x="632.4688" y="147.6094"/><text fill="#000000" font-family="sans-serif" font-size="14" lengthAdjust="spacing" textLength="68.4688" x="561" y="171.1426">Client Web</text><text fill="#000000" font-family="sans-serif" font-size="14" lengthAdjust="spacing" textLength="49.0068" x="561" y="188.752">(Portail)</text></g><!--entity mobile--><g id="elem_mobile"><rect fill="#F1F1F1" height="65.2188" rx="2.5" ry="2.5" style="stroke:#181818;stroke-width:0.5;" width="110.041" x="401" y="136.6094"/><rect fill="#F1F1F1" height="10" style="stroke:#181818;stroke-width:0.5;" width="15" x="491.041" y="141.6094"/><rect fill="#F1F1F1" height="2" style="stroke:#181818;stroke-width:0.5;" width="4" x="489.041" y="143.6094"/><rect fill="#F1F1F1" height="2" style="stroke:#181818;stroke-width:0.5;" width="4" x="489.041" y="147.6094"/><text fill="#000000" font-family="sans-serif" font-size="14" lengthAdjust="spacing" textLength="70.041" x="416" y="171.1426">App Mobile</text><text fill="#000000" font-family="sans-serif" font-size="14" lengthAdjust="spacing" textLength="67.7031" x="416" y="188.752">Technicien</text></g><!--entity hubspot--><g id="elem_hubspot"><rect fill="#F1F1F1" height="82.8281" rx="2.5" ry="2.5" style="stroke:#181818;stroke-width:0.5;" width="130.2549" x="1459" y="375.6094"/><rect fill="#F1F1F1" height="10" style="stroke:#181818;stroke-width:0.5;" width="15" x="1569.2549" y="380.6094"/><rect fill="#F1F1F1" height="2" style="stroke:#181818;stroke-width:0.5;" width="4" x="1567.2549" y="382.6094"/><rect fill="#F1F1F1" height="2" style="stroke:#181818;stroke-width:0.5;" width="4" x="1567.2549" y="386.6094"/><text fill="#000000" font-family="sans-serif" font-size="14" lengthAdjust="spacing" textLength="90.2549" x="1474" y="410.1426">HubSpot CRM</text><text fill="#000000" font-family="sans-serif" font-size="14" lengthAdjust="spacing" textLength="68.0859" x="1474" y="427.752">+ Ticketing</text><text fill="#000000" font-family="sans-serif" font-size="14" lengthAdjust="spacing" textLength="76.624" x="1474" y="445.3613">+ Workflows</text></g><!--entity analytics--><g id="elem_analytics"><rect fill="#F1F1F1" height="65.2188" rx="2.5" ry="2.5" style="stroke:#181818;stroke-width:0.5;" width="96.0205" x="1459" y="643.1094"/><rect fill="#F1F1F1" height="10" style="stroke:#181818;stroke-width:0.5;" width="15" x="1535.0205" y="648.1094"/><rect fill="#F1F1F1" height="2" style="stroke:#181818;stroke-width:0.5;" width="4" x="1533.0205" y="650.1094"/><rect fill="#F1F1F1" height="2" style="stroke:#181818;stroke-width:0.5;" width="4" x="1533.0205" y="654.1094"/><text fill="#000000" font-family="sans-serif" font-size="14" lengthAdjust="spacing" textLength="54.4824" x="1474" y="677.6426">HubSpot</text><text fill="#000000" font-family="sans-serif" font-size="14" lengthAdjust="spacing" textLength="56.0205" x="1474" y="695.252">Analytics</text></g><!--entity chatbot--><g id="elem_chatbot"><rect fill="#F1F1F1" height="47.6094" rx="2.5" ry="2.5" style="stroke:#181818;stroke-width:0.5;" width="106.1514" x="1590" y="651.6094"/><rect fill="#F1F1F1" height="10" style="stroke:#181818;stroke-width:0.5;" width="15" x="1676.1514" y="656.6094"/><rect fill="#F1F1F1" height="2" style="stroke:#181818;stroke-width:0.5;" width="4" x="1674.1514" y="658.6094"/><rect fill="#F1F1F1" height="2" style="stroke:#181818;stroke-width:0.5;" width="4" x="1674.1514" y="662.6094"/><text fill="#000000" font-family="sans-serif" font-size="14" lengthAdjust="spacing" textLength="66.1514" x="1605" y="686.1426">Chatbot IA</text></g><!--entity api--><g id="elem_api"><rect fill="#F1F1F1" height="65.2188" rx="2.5" ry="2.5" style="stroke:#181818;stroke-width:0.5;" width="120.9375" x="22.5" y="643.1094"/><rect fill="#F1F1F1" height="10" style="stroke:#181818;stroke-width:0.5;" width="15" x="123.4375" y="648.1094"/><rect fill="#F1F1F1" height="2" style="stroke:#181818;stroke-width:0.5;" width="4" x="121.4375" y="650.1094"/><rect fill="#F1F1F1" height="2" style="stroke:#181818;stroke-width:0.5;" width="4" x="121.4375" y="654.1094"/><text fill="#000000" font-family="sans-serif" font-size="14" lengthAdjust="spacing" textLength="80.9375" x="37.5" y="677.6426">Backend API</text><text fill="#000000" font-family="sans-serif" font-size="14" lengthAdjust="spacing" textLength="47.4688" x="37.5" y="695.252">Node.js</text></g><!--entity ml--><g id="elem_ml"><rect fill="#F1F1F1" height="65.2188" rx="2.5" ry="2.5" style="stroke:#181818;stroke-width:0.5;" width="108.4688" x="562" y="643.1094"/><rect fill="#F1F1F1" height="10" style="stroke:#181818;stroke-width:0.5;" width="15" x="650.4688" y="648.1094"/><rect fill="#F1F1F1" height="2" style="stroke:#181818;stroke-width:0.5;" width="4" x="648.4688" y="650.1094"/><rect fill="#F1F1F1" height="2" style="stroke:#181818;stroke-width:0.5;" width="4" x="648.4688" y="654.1094"/><text fill="#000000" font-family="sans-serif" font-size="14" lengthAdjust="spacing" textLength="68.4688" x="577" y="677.6426">ML Models</text><text fill="#000000" font-family="sans-serif" font-size="14" lengthAdjust="spacing" textLength="52.9102" x="577" y="695.252">(Python)</text></g><!--entity dwh--><g id="elem_dwh"><rect fill="#F1F1F1" height="65.2188" rx="2.5" ry="2.5" style="stroke:#181818;stroke-width:0.5;" width="145.0547" x="178.5" y="643.1094"/><rect fill="#F1F1F1" height="10" style="stroke:#181818;stroke-width:0.5;" width="15" x="303.5547" y="648.1094"/><rect fill="#F1F1F1" height="2" style="stroke:#181818;stroke-width:0.5;" width="4" x="301.5547" y="650.1094"/><rect fill="#F1F1F1" height="2" style="stroke:#181818;stroke-width:0.5;" width="4" x="301.5547" y="654.1094"/><text fill="#000000" font-family="sans-serif" font-size="14" lengthAdjust="spacing" textLength="105.0547" x="193.5" y="677.6426">Data Warehouse</text><text fill="#000000" font-family="sans-serif" font-size="14" lengthAdjust="spacing" textLength="68.4756" x="193.5" y="695.252">Azure SQL</text></g><!--entity powerbi--><g id="elem_powerbi"><rect fill="#F1F1F1" height="65.2188" rx="2.5" ry="2.5" style="stroke:#181818;stroke-width:0.5;" width="96.7998" x="429.5" y="643.1094"/><rect fill="#F1F1F1" height="10" style="stroke:#181818;stroke-width:0.5;" width="15" x="506.2998" y="648.1094"/><rect fill="#F1F1F1" height="2" style="stroke:#181818;stroke-width:0.5;" width="4" x="504.2998" y="650.1094"/><rect fill="#F1F1F1" height="2" style="stroke:#181818;stroke-width:0.5;" width="4" x="504.2998" y="654.1094"/><text fill="#000000" font-family="sans-serif" font-size="14" lengthAdjust="spacing" textLength="56.7998" x="444.5" y="677.6426">Power BI</text><text fill="#000000" font-family="sans-serif" font-size="14" lengthAdjust="spacing" textLength="46.6826" x="444.5" y="695.252">Service</text></g><!--entity sage--><g id="elem_sage"><path d="M1162.5,876.6094 C1162.5,866.6094 1210.2412,866.6094 1210.2412,866.6094 C1210.2412,866.6094 1257.9824,866.6094 1257.9824,876.6094 L1257.9824,920.8281 C1257.9824,930.8281 1210.2412,930.8281 1210.2412,930.8281 C1210.2412,930.8281 1162.5,930.8281 1162.5,920.8281 L1162.5,876.6094 " fill="#F1F1F1" style="stroke:#181818;stroke-width:0.5;"/><path d="M1162.5,876.6094 C1162.5,886.6094 1210.2412,886.6094 1210.2412,886.6094 C1210.2412,886.6094 1257.9824,886.6094 1257.9824,876.6094 " fill="none" style="stroke:#181818;stroke-width:0.5;"/><text fill="#000000" font-family="sans-serif" font-size="14" lengthAdjust="spacing" textLength="38.9033" x="1172.5" y="905.1426">SAGE</text><text fill="#000000" font-family="sans-serif" font-size="14" lengthAdjust="spacing" textLength="75.4824" x="1172.5" y="922.752">Base clients</text></g><!--entity erp--><g id="elem_erp"><rect fill="#F1F1F1" height="65.2188" rx="2.5" ry="2.5" style="stroke:#181818;stroke-width:0.5;" width="103.7861" x="1293" y="866.1094"/><rect fill="#F1F1F1" height="10" style="stroke:#181818;stroke-width:0.5;" width="15" x="1376.7861" y="871.1094"/><rect fill="#F1F1F1" height="2" style="stroke:#181818;stroke-width:0.5;" width="4" x="1374.7861" y="873.1094"/><rect fill="#F1F1F1" height="2" style="stroke:#181818;stroke-width:0.5;" width="4" x="1374.7861" y="877.1094"/><text fill="#000000" font-family="sans-serif" font-size="14" lengthAdjust="spacing" textLength="63.7861" x="1308" y="900.6426">MDE ERP</text><text fill="#000000" font-family="sans-serif" font-size="14" lengthAdjust="spacing" textLength="59.917" x="1308" y="918.252">Chantiers</text></g><!--entity tel--><g id="elem_tel"><rect fill="#F1F1F1" height="65.2188" rx="2.5" ry="2.5" style="stroke:#181818;stroke-width:0.5;" width="124.8477" x="1002.5" y="866.1094"/><rect fill="#F1F1F1" height="10" style="stroke:#181818;stroke-width:0.5;" width="15" x="1107.3477" y="871.1094"/><rect fill="#F1F1F1" height="2" style="stroke:#181818;stroke-width:0.5;" width="4" x="1105.3477" y="873.1094"/><rect fill="#F1F1F1" height="2" style="stroke:#181818;stroke-width:0.5;" width="4" x="1105.3477" y="877.1094"/><text fill="#000000" font-family="sans-serif" font-size="14" lengthAdjust="spacing" textLength="56.8203" x="1017.5" y="900.6426">Standard</text><text fill="#000000" font-family="sans-serif" font-size="14" lengthAdjust="spacing" textLength="84.8477" x="1017.5" y="918.252">T&#233;l&#233;phonique</text></g><!--entity cti--><g id="elem_cti"><rect fill="#F1F1F1" height="65.2188" rx="2.5" ry="2.5" style="stroke:#181818;stroke-width:0.5;" width="113.9238" x="861" y="643.1094"/><rect fill="#F1F1F1" height="10" style="stroke:#181818;stroke-width:0.5;" width="15" x="954.9238" y="648.1094"/><rect fill="#F1F1F1" height="2" style="stroke:#181818;stroke-width:0.5;" width="4" x="952.9238" y="650.1094"/><rect fill="#F1F1F1" height="2" style="stroke:#181818;stroke-width:0.5;" width="4" x="952.9238" y="654.1094"/><text fill="#000000" font-family="sans-serif" font-size="14" lengthAdjust="spacing" textLength="22.5518" x="876" y="677.6426">CTI</text><text fill="#000000" font-family="sans-serif" font-size="14" lengthAdjust="spacing" textLength="73.9238" x="876" y="695.252">RingCentral</text></g><!--entity sms--><g id="elem_sms"><rect fill="#F1F1F1" height="65.2188" rx="2.5" ry="2.5" style="stroke:#181818;stroke-width:0.5;" width="129.4756" x="1010.5" y="643.1094"/><rect fill="#F1F1F1" height="10" style="stroke:#181818;stroke-width:0.5;" width="15" x="1119.9756" y="648.1094"/><rect fill="#F1F1F1" height="2" style="stroke:#181818;stroke-width:0.5;" width="4" x="1117.9756" y="650.1094"/><rect fill="#F1F1F1" height="2" style="stroke:#181818;stroke-width:0.5;" width="4" x="1117.9756" y="654.1094"/><text fill="#000000" font-family="sans-serif" font-size="14" lengthAdjust="spacing" textLength="89.4756" x="1025.5" y="677.6426">SMS Gateway</text><text fill="#000000" font-family="sans-serif" font-size="14" lengthAdjust="spacing" textLength="35.7793" x="1025.5" y="695.252">Twilio</text></g><!--entity email--><g id="elem_email"><rect fill="#F1F1F1" height="65.2188" rx="2.5" ry="2.5" style="stroke:#181818;stroke-width:0.5;" width="99.1445" x="726.5" y="643.1094"/><rect fill="#F1F1F1" height="10" style="stroke:#181818;stroke-width:0.5;" width="15" x="805.6445" y="648.1094"/><rect fill="#F1F1F1" height="2" style="stroke:#181818;stroke-width:0.5;" width="4" x="803.6445" y="650.1094"/><rect fill="#F1F1F1" height="2" style="stroke:#181818;stroke-width:0.5;" width="4" x="803.6445" y="654.1094"/><text fill="#000000" font-family="sans-serif" font-size="14" lengthAdjust="spacing" textLength="38.8896" x="741.5" y="677.6426">SMTP</text><text fill="#000000" font-family="sans-serif" font-size="14" lengthAdjust="spacing" textLength="59.1445" x="741.5" y="695.252">SendGrid</text></g><g id="elem_GMN40"><path d="M1728.5,363.1094 L1728.5,413.1094 L1589.2,417.1094 L1728.5,421.1094 L1728.5,471.2188 A0,0 0 0 0 1728.5,471.2188 L2065.3276,471.2188 A0,0 0 0 0 2065.3276,471.2188 L2065.3276,373.1094 L2055.3276,363.1094 L1728.5,363.1094 A0,0 0 0 0 1728.5,363.1094 " fill="#FEFFDD" style="stroke:#181818;stroke-width:0.5;"/><path d="M2055.3276,363.1094 L2055.3276,373.1094 L2065.3276,373.1094 L2055.3276,363.1094 " fill="#FEFFDD" style="stroke:#181818;stroke-width:0.5;"/><text fill="#000000" font-family="sans-serif" font-size="13" font-weight="bold" lengthAdjust="spacing" textLength="101.1309" x="1734.5" y="381.6045">Flux Principaux:</text><text fill="#000000" font-family="sans-serif" font-size="13" lengthAdjust="spacing" textLength="244.6069" x="1734.5" y="397.9561">1. Client portail &#8594; HubSpot (RDV en ligne)</text><text fill="#000000" font-family="sans-serif" font-size="13" lengthAdjust="spacing" textLength="298.4604" x="1734.5" y="414.3076">2. Appel entrant &#8594; CTI &#8594; HubSpot (remont&#233;e fiche)</text><text fill="#000000" font-family="sans-serif" font-size="13" lengthAdjust="spacing" textLength="315.8276" x="1734.5" y="430.6592">3. Technicien app &#8594; API &#8594; HubSpot (bon intervention)</text><text fill="#000000" font-family="sans-serif" font-size="13" lengthAdjust="spacing" textLength="226.167" x="1734.5" y="447.0107">4. HubSpot &#8594; DWH &#8594; ML (pr&#233;dictions)</text><text fill="#000000" font-family="sans-serif" font-size="13" lengthAdjust="spacing" textLength="289.3896" x="1734.5" y="463.3623">5. HubSpot &#8596; SAGE (sync clients bidirectionnelle)</text></g><g id="elem_GMN43"><path d="M1145,994.1094 L1145,1102.2188 A0,0 0 0 0 1145,1102.2188 L1274.7354,1102.2188 A0,0 0 0 0 1274.7354,1102.2188 L1274.7354,1004.1094 L1264.7354,994.1094 L1214,994.1094 L1210,930.8894 L1206,994.1094 L1145,994.1094 A0,0 0 0 0 1145,994.1094 " fill="#FEFFDD" style="stroke:#181818;stroke-width:0.5;"/><path d="M1264.7354,994.1094 L1264.7354,1004.1094 L1274.7354,1004.1094 L1264.7354,994.1094 " fill="#FEFFDD" style="stroke:#181818;stroke-width:0.5;"/><text fill="#000000" font-family="sans-serif" font-size="13" font-weight="bold" lengthAdjust="spacing" textLength="55.6309" x="1151" y="1012.6045">S&#233;curit&#233;:</text><text fill="#000000" font-family="sans-serif" font-size="13" lengthAdjust="spacing" textLength="101.1372" x="1151" y="1028.9561">- TLS 1.3 (transit)</text><text fill="#000000" font-family="sans-serif" font-size="13" lengthAdjust="spacing" textLength="104.7617" x="1151" y="1045.3076">- AES-256 (repos)</text><text fill="#000000" font-family="sans-serif" font-size="13" lengthAdjust="spacing" textLength="108.7354" x="1151" y="1061.6592">- OAuth 2.0 + MFA</text><text fill="#000000" font-family="sans-serif" font-size="13" lengthAdjust="spacing" textLength="104.749" x="1151" y="1078.0107">- RGPD compliant</text><text fill="#000000" font-family="sans-serif" font-size="13" lengthAdjust="spacing" textLength="107.6816" x="1151" y="1094.3623">- Backup quotidien</text></g><!--link client to hubspot--><g id="link_client_hubspot"><path d="M654.01,184.4894 C814.01,227.0894 1279.342,350.9757 1452.982,397.2057 " fill="none" id="client-to-hubspot" style="stroke:#181818;stroke-width:1;"/><polygon fill="#181818" points="1458.78,398.7494,1451.1121,392.5685,1453.9483,397.463,1449.0539,400.2992,1458.78,398.7494" style="stroke:#181818;stroke-width:1;"/><text fill="#000000" font-family="sans-serif" font-size="13" lengthAdjust="spacing" textLength="42.6118" x="961.3123" y="248.1045">HTTPS</text><text fill="#000000" font-family="sans-serif" font-size="13" lengthAdjust="spacing" textLength="59.2363" x="953" y="264.4561">REST API</text></g><!--link mobile to api--><g id="link_mobile_api"><path d="M422.31,201.8094 C364.05,257.9294 243.14,380.2694 164,501.1094 C133.68,547.4094 110.6913,601.2822 96.8213,637.2022 " fill="none" id="mobile-to-api" style="stroke:#181818;stroke-width:1;"/><polygon fill="#181818" points="94.66,642.7994,101.6334,635.8444,96.4611,638.135,94.1705,632.9627,94.66,642.7994" style="stroke:#181818;stroke-width:1;"/><text fill="#000000" font-family="sans-serif" font-size="13" lengthAdjust="spacing" textLength="42.6118" x="353.4304" y="414.6045">HTTPS</text><text fill="#000000" font-family="sans-serif" font-size="13" lengthAdjust="spacing" textLength="53.4727" x="348" y="430.9561">GraphQL</text></g><!--reverse link hubspot to api--><g id="link_hubspot_api"><path d="M1452.7717,419.6507 C1227.7817,424.9507 491.34,446.1094 260,501.1094 C213.5,512.1594 196.99,511.6494 161,543.1094 C129.72,570.4494 107.54,613.5094 95.02,642.8494 " fill="none" id="hubspot-backto-api" style="stroke:#181818;stroke-width:1;"/><polygon fill="#181818" points="1458.77,419.5094,1449.6783,415.7224,1453.7714,419.6271,1449.8667,423.7202,1458.77,419.5094" style="stroke:#181818;stroke-width:1;"/><text fill="#000000" font-family="sans-serif" font-size="13" lengthAdjust="spacing" textLength="59.2363" x="261" y="523.6045">REST API</text></g><!--link hubspot to analytics--><g id="link_hubspot_analytics"><path d="M1521.31,458.7494 C1517.92,509.8894 1512.5671,590.6325 1509.4871,637.0625 " fill="none" id="hubspot-to-analytics" style="stroke:#181818;stroke-width:1;"/><polygon fill="#181818" points="1509.09,643.0494,1513.6769,634.3339,1509.421,638.0603,1505.6945,633.8043,1509.09,643.0494" style="stroke:#181818;stroke-width:1;"/><text fill="#000000" font-family="sans-serif" font-size="13" lengthAdjust="spacing" textLength="54.1899" x="1519" y="523.6045">Data flow</text></g><!--link hubspot to chatbot--><g id="link_hubspot_chatbot"><path d="M1555.82,458.9394 C1565.05,471.9494 1574.62,486.7194 1582,501.1094 C1608.23,552.2494 1626.1556,611.4596 1635.4256,645.5496 " fill="none" id="hubspot-to-chatbot" style="stroke:#181818;stroke-width:1;"/><polygon fill="#181818" points="1637,651.3394,1638.4982,641.6051,1635.688,646.5146,1630.7786,643.7043,1637,651.3394" style="stroke:#181818;stroke-width:1;"/><text fill="#000000" font-family="sans-serif" font-size="13" lengthAdjust="spacing" textLength="65.7554" x="1597" y="523.6045">AI requests</text></g><!--link hubspot to dwh--><g id="link_hubspot_dwh"><path d="M1458.66,419.4894 C1228.28,424.7894 462.53,446.4094 368,501.1094 C312.97,532.9494 280.7298,596.7691 264.4298,637.4891 " fill="none" id="hubspot-to-dwh" style="stroke:#181818;stroke-width:1;"/><polygon fill="#181818" points="262.2,643.0594,269.2582,636.1904,264.0581,638.4175,261.8311,633.2174,262.2,643.0594" style="stroke:#181818;stroke-width:1;"/><text fill="#000000" font-family="sans-serif" font-size="13" lengthAdjust="spacing" textLength="23.8418" x="384.9041" y="515.6045">ETL</text><text fill="#000000" font-family="sans-serif" font-size="13" lengthAdjust="spacing" textLength="55.6499" x="369" y="531.9561">Quotidien</text></g><!--link dwh to ml--><g id="link_dwh_ml"><path d="M278.56,642.9794 C307.9,610.9094 357.53,563.8494 412,543.1094 C474.32,519.3694 506.85,501.6194 562,539.1094 C596.04,562.2494 607.7697,604.5799 612.4197,637.0599 " fill="none" id="dwh-to-ml" style="stroke:#181818;stroke-width:1;"/><polygon fill="#181818" points="613.27,642.9994,615.9541,633.5233,612.5614,638.0498,608.0349,634.6571,613.27,642.9994" style="stroke:#181818;stroke-width:1;"/><text fill="#000000" font-family="sans-serif" font-size="13" lengthAdjust="spacing" textLength="46.9663" x="515" y="515.6045">Training</text><text fill="#000000" font-family="sans-serif" font-size="13" lengthAdjust="spacing" textLength="25.3018" x="525.8323" y="531.9561">data</text></g><!--reverse link hubspot to ml--><g id="link_hubspot_ml"><path d="M1452.73,418.0944 C1229.04,418.6544 509.34,426.2494 440,501.1094 C429.73,512.1994 429.73,524.0194 440,535.1094 C455.75,552.1194 524.53,530.5394 544,543.1094 C579.1,565.7694 598.49,611.6994 608.07,642.8194 " fill="none" id="hubspot-backto-ml" style="stroke:#181818;stroke-width:1;"/><polygon fill="#181818" points="1458.73,418.0794,1449.72,414.1019,1453.73,418.0919,1449.74,422.1019,1458.73,418.0794" style="stroke:#181818;stroke-width:1;"/><text fill="#000000" font-family="sans-serif" font-size="13" lengthAdjust="spacing" textLength="64.3081" x="441" y="523.6045">Pr&#233;dictions</text></g><!--link dwh to powerbi--><g id="link_dwh_powerbi"><path d="M323.76,675.6094 C358.26,675.6094 392.54,675.6094 423.29,675.6094 " fill="none" id="dwh-to-powerbi" style="stroke:#181818;stroke-width:1;"/><polygon fill="#181818" points="429.29,675.6094,420.29,671.6094,424.29,675.6094,420.29,679.6094,429.29,675.6094" style="stroke:#181818;stroke-width:1;"/><text fill="#000000" font-family="sans-serif" font-size="13" lengthAdjust="spacing" textLength="69.3481" x="342" y="669.1045">DirectQuery</text></g><!--link cti to tel--><g id="link_cti_tel"><path d="M939.06,708.2694 C967.01,750.2894 1012.7265,819.024 1040.6565,861.004 " fill="none" id="cti-to-tel" style="stroke:#181818;stroke-width:1;"/><polygon fill="#181818" points="1043.98,865.9994,1042.325,856.2906,1041.2104,861.8365,1035.6644,860.7219,1043.98,865.9994" style="stroke:#181818;stroke-width:1;"/><text fill="#000000" font-family="sans-serif" font-size="13" lengthAdjust="spacing" textLength="57.7954" x="970" y="754.6045">SIP Trunk</text></g><!--reverse link hubspot to cti--><g id="link_hubspot_cti"><path d="M1452.5373,420.9945 C1327.4573,427.1545 1066.55,446.2194 995,501.1094 C949.63,535.9094 930.39,603.2294 922.7,643.0094 " fill="none" id="hubspot-backto-cti" style="stroke:#181818;stroke-width:1;"/><polygon fill="#181818" points="1458.53,420.6994,1449.3441,417.1469,1453.5361,420.9453,1449.7377,425.1372,1458.53,420.6994" style="stroke:#181818;stroke-width:1;"/><text fill="#000000" font-family="sans-serif" font-size="13" lengthAdjust="spacing" textLength="61.4199" x="1008.2859" y="515.6045">Webhooks</text><text fill="#000000" font-family="sans-serif" font-size="13" lengthAdjust="spacing" textLength="85.9917" x="996" y="531.9561">remont&#233;e fiche</text></g><!--link hubspot to sage--><g id="link_hubspot_sage"><path d="M1458.87,427.8094 C1392.87,441.3494 1293.51,472.7294 1243,543.1094 C1171.64,642.5394 1189.8178,794.3315 1202.2178,860.6815 " fill="none" id="hubspot-to-sage" style="stroke:#181818;stroke-width:1;"/><polygon fill="#181818" points="1203.32,866.5794,1205.5986,856.9977,1202.4015,861.6645,1197.7347,858.4674,1203.32,866.5794" style="stroke:#181818;stroke-width:1;"/><text fill="#000000" font-family="sans-serif" font-size="13" lengthAdjust="spacing" textLength="56.3545" x="1259.9041" y="673.1045">ETL Sync</text><text fill="#000000" font-family="sans-serif" font-size="13" lengthAdjust="spacing" textLength="88.1626" x="1244" y="689.4561">Bidirectionnelle</text></g><!--link hubspot to erp--><g id="link_hubspot_erp"><path d="M1462.76,458.8494 C1435.27,480.4994 1405.2,509.5794 1388,543.1094 C1332.66,650.9394 1336.3058,794.8374 1341.3358,859.6574 " fill="none" id="hubspot-to-erp" style="stroke:#181818;stroke-width:1;"/><polygon fill="#181818" points="1341.8,865.6394,1345.0917,856.3569,1341.4132,860.6544,1337.1157,856.9758,1341.8,865.6394" style="stroke:#181818;stroke-width:1;"/><text fill="#000000" font-family="sans-serif" font-size="13" lengthAdjust="spacing" textLength="28.9009" x="1400.9241" y="673.1045">Sync</text><text fill="#000000" font-family="sans-serif" font-size="13" lengthAdjust="spacing" textLength="52.749" x="1389" y="689.4561">chantiers</text></g><!--link hubspot to sms--><g id="link_hubspot_sms"><path d="M1458.84,422.6694 C1355.35,431.2594 1160.19,453.4594 1112,501.1094 C1074.33,538.3594 1070.3355,597.8744 1071.9255,636.8644 " fill="none" id="hubspot-to-sms" style="stroke:#181818;stroke-width:1;"/><polygon fill="#181818" points="1072.17,642.8594,1075.8,633.7039,1071.9663,637.8635,1067.8066,634.0298,1072.17,642.8594" style="stroke:#181818;stroke-width:1;"/><text fill="#000000" font-family="sans-serif" font-size="13" lengthAdjust="spacing" textLength="70.8081" x="1113" y="515.6045">Notifications</text><text fill="#000000" font-family="sans-serif" font-size="13" lengthAdjust="spacing" textLength="36.8481" x="1129.98" y="531.9561">clients</text></g><!--link hubspot to email--><g id="link_hubspot_email"><path d="M1458.86,419.8894 C1314.3,424.8694 971.77,442.6694 874,501.1094 C822.04,532.1694 796.9672,596.0699 785.2672,637.0499 " fill="none" id="hubspot-to-email" style="stroke:#181818;stroke-width:1;"/><polygon fill="#181818" points="783.62,642.8194,789.9371,635.2633,784.9927,638.0115,782.2445,633.067,783.62,642.8194" style="stroke:#181818;stroke-width:1;"/><text fill="#000000" font-family="sans-serif" font-size="13" lengthAdjust="spacing" textLength="80.1963" x="875" y="515.6045">Confirmations</text><text fill="#000000" font-family="sans-serif" font-size="13" lengthAdjust="spacing" textLength="78.0508" x="876.0728" y="531.9561">automatiques</text></g><!--SRC=[RLLHRkCs4FtNAQQx7-ju8MCRryLYiGYWsB9Zm4uKIziKhOk2bkY8DKrgAMeTTx6_FK3HI_WSlabFqY5bAPRI_3WQlY7VFBuPQgOvXJ4ldY2XC99270yq1nSy5QTCqrWNYiAGhH0LKlM5nVZ56HNQSRvBw9e92juldnR-xyFPtQSHlFRVZmV- -tejzBomNkgFByUZUkdkDbZuStWz7e_x_hiwxFyS-OjRRuOBVNym7ZZEcoQP6TbJbJiPYJVaaSAhgT1K2QfVmSUFGowBvEhARef_yDK1YEKsam8PmwybStYWgwNe159fmlZ5Rq1oYCkQ6cWlos0kLupJfOXed0eM8yZ2jpRiV7EUQOI4X9L4-JcNCmbQT6wALPX93SF5V2dUGiJY3TLCF9gF1wasQovtkJqlBLOv8lytVIayGVXUixZ4akghLNjAz0eFctfbmULdemJlJtlPXlTv0UVtswhW6bEfIC0BfajnAnFQ- -D48cDDv7o6MYQKvqRvlKwbA8NVyYPkH3I11w9eAeiSXIyvXVSpYqvsQHCUo1rLS8sddwItiCn4LwnHt9rm0qMtB4URuvRMBbEnLYJNgh3Emb9FdZHL9aXaHN9pizx4Nufhytzf4xnUF2J7RLirZdpm5y5IeDP2CtIfPKDLriI5ceY4g0HjTJpmuo53DTZdekIkAM_mzf-ClGat6bjVLG6aM_TAs-SH2h909mtnKn5UthXkNKau3s52DDsHFJBPCSwa1URRl0sC0YEmI2QA9MLDMsmTm_CD375eO6ioANAdr0VSHEw4UrNP5Zx0JHG58NBomyWKufGDL0FHBi-WYI9PUZzpJD3bTAqREzLRE5MitgGoFgAiZKp_l42TZ8yORmgAekovpbzkXav3Y1_DbkA-a9ebM9XZWgvYZwcXjEK8Y1HXmhQiyOk3CRV86dm3TJmaxAHFOuEJImrRfb31-uAglUCWj6Q1Pi3bS1hWGONOb6kj0t2QfL9kiB7Gtb9e7E2mPd5ANnPbB5jM1U5Un6Xgh4kLboSenudMpa3l6W8M75UkFjkugWKzWxXR50gF9hPOJ2YxvINQkWVnQ9qrKziAJmejpOUv4ySHKbEm6I3NPnEmsxNFLQ2OY5b6YgSFtIw6l- -T7YRKrGvs-FUllw4QiPt5w2UW0ZXx5FG2uPSzmFcEyjeEmIo3nhvfPhKKDOdz7Zm_1cZSp6QW8PkPAoc0cPVf2nw0vPdK7thrki6E7cxiBux6JdRc4WCTd4F_0JE2e9FZDLGZ25Qjgxjmp20sefsaGvEZd4QxqwJgTiFZ8IuKmu9ApLo8PY4gruUE4I5d-i96FJzqBmS_clepcPUnEw_GAShs3jx2VEpPs68IZEoWu8pOrzC5yo8K6NokUwPczHy0]--></g></svg>