<svg xmlns="http://www.w3.org/2000/svg" xmlns:xlink="http://www.w3.org/1999/xlink" contentStyleType="text/css" height="643px" preserveAspectRatio="none" style="width:1018px;height:643px;background:#FFFFFF;" version="1.1" viewBox="0 0 1018 643" width="1018px" zoomAndPan="magnify"><title>Architecture RH CIBLE (Odoo + PayFit)</title><defs/><g><text fill="#000000" font-family="sans-serif" font-size="14" font-weight="bold" lengthAdjust="spacing" textLength="260.1963" x="371.9019" y="24.5332">Architecture RH CIBLE (Odoo + PayFit)</text><!--cluster Odoo Enterprise (Master Data)--><g id="cluster_Odoo Enterprise (Master Data)"><path d="M8.5,44.6094 L211.7617,44.6094 A3.75,3.75 0 0 1 214.2617,47.1094 L221.2617,68.2188 L539.5,68.2188 A2.5,2.5 0 0 1 542,70.7188 L542,477.6094 A2.5,2.5 0 0 1 539.5,480.1094 L8.5,480.1094 A2.5,2.5 0 0 1 6,477.6094 L6,47.1094 A2.5,2.5 0 0 1 8.5,44.6094 " fill="#E1BEE7" style="stroke:#000000;stroke-width:1.5;"/><line style="stroke:#000000;stroke-width:1.5;" x1="6" x2="221.2617" y1="68.2188" y2="68.2188"/><text fill="#000000" font-family="sans-serif" font-size="14" font-weight="bold" lengthAdjust="spacing" textLength="202.2617" x="10" y="61.1426">Odoo Enterprise (Master Data)</text></g><!--cluster Paie & Social (SaaS)--><g id="cluster_Paie &amp; Social (SaaS)"><path d="M568.5,320.6094 L704.8926,320.6094 A3.75,3.75 0 0 1 707.3926,323.1094 L714.3926,344.2188 L1008.5,344.2188 A2.5,2.5 0 0 1 1011,346.7188 L1011,634.1094 A2.5,2.5 0 0 1 1008.5,636.6094 L568.5,636.6094 A2.5,2.5 0 0 1 566,634.1094 L566,323.1094 A2.5,2.5 0 0 1 568.5,320.6094 " fill="#FFF3E0" style="stroke:#000000;stroke-width:1.5;"/><line style="stroke:#000000;stroke-width:1.5;" x1="566" x2="714.3926" y1="344.2188" y2="344.2188"/><text fill="#000000" font-family="sans-serif" font-size="14" font-weight="bold" lengthAdjust="spacing" textLength="135.3926" x="570" y="337.1426">Paie &amp; Social (SaaS)</text></g><!--cluster PayFit--><g id="cluster_PayFit"><rect fill="#FFA500" height="232" rx="2.5" ry="2.5" style="stroke:#181818;stroke-width:1;" width="381" x="598" y="372.6094"/><rect fill="#FFA500" height="10" style="stroke:#181818;stroke-width:1;" width="15" x="959" y="377.6094"/><rect fill="#FFA500" height="2" style="stroke:#181818;stroke-width:1;" width="4" x="957" y="379.6094"/><rect fill="#FFA500" height="2" style="stroke:#181818;stroke-width:1;" width="4" x="957" y="383.6094"/><text fill="#000000" font-family="sans-serif" font-size="14" font-weight="bold" lengthAdjust="spacing" textLength="108.9102" x="734.0449" y="400.1426">PayFit (ou Silae)</text></g><!--cluster Utilisateurs--><g id="cluster_Utilisateurs"><path d="M568.5,44.6094 L645.748,44.6094 A3.75,3.75 0 0 1 648.248,47.1094 L655.248,68.2188 L902.5,68.2188 A2.5,2.5 0 0 1 905,70.7188 L905,142.1094 A2.5,2.5 0 0 1 902.5,144.6094 L568.5,144.6094 A2.5,2.5 0 0 1 566,142.1094 L566,47.1094 A2.5,2.5 0 0 1 568.5,44.6094 " fill="#E3F2FD" style="stroke:#000000;stroke-width:1.5;"/><line style="stroke:#000000;stroke-width:1.5;" x1="566" x2="655.248" y1="68.2188" y2="68.2188"/><text fill="#000000" font-family="sans-serif" font-size="14" font-weight="bold" lengthAdjust="spacing" textLength="76.248" x="570" y="61.1426">Utilisateurs</text></g><!--entity DB--><g id="elem_DB"><path d="M164.5,427.1094 C164.5,417.1094 229.0679,417.1094 229.0679,417.1094 C229.0679,417.1094 293.6357,417.1094 293.6357,427.1094 L293.6357,453.7188 C293.6357,463.7188 229.0679,463.7188 229.0679,463.7188 C229.0679,463.7188 164.5,463.7188 164.5,453.7188 L164.5,427.1094 " fill="#BA68C8" style="stroke:#181818;stroke-width:0.5;"/><path d="M164.5,427.1094 C164.5,437.1094 229.0679,437.1094 229.0679,437.1094 C229.0679,437.1094 293.6357,437.1094 293.6357,427.1094 " fill="none" style="stroke:#181818;stroke-width:0.5;"/><text fill="#000000" font-family="sans-serif" font-size="14" lengthAdjust="spacing" textLength="109.1357" x="174.5" y="455.6426">Base Employ&#195;&#169;s</text></g><!--entity ModEmp--><g id="elem_ModEmp"><rect fill="#F1F1F1" height="47.6094" rx="2.5" ry="2.5" style="stroke:#181818;stroke-width:0.5;" width="163.1426" x="22.5" y="208.6094"/><rect fill="#F1F1F1" height="10" style="stroke:#181818;stroke-width:0.5;" width="15" x="165.6426" y="213.6094"/><rect fill="#F1F1F1" height="2" style="stroke:#181818;stroke-width:0.5;" width="4" x="163.6426" y="215.6094"/><rect fill="#F1F1F1" height="2" style="stroke:#181818;stroke-width:0.5;" width="4" x="163.6426" y="219.6094"/><text fill="#000000" font-family="sans-serif" font-size="14" lengthAdjust="spacing" textLength="123.1426" x="37.5" y="243.1426">Module Employ&#195;&#169;s</text></g><!--entity ModRecrut--><g id="elem_ModRecrut"><rect fill="#F1F1F1" height="47.6094" rx="2.5" ry="2.5" style="stroke:#181818;stroke-width:0.5;" width="169.9512" x="209" y="80.6094"/><rect fill="#F1F1F1" height="10" style="stroke:#181818;stroke-width:0.5;" width="15" x="358.9512" y="85.6094"/><rect fill="#F1F1F1" height="2" style="stroke:#181818;stroke-width:0.5;" width="4" x="356.9512" y="87.6094"/><rect fill="#F1F1F1" height="2" style="stroke:#181818;stroke-width:0.5;" width="4" x="356.9512" y="91.6094"/><text fill="#000000" font-family="sans-serif" font-size="14" lengthAdjust="spacing" textLength="129.9512" x="224" y="115.1426">Module Recrutement</text></g><!--entity ModConges--><g id="elem_ModConges"><rect fill="#F1F1F1" height="47.6094" rx="2.5" ry="2.5" style="stroke:#181818;stroke-width:0.5;" width="149.9287" x="221" y="208.6094"/><rect fill="#F1F1F1" height="10" style="stroke:#181818;stroke-width:0.5;" width="15" x="350.9287" y="213.6094"/><rect fill="#F1F1F1" height="2" style="stroke:#181818;stroke-width:0.5;" width="4" x="348.9287" y="215.6094"/><rect fill="#F1F1F1" height="2" style="stroke:#181818;stroke-width:0.5;" width="4" x="348.9287" y="219.6094"/><text fill="#000000" font-family="sans-serif" font-size="14" lengthAdjust="spacing" textLength="109.9287" x="236" y="243.1426">Module Cong&#195;&#169;s</text></g><!--entity ModNDF--><g id="elem_ModNDF"><rect fill="#F1F1F1" height="47.6094" rx="2.5" ry="2.5" style="stroke:#181818;stroke-width:0.5;" width="118.5791" x="406.5" y="208.6094"/><rect fill="#F1F1F1" height="10" style="stroke:#181818;stroke-width:0.5;" width="15" x="505.0791" y="213.6094"/><rect fill="#F1F1F1" height="2" style="stroke:#181818;stroke-width:0.5;" width="4" x="503.0791" y="215.6094"/><rect fill="#F1F1F1" height="2" style="stroke:#181818;stroke-width:0.5;" width="4" x="503.0791" y="219.6094"/><text fill="#000000" font-family="sans-serif" font-size="14" lengthAdjust="spacing" textLength="78.5791" x="421.5" y="243.1426">Module NDF</text></g><!--entity ModFleet--><g id="elem_ModFleet"><rect fill="#F1F1F1" height="47.6094" rx="2.5" ry="2.5" style="stroke:#181818;stroke-width:0.5;" width="151.2822" x="22.5" y="80.6094"/><rect fill="#F1F1F1" height="10" style="stroke:#181818;stroke-width:0.5;" width="15" x="153.7822" y="85.6094"/><rect fill="#F1F1F1" height="2" style="stroke:#181818;stroke-width:0.5;" width="4" x="151.7822" y="87.6094"/><rect fill="#F1F1F1" height="2" style="stroke:#181818;stroke-width:0.5;" width="4" x="151.7822" y="91.6094"/><text fill="#000000" font-family="sans-serif" font-size="14" lengthAdjust="spacing" textLength="111.2822" x="37.5" y="115.1426">Module Parc Auto</text></g><!--entity Moteur Paie--><g id="elem_Moteur Paie"><rect fill="#F1F1F1" height="47.6094" rx="2.5" ry="2.5" style="stroke:#181818;stroke-width:0.5;" width="115.4824" x="641.5" y="416.6094"/><rect fill="#F1F1F1" height="10" style="stroke:#181818;stroke-width:0.5;" width="15" x="736.9824" y="421.6094"/><rect fill="#F1F1F1" height="2" style="stroke:#181818;stroke-width:0.5;" width="4" x="734.9824" y="423.6094"/><rect fill="#F1F1F1" height="2" style="stroke:#181818;stroke-width:0.5;" width="4" x="734.9824" y="427.6094"/><text fill="#000000" font-family="sans-serif" font-size="14" lengthAdjust="spacing" textLength="75.4824" x="656.5" y="451.1426">Moteur Paie</text></g><!--entity D??clarations DSN--><g id="elem_D&#195;&#169;clarations DSN"><rect fill="#F1F1F1" height="47.6094" rx="2.5" ry="2.5" style="stroke:#181818;stroke-width:0.5;" width="163.1289" x="791.5" y="416.6094"/><rect fill="#F1F1F1" height="10" style="stroke:#181818;stroke-width:0.5;" width="15" x="934.6289" y="421.6094"/><rect fill="#F1F1F1" height="2" style="stroke:#181818;stroke-width:0.5;" width="4" x="932.6289" y="423.6094"/><rect fill="#F1F1F1" height="2" style="stroke:#181818;stroke-width:0.5;" width="4" x="932.6289" y="427.6094"/><text fill="#000000" font-family="sans-serif" font-size="14" lengthAdjust="spacing" textLength="123.1289" x="806.5" y="451.1426">D&#195;&#169;clarations DSN</text></g><!--entity Coffre-fort Num??rique--><g id="elem_Coffre-fort Num&#195;&#169;rique"><rect fill="#F1F1F1" height="47.6094" rx="2.5" ry="2.5" style="stroke:#181818;stroke-width:0.5;" width="187.2461" x="641.5" y="532.6094"/><rect fill="#F1F1F1" height="10" style="stroke:#181818;stroke-width:0.5;" width="15" x="808.7461" y="537.6094"/><rect fill="#F1F1F1" height="2" style="stroke:#181818;stroke-width:0.5;" width="4" x="806.7461" y="539.6094"/><rect fill="#F1F1F1" height="2" style="stroke:#181818;stroke-width:0.5;" width="4" x="806.7461" y="543.6094"/><text fill="#000000" font-family="sans-serif" font-size="14" lengthAdjust="spacing" textLength="147.2461" x="656.5" y="567.1426">Coffre-fort Num&#195;&#169;rique</text></g><!--entity App--><g id="elem_App"><rect fill="#90EE90" height="47.6094" rx="2.5" ry="2.5" style="stroke:#181818;stroke-width:0.5;" width="148.1787" x="582" y="80.6094"/><rect fill="#90EE90" height="10" style="stroke:#181818;stroke-width:0.5;" width="15" x="710.1787" y="85.6094"/><rect fill="#90EE90" height="2" style="stroke:#181818;stroke-width:0.5;" width="4" x="708.1787" y="87.6094"/><rect fill="#90EE90" height="2" style="stroke:#181818;stroke-width:0.5;" width="4" x="708.1787" y="91.6094"/><text fill="#000000" font-family="sans-serif" font-size="14" lengthAdjust="spacing" textLength="108.1787" x="597" y="115.1426">App Mobile Odoo</text></g><!--entity Portal--><g id="elem_Portal"><rect fill="#FFCC80" height="47.6094" rx="2.5" ry="2.5" style="stroke:#181818;stroke-width:0.5;" width="123.248" x="765.5" y="80.6094"/><rect fill="#FFCC80" height="10" style="stroke:#181818;stroke-width:0.5;" width="15" x="868.748" y="85.6094"/><rect fill="#FFCC80" height="2" style="stroke:#181818;stroke-width:0.5;" width="4" x="866.748" y="87.6094"/><rect fill="#FFCC80" height="2" style="stroke:#181818;stroke-width:0.5;" width="4" x="866.748" y="91.6094"/><text fill="#000000" font-family="sans-serif" font-size="14" lengthAdjust="spacing" textLength="83.248" x="780.5" y="115.1426">Portail PayFit</text></g><g id="elem_GMN27"><path d="M130,527.1094 L130,586.1641 A0,0 0 0 0 130,586.1641 L327.9473,586.1641 A0,0 0 0 0 327.9473,586.1641 L327.9473,537.1094 L317.9473,527.1094 L233,527.1094 L229,464.1294 L225,527.1094 L130,527.1094 A0,0 0 0 0 130,527.1094 " fill="#FEFFDD" style="stroke:#181818;stroke-width:0.5;"/><path d="M317.9473,527.1094 L317.9473,537.1094 L327.9473,537.1094 L317.9473,527.1094 " fill="#FEFFDD" style="stroke:#181818;stroke-width:0.5;"/><text fill="#000000" font-family="sans-serif" font-size="13" font-weight="bold" lengthAdjust="spacing" textLength="176.9473" x="136" y="545.6045">SINGLE SOURCE OF TRUTH</text><text fill="#000000" font-family="sans-serif" font-size="13" lengthAdjust="spacing" textLength="146.8721" x="136" y="561.9561">Toutes les donn&#195;&#169;es RH</text><text fill="#000000" font-family="sans-serif" font-size="13" lengthAdjust="spacing" textLength="124.4585" x="136" y="578.3076">sont centralis&#195;&#169;es ici</text></g><!--link ModEmp to DB--><g id="link_ModEmp_DB"><path d="M121.2117,261.9694 C145.4017,301.8494 188.327,372.5801 212.227,411.9601 " fill="none" id="ModEmp-DB" style="stroke:#181818;stroke-width:1;"/><polygon fill="#181818" points="118.1,256.8394,119.3476,266.6089,120.6931,261.1144,126.1876,262.4599,118.1,256.8394" style="stroke:#181818;stroke-width:1;"/><polygon fill="#181818" points="215.34,417.0894,214.09,407.3202,212.7458,412.815,207.251,411.4708,215.34,417.0894" style="stroke:#181818;stroke-width:1;"/></g><!--link ModRecrut to ModEmp--><g id="link_ModRecrut_ModEmp"><path d="M259.15,128.7194 C224.98,151.3794 178.1608,182.434 143.9508,205.114 " fill="none" id="ModRecrut-to-ModEmp" style="stroke:#181818;stroke-width:1;"/><polygon fill="#181818" points="138.95,208.4294,148.6615,206.7902,143.1174,205.6666,144.241,200.1224,138.95,208.4294" style="stroke:#181818;stroke-width:1;"/><text fill="#000000" font-family="sans-serif" font-size="13" lengthAdjust="spacing" textLength="39.1968" x="212" y="175.1045">Cr&#195;&#169;e</text></g><!--link ModConges to DB--><g id="link_ModConges_DB"><path d="M254.2607,260.6264 C244.4007,268.7564 239.58,274.9994 234,286.6094 C213.62,329.0094 218.0251,380.0041 223.3051,411.0841 " fill="none" id="ModConges-DB" style="stroke:#181818;stroke-width:1;"/><polygon fill="#181818" points="258.89,256.8094,249.4014,259.4488,255.0323,259.9902,254.4908,265.6211,258.89,256.8094" style="stroke:#181818;stroke-width:1;"/><polygon fill="#181818" points="224.31,416.9994,226.7461,407.4566,223.4726,412.07,218.8591,408.7964,224.31,416.9994" style="stroke:#181818;stroke-width:1;"/></g><!--link ModNDF to DB--><g id="link_ModNDF_DB"><path d="M400.6713,253.5839 C394.8013,255.2239 394.68,255.1894 389,256.6094 C323.89,272.8994 285.48,236.3494 241,286.6094 C224.4,305.3594 225.4138,373.0967 227.2838,410.9367 " fill="none" id="ModNDF-DB" style="stroke:#181818;stroke-width:1;"/><polygon fill="#181818" points="406.45,251.9694,396.7056,250.5386,401.6344,253.3148,398.8583,258.2436,406.45,251.9694" style="stroke:#181818;stroke-width:1;"/><polygon fill="#181818" points="227.58,416.9294,231.1309,407.7429,227.3332,411.9355,223.1407,408.1378,227.58,416.9294" style="stroke:#181818;stroke-width:1;"/></g><!--link App to ModConges--><g id="link_App_ModConges"><path d="M608.17,128.6894 C588.15,137.4594 564.36,146.7394 542,152.6094 C513.85,159.9994 505.22,153.4594 477,160.6094 C430.86,172.2994 386.122,190.2107 350.312,206.1407 " fill="none" id="App-to-ModConges" style="stroke:#181818;stroke-width:1;"/><polygon fill="#181818" points="344.83,208.5794,354.6789,208.5761,349.3984,206.5471,351.4273,201.2667,344.83,208.5794" style="stroke:#181818;stroke-width:1;"/><text fill="#000000" font-family="sans-serif" font-size="13" lengthAdjust="spacing" textLength="62.8672" x="478" y="175.1045">Demandes</text></g><!--link App to ModNDF--><g id="link_App_ModNDF"><path d="M621.15,128.7194 C586.98,151.3794 540.1608,182.434 505.9508,205.114 " fill="none" id="App-to-ModNDF" style="stroke:#181818;stroke-width:1;"/><polygon fill="#181818" points="500.95,208.4294,510.6615,206.7902,505.1174,205.6666,506.241,200.1224,500.95,208.4294" style="stroke:#181818;stroke-width:1;"/><text fill="#000000" font-family="sans-serif" font-size="13" lengthAdjust="spacing" textLength="74.4136" x="573" y="175.1045">Scan Tickets</text></g><!--link ModEmp to PayFit--><g id="link_ModEmp_PayFit"><path d="M145.87,256.7394 C178.58,273.4994 225.77,294.8694 270,304.6094 C299.53,311.1094 516.49,296.3794 542,312.6094 C568.245,329.3094 584.16,360.3369 593.555,387.5419 C594.7294,390.9425 595.8019,394.2834 596.7799,397.5291 C597.0245,398.3406 597.2631,399.146 597.4959,399.945 C597.6123,400.3445 596.0743,394.9746 596.1879,395.3707 " fill="none" id="ModEmp-to-PayFit" style="stroke:#181818;stroke-width:1;"/><polygon fill="#181818" points="597.8408,401.1385,599.2066,391.3848,596.4633,396.332,591.5162,393.5888,597.8408,401.1385" style="stroke:#181818;stroke-width:1;"/><text fill="#000000" font-family="sans-serif" font-size="13" lengthAdjust="spacing" textLength="123.7222" x="271" y="301.1045">Sync Salari&#195;&#169;s (API)</text></g><!--link ModConges to PayFit--><g id="link_ModConges_PayFit"><path d="M343.94,256.6894 C362.5,265.7994 383.85,276.4894 403,286.6094 C417.43,294.2294 419.38,299.8894 435,304.6094 C457.82,311.5094 522.18,299.3594 542,312.6094 C567.86,329.8994 583.7675,360.9344 593.255,387.9956 C594.4409,391.3783 595.5266,394.6988 596.5188,397.9227 C597.0149,399.5347 595.823,395.3579 596.2733,396.9172 " fill="none" id="ModConges-to-PayFit" style="stroke:#181818;stroke-width:1;"/><polygon fill="#181818" points="597.9379,402.6817,599.284,392.9252,596.5507,397.8779,591.598,395.1447,597.9379,402.6817" style="stroke:#181818;stroke-width:1;"/><text fill="#000000" font-family="sans-serif" font-size="13" lengthAdjust="spacing" textLength="122.8271" x="436" y="301.1045">Sync Absences (API)</text></g><!--link ModNDF to PayFit--><g id="link_ModNDF_PayFit"><path d="M525.71,254.5994 C541.06,262.5194 556.26,273.0094 567,286.6094 C577.705,300.1619 585.5031,316.31 591.1767,332.9555 C594.0135,341.2782 596.3192,349.7253 598.1915,358.0344 C599.1277,362.189 599.9555,366.309 600.6872,370.3618 C600.7787,370.8684 599.832,365.4642 599.9205,365.9686 " fill="none" id="ModNDF-to-PayFit" style="stroke:#181818;stroke-width:1;"/><polygon fill="#181818" points="600.9571,371.8784,603.342,362.3227,600.0932,366.9536,595.4623,363.7049,600.9571,371.8784" style="stroke:#181818;stroke-width:1;"/><text fill="#000000" font-family="sans-serif" font-size="13" lengthAdjust="spacing" textLength="168.3335" x="579" y="301.1045">Sync Remboursements (API)</text></g><!--link PayFit to Portal--><g id="link_PayFit_Portal"><path d="M600.283,372.0007 C600.3014,371.7837 600.3202,371.5666 600.3395,371.3495 C600.4166,370.4809 600.5012,369.6116 600.5935,368.742 C601.3316,361.785 602.5633,354.8103 604.4528,348.0756 C608.2319,334.6063 614.6425,322.0969 625,312.6094 C646.51,292.9094 732.69,322.1294 756,304.6094 C812.3,262.2894 823.7578,177.5002 826.1278,134.7602 " fill="none" id="PayFit-to-Portal" style="stroke:#181818;stroke-width:1;"/><polygon fill="#181818" points="826.46,128.7694,821.9678,137.5341,826.1832,133.7617,829.9556,137.977,826.46,128.7694" style="stroke:#181818;stroke-width:1;"/><text fill="#000000" font-family="sans-serif" font-size="13" lengthAdjust="spacing" textLength="78.7681" x="814" y="238.1045">Bulletins Paie</text></g><!--SRC=[PPFFZjem4CRlUOeHI2rG8T6kshAegfI_NQGk8CAULdimph2rrh5JspcWQazzchv6-s8TEw45hHIYyCtFdl4tOoUSH8WD_oOSSjSQXEqDfClaQmwZTQKrl84DEnR2ZQEeOVo9FI8CGY1N3arZX4KOtJ9BVo1ZZeq7CCpV9dd-4Nv401L9UqRC8F7ll6waFlxv-VkN7G2pa2KmJE8FytHEB3ttjxfgvGNtu3cIIJe3jiXDwx16vKv09vqngLQF5rju0UqPiSgAKum-pm8RPZZ4hTEdS24HNLTZLmjycau_K_sTqEK6B_NX1QJ69ySEw59VBgAK_uJdCtitJ22yWb9pmIICIiPAxsfH55VvBBZATTreHMVtiEyEZ7GBfP0Cny7NNgKryVjPjoOSpc5hmE__q2cPBv5BPfWJMb4_obKVIVNXO71wqCR1ggqzPyJtDYnylYZtpWafBFDRMz_yg-9TaOMKzt7Jq47tWXprCnFCzDhmUfRdrpEFR2W14xAlE111ahxuD9tFVAxNr6_PbHZvzRtFlQaBoB1cgiABe7Tt0ILd2dQ2Fw6pKTyQ3_G64N1K74f65eWmAp2ADyjnz7_tbtIyjwWudg4-rqjkY_LUaobXIazqZmIwE-S2abPAT4BPq9eeKjGds6ldT0twqCtBP58kLr_eMfRhkssQmxg0tVPkTpEPK72dwIvOaFIhj59XxYpTP0fPJLF2gG33g4jzH70HeQh09uh-0W00]--></g></svg>