<svg xmlns="http://www.w3.org/2000/svg" xmlns:xlink="http://www.w3.org/1999/xlink" contentStyleType="text/css" height="1114px" preserveAspectRatio="none" style="width:2132px;height:1114px;background:#FFFFFF;" version="1.1" viewBox="0 0 2132 1114" width="2132px" zoomAndPan="magnify"><title>Component Diagram - Architecture Syst&#195;&#168;me ACTUEL</title><defs/><g><text fill="#000000" font-family="sans-serif" font-size="14" font-weight="bold" lengthAdjust="spacing" textLength="361.7168" x="878.3315" y="24.5332">Component Diagram - Architecture Syst&#195;&#168;me ACTUEL</text><!--cluster Chantiers (5 sites)--><g id="cluster_Chantiers (5 sites)"><path d="M8.5,44.6094 L130.8721,44.6094 A3.75,3.75 0 0 1 133.3721,47.1094 L140.3721,68.2188 L700.5,68.2188 A2.5,2.5 0 0 1 703,70.7188 L703,153.1094 A2.5,2.5 0 0 1 700.5,155.6094 L8.5,155.6094 A2.5,2.5 0 0 1 6,153.1094 L6,47.1094 A2.5,2.5 0 0 1 8.5,44.6094 " fill="#FFE4E1" style="stroke:#000000;stroke-width:1.5;"/><line style="stroke:#000000;stroke-width:1.5;" x1="6" x2="140.3721" y1="68.2188" y2="68.2188"/><text fill="#000000" font-family="sans-serif" font-size="14" font-weight="bold" lengthAdjust="spacing" textLength="121.3721" x="10" y="61.1426">Chantiers (5 sites)</text></g><!--cluster Bureau Si??ge--><g id="cluster_Bureau Si&#195;&#168;ge"><path d="M1202.5,52.6094 L1299.9619,52.6094 A3.75,3.75 0 0 1 1302.4619,55.1094 L1309.4619,76.2188 L1740.5,76.2188 A2.5,2.5 0 0 1 1743,78.7188 L1743,145.1094 A2.5,2.5 0 0 1 1740.5,147.6094 L1202.5,147.6094 A2.5,2.5 0 0 1 1200,145.1094 L1200,55.1094 A2.5,2.5 0 0 1 1202.5,52.6094 " fill="#E6F3FF" style="stroke:#000000;stroke-width:1.5;"/><line style="stroke:#000000;stroke-width:1.5;" x1="1200" x2="1309.4619" y1="76.2188" y2="76.2188"/><text fill="#000000" font-family="sans-serif" font-size="14" font-weight="bold" lengthAdjust="spacing" textLength="96.4619" x="1204" y="69.1426">Bureau Si&#195;&#168;ge</text></g><!--cluster D??p??t--><g id="cluster_D&#195;&#169;p&#195;&#180;t"><path d="M908.5,547.6094 L968.0225,547.6094 A3.75,3.75 0 0 1 970.5225,550.1094 L977.5225,571.2188 L1268.5,571.2188 A2.5,2.5 0 0 1 1271,573.7188 L1271,640.1094 A2.5,2.5 0 0 1 1268.5,642.6094 L908.5,642.6094 A2.5,2.5 0 0 1 906,640.1094 L906,550.1094 A2.5,2.5 0 0 1 908.5,547.6094 " fill="#E8F5E9" style="stroke:#000000;stroke-width:1.5;"/><line style="stroke:#000000;stroke-width:1.5;" x1="906" x2="977.5225" y1="571.2188" y2="571.2188"/><text fill="#000000" font-family="sans-serif" font-size="14" font-weight="bold" lengthAdjust="spacing" textLength="58.5225" x="910" y="564.1426">D&#195;&#169;p&#195;&#180;t</text></g><!--cluster Syst??me Legacy--><g id="cluster_Syst&#195;&#168;me Legacy"><path d="M952.5,739.6094 L1070.2168,739.6094 A3.75,3.75 0 0 1 1072.7168,742.1094 L1079.7168,763.2188 L1501.5,763.2188 A2.5,2.5 0 0 1 1504,765.7188 L1504,1104.6094 A2.5,2.5 0 0 1 1501.5,1107.1094 L952.5,1107.1094 A2.5,2.5 0 0 1 950,1104.6094 L950,742.1094 A2.5,2.5 0 0 1 952.5,739.6094 " fill="#FFCCCC" style="stroke:#000000;stroke-width:1.5;"/><line style="stroke:#000000;stroke-width:1.5;" x1="950" x2="1079.7168" y1="763.2188" y2="763.2188"/><text fill="#000000" font-family="sans-serif" font-size="14" font-weight="bold" lengthAdjust="spacing" textLength="116.7168" x="954" y="756.1426">Syst&#195;&#168;me Legacy</text></g><!--cluster SageMDE--><g id="cluster_SageMDE"><path d="M1151,801.6094 C1151,791.6094 1311.5,791.6094 1311.5,791.6094 C1311.5,791.6094 1472,791.6094 1472,801.6094 L1472,1065.1094 C1472,1075.1094 1311.5,1075.1094 1311.5,1075.1094 C1311.5,1075.1094 1151,1075.1094 1151,1065.1094 L1151,801.6094 " fill="#FF6B6B" style="stroke:#181818;stroke-width:1;"/><path d="M1151,801.6094 C1151,811.6094 1311.5,811.6094 1311.5,811.6094 C1311.5,811.6094 1472,811.6094 1472,801.6094 " fill="none" style="stroke:#181818;stroke-width:1;"/><text fill="#000000" font-family="sans-serif" font-size="14" font-weight="bold" lengthAdjust="spacing" textLength="68.4619" x="1277.269" y="828.1426">Sage MDE</text><text fill="#000000" font-family="sans-serif" font-size="14" font-weight="bold" lengthAdjust="spacing" textLength="105.793" x="1258.6035" y="845.752">(Windows 2012)</text></g><!--cluster Fichiers Excel (Chaos)--><g id="cluster_Fichiers Excel (Chaos)"><path d="M1530.5,824.1094 L1681.665,824.1094 A3.75,3.75 0 0 1 1684.165,826.6094 L1691.165,847.7188 L2066.5,847.7188 A2.5,2.5 0 0 1 2069,850.2188 L2069,1083.1094 A2.5,2.5 0 0 1 2066.5,1085.6094 L1530.5,1085.6094 A2.5,2.5 0 0 1 1528,1083.1094 L1528,826.6094 A2.5,2.5 0 0 1 1530.5,824.1094 " fill="#FFF9E6" style="stroke:#000000;stroke-width:1.5;"/><line style="stroke:#000000;stroke-width:1.5;" x1="1528" x2="1691.165" y1="847.7188" y2="847.7188"/><text fill="#000000" font-family="sans-serif" font-size="14" font-weight="bold" lengthAdjust="spacing" textLength="150.165" x="1532" y="840.6426">Fichiers Excel (Chaos)</text></g><!--cluster Communication--><g id="cluster_Communication"><path d="M113.5,221.6094 L220.2793,221.6094 A3.75,3.75 0 0 1 222.7793,224.1094 L229.7793,245.2188 L470.5,245.2188 A2.5,2.5 0 0 1 473,247.7188 L473,460.1094 A2.5,2.5 0 0 1 470.5,462.6094 L113.5,462.6094 A2.5,2.5 0 0 1 111,460.1094 L111,224.1094 A2.5,2.5 0 0 1 113.5,221.6094 " fill="#F0F0F0" style="stroke:#000000;stroke-width:1.5;"/><line style="stroke:#000000;stroke-width:1.5;" x1="111" x2="229.7793" y1="245.2188" y2="245.2188"/><text fill="#000000" font-family="sans-serif" font-size="14" font-weight="bold" lengthAdjust="spacing" textLength="105.7793" x="115" y="238.1426">Communication</text></g><!--cluster Fournisseurs (50+)--><g id="cluster_Fournisseurs (50+)"><path d="M513.4378,371.6783 C528.9014,348.7782 552.1896,348.3186 566.5477,372.9145 C580.8293,344.1963 604.9095,337.0567 624.7235,367.4716 C644.1041,344.4946 665.6192,346.5703 676.9753,375.5428 C689.225,352.3809 708.4073,352.6969 723.4076,372.5755 C739.2638,346.5907 759.7213,338.1378 780.8128,367.1068 C798.7465,343.7285 817.7698,351.8149 828.712,374.3937 C837.1477,347.9058 861.2563,347.8476 876.3738,367.49 C891.0713,346.009 915.3473,348.2919 928.1562,369.7668 C944.3591,345.3222 961.1756,342.9509 980.1885,366.7352 C993.568,346.0303 1018.6446,339.1124 1031.5225,367.2622 C1050.5701,337.4175 1080.4373,340.0394 1091.6924,374.5481 C1103.9524,349.6539 1118.3768,348.844 1135.8161,369.5348 C1152.7808,337.3021 1177.1191,344.324 1195.3087,368.237 C1213.5158,343.8913 1233.913,350.2708 1246,374.6094 C1247.9765,374.1029 1249.0228,375.0113 1248.7148,377.048 C1258.8407,381.1642 1260.9227,391.7003 1251.5638,398.4146 C1260.7521,401.8893 1262.7554,407.7621 1256.4619,415.6393 C1264.9587,423.9391 1266.4869,431.482 1254.1854,437.6285 C1262.1451,452.8317 1255.5735,462.3195 1239,462.6094 C1239.6916,461.7563 1240.3595,461.7952 1240.8025,462.8449 C1225.3952,486.7094 1207.4019,486.4997 1189.5864,465.6003 C1177.5646,493.9024 1154.9425,496.3391 1137.7844,470.5162 C1124.6411,491.2004 1104.0248,494.1646 1088.6813,473.1042 C1069.5422,496.2205 1047.0594,499.9456 1032.9681,467.997 C1018.5055,496.734 996.5122,496.8745 980.8251,469.1273 C970.2907,491.1249 946.4194,496.7567 930.9402,474.7302 C914.8828,494.4939 893.5945,500.4757 880.2819,471.8564 C868.8626,496.7519 843.9127,499.2796 829.9281,474.4543 C812.3877,494.4917 790.6817,497.4925 778.3627,468.916 C766.493,499.7693 739.0438,497.8004 722.0494,474.2174 C706.1203,494.9225 686.0485,492.4557 677.1668,467.3176 C659.6986,491.1423 639.2272,499.2551 620.0152,469.1662 C604.4362,498.7812 583.534,496.5544 565.3088,471.8304 C541.3079,493.3801 514.9815,486.1831 505,455.6094 C507.2766,455.3886 508.7266,456.9797 507.9495,459.2398 C494.4166,455.3118 492.6338,444.8682 503.7288,436.3908 C495.3377,430.4755 494.9194,424.5775 504.0421,418.9772 C494.6654,412.6708 494.2952,401.936 504.3803,395.915 C491.8265,384.5641 498.666,371.9915 512,367.6094 C514.4097,368.0869 514.9192,369.8258 513.4378,371.6783 " fill="#E0E0E0" style="stroke:#181818;stroke-width:1;"/><text fill="#000000" font-family="sans-serif" font-size="14" font-weight="bold" lengthAdjust="spacing" textLength="125.6514" x="812.6743" y="387.1426">Fournisseurs (50+)</text></g><!--entity Marc1--><g id="elem_Marc1"><rect fill="#FFB6C1" height="37.6094" rx="2.5" ry="2.5" style="stroke:#181818;stroke-width:0.5;" width="118.0547" x="22" y="91.1094"/><text fill="#000000" font-family="sans-serif" font-size="14" lengthAdjust="spacing" textLength="98.0547" x="32" y="115.6426">Chef Chantier 1</text></g><!--entity Marc2--><g id="elem_Marc2"><rect fill="#FFB6C1" height="37.6094" rx="2.5" ry="2.5" style="stroke:#181818;stroke-width:0.5;" width="118.0547" x="416" y="91.1094"/><text fill="#000000" font-family="sans-serif" font-size="14" lengthAdjust="spacing" textLength="98.0547" x="426" y="115.6426">Chef Chantier 2</text></g><!--entity Marc3--><g id="elem_Marc3"><rect fill="#FFB6C1" height="37.6094" rx="2.5" ry="2.5" style="stroke:#181818;stroke-width:0.5;" width="118.0547" x="569" y="91.1094"/><text fill="#000000" font-family="sans-serif" font-size="14" lengthAdjust="spacing" textLength="98.0547" x="579" y="115.6426">Chef Chantier 3</text></g><g id="elem_GMN6"><path d="M175,80.6094 L175,106.1094 L140.25,110.1094 L175,114.1094 L175,139.6641 A0,0 0 0 0 175,139.6641 L381.3706,139.6641 A0,0 0 0 0 381.3706,139.6641 L381.3706,90.6094 L371.3706,80.6094 L175,80.6094 A0,0 0 0 0 175,80.6094 " fill="#FEFFDD" style="stroke:#181818;stroke-width:0.5;"/><path d="M371.3706,80.6094 L371.3706,90.6094 L381.3706,90.6094 L371.3706,80.6094 " fill="#FEFFDD" style="stroke:#181818;stroke-width:0.5;"/><text fill="#000000" font-family="sans-serif" font-size="13" lengthAdjust="spacing" textLength="141.2036" x="181" y="99.1045">&#240;&#376;&#8221;&#180; Pas d'acc&#195;&#168;s digital</text><text fill="#000000" font-family="sans-serif" font-size="13" lengthAdjust="spacing" textLength="169.1016" x="181" y="115.4561">&#240;&#376;&#8220;&#8222; Bons papier uniquement</text><text fill="#000000" font-family="sans-serif" font-size="13" lengthAdjust="spacing" textLength="185.3706" x="181" y="131.8076">&#240;&#376;&#8220;&#382; T&#195;&#169;l&#195;&#169;phone uniquement</text></g><!--entity Sylvie--><g id="elem_Sylvie"><rect fill="#ADD8E6" height="37.6094" rx="2.5" ry="2.5" style="stroke:#181818;stroke-width:0.5;" width="146.0684" x="1216" y="91.1094"/><text fill="#000000" font-family="sans-serif" font-size="14" lengthAdjust="spacing" textLength="126.0684" x="1226" y="115.6426">Gestionnaire Achats</text></g><!--entity Julien--><g id="elem_Julien"><rect fill="#FFDAB9" height="37.6094" rx="2.5" ry="2.5" style="stroke:#181818;stroke-width:0.5;" width="153.0752" x="1573.5" y="91.1094"/><text fill="#000000" font-family="sans-serif" font-size="14" lengthAdjust="spacing" textLength="133.0752" x="1583.5" y="115.6426">Responsable Affaires</text></g><g id="elem_GMN12"><path d="M1397.5,88.6094 L1397.5,106.1094 L1362.07,110.1094 L1397.5,114.1094 L1397.5,131.3125 A0,0 0 0 0 1397.5,131.3125 L1538.9976,131.3125 A0,0 0 0 0 1538.9976,131.3125 L1538.9976,98.6094 L1528.9976,88.6094 L1397.5,88.6094 A0,0 0 0 0 1397.5,88.6094 " fill="#FEFFDD" style="stroke:#181818;stroke-width:0.5;"/><path d="M1528.9976,88.6094 L1528.9976,98.6094 L1538.9976,98.6094 L1528.9976,88.6094 " fill="#FEFFDD" style="stroke:#181818;stroke-width:0.5;"/><text fill="#000000" font-family="sans-serif" font-size="13" lengthAdjust="spacing" textLength="120.4976" x="1403.5" y="107.1045">&#240;&#376;&#8216;&#169;&#226;&#8364;&#65533;&#240;&#376;&#8217;&#188; Sylvie</text><text fill="#000000" font-family="sans-serif" font-size="13" lengthAdjust="spacing" textLength="114.1689" x="1403.5" y="123.4561">Hub central (goulot)</text></g><!--entity Eric--><g id="elem_Eric"><rect fill="#98FB98" height="37.6094" rx="2.5" ry="2.5" style="stroke:#181818;stroke-width:0.5;" width="88.4756" x="922" y="586.1094"/><text fill="#000000" font-family="sans-serif" font-size="14" lengthAdjust="spacing" textLength="68.4756" x="932" y="610.6426">Magasinier</text></g><g id="elem_GMN17"><path d="M1045,583.6094 L1045,601.1094 L1010.2,605.1094 L1045,609.1094 L1045,626.3125 A0,0 0 0 0 1045,626.3125 L1255.3252,626.3125 A0,0 0 0 0 1255.3252,626.3125 L1255.3252,593.6094 L1245.3252,583.6094 L1045,583.6094 A0,0 0 0 0 1045,583.6094 " fill="#FEFFDD" style="stroke:#181818;stroke-width:0.5;"/><path d="M1245.3252,583.6094 L1245.3252,593.6094 L1255.3252,593.6094 L1245.3252,583.6094 " fill="#FEFFDD" style="stroke:#181818;stroke-width:0.5;"/><text fill="#000000" font-family="sans-serif" font-size="13" lengthAdjust="spacing" textLength="65.3364" x="1051" y="602.1045">&#240;&#376;&#8220;&#166; &#195;&#8240;ric</text><text fill="#000000" font-family="sans-serif" font-size="13" lengthAdjust="spacing" textLength="189.3252" x="1051" y="618.4561">&#240;&#376;&#8221;&#180; 1 seul PC pour 3 personnes</text></g><g id="elem_GMN25"><path d="M966,841.6094 L966,933.3672 L1124.4902,933.3672 L1124.4902,851.6094 L1114.4902,841.6094 L966,841.6094 " fill="#FEFFDD" style="stroke:#181818;stroke-width:0.5;"/><path d="M1114.4902,841.6094 L1114.4902,851.6094 L1124.4902,851.6094 L1114.4902,841.6094 " fill="#FEFFDD" style="stroke:#181818;stroke-width:1;"/><text fill="#000000" font-family="sans-serif" font-size="13" lengthAdjust="spacing" textLength="35.0327" x="972" y="860.1045">&#226;&#353;&#160;&#239;&#184;&#65533;</text><text fill="#000000" font-family="sans-serif" font-size="13" font-weight="bold" lengthAdjust="spacing" textLength="76.5527" x="1010.6445" y="860.1045">OBSOL&#195;&#710;TE</text><text fill="#000000" font-family="sans-serif" font-size="13" lengthAdjust="spacing" textLength="64.6191" x="972" y="876.4561">- Pas d'API</text><text fill="#000000" font-family="sans-serif" font-size="13" lengthAdjust="spacing" textLength="117.7744" x="972" y="892.8076">- Interface complexe</text><text fill="#000000" font-family="sans-serif" font-size="13" lengthAdjust="spacing" textLength="137.4902" x="972" y="909.1592">- Donn&#195;&#169;es chaotiques</text><text fill="#000000" font-family="sans-serif" font-size="13" lengthAdjust="spacing" textLength="136.0366" x="972" y="925.5107">- 12 r&#195;&#169;f pour 1 produit</text></g><!--entity Module Achats--><g id="elem_Module Achats"><rect fill="#F1F1F1" height="37.6094" rx="2.5" ry="2.5" style="stroke:#181818;stroke-width:0.5;" width="112.6064" x="1194.5" y="868.6094"/><text fill="#000000" font-family="sans-serif" font-size="14" lengthAdjust="spacing" textLength="92.6064" x="1204.5" y="893.1426">Module Achats</text></g><!--entity Module Stock--><g id="elem_Module Stock"><rect fill="#F1F1F1" height="37.6094" rx="2.5" ry="2.5" style="stroke:#181818;stroke-width:0.5;" width="104.8203" x="1342.5" y="868.6094"/><text fill="#000000" font-family="sans-serif" font-size="14" lengthAdjust="spacing" textLength="84.8203" x="1352.5" y="893.1426">Module Stock</text></g><!--entity Module Commandes--><g id="elem_Module Commandes"><rect fill="#F1F1F1" height="37.6094" rx="2.5" ry="2.5" style="stroke:#181818;stroke-width:0.5;" width="149.1719" x="1194.5" y="1013.1094"/><text fill="#000000" font-family="sans-serif" font-size="14" lengthAdjust="spacing" textLength="129.1719" x="1204.5" y="1037.6426">Module Commandes</text></g><!--entity Excel1--><g id="elem_Excel1"><rect fill="#FFD700" height="55.2188" rx="2.5" ry="2.5" style="stroke:#181818;stroke-width:0.5;" width="100.917" x="1862.5" y="860.1094"/><text fill="#000000" font-family="sans-serif" font-size="14" lengthAdjust="spacing" textLength="34.2344" x="1872.5" y="884.6426">Excel</text><text fill="#000000" font-family="sans-serif" font-size="14" lengthAdjust="spacing" textLength="80.917" x="1872.5" y="902.252">Fournisseurs</text></g><!--entity Excel2--><g id="elem_Excel2"><rect fill="#FFD700" height="55.2188" rx="2.5" ry="2.5" style="stroke:#181818;stroke-width:0.5;" width="133.5996" x="1693" y="860.1094"/><text fill="#000000" font-family="sans-serif" font-size="14" lengthAdjust="spacing" textLength="34.2344" x="1703" y="884.6426">Excel</text><text fill="#000000" font-family="sans-serif" font-size="14" lengthAdjust="spacing" textLength="113.5996" x="1703" y="902.252">Suivi Commandes</text></g><!--entity Excel3--><g id="elem_Excel3"><rect fill="#FFD700" height="55.2188" rx="2.5" ry="2.5" style="stroke:#181818;stroke-width:0.5;" width="114.3428" x="1544" y="860.1094"/><text fill="#000000" font-family="sans-serif" font-size="14" lengthAdjust="spacing" textLength="34.2344" x="1554" y="884.6426">Excel</text><text fill="#000000" font-family="sans-serif" font-size="14" lengthAdjust="spacing" textLength="94.3428" x="1554" y="902.252">Stock D&#195;&#169;p&#195;&#180;t</text></g><!--entity Excel4--><g id="elem_Excel4"><rect fill="#FFD700" height="55.2188" rx="2.5" ry="2.5" style="stroke:#181818;stroke-width:0.5;" width="54.2344" x="1999" y="860.1094"/><text fill="#000000" font-family="sans-serif" font-size="14" lengthAdjust="spacing" textLength="34.2344" x="2009" y="884.6426">Excel</text><text fill="#000000" font-family="sans-serif" font-size="14" lengthAdjust="spacing" textLength="24.1104" x="2009" y="902.252">Prix</text></g><g id="elem_GMN33"><path d="M1815.5,994.6094 L1815.5,1070.0156 A0,0 0 0 0 1815.5,1070.0156 L2010.1021,1070.0156 A0,0 0 0 0 2010.1021,1070.0156 L2010.1021,1004.6094 L2000.1021,994.6094 L1917,994.6094 L1913,915.4094 L1909,994.6094 L1815.5,994.6094 A0,0 0 0 0 1815.5,994.6094 " fill="#FEFFDD" style="stroke:#181818;stroke-width:0.5;"/><path d="M2000.1021,994.6094 L2000.1021,1004.6094 L2010.1021,1004.6094 L2000.1021,994.6094 " fill="#FEFFDD" style="stroke:#181818;stroke-width:0.5;"/><text fill="#000000" font-family="sans-serif" font-size="13" lengthAdjust="spacing" textLength="24.5591" x="1821.5" y="1013.1045">&#240;&#376;&#8221;&#180;</text><text fill="#000000" font-family="sans-serif" font-size="13" font-weight="bold" lengthAdjust="spacing" textLength="145.4312" x="1849.6709" y="1013.1045">SILOS DE DONN&#195;&#8240;ES</text><text fill="#000000" font-family="sans-serif" font-size="13" lengthAdjust="spacing" textLength="62.8672" x="1821.5" y="1029.4561">- Doublons</text><text fill="#000000" font-family="sans-serif" font-size="13" lengthAdjust="spacing" textLength="97.0112" x="1821.5" y="1045.8076">- Incoh&#195;&#169;rences</text><text fill="#000000" font-family="sans-serif" font-size="13" lengthAdjust="spacing" textLength="78.7554" x="1821.5" y="1062.1592">- Pas de sync</text></g><!--entity Tel--><g id="elem_Tel"><rect fill="#FFD700" height="37.6094" rx="2.5" ry="2.5" style="stroke:#181818;stroke-width:0.5;" width="144.127" x="222" y="257.6094"/><text fill="#000000" font-family="sans-serif" font-size="14" lengthAdjust="spacing" textLength="124.127" x="232" y="282.1426">T&#195;&#169;l&#195;&#169;phone/SMS</text></g><!--entity Email--><g id="elem_Email"><rect fill="#F1F1F1" height="37.6094" rx="2.5" ry="2.5" style="stroke:#181818;stroke-width:0.5;" width="55.0068" x="401.5" y="257.6094"/><text fill="#000000" font-family="sans-serif" font-size="14" lengthAdjust="spacing" textLength="35.0068" x="411.5" y="282.1426">Email</text></g><!--entity Paper--><g id="elem_Paper"><rect fill="#FF6B6B" height="37.6094" rx="2.5" ry="2.5" style="stroke:#181818;stroke-width:0.5;" width="60.4688" x="127" y="257.6094"/><text fill="#000000" font-family="sans-serif" font-size="14" lengthAdjust="spacing" textLength="40.4688" x="137" y="282.1426">Papier</text></g><g id="elem_GMN40"><path d="M219,403.6094 L219,446.3125 A0,0 0 0 0 219,446.3125 L368.6289,446.3125 A0,0 0 0 0 368.6289,446.3125 L368.6289,413.6094 L358.6289,403.6094 L298,403.6094 L294,295.8694 L290,403.6094 L219,403.6094 A0,0 0 0 0 219,403.6094 " fill="#FEFFDD" style="stroke:#181818;stroke-width:0.5;"/><path d="M358.6289,403.6094 L358.6289,413.6094 L368.6289,413.6094 L358.6289,403.6094 " fill="#FEFFDD" style="stroke:#181818;stroke-width:0.5;"/><text fill="#000000" font-family="sans-serif" font-size="13" lengthAdjust="spacing" textLength="128.6289" x="225" y="422.1045">&#240;&#376;&#8221;&#180; 15-20 appels/jour</text><text fill="#000000" font-family="sans-serif" font-size="13" lengthAdjust="spacing" textLength="120.1421" x="225" y="438.4561">Pas de tra&#195;&#167;abilit&#195;&#169;</text></g><!--entity F1--><g id="elem_F1"><rect fill="#F1F1F1" height="37.6094" rx="2.5" ry="2.5" style="stroke:#181818;stroke-width:0.5;" width="107.1445" x="988.5" y="406.1094"/><text fill="#000000" font-family="sans-serif" font-size="14" lengthAdjust="spacing" textLength="87.1445" x="998.5" y="430.6426">Fournisseur A</text></g><!--entity F2--><g id="elem_F2"><rect fill="#F1F1F1" height="37.6094" rx="2.5" ry="2.5" style="stroke:#181818;stroke-width:0.5;" width="107.1445" x="1130.5" y="406.1094"/><text fill="#000000" font-family="sans-serif" font-size="14" lengthAdjust="spacing" textLength="87.1445" x="1140.5" y="430.6426">Fournisseur B</text></g><!--entity F3--><g id="elem_F3"><rect fill="#F1F1F1" height="37.6094" rx="2.5" ry="2.5" style="stroke:#181818;stroke-width:0.5;" width="107.917" x="845" y="406.1094"/><text fill="#000000" font-family="sans-serif" font-size="14" lengthAdjust="spacing" textLength="87.917" x="855" y="430.6426">Fournisseur C</text></g><!--entity F4--><g id="elem_F4"><rect fill="#F1F1F1" height="37.6094" rx="2.5" ry="2.5" style="stroke:#181818;stroke-width:0.5;" width="93.9307" x="513" y="406.1094"/><text fill="#000000" font-family="sans-serif" font-size="14" lengthAdjust="spacing" textLength="73.9307" x="523" y="430.6426">... 47 autres</text></g><g id="elem_GMN48"><path d="M642.5,395.6094 L642.5,454.6641 L809.8516,454.6641 L809.8516,405.6094 L799.8516,395.6094 L642.5,395.6094 " fill="#FEFFDD" style="stroke:#181818;stroke-width:0.5;"/><path d="M799.8516,395.6094 L799.8516,405.6094 L809.8516,405.6094 L799.8516,395.6094 " fill="#FEFFDD" style="stroke:#181818;stroke-width:1;"/><text fill="#000000" font-family="sans-serif" font-size="13" lengthAdjust="spacing" textLength="85.5664" x="648.5" y="414.1045">&#240;&#376;&#8221;&#180; Pas d'EDI</text><text fill="#000000" font-family="sans-serif" font-size="13" lengthAdjust="spacing" textLength="84.8491" x="648.5" y="430.4561">&#240;&#376;&#8221;&#180; Pas d'API</text><text fill="#000000" font-family="sans-serif" font-size="13" lengthAdjust="spacing" textLength="146.3516" x="648.5" y="446.8076">&#240;&#376;&#8220;&#382; 100% t&#195;&#169;l&#195;&#169;phone</text></g><g id="elem_GMN77"><path d="M573,534.6094 L573,675.4219 L879.0415,675.4219 L879.0415,544.6094 L869.0415,534.6094 L573,534.6094 " fill="#FEFFDD" style="stroke:#181818;stroke-width:0.5;"/><path d="M869.0415,534.6094 L869.0415,544.6094 L879.0415,544.6094 L869.0415,534.6094 " fill="#FEFFDD" style="stroke:#181818;stroke-width:1;"/><text fill="#000000" font-family="sans-serif" font-size="13" font-weight="bold" lengthAdjust="spacing" textLength="193.5527" x="579" y="553.1045">PROBL&#195;&#710;MES ARCHITECTURE</text><text fill="#000000" font-family="sans-serif" font-size="13" lengthAdjust="spacing" textLength="205.3848" x="579" y="569.4561">&#240;&#376;&#8221;&#180; Aucune int&#195;&#169;gration syst&#195;&#168;me</text><text fill="#000000" font-family="sans-serif" font-size="13" lengthAdjust="spacing" textLength="213.3066" x="579" y="585.8076">&#240;&#376;&#8221;&#180; Sylvie = goulot d'&#195;&#169;tranglement</text><text fill="#000000" font-family="sans-serif" font-size="13" lengthAdjust="spacing" textLength="233.2129" x="579" y="602.1592">&#240;&#376;&#8221;&#180; Donn&#195;&#169;es &#195;&#169;parpill&#195;&#169;es (6 outils)</text><text fill="#000000" font-family="sans-serif" font-size="13" lengthAdjust="spacing" textLength="138.7026" x="579" y="618.5107">&#240;&#376;&#8221;&#180; Multiples re-saisies</text><text fill="#000000" font-family="sans-serif" font-size="13" lengthAdjust="spacing" textLength="148.4463" x="579" y="634.8623">&#240;&#376;&#8221;&#180; Pas d'automatisation</text><text fill="#000000" font-family="sans-serif" font-size="13" lengthAdjust="spacing" textLength="204.1089" x="579" y="651.2139">&#240;&#376;&#8221;&#180; Pas de visibilit&#195;&#169; temps r&#195;&#169;el</text><text fill="#000000" font-family="sans-serif" font-size="13" lengthAdjust="spacing" textLength="285.0415" x="579" y="667.5654">&#240;&#376;&#8221;&#180; Taux &#195;&#169;lev&#195;&#169; de commandes incompl&#195;&#168;tes</text></g><!--link SageMDE to GMN25--><g id="link_SageMDE_GMN25"><path d="M1150.9789,887.6094 C1150.6226,887.6094 1150.2664,887.6094 1149.9102,887.6094 C1147.0603,887.6094 1144.2106,887.6094 1141.3613,887.6094 C1135.6625,887.6094 1129.965,887.6094 1124.27,887.6094 " fill="none" id="SageMDE-GMN25" style="stroke:#181818;stroke-width:1;stroke-dasharray:7.0,7.0;"/></g><!--link F1 to GMN48--><g id="link_F1_GMN48"><path d="M1031.97,405.7194 C1018.11,381.2894 990.53,340.4494 953.5,323.6094 C909.4,303.5494 889.94,306.8094 844.5,323.6094 C805.88,337.8894 771.35,370.9894 749.66,395.5394 " fill="none" id="F1-GMN48" style="stroke:#181818;stroke-width:1;stroke-dasharray:7.0,7.0;"/></g><!--link Marc1 to Tel--><g id="link_Marc1_Tel"><path d="M101.84,129.1494 C116.36,140.7694 136.7,155.2094 157,163.6094 C175.37,171.2094 183.66,161.8994 201,171.6094 C238.19,192.4394 264.9811,228.7259 280.1111,252.5259 " fill="none" id="Marc1-to-Tel" style="stroke:#181818;stroke-width:1;stroke-dasharray:7.0,7.0;"/><polygon fill="#181818" points="283.33,257.5894,281.8773,247.8482,280.6476,253.3698,275.126,252.1401,283.33,257.5894" style="stroke:#181818;stroke-width:1;"/><text fill="#000000" font-family="sans-serif" font-size="13" lengthAdjust="spacing" textLength="38.3081" x="244" y="194.1045">appels</text></g><!--link Marc2 to Tel--><g id="link_Marc2_Tel"><path d="M454.28,129.1594 C439.57,140.9294 418.83,155.5594 398,163.6094 C374.14,172.8394 361.47,156.2694 341,171.6094 C313.25,192.3994 302.6353,227.4717 297.9553,251.3217 " fill="none" id="Marc2-to-Tel" style="stroke:#181818;stroke-width:1;stroke-dasharray:7.0,7.0;"/><polygon fill="#181818" points="296.8,257.2094,302.4581,249.148,297.7628,252.3029,294.6078,247.6076,296.8,257.2094" style="stroke:#181818;stroke-width:1;"/><text fill="#000000" font-family="sans-serif" font-size="13" lengthAdjust="spacing" textLength="38.3081" x="342" y="194.1045">appels</text></g><!--link Marc3 to Tel--><g id="link_Marc3_Tel"><path d="M612.02,129.2994 C590.96,151.8194 551.59,189.2094 509,205.6094 C457.05,225.6094 436.6,195.3794 384,213.6094 C356.93,222.9894 335.0305,238.9687 317.8905,253.6987 " fill="none" id="Marc3-to-Tel" style="stroke:#181818;stroke-width:1;stroke-dasharray:7.0,7.0;"/><polygon fill="#181818" points="313.34,257.6094,322.7728,254.7771,317.1321,254.3505,317.5586,248.7098,313.34,257.6094" style="stroke:#181818;stroke-width:1;"/><text fill="#000000" font-family="sans-serif" font-size="13" lengthAdjust="spacing" textLength="38.3081" x="567" y="194.1045">appels</text></g><!--link Marc1 to Paper--><g id="link_Marc1_Paper"><path d="M89.42,129.3394 C104.07,161.0494 131.5442,220.5123 146.1342,252.1023 " fill="none" id="Marc1-to-Paper" style="stroke:#181818;stroke-width:1;stroke-dasharray:7.0,7.0;"/><polygon fill="#181818" points="148.65,257.5494,148.5077,247.7015,146.5535,253.0101,141.2449,251.0559,148.65,257.5494" style="stroke:#181818;stroke-width:1;"/><text fill="#000000" font-family="sans-serif" font-size="13" lengthAdjust="spacing" textLength="67.939" x="125" y="194.1045">bons papier</text></g><!--link Tel to Sylvie--><g id="link_Tel_Sylvie"><path d="M312.9,257.5894 C329.96,242.6294 356.54,222.4294 384,213.6094 C430.03,198.8294 770.96,211.0094 819,205.6094 C892.54,197.3394 909.47,186.3194 982,171.6094 C1061.86,155.4094 1147.6407,138.5764 1209.8707,126.4564 " fill="none" id="Tel-to-Sylvie" style="stroke:#181818;stroke-width:1;stroke-dasharray:7.0,7.0;"/><polygon fill="#181818" points="1215.76,125.3094,1206.1613,123.1037,1210.8522,126.2652,1207.6907,130.9561,1215.76,125.3094" style="stroke:#181818;stroke-width:1;"/><text fill="#000000" font-family="sans-serif" font-size="13" lengthAdjust="spacing" textLength="86.7217" x="985.5295" y="186.1045">tous les appels</text><text fill="#000000" font-family="sans-serif" font-size="13" lengthAdjust="spacing" textLength="91.7808" x="983" y="202.4561">passent par elle</text></g><!--link Sylvie to Tel--><g id="link_Sylvie_Tel"><path d="M1215.85,111.8794 C1102.89,114.5694 879.9,125.8194 697,171.6094 C658.33,181.2894 652.97,197.2294 614,205.6094 C564,216.3594 432.56,197.5694 384,213.6094 C356.8,222.5994 334.8989,238.6137 317.7989,253.4737 " fill="none" id="Sylvie-to-Tel" style="stroke:#181818;stroke-width:1;stroke-dasharray:7.0,7.0;"/><polygon fill="#181818" points="313.27,257.4094,322.6871,254.5252,317.0441,254.1297,317.4396,248.4867,313.27,257.4094" style="stroke:#181818;stroke-width:1;"/><text fill="#000000" font-family="sans-serif" font-size="13" lengthAdjust="spacing" textLength="112.728" x="698" y="194.1045">appels fournisseurs</text></g><!--link Paper to Sylvie--><g id="link_Paper_Sylvie"><path d="M165.27,257.3594 C173.01,242.6894 186.06,223.0194 204,213.6094 C239.65,194.9094 347.72,220.8094 385,205.6094 C405.99,197.0594 401.95,179.9994 423,171.6094 C451.91,160.0894 671.93,165.4394 703,163.6094 C887.81,152.6994 1098.7136,131.5538 1209.5936,119.7638 " fill="none" id="Paper-to-Sylvie" style="stroke:#181818;stroke-width:1;stroke-dasharray:7.0,7.0;"/><polygon fill="#181818" points="1215.56,119.1294,1206.1875,116.1034,1210.588,119.6581,1207.0334,124.0586,1215.56,119.1294" style="stroke:#181818;stroke-width:1;"/><text fill="#000000" font-family="sans-serif" font-size="13" lengthAdjust="spacing" textLength="76.5972" x="424" y="194.1045">centralisation</text></g><!--link Sylvie to SageMDE--><g id="link_Sylvie_SageMDE"><path d="M1292.48,129.2894 C1297.97,159.5294 1308,222.1394 1308,275.6094 C1308,275.6094 1308,275.6094 1308,496.6094 C1308,577.8494 1309.93,604.3094 1271,675.6094 C1256.39,702.3694 1249.08,709.5994 1222,723.6094 C1204.35,732.7394 1191.64,717.1494 1178,731.6094 C1172.1375,737.8194 1168.01,750.36 1165.1186,765.7394 C1163.6729,773.4291 1162.5362,781.8284 1161.6462,790.501 C1161.6184,790.772 1162.1917,785.0735 1162.1644,785.345 " fill="none" id="Sylvie-to-SageMDE" style="stroke:#181818;stroke-width:1;"/><polygon fill="#181818" points="1161.5635,791.3149,1166.4448,782.7607,1162.0642,786.34,1158.485,781.9595,1161.5635,791.3149" style="stroke:#181818;stroke-width:1;"/><text fill="#000000" font-family="sans-serif" font-size="13" lengthAdjust="spacing" textLength="33.2363" x="1309" y="430.6045">saisie</text></g><!--link Sylvie to Excel1--><g id="link_Sylvie_Excel1"><path d="M1313.06,129.1394 C1330.63,141.2294 1355.55,156.2394 1380,163.6094 C1393.64,167.7194 1497.51,161.9594 1508,171.6094 C1609.48,264.9894 1486.74,357.6694 1553,478.6094 C1635.5,629.2094 1743.12,593.3794 1845,731.6094 C1874.81,772.0594 1893.3387,821.9061 1903.5487,854.3461 " fill="none" id="Sylvie-to-Excel1" style="stroke:#181818;stroke-width:1;"/><polygon fill="#181818" points="1905.35,860.0694,1906.4635,850.2837,1903.8489,855.3,1898.8326,852.6854,1905.35,860.0694" style="stroke:#181818;stroke-width:1;"/><text fill="#000000" font-family="sans-serif" font-size="13" lengthAdjust="spacing" textLength="33.2363" x="1554" y="430.6045">saisie</text></g><!--link Sylvie to Excel2--><g id="link_Sylvie_Excel2"><path d="M1301.81,129.3494 C1309.7,141.0794 1319.67,156.8294 1327,171.6094 C1433.42,386.0394 1345.89,508.1994 1517,675.6094 C1570.55,727.9994 1619.01,682.9794 1676,731.6094 C1716.63,766.2794 1739.0191,820.0018 1750.3491,854.3218 " fill="none" id="Sylvie-to-Excel2" style="stroke:#181818;stroke-width:1;"/><polygon fill="#181818" points="1752.23,860.0194,1753.207,850.2191,1750.6626,855.2714,1745.6102,852.727,1752.23,860.0194" style="stroke:#181818;stroke-width:1;"/><text fill="#000000" font-family="sans-serif" font-size="13" lengthAdjust="spacing" textLength="33.2363" x="1405" y="430.6045">saisie</text></g><!--link Sylvie to Email--><g id="link_Sylvie_Email"><path d="M1258.09,129.1594 C1218.82,151.1694 1148.26,187.6694 1083,205.6094 C847.1,270.4794 553.98,275.7987 462.69,275.8087 " fill="none" id="Sylvie-to-Email" style="stroke:#181818;stroke-width:1;"/><polygon fill="#181818" points="456.69,275.8094,465.69,279.8094,461.69,275.8094,465.69,271.8094,456.69,275.8094" style="stroke:#181818;stroke-width:1;"/><text fill="#000000" font-family="sans-serif" font-size="13" lengthAdjust="spacing" textLength="70.8081" x="1171" y="194.1045">confirmation</text></g><!--link Tel to F1--><g id="link_Tel_F1"><path d="M366.13,292.5094 C372.16,293.6094 378.18,294.6594 384,295.6094 C488.79,312.6994 516.14,308.9494 621,325.6094 C663.01,332.2794 672.72,338.9294 715,343.6094 C743.29,346.7394 944.94,340.1694 971,351.6094 C996.81,362.9394 1014.6368,383.5227 1026.9668,401.0427 " fill="none" id="Tel-to-F1" style="stroke:#181818;stroke-width:1;stroke-dasharray:7.0,7.0;"/><polygon fill="#181818" points="1030.42,405.9494,1028.5114,396.2872,1027.5424,401.8605,1021.9691,400.8914,1030.42,405.9494" style="stroke:#181818;stroke-width:1;"/><text fill="#000000" font-family="sans-serif" font-size="13" lengthAdjust="spacing" textLength="70.8081" x="716" y="340.1045">commandes</text></g><!--link Tel to F2--><g id="link_Tel_F2"><path d="M366.06,292.9994 C372.11,293.9894 378.15,294.8794 384,295.6094 C652.94,328.9394 729.23,263.4494 993,325.6094 C1012.37,330.1794 1014.75,338.5494 1034,343.6094 C1068.13,352.5894 1081.2,336.3094 1113,351.6094 C1138.24,363.7494 1155.9953,383.9238 1168.4953,401.1438 " fill="none" id="Tel-to-F2" style="stroke:#181818;stroke-width:1;stroke-dasharray:7.0,7.0;"/><polygon fill="#181818" points="1172.02,405.9994,1169.9701,396.3662,1169.0828,401.9531,1163.4959,401.0658,1172.02,405.9994" style="stroke:#181818;stroke-width:1;"/><text fill="#000000" font-family="sans-serif" font-size="13" lengthAdjust="spacing" textLength="70.8081" x="1035" y="340.1045">commandes</text></g><!--link Tel to F3--><g id="link_Tel_F3"><path d="M348.1,295.6794 C398.44,311.5794 475.87,333.6694 545,343.6094 C576.03,348.0694 798.23,339.1594 827,351.6094 C853.05,362.8894 871.1686,383.5098 883.7186,401.0498 " fill="none" id="Tel-to-F3" style="stroke:#181818;stroke-width:1;stroke-dasharray:7.0,7.0;"/><polygon fill="#181818" points="887.21,405.9294,885.226,396.2824,884.3005,401.8631,878.7199,400.9376,887.21,405.9294" style="stroke:#181818;stroke-width:1;"/><text fill="#000000" font-family="sans-serif" font-size="13" lengthAdjust="spacing" textLength="70.8081" x="546" y="340.1045">commandes</text></g><!--link Email to F1--><g id="link_Email_F1"><path d="M456.83,281.3494 C567.18,296.1794 968.07,350.1394 971,351.6094 C995.87,364.1094 1013.5268,383.972 1026.1268,401.042 " fill="none" id="Email-to-F1" style="stroke:#181818;stroke-width:1;stroke-dasharray:7.0,7.0;"/><polygon fill="#181818" points="1029.69,405.8694,1027.5634,396.2529,1026.7206,401.8466,1021.1269,401.0038,1029.69,405.8694" style="stroke:#181818;stroke-width:1;"/><text fill="#000000" font-family="sans-serif" font-size="13" lengthAdjust="spacing" textLength="70.8081" x="914" y="340.1045">confirmation</text></g><!--link Email to F2--><g id="link_Email_F2"><path d="M456.51,278.1594 C577.14,280.7494 1055.91,293.0094 1114,325.6094 C1145.83,343.4794 1164.3319,377.0594 1174.4519,400.2694 " fill="none" id="Email-to-F2" style="stroke:#181818;stroke-width:1;stroke-dasharray:7.0,7.0;"/><polygon fill="#181818" points="1176.85,405.7694,1176.9195,395.9208,1174.8516,401.1861,1169.5863,399.1182,1176.85,405.7694" style="stroke:#181818;stroke-width:1;"/><text fill="#000000" font-family="sans-serif" font-size="13" lengthAdjust="spacing" textLength="70.8081" x="1137" y="340.1045">confirmation</text></g><!--link F1 to Eric--><g id="link_F1_Eric"><path d="M1034.29,444.1594 C1019.73,478.2694 990.6653,546.341 976.0853,580.501 " fill="none" id="F1-to-Eric" style="stroke:#181818;stroke-width:1;stroke-dasharray:7.0,7.0;"/><polygon fill="#181818" points="973.73,586.0194,980.9419,579.312,975.6928,581.4207,973.5841,576.1716,973.73,586.0194" style="stroke:#181818;stroke-width:1;"/><text fill="#000000" font-family="sans-serif" font-size="13" lengthAdjust="spacing" textLength="47.6836" x="1016" y="501.1045">livraison</text></g><!--link F2 to Eric--><g id="link_F2_Eric"><path d="M1160.24,444.1794 C1146.56,454.4494 1128.96,467.4594 1113,478.6094 C1094.45,491.5594 1045.12,519.8194 1028,534.6094 C1009.77,550.3594 995.5205,566.6441 983.6405,581.4141 " fill="none" id="F2-to-Eric" style="stroke:#181818;stroke-width:1;stroke-dasharray:7.0,7.0;"/><polygon fill="#181818" points="979.88,586.0894,988.6376,581.5834,983.0138,582.1933,982.4039,576.5694,979.88,586.0894" style="stroke:#181818;stroke-width:1;"/><text fill="#000000" font-family="sans-serif" font-size="13" lengthAdjust="spacing" textLength="47.6836" x="1101" y="501.1045">livraison</text></g><!--link F3 to Eric--><g id="link_F3_Eric"><path d="M903.96,444.3794 C908.47,460.4194 915.53,484.2794 923,504.6094 C933.65,533.5794 945.7766,560.8158 954.9366,580.5758 " fill="none" id="F3-to-Eric" style="stroke:#181818;stroke-width:1;stroke-dasharray:7.0,7.0;"/><polygon fill="#181818" points="957.46,586.0194,957.3039,576.1718,955.3571,581.4831,950.0458,579.5363,957.46,586.0194" style="stroke:#181818;stroke-width:1;"/><text fill="#000000" font-family="sans-serif" font-size="13" lengthAdjust="spacing" textLength="47.6836" x="924" y="501.1045">livraison</text></g><!--link Eric to SageMDE--><g id="link_Eric_SageMDE"><path d="M978.77,624.3494 C990.23,639.6494 1008.25,661.2494 1028,675.6094 C1077.89,711.8994 1120.65,680.3694 1155,731.6094 C1164.445,745.6944 1169.4837,762.2338 1171.7128,779.1666 C1171.9914,781.2832 1172.2262,783.4059 1172.4201,785.5308 C1172.5171,786.5932 1172.6039,787.6562 1172.6809,788.7192 C1172.7193,789.2507 1172.7554,789.7822 1172.789,790.3136 C1172.8058,790.5794 1172.4699,784.8554 1172.4855,785.1211 " fill="none" id="Eric-to-SageMDE" style="stroke:#181818;stroke-width:1;"/><polygon fill="#181818" points="1172.8377,791.1107,1176.3025,781.8915,1172.5442,786.1194,1168.3163,782.361,1172.8377,791.1107" style="stroke:#181818;stroke-width:1;"/><text fill="#000000" font-family="sans-serif" font-size="13" lengthAdjust="spacing" textLength="64.4985" x="1149" y="720.1045">r&#195;&#169;ception</text></g><!--link Eric to Excel3--><g id="link_Eric_Excel3"><path d="M976.82,624.1794 C987.62,640.4794 1005.78,663.6794 1028,675.6094 C1036.23,680.0294 1351.71,722.5794 1361,723.6094 C1383.82,726.1394 1443.45,721.3694 1464,731.6094 C1521.06,760.0394 1561.8022,818.397 1583.2922,854.677 " fill="none" id="Eric-to-Excel3" style="stroke:#181818;stroke-width:1;"/><polygon fill="#181818" points="1586.35,859.8394,1585.2048,850.0573,1583.8018,855.5374,1578.3217,854.1344,1586.35,859.8394" style="stroke:#181818;stroke-width:1;"/><text fill="#000000" font-family="sans-serif" font-size="13" lengthAdjust="spacing" textLength="30.3418" x="1362" y="720.1045">stock</text></g><!--link Julien to SageMDE--><g id="link_Julien_SageMDE"><path d="M1646.52,129.2894 C1641.03,159.5294 1631,222.1394 1631,275.6094 C1631,275.6094 1631,275.6094 1631,606.1094 C1631,720.8994 1512.1,694.7594 1401,723.6094 C1389,726.7294 1187.14,723.2294 1178,731.6094 C1171.7075,737.3819 1167.3613,749.7006 1164.3845,764.9939 C1162.8962,772.6405 1161.7502,781.0308 1160.8745,789.7183 C1160.8198,790.2612 1161.3427,784.8331 1161.2901,785.3783 " fill="none" id="Julien-to-SageMDE" style="stroke:#181818;stroke-width:1;stroke-dasharray:7.0,7.0;"/><polygon fill="#181818" points="1160.7135,791.3505,1165.5599,782.7766,1161.194,786.3737,1157.5969,782.0078,1160.7135,791.3505" style="stroke:#181818;stroke-width:1;"/><text fill="#000000" font-family="sans-serif" font-size="13" lengthAdjust="spacing" textLength="69.3799" x="1632" y="430.6045">consultation</text></g><!--link Julien to Excel1--><g id="link_Julien_Excel1"><path d="M1726.78,125.1794 C1804.41,144.3594 1913,187.0194 1913,275.6094 C1913,275.6094 1913,275.6094 1913,606.1094 C1913,699.3694 1913,804.0594 1913,853.9194 " fill="none" id="Julien-to-Excel1" style="stroke:#181818;stroke-width:1;stroke-dasharray:7.0,7.0;"/><polygon fill="#181818" points="1913,859.9194,1917,850.9194,1913,854.9194,1909,850.9194,1913,859.9194" style="stroke:#181818;stroke-width:1;"/><text fill="#000000" font-family="sans-serif" font-size="13" lengthAdjust="spacing" textLength="69.3799" x="1914" y="430.6045">consultation</text></g><!--link Julien to Excel2--><g id="link_Julien_Excel2"><path d="M1655.55,129.3094 C1667.48,169.1894 1695.65,267.3994 1710,351.6094 C1742.96,544.9594 1755.2478,775.5851 1758.6778,853.9851 " fill="none" id="Julien-to-Excel2" style="stroke:#181818;stroke-width:1;stroke-dasharray:7.0,7.0;"/><polygon fill="#181818" points="1758.94,859.9794,1762.5428,850.8131,1758.7215,854.9842,1754.5504,851.1628,1758.94,859.9794" style="stroke:#181818;stroke-width:1;"/><text fill="#000000" font-family="sans-serif" font-size="13" lengthAdjust="spacing" textLength="69.3799" x="1728" y="430.6045">consultation</text></g><!--link Julien to Excel4--><g id="link_Julien_Excel4"><path d="M1726.94,126.0894 C1844.16,151.1394 2054,205.7494 2054,275.6094 C2054,275.6094 2054,275.6094 2054,606.1094 C2054,699.8294 2039.2705,804.3736 2031.3805,854.0836 " fill="none" id="Julien-to-Excel4" style="stroke:#181818;stroke-width:1;stroke-dasharray:7.0,7.0;"/><polygon fill="#181818" points="2030.44,860.0094,2035.8014,851.7477,2031.2238,855.0712,2027.9003,850.4936,2030.44,860.0094" style="stroke:#181818;stroke-width:1;"/><text fill="#000000" font-family="sans-serif" font-size="13" lengthAdjust="spacing" textLength="69.3799" x="2055" y="430.6045">consultation</text></g><!--link Julien to Tel--><g id="link_Julien_Tel"><path d="M1623.69,129.3294 C1605.5,141.0194 1580.29,155.4794 1556,163.6094 C1547.86,166.3294 1258.56,204.9894 1250,205.6094 C1226.01,207.3594 406.94,206.3594 384,213.6094 C356.5,222.2994 334.4348,238.5662 317.3848,253.5662 " fill="none" id="Julien-to-Tel" style="stroke:#181818;stroke-width:1;stroke-dasharray:7.0,7.0;"/><polygon fill="#181818" points="312.88,257.5294,322.2793,254.5878,316.634,254.2267,316.9951,248.5814,312.88,257.5294" style="stroke:#181818;stroke-width:1;"/><text fill="#000000" font-family="sans-serif" font-size="13" lengthAdjust="spacing" textLength="98.4775" x="1503" y="194.1045">appels &#195;&#169;quipes</text></g><!--link GMN48 to GMN77--><g id="link_GMN48_GMN77"><path d="M726,454.7094 C726,476.2294 726,506.6794 726,534.4694 " fill="none" id="GMN48-GMN77" style="stroke:#181818;stroke-width:1;stroke-dasharray:7.0,7.0;"/></g><!--SRC=[XLVDRjj64BxpAGOnYjWgv4YKhTW66a0_PEF2YWLJHGzr3sjg9Msp8XdkqhLH131geC_G0ctHvj3MG87ca4CE_G4a-DIty0lq5JgxIr6aJAKMOCWptyxEppSpQyaafz09fr4Oq412bv5nJAPGXLRiJvYalanY2jwbaFFhsQzJ2gtEu6FdoBB4SnP4H67znMbFNgAn6C-GOCofPKN4Vqx651vq9YIGZCO2DdT1e5cnzG0sNDVPSUhmfGNmQMT2Hx20GVqp809w9FRh2jPkTkhtGNO6ijU36XceaO4G5OGIFMNZYOHmP2v2AS3yzUtRkwllPs-WZyU63udlgxZnAnipINWEzDtTrG_G3WC14OdKLKd0NYHqYed8esx_WW6QkE7gLpJ1H1M1D1XgRwoNkNorCUaa0O-foySKS-KqtORhcbnzI8LaOH0GXgLf-HCYXOxIk-JdZC96gzlTSveAUK85baQGCwnBQpHI1mpqeuGp6gYCT5lj_ViPCQPoSNmpkvc_kllgjt___jC8lftzaKSzJSx0nuXYmc5p72Oyb5lheklgLE2lDr95jkVkEliciXuP4y42pARsqecP3nlxUsvxV- - -ZqgRp_JiPvXVtrszBefLBUiWQCAXtu4eJ90J424LCO5Kh7CnH_WZEYR-fQPh1t-qeqCYoHaH2gZWlQvp6cn-me9X-8K0krQtaTwg8AX4dJhQR3VR-gYACXmcFAjSGUR9q7zU565pJaamf1hvigHKvX8JyglRdsO_pd-VlSKwGQLotFQEZ-RN_tmzS2eLZQYcn6xr3zE_3mD9un7ngMvaJYzegkXYXbIbg03qD9IAj2BLrMs8bMvaCbg7A4PlsLf2kmodYUf_vyAdo13ipp2T0Uw-qpJLrxhJm4MB0HDOijYGLSlr8EW-hjLoI2zXvooNe0nibu5LQY77lIMyKGBln-nYYTZ948lyduLIXbFDG-tU2kKg5U_mwDW3h7xt-DapJKp7ouhG3PCpZfsPrS0F9ygpc0P-bcHTAGhYCl3NvLN5ZkF49seWg7JMrCUaSsNiFF9wdWveW0N8npibZ9j8rJSbwkk1fcNu5KTRIk2IuD7OQhFjLkqQa2YYN3pw76kfzMaiE1_GeL_86UDCDTZDIc0-3vCXqYL70LmPjVSLLPoQ-fZOSW1eQKVT-ggyRUJsghnZv0qbtzxUXft7G1Avc8pkplqMSykNWzCzB9KlUckv0UgrsdiWY_LOYVmXd52kooYoxIKiimAtjv_egXsaQRNCqYiLDyh5neYfvW7MBrjRApVd-MGfA-fOkbWEG8Q908u3mLW-nHS0vXJV3VWI0CfnvviR2eVIjS24CLguBmLjvjR7bfKAgzKdsGGz046Om5sJqwLZOQtABbSfaYklmc34ugdnATMlPWv6EHuM7SypDCkJMzU6qt6q5DlbuaP1R1pBcSdvbzFPgxg2MqViFCQGrMHnJSdr3Zq0lb1Ohhr6tYYN5-nd2rR3YXNI2y6daV5ueKy7B9P2pT-YDVCAiTB7Y2PDPWrZ50cN9iOS8glwEm7s_m5stW4eK405zI9X4LR8oiq-xDvAfNzotDRhjUTuq3hfF3qSEFWyFZ7BTZaMMecVuBkF1Ne4u0DRtOXpVV76A81JBdu0vXM5yqGTmivGR-hqqRX4vvQqdYmaZXZdgMIp2M4Y6HTRXJCz39f5gerZMZKT8goIjs-2SQAhQT_U0r0unwFP90T9fv4mBD1BOGaVaEH2kyVfkOOEwPBuc1Rzy52fm7yCh6me_WS0]--></g></svg>