<svg xmlns="http://www.w3.org/2000/svg" xmlns:xlink="http://www.w3.org/1999/xlink" contentStyleType="text/css" height="313px" preserveAspectRatio="none" style="width:991px;height:313px;background:#FFFFFF;" version="1.1" viewBox="0 0 991 313" width="991px" zoomAndPan="magnify"><title>Mind Map - Pain Points Achats &amp; Logistique</title><defs/><g><text fill="#000000" font-family="sans-serif" font-size="14" font-weight="bold" lengthAdjust="spacing" textLength="292.4551" x="347.8823" y="34.5332">Mind Map - Pain Points Achats &amp; Logistique</text><rect fill="#F1F1F1" height="55.2188" rx="12.5" ry="12.5" style="stroke:#181818;stroke-width:1.5;" width="144.4482" x="407.668" y="147.4609"/><text fill="#000000" font-family="sans-serif" font-size="14" lengthAdjust="spacing" textLength="26.4482" x="417.668" y="171.9941">&#240;&#376;&#8221;&#180;</text><text fill="#000000" font-family="sans-serif" font-size="14" font-weight="bold" lengthAdjust="spacing" textLength="94.1104" x="448.0059" y="171.9941">PROBL&#195;&#710;MES</text><text fill="#000000" font-family="sans-serif" font-size="14" font-weight="bold" lengthAdjust="spacing" textLength="68.4551" x="417.668" y="189.6035">MAJEURS</text><rect fill="#F1F1F1" height="55.2188" rx="12.5" ry="12.5" style="stroke:#181818;stroke-width:1.5;" width="171.1836" x="602.1162" y="60.2188"/><text fill="#000000" font-family="sans-serif" font-size="14" lengthAdjust="spacing" textLength="151.1836" x="612.1162" y="84.752">&#240;&#376;&#8221;&#180; Base de donn&#195;&#169;es</text><text fill="#000000" font-family="sans-serif" font-size="14" lengthAdjust="spacing" textLength="49.7861" x="612.1162" y="102.3613">CHAOS</text><text fill="#000000" font-family="sans-serif" font-size="14" lengthAdjust="spacing" textLength="152.9199" x="826.2998" y="64.1426">Doublons r&#195;&#169;f&#195;&#169;rences</text><path d="M773.2998,87.8281 L783.2998,87.8281 C798.2998,87.8281 798.2998,58.4141 813.2998,58.4141 L823.2998,58.4141 " fill="none" style="stroke:#181818;stroke-width:1;"/><text fill="#000000" font-family="sans-serif" font-size="14" lengthAdjust="spacing" textLength="137.9424" x="826.2998" y="83.752">Donn&#195;&#169;es obsol&#195;&#168;tes</text><path d="M773.2998,87.8281 L783.2998,87.8281 C798.2998,87.8281 798.2998,78.0234 813.2998,78.0234 L823.2998,78.0234 " fill="none" style="stroke:#181818;stroke-width:1;"/><text fill="#000000" font-family="sans-serif" font-size="14" lengthAdjust="spacing" textLength="112.0615" x="826.2998" y="103.3613">Double tarification</text><path d="M773.2998,87.8281 L783.2998,87.8281 C798.2998,87.8281 798.2998,97.6328 813.2998,97.6328 L823.2998,97.6328 " fill="none" style="stroke:#181818;stroke-width:1;"/><text fill="#000000" font-family="sans-serif" font-size="14" lengthAdjust="spacing" textLength="148.4424" x="826.2998" y="122.9707">Sage MDE "calamiteux"</text><path d="M773.2998,87.8281 L783.2998,87.8281 C798.2998,87.8281 798.2998,117.2422 813.2998,117.2422 L823.2998,117.2422 " fill="none" style="stroke:#181818;stroke-width:1;"/><path d="M552.1162,175.0703 L562.1162,175.0703 C577.1162,175.0703 577.1162,87.8281 592.1162,87.8281 L602.1162,87.8281 " fill="none" style="stroke:#181818;stroke-width:1;"/><rect fill="#F1F1F1" height="55.2188" rx="12.5" ry="12.5" style="stroke:#181818;stroke-width:1.5;" width="113.3652" x="602.1162" y="147.4609"/><text fill="#000000" font-family="sans-serif" font-size="14" lengthAdjust="spacing" textLength="93.3652" x="612.1162" y="171.9941">&#240;&#376;&#8221;&#180; Livraisons</text><text fill="#000000" font-family="sans-serif" font-size="14" lengthAdjust="spacing" textLength="80.917" x="612.1162" y="189.6035">incompl&#195;&#168;tes</text><text fill="#000000" font-family="sans-serif" font-size="14" font-weight="bold" lengthAdjust="spacing" textLength="107.3447" x="768.4814" y="142.5801">Taux insuffisant</text><text fill="#000000" font-family="sans-serif" font-size="14" lengthAdjust="spacing" textLength="56.0205" x="768.4814" y="160.1895">complets</text><path d="M715.4814,175.0703 L725.4814,175.0703 C740.4814,175.0703 740.4814,145.6563 755.4814,145.6563 L765.4814,145.6563 " fill="none" style="stroke:#181818;stroke-width:1;"/><text fill="#000000" font-family="sans-serif" font-size="14" lengthAdjust="spacing" textLength="124.5098" x="768.4814" y="179.7988">Reliquats non suivis</text><path d="M715.4814,175.0703 L725.4814,175.0703 C740.4814,175.0703 740.4814,174.0703 755.4814,174.0703 L765.4814,174.0703 " fill="none" style="stroke:#181818;stroke-width:1;"/><text fill="#000000" font-family="sans-serif" font-size="14" lengthAdjust="spacing" textLength="124.7148" x="768.4814" y="199.4082">Chantiers bloqu&#195;&#169;s</text><path d="M715.4814,175.0703 L725.4814,175.0703 C740.4814,175.0703 740.4814,193.6797 755.4814,193.6797 L765.4814,193.6797 " fill="none" style="stroke:#181818;stroke-width:1;"/><text fill="#000000" font-family="sans-serif" font-size="14" lengthAdjust="spacing" textLength="157.9443" x="768.4814" y="219.0176">Re-commandes multiples</text><path d="M715.4814,175.0703 L725.4814,175.0703 C740.4814,175.0703 740.4814,213.2891 755.4814,213.2891 L765.4814,213.2891 " fill="none" style="stroke:#181818;stroke-width:1;"/><path d="M552.1162,175.0703 L562.1162,175.0703 C577.1162,175.0703 577.1162,175.0703 592.1162,175.0703 L602.1162,175.0703 " fill="none" style="stroke:#181818;stroke-width:1;"/><rect fill="#F1F1F1" height="55.2188" rx="12.5" ry="12.5" style="stroke:#181818;stroke-width:1.5;" width="103.4326" x="602.1162" y="234.7031"/><text fill="#000000" font-family="sans-serif" font-size="14" lengthAdjust="spacing" textLength="73.9238" x="612.1162" y="259.2363">&#240;&#376;&#8221;&#180; Pas de</text><text fill="#000000" font-family="sans-serif" font-size="14" lengthAdjust="spacing" textLength="83.4326" x="612.1162" y="276.8457">visibilit&#195;&#169; TR</text><text fill="#000000" font-family="sans-serif" font-size="14" lengthAdjust="spacing" textLength="87.9443" x="758.5488" y="238.627">Stock inconnu</text><path d="M705.5488,262.3125 L715.5488,262.3125 C730.5488,262.3125 730.5488,232.8984 745.5488,232.8984 L755.5488,232.8984 " fill="none" style="stroke:#181818;stroke-width:1;"/><text fill="#000000" font-family="sans-serif" font-size="14" lengthAdjust="spacing" textLength="116.7236" x="758.5488" y="258.2363">Statut commandes</text><path d="M705.5488,262.3125 L715.5488,262.3125 C730.5488,262.3125 730.5488,252.5078 745.5488,252.5078 L755.5488,252.5078 " fill="none" style="stroke:#181818;stroke-width:1;"/><text fill="#000000" font-family="sans-serif" font-size="14" lengthAdjust="spacing" textLength="95.71" x="758.5488" y="277.8457">Co&#195;&#187;ts affaires</text><path d="M705.5488,262.3125 L715.5488,262.3125 C730.5488,262.3125 730.5488,272.1172 745.5488,272.1172 L755.5488,272.1172 " fill="none" style="stroke:#181818;stroke-width:1;"/><text fill="#000000" font-family="sans-serif" font-size="14" lengthAdjust="spacing" textLength="128.3994" x="758.5488" y="297.4551">Impossible de piloter</text><path d="M705.5488,262.3125 L715.5488,262.3125 C730.5488,262.3125 730.5488,291.7266 745.5488,291.7266 L755.5488,291.7266 " fill="none" style="stroke:#181818;stroke-width:1;"/><path d="M552.1162,175.0703 L562.1162,175.0703 C577.1162,175.0703 577.1162,262.3125 592.1162,262.3125 L602.1162,262.3125 " fill="none" style="stroke:#181818;stroke-width:1;"/><rect fill="#F1F1F1" height="55.2188" rx="12.5" ry="12.5" style="stroke:#181818;stroke-width:1.5;" width="147.5996" x="210.0684" y="69.0234"/><text fill="#000000" font-family="sans-serif" font-size="14" lengthAdjust="spacing" textLength="127.5996" x="220.0684" y="93.5566">&#240;&#376;&#8221;&#180; Communication</text><text fill="#000000" font-family="sans-serif" font-size="14" lengthAdjust="spacing" textLength="75.4482" x="220.0684" y="111.166">archa&#195;&#175;que</text><text fill="#000000" font-family="sans-serif" font-size="14" lengthAdjust="spacing" textLength="124.9336" x="32.1348" y="72.9473">100% t&#195;&#169;l&#195;&#169;phone</text><path d="M210.0684,96.6328 L200.0684,96.6328 C185.0684,96.6328 185.0684,67.2188 170.0684,67.2188 L160.0684,67.2188 " fill="none" style="stroke:#181818;stroke-width:1;"/><text fill="#000000" font-family="sans-serif" font-size="14" lengthAdjust="spacing" textLength="61.8105" x="95.2578" y="92.5566">Pas d'EDI</text><path d="M210.0684,96.6328 L200.0684,96.6328 C185.0684,96.6328 185.0684,86.8281 170.0684,86.8281 L160.0684,86.8281 " fill="none" style="stroke:#181818;stroke-width:1;"/><text fill="#000000" font-family="sans-serif" font-size="14" lengthAdjust="spacing" textLength="61.0381" x="96.0303" y="112.166">Pas d'API</text><path d="M210.0684,96.6328 L200.0684,96.6328 C185.0684,96.6328 185.0684,106.4375 170.0684,106.4375 L160.0684,106.4375 " fill="none" style="stroke:#181818;stroke-width:1;"/><text fill="#000000" font-family="sans-serif" font-size="14" lengthAdjust="spacing" textLength="147.0684" x="10" y="131.7754">Commandes manuelles</text><path d="M210.0684,96.6328 L200.0684,96.6328 C185.0684,96.6328 185.0684,126.0469 170.0684,126.0469 L160.0684,126.0469 " fill="none" style="stroke:#181818;stroke-width:1;"/><path d="M407.668,175.0703 L397.668,175.0703 C382.668,175.0703 382.668,96.6328 367.668,96.6328 L357.668,96.6328 " fill="none" style="stroke:#181818;stroke-width:1;"/><rect fill="#F1F1F1" height="55.2188" rx="12.5" ry="12.5" style="stroke:#181818;stroke-width:1.5;" width="115.6963" x="241.9717" y="147.4609"/><text fill="#000000" font-family="sans-serif" font-size="14" lengthAdjust="spacing" textLength="95.6963" x="251.9717" y="171.9941">&#240;&#376;&#8221;&#180; Processus</text><text fill="#000000" font-family="sans-serif" font-size="14" lengthAdjust="spacing" textLength="85.6133" x="251.9717" y="189.6035">100% manuel</text><text fill="#000000" font-family="sans-serif" font-size="14" lengthAdjust="spacing" textLength="135.5977" x="53.374" y="151.3848">Z&#195;&#169;ro automatisation</text><path d="M241.9717,175.0703 L231.9717,175.0703 C216.9717,175.0703 216.9717,145.6563 201.9717,145.6563 L191.9717,145.6563 " fill="none" style="stroke:#181818;stroke-width:1;"/><text fill="#000000" font-family="sans-serif" font-size="14" lengthAdjust="spacing" textLength="121.5908" x="67.3809" y="170.9941">Z&#195;&#169;ro digitalisation</text><path d="M241.9717,175.0703 L231.9717,175.0703 C216.9717,175.0703 216.9717,165.2656 201.9717,165.2656 L191.9717,165.2656 " fill="none" style="stroke:#181818;stroke-width:1;"/><text fill="#000000" font-family="sans-serif" font-size="14" lengthAdjust="spacing" textLength="141.6611" x="47.3105" y="190.6035">Papier + t&#195;&#169;l&#195;&#169;phone</text><path d="M241.9717,175.0703 L231.9717,175.0703 C216.9717,175.0703 216.9717,184.875 201.9717,184.875 L191.9717,184.875 " fill="none" style="stroke:#181818;stroke-width:1;"/><text fill="#000000" font-family="sans-serif" font-size="14" lengthAdjust="spacing" textLength="121.3721" x="67.5996" y="210.2129">Multiples ressaisies</text><path d="M241.9717,175.0703 L231.9717,175.0703 C216.9717,175.0703 216.9717,204.4844 201.9717,204.4844 L191.9717,204.4844 " fill="none" style="stroke:#181818;stroke-width:1;"/><path d="M407.668,175.0703 L397.668,175.0703 C382.668,175.0703 382.668,175.0703 367.668,175.0703 L357.668,175.0703 " fill="none" style="stroke:#181818;stroke-width:1;"/><rect fill="#F1F1F1" height="55.2188" rx="12.5" ry="12.5" style="stroke:#181818;stroke-width:1.5;" width="101.9082" x="255.7598" y="225.8984"/><text fill="#000000" font-family="sans-serif" font-size="14" lengthAdjust="spacing" textLength="77.8203" x="265.7598" y="250.4316">&#240;&#376;&#8221;&#180; Aucune</text><text fill="#000000" font-family="sans-serif" font-size="14" lengthAdjust="spacing" textLength="81.9082" x="265.7598" y="268.041">tra&#195;&#167;abilit&#195;&#169;</text><text fill="#000000" font-family="sans-serif" font-size="14" lengthAdjust="spacing" textLength="156.6182" x="46.1416" y="229.8223">Qui a command&#195;&#169; quoi?</text><path d="M255.7598,253.5078 L245.7598,253.5078 C230.7598,253.5078 230.7598,224.0938 215.7598,224.0938 L205.7598,224.0938 " fill="none" style="stroke:#181818;stroke-width:1;"/><text fill="#000000" font-family="sans-serif" font-size="14" lengthAdjust="spacing" textLength="143.4043" x="59.3555" y="249.4316">Validation non trac&#195;&#169;e</text><path d="M255.7598,253.5078 L245.7598,253.5078 C230.7598,253.5078 230.7598,243.7031 215.7598,243.7031 L205.7598,243.7031 " fill="none" style="stroke:#181818;stroke-width:1;"/><text fill="#000000" font-family="sans-serif" font-size="14" lengthAdjust="spacing" textLength="88.7031" x="114.0566" y="269.041">Emails perdus</text><path d="M255.7598,253.5078 L245.7598,253.5078 C230.7598,253.5078 230.7598,263.3125 215.7598,263.3125 L205.7598,263.3125 " fill="none" style="stroke:#181818;stroke-width:1;"/><text fill="#000000" font-family="sans-serif" font-size="14" lengthAdjust="spacing" textLength="114.5977" x="88.1621" y="288.6504">Litiges fr&#195;&#169;quents</text><path d="M255.7598,253.5078 L245.7598,253.5078 C230.7598,253.5078 230.7598,282.9219 215.7598,282.9219 L205.7598,282.9219 " fill="none" style="stroke:#181818;stroke-width:1;"/><path d="M407.668,175.0703 L397.668,175.0703 C382.668,175.0703 382.668,253.5078 367.668,253.5078 L357.668,253.5078 " fill="none" style="stroke:#181818;stroke-width:1;"/><!--SRC=[RLDDRzD04BtlhnXL0bgZLasKLbKkD4rSQ6LJawGze4ZLnbwd8-nTTp-YSaEgnB_W33t1WGCIjrQS-1Vy4iPs7D9IAKgoEs_UlfbvisyirpP7cUIyW8YZF8yKIclEU_45fvz0pT1Ol7I2COis4n0I6492RrPugF5Gu-4fh6PuSFVjruy_7pxTVWVFYuOd1y7TzU-FeJ_ol8dqlB1tx9yEwS2yLUW1Dm8I-YWfxwvlRuIPoFwhtic8ODuv39IRPaeQq6KmBR-qaB4mJRZ90ZKrAgF_N-o_8EKAeAennPXRLB8EZFYCQXlui1RpZETeXRjQO_Tr1JZN70qzFP4eOvKNzyazRypT5Q0qBatHS6dBCYkSi0lCK6JKcx9LKaam3kUuYFGlA065Da3LNRgoX6NE9f7aN2PKK-uoYqHe7eYBkA6UJIJnuHGpj2K1Z8UBygoAtq4fMahNN77hB2oP5oeKvVqaUJnDEUhc-YWlb27Yh1fCWPcoGZEMYTI2mKGy4DCdKYSN3Pv8hiaTnFkrT4N5rzhUVWALnBA5DyM5aej8LSSpVt2qUkn5HusyPH-uT29xf0zQaHMCenbLZzIuEljjvHK5t5cLapQpOe0cbk0CBS_knI9Uq63W-UEAmsOYGEqoP13yJrJFnKxISAmks_2PBmTKCxnn2BoPH3MtIwVmHHqy8p599QQo3574bRthg9zpp0mKGYTkCQi0BSv8JLhj1xMSzfEnVK5BNYywOr56NZiD0vYJtqhcrbPxkztPsbi_r0YlrHnQEz3QwtOwtSukzFqnbE4Djluo2i0efsFo0QsvngahbMsmOpxdC7Jau5nqeJojZyCD6FdD9VXaJQraJdBOyLbOW-2LigD2sGgyszayG0iZeKaMd8Li859EpQNKM2KePrte5wtsJfi5NCuSRMoNYcHzHI_ezrqu7Fu5]--></g></svg>