<svg xmlns="http://www.w3.org/2000/svg" xmlns:xlink="http://www.w3.org/1999/xlink" contentStyleType="text/css" height="1306px" preserveAspectRatio="none" style="width:1154px;height:1306px;background:#FFFFFF;" version="1.1" viewBox="0 0 1154 1306" width="1154px" zoomAndPan="magnify"><title>Processus Commande - CIBLE (Optimis&#195;&#169;)</title><defs/><g><text fill="#000000" font-family="sans-serif" font-size="14" font-weight="bold" lengthAdjust="spacing" textLength="291.1426" x="430.1536" y="34.5332">Processus Commande - CIBLE (Optimis&#195;&#169;)</text><rect fill="none" height="22.6406" style="stroke:none;stroke-width:1;" width="1121.4497" x="15" y="51.0645"/><ellipse cx="180.4087" cy="88.7051" fill="#222222" rx="10" ry="10" style="stroke:#222222;stroke-width:1;"/><rect fill="#F1F1F1" height="35.0938" rx="12.5" ry="12.5" style="stroke:#181818;stroke-width:0.5;" width="156.9102" x="101.9536" y="118.7051"/><text fill="#000000" font-family="sans-serif" font-size="12" lengthAdjust="spacing" textLength="136.9102" x="111.9536" y="141.1621">Identifie besoin mat&#195;&#169;riel</text><rect fill="#F1F1F1" height="35.0938" rx="12.5" ry="12.5" style="stroke:#181818;stroke-width:0.5;" width="148.7363" x="106.0405" y="173.7988"/><text fill="#000000" font-family="sans-serif" font-size="12" lengthAdjust="spacing" textLength="128.7363" x="116.0405" y="196.2559">Ouvre App Mobile Odoo</text><polygon fill="#F1F1F1" points="155.033,228.8926,205.7844,228.8926,217.7844,240.8926,205.7844,252.8926,155.033,252.8926,143.033,240.8926,155.033,228.8926" style="stroke:#181818;stroke-width:0.5;"/><text fill="#000000" font-family="sans-serif" font-size="11" lengthAdjust="spacing" textLength="50.7515" x="155.033" y="245.3936">Urgence ?</text><text fill="#000000" font-family="sans-serif" font-size="11" lengthAdjust="spacing" textLength="17.1177" x="125.9153" y="238.4756">Oui</text><text fill="#000000" font-family="sans-serif" font-size="11" lengthAdjust="spacing" textLength="20.1792" x="217.7844" y="238.4756">Non</text><rect fill="#F1F1F1" height="35.0938" rx="12.5" ry="12.5" style="stroke:#181818;stroke-width:0.5;" width="154.7422" x="21" y="262.8926"/><text fill="#000000" font-family="sans-serif" font-size="12" lengthAdjust="spacing" textLength="134.7422" x="31" y="285.3496">Scan code-barres produit</text><rect fill="#F1F1F1" height="35.0938" rx="12.5" ry="12.5" style="stroke:#181818;stroke-width:0.5;" width="133.4082" x="195.7422" y="262.8926"/><text fill="#000000" font-family="sans-serif" font-size="12" lengthAdjust="spacing" textLength="113.4082" x="205.7422" y="285.3496">Recherche catalogue</text><polygon fill="#F1F1F1" points="180.4087,303.9863,192.4087,315.9863,180.4087,327.9863,168.4087,315.9863,180.4087,303.9863" style="stroke:#181818;stroke-width:0.5;"/><rect fill="#F1F1F1" height="35.0938" rx="12.5" ry="12.5" style="stroke:#181818;stroke-width:0.5;" width="107.3984" x="126.7095" y="347.9863"/><text fill="#000000" font-family="sans-serif" font-size="12" lengthAdjust="spacing" textLength="87.3984" x="136.7095" y="370.4434">Ajoute au panier</text><rect fill="#F1F1F1" height="35.0938" rx="12.5" ry="12.5" style="stroke:#181818;stroke-width:0.5;" width="106.7305" x="127.0435" y="403.0801"/><text fill="#000000" font-family="sans-serif" font-size="12" lengthAdjust="spacing" textLength="86.7305" x="137.0435" y="425.5371">Valide demande</text><rect fill="#F1F1F1" height="35.0938" rx="12.5" ry="12.5" style="stroke:#181818;stroke-width:0.5;" width="131.2402" x="114.7886" y="1162.2051"/><text fill="#000000" font-family="sans-serif" font-size="12" lengthAdjust="spacing" textLength="111.2402" x="124.7886" y="1184.6621">Re&#195;&#167;oit notif "Dispo"</text><rect fill="#F1F1F1" height="35.0938" rx="12.5" ry="12.5" style="stroke:#181818;stroke-width:0.5;" width="143.7148" x="108.5513" y="1217.2988"/><text fill="#000000" font-family="sans-serif" font-size="12" lengthAdjust="spacing" textLength="123.7148" x="118.5513" y="1239.7559">R&#195;&#169;cup&#195;&#168;re mat&#195;&#169;riel</text><ellipse cx="180.4087" cy="1283.3926" fill="none" rx="11" ry="11" style="stroke:#222222;stroke-width:1;"/><ellipse cx="180.4087" cy="1283.3926" fill="#222222" rx="6" ry="6" style="stroke:#222222;stroke-width:1;"/><line style="stroke:#000000;stroke-width:1.5;" x1="15" x2="15" y1="51.0645" y2="1294.3926"/><rect fill="#F1F1F1" height="35.0938" rx="12.5" ry="12.5" style="stroke:#181818;stroke-width:0.5;" width="123.3945" x="439.8237" y="458.1738"/><text fill="#000000" font-family="sans-serif" font-size="12" lengthAdjust="spacing" textLength="103.3945" x="449.8237" y="480.6309">Re&#195;&#167;oit notification</text><rect fill="#F1F1F1" height="35.0938" rx="12.5" ry="12.5" style="stroke:#181818;stroke-width:0.5;" width="190.918" x="406.062" y="513.2676"/><text fill="#000000" font-family="sans-serif" font-size="12" lengthAdjust="spacing" textLength="170.918" x="416.062" y="535.7246">V&#195;&#169;rifie demande (Prix/Budget)</text><polygon fill="#F1F1F1" points="476.9832,568.3613,526.0588,568.3613,538.0588,580.3613,526.0588,592.3613,476.9832,592.3613,464.9832,580.3613,476.9832,568.3613" style="stroke:#181818;stroke-width:0.5;"/><text fill="#000000" font-family="sans-serif" font-size="11" lengthAdjust="spacing" textLength="49.0757" x="476.9832" y="584.8623">Valid&#195;&#169; ?</text><text fill="#000000" font-family="sans-serif" font-size="11" lengthAdjust="spacing" textLength="17.1177" x="447.8655" y="577.9443">Oui</text><text fill="#000000" font-family="sans-serif" font-size="11" lengthAdjust="spacing" textLength="20.1792" x="538.0588" y="577.9443">Non</text><rect fill="#F1F1F1" height="35.0938" rx="12.5" ry="12.5" style="stroke:#181818;stroke-width:0.5;" width="100.7129" x="372.5898" y="602.3613"/><text fill="#000000" font-family="sans-serif" font-size="12" lengthAdjust="spacing" textLength="80.7129" x="382.5898" y="624.8184">Valide en 1 clic</text><rect fill="#F1F1F1" height="35.0938" rx="12.5" ry="12.5" style="stroke:#181818;stroke-width:0.5;" width="167.5918" x="339.1504" y="657.4551"/><text fill="#000000" font-family="sans-serif" font-size="12" lengthAdjust="spacing" textLength="147.5918" x="349.1504" y="679.9121">Commande envoy&#195;&#169;e auto</text><rect fill="#F1F1F1" height="35.0938" rx="12.5" ry="12.5" style="stroke:#181818;stroke-width:0.5;" width="106.707" x="526.7422" y="602.3613"/><text fill="#000000" font-family="sans-serif" font-size="12" lengthAdjust="spacing" textLength="86.707" x="536.7422" y="624.8184">Modifie / Rejette</text><ellipse cx="580.0957" cy="668.4551" fill="none" rx="11" ry="11" style="stroke:#222222;stroke-width:1;"/><ellipse cx="580.0957" cy="668.4551" fill="#222222" rx="6" ry="6" style="stroke:#222222;stroke-width:1;"/><line style="stroke:#000000;stroke-width:1.5;" x1="333.1504" x2="333.1504" y1="51.0645" y2="1294.3926"/><rect fill="#F1F1F1" height="35.0938" rx="12.5" ry="12.5" style="stroke:#181818;stroke-width:0.5;" width="190.0566" x="643.4492" y="712.5488"/><text fill="#000000" font-family="sans-serif" font-size="12" lengthAdjust="spacing" textLength="170.0566" x="653.4492" y="735.0059">Re&#195;&#167;oit commande (Email/EDI)</text><rect fill="#F1F1F1" height="35.0938" rx="12.5" ry="12.5" style="stroke:#181818;stroke-width:0.5;" width="141.0723" x="667.9414" y="767.6426"/><text fill="#000000" font-family="sans-serif" font-size="12" lengthAdjust="spacing" textLength="121.0723" x="677.9414" y="790.0996">Pr&#195;&#169;pare &amp; Exp&#195;&#169;die</text><line style="stroke:#000000;stroke-width:1.5;" x1="637.4492" x2="637.4492" y1="51.0645" y2="1294.3926"/><rect fill="#F1F1F1" height="35.0938" rx="12.5" ry="12.5" style="stroke:#181818;stroke-width:0.5;" width="134.7266" x="921.3599" y="822.7363"/><text fill="#000000" font-family="sans-serif" font-size="12" lengthAdjust="spacing" textLength="114.7266" x="931.3599" y="845.1934">Re&#195;&#167;oit marchandise</text><rect fill="#F1F1F1" height="35.0938" rx="12.5" ry="12.5" style="stroke:#181818;stroke-width:0.5;" width="145.3848" x="916.0308" y="877.8301"/><text fill="#000000" font-family="sans-serif" font-size="12" lengthAdjust="spacing" textLength="125.3848" x="926.0308" y="900.2871">Scan RFID colis/palette</text><rect fill="#F1F1F1" height="35.0938" rx="12.5" ry="12.5" style="stroke:#181818;stroke-width:0.5;" width="153.582" x="911.9321" y="932.9238"/><text fill="#000000" font-family="sans-serif" font-size="12" lengthAdjust="spacing" textLength="133.582" x="921.9321" y="955.3809">Contr&#195;&#180;le quantit&#195;&#169; auto</text><polygon fill="#F1F1F1" points="959.9878,988.0176,1017.4585,988.0176,1029.4585,1000.0176,1017.4585,1012.0176,959.9878,1012.0176,947.9878,1000.0176,959.9878,988.0176" style="stroke:#181818;stroke-width:0.5;"/><text fill="#000000" font-family="sans-serif" font-size="11" lengthAdjust="spacing" textLength="57.4707" x="959.9878" y="1004.5186">Conforme ?</text><text fill="#000000" font-family="sans-serif" font-size="11" lengthAdjust="spacing" textLength="17.1177" x="930.8701" y="997.6006">Oui</text><text fill="#000000" font-family="sans-serif" font-size="11" lengthAdjust="spacing" textLength="20.1792" x="1029.4585" y="997.6006">Non</text><rect fill="#F1F1F1" height="35.0938" rx="12.5" ry="12.5" style="stroke:#181818;stroke-width:0.5;" width="116.2285" x="853.748" y="1022.0176"/><text fill="#000000" font-family="sans-serif" font-size="12" lengthAdjust="spacing" textLength="96.2285" x="863.748" y="1044.4746">Valide r&#195;&#169;ception</text><rect fill="#F1F1F1" height="35.0938" rx="12.5" ry="12.5" style="stroke:#181818;stroke-width:0.5;" width="136.7129" x="843.5059" y="1077.1113"/><text fill="#000000" font-family="sans-serif" font-size="12" lengthAdjust="spacing" textLength="116.7129" x="853.5059" y="1099.5684">Stock mis &#195;&#160; jour auto</text><rect fill="#F1F1F1" height="35.0938" rx="12.5" ry="12.5" style="stroke:#181818;stroke-width:0.5;" width="130.7305" x="1000.2188" y="1022.0176"/><text fill="#000000" font-family="sans-serif" font-size="12" lengthAdjust="spacing" textLength="110.7305" x="1010.2188" y="1044.4746">Signale litige (Photo)</text><polygon fill="#F1F1F1" points="988.7231,1118.2051,1000.7231,1130.2051,988.7231,1142.2051,976.7231,1130.2051,988.7231,1118.2051" style="stroke:#181818;stroke-width:0.5;"/><line style="stroke:#000000;stroke-width:1.5;" x1="837.5059" x2="837.5059" y1="51.0645" y2="1294.3926"/><line style="stroke:#000000;stroke-width:1.5;" x1="1134.9492" x2="1134.9492" y1="51.0645" y2="1294.3926"/><line style="stroke:#181818;stroke-width:1;" x1="180.4087" x2="180.4087" y1="98.7051" y2="118.7051"/><polygon fill="#181818" points="176.4087,108.7051,180.4087,118.7051,184.4087,108.7051,180.4087,112.7051" style="stroke:#181818;stroke-width:1;"/><line style="stroke:#181818;stroke-width:1;" x1="180.4087" x2="180.4087" y1="153.7988" y2="173.7988"/><polygon fill="#181818" points="176.4087,163.7988,180.4087,173.7988,184.4087,163.7988,180.4087,167.7988" style="stroke:#181818;stroke-width:1;"/><line style="stroke:#181818;stroke-width:1;" x1="143.033" x2="98.3711" y1="240.8926" y2="240.8926"/><line style="stroke:#181818;stroke-width:1;" x1="98.3711" x2="98.3711" y1="240.8926" y2="262.8926"/><polygon fill="#181818" points="94.3711,252.8926,98.3711,262.8926,102.3711,252.8926,98.3711,256.8926" style="stroke:#181818;stroke-width:1;"/><line style="stroke:#181818;stroke-width:1;" x1="217.7844" x2="262.4463" y1="240.8926" y2="240.8926"/><line style="stroke:#181818;stroke-width:1;" x1="262.4463" x2="262.4463" y1="240.8926" y2="262.8926"/><polygon fill="#181818" points="258.4463,252.8926,262.4463,262.8926,266.4463,252.8926,262.4463,256.8926" style="stroke:#181818;stroke-width:1;"/><line style="stroke:#181818;stroke-width:1;" x1="98.3711" x2="98.3711" y1="297.9863" y2="315.9863"/><line style="stroke:#181818;stroke-width:1;" x1="98.3711" x2="168.4087" y1="315.9863" y2="315.9863"/><polygon fill="#181818" points="158.4087,311.9863,168.4087,315.9863,158.4087,319.9863,162.4087,315.9863" style="stroke:#181818;stroke-width:1;"/><line style="stroke:#181818;stroke-width:1;" x1="262.4463" x2="262.4463" y1="297.9863" y2="315.9863"/><line style="stroke:#181818;stroke-width:1;" x1="262.4463" x2="192.4087" y1="315.9863" y2="315.9863"/><polygon fill="#181818" points="202.4087,311.9863,192.4087,315.9863,202.4087,319.9863,198.4087,315.9863" style="stroke:#181818;stroke-width:1;"/><line style="stroke:#181818;stroke-width:1;" x1="180.4087" x2="180.4087" y1="208.8926" y2="228.8926"/><polygon fill="#181818" points="176.4087,218.8926,180.4087,228.8926,184.4087,218.8926,180.4087,222.8926" style="stroke:#181818;stroke-width:1;"/><line style="stroke:#181818;stroke-width:1;" x1="180.4087" x2="180.4087" y1="327.9863" y2="347.9863"/><polygon fill="#181818" points="176.4087,337.9863,180.4087,347.9863,184.4087,337.9863,180.4087,341.9863" style="stroke:#181818;stroke-width:1;"/><line style="stroke:#181818;stroke-width:1;" x1="180.4087" x2="180.4087" y1="383.0801" y2="403.0801"/><polygon fill="#181818" points="176.4087,393.0801,180.4087,403.0801,184.4087,393.0801,180.4087,397.0801" style="stroke:#181818;stroke-width:1;"/><line style="stroke:#181818;stroke-width:1;" x1="180.4087" x2="180.4087" y1="1197.2988" y2="1217.2988"/><polygon fill="#181818" points="176.4087,1207.2988,180.4087,1217.2988,184.4087,1207.2988,180.4087,1211.2988" style="stroke:#181818;stroke-width:1;"/><line style="stroke:#181818;stroke-width:1;" x1="180.4087" x2="180.4087" y1="1252.3926" y2="1272.3926"/><polygon fill="#181818" points="176.4087,1262.3926,180.4087,1272.3926,184.4087,1262.3926,180.4087,1266.3926" style="stroke:#181818;stroke-width:1;"/><line style="stroke:#181818;stroke-width:1;" x1="501.521" x2="501.521" y1="493.2676" y2="513.2676"/><polygon fill="#181818" points="497.521,503.2676,501.521,513.2676,505.521,503.2676,501.521,507.2676" style="stroke:#181818;stroke-width:1;"/><line style="stroke:#181818;stroke-width:1;" x1="422.9463" x2="422.9463" y1="637.4551" y2="657.4551"/><polygon fill="#181818" points="418.9463,647.4551,422.9463,657.4551,426.9463,647.4551,422.9463,651.4551" style="stroke:#181818;stroke-width:1;"/><line style="stroke:#181818;stroke-width:1;" x1="580.0957" x2="580.0957" y1="637.4551" y2="657.4551"/><polygon fill="#181818" points="576.0957,647.4551,580.0957,657.4551,584.0957,647.4551,580.0957,651.4551" style="stroke:#181818;stroke-width:1;"/><line style="stroke:#181818;stroke-width:1;" x1="464.9832" x2="422.9463" y1="580.3613" y2="580.3613"/><line style="stroke:#181818;stroke-width:1;" x1="422.9463" x2="422.9463" y1="580.3613" y2="602.3613"/><polygon fill="#181818" points="418.9463,592.3613,422.9463,602.3613,426.9463,592.3613,422.9463,596.3613" style="stroke:#181818;stroke-width:1;"/><line style="stroke:#181818;stroke-width:1;" x1="538.0588" x2="580.0957" y1="580.3613" y2="580.3613"/><line style="stroke:#181818;stroke-width:1;" x1="580.0957" x2="580.0957" y1="580.3613" y2="602.3613"/><polygon fill="#181818" points="576.0957,592.3613,580.0957,602.3613,584.0957,592.3613,580.0957,596.3613" style="stroke:#181818;stroke-width:1;"/><line style="stroke:#181818;stroke-width:1;" x1="422.9463" x2="422.9463" y1="692.5488" y2="697.5488"/><line style="stroke:#181818;stroke-width:1;" x1="422.9463" x2="738.4775" y1="697.5488" y2="697.5488"/><line style="stroke:#181818;stroke-width:1;" x1="738.4775" x2="738.4775" y1="697.5488" y2="712.5488"/><polygon fill="#181818" points="734.4775,702.5488,738.4775,712.5488,742.4775,702.5488,738.4775,706.5488" style="stroke:#181818;stroke-width:1;"/><line style="stroke:#181818;stroke-width:1;" x1="501.521" x2="501.521" y1="548.3613" y2="568.3613"/><polygon fill="#181818" points="497.521,558.3613,501.521,568.3613,505.521,558.3613,501.521,562.3613" style="stroke:#181818;stroke-width:1;"/><line style="stroke:#181818;stroke-width:1;" x1="738.4775" x2="738.4775" y1="747.6426" y2="767.6426"/><polygon fill="#181818" points="734.4775,757.6426,738.4775,767.6426,742.4775,757.6426,738.4775,761.6426" style="stroke:#181818;stroke-width:1;"/><line style="stroke:#181818;stroke-width:1;" x1="988.7231" x2="988.7231" y1="857.8301" y2="877.8301"/><polygon fill="#181818" points="984.7231,867.8301,988.7231,877.8301,992.7231,867.8301,988.7231,871.8301" style="stroke:#181818;stroke-width:1;"/><line style="stroke:#181818;stroke-width:1;" x1="988.7231" x2="988.7231" y1="912.9238" y2="932.9238"/><polygon fill="#181818" points="984.7231,922.9238,988.7231,932.9238,992.7231,922.9238,988.7231,926.9238" style="stroke:#181818;stroke-width:1;"/><line style="stroke:#181818;stroke-width:1;" x1="911.8623" x2="911.8623" y1="1057.1113" y2="1077.1113"/><polygon fill="#181818" points="907.8623,1067.1113,911.8623,1077.1113,915.8623,1067.1113,911.8623,1071.1113" style="stroke:#181818;stroke-width:1;"/><line style="stroke:#181818;stroke-width:1;" x1="947.9878" x2="911.8623" y1="1000.0176" y2="1000.0176"/><line style="stroke:#181818;stroke-width:1;" x1="911.8623" x2="911.8623" y1="1000.0176" y2="1022.0176"/><polygon fill="#181818" points="907.8623,1012.0176,911.8623,1022.0176,915.8623,1012.0176,911.8623,1016.0176" style="stroke:#181818;stroke-width:1;"/><line style="stroke:#181818;stroke-width:1;" x1="1029.4585" x2="1065.584" y1="1000.0176" y2="1000.0176"/><line style="stroke:#181818;stroke-width:1;" x1="1065.584" x2="1065.584" y1="1000.0176" y2="1022.0176"/><polygon fill="#181818" points="1061.584,1012.0176,1065.584,1022.0176,1069.584,1012.0176,1065.584,1016.0176" style="stroke:#181818;stroke-width:1;"/><line style="stroke:#181818;stroke-width:1;" x1="911.8623" x2="911.8623" y1="1112.2051" y2="1130.2051"/><line style="stroke:#181818;stroke-width:1;" x1="911.8623" x2="976.7231" y1="1130.2051" y2="1130.2051"/><polygon fill="#181818" points="966.7231,1126.2051,976.7231,1130.2051,966.7231,1134.2051,970.7231,1130.2051" style="stroke:#181818;stroke-width:1;"/><line style="stroke:#181818;stroke-width:1;" x1="1065.584" x2="1065.584" y1="1057.1113" y2="1130.2051"/><line style="stroke:#181818;stroke-width:1;" x1="1065.584" x2="1000.7231" y1="1130.2051" y2="1130.2051"/><polygon fill="#181818" points="1010.7231,1126.2051,1000.7231,1130.2051,1010.7231,1134.2051,1006.7231,1130.2051" style="stroke:#181818;stroke-width:1;"/><line style="stroke:#181818;stroke-width:1;" x1="988.7231" x2="988.7231" y1="968.0176" y2="988.0176"/><polygon fill="#181818" points="984.7231,978.0176,988.7231,988.0176,992.7231,978.0176,988.7231,982.0176" style="stroke:#181818;stroke-width:1;"/><line style="stroke:#181818;stroke-width:1;" x1="180.4087" x2="180.4087" y1="438.1738" y2="443.1738"/><line style="stroke:#181818;stroke-width:1;" x1="180.4087" x2="501.521" y1="443.1738" y2="443.1738"/><line style="stroke:#181818;stroke-width:1;" x1="501.521" x2="501.521" y1="443.1738" y2="458.1738"/><polygon fill="#181818" points="497.521,448.1738,501.521,458.1738,505.521,448.1738,501.521,452.1738" style="stroke:#181818;stroke-width:1;"/><line style="stroke:#181818;stroke-width:1;" x1="738.4775" x2="738.4775" y1="802.7363" y2="807.7363"/><line style="stroke:#181818;stroke-width:1;" x1="738.4775" x2="988.7231" y1="807.7363" y2="807.7363"/><line style="stroke:#181818;stroke-width:1;" x1="988.7231" x2="988.7231" y1="807.7363" y2="822.7363"/><polygon fill="#181818" points="984.7231,812.7363,988.7231,822.7363,992.7231,812.7363,988.7231,816.7363" style="stroke:#181818;stroke-width:1;"/><line style="stroke:#181818;stroke-width:1;" x1="988.7231" x2="988.7231" y1="1142.2051" y2="1147.2051"/><line style="stroke:#181818;stroke-width:1;" x1="988.7231" x2="180.4087" y1="1147.2051" y2="1147.2051"/><line style="stroke:#181818;stroke-width:1;" x1="180.4087" x2="180.4087" y1="1147.2051" y2="1162.2051"/><polygon fill="#181818" points="176.4087,1152.2051,180.4087,1162.2051,184.4087,1152.2051,180.4087,1156.2051" style="stroke:#181818;stroke-width:1;"/><text fill="#000000" font-family="sans-serif" font-size="18" lengthAdjust="spacing" textLength="125.0244" x="111.563" y="69.75">Chantier (Marc)</text><text fill="#000000" font-family="sans-serif" font-size="18" lengthAdjust="spacing" textLength="123.0469" x="423.7764" y="69.75">Bureau (Sylvie)</text><text fill="#000000" font-family="sans-serif" font-size="18" lengthAdjust="spacing" textLength="95.0361" x="689.9595" y="69.75">Fournisseur</text><text fill="#000000" font-family="sans-serif" font-size="18" lengthAdjust="spacing" textLength="141.0469" x="915.7041" y="69.75">D&#195;&#169;p&#195;&#180;t (&#195;&#8240;ric)</text><!--SRC=[TL8xRjj04ErvYe6BW2mC8QrO1DR7W80e4YGa_MftH8spt67s8zY0YW2-IBeaNGgV8Bw9Jv9PIZ4WEob8WCkPVTz8qI8iFMiC8GKOSzigPn0kOJmRlPz2kUWYjHGUxt__h8hYCDuf5mazb7FbTNKeGbG-5iEPGJdV4i860vE3LiMyumbjNGmNQUyHhheEvhmXWLmOvhgWBPGVVODE8xoh8ExG2MAYgW0OhhLoeDdWvKPvZm4wpoPHh0kq0Q7ymAwVMw7UePS7j8hASfDGHfoXRJ6ykk4K4LI2JZcXBLG-AKiYq60lj1PDe-HH9ihrdTqJYYQvKhX_PuhWEAkIYubTNZvgoZfF5q2vz7Gx62NJOAoEadg8FFbQr0bTZjw2jgJhVFZiEhezt-N5J3doIwLpDZtq05PuWp5YtWwHkvFSud3DoJiA0PC_aw7_8fJJLf4TJ2SpuJfS-WpMASdc3Knlk_nbg3Tbql-HrqE4yl7-wUilJ_hScrOQ87Km56JZ6DVgUZOHC4jXq2bxf2ZoNCn03vBxbvJxqrVZ934R9XDRzYt-rw-UfyRk64CkHsJz6QIO87- -WSJi_sdPcXedHC1If2Q7jUF8LVrisAi-lymUBYOKEhuG7QkUHCgc_137pXhUf_07]--></g></svg>