<svg xmlns="http://www.w3.org/2000/svg" xmlns:xlink="http://www.w3.org/1999/xlink" contentStyleType="text/css" height="577px" preserveAspectRatio="none" style="width:2691px;height:577px;background:#FFFFFF;" version="1.1" viewBox="0 0 2691 577" width="2691px" zoomAndPan="magnify"><title>Architecture Composants Systeme Gestion Operationnelle</title><defs/><g><text fill="#000000" font-family="sans-serif" font-size="14" font-weight="bold" lengthAdjust="spacing" textLength="390.5439" x="1143.2502" y="24.5332">Architecture Composants Systeme Gestion Operationnelle</text><!--cluster Frontend--><g id="cluster_Frontend"><path d="M296.5,44.6094 L358.1553,44.6094 A3.75,3.75 0 0 1 360.6553,47.1094 L367.6553,68.2188 L910.5,68.2188 A2.5,2.5 0 0 1 913,70.7188 L913,159.1094 A2.5,2.5 0 0 1 910.5,161.6094 L296.5,161.6094 A2.5,2.5 0 0 1 294,159.1094 L294,47.1094 A2.5,2.5 0 0 1 296.5,44.6094 " fill="none" style="stroke:#000000;stroke-width:1.5;"/><line style="stroke:#000000;stroke-width:1.5;" x1="294" x2="367.6553" y1="68.2188" y2="68.2188"/><text fill="#000000" font-family="sans-serif" font-size="14" font-weight="bold" lengthAdjust="spacing" textLength="60.6553" x="298" y="61.1426">Frontend</text></g><!--cluster Backend - Azure Cloud EU--><g id="cluster_Backend - Azure Cloud EU"><path d="M8.5,194.6094 L186.0791,194.6094 A3.75,3.75 0 0 1 188.5791,197.1094 L195.5791,218.2188 L2073.5,218.2188 A2.5,2.5 0 0 1 2076,220.7188 L2076,377.1094 A2.5,2.5 0 0 1 2073.5,379.6094 L8.5,379.6094 A2.5,2.5 0 0 1 6,377.1094 L6,197.1094 A2.5,2.5 0 0 1 8.5,194.6094 " fill="none" style="stroke:#000000;stroke-width:1.5;"/><line style="stroke:#000000;stroke-width:1.5;" x1="6" x2="195.5791" y1="218.2188" y2="218.2188"/><text fill="#000000" font-family="sans-serif" font-size="14" font-weight="bold" lengthAdjust="spacing" textLength="176.5791" x="10" y="211.1426">Backend - Azure Cloud EU</text></g><!--cluster Odoo ERP v17--><g id="cluster_Odoo ERP v17"><path d="M250.5,238.6094 L347.9688,238.6094 A3.75,3.75 0 0 1 350.4688,241.1094 L357.4688,262.2188 L1491.5,262.2188 A2.5,2.5 0 0 1 1494,264.7188 L1494,353.1094 A2.5,2.5 0 0 1 1491.5,355.6094 L250.5,355.6094 A2.5,2.5 0 0 1 248,353.1094 L248,241.1094 A2.5,2.5 0 0 1 250.5,238.6094 " fill="none" style="stroke:#000000;stroke-width:1.5;"/><line style="stroke:#000000;stroke-width:1.5;" x1="248" x2="357.4688" y1="262.2188" y2="262.2188"/><text fill="#000000" font-family="sans-serif" font-size="14" font-weight="bold" lengthAdjust="spacing" textLength="96.4688" x="252" y="255.1426">Odoo ERP v17</text></g><!--cluster BI & ML--><g id="cluster_BI &amp; ML"><path d="M1520.5,238.6094 L1573.6035,238.6094 A3.75,3.75 0 0 1 1576.1035,241.1094 L1583.1035,262.2188 L2049.5,262.2188 A2.5,2.5 0 0 1 2052,264.7188 L2052,353.1094 A2.5,2.5 0 0 1 2049.5,355.6094 L1520.5,355.6094 A2.5,2.5 0 0 1 1518,353.1094 L1518,241.1094 A2.5,2.5 0 0 1 1520.5,238.6094 " fill="none" style="stroke:#000000;stroke-width:1.5;"/><line style="stroke:#000000;stroke-width:1.5;" x1="1518" x2="1583.1035" y1="262.2188" y2="262.2188"/><text fill="#000000" font-family="sans-serif" font-size="14" font-weight="bold" lengthAdjust="spacing" textLength="52.1035" x="1522" y="255.1426">BI &amp; ML</text></g><!--cluster ETL--><g id="cluster_ETL"><path d="M32.5,247.1094 L59.9414,247.1094 A3.75,3.75 0 0 1 62.4414,249.6094 L69.4414,270.7188 L221.5,270.7188 A2.5,2.5 0 0 1 224,273.2188 L224,344.6094 A2.5,2.5 0 0 1 221.5,347.1094 L32.5,347.1094 A2.5,2.5 0 0 1 30,344.6094 L30,249.6094 A2.5,2.5 0 0 1 32.5,247.1094 " fill="none" style="stroke:#000000;stroke-width:1.5;"/><line style="stroke:#000000;stroke-width:1.5;" x1="30" x2="69.4414" y1="270.7188" y2="270.7188"/><text fill="#000000" font-family="sans-serif" font-size="14" font-weight="bold" lengthAdjust="spacing" textLength="26.4414" x="34" y="263.6426">ETL</text></g><!--cluster Donnees--><g id="cluster_Donnees"><path d="M573,439.6094 C573,429.6094 786,429.6094 786,429.6094 C786,429.6094 999,429.6094 999,439.6094 L999,550.6094 C999,560.6094 786,560.6094 786,560.6094 C786,560.6094 573,560.6094 573,550.6094 L573,439.6094 " fill="none" style="stroke:#181818;stroke-width:1;"/><path d="M573,439.6094 C573,449.6094 786,449.6094 786,449.6094 C786,449.6094 999,449.6094 999,439.6094 " fill="none" style="stroke:#181818;stroke-width:1;"/><text fill="#000000" font-family="sans-serif" font-size="14" font-weight="bold" lengthAdjust="spacing" textLength="59.124" x="756.438" y="466.1426">Donnees</text></g><!--cluster Integrations Externes--><g id="cluster_Integrations Externes"><path d="M1264.5,444.1094 L1408.6514,444.1094 A3.75,3.75 0 0 1 1411.1514,446.6094 L1418.1514,467.7188 L1910.5,467.7188 A2.5,2.5 0 0 1 1913,470.2188 L1913,558.6094 A2.5,2.5 0 0 1 1910.5,561.1094 L1264.5,561.1094 A2.5,2.5 0 0 1 1262,558.6094 L1262,446.6094 A2.5,2.5 0 0 1 1264.5,444.1094 " fill="none" style="stroke:#000000;stroke-width:1.5;"/><line style="stroke:#000000;stroke-width:1.5;" x1="1262" x2="1418.1514" y1="467.7188" y2="467.7188"/><text fill="#000000" font-family="sans-serif" font-size="14" font-weight="bold" lengthAdjust="spacing" textLength="143.1514" x="1266" y="460.6426">Integrations Externes</text></g><!--entity WebOdoo--><g id="elem_WebOdoo"><rect fill="#F1F1F1" height="65.2188" rx="2.5" ry="2.5" style="stroke:#181818;stroke-width:0.5;" width="124.0342" x="622" y="80.6094"/><rect fill="#F1F1F1" height="10" style="stroke:#181818;stroke-width:0.5;" width="15" x="726.0342" y="85.6094"/><rect fill="#F1F1F1" height="2" style="stroke:#181818;stroke-width:0.5;" width="4" x="724.0342" y="87.6094"/><rect fill="#F1F1F1" height="2" style="stroke:#181818;stroke-width:0.5;" width="4" x="724.0342" y="91.6094"/><text fill="#000000" font-family="sans-serif" font-size="14" lengthAdjust="spacing" textLength="84.0342" x="637" y="115.1426">Web Desktop</text><text fill="#000000" font-family="sans-serif" font-size="14" lengthAdjust="spacing" textLength="34.248" x="637" y="132.752">Odoo</text></g><!--entity MobileIOS--><g id="elem_MobileIOS"><rect fill="#F1F1F1" height="65.2188" rx="2.5" ry="2.5" style="stroke:#181818;stroke-width:0.5;" width="108.4688" x="310" y="80.6094"/><rect fill="#F1F1F1" height="10" style="stroke:#181818;stroke-width:0.5;" width="15" x="398.4688" y="85.6094"/><rect fill="#F1F1F1" height="2" style="stroke:#181818;stroke-width:0.5;" width="4" x="396.4688" y="87.6094"/><rect fill="#F1F1F1" height="2" style="stroke:#181818;stroke-width:0.5;" width="4" x="396.4688" y="91.6094"/><text fill="#000000" font-family="sans-serif" font-size="14" lengthAdjust="spacing" textLength="68.4688" x="325" y="115.1426">Mobile iOS</text><text fill="#000000" font-family="sans-serif" font-size="14" lengthAdjust="spacing" textLength="24.9102" x="325" y="132.752">App</text></g><!--entity MobileAndroid--><g id="elem_MobileAndroid"><rect fill="#F1F1F1" height="65.2188" rx="2.5" ry="2.5" style="stroke:#181818;stroke-width:0.5;" width="133.3857" x="453.5" y="80.6094"/><rect fill="#F1F1F1" height="10" style="stroke:#181818;stroke-width:0.5;" width="15" x="566.8857" y="85.6094"/><rect fill="#F1F1F1" height="2" style="stroke:#181818;stroke-width:0.5;" width="4" x="564.8857" y="87.6094"/><rect fill="#F1F1F1" height="2" style="stroke:#181818;stroke-width:0.5;" width="4" x="564.8857" y="91.6094"/><text fill="#000000" font-family="sans-serif" font-size="14" lengthAdjust="spacing" textLength="93.3857" x="468.5" y="115.1426">Mobile Android</text><text fill="#000000" font-family="sans-serif" font-size="14" lengthAdjust="spacing" textLength="24.9102" x="468.5" y="132.752">App</text></g><!--entity PowerBI--><g id="elem_PowerBI"><rect fill="#F1F1F1" height="65.2188" rx="2.5" ry="2.5" style="stroke:#181818;stroke-width:0.5;" width="115.4893" x="781.5" y="80.6094"/><rect fill="#F1F1F1" height="10" style="stroke:#181818;stroke-width:0.5;" width="15" x="876.9893" y="85.6094"/><rect fill="#F1F1F1" height="2" style="stroke:#181818;stroke-width:0.5;" width="4" x="874.9893" y="87.6094"/><rect fill="#F1F1F1" height="2" style="stroke:#181818;stroke-width:0.5;" width="4" x="874.9893" y="91.6094"/><text fill="#000000" font-family="sans-serif" font-size="14" lengthAdjust="spacing" textLength="56.7998" x="796.5" y="115.1426">Power BI</text><text fill="#000000" font-family="sans-serif" font-size="14" lengthAdjust="spacing" textLength="75.4893" x="796.5" y="132.752">Dashboards</text></g><!--entity Sales--><g id="elem_Sales"><rect fill="#F1F1F1" height="65.2188" rx="2.5" ry="2.5" style="stroke:#181818;stroke-width:0.5;" width="124.8271" x="264.5" y="274.6094"/><rect fill="#F1F1F1" height="10" style="stroke:#181818;stroke-width:0.5;" width="15" x="369.3271" y="279.6094"/><rect fill="#F1F1F1" height="2" style="stroke:#181818;stroke-width:0.5;" width="4" x="367.3271" y="281.6094"/><rect fill="#F1F1F1" height="2" style="stroke:#181818;stroke-width:0.5;" width="4" x="367.3271" y="285.6094"/><text fill="#000000" font-family="sans-serif" font-size="14" lengthAdjust="spacing" textLength="84.8271" x="279.5" y="309.1426">Module Sales</text><text fill="#000000" font-family="sans-serif" font-size="14" lengthAdjust="spacing" textLength="56.7861" x="279.5" y="326.752">(Affaires)</text></g><!--entity Purchase--><g id="elem_Purchase"><rect fill="#F1F1F1" height="65.2188" rx="2.5" ry="2.5" style="stroke:#181818;stroke-width:0.5;" width="148.9512" x="940.5" y="274.6094"/><rect fill="#F1F1F1" height="10" style="stroke:#181818;stroke-width:0.5;" width="15" x="1069.4512" y="279.6094"/><rect fill="#F1F1F1" height="2" style="stroke:#181818;stroke-width:0.5;" width="4" x="1067.4512" y="281.6094"/><rect fill="#F1F1F1" height="2" style="stroke:#181818;stroke-width:0.5;" width="4" x="1067.4512" y="285.6094"/><text fill="#000000" font-family="sans-serif" font-size="14" lengthAdjust="spacing" textLength="108.9512" x="955.5" y="309.1426">Module Purchase</text><text fill="#000000" font-family="sans-serif" font-size="14" lengthAdjust="spacing" textLength="52.124" x="955.5" y="326.752">(Achats)</text></g><!--entity Inventory--><g id="elem_Inventory"><rect fill="#F1F1F1" height="65.2188" rx="2.5" ry="2.5" style="stroke:#181818;stroke-width:0.5;" width="147.3926" x="424.5" y="274.6094"/><rect fill="#F1F1F1" height="10" style="stroke:#181818;stroke-width:0.5;" width="15" x="551.8926" y="279.6094"/><rect fill="#F1F1F1" height="2" style="stroke:#181818;stroke-width:0.5;" width="4" x="549.8926" y="281.6094"/><rect fill="#F1F1F1" height="2" style="stroke:#181818;stroke-width:0.5;" width="4" x="549.8926" y="285.6094"/><text fill="#000000" font-family="sans-serif" font-size="14" lengthAdjust="spacing" textLength="107.3926" x="439.5" y="309.1426">Module Inventory</text><text fill="#000000" font-family="sans-serif" font-size="14" lengthAdjust="spacing" textLength="51.3379" x="439.5" y="326.752">(Stocks)</text></g><!--entity Accounting--><g id="elem_Accounting"><rect fill="#F1F1F1" height="65.2188" rx="2.5" ry="2.5" style="stroke:#181818;stroke-width:0.5;" width="159.0752" x="1124.5" y="274.6094"/><rect fill="#F1F1F1" height="10" style="stroke:#181818;stroke-width:0.5;" width="15" x="1263.5752" y="279.6094"/><rect fill="#F1F1F1" height="2" style="stroke:#181818;stroke-width:0.5;" width="4" x="1261.5752" y="281.6094"/><rect fill="#F1F1F1" height="2" style="stroke:#181818;stroke-width:0.5;" width="4" x="1261.5752" y="285.6094"/><text fill="#000000" font-family="sans-serif" font-size="14" lengthAdjust="spacing" textLength="119.0752" x="1139.5" y="309.1426">Module Accounting</text><text fill="#000000" font-family="sans-serif" font-size="14" lengthAdjust="spacing" textLength="58.3447" x="1139.5" y="326.752">(Compta)</text></g><!--entity Project--><g id="elem_Project"><rect fill="#F1F1F1" height="65.2188" rx="2.5" ry="2.5" style="stroke:#181818;stroke-width:0.5;" width="133.3789" x="606.5" y="274.6094"/><rect fill="#F1F1F1" height="10" style="stroke:#181818;stroke-width:0.5;" width="15" x="719.8789" y="279.6094"/><rect fill="#F1F1F1" height="2" style="stroke:#181818;stroke-width:0.5;" width="4" x="717.8789" y="281.6094"/><rect fill="#F1F1F1" height="2" style="stroke:#181818;stroke-width:0.5;" width="4" x="717.8789" y="285.6094"/><text fill="#000000" font-family="sans-serif" font-size="14" lengthAdjust="spacing" textLength="93.3789" x="621.5" y="309.1426">Module Project</text><text fill="#000000" font-family="sans-serif" font-size="14" lengthAdjust="spacing" textLength="69.2412" x="621.5" y="326.752">(Chantiers)</text></g><!--entity BETickets--><g id="elem_BETickets"><rect fill="#F1F1F1" height="47.6094" rx="2.5" ry="2.5" style="stroke:#181818;stroke-width:0.5;" width="159.0273" x="1318.5" y="283.1094"/><rect fill="#F1F1F1" height="10" style="stroke:#181818;stroke-width:0.5;" width="15" x="1457.5273" y="288.1094"/><rect fill="#F1F1F1" height="2" style="stroke:#181818;stroke-width:0.5;" width="4" x="1455.5273" y="290.1094"/><rect fill="#F1F1F1" height="2" style="stroke:#181818;stroke-width:0.5;" width="4" x="1455.5273" y="294.1094"/><text fill="#000000" font-family="sans-serif" font-size="14" lengthAdjust="spacing" textLength="119.0273" x="1333.5" y="317.6426">Custom BE Tickets</text></g><!--entity RBAC--><g id="elem_RBAC"><rect fill="#F1F1F1" height="47.6094" rx="2.5" ry="2.5" style="stroke:#181818;stroke-width:0.5;" width="131.0205" x="774.5" y="283.1094"/><rect fill="#F1F1F1" height="10" style="stroke:#181818;stroke-width:0.5;" width="15" x="885.5205" y="288.1094"/><rect fill="#F1F1F1" height="2" style="stroke:#181818;stroke-width:0.5;" width="4" x="883.5205" y="290.1094"/><rect fill="#F1F1F1" height="2" style="stroke:#181818;stroke-width:0.5;" width="4" x="883.5205" y="294.1094"/><text fill="#000000" font-family="sans-serif" font-size="14" lengthAdjust="spacing" textLength="91.0205" x="789.5" y="317.6426">Custom RBAC</text></g><!--entity PBIService--><g id="elem_PBIService"><rect fill="#F1F1F1" height="47.6094" rx="2.5" ry="2.5" style="stroke:#181818;stroke-width:0.5;" width="147.3721" x="1710.5" y="283.1094"/><rect fill="#F1F1F1" height="10" style="stroke:#181818;stroke-width:0.5;" width="15" x="1837.8721" y="288.1094"/><rect fill="#F1F1F1" height="2" style="stroke:#181818;stroke-width:0.5;" width="4" x="1835.8721" y="290.1094"/><rect fill="#F1F1F1" height="2" style="stroke:#181818;stroke-width:0.5;" width="4" x="1835.8721" y="294.1094"/><text fill="#000000" font-family="sans-serif" font-size="14" lengthAdjust="spacing" textLength="107.3721" x="1725.5" y="317.6426">Power BI Service</text></g><!--entity MLStudio--><g id="elem_MLStudio"><rect fill="#F1F1F1" height="47.6094" rx="2.5" ry="2.5" style="stroke:#181818;stroke-width:0.5;" width="143.4961" x="1892.5" y="283.1094"/><rect fill="#F1F1F1" height="10" style="stroke:#181818;stroke-width:0.5;" width="15" x="2015.9961" y="288.1094"/><rect fill="#F1F1F1" height="2" style="stroke:#181818;stroke-width:0.5;" width="4" x="2013.9961" y="290.1094"/><rect fill="#F1F1F1" height="2" style="stroke:#181818;stroke-width:0.5;" width="4" x="2013.9961" y="294.1094"/><text fill="#000000" font-family="sans-serif" font-size="14" lengthAdjust="spacing" textLength="103.4961" x="1907.5" y="317.6426">Azure ML Studio</text></g><!--entity MLFunctions--><g id="elem_MLFunctions"><rect fill="#F1F1F1" height="65.2188" rx="2.5" ry="2.5" style="stroke:#181818;stroke-width:0.5;" width="141.1582" x="1534.5" y="274.6094"/><rect fill="#F1F1F1" height="10" style="stroke:#181818;stroke-width:0.5;" width="15" x="1655.6582" y="279.6094"/><rect fill="#F1F1F1" height="2" style="stroke:#181818;stroke-width:0.5;" width="4" x="1653.6582" y="281.6094"/><rect fill="#F1F1F1" height="2" style="stroke:#181818;stroke-width:0.5;" width="4" x="1653.6582" y="285.6094"/><text fill="#000000" font-family="sans-serif" font-size="14" lengthAdjust="spacing" textLength="101.1582" x="1549.5" y="309.1426">Azure Functions</text><text fill="#000000" font-family="sans-serif" font-size="14" lengthAdjust="spacing" textLength="91.0342" x="1549.5" y="326.752">(ML Inference)</text></g><!--entity ADF--><g id="elem_ADF"><rect fill="#F1F1F1" height="47.6094" rx="2.5" ry="2.5" style="stroke:#181818;stroke-width:0.5;" width="160.5996" x="46.5" y="283.1094"/><rect fill="#F1F1F1" height="10" style="stroke:#181818;stroke-width:0.5;" width="15" x="187.0996" y="288.1094"/><rect fill="#F1F1F1" height="2" style="stroke:#181818;stroke-width:0.5;" width="4" x="185.0996" y="290.1094"/><rect fill="#F1F1F1" height="2" style="stroke:#181818;stroke-width:0.5;" width="4" x="185.0996" y="294.1094"/><text fill="#000000" font-family="sans-serif" font-size="14" lengthAdjust="spacing" textLength="120.5996" x="61.5" y="317.6426">Azure Data Factory</text></g><!--entity Postgres--><g id="elem_Postgres"><path d="M589,490.6094 C589,480.6094 637.1309,480.6094 637.1309,480.6094 C637.1309,480.6094 685.2617,480.6094 685.2617,490.6094 L685.2617,534.8281 C685.2617,544.8281 637.1309,544.8281 637.1309,544.8281 C637.1309,544.8281 589,544.8281 589,534.8281 L589,490.6094 " fill="#F1F1F1" style="stroke:#181818;stroke-width:0.5;"/><path d="M589,490.6094 C589,500.6094 637.1309,500.6094 637.1309,500.6094 C637.1309,500.6094 685.2617,500.6094 685.2617,490.6094 " fill="none" style="stroke:#181818;stroke-width:0.5;"/><text fill="#000000" font-family="sans-serif" font-size="14" lengthAdjust="spacing" textLength="76.2617" x="599" y="519.1426">PostgreSQL</text><text fill="#000000" font-family="sans-serif" font-size="14" lengthAdjust="spacing" textLength="66.9102" x="599" y="536.752">(Odoo DB)</text></g><!--entity SQLDWH--><g id="elem_SQLDWH"><path d="M720,490.6094 C720,480.6094 787.1895,480.6094 787.1895,480.6094 C787.1895,480.6094 854.3789,480.6094 854.3789,490.6094 L854.3789,534.8281 C854.3789,544.8281 787.1895,544.8281 787.1895,544.8281 C787.1895,544.8281 720,544.8281 720,534.8281 L720,490.6094 " fill="#F1F1F1" style="stroke:#181818;stroke-width:0.5;"/><path d="M720,490.6094 C720,500.6094 787.1895,500.6094 787.1895,500.6094 C787.1895,500.6094 854.3789,500.6094 854.3789,490.6094 " fill="none" style="stroke:#181818;stroke-width:0.5;"/><text fill="#000000" font-family="sans-serif" font-size="14" lengthAdjust="spacing" textLength="105.7998" x="730" y="519.1426">Azure SQL DWH</text><text fill="#000000" font-family="sans-serif" font-size="14" lengthAdjust="spacing" textLength="114.3789" x="730" y="536.752">(Data Warehouse)</text></g><!--entity Blob--><g id="elem_Blob"><path d="M889.5,490.6094 C889.5,480.6094 936.0723,480.6094 936.0723,480.6094 C936.0723,480.6094 982.6445,480.6094 982.6445,490.6094 L982.6445,534.8281 C982.6445,544.8281 936.0723,544.8281 936.0723,544.8281 C936.0723,544.8281 889.5,544.8281 889.5,534.8281 L889.5,490.6094 " fill="#F1F1F1" style="stroke:#181818;stroke-width:0.5;"/><path d="M889.5,490.6094 C889.5,500.6094 936.0723,500.6094 936.0723,500.6094 C936.0723,500.6094 982.6445,500.6094 982.6445,490.6094 " fill="none" style="stroke:#181818;stroke-width:0.5;"/><text fill="#000000" font-family="sans-serif" font-size="14" lengthAdjust="spacing" textLength="68.4824" x="899.5" y="519.1426">Azure Blob</text><text fill="#000000" font-family="sans-serif" font-size="14" lengthAdjust="spacing" textLength="73.1445" x="899.5" y="536.752">(Data Lake)</text></g><!--entity SAGE--><g id="elem_SAGE"><rect fill="#F1F1F1" height="65.2188" rx="2.5" ry="2.5" style="stroke:#181818;stroke-width:0.5;" width="131.8135" x="1429" y="480.1094"/><rect fill="#F1F1F1" height="10" style="stroke:#181818;stroke-width:0.5;" width="15" x="1540.8135" y="485.1094"/><rect fill="#F1F1F1" height="2" style="stroke:#181818;stroke-width:0.5;" width="4" x="1538.8135" y="487.1094"/><rect fill="#F1F1F1" height="2" style="stroke:#181818;stroke-width:0.5;" width="4" x="1538.8135" y="491.1094"/><text fill="#000000" font-family="sans-serif" font-size="14" lengthAdjust="spacing" textLength="91.8135" x="1444" y="514.6426">SAGE Compta</text><text fill="#000000" font-family="sans-serif" font-size="14" lengthAdjust="spacing" textLength="64.5654" x="1444" y="532.252">(API CSV)</text></g><!--entity Lireco--><g id="elem_Lireco"><rect fill="#F1F1F1" height="65.2188" rx="2.5" ry="2.5" style="stroke:#181818;stroke-width:0.5;" width="114.6826" x="1278.5" y="480.1094"/><rect fill="#F1F1F1" height="10" style="stroke:#181818;stroke-width:0.5;" width="15" x="1373.1826" y="485.1094"/><rect fill="#F1F1F1" height="2" style="stroke:#181818;stroke-width:0.5;" width="4" x="1371.1826" y="487.1094"/><rect fill="#F1F1F1" height="2" style="stroke:#181818;stroke-width:0.5;" width="4" x="1371.1826" y="491.1094"/><text fill="#000000" font-family="sans-serif" font-size="14" lengthAdjust="spacing" textLength="74.6826" x="1293.5" y="514.6426">Lireco RFID</text><text fill="#000000" font-family="sans-serif" font-size="14" lengthAdjust="spacing" textLength="73.1172" x="1293.5" y="532.252">(API REST)</text></g><!--entity Linear--><g id="elem_Linear"><rect fill="#F1F1F1" height="65.2188" rx="2.5" ry="2.5" style="stroke:#181818;stroke-width:0.5;" width="127.1445" x="1769.5" y="480.1094"/><rect fill="#F1F1F1" height="10" style="stroke:#181818;stroke-width:0.5;" width="15" x="1876.6445" y="485.1094"/><rect fill="#F1F1F1" height="2" style="stroke:#181818;stroke-width:0.5;" width="4" x="1874.6445" y="487.1094"/><rect fill="#F1F1F1" height="2" style="stroke:#181818;stroke-width:0.5;" width="4" x="1874.6445" y="491.1094"/><text fill="#000000" font-family="sans-serif" font-size="14" lengthAdjust="spacing" textLength="87.1445" x="1784.5" y="514.6426">Linear Tickets</text><text fill="#000000" font-family="sans-serif" font-size="14" lengthAdjust="spacing" textLength="75.4688" x="1784.5" y="532.252">(Webhooks)</text></g><!--entity SendGrid--><g id="elem_SendGrid"><rect fill="#F1F1F1" height="65.2188" rx="2.5" ry="2.5" style="stroke:#181818;stroke-width:0.5;" width="138.041" x="1596" y="480.1094"/><rect fill="#F1F1F1" height="10" style="stroke:#181818;stroke-width:0.5;" width="15" x="1714.041" y="485.1094"/><rect fill="#F1F1F1" height="2" style="stroke:#181818;stroke-width:0.5;" width="4" x="1712.041" y="487.1094"/><rect fill="#F1F1F1" height="2" style="stroke:#181818;stroke-width:0.5;" width="4" x="1712.041" y="491.1094"/><text fill="#000000" font-family="sans-serif" font-size="14" lengthAdjust="spacing" textLength="98.041" x="1611" y="514.6426">SendGrid Email</text><text fill="#000000" font-family="sans-serif" font-size="14" lengthAdjust="spacing" textLength="85.5791" x="1611" y="532.252">(Notifications)</text></g><g id="elem_GMN63"><path d="M2092,269.6094 L2092,345.0156 L2279.8989,345.0156 L2279.8989,279.6094 L2269.8989,269.6094 L2092,269.6094 " fill="#FEFFDD" style="stroke:#181818;stroke-width:0.5;"/><path d="M2269.8989,269.6094 L2269.8989,279.6094 L2279.8989,279.6094 L2269.8989,269.6094 " fill="#FEFFDD" style="stroke:#181818;stroke-width:1;"/><text fill="#000000" font-family="sans-serif" font-size="13" lengthAdjust="spacing" textLength="77.3208" x="2098" y="288.1045">Open-Source</text><text fill="#000000" font-family="sans-serif" font-size="13" lengthAdjust="spacing" textLength="126.1025" x="2098" y="304.4561">Python + PostgreSQL</text><text fill="#000000" font-family="sans-serif" font-size="13" lengthAdjust="spacing" textLength="110.5381" x="2098" y="320.8076">REST APIs natives</text><text fill="#000000" font-family="sans-serif" font-size="13" lengthAdjust="spacing" textLength="166.8989" x="2098" y="337.1592">Extensible (custom modules)</text></g><g id="elem_GMN66"><path d="M2539.5,269.6094 L2539.5,345.0156 L2684.0444,345.0156 L2684.0444,279.6094 L2674.0444,269.6094 L2539.5,269.6094 " fill="#FEFFDD" style="stroke:#181818;stroke-width:0.5;"/><path d="M2674.0444,269.6094 L2674.0444,279.6094 L2684.0444,279.6094 L2674.0444,269.6094 " fill="#FEFFDD" style="stroke:#181818;stroke-width:1;"/><text fill="#000000" font-family="sans-serif" font-size="13" lengthAdjust="spacing" textLength="61.4199" x="2545.5" y="288.1045">ETL Cloud</text><text fill="#000000" font-family="sans-serif" font-size="13" lengthAdjust="spacing" textLength="115.6353" x="2545.5" y="304.4561">Pipelines quotidiens</text><text fill="#000000" font-family="sans-serif" font-size="13" lengthAdjust="spacing" textLength="123.5444" x="2545.5" y="320.8076">Transformations SQL</text><text fill="#000000" font-family="sans-serif" font-size="13" lengthAdjust="spacing" textLength="104.0571" x="2545.5" y="337.1592">Monitoring integre</text></g><g id="elem_GMN69"><path d="M2315.5,277.6094 L2315.5,336.6641 L2504.1099,336.6641 L2504.1099,287.6094 L2494.1099,277.6094 L2315.5,277.6094 " fill="#FEFFDD" style="stroke:#181818;stroke-width:0.5;"/><path d="M2494.1099,277.6094 L2494.1099,287.6094 L2504.1099,287.6094 L2494.1099,277.6094 " fill="#FEFFDD" style="stroke:#181818;stroke-width:1;"/><text fill="#000000" font-family="sans-serif" font-size="13" lengthAdjust="spacing" textLength="167.6099" x="2321.5" y="296.1045">Serverless (Azure Functions)</text><text fill="#000000" font-family="sans-serif" font-size="13" lengthAdjust="spacing" textLength="118.4917" x="2321.5" y="312.4561">Python models (.pkl)</text><text fill="#000000" font-family="sans-serif" font-size="13" lengthAdjust="spacing" textLength="71.5381" x="2321.5" y="328.8076">Auto-scaling</text></g><!--link WebOdoo to Sales--><g id="link_WebOdoo_Sales"><path d="M646.8,145.8894 C634.02,155.1094 619.11,164.1594 604,169.6094 C583.33,177.0694 425.92,175.4394 407,186.6094 C373.57,206.3494 353.6499,240.7046 341.2599,268.9546 " fill="none" id="WebOdoo-to-Sales" style="stroke:#181818;stroke-width:1;"/><polygon fill="#181818" points="338.85,274.4494,346.128,267.8139,340.8583,269.8704,338.8017,264.6006,338.85,274.4494" style="stroke:#181818;stroke-width:1;"/></g><!--link WebOdoo to Purchase--><g id="link_WebOdoo_Purchase"><path d="M721.27,145.6994 C734.05,154.9194 748.95,164.0094 764,169.6094 C830.6,194.4094 861,151.8794 923,186.6094 C958.52,206.5094 981.9846,241.037 997.1746,269.237 " fill="none" id="WebOdoo-to-Purchase" style="stroke:#181818;stroke-width:1;"/><polygon fill="#181818" points="1000.02,274.5194,999.2735,264.6988,997.6488,270.1174,992.2303,268.4927,1000.02,274.5194" style="stroke:#181818;stroke-width:1;"/></g><!--link WebOdoo to Inventory--><g id="link_WebOdoo_Inventory"><path d="M637.5,145.7094 C621.37,157.6594 603.66,171.9294 589,186.6094 C561.82,213.8194 539.1333,244.3943 521.9133,269.6143 " fill="none" id="WebOdoo-to-Inventory" style="stroke:#181818;stroke-width:1;"/><polygon fill="#181818" points="518.53,274.5694,526.9084,269.3922,521.3494,270.4401,520.3016,264.8812,518.53,274.5694" style="stroke:#181818;stroke-width:1;"/></g><!--link WebOdoo to Accounting--><g id="link_WebOdoo_Accounting"><path d="M720.28,145.6294 C733.23,155.0794 748.48,164.3294 764,169.6094 C800.12,181.8994 1072.97,169.3494 1107,186.6094 C1144.3,205.5194 1169.2973,240.7406 1185.3873,269.3306 " fill="none" id="WebOdoo-to-Accounting" style="stroke:#181818;stroke-width:1;"/><polygon fill="#181818" points="1188.33,274.5594,1187.4018,264.7544,1185.8778,270.202,1180.4301,268.6779,1188.33,274.5594" style="stroke:#181818;stroke-width:1;"/></g><!--link WebOdoo to Project--><g id="link_WebOdoo_Project"><path d="M682.18,145.8094 C680.15,181.3894 677.2033,232.7692 675.1633,268.3692 " fill="none" id="WebOdoo-to-Project" style="stroke:#181818;stroke-width:1;"/><polygon fill="#181818" points="674.82,274.3594,679.3283,265.603,675.106,269.3676,671.3414,265.1453,674.82,274.3594" style="stroke:#181818;stroke-width:1;"/></g><!--link WebOdoo to BETickets--><g id="link_WebOdoo_BETickets"><path d="M720.22,145.8294 C733.16,155.2994 748.42,164.4994 764,169.6094 C820.73,188.1994 1247.6,159.9294 1301,186.6094 C1342.35,207.2694 1369.3236,249.2656 1384.2736,277.7756 " fill="none" id="WebOdoo-to-BETickets" style="stroke:#181818;stroke-width:1;"/><polygon fill="#181818" points="1387.06,283.0894,1386.4229,273.2611,1384.738,278.6613,1379.3379,276.9764,1387.06,283.0894" style="stroke:#181818;stroke-width:1;"/></g><!--link WebOdoo to RBAC--><g id="link_WebOdoo_RBAC"><path d="M718.39,145.7394 C731.05,158.0194 745.18,172.5094 757,186.6094 C783.46,218.1594 806.6579,252.9116 822.3579,277.6816 " fill="none" id="WebOdoo-to-RBAC" style="stroke:#181818;stroke-width:1;"/><polygon fill="#181818" points="825.57,282.7494,824.1303,273.0063,822.8932,278.5262,817.3733,277.2891,825.57,282.7494" style="stroke:#181818;stroke-width:1;"/></g><!--link MobileIOS to Sales--><g id="link_MobileIOS_Sales"><path d="M357.89,145.8094 C351.03,181.3894 341.1153,232.8678 334.2553,268.4678 " fill="none" id="MobileIOS-to-Sales" style="stroke:#181818;stroke-width:1;"/><polygon fill="#181818" points="333.12,274.3594,338.7507,266.2788,334.0661,269.4497,330.8952,264.7651,333.12,274.3594" style="stroke:#181818;stroke-width:1;"/></g><!--link MobileIOS to Inventory--><g id="link_MobileIOS_Inventory"><path d="M386.13,145.8094 C410.96,181.3894 447.5667,233.8388 472.4067,269.4388 " fill="none" id="MobileIOS-to-Inventory" style="stroke:#181818;stroke-width:1;"/><polygon fill="#181818" points="475.84,274.3594,473.9704,264.6896,472.9789,270.2589,467.4096,269.2674,475.84,274.3594" style="stroke:#181818;stroke-width:1;"/></g><!--link MobileAndroid to Sales--><g id="link_MobileAndroid_Sales"><path d="M472.08,145.7894 C460.02,153.6494 447.08,161.9994 435,169.6094 C422.68,177.3694 417.52,176.5494 407,186.6094 C380.12,212.3294 360.3323,243.338 346.0623,269.158 " fill="none" id="MobileAndroid-to-Sales" style="stroke:#181818;stroke-width:1;"/><polygon fill="#181818" points="343.16,274.4094,351.0143,268.4672,345.5786,270.0332,344.0125,264.5975,343.16,274.4094" style="stroke:#181818;stroke-width:1;"/></g><!--link MobileAndroid to Inventory--><g id="link_MobileAndroid_Inventory"><path d="M516.37,145.8094 C512.29,181.3894 506.4032,232.7984 502.3232,268.3984 " fill="none" id="MobileAndroid-to-Inventory" style="stroke:#181818;stroke-width:1;"/><polygon fill="#181818" points="501.64,274.3594,506.6387,265.8734,502.2093,269.3919,498.6908,264.9625,501.64,274.3594" style="stroke:#181818;stroke-width:1;"/></g><!--link PowerBI to PBIService--><g id="link_PowerBI_PBIService"><path d="M896.67,116.2994 C1077.19,123.5494 1623.47,148.4194 1693,186.6094 C1732.31,208.2094 1757.235,249.3439 1771.085,277.5439 " fill="none" id="PowerBI-to-PBIService" style="stroke:#181818;stroke-width:1;"/><polygon fill="#181818" points="1773.73,282.9294,1773.3528,273.0877,1771.5258,278.4414,1766.1721,276.6144,1773.73,282.9294" style="stroke:#181818;stroke-width:1;"/></g><!--link PBIService to SQLDWH--><g id="link_PBIService_SQLDWH"><path d="M1765.53,331.4694 C1748.88,350.5394 1722.53,376.1394 1693,387.6094 C1656.74,401.6894 1381.08,387.6694 1343,395.6094 C1322.32,399.9194 1319.69,409.3394 1299,413.6094 C1275.76,418.4094 893.7,412.0094 872,421.6094 C844.48,433.7794 825.1495,454.6828 810.0995,475.5528 " fill="none" id="PBIService-to-SQLDWH" style="stroke:#181818;stroke-width:1;"/><polygon fill="#181818" points="806.59,480.4194,815.0986,475.4591,809.5145,476.3639,808.6098,470.7798,806.59,480.4194" style="stroke:#181818;stroke-width:1;"/></g><!--link Sales to Postgres--><g id="link_Sales_Postgres"><path d="M354.77,339.7294 C369.37,355.2694 388.13,373.6094 407,387.6094 C465.29,430.8594 535.1061,465.9884 583.3661,488.1184 " fill="none" id="Sales-to-Postgres" style="stroke:#181818;stroke-width:1;"/><polygon fill="#181818" points="588.82,490.6194,582.3064,483.232,584.2751,488.5353,578.9718,490.5039,588.82,490.6194" style="stroke:#181818;stroke-width:1;"/></g><!--link Purchase to Postgres--><g id="link_Purchase_Postgres"><path d="M988.65,339.6594 C971.88,357.2694 948.56,377.6194 923,387.6094 C897.84,397.4494 701.92,379.8194 680,395.6094 C653.08,415.0094 643.8117,447.2959 640.0417,474.5659 " fill="none" id="Purchase-to-Postgres" style="stroke:#181818;stroke-width:1;"/><polygon fill="#181818" points="639.22,480.5094,644.4148,472.1419,639.9047,475.5565,636.4902,471.0464,639.22,480.5094" style="stroke:#181818;stroke-width:1;"/></g><!--link Inventory to Postgres--><g id="link_Inventory_Postgres"><path d="M485.57,339.9694 C479.11,361.9294 474.82,391.0994 487,413.6094 C508.47,453.2794 548.2334,477.0666 583.4534,492.3066 " fill="none" id="Inventory-to-Postgres" style="stroke:#181818;stroke-width:1;"/><polygon fill="#181818" points="588.96,494.6894,582.2886,487.4442,584.3712,492.7038,579.1116,494.7863,588.96,494.6894" style="stroke:#181818;stroke-width:1;"/></g><!--link Accounting to Postgres--><g id="link_Accounting_Postgres"><path d="M1175.93,339.7994 C1158.15,357.4594 1133.55,377.8094 1107,387.6094 C1066.76,402.4694 759,375.7094 721,395.6094 C686.64,413.5994 665.5392,447.322 652.2892,475.152 " fill="none" id="Accounting-to-Postgres" style="stroke:#181818;stroke-width:1;"/><polygon fill="#181818" points="649.71,480.5694,657.1904,474.1628,651.8594,476.0549,649.9673,470.7239,649.71,480.5694" style="stroke:#181818;stroke-width:1;"/></g><!--link Project to Postgres--><g id="link_Project_Postgres"><path d="M636.28,339.6694 C621.38,354.8694 605.84,374.4094 598,395.6094 C587.46,424.1094 597.8022,451.797 611.6922,475.247 " fill="none" id="Project-to-Postgres" style="stroke:#181818;stroke-width:1;"/><polygon fill="#181818" points="614.75,480.4094,613.6049,470.6273,612.2018,476.1074,606.7217,474.7044,614.75,480.4094" style="stroke:#181818;stroke-width:1;"/></g><!--link BETickets to Postgres--><g id="link_BETickets_Postgres"><path d="M1378.36,331.1594 C1360.44,350.3094 1332.07,376.1994 1301,387.6094 C1253.64,405.0094 896.42,385.4394 847,395.6094 C826.31,399.8694 823.55,408.7094 803,413.6094 C781.31,418.7794 722.47,410.7494 703,421.6094 C679.65,434.6394 665.1546,454.492 654.1146,474.902 " fill="none" id="BETickets-to-Postgres" style="stroke:#181818;stroke-width:1;"/><polygon fill="#181818" points="651.26,480.1794,659.0602,474.1663,653.6388,475.7815,652.0236,470.3602,651.26,480.1794" style="stroke:#181818;stroke-width:1;"/></g><!--link RBAC to Postgres--><g id="link_RBAC_Postgres"><path d="M823.48,331.1194 C808.49,349.9694 784.56,375.4394 757,387.6094 C744.98,392.9194 648.05,386.0894 639,395.6094 C617.97,417.7194 619.7701,448.4455 625.8601,474.6155 " fill="none" id="RBAC-to-Postgres" style="stroke:#181818;stroke-width:1;"/><polygon fill="#181818" points="627.22,480.4594,629.076,470.787,626.0867,475.5895,621.2842,472.6002,627.22,480.4594" style="stroke:#181818;stroke-width:1;"/></g><!--link ADF to Postgres--><g id="link_ADF_Postgres"><path d="M156.96,331.1394 C180.65,348.4994 215.1,371.9194 248,387.6094 C365.09,443.4394 507.7236,481.4177 582.8736,499.3377 " fill="none" id="ADF-to-Postgres" style="stroke:#181818;stroke-width:1;"/><polygon fill="#181818" points="588.71,500.7294,580.8833,494.7509,583.8464,499.5696,579.0276,502.5327,588.71,500.7294" style="stroke:#181818;stroke-width:1;"/><text fill="#000000" font-family="sans-serif" font-size="13" lengthAdjust="spacing" textLength="40.4536" x="300" y="410.1045">Extract</text></g><!--link ADF to SAGE--><g id="link_ADF_SAGE"><path d="M152.59,331.2894 C175.65,350.5194 211.46,376.4494 248,387.6094 C285.36,399.0194 913.27,385.4994 951,395.6094 C966.76,399.8294 967.25,409.3294 983,413.6094 C1028.9,426.0894 1367.56,402.2494 1411,421.6094 C1438.14,433.6994 1457.0846,454.3155 1471.9146,475.0955 " fill="none" id="ADF-to-SAGE" style="stroke:#181818;stroke-width:1;"/><polygon fill="#181818" points="1475.4,479.9794,1473.4277,470.33,1472.4955,475.9095,1466.916,474.9772,1475.4,479.9794" style="stroke:#181818;stroke-width:1;"/><text fill="#000000" font-family="sans-serif" font-size="13" lengthAdjust="spacing" textLength="70.7954" x="984" y="410.1045">Extract CSV</text></g><!--link ADF to Lireco--><g id="link_ADF_Lireco"><path d="M152.6,331.2694 C175.66,350.4894 211.47,376.4194 248,387.6094 C311.32,407.0094 779.65,379.9594 844,395.6094 C861.38,399.8394 862.74,408.9194 880,413.6094 C931.15,427.5094 946.7,412.9494 999,421.6094 C1098.77,438.1294 1206.0618,469.5721 1272.5818,490.7121 " fill="none" id="ADF-to-Lireco" style="stroke:#181818;stroke-width:1;"/><polygon fill="#181818" points="1278.3,492.5294,1270.9342,485.9914,1273.5348,491.015,1268.5112,493.6156,1278.3,492.5294" style="stroke:#181818;stroke-width:1;"/><text fill="#000000" font-family="sans-serif" font-size="13" lengthAdjust="spacing" textLength="65.019" x="881" y="410.1045">Extract API</text></g><!--link ADF to SQLDWH--><g id="link_ADF_SQLDWH"><path d="M153.7,331.4694 C176.9,350.2594 212.31,375.4694 248,387.6094 C254,389.6494 697.29,418.8694 703,421.6094 C729.79,434.4594 748.7229,455.0355 763.6629,475.5955 " fill="none" id="ADF-to-SQLDWH" style="stroke:#181818;stroke-width:1;"/><polygon fill="#181818" points="767.19,480.4494,765.1353,470.8172,764.2508,476.4045,758.6635,475.52,767.19,480.4494" style="stroke:#181818;stroke-width:1;"/><text fill="#000000" font-family="sans-serif" font-size="13" lengthAdjust="spacing" textLength="28.9199" x="604" y="410.1045">Load</text></g><!--link ADF to Blob--><g id="link_ADF_Blob"><path d="M152.62,331.2094 C175.69,350.3894 211.51,376.2894 248,387.6094 C289.71,400.5494 597.43,392.6294 641,395.6094 C709.75,400.3194 726.51,406.0494 795,413.6094 C812.1,415.4994 857.14,412.9394 872,421.6094 C894.85,434.9394 908.8867,454.734 919.5267,475.054 " fill="none" id="ADF-to-Blob" style="stroke:#181818;stroke-width:1;"/><polygon fill="#181818" points="922.31,480.3694,921.6787,470.5408,919.9906,475.9399,914.5915,474.2518,922.31,480.3694" style="stroke:#181818;stroke-width:1;"/><text fill="#000000" font-family="sans-serif" font-size="13" lengthAdjust="spacing" textLength="43.3481" x="796" y="410.1045">Archive</text></g><!--link MLStudio to Blob--><g id="link_MLStudio_Blob"><path d="M1946.39,331.1394 C1930.21,350.2694 1904.33,376.1494 1875,387.6094 C1822.94,407.9494 1425.96,381.0194 1372,395.6094 C1356.25,399.8694 1355.55,408.6694 1340,413.6094 C1306.78,424.1494 1296.25,415.1694 1262,421.6094 C1160.87,440.6194 1051.1391,473.9339 988.3691,494.2239 " fill="none" id="MLStudio-to-Blob" style="stroke:#181818;stroke-width:1;"/><polygon fill="#181818" points="982.66,496.0694,992.454,497.1073,987.4176,494.5315,989.9934,489.4951,982.66,496.0694" style="stroke:#181818;stroke-width:1;"/><text fill="#000000" font-family="sans-serif" font-size="13" lengthAdjust="spacing" textLength="75.1372" x="1373" y="410.1045">Train Models</text></g><!--link MLFunctions to SQLDWH--><g id="link_MLFunctions_SQLDWH"><path d="M1572.05,339.8594 C1551.41,357.5394 1523.24,377.8894 1494,387.6094 C1452.34,401.4594 1141.62,385.0894 1099,395.6094 C1081.63,399.8994 1080.32,409.1394 1063,413.6094 C1021.87,424.2294 910.65,403.9794 872,421.6094 C844.82,434.0094 825.6371,454.6228 810.5371,475.3128 " fill="none" id="MLFunctions-to-SQLDWH" style="stroke:#181818;stroke-width:1;"/><polygon fill="#181818" points="807,480.1594,815.5367,475.2476,809.9476,476.1206,809.0746,470.5315,807,480.1594" style="stroke:#181818;stroke-width:1;"/><text fill="#000000" font-family="sans-serif" font-size="13" lengthAdjust="spacing" textLength="54.2026" x="1100" y="410.1045">Inference</text></g><!--link MLFunctions to SQLDWH--><g id="link_MLFunctions_SQLDWH"><path d="M1572.03,339.7994 C1551.38,357.4494 1523.21,377.7994 1494,387.6094 C1462.5,398.1894 1227.24,387.5394 1195,395.6094 C1177.65,399.9494 1176.35,409.2594 1159,413.6094 C1128.06,421.3694 901.12,408.5794 872,421.6094 C844.54,433.8994 825.2081,454.809 810.1381,475.629 " fill="none" id="MLFunctions-to-SQLDWH-1" style="stroke:#181818;stroke-width:1;"/><polygon fill="#181818" points="806.62,480.4894,815.1373,475.5442,809.5517,476.4391,808.6568,470.8534,806.62,480.4894" style="stroke:#181818;stroke-width:1;"/><text fill="#000000" font-family="sans-serif" font-size="13" lengthAdjust="spacing" textLength="98.249" x="1196" y="410.1045">Write Predictions</text></g><!--link BETickets to Linear--><g id="link_BETickets_Linear"><path d="M1423.87,331.4294 C1446.78,350.4694 1482.08,376.0594 1518,387.6094 C1540.76,394.9294 1711.46,385.2494 1733,395.6094 C1770.14,413.4694 1795.8452,447.1073 1812.8052,474.9073 " fill="none" id="BETickets-to-Linear" style="stroke:#181818;stroke-width:1;"/><polygon fill="#181818" points="1815.93,480.0294,1814.6575,470.2631,1813.326,475.761,1807.8281,474.4295,1815.93,480.0294" style="stroke:#181818;stroke-width:1;"/><text fill="#000000" font-family="sans-serif" font-size="13" lengthAdjust="spacing" textLength="28.9009" x="1761" y="410.1045">Sync</text></g><!--link BETickets to SendGrid--><g id="link_BETickets_SendGrid"><path d="M1423.96,331.1694 C1446.92,350.0594 1482.24,375.5494 1518,387.6094 C1530.87,391.9494 1629.72,386.7294 1640,395.6094 C1663.71,416.0694 1668.1508,447.1299 1667.7908,473.8599 " fill="none" id="BETickets-to-SendGrid" style="stroke:#181818;stroke-width:1;"/><polygon fill="#181818" points="1667.71,479.8594,1671.8308,470.9141,1667.7773,474.8598,1663.8316,470.8063,1667.71,479.8594" style="stroke:#181818;stroke-width:1;"/><text fill="#000000" font-family="sans-serif" font-size="13" lengthAdjust="spacing" textLength="70.8081" x="1654" y="410.1045">Notifications</text></g><!--link Inventory to Lireco--><g id="link_Inventory_Lireco"><path d="M523.91,339.8794 C540.44,357.5594 563.51,377.9094 589,387.6094 C611.54,396.1894 1440.03,378.4794 1457,395.6094 C1491.67,430.5994 1432.15,409.9994 1412,421.6094 C1387.9,435.4994 1371.3055,455.0486 1357.9055,474.9986 " fill="none" id="Inventory-to-Lireco" style="stroke:#181818;stroke-width:1;"/><polygon fill="#181818" points="1354.56,479.9794,1362.8987,474.7386,1357.3479,475.8288,1356.2577,470.2779,1354.56,479.9794" style="stroke:#181818;stroke-width:1;"/><text fill="#000000" font-family="sans-serif" font-size="13" lengthAdjust="spacing" textLength="62.8418" x="1468" y="410.1045">Sync RFID</text></g><!--link Accounting to SAGE--><g id="link_Accounting_SAGE"><path d="M1232.1,339.7094 C1249.9,357.3294 1274.5,377.6694 1301,387.6094 C1314.53,392.6794 1550.94,385.2394 1561,395.6094 C1584.79,420.1494 1563.5736,450.7489 1537.6536,475.8089 " fill="none" id="Accounting-to-SAGE" style="stroke:#181818;stroke-width:1;"/><polygon fill="#181818" points="1533.34,479.9794,1542.5907,476.5994,1536.9347,476.504,1537.0301,470.8479,1533.34,479.9794" style="stroke:#181818;stroke-width:1;"/><text fill="#000000" font-family="sans-serif" font-size="13" lengthAdjust="spacing" textLength="37.5718" x="1570" y="410.1045">Export</text></g><!--link Sales to GMN63--><g id="link_Sales_GMN63"><path d="M337.84,274.3594 C351.57,239.6994 379.08,188.5594 424.5,178.1094 C468.08,168.0894 1990.92,168.0894 2034.5,178.1094 C2087.36,190.2694 2132.36,236.0294 2159.27,269.6094 " fill="none" id="Sales-GMN63" style="stroke:#181818;stroke-width:1;stroke-dasharray:7.0,7.0;"/></g><!--link ADF to GMN66--><g id="link_ADF_GMN66"><path d="M141.31,282.9794 C163.05,249.4294 208.02,191.3294 265.5,178.1094 C295.81,171.1394 2474.19,171.1394 2504.5,178.1094 C2549.39,188.4294 2579.82,235.1494 2596.54,269.4094 " fill="none" id="ADF-GMN66" style="stroke:#181818;stroke-width:1;stroke-dasharray:7.0,7.0;"/></g><!--link MLFunctions to GMN69--><g id="link_MLFunctions_GMN69"><path d="M1617.6,274.4794 C1633.23,239.9194 1663.7,188.8794 1710.5,178.1094 C1741.36,171.0094 2249.64,171.0094 2280.5,178.1094 C2333.07,190.1994 2372.93,243.1194 2393.78,277.3094 " fill="none" id="MLFunctions-GMN69" style="stroke:#181818;stroke-width:1;stroke-dasharray:7.0,7.0;"/></g><!--SRC=[TLLDZzis4BthLmps4AnHE41E1VPGG5hR6m5srrrjkeTi3hGqjbdBf4fIRhT1_dk77w949xb9RnuvmvatCuQR5Y5NzP4Rh4sl4ExbkPEQ2QEXUjC6pmWFg0sN0XuxLCn-2MnRpBAErITsGBXPAIaCYkO6lcO0drzm1mlK9oExL_7OIFa5c0P2xRSbREIEar_-MBsAlEkSsMFbOpKXvA9HaZVNf01RubR-WmgAybKic3xk95EDTandAChisoJCWZueIfX3_fzxQYlx1fQVRDXqMUJPC67vj8NBXr_zarn8JKyXLQn5_Ifky_sUSOLwvhmvDE5jUqegqsYfz642SO0JRYakA8nKRqIkZAnFWHpnX9tNjUo5uU90T5ijmpnzDAIHAFaNrTQIZrHMZcg8nHiy-RxNHfwXMC8pfomPdyLY6VuIqbEHtpkp_I3BjoHxHGdlOBEEYHjA11Mg2w_H-oxAyEj9lY2RDLIcRxWNp6RjVwQCLIzggq1R0cANOeyAHOspS2BQlmjh-Jo6vEzQCCDWnMgROP_0nSeTeuCDsNPK9xXPMBcZzcT7U2krEIYi_bXJ94umYs9suvNdB3gXUu_4XiNBHphXVBymXKVPQ_G7oKh67nmhMhaRpgpPAT0jciYxf1uy-0RLiFpNe193t9-h_649NYnMaTiIxgi_WtR9P2bhadCjuMbLBWBbQLazUuwtUPP0fWQH497Q-YZb85blTXwfqnuKf_uwCzuIyNTf-9xNFhxWEd3iCy9uWFdyjz1EKoJspHGS-sEAJjeWkI6eVOgDyfwYJjLPd4UJY59iT9-CfU_uKtmyauK9vOCRss7yz1TvKMJkGiyTz3Na94MZXnGUit9rYKzB2iQyfB1DJ8far3890dTMUOgQAfgSz29iTHTDGNAZaLGtddCl9-DQiYQYLlM4kPLreHqq38cfyLanBcXNDDXI3SQPa5uRPyVFAI-ArY8f1niUfifLQa8ttD6g5FMLBJR07IJIpwvA59DWxt3jTrsicC5EAfDbGb9GYX-E1kG-hXvQpc9UITA47QdRDtEaZVqBZ7EAKDlGDiSQ1CLoSUVie12QxsXJtDP-lf_Tuj2pp2vBw-tQfn-KD57z2hN-U8Sj9KF3tpqzjk7eHZ1LGkYzLESmbNmO6oauFTy-ZxkPXJ_rb4vqsnYeA3GDjrVxO3O- -kmA3xVlkrDhuRmtSgvhrjgH41tz3m00]--></g></svg>