<svg xmlns="http://www.w3.org/2000/svg" xmlns:xlink="http://www.w3.org/1999/xlink" contentStyleType="text/css" height="905px" preserveAspectRatio="none" style="width:2187px;height:905px;background:#FFFFFF;" version="1.1" viewBox="0 0 2187 905" width="2187px" zoomAndPan="magnify"><title>Infrastructure Deployment Azure Cloud EU</title><defs/><g><text fill="#000000" font-family="sans-serif" font-size="14" font-weight="bold" lengthAdjust="spacing" textLength="284.7031" x="944.3479" y="24.5332">Infrastructure Deployment Azure Cloud EU</text><!--cluster Azure Cloud Region France (Paris + Marseille)--><g id="cluster_Azure Cloud Region France (Paris + Marseille)"><polygon fill="none" points="16,255.6094,26,245.6094,1096,245.6094,1096,878.6094,1086,888.6094,16,888.6094,16,255.6094" style="stroke:#181818;stroke-width:1;"/><line style="stroke:#181818;stroke-width:1;" x1="1086" x2="1096" y1="255.6094" y2="245.6094"/><line style="stroke:#181818;stroke-width:1;" x1="16" x2="1086" y1="255.6094" y2="255.6094"/><line style="stroke:#181818;stroke-width:1;" x1="1086" x2="1086" y1="255.6094" y2="888.6094"/><text fill="#000000" font-family="sans-serif" font-size="14" font-weight="bold" lengthAdjust="spacing" textLength="306.9131" x="398.5435" y="273.1426">Azure Cloud Region France (Paris + Marseille)</text></g><!--cluster Azure App Service--><g id="cluster_Azure App Service"><polygon fill="none" points="800,304.6094,810,294.6094,999,294.6094,999,399.6094,989,409.6094,800,409.6094,800,304.6094" style="stroke:#181818;stroke-width:1;"/><line style="stroke:#181818;stroke-width:1;" x1="989" x2="999" y1="304.6094" y2="294.6094"/><line style="stroke:#181818;stroke-width:1;" x1="800" x2="989" y1="304.6094" y2="304.6094"/><line style="stroke:#181818;stroke-width:1;" x1="989" x2="989" y1="304.6094" y2="409.6094"/><text fill="#000000" font-family="sans-serif" font-size="14" font-weight="bold" lengthAdjust="spacing" textLength="123.71" x="833.645" y="322.1426">Azure App Service</text></g><!--cluster Azure VM D4s_v3\n(4 vCPU, 16 GB RAM)--><g id="cluster_Azure VM D4s_v3\n(4 vCPU, 16 GB RAM)"><polygon fill="none" points="854,476.1094,864,466.1094,1072,466.1094,1072,589.1094,1062,599.1094,854,599.1094,854,476.1094" style="stroke:#181818;stroke-width:1;"/><line style="stroke:#181818;stroke-width:1;" x1="1062" x2="1072" y1="476.1094" y2="466.1094"/><line style="stroke:#181818;stroke-width:1;" x1="854" x2="1062" y1="476.1094" y2="476.1094"/><line style="stroke:#181818;stroke-width:1;" x1="1062" x2="1062" y1="476.1094" y2="599.1094"/><text fill="#000000" font-family="sans-serif" font-size="14" font-weight="bold" lengthAdjust="spacing" textLength="116.7168" x="900.6416" y="493.6426">Azure VM D4s_v3</text><text fill="#000000" font-family="sans-serif" font-size="14" font-weight="bold" lengthAdjust="spacing" textLength="142.3584" x="887.8208" y="511.252">(4 vCPU, 16 GB RAM)</text></g><!--cluster Azure Database\nPostgreSQL 15\nManaged--><g id="cluster_Azure Database\nPostgreSQL 15\nManaged"><path d="M951,690.6094 C951,680.6094 1011.5,680.6094 1011.5,680.6094 C1011.5,680.6094 1072,680.6094 1072,690.6094 L1072,830.6094 C1072,840.6094 1011.5,840.6094 1011.5,840.6094 C1011.5,840.6094 951,840.6094 951,830.6094 L951,690.6094 " fill="none" style="stroke:#181818;stroke-width:1;"/><path d="M951,690.6094 C951,700.6094 1011.5,700.6094 1011.5,700.6094 C1011.5,700.6094 1072,700.6094 1072,690.6094 " fill="none" style="stroke:#181818;stroke-width:1;"/><text fill="#000000" font-family="sans-serif" font-size="14" font-weight="bold" lengthAdjust="spacing" textLength="105.041" x="958.9795" y="717.1426">Azure Database</text><text fill="#000000" font-family="sans-serif" font-size="14" font-weight="bold" lengthAdjust="spacing" textLength="100.3652" x="961.3174" y="734.752">PostgreSQL 15</text><text fill="#000000" font-family="sans-serif" font-size="14" font-weight="bold" lengthAdjust="spacing" textLength="60.6758" x="981.1621" y="752.3613">Managed</text></g><!--cluster Azure SQL Database\n(Data Warehouse)--><g id="cluster_Azure SQL Database\n(Data Warehouse)"><path d="M40,707.6094 C40,697.6094 130,697.6094 130,697.6094 C130,697.6094 220,697.6094 220,707.6094 L220,830.6094 C220,840.6094 130,840.6094 130,840.6094 C130,840.6094 40,840.6094 40,830.6094 L40,707.6094 " fill="none" style="stroke:#181818;stroke-width:1;"/><path d="M40,707.6094 C40,717.6094 130,717.6094 130,717.6094 C130,717.6094 220,717.6094 220,707.6094 " fill="none" style="stroke:#181818;stroke-width:1;"/><text fill="#000000" font-family="sans-serif" font-size="14" font-weight="bold" lengthAdjust="spacing" textLength="137.71" x="61.145" y="734.1426">Azure SQL Database</text><text fill="#000000" font-family="sans-serif" font-size="14" font-weight="bold" lengthAdjust="spacing" textLength="119.0205" x="70.4897" y="751.752">(Data Warehouse)</text></g><!--cluster Azure Blob Storage--><g id="cluster_Azure Blob Storage"><path d="M244,681.6094 C244,671.6094 585.5,671.6094 585.5,671.6094 C585.5,671.6094 927,671.6094 927,681.6094 L927,854.6094 C927,864.6094 585.5,864.6094 585.5,864.6094 C585.5,864.6094 244,864.6094 244,854.6094 L244,681.6094 " fill="none" style="stroke:#181818;stroke-width:1;"/><path d="M244,681.6094 C244,691.6094 585.5,691.6094 585.5,691.6094 C585.5,691.6094 927,691.6094 927,681.6094 " fill="none" style="stroke:#181818;stroke-width:1;"/><text fill="#000000" font-family="sans-serif" font-size="14" font-weight="bold" lengthAdjust="spacing" textLength="129.9033" x="520.5483" y="708.1426">Azure Blob Storage</text></g><!--cluster Data Lake--><g id="cluster_Data Lake"><path d="M498.5,730.6094 L565.6445,730.6094 A3.75,3.75 0 0 1 568.1445,733.1094 L575.1445,754.2188 L900.5,754.2188 A2.5,2.5 0 0 1 903,756.7188 L903,838.1094 A2.5,2.5 0 0 1 900.5,840.6094 L498.5,840.6094 A2.5,2.5 0 0 1 496,838.1094 L496,733.1094 A2.5,2.5 0 0 1 498.5,730.6094 " fill="none" style="stroke:#000000;stroke-width:1.5;"/><line style="stroke:#000000;stroke-width:1.5;" x1="496" x2="575.1445" y1="754.2188" y2="754.2188"/><text fill="#000000" font-family="sans-serif" font-size="14" font-weight="bold" lengthAdjust="spacing" textLength="66.1445" x="500" y="747.1426">Data Lake</text></g><!--cluster Azure Functions\nServerless--><g id="cluster_Azure Functions\nServerless"><polygon fill="none" points="178,476.1094,188,466.1094,363,466.1094,363,589.1094,353,599.1094,178,599.1094,178,476.1094" style="stroke:#181818;stroke-width:1;"/><line style="stroke:#181818;stroke-width:1;" x1="353" x2="363" y1="476.1094" y2="466.1094"/><line style="stroke:#181818;stroke-width:1;" x1="178" x2="353" y1="476.1094" y2="476.1094"/><line style="stroke:#181818;stroke-width:1;" x1="353" x2="353" y1="476.1094" y2="599.1094"/><text fill="#000000" font-family="sans-serif" font-size="14" font-weight="bold" lengthAdjust="spacing" textLength="109.6689" x="211.6655" y="493.6426">Azure Functions</text><text fill="#000000" font-family="sans-serif" font-size="14" font-weight="bold" lengthAdjust="spacing" textLength="70.8408" x="231.0796" y="511.252">Serverless</text></g><!--cluster Azure Data Factory--><g id="cluster_Azure Data Factory"><polygon fill="none" points="627,494.1094,637,484.1094,830,484.1094,830,589.1094,820,599.1094,627,599.1094,627,494.1094" style="stroke:#181818;stroke-width:1;"/><line style="stroke:#181818;stroke-width:1;" x1="820" x2="830" y1="494.1094" y2="484.1094"/><line style="stroke:#181818;stroke-width:1;" x1="627" x2="820" y1="494.1094" y2="494.1094"/><line style="stroke:#181818;stroke-width:1;" x1="820" x2="820" y1="494.1094" y2="599.1094"/><text fill="#000000" font-family="sans-serif" font-size="14" font-weight="bold" lengthAdjust="spacing" textLength="127.5928" x="660.7036" y="511.6426">Azure Data Factory</text></g><!--cluster Power BI Service--><g id="cluster_Power BI Service"><path d="M428.5827,497.8649 C430.5341,491.5145 436.5014,491.3306 440.324,495.8421 C444.517,490.9273 448.6982,490.2801 452.4345,496.3459 C454.5545,491.312 459.2949,490.5041 462.8126,494.7893 C466.3736,487.8192 470.3314,486.9402 476.0025,492.5828 C479.6807,486.4521 483.2735,487.3949 487.6463,491.8162 C488.7474,485.5777 494.0825,485.4797 497.8355,489.066 C502.1225,484.5769 508.3685,484.359 510.433,491.478 C513.7106,486.2289 517.1176,487.0475 520.286,491.588 C525.2717,486.1603 530.0296,486.0562 533.2789,493.36 C536.8224,489.3014 540.7467,489.4649 543.2583,494.4933 C547.869,488.3269 552.9469,489.8187 555.5649,496.4148 C563.8386,490.5947 571.4164,494.7704 573,504.1094 C573.4042,503.8835 573.7605,503.937 573.8371,504.4705 C580.3961,507.647 581.7429,514.735 575.0766,519.0368 C581.8243,521.0592 583.0208,527.5204 577.7118,531.9947 C584.4582,535.4275 584.9035,541.6964 578.1431,545.5587 C583.6269,549.6646 583.4024,555.3775 576.9061,558.3225 C582.4934,562.9496 581.8469,566.9089 576.4906,571.1824 C584.0897,582.2907 578.9666,590.8279 566,591.1094 C566.9973,590.8241 567.4187,591.4204 567.1578,592.3292 C563.9089,597.7726 559.7588,598.6601 555.1277,593.9701 C552.3687,599.3842 547.2113,601.1978 543.0727,595.4616 C540.0536,600.6044 535.4903,599.9524 532.2959,595.6619 C528.6837,600.9673 525.0742,602.1704 520.2814,597.0184 C517.7045,602.2679 512.2578,602.4584 509.1604,597.5905 C507.6237,603.2326 502.453,604.3032 498.3115,600.6213 C492.8821,604.8482 489.5525,604.1983 487.6092,597.2751 C484.3722,603.5418 478.2365,603.8577 474.4978,597.8093 C470.5192,601.8486 467.1791,600.8743 464.4886,596.3107 C460.6285,601.3067 454.8662,601.9131 452.3273,594.9654 C448.1511,600.4996 444.5365,600.1681 440.7908,594.5211 C430.6362,601.5694 420.5223,597.2713 421,584.1094 C422.0964,584.4495 422.0509,585.0554 421.4708,585.8492 C412.7431,582.415 413.8042,576.9366 419.1587,571.2693 C411.7731,568.2355 411.6509,561.749 418.1412,557.6765 C411.0457,554.3933 410.7053,548.9471 416.6937,544.2531 C411.0085,540.0343 411.9927,534.5164 418.1196,531.6321 C412.4307,527.4512 412.0732,521.5118 419.369,518.5732 C412.3444,507.6723 413.494,499.3525 428,497.1094 C428.527,497.1235 428.7743,497.2965 428.5827,497.8649 " fill="none" style="stroke:#181818;stroke-width:1;"/><text fill="#000000" font-family="sans-serif" font-size="14" font-weight="bold" lengthAdjust="spacing" textLength="113.6133" x="440.1934" y="516.6426">Power BI Service</text></g><!--cluster On-Premise Duret Annecy--><g id="cluster_On-Premise Duret Annecy"><polygon fill="none" points="1120,735.6094,1130,725.6094,1415,725.6094,1415,830.6094,1405,840.6094,1120,840.6094,1120,735.6094" style="stroke:#181818;stroke-width:1;"/><line style="stroke:#181818;stroke-width:1;" x1="1405" x2="1415" y1="735.6094" y2="725.6094"/><line style="stroke:#181818;stroke-width:1;" x1="1120" x2="1405" y1="735.6094" y2="735.6094"/><line style="stroke:#181818;stroke-width:1;" x1="1405" x2="1405" y1="735.6094" y2="840.6094"/><text fill="#000000" font-family="sans-serif" font-size="14" font-weight="bold" lengthAdjust="spacing" textLength="173.4961" x="1176.752" y="753.1426">On-Premise Duret Annecy</text></g><!--cluster Utilisateurs--><g id="cluster_Utilisateurs"><polygon fill="none" points="725,54.6094,735,44.6094,998,44.6094,998,169.6094,988,179.6094,725,179.6094,725,54.6094" style="stroke:#181818;stroke-width:1;"/><line style="stroke:#181818;stroke-width:1;" x1="988" x2="998" y1="54.6094" y2="44.6094"/><line style="stroke:#181818;stroke-width:1;" x1="725" x2="988" y1="54.6094" y2="54.6094"/><line style="stroke:#181818;stroke-width:1;" x1="988" x2="988" y1="54.6094" y2="179.6094"/><text fill="#000000" font-family="sans-serif" font-size="14" font-weight="bold" lengthAdjust="spacing" textLength="76.248" x="819.376" y="72.1426">Utilisateurs</text></g><!--cluster Services Externes--><g id="cluster_Services Externes"><polygon fill="none" points="1439,740.6094,1449,730.6094,1793,730.6094,1793,825.6094,1783,835.6094,1439,835.6094,1439,740.6094" style="stroke:#181818;stroke-width:1;"/><line style="stroke:#181818;stroke-width:1;" x1="1783" x2="1793" y1="740.6094" y2="730.6094"/><line style="stroke:#181818;stroke-width:1;" x1="1439" x2="1783" y1="740.6094" y2="740.6094"/><line style="stroke:#181818;stroke-width:1;" x1="1783" x2="1783" y1="740.6094" y2="835.6094"/><text fill="#000000" font-family="sans-serif" font-size="14" font-weight="bold" lengthAdjust="spacing" textLength="120.6406" x="1551.6797" y="758.1426">Services Externes</text></g><!--entity Odoo--><g id="elem_Odoo"><rect fill="#F1F1F1" height="58.2188" rx="2.5" ry="2.5" style="stroke:#181818;stroke-width:0.5;" width="131.165" x="849.5" y="335.6094"/><polygon fill="#F1F1F1" points="963.665,340.6094,963.665,354.6094,975.665,354.6094,975.665,346.6094,969.665,340.6094,963.665,340.6094" style="stroke:#181818;stroke-width:0.5;"/><line style="stroke:#181818;stroke-width:0.5;" x1="969.665" x2="969.665" y1="340.6094" y2="346.6094"/><line style="stroke:#181818;stroke-width:0.5;" x1="975.665" x2="969.665" y1="346.6094" y2="346.6094"/><text fill="#000000" font-family="sans-serif" font-size="14" lengthAdjust="spacing" textLength="93.3857" x="859.5" y="363.1426">Odoo ERP v17</text><text fill="#000000" font-family="sans-serif" font-size="14" lengthAdjust="spacing" textLength="101.165" x="859.5" y="380.752">Web Application</text></g><!--entity OdooBackend--><g id="elem_OdooBackend"><rect fill="#F1F1F1" height="58.2188" rx="2.5" ry="2.5" style="stroke:#181818;stroke-width:0.5;" width="155.6719" x="899" y="525.1094"/><polygon fill="#F1F1F1" points="1037.6719,530.1094,1037.6719,544.1094,1049.6719,544.1094,1049.6719,536.1094,1043.6719,530.1094,1037.6719,530.1094" style="stroke:#181818;stroke-width:0.5;"/><line style="stroke:#181818;stroke-width:0.5;" x1="1043.6719" x2="1043.6719" y1="530.1094" y2="536.1094"/><line style="stroke:#181818;stroke-width:0.5;" x1="1049.6719" x2="1043.6719" y1="536.1094" y2="536.1094"/><text fill="#000000" font-family="sans-serif" font-size="14" lengthAdjust="spacing" textLength="92.6201" x="909" y="552.6426">Odoo Backend</text><text fill="#000000" font-family="sans-serif" font-size="14" lengthAdjust="spacing" textLength="125.6719" x="909" y="570.252">(Python + Gunicorn)</text></g><!--entity OdooDB--><g id="elem_OdooDB"><rect fill="#F1F1F1" height="58.2188" rx="2.5" ry="2.5" style="stroke:#181818;stroke-width:0.5;" width="87.5859" x="967" y="766.6094"/><polygon fill="#F1F1F1" points="1037.5859,771.6094,1037.5859,785.6094,1049.5859,785.6094,1049.5859,777.6094,1043.5859,771.6094,1037.5859,771.6094" style="stroke:#181818;stroke-width:0.5;"/><line style="stroke:#181818;stroke-width:0.5;" x1="1043.5859" x2="1043.5859" y1="771.6094" y2="777.6094"/><line style="stroke:#181818;stroke-width:0.5;" x1="1049.5859" x2="1043.5859" y1="777.6094" y2="777.6094"/><text fill="#000000" font-family="sans-serif" font-size="14" lengthAdjust="spacing" textLength="57.5859" x="977" y="794.1426">Odoo DB</text><text fill="#000000" font-family="sans-serif" font-size="14" lengthAdjust="spacing" textLength="49.0137" x="977" y="811.752">(50 GB)</text></g><!--entity DWH--><g id="elem_DWH"><rect fill="#F1F1F1" height="58.2188" rx="2.5" ry="2.5" style="stroke:#181818;stroke-width:0.5;" width="148.248" x="56" y="766.6094"/><polygon fill="#F1F1F1" points="187.248,771.6094,187.248,785.6094,199.248,785.6094,199.248,777.6094,193.248,771.6094,187.248,771.6094" style="stroke:#181818;stroke-width:0.5;"/><line style="stroke:#181818;stroke-width:0.5;" x1="193.248" x2="193.248" y1="771.6094" y2="777.6094"/><line style="stroke:#181818;stroke-width:0.5;" x1="199.248" x2="193.248" y1="777.6094" y2="777.6094"/><text fill="#000000" font-family="sans-serif" font-size="14" lengthAdjust="spacing" textLength="118.248" x="66" y="794.1426">DWH Star Schema</text><text fill="#000000" font-family="sans-serif" font-size="14" lengthAdjust="spacing" textLength="65.3447" x="66" y="811.752">(100 DTU)</text></g><!--entity Models--><g id="elem_Models"><rect fill="#F1F1F1" height="58.2188" rx="2.5" ry="2.5" style="stroke:#181818;stroke-width:0.5;" width="98.4688" x="379" y="766.6094"/><polygon fill="#F1F1F1" points="460.4688,771.6094,460.4688,785.6094,472.4688,785.6094,472.4688,777.6094,466.4688,771.6094,460.4688,771.6094" style="stroke:#181818;stroke-width:0.5;"/><line style="stroke:#181818;stroke-width:0.5;" x1="466.4688" x2="466.4688" y1="771.6094" y2="777.6094"/><line style="stroke:#181818;stroke-width:0.5;" x1="472.4688" x2="466.4688" y1="777.6094" y2="777.6094"/><text fill="#000000" font-family="sans-serif" font-size="14" lengthAdjust="spacing" textLength="68.4688" x="389" y="794.1426">ML Models</text><text fill="#000000" font-family="sans-serif" font-size="14" lengthAdjust="spacing" textLength="59.8965" x="389" y="811.752">(.pkl files)</text></g><!--entity Backups--><g id="elem_Backups"><rect fill="#F1F1F1" height="58.2188" rx="2.5" ry="2.5" style="stroke:#181818;stroke-width:0.5;" width="83.6963" x="260" y="766.6094"/><polygon fill="#F1F1F1" points="326.6963,771.6094,326.6963,785.6094,338.6963,785.6094,338.6963,777.6094,332.6963,771.6094,326.6963,771.6094" style="stroke:#181818;stroke-width:0.5;"/><line style="stroke:#181818;stroke-width:0.5;" x1="332.6963" x2="332.6963" y1="771.6094" y2="777.6094"/><line style="stroke:#181818;stroke-width:0.5;" x1="338.6963" x2="332.6963" y1="777.6094" y2="777.6094"/><text fill="#000000" font-family="sans-serif" font-size="14" lengthAdjust="spacing" textLength="53.6963" x="270" y="794.1426">Backups</text><text fill="#000000" font-family="sans-serif" font-size="14" lengthAdjust="spacing" textLength="40.4414" x="270" y="811.752">(Daily)</text></g><!--entity Bronze--><g id="elem_Bronze"><rect fill="#F1F1F1" height="58.2188" rx="2.5" ry="2.5" style="stroke:#181818;stroke-width:0.5;" width="100.793" x="785.5" y="766.6094"/><polygon fill="#F1F1F1" points="869.293,771.6094,869.293,785.6094,881.293,785.6094,881.293,777.6094,875.293,771.6094,869.293,771.6094" style="stroke:#181818;stroke-width:0.5;"/><line style="stroke:#181818;stroke-width:0.5;" x1="875.293" x2="875.293" y1="771.6094" y2="777.6094"/><line style="stroke:#181818;stroke-width:0.5;" x1="881.293" x2="875.293" y1="777.6094" y2="777.6094"/><text fill="#000000" font-family="sans-serif" font-size="14" lengthAdjust="spacing" textLength="44.3584" x="795.5" y="794.1426">Bronze</text><text fill="#000000" font-family="sans-serif" font-size="14" lengthAdjust="spacing" textLength="70.793" x="795.5" y="811.752">(Raw Data)</text></g><!--entity Silver--><g id="elem_Silver"><rect fill="#F1F1F1" height="58.2188" rx="2.5" ry="2.5" style="stroke:#181818;stroke-width:0.5;" width="91.4756" x="659.5" y="766.6094"/><polygon fill="#F1F1F1" points="733.9756,771.6094,733.9756,785.6094,745.9756,785.6094,745.9756,777.6094,739.9756,771.6094,733.9756,771.6094" style="stroke:#181818;stroke-width:0.5;"/><line style="stroke:#181818;stroke-width:0.5;" x1="739.9756" x2="739.9756" y1="771.6094" y2="777.6094"/><line style="stroke:#181818;stroke-width:0.5;" x1="745.9756" x2="739.9756" y1="777.6094" y2="777.6094"/><text fill="#000000" font-family="sans-serif" font-size="14" lengthAdjust="spacing" textLength="35.0068" x="669.5" y="794.1426">Silver</text><text fill="#000000" font-family="sans-serif" font-size="14" lengthAdjust="spacing" textLength="61.4756" x="669.5" y="811.752">(Cleaned)</text></g><!--entity Gold--><g id="elem_Gold"><rect fill="#F1F1F1" height="58.2188" rx="2.5" ry="2.5" style="stroke:#181818;stroke-width:0.5;" width="111.7168" x="512" y="766.6094"/><polygon fill="#F1F1F1" points="606.7168,771.6094,606.7168,785.6094,618.7168,785.6094,618.7168,777.6094,612.7168,771.6094,606.7168,771.6094" style="stroke:#181818;stroke-width:0.5;"/><line style="stroke:#181818;stroke-width:0.5;" x1="612.7168" x2="612.7168" y1="771.6094" y2="777.6094"/><line style="stroke:#181818;stroke-width:0.5;" x1="618.7168" x2="612.7168" y1="777.6094" y2="777.6094"/><text fill="#000000" font-family="sans-serif" font-size="14" lengthAdjust="spacing" textLength="29.5723" x="522" y="794.1426">Gold</text><text fill="#000000" font-family="sans-serif" font-size="14" lengthAdjust="spacing" textLength="81.7168" x="522" y="811.752">(Aggregated)</text></g><!--entity MLFunc--><g id="elem_MLFunc"><rect fill="#F1F1F1" height="58.2188" rx="2.5" ry="2.5" style="stroke:#181818;stroke-width:0.5;" width="111.71" x="214" y="525.1094"/><polygon fill="#F1F1F1" points="308.71,530.1094,308.71,544.1094,320.71,544.1094,320.71,536.1094,314.71,530.1094,308.71,530.1094" style="stroke:#181818;stroke-width:0.5;"/><line style="stroke:#181818;stroke-width:0.5;" x1="314.71" x2="314.71" y1="530.1094" y2="536.1094"/><line style="stroke:#181818;stroke-width:0.5;" x1="320.71" x2="314.71" y1="536.1094" y2="536.1094"/><text fill="#000000" font-family="sans-serif" font-size="14" lengthAdjust="spacing" textLength="81.71" x="224" y="552.6426">ML Inference</text><text fill="#000000" font-family="sans-serif" font-size="14" lengthAdjust="spacing" textLength="52.9102" x="224" y="570.252">(Python)</text></g><!--entity ADF--><g id="elem_ADF"><rect fill="#F1F1F1" height="58.2188" rx="2.5" ry="2.5" style="stroke:#181818;stroke-width:0.5;" width="116.3789" x="698" y="525.1094"/><polygon fill="#F1F1F1" points="797.3789,530.1094,797.3789,544.1094,809.3789,544.1094,809.3789,536.1094,803.3789,530.1094,797.3789,530.1094" style="stroke:#181818;stroke-width:0.5;"/><line style="stroke:#181818;stroke-width:0.5;" x1="803.3789" x2="803.3789" y1="530.1094" y2="536.1094"/><line style="stroke:#181818;stroke-width:0.5;" x1="809.3789" x2="803.3789" y1="536.1094" y2="536.1094"/><text fill="#000000" font-family="sans-serif" font-size="14" lengthAdjust="spacing" textLength="86.3789" x="708" y="552.6426">ETL Pipelines</text><text fill="#000000" font-family="sans-serif" font-size="14" lengthAdjust="spacing" textLength="40.4414" x="708" y="570.252">(Daily)</text></g><!--entity PBI--><g id="elem_PBI"><rect fill="#F1F1F1" height="58.2188" rx="2.5" ry="2.5" style="stroke:#181818;stroke-width:0.5;" width="135.041" x="429.5" y="525.1094"/><polygon fill="#F1F1F1" points="547.541,530.1094,547.541,544.1094,559.541,544.1094,559.541,536.1094,553.541,530.1094,547.541,530.1094" style="stroke:#181818;stroke-width:0.5;"/><line style="stroke:#181818;stroke-width:0.5;" x1="553.541" x2="553.541" y1="530.1094" y2="536.1094"/><line style="stroke:#181818;stroke-width:0.5;" x1="559.541" x2="553.541" y1="536.1094" y2="536.1094"/><text fill="#000000" font-family="sans-serif" font-size="14" lengthAdjust="spacing" textLength="75.4893" x="439.5" y="552.6426">Dashboards</text><text fill="#000000" font-family="sans-serif" font-size="14" lengthAdjust="spacing" textLength="105.041" x="439.5" y="570.252">(30 licences Pro)</text></g><!--entity SAGE--><g id="elem_SAGE"><rect fill="#F1F1F1" height="58.2188" rx="2.5" ry="2.5" style="stroke:#181818;stroke-width:0.5;" width="121.8135" x="1136" y="766.6094"/><polygon fill="#F1F1F1" points="1240.8135,771.6094,1240.8135,785.6094,1252.8135,785.6094,1252.8135,777.6094,1246.8135,771.6094,1240.8135,771.6094" style="stroke:#181818;stroke-width:0.5;"/><line style="stroke:#181818;stroke-width:0.5;" x1="1246.8135" x2="1246.8135" y1="771.6094" y2="777.6094"/><line style="stroke:#181818;stroke-width:0.5;" x1="1252.8135" x2="1246.8135" y1="777.6094" y2="777.6094"/><text fill="#000000" font-family="sans-serif" font-size="14" lengthAdjust="spacing" textLength="91.8135" x="1146" y="794.1426">SAGE Compta</text><text fill="#000000" font-family="sans-serif" font-size="14" lengthAdjust="spacing" textLength="54.4688" x="1146" y="811.752">(Legacy)</text></g><!--entity Lireco--><g id="elem_Lireco"><rect fill="#F1F1F1" height="58.2188" rx="2.5" ry="2.5" style="stroke:#181818;stroke-width:0.5;" width="104.6826" x="1293.5" y="766.6094"/><polygon fill="#F1F1F1" points="1381.1826,771.6094,1381.1826,785.6094,1393.1826,785.6094,1393.1826,777.6094,1387.1826,771.6094,1381.1826,771.6094" style="stroke:#181818;stroke-width:0.5;"/><line style="stroke:#181818;stroke-width:0.5;" x1="1387.1826" x2="1387.1826" y1="771.6094" y2="777.6094"/><line style="stroke:#181818;stroke-width:0.5;" x1="1393.1826" x2="1387.1826" y1="777.6094" y2="777.6094"/><text fill="#000000" font-family="sans-serif" font-size="14" lengthAdjust="spacing" textLength="74.6826" x="1303.5" y="794.1426">Lireco RFID</text><text fill="#000000" font-family="sans-serif" font-size="14" lengthAdjust="spacing" textLength="44.3379" x="1303.5" y="811.752">(Stock)</text></g><!--entity Web--><g id="elem_Web"><ellipse cx="940.0171" cy="94.1094" fill="#F1F1F1" rx="8" ry="8" style="stroke:#181818;stroke-width:0.5;"/><path d="M940.0171,102.1094 L940.0171,129.1094 M927.0171,110.1094 L953.0171,110.1094 M940.0171,129.1094 L927.0171,144.1094 M940.0171,129.1094 L953.0171,144.1094 " fill="none" style="stroke:#181818;stroke-width:0.5;"/><text fill="#000000" font-family="sans-serif" font-size="14" lengthAdjust="spacing" textLength="84.0342" x="898" y="160.1426">Web Desktop</text></g><!--entity Mobile--><g id="elem_Mobile"><ellipse cx="801.8066" cy="94.1094" fill="#F1F1F1" rx="8" ry="8" style="stroke:#181818;stroke-width:0.5;"/><path d="M801.8066,102.1094 L801.8066,129.1094 M788.8066,110.1094 L814.8066,110.1094 M801.8066,129.1094 L788.8066,144.1094 M801.8066,129.1094 L814.8066,144.1094 " fill="none" style="stroke:#181818;stroke-width:0.5;"/><text fill="#000000" font-family="sans-serif" font-size="14" lengthAdjust="spacing" textLength="120.6133" x="741.5" y="160.1426">Mobile iOS/Android</text></g><!--entity Linear--><g id="elem_Linear"><path d="M1636.9511,781.4296 C1640.2348,775.6711 1643.911,774.7458 1648.5094,780.0567 C1650.5423,775.7733 1654.9711,774.6444 1658.1245,778.7764 C1661.1042,773.6337 1665.607,773.0429 1669.7091,777.409 C1672.8168,771.6034 1677.9637,771.6198 1681.5571,776.8895 C1683.9412,772.4483 1688.8871,771.7759 1691.9199,776.1248 C1696.0327,770.9874 1700.1636,771.2778 1703.9817,776.4691 C1706.3622,771.1892 1711.3898,770.2639 1714.9048,775.2635 C1718.2653,771.1216 1722.4046,771.7239 1724.8664,776.2914 C1729.1354,771.8064 1734.2656,771.4074 1736.7643,778.1649 C1739.8291,773.2601 1743.8101,773.9535 1746.7359,778.3145 C1751.0434,773.1398 1756.4818,773.3393 1759.0893,780.0774 C1761.7415,775.1493 1765.8726,775.3303 1768.8987,779.6823 C1776.5363,783.6713 1778.3558,791.2907 1770.5642,796.7825 C1778.2338,802.6276 1777.4768,807.1995 1769.5742,812.0338 C1766.5258,817.7596 1761.6646,816.3912 1758.8512,811.7898 C1756.1666,817.1048 1751.4831,816.6718 1748.5155,812.0851 C1745.2506,816.9009 1740.0277,817.8336 1736.6782,812.1808 C1733.5603,818.7498 1729.5759,817.8797 1725.2863,813.3875 C1722.1225,818.7807 1718.1603,818.6317 1714.6803,813.7127 C1711.1776,820.2896 1706.1607,819.1404 1702.2092,814.1985 C1698.9854,818.5858 1693.6247,819.155 1691.0103,813.5177 C1688.1162,818.3246 1684.195,818.5911 1681.4583,813.3679 C1678.4684,818.4275 1674.0508,819.7922 1670.4343,814.0047 C1666.377,819.6085 1661.2814,817.7153 1659.0762,812.1255 C1656.2135,817.9021 1651.0238,818.2795 1647.7974,812.4798 C1645.0737,818.2065 1639.5553,819.3847 1635.9462,813.3737 C1625.7865,810.99 1623.4065,805.3711 1627.9195,796.1497 C1623.6275,788.1785 1627.5885,781.023 1636.9511,781.4296 " fill="#F1F1F1" style="stroke:#181818;stroke-width:0.5;"/><text fill="#000000" font-family="sans-serif" font-size="14" lengthAdjust="spacing" textLength="119.0342" x="1642.5" y="801.1426">Linear (Tickets BE)</text></g><!--entity SendGrid--><g id="elem_SendGrid"><path d="M1463.611,780.1226 C1467.4888,774.0651 1471.4805,772.5497 1476.7801,778.5727 C1481.3907,773.7941 1485.5769,773.7692 1489.2327,779.6846 C1491.4244,773.0544 1496.9937,773.097 1501.0811,777.6817 C1504.0445,771.6845 1510.1459,771.7056 1513.5751,777.1741 C1516.2035,770.4115 1521.3992,769.8873 1525.9909,775.1465 C1529.441,770.7908 1535.0428,770.0242 1537.5465,776.1863 C1541.6237,770.1306 1547.0026,769.895 1550.5234,776.7457 C1554.3184,772.1733 1560.2726,773.1658 1562.6596,778.475 C1567.0359,773.1158 1571.8113,773.8832 1574.8092,779.9419 C1579.0482,774.9412 1582.2606,776.0243 1585.7211,780.8099 C1594.4732,782.6359 1596.3653,788.8772 1590.8531,795.6395 C1598.2928,803.1995 1595.0411,807.8632 1586.9278,811.5975 C1583.8876,819.6434 1578.2682,819.8146 1572.8586,814.003 C1569.4435,818.9315 1564.76,819.0333 1562.1756,813.1798 C1559.3323,819.5124 1554.558,820.0165 1550.6431,814.1967 C1547.4868,821.0274 1541.1401,819.5291 1537.853,814.3358 C1534.946,820.7376 1528.9699,820.1867 1525.4535,814.9872 C1522.1676,821.6949 1517.2633,820.4527 1513.5058,815.4692 C1508.2249,821.6687 1503.3099,820.392 1500.0527,813.4047 C1496.0084,819.3304 1491.8323,819.254 1488.3761,812.8479 C1484.8675,819.2381 1479.721,819.4687 1475.7461,813.3174 C1471.8997,817.5725 1468.3689,818.3584 1465.1685,812.6327 C1454.2949,811.6781 1450.8697,806.1452 1454.64,795.9492 C1448.5435,786.7909 1453.4633,780.0731 1463.611,780.1226 " fill="#F1F1F1" style="stroke:#181818;stroke-width:0.5;"/><text fill="#000000" font-family="sans-serif" font-size="14" lengthAdjust="spacing" textLength="107.3652" x="1470.5" y="801.1426">SendGrid (Email)</text></g><g id="elem_GMN48"><path d="M1174,327.1094 L1174,402.5156 L1342.0435,402.5156 L1342.0435,337.1094 L1332.0435,327.1094 L1174,327.1094 " fill="#FEFFDD" style="stroke:#181818;stroke-width:0.5;"/><path d="M1332.0435,327.1094 L1332.0435,337.1094 L1342.0435,337.1094 L1332.0435,327.1094 " fill="#FEFFDD" style="stroke:#181818;stroke-width:1;"/><text fill="#000000" font-family="sans-serif" font-size="13" lengthAdjust="spacing" textLength="88.8735" x="1180" y="345.6045">Uptime : 99.9%</text><text fill="#000000" font-family="sans-serif" font-size="13" lengthAdjust="spacing" textLength="147.0435" x="1180" y="361.9561">Auto-scaling : CPU &gt;70%</text><text fill="#000000" font-family="sans-serif" font-size="13" lengthAdjust="spacing" textLength="128.6353" x="1180" y="378.3076">Load Balancer : Azure</text><text fill="#000000" font-family="sans-serif" font-size="13" lengthAdjust="spacing" textLength="110.1445" x="1180" y="394.6592">SSL : Let's Encrypt</text></g><g id="elem_GMN51"><path d="M2005.5,758.1094 L2005.5,833.5156 L2180.3989,833.5156 L2180.3989,768.1094 L2170.3989,758.1094 L2005.5,758.1094 " fill="#FEFFDD" style="stroke:#181818;stroke-width:0.5;"/><path d="M2170.3989,758.1094 L2170.3989,768.1094 L2180.3989,768.1094 L2170.3989,758.1094 " fill="#FEFFDD" style="stroke:#181818;stroke-width:1;"/><text fill="#000000" font-family="sans-serif" font-size="13" lengthAdjust="spacing" textLength="109.8462" x="2011.5" y="776.6045">Backup : Quotidien</text><text fill="#000000" font-family="sans-serif" font-size="13" lengthAdjust="spacing" textLength="112.7344" x="2011.5" y="792.9561">Retention : 30 jours</text><text fill="#000000" font-family="sans-serif" font-size="13" lengthAdjust="spacing" textLength="77.2827" x="2011.5" y="809.3076">HA : Multi-AZ</text><text fill="#000000" font-family="sans-serif" font-size="13" lengthAdjust="spacing" textLength="153.8989" x="2011.5" y="825.6592">Encryption : TDE AES-256</text></g><g id="elem_GMN54"><path d="M1812,758.1094 L1812,833.5156 L1970.2744,833.5156 L1970.2744,768.1094 L1960.2744,758.1094 L1812,758.1094 " fill="#FEFFDD" style="stroke:#181818;stroke-width:0.5;"/><path d="M1960.2744,758.1094 L1960.2744,768.1094 L1970.2744,768.1094 L1960.2744,758.1094 " fill="#FEFFDD" style="stroke:#181818;stroke-width:1;"/><text fill="#000000" font-family="sans-serif" font-size="13" lengthAdjust="spacing" textLength="79.498" x="1818" y="776.6045">SLA : 99.99%</text><text fill="#000000" font-family="sans-serif" font-size="13" lengthAdjust="spacing" textLength="137.2744" x="1818" y="792.9561">Performance : DTU 100</text><text fill="#000000" font-family="sans-serif" font-size="13" lengthAdjust="spacing" textLength="96.8208" x="1818" y="809.3076">Scaling : Vertical</text><text fill="#000000" font-family="sans-serif" font-size="13" lengthAdjust="spacing" textLength="99.728" x="1818" y="825.6592">Audit : 3 ans logs</text></g><g id="elem_GMN57"><path d="M1112,516.6094 L1112,592.0156 L1276.0762,592.0156 L1276.0762,526.6094 L1266.0762,516.6094 L1112,516.6094 " fill="#FEFFDD" style="stroke:#181818;stroke-width:0.5;"/><path d="M1266.0762,516.6094 L1266.0762,526.6094 L1276.0762,526.6094 L1266.0762,516.6094 " fill="#FEFFDD" style="stroke:#181818;stroke-width:1;"/><text fill="#000000" font-family="sans-serif" font-size="13" lengthAdjust="spacing" textLength="141.6162" x="1118" y="535.1045">Serverless : Pay per use</text><text fill="#000000" font-family="sans-serif" font-size="13" lengthAdjust="spacing" textLength="103.708" x="1118" y="551.4561">Latence : &lt;500ms</text><text fill="#000000" font-family="sans-serif" font-size="13" lengthAdjust="spacing" textLength="106.2217" x="1118" y="567.8076">Concurrency : 200</text><text fill="#000000" font-family="sans-serif" font-size="13" lengthAdjust="spacing" textLength="143.0762" x="1118" y="584.1592">Monitoring : App Insights</text></g><!--link Web to Odoo--><g id="link_Web_Odoo"><path d="M935.55,163.7494 C934.37,174.0794 933.11,185.2694 932,195.6094 C926.71,244.7194 921.6048,295.9979 918.3348,329.3879 " fill="none" id="Web-to-Odoo" style="stroke:#181818;stroke-width:1;"/><polygon fill="#181818" points="917.75,335.3594,922.6082,326.7921,918.2373,330.3832,914.6463,326.0124,917.75,335.3594" style="stroke:#181818;stroke-width:1;"/><text fill="#000000" font-family="sans-serif" font-size="13" lengthAdjust="spacing" textLength="91.749" x="933" y="210.1045">HTTPS/TLS 1.3</text><text fill="#000000" font-family="sans-serif" font-size="13" lengthAdjust="spacing" textLength="58.5381" x="949.6055" y="226.4561">OAuth 2.0</text></g><!--link Mobile to Odoo--><g id="link_Mobile_Odoo"><path d="M807.89,163.6794 C811.8,183.8194 817.93,208.6494 827,229.6094 C844.03,268.9394 868.7636,304.6845 888.6836,330.7145 " fill="none" id="Mobile-to-Odoo" style="stroke:#181818;stroke-width:1;"/><polygon fill="#181818" points="892.33,335.4794,890.037,325.9012,889.2913,331.5087,883.6838,330.763,892.33,335.4794" style="stroke:#181818;stroke-width:1;"/><text fill="#000000" font-family="sans-serif" font-size="13" lengthAdjust="spacing" textLength="91.749" x="828" y="210.1045">HTTPS/TLS 1.3</text><text fill="#000000" font-family="sans-serif" font-size="13" lengthAdjust="spacing" textLength="58.5381" x="844.6055" y="226.4561">OAuth 2.0</text></g><!--link Web to PBI--><g id="link_Web_PBI"><path d="M982.27,147.4194 C1000.16,159.0794 1019.12,175.2794 1029,195.6094 C1053.71,246.4794 1068.53,409.6594 1029,450.1094 C1015.52,463.8994 700.69,453.3594 682,458.1094 C629.16,471.5294 579.3587,498.9587 543.2387,521.8387 " fill="none" id="Web-to-PBI" style="stroke:#181818;stroke-width:1;"/><polygon fill="#181818" points="538.17,525.0494,547.9135,523.6124,542.3939,522.3738,543.6325,516.8542,538.17,525.0494" style="stroke:#181818;stroke-width:1;"/><text fill="#000000" font-family="sans-serif" font-size="13" lengthAdjust="spacing" textLength="42.6118" x="1076.0422" y="362.1045">HTTPS</text><text fill="#000000" font-family="sans-serif" font-size="13" lengthAdjust="spacing" textLength="86.6963" x="1054" y="378.4561">Azure AD SSO</text></g><!--link Odoo to OdooBackend--><g id="link_Odoo_OdooBackend"><path d="M924.28,393.6794 C935.97,429.0294 954.0576,483.7123 965.7676,519.1523 " fill="none" id="Odoo-to-OdooBackend" style="stroke:#181818;stroke-width:1;"/><polygon fill="#181818" points="967.65,524.8494,968.6244,515.0488,966.0813,520.1018,961.0283,517.5587,967.65,524.8494" style="stroke:#181818;stroke-width:1;"/><text fill="#000000" font-family="sans-serif" font-size="13" lengthAdjust="spacing" textLength="85.249" x="943" y="446.6045">Reverse Proxy</text></g><!--link OdooBackend to OdooDB--><g id="link_OdooBackend_OdooDB"><path d="M981.03,583.5194 C987.59,629.7394 999.6571,714.7089 1006.1771,760.6589 " fill="none" id="OdooBackend-to-OdooDB" style="stroke:#181818;stroke-width:1;"/><polygon fill="#181818" points="1007.02,766.5994,1009.716,757.1267,1006.3176,761.649,1001.7953,758.2506,1007.02,766.5994" style="stroke:#181818;stroke-width:1;"/><text fill="#000000" font-family="sans-serif" font-size="13" lengthAdjust="spacing" textLength="101.1436" x="991" y="636.1045">PostgreSQL Wire</text><text fill="#000000" font-family="sans-serif" font-size="13" lengthAdjust="spacing" textLength="58.5317" x="1012.3059" y="652.4561">Encrypted</text></g><!--link OdooBackend to Lireco--><g id="link_OdooBackend_Lireco"><path d="M1030.94,583.1394 C1050.61,592.2094 1073.35,601.3994 1095,607.1094 C1156.77,623.4094 1180.99,592.7794 1238,621.6094 C1295.35,650.6094 1323.8884,719.72 1336.6684,760.82 " fill="none" id="OdooBackend-to-Lireco" style="stroke:#181818;stroke-width:1;"/><polygon fill="#181818" points="1338.45,766.5494,1339.5973,756.7676,1336.9654,761.7749,1331.9581,759.143,1338.45,766.5494" style="stroke:#181818;stroke-width:1;"/><text fill="#000000" font-family="sans-serif" font-size="13" lengthAdjust="spacing" textLength="59.2363" x="1281" y="636.1045">API REST</text><text fill="#000000" font-family="sans-serif" font-size="13" lengthAdjust="spacing" textLength="42.6118" x="1289.3123" y="652.4561">HTTPS</text></g><!--link OdooBackend to Linear--><g id="link_OdooBackend_Linear"><path d="M1029.63,583.1294 C1049.56,592.4294 1072.8,601.7694 1095,607.1094 C1204.94,633.5494 1236.59,609.3894 1349,621.6094 C1465.8,634.3094 1510.39,601.2894 1610,663.6094 C1651.35,689.4794 1676.792,735.9715 1690.252,766.0915 " fill="none" id="OdooBackend-to-Linear" style="stroke:#181818;stroke-width:1;"/><polygon fill="#181818" points="1692.7,771.5694,1692.68,761.7205,1690.66,767.0045,1685.3761,764.9845,1692.7,771.5694" style="stroke:#181818;stroke-width:1;"/><text fill="#000000" font-family="sans-serif" font-size="13" lengthAdjust="spacing" textLength="61.4199" x="1593" y="636.1045">Webhooks</text><text fill="#000000" font-family="sans-serif" font-size="13" lengthAdjust="spacing" textLength="42.6118" x="1602.4041" y="652.4561">HTTPS</text></g><!--link ADF to OdooDB--><g id="link_ADF_OdooDB"><path d="M799.67,583.1594 C830.12,603.6894 870.88,633.1694 903,663.6094 C937.12,695.9494 967.0928,734.0076 987.5228,761.7576 " fill="none" id="ADF-to-OdooDB" style="stroke:#181818;stroke-width:1;"/><polygon fill="#181818" points="991.08,766.5894,988.9653,756.9702,988.1156,762.5629,982.523,761.7132,991.08,766.5894" style="stroke:#181818;stroke-width:1;"/><text fill="#000000" font-family="sans-serif" font-size="13" lengthAdjust="spacing" textLength="40.4536" x="911.7954" y="636.1045">Extract</text><text fill="#000000" font-family="sans-serif" font-size="13" lengthAdjust="spacing" textLength="78.0444" x="893" y="652.4561">Read Replica</text></g><!--link ADF to SAGE--><g id="link_ADF_SAGE"><path d="M813.51,583.2494 C834.84,592.4394 859.56,601.6794 883,607.1094 C930.3,618.0594 1060,595.5994 1101,621.6094 C1153.06,654.6394 1177.7118,720.6161 1188.7518,760.5661 " fill="none" id="ADF-to-SAGE" style="stroke:#181818;stroke-width:1;"/><polygon fill="#181818" points="1190.35,766.3494,1191.8082,756.6091,1189.0182,761.53,1184.0973,758.74,1190.35,766.3494" style="stroke:#181818;stroke-width:1;"/><text fill="#000000" font-family="sans-serif" font-size="13" lengthAdjust="spacing" textLength="70.7954" x="1137" y="636.1045">Extract CSV</text><text fill="#000000" font-family="sans-serif" font-size="13" lengthAdjust="spacing" textLength="33.2236" x="1155.7859" y="652.4561">SFTP</text></g><!--link ADF to DWH--><g id="link_ADF_DWH"><path d="M709.06,583.2994 C665.81,607.5994 598.99,640.9994 536,655.6094 C504.38,662.9394 273.35,649.7594 244,663.6094 C198.2,685.2294 166.4421,729.7119 147.9421,761.3019 " fill="none" id="ADF-to-DWH" style="stroke:#181818;stroke-width:1;"/><polygon fill="#181818" points="144.91,766.4794,152.9098,760.7345,147.4367,762.1648,146.0065,756.6917,144.91,766.4794" style="stroke:#181818;stroke-width:1;"/><text fill="#000000" font-family="sans-serif" font-size="13" lengthAdjust="spacing" textLength="28.9199" x="646.2468" y="636.1045">Load</text><text fill="#000000" font-family="sans-serif" font-size="13" lengthAdjust="spacing" textLength="61.4136" x="630" y="652.4561">Bulk Insert</text></g><!--link ADF to Bronze--><g id="link_ADF_Bronze"><path d="M750.38,583.4794 C747.64,604.4894 746.97,633.2294 758,655.6094 C760.52,660.7194 764.39,659.2094 768,663.6094 C794.02,695.2994 811.8078,732.9922 823.1978,760.9722 " fill="none" id="ADF-to-Bronze" style="stroke:#181818;stroke-width:1;"/><polygon fill="#181818" points="825.46,766.5294,825.7715,756.6854,823.5748,761.8984,818.3619,759.7017,825.46,766.5294" style="stroke:#181818;stroke-width:1;"/><text fill="#000000" font-family="sans-serif" font-size="13" lengthAdjust="spacing" textLength="43.3481" x="763.3418" y="636.1045">Archive</text><text fill="#000000" font-family="sans-serif" font-size="13" lengthAdjust="spacing" textLength="52.0317" x="759" y="652.4561">AES-256</text></g><!--link MLFunc to DWH--><g id="link_MLFunc_DWH"><path d="M213.8,566.5194 C183.4,575.8694 148.4,592.4994 130,621.6094 C102.08,665.7894 110.6286,724.0151 119.9286,760.5151 " fill="none" id="MLFunc-to-DWH" style="stroke:#181818;stroke-width:1;"/><polygon fill="#181818" points="121.41,766.3294,123.064,756.6204,120.1755,761.4842,115.3117,758.5956,121.41,766.3294" style="stroke:#181818;stroke-width:1;"/><text fill="#000000" font-family="sans-serif" font-size="13" lengthAdjust="spacing" textLength="69.3481" x="131" y="636.1045">DirectQuery</text><text fill="#000000" font-family="sans-serif" font-size="13" lengthAdjust="spacing" textLength="26.0127" x="152.6677" y="652.4561">SQL</text></g><!--link MLFunc to DWH--><g id="link_MLFunc_DWH"><path d="M253.39,583.5194 C226.37,629.7394 176.2579,715.4694 149.3979,761.4194 " fill="none" id="MLFunc-to-DWH-1" style="stroke:#181818;stroke-width:1;"/><polygon fill="#181818" points="146.37,766.5994,154.3652,760.8481,148.8933,762.2828,147.4586,756.8109,146.37,766.5994" style="stroke:#181818;stroke-width:1;"/><text fill="#000000" font-family="sans-serif" font-size="13" lengthAdjust="spacing" textLength="98.249" x="229" y="644.1045">Write Predictions</text></g><!--link MLFunc to Models--><g id="link_MLFunc_Models"><path d="M300.76,583.2294 C312.42,594.5994 325.42,608.1994 336,621.6094 C372.45,667.8094 399.3204,725.0501 414.4204,760.8901 " fill="none" id="MLFunc-to-Models" style="stroke:#181818;stroke-width:1;"/><polygon fill="#181818" points="416.75,766.4194,416.9418,756.5724,414.8087,761.8116,409.5694,759.6785,416.75,766.4194" style="stroke:#181818;stroke-width:1;"/><text fill="#000000" font-family="sans-serif" font-size="13" lengthAdjust="spacing" textLength="52.7617" x="358" y="644.1045">Load .pkl</text></g><!--link PBI to DWH--><g id="link_PBI_DWH"><path d="M483.85,583.2694 C471,607.1994 449,640.0594 419,655.6094 C384.44,673.5294 279.05,646.6694 244,663.6094 C198.53,685.5794 166.8141,729.7148 148.2041,761.1848 " fill="none" id="PBI-to-DWH" style="stroke:#181818;stroke-width:1;"/><polygon fill="#181818" points="145.15,766.3494,153.1742,760.6386,147.6951,762.0456,146.2881,756.5665,145.15,766.3494" style="stroke:#181818;stroke-width:1;"/><text fill="#000000" font-family="sans-serif" font-size="13" lengthAdjust="spacing" textLength="69.3481" x="458" y="636.1045">DirectQuery</text><text fill="#000000" font-family="sans-serif" font-size="13" lengthAdjust="spacing" textLength="36.8545" x="474.2468" y="652.4561">OAuth</text></g><!--link Odoo to GMN48--><g id="link_Odoo_GMN48"><path d="M926.32,335.4294 C942.24,298.9894 975.06,238.2994 1025.5,212.6094 C1066.69,191.6294 1087.57,193.1494 1129.5,212.6094 C1179.96,236.0294 1217.78,290.1094 1238.89,327.0194 " fill="none" id="Odoo-GMN48" style="stroke:#181818;stroke-width:1;stroke-dasharray:7.0,7.0;"/></g><!--link OdooDB to GMN51--><g id="link_OdooDB_GMN51"><path d="M1023.89,766.4094 C1042.62,728.1094 1081.36,662.5694 1137.5,635.3594 C1179.14,615.1794 1929.01,614.8494 1970.5,635.3594 C2021.83,660.7294 2057.56,719.0594 2076.68,757.8994 " fill="none" id="OdooDB-GMN51" style="stroke:#181818;stroke-width:1;stroke-dasharray:7.0,7.0;"/></g><!--link DWH to GMN54--><g id="link_DWH_GMN54"><path d="M143.72,766.3794 C163.56,728.0294 204.24,662.4394 261.5,635.3594 C337.53,599.3994 1700.63,597.0294 1775.5,635.3594 C1825.41,660.9094 1858.68,719.1894 1876.21,757.9694 " fill="none" id="DWH-GMN54" style="stroke:#181818;stroke-width:1;stroke-dasharray:7.0,7.0;"/></g><!--link MLFunc to GMN57--><g id="link_MLFunc_GMN57"><path d="M298.13,525.0194 C327.91,496.5194 377.81,454.9394 430.5,437.8594 C496.35,416.5194 988.37,414.4094 1053.5,437.8594 C1096.84,453.4694 1136.3,488.8794 1162.29,516.5494 " fill="none" id="MLFunc-GMN57" style="stroke:#181818;stroke-width:1;stroke-dasharray:7.0,7.0;"/></g><!--SRC=[ZLPjR-8u4FwUNp52EbshFRgqkzrLqMcbX8GMAQWfeQrqGZgvYG4VmOviXrtsrFz-Ct42R2dIzLCPFpFFutbphB05Xv6SQsQihZ9RQGuXBmkrNNDfmVz9Xa6XgXoYHy-JAkVGERHE-48e2KFDPCRXB65Q6FW0OwOD5qN1pplmh-S177hwPGafrnkHSJe5_6FQYZdBB7JkSwKWcYImkVmway_yXU25o9X5dWum0uH0fzUtOP_647usVsy-pUJPPzWCaiS_uF8Bt0OmySVd9vW2bgsupD4bsTebtkG3t5PIP4hBynrR0sf9SsRP2pCxuh3vFPE9CdQXUVeGm-NrJ8wPP0kUdw0E0sIzxg70FLCOd2AXc7kYC_eNdfdcIrKP_ixjmkSxI2tJa6PBlcReSjdhGJXzT6HuV8efADGBkYgDsjkuSrNaN6DKeetPQdTmI1be9N-Ik0dxNcjrLCvyX4v5iU4QqOE2Cybp1tRM8_0jyYFKNs1s5yosQ3BNsDStjn_7CCRMA0mwNPIh0kQYuCOvkOCt3bJYgZHrPaMnRPGxutlDDgnaHXs97jJAN6DuSrm5r87JnJN7wTZrM2CZfXZlnQwJF4H_fRV78QDf38aeUI4aVwFN3uTjlAoUpawYlcFPWj7fUGkPMRuefdEAzQa7E6eara2YbOkQ12CNzRLT0FUocsY-5jWp8Gh6FI4bpngj1nNsRoCOg7LfgVrYB5pM2AMJNw2nq3nJC1cEGeHYysKhXtG7U-f7AmfXi0CgtQIxpXDqQ5E4tAoiAcj7_Bq_7AiNh3-8-_IZBtEjHDvq0fdtmPia6OX-MAunlOwXoMMC2STvEfiAt0OMkoDg9P9zZqjnLTngaSDPjCRQD3TkZ4H6KhlTR_N0Gn_kfjCa_JYDKxYymDrrxrTs2LSNFQzH_N-WRKYiLGkRoMRRXf2czvvNXsXZDHiDiHEEpOk5n7B_s7g7Poqs311siDcUiIGp6SbCRqkSn2EVffPzy9CHJA9qEfEre7U0TKBxLAkbKYlJ0Zriv5_fiI0QQpcJ4yxeqQbVX1siRhGT20Rf4qxbS9hi0BGC-n0hXaiag8eL3gNXskxEtOeYoJfRYWrUpu_IxjNr5yzpOteG9QJhsOUAwosoFCI72BTQ6YgWnNFi_wo5fNJpNBWDudbKjHC4TOcfFz57YyNIWfgtB-1ZQSMQLD_SNDpyXWR4ggx96Aw61Phn1OHlNtjqKki9M46lD6MyRWsqfsbCQhdz7PlULTIZyX3VUwpr- -JM8lezLCgAN729nWct-CL0tm9zm3NoZy81HVETZx_7LM55r_yBVpSa3ZSD8sWJVOhLFLHfx3Vth2-QS3rNUbr_S_JfKGDyt0Ysk_iJbXTRfAYpaWjBge190uLQc9Dakvsyt-dK-smB9QOD7rfA9IuVn_ldTQ-tfaiEbCmgJKj-Y-QhMifOIO6xnwcXBnviEQ8v8FyF]--></g></svg>