<svg xmlns="http://www.w3.org/2000/svg" xmlns:xlink="http://www.w3.org/1999/xlink" contentStyleType="text/css" height="642px" preserveAspectRatio="none" style="width:2682px;height:642px;background:#FFFFFF;" version="1.1" viewBox="0 0 2682 642" width="2682px" zoomAndPan="magnify"><title>Flux Donnees Architecture Cible Gestion Operationnelle</title><defs/><g><text fill="#000000" font-family="sans-serif" font-size="14" font-weight="bold" lengthAdjust="spacing" textLength="374.1855" x="1147.1558" y="24.5332">Flux Donnees Architecture Cible Gestion Operationnelle</text><!--cluster Utilisateurs--><g id="cluster_Utilisateurs"><path d="M1293.5,63.1094 L1370.748,63.1094 A3.75,3.75 0 0 1 1373.248,65.6094 L1380.248,86.7188 L2081.5,86.7188 A2.5,2.5 0 0 1 2084,89.2188 L2084,177.6094 A2.5,2.5 0 0 1 2081.5,180.1094 L1293.5,180.1094 A2.5,2.5 0 0 1 1291,177.6094 L1291,65.6094 A2.5,2.5 0 0 1 1293.5,63.1094 " fill="#E0F7FA" style="stroke:#000000;stroke-width:1.5;"/><line style="stroke:#000000;stroke-width:1.5;" x1="1291" x2="1380.248" y1="86.7188" y2="86.7188"/><text fill="#000000" font-family="sans-serif" font-size="14" font-weight="bold" lengthAdjust="spacing" textLength="76.248" x="1295" y="79.6426">Utilisateurs</text></g><!--cluster Azure Cloud EU France--><g id="cluster_Azure Cloud EU France"><path d="M574.5,298.6094 L731.0791,298.6094 A3.75,3.75 0 0 1 733.5791,301.1094 L740.5791,322.2188 L1868.5,322.2188 A2.5,2.5 0 0 1 1871,324.7188 L1871,632.1094 A2.5,2.5 0 0 1 1868.5,634.6094 L574.5,634.6094 A2.5,2.5 0 0 1 572,632.1094 L572,301.1094 A2.5,2.5 0 0 1 574.5,298.6094 " fill="#E3F2FD" style="stroke:#000000;stroke-width:1.5;"/><line style="stroke:#000000;stroke-width:1.5;" x1="572" x2="740.5791" y1="322.2188" y2="322.2188"/><text fill="#000000" font-family="sans-serif" font-size="14" font-weight="bold" lengthAdjust="spacing" textLength="155.5791" x="576" y="315.1426">Azure Cloud EU France</text></g><!--cluster On-Premise Duret--><g id="cluster_On-Premise Duret"><path d="M2240.5,518.1094 L2360.5342,518.1094 A3.75,3.75 0 0 1 2363.0342,520.6094 L2370.0342,541.7188 L2550.5,541.7188 A2.5,2.5 0 0 1 2553,544.2188 L2553,632.6094 A2.5,2.5 0 0 1 2550.5,635.1094 L2240.5,635.1094 A2.5,2.5 0 0 1 2238,632.6094 L2238,520.6094 A2.5,2.5 0 0 1 2240.5,518.1094 " fill="#FFF8E1" style="stroke:#000000;stroke-width:1.5;"/><line style="stroke:#000000;stroke-width:1.5;" x1="2238" x2="2370.0342" y1="541.7188" y2="541.7188"/><text fill="#000000" font-family="sans-serif" font-size="14" font-weight="bold" lengthAdjust="spacing" textLength="119.0342" x="2242" y="534.6426">On-Premise Duret</text></g><!--cluster Services Externes--><g id="cluster_Services Externes"><path d="M1942.5,518.1094 L2064.1406,518.1094 A3.75,3.75 0 0 1 2066.6406,520.6094 L2073.6406,541.7188 L2211.5,541.7188 A2.5,2.5 0 0 1 2214,544.2188 L2214,632.6094 A2.5,2.5 0 0 1 2211.5,635.1094 L1942.5,635.1094 A2.5,2.5 0 0 1 1940,632.6094 L1940,520.6094 A2.5,2.5 0 0 1 1942.5,518.1094 " fill="#F3E5F5" style="stroke:#000000;stroke-width:1.5;"/><line style="stroke:#000000;stroke-width:1.5;" x1="1940" x2="2073.6406" y1="541.7188" y2="541.7188"/><text fill="#000000" font-family="sans-serif" font-size="14" font-weight="bold" lengthAdjust="spacing" textLength="120.6406" x="1944" y="534.6426">Services Externes</text></g><!--entity DIR--><g id="elem_DIR"><rect fill="#F1F1F1" height="65.2188" rx="2.5" ry="2.5" style="stroke:#181818;stroke-width:0.5;" width="95.2412" x="1635.5" y="99.1094"/><rect fill="#F1F1F1" height="10" style="stroke:#181818;stroke-width:0.5;" width="15" x="1710.7412" y="104.1094"/><rect fill="#F1F1F1" height="2" style="stroke:#181818;stroke-width:0.5;" width="4" x="1708.7412" y="106.1094"/><rect fill="#F1F1F1" height="2" style="stroke:#181818;stroke-width:0.5;" width="4" x="1708.7412" y="110.1094"/><text fill="#000000" font-family="sans-serif" font-size="14" lengthAdjust="spacing" textLength="55.2412" x="1650.5" y="133.6426">Direction</text><text fill="#000000" font-family="sans-serif" font-size="14" lengthAdjust="spacing" textLength="38.1104" x="1650.5" y="151.252">(Web)</text></g><!--entity SYL--><g id="elem_SYL"><rect fill="#F1F1F1" height="65.2188" rx="2.5" ry="2.5" style="stroke:#181818;stroke-width:0.5;" width="78.1104" x="1307" y="99.1094"/><rect fill="#F1F1F1" height="10" style="stroke:#181818;stroke-width:0.5;" width="15" x="1365.1104" y="104.1094"/><rect fill="#F1F1F1" height="2" style="stroke:#181818;stroke-width:0.5;" width="4" x="1363.1104" y="106.1094"/><rect fill="#F1F1F1" height="2" style="stroke:#181818;stroke-width:0.5;" width="4" x="1363.1104" y="110.1094"/><text fill="#000000" font-family="sans-serif" font-size="14" lengthAdjust="spacing" textLength="37.3447" x="1322" y="133.6426">Sylvie</text><text fill="#000000" font-family="sans-serif" font-size="14" lengthAdjust="spacing" textLength="38.1104" x="1322" y="151.252">(Web)</text></g><!--entity RA--><g id="elem_RA"><rect fill="#F1F1F1" height="65.2188" rx="2.5" ry="2.5" style="stroke:#181818;stroke-width:0.5;" width="180.0752" x="1420" y="99.1094"/><rect fill="#F1F1F1" height="10" style="stroke:#181818;stroke-width:0.5;" width="15" x="1580.0752" y="104.1094"/><rect fill="#F1F1F1" height="2" style="stroke:#181818;stroke-width:0.5;" width="4" x="1578.0752" y="106.1094"/><rect fill="#F1F1F1" height="2" style="stroke:#181818;stroke-width:0.5;" width="4" x="1578.0752" y="110.1094"/><text fill="#000000" font-family="sans-serif" font-size="14" lengthAdjust="spacing" textLength="140.0752" x="1435" y="133.6426">Responsables Affaires</text><text fill="#000000" font-family="sans-serif" font-size="14" lengthAdjust="spacing" textLength="95.3066" x="1435" y="151.252">(Web + Mobile)</text></g><!--entity CHEF--><g id="elem_CHEF"><rect fill="#F1F1F1" height="65.2188" rx="2.5" ry="2.5" style="stroke:#181818;stroke-width:0.5;" width="133.3789" x="1765.5" y="99.1094"/><rect fill="#F1F1F1" height="10" style="stroke:#181818;stroke-width:0.5;" width="15" x="1878.8789" y="104.1094"/><rect fill="#F1F1F1" height="2" style="stroke:#181818;stroke-width:0.5;" width="4" x="1876.8789" y="106.1094"/><rect fill="#F1F1F1" height="2" style="stroke:#181818;stroke-width:0.5;" width="4" x="1876.8789" y="110.1094"/><text fill="#000000" font-family="sans-serif" font-size="14" lengthAdjust="spacing" textLength="93.3789" x="1780.5" y="133.6426">Chefs Chantier</text><text fill="#000000" font-family="sans-serif" font-size="14" lengthAdjust="spacing" textLength="50.5654" x="1780.5" y="151.252">(Mobile)</text></g><!--entity ISA--><g id="elem_ISA"><rect fill="#F1F1F1" height="65.2188" rx="2.5" ry="2.5" style="stroke:#181818;stroke-width:0.5;" width="134.1582" x="1934" y="99.1094"/><rect fill="#F1F1F1" height="10" style="stroke:#181818;stroke-width:0.5;" width="15" x="2048.1582" y="104.1094"/><rect fill="#F1F1F1" height="2" style="stroke:#181818;stroke-width:0.5;" width="4" x="2046.1582" y="106.1094"/><rect fill="#F1F1F1" height="2" style="stroke:#181818;stroke-width:0.5;" width="4" x="2046.1582" y="110.1094"/><text fill="#000000" font-family="sans-serif" font-size="14" lengthAdjust="spacing" textLength="94.1582" x="1949" y="133.6426">Isabelle Stocks</text><text fill="#000000" font-family="sans-serif" font-size="14" lengthAdjust="spacing" textLength="87.1172" x="1949" y="151.252">(Mobile RFID)</text></g><!--entity Odoo--><g id="elem_Odoo"><rect fill="#F1F1F1" height="65.2188" rx="2.5" ry="2.5" style="stroke:#181818;stroke-width:0.5;" width="133.3857" x="1721.5" y="334.6094"/><rect fill="#F1F1F1" height="10" style="stroke:#181818;stroke-width:0.5;" width="15" x="1834.8857" y="339.6094"/><rect fill="#F1F1F1" height="2" style="stroke:#181818;stroke-width:0.5;" width="4" x="1832.8857" y="341.6094"/><rect fill="#F1F1F1" height="2" style="stroke:#181818;stroke-width:0.5;" width="4" x="1832.8857" y="345.6094"/><text fill="#000000" font-family="sans-serif" font-size="14" lengthAdjust="spacing" textLength="93.3857" x="1736.5" y="369.1426">Odoo ERP v17</text><text fill="#000000" font-family="sans-serif" font-size="14" lengthAdjust="spacing" textLength="66.9102" x="1736.5" y="386.752">(Web App)</text></g><!--entity PBI--><g id="elem_PBI"><rect fill="#F1F1F1" height="65.2188" rx="2.5" ry="2.5" style="stroke:#181818;stroke-width:0.5;" width="147.3721" x="1131.5" y="334.6094"/><rect fill="#F1F1F1" height="10" style="stroke:#181818;stroke-width:0.5;" width="15" x="1258.8721" y="339.6094"/><rect fill="#F1F1F1" height="2" style="stroke:#181818;stroke-width:0.5;" width="4" x="1256.8721" y="341.6094"/><rect fill="#F1F1F1" height="2" style="stroke:#181818;stroke-width:0.5;" width="4" x="1256.8721" y="345.6094"/><text fill="#000000" font-family="sans-serif" font-size="14" lengthAdjust="spacing" textLength="107.3721" x="1146.5" y="369.1426">Power BI Service</text><text fill="#000000" font-family="sans-serif" font-size="14" lengthAdjust="spacing" textLength="75.4893" x="1146.5" y="386.752">Dashboards</text></g><!--entity Postgres--><g id="elem_Postgres"><path d="M1584,564.6094 C1584,554.6094 1632.1309,554.6094 1632.1309,554.6094 C1632.1309,554.6094 1680.2617,554.6094 1680.2617,564.6094 L1680.2617,608.8281 C1680.2617,618.8281 1632.1309,618.8281 1632.1309,618.8281 C1632.1309,618.8281 1584,618.8281 1584,608.8281 L1584,564.6094 " fill="#F1F1F1" style="stroke:#181818;stroke-width:0.5;"/><path d="M1584,564.6094 C1584,574.6094 1632.1309,574.6094 1632.1309,574.6094 C1632.1309,574.6094 1680.2617,574.6094 1680.2617,564.6094 " fill="none" style="stroke:#181818;stroke-width:0.5;"/><text fill="#000000" font-family="sans-serif" font-size="14" lengthAdjust="spacing" textLength="76.2617" x="1594" y="593.1426">PostgreSQL</text><text fill="#000000" font-family="sans-serif" font-size="14" lengthAdjust="spacing" textLength="57.5859" x="1594" y="610.752">Odoo DB</text></g><!--entity DWH--><g id="elem_DWH"><path d="M893,564.6094 C893,554.6094 955.8999,554.6094 955.8999,554.6094 C955.8999,554.6094 1018.7998,554.6094 1018.7998,564.6094 L1018.7998,608.8281 C1018.7998,618.8281 955.8999,618.8281 955.8999,618.8281 C955.8999,618.8281 893,618.8281 893,608.8281 L893,564.6094 " fill="#F1F1F1" style="stroke:#181818;stroke-width:0.5;"/><path d="M893,564.6094 C893,574.6094 955.8999,574.6094 955.8999,574.6094 C955.8999,574.6094 1018.7998,574.6094 1018.7998,564.6094 " fill="none" style="stroke:#181818;stroke-width:0.5;"/><text fill="#000000" font-family="sans-serif" font-size="14" lengthAdjust="spacing" textLength="105.7998" x="903" y="593.1426">Azure SQL DWH</text><text fill="#000000" font-family="sans-serif" font-size="14" lengthAdjust="spacing" textLength="105.0547" x="903" y="610.752">Data Warehouse</text></g><!--entity Blob--><g id="elem_Blob"><path d="M1193,564.6094 C1193,554.6094 1237.2412,554.6094 1237.2412,554.6094 C1237.2412,554.6094 1281.4824,554.6094 1281.4824,564.6094 L1281.4824,608.8281 C1281.4824,618.8281 1237.2412,618.8281 1237.2412,618.8281 C1237.2412,618.8281 1193,618.8281 1193,608.8281 L1193,564.6094 " fill="#F1F1F1" style="stroke:#181818;stroke-width:0.5;"/><path d="M1193,564.6094 C1193,574.6094 1237.2412,574.6094 1237.2412,574.6094 C1237.2412,574.6094 1281.4824,574.6094 1281.4824,564.6094 " fill="none" style="stroke:#181818;stroke-width:0.5;"/><text fill="#000000" font-family="sans-serif" font-size="14" lengthAdjust="spacing" textLength="68.4824" x="1203" y="593.1426">Azure Blob</text><text fill="#000000" font-family="sans-serif" font-size="14" lengthAdjust="spacing" textLength="63.8203" x="1203" y="610.752">Data Lake</text></g><!--entity ADF--><g id="elem_ADF"><rect fill="#F1F1F1" height="65.2188" rx="2.5" ry="2.5" style="stroke:#181818;stroke-width:0.5;" width="160.5996" x="1467.5" y="334.6094"/><rect fill="#F1F1F1" height="10" style="stroke:#181818;stroke-width:0.5;" width="15" x="1608.0996" y="339.6094"/><rect fill="#F1F1F1" height="2" style="stroke:#181818;stroke-width:0.5;" width="4" x="1606.0996" y="341.6094"/><rect fill="#F1F1F1" height="2" style="stroke:#181818;stroke-width:0.5;" width="4" x="1606.0996" y="345.6094"/><text fill="#000000" font-family="sans-serif" font-size="14" lengthAdjust="spacing" textLength="120.5996" x="1482.5" y="369.1426">Azure Data Factory</text><text fill="#000000" font-family="sans-serif" font-size="14" lengthAdjust="spacing" textLength="86.3789" x="1482.5" y="386.752">ETL Pipelines</text></g><!--entity ML--><g id="elem_ML"><rect fill="#F1F1F1" height="65.2188" rx="2.5" ry="2.5" style="stroke:#181818;stroke-width:0.5;" width="141.1582" x="747.5" y="334.6094"/><rect fill="#F1F1F1" height="10" style="stroke:#181818;stroke-width:0.5;" width="15" x="868.6582" y="339.6094"/><rect fill="#F1F1F1" height="2" style="stroke:#181818;stroke-width:0.5;" width="4" x="866.6582" y="341.6094"/><rect fill="#F1F1F1" height="2" style="stroke:#181818;stroke-width:0.5;" width="4" x="866.6582" y="345.6094"/><text fill="#000000" font-family="sans-serif" font-size="14" lengthAdjust="spacing" textLength="101.1582" x="762.5" y="369.1426">Azure Functions</text><text fill="#000000" font-family="sans-serif" font-size="14" lengthAdjust="spacing" textLength="81.71" x="762.5" y="386.752">ML Inference</text></g><!--entity SAGE--><g id="elem_SAGE"><rect fill="#F1F1F1" height="65.2188" rx="2.5" ry="2.5" style="stroke:#181818;stroke-width:0.5;" width="131.8135" x="2254" y="554.1094"/><rect fill="#F1F1F1" height="10" style="stroke:#181818;stroke-width:0.5;" width="15" x="2365.8135" y="559.1094"/><rect fill="#F1F1F1" height="2" style="stroke:#181818;stroke-width:0.5;" width="4" x="2363.8135" y="561.1094"/><rect fill="#F1F1F1" height="2" style="stroke:#181818;stroke-width:0.5;" width="4" x="2363.8135" y="565.1094"/><text fill="#000000" font-family="sans-serif" font-size="14" lengthAdjust="spacing" textLength="91.8135" x="2269" y="588.6426">SAGE Compta</text><text fill="#000000" font-family="sans-serif" font-size="14" lengthAdjust="spacing" textLength="45.1445" x="2269" y="606.252">Legacy</text></g><!--entity Lireco--><g id="elem_Lireco"><rect fill="#F1F1F1" height="65.2188" rx="2.5" ry="2.5" style="stroke:#181818;stroke-width:0.5;" width="114.6826" x="2421.5" y="554.1094"/><rect fill="#F1F1F1" height="10" style="stroke:#181818;stroke-width:0.5;" width="15" x="2516.1826" y="559.1094"/><rect fill="#F1F1F1" height="2" style="stroke:#181818;stroke-width:0.5;" width="4" x="2514.1826" y="561.1094"/><rect fill="#F1F1F1" height="2" style="stroke:#181818;stroke-width:0.5;" width="4" x="2514.1826" y="565.1094"/><text fill="#000000" font-family="sans-serif" font-size="14" lengthAdjust="spacing" textLength="74.6826" x="2436.5" y="588.6426">Lireco RFID</text><text fill="#000000" font-family="sans-serif" font-size="14" lengthAdjust="spacing" textLength="42.0137" x="2436.5" y="606.252">Stocks</text></g><!--entity Linear--><g id="elem_Linear"><rect fill="#F1F1F1" height="65.2188" rx="2.5" ry="2.5" style="stroke:#181818;stroke-width:0.5;" width="106.9033" x="1956.5" y="554.1094"/><rect fill="#F1F1F1" height="10" style="stroke:#181818;stroke-width:0.5;" width="15" x="2043.4033" y="559.1094"/><rect fill="#F1F1F1" height="2" style="stroke:#181818;stroke-width:0.5;" width="4" x="2041.4033" y="561.1094"/><rect fill="#F1F1F1" height="2" style="stroke:#181818;stroke-width:0.5;" width="4" x="2041.4033" y="565.1094"/><text fill="#000000" font-family="sans-serif" font-size="14" lengthAdjust="spacing" textLength="38.917" x="1971.5" y="588.6426">Linear</text><text fill="#000000" font-family="sans-serif" font-size="14" lengthAdjust="spacing" textLength="66.9033" x="1971.5" y="606.252">Tickets BE</text></g><!--entity SendGrid--><g id="elem_SendGrid"><rect fill="#F1F1F1" height="65.2188" rx="2.5" ry="2.5" style="stroke:#181818;stroke-width:0.5;" width="99.1445" x="2098.5" y="554.1094"/><rect fill="#F1F1F1" height="10" style="stroke:#181818;stroke-width:0.5;" width="15" x="2177.6445" y="559.1094"/><rect fill="#F1F1F1" height="2" style="stroke:#181818;stroke-width:0.5;" width="4" x="2175.6445" y="561.1094"/><rect fill="#F1F1F1" height="2" style="stroke:#181818;stroke-width:0.5;" width="4" x="2175.6445" y="565.1094"/><text fill="#000000" font-family="sans-serif" font-size="14" lengthAdjust="spacing" textLength="59.1445" x="2113.5" y="588.6426">SendGrid</text><text fill="#000000" font-family="sans-serif" font-size="14" lengthAdjust="spacing" textLength="35.0068" x="2113.5" y="606.252">Email</text></g><g id="elem_N1"><path d="M6,44.6094 L6,218.125 L284.0483,218.125 L284.0483,54.6094 L274.0483,44.6094 L6,44.6094 " fill="#FEFFDD" style="stroke:#181818;stroke-width:0.5;"/><path d="M274.0483,44.6094 L274.0483,54.6094 L284.0483,54.6094 L274.0483,44.6094 " fill="#FEFFDD" style="stroke:#181818;stroke-width:1;"/><text fill="#000000" font-family="sans-serif" font-size="13" font-weight="bold" lengthAdjust="spacing" textLength="181.3271" x="12" y="63.1045">Flux Principaux Temps Reel :</text><text fill="#000000" font-family="sans-serif" font-size="13" lengthAdjust="spacing" textLength="215.833" x="12" y="79.4561">1. Direction &#226;&#8224;&#8217; Odoo (CRUD affaires)</text><text fill="#000000" font-family="sans-serif" font-size="13" lengthAdjust="spacing" textLength="253.4175" x="12" y="95.8076">2. RA &#226;&#8224;&#8217; Odoo (Gestion ses affaires RBAC)</text><text fill="#000000" font-family="sans-serif" font-size="13" lengthAdjust="spacing" textLength="251.2783" x="12" y="112.1592">3. Chef &#226;&#8224;&#8217; Odoo Mobile (Consulte chantier)</text><text fill="#000000" font-family="sans-serif" font-size="13" lengthAdjust="spacing" textLength="252.7129" x="12" y="128.5107">4. Isabelle &#226;&#8224;&#8217; RFID (Scan reception 45 sec)</text><text fill="#000000" font-family="sans-serif" font-size="13" lengthAdjust="spacing" textLength="199.9639" x="12" y="144.8623">5. Odoo &#226;&#8224;&#8217; Postgres (Persistance)</text><text fill="#000000" font-family="sans-serif" font-size="13" lengthAdjust="spacing" textLength="257.0483" x="12" y="161.2139">6. ETL &#226;&#8224;&#8217; DWH (Quotidien 6h consolidation)</text><text fill="#000000" font-family="sans-serif" font-size="13" lengthAdjust="spacing" textLength="252.7065" x="12" y="177.5654">7. ML &#226;&#8224;&#8217; DWH (Quotidien 6h30 predictions)</text><text fill="#000000" font-family="sans-serif" font-size="13" lengthAdjust="spacing" textLength="234.5903" x="12" y="193.917">8. PBI &#226;&#8224;&#8217; DWH (DirectQuery temps reel)</text><text fill="#000000" font-family="sans-serif" font-size="13" lengthAdjust="spacing" textLength="252.6938" x="12" y="210.2686">9. Direction/Sylvie &#226;&#8224;&#8217; PBI (Dashboards live)</text></g><g id="elem_N2"><path d="M319.5,61.1094 L319.5,201.9219 L554.3398,201.9219 L554.3398,71.1094 L544.3398,61.1094 L319.5,61.1094 " fill="#FEFFDD" style="stroke:#181818;stroke-width:0.5;"/><path d="M544.3398,61.1094 L544.3398,71.1094 L554.3398,71.1094 L544.3398,61.1094 " fill="#FEFFDD" style="stroke:#181818;stroke-width:1;"/><text fill="#000000" font-family="sans-serif" font-size="13" font-weight="bold" lengthAdjust="spacing" textLength="59.2427" x="325.5" y="79.6045">Securite :</text><text fill="#000000" font-family="sans-serif" font-size="13" lengthAdjust="spacing" textLength="101.1372" x="325.5" y="95.9561">- TLS 1.3 (transit)</text><text fill="#000000" font-family="sans-serif" font-size="13" lengthAdjust="spacing" textLength="104.7617" x="325.5" y="112.3076">- AES-256 (repos)</text><text fill="#000000" font-family="sans-serif" font-size="13" lengthAdjust="spacing" textLength="108.0054" x="325.5" y="128.6592">- OAuth 2.0 + JWT</text><text fill="#000000" font-family="sans-serif" font-size="13" lengthAdjust="spacing" textLength="97.5381" x="325.5" y="145.0107">- MFA disponible</text><text fill="#000000" font-family="sans-serif" font-size="13" lengthAdjust="spacing" textLength="130.7617" x="325.5" y="161.3623">- RBAC Odoo (8 roles)</text><text fill="#000000" font-family="sans-serif" font-size="13" lengthAdjust="spacing" textLength="213.8398" x="325.5" y="177.7139">- RLS Power BI (Row-Level Security)</text><text fill="#000000" font-family="sans-serif" font-size="13" lengthAdjust="spacing" textLength="191.4517" x="325.5" y="194.0654">- Audit Trail 3 ans (Elasticsearch)</text></g><g id="elem_N3"><path d="M34.5,313.1094 L34.5,421.2188 L255.2988,421.2188 L255.2988,323.1094 L245.2988,313.1094 L34.5,313.1094 " fill="#FEFFDD" style="stroke:#181818;stroke-width:0.5;"/><path d="M245.2988,313.1094 L245.2988,323.1094 L255.2988,323.1094 L245.2988,313.1094 " fill="#FEFFDD" style="stroke:#181818;stroke-width:1;"/><text fill="#000000" font-family="sans-serif" font-size="13" font-weight="bold" lengthAdjust="spacing" textLength="87.4199" x="40.5" y="331.6045">Performance :</text><text fill="#000000" font-family="sans-serif" font-size="13" lengthAdjust="spacing" textLength="136.2144" x="40.5" y="347.9561">- Latence API : &lt;500ms</text><text fill="#000000" font-family="sans-serif" font-size="13" lengthAdjust="spacing" textLength="199.7988" x="40.5" y="364.3076">- Dashboards : &lt;2 sec chargement</text><text fill="#000000" font-family="sans-serif" font-size="13" lengthAdjust="spacing" textLength="96.8145" x="40.5" y="380.6592">- Uptime : 99.9%</text><text fill="#000000" font-family="sans-serif" font-size="13" lengthAdjust="spacing" textLength="132.9453" x="40.5" y="397.0107">- Concurrent users : 50</text><text fill="#000000" font-family="sans-serif" font-size="13" lengthAdjust="spacing" textLength="154.9844" x="40.5" y="413.3623">- Auto-scaling : CPU &gt;70%</text></g><g id="elem_N4"><path d="M290.5,313.1094 L290.5,421.2188 L555.7134,421.2188 L555.7134,323.1094 L545.7134,313.1094 L290.5,313.1094 " fill="#FEFFDD" style="stroke:#181818;stroke-width:0.5;"/><path d="M545.7134,313.1094 L545.7134,323.1094 L555.7134,323.1094 L545.7134,313.1094 " fill="#FEFFDD" style="stroke:#181818;stroke-width:1;"/><text fill="#000000" font-family="sans-serif" font-size="13" font-weight="bold" lengthAdjust="spacing" textLength="133.6245" x="296.5" y="331.6045">Volumes Quotidiens :</text><text fill="#000000" font-family="sans-serif" font-size="13" lengthAdjust="spacing" textLength="143.438" x="296.5" y="347.9561">- Affaires nouvelles : ~50</text><text fill="#000000" font-family="sans-serif" font-size="13" lengthAdjust="spacing" textLength="170.8916" x="296.5" y="364.3076">- Heures saisies : ~300 lignes</text><text fill="#000000" font-family="sans-serif" font-size="13" lengthAdjust="spacing" textLength="125.3789" x="296.5" y="380.6592">- Achats : ~100 lignes</text><text fill="#000000" font-family="sans-serif" font-size="13" lengthAdjust="spacing" textLength="162.9316" x="296.5" y="397.0107">- Mouvements stocks : ~200</text><text fill="#000000" font-family="sans-serif" font-size="13" lengthAdjust="spacing" textLength="244.2134" x="296.5" y="413.3623">- Predictions ML : Toutes affaires en cours</text></g><!--link DIR to Odoo--><g id="link_DIR_Odoo"><path d="M1697.38,164.5894 C1717.49,209.2994 1751.3198,284.5369 1771.3298,329.0469 " fill="none" id="DIR-to-Odoo" style="stroke:#181818;stroke-width:1;"/><polygon fill="#181818" points="1773.79,334.5194,1773.748,324.6706,1771.7398,329.959,1766.4514,327.9509,1773.79,334.5194" style="stroke:#181818;stroke-width:1;"/><text fill="#000000" font-family="sans-serif" font-size="13" lengthAdjust="spacing" textLength="104.7617" x="1748" y="263.1045">HTTPS OAuth 2.0</text><text fill="#000000" font-family="sans-serif" font-size="13" lengthAdjust="spacing" textLength="85.2363" x="1757.7627" y="279.4561">CRUD Affaires</text></g><!--link DIR to PBI--><g id="link_DIR_PBI"><path d="M1662.2,164.2394 C1635.13,204.2594 1588.21,269.5694 1562,282.6094 C1539.66,293.7194 1474.53,286.0194 1450,290.6094 C1391.27,301.6094 1332.4256,319.8544 1284.3456,336.6144 " fill="none" id="DIR-to-PBI" style="stroke:#181818;stroke-width:1;"/><polygon fill="#181818" points="1278.68,338.5894,1288.4951,339.404,1283.4014,336.9436,1285.8618,331.8498,1278.68,338.5894" style="stroke:#181818;stroke-width:1;"/><text fill="#000000" font-family="sans-serif" font-size="13" lengthAdjust="spacing" textLength="101.8545" x="1610.5845" y="263.1045">HTTPS Azure AD</text><text fill="#000000" font-family="sans-serif" font-size="13" lengthAdjust="spacing" textLength="125.0234" x="1599" y="279.4561">Consulte KPI globaux</text></g><!--link SYL to Odoo--><g id="link_SYL_Odoo"><path d="M1306.84,137.4594 C1206.53,151.2694 954.08,195.5494 1040,282.6094 C1051.83,294.5894 1629.69,286.4294 1646,290.6094 C1680.21,299.3794 1710.1852,314.7664 1736.9152,331.2764 " fill="none" id="SYL-to-Odoo" style="stroke:#181818;stroke-width:1;"/><polygon fill="#181818" points="1742.02,334.4294,1736.4649,326.2967,1737.766,331.8019,1732.2609,333.1031,1742.02,334.4294" style="stroke:#181818;stroke-width:1;"/><text fill="#000000" font-family="sans-serif" font-size="13" lengthAdjust="spacing" textLength="104.7617" x="1064.1213" y="263.1045">HTTPS OAuth 2.0</text><text fill="#000000" font-family="sans-serif" font-size="13" lengthAdjust="spacing" textLength="151.0044" x="1041" y="279.4561">CRUD Compta Analytique</text></g><!--link SYL to PBI--><g id="link_SYL_PBI"><path d="M1306.9,134.8594 C1193.65,142.2794 869.43,170.1094 806,248.6094 C796.5,260.3594 795.75,271.5094 806,282.6094 C813.56,290.7994 895,288.7894 906,290.6094 C983.92,303.4694 1065.5435,324.9218 1125.6235,342.1918 " fill="none" id="SYL-to-PBI" style="stroke:#181818;stroke-width:1;"/><polygon fill="#181818" points="1131.39,343.8494,1123.8453,337.5187,1126.5846,342.4681,1121.6352,345.2073,1131.39,343.8494" style="stroke:#181818;stroke-width:1;"/><text fill="#000000" font-family="sans-serif" font-size="13" lengthAdjust="spacing" textLength="101.8545" x="833.0286" y="263.1045">HTTPS Azure AD</text><text fill="#000000" font-family="sans-serif" font-size="13" lengthAdjust="spacing" textLength="153.9116" x="807" y="279.4561">Genere rapports mensuels</text></g><!--link RA to Odoo--><g id="link_RA_Odoo"><path d="M1465.41,164.1694 C1440.14,184.9194 1410.87,214.4894 1397,248.6094 C1391.31,262.6094 1386.49,271.7494 1397,282.6094 C1406.63,292.5494 1632.63,287.0494 1646,290.6094 C1679.99,299.6694 1709.8052,314.9627 1736.5152,331.3427 " fill="none" id="RA-to-Odoo" style="stroke:#181818;stroke-width:1;"/><polygon fill="#181818" points="1741.63,334.4794,1736.0489,326.3645,1737.3677,331.8655,1731.8667,333.1842,1741.63,334.4794" style="stroke:#181818;stroke-width:1;"/><text fill="#000000" font-family="sans-serif" font-size="13" lengthAdjust="spacing" textLength="104.7617" x="1425.4377" y="263.1045">HTTPS OAuth 2.0</text><text fill="#000000" font-family="sans-serif" font-size="13" lengthAdjust="spacing" textLength="159.6372" x="1398" y="279.4561">CRUD Ses Affaires (RBAC)</text></g><!--link RA to PBI--><g id="link_RA_PBI"><path d="M1479.68,164.1494 C1459.7,182.9994 1431.95,205.6994 1403,218.6094 C1327.32,252.3394 1276.32,188.7694 1219,248.6094 C1197.47,271.0894 1195.8868,302.1429 1198.6968,328.6229 " fill="none" id="RA-to-PBI" style="stroke:#181818;stroke-width:1;"/><polygon fill="#181818" points="1199.33,334.5894,1202.3579,325.2175,1198.8024,329.6173,1194.4026,326.0617,1199.33,334.5894" style="stroke:#181818;stroke-width:1;"/><text fill="#000000" font-family="sans-serif" font-size="13" lengthAdjust="spacing" textLength="101.8545" x="1249.9927" y="263.1045">HTTPS Azure AD</text><text fill="#000000" font-family="sans-serif" font-size="13" lengthAdjust="spacing" textLength="161.8398" x="1220" y="279.4561">Consulte Ses Marges (RLS)</text></g><!--link CHEF to Odoo--><g id="link_CHEF_Odoo"><path d="M1854.76,164.3494 C1870.12,183.2694 1892.09,205.9894 1917,218.6094 C2001.39,261.3694 2178.17,207.9994 2120,282.6094 C2087.75,323.9694 1948.1135,347.2442 1860.7935,358.1742 " fill="none" id="CHEF-to-Odoo" style="stroke:#181818;stroke-width:1;"/><polygon fill="#181818" points="1854.84,358.9194,1864.2671,361.7706,1859.8013,358.2984,1863.2735,353.8325,1854.84,358.9194" style="stroke:#181818;stroke-width:1;"/><text fill="#000000" font-family="sans-serif" font-size="13" lengthAdjust="spacing" textLength="111.2617" x="2165.9631" y="263.1045">Mobile App HTTPS</text><text fill="#000000" font-family="sans-serif" font-size="13" lengthAdjust="spacing" textLength="179.188" x="2132" y="279.4561">Consulte Son Chantier (RBAC)</text></g><!--link CHEF to PBI--><g id="link_CHEF_PBI"><path d="M1852,164.1494 C1870.74,198.0794 1891.64,251.3594 1861,282.6094 C1853,290.7594 1461.27,288.7994 1450,290.6094 C1391,300.0794 1332.1596,318.3589 1284.1496,335.5289 " fill="none" id="CHEF-to-PBI" style="stroke:#181818;stroke-width:1;"/><polygon fill="#181818" points="1278.5,337.5494,1288.3213,338.285,1283.208,335.8656,1285.6274,330.7523,1278.5,337.5494" style="stroke:#181818;stroke-width:1;"/><text fill="#000000" font-family="sans-serif" font-size="13" lengthAdjust="spacing" textLength="114.8608" x="1920.4495" y="263.1045">Mobile Web HTTPS</text><text fill="#000000" font-family="sans-serif" font-size="13" lengthAdjust="spacing" textLength="203.7598" x="1876" y="279.4561">Consulte Budget Consomme (RLS)</text></g><!--link ISA to Odoo--><g id="link_ISA_Odoo"><path d="M2068.3,139.6994 C2182.69,154.3194 2395.68,194.1294 2320,282.6094 C2260.83,351.7894 1989.7994,363.9511 1860.6294,365.8511 " fill="none" id="ISA-to-Odoo" style="stroke:#181818;stroke-width:1;"/><polygon fill="#181818" points="1854.63,365.9394,1863.6879,369.8066,1859.6295,365.8658,1863.5702,361.8074,1854.63,365.9394" style="stroke:#181818;stroke-width:1;"/><text fill="#000000" font-family="sans-serif" font-size="13" lengthAdjust="spacing" textLength="111.2617" x="2347.9209" y="263.1045">Mobile App HTTPS</text><text fill="#000000" font-family="sans-serif" font-size="13" lengthAdjust="spacing" textLength="135.1035" x="2336" y="279.4561">Reception Stocks RFID</text></g><!--link ISA to Lireco--><g id="link_ISA_Lireco"><path d="M2068.01,139.8994 C2186.04,154.1294 2423.89,189.4994 2480,248.6094 C2558.43,331.2394 2542.69,390.8894 2518,502.1094 C2514.01,520.0694 2508.5213,533.4329 2500.6113,548.5529 " fill="none" id="ISA-to-Lireco" style="stroke:#181818;stroke-width:1;"/><polygon fill="#181818" points="2497.83,553.8694,2505.5462,547.7489,2500.1477,549.439,2498.4576,544.0405,2497.83,553.8694" style="stroke:#181818;stroke-width:1;"/><text fill="#000000" font-family="sans-serif" font-size="13" lengthAdjust="spacing" textLength="63.5718" x="2574.9626" y="364.6045">Scan RFID</text><text fill="#000000" font-family="sans-serif" font-size="13" lengthAdjust="spacing" textLength="135.4971" x="2539" y="380.9561">Portiques + Douchettes</text></g><!--link Odoo to Postgres--><g id="link_Odoo_Postgres"><path d="M1767.76,399.7194 C1749.95,427.1794 1723.02,467.8094 1698,502.1094 C1685.15,519.7294 1673.8925,534.1657 1661.4225,549.6557 " fill="none" id="Odoo-to-Postgres" style="stroke:#181818;stroke-width:1;"/><polygon fill="#181818" points="1657.66,554.3294,1666.4196,549.8271,1660.7954,550.4346,1660.1879,544.8105,1657.66,554.3294" style="stroke:#181818;stroke-width:1;"/><text fill="#000000" font-family="sans-serif" font-size="13" lengthAdjust="spacing" textLength="101.1436" x="1734" y="474.1045">PostgreSQL Wire</text><text fill="#000000" font-family="sans-serif" font-size="13" lengthAdjust="spacing" textLength="99.6963" x="1734.7236" y="490.4561">CRUD Encrypted</text></g><!--link Odoo to Lireco--><g id="link_Odoo_Lireco"><path d="M1854.84,373.0894 C1947.25,381.4894 2118.23,402.5994 2256,451.1094 C2300.46,466.7694 2304.3,487.1494 2349,502.1094 C2372.42,509.9494 2381.94,498.9994 2404,510.1094 C2424.3,520.3294 2438.525,533.5785 2451.865,549.3485 " fill="none" id="Odoo-to-Lireco" style="stroke:#181818;stroke-width:1;"/><polygon fill="#181818" points="2455.74,553.9294,2452.9814,544.4747,2452.5108,550.112,2446.8736,549.6414,2455.74,553.9294" style="stroke:#181818;stroke-width:1;"/><text fill="#000000" font-family="sans-serif" font-size="13" lengthAdjust="spacing" textLength="105.46" x="2378.9199" y="474.1045">API REST HTTPS</text><text fill="#000000" font-family="sans-serif" font-size="13" lengthAdjust="spacing" textLength="163.2998" x="2350" y="490.4561">Sync Stocks Bidirectionnelle</text></g><!--link Odoo to Linear--><g id="link_Odoo_Linear"><path d="M1854.89,383.4394 C1893.87,395.6394 1941.09,416.5594 1971,451.1094 C1996.06,480.0594 2004.4083,518.3338 2007.6083,548.0838 " fill="none" id="Odoo-to-Linear" style="stroke:#181818;stroke-width:1;"/><polygon fill="#181818" points="2008.25,554.0494,2011.2645,544.6732,2007.7153,549.0781,2003.3104,545.5288,2008.25,554.0494" style="stroke:#181818;stroke-width:1;"/><text fill="#000000" font-family="sans-serif" font-size="13" lengthAdjust="spacing" textLength="107.6436" x="1998" y="474.1045">Webhooks HTTPS</text><text fill="#000000" font-family="sans-serif" font-size="13" lengthAdjust="spacing" textLength="94.6372" x="2004.5032" y="490.4561">Sync Tickets BE</text></g><!--link Odoo to SendGrid--><g id="link_Odoo_SendGrid"><path d="M1854.78,376.9694 C1939.21,389.5094 2077.95,414.9994 2114,451.1094 C2141.06,478.2094 2147.4054,517.5332 2148.4954,547.9932 " fill="none" id="Odoo-to-SendGrid" style="stroke:#181818;stroke-width:1;"/><polygon fill="#181818" points="2148.71,553.9894,2152.3856,544.8521,2148.5312,548.9926,2144.3907,545.1382,2148.71,553.9894" style="stroke:#181818;stroke-width:1;"/><text fill="#000000" font-family="sans-serif" font-size="13" lengthAdjust="spacing" textLength="67.1772" x="2160.8745" y="474.1045">API HTTPS</text><text fill="#000000" font-family="sans-serif" font-size="13" lengthAdjust="spacing" textLength="106.9263" x="2141" y="490.4561">Notifications Email</text></g><!--link ADF to Postgres--><g id="link_ADF_Postgres"><path d="M1567.18,399.6494 C1575.86,414.8294 1585.78,433.5194 1593,451.1094 C1607.13,485.5194 1616.8885,521.0078 1623.5885,548.6878 " fill="none" id="ADF-to-Postgres" style="stroke:#181818;stroke-width:1;"/><polygon fill="#181818" points="1625,554.5194,1626.7704,544.8309,1623.8237,549.6597,1618.9949,546.713,1625,554.5194" style="stroke:#181818;stroke-width:1;"/><text fill="#000000" font-family="sans-serif" font-size="13" lengthAdjust="spacing" textLength="40.4536" x="1629.7954" y="465.6045">Extract</text><text fill="#000000" font-family="sans-serif" font-size="13" lengthAdjust="spacing" textLength="78.0444" x="1611" y="481.9561">Read Replica</text><text fill="#000000" font-family="sans-serif" font-size="13" lengthAdjust="spacing" textLength="73.7217" x="1613.1614" y="498.3076">Quotidien 6h</text></g><!--link ADF to SAGE--><g id="link_ADF_SAGE"><path d="M1628.81,397.5594 C1652.83,405.7694 1679.32,414.2994 1704,421.1094 C1765.34,438.0394 1789.26,418.6694 1844,451.1094 C1869.75,466.3694 1860.94,489.3094 1888,502.1094 C1920.76,517.5994 2179.63,498.6494 2214,510.1094 C2241.01,519.1094 2262.5142,533.6821 2282.0542,550.0821 " fill="none" id="ADF-to-SAGE" style="stroke:#181818;stroke-width:1;"/><polygon fill="#181818" points="2286.65,553.9394,2282.3278,545.0896,2282.8202,550.725,2277.1848,551.2173,2286.65,553.9394" style="stroke:#181818;stroke-width:1;"/><text fill="#000000" font-family="sans-serif" font-size="13" lengthAdjust="spacing" textLength="70.7954" x="1890.4631" y="465.6045">Extract CSV</text><text fill="#000000" font-family="sans-serif" font-size="13" lengthAdjust="spacing" textLength="33.2236" x="1909.249" y="481.9561">SFTP</text><text fill="#000000" font-family="sans-serif" font-size="13" lengthAdjust="spacing" textLength="73.7217" x="1889" y="498.3076">Quotidien 7h</text></g><!--link ADF to DWH--><g id="link_ADF_DWH"><path d="M1467.48,389.8194 C1429.43,402.9894 1385.2,422.8394 1352,451.1094 C1331.63,468.4594 1343.05,488.5094 1320,502.1094 C1306.2,510.2494 1191.73,507.0394 1176,510.1094 C1121.71,520.7194 1068.1001,539.3944 1024.8001,556.5044 " fill="none" id="ADF-to-DWH" style="stroke:#181818;stroke-width:1;"/><polygon fill="#181818" points="1019.22,558.7094,1029.0602,559.122,1023.8701,556.8719,1026.1202,551.6818,1019.22,558.7094" style="stroke:#181818;stroke-width:1;"/><text fill="#000000" font-family="sans-serif" font-size="13" lengthAdjust="spacing" textLength="57.8208" x="1368.1804" y="465.6045">Load Bulk</text><text fill="#000000" font-family="sans-serif" font-size="13" lengthAdjust="spacing" textLength="75.1436" x="1359.519" y="481.9561">Star Schema</text><text fill="#000000" font-family="sans-serif" font-size="13" lengthAdjust="spacing" textLength="88.1816" x="1353" y="498.3076">Quotidien 6h30</text></g><!--link ADF to Blob--><g id="link_ADF_Blob"><path d="M1521.44,399.7894 C1509.05,414.9994 1494.34,433.6794 1482,451.1094 C1466.54,472.9494 1470.6,485.0394 1450,502.1094 C1400.15,543.4194 1333.2692,564.5997 1287.0092,575.5297 " fill="none" id="ADF-to-Blob" style="stroke:#181818;stroke-width:1;"/><polygon fill="#181818" points="1281.17,576.9094,1290.8486,578.7327,1286.036,575.7597,1289.0091,570.9471,1281.17,576.9094" style="stroke:#181818;stroke-width:1;"/><text fill="#000000" font-family="sans-serif" font-size="13" lengthAdjust="spacing" textLength="43.3481" x="1511.9136" y="465.6045">Archive</text><text fill="#000000" font-family="sans-serif" font-size="13" lengthAdjust="spacing" textLength="101.1753" x="1483" y="481.9561">Parquet AES-256</text><text fill="#000000" font-family="sans-serif" font-size="13" lengthAdjust="spacing" textLength="55.6499" x="1505.7627" y="498.3076">Quotidien</text></g><!--link ML to Blob--><g id="link_ML_Blob"><path d="M878.37,399.7994 C901.2,413.6094 926.39,431.2094 946,451.1094 C964.78,470.1694 955.51,487.6094 978,502.1094 C1000.24,516.4494 1011.35,503.6194 1037,510.1094 C1092.05,524.0394 1147.2322,545.9094 1187.1522,563.1594 " fill="none" id="ML-to-Blob" style="stroke:#181818;stroke-width:1;"/><polygon fill="#181818" points="1192.66,565.5394,1185.985,558.2975,1188.0702,563.556,1182.8117,565.6412,1192.66,565.5394" style="stroke:#181818;stroke-width:1;"/><text fill="#000000" font-family="sans-serif" font-size="13" lengthAdjust="spacing" textLength="74.439" x="979" y="474.1045">Load Models</text><text fill="#000000" font-family="sans-serif" font-size="13" lengthAdjust="spacing" textLength="46.96" x="992.7395" y="490.4561">.pkl files</text></g><!--link ML to DWH--><g id="link_ML_DWH"><path d="M747.36,385.6394 C674.57,407.1194 577.3,447.4994 620,502.1094 C653.23,544.6094 799.0926,567.8453 886.8626,578.3653 " fill="none" id="ML-to-DWH" style="stroke:#181818;stroke-width:1;"/><polygon fill="#181818" points="892.82,579.0794,884.36,574.0367,887.8555,578.4843,883.4079,581.9799,892.82,579.0794" style="stroke:#181818;stroke-width:1;"/><text fill="#000000" font-family="sans-serif" font-size="13" lengthAdjust="spacing" textLength="83.8271" x="656.0359" y="474.1045">Inference SQL</text><text fill="#000000" font-family="sans-serif" font-size="13" lengthAdjust="spacing" textLength="153.8989" x="621" y="490.4561">Predictions CA, Anomalies</text></g><!--link ML to DWH--><g id="link_ML_DWH"><path d="M808.56,399.8694 C801.98,428.5394 797.2,470.8794 815,502.1094 C831.84,531.6494 858.2066,549.3413 887.3766,562.4413 " fill="none" id="ML-to-DWH-1" style="stroke:#181818;stroke-width:1;"/><polygon fill="#181818" points="892.85,564.8994,886.2786,557.5634,888.2888,562.851,883.0012,564.8612,892.85,564.8994" style="stroke:#181818;stroke-width:1;"/><text fill="#000000" font-family="sans-serif" font-size="13" lengthAdjust="spacing" textLength="77.2891" x="840.2195" y="474.1045">Write Results</text><text fill="#000000" font-family="sans-serif" font-size="13" lengthAdjust="spacing" textLength="125.728" x="816" y="490.4561">Table ML_Predictions</text></g><!--link PBI to DWH--><g id="link_PBI_DWH"><path d="M1158.26,399.6694 C1138.54,414.1394 1116.03,432.2494 1098,451.1094 C1078.83,471.1694 1081.1,481.9794 1062,502.1094 C1043.78,521.3094 1025.8049,536.2493 1006.0349,550.9493 " fill="none" id="PBI-to-DWH" style="stroke:#181818;stroke-width:1;"/><polygon fill="#181818" points="1001.22,554.5294,1010.829,552.3691,1005.2324,551.546,1006.0556,545.9493,1001.22,554.5294" style="stroke:#181818;stroke-width:1;"/><text fill="#000000" font-family="sans-serif" font-size="13" lengthAdjust="spacing" textLength="69.3481" x="1099.365" y="474.1045">DirectQuery</text><text fill="#000000" font-family="sans-serif" font-size="13" lengthAdjust="spacing" textLength="70.0781" x="1099" y="490.4561">Temps Reel</text></g><!--link PBI to Postgres--><g id="link_PBI_Postgres"><path d="M1195.64,399.6794 C1188.76,430.0694 1184.52,475.2594 1210,502.1094 C1216.83,509.3094 1289.19,508.5594 1299,510.1094 C1401.48,526.2594 1513.6578,554.0814 1578.0578,571.0414 " fill="none" id="PBI-to-Postgres" style="stroke:#181818;stroke-width:1;"/><polygon fill="#181818" points="1583.86,572.5694,1576.1754,566.4092,1579.0249,571.296,1574.1381,574.1455,1583.86,572.5694" style="stroke:#181818;stroke-width:1;"/><text fill="#000000" font-family="sans-serif" font-size="13" lengthAdjust="spacing" textLength="36.8418" x="1244.9695" y="474.1045">Import</text><text fill="#000000" font-family="sans-serif" font-size="13" lengthAdjust="spacing" textLength="104.7808" x="1211" y="490.4561">Refresh Quotidien</text></g><!--SRC=[XLRTRjis5BxNKnnqAE1aY-VOJTC4Gm7vHuatkN4jfy4m3mCZqJOHcLH9AgqtREXhx6xOg-nD-YGxXvHb9GZQEvlwFfw_xvn3AspE8ShBZp1KKd9k8DJfMbYUsb9p68XR_7x1ZHLAmbN1DQDVakSv3uA2fNTinU7PjHMvCCpoKfjdyCse4vr68VmH0Fmo51hlGiv2jcxuxS6lm0mCnpFwbcppUy6R7vAVO_emuwPGqZ0qZWujbmmlCHu7ty94tOgSUy8i9FnWpPS61cichU0QWKt8u78K4MYCzv7Va5YLtfaQ1RDeFFJGSH86VpRY2dztISXLcS7e6YBDPCefm5xKZOO-mAjCAHZDfd1_V5gv61Q5lu- -4MQgFd0D_J4aND-B54CUChE-LKndnW6d_J7YCcRPBJDeUAgCNMcUl8qNqXaOzfyvd3yt3y3UIyJ2yEQIhhOCRfZcQrKQxcXu_WIZdwlR2XwpEu-aC_BO8zotYALMwUr2ZkOnJ4N1So6vTpiSHdjmL4fNQCpi98QnN7BDCLqEE8aVvFLA7aqrtmZqPOXKYocDekZLwDYdD0alHZ1GcyAoXOpvYgLRhmuyf-ynQKgvkYsahwRxxiyVMAeIRc3qqNADVfEftkWaEl6cOeo5eMBc8htZ5kCVLJVHiVE5o-n2Ymp3tp2HUp-gCxA4KeQZezUkr70Eb_FvD86hiBHhwBOx2pcONGzh2TTeh7SDzjaBCPG19g_CBOUVfcDOOILO-J48i2U-Ri5d2qB9ygqLxqjUqvusTS4bbWSqAmgbCUuDHzCyDq4m2xzkBMcq9RHc_N1miEDz9J9YJfXUELwS70G1jMVJOjMKs4F-bYOPPz2koNTcQxetNB6f2n-p-sMsuXRelzfi-Cu-zloNpSzuoWit_xpKdEvgMgN5SqXI9Yj9JZ6bL0E3msgeodJDhSNY1yw4yxLgOwJjEnrkyAegmIEPwcrXURRdr8P25CTibCnt_YLRcUvSwujiDs_zZ6xGIT58nzIibK9iaxwN_vwnKtbbieA_KLOiHUhM07OLzKGGu1nu71VscyR1GUbZ6SnuaIDf8T-MoCy4b_1oNTDSlzSK62JlqAreFct2J_Tmd6Q8ZXNUso_pEne165c2QTuyij3hr2GQR1G9RRTxJFEKQQoGXN2K77LFNZPuGJ29cnHdQA8ox8w5R1TtEInH8MQ7yjxKumxSpCRfbWa_3M4GVeTzgJOi5uzPDnetBIQ718gNpsdXuQpyhK4F0XBsdkBtwTkIqqIUyqs1UkGyhr6D4emtrDjKWIKUhA4HeLHe5oVPcsESSOU7xW4mrKAcei2P0_jxuVpm4277RQWNEVptx-TF_tp-zBTlcPOJBAkcmG62ksrSouzHkpU4GTTsOF0j3D1h0wtmHvog5Ljr1wTLxnFbHHlgXLxJgFsWvJfHrrtxuWIDfiGvQVkBQtoThDQKQoECfVrEo9Tje6rN0odthQQo8AKnaelCDG9HJjjOkIymUXqezcKbngks6reFAOtwWdLbq5W6WfyrQl2zVper8i6BMlj71UGeyeC0EnYer8s2Trt14vwMJdk-l4SmZnCiSWzQs8BI27lWJglcW9RcXJB-hDu5EDn-l9cximc-zZ91RpPwBxeZAcrL-bUWLSuhEWvTg9z3hPdwS1JpUzHPvT6sCbncmi9SutI17g17q1hb31MK6fnYwVh9q7ekDApaKkaDLRAEBiQdAVsdENOEFvnqEXlZFZGoXkTT4Wgf3FSJBaJh8DUe8jmMvt1srZvxxevGaEWijhi5V65fufvqAh-jEZ8fjhfSuUbWUWslJplFd_BsXVFsdShB3GgmLegfdQuNh5JbFUcSxFnL6Rh4fpOU62QCy1zwdGvMVIMvZop4CApxSFpmmuHke-YGxPS6OheTVsrpRg6Qps6kIjliM9Hogl2Llu_eVm00]--></g></svg>