<svg xmlns="http://www.w3.org/2000/svg" xmlns:xlink="http://www.w3.org/1999/xlink" contentStyleType="text/css" height="1324px" preserveAspectRatio="none" style="width:892px;height:1324px;background:#FFFFFF;" version="1.1" viewBox="0 0 892 1324" width="892px" zoomAndPan="magnify"><title>Generation KPI Mensuels (Avant vs Apres)</title><defs/><g><text fill="#000000" font-family="sans-serif" font-size="14" font-weight="bold" lengthAdjust="spacing" textLength="283.9648" x="300.0188" y="29.5332">Generation KPI Mensuels (Avant vs Apres)</text><line style="stroke:#181818;stroke-width:0.5;stroke-dasharray:5.0,5.0;" x1="63" x2="63" y1="124.8281" y2="1227.5391"/><line style="stroke:#181818;stroke-width:0.5;stroke-dasharray:5.0,5.0;" x1="240.6157" x2="240.6157" y1="124.8281" y2="1227.5391"/><line style="stroke:#181818;stroke-width:0.5;stroke-dasharray:5.0,5.0;" x1="348.4243" x2="348.4243" y1="124.8281" y2="1227.5391"/><line style="stroke:#181818;stroke-width:0.5;stroke-dasharray:5.0,5.0;" x1="490.0122" x2="490.0122" y1="124.8281" y2="1227.5391"/><line style="stroke:#181818;stroke-width:0.5;stroke-dasharray:5.0,5.0;" x1="668.6108" x2="668.6108" y1="124.8281" y2="1227.5391"/><line style="stroke:#181818;stroke-width:0.5;stroke-dasharray:5.0,5.0;" x1="776.8726" x2="776.8726" y1="124.8281" y2="1227.5391"/><text fill="#000000" font-family="sans-serif" font-size="14" lengthAdjust="spacing" textLength="37.3447" x="42" y="121.752">Sylvie</text><ellipse cx="63.6724" cy="55.7188" fill="#E2E2F0" rx="8" ry="8" style="stroke:#181818;stroke-width:0.5;"/><path d="M63.6724,63.7188 L63.6724,90.7188 M50.6724,71.7188 L76.6724,71.7188 M63.6724,90.7188 L50.6724,105.7188 M63.6724,90.7188 L76.6724,105.7188 " fill="none" style="stroke:#181818;stroke-width:0.5;"/><text fill="#000000" font-family="sans-serif" font-size="14" lengthAdjust="spacing" textLength="37.3447" x="42" y="1241.0723">Sylvie</text><ellipse cx="63.6724" cy="1252.6484" fill="#E2E2F0" rx="8" ry="8" style="stroke:#181818;stroke-width:0.5;"/><path d="M63.6724,1260.6484 L63.6724,1287.6484 M50.6724,1268.6484 L76.6724,1268.6484 M63.6724,1287.6484 L50.6724,1302.6484 M63.6724,1287.6484 L76.6724,1302.6484 " fill="none" style="stroke:#181818;stroke-width:0.5;"/><rect fill="#E2E2F0" height="49.2188" rx="2.5" ry="2.5" style="stroke:#181818;stroke-width:0.5;" width="82.4893" x="199.6157" y="74.6094"/><text fill="#000000" font-family="sans-serif" font-size="14" lengthAdjust="spacing" textLength="56.7998" x="212.4604" y="96.1426">Power BI</text><text fill="#000000" font-family="sans-serif" font-size="14" lengthAdjust="spacing" textLength="68.4893" x="206.6157" y="113.752">Dashboard</text><rect fill="#E2E2F0" height="49.2188" rx="2.5" ry="2.5" style="stroke:#181818;stroke-width:0.5;" width="82.4893" x="199.6157" y="1226.5391"/><text fill="#000000" font-family="sans-serif" font-size="14" lengthAdjust="spacing" textLength="56.7998" x="212.4604" y="1248.0723">Power BI</text><text fill="#000000" font-family="sans-serif" font-size="14" lengthAdjust="spacing" textLength="68.4893" x="206.6157" y="1265.6816">Dashboard</text><text fill="#000000" font-family="sans-serif" font-size="14" lengthAdjust="spacing" textLength="68.4756" x="311.4243" y="104.1426">Azure SQL</text><text fill="#000000" font-family="sans-serif" font-size="14" lengthAdjust="spacing" textLength="33.4346" x="328.9448" y="121.752">DWH</text><path d="M330.6621,53.6094 C330.6621,43.6094 348.6621,43.6094 348.6621,43.6094 C348.6621,43.6094 366.6621,43.6094 366.6621,53.6094 L366.6621,79.6094 C366.6621,89.6094 348.6621,89.6094 348.6621,89.6094 C348.6621,89.6094 330.6621,89.6094 330.6621,79.6094 L330.6621,53.6094 " fill="#E2E2F0" style="stroke:#181818;stroke-width:1.5;"/><path d="M330.6621,53.6094 C330.6621,63.6094 348.6621,63.6094 348.6621,63.6094 C348.6621,63.6094 366.6621,63.6094 366.6621,53.6094 " fill="none" style="stroke:#181818;stroke-width:1.5;"/><text fill="#000000" font-family="sans-serif" font-size="14" lengthAdjust="spacing" textLength="68.4756" x="311.4243" y="1241.0723">Azure SQL</text><text fill="#000000" font-family="sans-serif" font-size="14" lengthAdjust="spacing" textLength="33.4346" x="328.9448" y="1258.6816">DWH</text><path d="M330.6621,1271.7578 C330.6621,1261.7578 348.6621,1261.7578 348.6621,1261.7578 C348.6621,1261.7578 366.6621,1261.7578 366.6621,1271.7578 L366.6621,1297.7578 C366.6621,1307.7578 348.6621,1307.7578 348.6621,1307.7578 C348.6621,1307.7578 330.6621,1307.7578 330.6621,1297.7578 L330.6621,1271.7578 " fill="#E2E2F0" style="stroke:#181818;stroke-width:1.5;"/><path d="M330.6621,1271.7578 C330.6621,1281.7578 348.6621,1281.7578 348.6621,1281.7578 C348.6621,1281.7578 366.6621,1281.7578 366.6621,1271.7578 " fill="none" style="stroke:#181818;stroke-width:1.5;"/><rect fill="#E2E2F0" height="49.2188" rx="2.5" ry="2.5" style="stroke:#181818;stroke-width:0.5;" width="94.1377" x="443.0122" y="74.6094"/><text fill="#000000" font-family="sans-serif" font-size="14" lengthAdjust="spacing" textLength="66.1377" x="457.0122" y="96.1426">ETL Azure</text><text fill="#000000" font-family="sans-serif" font-size="14" lengthAdjust="spacing" textLength="80.1377" x="450.0122" y="113.752">Data Factory</text><rect fill="#E2E2F0" height="49.2188" rx="2.5" ry="2.5" style="stroke:#181818;stroke-width:0.5;" width="94.1377" x="443.0122" y="1226.5391"/><text fill="#000000" font-family="sans-serif" font-size="14" lengthAdjust="spacing" textLength="66.1377" x="457.0122" y="1248.0723">ETL Azure</text><text fill="#000000" font-family="sans-serif" font-size="14" lengthAdjust="spacing" textLength="80.1377" x="450.0122" y="1265.6816">Data Factory</text><text fill="#000000" font-family="sans-serif" font-size="14" lengthAdjust="spacing" textLength="34.248" x="648.6177" y="104.1426">Odoo</text><text fill="#000000" font-family="sans-serif" font-size="14" lengthAdjust="spacing" textLength="76.2617" x="627.6108" y="121.752">PostgreSQL</text><path d="M650.7417,53.6094 C650.7417,43.6094 668.7417,43.6094 668.7417,43.6094 C668.7417,43.6094 686.7417,43.6094 686.7417,53.6094 L686.7417,79.6094 C686.7417,89.6094 668.7417,89.6094 668.7417,89.6094 C668.7417,89.6094 650.7417,89.6094 650.7417,79.6094 L650.7417,53.6094 " fill="#E2E2F0" style="stroke:#181818;stroke-width:1.5;"/><path d="M650.7417,53.6094 C650.7417,63.6094 668.7417,63.6094 668.7417,63.6094 C668.7417,63.6094 686.7417,63.6094 686.7417,53.6094 " fill="none" style="stroke:#181818;stroke-width:1.5;"/><text fill="#000000" font-family="sans-serif" font-size="14" lengthAdjust="spacing" textLength="34.248" x="648.6177" y="1241.0723">Odoo</text><text fill="#000000" font-family="sans-serif" font-size="14" lengthAdjust="spacing" textLength="76.2617" x="627.6108" y="1258.6816">PostgreSQL</text><path d="M650.7417,1271.7578 C650.7417,1261.7578 668.7417,1261.7578 668.7417,1261.7578 C668.7417,1261.7578 686.7417,1261.7578 686.7417,1271.7578 L686.7417,1297.7578 C686.7417,1307.7578 668.7417,1307.7578 668.7417,1307.7578 C668.7417,1307.7578 650.7417,1307.7578 650.7417,1297.7578 L650.7417,1271.7578 " fill="#E2E2F0" style="stroke:#181818;stroke-width:1.5;"/><path d="M650.7417,1271.7578 C650.7417,1281.7578 668.7417,1281.7578 668.7417,1281.7578 C668.7417,1281.7578 686.7417,1281.7578 686.7417,1271.7578 " fill="none" style="stroke:#181818;stroke-width:1.5;"/><rect fill="#E2E2F0" height="49.2188" rx="2.5" ry="2.5" style="stroke:#181818;stroke-width:0.5;" width="115.1582" x="719.8726" y="74.6094"/><text fill="#000000" font-family="sans-serif" font-size="14" lengthAdjust="spacing" textLength="68.4688" x="743.2173" y="96.1426">ML Models</text><text fill="#000000" font-family="sans-serif" font-size="14" lengthAdjust="spacing" textLength="101.1582" x="726.8726" y="113.752">Azure Functions</text><rect fill="#E2E2F0" height="49.2188" rx="2.5" ry="2.5" style="stroke:#181818;stroke-width:0.5;" width="115.1582" x="719.8726" y="1226.5391"/><text fill="#000000" font-family="sans-serif" font-size="14" lengthAdjust="spacing" textLength="68.4688" x="743.2173" y="1248.0723">ML Models</text><text fill="#000000" font-family="sans-serif" font-size="14" lengthAdjust="spacing" textLength="101.1582" x="726.8726" y="1265.6816">Azure Functions</text><rect fill="#EEEEEE" height="3" style="stroke:#EEEEEE;stroke-width:1;" width="885.0024" x="0" y="156.0039"/><line style="stroke:#000000;stroke-width:1;" x1="0" x2="885.0024" y1="156.0039" y2="156.0039"/><line style="stroke:#000000;stroke-width:1;" x1="0" x2="885.0024" y1="159.0039" y2="159.0039"/><rect fill="#EEEEEE" height="24.3516" style="stroke:#000000;stroke-width:2;" width="205.4326" x="339.7849" y="144.8281"/><text fill="#000000" font-family="sans-serif" font-size="13" font-weight="bold" lengthAdjust="spacing" textLength="187.8208" x="345.7849" y="162.3232">AVANT (Systeme Actuel - 24h)</text><polygon fill="#181818" points="656.7417,216.8828,666.7417,220.8828,656.7417,224.8828,660.7417,220.8828" style="stroke:#181818;stroke-width:1;"/><line style="stroke:#181818;stroke-width:1;" x1="63.6724" x2="662.7417" y1="220.8828" y2="220.8828"/><text fill="#000000" font-family="sans-serif" font-size="13" lengthAdjust="spacing" textLength="128.6162" x="70.6724" y="199.6748">1. Export manuel CSV</text><text fill="#000000" font-family="sans-serif" font-size="13" lengthAdjust="spacing" textLength="88.4863" x="70.6724" y="216.0264">(SAGE + MDE)</text><path d="M673,184.1797 L673,226.1797 L800,226.1797 L800,194.1797 L790,184.1797 L673,184.1797 " fill="#FEFFDD" style="stroke:#181818;stroke-width:0.5;"/><path d="M790,184.1797 L790,194.1797 L800,194.1797 L790,184.1797 " fill="#FEFFDD" style="stroke:#181818;stroke-width:0.5;"/><text fill="#000000" font-family="sans-serif" font-size="13" lengthAdjust="spacing" textLength="65.4063" x="679" y="202.6748">1h export +</text><text fill="#000000" font-family="sans-serif" font-size="13" lengthAdjust="spacing" textLength="106.2471" x="679" y="219.0264">attentes plantages</text><line style="stroke:#181818;stroke-width:1;" x1="63.6724" x2="105.6724" y1="270.5859" y2="270.5859"/><line style="stroke:#181818;stroke-width:1;" x1="105.6724" x2="105.6724" y1="270.5859" y2="283.5859"/><line style="stroke:#181818;stroke-width:1;" x1="64.6724" x2="105.6724" y1="283.5859" y2="283.5859"/><polygon fill="#181818" points="74.6724,279.5859,64.6724,283.5859,74.6724,287.5859,70.6724,283.5859" style="stroke:#181818;stroke-width:1;"/><text fill="#000000" font-family="sans-serif" font-size="13" lengthAdjust="spacing" textLength="86.6963" x="70.6724" y="249.3779">2. Import Excel</text><text fill="#000000" font-family="sans-serif" font-size="13" lengthAdjust="spacing" textLength="75.499" x="70.6724" y="265.7295">(30+ fichiers)</text><path d="M168.6963,240.3828 L168.6963,282.3828 L299.6963,282.3828 L299.6963,250.3828 L289.6963,240.3828 L168.6963,240.3828 " fill="#FEFFDD" style="stroke:#181818;stroke-width:0.5;"/><path d="M289.6963,240.3828 L289.6963,250.3828 L299.6963,250.3828 L289.6963,240.3828 " fill="#FEFFDD" style="stroke:#181818;stroke-width:0.5;"/><text fill="#000000" font-family="sans-serif" font-size="13" lengthAdjust="spacing" textLength="65.3936" x="174.6963" y="258.8779">2h import +</text><text fill="#000000" font-family="sans-serif" font-size="13" lengthAdjust="spacing" textLength="110.5317" x="174.6963" y="275.2295">corrections formats</text><line style="stroke:#181818;stroke-width:1;" x1="63.6724" x2="105.6724" y1="330.2891" y2="330.2891"/><line style="stroke:#181818;stroke-width:1;" x1="105.6724" x2="105.6724" y1="330.2891" y2="343.2891"/><line style="stroke:#181818;stroke-width:1;" x1="64.6724" x2="105.6724" y1="343.2891" y2="343.2891"/><polygon fill="#181818" points="74.6724,339.2891,64.6724,343.2891,74.6724,347.2891,70.6724,343.2891" style="stroke:#181818;stroke-width:1;"/><text fill="#000000" font-family="sans-serif" font-size="13" lengthAdjust="spacing" textLength="149.5952" x="70.6724" y="309.0811">3. Consolidation manuelle</text><text fill="#000000" font-family="sans-serif" font-size="13" lengthAdjust="spacing" textLength="79.46" x="70.6724" y="325.4326">(copier-coller)</text><path d="M231.5952,300.0859 L231.5952,342.0859 L357.5952,342.0859 L357.5952,310.0859 L347.5952,300.0859 L231.5952,300.0859 " fill="#FEFFDD" style="stroke:#181818;stroke-width:0.5;"/><path d="M347.5952,300.0859 L347.5952,310.0859 L357.5952,310.0859 L347.5952,300.0859 " fill="#FEFFDD" style="stroke:#181818;stroke-width:0.5;"/><text fill="#000000" font-family="sans-serif" font-size="13" lengthAdjust="spacing" textLength="105.1616" x="237.5952" y="318.5811">4h consolidation +</text><text fill="#000000" font-family="sans-serif" font-size="13" lengthAdjust="spacing" textLength="79.6567" x="237.5952" y="334.9326">v&#195;&#169;rifications</text><line style="stroke:#181818;stroke-width:1;" x1="63.6724" x2="105.6724" y1="389.9922" y2="389.9922"/><line style="stroke:#181818;stroke-width:1;" x1="105.6724" x2="105.6724" y1="389.9922" y2="402.9922"/><line style="stroke:#181818;stroke-width:1;" x1="64.6724" x2="105.6724" y1="402.9922" y2="402.9922"/><polygon fill="#181818" points="74.6724,398.9922,64.6724,402.9922,74.6724,406.9922,70.6724,402.9922" style="stroke:#181818;stroke-width:1;"/><text fill="#000000" font-family="sans-serif" font-size="13" lengthAdjust="spacing" textLength="104.0381" x="70.6724" y="368.7842">4. Calculs marges</text><text fill="#000000" font-family="sans-serif" font-size="13" lengthAdjust="spacing" textLength="93.9072" x="70.6724" y="385.1357">(formules Excel)</text><path d="M186.0381,359.7891 L186.0381,401.7891 L315.0381,401.7891 L315.0381,369.7891 L305.0381,359.7891 L186.0381,359.7891 " fill="#FEFFDD" style="stroke:#181818;stroke-width:0.5;"/><path d="M305.0381,359.7891 L305.0381,369.7891 L315.0381,369.7891 L305.0381,359.7891 " fill="#FEFFDD" style="stroke:#181818;stroke-width:0.5;"/><text fill="#000000" font-family="sans-serif" font-size="13" lengthAdjust="spacing" textLength="69.0117" x="192.0381" y="378.2842">3h calculs +</text><text fill="#000000" font-family="sans-serif" font-size="13" lengthAdjust="spacing" textLength="108.3672" x="192.0381" y="394.6357">corrections erreurs</text><line style="stroke:#181818;stroke-width:1;" x1="63.6724" x2="105.6724" y1="449.6953" y2="449.6953"/><line style="stroke:#181818;stroke-width:1;" x1="105.6724" x2="105.6724" y1="449.6953" y2="462.6953"/><line style="stroke:#181818;stroke-width:1;" x1="64.6724" x2="105.6724" y1="462.6953" y2="462.6953"/><polygon fill="#181818" points="74.6724,458.6953,64.6724,462.6953,74.6724,466.6953,70.6724,462.6953" style="stroke:#181818;stroke-width:1;"/><text fill="#000000" font-family="sans-serif" font-size="13" lengthAdjust="spacing" textLength="146.7134" x="70.6724" y="428.4873">5. Generation graphiques</text><text fill="#000000" font-family="sans-serif" font-size="13" lengthAdjust="spacing" textLength="57.7954" x="70.6724" y="444.8389">(manuels)</text><path d="M228.7134,427.668 L228.7134,453.668 L356.7134,453.668 L356.7134,437.668 L346.7134,427.668 L228.7134,427.668 " fill="#FEFFDD" style="stroke:#181818;stroke-width:0.5;"/><path d="M346.7134,427.668 L346.7134,437.668 L356.7134,437.668 L346.7134,427.668 " fill="#FEFFDD" style="stroke:#181818;stroke-width:0.5;"/><text fill="#000000" font-family="sans-serif" font-size="13" lengthAdjust="spacing" textLength="107.6816" x="234.7134" y="446.1631">2h creation graphs</text><line style="stroke:#181818;stroke-width:1;" x1="63.6724" x2="105.6724" y1="493.0469" y2="493.0469"/><line style="stroke:#181818;stroke-width:1;" x1="105.6724" x2="105.6724" y1="493.0469" y2="506.0469"/><line style="stroke:#181818;stroke-width:1;" x1="64.6724" x2="105.6724" y1="506.0469" y2="506.0469"/><polygon fill="#181818" points="74.6724,502.0469,64.6724,506.0469,74.6724,510.0469,70.6724,506.0469" style="stroke:#181818;stroke-width:1;"/><text fill="#000000" font-family="sans-serif" font-size="13" lengthAdjust="spacing" textLength="152.4644" x="70.6724" y="488.1904">6. Redaction rapport Word</text><path d="M234.4644,479.1953 L234.4644,505.1953 L326.4644,505.1953 L326.4644,489.1953 L316.4644,479.1953 L234.4644,479.1953 " fill="#FEFFDD" style="stroke:#181818;stroke-width:0.5;"/><path d="M316.4644,479.1953 L316.4644,489.1953 L326.4644,489.1953 L316.4644,479.1953 " fill="#FEFFDD" style="stroke:#181818;stroke-width:0.5;"/><text fill="#000000" font-family="sans-serif" font-size="13" lengthAdjust="spacing" textLength="71.5508" x="240.4644" y="497.6904">3h redaction</text><line style="stroke:#181818;stroke-width:1;" x1="63.6724" x2="105.6724" y1="541.0742" y2="541.0742"/><line style="stroke:#181818;stroke-width:1;" x1="105.6724" x2="105.6724" y1="541.0742" y2="554.0742"/><line style="stroke:#181818;stroke-width:1;" x1="64.6724" x2="105.6724" y1="554.0742" y2="554.0742"/><polygon fill="#181818" points="74.6724,550.0742,64.6724,554.0742,74.6724,558.0742,70.6724,554.0742" style="stroke:#181818;stroke-width:1;"/><text fill="#000000" font-family="sans-serif" font-size="13" lengthAdjust="spacing" textLength="126.4517" x="70.6724" y="536.2178">7. Verifications finales</text><path d="M208.4517,519.0469 L208.4517,561.0469 L282.4517,561.0469 L282.4517,529.0469 L272.4517,519.0469 L208.4517,519.0469 " fill="#FEFFDD" style="stroke:#181818;stroke-width:0.5;"/><path d="M272.4517,519.0469 L272.4517,529.0469 L282.4517,529.0469 L272.4517,519.0469 " fill="#FEFFDD" style="stroke:#181818;stroke-width:0.5;"/><text fill="#000000" font-family="sans-serif" font-size="13" lengthAdjust="spacing" textLength="53.8345" x="214.4517" y="537.542">2h verif +</text><text fill="#000000" font-family="sans-serif" font-size="13" lengthAdjust="spacing" textLength="34.6709" x="214.4517" y="553.8936">stress</text><path d="M5,571.75 L5,630.75 L122,630.75 L122,581.75 L112,571.75 L5,571.75 " fill="#FEFFDD" style="stroke:#181818;stroke-width:0.5;"/><path d="M112,571.75 L112,581.75 L122,581.75 L112,571.75 " fill="#FEFFDD" style="stroke:#181818;stroke-width:0.5;"/><text fill="#000000" font-family="sans-serif" font-size="13" lengthAdjust="spacing" textLength="96.0718" x="11" y="590.2451">TOTAL AVANT :</text><text fill="#000000" font-family="sans-serif" font-size="13" lengthAdjust="spacing" textLength="85.9917" x="11" y="606.5967">24h sur 2 jours</text><text fill="#000000" font-family="sans-serif" font-size="13" lengthAdjust="spacing" textLength="68.6499" x="11" y="622.9482">Epuisement</text><rect fill="#EEEEEE" height="3" style="stroke:#EEEEEE;stroke-width:1;" width="885.0024" x="0" y="656.9805"/><line style="stroke:#000000;stroke-width:1;" x1="0" x2="885.0024" y1="656.9805" y2="656.9805"/><line style="stroke:#000000;stroke-width:1;" x1="0" x2="885.0024" y1="659.9805" y2="659.9805"/><rect fill="#EEEEEE" height="24.3516" style="stroke:#000000;stroke-width:2;" width="190.2681" x="347.3672" y="645.8047"/><text fill="#000000" font-family="sans-serif" font-size="13" font-weight="bold" lengthAdjust="spacing" textLength="172.6563" x="353.3672" y="663.2998">APRES (Systeme Cible - 2h)</text><polygon fill="#181818" points="656.7417,717.8594,666.7417,721.8594,656.7417,725.8594,660.7417,721.8594" style="stroke:#181818;stroke-width:1;"/><line style="stroke:#181818;stroke-width:1;" x1="490.0811" x2="662.7417" y1="721.8594" y2="721.8594"/><text fill="#000000" font-family="sans-serif" font-size="13" lengthAdjust="spacing" textLength="108.3989" x="497.0811" y="700.6514">1. Extract donnees</text><text fill="#000000" font-family="sans-serif" font-size="13" lengthAdjust="spacing" textLength="154.6606" x="497.0811" y="717.0029">(automatique quotidien 6h)</text><path d="M673,685.1563 L673,727.1563 L765,727.1563 L765,695.1563 L755,685.1563 L673,685.1563 " fill="#FEFFDD" style="stroke:#181818;stroke-width:0.5;"/><path d="M755,685.1563 L755,695.1563 L765,695.1563 L755,685.1563 " fill="#FEFFDD" style="stroke:#181818;stroke-width:0.5;"/><text fill="#000000" font-family="sans-serif" font-size="13" lengthAdjust="spacing" textLength="39.019" x="679" y="703.6514">10 min</text><text fill="#000000" font-family="sans-serif" font-size="13" lengthAdjust="spacing" textLength="71.5508" x="679" y="720.0029">automatique</text><polygon fill="#181818" points="359.6621,770.5625,349.6621,774.5625,359.6621,778.5625,355.6621,774.5625" style="stroke:#181818;stroke-width:1;"/><line style="stroke:#181818;stroke-width:1;" x1="353.6621" x2="489.0811" y1="774.5625" y2="774.5625"/><text fill="#000000" font-family="sans-serif" font-size="13" lengthAdjust="spacing" textLength="117.4189" x="365.6621" y="753.3545">2. Transform + Load</text><text fill="#000000" font-family="sans-serif" font-size="13" lengthAdjust="spacing" textLength="83.8018" x="365.6621" y="769.7061">(Star Schema)</text><path d="M495,737.8594 L495,779.8594 L587,779.8594 L587,747.8594 L577,737.8594 L495,737.8594 " fill="#FEFFDD" style="stroke:#181818;stroke-width:0.5;"/><path d="M577,737.8594 L577,747.8594 L587,747.8594 L577,737.8594 " fill="#FEFFDD" style="stroke:#181818;stroke-width:0.5;"/><text fill="#000000" font-family="sans-serif" font-size="13" lengthAdjust="spacing" textLength="39.019" x="501" y="756.3545">10 min</text><text fill="#000000" font-family="sans-serif" font-size="13" lengthAdjust="spacing" textLength="71.5508" x="501" y="772.7061">automatique</text><polygon fill="#181818" points="359.6621,823.2656,349.6621,827.2656,359.6621,831.2656,355.6621,827.2656" style="stroke:#181818;stroke-width:1;"/><line style="stroke:#181818;stroke-width:1;" x1="353.6621" x2="776.4517" y1="827.2656" y2="827.2656"/><text fill="#000000" font-family="sans-serif" font-size="13" lengthAdjust="spacing" textLength="100.4326" x="365.6621" y="806.0576">3. Predictions ML</text><text fill="#000000" font-family="sans-serif" font-size="13" lengthAdjust="spacing" textLength="136.5571" x="365.6621" y="822.4092">(CA projete, anomalies)</text><path d="M782,790.5625 L782,832.5625 L874,832.5625 L874,800.5625 L864,790.5625 L782,790.5625 " fill="#FEFFDD" style="stroke:#181818;stroke-width:0.5;"/><path d="M864,790.5625 L864,800.5625 L874,800.5625 L864,790.5625 " fill="#FEFFDD" style="stroke:#181818;stroke-width:0.5;"/><text fill="#000000" font-family="sans-serif" font-size="13" lengthAdjust="spacing" textLength="31.7891" x="788" y="809.0576">5 min</text><text fill="#000000" font-family="sans-serif" font-size="13" lengthAdjust="spacing" textLength="71.5508" x="788" y="825.4092">automatique</text><polygon fill="#181818" points="228.8604,875.9688,238.8604,879.9688,228.8604,883.9688,232.8604,879.9688" style="stroke:#181818;stroke-width:1;"/><line style="stroke:#181818;stroke-width:1;" x1="63.6724" x2="234.8604" y1="879.9688" y2="879.9688"/><text fill="#000000" font-family="sans-serif" font-size="13" lengthAdjust="spacing" textLength="137.3062" x="70.6724" y="858.7607">4. Ouverture dashboard</text><text fill="#000000" font-family="sans-serif" font-size="13" lengthAdjust="spacing" textLength="95.3545" x="70.6724" y="875.1123">(SSO Azure AD)</text><path d="M245,843.2656 L245,885.2656 L349,885.2656 L349,853.2656 L339,843.2656 L245,843.2656 " fill="#FEFFDD" style="stroke:#181818;stroke-width:0.5;"/><path d="M339,843.2656 L339,853.2656 L349,853.2656 L339,843.2656 " fill="#FEFFDD" style="stroke:#181818;stroke-width:0.5;"/><text fill="#000000" font-family="sans-serif" font-size="13" lengthAdjust="spacing" textLength="38.3018" x="251" y="861.7607">30 sec</text><text fill="#000000" font-family="sans-serif" font-size="13" lengthAdjust="spacing" textLength="83.0972" x="251" y="878.1123">(cloud, rapide)</text><polygon fill="#181818" points="336.6621,928.6719,346.6621,932.6719,336.6621,936.6719,340.6621,932.6719" style="stroke:#181818;stroke-width:1;"/><line style="stroke:#181818;stroke-width:1;" x1="240.8604" x2="342.6621" y1="932.6719" y2="932.6719"/><text fill="#000000" font-family="sans-serif" font-size="13" lengthAdjust="spacing" textLength="83.8018" x="247.8604" y="911.4639">5. DirectQuery</text><text fill="#000000" font-family="sans-serif" font-size="13" lengthAdjust="spacing" textLength="69.3481" x="247.8604" y="927.8154">(temps reel)</text><path d="M353,895.9688 L353,937.9688 L434,937.9688 L434,905.9688 L424,895.9688 L353,895.9688 " fill="#FEFFDD" style="stroke:#181818;stroke-width:0.5;"/><path d="M424,895.9688 L424,905.9688 L434,905.9688 L424,895.9688 " fill="#FEFFDD" style="stroke:#181818;stroke-width:0.5;"/><text fill="#000000" font-family="sans-serif" font-size="13" lengthAdjust="spacing" textLength="31.0718" x="359" y="914.4639">2 sec</text><text fill="#000000" font-family="sans-serif" font-size="13" lengthAdjust="spacing" textLength="60.6899" x="359" y="930.8154">temps reel</text><polygon fill="#181818" points="74.6724,981.375,64.6724,985.375,74.6724,989.375,70.6724,985.375" style="stroke:#181818;stroke-width:1;"/><line style="stroke:#181818;stroke-width:1;stroke-dasharray:2.0,2.0;" x1="68.6724" x2="239.8604" y1="985.375" y2="985.375"/><text fill="#000000" font-family="sans-serif" font-size="13" lengthAdjust="spacing" textLength="93.2217" x="80.6724" y="964.167">6. Affichage KPI</text><text fill="#000000" font-family="sans-serif" font-size="13" lengthAdjust="spacing" textLength="101.8989" x="80.6724" y="980.5186">(graphiques auto)</text><path d="M245,948.6719 L245,990.6719 L345,990.6719 L345,958.6719 L335,948.6719 L245,948.6719 " fill="#FEFFDD" style="stroke:#181818;stroke-width:0.5;"/><path d="M335,948.6719 L335,958.6719 L345,958.6719 L335,948.6719 " fill="#FEFFDD" style="stroke:#181818;stroke-width:0.5;"/><text fill="#000000" font-family="sans-serif" font-size="13" lengthAdjust="spacing" textLength="68.6309" x="251" y="967.167">Temps reel,</text><text fill="#000000" font-family="sans-serif" font-size="13" lengthAdjust="spacing" textLength="79.498" x="251" y="983.5186">aucune saisie</text><polygon fill="#181818" points="228.8604,1034.0781,238.8604,1038.0781,228.8604,1042.0781,232.8604,1038.0781" style="stroke:#181818;stroke-width:1;"/><line style="stroke:#181818;stroke-width:1;" x1="63.6724" x2="234.8604" y1="1038.0781" y2="1038.0781"/><text fill="#000000" font-family="sans-serif" font-size="13" lengthAdjust="spacing" textLength="129.3335" x="70.6724" y="1016.8701">7. Ajout commentaires</text><text fill="#000000" font-family="sans-serif" font-size="13" lengthAdjust="spacing" textLength="68.6436" x="70.6724" y="1033.2217">(zone texte)</text><path d="M245,1001.375 L245,1043.375 L310,1043.375 L310,1011.375 L300,1001.375 L245,1001.375 " fill="#FEFFDD" style="stroke:#181818;stroke-width:0.5;"/><path d="M300,1001.375 L300,1011.375 L310,1011.375 L300,1001.375 " fill="#FEFFDD" style="stroke:#181818;stroke-width:0.5;"/><text fill="#000000" font-family="sans-serif" font-size="13" lengthAdjust="spacing" textLength="39.019" x="251" y="1019.8701">20 min</text><text fill="#000000" font-family="sans-serif" font-size="13" lengthAdjust="spacing" textLength="44.8081" x="251" y="1036.2217">analyse</text><polygon fill="#181818" points="228.8604,1086.7813,238.8604,1090.7813,228.8604,1094.7813,232.8604,1090.7813" style="stroke:#181818;stroke-width:1;"/><line style="stroke:#181818;stroke-width:1;" x1="63.6724" x2="234.8604" y1="1090.7813" y2="1090.7813"/><text fill="#000000" font-family="sans-serif" font-size="13" lengthAdjust="spacing" textLength="153.188" x="70.6724" y="1069.5732">8. Generation rapport PDF</text><text fill="#000000" font-family="sans-serif" font-size="13" lengthAdjust="spacing" textLength="38.2764" x="70.6724" y="1085.9248">(1 clic)</text><path d="M245,1054.0781 L245,1096.0781 L337,1096.0781 L337,1064.0781 L327,1054.0781 L245,1054.0781 " fill="#FEFFDD" style="stroke:#181818;stroke-width:0.5;"/><path d="M327,1054.0781 L327,1064.0781 L337,1064.0781 L327,1054.0781 " fill="#FEFFDD" style="stroke:#181818;stroke-width:0.5;"/><text fill="#000000" font-family="sans-serif" font-size="13" lengthAdjust="spacing" textLength="31.7891" x="251" y="1072.5732">2 min</text><text fill="#000000" font-family="sans-serif" font-size="13" lengthAdjust="spacing" textLength="71.5508" x="251" y="1088.9248">automatique</text><polygon fill="#181818" points="74.6724,1136.4844,64.6724,1140.4844,74.6724,1144.4844,70.6724,1140.4844" style="stroke:#181818;stroke-width:1;"/><line style="stroke:#181818;stroke-width:1;stroke-dasharray:2.0,2.0;" x1="68.6724" x2="239.8604" y1="1140.4844" y2="1140.4844"/><text fill="#000000" font-family="sans-serif" font-size="13" lengthAdjust="spacing" textLength="141.2734" x="80.6724" y="1119.2764">9. PDF pret + envoi auto</text><text fill="#000000" font-family="sans-serif" font-size="13" lengthAdjust="spacing" textLength="85.2427" x="80.6724" y="1135.6279">(mail direction)</text><path d="M245,1111.957 L245,1137.957 L326,1137.957 L326,1121.957 L316,1111.957 L245,1111.957 " fill="#FEFFDD" style="stroke:#181818;stroke-width:0.5;"/><path d="M316,1111.957 L316,1121.957 L326,1121.957 L316,1111.957 " fill="#FEFFDD" style="stroke:#181818;stroke-width:0.5;"/><text fill="#000000" font-family="sans-serif" font-size="13" lengthAdjust="spacing" textLength="60.7153" x="251" y="1130.4521">Instantane</text><path d="M5,1153.4844 L5,1212.4844 L122,1212.4844 L122,1163.4844 L112,1153.4844 L5,1153.4844 " fill="#FEFFDD" style="stroke:#181818;stroke-width:0.5;"/><path d="M112,1153.4844 L112,1163.4844 L122,1163.4844 L112,1153.4844 " fill="#FEFFDD" style="stroke:#181818;stroke-width:0.5;"/><text fill="#000000" font-family="sans-serif" font-size="13" lengthAdjust="spacing" textLength="96.8018" x="11" y="1171.9795">TOTAL APRES :</text><text fill="#000000" font-family="sans-serif" font-size="13" lengthAdjust="spacing" textLength="93.9517" x="11" y="1188.3311">2h sur 1 journee</text><text fill="#000000" font-family="sans-serif" font-size="13" lengthAdjust="spacing" textLength="67.2026" x="11" y="1204.6826">Satisfaction</text><!--SRC=[XLJ1Sjem4BtxAtPoWad292HDsypG6IUGb2aK4fZamaMH5woCBJcIJ4Ek_Ph-HljZNSacO4Ed9upzz7RVwhsrmYO8joXHCokKX6_ZFWnHcXmJ0urmoQI5fO4mqsYQGS2uLHecgsGfCCYOjeABp64Enke7QhZgpsINcVX9CHqT03Cmlke74RFiYHc4W_0jrmYJkm717hzw0FrMcNhJ0NYSex8CRdpHbGVJjossKQJKJ8wLiGkDHEeXxcMLS3Y0eOf8q4mMzMzooPrQumyC1q7GwK3u47wVGcEoCXPJX91RcW4SG_iyRaAd4mI5QZZ-ual09PoseFUQAMqXPTA1hoSFCzcOXBSzE8HXjzSCfB88MYnYI_0Oi80VpYIp5gL50rb2FR85cYt-ykaIsYtef_v8xvLZGkHd9uSm5pmMg4sLlXs3IDVqN6cDXKQOAvqokvV_h0NN1569Y8hhBuGaDFe6LnaLEUQA_kfggVCOUEKOLLp- -VdxbnRKct-rjzmvbMC9pybQATEacSguxlA41k4LLkkSKPqINzE4z9ZhlKK-jBRzlD0iYyLBxciLwdRdnZLkeVUoNhJW7YFcomEX_A0VbOxg3UirQX_BnnOyuDQGw2eb8_7rXfOEv3GRIxahFojwkw6QZgRXe3JjvKoIIy7a6jhmh6WmCzdBSc78oD8MxXxVzoORTr-B9yezcRlqjijSpTXMamw8b9JeXyTogyX7RfRmaYih8e4IBkAQoKyW5PBylK6loIdeXQMdcadZxfrICb0iSfcnZBJn65FsVxxX5XqvU4mZ5wKlXhHO6jSXP5ezeyKZO9AE9G9hb_vXbtNhlcXd5MuTvJHpwrP6j5vghjd9g5XG47PhXZq1Wzo59r5vTEIC8Y9i1exmlMKoQ5Su9z_bg5S4fXl931cdRlzsGRRvNF3KR1dEtJwW3U9sDx5j70zENfLo-ivrvDJpN28O9epOev_C6fAPB6KzTJvYrBGpmfkYGnPVBTRQNLyLMNfbS8VlKoMOwmoDkpV4UGey4RmkV-UETlH_RZa2kcwajGSebqfurJxi8e58b2kZIjsdOBcrAqdslxFb8-EoLKJhr4UBqZ2J4-h7pCkS_mK0]--></g></svg>