<svg xmlns="http://www.w3.org/2000/svg" xmlns:xlink="http://www.w3.org/1999/xlink" contentStyleType="text/css" height="422px" preserveAspectRatio="none" style="width:1078px;height:422px;background:#FFFFFF;" version="1.1" viewBox="0 0 1078 422" width="1078px" zoomAndPan="magnify"><title>Network Diagram - Flux de Donnees ACTUEL Direction-Affaires</title><defs/><g><text fill="#000000" font-family="sans-serif" font-size="14" font-weight="bold" lengthAdjust="spacing" textLength="421.627" x="321.2104" y="24.5332">Network Diagram - Flux de Donnees ACTUEL Direction-Affaires</text><!--cluster Bureau Siege--><g id="cluster_Bureau Siege"><path d="M509.6025,51.5447 L600.0781,51.5447 A3.75,3.75 0 0 1 602.5781,54.0447 L609.5781,75.1541 L898.6025,75.1541 A2.5,2.5 0 0 1 901.1025,77.6541 L901.1025,395.0447 A2.5,2.5 0 0 1 898.6025,397.5447 L509.6025,397.5447 A2.5,2.5 0 0 1 507.1025,395.0447 L507.1025,54.0447 A2.5,2.5 0 0 1 509.6025,51.5447 " fill="none" style="stroke:#000000;stroke-width:1.5;"/><line style="stroke:#000000;stroke-width:1.5;" x1="507.1025" x2="609.5781" y1="75.1541" y2="75.1541"/><text fill="#000000" font-family="sans-serif" font-size="14" font-weight="bold" lengthAdjust="spacing" textLength="89.4756" x="511.1025" y="68.0779">Bureau Siege</text></g><!--cluster VPN_Citrix--><g id="cluster_VPN_Citrix"><path d="M941.5141,61.7272 C944.4006,52.3382 952.0963,48.5848 960.1218,56.0552 C965.1488,46.6949 970.8651,44.6094 979.3813,52.0571 C985.4932,45.299 994.1321,47.164 997.262,55.5727 C1008.9644,45.8604 1020.6301,51.8561 1021.1025,66.5447 C1022.2559,65.8357 1023.3391,66.3198 1023.5858,67.6493 C1031.6588,72.4955 1031.75,78.3902 1023.5022,83.1484 C1029.2458,87.4068 1030.4496,92.234 1023.5644,96.5511 C1030.6868,101.5067 1030.9801,108.4727 1022.7972,112.7012 C1029.685,115.5795 1030.3724,121.3635 1024.6706,126.0135 C1032.0455,130.7823 1030.8827,135.9924 1024.683,140.7726 C1031.017,145.4481 1030.1571,153.1312 1023.014,156.3641 C1029.3505,160.3829 1029.4369,167.2792 1022.9645,171.2555 C1028.6517,175.5766 1029.5501,181.0488 1022.8358,185.256 C1030.054,190.6182 1030.5408,195.3478 1023.152,201.0033 C1028.8639,205.7153 1028.5591,211.0262 1022.2192,214.931 C1030.2128,218.889 1030.3397,226.7435 1022.417,230.8987 C1029.5974,241.3102 1026.8742,249.1684 1014.1025,251.5447 C1014.3615,251.3055 1014.5568,251.3142 1014.7429,251.6291 C1009.0678,260.388 1003.3155,262.6462 995.6859,253.7373 C991.9961,262.3168 983.375,262.7827 978.3226,255.2013 C971.6607,263.2041 964.5646,263.3333 960.2962,252.8654 C947.2556,262.4988 938.1887,260.9083 933.1025,244.5447 C933.4583,244.1403 933.7529,244.2139 933.9602,244.6895 C927.9133,240.7772 927.2659,233.9424 934.0656,230.123 C926.2781,225.6716 926.4021,220.5871 933.1405,215.2332 C925.3538,211.2851 926.3164,204.3842 933.1322,200.428 C926.1646,195.9843 926.1713,190.7775 932.0566,185.413 C925.641,180.8405 926.015,175.9342 931.7296,171.0849 C924.3957,168.3017 922.4207,161.6196 929.278,156.4578 C922.9106,151.1056 922.3553,145.4439 930.4277,141.1783 C923.7804,136.3853 926.8089,130.2322 932.835,127.7033 C924.3084,121.9049 924.5186,116.6905 933.4547,111.5625 C926.6754,107.6783 927.5374,102.3302 933.0588,98.0846 C926.1743,93.025 927.53,86.3239 935.0235,83.1566 C926.7214,72.9571 928.1111,65.379 940.1025,59.5447 C941.686,59.4804 942.1796,60.3368 941.5141,61.7272 " fill="none" style="stroke:#181818;stroke-width:1;"/><text fill="#000000" font-family="sans-serif" font-size="14" font-weight="bold" lengthAdjust="spacing" textLength="72.3584" x="940.9233" y="79.0779">VPN_Citrix</text></g><!--cluster OneDrive--><g id="cluster_OneDrive"><path d="M21.0727,308.1428 C26.6894,295.1519 36.2718,294.5093 44.8234,305.1993 C51.4949,294.6087 62.0704,295.7778 68.0031,306.0213 C73.9855,295.2947 81.5022,294.5831 89.2328,304.1966 C95.157,294.8678 106.5091,295.0432 112.098,304.6026 C116.69,295.7009 123.6434,292.8026 131.0862,301.5325 C138.0334,290.011 149.6433,292.1909 155.4809,302.758 C160.6269,293.0503 169.7757,290.756 177.2574,300.0864 C185.4865,289.7491 194.7097,290.5317 200.252,302.8174 C207.698,292.3772 214.3179,290.6425 222.1517,302.4354 C228.557,291.8485 237.9965,291.963 243.2668,303.5177 C249.0283,292.9401 257.7444,293.6424 264.1841,302.7988 C270.9326,292.4153 279.8178,292.665 284.9938,304.2859 C293.1913,291.9776 300.7739,292.9263 308.4179,304.8215 C314.076,295.7159 324.7295,294.3973 329.6769,305.5666 C341.9136,311.1379 340.469,321.0244 331.0883,327.9582 C340.6948,333.6663 342.1716,340.4663 332.9241,347.9092 C342.2149,354.9977 341.2534,364.2924 331.0496,369.7043 C341.5911,376.265 343.3662,386.2953 331.1402,392.9447 C324.703,404.6227 315.5665,405.1637 308.2592,393.8091 C301.6068,404.6238 294.7556,407.2533 285.9546,395.9787 C278.844,404.6096 271.4799,404.6506 264.807,395.4593 C260.4716,406.1184 251.9291,409.5977 243.2073,400.1781 C235.7649,409.7679 228.941,409.5554 222.0199,399.6127 C217.1474,409.2459 206.5326,410.9535 199.9519,401.5979 C194.6328,411.4885 184.2965,415.4711 177.1266,403.5333 C170.7055,412.2541 159.5191,414.2248 154.4317,402.0825 C146.4273,410.7919 137.5409,408.4421 132.7753,398.3517 C126.1551,407.3481 118.439,409.3897 111.3964,398.8132 C102.3871,409.2796 94.9539,409.0344 86.6321,398.0205 C80.6162,408.0003 71.1716,406.2023 66.744,396.4219 C59.8494,404.4909 49.6739,404.4651 44.9856,393.8522 C37.163,404.2463 29.3354,405.3423 21.8141,393.5377 C9.3497,387.5795 10.5731,380.274 19.1769,371.764 C8.2123,364.4338 6,357.3444 17.3672,348.2924 C7.4971,340.5441 10.1089,334.3817 19.3058,328.5011 C11.1835,322.41 11.7084,312.7163 21.0727,308.1428 " fill="none" style="stroke:#181818;stroke-width:1;"/><text fill="#000000" font-family="sans-serif" font-size="14" font-weight="bold" lengthAdjust="spacing" textLength="62.248" x="143.4784" y="325.0779">OneDrive</text></g><!--cluster Clients--><g id="cluster_Clients"><path d="M371.1066,306.3063 C373.1834,300.018 378.5892,298.7335 382.7042,304.3148 C386.9704,298.008 391.3833,297.5356 396.8741,302.8176 C400.6602,295.3354 404.948,295.0453 409.9412,301.702 C413.2194,295.8922 418.7993,295.5929 422.1962,301.5786 C427.2647,293.7323 432.963,294.6364 437.4864,302.1223 C441.4254,295.6945 447.4678,297.7693 450.3817,303.2339 C454.8753,298.2004 459.3267,299.3208 462.536,304.7288 C467.5714,298.8697 473.2877,301.396 475.8336,307.4967 C484.0283,309.7906 483.5141,316.2585 478.7309,321.2803 C485.4072,324.4112 485.8608,329.2614 479.9524,333.6365 C487.4878,337.7023 489.039,342.1213 482.1298,348.328 C489.8759,352.6937 487.8183,359.2839 481.7135,363.2636 C486.814,369.8628 485.3129,373.9263 477.9169,377.0953 C483.5366,380.8395 483.7694,386.9334 476.8197,389.5722 C474.6422,396.4212 468.4274,397.9405 463.9709,391.8321 C460.9481,400.1626 456.0244,400.527 449.9669,394.8706 C446.1481,402.0282 441.8739,401.2504 436.7465,396.2993 C433.2834,403.9937 428.9408,405.0557 423.1126,398.5738 C418.5139,405.0273 412.766,404.193 409.6829,397.0742 C404.6641,401.4509 400.4246,400.9798 397.5416,394.6517 C392.2112,401.0368 386.3354,400.6319 382.6974,392.8753 C377.2865,399.5993 372.9098,398.1298 369.1302,391.2485 C363.5275,387.0655 362.3282,381.9914 368.895,377.5988 C361.7624,373.8249 359.9173,367.6241 367.5806,362.5573 C360.7476,360.5632 357.3862,354.019 363.8392,348.491 C357.2167,343.2649 358.7,336.9711 366.6987,334.7984 C359.7805,330.2994 360.3128,324.4327 367.5143,320.7538 C361.6228,314.6005 363.8608,309.193 371.1066,306.3063 " fill="none" style="stroke:#181818;stroke-width:1;"/><text fill="#000000" font-family="sans-serif" font-size="14" font-weight="bold" lengthAdjust="spacing" textLength="46.6758" x="398.7646" y="325.0779">Clients</text></g><!--entity laurent--><g id="elem_laurent"><rect fill="#F1F1F1" height="47.6094" rx="2.5" ry="2.5" style="stroke:#181818;stroke-width:0.5;" width="110.8203" x="523.6025" y="195.5447"/><rect fill="#F1F1F1" height="10" style="stroke:#181818;stroke-width:0.5;" width="15" x="614.4228" y="200.5447"/><rect fill="#F1F1F1" height="2" style="stroke:#181818;stroke-width:0.5;" width="4" x="612.4228" y="202.5447"/><rect fill="#F1F1F1" height="2" style="stroke:#181818;stroke-width:0.5;" width="4" x="612.4228" y="206.5447"/><text fill="#000000" font-family="sans-serif" font-size="14" lengthAdjust="spacing" textLength="70.8203" x="538.6025" y="230.0779">Laurent RA</text></g><!--entity ra2--><g id="elem_ra2"><rect fill="#F1F1F1" height="47.6094" rx="2.5" ry="2.5" style="stroke:#181818;stroke-width:0.5;" width="71.124" x="669.6025" y="195.5447"/><rect fill="#F1F1F1" height="10" style="stroke:#181818;stroke-width:0.5;" width="15" x="720.7265" y="200.5447"/><rect fill="#F1F1F1" height="2" style="stroke:#181818;stroke-width:0.5;" width="4" x="718.7265" y="202.5447"/><rect fill="#F1F1F1" height="2" style="stroke:#181818;stroke-width:0.5;" width="4" x="718.7265" y="206.5447"/><text fill="#000000" font-family="sans-serif" font-size="14" lengthAdjust="spacing" textLength="31.124" x="684.6025" y="230.0779">RA 2</text></g><!--entity ra3--><g id="elem_ra3"><rect fill="#F1F1F1" height="47.6094" rx="2.5" ry="2.5" style="stroke:#181818;stroke-width:0.5;" width="71.124" x="813.6025" y="195.5447"/><rect fill="#F1F1F1" height="10" style="stroke:#181818;stroke-width:0.5;" width="15" x="864.7265" y="200.5447"/><rect fill="#F1F1F1" height="2" style="stroke:#181818;stroke-width:0.5;" width="4" x="862.7265" y="202.5447"/><rect fill="#F1F1F1" height="2" style="stroke:#181818;stroke-width:0.5;" width="4" x="862.7265" y="206.5447"/><text fill="#000000" font-family="sans-serif" font-size="14" lengthAdjust="spacing" textLength="31.124" x="828.6025" y="230.0779">RA 3</text></g><!--entity marie--><g id="elem_marie"><rect fill="#F1F1F1" height="47.6094" rx="2.5" ry="2.5" style="stroke:#181818;stroke-width:0.5;" width="134.1377" x="616.1025" y="87.5447"/><rect fill="#F1F1F1" height="10" style="stroke:#181818;stroke-width:0.5;" width="15" x="730.2402" y="92.5447"/><rect fill="#F1F1F1" height="2" style="stroke:#181818;stroke-width:0.5;" width="4" x="728.2402" y="94.5447"/><rect fill="#F1F1F1" height="2" style="stroke:#181818;stroke-width:0.5;" width="4" x="728.2402" y="98.5447"/><text fill="#000000" font-family="sans-serif" font-size="14" lengthAdjust="spacing" textLength="94.1377" x="631.1025" y="122.0779">Marie Direction</text></g><!--entity server--><g id="elem_server"><rect fill="#F1F1F1" height="47.6094" rx="2.5" ry="2.5" style="stroke:#181818;stroke-width:0.5;" width="160.6064" x="708.6025" y="333.5447"/><rect fill="#F1F1F1" height="10" style="stroke:#181818;stroke-width:0.5;" width="15" x="849.2089" y="338.5447"/><rect fill="#F1F1F1" height="2" style="stroke:#181818;stroke-width:0.5;" width="4" x="847.2089" y="340.5447"/><rect fill="#F1F1F1" height="2" style="stroke:#181818;stroke-width:0.5;" width="4" x="847.2089" y="344.5447"/><text fill="#000000" font-family="sans-serif" font-size="14" lengthAdjust="spacing" textLength="120.6064" x="723.6025" y="368.0779">Serveur Sage MDE</text></g><!--entity vpn--><g id="elem_vpn"><rect fill="#F1F1F1" height="47.6094" rx="2.5" ry="2.5" style="stroke:#181818;stroke-width:0.5;" width="68.7861" x="942.6025" y="87.5447"/><rect fill="#F1F1F1" height="10" style="stroke:#181818;stroke-width:0.5;" width="15" x="991.3886" y="92.5447"/><rect fill="#F1F1F1" height="2" style="stroke:#181818;stroke-width:0.5;" width="4" x="989.3886" y="94.5447"/><rect fill="#F1F1F1" height="2" style="stroke:#181818;stroke-width:0.5;" width="4" x="989.3886" y="98.5447"/><text fill="#000000" font-family="sans-serif" font-size="14" lengthAdjust="spacing" textLength="28.7861" x="957.6025" y="122.0779">VPN</text></g><!--entity citrix--><g id="elem_citrix"><rect fill="#F1F1F1" height="47.6094" rx="2.5" ry="2.5" style="stroke:#181818;stroke-width:0.5;" width="71.8828" x="941.1025" y="195.5447"/><rect fill="#F1F1F1" height="10" style="stroke:#181818;stroke-width:0.5;" width="15" x="992.9853" y="200.5447"/><rect fill="#F1F1F1" height="2" style="stroke:#181818;stroke-width:0.5;" width="4" x="990.9853" y="202.5447"/><rect fill="#F1F1F1" height="2" style="stroke:#181818;stroke-width:0.5;" width="4" x="990.9853" y="206.5447"/><text fill="#000000" font-family="sans-serif" font-size="14" lengthAdjust="spacing" textLength="31.8828" x="956.1025" y="230.0779">Citrix</text></g><!--entity dossiers--><g id="elem_dossiers"><rect fill="#F1F1F1" height="47.6094" rx="2.5" ry="2.5" style="stroke:#181818;stroke-width:0.5;" width="131.793" x="189.1025" y="333.5447"/><rect fill="#F1F1F1" height="10" style="stroke:#181818;stroke-width:0.5;" width="15" x="300.8954" y="338.5447"/><rect fill="#F1F1F1" height="2" style="stroke:#181818;stroke-width:0.5;" width="4" x="298.8954" y="340.5447"/><rect fill="#F1F1F1" height="2" style="stroke:#181818;stroke-width:0.5;" width="4" x="298.8954" y="344.5447"/><text fill="#000000" font-family="sans-serif" font-size="14" lengthAdjust="spacing" textLength="91.793" x="204.1025" y="368.0779">Dossiers Word</text></g><!--entity excelL--><g id="elem_excelL"><rect fill="#F1F1F1" height="47.6094" rx="2.5" ry="2.5" style="stroke:#181818;stroke-width:0.5;" width="125.6064" x="28.1025" y="333.5447"/><rect fill="#F1F1F1" height="10" style="stroke:#181818;stroke-width:0.5;" width="15" x="133.7089" y="338.5447"/><rect fill="#F1F1F1" height="2" style="stroke:#181818;stroke-width:0.5;" width="4" x="131.7089" y="340.5447"/><rect fill="#F1F1F1" height="2" style="stroke:#181818;stroke-width:0.5;" width="4" x="131.7089" y="344.5447"/><text fill="#000000" font-family="sans-serif" font-size="14" lengthAdjust="spacing" textLength="85.6064" x="43.1025" y="368.0779">Excel Laurent</text></g><!--entity client1--><g id="elem_client1"><rect fill="#F1F1F1" height="47.6094" rx="2.5" ry="2.5" style="stroke:#181818;stroke-width:0.5;" width="89.0205" x="377.6025" y="333.5447"/><rect fill="#F1F1F1" height="10" style="stroke:#181818;stroke-width:0.5;" width="15" x="446.623" y="338.5447"/><rect fill="#F1F1F1" height="2" style="stroke:#181818;stroke-width:0.5;" width="4" x="444.623" y="340.5447"/><rect fill="#F1F1F1" height="2" style="stroke:#181818;stroke-width:0.5;" width="4" x="444.623" y="344.5447"/><text fill="#000000" font-family="sans-serif" font-size="14" lengthAdjust="spacing" textLength="49.0205" x="392.6025" y="368.0779">Client A</text></g><g id="elem_GMN28"><path d="M917.1025,303.5447 L917.1025,353.5447 L869.9825,357.5447 L917.1025,361.5447 L917.1025,411.6541 A0,0 0 0 0 917.1025,411.6541 L1071.0478,411.6541 A0,0 0 0 0 1071.0478,411.6541 L1071.0478,313.5447 L1061.0478,303.5447 L917.1025,303.5447 A0,0 0 0 0 917.1025,303.5447 " fill="#FEFFDD" style="stroke:#181818;stroke-width:0.5;"/><path d="M1061.0478,303.5447 L1061.0478,313.5447 L1071.0478,313.5447 L1061.0478,303.5447 " fill="#FEFFDD" style="stroke:#181818;stroke-width:0.5;"/><text fill="#000000" font-family="sans-serif" font-size="13" font-weight="bold" lengthAdjust="spacing" textLength="124.2236" x="923.1025" y="322.0399">FLUX CHAOTIQUES</text><text fill="#000000" font-family="sans-serif" font-size="13" lengthAdjust="spacing" textLength="87.4326" x="923.1025" y="338.3914">- ERP obsolete</text><text fill="#000000" font-family="sans-serif" font-size="13" lengthAdjust="spacing" textLength="83.8208" x="923.1025" y="354.743">- 30-40s/ecran</text><text fill="#000000" font-family="sans-serif" font-size="13" lengthAdjust="spacing" textLength="132.9326" x="923.1025" y="371.0945">- Teletravail impossible</text><text fill="#000000" font-family="sans-serif" font-size="13" lengthAdjust="spacing" textLength="132.9453" x="923.1025" y="387.4461">- Documents eparpilles</text><text fill="#000000" font-family="sans-serif" font-size="13" lengthAdjust="spacing" textLength="108.3862" x="923.1025" y="403.7977">- Direction aveugle</text></g><!--link vpn to citrix--><g id="link_vpn_citrix"><path d="M977.1025,135.5447 C977.1025,153.2047 977.1025,171.4847 977.1025,189.2247 " fill="none" id="vpn-to-citrix" style="stroke:#181818;stroke-width:1;"/><polygon fill="#181818" points="977.1025,195.2247,981.1025,186.2247,977.1025,190.2247,973.1025,186.2247,977.1025,195.2247" style="stroke:#181818;stroke-width:1;"/></g><!--link citrix to server--><g id="link_citrix_server"><path d="M945.2125,243.6147 C910.6425,268.6247 860.6432,304.7872 826.0132,329.8472 " fill="none" id="citrix-to-server" style="stroke:#181818;stroke-width:1;stroke-dasharray:7.0,7.0;"/><polygon fill="#181818" points="821.1525,333.3647,830.7886,331.329,825.2031,330.4335,826.0986,324.848,821.1525,333.3647" style="stroke:#181818;stroke-width:1;"/></g><!--link laurent to server--><g id="link_laurent_server"><path d="M614.7225,243.6147 C653.3425,268.6247 709.5869,305.0423 748.2669,330.1023 " fill="none" id="laurent-to-server" style="stroke:#181818;stroke-width:1;"/><polygon fill="#181818" points="753.3025,333.3647,747.9241,325.1141,749.1062,330.6461,743.5742,331.8281,753.3025,333.3647" style="stroke:#181818;stroke-width:1;"/></g><!--link ra2 to server--><g id="link_ra2_server"><path d="M719.3525,243.6147 C734.8025,268.6247 756.1607,303.1992 771.6307,328.2592 " fill="none" id="ra2-to-server" style="stroke:#181818;stroke-width:1;"/><polygon fill="#181818" points="774.7825,333.3647,773.4585,323.6053,772.156,329.1101,766.6512,327.8076,774.7825,333.3647" style="stroke:#181818;stroke-width:1;"/></g><!--link ra3 to server--><g id="link_ra3_server"><path d="M838.9225,243.6147 C827.8925,268.6247 812.8032,302.8148 801.7532,327.8748 " fill="none" id="ra3-to-server" style="stroke:#181818;stroke-width:1;"/><polygon fill="#181818" points="799.3325,333.3647,806.6236,326.7436,801.3498,328.7898,799.3036,323.5159,799.3325,333.3647" style="stroke:#181818;stroke-width:1;"/></g><!--link laurent to dossiers--><g id="link_laurent_dossiers"><path d="M523.4325,233.9247 C478.4825,245.7147 414.2025,264.8647 361.1025,289.5447 C334.8425,301.7447 312.2021,315.9489 291.7521,330.0489 " fill="none" id="laurent-to-dossiers" style="stroke:#181818;stroke-width:1;"/><polygon fill="#181818" points="286.8125,333.4547,296.4925,331.6391,290.9289,330.6165,291.9514,325.0529,286.8125,333.4547" style="stroke:#181818;stroke-width:1;"/></g><!--link laurent to excelL--><g id="link_laurent_excelL"><path d="M523.2825,220.8647 C442.0925,223.2947 288.3525,235.4347 171.1025,289.5447 C148.5625,299.9447 131.4922,314.1692 116.5322,329.0792 " fill="none" id="laurent-to-excelL" style="stroke:#181818;stroke-width:1;"/><polygon fill="#181818" points="112.2825,333.3147,121.4808,329.7946,115.8239,329.7851,115.8334,324.1283,112.2825,333.3147" style="stroke:#181818;stroke-width:1;"/></g><!--link ra2 to dossiers--><g id="link_ra2_dossiers"><path d="M685.2025,243.8247 C676.1025,252.8547 664.5625,262.2747 652.1025,267.5447 C532.6625,318.1047 484.2425,248.7947 361.1025,289.5447 C332.3725,299.0547 308.3825,314.3715 288.0725,329.6915 " fill="none" id="ra2-to-dossiers" style="stroke:#181818;stroke-width:1;"/><polygon fill="#181818" points="283.2825,333.3047,292.8764,331.0783,287.2742,330.2937,288.0588,324.6916,283.2825,333.3047" style="stroke:#181818;stroke-width:1;"/></g><!--link marie to laurent--><g id="link_marie_laurent"><path d="M660.5325,135.5447 C643.2125,153.2047 623.5839,173.2013 606.1839,190.9413 " fill="none" id="marie-to-laurent" style="stroke:#181818;stroke-width:1;stroke-dasharray:7.0,7.0;"/><polygon fill="#181818" points="601.9825,195.2247,611.1402,191.6004,605.4836,191.6552,605.4289,185.9986,601.9825,195.2247" style="stroke:#181818;stroke-width:1;"/></g><!--link marie to server--><g id="link_marie_server"><path d="M710.4225,135.6047 C726.7825,150.9247 746.5725,172.4247 758.1025,195.5447 C780.7125,240.8847 786.5557,295.0226 788.2157,327.4526 " fill="none" id="marie-to-server" style="stroke:#181818;stroke-width:1;stroke-dasharray:7.0,7.0;"/><polygon fill="#181818" points="788.5225,333.4447,792.0572,324.252,788.2669,328.4513,784.0676,324.661,788.5225,333.4447" style="stroke:#181818;stroke-width:1;"/></g><!--link laurent to client1--><g id="link_laurent_client1"><path d="M562.9025,243.6147 C538.1125,268.6247 497.0903,304.6754 464.1003,329.7354 " fill="none" id="laurent-to-client1" style="stroke:#181818;stroke-width:1;"/><polygon fill="#181818" points="459.3225,333.3647,468.9088,331.1059,463.304,330.3403,464.0697,324.7355,459.3225,333.3647" style="stroke:#181818;stroke-width:1;"/></g><!--link client1 to laurent--><g id="link_client1_laurent"><path d="M438.9925,333.3647 C464.0725,308.3047 505.1255,272.2684 537.8455,247.2584 " fill="none" id="client1-to-laurent" style="stroke:#181818;stroke-width:1;stroke-dasharray:7.0,7.0;"/><polygon fill="#181818" points="542.6125,243.6147,533.033,245.9023,538.64,246.6511,537.8912,252.2582,542.6125,243.6147" style="stroke:#181818;stroke-width:1;"/></g><!--SRC=[RLBRQjmm47tNLnpokE0qpVOvuAuTMjXSkfUqK4fHx5bNH2kPaRnTAFttwc9diz0d-LncvcWihxmct9F_RVa5bP8TopqAtEhXY9PGMME87Ch5PbilWu6fySgQejpjP01EY5usBx8ZN7mScEI0jQAEBl170D-NCd36OrN-W7JG6KPbLU8wSIolHpmVyJpYEycAJlEIj8zS5DV41neOwpZthggJwYB9ugyGZRP3YwV7-vyBvLaTSvQ0a-_GcmYpb9WcVPug7mnLh0wKwohhd29s-6gvJVvsPA9Q7nlI6E-PL8hCyjHjeLMGN6wM0V8wcWJUHsi8XQAucQBa0vUNDzErnBYxv1gviBfpE7yBpofU8xybnwHJcrUFI8jEqwS_TcB-rtswo7YULGfZFO5Lzyl3xgPoO3QxNMw_OV6fVDXy_hAjrxDPO0lKgqVOPsSrUKh4_AhuSENUKSFI9693GMDva4f3xVkO-bbdRsMROP-sJRtaNcbDBWlJGu8CBwSBTZ8jOZJn3m00]--></g></svg>