<svg xmlns="http://www.w3.org/2000/svg" xmlns:xlink="http://www.w3.org/1999/xlink" contentStyleType="text/css" height="295px" preserveAspectRatio="none" style="width:841px;height:295px;background:#FFFFFF;" version="1.1" viewBox="0 0 841 295" width="841px" zoomAndPan="magnify"><title>Mind Map - Pain Points Direction &amp; Gestion Affaires</title><defs/><g><text fill="#000000" font-family="sans-serif" font-size="14" font-weight="bold" lengthAdjust="spacing" textLength="343.8135" x="247.2163" y="34.5332">Mind Map - Pain Points Direction &amp; Gestion Affaires</text><rect fill="#F1F1F1" height="55.2188" rx="12.5" ry="12.5" style="stroke:#181818;stroke-width:1.5;" width="124.2344" x="348.5645" y="138.6563"/><text fill="#000000" font-family="sans-serif" font-size="14" lengthAdjust="spacing" textLength="11.6689" x="358.5645" y="163.1895">[!]</text><text fill="#000000" font-family="sans-serif" font-size="14" font-weight="bold" lengthAdjust="spacing" textLength="88.6758" x="374.123" y="163.1895">PROBLEMES</text><text fill="#000000" font-family="sans-serif" font-size="14" font-weight="bold" lengthAdjust="spacing" textLength="68.4551" x="358.5645" y="180.7988">MAJEURS</text><rect fill="#F1F1F1" height="55.2188" rx="12.5" ry="12.5" style="stroke:#181818;stroke-width:1.5;" width="113.3789" x="522.7988" y="60.2188"/><text fill="#000000" font-family="sans-serif" font-size="14" lengthAdjust="spacing" textLength="93.3789" x="532.7988" y="84.752">[!] ERP Legacy</text><text fill="#000000" font-family="sans-serif" font-size="14" lengthAdjust="spacing" textLength="89.4619" x="532.7988" y="102.3613">CALAMITEUX</text><text fill="#000000" font-family="sans-serif" font-size="14" lengthAdjust="spacing" textLength="124.5166" x="689.1777" y="64.1426">MDE/Sage obsolete</text><path d="M636.1777,87.8281 L646.1777,87.8281 C661.1777,87.8281 661.1777,58.4141 676.1777,58.4141 L686.1777,58.4141 " fill="none" style="stroke:#181818;stroke-width:1;"/><text fill="#000000" font-family="sans-serif" font-size="14" lengthAdjust="spacing" textLength="105.8408" x="689.1777" y="83.752">30-40s par ecran</text><path d="M636.1777,87.8281 L646.1777,87.8281 C661.1777,87.8281 661.1777,78.0234 676.1777,78.0234 L686.1777,78.0234 " fill="none" style="stroke:#181818;stroke-width:1;"/><text fill="#000000" font-family="sans-serif" font-size="14" lengthAdjust="spacing" textLength="103.0859" x="689.1777" y="103.3613">VPN + Citrix lent</text><path d="M636.1777,87.8281 L646.1777,87.8281 C661.1777,87.8281 661.1777,97.6328 676.1777,97.6328 L686.1777,97.6328 " fill="none" style="stroke:#181818;stroke-width:1;"/><text fill="#000000" font-family="sans-serif" font-size="14" lengthAdjust="spacing" textLength="134.6064" x="689.1777" y="122.9707">Teletravail impossible</text><path d="M636.1777,87.8281 L646.1777,87.8281 C661.1777,87.8281 661.1777,117.2422 676.1777,117.2422 L686.1777,117.2422 " fill="none" style="stroke:#181818;stroke-width:1;"/><path d="M472.7988,166.2656 L482.7988,166.2656 C497.7988,166.2656 497.7988,87.8281 512.7988,87.8281 L522.7988,87.8281 " fill="none" style="stroke:#181818;stroke-width:1;"/><rect fill="#F1F1F1" height="55.2188" rx="12.5" ry="12.5" style="stroke:#181818;stroke-width:1.5;" width="111.793" x="522.7988" y="138.6563"/><text fill="#000000" font-family="sans-serif" font-size="14" lengthAdjust="spacing" textLength="80.917" x="532.7988" y="163.1895">[!] Templates</text><text fill="#000000" font-family="sans-serif" font-size="14" lengthAdjust="spacing" textLength="91.793" x="532.7988" y="180.7988">INEXISTANTS</text><text fill="#000000" font-family="sans-serif" font-size="14" lengthAdjust="spacing" textLength="128.4063" x="687.5918" y="142.5801">Recherche manuelle</text><path d="M634.5918,166.2656 L644.5918,166.2656 C659.5918,166.2656 659.5918,136.8516 674.5918,136.8516 L684.5918,136.8516 " fill="none" style="stroke:#181818;stroke-width:1;"/><text fill="#000000" font-family="sans-serif" font-size="14" lengthAdjust="spacing" textLength="117.1064" x="687.5918" y="162.1895">200+ fichiers Word</text><path d="M634.5918,166.2656 L644.5918,166.2656 C659.5918,166.2656 659.5918,156.4609 674.5918,156.4609 L684.5918,156.4609 " fill="none" style="stroke:#181818;stroke-width:1;"/><text fill="#000000" font-family="sans-serif" font-size="14" lengthAdjust="spacing" textLength="133.8477" x="687.5918" y="181.7988">Nommage incoherent</text><path d="M634.5918,166.2656 L644.5918,166.2656 C659.5918,166.2656 659.5918,176.0703 674.5918,176.0703 L684.5918,176.0703 " fill="none" style="stroke:#181818;stroke-width:1;"/><text fill="#000000" font-family="sans-serif" font-size="14" lengthAdjust="spacing" textLength="101.9512" x="687.5918" y="201.4082">30 min de fouille</text><path d="M634.5918,166.2656 L644.5918,166.2656 C659.5918,166.2656 659.5918,195.6797 674.5918,195.6797 L684.5918,195.6797 " fill="none" style="stroke:#181818;stroke-width:1;"/><path d="M472.7988,166.2656 L482.7988,166.2656 C497.7988,166.2656 497.7988,166.2656 512.7988,166.2656 L522.7988,166.2656 " fill="none" style="stroke:#181818;stroke-width:1;"/><rect fill="#F1F1F1" height="55.2188" rx="12.5" ry="12.5" style="stroke:#181818;stroke-width:1.5;" width="118.041" x="522.7988" y="217.0938"/><text fill="#000000" font-family="sans-serif" font-size="14" lengthAdjust="spacing" textLength="62.248" x="532.7988" y="241.627">[!] PPSPS</text><text fill="#000000" font-family="sans-serif" font-size="14" lengthAdjust="spacing" textLength="98.041" x="532.7988" y="259.2363">100% MANUEL</text><text fill="#000000" font-family="sans-serif" font-size="14" font-weight="bold" lengthAdjust="spacing" textLength="92.5928" x="693.8398" y="221.0176">3h par PPSPS</text><path d="M640.8398,244.7031 L650.8398,244.7031 C665.8398,244.7031 665.8398,215.2891 680.8398,215.2891 L690.8398,215.2891 " fill="none" style="stroke:#181818;stroke-width:1;"/><text fill="#000000" font-family="sans-serif" font-size="14" lengthAdjust="spacing" textLength="104.6309" x="693.8398" y="240.627">Ctrl+F remplacer</text><path d="M640.8398,244.7031 L650.8398,244.7031 C665.8398,244.7031 665.8398,234.8984 680.8398,234.8984 L690.8398,234.8984 " fill="none" style="stroke:#181818;stroke-width:1;"/><text fill="#000000" font-family="sans-serif" font-size="14" lengthAdjust="spacing" textLength="135.4063" x="693.8398" y="260.2363">Risque oublis clauses</text><path d="M640.8398,244.7031 L650.8398,244.7031 C665.8398,244.7031 665.8398,254.5078 680.8398,254.5078 L690.8398,254.5078 " fill="none" style="stroke:#181818;stroke-width:1;"/><text fill="#000000" font-family="sans-serif" font-size="14" lengthAdjust="spacing" textLength="106.6201" x="693.8398" y="279.8457">100% copie-colle</text><path d="M640.8398,244.7031 L650.8398,244.7031 C665.8398,244.7031 665.8398,274.1172 680.8398,274.1172 L690.8398,274.1172 " fill="none" style="stroke:#181818;stroke-width:1;"/><path d="M472.7988,166.2656 L482.7988,166.2656 C497.7988,166.2656 497.7988,244.7031 512.7988,244.7031 L522.7988,244.7031 " fill="none" style="stroke:#181818;stroke-width:1;"/><rect fill="#F1F1F1" height="55.2188" rx="12.5" ry="12.5" style="stroke:#181818;stroke-width:1.5;" width="91.5654" x="206.999" y="60.2188"/><text fill="#000000" font-family="sans-serif" font-size="14" lengthAdjust="spacing" textLength="59.1445" x="216.999" y="84.752">[!] Pas de</text><text fill="#000000" font-family="sans-serif" font-size="14" lengthAdjust="spacing" textLength="71.5654" x="216.999" y="102.3613">visibilite TR</text><text fill="#000000" font-family="sans-serif" font-size="14" lengthAdjust="spacing" textLength="108.1719" x="45.8271" y="64.1426">Direction aveugle</text><path d="M206.999,87.8281 L196.999,87.8281 C181.999,87.8281 181.999,58.4141 166.999,58.4141 L156.999,58.4141 " fill="none" style="stroke:#181818;stroke-width:1;"/><text fill="#000000" font-family="sans-serif" font-size="14" lengthAdjust="spacing" textLength="101.1787" x="52.8203" y="83.752">Budget disperse</text><path d="M206.999,87.8281 L196.999,87.8281 C181.999,87.8281 181.999,78.0234 166.999,78.0234 L156.999,78.0234 " fill="none" style="stroke:#181818;stroke-width:1;"/><text fill="#000000" font-family="sans-serif" font-size="14" lengthAdjust="spacing" textLength="130.751" x="23.248" y="103.3613">Avancement inconnu</text><path d="M206.999,87.8281 L196.999,87.8281 C181.999,87.8281 181.999,97.6328 166.999,97.6328 L156.999,97.6328 " fill="none" style="stroke:#181818;stroke-width:1;"/><text fill="#000000" font-family="sans-serif" font-size="14" lengthAdjust="spacing" textLength="104.2754" x="49.7236" y="122.9707">3h pour compiler</text><path d="M206.999,87.8281 L196.999,87.8281 C181.999,87.8281 181.999,117.2422 166.999,117.2422 L156.999,117.2422 " fill="none" style="stroke:#181818;stroke-width:1;"/><path d="M348.5645,166.2656 L338.5645,166.2656 C323.5645,166.2656 323.5645,87.8281 308.5645,87.8281 L298.5645,87.8281 " fill="none" style="stroke:#181818;stroke-width:1;"/><rect fill="#F1F1F1" height="55.2188" rx="12.5" ry="12.5" style="stroke:#181818;stroke-width:1.5;" width="73.6963" x="224.8682" y="138.6563"/><text fill="#000000" font-family="sans-serif" font-size="14" lengthAdjust="spacing" textLength="50.5654" x="234.8682" y="163.1895">[!] Devis</text><text fill="#000000" font-family="sans-serif" font-size="14" lengthAdjust="spacing" textLength="53.6963" x="234.8682" y="180.7988">tres long</text><text fill="#000000" font-family="sans-serif" font-size="14" font-weight="bold" lengthAdjust="spacing" textLength="97.2754" x="74.5928" y="142.5801">2h05 par devis</text><path d="M224.8682,166.2656 L214.8682,166.2656 C199.8682,166.2656 199.8682,136.8516 184.8682,136.8516 L174.8682,136.8516 " fill="none" style="stroke:#181818;stroke-width:1;"/><text fill="#000000" font-family="sans-serif" font-size="14" lengthAdjust="spacing" textLength="117.5029" x="54.3652" y="162.1895">30 lignes &#195;&#8212; 5min</text><path d="M224.8682,166.2656 L214.8682,166.2656 C199.8682,166.2656 199.8682,156.4609 184.8682,156.4609 L174.8682,156.4609 " fill="none" style="stroke:#181818;stroke-width:1;"/><text fill="#000000" font-family="sans-serif" font-size="14" lengthAdjust="spacing" textLength="98.834" x="73.0342" y="181.7988">Saisie manuelle</text><path d="M224.8682,166.2656 L214.8682,166.2656 C199.8682,166.2656 199.8682,176.0703 184.8682,176.0703 L174.8682,176.0703 " fill="none" style="stroke:#181818;stroke-width:1;"/><text fill="#000000" font-family="sans-serif" font-size="14" lengthAdjust="spacing" textLength="105.8203" x="66.0479" y="201.4082">Verif Excel perso</text><path d="M224.8682,166.2656 L214.8682,166.2656 C199.8682,166.2656 199.8682,195.6797 184.8682,195.6797 L174.8682,195.6797 " fill="none" style="stroke:#181818;stroke-width:1;"/><path d="M348.5645,166.2656 L338.5645,166.2656 C323.5645,166.2656 323.5645,166.2656 308.5645,166.2656 L298.5645,166.2656 " fill="none" style="stroke:#181818;stroke-width:1;"/><rect fill="#F1F1F1" height="55.2188" rx="12.5" ry="12.5" style="stroke:#181818;stroke-width:1.5;" width="111.0547" x="187.5098" y="217.0938"/><text fill="#000000" font-family="sans-serif" font-size="14" lengthAdjust="spacing" textLength="63.041" x="197.5098" y="241.627">[!] Aucune</text><text fill="#000000" font-family="sans-serif" font-size="14" lengthAdjust="spacing" textLength="91.0547" x="197.5098" y="259.2363">automatisation</text><text fill="#000000" font-family="sans-serif" font-size="14" lengthAdjust="spacing" textLength="124.5098" x="10" y="221.0176">Zero templates auto</text><path d="M187.5098,244.7031 L177.5098,244.7031 C162.5098,244.7031 162.5098,215.2891 147.5098,215.2891 L137.5098,215.2891 " fill="none" style="stroke:#181818;stroke-width:1;"/><text fill="#000000" font-family="sans-serif" font-size="14" lengthAdjust="spacing" textLength="105.8408" x="28.6689" y="240.627">Zero dashboards</text><path d="M187.5098,244.7031 L177.5098,244.7031 C162.5098,244.7031 162.5098,234.8984 147.5098,234.8984 L137.5098,234.8984 " fill="none" style="stroke:#181818;stroke-width:1;"/><text fill="#000000" font-family="sans-serif" font-size="14" lengthAdjust="spacing" textLength="62.2412" x="72.2686" y="260.2363">Zero APIs</text><path d="M187.5098,244.7031 L177.5098,244.7031 C162.5098,244.7031 162.5098,254.5078 147.5098,254.5078 L137.5098,254.5078 " fill="none" style="stroke:#181818;stroke-width:1;"/><text fill="#000000" font-family="sans-serif" font-size="14" lengthAdjust="spacing" textLength="85.6133" x="48.8965" y="279.8457">100% manuel</text><path d="M187.5098,244.7031 L177.5098,244.7031 C162.5098,244.7031 162.5098,274.1172 147.5098,274.1172 L137.5098,274.1172 " fill="none" style="stroke:#181818;stroke-width:1;"/><path d="M348.5645,166.2656 L338.5645,166.2656 C323.5645,166.2656 323.5645,244.7031 308.5645,244.7031 L298.5645,244.7031 " fill="none" style="stroke:#181818;stroke-width:1;"/><!--SRC=[NLF1Rjf04BtxAwQ7LeaZKaCWYZZ50ISbmjJ2XaOj5LhiCQoqtdLtroYvLUelz8_w9_sIZcr8K0-Ml3FlUTvxExurbcbRS9aLh8I8SRcE59VMhCTSOsgvaci_pnaTZEDORWL2I6W82Tvf2D0Iu9K07-01JVFsHdNXsxlluBhH_FFTD0Y3s7LNqdL3_p5OpEdWk2qYc4SmnIrBNrPov4_zS984YoVgkci8ny77c6qHrCOeWHRRyfNNwNi6IgO1KyraMrr6CxY04RUQFuD0QTjoWaJKRC-u05wKoXY-4UWSnoTOb89PD2ivcGLFapZnPqdSKkUOxb3J0mMJ5GfncD_pl0l8URhZg0ryKJfhwpDL5BLQBbD5n5S9LnvGu90XvAhYucHw5CLHl99TptiFeJzR1DEMuRfNkyPV0sZ2ekh8Qd5n3xgHdA8-gEJcHqKHLHl13QI2LORoRrhDTrDLSkoagfahCBTWU7OYWHbIjf9xJi5mmIr2Cc_fRnVCzbXjZ_RlgcoB5Z9kIl9_AFfx9bCio7DZNyhgu9ryg4gJYgBaWZGVvuwH9gwafMK1eUJsQBotymQDzQm67ArJX89l9M7__FhxypSCAD2s4pCI_lyDBL7p78Bd50NK8jNhMBzAAqbsMMLLmImth3ROihwYLc2F2m4rvAIHCRFRAAOpSrBqeybfrgqAnxb5-h_QVynn8i6aNOHJs9EIEitkPS_hzIzlpkurfwNPGtS0tPjXlp_iNyCeIA1kdpjd3z4K38MNOXqsxVMcgiMUEu-qpZ2lfEK53g4-dINXESJ1iGW1tQTMihuFvt4PjY3uf6nSAjk0h_kTEsuXHasoO1awOynP9InHKvLnkHt2gEps1ZrdokIsehqUGgwTaQ89-cK8z_D_]--></g></svg>