<svg xmlns="http://www.w3.org/2000/svg" xmlns:xlink="http://www.w3.org/1999/xlink" contentStyleType="text/css" height="1584px" preserveAspectRatio="none" style="width:1734px;height:1584px;background:#FFFFFF;" version="1.1" viewBox="0 0 1734 1584" width="1734px" zoomAndPan="magnify"><title>Processus Commande Mat&#195;&#169;riel - Swimlanes (&#195;&#8240;tat ACTUEL)</title><defs/><g><text fill="#000000" font-family="Verdana" font-size="22" font-weight="bold" lengthAdjust="spacing" textLength="785.8662" x="473.005" y="37.1182">Processus Commande Mat&#195;&#169;riel - Swimlanes (&#195;&#8240;tat ACTUEL)</text><rect fill="#FFFFFF" height="21.876" style="stroke:#FFFFFF;stroke-width:1;" width="1711.8762" x="10" y="55.0166"/><rect fill="#FFC0CB" height="1522.7349" style="stroke:#FFC0CB;stroke-width:1;" width="650.4275" x="10" y="55.0166"/><ellipse cx="314.6707" cy="91.8926" fill="#FFFFFF" rx="10" ry="10" style="stroke:#000000;stroke-width:1;"/><path d="M424.7214,126.2849 L424.7214,135.1846 L404.7214,139.1846 L424.7214,143.1846 L424.7214,152.0842 A0,0 0 0 0 424.7214,152.0842 L579.7522,152.0842 A0,0 0 0 0 579.7522,152.0842 L579.7522,136.2849 L569.7522,126.2849 L424.7214,126.2849 A0,0 0 0 0 424.7214,126.2849 " fill="#FFFFFF" style="stroke:#000000;stroke-width:1;"/><path d="M569.7522,126.2849 L569.7522,136.2849 L579.7522,136.2849 L569.7522,126.2849 " fill="#FFFFFF" style="stroke:#000000;stroke-width:1;"/><text fill="#000000" font-family="Verdana" font-size="13" lengthAdjust="spacing" textLength="134.0308" x="430.7214" y="144.3547">C&#195;&#162;ble 3G2.5 - 50m</text><rect fill="#FFFFFF" height="34.584" rx="12.5" ry="12.5" style="stroke:#000000;stroke-width:1;" width="180.1016" x="224.6199" y="121.8926"/><text fill="#000000" font-family="Verdana" font-size="12" lengthAdjust="spacing" textLength="160.1016" x="234.6199" y="143.957">Identifie besoin mat&#195;&#169;riel</text><path d="M403.5457,180.8689 L403.5457,189.7686 L383.5457,193.7686 L403.5457,197.7686 L403.5457,206.6682 A0,0 0 0 0 403.5457,206.6682 L565.47,206.6682 A0,0 0 0 0 565.47,206.6682 L565.47,190.8689 L555.47,180.8689 L403.5457,180.8689 A0,0 0 0 0 403.5457,180.8689 " fill="#FFCCCC" style="stroke:#000000;stroke-width:1;"/><path d="M555.47,180.8689 L555.47,190.8689 L565.47,190.8689 L555.47,180.8689 " fill="#FFCCCC" style="stroke:#000000;stroke-width:1;"/><text fill="#000000" font-family="Verdana" font-size="13" lengthAdjust="spacing" textLength="140.9243" x="409.5457" y="198.9387">&#240;&#376;&#8221;&#180; 5 min recherche</text><rect fill="#FFFFFF" height="34.584" rx="12.5" ry="12.5" style="stroke:#000000;stroke-width:1;" width="137.75" x="245.7957" y="176.4766"/><text fill="#000000" font-family="Verdana" font-size="12" lengthAdjust="spacing" textLength="117.75" x="255.7957" y="198.541">Cherche bon papier</text><path d="M425.0818,235.4529 L425.0818,244.3525 L405.0818,248.3525 L425.0818,252.3525 L425.0818,261.2522 A0,0 0 0 0 425.0818,261.2522 L655.4275,261.2522 A0,0 0 0 0 655.4275,261.2522 L655.4275,245.4529 L645.4275,235.4529 L425.0818,235.4529 A0,0 0 0 0 425.0818,235.4529 " fill="#FFCCCC" style="stroke:#000000;stroke-width:1;"/><path d="M645.4275,235.4529 L645.4275,245.4529 L655.4275,245.4529 L645.4275,235.4529 " fill="#FFCCCC" style="stroke:#000000;stroke-width:1;"/><text fill="#000000" font-family="Verdana" font-size="13" lengthAdjust="spacing" textLength="209.3457" x="431.0818" y="253.5227">&#240;&#376;&#8221;&#180; R&#195;&#169;f&#195;&#169;rence impr&#195;&#169;cise</text><rect fill="#FFFFFF" height="34.584" rx="12.5" ry="12.5" style="stroke:#000000;stroke-width:1;" width="180.8223" x="224.2595" y="231.0605"/><text fill="#000000" font-family="Verdana" font-size="12" lengthAdjust="spacing" textLength="160.8223" x="234.2595" y="253.125">Remplit &#195;&#160; la main (5 min)</text><path d="M411.3357,338.7212 L411.3357,347.6208 L391.3357,351.6208 L411.3357,355.6208 L411.3357,364.5205 A0,0 0 0 0 411.3357,364.5205 L569.4324,364.5205 A0,0 0 0 0 569.4324,364.5205 L569.4324,348.7212 L559.4324,338.7212 L411.3357,338.7212 A0,0 0 0 0 411.3357,338.7212 " fill="#FFCCCC" style="stroke:#000000;stroke-width:1;"/><path d="M559.4324,338.7212 L559.4324,348.7212 L569.4324,348.7212 L559.4324,338.7212 " fill="#FFCCCC" style="stroke:#000000;stroke-width:1;"/><text fill="#000000" font-family="Verdana" font-size="13" lengthAdjust="spacing" textLength="137.0967" x="417.3357" y="356.791">&#240;&#376;&#8221;&#180; 25 min perdues</text><rect fill="#FFFFFF" height="34.584" rx="12.5" ry="12.5" style="stroke:#000000;stroke-width:1;" width="153.3301" x="238.0056" y="334.3289"/><text fill="#000000" font-family="Verdana" font-size="12" lengthAdjust="spacing" textLength="133.3301" x="248.0056" y="356.3933">Attente + Rappel (x3)</text><rect fill="#FFFFFF" height="34.584" rx="12.5" ry="12.5" style="stroke:#000000;stroke-width:1;" width="164.8555" x="232.2429" y="1296.7876"/><text fill="#000000" font-family="Verdana" font-size="12" lengthAdjust="spacing" textLength="144.8555" x="242.2429" y="1318.8521">R&#195;&#169;cup&#195;&#168;re mat&#195;&#169;riel</text><path d="M15,1341.3716 L15,1446.1675 L241.8672,1446.1675 L241.8672,1351.3716 L231.8672,1341.3716 L15,1341.3716 " fill="#FFFFFF" style="stroke:#000000;stroke-width:1;"/><path d="M231.8672,1341.3716 L231.8672,1351.3716 L241.8672,1351.3716 L231.8672,1341.3716 " fill="#FFFFFF" style="stroke:#000000;stroke-width:1;"/><text fill="#000000" font-family="Verdana" font-size="13" font-weight="bold" lengthAdjust="spacing" textLength="200.8081" x="21" y="1359.4414">STATISTIQUES PROCESSUS</text><text fill="#000000" font-family="Verdana" font-size="13" lengthAdjust="spacing" textLength="205.8672" x="21" y="1375.2407">&#226;&#65533;&#176; Dur&#195;&#169;e moyenne: 3 jours</text><text fill="#000000" font-family="Verdana" font-size="13" lengthAdjust="spacing" textLength="170.0156" x="21" y="1391.04">&#226;&#8482;&#187;&#239;&#184;&#65533; Ressaisies: 7 fois</text><text fill="#000000" font-family="Verdana" font-size="13" lengthAdjust="spacing" textLength="156.0063" x="21" y="1406.8394">&#226;&#65533;&#338; Taux erreur: 50%</text><text fill="#000000" font-family="Verdana" font-size="13" lengthAdjust="spacing" textLength="181.2256" x="21" y="1422.6387">&#240;&#376;&#8220;&#382; Appels: 15/commande</text><text fill="#000000" font-family="Verdana" font-size="13" lengthAdjust="spacing" textLength="202.0015" x="21" y="1438.438">&#240;&#376;&#8217;&#176; Co&#195;&#187;t erreurs: 60K&#226;&#8218;&#172;/an</text><polygon fill="#FFFFFF" points="253.8672,1446.1675,375.4741,1446.1675,387.4741,1458.1675,375.4741,1470.1675,253.8672,1470.1675,241.8672,1458.1675,253.8672,1446.1675" style="stroke:#000000;stroke-width:1;"/><text fill="#000000" font-family="Verdana" font-size="11" lengthAdjust="spacing" textLength="121.6069" x="253.8672" y="1462.5422">Mat&#195;&#169;riel conforme ?</text><text fill="#000000" font-family="Verdana" font-size="11" lengthAdjust="spacing" textLength="21.8657" x="220.0015" y="1455.8579">Non</text><text fill="#000000" font-family="Verdana" font-size="11" lengthAdjust="spacing" textLength="18.6377" x="387.4741" y="1455.8579">Oui</text><path d="M204.2278,1480.1675 L204.2278,1504.8665 L184.2278,1508.8665 L204.2278,1512.8665 L204.2278,1537.5654 A0,0 0 0 0 204.2278,1537.5654 L410.7698,1537.5654 A0,0 0 0 0 410.7698,1537.5654 L410.7698,1490.1675 L400.7698,1480.1675 L204.2278,1480.1675 A0,0 0 0 0 204.2278,1480.1675 " fill="#FF0000" style="stroke:#000000;stroke-width:1;"/><path d="M400.7698,1480.1675 L400.7698,1490.1675 L410.7698,1490.1675 L400.7698,1480.1675 " fill="#FF0000" style="stroke:#000000;stroke-width:1;"/><text fill="#000000" font-family="Verdana" font-size="13" lengthAdjust="spacing" textLength="185.542" x="210.2278" y="1498.2373">&#240;&#376;&#8217;&#176; Co&#195;&#187;t erreur: 2,400&#226;&#8218;&#172;</text><text fill="#000000" font-family="Verdana" font-size="13" lengthAdjust="spacing" textLength="131.0664" x="210.2278" y="1514.0366">&#226;&#65533;&#176; Retard: 3 jours</text><text fill="#000000" font-family="Verdana" font-size="13" lengthAdjust="spacing" textLength="144.5044" x="210.2278" y="1529.8359">&#240;&#376;&#732;&#173; Stress &#195;&#169;quipes</text><rect fill="#FF0000" height="34.584" rx="12.5" ry="12.5" style="stroke:#000000;stroke-width:1;" width="164.0059" x="20.2219" y="1491.5745"/><text fill="#000000" font-family="Verdana" font-size="12" lengthAdjust="spacing" textLength="144.0059" x="30.2219" y="1513.6389">&#226;&#65533;&#338; Chantier bloqu&#195;&#169;</text><rect fill="#008000" height="34.584" rx="12.5" ry="12.5" style="stroke:#000000;stroke-width:1;" width="192.6934" x="430.7698" y="1480.1675"/><text fill="#000000" font-family="Verdana" font-size="12" lengthAdjust="spacing" textLength="172.6934" x="440.7698" y="1502.2319">&#226;&#339;&#8230; Fin (Chantier continue)</text><ellipse cx="527.1165" cy="1560.7515" fill="none" rx="11" ry="11" style="stroke:#000000;stroke-width:1;"/><ellipse cx="527.1165" cy="1560.7515" fill="#FFFFFF" rx="6" ry="6" style="stroke:#000000;stroke-width:1;"/><line style="stroke:#000000;stroke-width:1;" x1="10" x2="10" y1="55.0166" y2="1577.7515"/><rect fill="#ADD8E6" height="1522.7349" style="stroke:#ADD8E6;stroke-width:1;" width="468.147" x="660.4275" y="55.0166"/><polygon fill="#FFFFFF" points="721.3008,285.6445,823.7007,285.6445,835.7007,297.6445,823.7007,309.6445,721.3008,309.6445,709.3008,297.6445,721.3008,285.6445" style="stroke:#000000;stroke-width:1;"/><text fill="#000000" font-family="Verdana" font-size="11" lengthAdjust="spacing" textLength="21.8657" x="776.5007" y="320.7036">Non</text><text fill="#000000" font-family="Verdana" font-size="11" lengthAdjust="spacing" textLength="102.3999" x="721.3008" y="302.0193">Sylvie disponible ?</text><text fill="#000000" font-family="Verdana" font-size="11" lengthAdjust="spacing" textLength="18.6377" x="835.7007" y="295.335">Oui</text><polygon fill="#FFFFFF" points="772.5007,388.9128,784.5007,400.9128,772.5007,412.9128,760.5007,400.9128,772.5007,388.9128" style="stroke:#000000;stroke-width:1;"/><rect fill="#FFFFFF" height="34.584" rx="12.5" ry="12.5" style="stroke:#000000;stroke-width:1;" width="103.4492" x="720.7761" y="432.9128"/><text fill="#000000" font-family="Verdana" font-size="12" lengthAdjust="spacing" textLength="83.4492" x="730.7761" y="454.9773">Re&#195;&#167;oit appel</text><path d="M876.2029,491.8892 L876.2029,500.7888 L856.2029,504.7888 L876.2029,508.7888 L876.2029,517.6885 A0,0 0 0 0 876.2029,517.6885 L1069.8845,517.6885 A0,0 0 0 0 1069.8845,517.6885 L1069.8845,501.8892 L1059.8845,491.8892 L876.2029,491.8892 A0,0 0 0 0 876.2029,491.8892 " fill="#FFFFFF" style="stroke:#000000;stroke-width:1;"/><path d="M1059.8845,491.8892 L1059.8845,501.8892 L1069.8845,501.8892 L1059.8845,491.8892 " fill="#FFFFFF" style="stroke:#000000;stroke-width:1;"/><text fill="#000000" font-family="Verdana" font-size="13" lengthAdjust="spacing" textLength="172.6816" x="882.2029" y="509.959">Base donn&#195;&#169;es chaotique</text><rect fill="#FFFFFF" height="34.584" rx="12.5" ry="12.5" style="stroke:#000000;stroke-width:1;" width="167.4043" x="688.7986" y="487.4968"/><text fill="#000000" font-family="Verdana" font-size="12" lengthAdjust="spacing" textLength="147.4043" x="698.7986" y="509.5613">Cherche dans Sage MDE</text><path d="M898.574,590.7651 L898.574,607.5645 L878.574,611.5645 L898.574,615.5645 L898.574,632.3638 A0,0 0 0 0 898.574,632.3638 L1099.5745,632.3638 A0,0 0 0 0 1099.5745,632.3638 L1099.5745,600.7651 L1089.5745,590.7651 L898.574,590.7651 A0,0 0 0 0 898.574,590.7651 " fill="#FFCCCC" style="stroke:#000000;stroke-width:1;"/><path d="M1089.5745,590.7651 L1089.5745,600.7651 L1099.5745,600.7651 L1089.5745,590.7651 " fill="#FFCCCC" style="stroke:#000000;stroke-width:1;"/><text fill="#000000" font-family="Verdana" font-size="13" lengthAdjust="spacing" textLength="180.0005" x="904.574" y="608.835">&#240;&#376;&#8221;&#180; 12 variantes possibles</text><text fill="#000000" font-family="Verdana" font-size="13" lengthAdjust="spacing" textLength="123.4683" x="904.574" y="624.6343">Risque erreur 50%</text><rect fill="#FFFFFF" height="34.584" rx="12.5" ry="12.5" style="stroke:#000000;stroke-width:1;" width="212.1465" x="666.4275" y="594.2725"/><text fill="#000000" font-family="Verdana" font-size="12" lengthAdjust="spacing" textLength="192.1465" x="676.4275" y="616.3369">Choisit r&#195;&#169;f&#195;&#169;rence au hasard</text><polygon fill="#FFFFFF" points="698.9866,542.0808,846.0149,542.0808,858.0149,554.0808,846.0149,566.0808,698.9866,566.0808,686.9866,554.0808,698.9866,542.0808" style="stroke:#000000;stroke-width:1;"/><text fill="#000000" font-family="Verdana" font-size="11" lengthAdjust="spacing" textLength="57.5728" x="776.5007" y="577.1399">Non / Flou</text><text fill="#000000" font-family="Verdana" font-size="11" lengthAdjust="spacing" textLength="147.0283" x="698.9866" y="558.4556">R&#195;&#169;f&#195;&#169;rence trouv&#195;&#169;e ?</text><text fill="#000000" font-family="Verdana" font-size="11" lengthAdjust="spacing" textLength="18.6377" x="858.0149" y="551.7712">Oui</text><polygon fill="#FFFFFF" points="772.5007,652.3638,784.5007,664.3638,772.5007,676.3638,760.5007,664.3638,772.5007,652.3638" style="stroke:#000000;stroke-width:1;"/><path d="M886.2136,700.7561 L886.2136,709.6558 L866.2136,713.6558 L886.2136,717.6558 L886.2136,726.5554 A0,0 0 0 0 886.2136,726.5554 L1115.8484,726.5554 A0,0 0 0 0 1115.8484,726.5554 L1115.8484,710.7561 L1105.8484,700.7561 L886.2136,700.7561 A0,0 0 0 0 886.2136,700.7561 " fill="#FFCCCC" style="stroke:#000000;stroke-width:1;"/><path d="M1105.8484,700.7561 L1105.8484,710.7561 L1115.8484,710.7561 L1105.8484,700.7561 " fill="#FFCCCC" style="stroke:#000000;stroke-width:1;"/><text fill="#000000" font-family="Verdana" font-size="13" lengthAdjust="spacing" textLength="208.6348" x="892.2136" y="718.8259">&#240;&#376;&#8221;&#180; Donn&#195;&#169;es &#195;&#169;parpill&#195;&#169;es</text><rect fill="#FFFFFF" height="34.584" rx="12.5" ry="12.5" style="stroke:#000000;stroke-width:1;" width="187.4258" x="678.7878" y="696.3638"/><text fill="#000000" font-family="Verdana" font-size="12" lengthAdjust="spacing" textLength="167.4258" x="688.7878" y="718.4282">Cherche fournisseur (Excel)</text><path d="M860.365,755.3401 L860.365,764.2397 L840.365,768.2397 L860.365,772.2397 L860.365,781.1394 A0,0 0 0 0 860.365,781.1394 L1091.6692,781.1394 A0,0 0 0 0 1091.6692,781.1394 L1091.6692,765.3401 L1081.6692,755.3401 L860.365,755.3401 A0,0 0 0 0 860.365,755.3401 " fill="#FFCCCC" style="stroke:#000000;stroke-width:1;"/><path d="M1081.6692,755.3401 L1081.6692,765.3401 L1091.6692,765.3401 L1081.6692,755.3401 " fill="#FFCCCC" style="stroke:#000000;stroke-width:1;"/><text fill="#000000" font-family="Verdana" font-size="13" lengthAdjust="spacing" textLength="210.3042" x="866.365" y="773.4099">&#240;&#376;&#8221;&#180; Pas de commande en ligne</text><rect fill="#FFFFFF" height="34.584" rx="12.5" ry="12.5" style="stroke:#000000;stroke-width:1;" width="135.7285" x="704.6365" y="750.9478"/><text fill="#000000" font-family="Verdana" font-size="12" lengthAdjust="spacing" textLength="115.7285" x="714.6365" y="773.0122">Appelle fournisseur</text><path d="M881.0193,809.9241 L881.0193,818.8237 L861.0193,822.8237 L881.0193,826.8237 L881.0193,835.7234 A0,0 0 0 0 881.0193,835.7234 L1020.0349,835.7234 A0,0 0 0 0 1020.0349,835.7234 L1020.0349,819.9241 L1010.0349,809.9241 L881.0193,809.9241 A0,0 0 0 0 881.0193,809.9241 " fill="#FFCCCC" style="stroke:#000000;stroke-width:1;"/><path d="M1010.0349,809.9241 L1010.0349,819.9241 L1020.0349,819.9241 L1010.0349,809.9241 " fill="#FFCCCC" style="stroke:#000000;stroke-width:1;"/><text fill="#000000" font-family="Verdana" font-size="13" lengthAdjust="spacing" textLength="118.0156" x="887.0193" y="827.9939">&#240;&#376;&#8221;&#180; Ressaisie #4</text><rect fill="#FFFFFF" height="34.584" rx="12.5" ry="12.5" style="stroke:#000000;stroke-width:1;" width="177.0371" x="683.9822" y="805.5317"/><text fill="#000000" font-family="Verdana" font-size="12" lengthAdjust="spacing" textLength="157.0371" x="693.9822" y="827.5962">Envoie Email confirmation</text><path d="M852.49,864.5081 L852.49,873.4077 L832.49,877.4077 L852.49,881.4077 L852.49,890.3074 A0,0 0 0 0 852.49,890.3074 L991.5056,890.3074 A0,0 0 0 0 991.5056,890.3074 L991.5056,874.5081 L981.5056,864.5081 L852.49,864.5081 A0,0 0 0 0 852.49,864.5081 " fill="#FFCCCC" style="stroke:#000000;stroke-width:1;"/><path d="M981.5056,864.5081 L981.5056,874.5081 L991.5056,874.5081 L981.5056,864.5081 " fill="#FFCCCC" style="stroke:#000000;stroke-width:1;"/><text fill="#000000" font-family="Verdana" font-size="13" lengthAdjust="spacing" textLength="118.0156" x="858.49" y="882.5779">&#240;&#376;&#8221;&#180; Ressaisie #5</text><rect fill="#FFFFFF" height="34.584" rx="12.5" ry="12.5" style="stroke:#000000;stroke-width:1;" width="119.9785" x="712.5115" y="860.1157"/><text fill="#000000" font-family="Verdana" font-size="12" lengthAdjust="spacing" textLength="99.9785" x="722.5115" y="882.1802">Saisit dans Sage</text><path d="M870.0154,919.092 L870.0154,927.9917 L850.0154,931.9917 L870.0154,935.9917 L870.0154,944.8914 A0,0 0 0 0 870.0154,944.8914 L1009.031,944.8914 A0,0 0 0 0 1009.031,944.8914 L1009.031,929.092 L999.031,919.092 L870.0154,919.092 A0,0 0 0 0 870.0154,919.092 " fill="#FFCCCC" style="stroke:#000000;stroke-width:1;"/><path d="M999.031,919.092 L999.031,929.092 L1009.031,929.092 L999.031,919.092 " fill="#FFCCCC" style="stroke:#000000;stroke-width:1;"/><text fill="#000000" font-family="Verdana" font-size="13" lengthAdjust="spacing" textLength="118.0156" x="876.0154" y="937.1619">&#240;&#376;&#8221;&#180; Ressaisie #6</text><rect fill="#FFFFFF" height="34.584" rx="12.5" ry="12.5" style="stroke:#000000;stroke-width:1;" width="155.0293" x="694.9861" y="914.6997"/><text fill="#000000" font-family="Verdana" font-size="12" lengthAdjust="spacing" textLength="135.0293" x="704.9861" y="936.7642">Saisit dans Excel Suivi</text><line style="stroke:#000000;stroke-width:1;" x1="660.4275" x2="660.4275" y1="55.0166" y2="1577.7515"/><rect fill="#FFFFFF" height="34.584" rx="12.5" ry="12.5" style="stroke:#000000;stroke-width:1;" width="125.416" x="1134.5745" y="969.2837"/><text fill="#000000" font-family="Verdana" font-size="12" lengthAdjust="spacing" textLength="105.416" x="1144.5745" y="991.3481">Traite commande</text><rect fill="#FFFFFF" height="34.584" rx="12.5" ry="12.5" style="stroke:#000000;stroke-width:1;" width="119.7676" x="1137.3987" y="1023.8677"/><text fill="#000000" font-family="Verdana" font-size="12" lengthAdjust="spacing" textLength="99.7676" x="1147.3987" y="1045.9321">Livre (2-3 jours)</text><line style="stroke:#000000;stroke-width:1;" x1="1128.5745" x2="1128.5745" y1="55.0166" y2="1577.7515"/><rect fill="#FFFFE0" height="1522.7349" style="stroke:#FFFFE0;stroke-width:1;" width="455.7217" x="1263.9905" y="55.0166"/><rect fill="#FFFFFF" height="34.584" rx="12.5" ry="12.5" style="stroke:#000000;stroke-width:1;" width="161.7207" x="1285.7786" y="1078.4517"/><text fill="#000000" font-family="Verdana" font-size="12" lengthAdjust="spacing" textLength="141.7207" x="1295.7786" y="1100.5161">R&#195;&#169;ceptionne livraison</text><path d="M1465.8059,1137.428 L1465.8059,1146.3276 L1445.8059,1150.3276 L1465.8059,1154.3276 L1465.8059,1163.2273 A0,0 0 0 0 1465.8059,1163.2273 L1714.7122,1163.2273 A0,0 0 0 0 1714.7122,1163.2273 L1714.7122,1147.428 L1704.7122,1137.428 L1465.8059,1137.428 A0,0 0 0 0 1465.8059,1137.428 " fill="#FFCCCC" style="stroke:#000000;stroke-width:1;"/><path d="M1704.7122,1137.428 L1704.7122,1147.428 L1714.7122,1147.428 L1704.7122,1137.428 " fill="#FFCCCC" style="stroke:#000000;stroke-width:1;"/><text fill="#000000" font-family="Verdana" font-size="13" lengthAdjust="spacing" textLength="227.9063" x="1471.8059" y="1155.4978">&#240;&#376;&#8221;&#180; Incompatibilit&#195;&#169; fr&#195;&#169;quente</text><rect fill="#FFFFFF" height="34.584" rx="12.5" ry="12.5" style="stroke:#000000;stroke-width:1;" width="158.334" x="1287.4719" y="1133.0356"/><text fill="#000000" font-family="Verdana" font-size="12" lengthAdjust="spacing" textLength="138.334" x="1297.4719" y="1155.1001">V&#195;&#169;rifie nomenclature</text><path d="M1465.1379,1192.012 L1465.1379,1200.9116 L1445.1379,1204.9116 L1465.1379,1208.9116 L1465.1379,1217.8113 A0,0 0 0 0 1465.1379,1217.8113 L1597.8757,1217.8113 A0,0 0 0 0 1597.8757,1217.8113 L1597.8757,1202.012 L1587.8757,1192.012 L1465.1379,1192.012 A0,0 0 0 0 1465.1379,1192.012 " fill="#FFCCCC" style="stroke:#000000;stroke-width:1;"/><path d="M1587.8757,1192.012 L1587.8757,1202.012 L1597.8757,1202.012 L1587.8757,1192.012 " fill="#FFCCCC" style="stroke:#000000;stroke-width:1;"/><text fill="#000000" font-family="Verdana" font-size="13" lengthAdjust="spacing" textLength="111.7378" x="1471.1379" y="1210.0818">&#240;&#376;&#8221;&#180; Pas de scan</text><rect fill="#FFFFFF" height="34.584" rx="12.5" ry="12.5" style="stroke:#000000;stroke-width:1;" width="156.998" x="1288.1399" y="1187.6196"/><text fill="#000000" font-family="Verdana" font-size="12" lengthAdjust="spacing" textLength="136.998" x="1298.1399" y="1209.6841">Compte manuellement</text><path d="M1483.2874,1246.5959 L1483.2874,1255.4956 L1463.2874,1259.4956 L1483.2874,1263.4956 L1483.2874,1272.3953 A0,0 0 0 0 1483.2874,1272.3953 L1684.218,1272.3953 A0,0 0 0 0 1684.218,1272.3953 L1684.218,1256.5959 L1674.218,1246.5959 L1483.2874,1246.5959 A0,0 0 0 0 1483.2874,1246.5959 " fill="#FFCCCC" style="stroke:#000000;stroke-width:1;"/><path d="M1674.218,1246.5959 L1674.218,1256.5959 L1684.218,1256.5959 L1674.218,1246.5959 " fill="#FFCCCC" style="stroke:#000000;stroke-width:1;"/><text fill="#000000" font-family="Verdana" font-size="13" lengthAdjust="spacing" textLength="179.9307" x="1489.2874" y="1264.6658">&#240;&#376;&#8221;&#180; Ressaisie #7 (20 min)</text><rect fill="#FFFFFF" height="34.584" rx="12.5" ry="12.5" style="stroke:#000000;stroke-width:1;" width="193.2969" x="1269.9905" y="1242.2036"/><text fill="#000000" font-family="Verdana" font-size="12" lengthAdjust="spacing" textLength="173.2969" x="1279.9905" y="1264.2681">Saisit r&#195;&#169;ception dans Sage</text><line style="stroke:#000000;stroke-width:1;" x1="1263.9905" x2="1263.9905" y1="55.0166" y2="1577.7515"/><line style="stroke:#000000;stroke-width:1;" x1="1719.7122" x2="1719.7122" y1="55.0166" y2="1577.7515"/><line style="stroke:#000000;stroke-width:1;" x1="314.6707" x2="314.6707" y1="101.8926" y2="121.8926"/><polygon fill="#000000" points="310.6707,111.8926,314.6707,121.8926,318.6707,111.8926,314.6707,115.8926" style="stroke:#000000;stroke-width:1;"/><line style="stroke:#000000;stroke-width:1;" x1="314.6707" x2="314.6707" y1="156.4766" y2="176.4766"/><polygon fill="#000000" points="310.6707,166.4766,314.6707,176.4766,318.6707,166.4766,314.6707,170.4766" style="stroke:#000000;stroke-width:1;"/><line style="stroke:#000000;stroke-width:1;" x1="314.6707" x2="314.6707" y1="211.0605" y2="231.0605"/><polygon fill="#000000" points="310.6707,221.0605,314.6707,231.0605,318.6707,221.0605,314.6707,225.0605" style="stroke:#000000;stroke-width:1;"/><line style="stroke:#000000;stroke-width:1;" x1="527.1165" x2="527.1165" y1="1514.7515" y2="1549.7515"/><polygon fill="#000000" points="523.1165,1539.7515,527.1165,1549.7515,531.1165,1539.7515,527.1165,1543.7515" style="stroke:#000000;stroke-width:1;"/><line style="stroke:#000000;stroke-width:1;" x1="241.8672" x2="102.2249" y1="1458.1675" y2="1458.1675"/><line style="stroke:#000000;stroke-width:1;" x1="102.2249" x2="102.2249" y1="1458.1675" y2="1491.5745"/><polygon fill="#000000" points="98.2249,1481.5745,102.2249,1491.5745,106.2249,1481.5745,102.2249,1485.5745" style="stroke:#000000;stroke-width:1;"/><line style="stroke:#000000;stroke-width:1;" x1="387.4741" x2="527.1165" y1="1458.1675" y2="1458.1675"/><line style="stroke:#000000;stroke-width:1;" x1="527.1165" x2="527.1165" y1="1458.1675" y2="1480.1675"/><polygon fill="#000000" points="523.1165,1470.1675,527.1165,1480.1675,531.1165,1470.1675,527.1165,1474.1675" style="stroke:#000000;stroke-width:1;"/><line style="stroke:#000000;stroke-width:1;" x1="314.6707" x2="314.6707" y1="1331.3716" y2="1446.1675"/><polygon fill="#000000" points="310.6707,1436.1675,314.6707,1446.1675,318.6707,1436.1675,314.6707,1440.1675" style="stroke:#000000;stroke-width:1;"/><line style="stroke:#000000;stroke-width:1;" x1="835.7007" x2="1037.2625" y1="297.6445" y2="297.6445"/><polygon fill="#000000" points="1033.2625,341.6208,1037.2625,351.6208,1041.2625,341.6208,1037.2625,345.6208" style="stroke:#000000;stroke-width:1;"/><line style="stroke:#000000;stroke-width:1;" x1="1037.2625" x2="1037.2625" y1="297.6445" y2="400.9128"/><line style="stroke:#000000;stroke-width:1;" x1="1037.2625" x2="784.5007" y1="400.9128" y2="400.9128"/><polygon fill="#000000" points="794.5007,396.9128,784.5007,400.9128,794.5007,404.9128,790.5007,400.9128" style="stroke:#000000;stroke-width:1;"/><line style="stroke:#000000;stroke-width:1;" x1="772.5007" x2="772.5007" y1="412.9128" y2="432.9128"/><polygon fill="#000000" points="768.5007,422.9128,772.5007,432.9128,776.5007,422.9128,772.5007,426.9128" style="stroke:#000000;stroke-width:1;"/><line style="stroke:#000000;stroke-width:1;" x1="772.5007" x2="772.5007" y1="467.4968" y2="487.4968"/><polygon fill="#000000" points="768.5007,477.4968,772.5007,487.4968,776.5007,477.4968,772.5007,481.4968" style="stroke:#000000;stroke-width:1;"/><line style="stroke:#000000;stroke-width:1;" x1="772.5007" x2="772.5007" y1="566.0808" y2="594.2725"/><polygon fill="#000000" points="768.5007,584.2725,772.5007,594.2725,776.5007,584.2725,772.5007,588.2725" style="stroke:#000000;stroke-width:1;"/><line style="stroke:#000000;stroke-width:1;" x1="858.0149" x2="1109.5745" y1="554.0808" y2="554.0808"/><polygon fill="#000000" points="1105.5745,601.5645,1109.5745,611.5645,1113.5745,601.5645,1109.5745,605.5645" style="stroke:#000000;stroke-width:1;"/><line style="stroke:#000000;stroke-width:1;" x1="1109.5745" x2="1109.5745" y1="554.0808" y2="664.3638"/><line style="stroke:#000000;stroke-width:1;" x1="1109.5745" x2="784.5007" y1="664.3638" y2="664.3638"/><polygon fill="#000000" points="794.5007,660.3638,784.5007,664.3638,794.5007,668.3638,790.5007,664.3638" style="stroke:#000000;stroke-width:1;"/><line style="stroke:#000000;stroke-width:1;" x1="772.5007" x2="772.5007" y1="628.8564" y2="652.3638"/><polygon fill="#000000" points="768.5007,642.3638,772.5007,652.3638,776.5007,642.3638,772.5007,646.3638" style="stroke:#000000;stroke-width:1;"/><line style="stroke:#000000;stroke-width:1;" x1="772.5007" x2="772.5007" y1="522.0808" y2="542.0808"/><polygon fill="#000000" points="768.5007,532.0808,772.5007,542.0808,776.5007,532.0808,772.5007,536.0808" style="stroke:#000000;stroke-width:1;"/><line style="stroke:#000000;stroke-width:1;" x1="772.5007" x2="772.5007" y1="676.3638" y2="696.3638"/><polygon fill="#000000" points="768.5007,686.3638,772.5007,696.3638,776.5007,686.3638,772.5007,690.3638" style="stroke:#000000;stroke-width:1;"/><line style="stroke:#000000;stroke-width:1;" x1="772.5007" x2="772.5007" y1="730.9478" y2="750.9478"/><polygon fill="#000000" points="768.5007,740.9478,772.5007,750.9478,776.5007,740.9478,772.5007,744.9478" style="stroke:#000000;stroke-width:1;"/><line style="stroke:#000000;stroke-width:1;" x1="772.5007" x2="772.5007" y1="785.5317" y2="805.5317"/><polygon fill="#000000" points="768.5007,795.5317,772.5007,805.5317,776.5007,795.5317,772.5007,799.5317" style="stroke:#000000;stroke-width:1;"/><line style="stroke:#000000;stroke-width:1;" x1="772.5007" x2="772.5007" y1="840.1157" y2="860.1157"/><polygon fill="#000000" points="768.5007,850.1157,772.5007,860.1157,776.5007,850.1157,772.5007,854.1157" style="stroke:#000000;stroke-width:1;"/><line style="stroke:#000000;stroke-width:1;" x1="772.5007" x2="772.5007" y1="894.6997" y2="914.6997"/><polygon fill="#000000" points="768.5007,904.6997,772.5007,914.6997,776.5007,904.6997,772.5007,908.6997" style="stroke:#000000;stroke-width:1;"/><line style="stroke:#000000;stroke-width:1;" x1="1197.2825" x2="1197.2825" y1="1003.8677" y2="1023.8677"/><polygon fill="#000000" points="1193.2825,1013.8677,1197.2825,1023.8677,1201.2825,1013.8677,1197.2825,1017.8677" style="stroke:#000000;stroke-width:1;"/><line style="stroke:#000000;stroke-width:1;" x1="1366.6389" x2="1366.6389" y1="1113.0356" y2="1133.0356"/><polygon fill="#000000" points="1362.6389,1123.0356,1366.6389,1133.0356,1370.6389,1123.0356,1366.6389,1127.0356" style="stroke:#000000;stroke-width:1;"/><line style="stroke:#000000;stroke-width:1;" x1="1366.6389" x2="1366.6389" y1="1167.6196" y2="1187.6196"/><polygon fill="#000000" points="1362.6389,1177.6196,1366.6389,1187.6196,1370.6389,1177.6196,1366.6389,1181.6196" style="stroke:#000000;stroke-width:1;"/><line style="stroke:#000000;stroke-width:1;" x1="1366.6389" x2="1366.6389" y1="1222.2036" y2="1242.2036"/><polygon fill="#000000" points="1362.6389,1232.2036,1366.6389,1242.2036,1370.6389,1232.2036,1366.6389,1236.2036" style="stroke:#000000;stroke-width:1;"/><line style="stroke:#000000;stroke-width:1;" x1="772.5007" x2="772.5007" y1="309.6445" y2="321.9867"/><line style="stroke:#000000;stroke-width:1;" x1="772.5007" x2="314.6707" y1="321.9867" y2="321.9867"/><line style="stroke:#000000;stroke-width:1;" x1="314.6707" x2="314.6707" y1="321.9867" y2="334.3289"/><polygon fill="#000000" points="310.6707,324.3289,314.6707,334.3289,318.6707,324.3289,314.6707,328.3289" style="stroke:#000000;stroke-width:1;"/><line style="stroke:#000000;stroke-width:1;" x1="314.6707" x2="314.6707" y1="368.9128" y2="376.5707"/><line style="stroke:#000000;stroke-width:1;" x1="314.6707" x2="772.5007" y1="376.5707" y2="376.5707"/><line style="stroke:#000000;stroke-width:1;" x1="772.5007" x2="772.5007" y1="376.5707" y2="388.9128"/><polygon fill="#000000" points="768.5007,378.9128,772.5007,388.9128,776.5007,378.9128,772.5007,382.9128" style="stroke:#000000;stroke-width:1;"/><line style="stroke:#000000;stroke-width:1;" x1="314.6707" x2="314.6707" y1="265.6445" y2="270.6445"/><line style="stroke:#000000;stroke-width:1;" x1="314.6707" x2="772.5007" y1="270.6445" y2="270.6445"/><line style="stroke:#000000;stroke-width:1;" x1="772.5007" x2="772.5007" y1="270.6445" y2="285.6445"/><polygon fill="#000000" points="768.5007,275.6445,772.5007,285.6445,776.5007,275.6445,772.5007,279.6445" style="stroke:#000000;stroke-width:1;"/><line style="stroke:#000000;stroke-width:1;" x1="772.5007" x2="772.5007" y1="949.2837" y2="954.2837"/><line style="stroke:#000000;stroke-width:1;" x1="772.5007" x2="1197.2825" y1="954.2837" y2="954.2837"/><line style="stroke:#000000;stroke-width:1;" x1="1197.2825" x2="1197.2825" y1="954.2837" y2="969.2837"/><polygon fill="#000000" points="1193.2825,959.2837,1197.2825,969.2837,1201.2825,959.2837,1197.2825,963.2837" style="stroke:#000000;stroke-width:1;"/><line style="stroke:#000000;stroke-width:1;" x1="1197.2825" x2="1197.2825" y1="1058.4517" y2="1063.4517"/><line style="stroke:#000000;stroke-width:1;" x1="1197.2825" x2="1366.6389" y1="1063.4517" y2="1063.4517"/><line style="stroke:#000000;stroke-width:1;" x1="1366.6389" x2="1366.6389" y1="1063.4517" y2="1078.4517"/><polygon fill="#000000" points="1362.6389,1068.4517,1366.6389,1078.4517,1370.6389,1068.4517,1366.6389,1072.4517" style="stroke:#000000;stroke-width:1;"/><line style="stroke:#000000;stroke-width:1;" x1="1366.6389" x2="1366.6389" y1="1276.7876" y2="1281.7876"/><line style="stroke:#000000;stroke-width:1;" x1="1366.6389" x2="314.6707" y1="1281.7876" y2="1281.7876"/><line style="stroke:#000000;stroke-width:1;" x1="314.6707" x2="314.6707" y1="1281.7876" y2="1296.7876"/><polygon fill="#000000" points="310.6707,1286.7876,314.6707,1296.7876,318.6707,1286.7876,314.6707,1290.7876" style="stroke:#000000;stroke-width:1;"/><text fill="#000000" font-family="Verdana" font-size="18" lengthAdjust="spacing" textLength="142.3125" x="264.0575" y="73.1133">Marc (Chantier)</text><text fill="#000000" font-family="Verdana" font-size="18" lengthAdjust="spacing" textLength="141.2227" x="823.8896" y="73.1133">Sylvie (Bureau)</text><text fill="#000000" font-family="Verdana" font-size="18" lengthAdjust="spacing" textLength="105.2227" x="1143.6711" y="73.1133">Fournisseur</text><text fill="#000000" font-family="Verdana" font-size="18" lengthAdjust="spacing" textLength="170.5957" x="1406.5535" y="73.1133">&#195;&#8240;ric (D&#195;&#169;p&#195;&#180;t)</text><!--SRC=[dLLTQnj757tVNt6BAKXkKojobC3ceTYo74oSnjNAXK9UnhjNrhIxCvkPMSK1FHZINv0yjQHG_D0FQAaVyX08RK72J_qN-WFz2psp-hAYKZNLWsJlt7ldt7FFFVkUwt76bAT2gi19bp8T6HspjOMbfiuoeHAc1yADdWr_Cf9Jka7H4vcbGh6bokZP-FpI2KSxpSvnwx0Q18ED8wc-73mG9gPAioUKasogWy0wOLmG7YIC9rt9TC9MIqNPelJTG6d7PEHfpuNKnEEB4-3PlbV_g85h6xKi29izDd4FsLfHBdBKlfv56_lxJNn26brUlHwVVpjyHGtAS8tXU98PX6tEybGwGltlA1L0WFDA6LPTLwpjiNPBmAnY9fdbnlyNIyk-zqEVk9iMF8YUfdrqMTaj38i21CWkLQOF4sbphQHlxkCgOGAu_nEjgW7HAd54uOvpO8tf0sgBFCSCAcVRW4hqxs3hazPpDad1Dk3K0i_3GbO3Ledi0kyAI923TdxGeAUywUw2yKGeIv4uXHhsMikZsXMed6YbF1MGHTmJsid71IZnNRzDcZEww9UXI-tJ5ksdkl0iu58jBK2Ojr95GJrXXKdMTt-pJdrX97W4ebnRw_csZrHRMY0ZDeOB0r6z_m_4p9lkwi8eQQqFhRJEOaxNIcHlmOF_oON9PPfEdWJXZcSrNIgyhk2Hi8GTZ6VB2BfIUQgWv9RgQuol1GMdE5TTQR1EKgkrCiP-2n3Cj74h22DHSZqVy3jaDvQpIuOeAcHVlaEHsr3Y_e8FgB1ZX7IBbg72Gzat65BznZPzWL2BCSpMxNCGgfyCIYio4ikpL_AEhrUkb7Ive9nxOXI3kpwgMqzI-Dd4UhmTAPr1OQbmM8Lrs0yKaELW-aJ2I7mDwfPAXR0WDyW7noW0y8MVDYgx_pXb6mirvzHSG_w_ndC7ZDLAOmDRAyuoPQRmLFreUDcAoyszxljUNzfagvQrqUOa75tyzSTlLyzfLfvEKlsuyCchcrh31mzfYldhuINUD0XzuwPR6LBzmrkrskXYVFxDyET9gA-Fm3RZFPA4D9N1lCoVBuU_KEGCUgV996JE_XWRNLwFFnFanhthwmxmzmop0loh5-FpxsdVlmhcFQ1b9p72qckjq_dC7xgfnlJLwQInbBimmStDgBFJEOWw1vyUjo8wQZzijgBeEDhSVAHcwFSAC_6zJ3zbY77UXmyPVtKnV3FwTVWQiOiXsf3km2sadLO1nnrHdCsPWe7Xf2JovTNlLFeBScusjcRRCpjUvHbnjsltfpHlGNX_0m00]--></g></svg>