<svg xmlns="http://www.w3.org/2000/svg" xmlns:xlink="http://www.w3.org/1999/xlink" contentStyleType="text/css" height="1755px" preserveAspectRatio="none" style="width:1490px;height:1755px;background:#FFFFFF;" version="1.1" viewBox="0 0 1490 1755" width="1490px" zoomAndPan="magnify"><title>Architecture Syst&#195;&#168;me ACTUELLE - "Le Chaos Organis&#195;&#169;"</title><defs/><g><text fill="#000000" font-family="Verdana" font-size="22" font-weight="bold" lengthAdjust="spacing" textLength="719.3936" x="380.9489" y="37.1182">Architecture Syst&#195;&#168;me ACTUELLE - "Le Chaos Organis&#195;&#169;"</text><!--cluster Chantier--><g id="cluster_Chantier"><polygon fill="#FFC0CB" points="1029.12,68.7373,1039.12,58.7373,1243.12,58.7373,1243.12,397.2373,1233.12,407.2373,1029.12,407.2373,1029.12,68.7373" style="stroke:#000000;stroke-width:1;"/><line style="stroke:#000000;stroke-width:1;" x1="1233.12" x2="1243.12" y1="68.7373" y2="58.7373"/><line style="stroke:#000000;stroke-width:1;" x1="1029.12" x2="1233.12" y1="68.7373" y2="68.7373"/><line style="stroke:#000000;stroke-width:1;" x1="1233.12" x2="1233.12" y1="68.7373" y2="407.2373"/><text fill="#000000" font-family="Verdana" font-size="14" font-weight="bold" lengthAdjust="spacing" textLength="138.3867" x="1062.9266" y="85.8125">Chantier (Mobile)</text></g><!--cluster Bureau--><g id="cluster_Bureau"><polygon fill="#ADD8E6" points="486.12,492.2373,496.12,482.2373,947.12,482.2373,947.12,905.2373,937.12,915.2373,486.12,915.2373,486.12,492.2373" style="stroke:#000000;stroke-width:1;"/><line style="stroke:#000000;stroke-width:1;" x1="937.12" x2="947.12" y1="492.2373" y2="482.2373"/><line style="stroke:#000000;stroke-width:1;" x1="486.12" x2="937.12" y1="492.2373" y2="492.2373"/><line style="stroke:#000000;stroke-width:1;" x1="937.12" x2="937.12" y1="492.2373" y2="915.2373"/><text fill="#000000" font-family="Verdana" font-size="14" font-weight="bold" lengthAdjust="spacing" textLength="141.832" x="641.704" y="509.3125">Bureau Albertville</text></g><!--cluster PosteSylvie--><g id="cluster_PosteSylvie"><polygon fill="#FFFFFF" points="546.12,755.2373,556.12,745.2373,923.12,745.2373,923.12,881.2373,913.12,891.2373,546.12,891.2373,546.12,755.2373" style="stroke:#000000;stroke-width:1;"/><line style="stroke:#000000;stroke-width:1;" x1="913.12" x2="923.12" y1="755.2373" y2="745.2373"/><line style="stroke:#000000;stroke-width:1;" x1="546.12" x2="913.12" y1="755.2373" y2="755.2373"/><line style="stroke:#000000;stroke-width:1;" x1="913.12" x2="913.12" y1="755.2373" y2="891.2373"/><text fill="#000000" font-family="Verdana" font-size="14" font-weight="bold" lengthAdjust="spacing" textLength="95.6621" x="682.7889" y="772.3125">Poste Sylvie</text></g><!--cluster Depot--><g id="cluster_Depot"><polygon fill="#FFFFE0" points="424.12,1179.2373,434.12,1169.2373,648.12,1169.2373,648.12,1599.2373,638.12,1609.2373,424.12,1609.2373,424.12,1179.2373" style="stroke:#000000;stroke-width:1;"/><line style="stroke:#000000;stroke-width:1;" x1="638.12" x2="648.12" y1="1179.2373" y2="1169.2373"/><line style="stroke:#000000;stroke-width:1;" x1="424.12" x2="638.12" y1="1179.2373" y2="1179.2373"/><line style="stroke:#000000;stroke-width:1;" x1="638.12" x2="638.12" y1="1179.2373" y2="1609.2373"/><text fill="#000000" font-family="Verdana" font-size="14" font-weight="bold" lengthAdjust="spacing" textLength="135.2217" x="464.5092" y="1196.3125">D&#195;&#169;p&#195;&#180;t Annecy</text></g><!--cluster CloudFourn--><g id="cluster_CloudFourn"><path d="M266.1513,750.8791 C274.7555,735.264 284.568,738.7996 294.2275,749.7645 C303.1222,735.8034 314.4491,733.6251 325.5816,747.2182 C332.1449,735.3378 340.7278,732.2064 351.1493,742.8358 C361.7908,729.1047 371.6491,732.3578 379.456,745.7898 C389.8423,731.9849 401.3682,732.3364 410.4808,747.1696 C422.9606,734.9539 436.7554,739.5494 442.12,755.2373 C444.1413,754.0037 445.9258,755.3157 445.9567,757.4829 C456.9054,766.8614 455.9896,774.7038 444.5408,782.8313 C455.7807,786.1052 456.2482,795.3738 448.4651,802.4524 C460.3006,807.7489 462.0272,819.8707 450.4921,827.0899 C459.8768,833.8102 461.7745,841.325 451.8166,849.2038 C461.1138,858.7297 463.9246,867.1676 449.3255,874.3237 C461.2066,878.7994 464.2946,886.7297 454.3438,896.211 C465.0748,903.0603 466.5019,912.922 455.8091,921.036 C465.301,929.5332 464.0658,938.2684 452.5004,943.69 C460.3293,951.8865 459.6523,959.2307 449.8023,965.2108 C462.3803,972.5082 461.1635,981.5229 449.7977,988.8156 C459.387,997.7293 459.1476,1006.8622 446.2087,1012.3388 C457.8643,1017.9947 456.4454,1029.0147 447.3196,1035.6605 C458.8266,1044.7827 455.5689,1054.8594 443.6172,1060.4826 C454.18,1074.1011 451.3683,1082.8272 435.12,1088.2373 C435.8644,1087.0493 437.0029,1087.031 437.5846,1088.3944 C430.9628,1104.0882 420.9151,1103.237 409.9645,1093.0064 C401.4938,1108.4708 391.1991,1105.8921 382.1477,1093.5882 C373.1156,1107.8144 364.3485,1112.0829 351.8301,1097.2221 C342.5797,1111.5406 331.272,1107.9123 323.4465,1095.6978 C315.0613,1108.7768 302.898,1105.6167 297.4814,1092.7293 C282.5757,1106.8121 262.772,1102.2746 258.12,1081.2373 C259.8849,1080.1778 261.3432,1081.1233 261.1524,1083.1555 C251.0755,1076.495 248.2244,1069.6716 258.8179,1060.8479 C249.6461,1053.3759 250.0151,1045.9325 258.9994,1038.6086 C247.4326,1031.2393 247.8423,1023.6702 257.7717,1015.1747 C246.6611,1006.7603 247.3831,994.8109 261.2002,989.759 C250.4479,984.0433 252.1176,975.2234 260.6993,969.0402 C249.1347,961.6673 245.3903,950.9863 259.5543,942.5034 C250.0599,937.9794 248.3199,927.4709 257.3944,921.0752 C247.6889,913.8896 249.1959,902.9564 260.1135,898.225 C246.0212,893.1287 245.5266,880.6852 257.2376,872.6836 C246.2693,864.6381 246.3532,857.3782 257.4508,849.536 C249.3544,841.2441 249.7519,832.6423 261.1213,827.6089 C247.1059,819.0188 249.5672,811.0388 260.6072,801.9468 C248.9726,794.8605 249.6769,786.7116 261.2046,780.2634 C245.8647,769.9357 249.1126,754.7326 265.12,748.2373 C266.495,748.4869 267.2334,749.6704 266.1513,750.8791 " fill="#D3D3D3" style="stroke:#000000;stroke-width:1;"/><text fill="#000000" font-family="Verdana" font-size="14" font-weight="bold" lengthAdjust="spacing" textLength="175.4785" x="262.3807" y="767.3125">Fournisseurs Externes</text></g><!--entity Marc--><g id="elem_Marc"><rect fill="#FFFFFF" height="54.0293" rx="2.5" ry="2.5" style="stroke:#000000;stroke-width:1;" width="179.0723" x="1046.62" y="124.7373"/><text fill="#000000" font-family="Verdana" font-size="14" lengthAdjust="spacing" textLength="33.4756" x="1056.62" y="148.8125">Marc</text><text fill="#000000" font-family="Verdana" font-size="14" lengthAdjust="spacing" textLength="159.0723" x="1056.62" y="165.8271">(T&#195;&#169;l&#195;&#169;phone Perso)</text></g><!--entity Papier--><g id="elem_Papier"><path d="M1092.62,339.7373 L1092.62,388.7666 A2.5,2.5 0 0 0 1095.12,391.2666 L1193.0194,391.2666 A2.5,2.5 0 0 0 1195.5194,388.7666 L1195.5194,347.2373 L1185.5194,337.2373 L1095.12,337.2373 A2.5,2.5 0 0 0 1092.62,339.7373 " fill="#FFCCCC" style="stroke:#000000;stroke-width:1;"/><path d="M1185.5194,337.2373 L1185.5194,344.7373 A2.5,2.5 0 0 0 1188.0194,347.2373 L1195.5194,347.2373 " fill="#FFCCCC" style="stroke:#000000;stroke-width:1;"/><text fill="#000000" font-family="Verdana" font-size="14" lengthAdjust="spacing" textLength="82.8994" x="1102.62" y="361.3125">Bons Papier</text><text fill="#000000" font-family="Verdana" font-size="14" lengthAdjust="spacing" textLength="69.4668" x="1102.62" y="378.3271">(Illisibles)</text></g><!--entity Sage--><g id="elem_Sage"><path d="M502.12,579.2373 C502.12,569.2373 577.9535,569.2373 577.9535,569.2373 C577.9535,569.2373 653.787,569.2373 653.787,579.2373 L653.787,622.2666 C653.787,632.2666 577.9535,632.2666 577.9535,632.2666 C577.9535,632.2666 502.12,632.2666 502.12,622.2666 L502.12,579.2373 " fill="#FF6B6B" style="stroke:#000000;stroke-width:1;"/><path d="M502.12,579.2373 C502.12,589.2373 577.9535,589.2373 577.9535,589.2373 C577.9535,589.2373 653.787,589.2373 653.787,579.2373 " fill="none" style="stroke:#000000;stroke-width:1;"/><text fill="#000000" font-family="Verdana" font-size="14" lengthAdjust="spacing" textLength="131.667" x="512.12" y="607.3125">Serveur Sage MDE</text><text fill="#000000" font-family="Verdana" font-size="14" lengthAdjust="spacing" textLength="124.9404" x="512.12" y="624.3271">(Obsol&#195;&#168;te 2010)</text></g><g id="elem_GMN10"><path d="M689.62,548.2373 L689.62,596.7373 L654.24,600.7373 L689.62,604.7373 L689.62,653.0332 A0,0 0 0 0 689.62,653.0332 L930.8773,653.0332 A0,0 0 0 0 930.8773,653.0332 L930.8773,558.2373 L920.8773,548.2373 L689.62,548.2373 A0,0 0 0 0 689.62,548.2373 " fill="#FFFFFF" style="stroke:#000000;stroke-width:1;"/><path d="M920.8773,548.2373 L920.8773,558.2373 L930.8773,558.2373 L920.8773,548.2373 " fill="#FFFFFF" style="stroke:#000000;stroke-width:1;"/><text fill="#000000" font-family="Verdana" font-size="13" lengthAdjust="spacing" textLength="30.1831" x="695.62" y="566.3071">&#240;&#376;&#8221;&#180;</text><text fill="#000000" font-family="Verdana" font-size="13" font-weight="bold" lengthAdjust="spacing" textLength="185.5039" x="730.3734" y="566.3071">PROBL&#195;&#710;MES CRITIQUES</text><text fill="#000000" font-family="Verdana" font-size="13" lengthAdjust="spacing" textLength="149.8745" x="695.62" y="582.1064">&#226;&#8364;&#162; 30-40 sec/&#195;&#169;cran</text><text fill="#000000" font-family="Verdana" font-size="13" lengthAdjust="spacing" textLength="201.5889" x="695.62" y="597.9058">&#226;&#8364;&#162; Base donn&#195;&#169;es chaotique</text><text fill="#000000" font-family="Verdana" font-size="13" lengthAdjust="spacing" textLength="180.3052" x="695.62" y="613.7051">&#226;&#8364;&#162; 12 r&#195;&#169;f pour 1 produit</text><text fill="#000000" font-family="Verdana" font-size="13" lengthAdjust="spacing" textLength="152.1533" x="695.62" y="629.5044">&#226;&#8364;&#162; Pas d'API moderne</text><text fill="#000000" font-family="Verdana" font-size="13" lengthAdjust="spacing" textLength="172.6626" x="695.62" y="645.3037">&#226;&#8364;&#162; Plantages fr&#195;&#169;quents</text></g><!--entity Excel--><g id="elem_Excel"><rect fill="#FFD700" height="64.0293" rx="2.5" ry="2.5" style="stroke:#000000;stroke-width:1;" width="170.9902" x="562.62" y="811.2373"/><rect fill="#FFD700" height="10" style="stroke:#000000;stroke-width:1;" width="15" x="713.6102" y="816.2373"/><rect fill="#FFD700" height="2" style="stroke:#000000;stroke-width:1;" width="4" x="711.6102" y="818.2373"/><rect fill="#FFD700" height="2" style="stroke:#000000;stroke-width:1;" width="4" x="711.6102" y="822.2373"/><text fill="#000000" font-family="Verdana" font-size="14" lengthAdjust="spacing" textLength="103.5918" x="577.62" y="845.3125">Excel Multiples</text><text fill="#000000" font-family="Verdana" font-size="14" lengthAdjust="spacing" textLength="130.9902" x="577.62" y="862.3271">(Non connect&#195;&#169;s)</text></g><!--entity Outlook--><g id="elem_Outlook"><rect fill="#FFE4B5" height="64.0293" rx="2.5" ry="2.5" style="stroke:#000000;stroke-width:1;" width="138" x="769.12" y="811.2373"/><rect fill="#FFE4B5" height="10" style="stroke:#000000;stroke-width:1;" width="15" x="887.12" y="816.2373"/><rect fill="#FFE4B5" height="2" style="stroke:#000000;stroke-width:1;" width="4" x="885.12" y="818.2373"/><rect fill="#FFE4B5" height="2" style="stroke:#000000;stroke-width:1;" width="4" x="885.12" y="822.2373"/><text fill="#000000" font-family="Verdana" font-size="14" lengthAdjust="spacing" textLength="98" x="784.12" y="845.3125">Email Outlook</text><text fill="#000000" font-family="Verdana" font-size="14" lengthAdjust="spacing" textLength="84.3965" x="784.12" y="862.3271">(Ressaisies)</text></g><!--entity Eric--><g id="elem_Eric"><rect fill="#FFFFFF" height="54.0293" rx="2.5" ry="2.5" style="stroke:#000000;stroke-width:1;" width="108.2041" x="440.12" y="1392.2373"/><text fill="#000000" font-family="Verdana" font-size="14" lengthAdjust="spacing" textLength="47.9814" x="450.12" y="1416.3125">&#195;&#8240;ric</text><text fill="#000000" font-family="Verdana" font-size="14" lengthAdjust="spacing" textLength="88.2041" x="450.12" y="1433.3271">(Magasinier)</text></g><!--entity PCDepot--><g id="elem_PCDepot"><rect fill="#FFB6C1" height="64.0293" rx="2.5" ry="2.5" style="stroke:#000000;stroke-width:1;" width="138.1641" x="440.12" y="1235.2373"/><rect fill="#FFB6C1" height="10" style="stroke:#000000;stroke-width:1;" width="15" x="558.2841" y="1240.2373"/><rect fill="#FFB6C1" height="2" style="stroke:#000000;stroke-width:1;" width="4" x="556.2841" y="1242.2373"/><rect fill="#FFB6C1" height="2" style="stroke:#000000;stroke-width:1;" width="4" x="556.2841" y="1246.2373"/><text fill="#000000" font-family="Verdana" font-size="14" lengthAdjust="spacing" textLength="92.1826" x="455.12" y="1269.3125">PC Partag&#195;&#169;</text><text fill="#000000" font-family="Verdana" font-size="14" lengthAdjust="spacing" textLength="98.1641" x="455.12" y="1286.3271">(1 seul poste)</text></g><!--entity StockPhys--><g id="elem_StockPhys"><path d="M461.12,1541.7373 L461.12,1590.7666 A2.5,2.5 0 0 0 463.62,1593.2666 L608.1542,1593.2666 A2.5,2.5 0 0 0 610.6542,1590.7666 L610.6542,1549.2373 L600.6542,1539.2373 L463.62,1539.2373 A2.5,2.5 0 0 0 461.12,1541.7373 " fill="#FFCCCC" style="stroke:#000000;stroke-width:1;"/><path d="M600.6542,1539.2373 L600.6542,1546.7373 A2.5,2.5 0 0 0 603.1542,1549.2373 L610.6542,1549.2373 " fill="#FFCCCC" style="stroke:#000000;stroke-width:1;"/><text fill="#000000" font-family="Verdana" font-size="14" lengthAdjust="spacing" textLength="106.7295" x="471.12" y="1563.3125">Stock Physique</text><text fill="#000000" font-family="Verdana" font-size="14" lengthAdjust="spacing" textLength="129.5342" x="471.12" y="1580.3271">(D&#195;&#169;sorganis&#195;&#169;)</text></g><!--entity Rexel--><g id="elem_Rexel"><ellipse cx="312.8905" cy="813.2373" fill="#FFFFFF" rx="8" ry="8" style="stroke:#000000;stroke-width:1;"/><path d="M312.8905,821.2373 L312.8905,848.2373 M299.8905,829.2373 L325.8905,829.2373 M312.8905,848.2373 L299.8905,863.2373 M312.8905,848.2373 L325.8905,863.2373 " fill="none" style="stroke:#000000;stroke-width:1;"/><text fill="#000000" font-family="Verdana" font-size="14" lengthAdjust="spacing" textLength="38.541" x="293.62" y="879.3125">Rexel</text></g><!--entity Sonepar--><g id="elem_Sonepar"><ellipse cx="397.306" cy="813.2373" fill="#FFFFFF" rx="8" ry="8" style="stroke:#000000;stroke-width:1;"/><path d="M397.306,821.2373 L397.306,848.2373 M384.306,829.2373 L410.306,829.2373 M397.306,848.2373 L384.306,863.2373 M397.306,848.2373 L410.306,863.2373 " fill="none" style="stroke:#000000;stroke-width:1;"/><text fill="#000000" font-family="Verdana" font-size="14" lengthAdjust="spacing" textLength="58.3721" x="368.12" y="879.3125">Sonepar</text></g><!--entity Autres--><g id="elem_Autres"><ellipse cx="326.8973" cy="1003.2373" fill="#FFFFFF" rx="8" ry="8" style="stroke:#000000;stroke-width:1;"/><path d="M326.8973,1011.2373 L326.8973,1038.2373 M313.8973,1019.2373 L339.8973,1019.2373 M326.8973,1038.2373 L313.8973,1053.2373 M326.8973,1038.2373 L339.8973,1053.2373 " fill="none" style="stroke:#000000;stroke-width:1;"/><text fill="#000000" font-family="Verdana" font-size="14" lengthAdjust="spacing" textLength="45.5547" x="304.12" y="1069.3125">Autres</text></g><!--entity Sylvie--><g id="elem_Sylvie"><ellipse cx="578.202" cy="334.2373" fill="#FFFFFF" rx="8" ry="8" style="stroke:#000000;stroke-width:1;"/><path d="M578.202,342.2373 L578.202,369.2373 M565.202,350.2373 L591.202,350.2373 M578.202,369.2373 L565.202,384.2373 M578.202,369.2373 L591.202,384.2373 " fill="none" style="stroke:#000000;stroke-width:1;"/><text fill="#000000" font-family="Verdana" font-size="14" lengthAdjust="spacing" textLength="42.1641" x="557.12" y="400.3125">Sylvie</text></g><g id="elem_N1"><path d="M1260.62,107.2373 L1260.62,196.2339 L1483.2914,196.2339 L1483.2914,117.2373 L1473.2914,107.2373 L1260.62,107.2373 " fill="#FF0000" style="stroke:#000000;stroke-width:1;"/><path d="M1473.2914,107.2373 L1473.2914,117.2373 L1483.2914,117.2373 L1473.2914,107.2373 " fill="#FF0000" style="stroke:#000000;stroke-width:1;"/><text fill="#000000" font-family="Verdana" font-size="13" lengthAdjust="spacing" textLength="43.0435" x="1266.62" y="125.3071">&#226;&#353;&#160;&#239;&#184;&#65533;</text><text fill="#000000" font-family="Verdana" font-size="13" font-weight="bold" lengthAdjust="spacing" textLength="154.0576" x="1314.2338" y="125.3071">POINTS DE RUPTURE</text><text fill="#000000" font-family="Verdana" font-size="13" lengthAdjust="spacing" textLength="177.2964" x="1266.62" y="141.1064">&#226;&#8364;&#162; Sylvie = goulot unique</text><text fill="#000000" font-family="Verdana" font-size="13" lengthAdjust="spacing" textLength="154.4702" x="1266.62" y="156.9058">&#226;&#8364;&#162; 1 seul PC d&#195;&#169;p&#195;&#180;t</text><text fill="#000000" font-family="Verdana" font-size="13" lengthAdjust="spacing" textLength="157.7202" x="1266.62" y="172.7051">&#226;&#8364;&#162; Aucune redondance</text><text fill="#000000" font-family="Verdana" font-size="13" lengthAdjust="spacing" textLength="177.1821" x="1266.62" y="188.5044">&#226;&#8364;&#162; Pas de backup process</text></g><!--link Marc to Papier--><g id="link_Marc_Papier"><path d="M1137.11,178.9673 C1138.65,219.4173 1141.3517,290.5616 1142.8917,331.0116 " fill="none" id="Marc-to-Papier" style="stroke:#000000;stroke-width:1;"/><polygon fill="#000000" points="1143.12,337.0073,1146.7747,327.8616,1142.9298,332.0109,1138.7805,328.166,1143.12,337.0073" style="stroke:#000000;stroke-width:1;"/><text fill="#000000" font-family="Verdana" font-size="13" lengthAdjust="spacing" textLength="110.7666" x="1142.12" y="258.3071">&#226;&#339;&#65533;&#239;&#184;&#65533; &#195;&#8240;crit</text><text fill="#000000" font-family="Verdana" font-size="13" lengthAdjust="spacing" textLength="55.8276" x="1169.5895" y="274.1064">(illisible)</text></g><!--link Papier to Outlook--><g id="link_Papier_Outlook"><path d="M1149.87,391.2873 C1160.16,444.6073 1176.35,568.3073 1127.12,653.2373 C1078.56,737.0073 981.8106,788.0435 912.9006,815.9735 " fill="none" id="Papier-to-Outlook" style="stroke:#000000;stroke-width:1;stroke-dasharray:7.0,7.0;"/><polygon fill="#000000" points="907.34,818.2273,917.1834,818.5537,911.9738,816.3492,914.1784,811.1396,907.34,818.2273" style="stroke:#000000;stroke-width:1;"/><text fill="#000000" font-family="Verdana" font-size="13" lengthAdjust="spacing" textLength="109.5098" x="1161.12" y="598.3071">&#240;&#376;&#8220;&#382; Info perdue</text><text fill="#000000" font-family="Verdana" font-size="13" lengthAdjust="spacing" textLength="81.6182" x="1175.0658" y="614.1064">&#226;&#65533;&#176; Retards</text></g><!--link Marc to Sylvie--><g id="link_Marc_Sylvie"><path d="M1047.34,178.7873 C1003.86,192.0773 950.91,209.0373 904.12,226.2373 C787.15,269.2473 656.1522,327.7045 604.6722,351.1045 " fill="none" id="Marc-to-Sylvie" style="stroke:#000000;stroke-width:1;"/><polygon fill="#000000" points="599.21,353.5873,609.0585,353.5045,603.7618,351.5183,605.7481,346.2216,599.21,353.5873" style="stroke:#000000;stroke-width:1;"/><text fill="#000000" font-family="Verdana" font-size="13" lengthAdjust="spacing" textLength="140.3721" x="947.1085" y="240.3071">&#240;&#376;&#8220;&#382; Appels multiples</text><text fill="#000000" font-family="Verdana" font-size="13" lengthAdjust="spacing" textLength="60.3789" x="987.1051" y="256.1064">(15/jour)</text><path d="M909.12,264.8359 L909.12,289.8359 L1125.12,289.8359 L1125.12,274.8359 L1115.12,264.8359 L909.12,264.8359 " fill="#FFCCCC" style="stroke:#000000;stroke-width:1;"/><path d="M1115.12,264.8359 L1115.12,274.8359 L1125.12,274.8359 L1115.12,264.8359 " fill="#FFCCCC" style="stroke:#000000;stroke-width:1;"/><text fill="#000000" font-family="Verdana" font-size="13" lengthAdjust="spacing" textLength="195.3491" x="915.12" y="282.9058">&#240;&#376;&#8221;&#180; Interruptions constantes</text></g><!--link Sylvie to Excel--><g id="link_Sylvie_Excel"><path d="M556.88,367.9473 C509.75,375.2373 396.91,400.0073 350.12,474.2373 C292.76,565.2373 278.67,638.5973 353.12,716.2373 C366.86,730.5673 423.18,718.2773 442.12,724.2373 C503.45,743.5373 561.6173,779.6927 601.5373,807.6827 " fill="none" id="Sylvie-to-Excel" style="stroke:#000000;stroke-width:1;"/><polygon fill="#000000" points="606.45,811.1273,601.3773,802.6853,602.3561,808.2568,596.7845,809.2356,606.45,811.1273" style="stroke:#000000;stroke-width:1;"/><text fill="#000000" font-family="Verdana" font-size="13" lengthAdjust="spacing" textLength="134.8369" x="351.12" y="598.3071">&#240;&#376;&#8217;&#187; Saisie manuelle</text><text fill="#000000" font-family="Verdana" font-size="13" lengthAdjust="spacing" textLength="115.9082" x="360.5844" y="614.1064">(Silos donn&#195;&#169;es)</text></g><!--link Sylvie to Sage--><g id="link_Sylvie_Sage"><path d="M578.12,403.4373 C578.12,449.6373 578.12,520.4973 578.12,563.0373 " fill="none" id="Sylvie-to-Sage" style="stroke:#000000;stroke-width:1;"/><polygon fill="#000000" points="578.12,569.0373,582.12,560.0373,578.12,564.0373,574.12,560.0373,578.12,569.0373" style="stroke:#000000;stroke-width:1;"/><text fill="#000000" font-family="Verdana" font-size="13" lengthAdjust="spacing" textLength="91.311" x="587.3593" y="447.3071">&#240;&#376;&#8217;&#187; Re-saisie</text><text fill="#000000" font-family="Verdana" font-size="13" lengthAdjust="spacing" textLength="107.7896" x="579.12" y="463.1064">(Interface lente)</text></g><!--link Sylvie to Outlook--><g id="link_Sylvie_Outlook"><path d="M599.16,368.1573 C670.92,378.5773 903.93,416.4473 947.12,474.2373 C1011.5,560.3973 984.66,615.4473 947.12,716.2373 C933.03,754.0473 906.3654,784.0267 880.9754,807.1567 " fill="none" id="Sylvie-to-Outlook" style="stroke:#000000;stroke-width:1;"/><polygon fill="#000000" points="876.54,811.1973,885.8869,808.0933,880.2362,807.8301,880.4994,802.1794,876.54,811.1973" style="stroke:#000000;stroke-width:1;"/><text fill="#000000" font-family="Verdana" font-size="13" lengthAdjust="spacing" textLength="93.6724" x="1005.309" y="598.3071">&#240;&#376;&#8220;&#167; Re-saisie</text><text fill="#000000" font-family="Verdana" font-size="13" lengthAdjust="spacing" textLength="132.0503" x="986.12" y="614.1064">(Email fournisseurs)</text></g><!--link Outlook to CloudFourn--><g id="link_Outlook_CloudFourn"><path d="M824.5,811.0473 C810.59,782.6673 786.07,742.9973 751.12,724.2373 C657.23,673.8373 618.15,715.6873 511.62,713.2373 C461.04,712.0773 302.61,699.1873 277.12,724.2373 C272.5688,728.7098 268.8322,733.8057 265.7808,739.3131 C265.6854,739.4852 268.4571,734.3866 268.3631,734.5595 " fill="none" id="Outlook-to-CloudFourn" style="stroke:#000000;stroke-width:1;"/><polygon fill="#000000" points="265.4967,739.8306,273.3103,733.8349,267.8853,735.438,266.2822,730.0131,265.4967,739.8306" style="stroke:#000000;stroke-width:1;"/><text fill="#000000" font-family="Verdana" font-size="13" lengthAdjust="spacing" textLength="155.562" x="355.62" y="697.3071">&#240;&#376;&#8220;&#167; Commandes email</text><text fill="#000000" font-family="Verdana" font-size="13" lengthAdjust="spacing" textLength="147.9639" x="359.4191" y="713.1064">(Pas d'automatisation)</text></g><!--link Sylvie to CloudFourn--><g id="link_Sylvie_CloudFourn"><path d="M556.88,366.2973 C467.72,371.2073 125.33,395.0673 61.12,474.2373 C11,536.0173 29.91,580.0573 61.12,653.2373 C84.54,708.1723 132.6275,754.8148 175.4275,788.0198 C196.8275,804.6223 216.9056,817.8654 231.9175,827.1061 C235.6705,829.4162 239.1068,831.4762 242.168,833.276 C243.6986,834.1759 245.1354,835.0107 246.4711,835.7793 C247.1389,836.1636 247.7815,836.5313 248.3979,836.8822 C248.7061,837.0577 249.0077,837.229 249.3027,837.3961 C249.4502,837.4796 244.3722,834.6107 244.5163,834.6921 " fill="none" id="Sylvie-to-CloudFourn" style="stroke:#000000;stroke-width:1;"/><polygon fill="#000000" points="249.7402,837.6436,243.872,829.7338,245.387,835.184,239.9367,836.699,249.7402,837.6436" style="stroke:#000000;stroke-width:1;"/><text fill="#000000" font-family="Verdana" font-size="13" lengthAdjust="spacing" textLength="231.5688" x="62.12" y="598.3071">&#226;&#732;&#381;&#239;&#184;&#65533; Commandes t&#195;&#169;l&#195;&#169;phone</text><text fill="#000000" font-family="Verdana" font-size="13" lengthAdjust="spacing" textLength="98.6426" x="128.5831" y="614.1064">(Chronophage)</text></g><!--link CloudFourn to Eric--><g id="link_CloudFourn_Eric"><path d="M271.9331,1096.4183 C272.4676,1098.2022 273.0157,1099.9781 273.5778,1101.7453 C274.7019,1105.2796 275.8819,1108.7789 277.12,1112.2373 C319.16,1229.6573 415.5514,1338.3316 463.5614,1387.8016 " fill="none" id="CloudFourn-to-Eric" style="stroke:#000000;stroke-width:1;stroke-dasharray:7.0,7.0;"/><polygon fill="#000000" points="467.74,1392.1073,464.3425,1382.863,464.2578,1388.5192,458.6016,1388.4345,467.74,1392.1073" style="stroke:#000000;stroke-width:1;"/><text fill="#000000" font-family="Verdana" font-size="13" lengthAdjust="spacing" textLength="168.9238" x="295.12" y="1134.3071">&#240;&#376;&#353;&#353; Livraisons physiques</text><text fill="#000000" font-family="Verdana" font-size="13" lengthAdjust="spacing" textLength="146.3262" x="306.4188" y="1150.1064">(Nomenclatures &#226;&#8240;&#160;)</text></g><!--reverse link PCDepot to Eric--><g id="link_PCDepot_Eric"><path d="M503.1287,1305.4607 C501.6987,1314.9807 501.16,1319.5473 500.12,1329.2373 C497.85,1350.3373 496.29,1374.3373 495.33,1392.0973 " fill="none" id="PCDepot-backto-Eric" style="stroke:#000000;stroke-width:1;"/><polygon fill="#000000" points="504.02,1299.5273,498.7275,1307.8333,503.2773,1304.4718,506.6387,1309.0216,504.02,1299.5273" style="stroke:#000000;stroke-width:1;"/><text fill="#000000" font-family="Verdana" font-size="13" lengthAdjust="spacing" textLength="155.0859" x="501.12" y="1343.3071">&#240;&#376;&#8217;&#187; Saisie &#195;&#160; posteriori</text><text fill="#000000" font-family="Verdana" font-size="13" lengthAdjust="spacing" textLength="138.106" x="509.61" y="1359.1064">(20 min/r&#195;&#169;ception)</text></g><!--reverse link Sage to PCDepot--><g id="link_Sage_PCDepot"><path d="M567.9524,638.0934 C561.1724,662.8034 553.27,692.7273 546.12,724.2373 C525.38,815.6173 515.05,837.9573 506.12,931.2373 C504.72,945.8373 506.04,949.5673 506.12,964.2373 C506.61,1063.0773 508,1180.0973 508.7,1234.9373 " fill="none" id="Sage-backto-PCDepot" style="stroke:#000000;stroke-width:1;"/><polygon fill="#000000" points="569.54,632.3073,563.3011,639.9281,568.217,637.1291,571.016,642.0449,569.54,632.3073" style="stroke:#000000;stroke-width:1;"/><text fill="#000000" font-family="Verdana" font-size="13" lengthAdjust="spacing" textLength="149.0557" x="507.12" y="945.3071">&#240;&#376;&#8221;&#8222; Mise &#195;&#160; jour stock</text><text fill="#000000" font-family="Verdana" font-size="13" lengthAdjust="spacing" textLength="81.0596" x="541.118" y="961.1064">(J+2 retard)</text></g><!--link Eric to StockPhys--><g id="link_Eric_StockPhys"><path d="M497.02,1446.3673 C499.45,1464.3273 503.58,1488.5773 510.12,1509.2373 C513.28,1519.2573 515.2488,1524.3957 519.6588,1533.6057 " fill="none" id="Eric-to-StockPhys" style="stroke:#000000;stroke-width:1;"/><polygon fill="#000000" points="522.25,1539.0173,521.9709,1529.1724,520.0906,1534.5076,514.7554,1532.6274,522.25,1539.0173" style="stroke:#000000;stroke-width:1;"/><text fill="#000000" font-family="Verdana" font-size="13" lengthAdjust="spacing" textLength="145.1963" x="511.12" y="1490.3071">&#240;&#376;&#8220;&#166; Stockage manuel</text><text fill="#000000" font-family="Verdana" font-size="13" lengthAdjust="spacing" textLength="88.791" x="539.3226" y="1506.1064">(Pas de scan)</text></g><!--link Sage to Excel--><g id="link_Sage_Excel"><path d="M587.12,632.6873 C600.53,678.7373 623.9029,759.0665 637.3529,805.2665 " fill="none" id="Sage-to-Excel" style="stroke:#000000;stroke-width:1;stroke-dasharray:7.0,7.0;"/><polygon fill="#000000" points="639.03,811.0273,640.3549,801.268,637.6324,806.2266,632.6738,803.5041,639.03,811.0273" style="stroke:#000000;stroke-width:1;"/><text fill="#000000" font-family="Verdana" font-size="13" lengthAdjust="spacing" textLength="115.2163" x="611.12" y="697.3071">&#226;&#65533;&#338; Pas de sync</text><text fill="#000000" font-family="Verdana" font-size="13" lengthAdjust="spacing" textLength="113.0898" x="612.1832" y="713.1064">(Incoh&#195;&#169;rences)</text></g><!--link Excel to StockPhys--><g id="link_Excel_StockPhys"><path d="M657.59,875.5073 C667.95,912.5473 683.12,976.2973 683.12,1032.2373 C683.12,1032.2373 683.12,1032.2373 683.12,1420.2373 C683.12,1460.9873 687.24,1477.9673 661.12,1509.2373 C648.08,1524.8373 635.2873,1533.8179 616.7273,1542.1179 " fill="none" id="Excel-to-StockPhys" style="stroke:#000000;stroke-width:1;stroke-dasharray:7.0,7.0;"/><polygon fill="#000000" points="611.25,1544.5673,621.0988,1544.5447,615.8144,1542.5261,617.8329,1537.2417,611.25,1544.5673" style="stroke:#000000;stroke-width:1;"/><text fill="#000000" font-family="Verdana" font-size="13" lengthAdjust="spacing" textLength="200.7954" x="684.12" y="1264.8071">&#226;&#65533;&#338; Stock virtuel &#226;&#8240;&#160; r&#195;&#169;el</text><text fill="#000000" font-family="Verdana" font-size="13" lengthAdjust="spacing" textLength="129.2319" x="719.9017" y="1280.6064">(Erreurs inventaire)</text></g><rect fill="none" height="112.0879" id="_legend" rx="7.5" ry="7.5" style="stroke:#000000;stroke-width:1;" width="240.7744" x="620.2585" y="1630.2373"/><text fill="#000000" font-family="Verdana" font-size="14" lengthAdjust="spacing" textLength="183.2305" x="625.2585" y="1649.3125">&#240;&#376;&#8221;&#180; = Pain Point Critique</text><text fill="#000000" font-family="Verdana" font-size="14" lengthAdjust="spacing" textLength="157.2949" x="625.2585" y="1666.3271">&#226;&#65533;&#176; = Perte de temps</text><text fill="#000000" font-family="Verdana" font-size="14" lengthAdjust="spacing" textLength="164.7393" x="625.2585" y="1683.3418">&#240;&#376;&#8217;&#176; = Co&#195;&#187;t &#195;&#169;lev&#195;&#169;</text><text fill="#000000" font-family="Verdana" font-size="14" lengthAdjust="spacing" textLength="193.8604" x="625.2585" y="1700.3564">&#226;&#65533;&#338; = Dysfonctionnement</text><text fill="#000000" font-family="Verdana" font-size="14" lengthAdjust="spacing" textLength="230.7744" x="625.2585" y="1717.3711">&#240;&#376;&#8220;&#382; = Communication manuelle</text><text fill="#000000" font-family="Verdana" font-size="14" lengthAdjust="spacing" textLength="184.6797" x="625.2585" y="1734.3857">&#240;&#376;&#8217;&#187; = Ressaisie manuelle</text><!--SRC=[RLRDRXit4BxlKqoLGoeNSgGqIO403Y39Sg52YbN9FXJeXTgbBDOKkIMvIemYWD40VO3s520f4X_Q52XG7t884BG5PEYKj_0Bz1KwG-vAgoWww6Sv_3ZppJSVzOcRyXc7L3AX8YUSvD0qyLGu7hlCS1YTMNVrTF4QOvhje-DEhzU16bHw7DfJfYqScXEcXCMGFofHf7J2eO8hoWbkuDE-7Wl9gnLW5bPFRmo4EeKV8i0NE-7AGQNFJFoj-lI8O2IzfLEjE0ouiJhifWY_OuA0K6bfPM70KiJ3VLqfXHLZoMq83Wjmu-2WZQ_eIP5O2ojY6JJbc1it5r9o7vu_lj4J9rFNaXdFamkR1jewua7EHGZt3yBlF91UiPwbc3DLqtaSSmdzJ3gHOawOu4EjC40f99MgozCCSPZb_XVr-aU1Pan8ECoSrFeKOORSMeQL5dNcAmJHkTEwwo6U-7V_bZ37ninY3IDkvZmpC4A-eR_VGQp3iTL4zMiixdQzKG-8FW3XxhNkjN8ESDqGCQ0dVdcLwDNbyktr-Ol56zZP6GmFMxshf-z_wdT6q1vsZxfV7tT6Eplhu8lh7_zSNC3dzTgTEbWUto8YOiFKLaYBKawGBOhW5c8KcXFVPtmhid4R30LD8DLONGDIevDCkAt00PQMt6mEkZ33dXgr3JMGg4wipiB4G-9nobaVnbNYQLZhQDzB5D_UE6XILyyyUViyrIwNqJTSIlreK-LNJw_FBuqWfVVP2RD2eKfpAU3Zw8Fk3zgOjy6aw3JSqq3QCecbelnodRVp8myEMlVQZT9yZ9oEJs4mFRD476xsALkzdjQytnH7OULXYQNE4gWS8ASOZ8SQqgeZtcmOPGhmotcrNnfsLjGQEssWCkIFkVJ1_bjvQOJrfSo4yyFtyd8pSoO_9tobb6uYZ6HEqDYpEO_1dQNOAsp6n8iudj8lCPbGQSQtZXm3Qeb-f6eF2aUuZ_rU_lBVltzV_RLuYn_WMn8RuP0YKRX8DSh3TtUzydTt7wn6xNuk- -VBVw2h9XfIRX9Y-Ee2yHQNcATZ9h7HvlcvNPHtDzEKImkpaaqqxjxw3bcjHdxgq3CaEMNUcTLcchYkmdQOB0sCeBLOX_f5hgByf9hF74yE9bFiVRPuXqDC5W8pfZ8KAObZ92HQ-NhagYkK8dsoXJB6aDU24v7xKYuJ5dEGI3pVshn5tUBtZVt1vIObjLMZgDYqggEakJ9GMy-ma0Ixpma6uSAiiypf6Gh6Uj5KjsZPXBju_tovqiGQqctUHmZUdXgjT3f5FZ394iZkBbLBIg5HpbDSlbg-WfwO6ooL-fJcynYkX1bNCMeQBnzBDdH-kNXPZVpkMfQIPlFf_aZlCAMNmGYCq4OWtEqwp8IwvRqhvcaeka2eIJvn7xRnnVNvhz0NDaSZuO4bEq2qhpv3P_L2nYf3IeKILeQnxi9luIc11r4LNU1WOuPvuFWUoEmnFIZvEfhrs9DBVI9M8f-Vvx0GBGtLycSeqCvKx0KNwsa-w36fDOJJnetqyit12-V2E4ojO3fS73xLZZ7UueIQetwPCDndFD02ROIEfJd3BeMfn4mUDcWcw_NyqaPBURLuMQW7xyB3xiEZ4UntO7WyE3eUTl9hiBXgSYdkmOdE97OdKwlBRNMn1Ql76o1PNpKR4Sqipl0Vak58QCAGXcZhlkCmPl5fbXBHI9EDLXSPLjSZNBoM4Xv9JfymrWv79jgysVSGIgZ01RJH9qkf1h_Retzfo0iUv_WijIM0PtwvhV6eTmxyBF4vVQm1i3rxi7zc9rh5f5c5VqQLAs6GK-xvaKIQOZ_CA-VQEEeTXgt-7wr3gB9GOFG_]--></g></svg>