<svg xmlns="http://www.w3.org/2000/svg" xmlns:xlink="http://www.w3.org/1999/xlink" contentStyleType="text/css" height="1608px" preserveAspectRatio="none" style="width:2088px;height:1608px;background:#F8F8FF;" version="1.1" viewBox="0 0 2088 1608" width="2088px" zoomAndPan="magnify"><title>S&#195;&#169;quence : Commande Mat&#195;&#169;riel (Version DIGITALIS&#195;&#8240;E)</title><defs/><g><rect fill="#F8F8FF" height="1608" style="stroke:none;stroke-width:1;" width="2088" x="0" y="0"/><text fill="#000000" font-family="Verdana" font-size="22" font-weight="bold" lengthAdjust="spacing" textLength="774.3076" x="655.3469" y="60.2715">S&#195;&#169;quence : Commande Mat&#195;&#169;riel (Version DIGITALIS&#195;&#8240;E)</text><rect fill="#E6FFE6" height="1525.7979" style="stroke:#000000;stroke-width:1;" width="429.5146" x="32" y="76.8906"/><text fill="#000000" font-family="Verdana" font-size="13" font-weight="bold" lengthAdjust="spacing" textLength="105.1045" x="194.2051" y="89.9604">Terrain Mobile</text><rect fill="#E6F3FF" height="1525.7979" style="stroke:#000000;stroke-width:1;" width="591.3633" x="565.249" y="76.8906"/><text fill="#000000" font-family="Verdana" font-size="13" font-weight="bold" lengthAdjust="spacing" textLength="130.311" x="795.7751" y="89.9604">Syst&#195;&#168;me Central</text><rect fill="#FFF0E6" height="1525.7979" style="stroke:#000000;stroke-width:1;" width="645.9395" x="1176.4946" y="76.8906"/><text fill="#000000" font-family="Verdana" font-size="13" font-weight="bold" lengthAdjust="spacing" textLength="145.2217" x="1426.8535" y="89.9604">Achats &amp; Logistique</text><rect fill="#F0F0F0" height="1525.7979" style="stroke:#000000;stroke-width:1;" width="240.5674" x="1834.4341" y="76.8906"/><text fill="#000000" font-family="Verdana" font-size="13" font-weight="bold" lengthAdjust="spacing" textLength="188.1382" x="1860.6487" y="89.9604">Fournisseurs Connect&#195;&#169;s</text><rect fill="#FFFFFF" height="1259.3706" style="stroke:#000000;stroke-width:1;" width="10" x="376.1958" y="253.3032"/><rect fill="#FFFFFF" height="89.3979" style="stroke:#000000;stroke-width:1;" width="10" x="634.3198" y="286.1025"/><rect fill="#FFFFFF" height="274.1938" style="stroke:#000000;stroke-width:1;" width="10" x="879.1348" y="596.0957"/><rect fill="#FFFFFF" height="89.3979" style="stroke:#000000;stroke-width:1;" width="10" x="1748.0903" y="973.6875"/><line style="stroke:#000000;stroke-width:1;" x1="112" x2="112" y1="174.7046" y2="1521.6738"/><line style="stroke:#000000;stroke-width:1;" x1="380.877" x2="380.877" y1="174.7046" y2="1521.6738"/><line style="stroke:#000000;stroke-width:1;" x1="639.249" x2="639.249" y1="174.7046" y2="1521.6738"/><line style="stroke:#000000;stroke-width:1;" x1="884.0859" x2="884.0859" y1="174.7046" y2="1521.6738"/><line style="stroke:#000000;stroke-width:1;" x1="1054.1836" x2="1054.1836" y1="174.7046" y2="1521.6738"/><line style="stroke:#000000;stroke-width:1;" x1="1236.4946" x2="1236.4946" y1="174.7046" y2="1521.6738"/><line style="stroke:#000000;stroke-width:1;" x1="1395.2378" x2="1395.2378" y1="174.7046" y2="1521.6738"/><line style="stroke:#000000;stroke-width:1;" x1="1542.7651" x2="1542.7651" y1="174.7046" y2="1521.6738"/><line style="stroke:#000000;stroke-width:1;" x1="1752.7466" x2="1752.7466" y1="174.7046" y2="1521.6738"/><line style="stroke:#000000;stroke-width:1;" x1="1888.4341" x2="1888.4341" y1="174.7046" y2="1521.6738"/><line style="stroke:#000000;stroke-width:1;" x1="2009.8022" x2="2009.8022" y1="174.7046" y2="1521.6738"/><text fill="#000000" font-family="Verdana" font-size="14" lengthAdjust="spacing" textLength="147.5059" x="36" y="171.7651">Marc (Chef Chantier)</text><ellipse cx="112.7529" cy="105.6899" fill="#FFFFFF" rx="8" ry="8" style="stroke:#000000;stroke-width:1;"/><path d="M112.7529,113.6899 L112.7529,140.6899 M99.7529,121.6899 L125.7529,121.6899 M112.7529,140.6899 L99.7529,155.6899 M112.7529,140.6899 L125.7529,155.6899 " fill="none" style="stroke:#000000;stroke-width:1;"/><text fill="#000000" font-family="Verdana" font-size="14" lengthAdjust="spacing" textLength="147.5059" x="36" y="1534.749">Marc (Chef Chantier)</text><ellipse cx="112.7529" cy="1546.6885" fill="#FFFFFF" rx="8" ry="8" style="stroke:#000000;stroke-width:1;"/><path d="M112.7529,1554.6885 L112.7529,1581.6885 M99.7529,1562.6885 L125.7529,1562.6885 M112.7529,1581.6885 L99.7529,1596.6885 M112.7529,1581.6885 L125.7529,1596.6885 " fill="none" style="stroke:#000000;stroke-width:1;"/><rect fill="#FFFFFF" height="31.0146" rx="2.5" ry="2.5" style="stroke:#000000;stroke-width:1;" width="132.6377" x="314.877" y="142.6899"/><text fill="#000000" font-family="Verdana" font-size="14" lengthAdjust="spacing" textLength="118.6377" x="321.877" y="163.7651">App Mobile Odoo</text><rect fill="#FFFFFF" height="31.0146" rx="2.5" ry="2.5" style="stroke:#000000;stroke-width:1;" width="132.6377" x="314.877" y="1520.6738"/><text fill="#000000" font-family="Verdana" font-size="14" lengthAdjust="spacing" textLength="118.6377" x="321.877" y="1541.749">App Mobile Odoo</text><text fill="#000000" font-family="Verdana" font-size="14" lengthAdjust="spacing" textLength="134.1416" x="569.249" y="171.7651">ERP Odoo Moderne</text><path d="M621.3198,121.6899 C621.3198,111.6899 639.3198,111.6899 639.3198,111.6899 C639.3198,111.6899 657.3198,111.6899 657.3198,121.6899 L657.3198,147.6899 C657.3198,157.6899 639.3198,157.6899 639.3198,157.6899 C639.3198,157.6899 621.3198,157.6899 621.3198,147.6899 L621.3198,121.6899 " fill="#FFFFFF" style="stroke:#000000;stroke-width:1.5;"/><path d="M621.3198,121.6899 C621.3198,131.6899 639.3198,131.6899 639.3198,131.6899 C639.3198,131.6899 657.3198,131.6899 657.3198,121.6899 " fill="none" style="stroke:#000000;stroke-width:1.5;"/><text fill="#000000" font-family="Verdana" font-size="14" lengthAdjust="spacing" textLength="134.1416" x="569.249" y="1534.749">ERP Odoo Moderne</text><path d="M621.3198,1547.6885 C621.3198,1537.6885 639.3198,1537.6885 639.3198,1537.6885 C639.3198,1537.6885 657.3198,1537.6885 657.3198,1547.6885 L657.3198,1573.6885 C657.3198,1583.6885 639.3198,1583.6885 639.3198,1583.6885 C639.3198,1583.6885 621.3198,1583.6885 621.3198,1573.6885 L621.3198,1547.6885 " fill="#FFFFFF" style="stroke:#000000;stroke-width:1.5;"/><path d="M621.3198,1547.6885 C621.3198,1557.6885 639.3198,1557.6885 639.3198,1557.6885 C639.3198,1557.6885 657.3198,1557.6885 657.3198,1547.6885 " fill="none" style="stroke:#000000;stroke-width:1.5;"/><rect fill="#FFFFFF" height="31.0146" rx="2.5" ry="2.5" style="stroke:#000000;stroke-width:1;" width="104.0977" x="832.0859" y="142.6899"/><text fill="#000000" font-family="Verdana" font-size="14" lengthAdjust="spacing" textLength="90.0977" x="839.0859" y="163.7651">API Gateway</text><rect fill="#FFFFFF" height="31.0146" rx="2.5" ry="2.5" style="stroke:#000000;stroke-width:1;" width="104.0977" x="832.0859" y="1520.6738"/><text fill="#000000" font-family="Verdana" font-size="14" lengthAdjust="spacing" textLength="90.0977" x="839.0859" y="1541.749">API Gateway</text><rect fill="#FFFFFF" height="31.0146" rx="2.5" ry="2.5" style="stroke:#000000;stroke-width:1;" width="176.4287" x="966.1836" y="142.6899"/><text fill="#000000" font-family="Verdana" font-size="14" lengthAdjust="spacing" textLength="162.4287" x="973.1836" y="163.7651">ML Engine Suggestions</text><rect fill="#FFFFFF" height="31.0146" rx="2.5" ry="2.5" style="stroke:#000000;stroke-width:1;" width="176.4287" x="966.1836" y="1520.6738"/><text fill="#000000" font-family="Verdana" font-size="14" lengthAdjust="spacing" textLength="162.4287" x="973.1836" y="1541.749">ML Engine Suggestions</text><text fill="#000000" font-family="Verdana" font-size="14" lengthAdjust="spacing" textLength="106.7432" x="1180.4946" y="171.7651">Sylvie (Achats)</text><ellipse cx="1236.8662" cy="105.6899" fill="#FFFFFF" rx="8" ry="8" style="stroke:#000000;stroke-width:1;"/><path d="M1236.8662,113.6899 L1236.8662,140.6899 M1223.8662,121.6899 L1249.8662,121.6899 M1236.8662,140.6899 L1223.8662,155.6899 M1236.8662,140.6899 L1249.8662,155.6899 " fill="none" style="stroke:#000000;stroke-width:1;"/><text fill="#000000" font-family="Verdana" font-size="14" lengthAdjust="spacing" textLength="106.7432" x="1180.4946" y="1534.749">Sylvie (Achats)</text><ellipse cx="1236.8662" cy="1546.6885" fill="#FFFFFF" rx="8" ry="8" style="stroke:#000000;stroke-width:1;"/><path d="M1236.8662,1554.6885 L1236.8662,1581.6885 M1223.8662,1562.6885 L1249.8662,1562.6885 M1236.8662,1581.6885 L1223.8662,1596.6885 M1236.8662,1581.6885 L1249.8662,1596.6885 " fill="none" style="stroke:#000000;stroke-width:1;"/><rect fill="#FFFFFF" height="31.0146" rx="2.5" ry="2.5" style="stroke:#000000;stroke-width:1;" width="164.5273" x="1313.2378" y="142.6899"/><text fill="#000000" font-family="Verdana" font-size="14" lengthAdjust="spacing" textLength="150.5273" x="1320.2378" y="163.7651">E-Procurement Portal</text><rect fill="#FFFFFF" height="31.0146" rx="2.5" ry="2.5" style="stroke:#000000;stroke-width:1;" width="164.5273" x="1313.2378" y="1520.6738"/><text fill="#000000" font-family="Verdana" font-size="14" lengthAdjust="spacing" textLength="150.5273" x="1320.2378" y="1541.749">E-Procurement Portal</text><text fill="#000000" font-family="Verdana" font-size="14" lengthAdjust="spacing" textLength="85.4629" x="1497.7651" y="171.7651">Eric (Depot)</text><ellipse cx="1543.4966" cy="105.6899" fill="#FFFFFF" rx="8" ry="8" style="stroke:#000000;stroke-width:1;"/><path d="M1543.4966,113.6899 L1543.4966,140.6899 M1530.4966,121.6899 L1556.4966,121.6899 M1543.4966,140.6899 L1530.4966,155.6899 M1543.4966,140.6899 L1556.4966,155.6899 " fill="none" style="stroke:#000000;stroke-width:1;"/><text fill="#000000" font-family="Verdana" font-size="14" lengthAdjust="spacing" textLength="85.4629" x="1497.7651" y="1534.749">Eric (Depot)</text><ellipse cx="1543.4966" cy="1546.6885" fill="#FFFFFF" rx="8" ry="8" style="stroke:#000000;stroke-width:1;"/><path d="M1543.4966,1554.6885 L1543.4966,1581.6885 M1530.4966,1562.6885 L1556.4966,1562.6885 M1543.4966,1581.6885 L1530.4966,1596.6885 M1543.4966,1581.6885 L1556.4966,1596.6885 " fill="none" style="stroke:#000000;stroke-width:1;"/><rect fill="#FFFFFF" height="31.0146" rx="2.5" ry="2.5" style="stroke:#000000;stroke-width:1;" width="110.6875" x="1697.7466" y="142.6899"/><text fill="#000000" font-family="Verdana" font-size="14" lengthAdjust="spacing" textLength="96.6875" x="1704.7466" y="163.7651">RFID Scanner</text><rect fill="#FFFFFF" height="31.0146" rx="2.5" ry="2.5" style="stroke:#000000;stroke-width:1;" width="110.6875" x="1697.7466" y="1520.6738"/><text fill="#000000" font-family="Verdana" font-size="14" lengthAdjust="spacing" textLength="96.6875" x="1704.7466" y="1541.749">RFID Scanner</text><rect fill="#FFFFFF" height="31.0146" rx="2.5" ry="2.5" style="stroke:#000000;stroke-width:1;" width="81.3682" x="1848.4341" y="142.6899"/><text fill="#000000" font-family="Verdana" font-size="14" lengthAdjust="spacing" textLength="67.3682" x="1855.4341" y="163.7651">Rexel API</text><rect fill="#FFFFFF" height="31.0146" rx="2.5" ry="2.5" style="stroke:#000000;stroke-width:1;" width="81.3682" x="1848.4341" y="1520.6738"/><text fill="#000000" font-family="Verdana" font-size="14" lengthAdjust="spacing" textLength="67.3682" x="1855.4341" y="1541.749">Rexel API</text><rect fill="#FFFFFF" height="31.0146" rx="2.5" ry="2.5" style="stroke:#000000;stroke-width:1;" width="101.1992" x="1959.8022" y="142.6899"/><text fill="#000000" font-family="Verdana" font-size="14" lengthAdjust="spacing" textLength="87.1992" x="1966.8022" y="163.7651">Sonepar API</text><rect fill="#FFFFFF" height="31.0146" rx="2.5" ry="2.5" style="stroke:#000000;stroke-width:1;" width="101.1992" x="1959.8022" y="1520.6738"/><text fill="#000000" font-family="Verdana" font-size="14" lengthAdjust="spacing" textLength="87.1992" x="1966.8022" y="1541.749">Sonepar API</text><rect fill="#FFFFFF" height="1259.3706" style="stroke:#000000;stroke-width:1;" width="10" x="376.1958" y="253.3032"/><rect fill="#FFFFFF" height="89.3979" style="stroke:#000000;stroke-width:1;" width="10" x="634.3198" y="286.1025"/><rect fill="#FFFFFF" height="274.1938" style="stroke:#000000;stroke-width:1;" width="10" x="879.1348" y="596.0957"/><rect fill="#FFFFFF" height="89.3979" style="stroke:#000000;stroke-width:1;" width="10" x="1748.0903" y="973.6875"/><rect fill="#FFFFFF" height="3" style="stroke:#FFFFFF;stroke-width:1;" width="2076.0015" x="5" y="205.6042"/><line style="stroke:#000000;stroke-width:0.5;" x1="5" x2="2081.0015" y1="205.6042" y2="205.6042"/><line style="stroke:#000000;stroke-width:0.5;" x1="5" x2="2081.0015" y1="208.6042" y2="208.6042"/><rect fill="#FFFFFF" height="23.7993" style="stroke:#000000;stroke-width:1;" width="346.9346" x="869.5334" y="194.7046"/><text fill="#000000" font-family="Verdana" font-size="13" font-weight="bold" lengthAdjust="spacing" textLength="328.4912" x="875.5334" y="211.7744">&#226;&#353;&#161; Commande Instantan&#195;&#169;e (2h vs 3 jours)</text><polygon fill="#000000" points="364.1958,249.3032,374.1958,253.3032,364.1958,257.3032,368.1958,253.3032" style="stroke:#000000;stroke-width:1;"/><line style="stroke:#000000;stroke-width:1;" x1="112.7529" x2="370.1958" y1="253.3032" y2="253.3032"/><text fill="#000000" font-family="Verdana" font-size="13" font-weight="bold" lengthAdjust="spacing" textLength="9.2422" x="119.7529" y="248.5737">1</text><text fill="#000000" font-family="Verdana" font-size="13" lengthAdjust="spacing" textLength="231.2007" x="132.9951" y="248.5737">&#240;&#376;&#8220;&#177; Scan QR produit n&#195;&#169;cessaire</text><path d="M391,233.5039 L391,258.5039 L636,258.5039 L636,243.5039 L626,233.5039 L391,233.5039 " fill="#E6FFE6" style="stroke:#000000;stroke-width:1;"/><path d="M626,233.5039 L626,243.5039 L636,243.5039 L626,233.5039 " fill="#E6FFE6" style="stroke:#000000;stroke-width:1;"/><text fill="#000000" font-family="Verdana" font-size="13" lengthAdjust="spacing" textLength="224.2246" x="397" y="251.5737">&#240;&#376;&#376;&#162; 10 secondes vs 5 min papier</text><polygon fill="#000000" points="622.3198,282.1025,632.3198,286.1025,622.3198,290.1025,626.3198,286.1025" style="stroke:#000000;stroke-width:1;"/><line style="stroke:#000000;stroke-width:1;" x1="386.1958" x2="628.3198" y1="286.1025" y2="286.1025"/><text fill="#000000" font-family="Verdana" font-size="13" font-weight="bold" lengthAdjust="spacing" textLength="9.2422" x="393.1958" y="281.373">2</text><text fill="#000000" font-family="Verdana" font-size="13" lengthAdjust="spacing" textLength="213.5986" x="406.438" y="281.373">&#240;&#376;&#8221;&#65533; Recherche produit "3G2.5"</text><polygon fill="#000000" points="1042.3979,311.9019,1052.3979,315.9019,1042.3979,319.9019,1046.3979,315.9019" style="stroke:#000000;stroke-width:1;"/><line style="stroke:#000000;stroke-width:1;" x1="644.3198" x2="1048.3979" y1="315.9019" y2="315.9019"/><text fill="#000000" font-family="Verdana" font-size="13" font-weight="bold" lengthAdjust="spacing" textLength="9.2422" x="651.3198" y="311.1724">3</text><text fill="#000000" font-family="Verdana" font-size="13" lengthAdjust="spacing" textLength="197.7422" x="664.562" y="311.1724">&#240;&#376;&#164;- Suggestions intelligentes</text><polygon fill="#000000" points="655.3198,341.7012,645.3198,345.7012,655.3198,349.7012,651.3198,345.7012" style="stroke:#000000;stroke-width:1;"/><line style="stroke:#000000;stroke-width:1;stroke-dasharray:2.0,2.0;" x1="649.3198" x2="1053.3979" y1="345.7012" y2="345.7012"/><text fill="#000000" font-family="Verdana" font-size="13" font-weight="bold" lengthAdjust="spacing" textLength="9.2422" x="661.3198" y="340.9717">4</text><text fill="#000000" font-family="Verdana" font-size="13" lengthAdjust="spacing" textLength="165.4771" x="674.562" y="340.9717">Top 3 produits pertinents</text><polygon fill="#000000" points="397.1958,371.5005,387.1958,375.5005,397.1958,379.5005,393.1958,375.5005" style="stroke:#000000;stroke-width:1;"/><line style="stroke:#000000;stroke-width:1;stroke-dasharray:2.0,2.0;" x1="391.1958" x2="638.3198" y1="375.5005" y2="375.5005"/><text fill="#000000" font-family="Verdana" font-size="13" font-weight="bold" lengthAdjust="spacing" textLength="9.2422" x="403.1958" y="370.771">5</text><text fill="#000000" font-family="Verdana" font-size="13" lengthAdjust="spacing" textLength="210.8818" x="416.438" y="370.771">&#240;&#376;&#8220;&#8249; Liste claire + photos + prix</text><path d="M1059,388.5005 L1059,429.5005 L1268,429.5005 L1268,398.5005 L1258,388.5005 L1059,388.5005 " fill="#E6FFE6" style="stroke:#000000;stroke-width:1;"/><path d="M1258,388.5005 L1258,398.5005 L1268,398.5005 L1258,388.5005 " fill="#E6FFE6" style="stroke:#000000;stroke-width:1;"/><text fill="#000000" font-family="Verdana" font-size="13" lengthAdjust="spacing" textLength="183.6313" x="1065" y="406.5703">&#240;&#376;&#376;&#162; IA &#195;&#169;limine confusion</text><text fill="#000000" font-family="Verdana" font-size="13" lengthAdjust="spacing" textLength="188.3921" x="1065" y="422.3696">1 choix vs 12 r&#195;&#169;f&#195;&#169;rences</text><polygon fill="#000000" points="123.7529,452.8984,113.7529,456.8984,123.7529,460.8984,119.7529,456.8984" style="stroke:#000000;stroke-width:1;"/><line style="stroke:#000000;stroke-width:1;" x1="117.7529" x2="375.1958" y1="456.8984" y2="456.8984"/><text fill="#000000" font-family="Verdana" font-size="13" font-weight="bold" lengthAdjust="spacing" textLength="9.2422" x="129.7529" y="452.1689">6</text><text fill="#000000" font-family="Verdana" font-size="13" lengthAdjust="spacing" textLength="155.3335" x="142.9951" y="452.1689">&#240;&#376;&#8217;&#161; Affiche suggestions</text><polygon fill="#000000" points="364.1958,482.6978,374.1958,486.6978,364.1958,490.6978,368.1958,486.6978" style="stroke:#000000;stroke-width:1;"/><line style="stroke:#000000;stroke-width:1;" x1="112.7529" x2="370.1958" y1="486.6978" y2="486.6978"/><text fill="#000000" font-family="Verdana" font-size="13" font-weight="bold" lengthAdjust="spacing" textLength="9.2422" x="119.7529" y="481.9683">7</text><text fill="#000000" font-family="Verdana" font-size="13" lengthAdjust="spacing" textLength="175.3032" x="132.9951" y="481.9683">&#226;&#339;&#8230; S&#195;&#169;lectionne (1 clic)</text><polygon fill="#000000" points="627.3198,515.4971,637.3198,519.4971,627.3198,523.4971,631.3198,519.4971" style="stroke:#000000;stroke-width:1;"/><line style="stroke:#000000;stroke-width:1;" x1="386.1958" x2="633.3198" y1="519.4971" y2="519.4971"/><text fill="#000000" font-family="Verdana" font-size="13" font-weight="bold" lengthAdjust="spacing" textLength="9.2422" x="393.1958" y="514.7676">8</text><text fill="#000000" font-family="Verdana" font-size="13" lengthAdjust="spacing" textLength="184.1899" x="406.438" y="514.7676">&#240;&#376;&#8250;&#8217; Cr&#195;&#169;e commande auto</text><path d="M644,499.6978 L644,524.6978 L861,524.6978 L861,509.6978 L851,499.6978 L644,499.6978 " fill="#E6FFE6" style="stroke:#000000;stroke-width:1;"/><path d="M851,499.6978 L851,509.6978 L861,509.6978 L851,499.6978 " fill="#E6FFE6" style="stroke:#000000;stroke-width:1;"/><text fill="#000000" font-family="Verdana" font-size="13" lengthAdjust="spacing" textLength="196.4092" x="650" y="517.7676">&#240;&#376;&#376;&#162; Validation instantan&#195;&#169;e</text><rect fill="#FFFFFF" height="3" style="stroke:#FFFFFF;stroke-width:1;" width="2076.0015" x="5" y="551.3967"/><line style="stroke:#000000;stroke-width:0.5;" x1="5" x2="2081.0015" y1="551.3967" y2="551.3967"/><line style="stroke:#000000;stroke-width:0.5;" x1="5" x2="2081.0015" y1="554.3967" y2="554.3967"/><rect fill="#FFFFFF" height="23.7993" style="stroke:#000000;stroke-width:1;" width="239.1387" x="923.4314" y="540.4971"/><text fill="#000000" font-family="Verdana" font-size="13" font-weight="bold" lengthAdjust="spacing" textLength="220.6953" x="929.4314" y="557.5669">&#240;&#376;&#164;- Traitement Automatis&#195;&#169;</text><polygon fill="#000000" points="867.1348,592.0957,877.1348,596.0957,867.1348,600.0957,871.1348,596.0957" style="stroke:#000000;stroke-width:1;"/><line style="stroke:#000000;stroke-width:1;" x1="639.3198" x2="873.1348" y1="596.0957" y2="596.0957"/><text fill="#000000" font-family="Verdana" font-size="13" font-weight="bold" lengthAdjust="spacing" textLength="9.2422" x="646.3198" y="591.3662">9</text><text fill="#000000" font-family="Verdana" font-size="13" lengthAdjust="spacing" textLength="176.4204" x="659.562" y="591.3662">&#240;&#376;&#8221;&#8222; D&#195;&#169;clenche workflow</text><polygon fill="#000000" points="1877.1182,621.895,1887.1182,625.895,1877.1182,629.895,1881.1182,625.895" style="stroke:#000000;stroke-width:1;"/><line style="stroke:#000000;stroke-width:1;" x1="889.1348" x2="1883.1182" y1="625.895" y2="625.895"/><text fill="#000000" font-family="Verdana" font-size="13" font-weight="bold" lengthAdjust="spacing" textLength="18.4844" x="896.1348" y="621.1655">10</text><text fill="#000000" font-family="Verdana" font-size="13" lengthAdjust="spacing" textLength="214.4683" x="918.6191" y="621.1655">&#240;&#376;&#8220;&#161; V&#195;&#169;rifie stock temps r&#195;&#169;el</text><polygon fill="#000000" points="900.1348,651.6943,890.1348,655.6943,900.1348,659.6943,896.1348,655.6943" style="stroke:#000000;stroke-width:1;"/><line style="stroke:#000000;stroke-width:1;stroke-dasharray:2.0,2.0;" x1="894.1348" x2="1888.1182" y1="655.6943" y2="655.6943"/><text fill="#000000" font-family="Verdana" font-size="13" font-weight="bold" lengthAdjust="spacing" textLength="18.4844" x="906.1348" y="650.9648">11</text><text fill="#000000" font-family="Verdana" font-size="13" lengthAdjust="spacing" textLength="161.6113" x="928.6191" y="650.9648">&#226;&#339;&#8230; "50 unit&#195;&#169;s dispo"</text><polygon fill="#000000" points="1998.4019,681.4937,2008.4019,685.4937,1998.4019,689.4937,2002.4019,685.4937" style="stroke:#000000;stroke-width:1;"/><line style="stroke:#000000;stroke-width:1;" x1="889.1348" x2="2004.4019" y1="685.4937" y2="685.4937"/><text fill="#000000" font-family="Verdana" font-size="13" font-weight="bold" lengthAdjust="spacing" textLength="18.4844" x="896.1348" y="680.7642">12</text><text fill="#000000" font-family="Verdana" font-size="13" lengthAdjust="spacing" textLength="194.543" x="918.6191" y="680.7642">&#240;&#376;&#8220;&#161; Compare prix concurrent</text><polygon fill="#000000" points="900.1348,711.293,890.1348,715.293,900.1348,719.293,896.1348,715.293" style="stroke:#000000;stroke-width:1;"/><line style="stroke:#000000;stroke-width:1;stroke-dasharray:2.0,2.0;" x1="894.1348" x2="2009.4019" y1="715.293" y2="715.293"/><text fill="#000000" font-family="Verdana" font-size="13" font-weight="bold" lengthAdjust="spacing" textLength="18.4844" x="906.1348" y="710.5635">13</text><text fill="#000000" font-family="Verdana" font-size="13" lengthAdjust="spacing" textLength="132.6089" x="928.6191" y="710.5635">&#240;&#376;&#8217;&#176; "Prix identique"</text><polygon fill="#000000" points="1877.1182,741.0923,1887.1182,745.0923,1877.1182,749.0923,1881.1182,745.0923" style="stroke:#000000;stroke-width:1;"/><line style="stroke:#000000;stroke-width:1;" x1="889.1348" x2="1883.1182" y1="745.0923" y2="745.0923"/><text fill="#000000" font-family="Verdana" font-size="13" font-weight="bold" lengthAdjust="spacing" textLength="18.4844" x="896.1348" y="740.3628">14</text><text fill="#000000" font-family="Verdana" font-size="13" lengthAdjust="spacing" textLength="196.5234" x="918.6191" y="740.3628">&#240;&#376;&#353;&#8364; Commande automatique</text><polygon fill="#000000" points="900.1348,770.8916,890.1348,774.8916,900.1348,778.8916,896.1348,774.8916" style="stroke:#000000;stroke-width:1;"/><line style="stroke:#000000;stroke-width:1;stroke-dasharray:2.0,2.0;" x1="894.1348" x2="1888.1182" y1="774.8916" y2="774.8916"/><text fill="#000000" font-family="Verdana" font-size="13" font-weight="bold" lengthAdjust="spacing" textLength="18.4844" x="906.1348" y="770.1621">15</text><text fill="#000000" font-family="Verdana" font-size="13" lengthAdjust="spacing" textLength="248.9678" x="928.6191" y="770.1621">&#240;&#376;&#8220;&#8249; "Commande #R12345 valid&#195;&#169;e"</text><path d="M894,787.8916 L894,812.8916 L1141,812.8916 L1141,797.8916 L1131,787.8916 L894,787.8916 " fill="#E6FFE6" style="stroke:#000000;stroke-width:1;"/><path d="M1131,787.8916 L1131,797.8916 L1141,797.8916 L1131,787.8916 " fill="#E6FFE6" style="stroke:#000000;stroke-width:1;"/><text fill="#000000" font-family="Verdana" font-size="13" lengthAdjust="spacing" textLength="226.6494" x="900" y="805.9614">&#240;&#376;&#376;&#162; 0 ressaisie vs 7 actuellement</text><polygon fill="#000000" points="650.3198,836.4902,640.3198,840.4902,650.3198,844.4902,646.3198,840.4902" style="stroke:#000000;stroke-width:1;"/><line style="stroke:#000000;stroke-width:1;" x1="644.3198" x2="878.1348" y1="840.4902" y2="840.4902"/><text fill="#000000" font-family="Verdana" font-size="13" font-weight="bold" lengthAdjust="spacing" textLength="18.4844" x="656.3198" y="835.7607">16</text><text fill="#000000" font-family="Verdana" font-size="13" lengthAdjust="spacing" textLength="193.3306" x="678.8042" y="835.7607">&#226;&#339;&#8230; Commande confirm&#195;&#169;e</text><polygon fill="#000000" points="1224.8662,866.2896,1234.8662,870.2896,1224.8662,874.2896,1228.8662,870.2896" style="stroke:#000000;stroke-width:1;"/><line style="stroke:#000000;stroke-width:1;" x1="884.1348" x2="1230.8662" y1="870.2896" y2="870.2896"/><text fill="#000000" font-family="Verdana" font-size="13" font-weight="bold" lengthAdjust="spacing" textLength="18.4844" x="891.1348" y="865.5601">17</text><text fill="#000000" font-family="Verdana" font-size="13" lengthAdjust="spacing" textLength="301.2471" x="913.6191" y="865.5601">&#240;&#376;&#8220;&#168; Notification "Commande auto cr&#195;&#169;&#195;&#169;e"</text><rect fill="#FFFFFF" height="3" style="stroke:#FFFFFF;stroke-width:1;" width="2076.0015" x="5" y="899.1892"/><line style="stroke:#000000;stroke-width:0.5;" x1="5" x2="2081.0015" y1="899.1892" y2="899.1892"/><line style="stroke:#000000;stroke-width:0.5;" x1="5" x2="2081.0015" y1="902.1892" y2="902.1892"/><rect fill="#FFFFFF" height="23.7993" style="stroke:#000000;stroke-width:1;" width="253.1289" x="916.4363" y="888.2896"/><text fill="#000000" font-family="Verdana" font-size="13" font-weight="bold" lengthAdjust="spacing" textLength="234.6855" x="922.4363" y="905.3594">&#240;&#376;&#8220;&#166; R&#195;&#169;ception Automatis&#195;&#169;e</text><polygon fill="#000000" points="1554.4966,939.8882,1544.4966,943.8882,1554.4966,947.8882,1550.4966,943.8882" style="stroke:#000000;stroke-width:1;"/><line style="stroke:#000000;stroke-width:1;" x1="1548.4966" x2="1888.1182" y1="943.8882" y2="943.8882"/><text fill="#000000" font-family="Verdana" font-size="13" font-weight="bold" lengthAdjust="spacing" textLength="18.4844" x="1560.4966" y="939.1587">18</text><text fill="#000000" font-family="Verdana" font-size="13" lengthAdjust="spacing" textLength="185.8848" x="1582.981" y="939.1587">&#240;&#376;&#353;&#353; Livraison avec QR code</text><polygon fill="#000000" points="1736.0903,969.6875,1746.0903,973.6875,1736.0903,977.6875,1740.0903,973.6875" style="stroke:#000000;stroke-width:1;"/><line style="stroke:#000000;stroke-width:1;" x1="1543.4966" x2="1742.0903" y1="973.6875" y2="973.6875"/><text fill="#000000" font-family="Verdana" font-size="13" font-weight="bold" lengthAdjust="spacing" textLength="18.4844" x="1550.4966" y="968.958">19</text><text fill="#000000" font-family="Verdana" font-size="13" lengthAdjust="spacing" textLength="163.1094" x="1572.981" y="968.958">&#240;&#376;&#8220;&#177; Scan code livraison</text><polygon fill="#000000" points="650.3198,999.4868,640.3198,1003.4868,650.3198,1007.4868,646.3198,1003.4868" style="stroke:#000000;stroke-width:1;"/><line style="stroke:#000000;stroke-width:1;" x1="644.3198" x2="1747.0903" y1="1003.4868" y2="1003.4868"/><text fill="#000000" font-family="Verdana" font-size="13" font-weight="bold" lengthAdjust="spacing" textLength="18.4844" x="656.3198" y="998.7573">20</text><text fill="#000000" font-family="Verdana" font-size="13" lengthAdjust="spacing" textLength="205.042" x="678.8042" y="998.7573">&#240;&#376;&#8221;&#8222; Identification automatique</text><polygon fill="#000000" points="1736.0903,1029.2861,1746.0903,1033.2861,1736.0903,1037.2861,1740.0903,1033.2861" style="stroke:#000000;stroke-width:1;"/><line style="stroke:#000000;stroke-width:1;stroke-dasharray:2.0,2.0;" x1="639.3198" x2="1742.0903" y1="1033.2861" y2="1033.2861"/><text fill="#000000" font-family="Verdana" font-size="13" font-weight="bold" lengthAdjust="spacing" textLength="18.4844" x="646.3198" y="1028.5566">21</text><text fill="#000000" font-family="Verdana" font-size="13" lengthAdjust="spacing" textLength="239.4399" x="668.8042" y="1028.5566">&#226;&#339;&#8230; "Commande R12345 attendue"</text><polygon fill="#000000" points="650.3198,1059.0854,640.3198,1063.0854,650.3198,1067.0854,646.3198,1063.0854" style="stroke:#000000;stroke-width:1;"/><line style="stroke:#000000;stroke-width:1;" x1="644.3198" x2="1752.0903" y1="1063.0854" y2="1063.0854"/><text fill="#000000" font-family="Verdana" font-size="13" font-weight="bold" lengthAdjust="spacing" textLength="18.4844" x="656.3198" y="1058.356">22</text><text fill="#000000" font-family="Verdana" font-size="13" lengthAdjust="spacing" textLength="229.563" x="678.8042" y="1058.356">&#226;&#339;&#8230; R&#195;&#169;ception valid&#195;&#169;e (2 sec)</text><path d="M1758,1076.0854 L1758,1101.0854 L1959,1101.0854 L1959,1086.0854 L1949,1076.0854 L1758,1076.0854 " fill="#E6FFE6" style="stroke:#000000;stroke-width:1;"/><path d="M1949,1076.0854 L1949,1086.0854 L1959,1086.0854 L1949,1076.0854 " fill="#E6FFE6" style="stroke:#000000;stroke-width:1;"/><text fill="#000000" font-family="Verdana" font-size="13" lengthAdjust="spacing" textLength="180.8574" x="1764" y="1094.1553">&#240;&#376;&#376;&#162; 2 sec vs 20 min saisie</text><polygon fill="#000000" points="397.1958,1124.6841,387.1958,1128.6841,397.1958,1132.6841,393.1958,1128.6841" style="stroke:#000000;stroke-width:1;"/><line style="stroke:#000000;stroke-width:1;" x1="391.1958" x2="638.3198" y1="1128.6841" y2="1128.6841"/><text fill="#000000" font-family="Verdana" font-size="13" font-weight="bold" lengthAdjust="spacing" textLength="18.4844" x="403.1958" y="1123.9546">23</text><text fill="#000000" font-family="Verdana" font-size="13" lengthAdjust="spacing" textLength="150.668" x="425.6802" y="1123.9546">&#240;&#376;&#8220;&#178; "Mat&#195;&#169;riel dispo"</text><polygon fill="#000000" points="123.7529,1154.4834,113.7529,1158.4834,123.7529,1162.4834,119.7529,1158.4834" style="stroke:#000000;stroke-width:1;"/><line style="stroke:#000000;stroke-width:1;" x1="117.7529" x2="638.3198" y1="1158.4834" y2="1158.4834"/><text fill="#000000" font-family="Verdana" font-size="13" font-weight="bold" lengthAdjust="spacing" textLength="18.4844" x="129.7529" y="1153.7539">24</text><text fill="#000000" font-family="Verdana" font-size="13" lengthAdjust="spacing" textLength="145.0947" x="152.2373" y="1153.7539">&#240;&#376;&#8220;&#177; Push notification</text><rect fill="#FFFFFF" height="3" style="stroke:#FFFFFF;stroke-width:1;" width="2076.0015" x="5" y="1187.3831"/><line style="stroke:#000000;stroke-width:0.5;" x1="5" x2="2081.0015" y1="1187.3831" y2="1187.3831"/><line style="stroke:#000000;stroke-width:0.5;" x1="5" x2="2081.0015" y1="1190.3831" y2="1190.3831"/><rect fill="#FFFFFF" height="23.7993" style="stroke:#000000;stroke-width:1;" width="251.2754" x="917.363" y="1176.4834"/><text fill="#000000" font-family="Verdana" font-size="13" font-weight="bold" lengthAdjust="spacing" textLength="232.832" x="923.363" y="1193.5532">&#226;&#339;&#8230; R&#195;&#169;cup&#195;&#169;ration Garantie</text><polygon fill="#000000" points="1531.4966,1228.082,1541.4966,1232.082,1531.4966,1236.082,1535.4966,1232.082" style="stroke:#000000;stroke-width:1;"/><line style="stroke:#000000;stroke-width:1;" x1="112.7529" x2="1537.4966" y1="1232.082" y2="1232.082"/><text fill="#000000" font-family="Verdana" font-size="13" font-weight="bold" lengthAdjust="spacing" textLength="18.4844" x="119.7529" y="1227.3525">25</text><text fill="#000000" font-family="Verdana" font-size="13" lengthAdjust="spacing" textLength="194.6191" x="142.2373" y="1227.3525">&#240;&#376;&#381;&#175; R&#195;&#169;cup&#195;&#168;re mat&#195;&#169;riel</text><polygon fill="#000000" points="123.7529,1257.8813,113.7529,1261.8813,123.7529,1265.8813,119.7529,1261.8813" style="stroke:#000000;stroke-width:1;"/><line style="stroke:#000000;stroke-width:1;" x1="117.7529" x2="1542.4966" y1="1261.8813" y2="1261.8813"/><text fill="#000000" font-family="Verdana" font-size="13" font-weight="bold" lengthAdjust="spacing" textLength="18.4844" x="129.7529" y="1257.1519">26</text><text fill="#000000" font-family="Verdana" font-size="13" lengthAdjust="spacing" textLength="199.3101" x="152.2373" y="1257.1519">&#240;&#376;&#8220;&#166; Mat&#195;&#169;riel correct garanti</text><path d="M10,1274.8813 L10,1331.8813 L215,1331.8813 L215,1284.8813 L205,1274.8813 L10,1274.8813 " fill="#90EE90" style="stroke:#000000;stroke-width:1;"/><path d="M205,1274.8813 L205,1284.8813 L215,1284.8813 L205,1274.8813 " fill="#90EE90" style="stroke:#000000;stroke-width:1;"/><text fill="#000000" font-family="Verdana" font-size="13" lengthAdjust="spacing" textLength="165.3882" x="16" y="1292.9512">&#226;&#339;&#8230; BON MAT&#195;&#8240;RIEL !</text><text fill="#000000" font-family="Verdana" font-size="13" lengthAdjust="spacing" textLength="152.4517" x="16" y="1308.7505">&#240;&#376;&#376;&#162; Chantier continue</text><text fill="#000000" font-family="Verdana" font-size="13" lengthAdjust="spacing" textLength="184.6597" x="16" y="1324.5498">&#240;&#376;&#8217;&#176; &#195;&#8240;conomie: 2,400&#226;&#8218;&#172;</text><rect fill="#FFFFFF" height="3" style="stroke:#FFFFFF;stroke-width:1;" width="2076.0015" x="5" y="1358.179"/><line style="stroke:#000000;stroke-width:0.5;" x1="5" x2="2081.0015" y1="1358.179" y2="1358.179"/><line style="stroke:#000000;stroke-width:0.5;" x1="5" x2="2081.0015" y1="1361.179" y2="1361.179"/><rect fill="#FFFFFF" height="23.7993" style="stroke:#000000;stroke-width:1;" width="290.9673" x="897.5171" y="1347.2793"/><text fill="#000000" font-family="Verdana" font-size="13" font-weight="bold" lengthAdjust="spacing" textLength="272.5239" x="903.5171" y="1364.3491">&#240;&#376;&#8220;&#352; COMPARAISON AVANT/APR&#195;&#710;S</text><path d="M46,1386.0786 L46,1506.0786 L2076,1506.0786 L2076,1396.0786 L2066,1386.0786 L46,1386.0786 " fill="#E6FFE6" style="stroke:#000000;stroke-width:1;"/><path d="M2066,1386.0786 L2066,1396.0786 L2076,1396.0786 L2066,1386.0786 " fill="#E6FFE6" style="stroke:#000000;stroke-width:1;"/><text fill="#000000" font-family="Verdana" font-size="13" font-weight="bold" lengthAdjust="spacing" textLength="149.9761" x="929.1667" y="1404.1484">GAINS MESURABLES</text><text fill="#000000" font-family="Verdana" font-size="13" lengthAdjust="spacing" textLength="234.0254" x="929.1667" y="1419.9478">&#226;&#65533;&#176; Dur&#195;&#169;e: 2h vs 3 jours (-94%)</text><text fill="#000000" font-family="Verdana" font-size="13" lengthAdjust="spacing" textLength="196.4282" x="929.1667" y="1435.7471">&#240;&#376;&#8220;&#382; Appels: 0 vs 15 (-100%)</text><text fill="#000000" font-family="Verdana" font-size="13" lengthAdjust="spacing" textLength="235.5806" x="929.1667" y="1451.5464">&#226;&#8482;&#187;&#239;&#184;&#65533; Ressaisies: 0 vs 7 (-100%)</text><text fill="#000000" font-family="Verdana" font-size="13" lengthAdjust="spacing" textLength="254.668" x="929.1667" y="1467.3457">&#226;&#65533;&#338; Taux erreur: 2% vs 50% (-96%)</text><text fill="#000000" font-family="Verdana" font-size="13" lengthAdjust="spacing" textLength="194.3462" x="929.1667" y="1483.145">&#240;&#376;&#8217;&#176; &#195;&#8240;conomie: 58K&#226;&#8218;&#172;/an</text><text fill="#000000" font-family="Verdana" font-size="13" lengthAdjust="spacing" textLength="209.2632" x="929.1667" y="1498.9443">&#240;&#376;&#732;&#352; Satisfaction: 9/10 vs 4/10</text><text fill="#000000" font-family="Verdana" font-size="10" lengthAdjust="spacing" textLength="237.3096" x="1837.6919" y="20.0537">Architecture CIBLE - PROCESSUS OPTIMIS&#195;&#8240;</text><!--SRC=[XLRTRXj55BxVfpXrL9I4cZf_RHCfbRQE7Ld4YR7TNFLciXxRGzOxoynkcjv5W7W0k2e2H29K5QbI2rS5L90S-QfluHVW5JXdPl_i68WlOk-Ut-zyvvkv5GtvY4FeCn4uB8va48zEk7BqgGX2fjW8JfXtEb0o3dfLwKi5I_K7-Aaxpf2p7bVWAcye8kv5iU9GRJmwg44PMksZQgtJUTo1erQtqMnqhh-ONhnn8X7v7F37-EVFOXvu77QWAaSZ5lGuD5b4BvJWFYmVSwM5362liT_ekWT9WDgAuvp8SoXrkL9OCJJbYV1v2PPgz-hrsZq7y8zv4PPPQZBbmN9roFjG7R8W4bojb81fe1V64FkBX2T2V0abDmoJQ73Kaz9OuZFxoE513p1nahtpJ5EfBn6uAWyYnNnRmGR2Ge5xB68dJ7CerTej4mv38rO1Ds7fmO82MWtOPn5_ofxPvAt6JQFc0TI2WGWGn7Wmu3f2ZBJjwc2kIDSRiaZ31t0W1m8D4N2iibwlLsPnwZpppmI7PMjl8RBFRgQlbLjAUZZe4RODBQaYQXqTxDTYs9eI2FyU3sLaOzA3cn7RzSOUT3mM15mPCtemrqbTnYeGMlDOQQGBcdg6APhwgT1dGLn-ZZH236rG-hKGq8uCE3x8BEat6MOLxEx2zTNaSdoP4xKHw0YTMK1587BhGpZJi06VOfrw1NPt7SUGh_mmPn0I_VhDvEtquhlnBwPV-AGDePAzM4HW0dbSQoOKTm8PSL1YC8nIMYVEaxVZArYhWEQUn3eqPTs24Qv1o4AajuFGYpEaK86uJbu1bcEec5Ro_Tz_lKDal2773UPPCQMD_VMFjafvC4DNuuaHa83MV_nJkSX14474VLyCa1XSEsXMplDrPOZm90aqX1m74A2XJi8k1cfwyHiS87CvU3u10nz2E9IHrFH5YNEdnsThB00d-rJf0lWQBX3OlXZH4Y6E_PXqvacm1jvGYdF2T6qT51drZHoHJEav7CruqqAV8pVSVbyGY3f7P347hYRVJ2zUM0dqaSU2w0pBcDqNtif_JEjtJ0HLPIddfLGanVuVmXmpNw0WaPYA6U9QRYUZxAASHdQjNOmvGWTDLeRDwV19eZBsJ2z-W3r3N1yXmjwVIdNQz-NJ0WrnaSW7NTCDBEp19HnRlU-Z_EX8UgU05OJQWizz9_CfvxaJ_4fR5OW3OMK0UaA7ifIcIbPu9XFkBcuvDxoXgQE6AUeLdDIwFDVVy_4RABN8NFJGqiYdyo_TJ2wddx_AzO4b0ABBmXvoUfSodwNsslh6vXQSqRHC_wKvFfFpWl5MG1dXq0WYSlS-wM-CcsXccHMSKYc1BqjB2o3KoF8XnSyU23byB-5GHZWbpxAeDDCeU6PSISc5bQJXfmoZA2-WRMKkD55cMCODpNAi7fhJ8aDtSeb2S8OCrUZ8phX7ukdXYUeOCne87ICt99PCm4yzSrwQCyQutD14OdN333phjp1Ev4kcM6dAb94PAiaaMHJX8KAicS-KUCp0aSyTpnDI-9KYbgRWMJgOe0luO9o92UiLSpHOQXHsUC69z2lTblBBLx9EcUGNnOwmRSLw24614kafMMWh3aquY-0-NYJf0ZPpD1Od_6xykkZt4ZTrb1UKJNckaXSpLqPFuafx4GniCWkNFCCRgd5RsgxKQjkL0lwFZWwXwNRDnRBTg1t0hIT11cDwPQGDmSCgvlQTrGNZWY_aIF0TMB-pMQbSNqqllXs_AZ9-yYDKZvejj-qsEfZAFNOFktVT5lRv_gkEWMAsn3kPSXLliwkh-sxZi0FDMkTnsyNRTMTrrRouliBp6ulPYwrUOY75UmWibxStRwzOqwIWFsdwtDSxg1fqpcsXqLgbabfTJR-y6lzn_NhyrjuC4bb9pU_FMQFHv6leilWSy3QEbpEiuBQvarHkK_PxCzbluhRruEC4jRiio2pV4suT4eO-CyVZ3cpVNJC5RE9_Sp4Zt9n_0000]--></g></svg>