<svg xmlns="http://www.w3.org/2000/svg" xmlns:xlink="http://www.w3.org/1999/xlink" contentStyleType="text/css" height="2292px" preserveAspectRatio="none" style="width:1068px;height:2292px;background:#FFFFFF;" version="1.1" viewBox="0 0 1068 2292" width="1068px" zoomAndPan="magnify"><title>Processus Commande Mat&#195;&#169;riel - &#195;&#8240;TAT ACTUEL (CHAOS)</title><defs/><g><text fill="#000000" font-family="sans-serif" font-size="14" font-weight="bold" lengthAdjust="spacing" textLength="411.9609" x="324.3999" y="29.5332">Processus Commande Mat&#195;&#169;riel - &#195;&#8240;TAT ACTUEL (CHAOS)</text><line style="stroke:#181818;stroke-width:0.5;stroke-dasharray:5.0,5.0;" x1="102" x2="102" y1="138.8281" y2="2193.25"/><line style="stroke:#181818;stroke-width:0.5;stroke-dasharray:5.0,5.0;" x1="274.0044" x2="274.0044" y1="138.8281" y2="2193.25"/><line style="stroke:#181818;stroke-width:0.5;stroke-dasharray:5.0,5.0;" x1="453.187" x2="453.187" y1="138.8281" y2="2193.25"/><line style="stroke:#181818;stroke-width:0.5;stroke-dasharray:5.0,5.0;" x1="627.1514" x2="627.1514" y1="138.8281" y2="2193.25"/><line style="stroke:#181818;stroke-width:0.5;stroke-dasharray:5.0,5.0;" x1="702.8477" x2="702.8477" y1="138.8281" y2="2193.25"/><line style="stroke:#181818;stroke-width:0.5;stroke-dasharray:5.0,5.0;" x1="761.082" x2="761.082" y1="138.8281" y2="2193.25"/><line style="stroke:#181818;stroke-width:0.5;stroke-dasharray:5.0,5.0;" x1="839.0889" x2="839.0889" y1="138.8281" y2="2193.25"/><text fill="#000000" font-family="sans-serif" font-size="14" lengthAdjust="spacing" textLength="31.1104" x="84.2964" y="118.1426">Marc</text><text fill="#000000" font-family="sans-serif" font-size="14" lengthAdjust="spacing" textLength="95.7031" x="52" y="135.752">(Chef Chantier)</text><ellipse cx="102.8516" cy="52.1094" fill="#FFB6C1" rx="8" ry="8" style="stroke:#181818;stroke-width:0.5;"/><path d="M102.8516,60.1094 L102.8516,87.1094 M89.8516,68.1094 L115.8516,68.1094 M102.8516,87.1094 L89.8516,102.1094 M102.8516,87.1094 L115.8516,102.1094 " fill="none" style="stroke:#181818;stroke-width:0.5;"/><text fill="#000000" font-family="sans-serif" font-size="14" lengthAdjust="spacing" textLength="31.1104" x="84.2964" y="2206.7832">Marc</text><text fill="#000000" font-family="sans-serif" font-size="14" lengthAdjust="spacing" textLength="95.7031" x="52" y="2224.3926">(Chef Chantier)</text><ellipse cx="102.8516" cy="2235.9688" fill="#FFB6C1" rx="8" ry="8" style="stroke:#181818;stroke-width:0.5;"/><path d="M102.8516,2243.9688 L102.8516,2270.9688 M89.8516,2251.9688 L115.8516,2251.9688 M102.8516,2270.9688 L89.8516,2285.9688 M102.8516,2270.9688 L115.8516,2285.9688 " fill="none" style="stroke:#181818;stroke-width:0.5;"/><text fill="#000000" font-family="sans-serif" font-size="14" lengthAdjust="spacing" textLength="37.3447" x="252.394" y="118.1426">Sylvie</text><text fill="#000000" font-family="sans-serif" font-size="14" lengthAdjust="spacing" textLength="52.124" x="245.0044" y="135.752">(Achats)</text><ellipse cx="274.0664" cy="52.1094" fill="#ADD8E6" rx="8" ry="8" style="stroke:#181818;stroke-width:0.5;"/><path d="M274.0664,60.1094 L274.0664,87.1094 M261.0664,68.1094 L287.0664,68.1094 M274.0664,87.1094 L261.0664,102.1094 M274.0664,87.1094 L287.0664,102.1094 " fill="none" style="stroke:#181818;stroke-width:0.5;"/><text fill="#000000" font-family="sans-serif" font-size="14" lengthAdjust="spacing" textLength="37.3447" x="252.394" y="2206.7832">Sylvie</text><text fill="#000000" font-family="sans-serif" font-size="14" lengthAdjust="spacing" textLength="52.124" x="245.0044" y="2224.3926">(Achats)</text><ellipse cx="274.0664" cy="2235.9688" fill="#ADD8E6" rx="8" ry="8" style="stroke:#181818;stroke-width:0.5;"/><path d="M274.0664,2243.9688 L274.0664,2270.9688 M261.0664,2251.9688 L287.0664,2251.9688 M274.0664,2270.9688 L261.0664,2285.9688 M274.0664,2270.9688 L287.0664,2285.9688 " fill="none" style="stroke:#181818;stroke-width:0.5;"/><text fill="#000000" font-family="sans-serif" font-size="14" lengthAdjust="spacing" textLength="41.0498" x="430.0439" y="118.1426">&#195;&#8240;ric</text><text fill="#000000" font-family="sans-serif" font-size="14" lengthAdjust="spacing" textLength="64.7637" x="418.187" y="135.752">(D&#195;&#169;p&#195;&#180;t)</text><ellipse cx="453.5688" cy="52.1094" fill="#98FB98" rx="8" ry="8" style="stroke:#181818;stroke-width:0.5;"/><path d="M453.5688,60.1094 L453.5688,87.1094 M440.5688,68.1094 L466.5688,68.1094 M453.5688,87.1094 L440.5688,102.1094 M453.5688,87.1094 L466.5688,102.1094 " fill="none" style="stroke:#181818;stroke-width:0.5;"/><text fill="#000000" font-family="sans-serif" font-size="14" lengthAdjust="spacing" textLength="41.0498" x="430.0439" y="2206.7832">&#195;&#8240;ric</text><text fill="#000000" font-family="sans-serif" font-size="14" lengthAdjust="spacing" textLength="64.7637" x="418.187" y="2224.3926">(D&#195;&#169;p&#195;&#180;t)</text><ellipse cx="453.5688" cy="2235.9688" fill="#98FB98" rx="8" ry="8" style="stroke:#181818;stroke-width:0.5;"/><path d="M453.5688,2243.9688 L453.5688,2270.9688 M440.5688,2251.9688 L466.5688,2251.9688 M453.5688,2270.9688 L440.5688,2285.9688 M453.5688,2270.9688 L466.5688,2285.9688 " fill="none" style="stroke:#181818;stroke-width:0.5;"/><rect fill="#FF6B6B" height="31.6094" rx="2.5" ry="2.5" style="stroke:#181818;stroke-width:0.5;" width="81.6963" x="587.1514" y="106.2188"/><text fill="#000000" font-family="sans-serif" font-size="14" lengthAdjust="spacing" textLength="67.6963" x="594.1514" y="127.752">Sage MDE</text><rect fill="#FF6B6B" height="31.6094" rx="2.5" ry="2.5" style="stroke:#181818;stroke-width:0.5;" width="81.6963" x="587.1514" y="2192.25"/><text fill="#000000" font-family="sans-serif" font-size="14" lengthAdjust="spacing" textLength="67.6963" x="594.1514" y="2213.7832">Sage MDE</text><rect fill="#FFD700" height="31.6094" rx="2.5" ry="2.5" style="stroke:#181818;stroke-width:0.5;" width="48.2344" x="678.8477" y="106.2188"/><text fill="#000000" font-family="sans-serif" font-size="14" lengthAdjust="spacing" textLength="34.2344" x="685.8477" y="127.752">Excel</text><rect fill="#FFD700" height="31.6094" rx="2.5" ry="2.5" style="stroke:#181818;stroke-width:0.5;" width="48.2344" x="678.8477" y="2192.25"/><text fill="#000000" font-family="sans-serif" font-size="14" lengthAdjust="spacing" textLength="34.2344" x="685.8477" y="2213.7832">Excel</text><rect fill="#E2E2F0" height="31.6094" rx="2.5" ry="2.5" style="stroke:#181818;stroke-width:0.5;" width="49.0068" x="737.082" y="106.2188"/><text fill="#000000" font-family="sans-serif" font-size="14" lengthAdjust="spacing" textLength="35.0068" x="744.082" y="127.752">Email</text><rect fill="#E2E2F0" height="31.6094" rx="2.5" ry="2.5" style="stroke:#181818;stroke-width:0.5;" width="49.0068" x="737.082" y="2192.25"/><text fill="#000000" font-family="sans-serif" font-size="14" lengthAdjust="spacing" textLength="35.0068" x="744.082" y="2213.7832">Email</text><rect fill="#E2E2F0" height="31.6094" rx="2.5" ry="2.5" style="stroke:#181818;stroke-width:0.5;" width="87.917" x="796.0889" y="106.2188"/><text fill="#000000" font-family="sans-serif" font-size="14" lengthAdjust="spacing" textLength="73.917" x="803.0889" y="127.752">Fournisseur</text><rect fill="#E2E2F0" height="31.6094" rx="2.5" ry="2.5" style="stroke:#181818;stroke-width:0.5;" width="87.917" x="796.0889" y="2192.25"/><text fill="#000000" font-family="sans-serif" font-size="14" lengthAdjust="spacing" textLength="73.917" x="803.0889" y="2213.7832">Fournisseur</text><rect fill="#EEEEEE" height="3" style="stroke:#EEEEEE;stroke-width:1;" width="1061.7607" x="0" y="170.0039"/><line style="stroke:#000000;stroke-width:1;" x1="0" x2="1061.7607" y1="170.0039" y2="170.0039"/><line style="stroke:#000000;stroke-width:1;" x1="0" x2="1061.7607" y1="173.0039" y2="173.0039"/><rect fill="#EEEEEE" height="24.3516" style="stroke:#000000;stroke-width:2;" width="144.7427" x="458.509" y="158.8281"/><text fill="#000000" font-family="sans-serif" font-size="13" font-weight="bold" lengthAdjust="spacing" textLength="127.1309" x="464.509" y="176.3232">JOUR 1 - Lundi 9h00</text><path d="M33,198.1797 L33,240.1797 L172,240.1797 L172,208.1797 L162,198.1797 L33,198.1797 " fill="#FFAAAA" style="stroke:#181818;stroke-width:0.5;"/><path d="M162,198.1797 L162,208.1797 L172,208.1797 L162,198.1797 " fill="#FFAAAA" style="stroke:#181818;stroke-width:0.5;"/><text fill="#000000" font-family="sans-serif" font-size="13" font-weight="bold" lengthAdjust="spacing" textLength="108.5259" x="39" y="216.6748">Besoin identifi&#195;&#169;</text><text fill="#000000" font-family="sans-serif" font-size="13" lengthAdjust="spacing" textLength="118.5044" x="39" y="233.0264">C&#195;&#162;ble 3G2.5 - 50m</text><line style="stroke:#181818;stroke-width:1;" x1="102.8516" x2="144.8516" y1="272.9102" y2="272.9102"/><line style="stroke:#181818;stroke-width:1;" x1="144.8516" x2="144.8516" y1="272.9102" y2="285.9102"/><line style="stroke:#181818;stroke-width:1;" x1="103.8516" x2="144.8516" y1="285.9102" y2="285.9102"/><polygon fill="#181818" points="113.8516,281.9102,103.8516,285.9102,113.8516,289.9102,109.8516,285.9102" style="stroke:#181818;stroke-width:1;"/><text fill="#000000" font-family="sans-serif" font-size="13" lengthAdjust="spacing" textLength="114.188" x="109.8516" y="268.0537">Cherche bon papier</text><path d="M235.188,250.8828 L235.188,292.8828 L441.188,292.8828 L441.188,260.8828 L431.188,250.8828 L235.188,250.8828 " fill="#FF6B6B" style="stroke:#181818;stroke-width:0.5;"/><path d="M431.188,250.8828 L431.188,260.8828 L441.188,260.8828 L431.188,250.8828 " fill="#FF6B6B" style="stroke:#181818;stroke-width:0.5;"/><text fill="#000000" font-family="sans-serif" font-size="13" lengthAdjust="spacing" textLength="185.0024" x="241.188" y="269.3779">&#240;&#376;&#8221;&#180; Support papier uniquement</text><text fill="#000000" font-family="sans-serif" font-size="13" lengthAdjust="spacing" textLength="94.4404" x="241.188" y="285.7295">&#226;&#65533;&#176; 5 min perdu</text><line style="stroke:#181818;stroke-width:1;" x1="102.8516" x2="144.8516" y1="325.6133" y2="325.6133"/><line style="stroke:#181818;stroke-width:1;" x1="144.8516" x2="144.8516" y1="325.6133" y2="338.6133"/><line style="stroke:#181818;stroke-width:1;" x1="103.8516" x2="144.8516" y1="338.6133" y2="338.6133"/><polygon fill="#181818" points="113.8516,334.6133,103.8516,338.6133,113.8516,342.6133,109.8516,338.6133" style="stroke:#181818;stroke-width:1;"/><text fill="#000000" font-family="sans-serif" font-size="13" lengthAdjust="spacing" textLength="130.7808" x="109.8516" y="320.7568">Remplit bon &#195;&#160; la main</text><path d="M251.7808,303.5859 L251.7808,345.5859 L452.7808,345.5859 L452.7808,313.5859 L442.7808,303.5859 L251.7808,303.5859 " fill="#FF6B6B" style="stroke:#181818;stroke-width:0.5;"/><path d="M442.7808,303.5859 L442.7808,313.5859 L452.7808,313.5859 L442.7808,303.5859 " fill="#FF6B6B" style="stroke:#181818;stroke-width:0.5;"/><text fill="#000000" font-family="sans-serif" font-size="13" lengthAdjust="spacing" textLength="180.4448" x="257.7808" y="322.0811">&#240;&#376;&#8221;&#180; R&#195;&#169;f&#195;&#169;rence impr&#195;&#169;cise</text><text fill="#000000" font-family="sans-serif" font-size="13" lengthAdjust="spacing" textLength="171.2852" x="257.7808" y="338.4326">"c&#195;&#162;ble 3G2.5" sans d&#195;&#169;tails</text><line style="stroke:#181818;stroke-width:2;" x1="256.0664" x2="266.0664" y1="379.8164" y2="389.8164"/><line style="stroke:#181818;stroke-width:2;" x1="256.0664" x2="266.0664" y1="389.8164" y2="379.8164"/><line style="stroke:#181818;stroke-width:1;" x1="102.8516" x2="261.0664" y1="384.8164" y2="384.8164"/><text fill="#000000" font-family="sans-serif" font-size="13" lengthAdjust="spacing" textLength="133.3579" x="109.8516" y="379.96">Appel t&#195;&#169;l&#195;&#169;phonique</text><path d="M279,356.2891 L279,398.2891 L430,398.2891 L430,366.2891 L420,356.2891 L279,356.2891 " fill="#FF6B6B" style="stroke:#181818;stroke-width:0.5;"/><path d="M420,356.2891 L420,366.2891 L430,366.2891 L420,356.2891 " fill="#FF6B6B" style="stroke:#181818;stroke-width:0.5;"/><text fill="#000000" font-family="sans-serif" font-size="13" lengthAdjust="spacing" textLength="130.2539" x="285" y="374.7842">&#240;&#376;&#8221;&#180; Pas de r&#195;&#169;ponse</text><text fill="#000000" font-family="sans-serif" font-size="13" lengthAdjust="spacing" textLength="73.8994" x="285" y="391.1357">En r&#195;&#169;union</text><line style="stroke:#181818;stroke-width:1;" x1="102.8516" x2="144.8516" y1="426.3438" y2="426.3438"/><line style="stroke:#181818;stroke-width:1;" x1="144.8516" x2="144.8516" y1="426.3438" y2="439.3438"/><line style="stroke:#181818;stroke-width:1;" x1="103.8516" x2="144.8516" y1="439.3438" y2="439.3438"/><polygon fill="#181818" points="113.8516,435.3438,103.8516,439.3438,113.8516,443.3438,109.8516,439.3438" style="stroke:#181818;stroke-width:1;"/><text fill="#000000" font-family="sans-serif" font-size="13" lengthAdjust="spacing" textLength="96.8335" x="109.8516" y="421.4873">Rappelle... 3 fois</text><path d="M217.8335,412.4922 L217.8335,438.4922 L377.8335,438.4922 L377.8335,422.4922 L367.8335,412.4922 L217.8335,412.4922 " fill="#FF6B6B" style="stroke:#181818;stroke-width:0.5;"/><path d="M367.8335,412.4922 L367.8335,422.4922 L377.8335,422.4922 L367.8335,412.4922 " fill="#FF6B6B" style="stroke:#181818;stroke-width:0.5;"/><text fill="#000000" font-family="sans-serif" font-size="13" lengthAdjust="spacing" textLength="139.9722" x="223.8335" y="430.9873">&#226;&#65533;&#176; 25 minutes perdues</text><polygon fill="#181818" points="262.0664,465.6953,272.0664,469.6953,262.0664,473.6953,266.0664,469.6953" style="stroke:#181818;stroke-width:1;"/><line style="stroke:#181818;stroke-width:1;" x1="102.8516" x2="268.0664" y1="469.6953" y2="469.6953"/><text fill="#000000" font-family="sans-serif" font-size="13" lengthAdjust="spacing" textLength="130.9775" x="109.8516" y="464.8389">Appel r&#195;&#169;ussi (10h45)</text><path d="M65,482.6953 L65,524.6953 L311,524.6953 L311,492.6953 L301,482.6953 L65,482.6953 " fill="#FEFFDD" style="stroke:#181818;stroke-width:0.5;"/><path d="M301,482.6953 L301,492.6953 L311,492.6953 L301,482.6953 " fill="#FEFFDD" style="stroke:#181818;stroke-width:0.5;"/><text fill="#000000" font-family="sans-serif" font-size="13" lengthAdjust="spacing" textLength="106.0693" x="112.3054" y="501.1904">&#195;&#8240;change verbal</text><text fill="#000000" font-family="sans-serif" font-size="13" lengthAdjust="spacing" textLength="142.5176" x="112.3054" y="517.542">"J'ai besoin de c&#195;&#162;ble..."</text><polygon fill="#181818" points="615.9995,548.75,625.9995,552.75,615.9995,556.75,619.9995,552.75" style="stroke:#181818;stroke-width:1;"/><line style="stroke:#181818;stroke-width:1;" x1="274.0664" x2="621.9995" y1="552.75" y2="552.75"/><text fill="#000000" font-family="sans-serif" font-size="13" lengthAdjust="spacing" textLength="154.4829" x="281.0664" y="547.8936">Recherche "c&#195;&#162;ble 3G2.5"</text><polygon fill="#181818" points="285.0664,639.332,275.0664,643.332,285.0664,647.332,281.0664,643.332" style="stroke:#181818;stroke-width:1;"/><line style="stroke:#181818;stroke-width:1;stroke-dasharray:2.0,2.0;" x1="279.0664" x2="626.9995" y1="643.332" y2="643.332"/><text fill="#000000" font-family="sans-serif" font-size="13" lengthAdjust="spacing" textLength="85.4458" x="291.0664" y="638.4756">12 r&#195;&#169;sultats !</text><path d="M632,565.75 L632,705.75 L852,705.75 L852,575.75 L842,565.75 L632,565.75 " fill="#FF6B6B" style="stroke:#181818;stroke-width:0.5;"/><path d="M842,565.75 L842,575.75 L852,575.75 L842,565.75 " fill="#FF6B6B" style="stroke:#181818;stroke-width:0.5;"/><text fill="#000000" font-family="sans-serif" font-size="13" lengthAdjust="spacing" textLength="24.5591" x="638" y="584.2451">&#240;&#376;&#8221;&#180;</text><text fill="#000000" font-family="sans-serif" font-size="13" font-weight="bold" lengthAdjust="spacing" textLength="171.4312" x="666.1709" y="584.2451">BASE DONN&#195;&#8240;ES CHAOS</text><text fill="#000000" font-family="sans-serif" font-size="13" lengthAdjust="spacing" textLength="176.8647" x="638" y="600.5967">12 r&#195;&#169;f&#195;&#169;rences diff&#195;&#169;rentes</text><text fill="#000000" font-family="sans-serif" font-size="13" lengthAdjust="spacing" textLength="138.0044" x="638" y="616.9482">pour le M&#195;&#352;ME produit:</text><text fill="#000000" font-family="sans-serif" font-size="13" lengthAdjust="spacing" textLength="171.9326" x="638" y="633.2998">- CABLE-3G2.5-ROUGE-50M</text><text fill="#000000" font-family="sans-serif" font-size="13" lengthAdjust="spacing" textLength="110.5698" x="638" y="649.6514">- CBL_3G25_R_50</text><text fill="#000000" font-family="sans-serif" font-size="13" lengthAdjust="spacing" textLength="142.3145" x="638" y="666.0029">- 3G2.5-CABLE-ROUGE</text><text fill="#000000" font-family="sans-serif" font-size="13" lengthAdjust="spacing" textLength="155.3462" x="638" y="682.3545">- CABLE_3G_2.5_ROUGE</text><text fill="#000000" font-family="sans-serif" font-size="13" lengthAdjust="spacing" textLength="18.7764" x="638" y="698.7061">- ...</text><line style="stroke:#181818;stroke-width:1;" x1="274.0664" x2="316.0664" y1="738.5898" y2="738.5898"/><line style="stroke:#181818;stroke-width:1;" x1="316.0664" x2="316.0664" y1="738.5898" y2="751.5898"/><line style="stroke:#181818;stroke-width:1;" x1="275.0664" x2="316.0664" y1="751.5898" y2="751.5898"/><polygon fill="#181818" points="285.0664,747.5898,275.0664,751.5898,285.0664,755.5898,281.0664,751.5898" style="stroke:#181818;stroke-width:1;"/><text fill="#000000" font-family="sans-serif" font-size="13" lengthAdjust="spacing" textLength="165.5024" x="281.0664" y="733.7334">Choisit une r&#195;&#169;f "au hasard"</text><path d="M458.5024,716.5625 L458.5024,758.5625 L598.5024,758.5625 L598.5024,726.5625 L588.5024,716.5625 L458.5024,716.5625 " fill="#FFD700" style="stroke:#181818;stroke-width:0.5;"/><path d="M588.5024,716.5625 L588.5024,726.5625 L598.5024,726.5625 L588.5024,716.5625 " fill="#FFD700" style="stroke:#181818;stroke-width:0.5;"/><text fill="#000000" font-family="sans-serif" font-size="13" lengthAdjust="spacing" textLength="119.5835" x="464.5024" y="735.0576">&#226;&#353;&#160;&#239;&#184;&#65533; Faible chance</text><text fill="#000000" font-family="sans-serif" font-size="13" lengthAdjust="spacing" textLength="116.3652" x="464.5024" y="751.4092">que ce soit la bonne</text><polygon fill="#181818" points="690.9648,793.793,700.9648,797.793,690.9648,801.793,694.9648,797.793" style="stroke:#181818;stroke-width:1;"/><line style="stroke:#181818;stroke-width:1;" x1="274.0664" x2="696.9648" y1="797.793" y2="797.793"/><text fill="#000000" font-family="sans-serif" font-size="13" lengthAdjust="spacing" textLength="117.0571" x="281.0664" y="792.9365">Cherche fournisseur</text><path d="M707,769.2656 L707,811.2656 L907,811.2656 L907,779.2656 L897,769.2656 L707,769.2656 " fill="#FF6B6B" style="stroke:#181818;stroke-width:0.5;"/><path d="M897,769.2656 L897,779.2656 L907,779.2656 L897,769.2656 " fill="#FF6B6B" style="stroke:#181818;stroke-width:0.5;"/><text fill="#000000" font-family="sans-serif" font-size="13" lengthAdjust="spacing" textLength="179.7529" x="713" y="787.7607">&#240;&#376;&#8221;&#180; Donn&#195;&#169;es &#195;&#169;parpill&#195;&#169;es</text><text fill="#000000" font-family="sans-serif" font-size="13" lengthAdjust="spacing" textLength="57.5796" x="713" y="804.1123">&#226;&#65533;&#176; 8 min</text><polygon fill="#181818" points="828.0474,846.4961,838.0474,850.4961,828.0474,854.4961,832.0474,850.4961" style="stroke:#181818;stroke-width:1;"/><line style="stroke:#181818;stroke-width:1;" x1="274.0664" x2="834.0474" y1="850.4961" y2="850.4961"/><text fill="#000000" font-family="sans-serif" font-size="13" lengthAdjust="spacing" textLength="133.3579" x="281.0664" y="845.6396">Appel t&#195;&#169;l&#195;&#169;phonique</text><path d="M845,821.9688 L845,863.9688 L1051,863.9688 L1051,831.9688 L1041,821.9688 L845,821.9688 " fill="#FF6B6B" style="stroke:#181818;stroke-width:0.5;"/><path d="M1041,821.9688 L1041,831.9688 L1051,831.9688 L1041,821.9688 " fill="#FF6B6B" style="stroke:#181818;stroke-width:0.5;"/><text fill="#000000" font-family="sans-serif" font-size="13" lengthAdjust="spacing" textLength="185.7134" x="851" y="840.4639">&#240;&#376;&#8221;&#180; Pas de commande en ligne</text><text fill="#000000" font-family="sans-serif" font-size="13" lengthAdjust="spacing" textLength="165.6421" x="851" y="856.8154">&#226;&#65533;&#176; 15 min au t&#195;&#169;l&#195;&#169;phone</text><polygon fill="#181818" points="285.0664,888.0234,275.0664,892.0234,285.0664,896.0234,281.0664,892.0234" style="stroke:#181818;stroke-width:1;"/><line style="stroke:#181818;stroke-width:1;stroke-dasharray:2.0,2.0;" x1="279.0664" x2="839.0474" y1="892.0234" y2="892.0234"/><text fill="#000000" font-family="sans-serif" font-size="13" lengthAdjust="spacing" textLength="98.8394" x="291.0664" y="887.167">"Dispo sous 48h"</text><polygon fill="#181818" points="749.5854,962.2539,759.5854,966.2539,749.5854,970.2539,753.5854,966.2539" style="stroke:#181818;stroke-width:1;"/><line style="stroke:#181818;stroke-width:1;" x1="274.0664" x2="755.5854" y1="966.2539" y2="966.2539"/><text fill="#000000" font-family="sans-serif" font-size="13" lengthAdjust="spacing" textLength="150.8267" x="281.0664" y="961.3975">&#195;&#8240;crit email confirmation</text><path d="M766,905.0234 L766,1013.0234 L923,1013.0234 L923,915.0234 L913,905.0234 L766,905.0234 " fill="#FF6B6B" style="stroke:#181818;stroke-width:0.5;"/><path d="M913,905.0234 L913,915.0234 L923,915.0234 L913,905.0234 " fill="#FF6B6B" style="stroke:#181818;stroke-width:0.5;"/><text fill="#000000" font-family="sans-serif" font-size="13" lengthAdjust="spacing" textLength="24.5591" x="772" y="923.5186">&#240;&#376;&#8221;&#180;</text><text fill="#000000" font-family="sans-serif" font-size="13" font-weight="bold" lengthAdjust="spacing" textLength="83.0845" x="800.1709" y="923.5186">RE-SAISIE #4</text><text fill="#000000" font-family="sans-serif" font-size="13" lengthAdjust="spacing" textLength="136.5762" x="772" y="939.8701">Recopie manuellement:</text><text fill="#000000" font-family="sans-serif" font-size="13" lengthAdjust="spacing" textLength="89.959" x="772" y="956.2217">- R&#195;&#169;f&#195;&#169;rence</text><text fill="#000000" font-family="sans-serif" font-size="13" lengthAdjust="spacing" textLength="68.104" x="772" y="972.5732">- Quantit&#195;&#169;</text><text fill="#000000" font-family="sans-serif" font-size="13" lengthAdjust="spacing" textLength="30.3291" x="772" y="988.9248">- Prix</text><text fill="#000000" font-family="sans-serif" font-size="13" lengthAdjust="spacing" textLength="55.6309" x="772" y="1005.2764">- Adresse</text><polygon fill="#181818" points="615.9995,1039.4844,625.9995,1043.4844,615.9995,1047.4844,619.9995,1043.4844" style="stroke:#181818;stroke-width:1;"/><line style="stroke:#181818;stroke-width:1;" x1="274.0664" x2="621.9995" y1="1043.4844" y2="1043.4844"/><text fill="#000000" font-family="sans-serif" font-size="13" lengthAdjust="spacing" textLength="99.709" x="281.0664" y="1038.6279">Saisit commande</text><path d="M632,1023.1328 L632,1049.1328 L764,1049.1328 L764,1033.1328 L754,1023.1328 L632,1023.1328 " fill="#FF6B6B" style="stroke:#181818;stroke-width:0.5;"/><path d="M754,1023.1328 L754,1033.1328 L764,1033.1328 L754,1023.1328 " fill="#FF6B6B" style="stroke:#181818;stroke-width:0.5;"/><text fill="#000000" font-family="sans-serif" font-size="13" lengthAdjust="spacing" textLength="24.5591" x="638" y="1041.6279">&#240;&#376;&#8221;&#180;</text><text fill="#000000" font-family="sans-serif" font-size="13" font-weight="bold" lengthAdjust="spacing" textLength="83.0845" x="666.1709" y="1041.6279">RE-SAISIE #5</text><polygon fill="#181818" points="690.9648,1075.8359,700.9648,1079.8359,690.9648,1083.8359,694.9648,1079.8359" style="stroke:#181818;stroke-width:1;"/><line style="stroke:#181818;stroke-width:1;" x1="274.0664" x2="696.9648" y1="1079.8359" y2="1079.8359"/><text fill="#000000" font-family="sans-serif" font-size="13" lengthAdjust="spacing" textLength="93.209" x="281.0664" y="1074.9795">Saisit dans suivi</text><path d="M707,1059.4844 L707,1085.4844 L839,1085.4844 L839,1069.4844 L829,1059.4844 L707,1059.4844 " fill="#FF6B6B" style="stroke:#181818;stroke-width:0.5;"/><path d="M829,1059.4844 L829,1069.4844 L839,1069.4844 L829,1059.4844 " fill="#FF6B6B" style="stroke:#181818;stroke-width:0.5;"/><text fill="#000000" font-family="sans-serif" font-size="13" lengthAdjust="spacing" textLength="24.5591" x="713" y="1077.9795">&#240;&#376;&#8221;&#180;</text><text fill="#000000" font-family="sans-serif" font-size="13" font-weight="bold" lengthAdjust="spacing" textLength="83.0845" x="741.1709" y="1077.9795">RE-SAISIE #6</text><polygon fill="#181818" points="113.8516,1109.1875,103.8516,1113.1875,113.8516,1117.1875,109.8516,1113.1875" style="stroke:#181818;stroke-width:1;"/><line style="stroke:#181818;stroke-width:1;" x1="107.8516" x2="273.0664" y1="1113.1875" y2="1113.1875"/><text fill="#000000" font-family="sans-serif" font-size="13" lengthAdjust="spacing" textLength="147.2148" x="119.8516" y="1108.3311">SMS "Livraison mercredi"</text><rect fill="#EEEEEE" height="3" style="stroke:#EEEEEE;stroke-width:1;" width="1061.7607" x="0" y="1142.3633"/><line style="stroke:#000000;stroke-width:1;" x1="0" x2="1061.7607" y1="1142.3633" y2="1142.3633"/><line style="stroke:#000000;stroke-width:1;" x1="0" x2="1061.7607" y1="1145.3633" y2="1145.3633"/><rect fill="#EEEEEE" height="24.3516" style="stroke:#000000;stroke-width:2;" width="110.7954" x="475.4827" y="1131.1875"/><text fill="#000000" font-family="sans-serif" font-size="13" font-weight="bold" lengthAdjust="spacing" textLength="93.1836" x="481.4827" y="1148.6826">JOUR 2 - Mardi</text><path d="M57,1170.5391 L57,1212.5391 L884,1212.5391 L884,1180.5391 L874,1170.5391 L57,1170.5391 " fill="#FFFFCC" style="stroke:#181818;stroke-width:0.5;"/><path d="M874,1170.5391 L874,1180.5391 L884,1180.5391 L874,1170.5391 " fill="#FFFFCC" style="stroke:#181818;stroke-width:0.5;"/><text fill="#000000" font-family="sans-serif" font-size="13" lengthAdjust="spacing" textLength="39" x="373.0764" y="1189.0342">&#226;&#65533;&#184;&#239;&#184;&#65533;</text><text fill="#000000" font-family="sans-serif" font-size="13" font-weight="bold" lengthAdjust="spacing" textLength="143.2412" x="415.6882" y="1189.0342">CHANTIER BLOQU&#195;&#8240;</text><text fill="#000000" font-family="sans-serif" font-size="13" lengthAdjust="spacing" textLength="92.4917" x="373.0764" y="1205.3857">Attente livraison</text><polygon fill="#181818" points="262.0664,1247.7695,272.0664,1251.7695,262.0664,1255.7695,266.0664,1251.7695" style="stroke:#181818;stroke-width:1;"/><line style="stroke:#181818;stroke-width:1;" x1="102.8516" x2="268.0664" y1="1251.7695" y2="1251.7695"/><text fill="#000000" font-family="sans-serif" font-size="13" lengthAdjust="spacing" textLength="110.5635" x="109.8516" y="1246.9131">Rappelle pour suivi</text><path d="M279,1223.2422 L279,1265.2422 L432,1265.2422 L432,1233.2422 L422,1223.2422 L279,1223.2422 " fill="#FF6B6B" style="stroke:#181818;stroke-width:0.5;"/><path d="M422,1223.2422 L422,1233.2422 L432,1233.2422 L422,1223.2422 " fill="#FF6B6B" style="stroke:#181818;stroke-width:0.5;"/><text fill="#000000" font-family="sans-serif" font-size="13" lengthAdjust="spacing" textLength="132.4058" x="285" y="1241.7373">&#240;&#376;&#8221;&#180; Aucune visibilit&#195;&#169;</text><text fill="#000000" font-family="sans-serif" font-size="13" lengthAdjust="spacing" textLength="71.7095" x="285" y="1258.0889">temps r&#195;&#169;el</text><rect fill="#EEEEEE" height="3" style="stroke:#EEEEEE;stroke-width:1;" width="1061.7607" x="0" y="1292.1211"/><line style="stroke:#000000;stroke-width:1;" x1="0" x2="1061.7607" y1="1292.1211" y2="1292.1211"/><line style="stroke:#000000;stroke-width:1;" x1="0" x2="1061.7607" y1="1295.1211" y2="1295.1211"/><rect fill="#EEEEEE" height="24.3516" style="stroke:#000000;stroke-width:2;" width="163.5571" x="449.1018" y="1280.9453"/><text fill="#000000" font-family="sans-serif" font-size="13" font-weight="bold" lengthAdjust="spacing" textLength="145.9453" x="455.1018" y="1298.4404">JOUR 3 - Mercredi 9h00</text><polygon fill="#181818" points="464.5688,1333.6484,454.5688,1337.6484,464.5688,1341.6484,460.5688,1337.6484" style="stroke:#181818;stroke-width:1;"/><line style="stroke:#181818;stroke-width:1;" x1="458.5688" x2="839.0474" y1="1337.6484" y2="1337.6484"/><text fill="#000000" font-family="sans-serif" font-size="13" lengthAdjust="spacing" textLength="97.5444" x="470.5688" y="1332.792">Livraison camion</text><line style="stroke:#181818;stroke-width:1;" x1="453.5688" x2="495.5688" y1="1372.6758" y2="1372.6758"/><line style="stroke:#181818;stroke-width:1;" x1="495.5688" x2="495.5688" y1="1372.6758" y2="1385.6758"/><line style="stroke:#181818;stroke-width:1;" x1="454.5688" x2="495.5688" y1="1385.6758" y2="1385.6758"/><polygon fill="#181818" points="464.5688,1381.6758,454.5688,1385.6758,464.5688,1389.6758,460.5688,1385.6758" style="stroke:#181818;stroke-width:1;"/><text fill="#000000" font-family="sans-serif" font-size="13" lengthAdjust="spacing" textLength="160.4307" x="460.5688" y="1367.8193">Cherche bon de commande</text><path d="M632.4307,1350.6484 L632.4307,1392.6484 L858.4307,1392.6484 L858.4307,1360.6484 L848.4307,1350.6484 L632.4307,1350.6484 " fill="#FF6B6B" style="stroke:#181818;stroke-width:0.5;"/><path d="M848.4307,1350.6484 L848.4307,1360.6484 L858.4307,1360.6484 L848.4307,1350.6484 " fill="#FF6B6B" style="stroke:#181818;stroke-width:0.5;"/><text fill="#000000" font-family="sans-serif" font-size="13" lengthAdjust="spacing" textLength="205.7529" x="638.4307" y="1369.1436">&#240;&#376;&#8221;&#180; Pas de r&#195;&#169;f&#195;&#169;rence crois&#195;&#169;e</text><text fill="#000000" font-family="sans-serif" font-size="13" lengthAdjust="spacing" textLength="134.894" x="638.4307" y="1385.4951">&#226;&#65533;&#176; 15 min &#195;&#160; chercher</text><line style="stroke:#181818;stroke-width:1;" x1="453.5688" x2="495.5688" y1="1441.7305" y2="1441.7305"/><line style="stroke:#181818;stroke-width:1;" x1="495.5688" x2="495.5688" y1="1441.7305" y2="1454.7305"/><line style="stroke:#181818;stroke-width:1;" x1="454.5688" x2="495.5688" y1="1454.7305" y2="1454.7305"/><polygon fill="#181818" points="464.5688,1450.7305,454.5688,1454.7305,464.5688,1458.7305,460.5688,1454.7305" style="stroke:#181818;stroke-width:1;"/><text fill="#000000" font-family="sans-serif" font-size="13" lengthAdjust="spacing" textLength="140.5371" x="460.5688" y="1436.874">Compare r&#195;&#169;f&#195;&#169;rences</text><path d="M612.5371,1403.3516 L612.5371,1478.3516 L824.5371,1478.3516 L824.5371,1413.3516 L814.5371,1403.3516 L612.5371,1403.3516 " fill="#FF6B6B" style="stroke:#181818;stroke-width:0.5;"/><path d="M814.5371,1403.3516 L814.5371,1413.3516 L824.5371,1413.3516 L814.5371,1403.3516 " fill="#FF6B6B" style="stroke:#181818;stroke-width:0.5;"/><text fill="#000000" font-family="sans-serif" font-size="13" lengthAdjust="spacing" textLength="24.5591" x="618.5371" y="1421.8467">&#240;&#376;&#8221;&#180;</text><text fill="#000000" font-family="sans-serif" font-size="13" font-weight="bold" lengthAdjust="spacing" textLength="149.7539" x="646.708" y="1421.8467">NOMENCLATURES &#226;&#8240;&#160;</text><text fill="#000000" font-family="sans-serif" font-size="13" lengthAdjust="spacing" textLength="133.5103" x="618.5371" y="1438.1982">Bon: "CBL-3x2.5-R-50"</text><text fill="#000000" font-family="sans-serif" font-size="13" lengthAdjust="spacing" textLength="191.3057" x="618.5371" y="1454.5498">Cmd: "CABLE_3G_2.5_ROUGE"</text><text fill="#000000" font-family="sans-serif" font-size="13" lengthAdjust="spacing" textLength="114.2261" x="618.5371" y="1470.9014">C'est le m&#195;&#170;me ???</text><polygon fill="#181818" points="285.0664,1513.2852,275.0664,1517.2852,285.0664,1521.2852,281.0664,1517.2852" style="stroke:#181818;stroke-width:1;"/><line style="stroke:#181818;stroke-width:1;" x1="279.0664" x2="452.5688" y1="1517.2852" y2="1517.2852"/><text fill="#000000" font-family="sans-serif" font-size="13" lengthAdjust="spacing" textLength="110.0176" x="291.0664" y="1512.4287">Appel v&#195;&#169;rification</text><path d="M458,1488.7578 L458,1530.7578 L627,1530.7578 L627,1498.7578 L617,1488.7578 L458,1488.7578 " fill="#FF6B6B" style="stroke:#181818;stroke-width:0.5;"/><path d="M617,1488.7578 L617,1498.7578 L627,1498.7578 L617,1488.7578 " fill="#FF6B6B" style="stroke:#181818;stroke-width:0.5;"/><text fill="#000000" font-family="sans-serif" font-size="13" lengthAdjust="spacing" textLength="148.313" x="464" y="1507.2529">&#240;&#376;&#8221;&#180; Pas de tra&#195;&#167;abilit&#195;&#169;</text><text fill="#000000" font-family="sans-serif" font-size="13" lengthAdjust="spacing" textLength="64.8096" x="464" y="1523.6045">&#226;&#65533;&#176; 10 min</text><line style="stroke:#181818;stroke-width:1;" x1="453.5688" x2="495.5688" y1="1563.4883" y2="1563.4883"/><line style="stroke:#181818;stroke-width:1;" x1="495.5688" x2="495.5688" y1="1563.4883" y2="1576.4883"/><line style="stroke:#181818;stroke-width:1;" x1="454.5688" x2="495.5688" y1="1576.4883" y2="1576.4883"/><polygon fill="#181818" points="464.5688,1572.4883,454.5688,1576.4883,464.5688,1580.4883,460.5688,1576.4883" style="stroke:#181818;stroke-width:1;"/><text fill="#000000" font-family="sans-serif" font-size="13" lengthAdjust="spacing" textLength="130.7871" x="460.5688" y="1558.6318">Compte manuellement</text><path d="M602.7871,1541.4609 L602.7871,1583.4609 L722.7871,1583.4609 L722.7871,1551.4609 L712.7871,1541.4609 L602.7871,1541.4609 " fill="#FF6B6B" style="stroke:#181818;stroke-width:0.5;"/><path d="M712.7871,1541.4609 L712.7871,1551.4609 L722.7871,1551.4609 L712.7871,1541.4609 " fill="#FF6B6B" style="stroke:#181818;stroke-width:0.5;"/><text fill="#000000" font-family="sans-serif" font-size="13" lengthAdjust="spacing" textLength="99.7153" x="608.7871" y="1559.9561">&#240;&#376;&#8221;&#180; Pas de scan</text><text fill="#000000" font-family="sans-serif" font-size="13" lengthAdjust="spacing" textLength="64.8096" x="608.7871" y="1576.3076">&#226;&#65533;&#176; 10 min</text><polygon fill="#181818" points="615.9995,1626.8672,625.9995,1630.8672,615.9995,1634.8672,619.9995,1630.8672" style="stroke:#181818;stroke-width:1;"/><line style="stroke:#181818;stroke-width:1;" x1="453.5688" x2="621.9995" y1="1630.8672" y2="1630.8672"/><text fill="#000000" font-family="sans-serif" font-size="13" lengthAdjust="spacing" textLength="99.8994" x="460.5688" y="1626.0107">Saisit r&#195;&#169;ception</text><path d="M632,1594.1641 L632,1653.1641 L764,1653.1641 L764,1604.1641 L754,1594.1641 L632,1594.1641 " fill="#FF6B6B" style="stroke:#181818;stroke-width:0.5;"/><path d="M754,1594.1641 L754,1604.1641 L764,1604.1641 L754,1594.1641 " fill="#FF6B6B" style="stroke:#181818;stroke-width:0.5;"/><text fill="#000000" font-family="sans-serif" font-size="13" lengthAdjust="spacing" textLength="24.5591" x="638" y="1612.6592">&#240;&#376;&#8221;&#180;</text><text fill="#000000" font-family="sans-serif" font-size="13" font-weight="bold" lengthAdjust="spacing" textLength="83.0845" x="666.1709" y="1612.6592">RE-SAISIE #7</text><text fill="#000000" font-family="sans-serif" font-size="13" lengthAdjust="spacing" textLength="109.8335" x="638" y="1629.0107">Interface complexe</text><text fill="#000000" font-family="sans-serif" font-size="13" lengthAdjust="spacing" textLength="64.8096" x="638" y="1645.3623">&#226;&#65533;&#176; 20 min</text><polygon fill="#181818" points="113.8516,1676.5703,103.8516,1680.5703,113.8516,1684.5703,109.8516,1680.5703" style="stroke:#181818;stroke-width:1;"/><line style="stroke:#181818;stroke-width:1;" x1="107.8516" x2="452.5688" y1="1680.5703" y2="1680.5703"/><text fill="#000000" font-family="sans-serif" font-size="13" lengthAdjust="spacing" textLength="101.1753" x="119.8516" y="1675.7139">"Mat&#195;&#169;riel dispo"</text><rect fill="#EEEEEE" height="3" style="stroke:#EEEEEE;stroke-width:1;" width="1061.7607" x="0" y="1709.7461"/><line style="stroke:#000000;stroke-width:1;" x1="0" x2="1061.7607" y1="1709.7461" y2="1709.7461"/><line style="stroke:#000000;stroke-width:1;" x1="0" x2="1061.7607" y1="1712.7461" y2="1712.7461"/><rect fill="#EEEEEE" height="24.3516" style="stroke:#000000;stroke-width:2;" width="112.9854" x="474.3877" y="1698.5703"/><text fill="#000000" font-family="sans-serif" font-size="13" font-weight="bold" lengthAdjust="spacing" textLength="95.3735" x="480.3877" y="1716.0654">JOUR 3 - 16h00</text><line style="stroke:#181818;stroke-width:1;" x1="102.8516" x2="144.8516" y1="1755.2734" y2="1755.2734"/><line style="stroke:#181818;stroke-width:1;" x1="144.8516" x2="144.8516" y1="1755.2734" y2="1768.2734"/><line style="stroke:#181818;stroke-width:1;" x1="103.8516" x2="144.8516" y1="1768.2734" y2="1768.2734"/><polygon fill="#181818" points="113.8516,1764.2734,103.8516,1768.2734,113.8516,1772.2734,109.8516,1768.2734" style="stroke:#181818;stroke-width:1;"/><text fill="#000000" font-family="sans-serif" font-size="13" lengthAdjust="spacing" textLength="144.1616" x="109.8516" y="1750.417">R&#195;&#169;cup&#195;&#168;re au d&#195;&#169;p&#195;&#180;t</text><line style="stroke:#181818;stroke-width:1;" x1="102.8516" x2="144.8516" y1="1798.625" y2="1798.625"/><line style="stroke:#181818;stroke-width:1;" x1="144.8516" x2="144.8516" y1="1798.625" y2="1811.625"/><line style="stroke:#181818;stroke-width:1;" x1="103.8516" x2="144.8516" y1="1811.625" y2="1811.625"/><polygon fill="#181818" points="113.8516,1807.625,103.8516,1811.625,113.8516,1815.625,109.8516,1811.625" style="stroke:#181818;stroke-width:1;"/><text fill="#000000" font-family="sans-serif" font-size="13" lengthAdjust="spacing" textLength="141.0957" x="109.8516" y="1793.7686">D&#195;&#169;ballage sur chantier</text><path d="M5,1824.625 L5,1915.625 L201,1915.625 L201,1834.625 L191,1824.625 L5,1824.625 " fill="#FF0000" style="stroke:#181818;stroke-width:0.5;"/><path d="M191,1824.625 L191,1834.625 L201,1834.625 L191,1824.625 " fill="#FF0000" style="stroke:#181818;stroke-width:0.5;"/><text fill="#000000" font-family="sans-serif" font-size="13" lengthAdjust="spacing" textLength="29.98" x="11" y="1843.1201">&#226;&#65533;&#338;</text><text fill="#000000" font-family="sans-serif" font-size="13" font-weight="bold" lengthAdjust="spacing" textLength="98.9473" x="44.5918" y="1843.1201">CATASTROPHE</text><text fill="#000000" font-family="sans-serif" font-size="13" lengthAdjust="spacing" textLength="175.1445" x="11" y="1859.4717">C'EST LE MAUVAIS C&#195;&#8218;BLE !</text><text fill="#000000" font-family="sans-serif" font-size="13" lengthAdjust="spacing" textLength="3.6118" x="11" y="1875.8232">&#160;</text><text fill="#000000" font-family="sans-serif" font-size="13" lengthAdjust="spacing" textLength="130.9775" x="11" y="1892.1748">&#240;&#376;&#8221;&#180; Chantier bloqu&#195;&#169;</text><text fill="#000000" font-family="sans-serif" font-size="13" lengthAdjust="spacing" textLength="168.3398" x="11" y="1908.5264">&#240;&#376;&#732;&#173; Il faut tout recommencer</text><polygon fill="#181818" points="262.0664,1939.7344,272.0664,1943.7344,262.0664,1947.7344,266.0664,1943.7344" style="stroke:#181818;stroke-width:1;"/><line style="stroke:#181818;stroke-width:1;" x1="102.8516" x2="268.0664" y1="1943.7344" y2="1943.7344"/><text fill="#000000" font-family="sans-serif" font-size="13" lengthAdjust="spacing" textLength="110.2144" x="109.8516" y="1938.8779">Appel furieux &#240;&#376;&#164;&#172;</text><path d="M65,1956.7344 L65,1998.7344 L311,1998.7344 L311,1966.7344 L301,1956.7344 L65,1956.7344 " fill="#FF0000" style="stroke:#181818;stroke-width:0.5;"/><path d="M301,1956.7344 L301,1966.7344 L311,1966.7344 L301,1956.7344 " fill="#FF0000" style="stroke:#181818;stroke-width:0.5;"/><text fill="#000000" font-family="sans-serif" font-size="13" lengthAdjust="spacing" textLength="24.5591" x="90.3997" y="1975.2295">&#240;&#376;&#732;&#173;</text><text fill="#000000" font-family="sans-serif" font-size="13" font-weight="bold" lengthAdjust="spacing" textLength="158.1582" x="118.5706" y="1975.2295">IL FAUT RECOMMENCER</text><text fill="#000000" font-family="sans-serif" font-size="13" lengthAdjust="spacing" textLength="169.7935" x="90.3997" y="1991.5811">Tout le processus &#195;&#160; refaire...</text><rect fill="#EEEEEE" height="3" style="stroke:#EEEEEE;stroke-width:1;" width="1061.7607" x="0" y="2025.6133"/><line style="stroke:#000000;stroke-width:1;" x1="0" x2="1061.7607" y1="2025.6133" y2="2025.6133"/><line style="stroke:#000000;stroke-width:1;" x1="0" x2="1061.7607" y1="2028.6133" y2="2028.6133"/><rect fill="#EEEEEE" height="24.3516" style="stroke:#000000;stroke-width:2;" width="57.3291" x="502.2158" y="2014.4375"/><text fill="#000000" font-family="sans-serif" font-size="13" font-weight="bold" lengthAdjust="spacing" textLength="39.7173" x="508.2158" y="2031.9326">BILAN</text><path d="M57,2053.7891 L57,2177.7891 L884,2177.7891 L884,2063.7891 L874,2053.7891 L57,2053.7891 " fill="#FFCCCC" style="stroke:#181818;stroke-width:0.5;"/><path d="M874,2053.7891 L874,2063.7891 L884,2063.7891 L874,2053.7891 " fill="#FFCCCC" style="stroke:#181818;stroke-width:0.5;"/><text fill="#000000" font-family="sans-serif" font-size="13" font-weight="bold" lengthAdjust="spacing" textLength="179.3784" x="376.3137" y="2072.2842">M&#195;&#8240;TRIQUES PROCESSUS</text><text fill="#000000" font-family="sans-serif" font-size="13" lengthAdjust="spacing" textLength="111.2427" x="376.3137" y="2088.6357">&#226;&#65533;&#176; Dur&#195;&#169;e totale:</text><text fill="#000000" font-family="sans-serif" font-size="13" font-weight="bold" lengthAdjust="spacing" textLength="50.2163" x="491.1682" y="2088.6357">~3 jours</text><text fill="#000000" font-family="sans-serif" font-size="13" lengthAdjust="spacing" textLength="132.228" x="376.3137" y="2104.9873">&#240;&#376;&#8220;&#382; Nombreux appels</text><text fill="#000000" font-family="sans-serif" font-size="13" lengthAdjust="spacing" textLength="156.3428" x="376.3137" y="2121.3389">&#226;&#8482;&#187;&#239;&#184;&#65533; Multiples re-saisies</text><text fill="#000000" font-family="sans-serif" font-size="13" lengthAdjust="spacing" textLength="104.3936" x="376.3137" y="2137.6904">&#226;&#65533;&#338; Taux erreur:</text><text fill="#000000" font-family="sans-serif" font-size="13" font-weight="bold" lengthAdjust="spacing" textLength="62.5625" x="484.3191" y="2137.6904">&#195;&#8240;lev&#195;&#169;</text><text fill="#000000" font-family="sans-serif" font-size="13" lengthAdjust="spacing" textLength="121.7417" x="376.3137" y="2154.042">&#240;&#376;&#732;&#173; Stress &#195;&#169;lev&#195;&#169;</text><text fill="#000000" font-family="sans-serif" font-size="13" lengthAdjust="spacing" textLength="145.4185" x="376.3137" y="2170.3936">&#226;&#65533;&#184;&#239;&#184;&#65533; Chantier bloqu&#195;&#169;</text><!--SRC=[fLVDRjj64BxpAQRq8OaG6R8TEOu1Dw0eAb6W7qUKUYfWhCXLj0N_iYG5zr84I9-Wno85NAD0Vz2YEUGGe6WBoF2fR-4Nw2jqTfUKg1zRDkg38NA7ExFVVFFDRC8IZy8n3nqQnsaCPkZx970fj4boyNRwCsVKWp9SlBrwyxvlzC4m-mEh1VVDvqRNVg1fn4b23dgRSEVpuBuvfYCmnoH86EKFT20nY1NOQZHg- -PERcr_wKqOHNl36PCaLeRg9MmPzVg1jP-RIiUSYSth8fu8_tr8r1SMleUj9mUDsfC3BI8yOGwBq3Sw8A_m17LBRImUC8BzsdvjqSmwTQYdjXA_X57zSQMoPEGJbXc9NukBZJ3b0OjZcd9f8fyrxUW8NdG7FTX1w5ffu39uCgvKuEX8qu8meH1EA9yXO-2V1b0grMWSiW2OIn6_4HF7BPLmnSHVvqDCqzwptUqgRbcj-1eDN11xQPhSf_oftEyGqQVS6LCOXW549C8yA9USlHedCnW0BjvVVhnwyztq0zXf58KyoQmX3TZhbFeOWx0w__VlFwVleGe-HXPHxgRNUkvHF_9O8ZrZn6VW4K34Wat-U-AW8qas6ZWKc1znyUImcAAXxYmSNuUO136umYB1VCGhyPncL3e48uemgvB7dYJFE9I7snJHCMOIIq164OM13CCAr3F24mRNOq24IuzkRs_37en25b_ZAyDrLmAR9ZHMuD9upTQBnr5Hn363-pkLyQFgWoLAFSpiXHTHF5XY0HO0BW-99_1ySOym62gkuIbpU35alU0yAqVX7kj7PDV9cBMS44qMMBaGwCwkYZ9ElGJh6pxP13Xotx0jg7Sx7HcpPOCK64d_VBSvHJ0xR9G_8dPe567X0ORKldXxUTQs8EAXcxBa49VAO1grbbMMqPPxtS4pgrojjDLAhNM2xwidlPDgHRvHLkeBQJlV0IrFSF5a_XenMmzP1eGvHWPWIQH1ngOHw2I5COa9T_KbLAJq26fSVZyzk_Xz-X4f0Wt21D8YYOv8AR8Ni4OmUOceBworWAuDGIhQN0v6Sw7Qb8mwxYbYHPXb0H0UCSzJRmhKFH3CNUjQYk3_hZudxqGq08-z2cZ1zuxI8uHoSViY53AA1LhgTHP78MA7VUxHmLXVW4je-s5MCHp1fU851X6C6FT98ef-8ubxLjascdRJWgr7ahfOD26AAifWa0fP4AggABaaUlBTorGqJdaY-NpCsQdyORWSkpEzeJfj8dcMOtQdKAiOwWqCohPsXUh6APkmEss-VytcIYxjjWrwYqqu-i2kuIDNENMPFk-WktXyjCKEkjey7ogcYI0Q3TESyUDZNZob4gf8fz-qUb1hTLyEP7PbOema4Sg1nCfyto2xkQOhZRaL14RgY9AV8793virIcc27Z9KGKA_WCJ_idZXiXi5yOiY8_AcSTmvX3fT3V45BJSv1i_NY050eexlql48pTZWgc0nujVnaay-w0YySPocUq4S9MTavtaoZJhTjTSoMqH_qi25Sd6FofcSoVRKGzKL7yIxldKfHHq7NnQJak-BzYbZBjNiqJaIBy366NtmAJvy-NHFqOhETg1bun9nRIK06Oi89VlSZAUP-XbrbIJTNqKeM1UEMJcE71BVnio0OQj2YqPtrxR7CGnDhY8-88saMUVIqo9BTwo9GjQyNRnYkK6PziH9szlCAM9gnPCofk0dyXBp29k3ERmRBnlBIW8EF9sQK6ElNoMudwoRnIYNhm7Y0os-4V1Xzm-xtkiVFBJM9txFiFhGiQ1k3pn09CPfVlVaMwOOppW9O-IK8XbxuEiqvWCl_l9l-1aqFHYHD80dn7wUYHaLDy8t3toX5kD9JkTFqX-clsZN3N_4qkTDIgTc2XZ7eGyyoksrHMrPF7gilmX02Dxi6ojBcT4GOfuj33cQercmPdPlrs3Ib7fTARNLpx3LV3h26ZtjTqxBjWHhiSgBKKoM924T2F3nhgVJL7do1UyNAJgBwxl8lw8J-a8lpIqbMqyZLr-VJFtB5R-F4oP28gBAq70kEpsSMp6YVuBUKunPSU96nUNGoksdDiB8JqN7b_9EjhtQNDIcUmVGV]--></g></svg>