<svg xmlns="http://www.w3.org/2000/svg" xmlns:xlink="http://www.w3.org/1999/xlink" contentStyleType="text/css" height="3138px" preserveAspectRatio="none" style="width:952px;height:3138px;background:#FFFFFF;" version="1.1" viewBox="0 0 952 3138" width="952px" zoomAndPan="magnify"><title>State Diagram - Cycle de Vie d'une Commande</title><defs/><g><text fill="#000000" font-family="sans-serif" font-size="14" font-weight="bold" lengthAdjust="spacing" textLength="309.8594" x="314.1653" y="24.5332">State Diagram - Cycle de Vie d'une Commande</text><g id="BesoinIdentifie"><rect fill="#90EE90" height="50" rx="12.5" ry="12.5" style="stroke:#181818;stroke-width:0.5;" width="127.5977" x="579" y="142.6094"/><line style="stroke:#181818;stroke-width:0.5;" x1="579" x2="706.5977" y1="170.2188" y2="170.2188"/><text fill="#000000" font-family="sans-serif" font-size="14" lengthAdjust="spacing" textLength="107.5977" x="589" y="162.1426">Besoin Identifi&#195;&#169;</text></g><g id="TentativeContact"><rect fill="#FFD700" height="50" rx="12.5" ry="12.5" style="stroke:#181818;stroke-width:0.5;" width="149.1855" x="388.5" y="270.6094"/><line style="stroke:#181818;stroke-width:0.5;" x1="388.5" x2="537.6855" y1="298.2188" y2="298.2188"/><text fill="#000000" font-family="sans-serif" font-size="14" lengthAdjust="spacing" textLength="129.1855" x="398.5" y="290.1426">Tentative de Contact</text></g><g id="EnAttente"><rect fill="#FF6B6B" height="50" rx="12.5" ry="12.5" style="stroke:#181818;stroke-width:0.5;" width="85.3789" x="468.5" y="398.6094"/><line style="stroke:#181818;stroke-width:0.5;" x1="468.5" x2="553.8789" y1="426.2188" y2="426.2188"/><text fill="#000000" font-family="sans-serif" font-size="14" lengthAdjust="spacing" textLength="65.3789" x="478.5" y="418.1426">En Attente</text></g><g id="RechercheProduit"><rect fill="#FFD700" height="50" rx="12.5" ry="12.5" style="stroke:#181818;stroke-width:0.5;" width="135.9512" x="297" y="398.6094"/><line style="stroke:#181818;stroke-width:0.5;" x1="297" x2="432.9512" y1="426.2188" y2="426.2188"/><text fill="#000000" font-family="sans-serif" font-size="14" lengthAdjust="spacing" textLength="115.9512" x="307" y="418.1426">Recherche Produit</text></g><g id="Confusion"><rect fill="#FF6B6B" height="50" rx="12.5" ry="12.5" style="stroke:#181818;stroke-width:0.5;" width="182.2578" x="274" y="572.1094"/><line style="stroke:#181818;stroke-width:0.5;" x1="274" x2="456.2578" y1="599.7188" y2="599.7188"/><text fill="#000000" font-family="sans-serif" font-size="14" lengthAdjust="spacing" textLength="162.2578" x="284" y="591.6426">Confusion R&#195;&#169;f&#195;&#169;rences</text></g><g id="ChoixReference"><rect fill="#FFD700" height="50" rx="12.5" ry="12.5" style="stroke:#181818;stroke-width:0.5;" width="148.0098" x="294" y="745.6094"/><line style="stroke:#181818;stroke-width:0.5;" x1="294" x2="442.0098" y1="773.2188" y2="773.2188"/><text fill="#000000" font-family="sans-serif" font-size="14" lengthAdjust="spacing" textLength="128.0098" x="304" y="765.1426">Choix R&#195;&#169;f&#195;&#169;rence</text></g><path d="M304.5,873.6094 L431.3672,873.6094 A12.5,12.5 0 0 1 443.8672,886.1094 L443.8672,901.2188 L292,901.2188 L292,886.1094 A12.5,12.5 0 0 1 304.5,873.6094 " fill="#FF6B6B" style="stroke:#FF6B6B;stroke-width:1;"/><rect fill="none" height="422.6094" rx="12.5" ry="12.5" style="stroke:#181818;stroke-width:0.5;" width="151.8672" x="292" y="873.6094"/><line style="stroke:#181818;stroke-width:0.5;" x1="292" x2="443.8672" y1="901.2188" y2="901.2188"/><text fill="#000000" font-family="sans-serif" font-size="14" lengthAdjust="spacing" textLength="104.2617" x="315.8027" y="893.1426">Saisies Multiples</text><ellipse cx="350.5" cy="922.2188" fill="#222222" rx="10" ry="10" style="stroke:#222222;stroke-width:1;"/><g id="Saisies.SaisieEmail"><rect fill="#F1F1F1" height="50" rx="12.5" ry="12.5" style="stroke:#181818;stroke-width:0.5;" width="93.1377" x="304" y="969.2188"/><line style="stroke:#181818;stroke-width:0.5;" x1="304" x2="397.1377" y1="996.8281" y2="996.8281"/><text fill="#000000" font-family="sans-serif" font-size="14" lengthAdjust="spacing" textLength="73.1377" x="314" y="988.752">SaisieEmail</text></g><g id="Saisies.SaisieSage"><rect fill="#F1F1F1" height="50" rx="12.5" ry="12.5" style="stroke:#181818;stroke-width:0.5;" width="90.8271" x="305" y="1073.2188"/><line style="stroke:#181818;stroke-width:0.5;" x1="305" x2="395.8271" y1="1100.8281" y2="1100.8281"/><text fill="#000000" font-family="sans-serif" font-size="14" lengthAdjust="spacing" textLength="70.8271" x="315" y="1092.752">SaisieSage</text></g><g id="Saisies.SaisieExcel"><rect fill="#F1F1F1" height="50" rx="12.5" ry="12.5" style="stroke:#181818;stroke-width:0.5;" width="92.3652" x="304.5" y="1177.2188"/><line style="stroke:#181818;stroke-width:0.5;" x1="304.5" x2="396.8652" y1="1204.8281" y2="1204.8281"/><text fill="#000000" font-family="sans-serif" font-size="14" lengthAdjust="spacing" textLength="72.3652" x="314.5" y="1196.752">SaisieExcel</text></g><ellipse cx="350.5" cy="1275.2188" fill="none" rx="11" ry="11" style="stroke:#222222;stroke-width:1;"/><ellipse cx="350.5" cy="1275.2188" fill="#222222" rx="6" ry="6" style="stroke:#222222;stroke-width:1;"/><!--link *start*Saisies to SaisieEmail--><g id="link_*start*Saisies_SaisieEmail"><path d="M350.5,932.3688 C350.5,941.6388 350.5,950.3588 350.5,962.9988 " fill="none" id="*start*Saisies-to-SaisieEmail" style="stroke:#181818;stroke-width:1;"/><polygon fill="#181818" points="350.5,968.9988,354.5,959.9988,350.5,963.9988,346.5,959.9988,350.5,968.9988" style="stroke:#181818;stroke-width:1;"/></g><!--link SaisieEmail to SaisieSage--><g id="link_SaisieEmail_SaisieSage"><path d="M350.5,1019.3888 C350.5,1035.5288 350.5,1050.6888 350.5,1066.8688 " fill="none" id="SaisieEmail-to-SaisieSage" style="stroke:#181818;stroke-width:1;"/><polygon fill="#181818" points="350.5,1072.8688,354.5,1063.8688,350.5,1067.8688,346.5,1063.8688,350.5,1072.8688" style="stroke:#181818;stroke-width:1;"/><text fill="#000000" font-family="sans-serif" font-size="13" lengthAdjust="spacing" textLength="82.3672" x="351.5" y="1051.7139">RE-SAISIE #5</text></g><!--link SaisieSage to SaisieExcel--><g id="link_SaisieSage_SaisieExcel"><path d="M350.5,1123.3888 C350.5,1139.5288 350.5,1154.6888 350.5,1170.8688 " fill="none" id="SaisieSage-to-SaisieExcel" style="stroke:#181818;stroke-width:1;"/><polygon fill="#181818" points="350.5,1176.8688,354.5,1167.8688,350.5,1171.8688,346.5,1167.8688,350.5,1176.8688" style="stroke:#181818;stroke-width:1;"/><text fill="#000000" font-family="sans-serif" font-size="13" lengthAdjust="spacing" textLength="82.3672" x="351.5" y="1155.7139">RE-SAISIE #6</text></g><!--link SaisieExcel to *end*Saisies--><g id="link_SaisieExcel_*end*Saisies"><path d="M350.5,1227.2588 C350.5,1239.8088 350.5,1248.4988 350.5,1258.0688 " fill="none" id="SaisieExcel-to-*end*Saisies" style="stroke:#181818;stroke-width:1;"/><polygon fill="#181818" points="350.5,1264.0688,354.5,1255.0688,350.5,1259.0688,346.5,1255.0688,350.5,1264.0688" style="stroke:#181818;stroke-width:1;"/></g><g id="EnCours"><rect fill="#FFFFAA" height="50" rx="12.5" ry="12.5" style="stroke:#181818;stroke-width:0.5;" width="78.3584" x="329" y="1379.1094"/><line style="stroke:#181818;stroke-width:0.5;" x1="329" x2="407.3584" y1="1406.7188" y2="1406.7188"/><text fill="#000000" font-family="sans-serif" font-size="14" lengthAdjust="spacing" textLength="58.3584" x="339" y="1398.6426">En Cours</text></g><g id="Livraison"><rect fill="#98FB98" height="50" rx="12.5" ry="12.5" style="stroke:#181818;stroke-width:0.5;" width="154.8184" x="290.5" y="1511.6094"/><line style="stroke:#181818;stroke-width:0.5;" x1="290.5" x2="445.3184" y1="1539.2188" y2="1539.2188"/><text fill="#000000" font-family="sans-serif" font-size="14" lengthAdjust="spacing" textLength="134.8184" x="300.5" y="1531.1426">Livraison au D&#195;&#169;p&#195;&#180;t</text></g><path d="M273.5,1639.6094 L474.7871,1639.6094 A12.5,12.5 0 0 1 487.2871,1652.1094 L487.2871,1667.2188 L261,1667.2188 L261,1652.1094 A12.5,12.5 0 0 1 273.5,1639.6094 " fill="#FFD700" style="stroke:#FFD700;stroke-width:1;"/><rect fill="none" height="751.6094" rx="12.5" ry="12.5" style="stroke:#181818;stroke-width:0.5;" width="226.2871" x="261" y="1639.6094"/><line style="stroke:#181818;stroke-width:0.5;" x1="261" x2="487.2871" y1="1667.2188" y2="1667.2188"/><text fill="#000000" font-family="sans-serif" font-size="14" lengthAdjust="spacing" textLength="74.9082" x="336.6895" y="1659.1426">R&#195;&#169;ception</text><ellipse cx="345.5" cy="1688.2188" fill="#222222" rx="10" ry="10" style="stroke:#222222;stroke-width:1;"/><g id="ReceptionEric.ChercheCommande"><rect fill="#F1F1F1" height="50" rx="12.5" ry="12.5" style="stroke:#181818;stroke-width:0.5;" width="145.2822" x="273" y="1735.2188"/><line style="stroke:#181818;stroke-width:0.5;" x1="273" x2="418.2822" y1="1762.8281" y2="1762.8281"/><text fill="#000000" font-family="sans-serif" font-size="14" lengthAdjust="spacing" textLength="125.2822" x="283" y="1754.752">ChercheCommande</text></g><g id="ReceptionEric.CompareRef"><rect fill="#F1F1F1" height="50" rx="12.5" ry="12.5" style="stroke:#181818;stroke-width:0.5;" width="99.3652" x="296" y="1839.2188"/><line style="stroke:#181818;stroke-width:0.5;" x1="296" x2="395.3652" y1="1866.8281" y2="1866.8281"/><text fill="#000000" font-family="sans-serif" font-size="14" lengthAdjust="spacing" textLength="79.3652" x="306" y="1858.752">CompareRef</text></g><g id="ReceptionEric.DoubteRef"><rect fill="#F1F1F1" height="50" rx="12.5" ry="12.5" style="stroke:#181818;stroke-width:0.5;" width="86.9307" x="302" y="1943.2188"/><line style="stroke:#181818;stroke-width:0.5;" x1="302" x2="388.9307" y1="1970.8281" y2="1970.8281"/><text fill="#000000" font-family="sans-serif" font-size="14" lengthAdjust="spacing" textLength="66.9307" x="312" y="1962.752">DoubteRef</text></g><g id="ReceptionEric.AppelSylvie"><rect fill="#F1F1F1" height="50" rx="12.5" ry="12.5" style="stroke:#181818;stroke-width:0.5;" width="93.1514" x="299" y="2047.2188"/><line style="stroke:#181818;stroke-width:0.5;" x1="299" x2="392.1514" y1="2074.8281" y2="2074.8281"/><text fill="#000000" font-family="sans-serif" font-size="14" lengthAdjust="spacing" textLength="73.1514" x="309" y="2066.752">AppelSylvie</text></g><g id="ReceptionEric.Comptage"><rect fill="#F1F1F1" height="50" rx="12.5" ry="12.5" style="stroke:#181818;stroke-width:0.5;" width="84.5928" x="303" y="2151.2188"/><line style="stroke:#181818;stroke-width:0.5;" x1="303" x2="387.5928" y1="2178.8281" y2="2178.8281"/><text fill="#000000" font-family="sans-serif" font-size="14" lengthAdjust="spacing" textLength="64.5928" x="313" y="2170.752">Comptage</text></g><g id="ReceptionEric.SaisieReception"><rect fill="#F1F1F1" height="50" rx="12.5" ry="12.5" style="stroke:#181818;stroke-width:0.5;" width="121.1719" x="285" y="2255.2188"/><line style="stroke:#181818;stroke-width:0.5;" x1="285" x2="406.1719" y1="2282.8281" y2="2282.8281"/><text fill="#000000" font-family="sans-serif" font-size="14" lengthAdjust="spacing" textLength="101.1719" x="295" y="2274.752">SaisieReception</text></g><ellipse cx="345.5" cy="2370.2188" fill="none" rx="11" ry="11" style="stroke:#222222;stroke-width:1;"/><ellipse cx="345.5" cy="2370.2188" fill="#222222" rx="6" ry="6" style="stroke:#222222;stroke-width:1;"/><!--link *start*ReceptionEric to ChercheCommande--><g id="link_*start*ReceptionEric_ChercheCommande"><path d="M345.5,1698.3688 C345.5,1707.6388 345.5,1716.3587 345.5,1728.9988 " fill="none" id="*start*ReceptionEric-to-ChercheCommande" style="stroke:#181818;stroke-width:1;"/><polygon fill="#181818" points="345.5,1734.9988,349.5,1725.9988,345.5,1729.9988,341.5,1725.9988,345.5,1734.9988" style="stroke:#181818;stroke-width:1;"/></g><!--link ChercheCommande to CompareRef--><g id="link_ChercheCommande_CompareRef"><path d="M345.5,1785.3888 C345.5,1801.5288 345.5,1816.6888 345.5,1832.8688 " fill="none" id="ChercheCommande-to-CompareRef" style="stroke:#181818;stroke-width:1;"/><polygon fill="#181818" points="345.5,1838.8688,349.5,1829.8688,345.5,1833.8688,341.5,1829.8688,345.5,1838.8688" style="stroke:#181818;stroke-width:1;"/><text fill="#000000" font-family="sans-serif" font-size="13" lengthAdjust="spacing" textLength="102.7686" x="346.5" y="1817.7139">Trouv&#195;&#169; (15 min)</text></g><!--link CompareRef to DoubteRef--><g id="link_CompareRef_DoubteRef"><path d="M345.5,1889.3888 C345.5,1905.5288 345.5,1920.6888 345.5,1936.8688 " fill="none" id="CompareRef-to-DoubteRef" style="stroke:#181818;stroke-width:1;"/><polygon fill="#181818" points="345.5,1942.8688,349.5,1933.8688,345.5,1937.8688,341.5,1933.8688,345.5,1942.8688" style="stroke:#181818;stroke-width:1;"/><text fill="#000000" font-family="sans-serif" font-size="13" lengthAdjust="spacing" textLength="117.6094" x="346.5" y="1921.7139">Nomenclatures &#226;&#8240;&#160;</text></g><!--link DoubteRef to AppelSylvie--><g id="link_DoubteRef_AppelSylvie"><path d="M345.5,1993.3888 C345.5,2009.5288 345.5,2024.6888 345.5,2040.8688 " fill="none" id="DoubteRef-to-AppelSylvie" style="stroke:#181818;stroke-width:1;"/><polygon fill="#181818" points="345.5,2046.8688,349.5,2037.8688,345.5,2041.8688,341.5,2037.8688,345.5,2046.8688" style="stroke:#181818;stroke-width:1;"/><text fill="#000000" font-family="sans-serif" font-size="13" lengthAdjust="spacing" textLength="81.6563" x="346.5" y="2025.7139">Appelle Sylvie</text></g><!--link AppelSylvie to Comptage--><g id="link_AppelSylvie_Comptage"><path d="M345.5,2097.3888 C345.5,2113.5288 345.5,2128.6888 345.5,2144.8688 " fill="none" id="AppelSylvie-to-Comptage" style="stroke:#181818;stroke-width:1;"/><polygon fill="#181818" points="345.5,2150.8688,349.5,2141.8688,345.5,2145.8688,341.5,2141.8688,345.5,2150.8688" style="stroke:#181818;stroke-width:1;"/><text fill="#000000" font-family="sans-serif" font-size="13" lengthAdjust="spacing" textLength="63.7559" x="346.5" y="2129.7139">Confirm&#195;&#169;</text></g><!--link Comptage to SaisieReception--><g id="link_Comptage_SaisieReception"><path d="M345.5,2201.3888 C345.5,2217.5288 345.5,2232.6888 345.5,2248.8688 " fill="none" id="Comptage-to-SaisieReception" style="stroke:#181818;stroke-width:1;"/><polygon fill="#181818" points="345.5,2254.8688,349.5,2245.8688,345.5,2249.8688,341.5,2245.8688,345.5,2254.8688" style="stroke:#181818;stroke-width:1;"/><text fill="#000000" font-family="sans-serif" font-size="13" lengthAdjust="spacing" textLength="130.7871" x="346.5" y="2233.7139">Compte manuellement</text></g><!--link SaisieReception to *end*ReceptionEric--><g id="link_SaisieReception_*end*ReceptionEric"><path d="M345.5,2305.2688 C345.5,2322.9788 345.5,2340.1588 345.5,2353.1888 " fill="none" id="SaisieReception-to-*end*ReceptionEric" style="stroke:#181818;stroke-width:1;"/><polygon fill="#181818" points="345.5,2359.1888,349.5,2350.1888,345.5,2354.1888,341.5,2350.1888,345.5,2359.1888" style="stroke:#181818;stroke-width:1;"/><text fill="#000000" font-family="sans-serif" font-size="13" lengthAdjust="spacing" textLength="82.3672" x="346.5" y="2337.7139">RE-SAISIE #7</text></g><g id="Stocke"><rect fill="#FFD700" height="50" rx="12.5" ry="12.5" style="stroke:#181818;stroke-width:0.5;" width="153.458" x="301.5" y="2469.6094"/><line style="stroke:#181818;stroke-width:0.5;" x1="301.5" x2="454.958" y1="2497.2188" y2="2497.2188"/><text fill="#000000" font-family="sans-serif" font-size="14" lengthAdjust="spacing" textLength="133.458" x="311.5" y="2489.1426">Stock&#195;&#169; au D&#195;&#169;p&#195;&#180;t</text></g><g id="Recupere"><rect fill="#90EE90" height="50" rx="12.5" ry="12.5" style="stroke:#181818;stroke-width:0.5;" width="116.3047" x="335" y="2597.6094"/><line style="stroke:#181818;stroke-width:0.5;" x1="335" x2="451.3047" y1="2625.2188" y2="2625.2188"/><text fill="#000000" font-family="sans-serif" font-size="14" lengthAdjust="spacing" textLength="96.3047" x="345" y="2617.1426">R&#195;&#169;cup&#195;&#169;r&#195;&#169;</text></g><g id="Verification"><rect fill="#FFD700" height="50" rx="12.5" ry="12.5" style="stroke:#181818;stroke-width:0.5;" width="157.9287" x="337" y="2725.6094"/><line style="stroke:#181818;stroke-width:0.5;" x1="337" x2="494.9287" y1="2753.2188" y2="2753.2188"/><text fill="#000000" font-family="sans-serif" font-size="14" lengthAdjust="spacing" textLength="137.9287" x="347" y="2745.1426">V&#195;&#169;rification Chantier</text></g><g id="Erreur"><rect fill="#FF0000" height="50" rx="12.5" ry="12.5" style="stroke:#181818;stroke-width:0.5;" width="115.293" x="735.5" y="2874.6094"/><line style="stroke:#181818;stroke-width:0.5;" x1="735.5" x2="850.793" y1="2902.2188" y2="2902.2188"/><text fill="#000000" font-family="sans-serif" font-size="14" lengthAdjust="spacing" textLength="95.293" x="745.5" y="2894.1426">&#226;&#65533;&#338; ERREUR</text></g><g id="Utilise"><rect fill="#90EE90" height="50" rx="12.5" ry="12.5" style="stroke:#181818;stroke-width:0.5;" width="105.1348" x="363.5" y="2874.6094"/><line style="stroke:#181818;stroke-width:0.5;" x1="363.5" x2="468.6348" y1="2902.2188" y2="2902.2188"/><text fill="#000000" font-family="sans-serif" font-size="14" lengthAdjust="spacing" textLength="85.1348" x="373.5" y="2894.1426">&#226;&#339;&#8230; Utilis&#195;&#169;</text></g><ellipse cx="643" cy="54.6094" fill="#222222" rx="10" ry="10" style="stroke:#222222;stroke-width:1;"/><ellipse cx="324" cy="3068.6094" fill="none" rx="11" ry="11" style="stroke:#222222;stroke-width:1;"/><ellipse cx="324" cy="3068.6094" fill="#222222" rx="6" ry="6" style="stroke:#222222;stroke-width:1;"/><g id="elem_GMN2"><path d="M742,146.1094 L742,163.6094 L707.2,167.6094 L742,171.6094 L742,188.8125 A0,0 0 0 0 742,188.8125 L923.5894,188.8125 A0,0 0 0 0 923.5894,188.8125 L923.5894,156.1094 L913.5894,146.1094 L742,146.1094 A0,0 0 0 0 742,146.1094 " fill="#FEFFDD" style="stroke:#181818;stroke-width:0.5;"/><path d="M913.5894,146.1094 L913.5894,156.1094 L923.5894,156.1094 L913.5894,146.1094 " fill="#FEFFDD" style="stroke:#181818;stroke-width:0.5;"/><text fill="#000000" font-family="sans-serif" font-size="13" lengthAdjust="spacing" textLength="160.5894" x="748" y="164.6045">Marc a besoin de mat&#195;&#169;riel</text><text fill="#000000" font-family="sans-serif" font-size="13" lengthAdjust="spacing" textLength="100.4517" x="748" y="180.9561">pour son chantier</text></g><g id="elem_GMN5"><path d="M573,274.1094 L573,291.6094 L537.7,295.6094 L573,299.6094 L573,316.8125 A0,0 0 0 0 573,316.8125 L771.4106,316.8125 A0,0 0 0 0 771.4106,316.8125 L771.4106,284.1094 L761.4106,274.1094 L573,274.1094 A0,0 0 0 0 573,274.1094 " fill="#FEFFDD" style="stroke:#181818;stroke-width:0.5;"/><path d="M761.4106,274.1094 L761.4106,284.1094 L771.4106,284.1094 L761.4106,274.1094 " fill="#FEFFDD" style="stroke:#181818;stroke-width:0.5;"/><text fill="#000000" font-family="sans-serif" font-size="13" lengthAdjust="spacing" textLength="174.1543" x="579" y="292.6045">&#240;&#376;&#8221;&#180; Pas de canal asynchrone</text><text fill="#000000" font-family="sans-serif" font-size="13" lengthAdjust="spacing" textLength="177.4106" x="579" y="308.9561">D&#195;&#169;pend disponibilit&#195;&#169; Sylvie</text></g><g id="elem_GMN8"><path d="M64,402.1094 L64,444.8125 L261.833,444.8125 L261.833,412.1094 L251.833,402.1094 L64,402.1094 " fill="#FEFFDD" style="stroke:#181818;stroke-width:0.5;"/><path d="M251.833,402.1094 L251.833,412.1094 L261.833,412.1094 L251.833,402.1094 " fill="#FEFFDD" style="stroke:#181818;stroke-width:1;"/><text fill="#000000" font-family="sans-serif" font-size="13" lengthAdjust="spacing" textLength="176.833" x="70" y="420.6045">&#226;&#65533;&#176; 25 min perdu en moyenne</text><text fill="#000000" font-family="sans-serif" font-size="13" lengthAdjust="spacing" textLength="124.998" x="70" y="436.9561">Marc rappelle 3-4 fois</text></g><g id="elem_GMN11"><path d="M588.5,410.6094 L588.5,436.9609 L759.8125,436.9609 L759.8125,420.6094 L749.8125,410.6094 L588.5,410.6094 " fill="#FEFFDD" style="stroke:#181818;stroke-width:0.5;"/><path d="M749.8125,410.6094 L749.8125,420.6094 L759.8125,420.6094 L749.8125,410.6094 " fill="#FEFFDD" style="stroke:#181818;stroke-width:1;"/><text fill="#000000" font-family="sans-serif" font-size="13" lengthAdjust="spacing" textLength="150.3125" x="594.5" y="429.1045">Sylvie cherche dans Sage</text></g><g id="elem_GMN14"><path d="M491.5,526.6094 L491.5,593.1094 L456.19,597.1094 L491.5,601.1094 L491.5,667.4219 A0,0 0 0 0 491.5,667.4219 L712.1021,667.4219 A0,0 0 0 0 712.1021,667.4219 L712.1021,536.6094 L702.1021,526.6094 L491.5,526.6094 A0,0 0 0 0 491.5,526.6094 " fill="#FEFFDD" style="stroke:#181818;stroke-width:0.5;"/><path d="M702.1021,526.6094 L702.1021,536.6094 L712.1021,536.6094 L702.1021,526.6094 " fill="#FEFFDD" style="stroke:#181818;stroke-width:0.5;"/><text fill="#000000" font-family="sans-serif" font-size="13" lengthAdjust="spacing" textLength="24.5591" x="497.5" y="545.1045">&#240;&#376;&#8221;&#180;</text><text fill="#000000" font-family="sans-serif" font-size="13" font-weight="bold" lengthAdjust="spacing" textLength="171.4312" x="525.6709" y="545.1045">CHAOS BASE DONN&#195;&#8240;ES</text><text fill="#000000" font-family="sans-serif" font-size="13" lengthAdjust="spacing" textLength="154.6543" x="497.5" y="561.4561">12 variantes pour 1 produit</text><text fill="#000000" font-family="sans-serif" font-size="13" lengthAdjust="spacing" textLength="163.9917" x="497.5" y="577.8076">CABLE-3G2.5-ROUGE-50M</text><text fill="#000000" font-family="sans-serif" font-size="13" lengthAdjust="spacing" textLength="102.6289" x="497.5" y="594.1592">CBL_3G25_R_50</text><text fill="#000000" font-family="sans-serif" font-size="13" lengthAdjust="spacing" textLength="134.3735" x="497.5" y="610.5107">3G2.5-CABLE-ROUGE</text><text fill="#000000" font-family="sans-serif" font-size="13" lengthAdjust="spacing" textLength="147.4053" x="497.5" y="626.8623">CABLE_3G_2.5_ROUGE</text><text fill="#000000" font-family="sans-serif" font-size="13" lengthAdjust="spacing" textLength="161.8398" x="497.5" y="643.2139">3G2,5 CABLE ROUGE 50M</text><text fill="#000000" font-family="sans-serif" font-size="13" lengthAdjust="spacing" textLength="10.8354" x="497.5" y="659.5654">...</text></g><g id="elem_GMN17"><path d="M17.5,757.6094 L17.5,783.9609 A0,0 0 0 0 17.5,783.9609 L258.1543,783.9609 A0,0 0 0 0 258.1543,783.9609 L258.1543,775.6094 L293.81,770.6094 L258.1543,767.6094 L258.1543,767.6094 L248.1543,757.6094 L17.5,757.6094 A0,0 0 0 0 17.5,757.6094 " fill="#FEFFDD" style="stroke:#181818;stroke-width:0.5;"/><path d="M248.1543,757.6094 L248.1543,767.6094 L258.1543,767.6094 L248.1543,757.6094 " fill="#FEFFDD" style="stroke:#181818;stroke-width:0.5;"/><text fill="#000000" font-family="sans-serif" font-size="13" lengthAdjust="spacing" textLength="219.6543" x="23.5" y="776.1045">&#226;&#353;&#160;&#239;&#184;&#65533; Risque &#195;&#169;lev&#195;&#169; de se tromper</text></g><g id="elem_GMN20"><path d="M479,1055.6094 L479,1081.1094 L444.16,1085.1094 L479,1089.1094 L479,1114.6641 A0,0 0 0 0 479,1114.6641 L645.1772,1114.6641 A0,0 0 0 0 645.1772,1114.6641 L645.1772,1065.6094 L635.1772,1055.6094 L479,1055.6094 A0,0 0 0 0 479,1055.6094 " fill="#FEFFDD" style="stroke:#181818;stroke-width:0.5;"/><path d="M635.1772,1055.6094 L635.1772,1065.6094 L645.1772,1065.6094 L635.1772,1055.6094 " fill="#FEFFDD" style="stroke:#181818;stroke-width:0.5;"/><text fill="#000000" font-family="sans-serif" font-size="13" lengthAdjust="spacing" textLength="24.5591" x="485" y="1074.1045">&#240;&#376;&#8221;&#180;</text><text fill="#000000" font-family="sans-serif" font-size="13" font-weight="bold" lengthAdjust="spacing" textLength="84.5254" x="513.1709" y="1074.1045">6 RE-SAISIES</text><text fill="#000000" font-family="sans-serif" font-size="13" lengthAdjust="spacing" textLength="145.1772" x="485" y="1090.4561">des m&#195;&#170;mes donn&#195;&#169;es !</text><text fill="#000000" font-family="sans-serif" font-size="13" lengthAdjust="spacing" textLength="101.6704" x="485" y="1106.8076">&#226;&#65533;&#176; 45 min perdu</text></g><g id="elem_GMN23"><path d="M442,1374.6094 L442,1400.1094 L407.25,1404.1094 L442,1408.1094 L442,1433.6641 A0,0 0 0 0 442,1433.6641 L608.4185,1433.6641 A0,0 0 0 0 608.4185,1433.6641 L608.4185,1384.6094 L598.4185,1374.6094 L442,1374.6094 A0,0 0 0 0 442,1374.6094 " fill="#FEFFDD" style="stroke:#181818;stroke-width:0.5;"/><path d="M598.4185,1374.6094 L598.4185,1384.6094 L608.4185,1384.6094 L598.4185,1374.6094 " fill="#FEFFDD" style="stroke:#181818;stroke-width:0.5;"/><text fill="#000000" font-family="sans-serif" font-size="13" lengthAdjust="spacing" textLength="95.3862" x="448" y="1393.1045">Attente 2-3 jours</text><text fill="#000000" font-family="sans-serif" font-size="13" lengthAdjust="spacing" textLength="145.4185" x="448" y="1409.4561">&#226;&#65533;&#184;&#239;&#184;&#65533; Chantier bloqu&#195;&#169;</text><text fill="#000000" font-family="sans-serif" font-size="13" lengthAdjust="spacing" textLength="139.6675" x="448" y="1425.8076">Chantier bloqu&#195;&#169; perdu</text></g><g id="elem_GMN26"><path d="M6,1978.1094 L6,2053.5156 A0,0 0 0 0 6,2053.5156 L225.6943,2053.5156 A0,0 0 0 0 225.6943,2053.5156 L225.6943,2019.6094 L260.77,2015.6094 L225.6943,2011.6094 L225.6943,1988.1094 L215.6943,1978.1094 L6,1978.1094 A0,0 0 0 0 6,1978.1094 " fill="#FEFFDD" style="stroke:#181818;stroke-width:0.5;"/><path d="M215.6943,1978.1094 L215.6943,1988.1094 L225.6943,1988.1094 L215.6943,1978.1094 " fill="#FEFFDD" style="stroke:#181818;stroke-width:0.5;"/><text fill="#000000" font-family="sans-serif" font-size="13" lengthAdjust="spacing" textLength="107.6689" x="12" y="1996.6045">&#240;&#376;&#8221;&#180; 100% manuel</text><text fill="#000000" font-family="sans-serif" font-size="13" lengthAdjust="spacing" textLength="99.7153" x="12" y="2012.9561">&#240;&#376;&#8221;&#180; Pas de scan</text><text fill="#000000" font-family="sans-serif" font-size="13" lengthAdjust="spacing" textLength="198.6943" x="12" y="2029.3076">&#240;&#376;&#8221;&#180; Nomenclatures incompatibles</text><text fill="#000000" font-family="sans-serif" font-size="13" lengthAdjust="spacing" textLength="54.7104" x="12" y="2045.6592">&#226;&#65533;&#176; 1h30</text></g><g id="elem_GMN29"><path d="M490,2473.1094 L490,2490.6094 L454.91,2494.6094 L490,2498.6094 L490,2515.8125 A0,0 0 0 0 490,2515.8125 L693.8569,2515.8125 A0,0 0 0 0 693.8569,2515.8125 L693.8569,2483.1094 L683.8569,2473.1094 L490,2473.1094 A0,0 0 0 0 490,2473.1094 " fill="#FEFFDD" style="stroke:#181818;stroke-width:0.5;"/><path d="M683.8569,2473.1094 L683.8569,2483.1094 L693.8569,2483.1094 L683.8569,2473.1094 " fill="#FEFFDD" style="stroke:#181818;stroke-width:0.5;"/><text fill="#000000" font-family="sans-serif" font-size="13" lengthAdjust="spacing" textLength="162.5952" x="496" y="2491.6045">&#240;&#376;&#8221;&#180; Pas de plan rangement</text><text fill="#000000" font-family="sans-serif" font-size="13" lengthAdjust="spacing" textLength="182.8569" x="496" y="2507.9561">"Quelque part" dans le d&#195;&#169;p&#195;&#180;t</text></g><g id="elem_GMN32"><path d="M534,2853.6094 L534,2945.3672 A0,0 0 0 0 534,2945.3672 L699.7075,2945.3672 A0,0 0 0 0 699.7075,2945.3672 L699.7075,2903.6094 L735.35,2899.6094 L699.7075,2895.6094 L699.7075,2863.6094 L689.7075,2853.6094 L534,2853.6094 A0,0 0 0 0 534,2853.6094 " fill="#FEFFDD" style="stroke:#181818;stroke-width:0.5;"/><path d="M689.7075,2853.6094 L689.7075,2863.6094 L699.7075,2863.6094 L689.7075,2853.6094 " fill="#FEFFDD" style="stroke:#181818;stroke-width:0.5;"/><text fill="#000000" font-family="sans-serif" font-size="13" font-weight="bold" lengthAdjust="spacing" textLength="98.9473" x="540" y="2872.1045">CATASTROPHE</text><text fill="#000000" font-family="sans-serif" font-size="13" lengthAdjust="spacing" textLength="143.4316" x="540" y="2888.4561">Mauvaise r&#195;&#169;f&#195;&#169;rence !</text><text fill="#000000" font-family="sans-serif" font-size="13" lengthAdjust="spacing" textLength="144.7075" x="540" y="2904.8076">&#240;&#376;&#8221;&#180; Chantier bloqu&#195;&#169; 3j</text><text fill="#000000" font-family="sans-serif" font-size="13" lengthAdjust="spacing" textLength="139.6675" x="540" y="2921.1592">Chantier bloqu&#195;&#169; perdu</text><text fill="#000000" font-family="sans-serif" font-size="13" lengthAdjust="spacing" textLength="99.6899" x="540" y="2937.5107">&#240;&#376;&#732;&#173; Marc furieux</text></g><g id="elem_GMN35"><path d="M370,3006.6094 L370,3131.0703 A0,0 0 0 0 370,3131.0703 L646.1885,3131.0703 A0,0 0 0 0 646.1885,3131.0703 L646.1885,3016.6094 L636.1885,3006.6094 L478.34,3006.6094 L429.38,2924.8894 L470.34,3006.6094 L370,3006.6094 A0,0 0 0 0 370,3006.6094 " fill="#FEFFDD" style="stroke:#181818;stroke-width:0.5;"/><path d="M636.1885,3006.6094 L636.1885,3016.6094 L646.1885,3016.6094 L636.1885,3006.6094 " fill="#FEFFDD" style="stroke:#181818;stroke-width:0.5;"/><text fill="#000000" font-family="sans-serif" font-size="13" font-weight="bold" lengthAdjust="spacing" textLength="169.9712" x="376" y="3025.1045">M&#195;&#8240;TRIQUES GLOBALES</text><text fill="#000000" font-family="sans-serif" font-size="13" lengthAdjust="spacing" textLength="168.3018" x="376" y="3041.4561">&#226;&#65533;&#176; Dur&#195;&#169;e succ&#195;&#168;s: 3 jours</text><text fill="#000000" font-family="sans-serif" font-size="13" lengthAdjust="spacing" textLength="255.1885" x="376" y="3057.8076">&#226;&#65533;&#176; Dur&#195;&#169;e &#195;&#169;chec: 6 jours (recommence)</text><text fill="#000000" font-family="sans-serif" font-size="13" lengthAdjust="spacing" textLength="167.2734" x="376" y="3074.1592">&#226;&#65533;&#338; Taux erreur: &#195;&#8240;lev&#195;&#169;</text><text fill="#000000" font-family="sans-serif" font-size="13" lengthAdjust="spacing" textLength="136.5444" x="376" y="3090.5107">Process tr&#195;&#168;s inefficace</text><text fill="#000000" font-family="sans-serif" font-size="13" lengthAdjust="spacing" textLength="134.3926" x="376" y="3106.8623">Temps perdu important</text><text fill="#000000" font-family="sans-serif" font-size="13" lengthAdjust="spacing" textLength="140.1816" x="376" y="3123.2139">&#240;&#376;&#8220;&#382; Nombre appels: 12</text></g><!--link *start* to BesoinIdentifie--><g id="link_*start*_BesoinIdentifie"><path d="M643,64.6894 C643,81.4694 643,111.8294 643,136.2594 " fill="none" id="*start*-to-BesoinIdentifie" style="stroke:#181818;stroke-width:1;"/><polygon fill="#181818" points="643,142.2594,647,133.2594,643,137.2594,639,133.2594,643,142.2594" style="stroke:#181818;stroke-width:1;"/><text fill="#000000" font-family="sans-serif" font-size="13" lengthAdjust="spacing" textLength="119.228" x="644" y="109.1045">Marc identifie besoin</text></g><!--link BesoinIdentifie to TentativeContact--><g id="link_BesoinIdentifie_TentativeContact"><path d="M608.29,192.8994 C576.32,215.2894 534.0558,244.8691 502.2058,267.1591 " fill="none" id="BesoinIdentifie-to-TentativeContact" style="stroke:#181818;stroke-width:1;"/><polygon fill="#181818" points="497.29,270.5994,506.9571,268.7162,501.3865,267.7325,502.3701,262.1618,497.29,270.5994" style="stroke:#181818;stroke-width:1;"/><text fill="#000000" font-family="sans-serif" font-size="13" lengthAdjust="spacing" textLength="112.7153" x="565" y="237.1045">Marc appelle Sylvie</text></g><!--link TentativeContact to EnAttente--><g id="link_TentativeContact_EnAttente"><path d="M511.38,320.6194 C522.44,328.5594 532.76,338.5294 539,350.6094 C546.94,365.9794 542.9824,379.0881 533.9224,393.3181 " fill="none" id="TentativeContact-to-EnAttente" style="stroke:#181818;stroke-width:1;"/><polygon fill="#181818" points="530.7,398.3794,538.9078,392.9358,533.3853,394.1617,532.1594,388.6393,530.7,398.3794" style="stroke:#181818;stroke-width:1;"/><text fill="#000000" font-family="sans-serif" font-size="13" lengthAdjust="spacing" textLength="93.939" x="544" y="365.1045">Sylvie pas dispo</text></g><!--link EnAttente to TentativeContact--><g id="link_EnAttente_TentativeContact"><path d="M493.85,398.5394 C488.08,389.5094 482.08,378.9294 478,368.6094 C471.94,353.2994 469.1117,341.0566 466.8717,326.8066 " fill="none" id="EnAttente-to-TentativeContact" style="stroke:#181818;stroke-width:1;"/><polygon fill="#181818" points="465.94,320.8794,463.3861,330.3913,466.7164,325.8187,471.2891,329.1491,465.94,320.8794" style="stroke:#181818;stroke-width:1;"/><text fill="#000000" font-family="sans-serif" font-size="13" lengthAdjust="spacing" textLength="51.3145" x="479" y="365.1045">Rappelle</text></g><!--link TentativeContact to RechercheProduit--><g id="link_TentativeContact_RechercheProduit"><path d="M405.79,320.8794 C393.5,328.6494 381.86,338.4794 374,350.6094 C364.89,364.6694 362.7757,377.5595 362.8857,392.4595 " fill="none" id="TentativeContact-to-RechercheProduit" style="stroke:#181818;stroke-width:1;"/><polygon fill="#181818" points="362.93,398.4594,366.8634,389.4301,362.8931,393.4595,358.8637,389.4891,362.93,398.4594" style="stroke:#181818;stroke-width:1;"/><text fill="#000000" font-family="sans-serif" font-size="13" lengthAdjust="spacing" textLength="89.7876" x="375" y="365.1045">Sylvie r&#195;&#169;pond</text></g><!--link RechercheProduit to Confusion--><g id="link_RechercheProduit_Confusion"><path d="M365,448.8194 C365,481.4994 365,533.3994 365,566.0294 " fill="none" id="RechercheProduit-to-Confusion" style="stroke:#181818;stroke-width:1;"/><polygon fill="#181818" points="365,572.0294,369,563.0294,365,567.0294,361,563.0294,365,572.0294" style="stroke:#181818;stroke-width:1;"/><text fill="#000000" font-family="sans-serif" font-size="13" lengthAdjust="spacing" textLength="152.8262" x="366" y="493.1045">Trouve 12 r&#195;&#169;f&#195;&#169;rences !</text></g><!--link Confusion to ChoixReference--><g id="link_Confusion_ChoixReference"><path d="M365.42,622.3194 C366,654.9994 366.9052,706.9003 367.4752,739.5303 " fill="none" id="Confusion-to-ChoixReference" style="stroke:#181818;stroke-width:1;"/><polygon fill="#181818" points="367.58,745.5294,371.4222,736.4609,367.4927,740.5301,363.4234,736.6006,367.58,745.5294" style="stroke:#181818;stroke-width:1;"/><text fill="#000000" font-family="sans-serif" font-size="13" lengthAdjust="spacing" textLength="145.7993" x="369" y="712.1045">Sylvie choisit "au hasard"</text></g><!--link ChoixReference to Saisies--><g id="link_ChoixReference_Saisies"><path d="M368,795.6094 C368,814.2594 368,836.1494 368,867.3494 " fill="none" id="ChoixReference-to-Saisies" style="stroke:#181818;stroke-width:1;"/><polygon fill="#181818" points="368,873.3494,372,864.3494,368,868.3494,364,864.3494,368,873.3494" style="stroke:#181818;stroke-width:1;"/><text fill="#000000" font-family="sans-serif" font-size="13" lengthAdjust="spacing" textLength="104.0508" x="369" y="840.1045">Passe commande</text></g><!--link Saisies to EnCours--><g id="link_Saisies_EnCours"><path d="M368,1296.6694 C368,1329.6094 368,1353.1694 368,1372.7294 " fill="none" id="Saisies-to-EnCours" style="stroke:#181818;stroke-width:1;"/><polygon fill="#181818" points="368,1378.7294,372,1369.7294,368,1373.7294,364,1369.7294,368,1378.7294" style="stroke:#181818;stroke-width:1;"/><text fill="#000000" font-family="sans-serif" font-size="13" lengthAdjust="spacing" textLength="191.6675" x="369" y="1341.1045">Commande fournisseur pass&#195;&#169;e</text></g><!--link EnCours to Livraison--><g id="link_EnCours_Livraison"><path d="M368,1429.3494 C368,1452.7894 368,1482.0994 368,1505.4994 " fill="none" id="EnCours-to-Livraison" style="stroke:#181818;stroke-width:1;"/><polygon fill="#181818" points="368,1511.4994,372,1502.4994,368,1506.4994,364,1502.4994,368,1511.4994" style="stroke:#181818;stroke-width:1;"/><text fill="#000000" font-family="sans-serif" font-size="13" lengthAdjust="spacing" textLength="96.0845" x="369" y="1478.1045">Fournisseur livre</text></g><!--link Livraison to ReceptionEric--><g id="link_Livraison_ReceptionEric"><path d="M368.31,1561.9194 C368.53,1580.0994 368.8055,1601.3098 369.2055,1633.5398 " fill="none" id="Livraison-to-ReceptionEric" style="stroke:#181818;stroke-width:1;"/><polygon fill="#181818" points="369.28,1639.5394,373.168,1630.4904,369.218,1634.5398,365.1686,1630.5897,369.28,1639.5394" style="stroke:#181818;stroke-width:1;"/><text fill="#000000" font-family="sans-serif" font-size="13" lengthAdjust="spacing" textLength="87.4263" x="370" y="1606.1045">&#195;&#8240;ric v&#195;&#169;rifie</text></g><!--link ReceptionEric to Stocke--><g id="link_ReceptionEric_Stocke"><path d="M377.15,2391.8694 C377.42,2424.1294 377.6004,2445.3596 377.7504,2463.4996 " fill="none" id="ReceptionEric-to-Stocke" style="stroke:#181818;stroke-width:1;"/><polygon fill="#181818" points="377.8,2469.4994,381.7254,2460.4666,377.7587,2464.4995,373.7257,2460.5328,377.8,2469.4994" style="stroke:#181818;stroke-width:1;"/><text fill="#000000" font-family="sans-serif" font-size="13" lengthAdjust="spacing" textLength="67.209" x="379" y="2436.1045">Rangement</text></g><!--link Stocke to Recupere--><g id="link_Stocke_Recupere"><path d="M380.89,2519.8994 C383.55,2542.2194 386.749,2569.1416 389.409,2591.4316 " fill="none" id="Stocke-to-Recupere" style="stroke:#181818;stroke-width:1;"/><polygon fill="#181818" points="390.12,2597.3894,393.0254,2587.9788,389.5275,2592.4246,385.0817,2588.9268,390.12,2597.3894" style="stroke:#181818;stroke-width:1;"/><text fill="#000000" font-family="sans-serif" font-size="13" lengthAdjust="spacing" textLength="114.1499" x="388" y="2564.1045">Marc vient chercher</text></g><!--link Recupere to Verification--><g id="link_Recupere_Verification"><path d="M397.43,2647.8994 C401.51,2670.2194 406.4323,2697.197 410.5023,2719.487 " fill="none" id="Recupere-to-Verification" style="stroke:#181818;stroke-width:1;"/><polygon fill="#181818" points="411.58,2725.3894,413.8983,2715.8173,410.6819,2720.4707,406.0284,2717.2542,411.58,2725.3894" style="stroke:#181818;stroke-width:1;"/><text fill="#000000" font-family="sans-serif" font-size="13" lengthAdjust="spacing" textLength="78.1968" x="407" y="2692.1045">Marc v&#195;&#169;rifie</text></g><!--link Verification to Erreur--><g id="link_Verification_Erreur"><path d="M495.19,2775.3094 C522.09,2784.0294 552.14,2794.5094 579,2805.6094 C595.53,2812.4394 598.35,2817.0594 615,2823.6094 C658.97,2840.9094 673.67,2834.7594 717,2853.6094 C730.36,2859.4194 739.1351,2864.0157 751.3451,2871.3957 " fill="none" id="Verification-to-Erreur" style="stroke:#181818;stroke-width:1;"/><polygon fill="#181818" points="756.48,2874.4994,750.8467,2866.4206,752.2009,2871.913,746.7085,2873.2672,756.48,2874.4994" style="stroke:#181818;stroke-width:1;"/><text fill="#000000" font-family="sans-serif" font-size="13" lengthAdjust="spacing" textLength="181.0098" x="616" y="2820.1045">Taux &#195;&#169;lev&#195;&#169; mauvais produit</text></g><!--link Verification to Utilise--><g id="link_Verification_Utilise"><path d="M414.91,2775.7994 C414.54,2785.1094 414.18,2795.8494 414,2805.6094 C413.57,2829.0194 414.0528,2849.7533 414.7328,2868.5233 " fill="none" id="Verification-to-Utilise" style="stroke:#181818;stroke-width:1;"/><polygon fill="#181818" points="414.95,2874.5194,418.6215,2865.3805,414.769,2869.5227,410.6268,2865.6701,414.95,2874.5194" style="stroke:#181818;stroke-width:1;"/><text fill="#000000" font-family="sans-serif" font-size="13" lengthAdjust="spacing" textLength="159.707" x="415" y="2820.1045">Taux insuffisant bon produit</text></g><!--link Erreur to BesoinIdentifie--><g id="link_Erreur_BesoinIdentifie"><path d="M801.31,2874.4894 C810.49,2845.6294 824,2795.6894 824,2751.6094 C824,294.6094 824,294.6094 824,294.6094 C824,262.9294 753.7178,222.2302 700.2378,195.5202 " fill="none" id="Erreur-to-BesoinIdentifie" style="stroke:#181818;stroke-width:1;"/><polygon fill="#181818" points="694.87,192.8394,701.1344,200.4392,699.3431,195.0734,704.7089,193.2822,694.87,192.8394" style="stroke:#181818;stroke-width:1;"/><text fill="#000000" font-family="sans-serif" font-size="13" lengthAdjust="spacing" textLength="119.1899" x="825" y="1409.6045">Recommence TOUT</text></g><!--link Utilise to *end*--><g id="link_Utilise_*end*"><path d="M400.2,2924.9994 C386.72,2946.1994 367.18,2977.9194 352,3006.6094 C342.62,3024.3194 335.556,3040.247 330.386,3052.417 " fill="none" id="Utilise-to-*end*" style="stroke:#181818;stroke-width:1;"/><polygon fill="#181818" points="328.04,3057.9394,335.2405,3051.2198,329.995,3053.3374,327.8774,3048.0919,328.04,3057.9394" style="stroke:#181818;stroke-width:1;"/></g><!--link GMN8 to EnAttente--><g id="link_GMN8_EnAttente"><path d="M197.12,401.9694 C223.2,386.7694 260.66,367.7594 296.5,359.6094 C355.44,346.2094 375.56,339.3394 432.5,359.6094 C454.37,367.3894 474.55,384.1694 488.98,398.5894 " fill="none" id="GMN8-EnAttente" style="stroke:#181818;stroke-width:1;stroke-dasharray:7.0,7.0;"/></g><!--link RechercheProduit to GMN11--><g id="link_RechercheProduit_GMN11"><path d="M395.44,398.4794 C415,384.0094 441.68,367.2294 468.5,359.6094 C504.84,349.2794 516.84,350.4794 553.5,359.6094 C592.81,369.3994 633.37,394.6694 655.97,410.3694 " fill="none" id="RechercheProduit-GMN11" style="stroke:#181818;stroke-width:1;stroke-dasharray:7.0,7.0;"/></g><!--SRC=[VLVTRXj55BxVfpWaGhGHZfoaJfjS8DdEfesKDAtjv0QXQBmUnrDsPxUpirOYX5IfRm2tHIgzG824o4KlUWD8ZdB5M_G5U0NE_EwF3HTDxPdp-vrplZEMJCOKXf982WUCN0gIG0lwrn6UJYYSC_pliu9JwAT9GlY41i6N6rz1g_K5z6YUCduqeLooAShjmmaH4J1_CDO2GP1hwsj67fp2xUl5Bsj0yYKxwtljCDnh1pn5BS4kPnBIQLCg0EEDM2ygs8H8PLGm6kDrbXO2yfH3D2EeGqL0-GIKqI1ekbJfZF0BaMnE-ob-YAJBXsGPZHL6r_4S_RfilBZoR5LqEajsrWyF3nwsc_aqnJ3Ysvkx3nzV_R1u3y_G3fgD22SnshpcqKoaN2Lze3BCL2OJbcSfPsCMCvss2x3CSYaIbMR8krBYXQgNqO1CULFMLciCQ3IZ0lyz4-caOB9K53gOb4yyAY47QrvZKJf347Pxkpq3Gaod6WD_hP9_zyzVVonkOBi32POpes9I0EMGfDUKSrzluSgnqte0qvJbbNnBR_zHpu5Lzk7wrC3cfgDUIdXr1PjY6AB5nHcT49x3a5nMYx9aNCMA8KwBd66pxiD8f0LsrTQsWNUgMvhoYERmYG-yL1WqX7G6vNKDTn-wlwzrtSP6_qdtT0YzxZ24WzEdJszVVtnr4mutDb0CuvaJmN2KC10zMrkG-SJxtTvnsDfvlBtPQGrEpnw7hKxxH9ttZY_mj7CnkEYqyRkHCD9QpkcYr0LUNRX35FoyOwv0du4nkBcvMG6pp5EZE4lPrO1EgKQYRDC8ptD4UeqKC2Cv4PEr4aYbqmJHO5YtLki1ry1r6Tt5Tpyktjx-llY0tGm3bhyiA2YxCPth8SMfpYb8aIPPZP4QtbGwGu9H8zZxYWvGAV8CR6Dt0YT5B5aMszgxKrjv-0R3SfHjxiA4CCMGbM-LMzMlQbR2rh1xD3mAORtZPVLTnT1LHEEwx6vfLrygOVGUV1iqMj26sMZ0tTAMQRi9Pf8WShyc-66ISgvGrADGKiQ32cLK87L06DRhOyigBDqUG_8e16S8BBOoCc2k3LU9J6jO6ZFQ2EdXORVRoCJUOa2EVhPRE_32dfaWFxYMwDjb1ECuVLaedse2bWwNad4Xg6IEsLnWRfej3YjPn7XUPb1AOTkRjO5_tXkAAo_NznuTzlOU1K5vP4cVPX8dAnGiGZ-Q2jJ7kLcnqyegrDDZnHs1LfJjvDGQiMyuq3yge7bYQJ79YA0u5euNDJRtjdJ1xokjKa8f7AJ5M5hvfsc2enGJMGXiWjjt6F_YhTgWNaPfTDL6i3onRxwLknvgrouYQGP4SGyJYIkXkoYdmwDWkYwJweN22-K08vD-K4evEoprYNhePyUnJWtUsW1jjTkVMYUhtXCvFYXgvtMC68yKd9ADOvfNvcjhjjEkRx1ATNM-Ces-rgH1-AL9pdEKkj9LMz65Lc_rUZMNgzB8OiBn8U1S0QmznuGLqs8le6MzTjNxjNHNfGNZr3PvWOFcdwvOPIxTzXQD_YuotVd-sUgLtNiry2VAzZbLGn8Hsm36_lBidBiZA-ceGBkesN0e1RLJJMv2gF774I75LMtR9AIOOu_vHRsaUYRn-PXJfyjuNaodBCSOO8mYJiz5gplYxZi81uFmR62uqJZ7wDhjvdeqTrWWV5bqHztXQ73wx4ceUVt4H4QRZnn3xBxYAvXnvyN_CQPH_llDuZS3-RJ0dmF5LPL9JS2hVy5W2P60T22ZqxDH9V6xxp- - -idYvNl0mUTQm7rtMy_0CKwbJ1CDmudcqT7WwFbPE8J7nwUzxh7TT6xQ3WeD2Kvh4KNuwUTy7vhhf2AbUtD6ettODK9mJ_WaxZiDh9akCDN9MpgtNO8o-1R5fsEExnBj4Fk0JbMVw3VDY2PPRX_aBCbI8GalVwwykVjJqSWOsrw_hZ7QhUqIxdy1]--></g></svg>