<svg xmlns="http://www.w3.org/2000/svg" xmlns:xlink="http://www.w3.org/1999/xlink" contentStyleType="text/css" height="671px" preserveAspectRatio="none" style="width:375px;height:671px;background:#FFFFFF;" version="1.1" viewBox="0 0 375 671" width="375px" zoomAndPan="magnify"><title>Timing Diagram - Timeline d'une Commande Type</title><defs/><g><text fill="#000000" font-family="sans-serif" font-size="14" font-weight="bold" lengthAdjust="spacing" textLength="332.377" x="20" y="34.5332">Timing Diagram - Timeline d'une Commande Type</text><line style="stroke:#333333;stroke-width:0.5;" x1="89.668" x2="89.668" y1="48.6094" y2="640.2656"/><line style="stroke:#333333;stroke-width:0.5;" x1="283.709" x2="283.709" y1="48.6094" y2="640.2656"/><line style="stroke:#333333;stroke-width:0.5;stroke-dasharray:3.0,5.0;" x1="178.709" x2="178.709" y1="48.6094" y2="640.2656"/><line style="stroke:#333333;stroke-width:0.5;stroke-dasharray:3.0,5.0;" x1="228.709" x2="228.709" y1="48.6094" y2="640.2656"/><line style="stroke:#333333;stroke-width:0.5;stroke-dasharray:3.0,5.0;" x1="278.709" x2="278.709" y1="48.6094" y2="640.2656"/><line style="stroke:#333333;stroke-width:0.5;" x1="89.668" x2="283.709" y1="48.6094" y2="48.6094"/><text fill="#333333" font-family="sans-serif" font-size="14" font-weight="bold" lengthAdjust="spacing" textLength="32.6826" x="94.668" y="63.1426">Marc</text><text fill="#333333" font-family="sans-serif" font-size="14" font-weight="bold" lengthAdjust="spacing" textLength="101.1104" x="94.668" y="80.752">(Chef Chantier)</text><line style="stroke:#333333;stroke-width:0.5;" x1="89.668" x2="196.7783" y1="84.8281" y2="84.8281"/><line style="stroke:#333333;stroke-width:0.5;" x1="196.7783" x2="206.7783" y1="84.8281" y2="48.6094"/><polygon fill="#E2E2F0" points="190.709,89.8281,166.7912,89.8281,178.7912,101.8281,166.7912,113.8281,190.709,113.8281,178.709,101.8281" style="stroke:#006400;stroke-width:1.5;"/><polygon fill="#E2E2F0" points="190.7912,89.8281,166.8735,89.8281,178.8735,101.8281,166.8735,113.8281,190.7912,113.8281,178.7912,101.8281" style="stroke:#006400;stroke-width:1.5;"/><polygon fill="#E2E2F0" points="190.8735,89.8281,166.9557,89.8281,178.9557,101.8281,166.9557,113.8281,190.8735,113.8281,178.8735,101.8281" style="stroke:#006400;stroke-width:1.5;"/><polygon fill="#E2E2F0" points="190.9557,89.8281,167.3669,89.8281,179.3669,101.8281,167.3669,113.8281,190.9557,113.8281,178.9557,101.8281" style="stroke:#006400;stroke-width:1.5;"/><polygon fill="#E2E2F0" points="191.3669,89.8281,167.4491,89.8281,179.4491,101.8281,167.4491,113.8281,191.3669,113.8281,179.3669,101.8281" style="stroke:#006400;stroke-width:1.5;"/><polygon fill="#E2E2F0" points="191.4491,89.8281,167.5314,89.8281,179.5314,101.8281,167.5314,113.8281,191.4491,113.8281,179.4491,101.8281" style="stroke:#006400;stroke-width:1.5;"/><polygon fill="#E2E2F0" points="191.5314,89.8281,168.436,89.8281,180.436,101.8281,168.436,113.8281,191.5314,113.8281,179.5314,101.8281" style="stroke:#006400;stroke-width:1.5;"/><polygon fill="#E2E2F0" points="192.436,89.8281,190.3932,89.8281,202.3932,101.8281,190.3932,113.8281,192.436,113.8281,180.436,101.8281" style="stroke:#006400;stroke-width:1.5;"/><polygon fill="#E2E2F0" points="214.3932,89.8281,190.6399,89.8281,202.6399,101.8281,190.6399,113.8281,214.3932,113.8281,202.3932,101.8281" style="stroke:#006400;stroke-width:1.5;"/><polygon fill="#E2E2F0" points="214.6399,89.8281,215.8044,89.8281,227.8044,101.8281,215.8044,113.8281,214.6399,113.8281,202.6399,101.8281" style="stroke:#006400;stroke-width:1.5;"/><polygon fill="#E2E2F0" points="239.8044,89.8281,216.0511,89.8281,228.0511,101.8281,216.0511,113.8281,239.8044,113.8281,227.8044,101.8281" style="stroke:#006400;stroke-width:1.5;"/><polygon fill="#E2E2F0" points="240.0511,89.8281,216.2978,89.8281,228.2978,101.8281,216.2978,113.8281,240.0511,113.8281,228.0511,101.8281" style="stroke:#006400;stroke-width:1.5;"/><polygon fill="#E2E2F0" points="240.2978,89.8281,216.38,89.8281,228.38,101.8281,216.38,113.8281,240.2978,113.8281,228.2978,101.8281" style="stroke:#006400;stroke-width:1.5;"/><polygon fill="#E2E2F0" points="240.38,89.8281,216.4623,89.8281,228.4623,101.8281,216.4623,113.8281,240.38,113.8281,228.38,101.8281" style="stroke:#006400;stroke-width:1.5;"/><polygon fill="#E2E2F0" points="240.4623,89.8281,216.709,89.8281,228.709,101.8281,216.709,113.8281,240.4623,113.8281,228.4623,101.8281" style="stroke:#006400;stroke-width:1.5;"/><polygon fill="#E2E2F0" points="240.709,89.8281,278.709,89.8281,278.709,113.8281,240.709,113.8281,228.709,101.8281" style="stroke:#E2E2F0;stroke-width:1.5;"/><path d="M278.709,89.8281 L240.709,89.8281 L228.709,101.8281 L240.709,113.8281 L278.709,113.8281 " fill="#E2E2F0" style="stroke:#006400;stroke-width:1.5;"/><text fill="#333333" font-family="sans-serif" font-size="12" font-weight="bold" lengthAdjust="spacing" textLength="40.0078" x="158.7462" y="106.7383">Besoin</text><text fill="#333333" font-family="sans-serif" font-size="12" font-weight="bold" lengthAdjust="spacing" textLength="70.6875" x="143.4886" y="106.7383">ChercheDoc</text><text fill="#333333" font-family="sans-serif" font-size="12" font-weight="bold" lengthAdjust="spacing" textLength="67.3301" x="145.2495" y="106.7383">RemplitBon</text><text fill="#333333" font-family="sans-serif" font-size="12" font-weight="bold" lengthAdjust="spacing" textLength="68.0273" x="145.1476" y="106.7383">AppelSylvie</text><text fill="#333333" font-family="sans-serif" font-size="12" font-weight="bold" lengthAdjust="spacing" textLength="37.9922" x="160.4119" y="106.7383">Attend</text><text fill="#333333" font-family="sans-serif" font-size="12" font-weight="bold" lengthAdjust="spacing" textLength="68.0273" x="145.4766" y="106.7383">AppelSylvie</text><text fill="#333333" font-family="sans-serif" font-size="12" font-weight="bold" lengthAdjust="spacing" textLength="37.9922" x="160.9876" y="106.7383">Attend</text><text fill="#333333" font-family="sans-serif" font-size="12" font-weight="bold" lengthAdjust="spacing" textLength="37.9922" x="172.4185" y="106.7383">Attend</text><text fill="#333333" font-family="sans-serif" font-size="12" font-weight="bold" lengthAdjust="spacing" textLength="62.0098" x="171.5117" y="106.7383">AppelSuivi</text><text fill="#333333" font-family="sans-serif" font-size="12" font-weight="bold" lengthAdjust="spacing" textLength="37.9922" x="196.226" y="106.7383">Attend</text><text fill="#333333" font-family="sans-serif" font-size="12" font-weight="bold" lengthAdjust="spacing" textLength="88.6875" x="183.584" y="106.7383">RecupereDepot</text><text fill="#333333" font-family="sans-serif" font-size="12" font-weight="bold" lengthAdjust="spacing" textLength="87.3398" x="184.5045" y="106.7383">RetourChantier</text><text fill="#333333" font-family="sans-serif" font-size="12" font-weight="bold" lengthAdjust="spacing" textLength="56.6895" x="199.9942" y="106.7383">Deballage</text><text fill="#333333" font-family="sans-serif" font-size="12" font-weight="bold" lengthAdjust="spacing" textLength="50.6719" x="203.0852" y="106.7383">ERREUR</text><text fill="#333333" font-family="sans-serif" font-size="12" font-weight="bold" lengthAdjust="spacing" textLength="76.6758" x="190.2477" y="106.7383">AppelFurieux</text><text fill="#333333" font-family="sans-serif" font-size="12" font-weight="bold" lengthAdjust="spacing" textLength="37.9922" x="240.709" y="106.7383">Attend</text><line style="stroke:#333333;stroke-width:0.5;" x1="89.668" x2="283.709" y1="123.8281" y2="123.8281"/><text fill="#333333" font-family="sans-serif" font-size="14" font-weight="bold" lengthAdjust="spacing" textLength="40.4756" x="94.668" y="138.3613">Sylvie</text><text fill="#333333" font-family="sans-serif" font-size="14" font-weight="bold" lengthAdjust="spacing" textLength="56.0068" x="94.668" y="155.9707">(Achats)</text><line style="stroke:#333333;stroke-width:0.5;" x1="89.668" x2="151.6748" y1="160.0469" y2="160.0469"/><line style="stroke:#333333;stroke-width:0.5;" x1="151.6748" x2="161.6748" y1="160.0469" y2="123.8281"/><text fill="#333333" font-family="sans-serif" font-size="12" lengthAdjust="spacing" textLength="56.0332" x="94.668" y="390.957">Disponible</text><text fill="#333333" font-family="sans-serif" font-size="12" lengthAdjust="spacing" textLength="44.7012" x="94.668" y="370.957">Reunion</text><text fill="#333333" font-family="sans-serif" font-size="12" lengthAdjust="spacing" textLength="61.3652" x="94.668" y="350.957">TraiteAppel</text><text fill="#333333" font-family="sans-serif" font-size="12" lengthAdjust="spacing" textLength="73.3828" x="94.668" y="330.957">ChercheSage</text><text fill="#333333" font-family="sans-serif" font-size="12" lengthAdjust="spacing" textLength="74.7012" x="94.668" y="310.957">ChercheExcel</text><text fill="#333333" font-family="sans-serif" font-size="12" lengthAdjust="spacing" textLength="62.0391" x="94.668" y="290.957">AppelFourn</text><text fill="#333333" font-family="sans-serif" font-size="12" lengthAdjust="spacing" textLength="72.0117" x="94.668" y="270.957">EmailConfirm</text><text fill="#333333" font-family="sans-serif" font-size="12" lengthAdjust="spacing" textLength="60.709" x="94.668" y="250.957">SaisieSage</text><text fill="#333333" font-family="sans-serif" font-size="12" lengthAdjust="spacing" textLength="62.0273" x="94.668" y="230.957">SaisieExcel</text><text fill="#333333" font-family="sans-serif" font-size="12" lengthAdjust="spacing" textLength="84.041" x="94.668" y="210.957">RenseigneMarc</text><text fill="#333333" font-family="sans-serif" font-size="12" lengthAdjust="spacing" textLength="78.041" x="94.668" y="190.957">RenseigneEric</text><text fill="#333333" font-family="sans-serif" font-size="12" lengthAdjust="spacing" textLength="60.0176" x="94.668" y="170.957">GereErreur</text><line style="stroke:#006400;stroke-width:2;" x1="178.709" x2="178.9557" y1="385.0469" y2="385.0469"/><line style="stroke:#006400;stroke-width:2;" x1="178.9557" x2="179.4491" y1="365.0469" y2="365.0469"/><line style="stroke:#006400;stroke-width:2;" x1="179.4491" x2="179.5314" y1="345.0469" y2="345.0469"/><line style="stroke:#006400;stroke-width:2;" x1="179.5314" x2="179.7287" y1="325.0469" y2="325.0469"/><line style="stroke:#006400;stroke-width:2;" x1="179.7287" x2="179.8603" y1="305.0469" y2="305.0469"/><line style="stroke:#006400;stroke-width:2;" x1="179.8603" x2="180.107" y1="285.0469" y2="285.0469"/><line style="stroke:#006400;stroke-width:2;" x1="180.107" x2="180.2715" y1="265.0469" y2="265.0469"/><line style="stroke:#006400;stroke-width:2;" x1="180.2715" x2="180.3537" y1="245.0469" y2="245.0469"/><line style="stroke:#006400;stroke-width:2;" x1="180.3537" x2="180.436" y1="225.0469" y2="225.0469"/><line style="stroke:#006400;stroke-width:2;" x1="180.436" x2="202.3932" y1="385.0469" y2="385.0469"/><line style="stroke:#006400;stroke-width:2;" x1="202.3932" x2="202.6399" y1="205.0469" y2="205.0469"/><line style="stroke:#006400;stroke-width:2;" x1="202.6399" x2="226.7353" y1="385.0469" y2="385.0469"/><line style="stroke:#006400;stroke-width:2;" x1="226.7353" x2="226.8998" y1="185.0469" y2="185.0469"/><line style="stroke:#006400;stroke-width:2;" x1="226.8998" x2="228.4623" y1="385.0469" y2="385.0469"/><line style="stroke:#006400;stroke-width:2;" x1="228.4623" x2="228.709" y1="165.0469" y2="165.0469"/><line style="stroke:#006400;stroke-width:2;" x1="228.709" x2="278.709" y1="385.0469" y2="385.0469"/><line style="stroke:#006400;stroke-width:2;" x1="178.9557" x2="178.9557" y1="365.0469" y2="385.0469"/><line style="stroke:#006400;stroke-width:2;" x1="179.4491" x2="179.4491" y1="345.0469" y2="365.0469"/><line style="stroke:#006400;stroke-width:2;" x1="179.5314" x2="179.5314" y1="325.0469" y2="345.0469"/><line style="stroke:#006400;stroke-width:2;" x1="179.7287" x2="179.7287" y1="305.0469" y2="325.0469"/><line style="stroke:#006400;stroke-width:2;" x1="179.8603" x2="179.8603" y1="285.0469" y2="305.0469"/><line style="stroke:#006400;stroke-width:2;" x1="180.107" x2="180.107" y1="265.0469" y2="285.0469"/><line style="stroke:#006400;stroke-width:2;" x1="180.2715" x2="180.2715" y1="245.0469" y2="265.0469"/><line style="stroke:#006400;stroke-width:2;" x1="180.3537" x2="180.3537" y1="225.0469" y2="245.0469"/><line style="stroke:#006400;stroke-width:2;" x1="180.436" x2="180.436" y1="225.0469" y2="385.0469"/><line style="stroke:#006400;stroke-width:2;" x1="202.3932" x2="202.3932" y1="205.0469" y2="385.0469"/><line style="stroke:#006400;stroke-width:2;" x1="202.6399" x2="202.6399" y1="205.0469" y2="385.0469"/><line style="stroke:#006400;stroke-width:2;" x1="226.7353" x2="226.7353" y1="185.0469" y2="385.0469"/><line style="stroke:#006400;stroke-width:2;" x1="226.8998" x2="226.8998" y1="185.0469" y2="385.0469"/><line style="stroke:#006400;stroke-width:2;" x1="228.4623" x2="228.4623" y1="165.0469" y2="385.0469"/><line style="stroke:#006400;stroke-width:2;" x1="228.709" x2="228.709" y1="165.0469" y2="385.0469"/><line style="stroke:#333333;stroke-width:0.5;" x1="89.668" x2="283.709" y1="397.0469" y2="397.0469"/><text fill="#333333" font-family="sans-serif" font-size="14" font-weight="bold" lengthAdjust="spacing" textLength="44.6113" x="94.668" y="411.5801">&#195;&#8240;ric</text><text fill="#333333" font-family="sans-serif" font-size="14" font-weight="bold" lengthAdjust="spacing" textLength="67.8467" x="94.668" y="429.1895">(D&#195;&#169;p&#195;&#180;t)</text><line style="stroke:#333333;stroke-width:0.5;" x1="89.668" x2="163.5146" y1="433.2656" y2="433.2656"/><line style="stroke:#333333;stroke-width:0.5;" x1="163.5146" x2="173.5146" y1="433.2656" y2="397.0469"/><text fill="#333333" font-family="sans-serif" font-size="12" lengthAdjust="spacing" textLength="38.0273" x="105.6816" y="604.1758">Attente</text><text fill="#333333" font-family="sans-serif" font-size="12" lengthAdjust="spacing" textLength="54.0352" x="105.6816" y="584.1758">Reception</text><text fill="#333333" font-family="sans-serif" font-size="12" lengthAdjust="spacing" textLength="66.6973" x="105.6816" y="564.1758">ChercheDoc</text><text fill="#333333" font-family="sans-serif" font-size="12" lengthAdjust="spacing" textLength="68.0273" x="105.6816" y="544.1758">CompareRef</text><text fill="#333333" font-family="sans-serif" font-size="12" lengthAdjust="spacing" textLength="62.7012" x="105.6816" y="524.1758">AppelSylvie</text><text fill="#333333" font-family="sans-serif" font-size="12" lengthAdjust="spacing" textLength="42.0176" x="105.6816" y="504.1758">Compte</text><text fill="#333333" font-family="sans-serif" font-size="12" lengthAdjust="spacing" textLength="35.3613" x="105.6816" y="484.1758">Range</text><text fill="#333333" font-family="sans-serif" font-size="12" lengthAdjust="spacing" textLength="51.3633" x="105.6816" y="464.1758">AttendPC</text><text fill="#333333" font-family="sans-serif" font-size="12" lengthAdjust="spacing" textLength="60.709" x="105.6816" y="444.1758">SaisieSage</text><line style="stroke:#006400;stroke-width:2;" x1="178.709" x2="226.0774" y1="598.2656" y2="598.2656"/><line style="stroke:#006400;stroke-width:2;" x1="226.0774" x2="226.3241" y1="578.2656" y2="578.2656"/><line style="stroke:#006400;stroke-width:2;" x1="226.3241" x2="226.5708" y1="558.2656" y2="558.2656"/><line style="stroke:#006400;stroke-width:2;" x1="226.5708" x2="226.7353" y1="538.2656" y2="538.2656"/><line style="stroke:#006400;stroke-width:2;" x1="226.7353" x2="226.8998" y1="518.2656" y2="518.2656"/><line style="stroke:#006400;stroke-width:2;" x1="226.8998" x2="227.0642" y1="498.2656" y2="498.2656"/><line style="stroke:#006400;stroke-width:2;" x1="227.0642" x2="227.2287" y1="478.2656" y2="478.2656"/><line style="stroke:#006400;stroke-width:2;" x1="227.2287" x2="227.4754" y1="458.2656" y2="458.2656"/><line style="stroke:#006400;stroke-width:2;" x1="227.4754" x2="227.8044" y1="438.2656" y2="438.2656"/><line style="stroke:#006400;stroke-width:2;" x1="227.8044" x2="228.709" y1="598.2656" y2="598.2656"/><line style="stroke:#006400;stroke-width:2;" x1="228.709" x2="278.709" y1="598.2656" y2="598.2656"/><line style="stroke:#006400;stroke-width:2;" x1="226.0774" x2="226.0774" y1="578.2656" y2="598.2656"/><line style="stroke:#006400;stroke-width:2;" x1="226.3241" x2="226.3241" y1="558.2656" y2="578.2656"/><line style="stroke:#006400;stroke-width:2;" x1="226.5708" x2="226.5708" y1="538.2656" y2="558.2656"/><line style="stroke:#006400;stroke-width:2;" x1="226.7353" x2="226.7353" y1="518.2656" y2="538.2656"/><line style="stroke:#006400;stroke-width:2;" x1="226.8998" x2="226.8998" y1="498.2656" y2="518.2656"/><line style="stroke:#006400;stroke-width:2;" x1="227.0642" x2="227.0642" y1="478.2656" y2="498.2656"/><line style="stroke:#006400;stroke-width:2;" x1="227.2287" x2="227.2287" y1="458.2656" y2="478.2656"/><line style="stroke:#006400;stroke-width:2;" x1="227.4754" x2="227.4754" y1="438.2656" y2="458.2656"/><line style="stroke:#006400;stroke-width:2;" x1="227.8044" x2="227.8044" y1="438.2656" y2="598.2656"/><line style="stroke:#006400;stroke-width:2;" x1="228.709" x2="228.709" y1="598.2656" y2="598.2656"/><line style="stroke:#333333;stroke-width:0.5;" x1="89.668" x2="283.709" y1="610.2656" y2="610.2656"/><text fill="#333333" font-family="sans-serif" font-size="14" font-weight="bold" lengthAdjust="spacing" textLength="56.7861" x="94.668" y="630.9941">Chantier</text><line style="stroke:#006400;stroke-width:2;" x1="178.709" x2="178.709" y1="632.2656" y2="632.2656"/><line style="stroke:#006400;stroke-width:2;" x1="178.709" x2="178.709" y1="618.2656" y2="632.2656"/><line style="stroke:#006400;stroke-width:2;" x1="178.709" x2="180.5182" y1="618.2656" y2="618.2656"/><line style="stroke:#006400;stroke-width:2;" x1="180.5182" x2="180.5182" y1="618.2656" y2="632.2656"/><line style="stroke:#006400;stroke-width:2;" x1="180.5182" x2="228.38" y1="632.2656" y2="632.2656"/><line style="stroke:#006400;stroke-width:2;" x1="228.38" x2="278.709" y1="632.2656" y2="632.2656"/><line style="stroke:#333333;stroke-width:2;" x1="178.709" x2="178.709" y1="640.2656" y2="645.2656"/><line style="stroke:#333333;stroke-width:2;" x1="228.709" x2="228.709" y1="640.2656" y2="645.2656"/><line style="stroke:#333333;stroke-width:2;" x1="278.709" x2="278.709" y1="640.2656" y2="645.2656"/><line style="stroke:#333333;stroke-width:2;" x1="178.709" x2="278.709" y1="640.2656" y2="640.2656"/><text fill="#333333" font-family="sans-serif" font-size="11" lengthAdjust="spacing" textLength="6.1177" x="175.6501" y="657.6846">0</text><text fill="#333333" font-family="sans-serif" font-size="11" lengthAdjust="spacing" textLength="6.1177" x="175.7324" y="657.6846">5</text><text fill="#333333" font-family="sans-serif" font-size="11" lengthAdjust="spacing" textLength="12.2354" x="172.7558" y="657.6846">10</text><text fill="#333333" font-family="sans-serif" font-size="11" lengthAdjust="spacing" textLength="12.2354" x="172.838" y="657.6846">15</text><text fill="#333333" font-family="sans-serif" font-size="11" lengthAdjust="spacing" textLength="12.2354" x="173.2492" y="657.6846">40</text><text fill="#333333" font-family="sans-serif" font-size="11" lengthAdjust="spacing" textLength="12.2354" x="173.3314" y="657.6846">45</text><text fill="#333333" font-family="sans-serif" font-size="11" lengthAdjust="spacing" textLength="12.2354" x="173.4137" y="657.6846">50</text><text fill="#333333" font-family="sans-serif" font-size="11" lengthAdjust="spacing" textLength="12.2354" x="173.611" y="657.6846">62</text><text fill="#333333" font-family="sans-serif" font-size="11" lengthAdjust="spacing" textLength="12.2354" x="173.7426" y="657.6846">70</text><text fill="#333333" font-family="sans-serif" font-size="11" lengthAdjust="spacing" textLength="12.2354" x="173.9893" y="657.6846">85</text><text fill="#333333" font-family="sans-serif" font-size="11" lengthAdjust="spacing" textLength="12.2354" x="174.1538" y="657.6846">95</text><text fill="#333333" font-family="sans-serif" font-size="11" lengthAdjust="spacing" textLength="18.353" x="171.1772" y="657.6846">100</text><text fill="#333333" font-family="sans-serif" font-size="11" lengthAdjust="spacing" textLength="18.353" x="171.2594" y="657.6846">105</text><text fill="#333333" font-family="sans-serif" font-size="11" lengthAdjust="spacing" textLength="18.353" x="171.3417" y="657.6846">110</text><text fill="#333333" font-family="sans-serif" font-size="11" lengthAdjust="spacing" textLength="24.4707" x="190.1578" y="657.6846">1440</text><text fill="#333333" font-family="sans-serif" font-size="11" lengthAdjust="spacing" textLength="24.4707" x="190.4046" y="657.6846">1455</text><text fill="#333333" font-family="sans-serif" font-size="11" lengthAdjust="spacing" textLength="24.4707" x="213.8421" y="657.6846">2880</text><text fill="#333333" font-family="sans-serif" font-size="11" lengthAdjust="spacing" textLength="24.4707" x="214.0888" y="657.6846">2895</text><text fill="#333333" font-family="sans-serif" font-size="11" lengthAdjust="spacing" textLength="24.4707" x="214.3355" y="657.6846">2910</text><text fill="#333333" font-family="sans-serif" font-size="11" lengthAdjust="spacing" textLength="24.4707" x="214.4999" y="657.6846">2920</text><text fill="#333333" font-family="sans-serif" font-size="11" lengthAdjust="spacing" textLength="24.4707" x="214.6644" y="657.6846">2930</text><text fill="#333333" font-family="sans-serif" font-size="11" lengthAdjust="spacing" textLength="24.4707" x="214.8289" y="657.6846">2940</text><text fill="#333333" font-family="sans-serif" font-size="11" lengthAdjust="spacing" textLength="24.4707" x="214.9934" y="657.6846">2950</text><text fill="#333333" font-family="sans-serif" font-size="11" lengthAdjust="spacing" textLength="24.4707" x="215.2401" y="657.6846">2965</text><text fill="#333333" font-family="sans-serif" font-size="11" lengthAdjust="spacing" textLength="24.4707" x="215.569" y="657.6846">2985</text><text fill="#333333" font-family="sans-serif" font-size="11" lengthAdjust="spacing" textLength="24.4707" x="215.8157" y="657.6846">3000</text><text fill="#333333" font-family="sans-serif" font-size="11" lengthAdjust="spacing" textLength="24.4707" x="216.0624" y="657.6846">3015</text><text fill="#333333" font-family="sans-serif" font-size="11" lengthAdjust="spacing" textLength="24.4707" x="216.1447" y="657.6846">3020</text><text fill="#333333" font-family="sans-serif" font-size="11" lengthAdjust="spacing" textLength="24.4707" x="216.2269" y="657.6846">3025</text><text fill="#333333" font-family="sans-serif" font-size="11" lengthAdjust="spacing" textLength="24.4707" x="216.4736" y="657.6846">3040</text><!--SRC=[ZLFDRfj04BxlKwnyINgej62JufiTGofLhLJXzDRB6iPu95ZGiaJnhLAUfhSU-WJDc_H9ihiOBuHQpGM9xvkVRsQ-LQWAeFTOeiXfX3oNlAJl3G052g3PLQk_cweikSXquB46Gj9AfDW0dNtXClqkhZS7sDFDWGk58D_DA6-eOOYiTcsZw6nxB1uGTE0wFN3LT14TU8vvVlhxuvT4KovwVlhpizQVtweBZJLETYYuFD9PtySo_GyXL_HJrKhgQV6VMv4XMJ5YH51iw2qq5GhITJH0X4rT2TmLG4nj0wsL0g60z1KDvX6o2ivLz9GoFK1KfHhsNFK4ohf0TLi9WxluTLr3SPhIjKwW5MX35ww4RPuPx7_fzvAZ0iiPSPCIBl8aTyjpVR7LZJ-buiVKLld01fmjVQTNQII6mO29Iux5fX9xbANcbaDkox71lfV7s8JgUtai-FST9glmz8g7ns06MmoNPXVKuWEErYiQm5o0DQ3928BBEnhq9oi_3DdP3WcaKAlkK7weP-s9aGlyfUTIz2EfkOG4zfRn7NF92IUfrjucPJukfk2YrELY89MBl0C3DhPpzdLZyHidVtGeVna6amVWR9ssDKY8eAwK3fupDlIyqXPnhq-p0-T7iED5qVMOCz-bnKaIVqicPzKnhtn_rqg4zd4m_qSj9POIsgxRWhtfgg-7Um40]--></g></svg>