<svg xmlns="http://www.w3.org/2000/svg" xmlns:xlink="http://www.w3.org/1999/xlink" contentStyleType="text/css" height="2682px" preserveAspectRatio="none" style="width:1115px;height:2682px;background:#FFFFFF;" version="1.1" viewBox="0 0 1115 2682" width="1115px" zoomAndPan="magnify"><title>Use Case Diagram - Ressources Humaines ACTUEL</title><defs/><g><text fill="#000000" font-family="sans-serif" font-size="14" font-weight="bold" lengthAdjust="spacing" textLength="346.2334" x="377.4646" y="24.5332">Use Case Diagram - Ressources Humaines ACTUEL</text><!--cluster Syst??me RH ACTUEL--><g id="cluster_Syst&#195;&#168;me RH ACTUEL"><rect fill="#FFFFCC" height="1037" rx="2.5" ry="2.5" style="stroke:#181818;stroke-width:1;" width="932.5" x="115" y="202.1094"/><text fill="#000000" font-family="sans-serif" font-size="14" font-weight="bold" lengthAdjust="spacing" textLength="149.3516" x="506.5742" y="218.6426">Syst&#195;&#168;me RH ACTUEL</text></g><!--cluster Outils (Silos)--><g id="cluster_Outils (Silos)"><rect fill="#FFE4E1" height="723" rx="2.5" ry="2.5" style="stroke:#181818;stroke-width:1;" width="180" x="872.5" y="1536.1094"/><text fill="#000000" font-family="sans-serif" font-size="14" font-weight="bold" lengthAdjust="spacing" textLength="86.3379" x="919.3311" y="1552.6426">Outils (Silos)</text></g><g id="elem_UC1"><ellipse cx="534.1813" cy="1195.0128" fill="#FF6B6B" rx="45.1813" ry="27.9034" style="stroke:#181818;stroke-width:0.5;"/><text fill="#000000" font-family="sans-serif" font-size="14" lengthAdjust="spacing" textLength="47.6533" x="510.3546" y="1189.9366">G&#195;&#169;rer</text><text fill="#000000" font-family="sans-serif" font-size="14" lengthAdjust="spacing" textLength="26.4688" x="520.9469" y="1207.546">paie</text></g><g id="elem_GMN9"><path d="M902,1158.6094 L902,1201.3125 L1022.709,1201.3125 L1022.709,1168.6094 L1012.709,1158.6094 L902,1158.6094 " fill="#FEFFDD" style="stroke:#181818;stroke-width:0.5;"/><path d="M1012.709,1158.6094 L1012.709,1168.6094 L1022.709,1168.6094 L1012.709,1158.6094 " fill="#FEFFDD" style="stroke:#181818;stroke-width:1;"/><text fill="#000000" font-family="sans-serif" font-size="13" lengthAdjust="spacing" textLength="99.709" x="908" y="1177.1045">&#240;&#376;&#8221;&#180; 25-30h/mois</text><text fill="#000000" font-family="sans-serif" font-size="13" lengthAdjust="spacing" textLength="70.8081" x="908" y="1193.4561">10% erreurs</text></g><g id="elem_UC2"><ellipse cx="533.8196" cy="1086.0128" fill="#FFD700" rx="75.3196" ry="27.9034" style="stroke:#181818;stroke-width:0.5;"/><text fill="#000000" font-family="sans-serif" font-size="14" lengthAdjust="spacing" textLength="35.0068" x="516.3162" y="1080.9366">Saisir</text><text fill="#000000" font-family="sans-serif" font-size="14" lengthAdjust="spacing" textLength="90.2754" x="488.6819" y="1098.546">feuilles heures</text></g><g id="elem_GMN13"><path d="M898,1064.6094 L898,1082.1094 L609.78,1086.1094 L898,1090.1094 L898,1107.3125 A0,0 0 0 0 898,1107.3125 L1026.6689,1107.3125 A0,0 0 0 0 1026.6689,1107.3125 L1026.6689,1074.6094 L1016.6689,1064.6094 L898,1064.6094 A0,0 0 0 0 898,1064.6094 " fill="#FEFFDD" style="stroke:#181818;stroke-width:0.5;"/><path d="M1016.6689,1064.6094 L1016.6689,1074.6094 L1026.6689,1074.6094 L1016.6689,1064.6094 " fill="#FEFFDD" style="stroke:#181818;stroke-width:0.5;"/><text fill="#000000" font-family="sans-serif" font-size="13" lengthAdjust="spacing" textLength="107.6689" x="904" y="1083.1045">&#240;&#376;&#8221;&#180; 100% manuel</text><text fill="#000000" font-family="sans-serif" font-size="13" lengthAdjust="spacing" textLength="70.0908" x="904" y="1099.4561">60% retards</text></g><g id="elem_UC3"><ellipse cx="533.8196" cy="852.0128" fill="#FFD700" rx="75.3196" ry="27.9034" style="stroke:#181818;stroke-width:0.5;"/><text fill="#000000" font-family="sans-serif" font-size="14" lengthAdjust="spacing" textLength="43.5791" x="512.0301" y="846.9366">Valider</text><text fill="#000000" font-family="sans-serif" font-size="14" lengthAdjust="spacing" textLength="90.2754" x="488.6819" y="864.546">feuilles heures</text></g><g id="elem_GMN17"><path d="M893.5,830.6094 L893.5,848.1094 L609.78,852.1094 L893.5,856.1094 L893.5,873.3125 A0,0 0 0 0 893.5,873.3125 L1031.5635,873.3125 A0,0 0 0 0 1031.5635,873.3125 L1031.5635,840.6094 L1021.5635,830.6094 L893.5,830.6094 A0,0 0 0 0 893.5,830.6094 " fill="#FEFFDD" style="stroke:#181818;stroke-width:0.5;"/><path d="M1021.5635,830.6094 L1021.5635,840.6094 L1031.5635,840.6094 L1021.5635,830.6094 " fill="#FEFFDD" style="stroke:#181818;stroke-width:0.5;"/><text fill="#000000" font-family="sans-serif" font-size="13" lengthAdjust="spacing" textLength="109.8398" x="899.5" y="849.1045">&#240;&#376;&#8221;&#180; 3h30/semaine</text><text fill="#000000" font-family="sans-serif" font-size="13" lengthAdjust="spacing" textLength="117.0635" x="899.5" y="865.4561">Relances manuelles</text></g><g id="elem_UC4"><ellipse cx="219.7055" cy="448.0128" fill="#FFD700" rx="57.7055" ry="27.9034" style="stroke:#181818;stroke-width:0.5;"/><text fill="#000000" font-family="sans-serif" font-size="14" lengthAdjust="spacing" textLength="65.3652" x="187.0229" y="442.9366">Demander</text><text fill="#000000" font-family="sans-serif" font-size="14" lengthAdjust="spacing" textLength="57.0117" x="191.1996" y="460.546">cong&#195;&#169;s</text></g><g id="elem_GMN21"><path d="M467.5,394.6094 L467.5,418.8194 L276.01,442.4194 L467.5,426.8194 L467.5,437.3125 A0,0 0 0 0 467.5,437.3125 L600.1299,437.3125 A0,0 0 0 0 600.1299,437.3125 L600.1299,404.6094 L590.1299,394.6094 L467.5,394.6094 A0,0 0 0 0 467.5,394.6094 " fill="#FEFFDD" style="stroke:#181818;stroke-width:0.5;"/><path d="M590.1299,394.6094 L590.1299,404.6094 L600.1299,404.6094 L590.1299,394.6094 " fill="#FEFFDD" style="stroke:#181818;stroke-width:0.5;"/><text fill="#000000" font-family="sans-serif" font-size="13" lengthAdjust="spacing" textLength="111.6299" x="473.5" y="413.1045">&#240;&#376;&#8221;&#180; Papier + email</text><text fill="#000000" font-family="sans-serif" font-size="13" lengthAdjust="spacing" textLength="92.6758" x="473.5" y="429.4561">3-5 jours d&#195;&#169;lai</text></g><g id="elem_UC5"><ellipse cx="533.7725" cy="670.0128" fill="#FF6B6B" rx="89.7725" ry="27.9034" style="stroke:#181818;stroke-width:0.5;"/><text fill="#000000" font-family="sans-serif" font-size="14" lengthAdjust="spacing" textLength="66.9307" x="500.3072" y="664.9366">Onboarder</text><text fill="#000000" font-family="sans-serif" font-size="14" lengthAdjust="spacing" textLength="110.7148" x="478.4151" y="682.546">nouveau salari&#195;&#169;</text></g><g id="elem_GMN25"><path d="M131,696.6094 L131,739.3125 A0,0 0 0 0 131,739.3125 L308.0825,739.3125 A0,0 0 0 0 308.0825,739.3125 L308.0825,714.6094 L452.99,682.3894 L308.0825,706.6094 L308.0825,706.6094 L298.0825,696.6094 L131,696.6094 A0,0 0 0 0 131,696.6094 " fill="#FEFFDD" style="stroke:#181818;stroke-width:0.5;"/><path d="M298.0825,696.6094 L298.0825,706.6094 L308.0825,706.6094 L298.0825,696.6094 " fill="#FEFFDD" style="stroke:#181818;stroke-width:0.5;"/><text fill="#000000" font-family="sans-serif" font-size="13" lengthAdjust="spacing" textLength="156.0825" x="137" y="715.1045">&#240;&#376;&#8221;&#180; 39 t&#195;&#162;ches manuelles</text><text fill="#000000" font-family="sans-serif" font-size="13" lengthAdjust="spacing" textLength="119.9707" x="137" y="731.4561">8-10h par embauche</text></g><g id="elem_UC6"><ellipse cx="534.053" cy="761.0128" fill="#FFD700" rx="82.053" ry="27.9034" style="stroke:#181818;stroke-width:0.5;"/><text fill="#000000" font-family="sans-serif" font-size="14" lengthAdjust="spacing" textLength="66.9238" x="500.5911" y="755.9366">Offboarder</text><text fill="#000000" font-family="sans-serif" font-size="14" lengthAdjust="spacing" textLength="99.7979" x="484.1541" y="773.546">salari&#195;&#169; sortant</text></g><g id="elem_GMN29"><path d="M131,774.6094 L131,817.3125 A0,0 0 0 0 131,817.3125 L308.0825,817.3125 A0,0 0 0 0 308.0825,817.3125 L308.0825,792.6094 L455.87,769.7394 L308.0825,784.6094 L308.0825,784.6094 L298.0825,774.6094 L131,774.6094 A0,0 0 0 0 131,774.6094 " fill="#FEFFDD" style="stroke:#181818;stroke-width:0.5;"/><path d="M298.0825,774.6094 L298.0825,784.6094 L308.0825,784.6094 L298.0825,774.6094 " fill="#FEFFDD" style="stroke:#181818;stroke-width:0.5;"/><text fill="#000000" font-family="sans-serif" font-size="13" lengthAdjust="spacing" textLength="156.0825" x="137" y="793.1045">&#240;&#376;&#8221;&#180; 22 t&#195;&#162;ches manuelles</text><text fill="#000000" font-family="sans-serif" font-size="13" lengthAdjust="spacing" textLength="99.9121" x="137" y="809.4561">5-6h par d&#195;&#169;part</text></g><g id="elem_UC7"><ellipse cx="219.5369" cy="266.0128" fill="#FFD700" rx="71.0369" ry="27.9034" style="stroke:#181818;stroke-width:0.5;"/><text fill="#000000" font-family="sans-serif" font-size="14" lengthAdjust="spacing" textLength="47.6533" x="195.7103" y="260.9366">G&#195;&#169;rer</text><text fill="#000000" font-family="sans-serif" font-size="14" lengthAdjust="spacing" textLength="84.2188" x="177.4276" y="278.546">int&#195;&#169;rimaires</text></g><g id="elem_GMN33"><path d="M470,238.6094 L470,257.3094 L290.63,264.7594 L470,265.3094 L470,281.3125 A0,0 0 0 0 470,281.3125 L598.4531,281.3125 A0,0 0 0 0 598.4531,281.3125 L598.4531,248.6094 L588.4531,238.6094 L470,238.6094 A0,0 0 0 0 470,238.6094 " fill="#FEFFDD" style="stroke:#181818;stroke-width:0.5;"/><path d="M588.4531,238.6094 L588.4531,248.6094 L598.4531,248.6094 L588.4531,238.6094 " fill="#FEFFDD" style="stroke:#181818;stroke-width:0.5;"/><text fill="#000000" font-family="sans-serif" font-size="13" lengthAdjust="spacing" textLength="101.3276" x="476" y="257.1045">&#240;&#376;&#8221;&#180; Excel isol&#195;&#169;</text><text fill="#000000" font-family="sans-serif" font-size="13" lengthAdjust="spacing" textLength="107.4531" x="476" y="273.4561">Pas d'int&#195;&#169;gration</text></g><g id="elem_UC8"><ellipse cx="533.7987" cy="579.0128" fill="#FF6B6B" rx="64.2987" ry="27.9034" style="stroke:#181818;stroke-width:0.5;"/><text fill="#000000" font-family="sans-serif" font-size="14" lengthAdjust="spacing" textLength="51.3516" x="508.1229" y="573.9366">Calculer</text><text fill="#000000" font-family="sans-serif" font-size="14" lengthAdjust="spacing" textLength="74.6895" x="496.454" y="591.546">tickets resto</text></g><g id="elem_GMN37"><path d="M163,602.6094 L163,661.6641 A0,0 0 0 0 163,661.6641 L275.7554,661.6641 A0,0 0 0 0 275.7554,661.6641 L275.7554,626.6894 L473.76,589.1494 L275.7554,618.6894 L275.7554,612.6094 L265.7554,602.6094 L163,602.6094 A0,0 0 0 0 163,602.6094 " fill="#FEFFDD" style="stroke:#181818;stroke-width:0.5;"/><path d="M265.7554,602.6094 L265.7554,612.6094 L275.7554,612.6094 L265.7554,602.6094 " fill="#FEFFDD" style="stroke:#181818;stroke-width:0.5;"/><text fill="#000000" font-family="sans-serif" font-size="13" lengthAdjust="spacing" textLength="24.5591" x="169" y="621.1045">&#240;&#376;&#8221;&#180;</text><text fill="#000000" font-family="sans-serif" font-size="13" font-weight="bold" lengthAdjust="spacing" textLength="63.5845" x="197.1709" y="621.1045">3h30/mois</text><text fill="#000000" font-family="sans-serif" font-size="13" lengthAdjust="spacing" textLength="79.498" x="169" y="637.4561">100% manuel</text><text fill="#000000" font-family="sans-serif" font-size="13" lengthAdjust="spacing" textLength="72.8838" x="169" y="653.8076">&#194;&#177;5% erreur</text></g><g id="elem_UC9"><ellipse cx="219.4161" cy="539.0128" fill="#FFD700" rx="70.9161" ry="27.9034" style="stroke:#181818;stroke-width:0.5;"/><text fill="#000000" font-family="sans-serif" font-size="14" lengthAdjust="spacing" textLength="47.6533" x="195.5894" y="533.9366">G&#195;&#169;rer</text><text fill="#000000" font-family="sans-serif" font-size="14" lengthAdjust="spacing" textLength="84.0479" x="177.3922" y="551.546">notes de frais</text></g><g id="elem_GMN41"><path d="M472.5,472.6094 L472.5,498.8194 L286.39,529.6194 L472.5,506.8194 L472.5,515.3125 A0,0 0 0 0 472.5,515.3125 L595.3672,515.3125 A0,0 0 0 0 595.3672,515.3125 L595.3672,482.6094 L585.3672,472.6094 L472.5,472.6094 A0,0 0 0 0 472.5,472.6094 " fill="#FEFFDD" style="stroke:#181818;stroke-width:0.5;"/><path d="M585.3672,472.6094 L585.3672,482.6094 L595.3672,482.6094 L585.3672,472.6094 " fill="#FEFFDD" style="stroke:#181818;stroke-width:0.5;"/><text fill="#000000" font-family="sans-serif" font-size="13" lengthAdjust="spacing" textLength="101.8672" x="478.5" y="491.1045">&#240;&#376;&#8221;&#180; Papier/Email</text><text fill="#000000" font-family="sans-serif" font-size="13" lengthAdjust="spacing" textLength="84.5317" x="478.5" y="507.4561">Tickets perdus</text></g><g id="elem_UC10"><ellipse cx="533.853" cy="995.0128" fill="#FF6B6B" rx="53.853" ry="27.9034" style="stroke:#181818;stroke-width:0.5;"/><text fill="#000000" font-family="sans-serif" font-size="14" lengthAdjust="spacing" textLength="59.917" x="503.8945" y="989.9366">Consulter</text><text fill="#000000" font-family="sans-serif" font-size="14" lengthAdjust="spacing" textLength="53.6758" x="507.0151" y="1007.546">KPIs RH</text></g><g id="elem_GMN45"><path d="M146,852.6094 L146,895.3125 L292.9248,895.3125 L292.9248,862.6094 L282.9248,852.6094 L146,852.6094 " fill="#FEFFDD" style="stroke:#181818;stroke-width:0.5;"/><path d="M282.9248,852.6094 L282.9248,862.6094 L292.9248,862.6094 L282.9248,852.6094 " fill="#FEFFDD" style="stroke:#181818;stroke-width:1;"/><text fill="#000000" font-family="sans-serif" font-size="13" lengthAdjust="spacing" textLength="90.3081" x="152" y="871.1045">&#240;&#376;&#8221;&#180; Impossible</text><text fill="#000000" font-family="sans-serif" font-size="13" lengthAdjust="spacing" textLength="125.9248" x="152" y="887.4561">Donn&#195;&#169;es manuelles</text></g><g id="elem_UC11"><ellipse cx="219.5564" cy="357.0128" fill="#FF6B6B" rx="50.5564" ry="27.9034" style="stroke:#181818;stroke-width:0.5;"/><text fill="#000000" font-family="sans-serif" font-size="14" lengthAdjust="spacing" textLength="52.917" x="193.0979" y="351.9366">Produire</text><text fill="#000000" font-family="sans-serif" font-size="14" lengthAdjust="spacing" textLength="55.2549" x="191.9289" y="369.546">reporting</text></g><g id="elem_GMN49"><path d="M459.5,316.6094 L459.5,338.5894 L270.02,354.0894 L459.5,346.5894 L459.5,359.3125 A0,0 0 0 0 459.5,359.3125 L608.5894,359.3125 A0,0 0 0 0 608.5894,359.3125 L608.5894,326.6094 L598.5894,316.6094 L459.5,316.6094 A0,0 0 0 0 459.5,316.6094 " fill="#FEFFDD" style="stroke:#181818;stroke-width:0.5;"/><path d="M598.5894,316.6094 L598.5894,326.6094 L608.5894,326.6094 L598.5894,316.6094 " fill="#FEFFDD" style="stroke:#181818;stroke-width:0.5;"/><text fill="#000000" font-family="sans-serif" font-size="13" lengthAdjust="spacing" textLength="127.9053" x="465.5" y="335.1045">&#240;&#376;&#8221;&#180; 3h pour 1 rapport</text><text fill="#000000" font-family="sans-serif" font-size="13" lengthAdjust="spacing" textLength="128.0894" x="465.5" y="351.4561">Donn&#195;&#169;es obsol&#195;&#168;tes</text></g><g id="elem_Popaye"><ellipse cx="962.6999" cy="2124.0128" fill="#FFD700" rx="52.1999" ry="27.9034" style="stroke:#181818;stroke-width:0.5;"/><text fill="#000000" font-family="sans-serif" font-size="14" lengthAdjust="spacing" textLength="57.5791" x="933.9103" y="2118.9366">POPAYE</text><text fill="#000000" font-family="sans-serif" font-size="14" lengthAdjust="spacing" textLength="52.1104" x="936.6447" y="2136.546">(Temps)</text></g><g id="elem_Sage"><ellipse cx="962.7474" cy="1954.2077" fill="#FF6B6B" rx="62.2474" ry="15.5983" style="stroke:#181818;stroke-width:0.5;"/><text fill="#000000" font-family="sans-serif" font-size="14" lengthAdjust="spacing" textLength="70.8135" x="924.3407" y="1958.7243">SAGE Paie</text></g><g id="elem_Silae"><ellipse cx="962.695" cy="2215.0128" fill="#FFA07A" rx="52.195" ry="27.9034" style="stroke:#181818;stroke-width:0.5;"/><text fill="#000000" font-family="sans-serif" font-size="14" lengthAdjust="spacing" textLength="39.6895" x="942.8503" y="2209.9366">SILAE</text><text fill="#000000" font-family="sans-serif" font-size="14" lengthAdjust="spacing" textLength="57.5723" x="933.9089" y="2227.546">(Externe)</text></g><g id="elem_Swile"><ellipse cx="962.2907" cy="2033.0128" fill="#F1F1F1" rx="42.2907" ry="27.9034" style="stroke:#181818;stroke-width:0.5;"/><text fill="#000000" font-family="sans-serif" font-size="14" lengthAdjust="spacing" textLength="43.5654" x="940.508" y="2027.9366">SWILE</text><text fill="#000000" font-family="sans-serif" font-size="14" lengthAdjust="spacing" textLength="27.9863" x="948.2975" y="2045.546">(TR)</text></g><g id="elem_Excel"><ellipse cx="962.6934" cy="1667.0128" fill="#FFD700" rx="74.1934" ry="27.9034" style="stroke:#181818;stroke-width:0.5;"/><text fill="#000000" font-family="sans-serif" font-size="14" lengthAdjust="spacing" textLength="34.2344" x="945.5762" y="1661.9366">Excel</text><text fill="#000000" font-family="sans-serif" font-size="14" lengthAdjust="spacing" textLength="88.6826" x="918.3521" y="1679.546">(&#195;&#8212;7 fichiers)</text></g><g id="elem_Email"><ellipse cx="962.7389" cy="1588.0611" fill="#F1F1F1" rx="36.2389" ry="15.4517" style="stroke:#181818;stroke-width:0.5;"/><text fill="#000000" font-family="sans-serif" font-size="14" lengthAdjust="spacing" textLength="35.0068" x="945.2354" y="1591.7896">Email</text></g><g id="elem_Paper"><ellipse cx="962.5841" cy="1875.0128" fill="#FF6B6B" rx="56.5841" ry="27.9034" style="stroke:#181818;stroke-width:0.5;"/><text fill="#000000" font-family="sans-serif" font-size="14" lengthAdjust="spacing" textLength="40.4688" x="942.3497" y="1869.9366">Papier</text><text fill="#000000" font-family="sans-serif" font-size="14" lengthAdjust="spacing" textLength="63.7793" x="930.6944" y="1887.546">(Dossiers)</text></g><g id="elem_Others"><ellipse cx="962.3116" cy="1770.9645" fill="#F1F1F1" rx="53.3116" ry="40.3551" style="stroke:#181818;stroke-width:0.5;"/><text fill="#000000" font-family="sans-serif" font-size="14" lengthAdjust="spacing" textLength="56.0137" x="934.3048" y="1757.0836">Empowill</text><text fill="#000000" font-family="sans-serif" font-size="14" lengthAdjust="spacing" textLength="59.1514" x="932.7359" y="1774.693">Radiance</text><text fill="#000000" font-family="sans-serif" font-size="14" lengthAdjust="spacing" textLength="52.8965" x="935.8634" y="1792.3024">CIBTP...</text></g><!--entity Sophie--><g id="elem_Sophie"><ellipse cx="36.7964" cy="1214.1094" fill="#FFB6C1" rx="8" ry="8" style="stroke:#181818;stroke-width:0.5;"/><path d="M36.7964,1222.1094 L36.7964,1249.1094 M23.7964,1230.1094 L49.7964,1230.1094 M36.7964,1249.1094 L23.7964,1264.1094 M36.7964,1249.1094 L49.7964,1264.1094 " fill="none" style="stroke:#181818;stroke-width:0.5;"/><text fill="#000000" font-family="sans-serif" font-size="14" lengthAdjust="spacing" textLength="43.5928" x="15" y="1280.1426">Sophie</text><text fill="#000000" font-family="sans-serif" font-size="14" lengthAdjust="spacing" textLength="29.5449" x="15" y="1297.752">(RH)</text></g><!--entity Mgr--><g id="elem_Mgr"><ellipse cx="37.1274" cy="1344.6094" fill="#FFDAB9" rx="8" ry="8" style="stroke:#181818;stroke-width:0.5;"/><path d="M37.1274,1352.6094 L37.1274,1379.6094 M24.1274,1360.6094 L50.1274,1360.6094 M37.1274,1379.6094 L24.1274,1394.6094 M37.1274,1379.6094 L50.1274,1394.6094 " fill="none" style="stroke:#181818;stroke-width:0.5;"/><text fill="#000000" font-family="sans-serif" font-size="14" lengthAdjust="spacing" textLength="62.2549" x="6" y="1410.6426">Managers</text></g><!--entity Sal--><g id="elem_Sal"><ellipse cx="37.2231" cy="1457.6094" fill="#ADD8E6" rx="8" ry="8" style="stroke:#181818;stroke-width:0.5;"/><path d="M37.2231,1465.6094 L37.2231,1492.6094 M24.2231,1473.6094 L50.2231,1473.6094 M37.2231,1492.6094 L24.2231,1507.6094 M37.2231,1492.6094 L50.2231,1507.6094 " fill="none" style="stroke:#181818;stroke-width:0.5;"/><text fill="#000000" font-family="sans-serif" font-size="14" lengthAdjust="spacing" textLength="62.4463" x="6" y="1523.6426">Salari&#195;&#169;s</text></g><!--entity Virg--><g id="elem_Virg"><ellipse cx="219.4653" cy="2460.1094" fill="#DDA0DD" rx="8" ry="8" style="stroke:#181818;stroke-width:0.5;"/><path d="M219.4653,2468.1094 L219.4653,2495.1094 M206.4653,2476.1094 L232.4653,2476.1094 M219.4653,2495.1094 L206.4653,2510.1094 M219.4653,2495.1094 L232.4653,2510.1094 " fill="none" style="stroke:#181818;stroke-width:0.5;"/><text fill="#000000" font-family="sans-serif" font-size="14" lengthAdjust="spacing" textLength="46.6895" x="175.5" y="2526.1426">Virginie</text><text fill="#000000" font-family="sans-serif" font-size="14" lengthAdjust="spacing" textLength="87.9307" x="175.5" y="2543.752">(Paie externe)</text></g><!--entity DG--><g id="elem_DG"><ellipse cx="37.1206" cy="1571.1094" fill="#DDA0DD" rx="8" ry="8" style="stroke:#181818;stroke-width:0.5;"/><path d="M37.1206,1579.1094 L37.1206,1606.1094 M24.1206,1587.1094 L50.1206,1587.1094 M37.1206,1606.1094 L24.1206,1621.1094 M37.1206,1606.1094 L50.1206,1621.1094 " fill="none" style="stroke:#181818;stroke-width:0.5;"/><text fill="#000000" font-family="sans-serif" font-size="14" lengthAdjust="spacing" textLength="55.2412" x="9.5" y="1637.1426">Christine</text><text fill="#000000" font-family="sans-serif" font-size="14" lengthAdjust="spacing" textLength="30.3242" x="9.5" y="1654.752">(DG)</text></g><g id="elem_GMN100"><path d="M817,44.6094 L817,185.4219 L1108.1626,185.4219 L1108.1626,54.6094 L1098.1626,44.6094 L817,44.6094 " fill="#FEFFDD" style="stroke:#181818;stroke-width:0.5;"/><path d="M1098.1626,44.6094 L1098.1626,54.6094 L1108.1626,54.6094 L1098.1626,44.6094 " fill="#FEFFDD" style="stroke:#181818;stroke-width:1;"/><text fill="#000000" font-family="sans-serif" font-size="13" font-weight="bold" lengthAdjust="spacing" textLength="154.5654" x="823" y="63.1045">PROBL&#195;&#710;MES MAJEURS</text><text fill="#000000" font-family="sans-serif" font-size="13" lengthAdjust="spacing" textLength="181.3843" x="823" y="79.4561">&#240;&#376;&#8221;&#180; 15+ outils non int&#195;&#169;gr&#195;&#169;s</text><text fill="#000000" font-family="sans-serif" font-size="13" lengthAdjust="spacing" textLength="270.1626" x="823" y="95.8076">&#240;&#376;&#8221;&#180; Re-saisie 6-8 fois des m&#195;&#170;mes donn&#195;&#169;es</text><text fill="#000000" font-family="sans-serif" font-size="13" lengthAdjust="spacing" textLength="177.7407" x="823" y="112.1592">&#240;&#376;&#8221;&#180; Pas de workflows digitaux</text><text fill="#000000" font-family="sans-serif" font-size="13" lengthAdjust="spacing" textLength="204.1089" x="823" y="128.5107">&#240;&#376;&#8221;&#180; Pas de visibilit&#195;&#169; temps r&#195;&#169;el</text><text fill="#000000" font-family="sans-serif" font-size="13" lengthAdjust="spacing" textLength="221.8442" x="823" y="144.8623">&#240;&#376;&#8221;&#180; 100% manuel, 0% automatisation</text><text fill="#000000" font-family="sans-serif" font-size="13" lengthAdjust="spacing" textLength="231.5625" x="823" y="161.2139">&#240;&#376;&#8217;&#176; Co&#195;&#187;t: temps consid&#195;&#169;rable perdu</text><text fill="#000000" font-family="sans-serif" font-size="13" lengthAdjust="spacing" textLength="188.5825" x="823" y="177.5654">&#226;&#65533;&#176; 850h/an de temps gaspill&#195;&#169;</text></g><!--link UC1 to GMN9--><g id="link_UC1_GMN9"><path d="M578.47,1190.7394 C600.99,1188.6594 628.95,1186.3594 654,1185.1094 C740.12,1180.7894 839.96,1179.9294 901.94,1179.8794 " fill="none" id="UC1-GMN9" style="stroke:#181818;stroke-width:1;stroke-dasharray:7.0,7.0;"/></g><!--link GMN45 to UC10--><g id="link_GMN45_UC10"><path d="M293.46,863.6494 C330.88,861.2994 376.38,863.2294 414,879.1094 C436.99,888.8094 483.26,938.3694 510.84,969.4894 " fill="none" id="GMN45-UC10" style="stroke:#181818;stroke-width:1;stroke-dasharray:7.0,7.0;"/></g><!--link Sophie to UC1--><g id="link_Sophie_UC1"><path d="M42.07,1205.5694 C48.94,1138.1494 65.39,1020.0194 98,994.1094 C166.79,939.4294 413.3951,1108.3476 499.2151,1170.2976 " fill="none" id="Sophie-to-UC1" style="stroke:#181818;stroke-width:1;"/><polygon fill="#181818" points="504.08,1173.8094,499.1238,1165.2984,500.0259,1170.8829,494.4414,1171.785,504.08,1173.8094" style="stroke:#181818;stroke-width:1;"/></g><!--link Sophie to UC3--><g id="link_Sophie_UC3"><path d="M42.69,1205.5594 C49,1164.1894 63.74,1104.7794 98,1065.1094 C111.93,1048.9694 371.2101,927.3206 480.7301,876.3606 " fill="none" id="Sophie-to-UC3" style="stroke:#181818;stroke-width:1;"/><polygon fill="#181818" points="486.17,873.8294,476.3226,873.9996,481.6367,875.9387,479.6976,881.2528,486.17,873.8294" style="stroke:#181818;stroke-width:1;"/></g><!--link Sophie to UC5--><g id="link_Sophie_UC5"><path d="M59.27,1232.0394 C72.24,1220.0394 89.63,1205.3894 107,1195.1094 C189.45,1146.2794 235,1179.1694 308,1117.1094 C328.03,1100.0694 319.34,1084.6394 338,1066.1094 C365.69,1038.5994 392.88,1054.9294 414,1022.1094 C488.18,906.8094 366.59,828.2494 444,715.1094 C451.04,704.8194 455.96,699.7526 466.87,693.4726 " fill="none" id="Sophie-to-UC5" style="stroke:#181818;stroke-width:1;"/><polygon fill="#181818" points="472.07,690.4794,462.2744,691.5025,467.7366,692.9737,466.2654,698.4359,472.07,690.4794" style="stroke:#181818;stroke-width:1;"/></g><!--link Sophie to UC6--><g id="link_Sophie_UC6"><path d="M59.25,1254.2794 C109.17,1255.8594 235.18,1252.7694 308,1188.1094 C336.7,1162.6094 313.26,1136.4594 338,1107.1094 C363.15,1077.2594 392.57,1095.7294 414,1063.1094 C477.13,966.9794 378.17,900.3994 444,806.1094 C451.53,795.3194 457.1874,789.8694 468.7974,783.4594 " fill="none" id="Sophie-to-UC6" style="stroke:#181818;stroke-width:1;"/><polygon fill="#181818" points="474.05,780.5594,464.2377,781.4077,469.6728,782.9761,468.1044,788.4111,474.05,780.5594" style="stroke:#181818;stroke-width:1;"/></g><!--link Sophie to UC7--><g id="link_Sophie_UC7"><path d="M41,1205.3694 C49.2,1076.5294 72.99,710.8694 98,407.1094 C101.52,364.3994 81.4,345.4694 107,311.1094 C118.79,295.2894 131.4189,287.0534 149.7989,280.3934 " fill="none" id="Sophie-to-UC7" style="stroke:#181818;stroke-width:1;"/><polygon fill="#181818" points="155.44,278.3494,145.6157,277.6547,150.7391,280.0527,148.3411,285.1762,155.44,278.3494" style="stroke:#181818;stroke-width:1;"/></g><!--link Sophie to UC8--><g id="link_Sophie_UC8"><path d="M58.77,1205.3494 C70.71,1181.1894 87.25,1152.3594 107,1130.1094 C219.11,1003.7794 329.6,1052.4094 414,906.1094 C476.98,796.9294 372.38,727.8194 444,624.1094 C452.85,611.2794 461.079,604.5227 475.029,597.7727 " fill="none" id="Sophie-to-UC8" style="stroke:#181818;stroke-width:1;"/><polygon fill="#181818" points="480.43,595.1594,470.5863,595.4788,475.9292,597.3372,474.0708,602.6801,480.43,595.1594" style="stroke:#181818;stroke-width:1;"/></g><!--link Sophie to UC10--><g id="link_Sophie_UC10"><path d="M59.3,1261.6094 C108.78,1279.8394 232.98,1316.5394 308,1259.1094 C348.58,1228.0394 306.87,1188.6294 338,1148.1094 C361.78,1117.1494 387.62,1132.8694 414,1104.1094 C435.23,1080.9494 422.12,1062.6494 444,1040.1094 C456.3,1027.4294 467.472,1020.2014 483.022,1013.1014 " fill="none" id="Sophie-to-UC10" style="stroke:#181818;stroke-width:1;"/><polygon fill="#181818" points="488.48,1010.6094,478.6316,1010.7088,483.9317,1012.6861,481.9544,1017.9861,488.48,1010.6094" style="stroke:#181818;stroke-width:1;"/></g><!--link Sophie to UC11--><g id="link_Sophie_UC11"><path d="M39.34,1205.5094 C43.33,1080.3794 57.5,732.0294 98,445.1094 C100.73,425.7694 94.47,417.0794 107,402.1094 C123.08,382.8894 142.8051,373.4374 165.3651,367.0774 " fill="none" id="Sophie-to-UC11" style="stroke:#181818;stroke-width:1;"/><polygon fill="#181818" points="171.14,365.4494,161.3923,364.0415,166.3276,366.8061,163.563,371.7414,171.14,365.4494" style="stroke:#181818;stroke-width:1;"/></g><!--link Sophie to Popaye--><g id="link_Sophie_Popaye"><path d="M59.08,1292.8394 C62.62,1300.9994 65.84,1309.6794 68,1318.1094 C95.63,1425.8494 37.57,1730.2094 107,1817.1094 C133.23,1849.9394 777.25,2064.4794 817,2078.1094 C850.25,2089.4994 882.3906,2099.7377 911.0106,2108.6377 " fill="none" id="Sophie-to-Popaye" style="stroke:#181818;stroke-width:1;stroke-dasharray:7.0,7.0;"/><polygon fill="#181818" points="916.74,2110.4194,909.3337,2103.9273,911.9655,2108.9347,906.9582,2111.5664,916.74,2110.4194" style="stroke:#181818;stroke-width:1;"/><text fill="#000000" font-family="sans-serif" font-size="13" lengthAdjust="spacing" textLength="33.2363" x="359.5" y="1910.6045">utilise</text></g><!--link Sophie to Sage--><g id="link_Sophie_Sage"><path d="M59.04,1292.4594 C62.64,1300.7194 65.88,1309.5394 68,1318.1094 C83.47,1380.7494 54.54,1850.3994 98,1898.1094 C205.55,2016.1694 724.1474,1977.3221 898.8274,1960.5721 " fill="none" id="Sophie-to-Sage" style="stroke:#181818;stroke-width:1;stroke-dasharray:7.0,7.0;"/><polygon fill="#181818" points="904.8,1959.9994,895.4593,1956.8767,899.8228,1960.4766,896.2229,1964.8402,904.8,1959.9994" style="stroke:#181818;stroke-width:1;"/><text fill="#000000" font-family="sans-serif" font-size="13" lengthAdjust="spacing" textLength="33.2363" x="359.5" y="1969.6045">utilise</text></g><!--link Sophie to Excel--><g id="link_Sophie_Excel"><path d="M59.15,1293.2094 C62.64,1301.2694 65.82,1309.8094 68,1318.1094 C88.8,1397.2494 42,1625.4394 98,1685.1094 C205.43,1799.5594 708.8461,1715.8727 890.8061,1681.1927 " fill="none" id="Sophie-to-Excel" style="stroke:#181818;stroke-width:1;stroke-dasharray:7.0,7.0;"/><polygon fill="#181818" points="896.7,1680.0694,887.1103,1677.8251,891.7884,1681.0055,888.608,1685.6836,896.7,1680.0694" style="stroke:#181818;stroke-width:1;"/><text fill="#000000" font-family="sans-serif" font-size="13" lengthAdjust="spacing" textLength="74.4072" x="339" y="1738.6045">utilise (&#195;&#8212;7)</text></g><!--link Sophie to Email--><g id="link_Sophie_Email"><path d="M59.03,1267.7794 C72.48,1276.9294 90.46,1288.7094 107,1298.1094 C252,1380.4794 287.13,1406.5194 444,1463.1094 C621.8,1527.2294 839.8547,1567.6648 922.7647,1581.7448 " fill="none" id="Sophie-to-Email" style="stroke:#181818;stroke-width:1;stroke-dasharray:7.0,7.0;"/><polygon fill="#181818" points="928.68,1582.7494,920.4767,1577.299,923.7506,1581.9122,919.1373,1585.1861,928.68,1582.7494" style="stroke:#181818;stroke-width:1;"/><text fill="#000000" font-family="sans-serif" font-size="13" lengthAdjust="spacing" textLength="33.2363" x="359.5" y="1419.6045">utilise</text></g><!--link Sophie to Paper--><g id="link_Sophie_Paper"><path d="M59.13,1298.0694 C62.17,1304.7594 65.2,1311.5994 68,1318.1094 C86.5,1361.1794 76.4,1380.5994 107,1416.1094 C338.42,1684.6194 761.2292,1820.2824 906.2692,1860.6024 " fill="none" id="Sophie-to-Paper" style="stroke:#181818;stroke-width:1;stroke-dasharray:7.0,7.0;"/><polygon fill="#181818" points="912.05,1862.2094,904.4502,1855.945,907.2327,1860.8702,902.3075,1863.6527,912.05,1862.2094" style="stroke:#181818;stroke-width:1;"/><text fill="#000000" font-family="sans-serif" font-size="13" lengthAdjust="spacing" textLength="33.2363" x="359.5" y="1614.6045">utilise</text></g><!--link Sophie to Others--><g id="link_Sophie_Others"><path d="M59.01,1292.8494 C62.55,1301.0194 65.8,1309.6894 68,1318.1094 C92.42,1411.3494 36.35,1684.5294 107,1750.1094 C223.45,1858.1794 736.9609,1800.9293 903.7909,1779.0593 " fill="none" id="Sophie-to-Others" style="stroke:#181818;stroke-width:1;stroke-dasharray:7.0,7.0;"/><polygon fill="#181818" points="909.74,1778.2794,900.2964,1775.4831,904.7824,1778.9293,901.3363,1783.4153,909.74,1778.2794" style="stroke:#181818;stroke-width:1;"/><text fill="#000000" font-family="sans-serif" font-size="13" lengthAdjust="spacing" textLength="33.2363" x="359.5" y="1808.6045">utilise</text></g><!--link Sophie to Swile--><g id="link_Sophie_Swile"><path d="M59.05,1292.4594 C62.64,1300.7194 65.89,1309.5394 68,1318.1094 C85.58,1389.4294 54.74,1926.4794 107,1978.1094 C165.27,2035.6594 750.4402,2034.9282 913.8502,2033.5982 " fill="none" id="Sophie-to-Swile" style="stroke:#181818;stroke-width:1;stroke-dasharray:7.0,7.0;"/><polygon fill="#181818" points="919.85,2033.5494,910.8177,2029.6228,914.8502,2033.5901,910.8829,2037.6225,919.85,2033.5494" style="stroke:#181818;stroke-width:1;"/><text fill="#000000" font-family="sans-serif" font-size="13" lengthAdjust="spacing" textLength="33.2363" x="359.5" y="2017.6045">utilise</text></g><!--link Mgr to UC3--><g id="link_Mgr_UC3"><path d="M68.05,1370.2294 C143.53,1356.1294 340.3,1307.5594 414,1175.1094 C463.27,1086.5594 401.1,1040.8994 444,949.1094 C457.16,920.9494 476.9933,899.3355 496.8733,881.5055 " fill="none" id="Mgr-to-UC3" style="stroke:#181818;stroke-width:1;"/><polygon fill="#181818" points="501.34,877.4994,491.9692,880.5307,497.6178,880.8378,497.3107,886.4863,501.34,877.4994" style="stroke:#181818;stroke-width:1;"/></g><!--link Mgr to UC4--><g id="link_Mgr_UC4"><path d="M61.51,1335.8594 C64.13,1330.0694 66.41,1324.0494 68,1318.1094 C114.38,1144.2894 49.2,682.2594 98,509.1094 C106.17,480.0994 130.7279,466.4874 158.9179,458.4874 " fill="none" id="Mgr-to-UC4" style="stroke:#181818;stroke-width:1;"/><polygon fill="#181818" points="164.69,456.8494,154.9399,455.4584,159.8799,458.2144,157.1239,463.1545,164.69,456.8494" style="stroke:#181818;stroke-width:1;"/></g><!--link Mgr to Popaye--><g id="link_Mgr_Popaye"><path d="M61.76,1414.2594 C64.26,1419.7594 66.45,1425.4694 68,1431.1094 C89.65,1510.0794 44.58,2114.0994 107,2167.1094 C229.21,2270.8794 747.0727,2170.3142 908.2427,2135.8442 " fill="none" id="Mgr-to-Popaye" style="stroke:#181818;stroke-width:1;stroke-dasharray:7.0,7.0;"/><polygon fill="#181818" points="914.11,2134.5894,904.4725,2132.5601,909.2206,2135.6351,906.1456,2140.3832,914.11,2134.5894" style="stroke:#181818;stroke-width:1;"/><text fill="#000000" font-family="sans-serif" font-size="13" lengthAdjust="spacing" textLength="33.2363" x="359.5" y="2206.6045">utilise</text></g><!--link Mgr to Email--><g id="link_Mgr_Email"><path d="M61.73,1414.2694 C64.24,1419.7694 66.44,1425.4694 68,1431.1094 C86.1,1496.3894 52.44,1989.9694 98,2040.1094 C193.03,2144.6794 285.12,2133.0394 414,2075.1094 C660.09,1964.4894 584.85,1758.5894 817,1621.1094 C850.88,1601.0394 889.8999,1593.7677 920.6299,1590.6877 " fill="none" id="Mgr-to-Email" style="stroke:#181818;stroke-width:1;stroke-dasharray:7.0,7.0;"/><polygon fill="#181818" points="926.6,1590.0894,917.246,1587.0069,921.6249,1590.588,918.0438,1594.967,926.6,1590.0894" style="stroke:#181818;stroke-width:1;"/><text fill="#000000" font-family="sans-serif" font-size="13" lengthAdjust="spacing" textLength="33.2363" x="359.5" y="2071.6045">utilise</text></g><!--link Mgr to Paper--><g id="link_Mgr_Paper"><path d="M61.73,1414.2694 C64.24,1419.7694 66.44,1425.4694 68,1431.1094 C88.67,1505.7494 49.66,2075.0294 107,2127.1094 C192.6,2204.8494 520.97,2120.5994 624,2068.1094 C720.08,2019.1594 721.34,1970.8494 817,1921.1094 C846.66,1905.6794 876.6631,1895.7871 905.2031,1888.1671 " fill="none" id="Mgr-to-Paper" style="stroke:#181818;stroke-width:1;stroke-dasharray:7.0,7.0;"/><polygon fill="#181818" points="911,1886.6194,901.2728,1885.0764,906.1692,1887.9092,903.3364,1892.8056,911,1886.6194" style="stroke:#181818;stroke-width:1;"/><text fill="#000000" font-family="sans-serif" font-size="13" lengthAdjust="spacing" textLength="33.2363" x="359.5" y="2132.6045">utilise</text></g><!--link Sal to UC2--><g id="link_Sal_UC2"><path d="M68.08,1485.5194 C148.86,1477.9294 367.54,1452.9194 414,1401.1094 C489.3,1317.1294 386.33,1246.0394 444,1149.1094 C454.16,1132.0194 465.8727,1121.5305 482.1527,1111.3505 " fill="none" id="Sal-to-UC2" style="stroke:#181818;stroke-width:1;"/><polygon fill="#181818" points="487.24,1108.1694,477.4883,1109.5495,483.0006,1110.8203,481.7298,1116.3326,487.24,1108.1694" style="stroke:#181818;stroke-width:1;"/></g><!--link Sal to UC4--><g id="link_Sal_UC4"><path d="M61.52,1448.8594 C64.13,1443.0694 66.42,1437.0494 68,1431.1094 C116.62,1248.2294 84.92,768.8794 98,580.1094 C99.34,560.7194 95.31,508.6394 107,493.1094 C120.93,474.5894 138.0045,465.3981 159.3745,458.9681 " fill="none" id="Sal-to-UC4" style="stroke:#181818;stroke-width:1;"/><polygon fill="#181818" points="165.12,457.2394,155.3492,456.0022,160.332,458.68,157.6542,463.6629,165.12,457.2394" style="stroke:#181818;stroke-width:1;"/></g><!--link Sal to UC9--><g id="link_Sal_UC9"><path d="M61.46,1448.8394 C64.08,1443.0594 66.39,1437.0394 68,1431.1094 C92.67,1340.2994 52.88,662.0794 107,585.1094 C118.5,568.7494 131.3048,560.2496 149.9048,553.4496 " fill="none" id="Sal-to-UC9" style="stroke:#181818;stroke-width:1;"/><polygon fill="#181818" points="155.54,551.3894,145.7137,550.7228,150.844,553.1062,148.4606,558.2365,155.54,551.3894" style="stroke:#181818;stroke-width:1;"/></g><!--link Sal to Popaye--><g id="link_Sal_Popaye"><path d="M61.48,1527.3594 C64.1,1533.1494 66.4,1539.1694 68,1545.1094 C90.43,1628.3594 43.83,2261.4194 107,2320.1094 C218.06,2423.2794 678.49,2371.9494 787,2266.1094 C819.3,2234.5994 785.12,2201.0494 817,2169.1094 C841.78,2144.2794 874.0872,2134.069 905.0072,2129.059 " fill="none" id="Sal-to-Popaye" style="stroke:#181818;stroke-width:1;stroke-dasharray:7.0,7.0;"/><polygon fill="#181818" points="910.93,2128.0994,901.4061,2125.5904,905.9944,2128.8991,902.6856,2133.4874,910.93,2128.0994" style="stroke:#181818;stroke-width:1;"/><text fill="#000000" font-family="sans-serif" font-size="13" lengthAdjust="spacing" textLength="33.2363" x="359.5" y="2371.6045">utilise</text></g><!--link Sal to Paper--><g id="link_Sal_Paper"><path d="M61.48,1527.3594 C64.1,1533.1494 66.4,1539.1694 68,1545.1094 C88.5,1621.1294 45.25,2194.6494 98,2253.1094 C201.12,2367.3794 687.35,2299.4194 787,2182.1094 C862.59,2093.1094 742.81,2011.2694 817,1921.1094 C838.66,1894.7794 869.4636,1884.2561 900.4636,1879.3561 " fill="none" id="Sal-to-Paper" style="stroke:#181818;stroke-width:1;stroke-dasharray:7.0,7.0;"/><polygon fill="#181818" points="906.39,1878.4194,896.8759,1875.8736,901.4513,1879.2,898.1249,1883.7755,906.39,1878.4194" style="stroke:#181818;stroke-width:1;"/><text fill="#000000" font-family="sans-serif" font-size="13" lengthAdjust="spacing" textLength="33.2363" x="359.5" y="2304.6045">utilise</text></g><!--link Virg to UC1--><g id="link_Virg_UC1"><path d="M222.49,2451.3594 C230.1,2283.5494 260.9,1722.2994 338,1562.1094 C358.99,1518.4894 387.41,1524.5494 414,1484.1094 C471.67,1396.3694 508.4944,1281.9164 523.8444,1228.4464 " fill="none" id="Virg-to-UC1" style="stroke:#181818;stroke-width:1;"/><polygon fill="#181818" points="525.5,1222.6794,519.1719,1230.2262,524.1203,1227.4853,526.8613,1232.4337,525.5,1222.6794" style="stroke:#181818;stroke-width:1;"/></g><!--link Virg to Silae--><g id="link_Virg_Silae"><path d="M263.76,2520.8594 C285.72,2531.5194 312.99,2544.1594 338,2554.1094 C523.44,2627.8194 628.56,2675.4194 787,2554.1094 C893.16,2472.8194 939.0848,2314.5843 954.2948,2248.9843 " fill="none" id="Virg-to-Silae" style="stroke:#181818;stroke-width:1;stroke-dasharray:7.0,7.0;"/><polygon fill="#181818" points="955.65,2243.1394,949.7206,2251.0033,954.5207,2248.0102,957.5138,2252.8103,955.65,2243.1394" style="stroke:#181818;stroke-width:1;"/><text fill="#000000" font-family="sans-serif" font-size="13" lengthAdjust="spacing" textLength="33.2363" x="517.5" y="2591.6045">utilise</text></g><!--link Virg to Excel--><g id="link_Virg_Excel"><path d="M263.64,2504.0994 C384.27,2516.9594 720.63,2544.9694 787,2466.1094 C840.91,2402.0394 766.25,1779.6994 817,1713.1094 C834.23,1690.4894 856.7915,1680.0648 883.8815,1674.0748 " fill="none" id="Virg-to-Excel" style="stroke:#181818;stroke-width:1;stroke-dasharray:7.0,7.0;"/><polygon fill="#181818" points="889.74,1672.7794,880.0887,1670.8168,884.8579,1673.8589,881.8159,1678.6281,889.74,1672.7794" style="stroke:#181818;stroke-width:1;"/><text fill="#000000" font-family="sans-serif" font-size="13" lengthAdjust="spacing" textLength="87.4326" x="490.5" y="2512.6045">re&#195;&#167;oit exports</text></g><!--link Virg to Email--><g id="link_Virg_Email"><path d="M263.59,2485.5894 C375.46,2447.8694 674.23,2329.5794 787,2111.1094 C837.04,2014.1594 746.41,1704.2794 817,1621.1094 C843.64,1589.7094 887.4311,1584.5569 921.0211,1585.1869 " fill="none" id="Virg-to-Email" style="stroke:#181818;stroke-width:1;stroke-dasharray:7.0,7.0;"/><polygon fill="#181818" points="927.02,1585.2994,918.0966,1581.1313,922.0209,1585.2056,917.9466,1589.1299,927.02,1585.2994" style="stroke:#181818;stroke-width:1;"/><text fill="#000000" font-family="sans-serif" font-size="13" lengthAdjust="spacing" textLength="33.2363" x="517.5" y="2299.6045">utilise</text></g><!--link DG to UC10--><g id="link_DG_UC10"><path d="M64.72,1595.4294 C136.07,1554.6194 331.3,1431.9494 414,1269.1094 C460.48,1177.5794 384.65,1123.8594 444,1040.1094 C454.21,1025.6994 464.9115,1018.0206 480.7115,1011.1206 " fill="none" id="DG-to-UC10" style="stroke:#181818;stroke-width:1;"/><polygon fill="#181818" points="486.21,1008.7194,476.3613,1008.6556,481.6279,1010.7204,479.563,1015.987,486.21,1008.7194" style="stroke:#181818;stroke-width:1;"/></g><!--link DG to UC11--><g id="link_DG_UC11"><path d="M62.22,1562.5794 C64.54,1556.4794 66.56,1550.2294 68,1544.1094 C75.25,1513.1994 88.8,428.1094 107,402.1094 C121.54,381.3294 141.5931,371.6394 164.7431,365.6194 " fill="none" id="DG-to-UC11" style="stroke:#181818;stroke-width:1;"/><polygon fill="#181818" points="170.55,364.1094,160.833,362.5032,165.7109,365.3677,162.8464,370.2457,170.55,364.1094" style="stroke:#181818;stroke-width:1;"/></g><!--link UC1 to UC2--><g id="link_UC1_UC2"><path d="M534,1167.0394 C534,1150.8894 534,1136.6494 534,1120.4594 " fill="none" id="UC1-to-UC2" style="stroke:#181818;stroke-width:1;stroke-dasharray:7.0,7.0;"/><polygon fill="#181818" points="534,1114.4594,530,1123.4594,534,1119.4594,538,1123.4594,534,1114.4594" style="stroke:#181818;stroke-width:1;"/><text fill="#000000" font-family="sans-serif" font-size="13" lengthAdjust="spacing" textLength="55.6563" x="494.5" y="1146.1045">&#171;include&#187;</text></g><!--link UC1 to UC3--><g id="link_UC1_UC3"><path d="M498.85,1177.5294 C480.12,1166.5294 458.1,1150.7194 444,1131.1094 C410.18,1084.0594 336.22,924.4494 373.5,880.1094 C394.34,855.3094 422.6569,847.3862 454.2069,845.8762 " fill="none" id="UC1-to-UC3" style="stroke:#181818;stroke-width:1;stroke-dasharray:7.0,7.0;"/><polygon fill="#181818" points="460.2,845.5894,451.0191,842.0242,455.2057,845.8284,451.4015,850.0151,460.2,845.5894" style="stroke:#181818;stroke-width:1;"/><text fill="#000000" font-family="sans-serif" font-size="13" lengthAdjust="spacing" textLength="55.6563" x="348.5" y="894.6045">&#171;include&#187;</text></g><!--link UC1 to UC8--><g id="link_UC1_UC8"><path d="M489.75,1201.2894 C452.56,1203.7194 401.17,1200.0194 373.5,1167.1094 C334.35,1120.5294 408.63,673.6094 444,624.1094 C453.14,611.3094 461.5697,604.5433 475.6697,597.7833 " fill="none" id="UC1-to-UC8" style="stroke:#181818;stroke-width:1;stroke-dasharray:7.0,7.0;"/><polygon fill="#181818" points="481.08,595.1894,471.2352,595.4733,476.5714,597.351,474.6938,602.6871,481.08,595.1894" style="stroke:#181818;stroke-width:1;"/><text fill="#000000" font-family="sans-serif" font-size="13" lengthAdjust="spacing" textLength="55.6563" x="348.5" y="1163.6045">&#171;include&#187;</text></g><!--link UC5 to Email--><g id="link_UC5_Email"><path d="M596.84,690.4494 C607.54,696.6994 617.35,704.7694 624,715.1094 C667.93,783.3694 603.35,1381.6694 654,1445.1094 C692.21,1492.9594 730.77,1456.8494 787,1481.1094 C848.02,1507.4194 908.1525,1548.8536 938.7525,1571.1736 " fill="none" id="UC5-to-Email" style="stroke:#181818;stroke-width:1;stroke-dasharray:7.0,7.0;"/><polygon fill="#181818" points="943.6,1574.7094,938.686,1566.174,939.5604,1571.7629,933.9716,1572.6373,943.6,1574.7094" style="stroke:#181818;stroke-width:1;"/><text fill="#000000" font-family="sans-serif" font-size="13" lengthAdjust="spacing" textLength="53.4917" x="694.0127" y="1425.6045">&#171;extend&#187;</text><text fill="#000000" font-family="sans-serif" font-size="13" lengthAdjust="spacing" textLength="131.5171" x="655" y="1441.9561">notifications manuelles</text></g><!--link UC4 to Paper--><g id="link_UC4_Paper"><path d="M269.49,462.4694 C284.33,469.3094 299.06,479.1494 308,493.1094 C348.92,556.9694 307.78,1105.5294 338,1175.1094 C394.78,1305.8394 723.26,1505.6294 787,1633.1094 C826.41,1711.9294 759.74,1762.1194 817,1829.1094 C839.07,1854.9194 869.6688,1865.4304 900.4688,1870.4704 " fill="none" id="UC4-to-Paper" style="stroke:#181818;stroke-width:1;stroke-dasharray:7.0,7.0;"/><polygon fill="#181818" points="906.39,1871.4394,898.1541,1866.0385,901.4556,1870.6319,896.8622,1873.9335,906.39,1871.4394" style="stroke:#181818;stroke-width:1;"/><text fill="#000000" font-family="sans-serif" font-size="13" lengthAdjust="spacing" textLength="53.4917" x="507.5264" y="1288.6045">&#171;extend&#187;</text><text fill="#000000" font-family="sans-serif" font-size="13" lengthAdjust="spacing" textLength="97.5444" x="485.5" y="1304.9561">formulaire papier</text></g><!--link UC8 to Excel--><g id="link_UC8_Excel"><path d="M588.11,594.7994 C602.07,601.5394 615.57,610.9994 624,624.1094 C669.16,694.3494 601.02,1310.5494 654,1375.1094 C692.57,1422.0994 746.14,1362.0794 787,1407.1094 C851.54,1478.2194 755.06,1547.7094 817,1621.1094 C835.25,1642.7294 857.8119,1652.9679 884.6219,1659.1179 " fill="none" id="UC8-to-Excel" style="stroke:#181818;stroke-width:1;stroke-dasharray:7.0,7.0;"/><polygon fill="#181818" points="890.47,1660.4594,882.5922,1654.5484,885.5966,1659.3415,880.8035,1662.3458,890.47,1660.4594" style="stroke:#181818;stroke-width:1;"/><text fill="#000000" font-family="sans-serif" font-size="13" lengthAdjust="spacing" textLength="53.4917" x="693.9968" y="1355.6045">&#171;extend&#187;</text><text fill="#000000" font-family="sans-serif" font-size="13" lengthAdjust="spacing" textLength="79.4854" x="681" y="1371.9561">calcul manuel</text></g><!--link UC2 to Email--><g id="link_UC2_Email"><path d="M580.04,1108.6194 C596.23,1118.8594 613.15,1132.4494 624,1149.1094 C660.63,1205.3394 608.09,1248.1494 654,1297.1094 C695.89,1341.7794 737.07,1297.6494 787,1333.1094 C878.85,1398.3294 935.1722,1522.5804 953.2622,1567.1204 " fill="none" id="UC2-to-Email" style="stroke:#181818;stroke-width:1;stroke-dasharray:7.0,7.0;"/><polygon fill="#181818" points="955.52,1572.6794,955.8393,1562.8357,953.6385,1568.0469,948.4273,1565.8461,955.52,1572.6794" style="stroke:#181818;stroke-width:1;"/><text fill="#000000" font-family="sans-serif" font-size="13" lengthAdjust="spacing" textLength="53.4917" x="693.7563" y="1277.6045">&#171;extend&#187;</text><text fill="#000000" font-family="sans-serif" font-size="13" lengthAdjust="spacing" textLength="112.0044" x="664.5" y="1293.9561">relances manuelles</text></g><!--link UC3 to Email--><g id="link_UC3_Email"><path d="M562.31,878.0994 C581.03,896.7794 605.69,923.1394 624,949.1094 C787.04,1180.3194 922.4046,1494.4741 952.8946,1567.3641 " fill="none" id="UC3-to-Email" style="stroke:#181818;stroke-width:1;stroke-dasharray:7.0,7.0;"/><polygon fill="#181818" points="955.21,1572.8994,955.4271,1563.0529,953.2805,1568.2867,948.0467,1566.1401,955.21,1572.8994" style="stroke:#181818;stroke-width:1;"/><text fill="#000000" font-family="sans-serif" font-size="13" lengthAdjust="spacing" textLength="53.4917" x="693.7563" y="978.6045">&#171;extend&#187;</text><text fill="#000000" font-family="sans-serif" font-size="13" lengthAdjust="spacing" textLength="112.0044" x="664.5" y="994.9561">relances manuelles</text></g><!--link Others to GMN100--><g id="link_Others_GMN100"><path d="M908.79,1771.2094 C851.58,1768.0794 763.47,1753.2494 720.5,1694.6094 C624.95,1564.1894 636.3,377.6094 720.5,239.6094 C742.59,203.4094 778.93,177.2894 816.82,158.6294 " fill="none" id="Others-GMN100" style="stroke:#181818;stroke-width:1;stroke-dasharray:7.0,7.0;"/></g><!--SRC=[bLVDRXit4BxlKmni58cLof4iwyU1OK3MoZ-j3GkIdQA0BvH4IMnMv8RanWwA0a4Dz0bwwQ6NN9hsb08z52YA0ZPwwbla1VeA7NB_rrgtlGZapd3cuyVvasRQet2XAFG8_hYCp2LPGXM6L2aHo0bLS1Gi2UEuwFREB_edZkFHcGOjGBBvGiEKIJhHJ7378HCj9AoDXBzWz98_7Xvjh05H47w0zOE3_LQl7gkT4axcL2ghSZgNHkvsztSICyGZajtTtFuOgk0Urhkks-ctOfNdJCuPjxu613tGQqqbfw5N8uHrr-tMN3S-q5j8fZJU1a-uXw6UUvXeEUOgXC-HaxNHQwNH-RibXU5HTFSrW_7WeDU3Bnq7851qOcXREpGe9PMNt4SOrkf5hswKM_kjVTJaGjE8Bp4pClm6SFV-pry_lFd-zXVOQbORjSNJfM3AIkgrZu1AIGDfzfHFhOMSpn5XYg776GsOv-7pB52RgiZvbcMpNQkjSBvLS5wleRSbuG7rhAI5MqaraTDIvy-9nwQqr7lZ0U-DWlV6eb5xggYDCIiQKezm4tWX93HUXiB5Kzp2c0W-JoFbehVz083j0e01yHcLy0GCXf21HhK9Ns3uAvWQgnvXPH3E-5WWKGO35y4hIW9GITn6O9h5GB09PB4qYsJiW0cwjvD5uVu0dMgzjW2VICGv9W5gb6AQpH9GAHXGGc9iwmXKgyXG2gfL3CwjKb3DQYl4P7d2XIu3bQO8uzgk6TATXapxWHTh5m3rhoVK0wQ4PmnPuG2DJ1z5fh66sO9K0gL7l4dW6IYQJLvGhJ3QbHOHa4xvQtKAE2eL6xmcQokLA6_pgNJtzUtFpJYL_vqQ8y9xK9X9pEu8qCu3pEoiZEMd_IIIpwCR-bHEWz94wWck0ayR29yEZXKMlBY6rShPgDSApe-Nlb2AZRqmZrt1kRdPVydaWHJJ0AFXaalgOvmoFeyHF5X6w_UA2VYOjr07INnZg8X4ZCEeUQVpOBxArVwpG3DFmUCHyuJQi5M_lzslOzNFOZuRT3_lOoCvfqjVXRra87poccOUB2tNtSC-3EBkCCBEbxbNgdLyqZKc-zb6XYY8rUxMsjsSzcV79nR0C5AyOfRxHC4c2YhStNnuysqRPco2VLX6MCCiMW7LHa-e4iLHUcSRNwPvcfTEJE5dAbVTfuyXWQ0Gmv1CcIdhbxntl7y-sDpSj2VFz0Aj6FeVsS9lyZOP6Cm0uKJhQdNFzitSjf7VDlFRLdxRpcyx1SkrmZvnjRcv5x_hCp21mHJDoknRhfI432SYYDvX8wTZA5vzF6HrfIYahGIFYOACACTiF7GvPk2AIKpNstQzyiQne0WuEL10ct_GT9Ppp1mNUjlAhBSpwnsxNirxB7Z8MpmMWfqADnmx2SO1P3UM9vjMgOb443-Rf0Zu1y4qpfMcbgYCIe64d7ltqC6PCWchT5qtUiTyuWLJh3vcGjoqDA2XtLqMVj_RImMDCa7ddg096LIxksOGvjEzFTjI6EPz12qjn6P6ol2OFJ8JSXbufZbZQpVvxXYF6MAooXFRJEEUX_SpfOihwysNOcnRz1BTlmoirwqSVrbBylxSPoZu7-gExGzZeRLOOXMgL0R3i_sJkvk_lZdjZ-2q-qd_OZYodJep_3QVW0ZBFHSSaWaYZDMivf1MbPcvARIg7PXXqyTEZUvHywUbQTj9bt7oBTbsz2iXNymySOKRDcUQ1DUhj5wX_J66b0K1sZGMi53iFB5oPFyOS4a2l3AIhEB19rJzxlOzz0IU_qq_YwpXfAoOdTOamKuT3WRcmDk___WTrJjD_1z2k04J7fWJvMC5jvDMqYx_0G00]--></g></svg>