<svg xmlns="http://www.w3.org/2000/svg" xmlns:xlink="http://www.w3.org/1999/xlink" contentStyleType="text/css" height="2696px" preserveAspectRatio="none" style="width:1043px;height:2696px;background:#FFFFFF;" version="1.1" viewBox="0 0 1043 2696" width="1043px" zoomAndPan="magnify"><title>Use Case Diagram - Ressources Humaines ACTUEL</title><defs/><g><text fill="#000000" font-family="sans-serif" font-size="14" font-weight="bold" lengthAdjust="spacing" textLength="347.1847" x="341.0183" y="24.9659">Use Case Diagram - Ressources Humaines ACTUEL</text><!--cluster Syst?me RH ACTUEL--><g id="cluster_Syst&#232;me RH ACTUEL"><rect fill="#FFFFCC" height="1069" rx="2.5" ry="2.5" style="stroke:#181818;stroke-width:1;" width="876" x="119" y="214.0679"/><text fill="#000000" font-family="sans-serif" font-size="14" font-weight="bold" lengthAdjust="spacing" textLength="139.2575" x="487.3713" y="231.0339">Syst&#232;me RH ACTUEL</text></g><!--cluster Outils (Silos)--><g id="cluster_Outils (Silos)"><rect fill="#FFE4E1" height="755" rx="2.5" ry="2.5" style="stroke:#181818;stroke-width:1;" width="162" x="827.5" y="1573.0679"/><text fill="#000000" font-family="sans-serif" font-size="14" font-weight="bold" lengthAdjust="spacing" textLength="86.9257" x="865.0371" y="1590.0339">Outils (Silos)</text></g><g id="elem_UC1"><ellipse cx="493.0356" cy="1237.034" fill="#FF6B6B" rx="38.0356" ry="29.9661" style="stroke:#181818;stroke-width:0.5;"/><text fill="#000000" font-family="sans-serif" font-size="14" lengthAdjust="spacing" textLength="37.5479" x="474.2617" y="1230.932">G&#233;rer</text><text fill="#000000" font-family="sans-serif" font-size="14" lengthAdjust="spacing" textLength="27.9719" x="479.0497" y="1250">paie</text></g><g id="elem_GMN9"><path d="M858,1185.5679 L858,1230.9799 L958.7811,1230.9799 L958.7811,1195.5679 L948.7811,1185.5679 L858,1185.5679 " fill="#FEFFDD" style="stroke:#181818;stroke-width:0.5;"/><path d="M948.7811,1185.5679 L948.7811,1195.5679 L958.7811,1195.5679 L948.7811,1185.5679 " fill="#FEFFDD" style="stroke:#181818;stroke-width:1;"/><text fill="#000000" font-family="sans-serif" font-size="13" lengthAdjust="spacing" textLength="79.7811" x="864" y="1204.4649">&#128308; 25-30h/mois</text><text fill="#000000" font-family="sans-serif" font-size="13" lengthAdjust="spacing" textLength="74.0871" x="864" y="1222.1709">10% erreurs</text></g><g id="elem_UC2"><ellipse cx="492.8856" cy="1123.034" fill="#FFD700" rx="79.3856" ry="29.9661" style="stroke:#181818;stroke-width:0.5;"/><text fill="#000000" font-family="sans-serif" font-size="14" lengthAdjust="spacing" textLength="35.2519" x="475.2597" y="1116.932">Saisir</text><text fill="#000000" font-family="sans-serif" font-size="14" lengthAdjust="spacing" textLength="96.0256" x="444.8728" y="1136">feuilles heures</text></g><g id="elem_GMN13"><path d="M855,1100.5679 L855,1119.0679 L572.75,1123.0679 L855,1127.0679 L855,1145.9799 A0,0 0 0 0 855,1145.9799 L962.0731,1145.9799 A0,0 0 0 0 962.0731,1145.9799 L962.0731,1110.5679 L952.0731,1100.5679 L855,1100.5679 A0,0 0 0 0 855,1100.5679 " fill="#FEFFDD" style="stroke:#181818;stroke-width:0.5;"/><path d="M952.0731,1100.5679 L952.0731,1110.5679 L962.0731,1110.5679 L952.0731,1100.5679 " fill="#FEFFDD" style="stroke:#181818;stroke-width:0.5;"/><text fill="#000000" font-family="sans-serif" font-size="13" lengthAdjust="spacing" textLength="86.0731" x="861" y="1119.4649">&#128308; 100% manuel</text><text fill="#000000" font-family="sans-serif" font-size="13" lengthAdjust="spacing" textLength="73.3331" x="861" y="1137.1709">60% retards</text></g><g id="elem_UC3"><ellipse cx="492.8856" cy="888.034" fill="#FFD700" rx="79.3856" ry="29.9661" style="stroke:#181818;stroke-width:0.5;"/><text fill="#000000" font-family="sans-serif" font-size="14" lengthAdjust="spacing" textLength="45.7658" x="470.0027" y="881.932">Valider</text><text fill="#000000" font-family="sans-serif" font-size="14" lengthAdjust="spacing" textLength="96.0256" x="444.8728" y="901">feuilles heures</text></g><g id="elem_GMN17"><path d="M838,865.5679 L838,884.0679 L572.75,888.0679 L838,892.0679 L838,910.9799 A0,0 0 0 0 838,910.9799 L979.3931,910.9799 A0,0 0 0 0 979.3931,910.9799 L979.3931,875.5679 L969.3931,865.5679 L838,865.5679 A0,0 0 0 0 838,865.5679 " fill="#FEFFDD" style="stroke:#181818;stroke-width:0.5;"/><path d="M969.3931,865.5679 L969.3931,875.5679 L979.3931,875.5679 L969.3931,865.5679 " fill="#FEFFDD" style="stroke:#181818;stroke-width:0.5;"/><text fill="#000000" font-family="sans-serif" font-size="13" lengthAdjust="spacing" textLength="90.2851" x="844" y="884.4649">&#128308; 3h30/semaine</text><text fill="#000000" font-family="sans-serif" font-size="13" lengthAdjust="spacing" textLength="120.3931" x="844" y="902.1709">Relances manuelles</text></g><g id="elem_UC4"><ellipse cx="209.5198" cy="472.0513" fill="#FFD700" rx="61.0198" ry="29.9834" style="stroke:#181818;stroke-width:0.5;"/><text fill="#000000" font-family="sans-serif" font-size="14" lengthAdjust="spacing" textLength="69.9997" x="173.0505" y="466.6327">Demander</text><text fill="#000000" font-family="sans-serif" font-size="14" lengthAdjust="spacing" textLength="47.0538" x="184.5235" y="485.7006">cong&#233;s</text></g><g id="elem_GMN21"><path d="M437.5,412.5679 L437.5,438.2879 L268.83,464.4079 L437.5,446.2879 L437.5,457.9799 A0,0 0 0 0 437.5,457.9799 L548.7721,457.9799 A0,0 0 0 0 548.7721,457.9799 L548.7721,422.5679 L538.7721,412.5679 L437.5,412.5679 A0,0 0 0 0 437.5,412.5679 " fill="#FEFFDD" style="stroke:#181818;stroke-width:0.5;"/><path d="M538.7721,412.5679 L538.7721,422.5679 L548.7721,422.5679 L538.7721,412.5679 " fill="#FEFFDD" style="stroke:#181818;stroke-width:0.5;"/><text fill="#000000" font-family="sans-serif" font-size="13" lengthAdjust="spacing" textLength="90.2721" x="443.5" y="431.4649">&#128308; Papier + email</text><text fill="#000000" font-family="sans-serif" font-size="13" lengthAdjust="spacing" textLength="85.9951" x="443.5" y="449.1709">3-5 jours d&#233;lai</text></g><g id="elem_UC5"><ellipse cx="493.1966" cy="698.034" fill="#FF6B6B" rx="85.1966" ry="29.9661" style="stroke:#181818;stroke-width:0.5;"/><text fill="#000000" font-family="sans-serif" font-size="14" lengthAdjust="spacing" textLength="72.5897" x="456.9018" y="691.932">Onboarder</text><text fill="#000000" font-family="sans-serif" font-size="14" lengthAdjust="spacing" textLength="104.2436" x="441.0748" y="711">nouveau salari&#233;</text></g><g id="elem_GMN25"><path d="M135,730.5679 L135,775.9799 A0,0 0 0 0 135,775.9799 L283.9461,775.9799 A0,0 0 0 0 283.9461,775.9799 L283.9461,748.5679 L418.35,712.4579 L283.9461,740.5679 L283.9461,740.5679 L273.9461,730.5679 L135,730.5679 A0,0 0 0 0 135,730.5679 " fill="#FEFFDD" style="stroke:#181818;stroke-width:0.5;"/><path d="M273.9461,730.5679 L273.9461,740.5679 L283.9461,740.5679 L273.9461,730.5679 " fill="#FEFFDD" style="stroke:#181818;stroke-width:0.5;"/><text fill="#000000" font-family="sans-serif" font-size="13" lengthAdjust="spacing" textLength="127.9461" x="141" y="749.4649">&#128308; 39 t&#226;ches manuelles</text><text fill="#000000" font-family="sans-serif" font-size="13" lengthAdjust="spacing" textLength="126.3601" x="141" y="767.1709">8-10h par embauche</text></g><g id="elem_UC6"><ellipse cx="492.8264" cy="793.034" fill="#FFD700" rx="78.3264" ry="29.9661" style="stroke:#181818;stroke-width:0.5;"/><text fill="#000000" font-family="sans-serif" font-size="14" lengthAdjust="spacing" textLength="73.5697" x="456.0416" y="786.932">Offboarder</text><text fill="#000000" font-family="sans-serif" font-size="14" lengthAdjust="spacing" textLength="94.5277" x="445.5626" y="806">salari&#233; sortant</text></g><g id="elem_GMN29"><path d="M135,810.5679 L135,855.9799 A0,0 0 0 0 135,855.9799 L283.9461,855.9799 A0,0 0 0 0 283.9461,855.9799 L283.9461,828.5679 L418.84,803.4679 L283.9461,820.5679 L283.9461,820.5679 L273.9461,810.5679 L135,810.5679 A0,0 0 0 0 135,810.5679 " fill="#FEFFDD" style="stroke:#181818;stroke-width:0.5;"/><path d="M273.9461,810.5679 L273.9461,820.5679 L283.9461,820.5679 L273.9461,810.5679 " fill="#FEFFDD" style="stroke:#181818;stroke-width:0.5;"/><text fill="#000000" font-family="sans-serif" font-size="13" lengthAdjust="spacing" textLength="127.9461" x="141" y="829.4649">&#128308; 22 t&#226;ches manuelles</text><text fill="#000000" font-family="sans-serif" font-size="13" lengthAdjust="spacing" textLength="95.1861" x="141" y="847.1709">5-6h par d&#233;part</text></g><g id="elem_UC7"><ellipse cx="209.734" cy="282.034" fill="#FFD700" rx="67.734" ry="29.9661" style="stroke:#181818;stroke-width:0.5;"/><text fill="#000000" font-family="sans-serif" font-size="14" lengthAdjust="spacing" textLength="37.5479" x="190.9601" y="275.932">G&#233;rer</text><text fill="#000000" font-family="sans-serif" font-size="14" lengthAdjust="spacing" textLength="79.5477" x="169.9601" y="295">int&#233;rimaires</text></g><g id="elem_GMN33"><path d="M430.5,252.5679 L430.5,272.6079 L277.21,280.4079 L430.5,280.6079 L430.5,297.9799 A0,0 0 0 0 430.5,297.9799 L555.2011,297.9799 A0,0 0 0 0 555.2011,297.9799 L555.2011,262.5679 L545.2011,252.5679 L430.5,252.5679 A0,0 0 0 0 430.5,252.5679 " fill="#FEFFDD" style="stroke:#181818;stroke-width:0.5;"/><path d="M545.2011,252.5679 L545.2011,262.5679 L555.2011,262.5679 L545.2011,252.5679 " fill="#FEFFDD" style="stroke:#181818;stroke-width:0.5;"/><text fill="#000000" font-family="sans-serif" font-size="13" lengthAdjust="spacing" textLength="65.923" x="436.5" y="271.4649">&#128308; Excel isol&#233;</text><text fill="#000000" font-family="sans-serif" font-size="13" lengthAdjust="spacing" textLength="103.7011" x="436.5" y="289.1709">Pas d'int&#233;gration</text></g><g id="elem_UC8"><ellipse cx="493.1003" cy="603.034" fill="#FF6B6B" rx="68.1003" ry="29.9661" style="stroke:#181818;stroke-width:0.5;"/><text fill="#000000" font-family="sans-serif" font-size="14" lengthAdjust="spacing" textLength="52.9758" x="466.6124" y="596.932">Calculer</text><text fill="#000000" font-family="sans-serif" font-size="14" lengthAdjust="spacing" textLength="80.0657" x="453.0674" y="616">tickets resto</text></g><g id="elem_GMN37"><path d="M157.5,632.5679 L157.5,695.686 A0,0 0 0 0 157.5,695.686 L261.1931,695.686 A0,0 0 0 0 261.1931,695.686 L261.1931,656.9579 L431.76,616.1279 L261.1931,648.9579 L261.1931,642.5679 L251.1931,632.5679 L157.5,632.5679 A0,0 0 0 0 157.5,632.5679 " fill="#FEFFDD" style="stroke:#181818;stroke-width:0.5;"/><path d="M251.1931,632.5679 L251.1931,642.5679 L261.1931,642.5679 L251.1931,632.5679 " fill="#FEFFDD" style="stroke:#181818;stroke-width:0.5;"/><text fill="#000000" font-family="sans-serif" font-size="13" lengthAdjust="spacing" textLength="0" x="163.5" y="651.4649">&#128308;</text><text fill="#000000" font-family="sans-serif" font-size="13" font-weight="bold" lengthAdjust="spacing" textLength="67.457" x="166.88" y="651.4649">3h30/mois</text><text fill="#000000" font-family="sans-serif" font-size="13" lengthAdjust="spacing" textLength="82.6931" x="163.5" y="669.1709">100% manuel</text><text fill="#000000" font-family="sans-serif" font-size="13" lengthAdjust="spacing" textLength="67.86" x="163.5" y="686.877">&#177;5% erreur</text></g><g id="elem_UC9"><ellipse cx="209.6537" cy="567.034" fill="#FFD700" rx="74.6537" ry="29.9661" style="stroke:#181818;stroke-width:0.5;"/><text fill="#000000" font-family="sans-serif" font-size="14" lengthAdjust="spacing" textLength="37.5479" x="190.8798" y="560.932">G&#233;rer</text><text fill="#000000" font-family="sans-serif" font-size="14" lengthAdjust="spacing" textLength="89.3337" x="164.9869" y="580">notes de frais</text></g><g id="elem_GMN41"><path d="M438.5,492.5679 L438.5,521.0179 L277.57,554.6779 L438.5,529.0179 L438.5,537.9799 A0,0 0 0 0 438.5,537.9799 L547.8481,537.9799 A0,0 0 0 0 547.8481,537.9799 L547.8481,502.5679 L537.8481,492.5679 L438.5,492.5679 A0,0 0 0 0 438.5,492.5679 " fill="#FEFFDD" style="stroke:#181818;stroke-width:0.5;"/><path d="M537.8481,492.5679 L537.8481,502.5679 L547.8481,502.5679 L537.8481,492.5679 " fill="#FEFFDD" style="stroke:#181818;stroke-width:0.5;"/><text fill="#000000" font-family="sans-serif" font-size="13" lengthAdjust="spacing" textLength="80.8081" x="444.5" y="511.4649">&#128308; Papier/Email</text><text fill="#000000" font-family="sans-serif" font-size="13" lengthAdjust="spacing" textLength="88.3481" x="444.5" y="529.1709">Tickets perdus</text></g><g id="elem_UC10"><ellipse cx="493.008" cy="1028.034" fill="#FF6B6B" rx="56.508" ry="29.9661" style="stroke:#181818;stroke-width:0.5;"/><text fill="#000000" font-family="sans-serif" font-size="14" lengthAdjust="spacing" textLength="63.6718" x="461.1721" y="1021.932">Consulter</text><text fill="#000000" font-family="sans-serif" font-size="14" lengthAdjust="spacing" textLength="51.3098" x="467.3531" y="1041">KPIs RH</text></g><g id="elem_GMN45"><path d="M138.5,890.5679 L138.5,935.9799 L280.3091,935.9799 L280.3091,900.5679 L270.3091,890.5679 L138.5,890.5679 " fill="#FEFFDD" style="stroke:#181818;stroke-width:0.5;"/><path d="M270.3091,890.5679 L270.3091,900.5679 L280.3091,900.5679 L270.3091,890.5679 " fill="#FEFFDD" style="stroke:#181818;stroke-width:1;"/><text fill="#000000" font-family="sans-serif" font-size="13" lengthAdjust="spacing" textLength="70.2911" x="144.5" y="909.4649">&#128308; Impossible</text><text fill="#000000" font-family="sans-serif" font-size="13" lengthAdjust="spacing" textLength="120.8091" x="144.5" y="927.1709">Donn&#233;es manuelles</text></g><g id="elem_UC11"><ellipse cx="209.6567" cy="377.034" fill="#FF6B6B" rx="55.6567" ry="29.9661" style="stroke:#181818;stroke-width:0.5;"/><text fill="#000000" font-family="sans-serif" font-size="14" lengthAdjust="spacing" textLength="57.2738" x="181.0198" y="370.932">Produire</text><text fill="#000000" font-family="sans-serif" font-size="14" lengthAdjust="spacing" textLength="62.4678" x="178.4228" y="390">reporting</text></g><g id="elem_GMN49"><path d="M424,332.5679 L424,356.3879 L264.78,372.8279 L424,364.3879 L424,377.9799 A0,0 0 0 0 424,377.9799 L561.5841,377.9799 A0,0 0 0 0 561.5841,377.9799 L561.5841,342.5679 L551.5841,332.5679 L424,332.5679 A0,0 0 0 0 424,332.5679 " fill="#FEFFDD" style="stroke:#181818;stroke-width:0.5;"/><path d="M551.5841,332.5679 L551.5841,342.5679 L561.5841,342.5679 L551.5841,332.5679 " fill="#FEFFDD" style="stroke:#181818;stroke-width:0.5;"/><text fill="#000000" font-family="sans-serif" font-size="13" lengthAdjust="spacing" textLength="112.2681" x="430" y="351.4649">&#128308; 3h pour 1 rapport</text><text fill="#000000" font-family="sans-serif" font-size="13" lengthAdjust="spacing" textLength="116.5841" x="430" y="369.1709">Donn&#233;es obsol&#232;tes</text></g><g id="elem_Popaye"><ellipse cx="908.628" cy="2187.034" fill="#FFD700" rx="48.628" ry="29.9661" style="stroke:#181818;stroke-width:0.5;"/><text fill="#000000" font-family="sans-serif" font-size="14" lengthAdjust="spacing" textLength="52.5278" x="882.3641" y="2180.932">POPAYE</text><text fill="#000000" font-family="sans-serif" font-size="14" lengthAdjust="spacing" textLength="52.4858" x="882.3851" y="2200">(Temps)</text></g><g id="elem_Sage"><ellipse cx="908.6605" cy="2010.0271" fill="#FF6B6B" rx="60.1605" ry="16.9592" style="stroke:#181818;stroke-width:0.5;"/><text fill="#000000" font-family="sans-serif" font-size="14" lengthAdjust="spacing" textLength="66.0797" x="872.6206" y="2014.7601">SAGE Paie</text></g><g id="elem_Silae"><ellipse cx="908.6125" cy="2282.034" fill="#FFA07A" rx="53.1125" ry="29.9661" style="stroke:#181818;stroke-width:0.5;"/><text fill="#000000" font-family="sans-serif" font-size="14" lengthAdjust="spacing" textLength="36.4979" x="890.3636" y="2275.932">SILAE</text><text fill="#000000" font-family="sans-serif" font-size="14" lengthAdjust="spacing" textLength="58.8698" x="879.1776" y="2295">(Externe)</text></g><g id="elem_Swile"><ellipse cx="908.6739" cy="2092.034" fill="#F1F1F1" rx="40.1739" ry="29.9661" style="stroke:#181818;stroke-width:0.5;"/><text fill="#000000" font-family="sans-serif" font-size="14" lengthAdjust="spacing" textLength="40.5718" x="888.388" y="2085.932">SWILE</text><text fill="#000000" font-family="sans-serif" font-size="14" lengthAdjust="spacing" textLength="24.8919" x="896.228" y="2105">(TR)</text></g><g id="elem_Excel"><ellipse cx="908.6205" cy="1710.034" fill="#FFD700" rx="65.1205" ry="29.9661" style="stroke:#181818;stroke-width:0.5;"/><text fill="#000000" font-family="sans-serif" font-size="14" lengthAdjust="spacing" textLength="33.4179" x="891.9116" y="1703.932">Excel</text><text fill="#000000" font-family="sans-serif" font-size="14" lengthAdjust="spacing" textLength="75.8517" x="870.6947" y="1723">(&#215;7 fichiers)</text></g><g id="elem_Email"><ellipse cx="908.3864" cy="1628.2416" fill="#F1F1F1" rx="37.3864" ry="16.6736" style="stroke:#181818;stroke-width:0.5;"/><text fill="#000000" font-family="sans-serif" font-size="14" lengthAdjust="spacing" textLength="35.9519" x="887.4105" y="1632.9745">Email</text></g><g id="elem_Paper"><ellipse cx="908.5921" cy="1928.034" fill="#FF6B6B" rx="57.0921" ry="29.9661" style="stroke:#181818;stroke-width:0.5;"/><text fill="#000000" font-family="sans-serif" font-size="14" lengthAdjust="spacing" textLength="42.2238" x="887.4802" y="1921.932">Papier</text><text fill="#000000" font-family="sans-serif" font-size="14" lengthAdjust="spacing" textLength="64.4978" x="876.3432" y="1941">(Dossiers)</text></g><g id="elem_Others"><ellipse cx="908.3451" cy="1819.0171" fill="#F1F1F1" rx="53.8451" ry="43.4492" style="stroke:#181818;stroke-width:0.5;"/><text fill="#000000" font-family="sans-serif" font-size="14" lengthAdjust="spacing" textLength="59.7938" x="878.4482" y="1803.3811">Empowill</text><text fill="#000000" font-family="sans-serif" font-size="14" lengthAdjust="spacing" textLength="59.9058" x="878.3922" y="1822.4491">Radiance</text><text fill="#000000" font-family="sans-serif" font-size="14" lengthAdjust="spacing" textLength="50.2038" x="883.2432" y="1841.517">CIBTP...</text></g><!--entity Sophie--><g id="elem_Sophie"><ellipse cx="38.9629" cy="1250.5679" fill="#FFB6C1" rx="8" ry="8" style="stroke:#181818;stroke-width:0.5;"/><path d="M38.9629,1258.5679 L38.9629,1285.5679 M25.9629,1266.5679 L51.9629,1266.5679 M38.9629,1285.5679 L25.9629,1300.5679 M38.9629,1285.5679 L51.9629,1300.5679 " fill="none" style="stroke:#181818;stroke-width:0.5;"/><text fill="#000000" font-family="sans-serif" font-size="14" lengthAdjust="spacing" textLength="44.9258" x="16.5" y="1317.0339">Sophie</text><text fill="#000000" font-family="sans-serif" font-size="14" lengthAdjust="spacing" textLength="27.4819" x="16.5" y="1336.1018">(RH)</text></g><!--entity Mgr--><g id="elem_Mgr"><ellipse cx="39.0259" cy="1384.0679" fill="#FFDAB9" rx="8" ry="8" style="stroke:#181818;stroke-width:0.5;"/><path d="M39.0259,1392.0679 L39.0259,1419.0679 M26.0259,1400.0679 L52.0259,1400.0679 M39.0259,1419.0679 L26.0259,1434.0679 M39.0259,1419.0679 L52.0259,1434.0679 " fill="none" style="stroke:#181818;stroke-width:0.5;"/><text fill="#000000" font-family="sans-serif" font-size="14" lengthAdjust="spacing" textLength="66.0518" x="6" y="1450.5339">Managers</text></g><!--entity Sal--><g id="elem_Sal"><ellipse cx="39.0009" cy="1498.0679" fill="#ADD8E6" rx="8" ry="8" style="stroke:#181818;stroke-width:0.5;"/><path d="M39.0009,1506.0679 L39.0009,1533.0679 M26.0009,1514.0679 L52.0009,1514.0679 M39.0009,1533.0679 L26.0009,1548.0679 M39.0009,1533.0679 L52.0009,1548.0679 " fill="none" style="stroke:#181818;stroke-width:0.5;"/><text fill="#000000" font-family="sans-serif" font-size="14" lengthAdjust="spacing" textLength="51.0018" x="13.5" y="1564.5339">Salari&#233;s</text></g><!--entity Virg--><g id="elem_Virg"><ellipse cx="209.7268" cy="2500.5679" fill="#DDA0DD" rx="8" ry="8" style="stroke:#181818;stroke-width:0.5;"/><path d="M209.7268,2508.5679 L209.7268,2535.5679 M196.7268,2516.5679 L222.7268,2516.5679 M209.7268,2535.5679 L196.7268,2550.5679 M209.7268,2535.5679 L222.7268,2550.5679 " fill="none" style="stroke:#181818;stroke-width:0.5;"/><text fill="#000000" font-family="sans-serif" font-size="14" lengthAdjust="spacing" textLength="50.1758" x="164.5" y="2567.0339">Virginie</text><text fill="#000000" font-family="sans-serif" font-size="14" lengthAdjust="spacing" textLength="90.4536" x="164.5" y="2586.1018">(Paie externe)</text></g><!--entity DG--><g id="elem_DG"><ellipse cx="38.9069" cy="1612.5679" fill="#DDA0DD" rx="8" ry="8" style="stroke:#181818;stroke-width:0.5;"/><path d="M38.9069,1620.5679 L38.9069,1647.5679 M25.9069,1628.5679 L51.9069,1628.5679 M38.9069,1647.5679 L25.9069,1662.5679 M38.9069,1647.5679 L51.9069,1662.5679 " fill="none" style="stroke:#181818;stroke-width:0.5;"/><text fill="#000000" font-family="sans-serif" font-size="14" lengthAdjust="spacing" textLength="58.8138" x="9.5" y="1679.0339">Christine</text><text fill="#000000" font-family="sans-serif" font-size="14" lengthAdjust="spacing" textLength="28.8119" x="9.5" y="1698.1018">(DG)</text></g><g id="elem_GMN100"><path d="M781,46.0679 L781,197.716 L1036.2212,197.716 L1036.2212,56.0679 L1026.2212,46.0679 L781,46.0679 " fill="#FEFFDD" style="stroke:#181818;stroke-width:0.5;"/><path d="M1026.2212,46.0679 L1026.2212,56.0679 L1036.2212,56.0679 L1026.2212,46.0679 " fill="#FEFFDD" style="stroke:#181818;stroke-width:1;"/><text fill="#000000" font-family="sans-serif" font-size="13" font-weight="bold" lengthAdjust="spacing" textLength="138.9181" x="787" y="64.9649">PROBL&#200;MES MAJEURS</text><text fill="#000000" font-family="sans-serif" font-size="13" lengthAdjust="spacing" textLength="143.6241" x="787" y="82.6709">&#128308; 15+ outils non int&#233;gr&#233;s</text><text fill="#000000" font-family="sans-serif" font-size="13" lengthAdjust="spacing" textLength="234.2212" x="787" y="100.377">&#128308; Re-saisie 6-8 fois des m&#234;mes donn&#233;es</text><text fill="#000000" font-family="sans-serif" font-size="13" lengthAdjust="spacing" textLength="162.3571" x="787" y="118.083">&#128308; Pas de workflows digitaux</text><text fill="#000000" font-family="sans-serif" font-size="13" lengthAdjust="spacing" textLength="165.0221" x="787" y="135.789">&#128308; Pas de visibilit&#233; temps r&#233;el</text><text fill="#000000" font-family="sans-serif" font-size="13" lengthAdjust="spacing" textLength="207.4022" x="787" y="153.495">&#128308; 100% manuel, 0% automatisation</text><text fill="#000000" font-family="sans-serif" font-size="13" lengthAdjust="spacing" textLength="199.3292" x="787" y="171.201">&#128176; Co&#251;t: temps consid&#233;rable perdu</text><text fill="#000000" font-family="sans-serif" font-size="13" lengthAdjust="spacing" textLength="164.6581" x="787" y="188.907">&#9200; 850h/an de temps gaspill&#233;</text></g><!--link UC1 to GMN9--><g id="link_UC1_GMN9"><path d="M529.4,1227.7979 C551.77,1222.3979 581.37,1216.0679 608,1213.0679 C695.46,1203.2279 798.19,1204.2179 857.76,1206.0179 " fill="none" id="UC1-GMN9" style="stroke:#181818;stroke-width:1;stroke-dasharray:7.0,7.0;"/></g><!--link GMN45 to UC10--><g id="link_GMN45_UC10"><path d="M280.53,902.9279 C311.51,901.2779 347.69,903.3579 378,916.0679 C399.56,925.1179 442.12,970.7779 468.7,1000.9279 " fill="none" id="GMN45-UC10" style="stroke:#181818;stroke-width:1;stroke-dasharray:7.0,7.0;"/></g><!--link Sophie to UC1--><g id="link_Sophie_UC1"><path d="M44.73,1241.9179 C52.32,1174.6879 69.77,1059.4479 102,1034.0679 C165.27,984.2479 384.4937,1150.7111 461.2637,1212.0911 " fill="none" id="Sophie-to-UC1" style="stroke:#181818;stroke-width:1;"/><polygon fill="#181818" points="465.95,1215.8379,461.4185,1207.0935,462.0448,1212.7156,456.4227,1213.3419,465.95,1215.8379" style="stroke:#181818;stroke-width:1;"/></g><!--link Sophie to UC3--><g id="link_Sophie_UC3"><path d="M46.32,1242.0279 C53.72,1201.4779 69.41,1144.3679 102,1105.0679 C126.45,1075.5879 340.4908,964.8857 439.0608,914.8057 " fill="none" id="Sophie-to-UC3" style="stroke:#181818;stroke-width:1;"/><polygon fill="#181818" points="444.41,912.0879,434.5744,912.5984,439.9523,914.3527,438.198,919.7307,444.41,912.0879" style="stroke:#181818;stroke-width:1;"/></g><!--link Sophie to UC5--><g id="link_Sophie_UC5"><path d="M61.53,1270.8779 C75.04,1258.8879 93.22,1243.9579 111,1233.0679 C182.62,1189.2179 221.46,1213.1179 284,1157.0679 C303.87,1139.2679 295.89,1124.6679 314,1105.0679 C337.43,1079.7179 360.5,1090.8279 378,1061.0679 C449.51,939.4679 330.96,863.2579 408,745.0679 C414.66,734.8479 419.2582,729.8118 429.7182,723.2918 " fill="none" id="Sophie-to-UC5" style="stroke:#181818;stroke-width:1;"/><polygon fill="#181818" points="434.81,720.1179,425.0564,721.4842,430.5668,722.7628,429.2882,728.2733,434.81,720.1179" style="stroke:#181818;stroke-width:1;"/></g><!--link Sophie to UC6--><g id="link_Sophie_UC6"><path d="M61.66,1291.7879 C108.4,1292.1479 219.66,1286.3979 284,1228.0679 C312.75,1202.0079 290.22,1176.7379 314,1146.0679 C335.15,1118.7979 360.22,1131.6579 378,1102.0679 C438.39,1001.6179 343.05,937.6379 408,840.0679 C415.13,829.3579 420.4246,823.9242 431.5446,817.2542 " fill="none" id="Sophie-to-UC6" style="stroke:#181818;stroke-width:1;"/><polygon fill="#181818" points="436.69,814.1679,426.9144,815.3671,432.4022,816.7398,431.0295,822.2276,436.69,814.1679" style="stroke:#181818;stroke-width:1;"/></g><!--link Sophie to UC7--><g id="link_Sophie_UC7"><path d="M43.29,1241.6079 C52.11,1109.8079 77.3,739.1979 102,431.0679 C105.64,385.7079 85.12,366.5079 111,329.0679 C120.83,314.8479 130.7214,307.2465 146.3614,300.1865 " fill="none" id="Sophie-to-UC7" style="stroke:#181818;stroke-width:1;"/><polygon fill="#181818" points="151.83,297.7179,141.9813,297.775,147.2728,299.7751,145.2728,305.0666,151.83,297.7179" style="stroke:#181818;stroke-width:1;"/></g><!--link Sophie to UC8--><g id="link_Sophie_UC8"><path d="M61.57,1245.7679 C74.18,1221.6879 91.45,1192.3379 111,1169.0679 C210.83,1050.2579 305.5,1081.2779 378,944.0679 C439.36,827.9379 335.89,759.8479 408,650.0679 C415.8,638.1979 422.4471,631.9633 434.8371,625.0133 " fill="none" id="Sophie-to-UC8" style="stroke:#181818;stroke-width:1;"/><polygon fill="#181818" points="440.07,622.0779,430.2637,622.9923,435.7092,624.524,434.1775,629.9696,440.07,622.0779" style="stroke:#181818;stroke-width:1;"/></g><!--link Sophie to UC10--><g id="link_Sophie_UC10"><path d="M61.65,1299.9879 C107.87,1317.4379 217.42,1350.1579 284,1299.0679 C324.88,1267.6979 284.26,1229.1579 314,1187.0679 C333.92,1158.8779 355.97,1169.6479 378,1143.0679 C399.08,1117.6379 385.77,1099.5079 408,1075.0679 C418.91,1063.0779 428.2951,1056.2121 442.3451,1048.8521 " fill="none" id="Sophie-to-UC10" style="stroke:#181818;stroke-width:1;"/><polygon fill="#181818" points="447.66,1046.0679,437.8315,1046.7009,443.2309,1048.3881,441.5437,1053.7875,447.66,1046.0679" style="stroke:#181818;stroke-width:1;"/></g><!--link Sophie to UC11--><g id="link_Sophie_UC11"><path d="M41.77,1241.8879 C46.78,1114.2079 63.29,761.8979 102,471.0679 C104.81,449.9879 98.04,440.9379 111,424.0679 C123.08,408.3579 136.2082,399.8589 153.9982,392.6589 " fill="none" id="Sophie-to-UC11" style="stroke:#181818;stroke-width:1;"/><polygon fill="#181818" points="159.56,390.4079,149.7167,390.0765,154.9252,392.2837,152.718,397.4922,159.56,390.4079" style="stroke:#181818;stroke-width:1;"/></g><!--link Sophie to Popaye--><g id="link_Sophie_Popaye"><path d="M61.51,1329.8179 C65.67,1338.8479 69.5,1348.5979 72,1358.0679 C99.97,1464.1179 44.58,1762.7979 111,1850.0679 C160.1,1914.5879 705.86,2108.6279 781,2139.0679 C809.3,2150.5379 835.8563,2160.6466 860.6763,2169.8766 " fill="none" id="Sophie-to-Popaye" style="stroke:#181818;stroke-width:1;stroke-dasharray:7.0,7.0;"/><polygon fill="#181818" points="866.3,2171.9679,859.2586,2165.0818,861.6136,2170.2251,856.4702,2172.5801,866.3,2171.9679" style="stroke:#181818;stroke-width:1;"/><text fill="#000000" font-family="sans-serif" font-size="13" lengthAdjust="spacing" textLength="36.348" x="328" y="1955.9649">utilise</text></g><!--link Sophie to Sage--><g id="link_Sophie_Sage"><path d="M61.64,1329.7779 C65.79,1338.8179 69.59,1348.5779 72,1358.0679 C87.88,1420.6179 59.1,1889.8579 102,1938.0679 C200.4,2048.6679 677.2641,2026.3283 844.4241,2014.8683 " fill="none" id="Sophie-to-Sage" style="stroke:#181818;stroke-width:1;stroke-dasharray:7.0,7.0;"/><polygon fill="#181818" points="850.41,2014.4579,841.1575,2011.0829,845.4217,2014.7999,841.7047,2019.0641,850.41,2014.4579" style="stroke:#181818;stroke-width:1;"/><text fill="#000000" font-family="sans-serif" font-size="13" lengthAdjust="spacing" textLength="36.348" x="328" y="2007.9649">utilise</text></g><!--link Sophie to Excel--><g id="link_Sophie_Excel"><path d="M61.59,1330.1879 C65.69,1339.1179 69.48,1348.7379 72,1358.0679 C93.32,1437.0779 46.7,1664.7579 102,1725.0679 C201.25,1833.3179 673.8053,1754.9972 842.5453,1722.9572 " fill="none" id="Sophie-to-Excel" style="stroke:#181818;stroke-width:1;stroke-dasharray:7.0,7.0;"/><polygon fill="#181818" points="848.44,1721.8379,838.8518,1719.587,843.5278,1722.7706,840.3442,1727.4466,848.44,1721.8379" style="stroke:#181818;stroke-width:1;"/><text fill="#000000" font-family="sans-serif" font-size="13" lengthAdjust="spacing" textLength="62.4001" x="315" y="1775.9649">utilise (&#215;7)</text></g><!--link Sophie to Email--><g id="link_Sophie_Email"><path d="M61.53,1304.9279 C75.49,1313.7879 94.15,1325.3879 111,1335.0679 C240.62,1409.6079 268.95,1438.1079 408,1493.0679 C577.38,1560.0279 785.8922,1604.4528 867.7522,1620.5128 " fill="none" id="Sophie-to-Email" style="stroke:#181818;stroke-width:1;stroke-dasharray:7.0,7.0;"/><polygon fill="#181818" points="873.64,1621.6679,865.5784,1616.0101,868.7335,1620.7053,864.0383,1623.8604,873.64,1621.6679" style="stroke:#181818;stroke-width:1;"/><text fill="#000000" font-family="sans-serif" font-size="13" lengthAdjust="spacing" textLength="36.348" x="328" y="1448.9649">utilise</text></g><!--link Sophie to Paper--><g id="link_Sophie_Paper"><path d="M61.67,1336.0479 C65.15,1343.3979 68.7,1350.9379 72,1358.0679 C89.8,1396.5279 83.44,1412.8879 111,1445.0679 C331.64,1702.7179 719.7835,1860.3513 854.8735,1909.6413 " fill="none" id="Sophie-to-Paper" style="stroke:#181818;stroke-width:1;stroke-dasharray:7.0,7.0;"/><polygon fill="#181818" points="860.51,1911.6979,853.4263,1904.8553,855.8129,1909.9841,850.6841,1912.3707,860.51,1911.6979" style="stroke:#181818;stroke-width:1;"/><text fill="#000000" font-family="sans-serif" font-size="13" lengthAdjust="spacing" textLength="36.348" x="328" y="1629.9649">utilise</text></g><!--link Sophie to Others--><g id="link_Sophie_Others"><path d="M61.6,1330.1879 C65.7,1339.1179 69.49,1348.7379 72,1358.0679 C96.86,1450.5179 41.08,1721.6879 111,1787.0679 C218.27,1887.3879 689.2276,1844.0285 849.0976,1826.0485 " fill="none" id="Sophie-to-Others" style="stroke:#181818;stroke-width:1;stroke-dasharray:7.0,7.0;"/><polygon fill="#181818" points="855.06,1825.3779,845.6693,1822.4088,850.0913,1825.9367,846.5634,1830.3587,855.06,1825.3779" style="stroke:#181818;stroke-width:1;"/><text fill="#000000" font-family="sans-serif" font-size="13" lengthAdjust="spacing" textLength="36.348" x="328" y="1841.9649">utilise</text></g><!--link Sophie to Swile--><g id="link_Sophie_Swile"><path d="M61.64,1329.7779 C65.79,1338.8079 69.59,1348.5779 72,1358.0679 C89.97,1428.9579 59.73,1962.9279 111,2015.0679 C217.53,2123.4279 717.5798,2103.1704 862.5898,2094.8804 " fill="none" id="Sophie-to-Swile" style="stroke:#181818;stroke-width:1;stroke-dasharray:7.0,7.0;"/><polygon fill="#181818" points="868.58,2094.5379,859.3664,2091.0581,863.5882,2094.8233,859.823,2099.0451,868.58,2094.5379" style="stroke:#181818;stroke-width:1;"/><text fill="#000000" font-family="sans-serif" font-size="13" lengthAdjust="spacing" textLength="36.348" x="328" y="2080.9649">utilise</text></g><!--link Mgr to UC3--><g id="link_Mgr_UC3"><path d="M72.01,1407.9179 C143.34,1389.9979 314.08,1335.7179 378,1215.0679 C427.29,1122.0279 363.77,1075.6279 408,980.0679 C419.63,954.9479 436.2238,936.0204 454.3138,919.3004 " fill="none" id="Mgr-to-UC3" style="stroke:#181818;stroke-width:1;"/><polygon fill="#181818" points="458.72,915.2279,449.3957,918.3992,455.0482,918.6217,454.8257,924.2742,458.72,915.2279" style="stroke:#181818;stroke-width:1;"/></g><!--link Mgr to UC4--><g id="link_Mgr_UC4"><path d="M64.93,1375.5479 C67.78,1369.5479 70.28,1363.2779 72,1357.0679 C120.76,1181.1379 54.76,712.4179 102,536.0679 C108.64,511.2779 126.5723,497.9934 149.8023,488.4234 " fill="none" id="Mgr-to-UC4" style="stroke:#181818;stroke-width:1;"/><polygon fill="#181818" points="155.35,486.1379,145.5049,485.8677,150.7269,488.0425,148.5521,493.2646,155.35,486.1379" style="stroke:#181818;stroke-width:1;"/></g><!--link Mgr to Popaye--><g id="link_Mgr_Popaye"><path d="M65.34,1454.8379 C68.01,1460.4579 70.35,1466.2879 72,1472.0679 C94.14,1549.7579 48.05,2147.4379 111,2198.0679 C340.81,2382.9079 734.8391,2254.3198 861.9091,2205.4998 " fill="none" id="Mgr-to-Popaye" style="stroke:#181818;stroke-width:1;stroke-dasharray:7.0,7.0;"/><polygon fill="#181818" points="867.51,2203.3479,857.6742,2202.8418,862.8426,2205.1411,860.5433,2210.3096,867.51,2203.3479" style="stroke:#181818;stroke-width:1;"/><text fill="#000000" font-family="sans-serif" font-size="13" lengthAdjust="spacing" textLength="36.348" x="328" y="2280.9649">utilise</text></g><!--link Mgr to Email--><g id="link_Mgr_Email"><path d="M65.31,1454.8479 C67.99,1460.4579 70.34,1466.2879 72,1472.0679 C90.72,1537.0679 57.1,2029.4879 102,2080.0679 C184.12,2172.5879 265.17,2166.7879 378,2116.0679 C624.09,2005.4579 551.51,1803.9479 781,1662.0679 C808.85,1644.8479 839.4746,1637.191 866.1146,1632.951 " fill="none" id="Mgr-to-Email" style="stroke:#181818;stroke-width:1;stroke-dasharray:7.0,7.0;"/><polygon fill="#181818" points="872.04,1632.0079,862.5231,1629.4723,867.1022,1632.7938,863.7806,1637.3728,872.04,1632.0079" style="stroke:#181818;stroke-width:1;"/><text fill="#000000" font-family="sans-serif" font-size="13" lengthAdjust="spacing" textLength="36.348" x="328" y="2111.9649">utilise</text></g><!--link Mgr to Paper--><g id="link_Mgr_Paper"><path d="M65.32,1454.8479 C67.99,1460.4579 70.34,1466.2879 72,1472.0679 C93.2,1545.7579 54.32,2109.4379 111,2161.0679 C177.73,2221.8579 223.75,2165.7379 314,2167.0679 C342.44,2167.4879 349.84,2171.0679 378,2167.0679 C469.63,2154.0579 493.98,2147.8979 578,2109.0679 C676.14,2063.7279 684.6,2023.9879 781,1975.0679 C805.86,1962.4579 829.262,1953.3471 853.272,1945.1471 " fill="none" id="Mgr-to-Paper" style="stroke:#181818;stroke-width:1;stroke-dasharray:7.0,7.0;"/><polygon fill="#181818" points="858.95,1943.2079,849.1402,1942.3313,854.2183,1944.8239,851.7258,1949.902,858.95,1943.2079" style="stroke:#181818;stroke-width:1;"/><text fill="#000000" font-family="sans-serif" font-size="13" lengthAdjust="spacing" textLength="36.348" x="328" y="2162.9649">utilise</text></g><!--link Sal to UC2--><g id="link_Sal_UC2"><path d="M64.76,1526.2179 C135.51,1517.5279 336.15,1489.0479 378,1441.0679 C452.14,1356.0779 352.77,1287.4179 408,1189.0679 C417.26,1172.5779 427.5963,1162.2335 442.5463,1151.5635 " fill="none" id="Sal-to-UC2" style="stroke:#181818;stroke-width:1;"/><polygon fill="#181818" points="447.43,1148.0779,437.7807,1150.0505,443.3602,1150.9826,442.4281,1156.5621,447.43,1148.0779" style="stroke:#181818;stroke-width:1;"/></g><!--link Sal to UC4--><g id="link_Sal_UC4"><path d="M64.63,1490.8979 C67.61,1484.7979 70.22,1478.4079 72,1472.0679 C123.71,1287.5079 89.23,801.3179 102,610.0679 C103.35,589.7979 99.36,535.7279 111,519.0679 C121.66,503.8279 133.1237,495.6745 149.9637,488.5545 " fill="none" id="Sal-to-UC4" style="stroke:#181818;stroke-width:1;"/><polygon fill="#181818" points="155.49,486.2179,145.6428,486.0385,150.8847,488.165,148.7582,493.407,155.49,486.2179" style="stroke:#181818;stroke-width:1;"/></g><!--link Sal to UC9--><g id="link_Sal_UC9"><path d="M64.57,1490.8779 C67.56,1484.7879 70.19,1478.3979 72,1472.0679 C98.21,1380.4279 58.81,694.8379 111,615.0679 C119.94,601.4179 128.5643,594.1321 143.2243,587.0021 " fill="none" id="Sal-to-UC9" style="stroke:#181818;stroke-width:1;"/><polygon fill="#181818" points="148.62,584.3779,138.777,584.7171,144.1236,586.5648,142.276,591.9114,148.62,584.3779" style="stroke:#181818;stroke-width:1;"/></g><!--link Sal to Popaye--><g id="link_Sal_Popaye"><path d="M64.59,1567.2579 C67.58,1573.3479 70.2,1579.7379 72,1586.0679 C95.41,1668.4779 48.38,2297.6179 111,2356.0679 C215.26,2453.3879 643.02,2401.2479 751,2308.0679 C777.87,2284.8879 755.54,2258.7979 781,2234.0679 C802.77,2212.9379 829.0526,2202.5867 855.4826,2196.1067 " fill="none" id="Sal-to-Popaye" style="stroke:#181818;stroke-width:1;stroke-dasharray:7.0,7.0;"/><polygon fill="#181818" points="861.31,2194.6779,851.6164,2192.9361,856.4538,2195.8685,853.5214,2200.706,861.31,2194.6779" style="stroke:#181818;stroke-width:1;"/><text fill="#000000" font-family="sans-serif" font-size="13" lengthAdjust="spacing" textLength="36.348" x="328" y="2403.9649">utilise</text></g><!--link Sal to Paper--><g id="link_Sal_Paper"><path d="M64.59,1567.2579 C67.57,1573.3479 70.2,1579.7379 72,1586.0679 C93.5,1661.6979 50.01,2234.0879 102,2293.0679 C197.94,2401.9079 656.85,2332.4579 751,2222.0679 C822.76,2137.9279 712.51,2061.8879 781,1975.0679 C798.41,1952.9979 821.4665,1942.6914 847.2365,1936.4914 " fill="none" id="Sal-to-Paper" style="stroke:#181818;stroke-width:1;stroke-dasharray:7.0,7.0;"/><polygon fill="#181818" points="853.07,1935.0879,843.384,1933.3041,848.2087,1936.2575,845.2553,1941.0822,853.07,1935.0879" style="stroke:#181818;stroke-width:1;"/><text fill="#000000" font-family="sans-serif" font-size="13" lengthAdjust="spacing" textLength="36.348" x="328" y="2340.9649">utilise</text></g><!--link Virg to UC1--><g id="link_Virg_UC1"><path d="M212.23,2491.9579 C218.76,2322.6279 245.13,1764.6879 314,1601.0679 C331.4,1559.7379 355.21,1561.6879 378,1523.0679 C429.76,1435.3779 465.8886,1325.5757 481.8786,1272.1857 " fill="none" id="Virg-to-UC1" style="stroke:#181818;stroke-width:1;"/><polygon fill="#181818" points="483.6,1266.4379,477.186,1273.9119,482.1655,1271.2277,484.8497,1276.2072,483.6,1266.4379" style="stroke:#181818;stroke-width:1;"/></g><!--link Virg to Silae--><g id="link_Virg_Silae"><path d="M254.63,2569.2079 C293.3,2591.9079 351.94,2621.7079 408,2632.0679 C558.73,2659.9479 629.61,2689.6579 751,2596.0679 C846.27,2522.6179 886.3999,2381.4776 900.3499,2318.1176 " fill="none" id="Virg-to-Silae" style="stroke:#181818;stroke-width:1;stroke-dasharray:7.0,7.0;"/><polygon fill="#181818" points="901.64,2312.2579,895.7984,2320.1873,900.5649,2317.141,903.6113,2321.9075,901.64,2312.2579" style="stroke:#181818;stroke-width:1;"/><text fill="#000000" font-family="sans-serif" font-size="13" lengthAdjust="spacing" textLength="36.348" x="475" y="2627.9649">utilise</text></g><!--link Virg to Excel--><g id="link_Virg_Excel"><path d="M254.54,2556.0279 C360.05,2588.7479 627.63,2652.7079 751,2507.0679 C804.84,2443.5179 732.33,1825.6579 781,1758.0679 C796.17,1737.0079 816.023,1726.7725 840.273,1720.1325 " fill="none" id="Virg-to-Excel" style="stroke:#181818;stroke-width:1;stroke-dasharray:7.0,7.0;"/><polygon fill="#181818" points="846.06,1718.5479,836.3232,1717.0668,841.2375,1719.8684,838.4359,1724.7827,846.06,1718.5479" style="stroke:#181818;stroke-width:1;"/><text fill="#000000" font-family="sans-serif" font-size="13" lengthAdjust="spacing" textLength="84.5911" x="451" y="2586.9649">re&#231;oit exports</text></g><!--link Virg to Email--><g id="link_Virg_Email"><path d="M254.54,2525.4479 C363.1,2484.2379 642.58,2361.0879 751,2151.0679 C800.94,2054.3279 712.14,1746.3979 781,1662.0679 C802.43,1635.8279 835.7774,1628.9161 864.9174,1627.4661 " fill="none" id="Virg-to-Email" style="stroke:#181818;stroke-width:1;stroke-dasharray:7.0,7.0;"/><polygon fill="#181818" points="870.91,1627.1679,861.7223,1623.6201,865.9162,1627.4164,862.1199,1631.6103,870.91,1627.1679" style="stroke:#181818;stroke-width:1;"/><text fill="#000000" font-family="sans-serif" font-size="13" lengthAdjust="spacing" textLength="36.348" x="475" y="2347.9649">utilise</text></g><!--link DG to UC10--><g id="link_DG_UC10"><path d="M68.67,1633.7779 C136.39,1586.3979 305.94,1456.7679 378,1301.0679 C420.56,1209.1179 351.1,1158.9079 408,1075.0679 C417.1,1061.6579 426.0254,1054.3947 440.2354,1047.1447 " fill="none" id="DG-to-UC10" style="stroke:#181818;stroke-width:1;"/><polygon fill="#181818" points="445.58,1044.4179,435.7453,1044.9451,441.1262,1046.6903,439.381,1052.0712,445.58,1044.4179" style="stroke:#181818;stroke-width:1;"/></g><!--link DG to UC11--><g id="link_DG_UC11"><path d="M66.29,1603.7879 C68.57,1597.9379 70.56,1591.9579 72,1586.0679 C79.66,1554.6979 93.37,451.1279 111,424.0679 C121.93,407.3079 135.0504,398.5388 153.1704,391.4688 " fill="none" id="DG-to-UC11" style="stroke:#181818;stroke-width:1;"/><polygon fill="#181818" points="158.76,389.2879,148.9217,388.8329,154.102,391.1054,151.8296,396.2857,158.76,389.2879" style="stroke:#181818;stroke-width:1;"/></g><!--link UC1 to UC2--><g id="link_UC1_UC2"><path d="M493,1206.8179 C493,1190.3279 493,1175.9779 493,1159.4679 " fill="none" id="UC1-to-UC2" style="stroke:#181818;stroke-width:1;stroke-dasharray:7.0,7.0;"/><polygon fill="#181818" points="493,1153.4679,489,1162.4679,493,1158.4679,497,1162.4679,493,1153.4679" style="stroke:#181818;stroke-width:1;"/><text fill="#000000" font-family="sans-serif" font-size="13" lengthAdjust="spacing" textLength="57.5771" x="452" y="1185.4649">&#171;include&#187;</text></g><!--link UC1 to UC3--><g id="link_UC1_UC3"><path d="M461.82,1219.3579 C443.68,1207.5579 421.74,1190.4979 408,1170.0679 C375.57,1121.8879 303.54,962.3679 340.5,917.5679 C358.26,896.0479 380.6257,887.7519 408.0757,884.7419 " fill="none" id="UC1-to-UC3" style="stroke:#181818;stroke-width:1;stroke-dasharray:7.0,7.0;"/><polygon fill="#181818" points="414.04,884.0879,404.6576,881.0928,409.0698,884.6329,405.5296,889.0451,414.04,884.0879" style="stroke:#181818;stroke-width:1;"/><text fill="#000000" font-family="sans-serif" font-size="13" lengthAdjust="spacing" textLength="57.5771" x="317.5" y="932.4649">&#171;include&#187;</text></g><!--link UC1 to UC8--><g id="link_UC1_UC8"><path d="M455.32,1241.8379 C419.68,1243.9879 367.7,1240.5379 340.5,1207.5679 C300.79,1159.4379 373.02,701.7379 408,650.0679 C415.94,638.3379 422.5827,632.1754 434.9627,625.2554 " fill="none" id="UC1-to-UC8" style="stroke:#181818;stroke-width:1;stroke-dasharray:7.0,7.0;"/><polygon fill="#181818" points="440.2,622.3279,430.3923,623.2276,435.8355,624.7675,434.2957,630.2107,440.2,622.3279" style="stroke:#181818;stroke-width:1;"/><text fill="#000000" font-family="sans-serif" font-size="13" lengthAdjust="spacing" textLength="57.5771" x="317.5" y="1203.4649">&#171;include&#187;</text></g><!--link UC5 to Email--><g id="link_UC5_Email"><path d="M551.62,719.8479 C562.04,726.3879 571.62,734.6779 578,745.0679 C621.05,815.1979 556.11,1421.2079 608,1485.0679 C649.33,1535.9379 691.24,1494.1579 751,1521.0679 C806.22,1545.9379 858.3062,1586.4902 885.8262,1609.4902 " fill="none" id="UC5-to-Email" style="stroke:#181818;stroke-width:1;stroke-dasharray:7.0,7.0;"/><polygon fill="#181818" points="890.43,1613.3379,886.0894,1604.4972,886.5935,1610.1315,880.9591,1610.6356,890.43,1613.3379" style="stroke:#181818;stroke-width:1;"/><text fill="#000000" font-family="sans-serif" font-size="13" lengthAdjust="spacing" textLength="55.497" x="652.238" y="1462.9649">&#171;extend&#187;</text><text fill="#000000" font-family="sans-serif" font-size="13" lengthAdjust="spacing" textLength="141.9731" x="609" y="1480.6709">notifications manuelles</text></g><!--link UC4 to Paper--><g id="link_UC4_Paper"><path d="M256.09,491.7879 C267.07,498.7779 277.5,507.7879 284,519.0679 C361.25,653.2279 255.96,1071.5479 314,1215.0679 C340.37,1280.2779 719.89,1609.9879 751,1673.0679 C792.12,1756.4479 722.83,1807.5579 781,1880.0679 C798.64,1902.0579 821.7106,1912.5169 847.4406,1918.9769 " fill="none" id="UC4-to-Paper" style="stroke:#181818;stroke-width:1;stroke-dasharray:7.0,7.0;"/><polygon fill="#181818" points="853.26,1920.4379,845.505,1914.3667,848.4105,1919.2204,843.5569,1922.1259,853.26,1920.4379" style="stroke:#181818;stroke-width:1;"/><text fill="#000000" font-family="sans-serif" font-size="13" lengthAdjust="spacing" textLength="55.497" x="465.409" y="1302.9649">&#171;extend&#187;</text><text fill="#000000" font-family="sans-serif" font-size="13" lengthAdjust="spacing" textLength="107.3151" x="439.5" y="1320.6709">formulaire papier</text></g><!--link UC8 to Excel--><g id="link_UC8_Excel"><path d="M546.43,621.7579 C558.82,628.7079 570.58,637.9579 578,650.0679 C622.29,722.3079 553.74,1346.9879 608,1412.0679 C649.71,1462.0979 706.91,1396.1379 751,1444.0679 C817.21,1516.0479 720.08,1585.5579 781,1662.0679 C797.09,1682.2879 816.9362,1692.3561 840.9262,1699.1361 " fill="none" id="UC8-to-Excel" style="stroke:#181818;stroke-width:1;stroke-dasharray:7.0,7.0;"/><polygon fill="#181818" points="846.7,1700.7679,839.1271,1694.471,841.8885,1699.4081,836.9514,1702.1695,846.7,1700.7679" style="stroke:#181818;stroke-width:1;"/><text fill="#000000" font-family="sans-serif" font-size="13" lengthAdjust="spacing" textLength="55.497" x="651.8" y="1389.9649">&#171;extend&#187;</text><text fill="#000000" font-family="sans-serif" font-size="13" lengthAdjust="spacing" textLength="84.0971" x="637.5" y="1407.6709">calcul manuel</text></g><!--link UC2 to Email--><g id="link_UC2_Email"><path d="M537.34,1148.2379 C552.34,1158.9979 567.91,1172.8479 578,1189.0679 C612.07,1243.8379 563.27,1284.5879 608,1331.0679 C653.44,1378.2979 698.38,1328.0079 751,1367.0679 C839.66,1432.8979 886.0446,1559.4791 900.7646,1605.8491 " fill="none" id="UC2-to-Email" style="stroke:#181818;stroke-width:1;stroke-dasharray:7.0,7.0;"/><polygon fill="#181818" points="902.58,1611.5679,903.6694,1601.7795,901.0672,1606.8023,896.0444,1604.2,902.58,1611.5679" style="stroke:#181818;stroke-width:1;"/><text fill="#000000" font-family="sans-serif" font-size="13" lengthAdjust="spacing" textLength="55.497" x="652.0895" y="1308.9649">&#171;extend&#187;</text><text fill="#000000" font-family="sans-serif" font-size="13" lengthAdjust="spacing" textLength="117.6761" x="621" y="1326.6709">relances manuelles</text></g><!--link UC3 to Email--><g id="link_UC3_Email"><path d="M522.67,916.0179 C539.83,933.5379 561.43,957.0879 578,980.0679 C743.85,1210.1879 870.3271,1530.0998 899.2471,1606.1398 " fill="none" id="UC3-to-Email" style="stroke:#181818;stroke-width:1;stroke-dasharray:7.0,7.0;"/><polygon fill="#181818" points="901.38,1611.7479,901.9194,1601.9138,899.6026,1607.0745,894.4419,1604.7577,901.38,1611.7479" style="stroke:#181818;stroke-width:1;"/><text fill="#000000" font-family="sans-serif" font-size="13" lengthAdjust="spacing" textLength="55.497" x="652.0895" y="1006.9649">&#171;extend&#187;</text><text fill="#000000" font-family="sans-serif" font-size="13" lengthAdjust="spacing" textLength="117.6761" x="621" y="1024.6709">relances manuelles</text></g><!--link Others to GMN100--><g id="link_Others_GMN100"><path d="M854.53,1817.2579 C800.23,1812.2079 719.02,1795.1279 679.5,1739.5679 C583.79,1605.0279 596.78,396.4679 679.5,253.5679 C702.12,214.4879 741.24,186.0179 780.81,165.7679 " fill="none" id="Others-GMN100" style="stroke:#181818;stroke-width:1;stroke-dasharray:7.0,7.0;"/></g><!--SRC=[bLPBRnit4BxlhnZOA18hbI9PriE18K3Ioe_MXWN9Jb705qgY93OhSaDoOmT5xxqLA0hq6A2NnZsbG6-zLV-alo0_eKFkMz6gxKKYTuRpVHpEIpFjKRXL5Fe4Vrn65fAie0mZgfG8v9GgE0zMX75STFitjuDBn_7eN8CM8DbYgM7699rg9hZZaAaM4lR6mbyoUiUVZiuFze0e23_0_kbfhzclnMfNX9C5bSggN2saaRlTtd5YXdX4ilLZg80xsE-wRdlGZ1LUChbWt28D2Tgd3vfAJaDC8uHzr-rMNJS-q5zAfZJU1K-uPw6UUvPeEUOYX2_G8tlZjqgltwyeZCwZU-yPVgUd_JvywpW0WQ9JuxAzi_MZfFAE-qZ1MhpjrungizVieHuNcaQU4dCZmsy07z_zz0SSDihrwlBvIZ1bFzQgdm6LaWRIx2cVsSCvi35XYY7Od0RCy_1DbgXDLOHxQ5tOgbQtu1wckBKg0gq83wXdFpPnAwacSbQ8-v9uR4OBWUixWEifS7rPhpvNr8QJ_JgY7k4cna8sQBU8W8kdk6Km5NmH1yLj_sW7yb6AF2G-enAUWG4FRrqlD-0R3745i_MZHrWHyZMV27IDWUOYU4D902gAp8X3O_EvRO9O2etCvOz1ht-PBZTk2z0krwfBy8b4SXCIe4OXbVayuH9p02Ka1gsEk3Gt_P5oQMOYxx20IwFS3AcWJ_1F5p69WvvnZIk6Jas3eRNZILefXy73b7h0bF3MZ_Rh44_FdbYBM8HiHIb0xnDl6dW6NxFfAweLXg_I8i9l5pz7EuKlbMmqckGhbQBqowV5NxytudpyDpSO0PAdC9UOe16Funr-EDuCpUU3931leZlvLCw2meJe2wu2JnlqBuSN2kjKN7ognVUlLLFSYvKlb68JBqn5Lt2-VlmlgJYKOXRWUzznINqCFiONCVJEmbVB5WBmCVMW1fBunaQUWfYOg7Ylyno-onNewq0pJy7JCVE4Eh35UN0qg65npbAz7dQ_7c2rlw4hNuK5VoXyyfPctYOjhjsp0GpZCZx6vfIvJgfrSTar9WVPReCiYDNkLblTdFPN5vUMm2XIl6VMuOc2JGDKMF_SWZcROf-K4T4mGRRmjA4IgaH1arxO1fDfR-Pj4rFucSfjbnbW420Z930YCsPgyHtlN_HkXfLAnPwyrakqOdp_n5PhavP9GpSDtedMvNB7ThVSjfxVDlBRPdxRoc_R6vQh6_i4gbBfn8_w0anKC4MpClkGMoMXXnCHc4Suo2aO_su_6xfqgoZqMG4Py_uPKSwjyKJac6aezc2wFhBhhTUD1Pk4amCRRFEl6GzQZXcoGgp3pFeeipwsw-qkZmMxiEAP3Up8Tk3OCIsE7RknNhBfb9f81F6BIRh-LJ2D8v-f7YgZiE607BXxvk2ubyHJkguPlGi-zO8PrXmpm5Mi4z3GoGaBltSwgQ1U96X_8cX0XjN9YPbH-QpJiJs3OS97rDAgQsQQZ1UpH-P2hWBFz5hiqIRH7OEOSKjMUMgRPDpGy7wcO75bqNmf9jXsLmZ-Eh2OXpdlPUt8JsSquu3_eUxOLZ0HMeiL5fzIQJYwxbsklxyQZE6g-yNWTZIsBJWSJXlFG8IrdGiEqJXWWZDI6D6oCbCmXMQv3NFitzXu4MxzsyhquAY7E4btjNtvNiXNSq_SuuOjc2R1muR26xGumP11DD2cMG1Ysa5WSsJ-77190hmBUa_5Syh7Tpz-WBvO_wbVHETnJbKCnoX9iCM6pHpr_lxX0xGREFKJRc13rGLHFXPXd8EIPlSF]--></g></svg>