<svg xmlns="http://www.w3.org/2000/svg" xmlns:xlink="http://www.w3.org/1999/xlink" contentStyleType="text/css" height="1042px" preserveAspectRatio="none" style="width:2066px;height:1042px;background:#FFFFFF;" version="1.1" viewBox="0 0 2066 1042" width="2066px" zoomAndPan="magnify"><title>Component Diagram - Architecture Syst&#195;&#168;me ACTUEL Direction-Affaires</title><defs/><g><text fill="#000000" font-family="sans-serif" font-size="14" font-weight="bold" lengthAdjust="spacing" textLength="483.0752" x="784.4624" y="24.5332">Component Diagram - Architecture Syst&#195;&#168;me ACTUEL Direction-Affaires</text><!--cluster Responsables Affaires (4)--><g id="cluster_Responsables Affaires (4)"><path d="M454.5,217.6094 L627.4443,217.6094 A3.75,3.75 0 0 1 629.9443,220.1094 L636.9443,241.2188 L1019.5,241.2188 A2.5,2.5 0 0 1 1022,243.7188 L1022,326.1094 A2.5,2.5 0 0 1 1019.5,328.6094 L454.5,328.6094 A2.5,2.5 0 0 1 452,326.1094 L452,220.1094 A2.5,2.5 0 0 1 454.5,217.6094 " fill="#FFE4E1" style="stroke:#000000;stroke-width:1.5;"/><line style="stroke:#000000;stroke-width:1.5;" x1="452" x2="636.9443" y1="241.2188" y2="241.2188"/><text fill="#000000" font-family="sans-serif" font-size="14" font-weight="bold" lengthAdjust="spacing" textLength="171.9443" x="456" y="234.1426">Responsables Affaires (4)</text></g><!--cluster Direction & BE--><g id="cluster_Direction &amp; BE"><path d="M648.5,44.6094 L747.5137,44.6094 A3.75,3.75 0 0 1 750.0137,47.1094 L757.0137,68.2188 L1070.5,68.2188 A2.5,2.5 0 0 1 1073,70.7188 L1073,149.1094 A2.5,2.5 0 0 1 1070.5,151.6094 L648.5,151.6094 A2.5,2.5 0 0 1 646,149.1094 L646,47.1094 A2.5,2.5 0 0 1 648.5,44.6094 " fill="#E6F3FF" style="stroke:#000000;stroke-width:1.5;"/><line style="stroke:#000000;stroke-width:1.5;" x1="646" x2="757.0137" y1="68.2188" y2="68.2188"/><text fill="#000000" font-family="sans-serif" font-size="14" font-weight="bold" lengthAdjust="spacing" textLength="98.0137" x="650" y="61.1426">Direction &amp; BE</text></g><!--cluster Syst??me Legacy--><g id="cluster_Syst&#195;&#168;me Legacy"><path d="M692.5,394.6094 L810.2168,394.6094 A3.75,3.75 0 0 1 812.7168,397.1094 L819.7168,418.2188 L1263.5,418.2188 A2.5,2.5 0 0 1 1266,420.7188 L1266,809.1094 A2.5,2.5 0 0 1 1263.5,811.6094 L692.5,811.6094 A2.5,2.5 0 0 1 690,809.1094 L690,397.1094 A2.5,2.5 0 0 1 692.5,394.6094 " fill="#FFCCCC" style="stroke:#000000;stroke-width:1.5;"/><line style="stroke:#000000;stroke-width:1.5;" x1="690" x2="819.7168" y1="418.2188" y2="418.2188"/><text fill="#000000" font-family="sans-serif" font-size="14" font-weight="bold" lengthAdjust="spacing" textLength="116.7168" x="694" y="411.1426">Syst&#195;&#168;me Legacy</text></g><!--cluster SageMDE--><g id="cluster_SageMDE"><path d="M909,456.6094 C909,446.6094 1071.5,446.6094 1071.5,446.6094 C1071.5,446.6094 1234,446.6094 1234,456.6094 L1234,769.6094 C1234,779.6094 1071.5,779.6094 1071.5,779.6094 C1071.5,779.6094 909,779.6094 909,769.6094 L909,456.6094 " fill="#FF0000" style="stroke:#181818;stroke-width:1;"/><path d="M909,456.6094 C909,466.6094 1071.5,466.6094 1071.5,466.6094 C1071.5,466.6094 1234,466.6094 1234,456.6094 " fill="none" style="stroke:#181818;stroke-width:1;"/><text fill="#000000" font-family="sans-serif" font-size="14" font-weight="bold" lengthAdjust="spacing" textLength="101.1377" x="1020.9312" y="483.1426">Sage MDE/ERP</text><text fill="#000000" font-family="sans-serif" font-size="14" font-weight="bold" lengthAdjust="spacing" textLength="76.2139" x="1033.3931" y="500.752">(Obsol&#195;&#168;te)</text></g><!--cluster Documents (Chaos)--><g id="cluster_Documents (Chaos)"><path d="M8.5,470.1094 L141.7344,470.1094 A3.75,3.75 0 0 1 144.2344,472.6094 L151.2344,493.7188 L663.5,493.7188 A2.5,2.5 0 0 1 666,496.2188 L666,812.1094 A2.5,2.5 0 0 1 663.5,814.6094 L8.5,814.6094 A2.5,2.5 0 0 1 6,812.1094 L6,472.6094 A2.5,2.5 0 0 1 8.5,470.1094 " fill="#FFF9E6" style="stroke:#000000;stroke-width:1.5;"/><line style="stroke:#000000;stroke-width:1.5;" x1="6" x2="151.2344" y1="493.7188" y2="493.7188"/><text fill="#000000" font-family="sans-serif" font-size="14" font-weight="bold" lengthAdjust="spacing" textLength="132.2344" x="10" y="486.6426">Documents (Chaos)</text></g><!--cluster Communication--><g id="cluster_Communication"><path d="M1840.5,479.1094 L1947.2793,479.1094 A3.75,3.75 0 0 1 1949.7793,481.6094 L1956.7793,502.7188 L2056.5,502.7188 A2.5,2.5 0 0 1 2059,505.2188 L2059,779.6094 A2.5,2.5 0 0 1 2056.5,782.1094 L1840.5,782.1094 A2.5,2.5 0 0 1 1838,779.6094 L1838,481.6094 A2.5,2.5 0 0 1 1840.5,479.1094 " fill="#F0F0F0" style="stroke:#000000;stroke-width:1.5;"/><line style="stroke:#000000;stroke-width:1.5;" x1="1838" x2="1956.7793" y1="502.7188" y2="502.7188"/><text fill="#000000" font-family="sans-serif" font-size="14" font-weight="bold" lengthAdjust="spacing" textLength="105.7793" x="1842" y="495.6426">Communication</text></g><!--cluster Clients--><g id="cluster_Clients"><path d="M1300.7457,693.2904 C1311.1345,671.8839 1323.2659,671.2313 1338.6622,688.3639 C1347.6895,675.4099 1363.0546,674.0004 1371.2867,689.2827 C1381.0105,670.1985 1399.8555,671.72 1410.7795,687.9401 C1419.3209,671.5774 1436.2843,665.8169 1448.5472,683.8543 C1458.4453,668.0811 1474.9681,666.1322 1483.7956,684.9455 C1491.8313,667.5205 1506.1813,667.6649 1516.3001,682.8705 C1525.4482,659.7287 1544.7946,663.3628 1557.2467,679.4191 C1567.7974,664.0721 1582.5262,662.1548 1592.6908,679.8334 C1604.2541,665.2507 1618.4634,664.608 1627.9244,682.1399 C1640.0297,666.4585 1653.7421,666.4677 1664.1017,684.0392 C1674.3546,668.3965 1690.8315,671.2379 1697.7911,687.5151 C1712.8471,666.2105 1727.8283,667.9117 1739.8655,690.4145 C1746.0337,673.5389 1760.3255,671.6497 1770.0047,687.1457 C1781.6697,669.1004 1801.0797,669.3436 1811.1399,688.9014 C1834.3038,693.9765 1839.0389,713.9011 1820.8142,728.9694 C1838.9801,750.36 1835.1052,766.0176 1806.745,772.3022 C1794.1558,787.6802 1782.4279,786.1871 1774.5425,767.8142 C1766.6373,786.5588 1747.4122,787.9024 1735.5839,772.2586 C1724.2712,789.8112 1713.9662,787.1839 1701.7179,773.2655 C1690.5364,789.3985 1677.8143,791.0671 1664.6118,775.6417 C1653.945,791.6867 1639.3583,793.8046 1628.9955,775.3281 C1617.2227,790.1526 1604.4754,792.9114 1594.5826,773.4416 C1584.9585,793.4305 1570.8066,799.2772 1554.4365,780.4119 C1540.4727,795.9356 1527.1435,793.0408 1517.2524,775.7912 C1508.7987,790.0429 1493.472,795.4406 1483.3315,777.5727 C1471.4554,798.0144 1454.5378,792.1027 1444.2546,775.8753 C1434.1397,788.9285 1420.8809,789.4863 1411.9717,774.4876 C1398.0493,790.0962 1384.2941,793.1591 1373.5977,771.193 C1360.3798,788.7591 1346.0341,784.3596 1335.5316,768.1343 C1327.3762,784.681 1311.3519,781.9172 1302.9,768.4566 C1284.4067,757.2247 1279.2423,743.0125 1299.8072,728.7393 C1282.6067,718.0324 1285.276,703.1324 1300.7457,693.2904 " fill="#E0E0E0" style="stroke:#181818;stroke-width:1;"/><text fill="#000000" font-family="sans-serif" font-size="14" font-weight="bold" lengthAdjust="spacing" textLength="46.6758" x="1528.6621" y="706.6426">Clients</text></g><!--entity Laurent--><g id="elem_Laurent"><rect fill="#FFB6C1" height="55.2188" rx="2.5" ry="2.5" style="stroke:#181818;stroke-width:0.5;" width="67.4824" x="468.5" y="255.6094"/><text fill="#000000" font-family="sans-serif" font-size="14" lengthAdjust="spacing" textLength="47.4824" x="478.5" y="280.1426">Laurent</text><text fill="#000000" font-family="sans-serif" font-size="14" lengthAdjust="spacing" textLength="31.124" x="478.5" y="297.752">RA 1</text></g><!--entity RA2--><g id="elem_RA2"><rect fill="#FFB6C1" height="37.6094" rx="2.5" ry="2.5" style="stroke:#181818;stroke-width:0.5;" width="51.124" x="782.5" y="264.1094"/><text fill="#000000" font-family="sans-serif" font-size="14" lengthAdjust="spacing" textLength="31.124" x="792.5" y="288.6426">RA 2</text></g><!--entity RA3--><g id="elem_RA3"><rect fill="#FFB6C1" height="37.6094" rx="2.5" ry="2.5" style="stroke:#181818;stroke-width:0.5;" width="51.124" x="868.5" y="264.1094"/><text fill="#000000" font-family="sans-serif" font-size="14" lengthAdjust="spacing" textLength="31.124" x="878.5" y="288.6426">RA 3</text></g><!--entity RA4--><g id="elem_RA4"><rect fill="#FFB6C1" height="37.6094" rx="2.5" ry="2.5" style="stroke:#181818;stroke-width:0.5;" width="51.124" x="954.5" y="264.1094"/><text fill="#000000" font-family="sans-serif" font-size="14" lengthAdjust="spacing" textLength="31.124" x="964.5" y="288.6426">RA 4</text></g><g id="elem_GMN7"><path d="M570.5,253.6094 L570.5,279.1094 L535.73,283.1094 L570.5,287.1094 L570.5,312.6641 A0,0 0 0 0 570.5,312.6641 L747.5698,312.6641 A0,0 0 0 0 747.5698,312.6641 L747.5698,263.6094 L737.5698,253.6094 L570.5,253.6094 A0,0 0 0 0 570.5,253.6094 " fill="#FEFFDD" style="stroke:#181818;stroke-width:0.5;"/><path d="M737.5698,253.6094 L737.5698,263.6094 L747.5698,263.6094 L737.5698,253.6094 " fill="#FEFFDD" style="stroke:#181818;stroke-width:0.5;"/><text fill="#000000" font-family="sans-serif" font-size="13" lengthAdjust="spacing" textLength="108.5449" x="576.5" y="272.1045">&#240;&#376;&#8221;&#180; Travail isol&#195;&#169;</text><text fill="#000000" font-family="sans-serif" font-size="13" lengthAdjust="spacing" textLength="156.0698" x="576.5" y="288.4561">&#240;&#376;&#8221;&#180; Templates personnels</text><text fill="#000000" font-family="sans-serif" font-size="13" lengthAdjust="spacing" textLength="96.0908" x="576.5" y="304.8076">&#240;&#376;&#8221;&#180; Excel perso</text></g><!--entity Marie--><g id="elem_Marie"><rect fill="#DDA0DD" height="55.2188" rx="2.5" ry="2.5" style="stroke:#181818;stroke-width:0.5;" width="79.1172" x="768.5" y="80.6094"/><text fill="#000000" font-family="sans-serif" font-size="14" lengthAdjust="spacing" textLength="35.0068" x="778.5" y="105.1426">Marie</text><text fill="#000000" font-family="sans-serif" font-size="14" lengthAdjust="spacing" textLength="59.1172" x="778.5" y="122.752">Directrice</text></g><!--entity Thomas--><g id="elem_Thomas"><rect fill="#98FB98" height="55.2188" rx="2.5" ry="2.5" style="stroke:#181818;stroke-width:0.5;" width="70.5723" x="662.5" y="80.6094"/><text fill="#000000" font-family="sans-serif" font-size="14" lengthAdjust="spacing" textLength="50.5723" x="672.5" y="105.1426">Thomas</text><text fill="#000000" font-family="sans-serif" font-size="14" lengthAdjust="spacing" textLength="18.6758" x="672.5" y="122.752">BE</text></g><g id="elem_GMN13"><path d="M883,86.6094 L883,104.1094 L847.55,108.1094 L883,112.1094 L883,129.3125 A0,0 0 0 0 883,129.3125 L1057.3467,129.3125 A0,0 0 0 0 1057.3467,129.3125 L1057.3467,96.6094 L1047.3467,86.6094 L883,86.6094 A0,0 0 0 0 883,86.6094 " fill="#FEFFDD" style="stroke:#181818;stroke-width:0.5;"/><path d="M1047.3467,86.6094 L1047.3467,96.6094 L1057.3467,96.6094 L1047.3467,86.6094 " fill="#FEFFDD" style="stroke:#181818;stroke-width:0.5;"/><text fill="#000000" font-family="sans-serif" font-size="13" lengthAdjust="spacing" textLength="153.3467" x="889" y="105.1045">&#240;&#376;&#8221;&#180; Aucune visibilit&#195;&#169; TR</text><text fill="#000000" font-family="sans-serif" font-size="13" lengthAdjust="spacing" textLength="126.9658" x="889" y="121.4561">&#226;&#65533;&#176; 3h pour un chiffre</text></g><g id="elem_GMN21"><path d="M706,488.6094 L706,596.7188 L881.9717,596.7188 L881.9717,498.6094 L871.9717,488.6094 L706,488.6094 " fill="#FEFFDD" style="stroke:#181818;stroke-width:0.5;"/><path d="M871.9717,488.6094 L871.9717,498.6094 L881.9717,498.6094 L871.9717,488.6094 " fill="#FEFFDD" style="stroke:#181818;stroke-width:1;"/><text fill="#000000" font-family="sans-serif" font-size="13" lengthAdjust="spacing" textLength="35.0327" x="712" y="507.1045">&#226;&#353;&#160;&#239;&#184;&#65533;</text><text fill="#000000" font-family="sans-serif" font-size="13" font-weight="bold" lengthAdjust="spacing" textLength="85.2173" x="750.6445" y="507.1045">CALAMITEUX</text><text fill="#000000" font-family="sans-serif" font-size="13" lengthAdjust="spacing" textLength="117.2412" x="712" y="523.4561">- 30-40s par &#195;&#169;cran</text><text fill="#000000" font-family="sans-serif" font-size="13" lengthAdjust="spacing" textLength="103.6636" x="712" y="539.8076">- VPN + Citrix lent</text><text fill="#000000" font-family="sans-serif" font-size="13" lengthAdjust="spacing" textLength="117.7744" x="712" y="556.1592">- Interface complexe</text><text fill="#000000" font-family="sans-serif" font-size="13" lengthAdjust="spacing" textLength="154.9717" x="712" y="572.5107">- T&#195;&#169;l&#195;&#169;travail impossible</text><text fill="#000000" font-family="sans-serif" font-size="13" lengthAdjust="spacing" textLength="130.2349" x="712" y="588.8623">- Timeouts fr&#195;&#169;quents</text></g><!--entity Module Devis--><g id="elem_Module Devis"><rect fill="#F1F1F1" height="37.6094" rx="2.5" ry="2.5" style="stroke:#181818;stroke-width:0.5;" width="104.8135" x="952.5" y="523.6094"/><text fill="#000000" font-family="sans-serif" font-size="14" lengthAdjust="spacing" textLength="84.8135" x="962.5" y="548.1426">Module Devis</text></g><!--entity Module Affaires--><g id="elem_Module Affaires"><rect fill="#F1F1F1" height="37.6094" rx="2.5" ry="2.5" style="stroke:#181818;stroke-width:0.5;" width="117.2686" x="1092.5" y="523.6094"/><text fill="#000000" font-family="sans-serif" font-size="14" lengthAdjust="spacing" textLength="97.2686" x="1102.5" y="548.1426">Module Affaires</text></g><!--entity Module Facturation--><g id="elem_Module Facturation"><rect fill="#F1F1F1" height="37.6094" rx="2.5" ry="2.5" style="stroke:#181818;stroke-width:0.5;" width="139.8408" x="952" y="717.6094"/><text fill="#000000" font-family="sans-serif" font-size="14" lengthAdjust="spacing" textLength="119.8408" x="962" y="742.1426">Module Facturation</text></g><!--entity WordPPSPS--><g id="elem_WordPPSPS"><rect fill="#FFD700" height="55.2188" rx="2.5" ry="2.5" style="stroke:#181818;stroke-width:0.5;" width="135.9375" x="22" y="515.1094"/><text fill="#000000" font-family="sans-serif" font-size="14" lengthAdjust="spacing" textLength="33.4482" x="32" y="539.6426">Word</text><text fill="#000000" font-family="sans-serif" font-size="14" lengthAdjust="spacing" textLength="115.9375" x="32" y="557.252">Templates PPSPS</text></g><!--entity WordDevis--><g id="elem_WordDevis"><rect fill="#FFD700" height="55.2188" rx="2.5" ry="2.5" style="stroke:#181818;stroke-width:0.5;" width="55.0068" x="328.5" y="515.1094"/><text fill="#000000" font-family="sans-serif" font-size="14" lengthAdjust="spacing" textLength="33.4482" x="338.5" y="539.6426">Word</text><text fill="#000000" font-family="sans-serif" font-size="14" lengthAdjust="spacing" textLength="35.0068" x="338.5" y="557.252">Devis</text></g><!--entity ExcelL--><g id="elem_ExcelL"><rect fill="#FFD700" height="55.2188" rx="2.5" ry="2.5" style="stroke:#181818;stroke-width:0.5;" width="107.9443" x="419" y="515.1094"/><text fill="#000000" font-family="sans-serif" font-size="14" lengthAdjust="spacing" textLength="34.2344" x="429" y="539.6426">Excel</text><text fill="#000000" font-family="sans-serif" font-size="14" lengthAdjust="spacing" textLength="87.9443" x="429" y="557.252">Perso Laurent</text></g><!--entity ExcelRA2--><g id="elem_ExcelRA2"><rect fill="#FFD700" height="55.2188" rx="2.5" ry="2.5" style="stroke:#181818;stroke-width:0.5;" width="87.6963" x="562" y="515.1094"/><text fill="#000000" font-family="sans-serif" font-size="14" lengthAdjust="spacing" textLength="34.2344" x="572" y="539.6426">Excel</text><text fill="#000000" font-family="sans-serif" font-size="14" lengthAdjust="spacing" textLength="67.6963" x="572" y="557.252">Perso RA2</text></g><!--entity Dossiers--><g id="elem_Dossiers"><rect fill="#FF6B6B" height="72.8281" rx="2.5" ry="2.5" style="stroke:#181818;stroke-width:0.5;" width="99.7686" x="193" y="506.1094"/><text fill="#000000" font-family="sans-serif" font-size="14" lengthAdjust="spacing" textLength="54.4551" x="203" y="530.6426">Dossiers</text><text fill="#000000" font-family="sans-serif" font-size="14" lengthAdjust="spacing" textLength="67.9014" x="203" y="548.252">Partag&#195;&#169;s</text><text fill="#000000" font-family="sans-serif" font-size="14" lengthAdjust="spacing" textLength="79.7686" x="203" y="565.8613">200+ fichiers</text></g><g id="elem_GMN30"><path d="M118,674.6094 L118,799.0703 A0,0 0 0 0 118,799.0703 L367.8901,799.0703 A0,0 0 0 0 367.8901,799.0703 L367.8901,684.6094 L357.8901,674.6094 L247,674.6094 L243,579.2694 L239,674.6094 L118,674.6094 A0,0 0 0 0 118,674.6094 " fill="#FEFFDD" style="stroke:#181818;stroke-width:0.5;"/><path d="M357.8901,674.6094 L357.8901,684.6094 L367.8901,684.6094 L357.8901,674.6094 " fill="#FEFFDD" style="stroke:#181818;stroke-width:0.5;"/><text fill="#000000" font-family="sans-serif" font-size="13" lengthAdjust="spacing" textLength="24.5591" x="124" y="693.1045">&#240;&#376;&#8221;&#180;</text><text fill="#000000" font-family="sans-serif" font-size="13" font-weight="bold" lengthAdjust="spacing" textLength="111.23" x="152.1709" y="693.1045">CHAOS FICHIERS</text><text fill="#000000" font-family="sans-serif" font-size="13" lengthAdjust="spacing" textLength="116.6826" x="124" y="709.4561">- 200+ fichiers Word</text><text fill="#000000" font-family="sans-serif" font-size="13" lengthAdjust="spacing" textLength="146.8594" x="124" y="725.8076">- Nommage incoh&#195;&#169;rent:</text><text fill="#000000" font-family="sans-serif" font-size="13" lengthAdjust="spacing" textLength="197.8564" x="131.2236" y="742.1592">"PPSPS_final_v2_OK_2023.docx"</text><text fill="#000000" font-family="sans-serif" font-size="13" lengthAdjust="spacing" textLength="221.6665" x="131.2236" y="758.5107">"PPSPS_Client_A_VRAI_FINAL.docx"</text><text fill="#000000" font-family="sans-serif" font-size="13" lengthAdjust="spacing" textLength="111.2808" x="124" y="774.8623">- Pas de versioning</text><text fill="#000000" font-family="sans-serif" font-size="13" lengthAdjust="spacing" textLength="152.2422" x="124" y="791.2139">- &#226;&#65533;&#176; 30 min de recherche</text></g><!--entity Email--><g id="elem_Email"><rect fill="#F1F1F1" height="55.2188" rx="2.5" ry="2.5" style="stroke:#181818;stroke-width:0.5;" width="68.248" x="1854" y="515.1094"/><text fill="#000000" font-family="sans-serif" font-size="14" lengthAdjust="spacing" textLength="48.248" x="1864" y="539.6426">Outlook</text><text fill="#000000" font-family="sans-serif" font-size="14" lengthAdjust="spacing" textLength="35.0068" x="1864" y="557.252">Email</text></g><!--entity VPN--><g id="elem_VPN"><rect fill="#FF0000" height="37.6094" rx="2.5" ry="2.5" style="stroke:#181818;stroke-width:0.5;" width="84.5586" x="1957.5" y="523.6094"/><text fill="#000000" font-family="sans-serif" font-size="14" lengthAdjust="spacing" textLength="64.5586" x="1967.5" y="548.1426">VPN/Citrix</text></g><g id="elem_GMN36"><path d="M1871.5,707.1094 L1871.5,766.1641 A0,0 0 0 0 1871.5,766.1641 L2042.9648,766.1641 A0,0 0 0 0 2042.9648,766.1641 L2042.9648,717.1094 L2032.9648,707.1094 L1967.42,707.1094 L1995.95,561.6694 L1959.42,707.1094 L1871.5,707.1094 A0,0 0 0 0 1871.5,707.1094 " fill="#FEFFDD" style="stroke:#181818;stroke-width:0.5;"/><path d="M2032.9648,707.1094 L2032.9648,717.1094 L2042.9648,717.1094 L2032.9648,707.1094 " fill="#FEFFDD" style="stroke:#181818;stroke-width:0.5;"/><text fill="#000000" font-family="sans-serif" font-size="13" lengthAdjust="spacing" textLength="137.4712" x="1877.5" y="725.6045">&#240;&#376;&#8221;&#180; 30-40s par &#195;&#169;cran</text><text fill="#000000" font-family="sans-serif" font-size="13" lengthAdjust="spacing" textLength="150.4648" x="1877.5" y="741.9561">&#240;&#376;&#8221;&#180; Timeouts fr&#195;&#169;quents</text><text fill="#000000" font-family="sans-serif" font-size="13" lengthAdjust="spacing" textLength="129.3462" x="1877.5" y="758.3076">&#240;&#376;&#732;&#164; Frustration 10/10</text></g><!--entity Client1--><g id="elem_Client1"><rect fill="#F1F1F1" height="37.6094" rx="2.5" ry="2.5" style="stroke:#181818;stroke-width:0.5;" width="69.0205" x="1306.5" y="717.6094"/><text fill="#000000" font-family="sans-serif" font-size="14" lengthAdjust="spacing" textLength="49.0205" x="1316.5" y="742.1426">Client A</text></g><!--entity Client2--><g id="elem_Client2"><rect fill="#F1F1F1" height="37.6094" rx="2.5" ry="2.5" style="stroke:#181818;stroke-width:0.5;" width="69.0205" x="1516.5" y="717.6094"/><text fill="#000000" font-family="sans-serif" font-size="14" lengthAdjust="spacing" textLength="49.0205" x="1526.5" y="742.1426">Client B</text></g><!--entity Client3--><g id="elem_Client3"><rect fill="#F1F1F1" height="37.6094" rx="2.5" ry="2.5" style="stroke:#181818;stroke-width:0.5;" width="69.793" x="1411" y="717.6094"/><text fill="#000000" font-family="sans-serif" font-size="14" lengthAdjust="spacing" textLength="49.793" x="1421" y="742.1426">Client C</text></g><g id="elem_GMN43"><path d="M1620.5,715.1094 L1620.5,757.8125 L1797.5762,757.8125 L1797.5762,725.1094 L1787.5762,715.1094 L1620.5,715.1094 " fill="#FEFFDD" style="stroke:#181818;stroke-width:0.5;"/><path d="M1787.5762,715.1094 L1787.5762,725.1094 L1797.5762,725.1094 L1787.5762,715.1094 " fill="#FEFFDD" style="stroke:#181818;stroke-width:1;"/><text fill="#000000" font-family="sans-serif" font-size="13" lengthAdjust="spacing" textLength="156.0762" x="1626.5" y="733.6045">&#240;&#376;&#8220;&#167; Demande devis email</text><text fill="#000000" font-family="sans-serif" font-size="13" lengthAdjust="spacing" textLength="107.4658" x="1626.5" y="749.9561">&#226;&#65533;&#176; Attend 48-72h</text></g><g id="elem_GMN66"><path d="M1567.5,861.6094 L1567.5,1035.125 L1850.0552,1035.125 L1850.0552,871.6094 L1840.0552,861.6094 L1567.5,861.6094 " fill="#FEFFDD" style="stroke:#181818;stroke-width:0.5;"/><path d="M1840.0552,861.6094 L1840.0552,871.6094 L1850.0552,871.6094 L1840.0552,861.6094 " fill="#FEFFDD" style="stroke:#181818;stroke-width:1;"/><text fill="#000000" font-family="sans-serif" font-size="13" font-weight="bold" lengthAdjust="spacing" textLength="193.5527" x="1573.5" y="880.1045">PROBL&#195;&#710;MES ARCHITECTURE</text><text fill="#000000" font-family="sans-serif" font-size="13" lengthAdjust="spacing" textLength="253.792" x="1573.5" y="896.4561">&#240;&#376;&#8221;&#180; ERP Legacy ultra-lent (30-40s/&#195;&#169;cran)</text><text fill="#000000" font-family="sans-serif" font-size="13" lengthAdjust="spacing" textLength="258.6226" x="1573.5" y="912.8076">&#240;&#376;&#8221;&#180; T&#195;&#169;l&#195;&#169;travail impossible (VPN + Citrix)</text><text fill="#000000" font-family="sans-serif" font-size="13" lengthAdjust="spacing" textLength="261.5552" x="1573.5" y="929.1592">&#240;&#376;&#8221;&#180; Documents &#195;&#169;parpill&#195;&#169;s (200+ fichiers)</text><text fill="#000000" font-family="sans-serif" font-size="13" lengthAdjust="spacing" textLength="210.2788" x="1573.5" y="945.5107">&#240;&#376;&#8221;&#180; Pas de templates automatiques</text><text fill="#000000" font-family="sans-serif" font-size="13" lengthAdjust="spacing" textLength="213.1543" x="1573.5" y="961.8623">&#240;&#376;&#8221;&#180; Chaque RA a ses propres Excel</text><text fill="#000000" font-family="sans-serif" font-size="13" lengthAdjust="spacing" textLength="193.4067" x="1573.5" y="978.2139">&#240;&#376;&#8221;&#180; Pas d'int&#195;&#169;gration syst&#195;&#168;me</text><text fill="#000000" font-family="sans-serif" font-size="13" lengthAdjust="spacing" textLength="181.5366" x="1573.5" y="994.5654">&#240;&#376;&#8221;&#180; Pas de visibilit&#195;&#169; direction</text><text fill="#000000" font-family="sans-serif" font-size="13" lengthAdjust="spacing" textLength="181.3652" x="1573.5" y="1010.917">&#240;&#376;&#8221;&#180; PPSPS 100% manuel (3h)</text><text fill="#000000" font-family="sans-serif" font-size="13" lengthAdjust="spacing" textLength="187.1416" x="1573.5" y="1027.2686">&#240;&#376;&#8221;&#180; Recherche template 30 min</text></g><!--link SageMDE to GMN21--><g id="link_SageMDE_GMN21"><path d="M908.8786,542.6094 C908.8342,542.6094 908.7899,542.6094 908.7455,542.6094 C908.6569,542.6094 908.5682,542.6094 908.4795,542.6094 C908.3022,542.6094 908.1248,542.6094 907.9475,542.6094 C905.11,542.6094 902.2725,542.6094 899.435,542.6094 C893.76,542.6094 888.085,542.6094 882.41,542.6094 " fill="none" id="SageMDE-GMN21" style="stroke:#181818;stroke-width:1;stroke-dasharray:7.0,7.0;"/></g><!--link Client1 to GMN43--><g id="link_Client1_GMN43"><path d="M1347.65,717.5594 C1357.36,693.0394 1378,651.4994 1411.5,633.8594 C1479.92,597.8294 1512.78,607.5594 1585.5,633.8594 C1630.09,649.9794 1669.92,689.9994 1691.65,715.0694 " fill="none" id="Client1-GMN43" style="stroke:#181818;stroke-width:1;stroke-dasharray:7.0,7.0;"/></g><!--link Laurent to SageMDE--><g id="link_Laurent_SageMDE"><path d="M520.39,310.8194 C538.01,333.8094 566.91,365.2994 601,378.6094 C617.15,384.9194 900.74,374.3494 913,386.6094 C924.9925,398.5994 931.325,414.075 934.0569,430.5945 C934.7398,434.7244 935.1978,438.9195 935.4628,443.1418 C935.5291,444.1973 935.3417,439.2594 935.3843,440.3178 " fill="none" id="Laurent-to-SageMDE" style="stroke:#181818;stroke-width:1;"/><polygon fill="#181818" points="935.626,446.3129,939.2602,437.1591,935.4246,441.317,931.2667,437.4813,935.626,446.3129" style="stroke:#181818;stroke-width:1;"/><text fill="#000000" font-family="sans-serif" font-size="13" lengthAdjust="spacing" textLength="46.96" x="621.9697" y="359.1045">via VPN</text><text fill="#000000" font-family="sans-serif" font-size="13" lengthAdjust="spacing" textLength="86.8994" x="602" y="375.4561">30-40s/&#195;&#169;cran</text></g><!--link Laurent to WordPPSPS--><g id="link_Laurent_WordPPSPS"><path d="M468.35,289.7694 C389.62,303.1194 199.2,336.0994 188,344.6094 C131.58,387.4794 106.8386,465.8176 96.7386,508.9276 " fill="none" id="Laurent-to-WordPPSPS" style="stroke:#181818;stroke-width:1;"/><polygon fill="#181818" points="95.37,514.7694,101.3175,506.9191,96.5105,509.9012,93.5284,505.0942,95.37,514.7694" style="stroke:#181818;stroke-width:1;"/><text fill="#000000" font-family="sans-serif" font-size="13" lengthAdjust="spacing" textLength="62.1436" x="199.8418" y="359.1045">copie-colle</text><text fill="#000000" font-family="sans-serif" font-size="13" lengthAdjust="spacing" textLength="83.8271" x="189" y="375.4561">3h par PPSPS</text></g><!--link Laurent to WordDevis--><g id="link_Laurent_WordDevis"><path d="M468.5,293.6194 C443.19,302.5794 409.72,318.5994 391,344.6094 C353.97,396.0694 351.6715,468.2758 353.5615,508.9458 " fill="none" id="Laurent-to-WordDevis" style="stroke:#181818;stroke-width:1;"/><polygon fill="#181818" points="353.84,514.9394,357.4179,505.7634,353.6079,509.9448,349.4265,506.1348,353.84,514.9394" style="stroke:#181818;stroke-width:1;"/><text fill="#000000" font-family="sans-serif" font-size="13" lengthAdjust="spacing" textLength="56.3608" x="392" y="367.1045">templates</text></g><!--link Laurent to ExcelL--><g id="link_Laurent_ExcelL"><path d="M480.69,310.8494 C473.98,320.8494 467.43,332.6894 464,344.6094 C447.04,403.4994 456.9443,470.4822 465.1843,508.9822 " fill="none" id="Laurent-to-ExcelL" style="stroke:#181818;stroke-width:1;"/><polygon fill="#181818" points="466.44,514.8494,468.4678,505.2115,465.3936,509.9601,460.645,506.8858,466.44,514.8494" style="stroke:#181818;stroke-width:1;"/><text fill="#000000" font-family="sans-serif" font-size="13" lengthAdjust="spacing" textLength="75.8672" x="465" y="367.1045">calculs perso</text></g><!--link Laurent to Dossiers--><g id="link_Laurent_Dossiers"><path d="M468.28,285.2194 C424.74,288.4894 349.3,300.6194 305,344.6094 C261.24,388.0694 248.8164,456.0816 245.0264,499.9516 " fill="none" id="Laurent-to-Dossiers" style="stroke:#181818;stroke-width:1;"/><polygon fill="#181818" points="244.51,505.9294,249.2698,497.3071,244.9404,500.9479,241.2995,496.6185,244.51,505.9294" style="stroke:#181818;stroke-width:1;"/><text fill="#000000" font-family="sans-serif" font-size="13" lengthAdjust="spacing" textLength="57.8081" x="306" y="359.1045">recherche</text><text fill="#000000" font-family="sans-serif" font-size="13" lengthAdjust="spacing" textLength="39.019" x="315.3945" y="375.4561">30 min</text></g><!--link Laurent to VPN--><g id="link_Laurent_VPN"><path d="M520.56,310.7194 C529.15,320.7794 540.29,331.1094 553,336.6094 C577.63,347.2594 1009.18,343.7594 1036,344.6094 C1136.5,347.7794 1858.39,327.8594 1940,386.6094 C1984.96,418.9794 1995.7246,484.0007 1998.5546,517.4807 " fill="none" id="Laurent-to-VPN" style="stroke:#181818;stroke-width:1;stroke-dasharray:7.0,7.0;"/><polygon fill="#181818" points="1999.06,523.4594,2002.2877,514.1544,1998.6389,518.4771,1994.3162,514.8283,1999.06,523.4594" style="stroke:#181818;stroke-width:1;"/><text fill="#000000" font-family="sans-serif" font-size="13" lengthAdjust="spacing" textLength="39.7427" x="1919" y="367.1045">souffre</text></g><!--link RA2 to SageMDE--><g id="link_RA2_SageMDE"><path d="M810.87,302.3894 C815.35,324.2894 826.2,360.2994 851,378.6094 C873.35,395.1094 894.39,365.9794 913,386.6094 C924.3625,399.1994 930.375,414.98 932.9825,431.6183 C933.6344,435.7779 934.0734,439.991 934.3301,444.2214 C934.3622,444.7501 934.3914,445.2792 934.4178,445.8085 C934.431,446.0731 934.1757,440.3437 934.1875,440.6085 " fill="none" id="RA2-to-SageMDE" style="stroke:#181818;stroke-width:1;"/><polygon fill="#181818" points="934.4554,446.6025,938.0496,437.4329,934.2322,441.6075,930.0575,437.7901,934.4554,446.6025" style="stroke:#181818;stroke-width:1;"/><text fill="#000000" font-family="sans-serif" font-size="13" lengthAdjust="spacing" textLength="46.96" x="852" y="367.1045">via VPN</text></g><!--link RA2 to ExcelRA2--><g id="link_RA2_ExcelRA2"><path d="M797.08,302.2194 C789.39,313.5594 778.15,327.6694 765,336.6094 C755.35,343.1694 750.21,338.9694 740,344.6094 C714.59,358.6294 708.35,364.1194 690,386.6094 C656.91,427.1594 632.9092,477.1827 619.0492,509.5927 " fill="none" id="RA2-to-ExcelRA2" style="stroke:#181818;stroke-width:1;"/><polygon fill="#181818" points="616.69,515.1094,623.9066,508.4071,618.656,510.5121,616.551,505.2615,616.69,515.1094" style="stroke:#181818;stroke-width:1;"/><text fill="#000000" font-family="sans-serif" font-size="13" lengthAdjust="spacing" textLength="75.8672" x="741" y="367.1045">calculs perso</text></g><!--link RA3 to SageMDE--><g id="link_RA3_SageMDE"><path d="M898.23,302.1294 C902.81,322.4994 909.86,356.7294 913,386.6094 C914.77,403.4744 915.9113,421.4256 916.6259,438.9072 C916.7153,441.0924 916.7979,443.2702 916.8743,445.4377 C916.8839,445.7087 916.686,439.983 916.6954,440.2536 " fill="none" id="RA3-to-SageMDE" style="stroke:#181818;stroke-width:1;"/><polygon fill="#181818" points="916.9027,446.25,920.5894,437.1172,916.73,441.253,912.5941,437.3936,916.9027,446.25" style="stroke:#181818;stroke-width:1;"/><text fill="#000000" font-family="sans-serif" font-size="13" lengthAdjust="spacing" textLength="46.96" x="913" y="367.1045">via VPN</text></g><!--link RA4 to SageMDE--><g id="link_RA4_SageMDE"><path d="M982.71,302.1894 C984.79,323.2094 984.66,357.6994 966,378.6094 C956.81,388.9094 945.06,376.1994 936,386.6094 C930.395,393.0519 926.3981,405.7106 923.5573,421.1359 C922.137,428.8486 921.6247,431.2849 920.7258,439.9496 " fill="none" id="RA4-to-SageMDE" style="stroke:#181818;stroke-width:1;"/><polygon fill="#181818" points="920.1067,445.9176,925.014,437.3784,920.6227,440.9443,917.0567,436.5529,920.1067,445.9176" style="stroke:#181818;stroke-width:1;"/><text fill="#000000" font-family="sans-serif" font-size="13" lengthAdjust="spacing" textLength="46.96" x="981" y="367.1045">via VPN</text></g><!--link Marie to SageMDE--><g id="link_Marie_SageMDE"><path d="M831.12,135.7294 C840.85,145.0494 852.96,154.4694 866,159.6094 C914.83,178.8394 1050.95,155.4894 1102,167.6094 C1145.34,177.8994 1163.86,175.9194 1193,209.6094 C1233.94,256.9394 1224.02,282.6794 1233,344.6094 C1235.17,359.5594 1243.54,367.7794 1233,378.6094 C1221.49,390.4394 948.21,375.5094 936,386.6094 C929.6825,392.3544 925.3238,404.6588 922.3423,419.9461 C920.8516,427.5898 919.7053,435.9792 918.8306,444.6673 C918.7759,445.2103 919.2981,439.7822 919.2455,440.3274 " fill="none" id="Marie-to-SageMDE" style="stroke:#181818;stroke-width:1;stroke-dasharray:7.0,7.0;"/><polygon fill="#181818" points="918.6697,446.2997,923.5149,437.7251,919.1495,441.3228,915.5519,436.9574,918.6697,446.2997" style="stroke:#181818;stroke-width:1;"/><text fill="#000000" font-family="sans-serif" font-size="13" lengthAdjust="spacing" textLength="69.3799" x="1232" y="280.6045">consultation</text><text fill="#000000" font-family="sans-serif" font-size="13" lengthAdjust="spacing" textLength="52.7363" x="1240.3218" y="296.9561">(si dispo)</text></g><!--link Marie to Laurent--><g id="link_Marie_Laurent"><path d="M784.19,135.7294 C774.74,144.6994 763.21,153.8794 751,159.6094 C729.83,169.5394 721.84,162.5894 699,167.6094 C633.05,182.1094 608,170.4394 553,209.6094 C536.58,221.3094 526.5625,234.7961 517.8125,250.2761 " fill="none" id="Marie-to-Laurent" style="stroke:#181818;stroke-width:1;stroke-dasharray:7.0,7.0;"/><polygon fill="#181818" points="514.86,255.4994,522.7709,249.6327,517.3204,251.1466,515.8065,245.6961,514.86,255.4994" style="stroke:#181818;stroke-width:1;"/><text fill="#000000" font-family="sans-serif" font-size="13" lengthAdjust="spacing" textLength="99.7217" x="700" y="182.1045">demande chiffres</text><text fill="#000000" font-family="sans-serif" font-size="13" lengthAdjust="spacing" textLength="40.2505" x="729.7356" y="198.4561">&#226;&#65533;&#176; 3h</text></g><!--link Marie to RA2--><g id="link_Marie_RA2"><path d="M808,135.7594 C808,171.2094 808,226.9594 808,257.6694 " fill="none" id="Marie-to-RA2" style="stroke:#181818;stroke-width:1;stroke-dasharray:7.0,7.0;"/><polygon fill="#181818" points="808,263.6694,812,254.6694,808,258.6694,804,254.6694,808,263.6694" style="stroke:#181818;stroke-width:1;"/><text fill="#000000" font-family="sans-serif" font-size="13" lengthAdjust="spacing" textLength="99.7217" x="809" y="190.1045">demande chiffres</text></g><!--link Thomas to WordPPSPS--><g id="link_Thomas_WordPPSPS"><path d="M662.4,111.9194 C561.27,122.0094 271.49,166.0094 146,344.6094 C108.8,397.5594 96.8101,468.8215 92.6301,509.0515 " fill="none" id="Thomas-to-WordPPSPS" style="stroke:#181818;stroke-width:1;"/><polygon fill="#181818" points="92.01,515.0194,96.9187,506.481,92.5267,510.0461,88.9615,505.6542,92.01,515.0194" style="stroke:#181818;stroke-width:1;"/><text fill="#000000" font-family="sans-serif" font-size="13" lengthAdjust="spacing" textLength="50.5781" x="333.865" y="280.6045">relecture</text><text fill="#000000" font-family="sans-serif" font-size="13" lengthAdjust="spacing" textLength="116.3081" x="301" y="296.9561">commentaires Word</text></g><!--link Thomas to Email--><g id="link_Thomas_Email"><path d="M719.02,135.8694 C727.82,145.0994 738.85,154.4094 751,159.6094 C784.95,174.1494 880.91,159.7494 917,167.6094 C966.11,178.2994 986.08,174.4494 1022,209.6094 C1080.86,267.2094 1028.9,333.7994 1098,378.6094 C1109.96,386.3594 1211.9,384.5294 1226,386.6094 C1470.07,422.5494 1751.0909,501.4364 1848.1709,529.8064 " fill="none" id="Thomas-to-Email" style="stroke:#181818;stroke-width:1;stroke-dasharray:7.0,7.0;"/><polygon fill="#181818" points="1853.93,531.4894,1846.4133,525.1255,1849.1307,530.0869,1844.1693,532.8043,1853.93,531.4894" style="stroke:#181818;stroke-width:1;"/><text fill="#000000" font-family="sans-serif" font-size="13" lengthAdjust="spacing" textLength="107.8657" x="1063" y="288.6045">&#195;&#169;change PPSPS</text></g><!--link Email to Client1--><g id="link_Email_Client1"><path d="M1853.74,548.3994 C1784.71,558.5894 1624.43,584.9194 1495,626.6094 C1471.65,634.1294 1413.54,656.2894 1394,671.1094 C1377.03,683.9894 1365.453,698.384 1355.793,712.534 " fill="none" id="Email-to-Client1" style="stroke:#181818;stroke-width:1;stroke-dasharray:7.0,7.0;"/><polygon fill="#181818" points="1352.41,717.4894,1360.788,712.3116,1355.2291,713.3599,1354.1809,707.801,1352.41,717.4894" style="stroke:#181818;stroke-width:1;"/><text fill="#000000" font-family="sans-serif" font-size="13" lengthAdjust="spacing" textLength="65.0381" x="1496" y="641.1045">envoi devis</text></g><!--link Client1 to Email--><g id="link_Client1_Email"><path d="M1336.22,717.5194 C1331.06,693.4594 1326.34,651.1394 1349,626.6094 C1417.49,552.4494 1739.8901,544.2867 1847.6601,543.6167 " fill="none" id="Client1-to-Email" style="stroke:#181818;stroke-width:1;stroke-dasharray:7.0,7.0;"/><polygon fill="#181818" points="1853.66,543.5794,1844.6353,539.6354,1848.6601,543.6105,1844.685,547.6352,1853.66,543.5794" style="stroke:#181818;stroke-width:1;"/><text fill="#000000" font-family="sans-serif" font-size="13" lengthAdjust="spacing" textLength="88.1689" x="1350" y="641.1045">demande devis</text></g><!--link Email to Client2--><g id="link_Email_Client2"><path d="M1883.73,570.1694 C1878.46,593.7394 1867.03,627.0594 1843,644.6094 C1756.34,707.8994 1697.12,619.5494 1603,671.1094 C1583.82,681.6094 1572.1077,697.1935 1563.2977,712.3335 " fill="none" id="Email-to-Client2" style="stroke:#181818;stroke-width:1;stroke-dasharray:7.0,7.0;"/><polygon fill="#181818" points="1560.28,717.5194,1568.2638,711.7523,1562.7947,713.1978,1561.3493,707.7287,1560.28,717.5194" style="stroke:#181818;stroke-width:1;"/><text fill="#000000" font-family="sans-serif" font-size="13" lengthAdjust="spacing" textLength="65.0381" x="1860" y="641.1045">envoi devis</text></g><!--link Client2 to Email--><g id="link_Client2_Email"><path d="M1561.29,717.4294 C1570.45,702.8494 1585.13,682.9394 1603,671.1094 C1638.83,647.3794 1656.1,660.5894 1696,644.6094 C1753.52,621.5794 1811.2215,589.4868 1848.8215,567.3168 " fill="none" id="Client2-to-Email" style="stroke:#181818;stroke-width:1;stroke-dasharray:7.0,7.0;"/><polygon fill="#181818" points="1853.99,564.2694,1844.2057,565.3949,1849.683,566.8089,1848.269,572.2862,1853.99,564.2694" style="stroke:#181818;stroke-width:1;"/><text fill="#000000" font-family="sans-serif" font-size="13" lengthAdjust="spacing" textLength="88.1689" x="1735" y="641.1045">demande devis</text></g><!--link Email to Client3--><g id="link_Email_Client3"><path d="M1854,553.4994 C1764.83,579.6094 1529.01,649.8494 1499,671.1094 C1481.5,683.5094 1469.8394,698.1312 1460.3094,712.4812 " fill="none" id="Email-to-Client3" style="stroke:#181818;stroke-width:1;stroke-dasharray:7.0,7.0;"/><polygon fill="#181818" points="1456.99,717.4794,1465.3012,712.195,1459.7561,713.3142,1458.6369,707.7692,1456.99,717.4794" style="stroke:#181818;stroke-width:1;"/><text fill="#000000" font-family="sans-serif" font-size="13" lengthAdjust="spacing" textLength="65.0381" x="1610" y="641.1045">envoi devis</text></g><!--link GMN43 to GMN66--><g id="link_GMN43_GMN66"><path d="M1709,758.1294 C1709,782.1794 1709,823.5794 1709,861.5594 " fill="none" id="GMN43-GMN66" style="stroke:#181818;stroke-width:1;stroke-dasharray:7.0,7.0;"/></g><!--SRC=[XLRDRjj64BxhAGOEsjWEP5C_S68T0b0IXHYLOu5IqW9L8AofbRJ8SbSXbuQ38a2107sA56YB0arEpQ67N8e2CdBAM_G5-WgTtIKfaevQwsBEVBExC_FDZsAAK-Z9S2q55GhwZ2mZ4a8Tt2XOCKK3bKGKnYzZTVDwypQauFOcJxmX0YFKCIdgxc91y2EkrUBdJAo9DW-o0yVg9PwleKGiEQtLrYHuJfOKzdmQ8oGcbvp6a9q1- -s3FRWp67Xjhm7VrG2-7H9yW51JuRlGU0OaXbIYOTsJNaE3KDSqEjzjLkIjLDwgoDkfl9tBKI6amjUovKg1N6GNeHpWvlt73tz__-Fc3vX4v8em3YoM76FohggcuPeJXRwiQHHB8IYFAn3lEg3Sgb53nTpSMtjLY4uUNlWIkXw6n3iPj0O36v9p4Z4w5HOJiO0QLumKxlJxhjFlQzXa9KCIJqNNCthx2NTE7mowfmzkUsliAozrao0H5AvOp2uPPve3xs3YMzGl__prv-Ozj5Qmbaa4YG1ap68HqLrE5LWqf4iIl3Ifxk6VyMjE5BaaiGPg-7dVE_RyqLJiNrpQKBzL5Dc1FcWzghMrWt_6MiT5pXDaMv_YUv-LH1c_oj81qUmcEinQyUfsJDABKdy__hpvwURtpGVq6muFU-xGFJ-RU4- -EJmqW3gqd7hRmSIJ27IaWeY8LFDqz1ZkGOzXkgw1PwIgmvbGD5gGW9gIuVIQfeg9Fi3mIsLymvAACGyyXx2GoaJ5i8WqxaM2nyOx2IM39DG0sE-jY8njcGrElHFBgQzbD9-ABNb7e_5eR7YZDUPB6_JlEyuMRYETWSnN4MHuFXKZJVIic0pQA8OxeLZ4MrXQqHcmhsE0ACIII96bzXm_cevp3nOC2OWwOvm1jV59zwIR9_TIAYL3dTqCKY4zflQHUp66mLdlqPddZ_FqbYunBgUAnp8CTPIP2EHAlqXxsZ5AW3qJlDc22S9dLytPnLUpfjDi7SrbSBrNnlGuGyEPEtlgksUpmTbZTrY0rM64Visn7F5wv2mJorIUbw838HCQWfrXHR63xwn5RFbX8bXWsA-vuEYVvS95ehYKpwV22v5uDXNwFwr38XzR6XkvvdLQXPy9C6ehiTrL8ON-kOFL5lFfpUPN64H9h6pTGiCvRZWL9mCkapcwQA8Pw-Rfw9zrpah1DS-t7us2l5kGDmloNa7UkjqejWTblhpP_8QTA2G2ip4tbK7J66vRfwkKVdVxGVr-SrLnuYxub1iVjnDl7-VMEaAMiJNX1xLCNAy_p5jY1virqO6V2XlhuppEHVYsg3lOUTQCrWF9EGuLtSqnEKPtoy9MU0TKrYPAYBIgyK32WuId0x04oOkoisMeVgYcRGuyEdfeUDM1M2PcdfI2GHAbDmNVhUdMy5dVSqtUGQgFqll0BjFs3atf5NPQsfch7xo51wXEk38u75unWpd3LUUW0CuyxI0pB4FIoOcTR3jM2mRMXIgu_28xtslfcAycEQBSxd9Jx56XdWHsuJ9TBBNHDvb2HxnXpGgNDffoeNHNMberYzPsQG6W9HLNabdAtz8t_qVVgkYpKuilcnUBgfQTknjHApGbhB73mv5_qHtUlFxqmxat1jV79Z_nSAdrFTFe2skQFqht5C1yHgJEJGrMokgWPFDVOnlsYrj0sMuxdhKjLk2QSNCCpklIs2cRfGCXhqTT79XAnR1jnYKa3dsK8P60GAoNqqYkTVvDXTm-youJPjbRfcqspbUtpzrVtW_dsUvQXXeYDXpd2y3i9BW0xxTMPM_yh2Na3gKJhPOtndy1]--></g></svg>