<svg xmlns="http://www.w3.org/2000/svg" xmlns:xlink="http://www.w3.org/1999/xlink" contentStyleType="text/css" height="1042px" preserveAspectRatio="none" style="width:2020px;height:1042px;background:#FFFFFF;" version="1.1" viewBox="0 0 2020 1042" width="2020px" zoomAndPan="magnify"><title>Component Diagram - Architecture Systeme ACTUEL Direction-Affaires</title><defs/><g><text fill="#000000" font-family="sans-serif" font-size="14" font-weight="bold" lengthAdjust="spacing" textLength="476.0889" x="764.9556" y="24.5332">Component Diagram - Architecture Systeme ACTUEL Direction-Affaires</text><!--cluster Responsables Affaires (4)--><g id="cluster_Responsables Affaires (4)"><path d="M446.5,217.6094 L619.4443,217.6094 A3.75,3.75 0 0 1 621.9443,220.1094 L628.9443,241.2188 L997.5,241.2188 A2.5,2.5 0 0 1 1000,243.7188 L1000,326.1094 A2.5,2.5 0 0 1 997.5,328.6094 L446.5,328.6094 A2.5,2.5 0 0 1 444,326.1094 L444,220.1094 A2.5,2.5 0 0 1 446.5,217.6094 " fill="#FFE4E1" style="stroke:#000000;stroke-width:1.5;"/><line style="stroke:#000000;stroke-width:1.5;" x1="444" x2="628.9443" y1="241.2188" y2="241.2188"/><text fill="#000000" font-family="sans-serif" font-size="14" font-weight="bold" lengthAdjust="spacing" textLength="171.9443" x="448" y="234.1426">Responsables Affaires (4)</text></g><!--cluster Direction & BE--><g id="cluster_Direction &amp; BE"><path d="M626.5,44.6094 L725.5137,44.6094 A3.75,3.75 0 0 1 728.0137,47.1094 L735.0137,68.2188 L1038.5,68.2188 A2.5,2.5 0 0 1 1041,70.7188 L1041,149.1094 A2.5,2.5 0 0 1 1038.5,151.6094 L626.5,151.6094 A2.5,2.5 0 0 1 624,149.1094 L624,47.1094 A2.5,2.5 0 0 1 626.5,44.6094 " fill="#E6F3FF" style="stroke:#000000;stroke-width:1.5;"/><line style="stroke:#000000;stroke-width:1.5;" x1="624" x2="735.0137" y1="68.2188" y2="68.2188"/><text fill="#000000" font-family="sans-serif" font-size="14" font-weight="bold" lengthAdjust="spacing" textLength="98.0137" x="628" y="61.1426">Direction &amp; BE</text></g><!--cluster Systeme Legacy--><g id="cluster_Systeme Legacy"><path d="M692.5,394.6094 L803.2305,394.6094 A3.75,3.75 0 0 1 805.7305,397.1094 L812.7305,418.2188 L1241.5,418.2188 A2.5,2.5 0 0 1 1244,420.7188 L1244,809.1094 A2.5,2.5 0 0 1 1241.5,811.6094 L692.5,811.6094 A2.5,2.5 0 0 1 690,809.1094 L690,397.1094 A2.5,2.5 0 0 1 692.5,394.6094 " fill="#FFCCCC" style="stroke:#000000;stroke-width:1.5;"/><line style="stroke:#000000;stroke-width:1.5;" x1="690" x2="812.7305" y1="418.2188" y2="418.2188"/><text fill="#000000" font-family="sans-serif" font-size="14" font-weight="bold" lengthAdjust="spacing" textLength="109.7305" x="694" y="411.1426">Systeme Legacy</text></g><!--cluster SageMDE--><g id="cluster_SageMDE"><path d="M887,456.6094 C887,446.6094 1049.5,446.6094 1049.5,446.6094 C1049.5,446.6094 1212,446.6094 1212,456.6094 L1212,769.6094 C1212,779.6094 1049.5,779.6094 1049.5,779.6094 C1049.5,779.6094 887,779.6094 887,769.6094 L887,456.6094 " fill="#FF0000" style="stroke:#181818;stroke-width:1;"/><path d="M887,456.6094 C887,466.6094 1049.5,466.6094 1049.5,466.6094 C1049.5,466.6094 1212,466.6094 1212,456.6094 " fill="none" style="stroke:#181818;stroke-width:1;"/><text fill="#000000" font-family="sans-serif" font-size="14" font-weight="bold" lengthAdjust="spacing" textLength="101.1377" x="998.9312" y="483.1426">Sage MDE/ERP</text><text fill="#000000" font-family="sans-serif" font-size="14" font-weight="bold" lengthAdjust="spacing" textLength="69.2275" x="1014.8862" y="500.752">(Obsolete)</text></g><!--cluster Documents (Chaos)--><g id="cluster_Documents (Chaos)"><path d="M8.5,470.1094 L141.7344,470.1094 A3.75,3.75 0 0 1 144.2344,472.6094 L151.2344,493.7188 L663.5,493.7188 A2.5,2.5 0 0 1 666,496.2188 L666,812.1094 A2.5,2.5 0 0 1 663.5,814.6094 L8.5,814.6094 A2.5,2.5 0 0 1 6,812.1094 L6,472.6094 A2.5,2.5 0 0 1 8.5,470.1094 " fill="#FFF9E6" style="stroke:#000000;stroke-width:1.5;"/><line style="stroke:#000000;stroke-width:1.5;" x1="6" x2="151.2344" y1="493.7188" y2="493.7188"/><text fill="#000000" font-family="sans-serif" font-size="14" font-weight="bold" lengthAdjust="spacing" textLength="132.2344" x="10" y="486.6426">Documents (Chaos)</text></g><!--cluster Communication--><g id="cluster_Communication"><path d="M1791.5,479.1094 L1898.2793,479.1094 A3.75,3.75 0 0 1 1900.7793,481.6094 L1907.7793,502.7188 L2010.5,502.7188 A2.5,2.5 0 0 1 2013,505.2188 L2013,779.6094 A2.5,2.5 0 0 1 2010.5,782.1094 L1791.5,782.1094 A2.5,2.5 0 0 1 1789,779.6094 L1789,481.6094 A2.5,2.5 0 0 1 1791.5,479.1094 " fill="#F0F0F0" style="stroke:#000000;stroke-width:1.5;"/><line style="stroke:#000000;stroke-width:1.5;" x1="1789" x2="1907.7793" y1="502.7188" y2="502.7188"/><text fill="#000000" font-family="sans-serif" font-size="14" font-weight="bold" lengthAdjust="spacing" textLength="105.7793" x="1793" y="495.6426">Communication</text></g><!--cluster Clients--><g id="cluster_Clients"><path d="M1279.6575,690.3024 C1289.8609,673.8521 1303.1946,672.1042 1313.1555,690.5352 C1321.6145,673.6464 1337.5979,672.1648 1349.5731,686.4242 C1361.4672,671.3189 1372.352,669.708 1382.5122,688.1278 C1390.6668,669.0036 1407.0692,670.6088 1418.5286,684.5254 C1430.7073,670.1964 1442.2033,666.1964 1453.2859,685.6531 C1459.5821,670.4977 1474.6105,667.5554 1485.7007,680.0287 C1498.79,662.2951 1510.1987,663.1592 1520.2714,682.8178 C1531.4345,670.306 1543.6606,669.8524 1552.1253,685.8343 C1562.9403,670.0411 1580.4053,666.7629 1590.6524,686.451 C1599.3086,668.9854 1615.0748,669.3631 1624.6244,685.5491 C1635.9829,671.2025 1649.2963,668.8908 1659.4512,686.8467 C1670.2206,672.03 1682.1485,675.4137 1690.0617,689.8368 C1700.9908,670.8091 1715.9937,672.3377 1726.9267,689.833 C1737.4369,673.1381 1750.9985,675.7775 1759.6683,691.6814 C1780.5234,701.0235 1779.6828,716.2762 1762.9839,728.9585 C1785.6242,742.1389 1779.5555,760.0861 1761.036,771.3764 C1750.5161,784.3207 1733.8236,784.961 1726.5824,767.6435 C1716.5618,781.8077 1702.6541,783.6776 1692.5556,767.7315 C1685.2439,788.6685 1666.907,788.2707 1654.3379,773.3321 C1644.1328,787.3781 1628.8837,785.8686 1622.2588,769.5499 C1614.9869,784.3517 1598.7807,788.1947 1588.1722,773.3916 C1577.3879,789.4098 1565.8442,786.2369 1556.5822,771.812 C1546.0679,787.3638 1532.0787,788.2979 1521.8802,771.4735 C1513.0456,791.0268 1500.1896,788.4287 1487.8278,775.1295 C1477.9876,795.1169 1458.1304,791.3768 1447.94,775.5191 C1435.7753,792.0034 1424.8565,787.1795 1415.385,772.6885 C1405.1332,786.7604 1391.7033,784.0503 1383.4013,770.436 C1375.5357,785.7211 1359.7018,787.7773 1349.5798,772.9722 C1336.5677,789.757 1323.1734,784.6808 1315.1657,767.8491 C1303.554,783.0227 1289.546,786.2466 1279.2066,766.5375 C1260.9791,757.0283 1259.3918,743.2503 1273.6857,728.9627 C1256.8499,715.8144 1259.6646,697.7619 1279.6575,690.3024 " fill="#E0E0E0" style="stroke:#181818;stroke-width:1;"/><text fill="#000000" font-family="sans-serif" font-size="14" font-weight="bold" lengthAdjust="spacing" textLength="46.6758" x="1493.1621" y="706.6426">Clients</text></g><!--entity Laurent--><g id="elem_Laurent"><rect fill="#FFB6C1" height="55.2188" rx="2.5" ry="2.5" style="stroke:#181818;stroke-width:0.5;" width="67.4824" x="460.5" y="255.6094"/><text fill="#000000" font-family="sans-serif" font-size="14" lengthAdjust="spacing" textLength="47.4824" x="470.5" y="280.1426">Laurent</text><text fill="#000000" font-family="sans-serif" font-size="14" lengthAdjust="spacing" textLength="31.124" x="470.5" y="297.752">RA 1</text></g><!--entity RA2--><g id="elem_RA2"><rect fill="#FFB6C1" height="37.6094" rx="2.5" ry="2.5" style="stroke:#181818;stroke-width:0.5;" width="51.124" x="760.5" y="264.1094"/><text fill="#000000" font-family="sans-serif" font-size="14" lengthAdjust="spacing" textLength="31.124" x="770.5" y="288.6426">RA 2</text></g><!--entity RA3--><g id="elem_RA3"><rect fill="#FFB6C1" height="37.6094" rx="2.5" ry="2.5" style="stroke:#181818;stroke-width:0.5;" width="51.124" x="846.5" y="264.1094"/><text fill="#000000" font-family="sans-serif" font-size="14" lengthAdjust="spacing" textLength="31.124" x="856.5" y="288.6426">RA 3</text></g><!--entity RA4--><g id="elem_RA4"><rect fill="#FFB6C1" height="37.6094" rx="2.5" ry="2.5" style="stroke:#181818;stroke-width:0.5;" width="51.124" x="932.5" y="264.1094"/><text fill="#000000" font-family="sans-serif" font-size="14" lengthAdjust="spacing" textLength="31.124" x="942.5" y="288.6426">RA 4</text></g><g id="elem_GMN7"><path d="M562.5,253.6094 L562.5,279.1094 L527.69,283.1094 L562.5,287.1094 L562.5,312.6641 A0,0 0 0 0 562.5,312.6641 L725.8462,312.6641 A0,0 0 0 0 725.8462,312.6641 L725.8462,263.6094 L715.8462,253.6094 L562.5,253.6094 A0,0 0 0 0 562.5,253.6094 " fill="#FEFFDD" style="stroke:#181818;stroke-width:0.5;"/><path d="M715.8462,253.6094 L715.8462,263.6094 L725.8462,263.6094 L715.8462,253.6094 " fill="#FEFFDD" style="stroke:#181818;stroke-width:0.5;"/><text fill="#000000" font-family="sans-serif" font-size="13" lengthAdjust="spacing" textLength="83.8018" x="568.5" y="272.1045">[!] Travail isole</text><text fill="#000000" font-family="sans-serif" font-size="13" lengthAdjust="spacing" textLength="142.3462" x="568.5" y="288.4561">[!] Templates personnels</text><text fill="#000000" font-family="sans-serif" font-size="13" lengthAdjust="spacing" textLength="82.3672" x="568.5" y="304.8076">[!] Excel perso</text></g><!--entity Marie--><g id="elem_Marie"><rect fill="#DDA0DD" height="55.2188" rx="2.5" ry="2.5" style="stroke:#181818;stroke-width:0.5;" width="79.1172" x="746.5" y="80.6094"/><text fill="#000000" font-family="sans-serif" font-size="14" lengthAdjust="spacing" textLength="35.0068" x="756.5" y="105.1426">Marie</text><text fill="#000000" font-family="sans-serif" font-size="14" lengthAdjust="spacing" textLength="59.1172" x="756.5" y="122.752">Directrice</text></g><!--entity Thomas--><g id="elem_Thomas"><rect fill="#98FB98" height="55.2188" rx="2.5" ry="2.5" style="stroke:#181818;stroke-width:0.5;" width="70.5723" x="640.5" y="80.6094"/><text fill="#000000" font-family="sans-serif" font-size="14" lengthAdjust="spacing" textLength="50.5723" x="650.5" y="105.1426">Thomas</text><text fill="#000000" font-family="sans-serif" font-size="14" lengthAdjust="spacing" textLength="18.6758" x="650.5" y="122.752">BE</text></g><g id="elem_GMN13"><path d="M861,86.6094 L861,104.1094 L825.56,108.1094 L861,112.1094 L861,129.3125 A0,0 0 0 0 861,129.3125 L1025.0635,129.3125 A0,0 0 0 0 1025.0635,129.3125 L1025.0635,96.6094 L1015.0635,86.6094 L861,86.6094 A0,0 0 0 0 861,86.6094 " fill="#FEFFDD" style="stroke:#181818;stroke-width:0.5;"/><path d="M1015.0635,86.6094 L1015.0635,96.6094 L1025.0635,96.6094 L1015.0635,86.6094 " fill="#FEFFDD" style="stroke:#181818;stroke-width:0.5;"/><text fill="#000000" font-family="sans-serif" font-size="13" lengthAdjust="spacing" textLength="128.6035" x="867" y="105.1045">[!] Aucune visibilite TR</text><text fill="#000000" font-family="sans-serif" font-size="13" lengthAdjust="spacing" textLength="143.0635" x="867" y="121.4561">[TIME] 3h pour un chiffre</text></g><g id="elem_GMN21"><path d="M706,488.6094 L706,596.7188 L859.9326,596.7188 L859.9326,498.6094 L849.9326,488.6094 L706,488.6094 " fill="#FEFFDD" style="stroke:#181818;stroke-width:0.5;"/><path d="M849.9326,488.6094 L849.9326,498.6094 L859.9326,498.6094 L849.9326,488.6094 " fill="#FEFFDD" style="stroke:#181818;stroke-width:1;"/><text fill="#000000" font-family="sans-serif" font-size="13" lengthAdjust="spacing" textLength="35.0327" x="712" y="507.1045">&#226;&#353;&#160;&#239;&#184;&#65533;</text><text fill="#000000" font-family="sans-serif" font-size="13" font-weight="bold" lengthAdjust="spacing" textLength="85.2173" x="750.6445" y="507.1045">CALAMITEUX</text><text fill="#000000" font-family="sans-serif" font-size="13" lengthAdjust="spacing" textLength="106.2217" x="712" y="523.4561">- 30-40s par ecran</text><text fill="#000000" font-family="sans-serif" font-size="13" lengthAdjust="spacing" textLength="103.6636" x="712" y="539.8076">- VPN + Citrix lent</text><text fill="#000000" font-family="sans-serif" font-size="13" lengthAdjust="spacing" textLength="117.7744" x="712" y="556.1592">- Interface complexe</text><text fill="#000000" font-family="sans-serif" font-size="13" lengthAdjust="spacing" textLength="132.9326" x="712" y="572.5107">- Teletravail impossible</text><text fill="#000000" font-family="sans-serif" font-size="13" lengthAdjust="spacing" textLength="119.2153" x="712" y="588.8623">- Timeouts frequents</text></g><!--entity Module Devis--><g id="elem_Module Devis"><rect fill="#F1F1F1" height="37.6094" rx="2.5" ry="2.5" style="stroke:#181818;stroke-width:0.5;" width="104.8135" x="930.5" y="523.6094"/><text fill="#000000" font-family="sans-serif" font-size="14" lengthAdjust="spacing" textLength="84.8135" x="940.5" y="548.1426">Module Devis</text></g><!--entity Module Affaires--><g id="elem_Module Affaires"><rect fill="#F1F1F1" height="37.6094" rx="2.5" ry="2.5" style="stroke:#181818;stroke-width:0.5;" width="117.2686" x="1070.5" y="523.6094"/><text fill="#000000" font-family="sans-serif" font-size="14" lengthAdjust="spacing" textLength="97.2686" x="1080.5" y="548.1426">Module Affaires</text></g><!--entity Module Facturation--><g id="elem_Module Facturation"><rect fill="#F1F1F1" height="37.6094" rx="2.5" ry="2.5" style="stroke:#181818;stroke-width:0.5;" width="139.8408" x="930" y="717.6094"/><text fill="#000000" font-family="sans-serif" font-size="14" lengthAdjust="spacing" textLength="119.8408" x="940" y="742.1426">Module Facturation</text></g><!--entity WordPPSPS--><g id="elem_WordPPSPS"><rect fill="#FFD700" height="55.2188" rx="2.5" ry="2.5" style="stroke:#181818;stroke-width:0.5;" width="135.9375" x="22" y="515.1094"/><text fill="#000000" font-family="sans-serif" font-size="14" lengthAdjust="spacing" textLength="33.4482" x="32" y="539.6426">Word</text><text fill="#000000" font-family="sans-serif" font-size="14" lengthAdjust="spacing" textLength="115.9375" x="32" y="557.252">Templates PPSPS</text></g><!--entity WordDevis--><g id="elem_WordDevis"><rect fill="#FFD700" height="55.2188" rx="2.5" ry="2.5" style="stroke:#181818;stroke-width:0.5;" width="55.0068" x="328.5" y="515.1094"/><text fill="#000000" font-family="sans-serif" font-size="14" lengthAdjust="spacing" textLength="33.4482" x="338.5" y="539.6426">Word</text><text fill="#000000" font-family="sans-serif" font-size="14" lengthAdjust="spacing" textLength="35.0068" x="338.5" y="557.252">Devis</text></g><!--entity ExcelL--><g id="elem_ExcelL"><rect fill="#FFD700" height="55.2188" rx="2.5" ry="2.5" style="stroke:#181818;stroke-width:0.5;" width="107.9443" x="419" y="515.1094"/><text fill="#000000" font-family="sans-serif" font-size="14" lengthAdjust="spacing" textLength="34.2344" x="429" y="539.6426">Excel</text><text fill="#000000" font-family="sans-serif" font-size="14" lengthAdjust="spacing" textLength="87.9443" x="429" y="557.252">Perso Laurent</text></g><!--entity ExcelRA2--><g id="elem_ExcelRA2"><rect fill="#FFD700" height="55.2188" rx="2.5" ry="2.5" style="stroke:#181818;stroke-width:0.5;" width="87.6963" x="562" y="515.1094"/><text fill="#000000" font-family="sans-serif" font-size="14" lengthAdjust="spacing" textLength="34.2344" x="572" y="539.6426">Excel</text><text fill="#000000" font-family="sans-serif" font-size="14" lengthAdjust="spacing" textLength="67.6963" x="572" y="557.252">Perso RA2</text></g><!--entity Dossiers--><g id="elem_Dossiers"><rect fill="#FF6B6B" height="72.8281" rx="2.5" ry="2.5" style="stroke:#181818;stroke-width:0.5;" width="99.7686" x="193" y="506.1094"/><text fill="#000000" font-family="sans-serif" font-size="14" lengthAdjust="spacing" textLength="54.4551" x="203" y="530.6426">Dossiers</text><text fill="#000000" font-family="sans-serif" font-size="14" lengthAdjust="spacing" textLength="56.0342" x="203" y="548.252">Partages</text><text fill="#000000" font-family="sans-serif" font-size="14" lengthAdjust="spacing" textLength="79.7686" x="203" y="565.8613">200+ fichiers</text></g><g id="elem_GMN30"><path d="M118,674.6094 L118,799.0703 A0,0 0 0 0 118,799.0703 L367.8901,799.0703 A0,0 0 0 0 367.8901,799.0703 L367.8901,684.6094 L357.8901,674.6094 L247,674.6094 L243,579.2694 L239,674.6094 L118,674.6094 A0,0 0 0 0 118,674.6094 " fill="#FEFFDD" style="stroke:#181818;stroke-width:0.5;"/><path d="M357.8901,674.6094 L357.8901,684.6094 L367.8901,684.6094 L357.8901,674.6094 " fill="#FEFFDD" style="stroke:#181818;stroke-width:0.5;"/><text fill="#000000" font-family="sans-serif" font-size="13" lengthAdjust="spacing" textLength="10.8354" x="124" y="693.1045">[!]</text><text fill="#000000" font-family="sans-serif" font-size="13" font-weight="bold" lengthAdjust="spacing" textLength="111.23" x="138.4473" y="693.1045">CHAOS FICHIERS</text><text fill="#000000" font-family="sans-serif" font-size="13" lengthAdjust="spacing" textLength="116.6826" x="124" y="709.4561">- 200+ fichiers Word</text><text fill="#000000" font-family="sans-serif" font-size="13" lengthAdjust="spacing" textLength="135.8398" x="124" y="725.8076">- Nommage incoherent:</text><text fill="#000000" font-family="sans-serif" font-size="13" lengthAdjust="spacing" textLength="197.8564" x="131.2236" y="742.1592">"PPSPS_final_v2_OK_2023.docx"</text><text fill="#000000" font-family="sans-serif" font-size="13" lengthAdjust="spacing" textLength="221.6665" x="131.2236" y="758.5107">"PPSPS_Client_A_VRAI_FINAL.docx"</text><text fill="#000000" font-family="sans-serif" font-size="13" lengthAdjust="spacing" textLength="111.2808" x="124" y="774.8623">- Pas de versioning</text><text fill="#000000" font-family="sans-serif" font-size="13" lengthAdjust="spacing" textLength="168.3398" x="124" y="791.2139">- [TIME] 30 min de recherche</text></g><!--entity Email--><g id="elem_Email"><rect fill="#F1F1F1" height="55.2188" rx="2.5" ry="2.5" style="stroke:#181818;stroke-width:0.5;" width="68.248" x="1805" y="515.1094"/><text fill="#000000" font-family="sans-serif" font-size="14" lengthAdjust="spacing" textLength="48.248" x="1815" y="539.6426">Outlook</text><text fill="#000000" font-family="sans-serif" font-size="14" lengthAdjust="spacing" textLength="35.0068" x="1815" y="557.252">Email</text></g><!--entity VPN--><g id="elem_VPN"><rect fill="#FF0000" height="37.6094" rx="2.5" ry="2.5" style="stroke:#181818;stroke-width:0.5;" width="84.5586" x="1908.5" y="523.6094"/><text fill="#000000" font-family="sans-serif" font-size="14" lengthAdjust="spacing" textLength="64.5586" x="1918.5" y="548.1426">VPN/Citrix</text></g><g id="elem_GMN36"><path d="M1805.5,707.1094 L1805.5,766.1641 A0,0 0 0 0 1805.5,766.1641 L1996.998,766.1641 A0,0 0 0 0 1996.998,766.1641 L1996.998,717.1094 L1986.998,707.1094 L1912.47,707.1094 L1946.3,561.6694 L1904.47,707.1094 L1805.5,707.1094 A0,0 0 0 0 1805.5,707.1094 " fill="#FEFFDD" style="stroke:#181818;stroke-width:0.5;"/><path d="M1986.998,707.1094 L1986.998,717.1094 L1996.998,717.1094 L1986.998,707.1094 " fill="#FEFFDD" style="stroke:#181818;stroke-width:0.5;"/><text fill="#000000" font-family="sans-serif" font-size="13" lengthAdjust="spacing" textLength="112.728" x="1811.5" y="725.6045">[!] 30-40s par ecran</text><text fill="#000000" font-family="sans-serif" font-size="13" lengthAdjust="spacing" textLength="125.7217" x="1811.5" y="741.9561">[!] Timeouts frequents</text><text fill="#000000" font-family="sans-serif" font-size="13" lengthAdjust="spacing" textLength="170.498" x="1811.5" y="758.3076">[FRUSTRE] Frustration 10/10</text></g><!--entity Client1--><g id="elem_Client1"><rect fill="#F1F1F1" height="37.6094" rx="2.5" ry="2.5" style="stroke:#181818;stroke-width:0.5;" width="69.0205" x="1284.5" y="717.6094"/><text fill="#000000" font-family="sans-serif" font-size="14" lengthAdjust="spacing" textLength="49.0205" x="1294.5" y="742.1426">Client A</text></g><!--entity Client2--><g id="elem_Client2"><rect fill="#F1F1F1" height="37.6094" rx="2.5" ry="2.5" style="stroke:#181818;stroke-width:0.5;" width="69.0205" x="1494.5" y="717.6094"/><text fill="#000000" font-family="sans-serif" font-size="14" lengthAdjust="spacing" textLength="49.0205" x="1504.5" y="742.1426">Client B</text></g><!--entity Client3--><g id="elem_Client3"><rect fill="#F1F1F1" height="37.6094" rx="2.5" ry="2.5" style="stroke:#181818;stroke-width:0.5;" width="69.793" x="1389" y="717.6094"/><text fill="#000000" font-family="sans-serif" font-size="14" lengthAdjust="spacing" textLength="49.793" x="1399" y="742.1426">Client C</text></g><g id="elem_GMN43"><path d="M1599,715.1094 L1599,757.8125 L1748.6162,757.8125 L1748.6162,725.1094 L1738.6162,715.1094 L1599,715.1094 " fill="#FEFFDD" style="stroke:#181818;stroke-width:0.5;"/><path d="M1738.6162,715.1094 L1738.6162,725.1094 L1748.6162,725.1094 L1738.6162,715.1094 " fill="#FEFFDD" style="stroke:#181818;stroke-width:1;"/><text fill="#000000" font-family="sans-serif" font-size="13" lengthAdjust="spacing" textLength="125.0044" x="1608.6118" y="733.6045">Demande devis email</text><text fill="#000000" font-family="sans-serif" font-size="13" lengthAdjust="spacing" textLength="123.5635" x="1605" y="749.9561">[TIME] Attend 48-72h</text></g><g id="elem_GMN66"><path d="M1549,861.6094 L1549,1035.125 L1799.0488,1035.125 L1799.0488,871.6094 L1789.0488,861.6094 L1549,861.6094 " fill="#FEFFDD" style="stroke:#181818;stroke-width:0.5;"/><path d="M1789.0488,861.6094 L1789.0488,871.6094 L1799.0488,871.6094 L1789.0488,861.6094 " fill="#FEFFDD" style="stroke:#181818;stroke-width:1;"/><text fill="#000000" font-family="sans-serif" font-size="13" font-weight="bold" lengthAdjust="spacing" textLength="188.5063" x="1555" y="880.1045">PROBLEMES ARCHITECTURE</text><text fill="#000000" font-family="sans-serif" font-size="13" lengthAdjust="spacing" textLength="229.0488" x="1555" y="896.4561">[!] ERP Legacy ultra-lent (30-40s/ecran)</text><text fill="#000000" font-family="sans-serif" font-size="13" lengthAdjust="spacing" textLength="222.8599" x="1555" y="912.8076">[!] Teletravail impossible (VPN + Citrix)</text><text fill="#000000" font-family="sans-serif" font-size="13" lengthAdjust="spacing" textLength="225.7925" x="1555" y="929.1592">[!] Documents eparpilles (200+ fichiers)</text><text fill="#000000" font-family="sans-serif" font-size="13" lengthAdjust="spacing" textLength="196.5552" x="1555" y="945.5107">[!] Pas de templates automatiques</text><text fill="#000000" font-family="sans-serif" font-size="13" lengthAdjust="spacing" textLength="199.4307" x="1555" y="961.8623">[!] Chaque RA a ses propres Excel</text><text fill="#000000" font-family="sans-serif" font-size="13" lengthAdjust="spacing" textLength="162.8936" x="1555" y="978.2139">[!] Pas d'integration systeme</text><text fill="#000000" font-family="sans-serif" font-size="13" lengthAdjust="spacing" textLength="156.7935" x="1555" y="994.5654">[!] Pas de visibilite direction</text><text fill="#000000" font-family="sans-serif" font-size="13" lengthAdjust="spacing" textLength="167.6416" x="1555" y="1010.917">[!] PPSPS 100% manuel (3h)</text><text fill="#000000" font-family="sans-serif" font-size="13" lengthAdjust="spacing" textLength="173.418" x="1555" y="1027.2686">[!] Recherche template 30 min</text></g><!--link SageMDE to GMN21--><g id="link_SageMDE_GMN21"><path d="M886.8852,542.6094 C886.8409,542.6094 886.7966,542.6094 886.7523,542.6094 C886.6637,542.6094 886.5752,542.6094 886.4866,542.6094 C886.3094,542.6094 886.1322,542.6094 885.955,542.6094 C883.12,542.6094 880.285,542.6094 877.45,542.6094 C871.78,542.6094 866.11,542.6094 860.44,542.6094 " fill="none" id="SageMDE-GMN21" style="stroke:#181818;stroke-width:1;stroke-dasharray:7.0,7.0;"/></g><!--link Client1 to GMN43--><g id="link_Client1_GMN43"><path d="M1325.65,717.5594 C1335.36,693.0394 1356,651.4994 1389.5,633.8594 C1457.92,597.8294 1491.53,605.5694 1563.5,633.8594 C1604.7,650.0594 1639.66,689.6494 1658.66,714.6894 " fill="none" id="Client1-GMN43" style="stroke:#181818;stroke-width:1;stroke-dasharray:7.0,7.0;"/></g><!--link Laurent to SageMDE--><g id="link_Laurent_SageMDE"><path d="M514.12,310.7694 C533.59,334.0494 565.48,366.0494 602,378.6094 C617.19,383.8394 879.65,375.2394 891,386.6094 C902.98,398.6119 909.3056,414.0938 912.0344,430.6156 C912.7166,434.7461 913.1739,438.9416 913.4387,443.1639 C913.5049,444.2195 913.3177,439.2816 913.3603,440.34 " fill="none" id="Laurent-to-SageMDE" style="stroke:#181818;stroke-width:1;"/><polygon fill="#181818" points="913.6016,446.3351,917.2364,437.1815,913.4005,441.3392,909.2428,437.5033,913.6016,446.3351" style="stroke:#181818;stroke-width:1;"/><text fill="#000000" font-family="sans-serif" font-size="13" lengthAdjust="spacing" textLength="46.96" x="617.46" y="359.1045">via VPN</text><text fill="#000000" font-family="sans-serif" font-size="13" lengthAdjust="spacing" textLength="75.8799" x="603" y="375.4561">30-40s/ecran</text></g><!--link Laurent to WordPPSPS--><g id="link_Laurent_WordPPSPS"><path d="M460.33,289.7494 C381.56,303.0394 191.06,335.9094 180,344.6094 C125.17,387.7194 103.6761,465.8979 95.3761,508.9379 " fill="none" id="Laurent-to-WordPPSPS" style="stroke:#181818;stroke-width:1;"/><polygon fill="#181818" points="94.24,514.8294,99.8718,506.7496,95.1868,509.9198,92.0166,505.2348,94.24,514.8294" style="stroke:#181818;stroke-width:1;"/><text fill="#000000" font-family="sans-serif" font-size="13" lengthAdjust="spacing" textLength="62.1436" x="191.8418" y="359.1045">copie-colle</text><text fill="#000000" font-family="sans-serif" font-size="13" lengthAdjust="spacing" textLength="83.8271" x="181" y="375.4561">3h par PPSPS</text></g><!--link Laurent to WordDevis--><g id="link_Laurent_WordDevis"><path d="M460.28,292.7394 C433.95,301.3294 398.78,317.2794 380,344.6094 C344.39,396.4294 346.6677,468.5283 351.3077,509.0683 " fill="none" id="Laurent-to-WordDevis" style="stroke:#181818;stroke-width:1;"/><polygon fill="#181818" points="351.99,515.0294,354.9406,505.6329,351.4214,510.0618,346.9925,506.5426,351.99,515.0294" style="stroke:#181818;stroke-width:1;"/><text fill="#000000" font-family="sans-serif" font-size="13" lengthAdjust="spacing" textLength="56.3608" x="381" y="367.1045">templates</text></g><!--link Laurent to ExcelL--><g id="link_Laurent_ExcelL"><path d="M471.03,310.6094 C463.79,320.5994 456.72,332.4794 453,344.6094 C434.94,403.4394 450.1572,470.5742 461.9972,509.0942 " fill="none" id="Laurent-to-ExcelL" style="stroke:#181818;stroke-width:1;"/><polygon fill="#181818" points="463.76,514.8294,464.9392,505.0514,462.291,510.0501,457.2923,507.4018,463.76,514.8294" style="stroke:#181818;stroke-width:1;"/><text fill="#000000" font-family="sans-serif" font-size="13" lengthAdjust="spacing" textLength="75.8672" x="454" y="367.1045">calculs perso</text></g><!--link Laurent to Dossiers--><g id="link_Laurent_Dossiers"><path d="M460.21,284.8694 C416.19,287.7194 339.72,299.3894 296,344.6094 C253.66,388.4094 244.5079,456.2833 242.9179,500.0433 " fill="none" id="Laurent-to-Dossiers" style="stroke:#181818;stroke-width:1;"/><polygon fill="#181818" points="242.7,506.0394,247.0242,497.1906,242.8816,501.0427,239.0294,496.9001,242.7,506.0394" style="stroke:#181818;stroke-width:1;"/><text fill="#000000" font-family="sans-serif" font-size="13" lengthAdjust="spacing" textLength="57.8081" x="297" y="359.1045">recherche</text><text fill="#000000" font-family="sans-serif" font-size="13" lengthAdjust="spacing" textLength="39.019" x="306.3945" y="375.4561">30 min</text></g><!--link Laurent to VPN--><g id="link_Laurent_VPN"><path d="M512.56,310.7194 C521.16,320.7694 532.29,331.1094 545,336.6094 C568.92,346.9594 987.95,343.7594 1014,344.6094 C1111.5,347.7794 1811.87,329.5594 1891,386.6094 C1935.94,419.0094 1946.7145,484.0207 1949.5445,517.4907 " fill="none" id="Laurent-to-VPN" style="stroke:#181818;stroke-width:1;stroke-dasharray:7.0,7.0;"/><polygon fill="#181818" points="1950.05,523.4694,1953.2775,514.1644,1949.6287,518.4872,1945.3059,514.8384,1950.05,523.4694" style="stroke:#181818;stroke-width:1;"/><text fill="#000000" font-family="sans-serif" font-size="13" lengthAdjust="spacing" textLength="39.7427" x="1871" y="367.1045">souffre</text></g><!--link RA2 to SageMDE--><g id="link_RA2_SageMDE"><path d="M788.87,302.3894 C793.35,324.2894 804.2,360.2994 829,378.6094 C851.35,395.1094 872.39,365.9794 891,386.6094 C902.3625,399.1994 908.375,414.98 910.9825,431.6183 C911.6344,435.7779 912.0734,439.991 912.3301,444.2214 C912.3622,444.7501 912.3914,445.2792 912.4178,445.8085 C912.431,446.0731 912.1757,440.3437 912.1875,440.6085 " fill="none" id="RA2-to-SageMDE" style="stroke:#181818;stroke-width:1;"/><polygon fill="#181818" points="912.4554,446.6025,916.0496,437.4329,912.2322,441.6075,908.0575,437.7901,912.4554,446.6025" style="stroke:#181818;stroke-width:1;"/><text fill="#000000" font-family="sans-serif" font-size="13" lengthAdjust="spacing" textLength="46.96" x="830" y="367.1045">via VPN</text></g><!--link RA2 to ExcelRA2--><g id="link_RA2_ExcelRA2"><path d="M775.08,302.2194 C767.39,313.5594 756.15,327.6694 743,336.6094 C733.35,343.1694 727.31,337.5794 718,344.6094 C659.74,388.5594 628.9121,466.5296 615.3621,509.2996 " fill="none" id="RA2-to-ExcelRA2" style="stroke:#181818;stroke-width:1;"/><polygon fill="#181818" points="613.55,515.0194,620.0814,507.6477,615.0601,510.2529,612.4549,505.2316,613.55,515.0194" style="stroke:#181818;stroke-width:1;"/><text fill="#000000" font-family="sans-serif" font-size="13" lengthAdjust="spacing" textLength="75.8672" x="719" y="367.1045">calculs perso</text></g><!--link RA3 to SageMDE--><g id="link_RA3_SageMDE"><path d="M876.23,302.1294 C880.81,322.4994 887.86,356.7294 891,386.6094 C892.77,403.4744 893.9113,421.4256 894.6259,438.9072 C894.7153,441.0924 894.7979,443.2702 894.8743,445.4377 C894.8839,445.7087 894.686,439.983 894.6954,440.2536 " fill="none" id="RA3-to-SageMDE" style="stroke:#181818;stroke-width:1;"/><polygon fill="#181818" points="894.9027,446.25,898.5894,437.1172,894.73,441.253,890.5941,437.3936,894.9027,446.25" style="stroke:#181818;stroke-width:1;"/><text fill="#000000" font-family="sans-serif" font-size="13" lengthAdjust="spacing" textLength="46.96" x="891" y="367.1045">via VPN</text></g><!--link RA4 to SageMDE--><g id="link_RA4_SageMDE"><path d="M960.71,302.1894 C962.79,323.2094 962.66,357.6994 944,378.6094 C934.81,388.9094 923.06,376.1994 914,386.6094 C908.395,393.0519 904.3981,405.7106 901.5573,421.1359 C900.137,428.8486 899.6247,431.2849 898.7258,439.9496 " fill="none" id="RA4-to-SageMDE" style="stroke:#181818;stroke-width:1;"/><polygon fill="#181818" points="898.1067,445.9176,903.014,437.3784,898.6227,440.9443,895.0567,436.5529,898.1067,445.9176" style="stroke:#181818;stroke-width:1;"/><text fill="#000000" font-family="sans-serif" font-size="13" lengthAdjust="spacing" textLength="46.96" x="959" y="367.1045">via VPN</text></g><!--link Marie to SageMDE--><g id="link_Marie_SageMDE"><path d="M809.12,135.7294 C818.85,145.0494 830.96,154.4694 844,159.6094 C892.83,178.8394 1029.27,154.1894 1080,167.6094 C1118.82,177.8794 1134.51,178.5794 1160,209.6094 C1199.72,257.9594 1191.02,282.6794 1200,344.6094 C1202.17,359.5594 1210.53,367.7794 1200,378.6094 C1177.84,401.3994 937.51,365.2094 914,386.6094 C907.685,392.3569 903.3275,404.6625 900.3466,419.9503 C898.8561,427.5942 897.7098,435.9837 896.835,444.6717 C896.7803,445.2147 897.3025,439.7865 897.25,440.3318 " fill="none" id="Marie-to-SageMDE" style="stroke:#181818;stroke-width:1;stroke-dasharray:7.0,7.0;"/><polygon fill="#181818" points="896.6741,446.3041,901.5194,437.7295,897.154,441.3272,893.5564,436.9617,896.6741,446.3041" style="stroke:#181818;stroke-width:1;"/><text fill="#000000" font-family="sans-serif" font-size="13" lengthAdjust="spacing" textLength="69.3799" x="1199" y="280.6045">consultation</text><text fill="#000000" font-family="sans-serif" font-size="13" lengthAdjust="spacing" textLength="52.7363" x="1207.3218" y="296.9561">(si dispo)</text></g><!--link Marie to Laurent--><g id="link_Marie_Laurent"><path d="M762.19,135.7294 C752.74,144.6994 741.21,153.8794 729,159.6094 C707.83,169.5394 699.77,162.2694 677,167.6094 C617.06,181.6694 594.64,173.1994 545,209.6094 C528.87,221.4394 518.9501,234.7418 510.1601,250.1018 " fill="none" id="Marie-to-Laurent" style="stroke:#181818;stroke-width:1;stroke-dasharray:7.0,7.0;"/><polygon fill="#181818" points="507.18,255.3094,515.1219,249.4848,509.6634,250.9697,508.1785,245.5113,507.18,255.3094" style="stroke:#181818;stroke-width:1;"/><text fill="#000000" font-family="sans-serif" font-size="13" lengthAdjust="spacing" textLength="99.7217" x="678" y="182.1045">demande chiffres</text><text fill="#000000" font-family="sans-serif" font-size="13" lengthAdjust="spacing" textLength="56.3481" x="699.6868" y="198.4561">[TIME] 3h</text></g><!--link Marie to RA2--><g id="link_Marie_RA2"><path d="M786,135.7594 C786,171.2094 786,226.9594 786,257.6694 " fill="none" id="Marie-to-RA2" style="stroke:#181818;stroke-width:1;stroke-dasharray:7.0,7.0;"/><polygon fill="#181818" points="786,263.6694,790,254.6694,786,258.6694,782,254.6694,786,263.6694" style="stroke:#181818;stroke-width:1;"/><text fill="#000000" font-family="sans-serif" font-size="13" lengthAdjust="spacing" textLength="99.7217" x="787" y="190.1045">demande chiffres</text></g><!--link Thomas to WordPPSPS--><g id="link_Thomas_WordPPSPS"><path d="M640.49,112.2294 C541.02,123.0794 259.2,168.7794 140,344.6094 C103.96,397.7694 94.3088,468.924 91.4988,509.084 " fill="none" id="Thomas-to-WordPPSPS" style="stroke:#181818;stroke-width:1;"/><polygon fill="#181818" points="91.08,515.0694,95.6984,506.3705,91.429,510.0816,87.718,505.8121,91.08,515.0694" style="stroke:#181818;stroke-width:1;"/><text fill="#000000" font-family="sans-serif" font-size="13" lengthAdjust="spacing" textLength="50.5781" x="329.865" y="280.6045">relecture</text><text fill="#000000" font-family="sans-serif" font-size="13" lengthAdjust="spacing" textLength="116.3081" x="297" y="296.9561">commentaires Word</text></g><!--link Thomas to Email--><g id="link_Thomas_Email"><path d="M697.02,135.8694 C705.82,145.0994 716.85,154.4094 729,159.6094 C762.95,174.1494 858.91,159.7494 895,167.6094 C944.11,178.2994 964.08,174.4494 1000,209.6094 C1058.86,267.2094 1006.9,333.7994 1076,378.6094 C1087.96,386.3594 1189.91,384.4694 1204,386.6094 C1437.07,422.0494 1704.3115,500.2973 1798.9315,529.1873 " fill="none" id="Thomas-to-Email" style="stroke:#181818;stroke-width:1;stroke-dasharray:7.0,7.0;"/><polygon fill="#181818" points="1804.67,530.9394,1797.2304,524.4856,1799.8879,529.4793,1794.8942,532.1369,1804.67,530.9394" style="stroke:#181818;stroke-width:1;"/><text fill="#000000" font-family="sans-serif" font-size="13" lengthAdjust="spacing" textLength="96.8462" x="1041" y="288.6045">echange PPSPS</text></g><!--link Email to Client1--><g id="link_Email_Client1"><path d="M1804.78,547.9794 C1737.04,557.3094 1581.71,582.0094 1458,626.6094 C1447.88,630.2594 1380.36,664.3394 1372,671.1094 C1355.55,684.4194 1344.0627,698.6153 1334.2827,712.5753 " fill="none" id="Email-to-Client1" style="stroke:#181818;stroke-width:1;stroke-dasharray:7.0,7.0;"/><polygon fill="#181818" points="1330.84,717.4894,1339.28,712.4134,1333.7089,713.3943,1332.728,707.8232,1330.84,717.4894" style="stroke:#181818;stroke-width:1;"/><text fill="#000000" font-family="sans-serif" font-size="13" lengthAdjust="spacing" textLength="65.0381" x="1459" y="641.1045">envoi devis</text></g><!--link Client1 to Email--><g id="link_Client1_Email"><path d="M1313.36,717.2294 C1307.24,693.2594 1301.05,651.4394 1323,626.6094 C1386.86,554.3894 1694.2404,544.9453 1798.9004,543.7953 " fill="none" id="Client1-to-Email" style="stroke:#181818;stroke-width:1;stroke-dasharray:7.0,7.0;"/><polygon fill="#181818" points="1804.9,543.7294,1795.8566,539.8285,1799.9003,543.7843,1795.9445,547.828,1804.9,543.7294" style="stroke:#181818;stroke-width:1;"/><text fill="#000000" font-family="sans-serif" font-size="13" lengthAdjust="spacing" textLength="88.1689" x="1324" y="641.1045">demande devis</text></g><!--link Email to Client2--><g id="link_Email_Client2"><path d="M1834.3,570.5594 C1828.69,594.0494 1816.9,627.0294 1793,644.6094 C1716.86,700.6094 1664.76,625.4694 1582,671.1094 C1562.71,681.7494 1550.727,697.3444 1541.667,712.4444 " fill="none" id="Email-to-Client2" style="stroke:#181818;stroke-width:1;stroke-dasharray:7.0,7.0;"/><polygon fill="#181818" points="1538.58,717.5894,1546.6404,711.9299,1541.1525,713.3019,1539.7805,707.814,1538.58,717.5894" style="stroke:#181818;stroke-width:1;"/><text fill="#000000" font-family="sans-serif" font-size="13" lengthAdjust="spacing" textLength="65.0381" x="1810" y="641.1045">envoi devis</text></g><!--link Client2 to Email--><g id="link_Client2_Email"><path d="M1539.96,717.4294 C1549.46,703.0594 1564.43,683.4194 1582,671.1094 C1610.95,650.8194 1624.77,659.1294 1657,644.6094 C1710.38,620.5694 1763.9488,589.6192 1799.8688,567.8492 " fill="none" id="Client2-to-Email" style="stroke:#181818;stroke-width:1;stroke-dasharray:7.0,7.0;"/><polygon fill="#181818" points="1805,564.7394,1795.23,565.9834,1800.724,567.3309,1799.3765,572.8249,1805,564.7394" style="stroke:#181818;stroke-width:1;"/><text fill="#000000" font-family="sans-serif" font-size="13" lengthAdjust="spacing" textLength="88.1689" x="1693" y="641.1045">demande devis</text></g><!--link Email to Client3--><g id="link_Email_Client3"><path d="M1805,553.5394 C1755.49,568.2394 1660.87,597.2294 1582,626.6094 C1558.25,635.4594 1497.3,655.9394 1477,671.1094 C1459.94,683.8694 1448.3593,698.2747 1438.7293,712.4647 " fill="none" id="Email-to-Client3" style="stroke:#181818;stroke-width:1;stroke-dasharray:7.0,7.0;"/><polygon fill="#181818" points="1435.36,717.4294,1443.7237,712.2285,1438.1677,713.2921,1437.1041,707.7362,1435.36,717.4294" style="stroke:#181818;stroke-width:1;"/><text fill="#000000" font-family="sans-serif" font-size="13" lengthAdjust="spacing" textLength="65.0381" x="1583" y="641.1045">envoi devis</text></g><!--link GMN43 to GMN66--><g id="link_GMN43_GMN66"><path d="M1674,758.1294 C1674,782.1794 1674,823.5794 1674,861.5594 " fill="none" id="GMN43-GMN66" style="stroke:#181818;stroke-width:1;stroke-dasharray:7.0,7.0;"/></g><!--SRC=[XLRlRk964F_kfvWcQe_aH6B-A9VmuIG3jWwL9CYGQwKIeOrPO7NsBhNNKQBgtgNj2_HhlrILxjJdwIjqTjThR19K41AU-Srw_lncPYMJCOM1IBQ2KovXoCWw9GaqmKkZ3PCqadbAOVgSIPfGy0QpEt-Cg1GLJF2cjreHVCWS9_l4-9OesyYUDfNFUBY24hwEgUDiIVI9h2aSXJH3I4OUOfg1FGCQtPCZE0u2l-ktu1S7uASnmRTpEUUX1wrx81aK4WNhNmnQ2eIwjjQ5NdjFtYdadJrvjv1tIpagk93eBLjl98YLVH7AqUIRUvYbv96m65WcC9HIIfDjJ2GwlwLf9ZYdSLOg_QU8naQ1CigN-XNEvqeYoap2Tz3tCNh_8kW4WOd-cgICphd1f2oYscijXUFXq7E7GmMRRKH2iZdl-rfl7k7uwZBeNrs-34pRbpvwUPHp2eyiOmyineB3B3JAsUWQ3-niO2lo578Eo8VLAgM7Gh4S6TCrYPvr8GVuqQ4iYIGF95CeXRqU-kT-E9dpnks3IgUaM7ZqMIbHfqnT_6XJbGUnp958GufUtjT4bZfrQK0KQubAgr9yVfc3uaNQwkll__psvTUlVtpvyz-__uBJqu4tzgv7C__knzDJ3MX2nsrsNImnIO56AU65-EFa1jx2W65jdY2sP6d2Y4kQhaX4TIl4z8aMYXd5M2sFi4aoJ7fSAbb2HIupm1p_dEDfsK7IY2XF500QWmqHcUcQuCg_CBpvGQJBETzHSpAPJgQQ6qgZdvJ1y9thxk0cknQadweWpUKvdoWoszxGQAqO7uHYJ-vWHODQu50b05689Qd4qF1VstNVmeeXrr2XBIrAMLxqB_fbDH-4b29HvRIGajLOnG_UxHI2qU33o0-dPILhn-j82yMDI1ALNCOZiQ4gkfxM01pfX2rMZ9DuyTXUt7w_QBljpjbIH4z7TSmWPcYuy1OVGs-q24OtthW2Qy84mrbYi-6xaPkChmkvxJKN4iOL0XiUdS3V8GhWn4vopY9DSbL-LtrD-Mzp6GlnQSxz18bcig_-AHrIzjmGLiiLWujcUoMjg2qp-ceBw0du6crH5OHtqrc8KGLfdadJZT1oprlkNanHBF8bHgHpbwaHwAglYSL8mTFUceTMHTwloDiL-Q0Yxxni_zr1-1dIX73C-L9JdXQPAWUW9wNojdlPVDVUxBd-1a8QwyXsYwc1wsMR8etObiGdZXKtc-_ByTR3SKjKTkVSfFNSfBIAtNLg3wV8bj5c9E8Oju4Qo5W4hNjXOTgs1zBsVWrHj2eUIE8eZukTLOEKpTRRSL1vgOXP0i_Etclcz20JkLu9jKoGNAfj7dgEwlTN0oyrvLZOTqhjx4EctGEQcXTcpPbbgHpUmIDKvx7KE5n16OCbm-l8IGLi8-qXAmmxYkM74wfSZ1MyYM0VMtV8x6MdMC_xDKvnDUYxrXm7KAAckxaJwH5LsAWtwKv6F1O7BrMqu47jHKKdEGQgZ0g-ApF-A9YX-Wjz-t_qdJszFRNgrhBQJ8uzzp32gOmSRAxJqqbusn_xr_uKl11dzyp76sVew_cjhrJXfBXW09Om9SrOzrorZKuSUpLxRTb2exgrBNQtKIasrvR5wbxQg2qB2orcUDbXYkvO7Sbm-6K51hSoFY4hW42cxeQfsAfYQhPNptd3yAgmBePZPYvGzVTKBcPBUrUq24sTbkj-2vZI7A-QZSx6kXdQxYqzBTQBKmwm_m00]--></g></svg>