<svg xmlns="http://www.w3.org/2000/svg" xmlns:xlink="http://www.w3.org/1999/xlink" contentStyleType="text/css" height="1042px" preserveAspectRatio="none" style="width:2044px;height:1042px;background:#FFFFFF;" version="1.1" viewBox="0 0 2044 1042" width="2044px" zoomAndPan="magnify"><title>Component Diagram - Architecture Systeme ACTUEL Direction-Affaires</title><defs/><g><text fill="#000000" font-family="sans-serif" font-size="14" font-weight="bold" lengthAdjust="spacing" textLength="476.0889" x="776.9556" y="24.5332">Component Diagram - Architecture Systeme ACTUEL Direction-Affaires</text><!--cluster Responsables Affaires (4)--><g id="cluster_Responsables Affaires (4)"><path d="M432.5,217.6094 L605.4443,217.6094 A3.75,3.75 0 0 1 607.9443,220.1094 L614.9443,241.2188 L997.5,241.2188 A2.5,2.5 0 0 1 1000,243.7188 L1000,326.1094 A2.5,2.5 0 0 1 997.5,328.6094 L432.5,328.6094 A2.5,2.5 0 0 1 430,326.1094 L430,220.1094 A2.5,2.5 0 0 1 432.5,217.6094 " fill="#FFE4E1" style="stroke:#000000;stroke-width:1.5;"/><line style="stroke:#000000;stroke-width:1.5;" x1="430" x2="614.9443" y1="241.2188" y2="241.2188"/><text fill="#000000" font-family="sans-serif" font-size="14" font-weight="bold" lengthAdjust="spacing" textLength="171.9443" x="434" y="234.1426">Responsables Affaires (4)</text></g><!--cluster Direction & BE--><g id="cluster_Direction &amp; BE"><path d="M626.5,44.6094 L725.5137,44.6094 A3.75,3.75 0 0 1 728.0137,47.1094 L735.0137,68.2188 L1037.5,68.2188 A2.5,2.5 0 0 1 1040,70.7188 L1040,149.1094 A2.5,2.5 0 0 1 1037.5,151.6094 L626.5,151.6094 A2.5,2.5 0 0 1 624,149.1094 L624,47.1094 A2.5,2.5 0 0 1 626.5,44.6094 " fill="#E6F3FF" style="stroke:#000000;stroke-width:1.5;"/><line style="stroke:#000000;stroke-width:1.5;" x1="624" x2="735.0137" y1="68.2188" y2="68.2188"/><text fill="#000000" font-family="sans-serif" font-size="14" font-weight="bold" lengthAdjust="spacing" textLength="98.0137" x="628" y="61.1426">Direction &amp; BE</text></g><!--cluster Systeme Legacy--><g id="cluster_Systeme Legacy"><path d="M692.5,394.6094 L803.2305,394.6094 A3.75,3.75 0 0 1 805.7305,397.1094 L812.7305,418.2188 L1241.5,418.2188 A2.5,2.5 0 0 1 1244,420.7188 L1244,809.1094 A2.5,2.5 0 0 1 1241.5,811.6094 L692.5,811.6094 A2.5,2.5 0 0 1 690,809.1094 L690,397.1094 A2.5,2.5 0 0 1 692.5,394.6094 " fill="#FFCCCC" style="stroke:#000000;stroke-width:1.5;"/><line style="stroke:#000000;stroke-width:1.5;" x1="690" x2="812.7305" y1="418.2188" y2="418.2188"/><text fill="#000000" font-family="sans-serif" font-size="14" font-weight="bold" lengthAdjust="spacing" textLength="109.7305" x="694" y="411.1426">Systeme Legacy</text></g><!--cluster SageMDE--><g id="cluster_SageMDE"><path d="M887,456.6094 C887,446.6094 1049.5,446.6094 1049.5,446.6094 C1049.5,446.6094 1212,446.6094 1212,456.6094 L1212,769.6094 C1212,779.6094 1049.5,779.6094 1049.5,779.6094 C1049.5,779.6094 887,779.6094 887,769.6094 L887,456.6094 " fill="#FF0000" style="stroke:#181818;stroke-width:1;"/><path d="M887,456.6094 C887,466.6094 1049.5,466.6094 1049.5,466.6094 C1049.5,466.6094 1212,466.6094 1212,456.6094 " fill="none" style="stroke:#181818;stroke-width:1;"/><text fill="#000000" font-family="sans-serif" font-size="14" font-weight="bold" lengthAdjust="spacing" textLength="101.1377" x="998.9312" y="483.1426">Sage MDE/ERP</text><text fill="#000000" font-family="sans-serif" font-size="14" font-weight="bold" lengthAdjust="spacing" textLength="69.2275" x="1014.8862" y="500.752">(Obsolete)</text></g><!--cluster Documents (Chaos)--><g id="cluster_Documents (Chaos)"><path d="M8.5,470.1094 L141.7344,470.1094 A3.75,3.75 0 0 1 144.2344,472.6094 L151.2344,493.7188 L663.5,493.7188 A2.5,2.5 0 0 1 666,496.2188 L666,812.1094 A2.5,2.5 0 0 1 663.5,814.6094 L8.5,814.6094 A2.5,2.5 0 0 1 6,812.1094 L6,472.6094 A2.5,2.5 0 0 1 8.5,470.1094 " fill="#FFF9E6" style="stroke:#000000;stroke-width:1.5;"/><line style="stroke:#000000;stroke-width:1.5;" x1="6" x2="151.2344" y1="493.7188" y2="493.7188"/><text fill="#000000" font-family="sans-serif" font-size="14" font-weight="bold" lengthAdjust="spacing" textLength="132.2344" x="10" y="486.6426">Documents (Chaos)</text></g><!--cluster Communication--><g id="cluster_Communication"><path d="M1818.5,479.1094 L1925.2793,479.1094 A3.75,3.75 0 0 1 1927.7793,481.6094 L1934.7793,502.7188 L2034.5,502.7188 A2.5,2.5 0 0 1 2037,505.2188 L2037,779.6094 A2.5,2.5 0 0 1 2034.5,782.1094 L1818.5,782.1094 A2.5,2.5 0 0 1 1816,779.6094 L1816,481.6094 A2.5,2.5 0 0 1 1818.5,479.1094 " fill="#F0F0F0" style="stroke:#000000;stroke-width:1.5;"/><line style="stroke:#000000;stroke-width:1.5;" x1="1816" x2="1934.7793" y1="502.7188" y2="502.7188"/><text fill="#000000" font-family="sans-serif" font-size="14" font-weight="bold" lengthAdjust="spacing" textLength="105.7793" x="1820" y="495.6426">Communication</text></g><!--cluster Clients--><g id="cluster_Clients"><path d="M1278.7457,693.2904 C1289.1345,671.8839 1301.2659,671.2313 1316.6622,688.3639 C1325.6895,675.4099 1341.0546,674.0004 1349.2867,689.2827 C1359.0105,670.1985 1377.8555,671.72 1388.7795,687.9401 C1397.3209,671.5774 1414.2843,665.8169 1426.5472,683.8543 C1436.4453,668.0811 1452.9681,666.1322 1461.7956,684.9455 C1469.8313,667.5205 1484.1813,667.6649 1494.3001,682.8705 C1503.4482,659.7287 1522.7946,663.3628 1535.2467,679.4191 C1545.7974,664.0721 1560.5262,662.1548 1570.6908,679.8334 C1582.2541,665.2507 1596.4634,664.608 1605.9244,682.1399 C1618.0297,666.4585 1631.7421,666.4677 1642.1017,684.0392 C1652.3546,668.3965 1668.8315,671.2379 1675.7911,687.5151 C1690.8471,666.2105 1705.8283,667.9117 1717.8655,690.4145 C1724.0337,673.5389 1738.3255,671.6497 1748.0047,687.1457 C1759.6697,669.1004 1779.0797,669.3436 1789.1399,688.9014 C1812.3038,693.9765 1817.0389,713.9011 1798.8142,728.9694 C1816.9801,750.36 1813.1052,766.0176 1784.745,772.3022 C1772.1558,787.6802 1760.4279,786.1871 1752.5425,767.8142 C1744.6373,786.5588 1725.4122,787.9024 1713.5839,772.2586 C1702.2712,789.8112 1691.9662,787.1839 1679.7179,773.2655 C1668.5364,789.3985 1655.8143,791.0671 1642.6118,775.6417 C1631.945,791.6867 1617.3583,793.8046 1606.9955,775.3281 C1595.2227,790.1526 1582.4754,792.9114 1572.5826,773.4416 C1562.9585,793.4305 1548.8066,799.2772 1532.4365,780.4119 C1518.4727,795.9356 1505.1435,793.0408 1495.2524,775.7912 C1486.7987,790.0429 1471.472,795.4406 1461.3315,777.5727 C1449.4554,798.0144 1432.5378,792.1027 1422.2546,775.8753 C1412.1397,788.9285 1398.8809,789.4863 1389.9717,774.4876 C1376.0493,790.0962 1362.2941,793.1591 1351.5977,771.193 C1338.3798,788.7591 1324.0341,784.3596 1313.5316,768.1343 C1305.3762,784.681 1289.3519,781.9172 1280.9,768.4566 C1262.4067,757.2247 1257.2423,743.0125 1277.8072,728.7393 C1260.6067,718.0324 1263.276,703.1324 1278.7457,693.2904 " fill="#E0E0E0" style="stroke:#181818;stroke-width:1;"/><text fill="#000000" font-family="sans-serif" font-size="14" font-weight="bold" lengthAdjust="spacing" textLength="46.6758" x="1506.6621" y="706.6426">Clients</text></g><!--entity Laurent--><g id="elem_Laurent"><rect fill="#FFB6C1" height="55.2188" rx="2.5" ry="2.5" style="stroke:#181818;stroke-width:0.5;" width="67.4824" x="446.5" y="255.6094"/><text fill="#000000" font-family="sans-serif" font-size="14" lengthAdjust="spacing" textLength="47.4824" x="456.5" y="280.1426">Laurent</text><text fill="#000000" font-family="sans-serif" font-size="14" lengthAdjust="spacing" textLength="31.124" x="456.5" y="297.752">RA 1</text></g><!--entity RA2--><g id="elem_RA2"><rect fill="#FFB6C1" height="37.6094" rx="2.5" ry="2.5" style="stroke:#181818;stroke-width:0.5;" width="51.124" x="760.5" y="264.1094"/><text fill="#000000" font-family="sans-serif" font-size="14" lengthAdjust="spacing" textLength="31.124" x="770.5" y="288.6426">RA 2</text></g><!--entity RA3--><g id="elem_RA3"><rect fill="#FFB6C1" height="37.6094" rx="2.5" ry="2.5" style="stroke:#181818;stroke-width:0.5;" width="51.124" x="846.5" y="264.1094"/><text fill="#000000" font-family="sans-serif" font-size="14" lengthAdjust="spacing" textLength="31.124" x="856.5" y="288.6426">RA 3</text></g><!--entity RA4--><g id="elem_RA4"><rect fill="#FFB6C1" height="37.6094" rx="2.5" ry="2.5" style="stroke:#181818;stroke-width:0.5;" width="51.124" x="932.5" y="264.1094"/><text fill="#000000" font-family="sans-serif" font-size="14" lengthAdjust="spacing" textLength="31.124" x="942.5" y="288.6426">RA 4</text></g><g id="elem_GMN7"><path d="M548.5,253.6094 L548.5,279.1094 L513.73,283.1094 L548.5,287.1094 L548.5,312.6641 A0,0 0 0 0 548.5,312.6641 L725.5698,312.6641 A0,0 0 0 0 725.5698,312.6641 L725.5698,263.6094 L715.5698,253.6094 L548.5,253.6094 A0,0 0 0 0 548.5,253.6094 " fill="#FEFFDD" style="stroke:#181818;stroke-width:0.5;"/><path d="M715.5698,253.6094 L715.5698,263.6094 L725.5698,263.6094 L715.5698,253.6094 " fill="#FEFFDD" style="stroke:#181818;stroke-width:0.5;"/><text fill="#000000" font-family="sans-serif" font-size="13" lengthAdjust="spacing" textLength="97.5254" x="554.5" y="272.1045">&#240;&#376;&#8221;&#180; Travail isole</text><text fill="#000000" font-family="sans-serif" font-size="13" lengthAdjust="spacing" textLength="156.0698" x="554.5" y="288.4561">&#240;&#376;&#8221;&#180; Templates personnels</text><text fill="#000000" font-family="sans-serif" font-size="13" lengthAdjust="spacing" textLength="96.0908" x="554.5" y="304.8076">&#240;&#376;&#8221;&#180; Excel perso</text></g><!--entity Marie--><g id="elem_Marie"><rect fill="#DDA0DD" height="55.2188" rx="2.5" ry="2.5" style="stroke:#181818;stroke-width:0.5;" width="79.1172" x="746.5" y="80.6094"/><text fill="#000000" font-family="sans-serif" font-size="14" lengthAdjust="spacing" textLength="35.0068" x="756.5" y="105.1426">Marie</text><text fill="#000000" font-family="sans-serif" font-size="14" lengthAdjust="spacing" textLength="59.1172" x="756.5" y="122.752">Directrice</text></g><!--entity Thomas--><g id="elem_Thomas"><rect fill="#98FB98" height="55.2188" rx="2.5" ry="2.5" style="stroke:#181818;stroke-width:0.5;" width="70.5723" x="640.5" y="80.6094"/><text fill="#000000" font-family="sans-serif" font-size="14" lengthAdjust="spacing" textLength="50.5723" x="650.5" y="105.1426">Thomas</text><text fill="#000000" font-family="sans-serif" font-size="14" lengthAdjust="spacing" textLength="18.6758" x="650.5" y="122.752">BE</text></g><g id="elem_GMN13"><path d="M860.5,86.6094 L860.5,104.1094 L825.61,108.1094 L860.5,112.1094 L860.5,129.3125 A0,0 0 0 0 860.5,129.3125 L1023.8271,129.3125 A0,0 0 0 0 1023.8271,129.3125 L1023.8271,96.6094 L1013.8271,86.6094 L860.5,86.6094 A0,0 0 0 0 860.5,86.6094 " fill="#FEFFDD" style="stroke:#181818;stroke-width:0.5;"/><path d="M1013.8271,86.6094 L1013.8271,96.6094 L1023.8271,96.6094 L1013.8271,86.6094 " fill="#FEFFDD" style="stroke:#181818;stroke-width:0.5;"/><text fill="#000000" font-family="sans-serif" font-size="13" lengthAdjust="spacing" textLength="142.3271" x="866.5" y="105.1045">&#240;&#376;&#8221;&#180; Aucune visibilite TR</text><text fill="#000000" font-family="sans-serif" font-size="13" lengthAdjust="spacing" textLength="126.9658" x="866.5" y="121.4561">&#226;&#65533;&#176; 3h pour un chiffre</text></g><g id="elem_GMN21"><path d="M706,488.6094 L706,596.7188 L859.9326,596.7188 L859.9326,498.6094 L849.9326,488.6094 L706,488.6094 " fill="#FEFFDD" style="stroke:#181818;stroke-width:0.5;"/><path d="M849.9326,488.6094 L849.9326,498.6094 L859.9326,498.6094 L849.9326,488.6094 " fill="#FEFFDD" style="stroke:#181818;stroke-width:1;"/><text fill="#000000" font-family="sans-serif" font-size="13" lengthAdjust="spacing" textLength="35.0327" x="712" y="507.1045">&#226;&#353;&#160;&#239;&#184;&#65533;</text><text fill="#000000" font-family="sans-serif" font-size="13" font-weight="bold" lengthAdjust="spacing" textLength="85.2173" x="750.6445" y="507.1045">CALAMITEUX</text><text fill="#000000" font-family="sans-serif" font-size="13" lengthAdjust="spacing" textLength="106.2217" x="712" y="523.4561">- 30-40s par ecran</text><text fill="#000000" font-family="sans-serif" font-size="13" lengthAdjust="spacing" textLength="103.6636" x="712" y="539.8076">- VPN + Citrix lent</text><text fill="#000000" font-family="sans-serif" font-size="13" lengthAdjust="spacing" textLength="117.7744" x="712" y="556.1592">- Interface complexe</text><text fill="#000000" font-family="sans-serif" font-size="13" lengthAdjust="spacing" textLength="132.9326" x="712" y="572.5107">- Teletravail impossible</text><text fill="#000000" font-family="sans-serif" font-size="13" lengthAdjust="spacing" textLength="119.2153" x="712" y="588.8623">- Timeouts frequents</text></g><!--entity Module Devis--><g id="elem_Module Devis"><rect fill="#F1F1F1" height="37.6094" rx="2.5" ry="2.5" style="stroke:#181818;stroke-width:0.5;" width="104.8135" x="930.5" y="523.6094"/><text fill="#000000" font-family="sans-serif" font-size="14" lengthAdjust="spacing" textLength="84.8135" x="940.5" y="548.1426">Module Devis</text></g><!--entity Module Affaires--><g id="elem_Module Affaires"><rect fill="#F1F1F1" height="37.6094" rx="2.5" ry="2.5" style="stroke:#181818;stroke-width:0.5;" width="117.2686" x="1070.5" y="523.6094"/><text fill="#000000" font-family="sans-serif" font-size="14" lengthAdjust="spacing" textLength="97.2686" x="1080.5" y="548.1426">Module Affaires</text></g><!--entity Module Facturation--><g id="elem_Module Facturation"><rect fill="#F1F1F1" height="37.6094" rx="2.5" ry="2.5" style="stroke:#181818;stroke-width:0.5;" width="139.8408" x="930" y="717.6094"/><text fill="#000000" font-family="sans-serif" font-size="14" lengthAdjust="spacing" textLength="119.8408" x="940" y="742.1426">Module Facturation</text></g><!--entity WordPPSPS--><g id="elem_WordPPSPS"><rect fill="#FFD700" height="55.2188" rx="2.5" ry="2.5" style="stroke:#181818;stroke-width:0.5;" width="135.9375" x="22" y="515.1094"/><text fill="#000000" font-family="sans-serif" font-size="14" lengthAdjust="spacing" textLength="33.4482" x="32" y="539.6426">Word</text><text fill="#000000" font-family="sans-serif" font-size="14" lengthAdjust="spacing" textLength="115.9375" x="32" y="557.252">Templates PPSPS</text></g><!--entity WordDevis--><g id="elem_WordDevis"><rect fill="#FFD700" height="55.2188" rx="2.5" ry="2.5" style="stroke:#181818;stroke-width:0.5;" width="55.0068" x="328.5" y="515.1094"/><text fill="#000000" font-family="sans-serif" font-size="14" lengthAdjust="spacing" textLength="33.4482" x="338.5" y="539.6426">Word</text><text fill="#000000" font-family="sans-serif" font-size="14" lengthAdjust="spacing" textLength="35.0068" x="338.5" y="557.252">Devis</text></g><!--entity ExcelL--><g id="elem_ExcelL"><rect fill="#FFD700" height="55.2188" rx="2.5" ry="2.5" style="stroke:#181818;stroke-width:0.5;" width="107.9443" x="419" y="515.1094"/><text fill="#000000" font-family="sans-serif" font-size="14" lengthAdjust="spacing" textLength="34.2344" x="429" y="539.6426">Excel</text><text fill="#000000" font-family="sans-serif" font-size="14" lengthAdjust="spacing" textLength="87.9443" x="429" y="557.252">Perso Laurent</text></g><!--entity ExcelRA2--><g id="elem_ExcelRA2"><rect fill="#FFD700" height="55.2188" rx="2.5" ry="2.5" style="stroke:#181818;stroke-width:0.5;" width="87.6963" x="562" y="515.1094"/><text fill="#000000" font-family="sans-serif" font-size="14" lengthAdjust="spacing" textLength="34.2344" x="572" y="539.6426">Excel</text><text fill="#000000" font-family="sans-serif" font-size="14" lengthAdjust="spacing" textLength="67.6963" x="572" y="557.252">Perso RA2</text></g><!--entity Dossiers--><g id="elem_Dossiers"><rect fill="#FF6B6B" height="72.8281" rx="2.5" ry="2.5" style="stroke:#181818;stroke-width:0.5;" width="99.7686" x="193" y="506.1094"/><text fill="#000000" font-family="sans-serif" font-size="14" lengthAdjust="spacing" textLength="54.4551" x="203" y="530.6426">Dossiers</text><text fill="#000000" font-family="sans-serif" font-size="14" lengthAdjust="spacing" textLength="56.0342" x="203" y="548.252">Partages</text><text fill="#000000" font-family="sans-serif" font-size="14" lengthAdjust="spacing" textLength="79.7686" x="203" y="565.8613">200+ fichiers</text></g><g id="elem_GMN30"><path d="M118,674.6094 L118,799.0703 A0,0 0 0 0 118,799.0703 L367.8901,799.0703 A0,0 0 0 0 367.8901,799.0703 L367.8901,684.6094 L357.8901,674.6094 L247,674.6094 L243,579.2694 L239,674.6094 L118,674.6094 A0,0 0 0 0 118,674.6094 " fill="#FEFFDD" style="stroke:#181818;stroke-width:0.5;"/><path d="M357.8901,674.6094 L357.8901,684.6094 L367.8901,684.6094 L357.8901,674.6094 " fill="#FEFFDD" style="stroke:#181818;stroke-width:0.5;"/><text fill="#000000" font-family="sans-serif" font-size="13" lengthAdjust="spacing" textLength="24.5591" x="124" y="693.1045">&#240;&#376;&#8221;&#180;</text><text fill="#000000" font-family="sans-serif" font-size="13" font-weight="bold" lengthAdjust="spacing" textLength="111.23" x="152.1709" y="693.1045">CHAOS FICHIERS</text><text fill="#000000" font-family="sans-serif" font-size="13" lengthAdjust="spacing" textLength="116.6826" x="124" y="709.4561">- 200+ fichiers Word</text><text fill="#000000" font-family="sans-serif" font-size="13" lengthAdjust="spacing" textLength="135.8398" x="124" y="725.8076">- Nommage incoherent:</text><text fill="#000000" font-family="sans-serif" font-size="13" lengthAdjust="spacing" textLength="197.8564" x="131.2236" y="742.1592">"PPSPS_final_v2_OK_2023.docx"</text><text fill="#000000" font-family="sans-serif" font-size="13" lengthAdjust="spacing" textLength="221.6665" x="131.2236" y="758.5107">"PPSPS_Client_A_VRAI_FINAL.docx"</text><text fill="#000000" font-family="sans-serif" font-size="13" lengthAdjust="spacing" textLength="111.2808" x="124" y="774.8623">- Pas de versioning</text><text fill="#000000" font-family="sans-serif" font-size="13" lengthAdjust="spacing" textLength="152.2422" x="124" y="791.2139">- &#226;&#65533;&#176; 30 min de recherche</text></g><!--entity Email--><g id="elem_Email"><rect fill="#F1F1F1" height="55.2188" rx="2.5" ry="2.5" style="stroke:#181818;stroke-width:0.5;" width="68.248" x="1832" y="515.1094"/><text fill="#000000" font-family="sans-serif" font-size="14" lengthAdjust="spacing" textLength="48.248" x="1842" y="539.6426">Outlook</text><text fill="#000000" font-family="sans-serif" font-size="14" lengthAdjust="spacing" textLength="35.0068" x="1842" y="557.252">Email</text></g><!--entity VPN--><g id="elem_VPN"><rect fill="#FF0000" height="37.6094" rx="2.5" ry="2.5" style="stroke:#181818;stroke-width:0.5;" width="84.5586" x="1935.5" y="523.6094"/><text fill="#000000" font-family="sans-serif" font-size="14" lengthAdjust="spacing" textLength="64.5586" x="1945.5" y="548.1426">VPN/Citrix</text></g><g id="elem_GMN36"><path d="M1861,707.1094 L1861,766.1641 A0,0 0 0 0 1861,766.1641 L2021.4453,766.1641 A0,0 0 0 0 2021.4453,766.1641 L2021.4453,717.1094 L2011.4453,707.1094 L1950.53,707.1094 L1974.52,561.6694 L1942.53,707.1094 L1861,707.1094 A0,0 0 0 0 1861,707.1094 " fill="#FEFFDD" style="stroke:#181818;stroke-width:0.5;"/><path d="M2011.4453,707.1094 L2011.4453,717.1094 L2021.4453,717.1094 L2011.4453,707.1094 " fill="#FEFFDD" style="stroke:#181818;stroke-width:0.5;"/><text fill="#000000" font-family="sans-serif" font-size="13" lengthAdjust="spacing" textLength="126.4517" x="1867" y="725.6045">&#240;&#376;&#8221;&#180; 30-40s par ecran</text><text fill="#000000" font-family="sans-serif" font-size="13" lengthAdjust="spacing" textLength="139.4453" x="1867" y="741.9561">&#240;&#376;&#8221;&#180; Timeouts frequents</text><text fill="#000000" font-family="sans-serif" font-size="13" lengthAdjust="spacing" textLength="129.3462" x="1867" y="758.3076">&#240;&#376;&#732;&#164; Frustration 10/10</text></g><!--entity Client1--><g id="elem_Client1"><rect fill="#F1F1F1" height="37.6094" rx="2.5" ry="2.5" style="stroke:#181818;stroke-width:0.5;" width="69.0205" x="1284.5" y="717.6094"/><text fill="#000000" font-family="sans-serif" font-size="14" lengthAdjust="spacing" textLength="49.0205" x="1294.5" y="742.1426">Client A</text></g><!--entity Client2--><g id="elem_Client2"><rect fill="#F1F1F1" height="37.6094" rx="2.5" ry="2.5" style="stroke:#181818;stroke-width:0.5;" width="69.0205" x="1494.5" y="717.6094"/><text fill="#000000" font-family="sans-serif" font-size="14" lengthAdjust="spacing" textLength="49.0205" x="1504.5" y="742.1426">Client B</text></g><!--entity Client3--><g id="elem_Client3"><rect fill="#F1F1F1" height="37.6094" rx="2.5" ry="2.5" style="stroke:#181818;stroke-width:0.5;" width="69.793" x="1389" y="717.6094"/><text fill="#000000" font-family="sans-serif" font-size="14" lengthAdjust="spacing" textLength="49.793" x="1399" y="742.1426">Client C</text></g><g id="elem_GMN43"><path d="M1598.5,715.1094 L1598.5,757.8125 L1775.5762,757.8125 L1775.5762,725.1094 L1765.5762,715.1094 L1598.5,715.1094 " fill="#FEFFDD" style="stroke:#181818;stroke-width:0.5;"/><path d="M1765.5762,715.1094 L1765.5762,725.1094 L1775.5762,725.1094 L1765.5762,715.1094 " fill="#FEFFDD" style="stroke:#181818;stroke-width:1;"/><text fill="#000000" font-family="sans-serif" font-size="13" lengthAdjust="spacing" textLength="156.0762" x="1604.5" y="733.6045">&#240;&#376;&#8220;&#167; Demande devis email</text><text fill="#000000" font-family="sans-serif" font-size="13" lengthAdjust="spacing" textLength="107.4658" x="1604.5" y="749.9561">&#226;&#65533;&#176; Attend 48-72h</text></g><g id="elem_GMN66"><path d="M1555,861.6094 L1555,1035.125 L1818.7725,1035.125 L1818.7725,871.6094 L1808.7725,861.6094 L1555,861.6094 " fill="#FEFFDD" style="stroke:#181818;stroke-width:0.5;"/><path d="M1808.7725,861.6094 L1808.7725,871.6094 L1818.7725,871.6094 L1808.7725,861.6094 " fill="#FEFFDD" style="stroke:#181818;stroke-width:1;"/><text fill="#000000" font-family="sans-serif" font-size="13" font-weight="bold" lengthAdjust="spacing" textLength="188.5063" x="1561" y="880.1045">PROBLEMES ARCHITECTURE</text><text fill="#000000" font-family="sans-serif" font-size="13" lengthAdjust="spacing" textLength="242.7725" x="1561" y="896.4561">&#240;&#376;&#8221;&#180; ERP Legacy ultra-lent (30-40s/ecran)</text><text fill="#000000" font-family="sans-serif" font-size="13" lengthAdjust="spacing" textLength="236.5835" x="1561" y="912.8076">&#240;&#376;&#8221;&#180; Teletravail impossible (VPN + Citrix)</text><text fill="#000000" font-family="sans-serif" font-size="13" lengthAdjust="spacing" textLength="239.5161" x="1561" y="929.1592">&#240;&#376;&#8221;&#180; Documents eparpilles (200+ fichiers)</text><text fill="#000000" font-family="sans-serif" font-size="13" lengthAdjust="spacing" textLength="210.2788" x="1561" y="945.5107">&#240;&#376;&#8221;&#180; Pas de templates automatiques</text><text fill="#000000" font-family="sans-serif" font-size="13" lengthAdjust="spacing" textLength="213.1543" x="1561" y="961.8623">&#240;&#376;&#8221;&#180; Chaque RA a ses propres Excel</text><text fill="#000000" font-family="sans-serif" font-size="13" lengthAdjust="spacing" textLength="176.6172" x="1561" y="978.2139">&#240;&#376;&#8221;&#180; Pas d'integration systeme</text><text fill="#000000" font-family="sans-serif" font-size="13" lengthAdjust="spacing" textLength="170.5171" x="1561" y="994.5654">&#240;&#376;&#8221;&#180; Pas de visibilite direction</text><text fill="#000000" font-family="sans-serif" font-size="13" lengthAdjust="spacing" textLength="181.3652" x="1561" y="1010.917">&#240;&#376;&#8221;&#180; PPSPS 100% manuel (3h)</text><text fill="#000000" font-family="sans-serif" font-size="13" lengthAdjust="spacing" textLength="187.1416" x="1561" y="1027.2686">&#240;&#376;&#8221;&#180; Recherche template 30 min</text></g><!--link SageMDE to GMN21--><g id="link_SageMDE_GMN21"><path d="M886.8852,542.6094 C886.8409,542.6094 886.7966,542.6094 886.7523,542.6094 C886.6637,542.6094 886.5752,542.6094 886.4866,542.6094 C886.3094,542.6094 886.1322,542.6094 885.955,542.6094 C883.12,542.6094 880.285,542.6094 877.45,542.6094 C871.78,542.6094 866.11,542.6094 860.44,542.6094 " fill="none" id="SageMDE-GMN21" style="stroke:#181818;stroke-width:1;stroke-dasharray:7.0,7.0;"/></g><!--link Client1 to GMN43--><g id="link_Client1_GMN43"><path d="M1325.65,717.5594 C1335.36,693.0394 1356,651.4994 1389.5,633.8594 C1457.92,597.8294 1490.78,607.5594 1563.5,633.8594 C1608.09,649.9794 1647.92,689.9994 1669.65,715.0694 " fill="none" id="Client1-GMN43" style="stroke:#181818;stroke-width:1;stroke-dasharray:7.0,7.0;"/></g><!--link Laurent to SageMDE--><g id="link_Laurent_SageMDE"><path d="M502.92,310.7994 C525.32,334.4694 561.84,367.0194 602,378.6094 C617.43,383.0594 879.65,375.2394 891,386.6094 C902.98,398.6119 909.3056,414.0938 912.0344,430.6156 C912.7166,434.7461 913.1739,438.9416 913.4387,443.1639 C913.5049,444.2195 913.3177,439.2816 913.3603,440.34 " fill="none" id="Laurent-to-SageMDE" style="stroke:#181818;stroke-width:1;"/><polygon fill="#181818" points="913.6016,446.3351,917.2364,437.1815,913.4005,441.3392,909.2428,437.5033,913.6016,446.3351" style="stroke:#181818;stroke-width:1;"/><text fill="#000000" font-family="sans-serif" font-size="13" lengthAdjust="spacing" textLength="46.96" x="617.46" y="359.1045">via VPN</text><text fill="#000000" font-family="sans-serif" font-size="13" lengthAdjust="spacing" textLength="75.8799" x="603" y="375.4561">30-40s/ecran</text></g><!--link Laurent to WordPPSPS--><g id="link_Laurent_WordPPSPS"><path d="M446.37,290.0994 C370.63,303.7094 192.43,336.3894 182,344.6094 C126.99,387.9294 104.608,466.0322 95.778,508.9922 " fill="none" id="Laurent-to-WordPPSPS" style="stroke:#181818;stroke-width:1;"/><polygon fill="#181818" points="94.57,514.8694,100.3001,506.859,95.5767,509.9718,92.4639,505.2483,94.57,514.8694" style="stroke:#181818;stroke-width:1;"/><text fill="#000000" font-family="sans-serif" font-size="13" lengthAdjust="spacing" textLength="62.1436" x="193.8418" y="359.1045">copie-colle</text><text fill="#000000" font-family="sans-serif" font-size="13" lengthAdjust="spacing" textLength="83.8271" x="183" y="375.4561">3h par PPSPS</text></g><!--link Laurent to WordDevis--><g id="link_Laurent_WordDevis"><path d="M446.29,296.0594 C424.3,305.6794 396.99,321.4494 382,344.6094 C347.88,397.3194 348.5992,468.6729 352.1792,508.9829 " fill="none" id="Laurent-to-WordDevis" style="stroke:#181818;stroke-width:1;"/><polygon fill="#181818" points="352.71,514.9594,355.8981,505.6408,352.2677,509.979,347.9295,506.3485,352.71,514.9594" style="stroke:#181818;stroke-width:1;"/><text fill="#000000" font-family="sans-serif" font-size="13" lengthAdjust="spacing" textLength="56.3608" x="383" y="367.1045">templates</text></g><!--link Laurent to ExcelL--><g id="link_Laurent_ExcelL"><path d="M465.24,310.6894 C460.32,320.9694 455.47,333.0194 453,344.6094 C440.22,404.6294 453.4416,470.93 463.5616,509.08 " fill="none" id="Laurent-to-ExcelL" style="stroke:#181818;stroke-width:1;"/><polygon fill="#181818" points="465.1,514.8794,466.6587,505.1546,463.818,510.0465,458.9261,507.2058,465.1,514.8794" style="stroke:#181818;stroke-width:1;"/><text fill="#000000" font-family="sans-serif" font-size="13" lengthAdjust="spacing" textLength="75.8672" x="454" y="367.1045">calculs perso</text></g><!--link Laurent to Dossiers--><g id="link_Laurent_Dossiers"><path d="M446.48,286.0194 C405.68,290.1594 337.38,303.2594 298,344.6094 C256,388.7094 245.9056,456.1377 243.6056,499.8077 " fill="none" id="Laurent-to-Dossiers" style="stroke:#181818;stroke-width:1;"/><polygon fill="#181818" points="243.29,505.7994,247.7578,497.0222,243.553,500.8063,239.7689,496.6015,243.29,505.7994" style="stroke:#181818;stroke-width:1;"/><text fill="#000000" font-family="sans-serif" font-size="13" lengthAdjust="spacing" textLength="57.8081" x="299" y="359.1045">recherche</text><text fill="#000000" font-family="sans-serif" font-size="13" lengthAdjust="spacing" textLength="39.019" x="308.3945" y="375.4561">30 min</text></g><!--link Laurent to VPN--><g id="link_Laurent_VPN"><path d="M498.56,310.7194 C507.15,320.7794 518.29,331.1094 531,336.6094 C555.63,347.2594 987.18,343.7594 1014,344.6094 C1114.5,347.7794 1836.39,327.8594 1918,386.6094 C1962.96,418.9794 1973.7246,484.0007 1976.5546,517.4807 " fill="none" id="Laurent-to-VPN" style="stroke:#181818;stroke-width:1;stroke-dasharray:7.0,7.0;"/><polygon fill="#181818" points="1977.06,523.4594,1980.2877,514.1544,1976.6389,518.4771,1972.3162,514.8283,1977.06,523.4594" style="stroke:#181818;stroke-width:1;"/><text fill="#000000" font-family="sans-serif" font-size="13" lengthAdjust="spacing" textLength="39.7427" x="1897" y="367.1045">souffre</text></g><!--link RA2 to SageMDE--><g id="link_RA2_SageMDE"><path d="M788.87,302.3894 C793.35,324.2894 804.2,360.2994 829,378.6094 C851.35,395.1094 872.39,365.9794 891,386.6094 C902.3625,399.1994 908.375,414.98 910.9825,431.6183 C911.6344,435.7779 912.0734,439.991 912.3301,444.2214 C912.3622,444.7501 912.3914,445.2792 912.4178,445.8085 C912.431,446.0731 912.1757,440.3437 912.1875,440.6085 " fill="none" id="RA2-to-SageMDE" style="stroke:#181818;stroke-width:1;"/><polygon fill="#181818" points="912.4554,446.6025,916.0496,437.4329,912.2322,441.6075,908.0575,437.7901,912.4554,446.6025" style="stroke:#181818;stroke-width:1;"/><text fill="#000000" font-family="sans-serif" font-size="13" lengthAdjust="spacing" textLength="46.96" x="830" y="367.1045">via VPN</text></g><!--link RA2 to ExcelRA2--><g id="link_RA2_ExcelRA2"><path d="M775.08,302.2194 C767.39,313.5594 756.15,327.6694 743,336.6094 C733.35,343.1694 727.31,337.5794 718,344.6094 C659.74,388.5594 628.9121,466.5296 615.3621,509.2996 " fill="none" id="RA2-to-ExcelRA2" style="stroke:#181818;stroke-width:1;"/><polygon fill="#181818" points="613.55,515.0194,620.0814,507.6477,615.0601,510.2529,612.4549,505.2316,613.55,515.0194" style="stroke:#181818;stroke-width:1;"/><text fill="#000000" font-family="sans-serif" font-size="13" lengthAdjust="spacing" textLength="75.8672" x="719" y="367.1045">calculs perso</text></g><!--link RA3 to SageMDE--><g id="link_RA3_SageMDE"><path d="M876.23,302.1294 C880.81,322.4994 887.86,356.7294 891,386.6094 C892.77,403.4744 893.9113,421.4256 894.6259,438.9072 C894.7153,441.0924 894.7979,443.2702 894.8743,445.4377 C894.8839,445.7087 894.686,439.983 894.6954,440.2536 " fill="none" id="RA3-to-SageMDE" style="stroke:#181818;stroke-width:1;"/><polygon fill="#181818" points="894.9027,446.25,898.5894,437.1172,894.73,441.253,890.5941,437.3936,894.9027,446.25" style="stroke:#181818;stroke-width:1;"/><text fill="#000000" font-family="sans-serif" font-size="13" lengthAdjust="spacing" textLength="46.96" x="891" y="367.1045">via VPN</text></g><!--link RA4 to SageMDE--><g id="link_RA4_SageMDE"><path d="M960.71,302.1894 C962.79,323.2094 962.66,357.6994 944,378.6094 C934.81,388.9094 923.06,376.1994 914,386.6094 C908.395,393.0519 904.3981,405.7106 901.5573,421.1359 C900.137,428.8486 899.6247,431.2849 898.7258,439.9496 " fill="none" id="RA4-to-SageMDE" style="stroke:#181818;stroke-width:1;"/><polygon fill="#181818" points="898.1067,445.9176,903.014,437.3784,898.6227,440.9443,895.0567,436.5529,898.1067,445.9176" style="stroke:#181818;stroke-width:1;"/><text fill="#000000" font-family="sans-serif" font-size="13" lengthAdjust="spacing" textLength="46.96" x="959" y="367.1045">via VPN</text></g><!--link Marie to SageMDE--><g id="link_Marie_SageMDE"><path d="M808.64,135.7294 C818.2,145.0494 830.11,154.4694 843,159.6094 C891.95,179.1294 1029.06,154.1294 1080,167.6094 C1118.82,177.8794 1134.51,178.5794 1160,209.6094 C1199.72,257.9594 1191.02,282.6794 1200,344.6094 C1202.17,359.5594 1210.53,367.7794 1200,378.6094 C1177.84,401.3994 937.51,365.2094 914,386.6094 C907.685,392.3569 903.3275,404.6625 900.3466,419.9503 C898.8561,427.5942 897.7098,435.9837 896.835,444.6717 C896.7803,445.2147 897.3025,439.7865 897.25,440.3318 " fill="none" id="Marie-to-SageMDE" style="stroke:#181818;stroke-width:1;stroke-dasharray:7.0,7.0;"/><polygon fill="#181818" points="896.6741,446.3041,901.5194,437.7295,897.154,441.3272,893.5564,436.9617,896.6741,446.3041" style="stroke:#181818;stroke-width:1;"/><text fill="#000000" font-family="sans-serif" font-size="13" lengthAdjust="spacing" textLength="69.3799" x="1199" y="280.6045">consultation</text><text fill="#000000" font-family="sans-serif" font-size="13" lengthAdjust="spacing" textLength="52.7363" x="1207.3218" y="296.9561">(si dispo)</text></g><!--link Marie to Laurent--><g id="link_Marie_Laurent"><path d="M762.19,135.7294 C752.74,144.6994 741.21,153.8794 729,159.6094 C707.83,169.5394 699.84,162.5894 677,167.6094 C611.05,182.1094 586,170.4394 531,209.6094 C514.58,221.3094 504.5625,234.7961 495.8125,250.2761 " fill="none" id="Marie-to-Laurent" style="stroke:#181818;stroke-width:1;stroke-dasharray:7.0,7.0;"/><polygon fill="#181818" points="492.86,255.4994,500.7709,249.6327,495.3204,251.1466,493.8065,245.6961,492.86,255.4994" style="stroke:#181818;stroke-width:1;"/><text fill="#000000" font-family="sans-serif" font-size="13" lengthAdjust="spacing" textLength="99.7217" x="678" y="182.1045">demande chiffres</text><text fill="#000000" font-family="sans-serif" font-size="13" lengthAdjust="spacing" textLength="40.2505" x="707.7356" y="198.4561">&#226;&#65533;&#176; 3h</text></g><!--link Marie to RA2--><g id="link_Marie_RA2"><path d="M786,135.7594 C786,171.2094 786,226.9594 786,257.6694 " fill="none" id="Marie-to-RA2" style="stroke:#181818;stroke-width:1;stroke-dasharray:7.0,7.0;"/><polygon fill="#181818" points="786,263.6694,790,254.6694,786,258.6694,782,254.6694,786,263.6694" style="stroke:#181818;stroke-width:1;"/><text fill="#000000" font-family="sans-serif" font-size="13" lengthAdjust="spacing" textLength="99.7217" x="787" y="190.1045">demande chiffres</text></g><!--link Thomas to WordPPSPS--><g id="link_Thomas_WordPPSPS"><path d="M640.44,114.1094 C573.28,124.5694 424.44,152.6594 312,209.6094 C225.62,253.3594 193.9,263.5094 141,344.6094 C105.97,398.3194 95.4938,468.9114 92.0538,508.9314 " fill="none" id="Thomas-to-WordPPSPS" style="stroke:#181818;stroke-width:1;"/><polygon fill="#181818" points="91.54,514.9094,96.2961,506.285,91.9682,509.9277,88.3255,505.5999,91.54,514.9094" style="stroke:#181818;stroke-width:1;"/><text fill="#000000" font-family="sans-serif" font-size="13" lengthAdjust="spacing" textLength="50.5781" x="345.865" y="280.6045">relecture</text><text fill="#000000" font-family="sans-serif" font-size="13" lengthAdjust="spacing" textLength="116.3081" x="313" y="296.9561">commentaires Word</text></g><!--link Thomas to Email--><g id="link_Thomas_Email"><path d="M697.02,135.8694 C705.82,145.0994 716.85,154.4094 729,159.6094 C762.95,174.1494 858.91,159.7494 895,167.6094 C944.11,178.2994 964.08,174.4494 1000,209.6094 C1058.86,267.2094 1006.9,333.7994 1076,378.6094 C1087.96,386.3594 1189.9,384.5294 1204,386.6094 C1448.07,422.5494 1729.0909,501.4364 1826.1709,529.8064 " fill="none" id="Thomas-to-Email" style="stroke:#181818;stroke-width:1;stroke-dasharray:7.0,7.0;"/><polygon fill="#181818" points="1831.93,531.4894,1824.4133,525.1255,1827.1307,530.0869,1822.1693,532.8043,1831.93,531.4894" style="stroke:#181818;stroke-width:1;"/><text fill="#000000" font-family="sans-serif" font-size="13" lengthAdjust="spacing" textLength="96.8462" x="1041" y="288.6045">echange PPSPS</text></g><!--link Email to Client1--><g id="link_Email_Client1"><path d="M1831.74,548.3994 C1762.71,558.5894 1602.43,584.9194 1473,626.6094 C1426.31,641.6494 1411.08,641.4594 1372,671.1094 C1355.03,683.9894 1343.453,698.384 1333.793,712.534 " fill="none" id="Email-to-Client1" style="stroke:#181818;stroke-width:1;stroke-dasharray:7.0,7.0;"/><polygon fill="#181818" points="1330.41,717.4894,1338.788,712.3116,1333.2291,713.3599,1332.1809,707.801,1330.41,717.4894" style="stroke:#181818;stroke-width:1;"/><text fill="#000000" font-family="sans-serif" font-size="13" lengthAdjust="spacing" textLength="65.0381" x="1474" y="641.1045">envoi devis</text></g><!--link Client1 to Email--><g id="link_Client1_Email"><path d="M1312.52,717.3194 C1305.34,693.4394 1297.41,651.7194 1319,626.6094 C1385.92,548.7694 1716.44,543.0362 1825.69,543.2762 " fill="none" id="Client1-to-Email" style="stroke:#181818;stroke-width:1;stroke-dasharray:7.0,7.0;"/><polygon fill="#181818" points="1831.69,543.2894,1822.6988,539.2696,1826.69,543.2784,1822.6812,547.2696,1831.69,543.2894" style="stroke:#181818;stroke-width:1;"/><text fill="#000000" font-family="sans-serif" font-size="13" lengthAdjust="spacing" textLength="88.1689" x="1320" y="641.1045">demande devis</text></g><!--link Email to Client2--><g id="link_Email_Client2"><path d="M1861.46,570.1894 C1855.95,593.7594 1844.19,627.0894 1820,644.6094 C1733.45,707.3094 1674.72,619.7494 1581,671.1094 C1561.83,681.6194 1550.1077,697.2035 1541.2977,712.3435 " fill="none" id="Email-to-Client2" style="stroke:#181818;stroke-width:1;stroke-dasharray:7.0,7.0;"/><polygon fill="#181818" points="1538.28,717.5294,1546.2638,711.7623,1540.7947,713.2078,1539.3493,707.7387,1538.28,717.5294" style="stroke:#181818;stroke-width:1;"/><text fill="#000000" font-family="sans-serif" font-size="13" lengthAdjust="spacing" textLength="65.0381" x="1837" y="641.1045">envoi devis</text></g><!--link Client2 to Email--><g id="link_Client2_Email"><path d="M1539.31,717.4494 C1548.48,702.8994 1563.17,682.9994 1581,671.1094 C1616.05,647.7494 1632.91,660.2994 1672,644.6094 C1730.14,621.2694 1788.7422,589.0738 1826.7422,566.9938 " fill="none" id="Client2-to-Email" style="stroke:#181818;stroke-width:1;stroke-dasharray:7.0,7.0;"/><polygon fill="#181818" points="1831.93,563.9794,1822.1387,565.0424,1827.6068,566.4914,1826.1579,571.9595,1831.93,563.9794" style="stroke:#181818;stroke-width:1;"/><text fill="#000000" font-family="sans-serif" font-size="13" lengthAdjust="spacing" textLength="88.1689" x="1711" y="641.1045">demande devis</text></g><!--link Email to Client3--><g id="link_Email_Client3"><path d="M1831.99,553.4894 C1742.8,579.5794 1506.95,649.7694 1477,671.1094 C1459.53,683.5594 1447.875,698.1749 1438.335,712.5049 " fill="none" id="Email-to-Client3" style="stroke:#181818;stroke-width:1;stroke-dasharray:7.0,7.0;"/><polygon fill="#181818" points="1435.01,717.4994,1443.3271,712.2244,1437.7808,713.3373,1436.6678,707.7911,1435.01,717.4994" style="stroke:#181818;stroke-width:1;"/><text fill="#000000" font-family="sans-serif" font-size="13" lengthAdjust="spacing" textLength="65.0381" x="1588" y="641.1045">envoi devis</text></g><!--link GMN43 to GMN66--><g id="link_GMN43_GMN66"><path d="M1687,758.1294 C1687,782.1794 1687,823.5794 1687,861.5594 " fill="none" id="GMN43-GMN66" style="stroke:#181818;stroke-width:1;stroke-dasharray:7.0,7.0;"/></g><!--SRC=[XLRTQkD65BxNKnmIsdMoE95_o2Q-M91jcGrr4YDxjuLwCHDvR0-HPbnf51BAGXza2sqfzB9xqOkzAGKlUzMtw0lq5NfcHf8bEQO9WUYSxypCEUSxFvB9W49FX6l1APVGPsGPaH3gu4J-YadgooIYC7wC9GqfEBt9QtU8g0WLJF2wirWG_8WjAxvZV4sKhP-TDfQFUBY24huCg6MjYNz7bXGEF1eZ92Qt0OqXEmDgxQC3E1mCtBRRWEyjW6-716_dSiez1nflWSIGIXIiUzPhA13gcbhdESsAl9NAMnLvEvMtSpagk93uMhPSIH2Bx2AK0tpwyFdZFp_ykFa39X6v9om05WjqgAAZuJeW4XrPqoWMdDCWha3S1vy6HeqQokVwKkjT8JHvRE5BwBeO3_Tiq1eCJ3okICJeb1jCn7og_T1IEEpt7RlVLx39IeGadlAkg_Nc4mulpWVTY_DTLxLzvQLEuYUSmZsBsIqBa0WmyGpabt__-dFp0LehM8iaWeG34cMnYEW-ZpBo3EcI-8ywmptyqHxDYIIt95OeXRtgkwUkDvhosisjYh2ao0XykbAYJfdQ-ADDLJZ4F466zIa-ysr9b76gB1qGHMUYegiKxtP3aLwKUlhvvyrFdtxVV4IFuVYuvmoTgyk9-_gRusCDg4FBhhTjp3U9WFeHuQdupUWQdaEFOOeU8CXOL8TBBccq83xLDHBG1veg9XHzpQY5rHDZr8DSoK8g4Xa3nlYx14-Bzt97-4ce053hhOY8JJaDBjmpGv-lHJIVyYrFHwFnQAmfeZJwIndqNzZs5cwYcu7qLn6aAJtb8yNfh6WqMYk6Uw5Oh5jOMhaPiAy2W2Z4aaYYQ_XVqxQVmu8Xrr2XBJEKiZphddNpRDuAAKMeqfb1AkJ6NBvoRiOmkEozkdIzSPxFqYNQtrHnBS9GXPXnNwoeyh6ZDG07Ecop1UCacDqtPpTVpPfsitKo5_x3GHdJ2nWQpfpP6y-vd0qkhvrX0LQ74Jernvh3kv6XZ2zJULvoDeICAmYMFxu2__On0Jjwc73cQwuh5jZgrx3W9f6147TJxeR8DvC4zP_I8NDF3M-rN14vhRadeelQIc2Vh8T2XtoAoGRmz_lDhp28abYQ-eI6VTgmA-xvWKZcw9oEOwnwewr-ZLj62ev-kFbe5EJTWhnPaFSAyjPkGzWUb3doVlCRTfoGSCp3N5S3JQEtROwEbEhTxVFwY-QguiGpy6YWVTnEinhEf7M4v69h4XnPcRXUVvctlWxsOg92FkKcogScmaNijeexs67MZDPz4GGuC5IpnfnetOw5AUaEoAmlb11f6UE19F2J81rk9KXUY9qjCTKh5LjpuCd9Iqsd3iGYqUEY50cIIBK2U8wbUi6JZkUQl6LK7wK6_JxJzXvDwHLc4ffvgXwyXVkeJWAfSJYUOWPpXZlCKG6SUTf1MXXwf8CHkzTsQXOCZ0jLSFb5PdPRwGYl9Zd2kQ4tj2dsfL2rVhD9wSwLsgYRT7qZ7hE3gnXDYL2wA2qgoq2LKKfzPSRl1JDatz4t_qVVgkYpKulFcXVBoShEtO-m2eq8g-luUEJTT8VkbJi6nyEMFd5nJ_LStTOBovStIdSGm4n6f1xeqYjMqv5LNkYUcifGAuxtiiLs05EijpKBr7vRAqsLia7QylFIKtM0MPCCssDSGk90Hnbo1WZ4QiUCn5gbMXV3xfdF6EuQoxINncO3U-hcme8tppRFCavJhM7RNm2c8C7rjTPQbPtmigBF_KX7bPNtlVy0]--></g></svg>