<svg xmlns="http://www.w3.org/2000/svg" xmlns:xlink="http://www.w3.org/1999/xlink" contentStyleType="text/css" height="2178px" preserveAspectRatio="none" style="width:694px;height:2178px;background:#FFFFFF;" version="1.1" viewBox="0 0 694 2178" width="694px" zoomAndPan="magnify"><title>Processus Creation Devis - ETAT ACTUEL (ERP Legacy MDE)</title><defs/><g><text fill="#000000" font-family="sans-serif" font-size="14" font-weight="bold" lengthAdjust="spacing" textLength="411.5371" x="137.5879" y="29.5332">Processus Creation Devis - ETAT ACTUEL (ERP Legacy MDE)</text><rect fill="none" height="306.2188" style="stroke:#000000;stroke-width:1.5;" width="407.9941" x="10" y="936.9688"/><line style="stroke:#181818;stroke-width:0.5;stroke-dasharray:5.0,5.0;" x1="68" x2="68" y1="138.8281" y2="2078.4922"/><line style="stroke:#181818;stroke-width:0.5;stroke-dasharray:5.0,5.0;" x1="234.1807" x2="234.1807" y1="138.8281" y2="2078.4922"/><line style="stroke:#181818;stroke-width:0.5;stroke-dasharray:5.0,5.0;" x1="314.877" x2="314.877" y1="138.8281" y2="2078.4922"/><line style="stroke:#181818;stroke-width:0.5;stroke-dasharray:5.0,5.0;" x1="389.2217" x2="389.2217" y1="138.8281" y2="2078.4922"/><line style="stroke:#181818;stroke-width:0.5;stroke-dasharray:5.0,5.0;" x1="465.2559" x2="465.2559" y1="138.8281" y2="2078.4922"/><line style="stroke:#181818;stroke-width:0.5;stroke-dasharray:5.0,5.0;" x1="526.5039" x2="526.5039" y1="138.8281" y2="2078.4922"/><text fill="#000000" font-family="sans-serif" font-size="14" lengthAdjust="spacing" textLength="47.4824" x="41.3828" y="118.1426">Laurent</text><text fill="#000000" font-family="sans-serif" font-size="14" lengthAdjust="spacing" textLength="90.248" x="20" y="135.752">(Resp. Affaire)</text><ellipse cx="68.124" cy="52.1094" fill="#FFB6C1" rx="8" ry="8" style="stroke:#181818;stroke-width:0.5;"/><path d="M68.124,60.1094 L68.124,87.1094 M55.124,68.1094 L81.124,68.1094 M68.124,87.1094 L55.124,102.1094 M68.124,87.1094 L81.124,102.1094 " fill="none" style="stroke:#181818;stroke-width:0.5;"/><text fill="#000000" font-family="sans-serif" font-size="14" lengthAdjust="spacing" textLength="47.4824" x="41.3828" y="2092.0254">Laurent</text><text fill="#000000" font-family="sans-serif" font-size="14" lengthAdjust="spacing" textLength="90.248" x="20" y="2109.6348">(Resp. Affaire)</text><ellipse cx="68.124" cy="2121.2109" fill="#FFB6C1" rx="8" ry="8" style="stroke:#181818;stroke-width:0.5;"/><path d="M68.124,2129.2109 L68.124,2156.2109 M55.124,2137.2109 L81.124,2137.2109 M68.124,2156.2109 L55.124,2171.2109 M68.124,2156.2109 L81.124,2171.2109 " fill="none" style="stroke:#181818;stroke-width:0.5;"/><rect fill="#FF6B6B" height="31.6094" rx="2.5" ry="2.5" style="stroke:#181818;stroke-width:0.5;" width="81.6963" x="194.1807" y="106.2188"/><text fill="#000000" font-family="sans-serif" font-size="14" lengthAdjust="spacing" textLength="67.6963" x="201.1807" y="127.752">MDE/Sage</text><rect fill="#FF6B6B" height="31.6094" rx="2.5" ry="2.5" style="stroke:#181818;stroke-width:0.5;" width="81.6963" x="194.1807" y="2077.4922"/><text fill="#000000" font-family="sans-serif" font-size="14" lengthAdjust="spacing" textLength="67.6963" x="201.1807" y="2099.0254">MDE/Sage</text><rect fill="#FFD700" height="49.2188" rx="2.5" ry="2.5" style="stroke:#181818;stroke-width:0.5;" width="58.3447" x="285.877" y="88.6094"/><text fill="#000000" font-family="sans-serif" font-size="14" lengthAdjust="spacing" textLength="34.2344" x="297.9321" y="110.1426">Excel</text><text fill="#000000" font-family="sans-serif" font-size="14" lengthAdjust="spacing" textLength="44.3447" x="292.877" y="127.752">(perso)</text><rect fill="#FFD700" height="49.2188" rx="2.5" ry="2.5" style="stroke:#181818;stroke-width:0.5;" width="58.3447" x="285.877" y="2077.4922"/><text fill="#000000" font-family="sans-serif" font-size="14" lengthAdjust="spacing" textLength="34.2344" x="297.9321" y="2099.0254">Excel</text><text fill="#000000" font-family="sans-serif" font-size="14" lengthAdjust="spacing" textLength="44.3447" x="292.877" y="2116.6348">(perso)</text><rect fill="#E2E2F0" height="49.2188" rx="2.5" ry="2.5" style="stroke:#181818;stroke-width:0.5;" width="70.0342" x="354.2217" y="88.6094"/><text fill="#000000" font-family="sans-serif" font-size="14" lengthAdjust="spacing" textLength="54.4551" x="362.0112" y="110.1426">Dossiers</text><text fill="#000000" font-family="sans-serif" font-size="14" lengthAdjust="spacing" textLength="56.0342" x="361.2217" y="127.752">Partages</text><rect fill="#E2E2F0" height="49.2188" rx="2.5" ry="2.5" style="stroke:#181818;stroke-width:0.5;" width="70.0342" x="354.2217" y="2077.4922"/><text fill="#000000" font-family="sans-serif" font-size="14" lengthAdjust="spacing" textLength="54.4551" x="362.0112" y="2099.0254">Dossiers</text><text fill="#000000" font-family="sans-serif" font-size="14" lengthAdjust="spacing" textLength="56.0342" x="361.2217" y="2116.6348">Partages</text><rect fill="#E2E2F0" height="31.6094" rx="2.5" ry="2.5" style="stroke:#181818;stroke-width:0.5;" width="62.248" x="434.2559" y="106.2188"/><text fill="#000000" font-family="sans-serif" font-size="14" lengthAdjust="spacing" textLength="48.248" x="441.2559" y="127.752">Outlook</text><rect fill="#E2E2F0" height="31.6094" rx="2.5" ry="2.5" style="stroke:#181818;stroke-width:0.5;" width="62.248" x="434.2559" y="2077.4922"/><text fill="#000000" font-family="sans-serif" font-size="14" lengthAdjust="spacing" textLength="48.248" x="441.2559" y="2099.0254">Outlook</text><text fill="#000000" font-family="sans-serif" font-size="14" lengthAdjust="spacing" textLength="35.793" x="506.5039" y="135.752">Client</text><ellipse cx="527.4004" cy="69.7188" fill="#ADD8E6" rx="8" ry="8" style="stroke:#181818;stroke-width:0.5;"/><path d="M527.4004,77.7188 L527.4004,104.7188 M514.4004,85.7188 L540.4004,85.7188 M527.4004,104.7188 L514.4004,119.7188 M527.4004,104.7188 L540.4004,119.7188 " fill="none" style="stroke:#181818;stroke-width:0.5;"/><text fill="#000000" font-family="sans-serif" font-size="14" lengthAdjust="spacing" textLength="35.793" x="506.5039" y="2092.0254">Client</text><ellipse cx="527.4004" cy="2103.6016" fill="#ADD8E6" rx="8" ry="8" style="stroke:#181818;stroke-width:0.5;"/><path d="M527.4004,2111.6016 L527.4004,2138.6016 M514.4004,2119.6016 L540.4004,2119.6016 M527.4004,2138.6016 L514.4004,2153.6016 M527.4004,2138.6016 L540.4004,2153.6016 " fill="none" style="stroke:#181818;stroke-width:0.5;"/><rect fill="#EEEEEE" height="3" style="stroke:#EEEEEE;stroke-width:1;" width="687.7129" x="0" y="170.0039"/><line style="stroke:#000000;stroke-width:1;" x1="0" x2="687.7129" y1="170.0039" y2="170.0039"/><line style="stroke:#000000;stroke-width:1;" x1="0" x2="687.7129" y1="173.0039" y2="173.0039"/><rect fill="#EEEEEE" height="24.3516" style="stroke:#000000;stroke-width:2;" width="144.7427" x="271.4851" y="158.8281"/><text fill="#000000" font-family="sans-serif" font-size="13" font-weight="bold" lengthAdjust="spacing" textLength="127.1309" x="277.4851" y="176.3232">JOUR 1 - Lundi 9h00</text><polygon fill="#181818" points="79.124,222.707,69.124,226.707,79.124,230.707,75.124,226.707" style="stroke:#181818;stroke-width:1;"/><line style="stroke:#181818;stroke-width:1;" x1="73.124" x2="526.4004" y1="226.707" y2="226.707"/><text fill="#000000" font-family="sans-serif" font-size="13" lengthAdjust="spacing" textLength="124.2871" x="85.124" y="221.8506">Email demande devis</text><path d="M532,198.1797 L532,240.1797 L677,240.1797 L677,208.1797 L667,198.1797 L532,198.1797 " fill="#ADD8E6" style="stroke:#181818;stroke-width:0.5;"/><path d="M667,198.1797 L667,208.1797 L677,208.1797 L667,198.1797 " fill="#ADD8E6" style="stroke:#181818;stroke-width:0.5;"/><text fill="#000000" font-family="sans-serif" font-size="13" lengthAdjust="spacing" textLength="116.3398" x="538" y="216.6748">Specifications projet</text><text fill="#000000" font-family="sans-serif" font-size="13" lengthAdjust="spacing" textLength="124.3125" x="538" y="233.0264">Delai: 48-72h attendu</text><line style="stroke:#181818;stroke-width:1;" x1="68.124" x2="110.124" y1="268.2344" y2="268.2344"/><line style="stroke:#181818;stroke-width:1;" x1="110.124" x2="110.124" y1="268.2344" y2="281.2344"/><line style="stroke:#181818;stroke-width:1;" x1="69.124" x2="110.124" y1="281.2344" y2="281.2344"/><polygon fill="#181818" points="79.124,277.2344,69.124,281.2344,79.124,285.2344,75.124,281.2344" style="stroke:#181818;stroke-width:1;"/><text fill="#000000" font-family="sans-serif" font-size="13" lengthAdjust="spacing" textLength="129.3271" x="75.124" y="263.3779">Lecture email (15 min)</text><path d="M216.3271,254.3828 L216.3271,280.3828 L370.3271,280.3828 L370.3271,264.3828 L360.3271,254.3828 L216.3271,254.3828 " fill="#FFD700" style="stroke:#181818;stroke-width:0.5;"/><path d="M360.3271,254.3828 L360.3271,264.3828 L370.3271,264.3828 L360.3271,254.3828 " fill="#FFD700" style="stroke:#181818;stroke-width:0.5;"/><text fill="#000000" font-family="sans-serif" font-size="13" lengthAdjust="spacing" textLength="133.3135" x="222.3271" y="272.8779">&#226;&#353;&#160;&#239;&#184;&#65533; Infos eparpillees</text><polygon fill="#181818" points="377.2388,343.2891,387.2388,347.2891,377.2388,351.2891,381.2388,347.2891" style="stroke:#181818;stroke-width:1;"/><line style="stroke:#181818;stroke-width:1;" x1="68.124" x2="383.2388" y1="347.2891" y2="347.2891"/><text fill="#000000" font-family="sans-serif" font-size="13" lengthAdjust="spacing" textLength="190.0298" x="75.124" y="342.4326">Recherche ancien devis similaire</text><path d="M394,294.2344 L394,385.2344 L587,385.2344 L587,304.2344 L577,294.2344 L394,294.2344 " fill="#FF6B6B" style="stroke:#181818;stroke-width:0.5;"/><path d="M577,294.2344 L577,304.2344 L587,304.2344 L577,294.2344 " fill="#FF6B6B" style="stroke:#181818;stroke-width:0.5;"/><text fill="#000000" font-family="sans-serif" font-size="13" lengthAdjust="spacing" textLength="10.8354" x="400" y="312.7295">[!]</text><text fill="#000000" font-family="sans-serif" font-size="13" font-weight="bold" lengthAdjust="spacing" textLength="158.1709" x="414.4473" y="312.7295">RECHERCHE MANUELLE</text><text fill="#000000" font-family="sans-serif" font-size="13" lengthAdjust="spacing" textLength="98.2554" x="400" y="329.0811">- Fouille dossiers</text><text fill="#000000" font-family="sans-serif" font-size="13" lengthAdjust="spacing" textLength="82.0117" x="400" y="345.4326">- 200+ fichiers</text><text fill="#000000" font-family="sans-serif" font-size="13" lengthAdjust="spacing" textLength="163.3252" x="400" y="361.7842">- Pas de base connaissance</text><text fill="#000000" font-family="sans-serif" font-size="13" lengthAdjust="spacing" textLength="131.498" x="400" y="378.1357">[TIME] 30 min perdues</text><polygon fill="#181818" points="79.124,409.3438,69.124,413.3438,79.124,417.3438,75.124,413.3438" style="stroke:#181818;stroke-width:1;"/><line style="stroke:#181818;stroke-width:1;stroke-dasharray:2.0,2.0;" x1="73.124" x2="388.2388" y1="413.3438" y2="413.3438"/><text fill="#000000" font-family="sans-serif" font-size="13" lengthAdjust="spacing" textLength="125.7026" x="85.124" y="408.4873">Trouve devis similaire</text><polygon fill="#181818" points="303.0493,450.8711,313.0493,454.8711,303.0493,458.8711,307.0493,454.8711" style="stroke:#181818;stroke-width:1;"/><line style="stroke:#181818;stroke-width:1;" x1="68.124" x2="309.0493" y1="454.8711" y2="454.8711"/><text fill="#000000" font-family="sans-serif" font-size="13" lengthAdjust="spacing" textLength="106.228" x="75.124" y="450.0146">Copie lignes types</text><path d="M320,426.3438 L320,468.3438 L465,468.3438 L465,436.3438 L455,426.3438 L320,426.3438 " fill="#FFD700" style="stroke:#181818;stroke-width:0.5;"/><path d="M455,426.3438 L455,436.3438 L465,436.3438 L455,426.3438 " fill="#FFD700" style="stroke:#181818;stroke-width:0.5;"/><text fill="#000000" font-family="sans-serif" font-size="13" lengthAdjust="spacing" textLength="92.498" x="326" y="444.8389">Excel personnel</text><text fill="#000000" font-family="sans-serif" font-size="13" lengthAdjust="spacing" textLength="124.2808" x="326" y="461.1904">Templates artisanaux</text><rect fill="#EEEEEE" height="3" style="stroke:#EEEEEE;stroke-width:1;" width="687.7129" x="0" y="495.2227"/><line style="stroke:#000000;stroke-width:1;" x1="0" x2="687.7129" y1="495.2227" y2="495.2227"/><line style="stroke:#000000;stroke-width:1;" x1="0" x2="687.7129" y1="498.2227" y2="498.2227"/><rect fill="#EEEEEE" height="24.3516" style="stroke:#000000;stroke-width:2;" width="153.4263" x="267.1433" y="484.0469"/><text fill="#000000" font-family="sans-serif" font-size="13" font-weight="bold" lengthAdjust="spacing" textLength="135.8145" x="273.1433" y="501.542">9h50 - Ouverture MDE</text><polygon fill="#181818" points="223.0288,547.9258,233.0288,551.9258,223.0288,555.9258,227.0288,551.9258" style="stroke:#181818;stroke-width:1;"/><line style="stroke:#181818;stroke-width:1;" x1="68.124" x2="229.0288" y1="551.9258" y2="551.9258"/><text fill="#000000" font-family="sans-serif" font-size="13" lengthAdjust="spacing" textLength="90.3018" x="75.124" y="547.0693">Ouverture MDE</text><path d="M240,523.3984 L240,565.3984 L417,565.3984 L417,533.3984 L407,523.3984 L240,523.3984 " fill="#FF6B6B" style="stroke:#181818;stroke-width:0.5;"/><path d="M407,523.3984 L407,533.3984 L417,533.3984 L407,523.3984 " fill="#FF6B6B" style="stroke:#181818;stroke-width:0.5;"/><text fill="#000000" font-family="sans-serif" font-size="13" lengthAdjust="spacing" textLength="10.8354" x="246" y="541.8936">[!]</text><text fill="#000000" font-family="sans-serif" font-size="13" font-weight="bold" lengthAdjust="spacing" textLength="141.5591" x="260.4473" y="541.8936">TEMPS CHARGEMENT</text><text fill="#000000" font-family="sans-serif" font-size="13" lengthAdjust="spacing" textLength="115.6099" x="246" y="558.2451">[TIME] 15 secondes</text><polygon fill="#181818" points="223.0288,589.4531,233.0288,593.4531,223.0288,597.4531,227.0288,593.4531" style="stroke:#181818;stroke-width:1;"/><line style="stroke:#181818;stroke-width:1;" x1="68.124" x2="229.0288" y1="593.4531" y2="593.4531"/><text fill="#000000" font-family="sans-serif" font-size="13" lengthAdjust="spacing" textLength="31.8081" x="75.124" y="588.5967">Login</text><polygon fill="#181818" points="79.124,622.8047,69.124,626.8047,79.124,630.8047,75.124,626.8047" style="stroke:#181818;stroke-width:1;"/><line style="stroke:#181818;stroke-width:1;stroke-dasharray:2.0,2.0;" x1="73.124" x2="234.0288" y1="626.8047" y2="626.8047"/><text fill="#000000" font-family="sans-serif" font-size="13" lengthAdjust="spacing" textLength="111.2681" x="85.124" y="621.9482">Ecran accueil (30s)</text><path d="M240,606.4531 L240,632.4531 L327,632.4531 L327,616.4531 L317,606.4531 L240,606.4531 " fill="#FF6B6B" style="stroke:#181818;stroke-width:0.5;"/><path d="M317,606.4531 L317,616.4531 L327,616.4531 L317,606.4531 " fill="#FF6B6B" style="stroke:#181818;stroke-width:0.5;"/><text fill="#000000" font-family="sans-serif" font-size="13" lengthAdjust="spacing" textLength="66.479" x="246" y="624.9482">[!] Attente...</text><polygon fill="#181818" points="223.0288,656.1563,233.0288,660.1563,223.0288,664.1563,227.0288,660.1563" style="stroke:#181818;stroke-width:1;"/><line style="stroke:#181818;stroke-width:1;" x1="68.124" x2="229.0288" y1="660.1563" y2="660.1563"/><text fill="#000000" font-family="sans-serif" font-size="13" lengthAdjust="spacing" textLength="142.9048" x="75.124" y="655.2998">Navigation menu "Devis"</text><polygon fill="#181818" points="79.124,697.6836,69.124,701.6836,79.124,705.6836,75.124,701.6836" style="stroke:#181818;stroke-width:1;"/><line style="stroke:#181818;stroke-width:1;stroke-dasharray:2.0,2.0;" x1="73.124" x2="234.0288" y1="701.6836" y2="701.6836"/><text fill="#000000" font-family="sans-serif" font-size="13" lengthAdjust="spacing" textLength="109.8271" x="85.124" y="696.8271">Module devis (40s)</text><path d="M240,673.1563 L240,715.1563 L471,715.1563 L471,683.1563 L461,673.1563 L240,673.1563 " fill="#FF6B6B" style="stroke:#181818;stroke-width:0.5;"/><path d="M461,673.1563 L461,683.1563 L471,683.1563 L461,673.1563 " fill="#FF6B6B" style="stroke:#181818;stroke-width:0.5;"/><text fill="#000000" font-family="sans-serif" font-size="13" lengthAdjust="spacing" textLength="109.8398" x="246" y="691.6514">[!] Encore attente...</text><text fill="#000000" font-family="sans-serif" font-size="13" lengthAdjust="spacing" textLength="210.2344" x="246" y="708.0029">[TIME] Total 5 min juste pour ouvrir !</text><polygon fill="#181818" points="223.0288,739.2109,233.0288,743.2109,223.0288,747.2109,227.0288,743.2109" style="stroke:#181818;stroke-width:1;"/><line style="stroke:#181818;stroke-width:1;" x1="68.124" x2="229.0288" y1="743.2109" y2="743.2109"/><text fill="#000000" font-family="sans-serif" font-size="13" lengthAdjust="spacing" textLength="96.8271" x="75.124" y="738.3545">Recherche client</text><polygon fill="#181818" points="79.124,769.5625,69.124,773.5625,79.124,777.5625,75.124,773.5625" style="stroke:#181818;stroke-width:1;"/><line style="stroke:#181818;stroke-width:1;stroke-dasharray:2.0,2.0;" x1="73.124" x2="234.0288" y1="773.5625" y2="773.5625"/><text fill="#000000" font-family="sans-serif" font-size="13" lengthAdjust="spacing" textLength="101.1499" x="85.124" y="768.7061">Liste clients (30s)</text><line style="stroke:#181818;stroke-width:1;" x1="68.124" x2="110.124" y1="803.9141" y2="803.9141"/><line style="stroke:#181818;stroke-width:1;" x1="110.124" x2="110.124" y1="803.9141" y2="816.9141"/><line style="stroke:#181818;stroke-width:1;" x1="69.124" x2="110.124" y1="816.9141" y2="816.9141"/><polygon fill="#181818" points="79.124,812.9141,69.124,816.9141,79.124,820.9141,75.124,816.9141" style="stroke:#181818;stroke-width:1;"/><text fill="#000000" font-family="sans-serif" font-size="13" lengthAdjust="spacing" textLength="149.189" x="75.124" y="799.0576">Scroll + recherche (2 min)</text><polygon fill="#181818" points="223.0288,843.2656,233.0288,847.2656,223.0288,851.2656,227.0288,847.2656" style="stroke:#181818;stroke-width:1;"/><line style="stroke:#181818;stroke-width:1;" x1="68.124" x2="229.0288" y1="847.2656" y2="847.2656"/><text fill="#000000" font-family="sans-serif" font-size="13" lengthAdjust="spacing" textLength="85.998" x="75.124" y="842.4092">Nouveau devis</text><polygon fill="#181818" points="79.124,873.6172,69.124,877.6172,79.124,881.6172,75.124,877.6172" style="stroke:#181818;stroke-width:1;"/><line style="stroke:#181818;stroke-width:1;stroke-dasharray:2.0,2.0;" x1="73.124" x2="234.0288" y1="877.6172" y2="877.6172"/><text fill="#000000" font-family="sans-serif" font-size="13" lengthAdjust="spacing" textLength="122.8145" x="85.124" y="872.7607">Formulaire vide (40s)</text><rect fill="#EEEEEE" height="3" style="stroke:#EEEEEE;stroke-width:1;" width="687.7129" x="0" y="906.793"/><line style="stroke:#000000;stroke-width:1;" x1="0" x2="687.7129" y1="906.793" y2="906.793"/><line style="stroke:#000000;stroke-width:1;" x1="0" x2="687.7129" y1="909.793" y2="909.793"/><rect fill="#EEEEEE" height="24.3516" style="stroke:#000000;stroke-width:2;" width="223.5044" x="232.1042" y="895.6172"/><text fill="#000000" font-family="sans-serif" font-size="13" font-weight="bold" lengthAdjust="spacing" textLength="205.8926" x="238.1042" y="913.1123">10h05 - Saisie lignes (CALVAIRE)</text><path d="M10,936.9688 L82.4346,936.9688 L82.4346,945.3203 L72.4346,955.3203 L10,955.3203 L10,936.9688 " fill="#EEEEEE" style="stroke:#000000;stroke-width:1.5;"/><rect fill="none" height="306.2188" style="stroke:#000000;stroke-width:1.5;" width="407.9941" x="10" y="936.9688"/><text fill="#000000" font-family="sans-serif" font-size="13" font-weight="bold" lengthAdjust="spacing" textLength="27.4346" x="25" y="951.4639">loop</text><text fill="#000000" font-family="sans-serif" font-size="11" font-weight="bold" lengthAdjust="spacing" textLength="169.2915" x="97.4346" y="950.3877">[Pour CHAQUE ligne (30 lignes)]</text><polygon fill="#181818" points="223.0288,973.6719,233.0288,977.6719,223.0288,981.6719,227.0288,977.6719" style="stroke:#181818;stroke-width:1;"/><line style="stroke:#181818;stroke-width:1;" x1="68.124" x2="229.0288" y1="977.6719" y2="977.6719"/><text fill="#000000" font-family="sans-serif" font-size="13" lengthAdjust="spacing" textLength="106.7739" x="75.124" y="972.8154">Clic "Ajouter ligne"</text><polygon fill="#181818" points="79.124,1015.1992,69.124,1019.1992,79.124,1023.1992,75.124,1019.1992" style="stroke:#181818;stroke-width:1;"/><line style="stroke:#181818;stroke-width:1;stroke-dasharray:2.0,2.0;" x1="73.124" x2="234.0288" y1="1019.1992" y2="1019.1992"/><text fill="#000000" font-family="sans-serif" font-size="13" lengthAdjust="spacing" textLength="130.8125" x="85.124" y="1014.3428">Popup catalogue (35s)</text><path d="M240,990.6719 L240,1032.6719 L402,1032.6719 L402,1000.6719 L392,990.6719 L240,990.6719 " fill="#FF6B6B" style="stroke:#181818;stroke-width:0.5;"/><path d="M392,990.6719 L392,1000.6719 L402,1000.6719 L392,990.6719 " fill="#FF6B6B" style="stroke:#181818;stroke-width:0.5;"/><text fill="#000000" font-family="sans-serif" font-size="13" lengthAdjust="spacing" textLength="141.248" x="246" y="1009.167">[!] 35 secondes d'attente</text><text fill="#000000" font-family="sans-serif" font-size="13" lengthAdjust="spacing" textLength="64.3145" x="246" y="1025.5186">par ligne !!!</text><polygon fill="#181818" points="223.0288,1067.9023,233.0288,1071.9023,223.0288,1075.9023,227.0288,1071.9023" style="stroke:#181818;stroke-width:1;"/><line style="stroke:#181818;stroke-width:1;" x1="68.124" x2="229.0288" y1="1071.9023" y2="1071.9023"/><text fill="#000000" font-family="sans-serif" font-size="13" lengthAdjust="spacing" textLength="101.1563" x="75.124" y="1067.0459">Recherche article</text><path d="M240,1043.375 L240,1085.375 L396,1085.375 L396,1053.375 L386,1043.375 L240,1043.375 " fill="#FF6B6B" style="stroke:#181818;stroke-width:0.5;"/><path d="M386,1043.375 L386,1053.375 L396,1053.375 L386,1043.375 " fill="#FF6B6B" style="stroke:#181818;stroke-width:0.5;"/><text fill="#000000" font-family="sans-serif" font-size="13" lengthAdjust="spacing" textLength="135.8462" x="246" y="1061.8701">[!] Recherche inefficace</text><text fill="#000000" font-family="sans-serif" font-size="13" lengthAdjust="spacing" textLength="134.3672" x="246" y="1078.2217">[TIME] 2 min par article</text><line style="stroke:#181818;stroke-width:1;" x1="68.124" x2="110.124" y1="1134.457" y2="1134.457"/><line style="stroke:#181818;stroke-width:1;" x1="110.124" x2="110.124" y1="1134.457" y2="1147.457"/><line style="stroke:#181818;stroke-width:1;" x1="69.124" x2="110.124" y1="1147.457" y2="1147.457"/><polygon fill="#181818" points="79.124,1143.457,69.124,1147.457,79.124,1151.457,75.124,1147.457" style="stroke:#181818;stroke-width:1;"/><text fill="#000000" font-family="sans-serif" font-size="13" lengthAdjust="spacing" textLength="111.2871" x="75.124" y="1129.6006">Copie depuis Excel</text><path d="M198.2871,1096.0781 L198.2871,1171.0781 L314.2871,1171.0781 L314.2871,1106.0781 L304.2871,1096.0781 L198.2871,1096.0781 " fill="#FFD700" style="stroke:#181818;stroke-width:0.5;"/><path d="M304.2871,1096.0781 L304.2871,1106.0781 L314.2871,1106.0781 L304.2871,1096.0781 " fill="#FFD700" style="stroke:#181818;stroke-width:0.5;"/><text fill="#000000" font-family="sans-serif" font-size="13" lengthAdjust="spacing" textLength="95.3862" x="204.2871" y="1114.5732">Saisie manuelle:</text><text fill="#000000" font-family="sans-serif" font-size="13" lengthAdjust="spacing" textLength="57.0845" x="204.2871" y="1130.9248">- Quantite</text><text fill="#000000" font-family="sans-serif" font-size="13" lengthAdjust="spacing" textLength="30.3291" x="204.2871" y="1147.2764">- Prix</text><text fill="#000000" font-family="sans-serif" font-size="13" lengthAdjust="spacing" textLength="52.0063" x="204.2871" y="1163.6279">- Remise</text><polygon fill="#181818" points="223.0288,1194.8359,233.0288,1198.8359,223.0288,1202.8359,227.0288,1198.8359" style="stroke:#181818;stroke-width:1;"/><line style="stroke:#181818;stroke-width:1;" x1="68.124" x2="229.0288" y1="1198.8359" y2="1198.8359"/><text fill="#000000" font-family="sans-serif" font-size="13" lengthAdjust="spacing" textLength="101.188" x="75.124" y="1193.9795">Sauvegarde ligne</text><polygon fill="#181818" points="79.124,1228.1875,69.124,1232.1875,79.124,1236.1875,75.124,1232.1875" style="stroke:#181818;stroke-width:1;"/><line style="stroke:#181818;stroke-width:1;stroke-dasharray:2.0,2.0;" x1="73.124" x2="234.0288" y1="1232.1875" y2="1232.1875"/><text fill="#000000" font-family="sans-serif" font-size="13" lengthAdjust="spacing" textLength="78.749" x="85.124" y="1227.3311">Refresh (25s)</text><path d="M240,1211.8359 L240,1237.8359 L402,1237.8359 L402,1221.8359 L392,1211.8359 L240,1211.8359 " fill="#FF6B6B" style="stroke:#181818;stroke-width:0.5;"/><path d="M392,1211.8359 L392,1221.8359 L402,1221.8359 L392,1211.8359 " fill="#FF6B6B" style="stroke:#181818;stroke-width:0.5;"/><text fill="#000000" font-family="sans-serif" font-size="13" lengthAdjust="spacing" textLength="141.9653" x="246" y="1230.3311">[!] 25s d'attente par ligne</text><path d="M26,1255.1875 L26,1330.1875 L276,1330.1875 L276,1265.1875 L266,1255.1875 L26,1255.1875 " fill="#FFAAAA" style="stroke:#181818;stroke-width:0.5;"/><path d="M266,1255.1875 L266,1265.1875 L276,1265.1875 L266,1255.1875 " fill="#FFAAAA" style="stroke:#181818;stroke-width:0.5;"/><text fill="#000000" font-family="sans-serif" font-size="13" lengthAdjust="spacing" textLength="38.2764" x="65.3108" y="1273.6826">[TIME]</text><text fill="#000000" font-family="sans-serif" font-size="13" font-weight="bold" lengthAdjust="spacing" textLength="91.019" x="107.199" y="1273.6826">TEMPS SAISIE</text><text fill="#000000" font-family="sans-serif" font-size="13" lengthAdjust="spacing" textLength="152.8452" x="65.3108" y="1290.0342">30 lignes &#195;&#8212; 5min = 2h30</text><text fill="#000000" font-family="sans-serif" font-size="13" lengthAdjust="spacing" textLength="147.4243" x="65.3108" y="1306.3857">Reduit a 1h30 avec Excel</text><text fill="#000000" font-family="sans-serif" font-size="13" lengthAdjust="spacing" textLength="163.2554" x="65.3108" y="1322.7373">mais TOUJOURS tres long !</text><rect fill="#EEEEEE" height="3" style="stroke:#EEEEEE;stroke-width:1;" width="687.7129" x="0" y="1356.7695"/><line style="stroke:#000000;stroke-width:1;" x1="0" x2="687.7129" y1="1356.7695" y2="1356.7695"/><line style="stroke:#000000;stroke-width:1;" x1="0" x2="687.7129" y1="1359.7695" y2="1359.7695"/><rect fill="#EEEEEE" height="24.3516" style="stroke:#000000;stroke-width:2;" width="144.0508" x="271.8311" y="1345.5938"/><text fill="#000000" font-family="sans-serif" font-size="13" font-weight="bold" lengthAdjust="spacing" textLength="126.439" x="277.8311" y="1363.0889">11h35 - Verifications</text><polygon fill="#181818" points="303.0493,1425.8242,313.0493,1429.8242,303.0493,1433.8242,307.0493,1429.8242" style="stroke:#181818;stroke-width:1;"/><line style="stroke:#181818;stroke-width:1;" x1="68.124" x2="309.0493" y1="1429.8242" y2="1429.8242"/><text fill="#000000" font-family="sans-serif" font-size="13" lengthAdjust="spacing" textLength="70.0781" x="75.124" y="1424.9678">Verif calculs</text><path d="M320,1384.9453 L320,1459.9453 L468,1459.9453 L468,1394.9453 L458,1384.9453 L320,1384.9453 " fill="#FFD700" style="stroke:#181818;stroke-width:0.5;"/><path d="M458,1384.9453 L458,1394.9453 L468,1394.9453 L458,1384.9453 " fill="#FFD700" style="stroke:#181818;stroke-width:0.5;"/><text fill="#000000" font-family="sans-serif" font-size="13" lengthAdjust="spacing" textLength="90.3271" x="326" y="1403.4404">- Marge globale</text><text fill="#000000" font-family="sans-serif" font-size="13" lengthAdjust="spacing" textLength="122.0908" x="326" y="1419.792">- Prix vs concurrence</text><text fill="#000000" font-family="sans-serif" font-size="13" lengthAdjust="spacing" textLength="127.9116" x="326" y="1436.1436">- Coherence quantites</text><text fill="#000000" font-family="sans-serif" font-size="13" lengthAdjust="spacing" textLength="80.9072" x="326" y="1452.4951">[TIME] 10 min</text><polygon fill="#181818" points="223.0288,1486.7031,233.0288,1490.7031,223.0288,1494.7031,227.0288,1490.7031" style="stroke:#181818;stroke-width:1;"/><line style="stroke:#181818;stroke-width:1;" x1="68.124" x2="229.0288" y1="1490.7031" y2="1490.7031"/><text fill="#000000" font-family="sans-serif" font-size="13" lengthAdjust="spacing" textLength="131.5107" x="75.124" y="1485.8467">Ajustements 2-3 lignes</text><path d="M240,1470.3516 L240,1496.3516 L415,1496.3516 L415,1480.3516 L405,1470.3516 L240,1470.3516 " fill="#FF6B6B" style="stroke:#181818;stroke-width:0.5;"/><path d="M405,1470.3516 L405,1480.3516 L415,1480.3516 L405,1470.3516 " fill="#FF6B6B" style="stroke:#181818;stroke-width:0.5;"/><text fill="#000000" font-family="sans-serif" font-size="13" lengthAdjust="spacing" textLength="154.6035" x="246" y="1488.8467">[!] Re-chargements (5 min)</text><rect fill="#EEEEEE" height="3" style="stroke:#EEEEEE;stroke-width:1;" width="687.7129" x="0" y="1522.8789"/><line style="stroke:#000000;stroke-width:1;" x1="0" x2="687.7129" y1="1522.8789" y2="1522.8789"/><line style="stroke:#000000;stroke-width:1;" x1="0" x2="687.7129" y1="1525.8789" y2="1525.8789"/><rect fill="#EEEEEE" height="24.3516" style="stroke:#000000;stroke-width:2;" width="164.2617" x="261.7256" y="1511.7031"/><text fill="#000000" font-family="sans-serif" font-size="13" font-weight="bold" lengthAdjust="spacing" textLength="146.6499" x="267.7256" y="1529.1982">11h50 - Generation PDF</text><polygon fill="#181818" points="223.0288,1564.4063,233.0288,1568.4063,223.0288,1572.4063,227.0288,1568.4063" style="stroke:#181818;stroke-width:1;"/><line style="stroke:#181818;stroke-width:1;" x1="68.124" x2="229.0288" y1="1568.4063" y2="1568.4063"/><text fill="#000000" font-family="sans-serif" font-size="13" lengthAdjust="spacing" textLength="86.5313" x="75.124" y="1563.5498">"Generer PDF"</text><polygon fill="#181818" points="79.124,1594.7578,69.124,1598.7578,79.124,1602.7578,75.124,1598.7578" style="stroke:#181818;stroke-width:1;"/><line style="stroke:#181818;stroke-width:1;stroke-dasharray:2.0,2.0;" x1="73.124" x2="234.0288" y1="1598.7578" y2="1598.7578"/><text fill="#000000" font-family="sans-serif" font-size="13" lengthAdjust="spacing" textLength="59.23" x="85.124" y="1593.9014">PDF (45s)</text><line style="stroke:#181818;stroke-width:1;" x1="68.124" x2="110.124" y1="1641.9609" y2="1641.9609"/><line style="stroke:#181818;stroke-width:1;" x1="110.124" x2="110.124" y1="1641.9609" y2="1654.9609"/><line style="stroke:#181818;stroke-width:1;" x1="69.124" x2="110.124" y1="1654.9609" y2="1654.9609"/><polygon fill="#181818" points="79.124,1650.9609,69.124,1654.9609,79.124,1658.9609,75.124,1654.9609" style="stroke:#181818;stroke-width:1;"/><text fill="#000000" font-family="sans-serif" font-size="13" lengthAdjust="spacing" textLength="108.3926" x="75.124" y="1637.1045">Verif mise en page</text><path d="M195.3926,1611.7578 L195.3926,1670.7578 L359.3926,1670.7578 L359.3926,1621.7578 L349.3926,1611.7578 L195.3926,1611.7578 " fill="#FF6B6B" style="stroke:#181818;stroke-width:0.5;"/><path d="M349.3926,1611.7578 L349.3926,1621.7578 L359.3926,1621.7578 L349.3926,1611.7578 " fill="#FF6B6B" style="stroke:#181818;stroke-width:0.5;"/><text fill="#000000" font-family="sans-serif" font-size="13" lengthAdjust="spacing" textLength="143.0825" x="201.3926" y="1630.2529">[!] Parfois bugs affichage</text><text fill="#000000" font-family="sans-serif" font-size="13" lengthAdjust="spacing" textLength="96.6621" x="201.3926" y="1646.6045">&#226;&#8224;&#8217; Regeneration</text><text fill="#000000" font-family="sans-serif" font-size="13" lengthAdjust="spacing" textLength="73.6772" x="201.3926" y="1662.9561">[TIME] 3 min</text><polygon fill="#181818" points="453.3799,1721.6914,463.3799,1725.6914,453.3799,1729.6914,457.3799,1725.6914" style="stroke:#181818;stroke-width:1;"/><line style="stroke:#181818;stroke-width:1;" x1="68.124" x2="459.3799" y1="1725.6914" y2="1725.6914"/><text fill="#000000" font-family="sans-serif" font-size="13" lengthAdjust="spacing" textLength="127.1753" x="75.124" y="1720.835">Redaction email client</text><path d="M470,1680.8125 L470,1755.8125 L607,1755.8125 L607,1690.8125 L597,1680.8125 L470,1680.8125 " fill="#FEFFDD" style="stroke:#181818;stroke-width:0.5;"/><path d="M597,1680.8125 L597,1690.8125 L607,1690.8125 L597,1680.8125 " fill="#FEFFDD" style="stroke:#181818;stroke-width:0.5;"/><text fill="#000000" font-family="sans-serif" font-size="13" lengthAdjust="spacing" textLength="116.3335" x="476" y="1699.3076">- Recherche contact</text><text fill="#000000" font-family="sans-serif" font-size="13" lengthAdjust="spacing" textLength="66.479" x="476" y="1715.6592">- Redaction</text><text fill="#000000" font-family="sans-serif" font-size="13" lengthAdjust="spacing" textLength="75.1499" x="476" y="1732.0107">- Piece jointe</text><text fill="#000000" font-family="sans-serif" font-size="13" lengthAdjust="spacing" textLength="73.6772" x="476" y="1748.3623">[TIME] 7 min</text><polygon fill="#181818" points="515.4004,1779.5703,525.4004,1783.5703,515.4004,1787.5703,519.4004,1783.5703" style="stroke:#181818;stroke-width:1;"/><line style="stroke:#181818;stroke-width:1;" x1="68.124" x2="521.4004" y1="1783.5703" y2="1783.5703"/><text fill="#000000" font-family="sans-serif" font-size="13" lengthAdjust="spacing" textLength="66.479" x="75.124" y="1778.7139">Envoi devis</text><rect fill="#EEEEEE" height="3" style="stroke:#EEEEEE;stroke-width:1;" width="687.7129" x="0" y="1812.7461"/><line style="stroke:#000000;stroke-width:1;" x1="0" x2="687.7129" y1="1812.7461" y2="1812.7461"/><line style="stroke:#000000;stroke-width:1;" x1="0" x2="687.7129" y1="1815.7461" y2="1815.7461"/><rect fill="#EEEEEE" height="24.3516" style="stroke:#000000;stroke-width:2;" width="57.3291" x="315.1919" y="1801.5703"/><text fill="#000000" font-family="sans-serif" font-size="13" font-weight="bold" lengthAdjust="spacing" textLength="39.7173" x="321.1919" y="1819.0654">BILAN</text><path d="M36,1840.9219 L36,2062.9219 L559,2062.9219 L559,1850.9219 L549,1840.9219 L36,1840.9219 " fill="#FFCCCC" style="stroke:#181818;stroke-width:0.5;"/><path d="M549,1840.9219 L549,1850.9219 L559,1850.9219 L549,1840.9219 " fill="#FFCCCC" style="stroke:#181818;stroke-width:0.5;"/><text fill="#000000" font-family="sans-serif" font-size="13" font-weight="bold" lengthAdjust="spacing" textLength="162.5254" x="188.0027" y="1859.417">METRIQUES PROCESSUS</text><text fill="#000000" font-family="sans-serif" font-size="13" lengthAdjust="spacing" textLength="116.3208" x="188.0027" y="1875.7686">[TIME] Duree totale:</text><text fill="#000000" font-family="sans-serif" font-size="13" font-weight="bold" lengthAdjust="spacing" textLength="29.6309" x="307.9353" y="1875.7686">2h05</text><text fill="#000000" font-family="sans-serif" font-size="13" lengthAdjust="spacing" textLength="3.6118" x="188.0027" y="1892.1201">&#160;</text><text fill="#000000" font-family="sans-serif" font-size="13" lengthAdjust="spacing" textLength="89.5972" x="188.0027" y="1908.4717">Decomposition:</text><text fill="#000000" font-family="sans-serif" font-size="13" lengthAdjust="spacing" textLength="210.2915" x="188.0027" y="1924.8232">&#226;&#8364;&#162; Recherche ancien devis: 45 min</text><text fill="#000000" font-family="sans-serif" font-size="13" lengthAdjust="spacing" textLength="154.6162" x="188.0027" y="1941.1748">&#226;&#8364;&#162; Ouverture MDE: 5 min</text><text fill="#000000" font-family="sans-serif" font-size="13" lengthAdjust="spacing" textLength="152.5024" x="188.0027" y="1957.5264">&#226;&#8364;&#162; Saisie 30 lignes: 1h30</text><text fill="#000000" font-family="sans-serif" font-size="13" lengthAdjust="spacing" textLength="142.3525" x="188.0027" y="1973.8779">&#226;&#8364;&#162; Verifications: 15 min</text><text fill="#000000" font-family="sans-serif" font-size="13" lengthAdjust="spacing" textLength="144.5171" x="188.0027" y="1990.2295">&#226;&#8364;&#162; PDF &amp; envoi: 10 min</text><text fill="#000000" font-family="sans-serif" font-size="13" lengthAdjust="spacing" textLength="3.6118" x="188.0027" y="2006.5811">&#160;</text><text fill="#000000" font-family="sans-serif" font-size="13" lengthAdjust="spacing" textLength="68.6118" x="188.0027" y="2022.9326">[FRUSTRE]</text><text fill="#000000" font-family="sans-serif" font-size="13" font-weight="bold" lengthAdjust="spacing" textLength="126.4009" x="260.2263" y="2022.9326">FRUSTRATION: 9/10</text><text fill="#000000" font-family="sans-serif" font-size="13" lengthAdjust="spacing" textLength="208.0952" x="188.0027" y="2039.2842">[!] Avec templates: 30 min possible !</text><text fill="#000000" font-family="sans-serif" font-size="13" lengthAdjust="spacing" textLength="190.7915" x="188.0027" y="2055.6357">Economie potentielle: 1h35/devis</text><!--SRC=[ZLRDRjj64BxpASOAqCfEvKXov2G4N82Mg4I5P2kad4kJmveQK-jIN7QN59nRqBv2BxsbEHVejPUYG8A-I5wWhz3PNL8_jkH6W6ngERixyyqttqpEymHXB4M4IXKAkX9PpaKAFLnm1Gtm9zu4lExamXz2tG_6CCIOHMzXrFFt7OT5kP1G6x92Ofg_Jki1gkmGlAihnYNkru0fA5_2Wtx_zBZRSZ8cSnxnZD5QZOvv5B8OZINzq5R7fyUdcrR-JOG9dPwXLCAUQfQqTUz9ixbftHDASR9ydOvfcGvNPaUrl6byNkI943_OC-UC9rLCtOIJrsRTFi83hzTxwXyxpia9V7T-4K2By1aMwPJ3ircp2ISdZbEQDhwjmdRjgJ35EKkdIFy9LoSLEOBayMnrAa2OOSIlU6GIe22JuXfpMkzXmhWBZvysdhHdmF8SqsdXq1_GnpXE1V3wfKECSde4D9VNMnsOytH_uzuIEe1F7_xvxUFxJtzy_FFVl_-2GNeb5221bF4aGLJRRwhGT270Q8QIli3IYAAt8OBYSvve5jowr6GNuFkzDt1m4FZT5tv0NnXvPqIneNzmG2yRq1U5lXscLTBqOhlPV0W4q6ovCgRi4AYNJ2548aqPLugyG7t1P33oty1HKqSEn9nfiH5B5G0qrd6RI54iy4u8wv4RvhdG5Hb7I7YSeeByROPgExgMg8QvQOe9hKnmdYKifssQYEGlAsxM72DsFPjrcXJTERaYJHfrPMXwhRb1I-wcnNr0J_pHE8Jk2ozuxe_yiuc1kOI8oA6Gq9lkohMvQYXYdZhQaGt0_4Yo55WK5QY9TjHK-xlzy3HtSpmyFBpdeZEsuB4LeJcc1TMpJaRjxjKZCIsIAbVrn_VUxAUH89JOoe5b-1EHimHCWS1reUY0J1GIY0UIIzYxnzCLyoDJzdTT779zddshIdIsrciOIP4ay13ayinwszRiNO0qHLbHIicTE_j2pWj3MrXmAWwBZAPLgpbhTeXN8PN9YhlrhZTyvGq2VzzGZDGmWx56WDZoyiAtPjhtSiC-GGTmsoaIlWXgthKeSfJMicOCx_Wt5bcH0QaSIqHSw9CxvPbRiwS_EeD7AvR2zEioaULx4glIpRszFREsIjesPzSaIxU21F__-jKMdkALLkcekhtaKTiA3RcoVkXEHvPuM26PObRmigrjyQOK4_qfiqVjf42IIBTSRi3BWZeQNu92wYZvpV97W7Eky0l02HdHAsPoMZ9aUnO3l9AePiJIByeUMQsojihNfZlquDWI5YHhrLtVL7E1HvzLsLQQ5dg3S63RnfAYyEddp-z-WOvEo0cqPqSQkm2d1S-1GOj-0rjWj4IRcgI2oVc5xkeXv1GO92ADDufVrm_jrFNp2kLQdxwbosLxC3R4yYGgaXsTeG4Z9cE4E16NpD35fWmMIZUpg91qPcJNkuBOft_1ZsMMrPg0cnvtZr1vHjVcHeJQZQCIfTrg6M0ZccdVx9PwEJtS1iCqgUUOehHoFUxrjtQfch6XZ9B15XtNs-gFExkaqIAfoKjC8Uh4zqmKDF1T2ShbPH5JTzLbEjFsUiRv_ExzvtU_KcZnqk6rAM4tW6PyqtoVqc2eexGZLQduAqySMsJBZY3Id3QKg-LUcsAEbCPhmQr-bHuysUs1dIcfrQOBmKlLrnau7GozCmFubfgfPjP-lqiVkkVWOEHFWW4fUWZZuBphX-55k3u6z6WdGgwx8RfatgPcGU_D01g9UIOKrp6u5isVVl_uOSVeHwEg8SoQuSQSuiBjrwMaBUlNDJMwPh1HSIwqRX-WAVGLqOC0Sgjoq97rWujm4XYri8_UP71-viApHwscZLrF9LeAyceeSvSZenuGBsd0q1t5ftoAETUpWPOmRfHNUzbvP1EopDn_]--></g></svg>