<svg xmlns="http://www.w3.org/2000/svg" xmlns:xlink="http://www.w3.org/1999/xlink" contentStyleType="text/css" height="2178px" preserveAspectRatio="none" style="width:717px;height:2178px;background:#FFFFFF;" version="1.1" viewBox="0 0 717 2178" width="717px" zoomAndPan="magnify"><title>Processus Cr&#195;&#169;ation Devis - &#195;&#8240;TAT ACTUEL (ERP Legacy MDE)</title><defs/><g><text fill="#000000" font-family="sans-serif" font-size="14" font-weight="bold" lengthAdjust="spacing" textLength="442.3262" x="133.6367" y="29.5332">Processus Cr&#195;&#169;ation Devis - &#195;&#8240;TAT ACTUEL (ERP Legacy MDE)</text><rect fill="none" height="306.2188" style="stroke:#000000;stroke-width:1.5;" width="421.7178" x="10" y="936.9688"/><line style="stroke:#181818;stroke-width:0.5;stroke-dasharray:5.0,5.0;" x1="68" x2="68" y1="138.8281" y2="2078.4922"/><line style="stroke:#181818;stroke-width:0.5;stroke-dasharray:5.0,5.0;" x1="234.1807" x2="234.1807" y1="138.8281" y2="2078.4922"/><line style="stroke:#181818;stroke-width:0.5;stroke-dasharray:5.0,5.0;" x1="314.877" x2="314.877" y1="138.8281" y2="2078.4922"/><line style="stroke:#181818;stroke-width:0.5;stroke-dasharray:5.0,5.0;" x1="394.2217" x2="394.2217" y1="138.8281" y2="2078.4922"/><line style="stroke:#181818;stroke-width:0.5;stroke-dasharray:5.0,5.0;" x1="477.123" x2="477.123" y1="138.8281" y2="2078.4922"/><line style="stroke:#181818;stroke-width:0.5;stroke-dasharray:5.0,5.0;" x1="538.3711" x2="538.3711" y1="138.8281" y2="2078.4922"/><text fill="#000000" font-family="sans-serif" font-size="14" lengthAdjust="spacing" textLength="47.4824" x="41.3828" y="118.1426">Laurent</text><text fill="#000000" font-family="sans-serif" font-size="14" lengthAdjust="spacing" textLength="90.248" x="20" y="135.752">(Resp. Affaire)</text><ellipse cx="68.124" cy="52.1094" fill="#FFB6C1" rx="8" ry="8" style="stroke:#181818;stroke-width:0.5;"/><path d="M68.124,60.1094 L68.124,87.1094 M55.124,68.1094 L81.124,68.1094 M68.124,87.1094 L55.124,102.1094 M68.124,87.1094 L81.124,102.1094 " fill="none" style="stroke:#181818;stroke-width:0.5;"/><text fill="#000000" font-family="sans-serif" font-size="14" lengthAdjust="spacing" textLength="47.4824" x="41.3828" y="2092.0254">Laurent</text><text fill="#000000" font-family="sans-serif" font-size="14" lengthAdjust="spacing" textLength="90.248" x="20" y="2109.6348">(Resp. Affaire)</text><ellipse cx="68.124" cy="2121.2109" fill="#FFB6C1" rx="8" ry="8" style="stroke:#181818;stroke-width:0.5;"/><path d="M68.124,2129.2109 L68.124,2156.2109 M55.124,2137.2109 L81.124,2137.2109 M68.124,2156.2109 L55.124,2171.2109 M68.124,2156.2109 L81.124,2171.2109 " fill="none" style="stroke:#181818;stroke-width:0.5;"/><rect fill="#FF6B6B" height="31.6094" rx="2.5" ry="2.5" style="stroke:#181818;stroke-width:0.5;" width="81.6963" x="194.1807" y="106.2188"/><text fill="#000000" font-family="sans-serif" font-size="14" lengthAdjust="spacing" textLength="67.6963" x="201.1807" y="127.752">MDE/Sage</text><rect fill="#FF6B6B" height="31.6094" rx="2.5" ry="2.5" style="stroke:#181818;stroke-width:0.5;" width="81.6963" x="194.1807" y="2077.4922"/><text fill="#000000" font-family="sans-serif" font-size="14" lengthAdjust="spacing" textLength="67.6963" x="201.1807" y="2099.0254">MDE/Sage</text><rect fill="#FFD700" height="49.2188" rx="2.5" ry="2.5" style="stroke:#181818;stroke-width:0.5;" width="58.3447" x="285.877" y="88.6094"/><text fill="#000000" font-family="sans-serif" font-size="14" lengthAdjust="spacing" textLength="34.2344" x="297.9321" y="110.1426">Excel</text><text fill="#000000" font-family="sans-serif" font-size="14" lengthAdjust="spacing" textLength="44.3447" x="292.877" y="127.752">(perso)</text><rect fill="#FFD700" height="49.2188" rx="2.5" ry="2.5" style="stroke:#181818;stroke-width:0.5;" width="58.3447" x="285.877" y="2077.4922"/><text fill="#000000" font-family="sans-serif" font-size="14" lengthAdjust="spacing" textLength="34.2344" x="297.9321" y="2099.0254">Excel</text><text fill="#000000" font-family="sans-serif" font-size="14" lengthAdjust="spacing" textLength="44.3447" x="292.877" y="2116.6348">(perso)</text><rect fill="#E2E2F0" height="49.2188" rx="2.5" ry="2.5" style="stroke:#181818;stroke-width:0.5;" width="81.9014" x="354.2217" y="88.6094"/><text fill="#000000" font-family="sans-serif" font-size="14" lengthAdjust="spacing" textLength="54.4551" x="367.9448" y="110.1426">Dossiers</text><text fill="#000000" font-family="sans-serif" font-size="14" lengthAdjust="spacing" textLength="67.9014" x="361.2217" y="127.752">Partag&#195;&#169;s</text><rect fill="#E2E2F0" height="49.2188" rx="2.5" ry="2.5" style="stroke:#181818;stroke-width:0.5;" width="81.9014" x="354.2217" y="2077.4922"/><text fill="#000000" font-family="sans-serif" font-size="14" lengthAdjust="spacing" textLength="54.4551" x="367.9448" y="2099.0254">Dossiers</text><text fill="#000000" font-family="sans-serif" font-size="14" lengthAdjust="spacing" textLength="67.9014" x="361.2217" y="2116.6348">Partag&#195;&#169;s</text><rect fill="#E2E2F0" height="31.6094" rx="2.5" ry="2.5" style="stroke:#181818;stroke-width:0.5;" width="62.248" x="446.123" y="106.2188"/><text fill="#000000" font-family="sans-serif" font-size="14" lengthAdjust="spacing" textLength="48.248" x="453.123" y="127.752">Outlook</text><rect fill="#E2E2F0" height="31.6094" rx="2.5" ry="2.5" style="stroke:#181818;stroke-width:0.5;" width="62.248" x="446.123" y="2077.4922"/><text fill="#000000" font-family="sans-serif" font-size="14" lengthAdjust="spacing" textLength="48.248" x="453.123" y="2099.0254">Outlook</text><text fill="#000000" font-family="sans-serif" font-size="14" lengthAdjust="spacing" textLength="35.793" x="518.3711" y="135.752">Client</text><ellipse cx="539.2676" cy="69.7188" fill="#ADD8E6" rx="8" ry="8" style="stroke:#181818;stroke-width:0.5;"/><path d="M539.2676,77.7188 L539.2676,104.7188 M526.2676,85.7188 L552.2676,85.7188 M539.2676,104.7188 L526.2676,119.7188 M539.2676,104.7188 L552.2676,119.7188 " fill="none" style="stroke:#181818;stroke-width:0.5;"/><text fill="#000000" font-family="sans-serif" font-size="14" lengthAdjust="spacing" textLength="35.793" x="518.3711" y="2092.0254">Client</text><ellipse cx="539.2676" cy="2103.6016" fill="#ADD8E6" rx="8" ry="8" style="stroke:#181818;stroke-width:0.5;"/><path d="M539.2676,2111.6016 L539.2676,2138.6016 M526.2676,2119.6016 L552.2676,2119.6016 M539.2676,2138.6016 L526.2676,2153.6016 M539.2676,2138.6016 L552.2676,2153.6016 " fill="none" style="stroke:#181818;stroke-width:0.5;"/><rect fill="#EEEEEE" height="3" style="stroke:#EEEEEE;stroke-width:1;" width="710.5996" x="0" y="170.0039"/><line style="stroke:#000000;stroke-width:1;" x1="0" x2="710.5996" y1="170.0039" y2="170.0039"/><line style="stroke:#000000;stroke-width:1;" x1="0" x2="710.5996" y1="173.0039" y2="173.0039"/><rect fill="#EEEEEE" height="24.3516" style="stroke:#000000;stroke-width:2;" width="144.7427" x="282.9285" y="158.8281"/><text fill="#000000" font-family="sans-serif" font-size="13" font-weight="bold" lengthAdjust="spacing" textLength="127.1309" x="288.9285" y="176.3232">JOUR 1 - Lundi 9h00</text><polygon fill="#181818" points="79.124,222.707,69.124,226.707,79.124,230.707,75.124,226.707" style="stroke:#181818;stroke-width:1;"/><line style="stroke:#181818;stroke-width:1;" x1="73.124" x2="538.2676" y1="226.707" y2="226.707"/><text fill="#000000" font-family="sans-serif" font-size="13" lengthAdjust="spacing" textLength="124.2871" x="85.124" y="221.8506">Email demande devis</text><path d="M544,198.1797 L544,240.1797 L700,240.1797 L700,208.1797 L690,198.1797 L544,198.1797 " fill="#ADD8E6" style="stroke:#181818;stroke-width:0.5;"/><path d="M690,198.1797 L690,208.1797 L700,208.1797 L690,198.1797 " fill="#ADD8E6" style="stroke:#181818;stroke-width:0.5;"/><text fill="#000000" font-family="sans-serif" font-size="13" lengthAdjust="spacing" textLength="127.3594" x="550" y="216.6748">Sp&#195;&#169;cifications projet</text><text fill="#000000" font-family="sans-serif" font-size="13" lengthAdjust="spacing" textLength="135.332" x="550" y="233.0264">D&#195;&#169;lai: 48-72h attendu</text><line style="stroke:#181818;stroke-width:1;" x1="68.124" x2="110.124" y1="268.2344" y2="268.2344"/><line style="stroke:#181818;stroke-width:1;" x1="110.124" x2="110.124" y1="268.2344" y2="281.2344"/><line style="stroke:#181818;stroke-width:1;" x1="69.124" x2="110.124" y1="281.2344" y2="281.2344"/><polygon fill="#181818" points="79.124,277.2344,69.124,281.2344,79.124,285.2344,75.124,281.2344" style="stroke:#181818;stroke-width:1;"/><text fill="#000000" font-family="sans-serif" font-size="13" lengthAdjust="spacing" textLength="129.3271" x="75.124" y="263.3779">Lecture email (15 min)</text><path d="M216.3271,254.3828 L216.3271,280.3828 L392.3271,280.3828 L392.3271,264.3828 L382.3271,254.3828 L216.3271,254.3828 " fill="#FFD700" style="stroke:#181818;stroke-width:0.5;"/><path d="M382.3271,254.3828 L382.3271,264.3828 L392.3271,264.3828 L382.3271,254.3828 " fill="#FFD700" style="stroke:#181818;stroke-width:0.5;"/><text fill="#000000" font-family="sans-serif" font-size="13" lengthAdjust="spacing" textLength="155.3525" x="222.3271" y="272.8779">&#226;&#353;&#160;&#239;&#184;&#65533; Infos &#195;&#169;parpill&#195;&#169;es</text><polygon fill="#181818" points="383.1724,343.2891,393.1724,347.2891,383.1724,351.2891,387.1724,347.2891" style="stroke:#181818;stroke-width:1;"/><line style="stroke:#181818;stroke-width:1;" x1="68.124" x2="389.1724" y1="347.2891" y2="347.2891"/><text fill="#000000" font-family="sans-serif" font-size="13" lengthAdjust="spacing" textLength="190.0298" x="75.124" y="342.4326">Recherche ancien devis similaire</text><path d="M400,294.2344 L400,385.2344 L607,385.2344 L607,304.2344 L597,294.2344 L400,294.2344 " fill="#FF6B6B" style="stroke:#181818;stroke-width:0.5;"/><path d="M597,294.2344 L597,304.2344 L607,304.2344 L597,294.2344 " fill="#FF6B6B" style="stroke:#181818;stroke-width:0.5;"/><text fill="#000000" font-family="sans-serif" font-size="13" lengthAdjust="spacing" textLength="24.5591" x="406" y="312.7295">&#240;&#376;&#8221;&#180;</text><text fill="#000000" font-family="sans-serif" font-size="13" font-weight="bold" lengthAdjust="spacing" textLength="158.1709" x="434.1709" y="312.7295">RECHERCHE MANUELLE</text><text fill="#000000" font-family="sans-serif" font-size="13" lengthAdjust="spacing" textLength="98.2554" x="406" y="329.0811">- Fouille dossiers</text><text fill="#000000" font-family="sans-serif" font-size="13" lengthAdjust="spacing" textLength="82.0117" x="406" y="345.4326">- 200+ fichiers</text><text fill="#000000" font-family="sans-serif" font-size="13" lengthAdjust="spacing" textLength="163.3252" x="406" y="361.7842">- Pas de base connaissance</text><text fill="#000000" font-family="sans-serif" font-size="13" lengthAdjust="spacing" textLength="115.4004" x="406" y="378.1357">&#226;&#65533;&#176; 30 min perdues</text><polygon fill="#181818" points="79.124,409.3438,69.124,413.3438,79.124,417.3438,75.124,413.3438" style="stroke:#181818;stroke-width:1;"/><line style="stroke:#181818;stroke-width:1;stroke-dasharray:2.0,2.0;" x1="73.124" x2="394.1724" y1="413.3438" y2="413.3438"/><text fill="#000000" font-family="sans-serif" font-size="13" lengthAdjust="spacing" textLength="125.7026" x="85.124" y="408.4873">Trouve devis similaire</text><polygon fill="#181818" points="303.0493,450.8711,313.0493,454.8711,303.0493,458.8711,307.0493,454.8711" style="stroke:#181818;stroke-width:1;"/><line style="stroke:#181818;stroke-width:1;" x1="68.124" x2="309.0493" y1="454.8711" y2="454.8711"/><text fill="#000000" font-family="sans-serif" font-size="13" lengthAdjust="spacing" textLength="106.228" x="75.124" y="450.0146">Copie lignes types</text><path d="M320,426.3438 L320,468.3438 L465,468.3438 L465,436.3438 L455,426.3438 L320,426.3438 " fill="#FFD700" style="stroke:#181818;stroke-width:0.5;"/><path d="M455,426.3438 L455,436.3438 L465,436.3438 L455,426.3438 " fill="#FFD700" style="stroke:#181818;stroke-width:0.5;"/><text fill="#000000" font-family="sans-serif" font-size="13" lengthAdjust="spacing" textLength="92.498" x="326" y="444.8389">Excel personnel</text><text fill="#000000" font-family="sans-serif" font-size="13" lengthAdjust="spacing" textLength="124.2808" x="326" y="461.1904">Templates artisanaux</text><rect fill="#EEEEEE" height="3" style="stroke:#EEEEEE;stroke-width:1;" width="710.5996" x="0" y="495.2227"/><line style="stroke:#000000;stroke-width:1;" x1="0" x2="710.5996" y1="495.2227" y2="495.2227"/><line style="stroke:#000000;stroke-width:1;" x1="0" x2="710.5996" y1="498.2227" y2="498.2227"/><rect fill="#EEEEEE" height="24.3516" style="stroke:#000000;stroke-width:2;" width="153.4263" x="278.5867" y="484.0469"/><text fill="#000000" font-family="sans-serif" font-size="13" font-weight="bold" lengthAdjust="spacing" textLength="135.8145" x="284.5867" y="501.542">9h50 - Ouverture MDE</text><polygon fill="#181818" points="223.0288,547.9258,233.0288,551.9258,223.0288,555.9258,227.0288,551.9258" style="stroke:#181818;stroke-width:1;"/><line style="stroke:#181818;stroke-width:1;" x1="68.124" x2="229.0288" y1="551.9258" y2="551.9258"/><text fill="#000000" font-family="sans-serif" font-size="13" lengthAdjust="spacing" textLength="90.3018" x="75.124" y="547.0693">Ouverture MDE</text><path d="M240,523.3984 L240,565.3984 L430,565.3984 L430,533.3984 L420,523.3984 L240,523.3984 " fill="#FF6B6B" style="stroke:#181818;stroke-width:0.5;"/><path d="M420,523.3984 L420,533.3984 L430,533.3984 L420,523.3984 " fill="#FF6B6B" style="stroke:#181818;stroke-width:0.5;"/><text fill="#000000" font-family="sans-serif" font-size="13" lengthAdjust="spacing" textLength="24.5591" x="246" y="541.8936">&#240;&#376;&#8221;&#180;</text><text fill="#000000" font-family="sans-serif" font-size="13" font-weight="bold" lengthAdjust="spacing" textLength="141.5591" x="274.1709" y="541.8936">TEMPS CHARGEMENT</text><text fill="#000000" font-family="sans-serif" font-size="13" lengthAdjust="spacing" textLength="99.5122" x="246" y="558.2451">&#226;&#65533;&#176; 15 secondes</text><polygon fill="#181818" points="223.0288,589.4531,233.0288,593.4531,223.0288,597.4531,227.0288,593.4531" style="stroke:#181818;stroke-width:1;"/><line style="stroke:#181818;stroke-width:1;" x1="68.124" x2="229.0288" y1="593.4531" y2="593.4531"/><text fill="#000000" font-family="sans-serif" font-size="13" lengthAdjust="spacing" textLength="31.8081" x="75.124" y="588.5967">Login</text><polygon fill="#181818" points="79.124,622.8047,69.124,626.8047,79.124,630.8047,75.124,626.8047" style="stroke:#181818;stroke-width:1;"/><line style="stroke:#181818;stroke-width:1;stroke-dasharray:2.0,2.0;" x1="73.124" x2="234.0288" y1="626.8047" y2="626.8047"/><text fill="#000000" font-family="sans-serif" font-size="13" lengthAdjust="spacing" textLength="126.9976" x="85.124" y="621.9482">&#195;&#8240;cran accueil (30s)</text><path d="M240,606.4531 L240,632.4531 L341,632.4531 L341,616.4531 L331,606.4531 L240,606.4531 " fill="#FF6B6B" style="stroke:#181818;stroke-width:0.5;"/><path d="M331,606.4531 L331,616.4531 L341,616.4531 L331,606.4531 " fill="#FF6B6B" style="stroke:#181818;stroke-width:0.5;"/><text fill="#000000" font-family="sans-serif" font-size="13" lengthAdjust="spacing" textLength="80.2026" x="246" y="624.9482">&#240;&#376;&#8221;&#180; Attente...</text><polygon fill="#181818" points="223.0288,656.1563,233.0288,660.1563,223.0288,664.1563,227.0288,660.1563" style="stroke:#181818;stroke-width:1;"/><line style="stroke:#181818;stroke-width:1;" x1="68.124" x2="229.0288" y1="660.1563" y2="660.1563"/><text fill="#000000" font-family="sans-serif" font-size="13" lengthAdjust="spacing" textLength="142.9048" x="75.124" y="655.2998">Navigation menu "Devis"</text><polygon fill="#181818" points="79.124,697.6836,69.124,701.6836,79.124,705.6836,75.124,701.6836" style="stroke:#181818;stroke-width:1;"/><line style="stroke:#181818;stroke-width:1;stroke-dasharray:2.0,2.0;" x1="73.124" x2="234.0288" y1="701.6836" y2="701.6836"/><text fill="#000000" font-family="sans-serif" font-size="13" lengthAdjust="spacing" textLength="109.8271" x="85.124" y="696.8271">Module devis (40s)</text><path d="M240,673.1563 L240,715.1563 L455,715.1563 L455,683.1563 L445,673.1563 L240,673.1563 " fill="#FF6B6B" style="stroke:#181818;stroke-width:0.5;"/><path d="M445,673.1563 L445,683.1563 L455,683.1563 L445,673.1563 " fill="#FF6B6B" style="stroke:#181818;stroke-width:0.5;"/><text fill="#000000" font-family="sans-serif" font-size="13" lengthAdjust="spacing" textLength="123.5635" x="246" y="691.6514">&#240;&#376;&#8221;&#180; Encore attente...</text><text fill="#000000" font-family="sans-serif" font-size="13" lengthAdjust="spacing" textLength="194.1367" x="246" y="708.0029">&#226;&#65533;&#176; Total 5 min juste pour ouvrir !</text><polygon fill="#181818" points="223.0288,739.2109,233.0288,743.2109,223.0288,747.2109,227.0288,743.2109" style="stroke:#181818;stroke-width:1;"/><line style="stroke:#181818;stroke-width:1;" x1="68.124" x2="229.0288" y1="743.2109" y2="743.2109"/><text fill="#000000" font-family="sans-serif" font-size="13" lengthAdjust="spacing" textLength="96.8271" x="75.124" y="738.3545">Recherche client</text><polygon fill="#181818" points="79.124,769.5625,69.124,773.5625,79.124,777.5625,75.124,773.5625" style="stroke:#181818;stroke-width:1;"/><line style="stroke:#181818;stroke-width:1;stroke-dasharray:2.0,2.0;" x1="73.124" x2="234.0288" y1="773.5625" y2="773.5625"/><text fill="#000000" font-family="sans-serif" font-size="13" lengthAdjust="spacing" textLength="101.1499" x="85.124" y="768.7061">Liste clients (30s)</text><line style="stroke:#181818;stroke-width:1;" x1="68.124" x2="110.124" y1="803.9141" y2="803.9141"/><line style="stroke:#181818;stroke-width:1;" x1="110.124" x2="110.124" y1="803.9141" y2="816.9141"/><line style="stroke:#181818;stroke-width:1;" x1="69.124" x2="110.124" y1="816.9141" y2="816.9141"/><polygon fill="#181818" points="79.124,812.9141,69.124,816.9141,79.124,820.9141,75.124,816.9141" style="stroke:#181818;stroke-width:1;"/><text fill="#000000" font-family="sans-serif" font-size="13" lengthAdjust="spacing" textLength="149.189" x="75.124" y="799.0576">Scroll + recherche (2 min)</text><polygon fill="#181818" points="223.0288,843.2656,233.0288,847.2656,223.0288,851.2656,227.0288,847.2656" style="stroke:#181818;stroke-width:1;"/><line style="stroke:#181818;stroke-width:1;" x1="68.124" x2="229.0288" y1="847.2656" y2="847.2656"/><text fill="#000000" font-family="sans-serif" font-size="13" lengthAdjust="spacing" textLength="85.998" x="75.124" y="842.4092">Nouveau devis</text><polygon fill="#181818" points="79.124,873.6172,69.124,877.6172,79.124,881.6172,75.124,877.6172" style="stroke:#181818;stroke-width:1;"/><line style="stroke:#181818;stroke-width:1;stroke-dasharray:2.0,2.0;" x1="73.124" x2="234.0288" y1="877.6172" y2="877.6172"/><text fill="#000000" font-family="sans-serif" font-size="13" lengthAdjust="spacing" textLength="122.8145" x="85.124" y="872.7607">Formulaire vide (40s)</text><rect fill="#EEEEEE" height="3" style="stroke:#EEEEEE;stroke-width:1;" width="710.5996" x="0" y="906.793"/><line style="stroke:#000000;stroke-width:1;" x1="0" x2="710.5996" y1="906.793" y2="906.793"/><line style="stroke:#000000;stroke-width:1;" x1="0" x2="710.5996" y1="909.793" y2="909.793"/><rect fill="#EEEEEE" height="24.3516" style="stroke:#000000;stroke-width:2;" width="223.5044" x="243.5476" y="895.6172"/><text fill="#000000" font-family="sans-serif" font-size="13" font-weight="bold" lengthAdjust="spacing" textLength="205.8926" x="249.5476" y="913.1123">10h05 - Saisie lignes (CALVAIRE)</text><path d="M10,936.9688 L82.4346,936.9688 L82.4346,945.3203 L72.4346,955.3203 L10,955.3203 L10,936.9688 " fill="#EEEEEE" style="stroke:#000000;stroke-width:1.5;"/><rect fill="none" height="306.2188" style="stroke:#000000;stroke-width:1.5;" width="421.7178" x="10" y="936.9688"/><text fill="#000000" font-family="sans-serif" font-size="13" font-weight="bold" lengthAdjust="spacing" textLength="27.4346" x="25" y="951.4639">loop</text><text fill="#000000" font-family="sans-serif" font-size="11" font-weight="bold" lengthAdjust="spacing" textLength="169.2915" x="97.4346" y="950.3877">[Pour CHAQUE ligne (30 lignes)]</text><polygon fill="#181818" points="223.0288,973.6719,233.0288,977.6719,223.0288,981.6719,227.0288,977.6719" style="stroke:#181818;stroke-width:1;"/><line style="stroke:#181818;stroke-width:1;" x1="68.124" x2="229.0288" y1="977.6719" y2="977.6719"/><text fill="#000000" font-family="sans-serif" font-size="13" lengthAdjust="spacing" textLength="106.7739" x="75.124" y="972.8154">Clic "Ajouter ligne"</text><polygon fill="#181818" points="79.124,1015.1992,69.124,1019.1992,79.124,1023.1992,75.124,1019.1992" style="stroke:#181818;stroke-width:1;"/><line style="stroke:#181818;stroke-width:1;stroke-dasharray:2.0,2.0;" x1="73.124" x2="234.0288" y1="1019.1992" y2="1019.1992"/><text fill="#000000" font-family="sans-serif" font-size="13" lengthAdjust="spacing" textLength="130.8125" x="85.124" y="1014.3428">Popup catalogue (35s)</text><path d="M240,990.6719 L240,1032.6719 L415,1032.6719 L415,1000.6719 L405,990.6719 L240,990.6719 " fill="#FF6B6B" style="stroke:#181818;stroke-width:0.5;"/><path d="M405,990.6719 L405,1000.6719 L415,1000.6719 L405,990.6719 " fill="#FF6B6B" style="stroke:#181818;stroke-width:0.5;"/><text fill="#000000" font-family="sans-serif" font-size="13" lengthAdjust="spacing" textLength="154.9717" x="246" y="1009.167">&#240;&#376;&#8221;&#180; 35 secondes d'attente</text><text fill="#000000" font-family="sans-serif" font-size="13" lengthAdjust="spacing" textLength="64.3145" x="246" y="1025.5186">par ligne !!!</text><polygon fill="#181818" points="223.0288,1067.9023,233.0288,1071.9023,223.0288,1075.9023,227.0288,1071.9023" style="stroke:#181818;stroke-width:1;"/><line style="stroke:#181818;stroke-width:1;" x1="68.124" x2="229.0288" y1="1071.9023" y2="1071.9023"/><text fill="#000000" font-family="sans-serif" font-size="13" lengthAdjust="spacing" textLength="101.1563" x="75.124" y="1067.0459">Recherche article</text><path d="M240,1043.375 L240,1085.375 L410,1085.375 L410,1053.375 L400,1043.375 L240,1043.375 " fill="#FF6B6B" style="stroke:#181818;stroke-width:0.5;"/><path d="M400,1043.375 L400,1053.375 L410,1053.375 L400,1043.375 " fill="#FF6B6B" style="stroke:#181818;stroke-width:0.5;"/><text fill="#000000" font-family="sans-serif" font-size="13" lengthAdjust="spacing" textLength="149.5698" x="246" y="1061.8701">&#240;&#376;&#8221;&#180; Recherche inefficace</text><text fill="#000000" font-family="sans-serif" font-size="13" lengthAdjust="spacing" textLength="118.2695" x="246" y="1078.2217">&#226;&#65533;&#176; 2 min par article</text><line style="stroke:#181818;stroke-width:1;" x1="68.124" x2="110.124" y1="1134.457" y2="1134.457"/><line style="stroke:#181818;stroke-width:1;" x1="110.124" x2="110.124" y1="1134.457" y2="1147.457"/><line style="stroke:#181818;stroke-width:1;" x1="69.124" x2="110.124" y1="1147.457" y2="1147.457"/><polygon fill="#181818" points="79.124,1143.457,69.124,1147.457,79.124,1151.457,75.124,1147.457" style="stroke:#181818;stroke-width:1;"/><text fill="#000000" font-family="sans-serif" font-size="13" lengthAdjust="spacing" textLength="111.2871" x="75.124" y="1129.6006">Copie depuis Excel</text><path d="M198.2871,1096.0781 L198.2871,1171.0781 L314.2871,1171.0781 L314.2871,1106.0781 L304.2871,1096.0781 L198.2871,1096.0781 " fill="#FFD700" style="stroke:#181818;stroke-width:0.5;"/><path d="M304.2871,1096.0781 L304.2871,1106.0781 L314.2871,1106.0781 L304.2871,1096.0781 " fill="#FFD700" style="stroke:#181818;stroke-width:0.5;"/><text fill="#000000" font-family="sans-serif" font-size="13" lengthAdjust="spacing" textLength="95.3862" x="204.2871" y="1114.5732">Saisie manuelle:</text><text fill="#000000" font-family="sans-serif" font-size="13" lengthAdjust="spacing" textLength="68.104" x="204.2871" y="1130.9248">- Quantit&#195;&#169;</text><text fill="#000000" font-family="sans-serif" font-size="13" lengthAdjust="spacing" textLength="30.3291" x="204.2871" y="1147.2764">- Prix</text><text fill="#000000" font-family="sans-serif" font-size="13" lengthAdjust="spacing" textLength="52.0063" x="204.2871" y="1163.6279">- Remise</text><polygon fill="#181818" points="223.0288,1194.8359,233.0288,1198.8359,223.0288,1202.8359,227.0288,1198.8359" style="stroke:#181818;stroke-width:1;"/><line style="stroke:#181818;stroke-width:1;" x1="68.124" x2="229.0288" y1="1198.8359" y2="1198.8359"/><text fill="#000000" font-family="sans-serif" font-size="13" lengthAdjust="spacing" textLength="101.188" x="75.124" y="1193.9795">Sauvegarde ligne</text><polygon fill="#181818" points="79.124,1228.1875,69.124,1232.1875,79.124,1236.1875,75.124,1232.1875" style="stroke:#181818;stroke-width:1;"/><line style="stroke:#181818;stroke-width:1;stroke-dasharray:2.0,2.0;" x1="73.124" x2="234.0288" y1="1232.1875" y2="1232.1875"/><text fill="#000000" font-family="sans-serif" font-size="13" lengthAdjust="spacing" textLength="78.749" x="85.124" y="1227.3311">Refresh (25s)</text><path d="M240,1211.8359 L240,1237.8359 L416,1237.8359 L416,1221.8359 L406,1211.8359 L240,1211.8359 " fill="#FF6B6B" style="stroke:#181818;stroke-width:0.5;"/><path d="M406,1211.8359 L406,1221.8359 L416,1221.8359 L406,1211.8359 " fill="#FF6B6B" style="stroke:#181818;stroke-width:0.5;"/><text fill="#000000" font-family="sans-serif" font-size="13" lengthAdjust="spacing" textLength="155.689" x="246" y="1230.3311">&#240;&#376;&#8221;&#180; 25s d'attente par ligne</text><path d="M26,1255.1875 L26,1330.1875 L276,1330.1875 L276,1265.1875 L266,1255.1875 L26,1255.1875 " fill="#FFAAAA" style="stroke:#181818;stroke-width:0.5;"/><path d="M266,1255.1875 L266,1265.1875 L276,1265.1875 L266,1255.1875 " fill="#FFAAAA" style="stroke:#181818;stroke-width:0.5;"/><text fill="#000000" font-family="sans-serif" font-size="13" lengthAdjust="spacing" textLength="22.1787" x="62.4258" y="1273.6826">&#226;&#65533;&#176;</text><text fill="#000000" font-family="sans-serif" font-size="13" font-weight="bold" lengthAdjust="spacing" textLength="91.019" x="88.2163" y="1273.6826">TEMPS SAISIE</text><text fill="#000000" font-family="sans-serif" font-size="13" lengthAdjust="spacing" textLength="152.8452" x="62.4258" y="1290.0342">30 lignes &#195;&#8212; 5min = 2h30</text><text fill="#000000" font-family="sans-serif" font-size="13" lengthAdjust="spacing" textLength="163.4966" x="62.4258" y="1306.3857">R&#195;&#169;duit &#195;&#160; 1h30 avec Excel</text><text fill="#000000" font-family="sans-serif" font-size="13" lengthAdjust="spacing" textLength="169.0254" x="62.4258" y="1322.7373">mais TOUJOURS tr&#195;&#168;s long !</text><rect fill="#EEEEEE" height="3" style="stroke:#EEEEEE;stroke-width:1;" width="710.5996" x="0" y="1356.7695"/><line style="stroke:#000000;stroke-width:1;" x1="0" x2="710.5996" y1="1356.7695" y2="1356.7695"/><line style="stroke:#000000;stroke-width:1;" x1="0" x2="710.5996" y1="1359.7695" y2="1359.7695"/><rect fill="#EEEEEE" height="24.3516" style="stroke:#000000;stroke-width:2;" width="155.7876" x="277.406" y="1345.5938"/><text fill="#000000" font-family="sans-serif" font-size="13" font-weight="bold" lengthAdjust="spacing" textLength="138.1758" x="283.406" y="1363.0889">11h35 - V&#195;&#169;rifications</text><polygon fill="#181818" points="303.0493,1425.8242,313.0493,1429.8242,303.0493,1433.8242,307.0493,1429.8242" style="stroke:#181818;stroke-width:1;"/><line style="stroke:#181818;stroke-width:1;" x1="68.124" x2="309.0493" y1="1429.8242" y2="1429.8242"/><text fill="#000000" font-family="sans-serif" font-size="13" lengthAdjust="spacing" textLength="81.0977" x="75.124" y="1424.9678">V&#195;&#169;rif calculs</text><path d="M320,1384.9453 L320,1459.9453 L490,1459.9453 L490,1394.9453 L480,1384.9453 L320,1384.9453 " fill="#FFD700" style="stroke:#181818;stroke-width:0.5;"/><path d="M480,1384.9453 L480,1394.9453 L490,1394.9453 L480,1384.9453 " fill="#FFD700" style="stroke:#181818;stroke-width:0.5;"/><text fill="#000000" font-family="sans-serif" font-size="13" lengthAdjust="spacing" textLength="90.3271" x="326" y="1403.4404">- Marge globale</text><text fill="#000000" font-family="sans-serif" font-size="13" lengthAdjust="spacing" textLength="122.0908" x="326" y="1419.792">- Prix vs concurrence</text><text fill="#000000" font-family="sans-serif" font-size="13" lengthAdjust="spacing" textLength="149.9507" x="326" y="1436.1436">- Coh&#195;&#169;rence quantit&#195;&#169;s</text><text fill="#000000" font-family="sans-serif" font-size="13" lengthAdjust="spacing" textLength="64.8096" x="326" y="1452.4951">&#226;&#65533;&#176; 10 min</text><polygon fill="#181818" points="223.0288,1486.7031,233.0288,1490.7031,223.0288,1494.7031,227.0288,1490.7031" style="stroke:#181818;stroke-width:1;"/><line style="stroke:#181818;stroke-width:1;" x1="68.124" x2="229.0288" y1="1490.7031" y2="1490.7031"/><text fill="#000000" font-family="sans-serif" font-size="13" lengthAdjust="spacing" textLength="131.5107" x="75.124" y="1485.8467">Ajustements 2-3 lignes</text><path d="M240,1470.3516 L240,1496.3516 L429,1496.3516 L429,1480.3516 L419,1470.3516 L240,1470.3516 " fill="#FF6B6B" style="stroke:#181818;stroke-width:0.5;"/><path d="M419,1470.3516 L419,1480.3516 L429,1480.3516 L419,1470.3516 " fill="#FF6B6B" style="stroke:#181818;stroke-width:0.5;"/><text fill="#000000" font-family="sans-serif" font-size="13" lengthAdjust="spacing" textLength="168.3271" x="246" y="1488.8467">&#240;&#376;&#8221;&#180; Re-chargements (5 min)</text><rect fill="#EEEEEE" height="3" style="stroke:#EEEEEE;stroke-width:1;" width="710.5996" x="0" y="1522.8789"/><line style="stroke:#000000;stroke-width:1;" x1="0" x2="710.5996" y1="1522.8789" y2="1522.8789"/><line style="stroke:#000000;stroke-width:1;" x1="0" x2="710.5996" y1="1525.8789" y2="1525.8789"/><rect fill="#EEEEEE" height="24.3516" style="stroke:#000000;stroke-width:2;" width="187.7354" x="261.4321" y="1511.7031"/><text fill="#000000" font-family="sans-serif" font-size="13" font-weight="bold" lengthAdjust="spacing" textLength="170.1235" x="267.4321" y="1529.1982">11h50 - G&#195;&#169;n&#195;&#169;ration PDF</text><polygon fill="#181818" points="223.0288,1564.4063,233.0288,1568.4063,223.0288,1572.4063,227.0288,1568.4063" style="stroke:#181818;stroke-width:1;"/><line style="stroke:#181818;stroke-width:1;" x1="68.124" x2="229.0288" y1="1568.4063" y2="1568.4063"/><text fill="#000000" font-family="sans-serif" font-size="13" lengthAdjust="spacing" textLength="108.5703" x="75.124" y="1563.5498">"G&#195;&#169;n&#195;&#169;rer PDF"</text><polygon fill="#181818" points="79.124,1594.7578,69.124,1598.7578,79.124,1602.7578,75.124,1598.7578" style="stroke:#181818;stroke-width:1;"/><line style="stroke:#181818;stroke-width:1;stroke-dasharray:2.0,2.0;" x1="73.124" x2="234.0288" y1="1598.7578" y2="1598.7578"/><text fill="#000000" font-family="sans-serif" font-size="13" lengthAdjust="spacing" textLength="59.23" x="85.124" y="1593.9014">PDF (45s)</text><line style="stroke:#181818;stroke-width:1;" x1="68.124" x2="110.124" y1="1641.9609" y2="1641.9609"/><line style="stroke:#181818;stroke-width:1;" x1="110.124" x2="110.124" y1="1641.9609" y2="1654.9609"/><line style="stroke:#181818;stroke-width:1;" x1="69.124" x2="110.124" y1="1654.9609" y2="1654.9609"/><polygon fill="#181818" points="79.124,1650.9609,69.124,1654.9609,79.124,1658.9609,75.124,1654.9609" style="stroke:#181818;stroke-width:1;"/><text fill="#000000" font-family="sans-serif" font-size="13" lengthAdjust="spacing" textLength="119.4121" x="75.124" y="1637.1045">V&#195;&#169;rif mise en page</text><path d="M206.4121,1611.7578 L206.4121,1670.7578 L383.4121,1670.7578 L383.4121,1621.7578 L373.4121,1611.7578 L206.4121,1611.7578 " fill="#FF6B6B" style="stroke:#181818;stroke-width:0.5;"/><path d="M373.4121,1611.7578 L373.4121,1621.7578 L383.4121,1621.7578 L373.4121,1611.7578 " fill="#FF6B6B" style="stroke:#181818;stroke-width:0.5;"/><text fill="#000000" font-family="sans-serif" font-size="13" lengthAdjust="spacing" textLength="156.8062" x="212.4121" y="1630.2529">&#240;&#376;&#8221;&#180; Parfois bugs affichage</text><text fill="#000000" font-family="sans-serif" font-size="13" lengthAdjust="spacing" textLength="129.7207" x="212.4121" y="1646.6045">&#226;&#8224;&#8217; R&#195;&#169;g&#195;&#169;n&#195;&#169;ration</text><text fill="#000000" font-family="sans-serif" font-size="13" lengthAdjust="spacing" textLength="57.5796" x="212.4121" y="1662.9561">&#226;&#65533;&#176; 3 min</text><polygon fill="#181818" points="465.2471,1721.6914,475.2471,1725.6914,465.2471,1729.6914,469.2471,1725.6914" style="stroke:#181818;stroke-width:1;"/><line style="stroke:#181818;stroke-width:1;" x1="68.124" x2="471.2471" y1="1725.6914" y2="1725.6914"/><text fill="#000000" font-family="sans-serif" font-size="13" lengthAdjust="spacing" textLength="138.1948" x="75.124" y="1720.835">R&#195;&#169;daction email client</text><path d="M482,1680.8125 L482,1755.8125 L619,1755.8125 L619,1690.8125 L609,1680.8125 L482,1680.8125 " fill="#FEFFDD" style="stroke:#181818;stroke-width:0.5;"/><path d="M609,1680.8125 L609,1690.8125 L619,1690.8125 L609,1680.8125 " fill="#FEFFDD" style="stroke:#181818;stroke-width:0.5;"/><text fill="#000000" font-family="sans-serif" font-size="13" lengthAdjust="spacing" textLength="116.3335" x="488" y="1699.3076">- Recherche contact</text><text fill="#000000" font-family="sans-serif" font-size="13" lengthAdjust="spacing" textLength="77.4985" x="488" y="1715.6592">- R&#195;&#169;daction</text><text fill="#000000" font-family="sans-serif" font-size="13" lengthAdjust="spacing" textLength="80.9199" x="488" y="1732.0107">- Pi&#195;&#168;ce jointe</text><text fill="#000000" font-family="sans-serif" font-size="13" lengthAdjust="spacing" textLength="57.5796" x="488" y="1748.3623">&#226;&#65533;&#176; 7 min</text><polygon fill="#181818" points="527.2676,1779.5703,537.2676,1783.5703,527.2676,1787.5703,531.2676,1783.5703" style="stroke:#181818;stroke-width:1;"/><line style="stroke:#181818;stroke-width:1;" x1="68.124" x2="533.2676" y1="1783.5703" y2="1783.5703"/><text fill="#000000" font-family="sans-serif" font-size="13" lengthAdjust="spacing" textLength="66.479" x="75.124" y="1778.7139">Envoi devis</text><rect fill="#EEEEEE" height="3" style="stroke:#EEEEEE;stroke-width:1;" width="710.5996" x="0" y="1812.7461"/><line style="stroke:#000000;stroke-width:1;" x1="0" x2="710.5996" y1="1812.7461" y2="1812.7461"/><line style="stroke:#000000;stroke-width:1;" x1="0" x2="710.5996" y1="1815.7461" y2="1815.7461"/><rect fill="#EEEEEE" height="24.3516" style="stroke:#000000;stroke-width:2;" width="57.3291" x="326.6353" y="1801.5703"/><text fill="#000000" font-family="sans-serif" font-size="13" font-weight="bold" lengthAdjust="spacing" textLength="39.7173" x="332.6353" y="1819.0654">BILAN</text><path d="M36,1840.9219 L36,2062.9219 L571,2062.9219 L571,1850.9219 L561,1840.9219 L36,1840.9219 " fill="#FFCCCC" style="stroke:#181818;stroke-width:0.5;"/><path d="M561,1840.9219 L561,1850.9219 L571,1850.9219 L561,1840.9219 " fill="#FFCCCC" style="stroke:#181818;stroke-width:0.5;"/><text fill="#000000" font-family="sans-serif" font-size="13" font-weight="bold" lengthAdjust="spacing" textLength="179.3784" x="188.1726" y="1859.417">M&#195;&#8240;TRIQUES PROCESSUS</text><text fill="#000000" font-family="sans-serif" font-size="13" lengthAdjust="spacing" textLength="111.2427" x="188.1726" y="1875.7686">&#226;&#65533;&#176; Dur&#195;&#169;e totale:</text><text fill="#000000" font-family="sans-serif" font-size="13" font-weight="bold" lengthAdjust="spacing" textLength="29.6309" x="303.0271" y="1875.7686">2h05</text><text fill="#000000" font-family="sans-serif" font-size="13" lengthAdjust="spacing" textLength="3.6118" x="188.1726" y="1892.1201">&#160;</text><text fill="#000000" font-family="sans-serif" font-size="13" lengthAdjust="spacing" textLength="100.6167" x="188.1726" y="1908.4717">D&#195;&#169;composition:</text><text fill="#000000" font-family="sans-serif" font-size="13" lengthAdjust="spacing" textLength="210.2915" x="188.1726" y="1924.8232">&#226;&#8364;&#162; Recherche ancien devis: 45 min</text><text fill="#000000" font-family="sans-serif" font-size="13" lengthAdjust="spacing" textLength="154.6162" x="188.1726" y="1941.1748">&#226;&#8364;&#162; Ouverture MDE: 5 min</text><text fill="#000000" font-family="sans-serif" font-size="13" lengthAdjust="spacing" textLength="152.5024" x="188.1726" y="1957.5264">&#226;&#8364;&#162; Saisie 30 lignes: 1h30</text><text fill="#000000" font-family="sans-serif" font-size="13" lengthAdjust="spacing" textLength="153.3721" x="188.1726" y="1973.8779">&#226;&#8364;&#162; V&#195;&#169;rifications: 15 min</text><text fill="#000000" font-family="sans-serif" font-size="13" lengthAdjust="spacing" textLength="144.5171" x="188.1726" y="1990.2295">&#226;&#8364;&#162; PDF &amp; envoi: 10 min</text><text fill="#000000" font-family="sans-serif" font-size="13" lengthAdjust="spacing" textLength="3.6118" x="188.1726" y="2006.5811">&#160;</text><text fill="#000000" font-family="sans-serif" font-size="13" lengthAdjust="spacing" textLength="27.46" x="188.1726" y="2022.9326">&#240;&#376;&#732;&#164;</text><text fill="#000000" font-family="sans-serif" font-size="13" font-weight="bold" lengthAdjust="spacing" textLength="126.4009" x="219.2444" y="2022.9326">FRUSTRATION: 9/10</text><text fill="#000000" font-family="sans-serif" font-size="13" lengthAdjust="spacing" textLength="221.8188" x="188.1726" y="2039.2842">&#240;&#376;&#8221;&#180; Avec templates: 30 min possible !</text><text fill="#000000" font-family="sans-serif" font-size="13" lengthAdjust="spacing" textLength="206.521" x="188.1726" y="2055.6357">&#195;&#8240;conomie potentielle: 1h35/devis</text><!--SRC=[bLTFRnf75B_pAPw9r6AdE823awpaIcjO4YgmoO9pwcMy3CkuoyvsPnSbDwlv2hrKQgKqwg6LAZM77dAfAc7br6_XBz2lqFTcTc71E4wHi67spPlV_Dxl_I4HIS1X44kFAvKgQCLNhnU_iKJ84DfyBXHKuUhrzUMxaJq2kpKwStfGSTm1zBZFl5VGRpkxfHBp4Xb3kSVIc8V9rs75vIhQ1tioOIBcksLW2hA7SA_JEJvirKiHYnFXYOZXMXdTF1WodsjB_49MXyU7n-jMpakF1-Wzuh6IngjU8klserfjtRejbH9e-NKum6NcqyMKtfG_MRS_JPD0oc-CsnaJGNwjLY0Gk5ut7-6UtMu_TWvBfQCZ-Ehqp8KwqjHBmx609zDQ3OwEIgNCjFfbVdFBU8Kndx5mpF4_qbiAPS8X5lvqvHLW615OJqo4fqEX88hb1K_mKPkU14nOyF1nzL5Z2Yn9U3XEI_W7o5cfb3DTFBh7lGG_0jSGAlKcp4IuktPwnY70rTiFFo_UNFsnUF_lttz1Dvn81NGgiXM98A2FN6q_BsVM0fTxKnxZ6rZe8HFckg34J0GaYesZTR3nw7SVtbzV_hJu4_RsNAVrp77n3Ntx17NNS_RsqAGA7PaY32Gm3oCjDcgr-u1yJPSh0umNqdpE50TFXY4JIY4Mhc-8DrkyWuCQqG2eft6wTgNy7b0jaZYAPJhdDsvI943hqOAMZ0I7GFWXLv2yYhZQJhMHhzPp6F80LqPy5WKimMsaJGJCqfS5O2Yu9zDc3QztYb1Y7LFA5r9S0GOkMUiMT_CzSlg38RIUsUvJf- -SZ3JRELCe6CMHnV5jaTSdzgGlmXBXMUDD5n0lPY4mpqiv2V2WfdRlWcIJiXE-lx__aIDFs5pufbxDU9XYsbDqoZT1zEKu3VBWLHv-mlbEw4aaZwrWhFWOoOG5eBC8BbA5VYAPne3wY4KCEny1l4eCJrU8cqXxWloPfogZQcjI3xrO1W7SXtZfiz8mYNsJ9v8kIxEgS-FCZendgPOpp0LcZI68v5QlJMjDrDiGysUbwKhBxhsmkwwpgwM7XJE20J60-db-vXWpmfvjs4Nk03P1OOtqe6nVo3JXiR4iQyCR-0OoIYF0QiW2wQVakPdvt1f4Ugq2UR0IBum_p-APMM5Hoy3kxEpejLNeja4kr3Ng7G7_L12hZIBa4whiNeuX5rN3L2D4LFHzAvubEQRQZ7cKYgmZRW6LLHnwPQ74DfHoBAHMjbo5vobsGf5GXL-k3MBnSld5vJEX-2VGD6GeDv_5uqmnswFgyadCrHHL-p-YYRQhAAxYjmuAFvHCVaiiWlc9N-IpXOslGZRdnMzeTuTTqsQMojNLwtjeKcYEe34z81PTecYSYeGQunkeuogmEVUMx6ERLJ0wFQFfO0W9JLM_AWXawAyL1yelt4pvzO9SneMMlr7IiywIcs4k15uQtD9Ngj1diS_13-GvqpeoWOIvebxefJ6wzSnwIqwrJrg0RrSAKCNohnlbHwgQhOlWJ5UiHlKWu-wk2klogZSbe6PZ9PjADldH_UufOGerKbFk1-tErhPNBbXYwD5iIpUWpPM7pTigwv9baZkg2cNctpcou9WvaHZsyzJ7xaqfFgLTnEBrvPlhon-CRFoDYnJdaTjPrhEZbGaF1rDYm0npMHjPWIkPJ5ss6HackC6i5hORKGXI9WR-GWfJ57CiZsx7OaPRd6V3kHHPHw5G7NTxzecEoPRCoqVdJgU5BpneRwzlVbcuNUmOGnYufordE3mRhWqUxLJ_8k6GKCVb5cvhO4D2ctmOzkGiaahGbIn3zdU_BzxUCe3YsAn5LZ1S6vCis7oS5SjbFR1qjXSCDXFNWlgc3rBRPoWZfClASocJpZy_Bdx1EtNSi-78jKVTqnCBdZoermm9grc8YakIpuRMSdAbEVKSnnfgNMRCag6S2Hf7g3uANTy9SVE1YTCoeFy1]--></g></svg>