<svg xmlns="http://www.w3.org/2000/svg" xmlns:xlink="http://www.w3.org/1999/xlink" contentStyleType="text/css" height="536px" preserveAspectRatio="none" style="width:408px;height:536px;background:#FFFFFF;" version="1.1" viewBox="0 0 408 536" width="408px" zoomAndPan="magnify"><title>Gantt - Comparaison Processus DEVIS ACTUEL vs CIBLE</title><defs/><g><text fill="#000000" font-family="sans-serif" font-size="14" font-weight="bold" lengthAdjust="spacing" textLength="385.082" x="10" y="24.5332">Gantt - Comparaison Processus DEVIS ACTUEL vs CIBLE</text><rect fill="#D3D3D3" height="39" style="stroke:none;stroke-width:1;" width="48" x="179.041" y="38.6094"/><rect fill="#D3D3D3" height="40" style="stroke:none;stroke-width:1;" width="48" x="179.041" y="493.8359"/><text fill="#000000" font-family="sans-serif" font-size="10" lengthAdjust="spacing" textLength="13.8916" x="180.0952" y="62.9902">Mo</text><text fill="#000000" font-family="sans-serif" font-size="10" lengthAdjust="spacing" textLength="11.6699" x="197.2061" y="62.9902">Tu</text><text fill="#000000" font-family="sans-serif" font-size="10" lengthAdjust="spacing" textLength="15" x="211.541" y="62.9902">We</text><text fill="#000000" font-family="sans-serif" font-size="10" lengthAdjust="spacing" textLength="5.5615" x="184.2603" y="74.9902">8</text><text fill="#000000" font-family="sans-serif" font-size="10" lengthAdjust="spacing" textLength="5.5615" x="200.2603" y="74.9902">9</text><text fill="#000000" font-family="sans-serif" font-size="10" lengthAdjust="spacing" textLength="11.123" x="213.4795" y="74.9902">10</text><text fill="#000000" font-family="sans-serif" font-size="12" font-weight="bold" lengthAdjust="spacing" textLength="46.0254" x="180.0283" y="51.0664">January</text><line style="stroke:#C0C0C0;stroke-width:1;" x1="179.041" x2="179.041" y1="77.6094" y2="493.8359"/><line style="stroke:#C0C0C0;stroke-width:1;" x1="195.041" x2="195.041" y1="77.6094" y2="493.8359"/><line style="stroke:#C0C0C0;stroke-width:1;" x1="211.041" x2="211.041" y1="77.6094" y2="493.8359"/><line style="stroke:#C0C0C0;stroke-width:1;" x1="227.041" x2="227.041" y1="77.6094" y2="493.8359"/><line style="stroke:#C0C0C0;stroke-width:1;" x1="179.041" x2="227.041" y1="77.6094" y2="77.6094"/><line style="stroke:#C0C0C0;stroke-width:1;" x1="179.041" x2="227.041" y1="493.8359" y2="493.8359"/><line style="stroke:#181818;stroke-width:1.5;" x1="178.041" x2="170.041" y1="138.1992" y2="138.1992"/><line style="stroke:#181818;stroke-width:1.5;" x1="170.041" x2="170.041" y1="138.1992" y2="156.0352"/><line style="stroke:#181818;stroke-width:1.5;" x1="170.041" x2="178.041" y1="156.0352" y2="156.0352"/><polygon fill="#181818" points="174.041,152.0352,174.041,156.0352,174.041,160.0352,178.041,156.0352" style="stroke:#181818;stroke-width:1.5;"/><line style="stroke:#181818;stroke-width:1.5;" x1="178.041" x2="170.041" y1="156.0352" y2="156.0352"/><line style="stroke:#181818;stroke-width:1.5;" x1="170.041" x2="170.041" y1="156.0352" y2="173.8711"/><line style="stroke:#181818;stroke-width:1.5;" x1="170.041" x2="178.041" y1="173.8711" y2="173.8711"/><polygon fill="#181818" points="174.041,169.8711,174.041,173.8711,174.041,177.8711,178.041,173.8711" style="stroke:#181818;stroke-width:1.5;"/><line style="stroke:#181818;stroke-width:1.5;" x1="178.041" x2="170.041" y1="173.8711" y2="173.8711"/><line style="stroke:#181818;stroke-width:1.5;" x1="170.041" x2="170.041" y1="173.8711" y2="191.707"/><line style="stroke:#181818;stroke-width:1.5;" x1="170.041" x2="178.041" y1="191.707" y2="191.707"/><polygon fill="#181818" points="174.041,187.707,174.041,191.707,174.041,195.707,178.041,191.707" style="stroke:#181818;stroke-width:1.5;"/><line style="stroke:#181818;stroke-width:1.5;" x1="178.041" x2="170.041" y1="191.707" y2="191.707"/><line style="stroke:#181818;stroke-width:1.5;" x1="170.041" x2="170.041" y1="191.707" y2="209.543"/><line style="stroke:#181818;stroke-width:1.5;" x1="170.041" x2="178.041" y1="209.543" y2="209.543"/><polygon fill="#181818" points="174.041,205.543,174.041,209.543,174.041,213.543,178.041,209.543" style="stroke:#181818;stroke-width:1.5;"/><line style="stroke:#181818;stroke-width:1.5;" x1="178.041" x2="170.041" y1="209.543" y2="209.543"/><line style="stroke:#181818;stroke-width:1.5;" x1="170.041" x2="170.041" y1="209.543" y2="227.3789"/><line style="stroke:#181818;stroke-width:1.5;" x1="170.041" x2="178.041" y1="227.3789" y2="227.3789"/><polygon fill="#181818" points="174.041,223.3789,174.041,227.3789,174.041,231.3789,178.041,227.3789" style="stroke:#181818;stroke-width:1.5;"/><line style="stroke:#181818;stroke-width:1.5;" x1="210.041" x2="202.041" y1="279.0508" y2="279.0508"/><line style="stroke:#181818;stroke-width:1.5;" x1="202.041" x2="202.041" y1="279.0508" y2="296.8867"/><line style="stroke:#181818;stroke-width:1.5;" x1="202.041" x2="210.041" y1="296.8867" y2="296.8867"/><polygon fill="#181818" points="206.041,292.8867,206.041,296.8867,206.041,300.8867,210.041,296.8867" style="stroke:#181818;stroke-width:1.5;"/><line style="stroke:#181818;stroke-width:1.5;" x1="210.041" x2="202.041" y1="296.8867" y2="296.8867"/><line style="stroke:#181818;stroke-width:1.5;" x1="202.041" x2="202.041" y1="296.8867" y2="314.7227"/><line style="stroke:#181818;stroke-width:1.5;" x1="202.041" x2="210.041" y1="314.7227" y2="314.7227"/><polygon fill="#181818" points="206.041,310.7227,206.041,314.7227,206.041,318.7227,210.041,314.7227" style="stroke:#181818;stroke-width:1.5;"/><line style="stroke:#181818;stroke-width:1.5;" x1="210.041" x2="202.041" y1="314.7227" y2="314.7227"/><line style="stroke:#181818;stroke-width:1.5;" x1="202.041" x2="202.041" y1="314.7227" y2="332.5586"/><line style="stroke:#181818;stroke-width:1.5;" x1="202.041" x2="210.041" y1="332.5586" y2="332.5586"/><polygon fill="#181818" points="206.041,328.5586,206.041,332.5586,206.041,336.5586,210.041,332.5586" style="stroke:#181818;stroke-width:1.5;"/><line style="stroke:#181818;stroke-width:1.5;" x1="210.041" x2="202.041" y1="332.5586" y2="332.5586"/><line style="stroke:#181818;stroke-width:1.5;" x1="202.041" x2="202.041" y1="332.5586" y2="350.3945"/><line style="stroke:#181818;stroke-width:1.5;" x1="202.041" x2="210.041" y1="350.3945" y2="350.3945"/><polygon fill="#181818" points="206.041,346.3945,206.041,350.3945,206.041,354.3945,210.041,350.3945" style="stroke:#181818;stroke-width:1.5;"/><rect fill="#FF0000" height="13.8359" style="stroke:none;stroke-width:1;" width="12" x="181.041" y="79.6094"/><line style="stroke:#FF0000;stroke-width:1;" x1="181.041" x2="193.041" y1="79.6094" y2="79.6094"/><line style="stroke:#FF0000;stroke-width:1;" x1="181.041" x2="193.041" y1="93.4453" y2="93.4453"/><line style="stroke:#FF0000;stroke-width:1;" x1="181.041" x2="181.041" y1="79.6094" y2="93.4453"/><line style="stroke:#FF0000;stroke-width:1;" x1="193.041" x2="193.041" y1="79.6094" y2="93.4453"/><line style="stroke:#181818;stroke-width:1;" x1="179.041" x2="184.041" y1="112.3633" y2="112.3633"/><line style="stroke:#181818;stroke-width:1;" x1="298.6108" x2="226.041" y1="112.3633" y2="112.3633"/><rect fill="#FFB6C1" height="13.8359" style="stroke:none;stroke-width:1;" width="12" x="181.041" y="131.2813"/><line style="stroke:#FFB6C1;stroke-width:1;" x1="181.041" x2="193.041" y1="131.2813" y2="131.2813"/><line style="stroke:#FFB6C1;stroke-width:1;" x1="181.041" x2="193.041" y1="145.1172" y2="145.1172"/><line style="stroke:#FFB6C1;stroke-width:1;" x1="181.041" x2="181.041" y1="131.2813" y2="145.1172"/><line style="stroke:#FFB6C1;stroke-width:1;" x1="193.041" x2="193.041" y1="131.2813" y2="145.1172"/><rect fill="#FF0000" height="13.8359" style="stroke:none;stroke-width:1;" width="12" x="181.041" y="149.1172"/><line style="stroke:#FF0000;stroke-width:1;" x1="181.041" x2="193.041" y1="149.1172" y2="149.1172"/><line style="stroke:#FF0000;stroke-width:1;" x1="181.041" x2="193.041" y1="162.9531" y2="162.9531"/><line style="stroke:#FF0000;stroke-width:1;" x1="181.041" x2="181.041" y1="149.1172" y2="162.9531"/><line style="stroke:#FF0000;stroke-width:1;" x1="193.041" x2="193.041" y1="149.1172" y2="162.9531"/><rect fill="#FFA500" height="13.8359" style="stroke:none;stroke-width:1;" width="12" x="181.041" y="166.9531"/><line style="stroke:#FFA500;stroke-width:1;" x1="181.041" x2="193.041" y1="166.9531" y2="166.9531"/><line style="stroke:#FFA500;stroke-width:1;" x1="181.041" x2="193.041" y1="180.7891" y2="180.7891"/><line style="stroke:#FFA500;stroke-width:1;" x1="181.041" x2="181.041" y1="166.9531" y2="180.7891"/><line style="stroke:#FFA500;stroke-width:1;" x1="193.041" x2="193.041" y1="166.9531" y2="180.7891"/><rect fill="#FF0000" height="13.8359" style="stroke:none;stroke-width:1;" width="12" x="181.041" y="184.7891"/><line style="stroke:#FF0000;stroke-width:1;" x1="181.041" x2="193.041" y1="184.7891" y2="184.7891"/><line style="stroke:#FF0000;stroke-width:1;" x1="181.041" x2="193.041" y1="198.625" y2="198.625"/><line style="stroke:#FF0000;stroke-width:1;" x1="181.041" x2="181.041" y1="184.7891" y2="198.625"/><line style="stroke:#FF0000;stroke-width:1;" x1="193.041" x2="193.041" y1="184.7891" y2="198.625"/><rect fill="#FFA500" height="13.8359" style="stroke:none;stroke-width:1;" width="12" x="181.041" y="202.625"/><line style="stroke:#FFA500;stroke-width:1;" x1="181.041" x2="193.041" y1="202.625" y2="202.625"/><line style="stroke:#FFA500;stroke-width:1;" x1="181.041" x2="193.041" y1="216.4609" y2="216.4609"/><line style="stroke:#FFA500;stroke-width:1;" x1="181.041" x2="181.041" y1="202.625" y2="216.4609"/><line style="stroke:#FFA500;stroke-width:1;" x1="193.041" x2="193.041" y1="202.625" y2="216.4609"/><rect fill="#90EE90" height="13.8359" style="stroke:none;stroke-width:1;" width="12" x="181.041" y="220.4609"/><line style="stroke:#90EE90;stroke-width:1;" x1="181.041" x2="193.041" y1="220.4609" y2="220.4609"/><line style="stroke:#90EE90;stroke-width:1;" x1="181.041" x2="193.041" y1="234.2969" y2="234.2969"/><line style="stroke:#90EE90;stroke-width:1;" x1="181.041" x2="181.041" y1="220.4609" y2="234.2969"/><line style="stroke:#90EE90;stroke-width:1;" x1="193.041" x2="193.041" y1="220.4609" y2="234.2969"/><line style="stroke:#181818;stroke-width:1;" x1="179.041" x2="184.041" y1="253.2148" y2="253.2148"/><line style="stroke:#181818;stroke-width:1;" x1="297.9609" x2="226.041" y1="253.2148" y2="253.2148"/><rect fill="#008000" height="13.8359" style="stroke:none;stroke-width:1;" width="12" x="213.041" y="272.1328"/><line style="stroke:#008000;stroke-width:1;" x1="213.041" x2="225.041" y1="272.1328" y2="272.1328"/><line style="stroke:#008000;stroke-width:1;" x1="213.041" x2="225.041" y1="285.9688" y2="285.9688"/><line style="stroke:#008000;stroke-width:1;" x1="213.041" x2="213.041" y1="272.1328" y2="285.9688"/><line style="stroke:#008000;stroke-width:1;" x1="225.041" x2="225.041" y1="272.1328" y2="285.9688"/><rect fill="#90EE90" height="13.8359" style="stroke:none;stroke-width:1;" width="12" x="213.041" y="289.9688"/><line style="stroke:#90EE90;stroke-width:1;" x1="213.041" x2="225.041" y1="289.9688" y2="289.9688"/><line style="stroke:#90EE90;stroke-width:1;" x1="213.041" x2="225.041" y1="303.8047" y2="303.8047"/><line style="stroke:#90EE90;stroke-width:1;" x1="213.041" x2="213.041" y1="289.9688" y2="303.8047"/><line style="stroke:#90EE90;stroke-width:1;" x1="225.041" x2="225.041" y1="289.9688" y2="303.8047"/><rect fill="#90EE90" height="13.8359" style="stroke:none;stroke-width:1;" width="12" x="213.041" y="307.8047"/><line style="stroke:#90EE90;stroke-width:1;" x1="213.041" x2="225.041" y1="307.8047" y2="307.8047"/><line style="stroke:#90EE90;stroke-width:1;" x1="213.041" x2="225.041" y1="321.6406" y2="321.6406"/><line style="stroke:#90EE90;stroke-width:1;" x1="213.041" x2="213.041" y1="307.8047" y2="321.6406"/><line style="stroke:#90EE90;stroke-width:1;" x1="225.041" x2="225.041" y1="307.8047" y2="321.6406"/><rect fill="#90EE90" height="13.8359" style="stroke:none;stroke-width:1;" width="12" x="213.041" y="325.6406"/><line style="stroke:#90EE90;stroke-width:1;" x1="213.041" x2="225.041" y1="325.6406" y2="325.6406"/><line style="stroke:#90EE90;stroke-width:1;" x1="213.041" x2="225.041" y1="339.4766" y2="339.4766"/><line style="stroke:#90EE90;stroke-width:1;" x1="213.041" x2="213.041" y1="325.6406" y2="339.4766"/><line style="stroke:#90EE90;stroke-width:1;" x1="225.041" x2="225.041" y1="325.6406" y2="339.4766"/><path d="M211.041,359.3125 L211.041,493.8359 L375.5796,493.8359 L375.5796,369.3125 L365.5796,359.3125 L211.041,359.3125 " fill="#FEFFDD" style="stroke:#181818;stroke-width:0.5;"/><path d="M365.5796,359.3125 L365.5796,369.3125 L375.5796,369.3125 L365.5796,359.3125 " fill="#FEFFDD" style="stroke:#181818;stroke-width:0.5;"/><text fill="#000000" font-family="sans-serif" font-size="9" font-weight="bold" lengthAdjust="spacing" textLength="68.502" x="217.041" y="373.6553">COMPARAISON</text><text fill="#000000" font-family="sans-serif" font-size="9" lengthAdjust="spacing" textLength="55.8633" x="217.041" y="384.9756">&#226;&#65533;&#176; ACTUEL:</text><text fill="#000000" font-family="sans-serif" font-size="9" font-weight="bold" lengthAdjust="spacing" textLength="20.5137" x="275.4048" y="384.9756">2h05</text><text fill="#000000" font-family="sans-serif" font-size="9" lengthAdjust="spacing" textLength="38.0127" x="298.4189" y="384.9756">(125 min)</text><text fill="#000000" font-family="sans-serif" font-size="9" lengthAdjust="spacing" textLength="46.3667" x="217.041" y="396.2959">&#226;&#65533;&#176; CIBLE:</text><text fill="#000000" font-family="sans-serif" font-size="9" font-weight="bold" lengthAdjust="spacing" textLength="28.5117" x="265.9082" y="396.2959">31 min</text><text fill="#000000" font-family="sans-serif" font-size="9" lengthAdjust="spacing" textLength="2.5005" x="217.041" y="407.6162">&#160;</text><text fill="#000000" font-family="sans-serif" font-size="9" lengthAdjust="spacing" textLength="143.5386" x="217.041" y="418.9365">&#240;&#376;&#8220;&#352; AMELIORATION: -75% temps</text><text fill="#000000" font-family="sans-serif" font-size="9" lengthAdjust="spacing" textLength="104.0493" x="217.041" y="430.2568">- Templates automatiques</text><text fill="#000000" font-family="sans-serif" font-size="9" lengthAdjust="spacing" textLength="75.5288" x="217.041" y="441.5771">- Auto-remplissage</text><text fill="#000000" font-family="sans-serif" font-size="9" lengthAdjust="spacing" textLength="92.0522" x="217.041" y="452.8975">- Interface rapide cloud</text><text fill="#000000" font-family="sans-serif" font-size="9" lengthAdjust="spacing" textLength="2.5005" x="217.041" y="464.2178">&#160;</text><text fill="#000000" font-family="sans-serif" font-size="9" lengthAdjust="spacing" textLength="125.0508" x="217.041" y="475.5381">&#240;&#376;&#732;&#164; ACTUEL: Frustration 9/10</text><text fill="#000000" font-family="sans-serif" font-size="9" lengthAdjust="spacing" textLength="120.063" x="217.041" y="486.8584">&#240;&#376;&#732;&#352; CIBLE: Satisfaction 9/10</text><rect fill="#90EE90" height="13.8359" style="stroke:none;stroke-width:1;" width="12" x="213.041" y="343.4766"/><line style="stroke:#90EE90;stroke-width:1;" x1="213.041" x2="225.041" y1="343.4766" y2="343.4766"/><line style="stroke:#90EE90;stroke-width:1;" x1="213.041" x2="225.041" y1="357.3125" y2="357.3125"/><line style="stroke:#90EE90;stroke-width:1;" x1="213.041" x2="213.041" y1="343.4766" y2="357.3125"/><line style="stroke:#90EE90;stroke-width:1;" x1="225.041" x2="225.041" y1="343.4766" y2="357.3125"/><text fill="#000000" font-family="sans-serif" font-size="11" lengthAdjust="spacing" textLength="150.3799" x="197.041" y="91.0283">PROCESSUS ACTUEL (2h05)</text><text fill="#000000" font-family="sans-serif" font-size="11" lengthAdjust="spacing" textLength="104.5698" x="189.041" y="116.8643">Jour 1 - Lundi 9h-12h</text><text fill="#000000" font-family="sans-serif" font-size="11" lengthAdjust="spacing" textLength="124.7222" x="197.041" y="142.7002">Laurent: Lit email (15min)</text><text fill="#000000" font-family="sans-serif" font-size="11" lengthAdjust="spacing" textLength="182.2036" x="197.041" y="160.5361">Laurent: Recherche template (45min)</text><text fill="#000000" font-family="sans-serif" font-size="11" lengthAdjust="spacing" textLength="135.0991" x="197.041" y="178.3721">Laurent: Ouvre MDE (5min)</text><text fill="#000000" font-family="sans-serif" font-size="11" lengthAdjust="spacing" textLength="152.2598" x="197.041" y="196.208">Laurent: Saisit 30 lignes (1h30)</text><text fill="#000000" font-family="sans-serif" font-size="11" lengthAdjust="spacing" textLength="143.6768" x="197.041" y="214.0439">Laurent: Verifications (15min)</text><text fill="#000000" font-family="sans-serif" font-size="11" lengthAdjust="spacing" textLength="145.5083" x="197.041" y="231.8799">Laurent: PDF &amp; envoi (10min)</text><text fill="#000000" font-family="sans-serif" font-size="11" lengthAdjust="spacing" textLength="103.9199" x="189.041" y="257.7158">PROCESSUS CIBLE</text><text fill="#000000" font-family="sans-serif" font-size="11" lengthAdjust="spacing" textLength="147.3184" x="229.041" y="283.5518">PROCESSUS CIBLE (31 min)</text><text fill="#000000" font-family="sans-serif" font-size="11" lengthAdjust="spacing" textLength="156.5137" x="229.041" y="301.3877">Laurent: Choisit template (2min)</text><text fill="#000000" font-family="sans-serif" font-size="11" lengthAdjust="spacing" textLength="126.543" x="229.041" y="319.2236">Odoo: Auto-remplit (5min)</text><text fill="#000000" font-family="sans-serif" font-size="11" lengthAdjust="spacing" textLength="144.2891" x="229.041" y="337.0596">Laurent: Ajustements (15min)</text><text fill="#000000" font-family="sans-serif" font-size="11" lengthAdjust="spacing" textLength="149.7998" x="229.041" y="354.8955">Odoo: Genere &amp; envoie (4min)</text><text fill="#000000" font-family="sans-serif" font-size="10" lengthAdjust="spacing" textLength="13.8916" x="180.0952" y="504.2168">Mo</text><text fill="#000000" font-family="sans-serif" font-size="10" lengthAdjust="spacing" textLength="11.6699" x="197.2061" y="504.2168">Tu</text><text fill="#000000" font-family="sans-serif" font-size="10" lengthAdjust="spacing" textLength="15" x="211.541" y="504.2168">We</text><text fill="#000000" font-family="sans-serif" font-size="10" lengthAdjust="spacing" textLength="5.5615" x="184.2603" y="518.2168">8</text><text fill="#000000" font-family="sans-serif" font-size="10" lengthAdjust="spacing" textLength="5.5615" x="200.2603" y="518.2168">9</text><text fill="#000000" font-family="sans-serif" font-size="10" lengthAdjust="spacing" textLength="11.123" x="213.4795" y="518.2168">10</text><text fill="#000000" font-family="sans-serif" font-size="12" font-weight="bold" lengthAdjust="spacing" textLength="46.0254" x="180.0283" y="533.293">January</text><!--SRC=[bLN1Rjj64BtlLymbgIo02Kb9hYC4GMIATcLGbY3AlXY1iIRNqYRKhhgx520K0VeXEHH5Fo37N8e2ANBgN-G7yWkTNKaMuRICSv14pJxkcpVpPlUbDbIP6HN6mAdzlexaOaaLvLgAwrvcIbPSH_ocO8GORWgsGO475HoCbSoOrgM6VdmvIA4NJI_Y15OQei5n4XEoL5mOdL5yFwUyM1FoN9jrmLuGHztdTARe0duX08OlMC45Sty0ZcdsPgPaAV985b91mMTpW-0rhhubRydpfzkD22RnccK6d28DeH-sFJ_m_2D2hiQJKHIdwSLTQermxdSENW7LSBK9lOA2Qdmlm0pNG4KEN4DcEHa-2fYmd13FWpDPAWHva61E79xDlI2SW-UHguIMYWdJXOGRO0lK2OsWi-1YnnDyYoEnuiPSlAbiDc7Pd2dyW66BPK4DWqQxkcluzQxR4b3ZI7_Gcy3_YDfJZSgLOZ3inz2e4hJg2S8wWf6YOiOg72aw1ilJycqd1TDOeddBtr6rwwbQ3zTooHI_vHarN0fzhm-TUfRsTmaQzq_WCJ2naXnf_0hDOJrDfux6EU5KCIQSwVR-TGFbx7O_rcW5i6TtiRe4TlCH-Fz1lsNUgupcqlLjxy6mmXNKAjsayZ2nLwDSoYxqIYCzPRcGish6gDxjKV1GdZjblTUbHbNuVCycKRtle_3x99qomN2wjbQnGroXglTzr7geLOJ4rjn8O-G2pyTcCneDnxr9Rv2EpfjDZFpz-vU__lpuVdiATX5Xpy5c4vM77UUU2iZrpM8sni8DxEBxJny-__hkqs_G6yR9O3JfJGUZyovuFtOUENTe17amtVe41M0h5pY6FvTiirJfhTOKPya61y8mTKip1eekUSuWAsIPxmZ_UVVnZxkSJnGsJBd1XcTF0_yEWpbjKqvnLUDkUmp3ijdY4F8I7zsbWpT6WRyNGxoecD8M6ZonK_7ag76YE9pB5GGT28wwxNQtVGXHF7L3Sq0Qf-C4DDu3c6xECHb-Krgg0t96LnGcfR2NM1VilyPqU01fl0j2B5PSIM7zHiukXniG_2HDkfJ6WG_RtZ6wFcKAquBB8UcpMreM1b_DPCx53ATnYUqAIO97KOaLxCAj8X7UaKQjiJwJVm40]--></g></svg>