<svg xmlns="http://www.w3.org/2000/svg" xmlns:xlink="http://www.w3.org/1999/xlink" contentStyleType="text/css" height="2122px" preserveAspectRatio="none" style="width:881px;height:2122px;background:#FFFFFF;" version="1.1" viewBox="0 0 881 2122" width="881px" zoomAndPan="magnify"><title>Processus G&#195;&#169;n&#195;&#169;ration PPSPS - &#195;&#8240;TAT ACTUEL (Word Manuel)</title><defs/><g><text fill="#000000" font-family="sans-serif" font-size="14" font-weight="bold" lengthAdjust="spacing" textLength="453.373" x="210.1025" y="29.5332">Processus G&#195;&#169;n&#195;&#169;ration PPSPS - &#195;&#8240;TAT ACTUEL (Word Manuel)</text><rect fill="none" height="131.7578" style="stroke:#000000;stroke-width:1.5;" width="472.312" x="54" y="440.0469"/><line style="stroke:#181818;stroke-width:0.5;stroke-dasharray:5.0,5.0;" x1="112" x2="112" y1="138.8281" y2="2022.2813"/><line style="stroke:#181818;stroke-width:0.5;stroke-dasharray:5.0,5.0;" x1="416.9624" x2="416.9624" y1="138.8281" y2="2022.2813"/><line style="stroke:#181818;stroke-width:0.5;stroke-dasharray:5.0,5.0;" x1="491.8638" x2="491.8638" y1="138.8281" y2="2022.2813"/><line style="stroke:#181818;stroke-width:0.5;stroke-dasharray:5.0,5.0;" x1="550.312" x2="550.312" y1="138.8281" y2="2022.2813"/><line style="stroke:#181818;stroke-width:0.5;stroke-dasharray:5.0,5.0;" x1="646.5464" x2="646.5464" y1="138.8281" y2="2022.2813"/><line style="stroke:#181818;stroke-width:0.5;stroke-dasharray:5.0,5.0;" x1="781.7783" x2="781.7783" y1="138.8281" y2="2022.2813"/><line style="stroke:#181818;stroke-width:0.5;stroke-dasharray:5.0,5.0;" x1="836.7852" x2="836.7852" y1="138.8281" y2="2022.2813"/><text fill="#000000" font-family="sans-serif" font-size="14" lengthAdjust="spacing" textLength="47.4824" x="85.3828" y="118.1426">Laurent</text><text fill="#000000" font-family="sans-serif" font-size="14" lengthAdjust="spacing" textLength="90.248" x="64" y="135.752">(Resp. Affaire)</text><ellipse cx="112.124" cy="52.1094" fill="#FFB6C1" rx="8" ry="8" style="stroke:#181818;stroke-width:0.5;"/><path d="M112.124,60.1094 L112.124,87.1094 M99.124,68.1094 L125.124,68.1094 M112.124,87.1094 L99.124,102.1094 M112.124,87.1094 L125.124,102.1094 " fill="none" style="stroke:#181818;stroke-width:0.5;"/><text fill="#000000" font-family="sans-serif" font-size="14" lengthAdjust="spacing" textLength="47.4824" x="85.3828" y="2035.8145">Laurent</text><text fill="#000000" font-family="sans-serif" font-size="14" lengthAdjust="spacing" textLength="90.248" x="64" y="2053.4238">(Resp. Affaire)</text><ellipse cx="112.124" cy="2065" fill="#FFB6C1" rx="8" ry="8" style="stroke:#181818;stroke-width:0.5;"/><path d="M112.124,2073 L112.124,2100 M99.124,2081 L125.124,2081 M112.124,2100 L99.124,2115 M112.124,2100 L125.124,2115 " fill="none" style="stroke:#181818;stroke-width:0.5;"/><rect fill="#E2E2F0" height="49.2188" rx="2.5" ry="2.5" style="stroke:#181818;stroke-width:0.5;" width="81.9014" x="376.9624" y="88.6094"/><text fill="#000000" font-family="sans-serif" font-size="14" lengthAdjust="spacing" textLength="54.4551" x="390.6855" y="110.1426">Dossiers</text><text fill="#000000" font-family="sans-serif" font-size="14" lengthAdjust="spacing" textLength="67.9014" x="383.9624" y="127.752">Partag&#195;&#169;s</text><rect fill="#E2E2F0" height="49.2188" rx="2.5" ry="2.5" style="stroke:#181818;stroke-width:0.5;" width="81.9014" x="376.9624" y="2021.2813"/><text fill="#000000" font-family="sans-serif" font-size="14" lengthAdjust="spacing" textLength="54.4551" x="390.6855" y="2042.8145">Dossiers</text><text fill="#000000" font-family="sans-serif" font-size="14" lengthAdjust="spacing" textLength="67.9014" x="383.9624" y="2060.4238">Partag&#195;&#169;s</text><rect fill="#4169E1" height="31.6094" rx="2.5" ry="2.5" style="stroke:#181818;stroke-width:0.5;" width="47.4482" x="468.8638" y="106.2188"/><text fill="#000000" font-family="sans-serif" font-size="14" lengthAdjust="spacing" textLength="33.4482" x="475.8638" y="127.752">Word</text><rect fill="#4169E1" height="31.6094" rx="2.5" ry="2.5" style="stroke:#181818;stroke-width:0.5;" width="47.4482" x="468.8638" y="2021.2813"/><text fill="#000000" font-family="sans-serif" font-size="14" lengthAdjust="spacing" textLength="33.4482" x="475.8638" y="2042.8145">Word</text><rect fill="#FFD700" height="31.6094" rx="2.5" ry="2.5" style="stroke:#181818;stroke-width:0.5;" width="48.2344" x="526.312" y="106.2188"/><text fill="#000000" font-family="sans-serif" font-size="14" lengthAdjust="spacing" textLength="34.2344" x="533.312" y="127.752">Excel</text><rect fill="#FFD700" height="31.6094" rx="2.5" ry="2.5" style="stroke:#181818;stroke-width:0.5;" width="48.2344" x="526.312" y="2021.2813"/><text fill="#000000" font-family="sans-serif" font-size="14" lengthAdjust="spacing" textLength="34.2344" x="533.312" y="2042.8145">Excel</text><text fill="#000000" font-family="sans-serif" font-size="14" lengthAdjust="spacing" textLength="50.5723" x="618.7021" y="118.1426">Thomas</text><text fill="#000000" font-family="sans-serif" font-size="14" lengthAdjust="spacing" textLength="118.8838" x="584.5464" y="135.752">(Bureau &#195;&#8240;tudes)</text><ellipse cx="646.9883" cy="52.1094" fill="#98FB98" rx="8" ry="8" style="stroke:#181818;stroke-width:0.5;"/><path d="M646.9883,60.1094 L646.9883,87.1094 M633.9883,68.1094 L659.9883,68.1094 M646.9883,87.1094 L633.9883,102.1094 M646.9883,87.1094 L659.9883,102.1094 " fill="none" style="stroke:#181818;stroke-width:0.5;"/><text fill="#000000" font-family="sans-serif" font-size="14" lengthAdjust="spacing" textLength="50.5723" x="618.7021" y="2035.8145">Thomas</text><text fill="#000000" font-family="sans-serif" font-size="14" lengthAdjust="spacing" textLength="118.8838" x="584.5464" y="2053.4238">(Bureau &#195;&#8240;tudes)</text><ellipse cx="646.9883" cy="2065" fill="#98FB98" rx="8" ry="8" style="stroke:#181818;stroke-width:0.5;"/><path d="M646.9883,2073 L646.9883,2100 M633.9883,2081 L659.9883,2081 M646.9883,2100 L633.9883,2115 M646.9883,2100 L659.9883,2115 " fill="none" style="stroke:#181818;stroke-width:0.5;"/><rect fill="#E2E2F0" height="31.6094" rx="2.5" ry="2.5" style="stroke:#181818;stroke-width:0.5;" width="49.0068" x="757.7783" y="106.2188"/><text fill="#000000" font-family="sans-serif" font-size="14" lengthAdjust="spacing" textLength="35.0068" x="764.7783" y="127.752">Email</text><rect fill="#E2E2F0" height="31.6094" rx="2.5" ry="2.5" style="stroke:#181818;stroke-width:0.5;" width="49.0068" x="757.7783" y="2021.2813"/><text fill="#000000" font-family="sans-serif" font-size="14" lengthAdjust="spacing" textLength="35.0068" x="764.7783" y="2042.8145">Email</text><text fill="#000000" font-family="sans-serif" font-size="14" lengthAdjust="spacing" textLength="35.793" x="816.7852" y="135.752">Client</text><ellipse cx="837.6816" cy="69.7188" fill="#ADD8E6" rx="8" ry="8" style="stroke:#181818;stroke-width:0.5;"/><path d="M837.6816,77.7188 L837.6816,104.7188 M824.6816,85.7188 L850.6816,85.7188 M837.6816,104.7188 L824.6816,119.7188 M837.6816,104.7188 L850.6816,119.7188 " fill="none" style="stroke:#181818;stroke-width:0.5;"/><text fill="#000000" font-family="sans-serif" font-size="14" lengthAdjust="spacing" textLength="35.793" x="816.7852" y="2035.8145">Client</text><ellipse cx="837.6816" cy="2047.3906" fill="#ADD8E6" rx="8" ry="8" style="stroke:#181818;stroke-width:0.5;"/><path d="M837.6816,2055.3906 L837.6816,2082.3906 M824.6816,2063.3906 L850.6816,2063.3906 M837.6816,2082.3906 L824.6816,2097.3906 M837.6816,2082.3906 L850.6816,2097.3906 " fill="none" style="stroke:#181818;stroke-width:0.5;"/><rect fill="#EEEEEE" height="3" style="stroke:#EEEEEE;stroke-width:1;" width="874.5781" x="0" y="170.0039"/><line style="stroke:#000000;stroke-width:1;" x1="0" x2="874.5781" y1="170.0039" y2="170.0039"/><line style="stroke:#000000;stroke-width:1;" x1="0" x2="874.5781" y1="173.0039" y2="173.0039"/><rect fill="#EEEEEE" height="24.3516" style="stroke:#000000;stroke-width:2;" width="189.5762" x="342.501" y="158.8281"/><text fill="#000000" font-family="sans-serif" font-size="13" font-weight="bold" lengthAdjust="spacing" textLength="171.9644" x="348.501" y="176.3232">14h00 - Recherche template</text><line style="stroke:#181818;stroke-width:1;" x1="112.124" x2="154.124" y1="220.207" y2="220.207"/><line style="stroke:#181818;stroke-width:1;" x1="154.124" x2="154.124" y1="220.207" y2="233.207"/><line style="stroke:#181818;stroke-width:1;" x1="113.124" x2="154.124" y1="233.207" y2="233.207"/><polygon fill="#181818" points="123.124,229.207,113.124,233.207,123.124,237.207,119.124,233.207" style="stroke:#181818;stroke-width:1;"/><text fill="#000000" font-family="sans-serif" font-size="13" lengthAdjust="spacing" textLength="171.6152" x="119.124" y="215.3506">Nouvelle affaire d&#195;&#169;marr&#195;&#169;e</text><path d="M302.6152,198.1797 L302.6152,240.1797 L427.6152,240.1797 L427.6152,208.1797 L417.6152,198.1797 L302.6152,198.1797 " fill="#FEFFDD" style="stroke:#181818;stroke-width:0.5;"/><path d="M417.6152,198.1797 L417.6152,208.1797 L427.6152,208.1797 L417.6152,198.1797 " fill="#FEFFDD" style="stroke:#181818;stroke-width:0.5;"/><text fill="#000000" font-family="sans-serif" font-size="13" lengthAdjust="spacing" textLength="90.3271" x="308.6152" y="216.6748">Besoin: PPSPS</text><text fill="#000000" font-family="sans-serif" font-size="13" lengthAdjust="spacing" textLength="104.7935" x="308.6152" y="233.0264">pour chantier neuf</text><polygon fill="#181818" points="405.9131,275.4102,415.9131,279.4102,405.9131,283.4102,409.9131,279.4102" style="stroke:#181818;stroke-width:1;"/><line style="stroke:#181818;stroke-width:1;" x1="112.124" x2="411.9131" y1="279.4102" y2="279.4102"/><text fill="#000000" font-family="sans-serif" font-size="13" lengthAdjust="spacing" textLength="179.3975" x="119.124" y="274.5537">Connexion dossiers partag&#195;&#169;s</text><path d="M422,250.8828 L422,292.8828 L617,292.8828 L617,260.8828 L607,250.8828 L422,250.8828 " fill="#FF6B6B" style="stroke:#181818;stroke-width:0.5;"/><path d="M607,250.8828 L607,260.8828 L617,260.8828 L607,250.8828 " fill="#FF6B6B" style="stroke:#181818;stroke-width:0.5;"/><text fill="#000000" font-family="sans-serif" font-size="13" lengthAdjust="spacing" textLength="174.2939" x="428" y="269.3779">&#240;&#376;&#8221;&#180; Dossiers mal organis&#195;&#169;s</text><text fill="#000000" font-family="sans-serif" font-size="13" lengthAdjust="spacing" textLength="125.5566" x="428" y="285.7295">"Documents/PPSPS/"</text><polygon fill="#181818" points="405.9131,368.9922,415.9131,372.9922,405.9131,376.9922,409.9131,372.9922" style="stroke:#181818;stroke-width:1;"/><line style="stroke:#181818;stroke-width:1;" x1="112.124" x2="411.9131" y1="372.9922" y2="372.9922"/><text fill="#000000" font-family="sans-serif" font-size="13" lengthAdjust="spacing" textLength="161.1162" x="119.124" y="368.1357">Recherche PPSPS similaire</text><path d="M422,303.5859 L422,427.5859 L671,427.5859 L671,313.5859 L661,303.5859 L422,303.5859 " fill="#FF6B6B" style="stroke:#181818;stroke-width:0.5;"/><path d="M661,303.5859 L661,313.5859 L671,313.5859 L661,303.5859 " fill="#FF6B6B" style="stroke:#181818;stroke-width:0.5;"/><text fill="#000000" font-family="sans-serif" font-size="13" lengthAdjust="spacing" textLength="24.5591" x="428" y="322.0811">&#240;&#376;&#8221;&#180;</text><text fill="#000000" font-family="sans-serif" font-size="13" font-weight="bold" lengthAdjust="spacing" textLength="158.1709" x="456.1709" y="322.0811">RECHERCHE MANUELLE</text><text fill="#000000" font-family="sans-serif" font-size="13" lengthAdjust="spacing" textLength="116.6826" x="428" y="338.4326">- 200+ fichiers Word</text><text fill="#000000" font-family="sans-serif" font-size="13" lengthAdjust="spacing" textLength="146.8594" x="428" y="354.7842">- Nommage incoh&#195;&#169;rent:</text><text fill="#000000" font-family="sans-serif" font-size="13" lengthAdjust="spacing" textLength="197.8564" x="435.2236" y="371.1357">"PPSPS_final_v2_OK_2023.docx"</text><text fill="#000000" font-family="sans-serif" font-size="13" lengthAdjust="spacing" textLength="221.6665" x="435.2236" y="387.4873">"PPSPS_Client_A_VRAI_FINAL.docx"</text><text fill="#000000" font-family="sans-serif" font-size="13" lengthAdjust="spacing" textLength="111.2808" x="428" y="403.8389">- Pas de versioning</text><text fill="#000000" font-family="sans-serif" font-size="13" lengthAdjust="spacing" textLength="127.6831" x="428" y="420.1904">&#226;&#65533;&#176; 30 min de fouille !</text><path d="M54,440.0469 L126.4346,440.0469 L126.4346,448.3984 L116.4346,458.3984 L54,458.3984 L54,440.0469 " fill="#EEEEEE" style="stroke:#000000;stroke-width:1.5;"/><rect fill="none" height="131.7578" style="stroke:#000000;stroke-width:1.5;" width="472.312" x="54" y="440.0469"/><text fill="#000000" font-family="sans-serif" font-size="13" font-weight="bold" lengthAdjust="spacing" textLength="27.4346" x="69" y="454.542">loop</text><text fill="#000000" font-family="sans-serif" font-size="11" font-weight="bold" lengthAdjust="spacing" textLength="65.4092" x="141.4346" y="453.4658">[3-4 fichiers]</text><polygon fill="#181818" points="123.124,476.75,113.124,480.75,123.124,484.75,119.124,480.75" style="stroke:#181818;stroke-width:1;"/><line style="stroke:#181818;stroke-width:1;stroke-dasharray:2.0,2.0;" x1="117.124" x2="416.9131" y1="480.75" y2="480.75"/><text fill="#000000" font-family="sans-serif" font-size="13" lengthAdjust="spacing" textLength="89.7686" x="129.124" y="475.8936">Fichier trouv&#195;&#169;</text><polygon fill="#181818" points="480.5879,507.1016,490.5879,511.1016,480.5879,515.1016,484.5879,511.1016" style="stroke:#181818;stroke-width:1;"/><line style="stroke:#181818;stroke-width:1;" x1="112.124" x2="486.5879" y1="511.1016" y2="511.1016"/><text fill="#000000" font-family="sans-serif" font-size="13" lengthAdjust="spacing" textLength="57.8018" x="119.124" y="506.2451">Ouverture</text><line style="stroke:#181818;stroke-width:1;" x1="112.124" x2="154.124" y1="546.1289" y2="546.1289"/><line style="stroke:#181818;stroke-width:1;" x1="154.124" x2="154.124" y1="546.1289" y2="559.1289"/><line style="stroke:#181818;stroke-width:1;" x1="113.124" x2="154.124" y1="559.1289" y2="559.1289"/><polygon fill="#181818" points="123.124,555.1289,113.124,559.1289,123.124,563.1289,119.124,559.1289" style="stroke:#181818;stroke-width:1;"/><text fill="#000000" font-family="sans-serif" font-size="13" lengthAdjust="spacing" textLength="87.623" x="119.124" y="541.2725">V&#195;&#169;rif contenu</text><path d="M218.623,524.1016 L218.623,566.1016 L378.623,566.1016 L378.623,534.1016 L368.623,524.1016 L218.623,524.1016 " fill="#FFD700" style="stroke:#181818;stroke-width:0.5;"/><path d="M368.623,524.1016 L368.623,534.1016 L378.623,534.1016 L368.623,524.1016 " fill="#FFD700" style="stroke:#181818;stroke-width:0.5;"/><text fill="#000000" font-family="sans-serif" font-size="13" lengthAdjust="spacing" textLength="139.4771" x="224.623" y="542.5967">Pas le bon type chantier</text><text fill="#000000" font-family="sans-serif" font-size="13" lengthAdjust="spacing" textLength="98.8013" x="224.623" y="558.9482">&#226;&#8224;&#8217; Recommence</text><polygon fill="#181818" points="123.124,597.1563,113.124,601.1563,123.124,605.1563,119.124,601.1563" style="stroke:#181818;stroke-width:1;"/><line style="stroke:#181818;stroke-width:1;stroke-dasharray:2.0,2.0;" x1="117.124" x2="416.9131" y1="601.1563" y2="601.1563"/><text fill="#000000" font-family="sans-serif" font-size="13" lengthAdjust="spacing" textLength="152.623" x="129.124" y="596.2998">PPSPS similaire trouv&#195;&#169; !</text><rect fill="#EEEEEE" height="3" style="stroke:#EEEEEE;stroke-width:1;" width="874.5781" x="0" y="630.332"/><line style="stroke:#000000;stroke-width:1;" x1="0" x2="874.5781" y1="630.332" y2="630.332"/><line style="stroke:#000000;stroke-width:1;" x1="0" x2="874.5781" y1="633.332" y2="633.332"/><rect fill="#EEEEEE" height="24.3516" style="stroke:#000000;stroke-width:2;" width="265.3481" x="304.615" y="619.1563"/><text fill="#000000" font-family="sans-serif" font-size="13" font-weight="bold" lengthAdjust="spacing" textLength="247.7363" x="310.615" y="636.6514">14h30 - Copie &amp; Adaptation (CALVAIRE)</text><polygon fill="#181818" points="480.5879,671.8594,490.5879,675.8594,480.5879,679.8594,484.5879,675.8594" style="stroke:#181818;stroke-width:1;"/><line style="stroke:#181818;stroke-width:1;" x1="112.124" x2="486.5879" y1="675.8594" y2="675.8594"/><text fill="#000000" font-family="sans-serif" font-size="13" lengthAdjust="spacing" textLength="72.2554" x="119.124" y="671.0029">Copie fichier</text><line style="stroke:#181818;stroke-width:1;" x1="112.124" x2="154.124" y1="706.2109" y2="706.2109"/><line style="stroke:#181818;stroke-width:1;" x1="154.124" x2="154.124" y1="706.2109" y2="719.2109"/><line style="stroke:#181818;stroke-width:1;" x1="113.124" x2="154.124" y1="719.2109" y2="719.2109"/><polygon fill="#181818" points="123.124,715.2109,113.124,719.2109,123.124,723.2109,119.124,719.2109" style="stroke:#181818;stroke-width:1;"/><text fill="#000000" font-family="sans-serif" font-size="13" lengthAdjust="spacing" textLength="291.7891" x="119.124" y="701.3545">Renomme "PPSPS_NouveauChantier_2025.docx"</text><polygon fill="#181818" points="480.5879,781.2656,490.5879,785.2656,480.5879,789.2656,484.5879,785.2656" style="stroke:#181818;stroke-width:1;"/><line style="stroke:#181818;stroke-width:1;" x1="112.124" x2="486.5879" y1="785.2656" y2="785.2656"/><text fill="#000000" font-family="sans-serif" font-size="13" lengthAdjust="spacing" textLength="178.4707" x="119.124" y="780.4092">Modification Section 1 (15 min)</text><path d="M497,732.2109 L497,823.2109 L701,823.2109 L701,742.2109 L691,732.2109 L497,732.2109 " fill="#FF6B6B" style="stroke:#181818;stroke-width:0.5;"/><path d="M691,732.2109 L691,742.2109 L701,742.2109 L691,732.2109 " fill="#FF6B6B" style="stroke:#181818;stroke-width:0.5;"/><text fill="#000000" font-family="sans-serif" font-size="13" lengthAdjust="spacing" textLength="24.5591" x="503" y="750.7061">&#240;&#376;&#8221;&#180;</text><text fill="#000000" font-family="sans-serif" font-size="13" font-weight="bold" lengthAdjust="spacing" textLength="136.1382" x="531.1709" y="750.7061">CTRL+F REMPLACER</text><text fill="#000000" font-family="sans-serif" font-size="13" lengthAdjust="spacing" textLength="183.3647" x="503" y="767.0576">- Nom client ancien &#226;&#8224;&#8217; nouveau</text><text fill="#000000" font-family="sans-serif" font-size="13" lengthAdjust="spacing" textLength="105.4917" x="503" y="783.4092">- Adresse chantier</text><text fill="#000000" font-family="sans-serif" font-size="13" lengthAdjust="spacing" textLength="142.5239" x="503" y="799.7607">- Dates pr&#195;&#169;visionnelles</text><text fill="#000000" font-family="sans-serif" font-size="13" lengthAdjust="spacing" textLength="49.1436" x="503" y="816.1123">- Budget</text><polygon fill="#181818" points="480.5879,866.6719,490.5879,870.6719,480.5879,874.6719,484.5879,870.6719" style="stroke:#181818;stroke-width:1;"/><line style="stroke:#181818;stroke-width:1;" x1="112.124" x2="486.5879" y1="870.6719" y2="870.6719"/><text fill="#000000" font-family="sans-serif" font-size="13" lengthAdjust="spacing" textLength="178.4707" x="119.124" y="865.8154">Modification Section 2 (20 min)</text><path d="M497,833.9688 L497,892.9688 L665,892.9688 L665,843.9688 L655,833.9688 L497,833.9688 " fill="#FF6B6B" style="stroke:#181818;stroke-width:0.5;"/><path d="M655,833.9688 L655,843.9688 L665,843.9688 L655,833.9688 " fill="#FF6B6B" style="stroke:#181818;stroke-width:0.5;"/><text fill="#000000" font-family="sans-serif" font-size="13" lengthAdjust="spacing" textLength="125.0361" x="503" y="852.4639">- &#195;&#8240;quipe affect&#195;&#169;e</text><text fill="#000000" font-family="sans-serif" font-size="13" lengthAdjust="spacing" textLength="142.543" x="503" y="868.8154">- Planning pr&#195;&#169;visionnel</text><text fill="#000000" font-family="sans-serif" font-size="13" lengthAdjust="spacing" textLength="147.6084" x="503" y="885.167">- Coordonn&#195;&#169;es urgence</text><polygon fill="#181818" points="480.5879,987.2969,490.5879,991.2969,480.5879,995.2969,484.5879,991.2969" style="stroke:#181818;stroke-width:1;"/><line style="stroke:#181818;stroke-width:1;" x1="112.124" x2="486.5879" y1="991.2969" y2="991.2969"/><text fill="#000000" font-family="sans-serif" font-size="13" lengthAdjust="spacing" textLength="178.4707" x="119.124" y="986.4404">Modification Section 3 (45 min)</text><path d="M497,903.0234 L497,1065.0234 L712,1065.0234 L712,913.0234 L702,903.0234 L497,903.0234 " fill="#FF6B6B" style="stroke:#181818;stroke-width:0.5;"/><path d="M702,903.0234 L702,913.0234 L712,913.0234 L702,903.0234 " fill="#FF6B6B" style="stroke:#181818;stroke-width:0.5;"/><text fill="#000000" font-family="sans-serif" font-size="13" lengthAdjust="spacing" textLength="24.5591" x="503" y="921.5186">&#240;&#376;&#8221;&#180;</text><text fill="#000000" font-family="sans-serif" font-size="13" font-weight="bold" lengthAdjust="spacing" textLength="166.1182" x="531.1709" y="921.5186">PARTIE LA PLUS LONGUE</text><text fill="#000000" font-family="sans-serif" font-size="13" lengthAdjust="spacing" textLength="130.2476" x="503" y="937.8701">Risques sp&#195;&#169;cifiques:</text><text fill="#000000" font-family="sans-serif" font-size="13" lengthAdjust="spacing" textLength="177.2075" x="503" y="954.2217">- Analyse risques &#195;&#169;lectriques</text><text fill="#000000" font-family="sans-serif" font-size="13" lengthAdjust="spacing" textLength="120.6753" x="503" y="970.5732">- Travaux en hauteur</text><text fill="#000000" font-family="sans-serif" font-size="13" lengthAdjust="spacing" textLength="80.3677" x="503" y="986.9248">- Co-activit&#195;&#169;</text><text fill="#000000" font-family="sans-serif" font-size="13" lengthAdjust="spacing" textLength="154.6543" x="503" y="1003.2764">- Substances dangereuses</text><text fill="#000000" font-family="sans-serif" font-size="13" lengthAdjust="spacing" textLength="3.6118" x="503" y="1019.6279">&#160;</text><text fill="#000000" font-family="sans-serif" font-size="13" font-weight="bold" lengthAdjust="spacing" textLength="178.3818" x="503" y="1035.9795">ADAPTATION AU CHANTIER</text><text fill="#000000" font-family="sans-serif" font-size="17" font-weight="bold" lengthAdjust="spacing" textLength="107.7192" x="503" y="1056.4834">100% manuel</text><polygon fill="#181818" points="405.9131,1088.5703,415.9131,1092.5703,405.9131,1096.5703,409.9131,1092.5703" style="stroke:#181818;stroke-width:1;"/><line style="stroke:#181818;stroke-width:1;" x1="112.124" x2="411.9131" y1="1092.5703" y2="1092.5703"/><text fill="#000000" font-family="sans-serif" font-size="13" lengthAdjust="spacing" textLength="147.5894" x="119.124" y="1087.7139">R&#195;&#169;cup&#195;&#168;re plans affaire</text><polygon fill="#181818" points="480.5879,1138.2734,490.5879,1142.2734,480.5879,1146.2734,484.5879,1142.2734" style="stroke:#181818;stroke-width:1;"/><line style="stroke:#181818;stroke-width:1;" x1="112.124" x2="486.5879" y1="1142.2734" y2="1142.2734"/><text fill="#000000" font-family="sans-serif" font-size="13" lengthAdjust="spacing" textLength="135.8398" x="119.124" y="1137.417">Insertion plans (30 min)</text><path d="M497,1105.5703 L497,1164.5703 L681,1164.5703 L681,1115.5703 L671,1105.5703 L497,1105.5703 " fill="#FF6B6B" style="stroke:#181818;stroke-width:0.5;"/><path d="M671,1105.5703 L671,1115.5703 L681,1115.5703 L671,1105.5703 " fill="#FF6B6B" style="stroke:#181818;stroke-width:0.5;"/><text fill="#000000" font-family="sans-serif" font-size="13" lengthAdjust="spacing" textLength="163.3188" x="503" y="1124.0654">- Suppression anciens plans</text><text fill="#000000" font-family="sans-serif" font-size="13" lengthAdjust="spacing" textLength="117.7935" x="503" y="1140.417">- Insertion nouveaux</text><text fill="#000000" font-family="sans-serif" font-size="13" lengthAdjust="spacing" textLength="85.9917" x="503" y="1156.7686">- Mise en page</text><line style="stroke:#181818;stroke-width:1;" x1="112.124" x2="154.124" y1="1221.1797" y2="1221.1797"/><line style="stroke:#181818;stroke-width:1;" x1="154.124" x2="154.124" y1="1221.1797" y2="1234.1797"/><line style="stroke:#181818;stroke-width:1;" x1="113.124" x2="154.124" y1="1234.1797" y2="1234.1797"/><polygon fill="#181818" points="123.124,1230.1797,113.124,1234.1797,123.124,1238.1797,119.124,1234.1797" style="stroke:#181818;stroke-width:1;"/><text fill="#000000" font-family="sans-serif" font-size="13" lengthAdjust="spacing" textLength="206.8257" x="119.124" y="1216.3232">V&#195;&#169;rif clauses obligatoires (30 min)</text><path d="M337.8257,1174.625 L337.8257,1265.625 L565.8257,1265.625 L565.8257,1184.625 L555.8257,1174.625 L337.8257,1174.625 " fill="#FF6B6B" style="stroke:#181818;stroke-width:0.5;"/><path d="M555.8257,1174.625 L555.8257,1184.625 L565.8257,1184.625 L555.8257,1174.625 " fill="#FF6B6B" style="stroke:#181818;stroke-width:0.5;"/><text fill="#000000" font-family="sans-serif" font-size="13" lengthAdjust="spacing" textLength="24.5591" x="343.8257" y="1193.1201">&#240;&#376;&#8221;&#180;</text><text fill="#000000" font-family="sans-serif" font-size="13" font-weight="bold" lengthAdjust="spacing" textLength="126.4009" x="371.9966" y="1193.1201">CHECKLIST PAPIER</text><text fill="#000000" font-family="sans-serif" font-size="13" lengthAdjust="spacing" textLength="207.562" x="343.8257" y="1209.4717">40 points &#195;&#160; v&#195;&#169;rifier manuellement</text><text fill="#000000" font-family="sans-serif" font-size="13" lengthAdjust="spacing" textLength="80.9453" x="343.8257" y="1225.8232">ligne par ligne</text><text fill="#000000" font-family="sans-serif" font-size="13" lengthAdjust="spacing" textLength="3.6118" x="343.8257" y="1242.1748">&#160;</text><text fill="#000000" font-family="sans-serif" font-size="13" font-weight="bold" lengthAdjust="spacing" textLength="111.2363" x="343.8257" y="1258.5264">RISQUES OUBLIS</text><polygon fill="#181818" points="480.5879,1317.2617,490.5879,1321.2617,480.5879,1325.2617,484.5879,1321.2617" style="stroke:#181818;stroke-width:1;"/><line style="stroke:#181818;stroke-width:1;" x1="112.124" x2="486.5879" y1="1321.2617" y2="1321.2617"/><text fill="#000000" font-family="sans-serif" font-size="13" lengthAdjust="spacing" textLength="200.8716" x="119.124" y="1316.4053">Relecture &amp; mise en page (30 min)</text><path d="M497,1276.3828 L497,1351.3828 L654,1351.3828 L654,1286.3828 L644,1276.3828 L497,1276.3828 " fill="#FEFFDD" style="stroke:#181818;stroke-width:0.5;"/><path d="M644,1276.3828 L644,1286.3828 L654,1286.3828 L644,1276.3828 " fill="#FEFFDD" style="stroke:#181818;stroke-width:0.5;"/><text fill="#000000" font-family="sans-serif" font-size="13" lengthAdjust="spacing" textLength="106.9326" x="503" y="1294.8779">- Correction fautes</text><text fill="#000000" font-family="sans-serif" font-size="13" lengthAdjust="spacing" textLength="136.0303" x="503" y="1311.2295">- Num&#195;&#169;rotation pages</text><text fill="#000000" font-family="sans-serif" font-size="13" lengthAdjust="spacing" textLength="124.2617" x="503" y="1327.5811">- Table des mati&#195;&#168;res</text><text fill="#000000" font-family="sans-serif" font-size="13" lengthAdjust="spacing" textLength="70.8018" x="503" y="1343.9326">- Formatage</text><path d="M5,1361.7891 L5,1403.7891 L219,1403.7891 L219,1371.7891 L209,1361.7891 L5,1361.7891 " fill="#FFAAAA" style="stroke:#181818;stroke-width:0.5;"/><path d="M209,1361.7891 L209,1371.7891 L219,1371.7891 L209,1361.7891 " fill="#FFAAAA" style="stroke:#181818;stroke-width:0.5;"/><text fill="#000000" font-family="sans-serif" font-size="13" lengthAdjust="spacing" textLength="22.1787" x="11" y="1380.2842">&#226;&#65533;&#176;</text><text fill="#000000" font-family="sans-serif" font-size="13" font-weight="bold" lengthAdjust="spacing" textLength="149.5444" x="36.7905" y="1380.2842">2h30 de travail MANUEL</text><text fill="#000000" font-family="sans-serif" font-size="13" lengthAdjust="spacing" textLength="193.6733" x="11" y="1396.6357">100% manuel, 0% automatisation</text><rect fill="#EEEEEE" height="3" style="stroke:#EEEEEE;stroke-width:1;" width="874.5781" x="0" y="1430.668"/><line style="stroke:#000000;stroke-width:1;" x1="0" x2="874.5781" y1="1430.668" y2="1430.668"/><line style="stroke:#000000;stroke-width:1;" x1="0" x2="874.5781" y1="1433.668" y2="1433.668"/><rect fill="#EEEEEE" height="24.3516" style="stroke:#000000;stroke-width:2;" width="149.8145" x="362.3818" y="1419.4922"/><text fill="#000000" font-family="sans-serif" font-size="13" font-weight="bold" lengthAdjust="spacing" textLength="132.2026" x="368.3818" y="1436.9873">17h00 - Validation BE</text><polygon fill="#181818" points="770.2817,1472.1953,780.2817,1476.1953,770.2817,1480.1953,774.2817,1476.1953" style="stroke:#181818;stroke-width:1;"/><line style="stroke:#181818;stroke-width:1;" x1="112.124" x2="776.2817" y1="1476.1953" y2="1476.1953"/><text fill="#000000" font-family="sans-serif" font-size="13" lengthAdjust="spacing" textLength="166.9116" x="119.124" y="1471.3389">Envoi Thomas pour relecture</text><polygon fill="#181818" points="657.9883,1502.5469,647.9883,1506.5469,657.9883,1510.5469,653.9883,1506.5469" style="stroke:#181818;stroke-width:1;"/><line style="stroke:#181818;stroke-width:1;" x1="651.9883" x2="781.2817" y1="1506.5469" y2="1506.5469"/><text fill="#000000" font-family="sans-serif" font-size="13" lengthAdjust="spacing" textLength="101.1563" x="663.9883" y="1501.6904">PPSPS &#195;&#160; valider</text><polygon fill="#181818" points="503.5879,1535.8984,493.5879,1539.8984,503.5879,1543.8984,499.5879,1539.8984" style="stroke:#181818;stroke-width:1;"/><line style="stroke:#181818;stroke-width:1;" x1="497.5879" x2="645.9883" y1="1539.8984" y2="1539.8984"/><text fill="#000000" font-family="sans-serif" font-size="13" lengthAdjust="spacing" textLength="106.9263" x="509.5879" y="1535.042">Relecture (15 min)</text><path d="M651,1519.5469 L651,1545.5469 L791,1545.5469 L791,1529.5469 L781,1519.5469 L651,1519.5469 " fill="#98FB98" style="stroke:#181818;stroke-width:0.5;"/><path d="M781,1519.5469 L781,1529.5469 L791,1529.5469 L781,1519.5469 " fill="#98FB98" style="stroke:#181818;stroke-width:0.5;"/><text fill="#000000" font-family="sans-serif" font-size="13" lengthAdjust="spacing" textLength="119.1963" x="657" y="1538.042">Commentaires Word</text><polygon fill="#181818" points="770.2817,1569.25,780.2817,1573.25,770.2817,1577.25,774.2817,1573.25" style="stroke:#181818;stroke-width:1;"/><line style="stroke:#181818;stroke-width:1;" x1="646.9883" x2="776.2817" y1="1573.25" y2="1573.25"/><text fill="#000000" font-family="sans-serif" font-size="13" lengthAdjust="spacing" textLength="111.2935" x="653.9883" y="1568.3936">Renvoie &#195;&#160; Laurent</text><polygon fill="#181818" points="480.5879,1599.6016,490.5879,1603.6016,480.5879,1607.6016,484.5879,1603.6016" style="stroke:#181818;stroke-width:1;"/><line style="stroke:#181818;stroke-width:1;" x1="112.124" x2="486.5879" y1="1603.6016" y2="1603.6016"/><text fill="#000000" font-family="sans-serif" font-size="13" lengthAdjust="spacing" textLength="117.7554" x="119.124" y="1598.7451">Corrections (10 min)</text><polygon fill="#181818" points="480.5879,1629.9531,490.5879,1633.9531,480.5879,1637.9531,484.5879,1633.9531" style="stroke:#181818;stroke-width:1;"/><line style="stroke:#181818;stroke-width:1;" x1="112.124" x2="486.5879" y1="1633.9531" y2="1633.9531"/><text fill="#000000" font-family="sans-serif" font-size="13" lengthAdjust="spacing" textLength="111.2427" x="119.124" y="1629.0967">Export PDF (5 min)</text><polygon fill="#181818" points="770.2817,1660.3047,780.2817,1664.3047,770.2817,1668.3047,774.2817,1664.3047" style="stroke:#181818;stroke-width:1;"/><line style="stroke:#181818;stroke-width:1;" x1="112.124" x2="776.2817" y1="1664.3047" y2="1664.3047"/><text fill="#000000" font-family="sans-serif" font-size="13" lengthAdjust="spacing" textLength="66.479" x="119.124" y="1659.4482">Envoi client</text><polygon fill="#181818" points="405.9131,1690.6563,415.9131,1694.6563,405.9131,1698.6563,409.9131,1694.6563" style="stroke:#181818;stroke-width:1;"/><line style="stroke:#181818;stroke-width:1;" x1="112.124" x2="411.9131" y1="1694.6563" y2="1694.6563"/><text fill="#000000" font-family="sans-serif" font-size="13" lengthAdjust="spacing" textLength="57.8081" x="119.124" y="1689.7998">Archivage</text><rect fill="#EEEEEE" height="3" style="stroke:#EEEEEE;stroke-width:1;" width="874.5781" x="0" y="1723.832"/><line style="stroke:#000000;stroke-width:1;" x1="0" x2="874.5781" y1="1723.832" y2="1723.832"/><line style="stroke:#000000;stroke-width:1;" x1="0" x2="874.5781" y1="1726.832" y2="1726.832"/><rect fill="#EEEEEE" height="24.3516" style="stroke:#000000;stroke-width:2;" width="57.3291" x="408.6245" y="1712.6563"/><text fill="#000000" font-family="sans-serif" font-size="13" font-weight="bold" lengthAdjust="spacing" textLength="39.7173" x="414.6245" y="1730.1514">BILAN</text><path d="M80,1752.0078 L80,2007.0078 L869,2007.0078 L869,1762.0078 L859,1752.0078 L80,1752.0078 " fill="#FFCCCC" style="stroke:#181818;stroke-width:0.5;"/><path d="M859,1752.0078 L859,1762.0078 L869,1762.0078 L859,1752.0078 " fill="#FFCCCC" style="stroke:#181818;stroke-width:0.5;"/><text fill="#000000" font-family="sans-serif" font-size="13" font-weight="bold" lengthAdjust="spacing" textLength="179.3784" x="353.0605" y="1770.5029">M&#195;&#8240;TRIQUES PROCESSUS</text><text fill="#000000" font-family="sans-serif" font-size="13" lengthAdjust="spacing" textLength="111.2427" x="353.0605" y="1786.8545">&#226;&#65533;&#176; Dur&#195;&#169;e totale:</text><text fill="#000000" font-family="sans-serif" font-size="13" font-weight="bold" lengthAdjust="spacing" textLength="29.6309" x="467.915" y="1786.8545">3h00</text><text fill="#000000" font-family="sans-serif" font-size="13" lengthAdjust="spacing" textLength="3.6118" x="353.0605" y="1803.2061">&#160;</text><text fill="#000000" font-family="sans-serif" font-size="13" lengthAdjust="spacing" textLength="100.6167" x="353.0605" y="1819.5576">D&#195;&#169;composition:</text><text fill="#000000" font-family="sans-serif" font-size="13" lengthAdjust="spacing" textLength="187.8843" x="353.0605" y="1835.9092">&#226;&#8364;&#162; Recherche template: 30 min</text><text fill="#000000" font-family="sans-serif" font-size="13" lengthAdjust="spacing" textLength="158.2788" x="353.0605" y="1852.2607">&#226;&#8364;&#162; Adaptation Word: 2h30</text><text fill="#000000" font-family="sans-serif" font-size="13" lengthAdjust="spacing" textLength="149.5952" x="353.0605" y="1868.6123">&#226;&#8364;&#162; Validation BE: 30 min</text><text fill="#000000" font-family="sans-serif" font-size="13" lengthAdjust="spacing" textLength="3.6118" x="353.0605" y="1884.9639">&#160;</text><text fill="#000000" font-family="sans-serif" font-size="13" lengthAdjust="spacing" textLength="27.46" x="353.0605" y="1901.3154">&#240;&#376;&#732;&#164;</text><text fill="#000000" font-family="sans-serif" font-size="13" font-weight="bold" lengthAdjust="spacing" textLength="133.6309" x="384.1323" y="1901.3154">FRUSTRATION: 10/10</text><text fill="#000000" font-family="sans-serif" font-size="13" lengthAdjust="spacing" textLength="107.6689" x="353.0605" y="1917.667">&#240;&#376;&#8221;&#180; 100% manuel</text><text fill="#000000" font-family="sans-serif" font-size="13" lengthAdjust="spacing" textLength="160.4053" x="353.0605" y="1934.0186">&#240;&#376;&#8221;&#180; Risques oublis clauses</text><text fill="#000000" font-family="sans-serif" font-size="13" lengthAdjust="spacing" textLength="234.457" x="353.0605" y="1950.3701">&#240;&#376;&#8221;&#180; Comp&#195;&#169;tences RA sous-utilis&#195;&#169;es</text><text fill="#000000" font-family="sans-serif" font-size="13" lengthAdjust="spacing" textLength="3.6118" x="353.0605" y="1966.7217">&#160;</text><text fill="#000000" font-family="sans-serif" font-size="13" lengthAdjust="spacing" textLength="23.1182" x="353.0605" y="1983.0732">&#240;&#376;&#8217;&#161;</text><text fill="#000000" font-family="sans-serif" font-size="13" font-weight="bold" lengthAdjust="spacing" textLength="161.77" x="379.7905" y="1983.0732">AVEC AUTOMATISATION:</text><text fill="#000000" font-family="sans-serif" font-size="13" lengthAdjust="spacing" textLength="141.6353" x="353.0605" y="1999.4248">Possible en 30 minutes !</text><!--SRC=[bLRDRjj64BxhAQOsMiXAbCW_SH81Ba1HL294bbbASYy1Z3MraXQWTXakAJWt8tcA02sG1ZsqG0yvzD1BKS16JtqBlq1VeJExf4pPgjqAi4LnPtTclldccqr56d7m4nLohJCDBoxVN_miwL_2Kg4a-Fx07q0TBjzVdNyUEaDmtE78wq7rMvMCuP39Z4TRbGeBKvN0Hezb2PVfQraDk8uVWJEPC97mhGrW6l95sEnqMllkTYLcIIf24JDyjz5MMWkUwDVInzTiIY5eiwrOMRKdzsRPnB6vjxt_tBjnf7SMyiZOc2VostxQQ1In3cTgpj1VjOLXiSncc6PZhcsuTXqsdp_hj9u_kt7qd8dyQ7egZdGZWGcQz_OHDfrs-vctNwaS7C3stgpHG2W37ivuWd-GydaSiPJ3mK6bKi1J_xf0gWbzbIruX1LY5aWO4ovpbYJqpIjIuUP4J6Tf1Q35jHAoQKk6lsEL9H3EC6243oJF9XKknq1xLhmL03V1LLBoCohxE7y7yNKrIju8o_tMVWkzN7x-yxUhy-ylVbsU0tCMWKgcJ0fjDmBLDypcw50_Dk4zthWlbckKB0Mrc8k8CBWlZ5ejyDoNNe1_SEZqaQmzhrP3aphiD1eFO2B2cGcJc6DUzzLypgOSX0pLp72VmCSbZDiuFva8oQAJnSx9qQkJdSRExgEn2iysoXQstYVEoN7WT4ywtRxJMnhLmKT6Z3aiq2sYA-IK8lxqzn-_Nto6tGRCXQJbYSe45VkB4ZQHKZ7irlUMOHkdIwZhPRPqh0ca2TA6yZ2s9NGfuoOS8QUI55_UN5uUT6n041C8bKovp8pXAkocay1yA3cC-XHfaxwD-P9o-VBbfwlpZrVd7wYY23INeNMyp14VAfNr6Tqe_NLcY57UKhlKKgwA1OUlm1cpEBN2LNMTth7J3RojczrbKR1RSbJNDb_09SLRLDZq8ilSF3lYmPEynBTFFrHZWMVRK0OyDD_RKDr-GiNUkf_3xZ3eFUX0u1twFSVrWfp1I5K8hRGm6UBtDRpIncVCd762UhvIYZgqKMcmeOrqB0GHKPAsQBFOoiPJdgvloZjIse7gJkEEbFB1yIOJiH4nt6QLotH5n2GrmysOpAAhq2l-DEOQicHgcFD_0zo5wjv_nTntWc7NWvu3VcyqWDvH_yN8IaSWz9iCez0nXHEY6_hPj5YZDBpLTBAr8Oi8lIV6nfWC4xPWsHbI7cOiItcMv2dMSN28XKZpPgt383lLALOMpnapEUK9ppGUWckrcjDsV9p0tQC-E2DmNpfzZDOI0pkXqVWIXPV6yRtAQdB8A9MViATm0abT39ZRg7QbHhKWAArXTVVkUW-oE2RoqGvBKMrtcjNhqtAwdfdNXm81H7HYbE7ruQ_HfeWHDg1E8p5bgSBexujkfS5UUkwhNdSm1D_n2npt6ZWr1Kufgk97MEI-I5GjjX6d8OQMw5DocexsoLOew0w-6Na3E1gry6GyyGws1fn8WYzHjkQbzDUbaBCbIN9IJuX45j1-DZT1gbpsw8YSTEmKLHclCnXwAconxKf79VXg5MhZJE5WA5_J7FoK9bMjjaDoEoOTHaABA9-l1heI0Hy2FcA8YXnh4rV94ydsKtiJEcQH6DkuMzvDcJOtgoPuSg54SHapLvgaGAvYJCZMBXVpmjQEpaRbg-HRrm2_LetpwnuWtZIiKcPuPUuArpbSdvb7YRC2m-JMTPx4sg5Jr12fkftN-RQPTnQh90M_tO5g7kA_0ME7mVf6T_3w91PKPmAzrUqvVGFohLe_N5vNEnqNFuRCX_RA7tGDfVtWoFK6Wz705BjWH3kp5r58aNyHR-AsNImjsg1Hs-YCciTA2qgvQJPUlVlbujEQEt0plmYLZ4hJtE92z2kjhz1dkJ_lyx- -k_WHm-a4ey4mCAhPH8u-tcxO19PAK1REylj2ybM6-g8BjLanGOQOUP1o8zY10rfbkfwb8h8tNwlSTiE7Ynz8muyz5zLxU7I88GriM2OWdwf63OioO1EX5YzV1Vy1]--></g></svg>