<svg xmlns="http://www.w3.org/2000/svg" xmlns:xlink="http://www.w3.org/1999/xlink" contentStyleType="text/css" height="295px" preserveAspectRatio="none" style="width:865px;height:295px;background:#FFFFFF;" version="1.1" viewBox="0 0 865 295" width="865px" zoomAndPan="magnify"><title>Mind Map - Pain Points Direction &amp; Gestion Affaires</title><defs/><g><text fill="#000000" font-family="sans-serif" font-size="14" font-weight="bold" lengthAdjust="spacing" textLength="343.8135" x="259.2646" y="34.5332">Mind Map - Pain Points Direction &amp; Gestion Affaires</text><rect fill="#F1F1F1" height="55.2188" rx="12.5" ry="12.5" style="stroke:#181818;stroke-width:1.5;" width="139.0137" x="348.5645" y="138.6563"/><text fill="#000000" font-family="sans-serif" font-size="14" lengthAdjust="spacing" textLength="26.4482" x="358.5645" y="163.1895">&#240;&#376;&#8221;&#180;</text><text fill="#000000" font-family="sans-serif" font-size="14" font-weight="bold" lengthAdjust="spacing" textLength="88.6758" x="388.9023" y="163.1895">PROBLEMES</text><text fill="#000000" font-family="sans-serif" font-size="14" font-weight="bold" lengthAdjust="spacing" textLength="68.4551" x="358.5645" y="180.7988">MAJEURS</text><rect fill="#F1F1F1" height="55.2188" rx="12.5" ry="12.5" style="stroke:#181818;stroke-width:1.5;" width="128.1582" x="537.5781" y="60.2188"/><text fill="#000000" font-family="sans-serif" font-size="14" lengthAdjust="spacing" textLength="108.1582" x="547.5781" y="84.752">&#240;&#376;&#8221;&#180; ERP Legacy</text><text fill="#000000" font-family="sans-serif" font-size="14" lengthAdjust="spacing" textLength="89.4619" x="547.5781" y="102.3613">CALAMITEUX</text><text fill="#000000" font-family="sans-serif" font-size="14" lengthAdjust="spacing" textLength="124.5166" x="718.7363" y="64.1426">MDE/Sage obsolete</text><path d="M665.7363,87.8281 L675.7363,87.8281 C690.7363,87.8281 690.7363,58.4141 705.7363,58.4141 L715.7363,58.4141 " fill="none" style="stroke:#181818;stroke-width:1;"/><text fill="#000000" font-family="sans-serif" font-size="14" lengthAdjust="spacing" textLength="105.8408" x="718.7363" y="83.752">30-40s par ecran</text><path d="M665.7363,87.8281 L675.7363,87.8281 C690.7363,87.8281 690.7363,78.0234 705.7363,78.0234 L715.7363,78.0234 " fill="none" style="stroke:#181818;stroke-width:1;"/><text fill="#000000" font-family="sans-serif" font-size="14" lengthAdjust="spacing" textLength="103.0859" x="718.7363" y="103.3613">VPN + Citrix lent</text><path d="M665.7363,87.8281 L675.7363,87.8281 C690.7363,87.8281 690.7363,97.6328 705.7363,97.6328 L715.7363,97.6328 " fill="none" style="stroke:#181818;stroke-width:1;"/><text fill="#000000" font-family="sans-serif" font-size="14" lengthAdjust="spacing" textLength="134.6064" x="718.7363" y="122.9707">Teletravail impossible</text><path d="M665.7363,87.8281 L675.7363,87.8281 C690.7363,87.8281 690.7363,117.2422 705.7363,117.2422 L715.7363,117.2422 " fill="none" style="stroke:#181818;stroke-width:1;"/><path d="M487.5781,166.2656 L497.5781,166.2656 C512.5781,166.2656 512.5781,87.8281 527.5781,87.8281 L537.5781,87.8281 " fill="none" style="stroke:#181818;stroke-width:1;"/><rect fill="#F1F1F1" height="55.2188" rx="12.5" ry="12.5" style="stroke:#181818;stroke-width:1.5;" width="115.6963" x="537.5781" y="138.6563"/><text fill="#000000" font-family="sans-serif" font-size="14" lengthAdjust="spacing" textLength="95.6963" x="547.5781" y="163.1895">&#240;&#376;&#8221;&#180; Templates</text><text fill="#000000" font-family="sans-serif" font-size="14" lengthAdjust="spacing" textLength="91.793" x="547.5781" y="180.7988">INEXISTANTS</text><text fill="#000000" font-family="sans-serif" font-size="14" lengthAdjust="spacing" textLength="128.4063" x="706.2744" y="142.5801">Recherche manuelle</text><path d="M653.2744,166.2656 L663.2744,166.2656 C678.2744,166.2656 678.2744,136.8516 693.2744,136.8516 L703.2744,136.8516 " fill="none" style="stroke:#181818;stroke-width:1;"/><text fill="#000000" font-family="sans-serif" font-size="14" lengthAdjust="spacing" textLength="117.1064" x="706.2744" y="162.1895">200+ fichiers Word</text><path d="M653.2744,166.2656 L663.2744,166.2656 C678.2744,166.2656 678.2744,156.4609 693.2744,156.4609 L703.2744,156.4609 " fill="none" style="stroke:#181818;stroke-width:1;"/><text fill="#000000" font-family="sans-serif" font-size="14" lengthAdjust="spacing" textLength="133.8477" x="706.2744" y="181.7988">Nommage incoherent</text><path d="M653.2744,166.2656 L663.2744,166.2656 C678.2744,166.2656 678.2744,176.0703 693.2744,176.0703 L703.2744,176.0703 " fill="none" style="stroke:#181818;stroke-width:1;"/><text fill="#000000" font-family="sans-serif" font-size="14" lengthAdjust="spacing" textLength="101.9512" x="706.2744" y="201.4082">30 min de fouille</text><path d="M653.2744,166.2656 L663.2744,166.2656 C678.2744,166.2656 678.2744,195.6797 693.2744,195.6797 L703.2744,195.6797 " fill="none" style="stroke:#181818;stroke-width:1;"/><path d="M487.5781,166.2656 L497.5781,166.2656 C512.5781,166.2656 512.5781,166.2656 527.5781,166.2656 L537.5781,166.2656 " fill="none" style="stroke:#181818;stroke-width:1;"/><rect fill="#F1F1F1" height="55.2188" rx="12.5" ry="12.5" style="stroke:#181818;stroke-width:1.5;" width="118.041" x="537.5781" y="217.0938"/><text fill="#000000" font-family="sans-serif" font-size="14" lengthAdjust="spacing" textLength="77.0273" x="547.5781" y="241.627">&#240;&#376;&#8221;&#180; PPSPS</text><text fill="#000000" font-family="sans-serif" font-size="14" lengthAdjust="spacing" textLength="98.041" x="547.5781" y="259.2363">100% MANUEL</text><text fill="#000000" font-family="sans-serif" font-size="14" font-weight="bold" lengthAdjust="spacing" textLength="92.5928" x="708.6191" y="221.0176">3h par PPSPS</text><path d="M655.6191,244.7031 L665.6191,244.7031 C680.6191,244.7031 680.6191,215.2891 695.6191,215.2891 L705.6191,215.2891 " fill="none" style="stroke:#181818;stroke-width:1;"/><text fill="#000000" font-family="sans-serif" font-size="14" lengthAdjust="spacing" textLength="104.6309" x="708.6191" y="240.627">Ctrl+F remplacer</text><path d="M655.6191,244.7031 L665.6191,244.7031 C680.6191,244.7031 680.6191,234.8984 695.6191,234.8984 L705.6191,234.8984 " fill="none" style="stroke:#181818;stroke-width:1;"/><text fill="#000000" font-family="sans-serif" font-size="14" lengthAdjust="spacing" textLength="135.4063" x="708.6191" y="260.2363">Risque oublis clauses</text><path d="M655.6191,244.7031 L665.6191,244.7031 C680.6191,244.7031 680.6191,254.5078 695.6191,254.5078 L705.6191,254.5078 " fill="none" style="stroke:#181818;stroke-width:1;"/><text fill="#000000" font-family="sans-serif" font-size="14" lengthAdjust="spacing" textLength="106.6201" x="708.6191" y="279.8457">100% copie-colle</text><path d="M655.6191,244.7031 L665.6191,244.7031 C680.6191,244.7031 680.6191,274.1172 695.6191,274.1172 L705.6191,274.1172 " fill="none" style="stroke:#181818;stroke-width:1;"/><path d="M487.5781,166.2656 L497.5781,166.2656 C512.5781,166.2656 512.5781,244.7031 527.5781,244.7031 L537.5781,244.7031 " fill="none" style="stroke:#181818;stroke-width:1;"/><rect fill="#F1F1F1" height="55.2188" rx="12.5" ry="12.5" style="stroke:#181818;stroke-width:1.5;" width="93.9238" x="204.6406" y="60.2188"/><text fill="#000000" font-family="sans-serif" font-size="14" lengthAdjust="spacing" textLength="73.9238" x="214.6406" y="84.752">&#240;&#376;&#8221;&#180; Pas de</text><text fill="#000000" font-family="sans-serif" font-size="14" lengthAdjust="spacing" textLength="71.5654" x="214.6406" y="102.3613">visibilite TR</text><text fill="#000000" font-family="sans-serif" font-size="14" lengthAdjust="spacing" textLength="108.1719" x="43.4688" y="64.1426">Direction aveugle</text><path d="M204.6406,87.8281 L194.6406,87.8281 C179.6406,87.8281 179.6406,58.4141 164.6406,58.4141 L154.6406,58.4141 " fill="none" style="stroke:#181818;stroke-width:1;"/><text fill="#000000" font-family="sans-serif" font-size="14" lengthAdjust="spacing" textLength="101.1787" x="50.4619" y="83.752">Budget disperse</text><path d="M204.6406,87.8281 L194.6406,87.8281 C179.6406,87.8281 179.6406,78.0234 164.6406,78.0234 L154.6406,78.0234 " fill="none" style="stroke:#181818;stroke-width:1;"/><text fill="#000000" font-family="sans-serif" font-size="14" lengthAdjust="spacing" textLength="130.751" x="20.8896" y="103.3613">Avancement inconnu</text><path d="M204.6406,87.8281 L194.6406,87.8281 C179.6406,87.8281 179.6406,97.6328 164.6406,97.6328 L154.6406,97.6328 " fill="none" style="stroke:#181818;stroke-width:1;"/><text fill="#000000" font-family="sans-serif" font-size="14" lengthAdjust="spacing" textLength="104.2754" x="47.3652" y="122.9707">3h pour compiler</text><path d="M204.6406,87.8281 L194.6406,87.8281 C179.6406,87.8281 179.6406,117.2422 164.6406,117.2422 L154.6406,117.2422 " fill="none" style="stroke:#181818;stroke-width:1;"/><path d="M348.5645,166.2656 L338.5645,166.2656 C323.5645,166.2656 323.5645,87.8281 308.5645,87.8281 L298.5645,87.8281 " fill="none" style="stroke:#181818;stroke-width:1;"/><rect fill="#F1F1F1" height="55.2188" rx="12.5" ry="12.5" style="stroke:#181818;stroke-width:1.5;" width="85.3447" x="213.2197" y="138.6563"/><text fill="#000000" font-family="sans-serif" font-size="14" lengthAdjust="spacing" textLength="65.3447" x="223.2197" y="163.1895">&#240;&#376;&#8221;&#180; Devis</text><text fill="#000000" font-family="sans-serif" font-size="14" lengthAdjust="spacing" textLength="53.6963" x="223.2197" y="180.7988">tres long</text><text fill="#000000" font-family="sans-serif" font-size="14" font-weight="bold" lengthAdjust="spacing" textLength="97.2754" x="62.9443" y="142.5801">2h05 par devis</text><path d="M213.2197,166.2656 L203.2197,166.2656 C188.2197,166.2656 188.2197,136.8516 173.2197,136.8516 L163.2197,136.8516 " fill="none" style="stroke:#181818;stroke-width:1;"/><text fill="#000000" font-family="sans-serif" font-size="14" lengthAdjust="spacing" textLength="117.5029" x="42.7168" y="162.1895">30 lignes &#195;&#8212; 5min</text><path d="M213.2197,166.2656 L203.2197,166.2656 C188.2197,166.2656 188.2197,156.4609 173.2197,156.4609 L163.2197,156.4609 " fill="none" style="stroke:#181818;stroke-width:1;"/><text fill="#000000" font-family="sans-serif" font-size="14" lengthAdjust="spacing" textLength="98.834" x="61.3857" y="181.7988">Saisie manuelle</text><path d="M213.2197,166.2656 L203.2197,166.2656 C188.2197,166.2656 188.2197,176.0703 173.2197,176.0703 L163.2197,176.0703 " fill="none" style="stroke:#181818;stroke-width:1;"/><text fill="#000000" font-family="sans-serif" font-size="14" lengthAdjust="spacing" textLength="105.8203" x="54.3994" y="201.4082">Verif Excel perso</text><path d="M213.2197,166.2656 L203.2197,166.2656 C188.2197,166.2656 188.2197,195.6797 173.2197,195.6797 L163.2197,195.6797 " fill="none" style="stroke:#181818;stroke-width:1;"/><path d="M348.5645,166.2656 L338.5645,166.2656 C323.5645,166.2656 323.5645,166.2656 308.5645,166.2656 L298.5645,166.2656 " fill="none" style="stroke:#181818;stroke-width:1;"/><rect fill="#F1F1F1" height="55.2188" rx="12.5" ry="12.5" style="stroke:#181818;stroke-width:1.5;" width="111.0547" x="187.5098" y="217.0938"/><text fill="#000000" font-family="sans-serif" font-size="14" lengthAdjust="spacing" textLength="77.8203" x="197.5098" y="241.627">&#240;&#376;&#8221;&#180; Aucune</text><text fill="#000000" font-family="sans-serif" font-size="14" lengthAdjust="spacing" textLength="91.0547" x="197.5098" y="259.2363">automatisation</text><text fill="#000000" font-family="sans-serif" font-size="14" lengthAdjust="spacing" textLength="124.5098" x="10" y="221.0176">Zero templates auto</text><path d="M187.5098,244.7031 L177.5098,244.7031 C162.5098,244.7031 162.5098,215.2891 147.5098,215.2891 L137.5098,215.2891 " fill="none" style="stroke:#181818;stroke-width:1;"/><text fill="#000000" font-family="sans-serif" font-size="14" lengthAdjust="spacing" textLength="105.8408" x="28.6689" y="240.627">Zero dashboards</text><path d="M187.5098,244.7031 L177.5098,244.7031 C162.5098,244.7031 162.5098,234.8984 147.5098,234.8984 L137.5098,234.8984 " fill="none" style="stroke:#181818;stroke-width:1;"/><text fill="#000000" font-family="sans-serif" font-size="14" lengthAdjust="spacing" textLength="62.2412" x="72.2686" y="260.2363">Zero APIs</text><path d="M187.5098,244.7031 L177.5098,244.7031 C162.5098,244.7031 162.5098,254.5078 147.5098,254.5078 L137.5098,254.5078 " fill="none" style="stroke:#181818;stroke-width:1;"/><text fill="#000000" font-family="sans-serif" font-size="14" lengthAdjust="spacing" textLength="85.6133" x="48.8965" y="279.8457">100% manuel</text><path d="M187.5098,244.7031 L177.5098,244.7031 C162.5098,244.7031 162.5098,274.1172 147.5098,274.1172 L137.5098,274.1172 " fill="none" style="stroke:#181818;stroke-width:1;"/><path d="M348.5645,166.2656 L338.5645,166.2656 C323.5645,166.2656 323.5645,244.7031 308.5645,244.7031 L298.5645,244.7031 " fill="none" style="stroke:#181818;stroke-width:1;"/><!--SRC=[PLF1Rjf04BtxA-RIAd54QWX44QSuuBI9CBKmqAX2Geizm4hhNNTtZP9RfFv2h_s77dhekL5_95_IiGq9IGwMl3FlxRnvCtjkBDCsupBDM0uHut8UAIwjcVUvniHo9UV-SideO1p7SYiGGa93IF16HO2Q04y4U0yVqLH_prGN7dxz-_Du__FlRt3TQFJvOX24GUowC-cweNyTJ4PqSDnzN32AO80hbjpDPCyV-E7LE9ZS4CQTGzWFFiHiXQ0MHWcqM8TFl4RRCv0p3PXe9kleD1h24VIurVmM14fRXyT8HCqsZ0lWMQwCuGk1paiHOynomIoQcRmQ1ZTNyTWVZkFwWX4cQzJqGSPaWK9iLRGyxmYMF5bpr0Q-A9tMyQ7Aib8pbuaYufEG4mze190YB5N1nHiDKHH7yKmsFUyTXFvm4WngdkkUhAjUAq1b7qLxLekZIz2Ly0JrLYittmgogrW8RY0Hh30qbofLtPked6CZKLLrWKiBXgTlX313AcTomyagBhX568_gIvx7ppPOh7PMN1Jf2YsatEJanJReRvXCCAF-AokaBBO-K3UgqAGboxaWvI-hzv7gpgIbXGAXv6fdGcljTIeRqXAmiu5C5Nmb2Vlm_V7-1tJ8uZeJCvB_UcPJr7m9mMs20agfwbLnlqWAIQspmggCMMvOsMpD_OfQWTqj2fIGlKJAp7gXc4xDNj2FhlRThxKupZdIIwnVe-D4Waax2GUm8JsbiytZbjTg7vyTN6fEoxI1PWUQPzrskzi-XLumXZ9zw1nyZ0PWoCW4I-DfwnT5AVRGkQPbXr4XBS-m2-NfO1mUGXpiWX3GRBMIvMoSwsbOW-2Jid6kR0K-RJSkk8KODSc2QUZqSSaAOOcQg9JBLHTwURFLQJa39bS5xNiNbjhfAQgWxxfmEVeF]--></g></svg>