<svg xmlns="http://www.w3.org/2000/svg" xmlns:xlink="http://www.w3.org/1999/xlink" contentStyleType="text/css" height="295px" preserveAspectRatio="none" style="width:906px;height:295px;background:#FFFFFF;" version="1.1" viewBox="0 0 906 295" width="906px" zoomAndPan="magnify"><title>Mind Map - Pain Points Direction &amp; Gestion Affaires</title><defs/><g><text fill="#000000" font-family="sans-serif" font-size="14" font-weight="bold" lengthAdjust="spacing" textLength="343.8135" x="279.7827" y="34.5332">Mind Map - Pain Points Direction &amp; Gestion Affaires</text><rect fill="#F1F1F1" height="55.2188" rx="12.5" ry="12.5" style="stroke:#181818;stroke-width:1.5;" width="144.4482" x="360.4316" y="138.6563"/><text fill="#000000" font-family="sans-serif" font-size="14" lengthAdjust="spacing" textLength="26.4482" x="370.4316" y="163.1895">&#240;&#376;&#8221;&#180;</text><text fill="#000000" font-family="sans-serif" font-size="14" font-weight="bold" lengthAdjust="spacing" textLength="94.1104" x="400.7695" y="163.1895">PROBL&#195;&#710;MES</text><text fill="#000000" font-family="sans-serif" font-size="14" font-weight="bold" lengthAdjust="spacing" textLength="68.4551" x="370.4316" y="180.7988">MAJEURS</text><rect fill="#F1F1F1" height="55.2188" rx="12.5" ry="12.5" style="stroke:#181818;stroke-width:1.5;" width="128.1582" x="554.8799" y="60.2188"/><text fill="#000000" font-family="sans-serif" font-size="14" lengthAdjust="spacing" textLength="108.1582" x="564.8799" y="84.752">&#240;&#376;&#8221;&#180; ERP Legacy</text><text fill="#000000" font-family="sans-serif" font-size="14" lengthAdjust="spacing" textLength="89.4619" x="564.8799" y="102.3613">CALAMITEUX</text><text fill="#000000" font-family="sans-serif" font-size="14" lengthAdjust="spacing" textLength="130.7305" x="736.0381" y="64.1426">MDE/Sage obsol&#195;&#168;te</text><path d="M683.0381,87.8281 L693.0381,87.8281 C708.0381,87.8281 708.0381,58.4141 723.0381,58.4141 L733.0381,58.4141 " fill="none" style="stroke:#181818;stroke-width:1;"/><text fill="#000000" font-family="sans-serif" font-size="14" lengthAdjust="spacing" textLength="117.708" x="736.0381" y="83.752">30-40s par &#195;&#169;cran</text><path d="M683.0381,87.8281 L693.0381,87.8281 C708.0381,87.8281 708.0381,78.0234 723.0381,78.0234 L733.0381,78.0234 " fill="none" style="stroke:#181818;stroke-width:1;"/><text fill="#000000" font-family="sans-serif" font-size="14" lengthAdjust="spacing" textLength="103.0859" x="736.0381" y="103.3613">VPN + Citrix lent</text><path d="M683.0381,87.8281 L693.0381,87.8281 C708.0381,87.8281 708.0381,97.6328 723.0381,97.6328 L733.0381,97.6328 " fill="none" style="stroke:#181818;stroke-width:1;"/><text fill="#000000" font-family="sans-serif" font-size="14" lengthAdjust="spacing" textLength="158.3408" x="736.0381" y="122.9707">T&#195;&#169;l&#195;&#169;travail impossible</text><path d="M683.0381,87.8281 L693.0381,87.8281 C708.0381,87.8281 708.0381,117.2422 723.0381,117.2422 L733.0381,117.2422 " fill="none" style="stroke:#181818;stroke-width:1;"/><path d="M504.8799,166.2656 L514.8799,166.2656 C529.8799,166.2656 529.8799,87.8281 544.8799,87.8281 L554.8799,87.8281 " fill="none" style="stroke:#181818;stroke-width:1;"/><rect fill="#F1F1F1" height="55.2188" rx="12.5" ry="12.5" style="stroke:#181818;stroke-width:1.5;" width="115.6963" x="554.8799" y="138.6563"/><text fill="#000000" font-family="sans-serif" font-size="14" lengthAdjust="spacing" textLength="95.6963" x="564.8799" y="163.1895">&#240;&#376;&#8221;&#180; Templates</text><text fill="#000000" font-family="sans-serif" font-size="14" lengthAdjust="spacing" textLength="91.793" x="564.8799" y="180.7988">INEXISTANTS</text><text fill="#000000" font-family="sans-serif" font-size="14" lengthAdjust="spacing" textLength="128.4063" x="723.5762" y="142.5801">Recherche manuelle</text><path d="M670.5762,166.2656 L680.5762,166.2656 C695.5762,166.2656 695.5762,136.8516 710.5762,136.8516 L720.5762,136.8516 " fill="none" style="stroke:#181818;stroke-width:1;"/><text fill="#000000" font-family="sans-serif" font-size="14" lengthAdjust="spacing" textLength="117.1064" x="723.5762" y="162.1895">200+ fichiers Word</text><path d="M670.5762,166.2656 L680.5762,166.2656 C695.5762,166.2656 695.5762,156.4609 710.5762,156.4609 L720.5762,156.4609 " fill="none" style="stroke:#181818;stroke-width:1;"/><text fill="#000000" font-family="sans-serif" font-size="14" lengthAdjust="spacing" textLength="145.7148" x="723.5762" y="181.7988">Nommage incoh&#195;&#169;rent</text><path d="M670.5762,166.2656 L680.5762,166.2656 C695.5762,166.2656 695.5762,176.0703 710.5762,176.0703 L720.5762,176.0703 " fill="none" style="stroke:#181818;stroke-width:1;"/><text fill="#000000" font-family="sans-serif" font-size="14" lengthAdjust="spacing" textLength="101.9512" x="723.5762" y="201.4082">30 min de fouille</text><path d="M670.5762,166.2656 L680.5762,166.2656 C695.5762,166.2656 695.5762,195.6797 710.5762,195.6797 L720.5762,195.6797 " fill="none" style="stroke:#181818;stroke-width:1;"/><path d="M504.8799,166.2656 L514.8799,166.2656 C529.8799,166.2656 529.8799,166.2656 544.8799,166.2656 L554.8799,166.2656 " fill="none" style="stroke:#181818;stroke-width:1;"/><rect fill="#F1F1F1" height="55.2188" rx="12.5" ry="12.5" style="stroke:#181818;stroke-width:1.5;" width="118.041" x="554.8799" y="217.0938"/><text fill="#000000" font-family="sans-serif" font-size="14" lengthAdjust="spacing" textLength="77.0273" x="564.8799" y="241.627">&#240;&#376;&#8221;&#180; PPSPS</text><text fill="#000000" font-family="sans-serif" font-size="14" lengthAdjust="spacing" textLength="98.041" x="564.8799" y="259.2363">100% MANUEL</text><text fill="#000000" font-family="sans-serif" font-size="14" font-weight="bold" lengthAdjust="spacing" textLength="92.5928" x="725.9209" y="221.0176">3h par PPSPS</text><path d="M672.9209,244.7031 L682.9209,244.7031 C697.9209,244.7031 697.9209,215.2891 712.9209,215.2891 L722.9209,215.2891 " fill="none" style="stroke:#181818;stroke-width:1;"/><text fill="#000000" font-family="sans-serif" font-size="14" lengthAdjust="spacing" textLength="104.6309" x="725.9209" y="240.627">Ctrl+F remplacer</text><path d="M672.9209,244.7031 L682.9209,244.7031 C697.9209,244.7031 697.9209,234.8984 712.9209,234.8984 L722.9209,234.8984 " fill="none" style="stroke:#181818;stroke-width:1;"/><text fill="#000000" font-family="sans-serif" font-size="14" lengthAdjust="spacing" textLength="135.4063" x="725.9209" y="260.2363">Risque oublis clauses</text><path d="M672.9209,244.7031 L682.9209,244.7031 C697.9209,244.7031 697.9209,254.5078 712.9209,254.5078 L722.9209,254.5078 " fill="none" style="stroke:#181818;stroke-width:1;"/><text fill="#000000" font-family="sans-serif" font-size="14" lengthAdjust="spacing" textLength="106.6201" x="725.9209" y="279.8457">100% copie-colle</text><path d="M672.9209,244.7031 L682.9209,244.7031 C697.9209,244.7031 697.9209,274.1172 712.9209,274.1172 L722.9209,274.1172 " fill="none" style="stroke:#181818;stroke-width:1;"/><path d="M504.8799,166.2656 L514.8799,166.2656 C529.8799,166.2656 529.8799,244.7031 544.8799,244.7031 L554.8799,244.7031 " fill="none" style="stroke:#181818;stroke-width:1;"/><rect fill="#F1F1F1" height="55.2188" rx="12.5" ry="12.5" style="stroke:#181818;stroke-width:1.5;" width="103.4326" x="206.999" y="60.2188"/><text fill="#000000" font-family="sans-serif" font-size="14" lengthAdjust="spacing" textLength="73.9238" x="216.999" y="84.752">&#240;&#376;&#8221;&#180; Pas de</text><text fill="#000000" font-family="sans-serif" font-size="14" lengthAdjust="spacing" textLength="83.4326" x="216.999" y="102.3613">visibilit&#195;&#169; TR</text><text fill="#000000" font-family="sans-serif" font-size="14" lengthAdjust="spacing" textLength="108.1719" x="45.8271" y="64.1426">Direction aveugle</text><path d="M206.999,87.8281 L196.999,87.8281 C181.999,87.8281 181.999,58.4141 166.999,58.4141 L156.999,58.4141 " fill="none" style="stroke:#181818;stroke-width:1;"/><text fill="#000000" font-family="sans-serif" font-size="14" lengthAdjust="spacing" textLength="113.0459" x="40.9531" y="83.752">Budget dispers&#195;&#169;</text><path d="M206.999,87.8281 L196.999,87.8281 C181.999,87.8281 181.999,78.0234 166.999,78.0234 L156.999,78.0234 " fill="none" style="stroke:#181818;stroke-width:1;"/><text fill="#000000" font-family="sans-serif" font-size="14" lengthAdjust="spacing" textLength="130.751" x="23.248" y="103.3613">Avancement inconnu</text><path d="M206.999,87.8281 L196.999,87.8281 C181.999,87.8281 181.999,97.6328 166.999,97.6328 L156.999,97.6328 " fill="none" style="stroke:#181818;stroke-width:1;"/><text fill="#000000" font-family="sans-serif" font-size="14" lengthAdjust="spacing" textLength="104.2754" x="49.7236" y="122.9707">3h pour compiler</text><path d="M206.999,87.8281 L196.999,87.8281 C181.999,87.8281 181.999,117.2422 166.999,117.2422 L156.999,117.2422 " fill="none" style="stroke:#181818;stroke-width:1;"/><path d="M360.4316,166.2656 L350.4316,166.2656 C335.4316,166.2656 335.4316,87.8281 320.4316,87.8281 L310.4316,87.8281 " fill="none" style="stroke:#181818;stroke-width:1;"/><rect fill="#F1F1F1" height="55.2188" rx="12.5" ry="12.5" style="stroke:#181818;stroke-width:1.5;" width="85.3447" x="225.0869" y="138.6563"/><text fill="#000000" font-family="sans-serif" font-size="14" lengthAdjust="spacing" textLength="65.3447" x="235.0869" y="163.1895">&#240;&#376;&#8221;&#180; Devis</text><text fill="#000000" font-family="sans-serif" font-size="14" lengthAdjust="spacing" textLength="59.9102" x="235.0869" y="180.7988">tr&#195;&#168;s long</text><text fill="#000000" font-family="sans-serif" font-size="14" font-weight="bold" lengthAdjust="spacing" textLength="97.2754" x="74.8115" y="142.5801">2h05 par devis</text><path d="M225.0869,166.2656 L215.0869,166.2656 C200.0869,166.2656 200.0869,136.8516 185.0869,136.8516 L175.0869,136.8516 " fill="none" style="stroke:#181818;stroke-width:1;"/><text fill="#000000" font-family="sans-serif" font-size="14" lengthAdjust="spacing" textLength="117.5029" x="54.584" y="162.1895">30 lignes &#195;&#8212; 5min</text><path d="M225.0869,166.2656 L215.0869,166.2656 C200.0869,166.2656 200.0869,156.4609 185.0869,156.4609 L175.0869,156.4609 " fill="none" style="stroke:#181818;stroke-width:1;"/><text fill="#000000" font-family="sans-serif" font-size="14" lengthAdjust="spacing" textLength="98.834" x="73.2529" y="181.7988">Saisie manuelle</text><path d="M225.0869,166.2656 L215.0869,166.2656 C200.0869,166.2656 200.0869,176.0703 185.0869,176.0703 L175.0869,176.0703 " fill="none" style="stroke:#181818;stroke-width:1;"/><text fill="#000000" font-family="sans-serif" font-size="14" lengthAdjust="spacing" textLength="117.6875" x="54.3994" y="201.4082">V&#195;&#169;rif Excel perso</text><path d="M225.0869,166.2656 L215.0869,166.2656 C200.0869,166.2656 200.0869,195.6797 185.0869,195.6797 L175.0869,195.6797 " fill="none" style="stroke:#181818;stroke-width:1;"/><path d="M360.4316,166.2656 L350.4316,166.2656 C335.4316,166.2656 335.4316,166.2656 320.4316,166.2656 L310.4316,166.2656 " fill="none" style="stroke:#181818;stroke-width:1;"/><rect fill="#F1F1F1" height="55.2188" rx="12.5" ry="12.5" style="stroke:#181818;stroke-width:1.5;" width="111.0547" x="199.377" y="217.0938"/><text fill="#000000" font-family="sans-serif" font-size="14" lengthAdjust="spacing" textLength="77.8203" x="209.377" y="241.627">&#240;&#376;&#8221;&#180; Aucune</text><text fill="#000000" font-family="sans-serif" font-size="14" lengthAdjust="spacing" textLength="91.0547" x="209.377" y="259.2363">automatisation</text><text fill="#000000" font-family="sans-serif" font-size="14" lengthAdjust="spacing" textLength="136.377" x="10" y="221.0176">Z&#195;&#169;ro templates auto</text><path d="M199.377,244.7031 L189.377,244.7031 C174.377,244.7031 174.377,215.2891 159.377,215.2891 L149.377,215.2891 " fill="none" style="stroke:#181818;stroke-width:1;"/><text fill="#000000" font-family="sans-serif" font-size="14" lengthAdjust="spacing" textLength="117.708" x="28.6689" y="240.627">Z&#195;&#169;ro dashboards</text><path d="M199.377,244.7031 L189.377,244.7031 C174.377,244.7031 174.377,234.8984 159.377,234.8984 L149.377,234.8984 " fill="none" style="stroke:#181818;stroke-width:1;"/><text fill="#000000" font-family="sans-serif" font-size="14" lengthAdjust="spacing" textLength="74.1084" x="72.2686" y="260.2363">Z&#195;&#169;ro APIs</text><path d="M199.377,244.7031 L189.377,244.7031 C174.377,244.7031 174.377,254.5078 159.377,254.5078 L149.377,254.5078 " fill="none" style="stroke:#181818;stroke-width:1;"/><text fill="#000000" font-family="sans-serif" font-size="14" lengthAdjust="spacing" textLength="85.6133" x="60.7637" y="279.8457">100% manuel</text><path d="M199.377,244.7031 L189.377,244.7031 C174.377,244.7031 174.377,274.1172 159.377,274.1172 L149.377,274.1172 " fill="none" style="stroke:#181818;stroke-width:1;"/><path d="M360.4316,166.2656 L350.4316,166.2656 C335.4316,166.2656 335.4316,244.7031 320.4316,244.7031 L310.4316,244.7031 " fill="none" style="stroke:#181818;stroke-width:1;"/><!--SRC=[PLF1Jjj04BtxA-RI2en2dP0Wb1CcCJGeJgquIL4LAThOcsIbzQwxkuxWXeJKB-YrztBheOUUGJtrB_YIpje421miUMVUsttpPkPO6w9CnaIQaHmYmiGiaamOFUioHHF3f9ZvYmN1WtOSmmod428QGeJNIW9K17WYm7iuexhyUwQwSF_hxv-7wnztly5re-6da_xzpRzlOH2xxbIuRkYV1-CX7Xpt9JGOHj2dIv9SJKN7x_jXRnICBn3ZpY3i1XzYigGWvrho-vkxduPMcGElrlGqv4G1XcyJHKILc4G3s8CECufT0gV2LE6HHTaRReqYQy8ui2oNMhCvfywse17DSauCrLFH6mGNlNZa3qPnTSsG9Ykgy8ECY89o_YYduNbxi639Yb6buRDKQHKVo2op-fb8vCg-hfuK7NY0JO6Kma8MZB-H4KLn54z5tVFUGUWFna6_uhdkmQgikmIKRcAqOnJVEmLLQa-eUfJBzDS2tIlcd6b8E2aqTgfCbVScCcUqbiZoTKuN1ZHBtmWX6bLEnPgXMumpO-k0qR2wvtaco9eMouqX9qMwf0PIfdDqn3AgkByc8g4Pkb1w8aJnw0RM90k5YhASSTI_hQ5ByVMfCChEW0OknNBZHcFbjKe_KelP-87kShOKLEDuF5n_XnPwNMLYWdMyxj-ax0rRG72PK0vMitmbmI-IGg0Df30o8uPfOgkkw5zAkWIp6HsmgErSIlHgBebAzNRSZtelMrBfSfnZYWjRBQtZH9m8Cmxxi4PXrklwViDhDFUFTauLmo5RGxq5zQDsizbk7a8d685DxpexPr4VDFgQKDiAt8bvOLNlEkUu130iX64PROCzxOp2NOY3JH02RBYImhRAEP-45GW-IXFdqfJWmsRjX1c8gK9PC0cTBbsGWXka9Z9bOjc6Jbvlj1fEduXbWNlGXeLoEX9VK5TjE1t-1m00]--></g></svg>