<svg xmlns="http://www.w3.org/2000/svg" xmlns:xlink="http://www.w3.org/1999/xlink" contentStyleType="text/css" height="2697px" preserveAspectRatio="none" style="width:1029px;height:2697px;background:#FFFFFF;" version="1.1" viewBox="0 0 1029 2697" width="1029px" zoomAndPan="magnify"><title>State Diagram - Cycle de Vie d'un Devis</title><defs/><g><text fill="#000000" font-family="sans-serif" font-size="14" font-weight="bold" lengthAdjust="spacing" textLength="263.1973" x="375.9864" y="24.5332">State Diagram - Cycle de Vie d'un Devis</text><g id="DemandeClient"><rect fill="#90EE90" height="50" rx="12.5" ry="12.5" style="stroke:#181818;stroke-width:0.5;" width="120.3857" x="602.28" y="147.1094"/><line style="stroke:#181818;stroke-width:0.5;" x1="602.28" x2="722.6657" y1="174.7188" y2="174.7188"/><text fill="#000000" font-family="sans-serif" font-size="14" lengthAdjust="spacing" textLength="100.3857" x="612.28" y="166.6426">Demande Client</text></g><g id="RechercheTemplate"><rect fill="#FF6B6B" height="50" rx="12.5" ry="12.5" style="stroke:#181818;stroke-width:0.5;" width="149.9512" x="587.28" y="325.1094"/><line style="stroke:#181818;stroke-width:0.5;" x1="587.28" x2="737.2312" y1="352.7188" y2="352.7188"/><text fill="#000000" font-family="sans-serif" font-size="14" lengthAdjust="spacing" textLength="129.9512" x="597.28" y="344.6426">Recherche Template</text></g><g id="PasDeTemplate"><rect fill="#FF6B6B" height="50" rx="12.5" ry="12.5" style="stroke:#181818;stroke-width:0.5;" width="125.834" x="533.28" y="498.6094"/><line style="stroke:#181818;stroke-width:0.5;" x1="533.28" x2="659.114" y1="526.2188" y2="526.2188"/><text fill="#000000" font-family="sans-serif" font-size="14" lengthAdjust="spacing" textLength="105.834" x="543.28" y="518.1426">Pas de Template</text></g><g id="OuvertureMDE"><rect fill="#FF6B6B" height="50" rx="12.5" ry="12.5" style="stroke:#181818;stroke-width:0.5;" width="117.248" x="611.78" y="630.6094"/><line style="stroke:#181818;stroke-width:0.5;" x1="611.78" x2="729.028" y1="658.2188" y2="658.2188"/><text fill="#000000" font-family="sans-serif" font-size="14" lengthAdjust="spacing" textLength="97.248" x="621.78" y="650.1426">Ouverture MDE</text></g><g id="RechercheClient"><rect fill="#FFD700" height="50" rx="12.5" ry="12.5" style="stroke:#181818;stroke-width:0.5;" width="127.3857" x="439.78" y="779.6094"/><line style="stroke:#181818;stroke-width:0.5;" x1="439.78" x2="567.1657" y1="807.2188" y2="807.2188"/><text fill="#000000" font-family="sans-serif" font-size="14" lengthAdjust="spacing" textLength="107.3857" x="449.78" y="799.1426">Recherche Client</text></g><path d="M415.28,907.6094 L525.4426,907.6094 A12.5,12.5 0 0 1 537.9426,920.1094 L537.9426,935.2188 L402.78,935.2188 L402.78,920.1094 A12.5,12.5 0 0 1 415.28,907.6094 " fill="#FF6B6B" style="stroke:#FF6B6B;stroke-width:1;"/><rect fill="none" height="543.6094" rx="12.5" ry="12.5" style="stroke:#181818;stroke-width:0.5;" width="135.1626" x="402.78" y="907.6094"/><line style="stroke:#181818;stroke-width:0.5;" x1="402.78" x2="537.9426" y1="935.2188" y2="935.2188"/><text fill="#000000" font-family="sans-serif" font-size="14" lengthAdjust="spacing" textLength="98.834" x="420.9443" y="927.1426">Saisie Manuelle</text><ellipse cx="464.78" cy="956.2188" fill="#222222" rx="10" ry="10" style="stroke:#222222;stroke-width:1;"/><g id="SaisieManuelle.SaisieLigne1"><rect fill="#F1F1F1" height="50" rx="12.5" ry="12.5" style="stroke:#181818;stroke-width:0.5;" width="100.1719" x="414.78" y="1003.2188"/><line style="stroke:#181818;stroke-width:0.5;" x1="414.78" x2="514.9519" y1="1030.8281" y2="1030.8281"/><text fill="#000000" font-family="sans-serif" font-size="14" lengthAdjust="spacing" textLength="80.1719" x="424.78" y="1022.752">SaisieLigne1</text></g><g id="SaisieManuelle.SaisieLigne2"><rect fill="#F1F1F1" height="50" rx="12.5" ry="12.5" style="stroke:#181818;stroke-width:0.5;" width="100.1719" x="414.78" y="1107.2188"/><line style="stroke:#181818;stroke-width:0.5;" x1="414.78" x2="514.9519" y1="1134.8281" y2="1134.8281"/><text fill="#000000" font-family="sans-serif" font-size="14" lengthAdjust="spacing" textLength="80.1719" x="424.78" y="1126.752">SaisieLigne2</text></g><g id="SaisieManuelle.SaisieLigne3"><rect fill="#F1F1F1" height="50" rx="12.5" ry="12.5" style="stroke:#181818;stroke-width:0.5;" width="100.1719" x="414.78" y="1211.2188"/><line style="stroke:#181818;stroke-width:0.5;" x1="414.78" x2="514.9519" y1="1238.8281" y2="1238.8281"/><text fill="#000000" font-family="sans-serif" font-size="14" lengthAdjust="spacing" textLength="80.1719" x="424.78" y="1230.752">SaisieLigne3</text></g><g id="SaisieManuelle.SaisieAutres"><rect fill="#F1F1F1" height="50" rx="12.5" ry="12.5" style="stroke:#181818;stroke-width:0.5;" width="98.5928" x="415.28" y="1315.2188"/><line style="stroke:#181818;stroke-width:0.5;" x1="415.28" x2="513.8728" y1="1342.8281" y2="1342.8281"/><text fill="#000000" font-family="sans-serif" font-size="14" lengthAdjust="spacing" textLength="78.5928" x="425.28" y="1334.752">SaisieAutres</text></g><ellipse cx="464.78" cy="1430.2188" fill="none" rx="11" ry="11" style="stroke:#222222;stroke-width:1;"/><ellipse cx="464.78" cy="1430.2188" fill="#222222" rx="6" ry="6" style="stroke:#222222;stroke-width:1;"/><!--link *start*SaisieManuelle to SaisieLigne1--><g id="link_*start*SaisieManuelle_SaisieLigne1"><path d="M464.78,966.3688 C464.78,975.6388 464.78,984.3588 464.78,996.9988 " fill="none" id="*start*SaisieManuelle-to-SaisieLigne1" style="stroke:#181818;stroke-width:1;"/><polygon fill="#181818" points="464.78,1002.9988,468.78,993.9988,464.78,997.9988,460.78,993.9988,464.78,1002.9988" style="stroke:#181818;stroke-width:1;"/></g><!--link SaisieLigne1 to SaisieLigne2--><g id="link_SaisieLigne1_SaisieLigne2"><path d="M464.78,1053.3888 C464.78,1069.5288 464.78,1084.6888 464.78,1100.8688 " fill="none" id="SaisieLigne1-to-SaisieLigne2" style="stroke:#181818;stroke-width:1;"/><polygon fill="#181818" points="464.78,1106.8688,468.78,1097.8688,464.78,1101.8688,460.78,1097.8688,464.78,1106.8688" style="stroke:#181818;stroke-width:1;"/><text fill="#000000" font-family="sans-serif" font-size="13" lengthAdjust="spacing" textLength="62.1626" x="465.78" y="1085.7139">Popup 35s</text></g><!--link SaisieLigne2 to SaisieLigne3--><g id="link_SaisieLigne2_SaisieLigne3"><path d="M464.78,1157.3888 C464.78,1173.5288 464.78,1188.6888 464.78,1204.8688 " fill="none" id="SaisieLigne2-to-SaisieLigne3" style="stroke:#181818;stroke-width:1;"/><polygon fill="#181818" points="464.78,1210.8688,468.78,1201.8688,464.78,1205.8688,460.78,1201.8688,464.78,1210.8688" style="stroke:#181818;stroke-width:1;"/><text fill="#000000" font-family="sans-serif" font-size="13" lengthAdjust="spacing" textLength="62.1626" x="465.78" y="1189.7139">Popup 35s</text></g><!--link SaisieLigne3 to SaisieAutres--><g id="link_SaisieLigne3_SaisieAutres"><path d="M464.78,1261.3888 C464.78,1277.5288 464.78,1292.6888 464.78,1308.8688 " fill="none" id="SaisieLigne3-to-SaisieAutres" style="stroke:#181818;stroke-width:1;"/><polygon fill="#181818" points="464.78,1314.8688,468.78,1305.8688,464.78,1309.8688,460.78,1305.8688,464.78,1314.8688" style="stroke:#181818;stroke-width:1;"/><text fill="#000000" font-family="sans-serif" font-size="13" lengthAdjust="spacing" textLength="10.8354" x="465.78" y="1293.7139">...</text></g><!--link SaisieAutres to *end*SaisieManuelle--><g id="link_SaisieAutres_*end*SaisieManuelle"><path d="M464.78,1365.2688 C464.78,1382.9788 464.78,1400.1588 464.78,1413.1888 " fill="none" id="SaisieAutres-to-*end*SaisieManuelle" style="stroke:#181818;stroke-width:1;"/><polygon fill="#181818" points="464.78,1419.1888,468.78,1410.1888,464.78,1414.1888,460.78,1410.1888,464.78,1419.1888" style="stroke:#181818;stroke-width:1;"/><text fill="#000000" font-family="sans-serif" font-size="13" lengthAdjust="spacing" textLength="52.0381" x="465.78" y="1397.7139">30 lignes</text></g><g id="VerifExcel"><rect fill="#FFD700" height="50" rx="12.5" ry="12.5" style="stroke:#181818;stroke-width:0.5;" width="139.2461" x="400.78" y="1542.1094"/><line style="stroke:#181818;stroke-width:0.5;" x1="400.78" x2="540.0261" y1="1569.7188" y2="1569.7188"/><text fill="#000000" font-family="sans-serif" font-size="14" lengthAdjust="spacing" textLength="119.2461" x="410.78" y="1561.6426">V&#195;&#169;rification Excel</text></g><g id="Ajustements"><rect fill="#FFD700" height="50" rx="12.5" ry="12.5" style="stroke:#181818;stroke-width:0.5;" width="97.0342" x="451.78" y="1682.6094"/><line style="stroke:#181818;stroke-width:0.5;" x1="451.78" x2="548.8142" y1="1710.2188" y2="1710.2188"/><text fill="#000000" font-family="sans-serif" font-size="14" lengthAdjust="spacing" textLength="77.0342" x="461.78" y="1702.1426">Ajustements</text></g><g id="GenerationPDF"><rect fill="#FFD700" height="50" rx="12.5" ry="12.5" style="stroke:#181818;stroke-width:0.5;" width="144.8926" x="332.78" y="1810.6094"/><line style="stroke:#181818;stroke-width:0.5;" x1="332.78" x2="477.6726" y1="1838.2188" y2="1838.2188"/><text fill="#000000" font-family="sans-serif" font-size="14" lengthAdjust="spacing" textLength="124.8926" x="342.78" y="1830.1426">G&#195;&#169;n&#195;&#169;ration PDF</text></g><g id="VerifPDF"><rect fill="#FFD700" height="50" rx="12.5" ry="12.5" style="stroke:#181818;stroke-width:0.5;" width="133.0117" x="358.78" y="1943.1094"/><line style="stroke:#181818;stroke-width:0.5;" x1="358.78" x2="491.7917" y1="1970.7188" y2="1970.7188"/><text fill="#000000" font-family="sans-serif" font-size="14" lengthAdjust="spacing" textLength="113.0117" x="368.78" y="1962.6426">V&#195;&#169;rification PDF</text></g><g id="BugPDF"><rect fill="#FF6B6B" height="50" rx="12.5" ry="12.5" style="stroke:#181818;stroke-width:0.5;" width="76.7998" x="70.78" y="2088.1094"/><line style="stroke:#181818;stroke-width:0.5;" x1="70.78" x2="147.5798" y1="2115.7188" y2="2115.7188"/><text fill="#000000" font-family="sans-serif" font-size="14" lengthAdjust="spacing" textLength="56.7998" x="80.78" y="2107.6426">Bug PDF</text></g><g id="EnvoiClient"><rect fill="#90EE90" height="50" rx="12.5" ry="12.5" style="stroke:#181818;stroke-width:0.5;" width="94.7031" x="377.78" y="2088.1094"/><line style="stroke:#181818;stroke-width:0.5;" x1="377.78" x2="472.4831" y1="2115.7188" y2="2115.7188"/><text fill="#000000" font-family="sans-serif" font-size="14" lengthAdjust="spacing" textLength="74.7031" x="387.78" y="2107.6426">Envoi Client</text></g><g id="EnAttente"><rect fill="#FFFFAA" height="50" rx="12.5" ry="12.5" style="stroke:#181818;stroke-width:0.5;" width="85.3789" x="382.78" y="2228.6094"/><line style="stroke:#181818;stroke-width:0.5;" x1="382.78" x2="468.1589" y1="2256.2188" y2="2256.2188"/><text fill="#000000" font-family="sans-serif" font-size="14" lengthAdjust="spacing" textLength="65.3789" x="392.78" y="2248.1426">En Attente</text></g><g id="Modification"><rect fill="#FFD700" height="50" rx="12.5" ry="12.5" style="stroke:#181818;stroke-width:0.5;" width="178.9492" x="746.78" y="2356.6094"/><line style="stroke:#181818;stroke-width:0.5;" x1="746.78" x2="925.7292" y1="2384.2188" y2="2384.2188"/><text fill="#000000" font-family="sans-serif" font-size="14" lengthAdjust="spacing" textLength="158.9492" x="756.78" y="2376.1426">Modification Demand&#195;&#169;e</text></g><g id="Refus"><rect fill="#FF6B6B" height="50" rx="12.5" ry="12.5" style="stroke:#181818;stroke-width:0.5;" width="92.748" x="237.78" y="2356.6094"/><line style="stroke:#181818;stroke-width:0.5;" x1="237.78" x2="330.528" y1="2384.2188" y2="2384.2188"/><text fill="#000000" font-family="sans-serif" font-size="14" lengthAdjust="spacing" textLength="72.748" x="247.78" y="2376.1426">&#226;&#65533;&#338; Refus</text></g><g id="Accepte"><rect fill="#90EE90" height="50" rx="12.5" ry="12.5" style="stroke:#181818;stroke-width:0.5;" width="117.6035" x="366.28" y="2356.6094"/><line style="stroke:#181818;stroke-width:0.5;" x1="366.28" x2="483.8835" y1="2384.2188" y2="2384.2188"/><text fill="#000000" font-family="sans-serif" font-size="14" lengthAdjust="spacing" textLength="97.6035" x="376.28" y="2376.1426">&#226;&#339;&#8230; Accept&#195;&#169;</text></g><ellipse cx="662.28" cy="54.6094" fill="#222222" rx="10" ry="10" style="stroke:#222222;stroke-width:1;"/><ellipse cx="284.28" cy="2579.1094" fill="none" rx="11" ry="11" style="stroke:#222222;stroke-width:1;"/><ellipse cx="284.28" cy="2579.1094" fill="#222222" rx="6" ry="6" style="stroke:#222222;stroke-width:1;"/><g id="elem_GMN2"><path d="M757.28,142.6094 L757.28,168.1094 L722.43,172.1094 L757.28,176.1094 L757.28,201.6641 A0,0 0 0 0 757.28,201.6641 L913.612,201.6641 A0,0 0 0 0 913.612,201.6641 L913.612,152.6094 L903.612,142.6094 L757.28,142.6094 A0,0 0 0 0 757.28,142.6094 " fill="#FEFFDD" style="stroke:#181818;stroke-width:0.5;"/><path d="M903.612,142.6094 L903.612,152.6094 L913.612,152.6094 L903.612,142.6094 " fill="#FEFFDD" style="stroke:#181818;stroke-width:0.5;"/><text fill="#000000" font-family="sans-serif" font-size="13" lengthAdjust="spacing" textLength="84.5381" x="763.28" y="161.1045">Email du client</text><text fill="#000000" font-family="sans-serif" font-size="13" lengthAdjust="spacing" textLength="127.3594" x="763.28" y="177.4561">Sp&#195;&#169;cifications projet</text><text fill="#000000" font-family="sans-serif" font-size="13" lengthAdjust="spacing" textLength="135.332" x="763.28" y="193.8076">D&#195;&#169;lai: 48-72h attendu</text></g><g id="elem_GMN5"><path d="M772.28,279.6094 L772.28,346.1094 L737.55,350.1094 L772.28,354.1094 L772.28,420.4219 A0,0 0 0 0 772.28,420.4219 L1022.1701,420.4219 A0,0 0 0 0 1022.1701,420.4219 L1022.1701,289.6094 L1012.1701,279.6094 L772.28,279.6094 A0,0 0 0 0 772.28,279.6094 " fill="#FEFFDD" style="stroke:#181818;stroke-width:0.5;"/><path d="M1012.1701,279.6094 L1012.1701,289.6094 L1022.1701,289.6094 L1012.1701,279.6094 " fill="#FEFFDD" style="stroke:#181818;stroke-width:0.5;"/><text fill="#000000" font-family="sans-serif" font-size="13" lengthAdjust="spacing" textLength="24.5591" x="778.28" y="298.1045">&#240;&#376;&#8221;&#180;</text><text fill="#000000" font-family="sans-serif" font-size="13" font-weight="bold" lengthAdjust="spacing" textLength="158.1709" x="806.4509" y="298.1045">RECHERCHE MANUELLE</text><text fill="#000000" font-family="sans-serif" font-size="13" lengthAdjust="spacing" textLength="163.4775" x="778.28" y="314.4561">- Fouille dossiers partag&#195;&#169;s</text><text fill="#000000" font-family="sans-serif" font-size="13" lengthAdjust="spacing" textLength="116.6826" x="778.28" y="330.8076">- 200+ fichiers Word</text><text fill="#000000" font-family="sans-serif" font-size="13" lengthAdjust="spacing" textLength="146.8594" x="778.28" y="347.1592">- Nommage incoh&#195;&#169;rent:</text><text fill="#000000" font-family="sans-serif" font-size="13" lengthAdjust="spacing" textLength="197.8564" x="785.5036" y="363.5107">"PPSPS_final_v2_OK_2023.docx"</text><text fill="#000000" font-family="sans-serif" font-size="13" lengthAdjust="spacing" textLength="221.6665" x="785.5036" y="379.8623">"PPSPS_Client_A_VRAI_FINAL.docx"</text><text fill="#000000" font-family="sans-serif" font-size="13" lengthAdjust="spacing" textLength="111.2808" x="778.28" y="396.2139">- Pas de versioning</text><text fill="#000000" font-family="sans-serif" font-size="13" lengthAdjust="spacing" textLength="127.6831" x="778.28" y="412.5654">&#226;&#65533;&#176; 30 min de fouille !</text></g><g id="elem_GMN8"><path d="M366.78,502.1094 L366.78,544.8125 A0,0 0 0 0 366.78,544.8125 L497.7849,544.8125 A0,0 0 0 0 497.7849,544.8125 L497.7849,527.6094 L532.9,523.6094 L497.7849,519.6094 L497.7849,512.1094 L487.7849,502.1094 L366.78,502.1094 A0,0 0 0 0 366.78,502.1094 " fill="#FEFFDD" style="stroke:#181818;stroke-width:0.5;"/><path d="M487.7849,502.1094 L487.7849,512.1094 L497.7849,512.1094 L487.7849,502.1094 " fill="#FEFFDD" style="stroke:#181818;stroke-width:0.5;"/><text fill="#000000" font-family="sans-serif" font-size="13" lengthAdjust="spacing" textLength="110.0049" x="372.78" y="520.6045">&#240;&#376;&#8221;&#180; Part de z&#195;&#169;ro</text><text fill="#000000" font-family="sans-serif" font-size="13" lengthAdjust="spacing" textLength="47.8423" x="372.78" y="536.9561">&#226;&#65533;&#176; +1h</text></g><g id="elem_GMN11"><path d="M763.78,609.6094 L763.78,651.6094 L729.17,655.6094 L763.78,659.6094 L763.78,701.3672 A0,0 0 0 0 763.78,701.3672 L978.9167,701.3672 A0,0 0 0 0 978.9167,701.3672 L978.9167,619.6094 L968.9167,609.6094 L763.78,609.6094 A0,0 0 0 0 763.78,609.6094 " fill="#FEFFDD" style="stroke:#181818;stroke-width:0.5;"/><path d="M968.9167,609.6094 L968.9167,619.6094 L978.9167,619.6094 L968.9167,609.6094 " fill="#FEFFDD" style="stroke:#181818;stroke-width:0.5;"/><text fill="#000000" font-family="sans-serif" font-size="13" lengthAdjust="spacing" textLength="24.5591" x="769.78" y="628.1045">&#240;&#376;&#8221;&#180;</text><text fill="#000000" font-family="sans-serif" font-size="13" font-weight="bold" lengthAdjust="spacing" textLength="141.5591" x="797.9509" y="628.1045">TEMPS CHARGEMENT</text><text fill="#000000" font-family="sans-serif" font-size="13" lengthAdjust="spacing" textLength="99.5122" x="769.78" y="644.4561">&#226;&#65533;&#176; 15 secondes</text><text fill="#000000" font-family="sans-serif" font-size="13" lengthAdjust="spacing" textLength="160.6084" x="769.78" y="660.8076">Attente &#195;&#169;cran accueil: 30s</text><text fill="#000000" font-family="sans-serif" font-size="13" lengthAdjust="spacing" textLength="104.7808" x="769.78" y="677.1592">Module devis: 40s</text><text fill="#000000" font-family="sans-serif" font-size="13" lengthAdjust="spacing" textLength="194.1367" x="769.78" y="693.5107">&#226;&#65533;&#176; Total 5 min juste pour ouvrir !</text></g><g id="elem_GMN14"><path d="M602.28,783.1094 L602.28,800.6094 L566.89,804.6094 L602.28,808.6094 L602.28,825.8125 A0,0 0 0 0 602.28,825.8125 L772.469,825.8125 A0,0 0 0 0 772.469,825.8125 L772.469,793.1094 L762.469,783.1094 L602.28,783.1094 A0,0 0 0 0 602.28,783.1094 " fill="#FEFFDD" style="stroke:#181818;stroke-width:0.5;"/><path d="M762.469,783.1094 L762.469,793.1094 L772.469,793.1094 L762.469,783.1094 " fill="#FEFFDD" style="stroke:#181818;stroke-width:0.5;"/><text fill="#000000" font-family="sans-serif" font-size="13" lengthAdjust="spacing" textLength="101.1499" x="608.28" y="801.6045">Liste clients (30s)</text><text fill="#000000" font-family="sans-serif" font-size="13" lengthAdjust="spacing" textLength="149.189" x="608.28" y="817.9561">Scroll + recherche (2 min)</text></g><g id="elem_GMN17"><path d="M573.28,1076.6094 L573.28,1175.6094 L538.12,1179.6094 L573.28,1183.6094 L573.28,1282.8281 A0,0 0 0 0 573.28,1282.8281 L783.5671,1282.8281 A0,0 0 0 0 783.5671,1282.8281 L783.5671,1086.6094 L773.5671,1076.6094 L573.28,1076.6094 A0,0 0 0 0 573.28,1076.6094 " fill="#FEFFDD" style="stroke:#181818;stroke-width:0.5;"/><path d="M773.5671,1076.6094 L773.5671,1086.6094 L783.5671,1086.6094 L773.5671,1076.6094 " fill="#FEFFDD" style="stroke:#181818;stroke-width:0.5;"/><text fill="#000000" font-family="sans-serif" font-size="13" lengthAdjust="spacing" textLength="24.5591" x="579.28" y="1095.1045">&#240;&#376;&#8221;&#180;</text><text fill="#000000" font-family="sans-serif" font-size="13" font-weight="bold" lengthAdjust="spacing" textLength="66.4473" x="607.4509" y="1095.1045">CALVAIRE</text><text fill="#000000" font-family="sans-serif" font-size="13" lengthAdjust="spacing" textLength="152.8452" x="579.28" y="1111.4561">30 lignes &#195;&#8212; 5min = 2h30</text><text fill="#000000" font-family="sans-serif" font-size="13" lengthAdjust="spacing" textLength="3.6118" x="579.28" y="1127.8076">&#160;</text><text fill="#000000" font-family="sans-serif" font-size="13" lengthAdjust="spacing" textLength="121.3799" x="579.28" y="1144.1592">Pour CHAQUE ligne:</text><text fill="#000000" font-family="sans-serif" font-size="13" lengthAdjust="spacing" textLength="114.7148" x="579.28" y="1160.5107">- Clic "Ajouter ligne"</text><text fill="#000000" font-family="sans-serif" font-size="13" lengthAdjust="spacing" textLength="138.7534" x="579.28" y="1176.8623">- Popup catalogue (35s)</text><text fill="#000000" font-family="sans-serif" font-size="13" lengthAdjust="spacing" textLength="153.1563" x="579.28" y="1193.2139">- Recherche article (2 min)</text><text fill="#000000" font-family="sans-serif" font-size="13" lengthAdjust="spacing" textLength="155.3589" x="579.28" y="1209.5654">- Copie depuis Excel perso</text><text fill="#000000" font-family="sans-serif" font-size="13" lengthAdjust="spacing" textLength="111.2808" x="579.28" y="1225.917">- Sauvegarde (25s)</text><text fill="#000000" font-family="sans-serif" font-size="13" lengthAdjust="spacing" textLength="3.6118" x="579.28" y="1242.2686">&#160;</text><text fill="#000000" font-family="sans-serif" font-size="13" lengthAdjust="spacing" textLength="189.2871" x="579.28" y="1258.6201">&#226;&#65533;&#176; R&#195;&#169;duit &#195;&#160; 1h30 avec Excel</text><text fill="#000000" font-family="sans-serif" font-size="13" lengthAdjust="spacing" textLength="169.0254" x="579.28" y="1274.9717">mais TOUJOURS tr&#195;&#168;s long !</text></g><g id="elem_GMN20"><path d="M194.78,1529.6094 L194.78,1605.0156 A0,0 0 0 0 194.78,1605.0156 L365.7307,1605.0156 A0,0 0 0 0 365.7307,1605.0156 L365.7307,1571.1094 L400.63,1567.1094 L365.7307,1563.1094 L365.7307,1539.6094 L355.7307,1529.6094 L194.78,1529.6094 A0,0 0 0 0 194.78,1529.6094 " fill="#FEFFDD" style="stroke:#181818;stroke-width:0.5;"/><path d="M355.7307,1529.6094 L355.7307,1539.6094 L365.7307,1539.6094 L355.7307,1529.6094 " fill="#FEFFDD" style="stroke:#181818;stroke-width:0.5;"/><text fill="#000000" font-family="sans-serif" font-size="13" lengthAdjust="spacing" textLength="90.3271" x="200.78" y="1548.1045">- Marge globale</text><text fill="#000000" font-family="sans-serif" font-size="13" lengthAdjust="spacing" textLength="122.0908" x="200.78" y="1564.4561">- Prix vs concurrence</text><text fill="#000000" font-family="sans-serif" font-size="13" lengthAdjust="spacing" textLength="149.9507" x="200.78" y="1580.8076">- Coh&#195;&#169;rence quantit&#195;&#169;s</text><text fill="#000000" font-family="sans-serif" font-size="13" lengthAdjust="spacing" textLength="64.8096" x="200.78" y="1597.1592">&#226;&#65533;&#176; 10 min</text></g><g id="elem_GMN23"><path d="M583.78,1686.1094 L583.78,1703.6094 L548.95,1707.6094 L583.78,1711.6094 L583.78,1728.8125 A0,0 0 0 0 583.78,1728.8125 L773.1071,1728.8125 A0,0 0 0 0 773.1071,1728.8125 L773.1071,1696.1094 L763.1071,1686.1094 L583.78,1686.1094 A0,0 0 0 0 583.78,1686.1094 " fill="#FEFFDD" style="stroke:#181818;stroke-width:0.5;"/><path d="M763.1071,1686.1094 L763.1071,1696.1094 L773.1071,1696.1094 L763.1071,1686.1094 " fill="#FEFFDD" style="stroke:#181818;stroke-width:0.5;"/><text fill="#000000" font-family="sans-serif" font-size="13" lengthAdjust="spacing" textLength="168.3271" x="589.78" y="1704.6045">&#240;&#376;&#8221;&#180; Re-chargements (5 min)</text><text fill="#000000" font-family="sans-serif" font-size="13" lengthAdjust="spacing" textLength="106.2153" x="589.78" y="1720.9561">Modifier 2-3 lignes</text></g><g id="elem_GMN26"><path d="M512.78,1814.1094 L512.78,1831.6094 L477.91,1835.6094 L512.78,1839.6094 L512.78,1856.8125 A0,0 0 0 0 512.78,1856.8125 L667.6267,1856.8125 A0,0 0 0 0 667.6267,1856.8125 L667.6267,1824.1094 L657.6267,1814.1094 L512.78,1814.1094 A0,0 0 0 0 512.78,1814.1094 " fill="#FEFFDD" style="stroke:#181818;stroke-width:0.5;"/><path d="M657.6267,1814.1094 L657.6267,1824.1094 L667.6267,1824.1094 L657.6267,1814.1094 " fill="#FEFFDD" style="stroke:#181818;stroke-width:0.5;"/><text fill="#000000" font-family="sans-serif" font-size="13" lengthAdjust="spacing" textLength="133.8467" x="518.78" y="1832.6045">Clic "G&#195;&#169;n&#195;&#169;rer PDF"</text><text fill="#000000" font-family="sans-serif" font-size="13" lengthAdjust="spacing" textLength="59.23" x="518.78" y="1848.9561">PDF (45s)</text></g><g id="elem_GMN29"><path d="M145.28,1938.6094 L145.28,1997.6641 A0,0 0 0 0 145.28,1997.6641 L323.0862,1997.6641 A0,0 0 0 0 323.0862,1997.6641 L323.0862,1972.1094 L358.45,1968.1094 L323.0862,1964.1094 L323.0862,1948.6094 L313.0862,1938.6094 L145.28,1938.6094 A0,0 0 0 0 145.28,1938.6094 " fill="#FEFFDD" style="stroke:#181818;stroke-width:0.5;"/><path d="M313.0862,1938.6094 L313.0862,1948.6094 L323.0862,1948.6094 L313.0862,1938.6094 " fill="#FEFFDD" style="stroke:#181818;stroke-width:0.5;"/><text fill="#000000" font-family="sans-serif" font-size="13" lengthAdjust="spacing" textLength="156.8062" x="151.28" y="1957.1045">&#240;&#376;&#8221;&#180; Parfois bugs affichage</text><text fill="#000000" font-family="sans-serif" font-size="13" lengthAdjust="spacing" textLength="129.7207" x="151.28" y="1973.4561">&#226;&#8224;&#8217; R&#195;&#169;g&#195;&#169;n&#195;&#169;ration</text><text fill="#000000" font-family="sans-serif" font-size="13" lengthAdjust="spacing" textLength="57.5796" x="151.28" y="1989.8076">&#226;&#65533;&#176; 3 min</text></g><g id="elem_GMN32"><path d="M507.78,2075.6094 L507.78,2109.1094 L473.06,2113.1094 L507.78,2117.1094 L507.78,2151.0156 A0,0 0 0 0 507.78,2151.0156 L645.1135,2151.0156 A0,0 0 0 0 645.1135,2151.0156 L645.1135,2085.6094 L635.1135,2075.6094 L507.78,2075.6094 A0,0 0 0 0 507.78,2075.6094 " fill="#FEFFDD" style="stroke:#181818;stroke-width:0.5;"/><path d="M635.1135,2075.6094 L635.1135,2085.6094 L645.1135,2085.6094 L635.1135,2075.6094 " fill="#FEFFDD" style="stroke:#181818;stroke-width:0.5;"/><text fill="#000000" font-family="sans-serif" font-size="13" lengthAdjust="spacing" textLength="112.1758" x="513.78" y="2094.1045">- R&#195;&#169;daction email</text><text fill="#000000" font-family="sans-serif" font-size="13" lengthAdjust="spacing" textLength="116.3335" x="513.78" y="2110.4561">- Recherche contact</text><text fill="#000000" font-family="sans-serif" font-size="13" lengthAdjust="spacing" textLength="80.9199" x="513.78" y="2126.8076">- Pi&#195;&#168;ce jointe</text><text fill="#000000" font-family="sans-serif" font-size="13" lengthAdjust="spacing" textLength="57.5796" x="513.78" y="2143.1592">&#226;&#65533;&#176; 7 min</text></g><g id="elem_GMN35"><path d="M503.28,2232.1094 L503.28,2249.6094 L467.9,2253.6094 L503.28,2257.6094 L503.28,2274.8125 A0,0 0 0 0 503.28,2274.8125 L661.0466,2274.8125 A0,0 0 0 0 661.0466,2274.8125 L661.0466,2242.1094 L651.0466,2232.1094 L503.28,2232.1094 A0,0 0 0 0 503.28,2232.1094 " fill="#FEFFDD" style="stroke:#181818;stroke-width:0.5;"/><path d="M651.0466,2232.1094 L651.0466,2242.1094 L661.0466,2242.1094 L651.0466,2232.1094 " fill="#FEFFDD" style="stroke:#181818;stroke-width:0.5;"/><text fill="#000000" font-family="sans-serif" font-size="13" lengthAdjust="spacing" textLength="136.7666" x="509.28" y="2250.6045">Attente r&#195;&#169;ponse client</text><text fill="#000000" font-family="sans-serif" font-size="13" lengthAdjust="spacing" textLength="40.479" x="509.28" y="2266.9561">24-72h</text></g><g id="elem_GMN38"><path d="M519.28,2360.1094 L519.28,2402.8125 A0,0 0 0 0 519.28,2402.8125 L711.508,2402.8125 A0,0 0 0 0 711.508,2402.8125 L711.508,2385.6094 L746.62,2381.6094 L711.508,2377.6094 L711.508,2370.1094 L701.508,2360.1094 L519.28,2360.1094 A0,0 0 0 0 519.28,2360.1094 " fill="#FEFFDD" style="stroke:#181818;stroke-width:0.5;"/><path d="M701.508,2360.1094 L701.508,2370.1094 L711.508,2370.1094 L701.508,2360.1094 " fill="#FEFFDD" style="stroke:#181818;stroke-width:0.5;"/><text fill="#000000" font-family="sans-serif" font-size="13" lengthAdjust="spacing" textLength="105.4917" x="525.28" y="2378.6045">Retour &#195;&#160; la saisie</text><text fill="#000000" font-family="sans-serif" font-size="13" lengthAdjust="spacing" textLength="171.228" x="525.28" y="2394.9561">&#240;&#376;&#8221;&#180; Recommence processus</text></g><g id="elem_GMN41"><path d="M330.78,2467.6094 L330.78,2690.1797 A0,0 0 0 0 330.78,2690.1797 L573.5988,2690.1797 A0,0 0 0 0 573.5988,2690.1797 L573.5988,2477.6094 L563.5988,2467.6094 L440.97,2467.6094 L428.65,2406.9694 L432.97,2467.6094 L330.78,2467.6094 A0,0 0 0 0 330.78,2467.6094 " fill="#FEFFDD" style="stroke:#181818;stroke-width:0.5;"/><path d="M563.5988,2467.6094 L563.5988,2477.6094 L573.5988,2477.6094 L563.5988,2467.6094 " fill="#FEFFDD" style="stroke:#181818;stroke-width:0.5;"/><text fill="#000000" font-family="sans-serif" font-size="13" font-weight="bold" lengthAdjust="spacing" textLength="169.9712" x="336.78" y="2486.1045">M&#195;&#8240;TRIQUES GLOBALES</text><text fill="#000000" font-family="sans-serif" font-size="13" lengthAdjust="spacing" textLength="111.2427" x="336.78" y="2502.4561">&#226;&#65533;&#176; Dur&#195;&#169;e totale:</text><text fill="#000000" font-family="sans-serif" font-size="13" font-weight="bold" lengthAdjust="spacing" textLength="29.6309" x="451.6345" y="2502.4561">2h05</text><text fill="#000000" font-family="sans-serif" font-size="13" lengthAdjust="spacing" textLength="3.6118" x="336.78" y="2518.8076">&#160;</text><text fill="#000000" font-family="sans-serif" font-size="13" lengthAdjust="spacing" textLength="100.6167" x="336.78" y="2535.1592">D&#195;&#169;composition:</text><text fill="#000000" font-family="sans-serif" font-size="13" lengthAdjust="spacing" textLength="210.2915" x="336.78" y="2551.5107">&#226;&#8364;&#162; Recherche ancien devis: 45 min</text><text fill="#000000" font-family="sans-serif" font-size="13" lengthAdjust="spacing" textLength="154.6162" x="336.78" y="2567.8623">&#226;&#8364;&#162; Ouverture MDE: 5 min</text><text fill="#000000" font-family="sans-serif" font-size="13" lengthAdjust="spacing" textLength="152.5024" x="336.78" y="2584.2139">&#226;&#8364;&#162; Saisie 30 lignes: 1h30</text><text fill="#000000" font-family="sans-serif" font-size="13" lengthAdjust="spacing" textLength="153.3721" x="336.78" y="2600.5654">&#226;&#8364;&#162; V&#195;&#169;rifications: 15 min</text><text fill="#000000" font-family="sans-serif" font-size="13" lengthAdjust="spacing" textLength="144.5171" x="336.78" y="2616.917">&#226;&#8364;&#162; PDF &amp; envoi: 10 min</text><text fill="#000000" font-family="sans-serif" font-size="13" lengthAdjust="spacing" textLength="3.6118" x="336.78" y="2633.2686">&#160;</text><text fill="#000000" font-family="sans-serif" font-size="13" lengthAdjust="spacing" textLength="27.46" x="336.78" y="2649.6201">&#240;&#376;&#732;&#164;</text><text fill="#000000" font-family="sans-serif" font-size="13" font-weight="bold" lengthAdjust="spacing" textLength="126.4009" x="367.8518" y="2649.6201">FRUSTRATION: 9/10</text><text fill="#000000" font-family="sans-serif" font-size="13" lengthAdjust="spacing" textLength="221.8188" x="336.78" y="2665.9717">&#240;&#376;&#8221;&#180; Avec templates: 30 min possible !</text><text fill="#000000" font-family="sans-serif" font-size="13" lengthAdjust="spacing" textLength="206.521" x="336.78" y="2682.3232">&#195;&#8240;conomie potentielle: 1h35/devis</text></g><!--link *start* to DemandeClient--><g id="link_*start*_DemandeClient"><path d="M662.28,64.6694 C662.28,82.2194 662.28,115.3694 662.28,140.9794 " fill="none" id="*start*-to-DemandeClient" style="stroke:#181818;stroke-width:1;"/><polygon fill="#181818" points="662.28,146.9794,666.28,137.9794,662.28,141.9794,658.28,137.9794,662.28,146.9794" style="stroke:#181818;stroke-width:1;"/><text fill="#000000" font-family="sans-serif" font-size="13" lengthAdjust="spacing" textLength="125.0171" x="663.28" y="109.1045">Client demande devis</text></g><!--link DemandeClient to RechercheTemplate--><g id="link_DemandeClient_RechercheTemplate"><path d="M662.28,197.2094 C662.28,230.8194 662.28,285.4094 662.28,319.0194 " fill="none" id="DemandeClient-to-RechercheTemplate" style="stroke:#181818;stroke-width:1;"/><polygon fill="#181818" points="662.28,325.0194,666.28,316.0194,662.28,320.0194,658.28,316.0194,662.28,325.0194" style="stroke:#181818;stroke-width:1;"/><text fill="#000000" font-family="sans-serif" font-size="13" lengthAdjust="spacing" textLength="169.8315" x="663.28" y="246.1045">Laurent cherche ancien devis</text></g><!--link RechercheTemplate to PasDeTemplate--><g id="link_RechercheTemplate_PasDeTemplate"><path d="M636.04,375.2694 C617.91,393.8594 595.31,421.2594 585.28,450.6094 C580.01,466.0494 581.174,478.4453 585.284,492.6653 " fill="none" id="RechercheTemplate-to-PasDeTemplate" style="stroke:#181818;stroke-width:1;"/><polygon fill="#181818" points="586.95,498.4294,588.2937,488.6726,585.5617,493.626,580.6083,490.8939,586.95,498.4294" style="stroke:#181818;stroke-width:1;"/><text fill="#000000" font-family="sans-serif" font-size="13" lengthAdjust="spacing" textLength="124.4458" x="586.28" y="465.1045">Pas trouv&#195;&#169; similaire</text></g><!--link RechercheTemplate to OuvertureMDE--><g id="link_RechercheTemplate_OuvertureMDE"><path d="M679.65,375.4794 C692.32,394.8094 708.41,423.0794 715.28,450.6094 C731.41,515.1794 703.8808,586.5876 685.5308,624.9176 " fill="none" id="RechercheTemplate-to-OuvertureMDE" style="stroke:#181818;stroke-width:1;"/><polygon fill="#181818" points="682.94,630.3294,690.4341,623.9389,685.099,625.8195,683.2184,620.4845,682.94,630.3294" style="stroke:#181818;stroke-width:1;"/><text fill="#000000" font-family="sans-serif" font-size="13" lengthAdjust="spacing" textLength="104.9521" x="721.28" y="529.1045">Template trouv&#195;&#169;</text></g><!--link PasDeTemplate to OuvertureMDE--><g id="link_PasDeTemplate_OuvertureMDE"><path d="M610.03,548.7594 C623.32,572.1094 640.3706,602.0757 653.6406,625.3757 " fill="none" id="PasDeTemplate-to-OuvertureMDE" style="stroke:#181818;stroke-width:1;"/><polygon fill="#181818" points="656.61,630.5894,655.6318,620.7892,654.1355,626.2446,648.6801,624.7484,656.61,630.5894" style="stroke:#181818;stroke-width:1;"/></g><!--link OuvertureMDE to RechercheClient--><g id="link_OuvertureMDE_RechercheClient"><path d="M642.7,680.8794 C611.67,708.1994 566.0641,748.3454 535.1241,775.5754 " fill="none" id="OuvertureMDE-to-RechercheClient" style="stroke:#181818;stroke-width:1;"/><polygon fill="#181818" points="530.62,779.5394,540.0188,776.5961,534.3734,776.236,534.7335,770.5907,530.62,779.5394" style="stroke:#181818;stroke-width:1;"/><text fill="#000000" font-family="sans-serif" font-size="13" lengthAdjust="spacing" textLength="83.0972" x="583.28" y="746.1045">Cherche client</text></g><!--link RechercheClient to SaisieManuelle--><g id="link_RechercheClient_SaisieManuelle"><path d="M501.14,829.7994 C499.51,848.1994 497.6089,869.7227 494.8089,901.3627 " fill="none" id="RechercheClient-to-SaisieManuelle" style="stroke:#181818;stroke-width:1;"/><polygon fill="#181818" points="494.28,907.3394,499.0578,898.727,494.7208,902.3588,491.0889,898.0218,494.28,907.3394" style="stroke:#181818;stroke-width:1;"/><text fill="#000000" font-family="sans-serif" font-size="13" lengthAdjust="spacing" textLength="85.998" x="500.28" y="874.1045">Nouveau devis</text></g><!--link SaisieManuelle to VerifExcel--><g id="link_SaisieManuelle_VerifExcel"><path d="M470.28,1451.7494 C470.28,1488.8494 470.28,1515.2694 470.28,1536.0294 " fill="none" id="SaisieManuelle-to-VerifExcel" style="stroke:#181818;stroke-width:1;"/><polygon fill="#181818" points="470.28,1542.0294,474.28,1533.0294,470.28,1537.0294,466.28,1533.0294,470.28,1542.0294" style="stroke:#181818;stroke-width:1;"/><text fill="#000000" font-family="sans-serif" font-size="13" lengthAdjust="spacing" textLength="81.8276" x="471.28" y="1496.1045">V&#195;&#169;rifications</text></g><!--link VerifExcel to Ajustements--><g id="link_VerifExcel_Ajustements"><path d="M475.51,1592.2294 C480.98,1617.4994 488.2618,1651.0949 493.7418,1676.4349 " fill="none" id="VerifExcel-to-Ajustements" style="stroke:#181818;stroke-width:1;"/><polygon fill="#181818" points="495.01,1682.2994,497.0173,1672.6572,493.9531,1677.4123,489.198,1674.3482,495.01,1682.2994" style="stroke:#181818;stroke-width:1;"/><text fill="#000000" font-family="sans-serif" font-size="13" lengthAdjust="spacing" textLength="150.4648" x="489.28" y="1649.1045">Corrections n&#195;&#169;cessaires</text></g><!--link VerifExcel to GenerationPDF--><g id="link_VerifExcel_GenerationPDF"><path d="M454.82,1592.4594 C441.45,1614.9094 422.94,1649.6494 414.28,1682.6094 C402.72,1726.5794 402.3952,1774.084 403.5852,1804.464 " fill="none" id="VerifExcel-to-GenerationPDF" style="stroke:#181818;stroke-width:1;"/><polygon fill="#181818" points="403.82,1810.4594,407.4647,1801.3097,403.6243,1805.4632,399.4708,1801.6228,403.82,1810.4594" style="stroke:#181818;stroke-width:1;"/><text fill="#000000" font-family="sans-serif" font-size="13" lengthAdjust="spacing" textLength="18.7827" x="415.28" y="1713.1045">OK</text></g><!--link Ajustements to GenerationPDF--><g id="link_Ajustements_GenerationPDF"><path d="M481.96,1732.8994 C465.14,1755.2194 443.9627,1783.3089 427.1527,1805.5989 " fill="none" id="Ajustements-to-GenerationPDF" style="stroke:#181818;stroke-width:1;"/><polygon fill="#181818" points="423.54,1810.3894,432.1527,1805.6122,426.5506,1806.3973,425.7654,1800.7952,423.54,1810.3894" style="stroke:#181818;stroke-width:1;"/></g><!--link GenerationPDF to VerifPDF--><g id="link_GenerationPDF_VerifPDF"><path d="M409,1860.8494 C412.59,1884.2894 417.0901,1913.6688 420.6801,1937.0688 " fill="none" id="GenerationPDF-to-VerifPDF" style="stroke:#181818;stroke-width:1;"/><polygon fill="#181818" points="421.59,1942.9994,424.1789,1933.4969,420.8318,1938.0572,416.2715,1934.71,421.59,1942.9994" style="stroke:#181818;stroke-width:1;"/><text fill="#000000" font-family="sans-serif" font-size="13" lengthAdjust="spacing" textLength="129.5303" x="417.28" y="1905.1045">V&#195;&#169;rifie mise en page</text></g><!--link VerifPDF to BugPDF--><g id="link_VerifPDF_BugPDF"><path d="M372.03,1993.2094 C308.54,2021.9394 209.4267,2066.7964 153.2567,2092.2064 " fill="none" id="VerifPDF-to-BugPDF" style="stroke:#181818;stroke-width:1;"/><polygon fill="#181818" points="147.79,2094.6794,157.6386,2094.6143,152.3455,2092.6186,154.3413,2087.3255,147.79,2094.6794" style="stroke:#181818;stroke-width:1;"/><text fill="#000000" font-family="sans-serif" font-size="13" lengthAdjust="spacing" textLength="79.5044" x="297.28" y="2042.1045">Bug affichage</text></g><!--link VerifPDF to EnvoiClient--><g id="link_VerifPDF_EnvoiClient"><path d="M425.28,1993.3694 C425.28,2019.6594 425.28,2055.3894 425.28,2081.7294 " fill="none" id="VerifPDF-to-EnvoiClient" style="stroke:#181818;stroke-width:1;"/><polygon fill="#181818" points="425.28,2087.7294,429.28,2078.7294,425.28,2082.7294,421.28,2078.7294,425.28,2087.7294" style="stroke:#181818;stroke-width:1;"/><text fill="#000000" font-family="sans-serif" font-size="13" lengthAdjust="spacing" textLength="48.3945" x="426.28" y="2042.1045">PDF OK</text></g><!--link BugPDF to GenerationPDF--><g id="link_BugPDF_GenerationPDF"><path d="M85.82,2087.8794 C54.27,2052.3094 6,1985.1394 41.28,1938.6094 C76.38,1892.3294 231.02,1862.2034 326.78,1847.4434 " fill="none" id="BugPDF-to-GenerationPDF" style="stroke:#181818;stroke-width:1;"/><polygon fill="#181818" points="332.71,1846.5294,323.2057,1843.9471,327.7684,1847.2911,324.4244,1851.8537,332.71,1846.5294" style="stroke:#181818;stroke-width:1;"/><text fill="#000000" font-family="sans-serif" font-size="13" lengthAdjust="spacing" textLength="84.9063" x="42.28" y="1973.6045">R&#195;&#169;g&#195;&#169;n&#195;&#168;re</text></g><!--link EnvoiClient to EnAttente--><g id="link_EnvoiClient_EnAttente"><path d="M425.28,2138.2294 C425.28,2163.4994 425.28,2196.9594 425.28,2222.2994 " fill="none" id="EnvoiClient-to-EnAttente" style="stroke:#181818;stroke-width:1;"/><polygon fill="#181818" points="425.28,2228.2994,429.28,2219.2994,425.28,2223.2994,421.28,2219.2994,425.28,2228.2994" style="stroke:#181818;stroke-width:1;"/><text fill="#000000" font-family="sans-serif" font-size="13" lengthAdjust="spacing" textLength="89.0576" x="426.28" y="2195.1045">Email envoy&#195;&#169;</text></g><!--link EnAttente to Refus--><g id="link_EnAttente_Refus"><path d="M383.47,2278.6894 C370.01,2287.3194 355.44,2297.6594 343.28,2308.6094 C327.43,2322.8894 315.8254,2336.7784 304.8254,2351.5384 " fill="none" id="EnAttente-to-Refus" style="stroke:#181818;stroke-width:1;"/><polygon fill="#181818" points="301.24,2356.3494,309.8254,2351.5232,304.2278,2352.3403,303.4108,2346.7427,301.24,2356.3494" style="stroke:#181818;stroke-width:1;"/><text fill="#000000" font-family="sans-serif" font-size="13" lengthAdjust="spacing" textLength="72.979" x="344.28" y="2323.1045">Client refuse</text></g><!--link EnAttente to Accepte--><g id="link_EnAttente_Accepte"><path d="M425.28,2278.8994 C425.28,2301.2194 425.28,2328.0994 425.28,2350.3894 " fill="none" id="EnAttente-to-Accepte" style="stroke:#181818;stroke-width:1;"/><polygon fill="#181818" points="425.28,2356.3894,429.28,2347.3894,425.28,2351.3894,421.28,2347.3894,425.28,2356.3894" style="stroke:#181818;stroke-width:1;"/><text fill="#000000" font-family="sans-serif" font-size="13" lengthAdjust="spacing" textLength="82.3799" x="426.28" y="2323.1045">Client accepte</text></g><!--link EnAttente to Modification--><g id="link_EnAttente_Modification"><path d="M468.03,2272.2994 C473.79,2274.5094 479.66,2276.6694 485.28,2278.6094 C573.03,2308.8394 669.2778,2336.2539 740.6478,2355.5439 " fill="none" id="EnAttente-to-Modification" style="stroke:#181818;stroke-width:1;"/><polygon fill="#181818" points="746.44,2357.1094,738.7954,2350.8997,741.6132,2355.8048,736.7081,2358.6225,746.44,2357.1094" style="stroke:#181818;stroke-width:1;"/><text fill="#000000" font-family="sans-serif" font-size="13" lengthAdjust="spacing" textLength="158.2598" x="630.28" y="2323.1045">Client demande ajustement</text></g><!--link Modification to OuvertureMDE--><g id="link_Modification_OuvertureMDE"><path d="M836.28,2356.4494 C836.28,2331.0894 836.28,2290.0494 836.28,2254.6094 C836.28,803.6094 836.28,803.6094 836.28,803.6094 C836.28,769.7294 762.8364,716.2511 713.7964,684.0711 " fill="none" id="Modification-to-OuvertureMDE" style="stroke:#181818;stroke-width:1;"/><polygon fill="#181818" points="708.78,680.7794,714.1101,689.0613,712.9603,683.5225,718.4991,682.3727,708.78,680.7794" style="stroke:#181818;stroke-width:1;"/><text fill="#000000" font-family="sans-serif" font-size="13" lengthAdjust="spacing" textLength="74.4072" x="837.28" y="1777.1045">Rouvre MDE</text></g><!--link Refus to *end*--><g id="link_Refus_*end*"><path d="M284.28,2406.9694 C284.28,2450.1694 284.28,2532.4194 284.28,2562.1094 " fill="none" id="Refus-to-*end*" style="stroke:#181818;stroke-width:1;"/><polygon fill="#181818" points="284.28,2568.1094,288.28,2559.1094,284.28,2563.1094,280.28,2559.1094,284.28,2568.1094" style="stroke:#181818;stroke-width:1;"/></g><!--link Accepte to *end*--><g id="link_Accepte_*end*"><path d="M380.63,2406.6694 C357.34,2421.3794 330.24,2442.2394 313.28,2467.6094 C291.68,2499.9294 286.5709,2541.5435 285.1609,2562.0835 " fill="none" id="Accepte-to-*end*" style="stroke:#181818;stroke-width:1;"/><polygon fill="#181818" points="284.75,2568.0694,289.357,2559.3644,285.0924,2563.0811,281.3758,2558.8166,284.75,2568.0694" style="stroke:#181818;stroke-width:1;"/></g><!--SRC=[TLVTRXj55BxtKnnI2T9K3evJjtGba3RnEWsrOsCxuGAXQB8UsnEjTyp-H2q8AO8t06wGGAegX5g9YrnmmGr2IjKhtY8lm2jmpipiUcRZNEHdv_pC-Sx_P2ABE8mobd5e2pPBs0BgiFyYnDC9XnE1Vpx8OsZp2v7MQbziVGdr-YVukM3nXEz7WiSPU63-cUXZ_AkuKwLsmp0RfWrWQKN-tfD643nfr6A9x8cOpJEGKvUd1X0ic8XWaaDOd8oMRx-_VXEAgGXP9cISmZAHvvn8RQ94J7ZmyAFwu-OSM9RnU9BNy1VGFRMQQmEX6l9mpXFy6VF5CYBRFUYoF26weG2BG-Il82m5eP1KA6_hkzVfFDfxj5T1UeiF0RozUlVNpUMlrt_2rjOms7yQ3F47UlxHST3j1bjRo5A7Zin5H96IQIfuWlXPah4POKyLGxFHU03edhcYVYwJYJe-aei5ct4GSIZdn4qGFIG1R0m6ey7eT2fY5frUD4_xpqwRZURkzaI6ppTi3kstK__qPEWVddOEZ_nkoLI70SB7a5_WjHWO4Sy8qgl__ldx-Wfs6x0Gv4AO6llViy9ossaK6jJNjiD2-hD4vXTaFQHY8J3O2Rz3kf-Z8Ha6ijSEKBYabHhAI1gxdJ2wTpiXZFXKHT1XSQ8tm8YGng-LcwNbXWSxSmksUqdLwDA-yX3mL5ddO5kVNuucDxN6GMymWlsd_l0Ww0L7OvLOXOKxBKXvAB58A9jygY1KgsekOJ6mCCovY3mCAD5xSf97flQnxDHPeMaiCnP1IyNzF4zHorBc2Q3t4v4uuNVWE4MvQZQcramVk5s4LgEfIgE3seyRZRiAi6msNK56wXjIs4I4zwdXX8cC8dW0INdNPfD0tL-Nm5Pd6J611TfZSSuftpsiGCJ9yaeVqMnGy2a45L4JOVW6pIcwiMRfYbdCTyXAwxDARrBjo6M-XDrMwl8sgxoxT_FkMhn-dYKyHTxjxUsIonmI5rb9EG8HIQQrRsiLxxi8AmcwxtTF_CEXxdYb4ap2cykVe4Nvz34qvxkD6f87b5EOovyT1vhFKxq8un32Xdykyumdcc2Qb0A7iuD5SfPZB17dVKLPvHAMhw1XMCHPAPHBcejycOiKWkSXZs29ZKugueXXP6SicP0CwRFAO4YrCyb5HaNq4dRGRc0NFDHAa157N0hZ_l6d_UFX2DiJihrE8PBnp2cIIawGbqzu8gRQ5WzELBDPpSKomIe4VQzACqlUgP6Ymwte2cMF9JW_Pf4yOofawCn4F8UB5B1VX7c20oNanbd5X0avV9MpE1DPCQ3AHgCcWWNGieR0-QfdB5GjOlrBL1_gWH-hRiJJbBf_MfKxu35F5D91kuEI_MUb9ooL2hzznVecON4uEJhazN1Exj32cwqYKR0XegSnvPhrtIBvLn3j2s_PMffvGFWKI4q392fxNMZhBNPLWYa4IoNQHlgeT539vaDArvM5xXLbacbNbfd44MxA0NUY9QuKTsPQONUfukuiqyOw8tGgiIxEybaAR4hh3Dr4wNDp-VBcycTTLxEAg-oDOrrw5Q3syfc6XFzOwXsU8BwGeXn0T6gb4iaLy8ooOWwRptMvwDhyEbcvJbrc3p7xzlMxiiMX-vTgD4mL2N1Qd2jj3QiqGxAkN446O7MUIn7hzSNuxN75RxOXsYt5Kk2PzPmZnmjdemhYOdCmM0eHz56du_kta1YwjN5G6topn7Bdgzs_-P3MUiUsWbrl3TCyNJrC4lha5Hu_3FbIsMwuc3weiEaoDcbywwd3oZ8k4Ji2-fL103H-XxYs1cmE13ha6OqrDJ0Y1gbg_PK65E8-h_ehld-e6UPset5kNBCD3saBK_jaYK35_zqFsejcZo9_5ccjlynmjwJU_NXp-RlnAq7MdTMukSZSuhiKL-ZFP9R91UBQskhHSByQ3mznZe_WeDlVyxl1oDbCsxdA2TpWQR7a7aervuqMyXHlFtJ9KgQ2G7kwLNptn_KhUx1R3pbSLrNNjXYTHTk3AjbiQkL2ugbXRZ5KHx17sxIhW_h0-wfYy9bgHg09xB-_NF-6c3h3uz5uw8yF-qSUFFbmfw6TK4RUfzqXCu-6r2jULajw3fwfTnMeJUaAorqk16tTbDU2jWPbSUj3lO2MsV8_]--></g></svg>