<svg xmlns="http://www.w3.org/2000/svg" xmlns:xlink="http://www.w3.org/1999/xlink" contentStyleType="text/css" height="2697px" preserveAspectRatio="none" style="width:991px;height:2697px;background:#FFFFFF;" version="1.1" viewBox="0 0 991 2697" width="991px" zoomAndPan="magnify"><title>State Diagram - Cycle de Vie d'un Devis</title><defs/><g><text fill="#000000" font-family="sans-serif" font-size="14" font-weight="bold" lengthAdjust="spacing" textLength="263.1973" x="356.9114" y="24.5332">State Diagram - Cycle de Vie d'un Devis</text><g id="DemandeClient"><rect fill="#90EE90" height="50" rx="12.5" ry="12.5" style="stroke:#181818;stroke-width:0.5;" width="120.3857" x="564.13" y="147.1094"/><line style="stroke:#181818;stroke-width:0.5;" x1="564.13" x2="684.5157" y1="174.7188" y2="174.7188"/><text fill="#000000" font-family="sans-serif" font-size="14" lengthAdjust="spacing" textLength="100.3857" x="574.13" y="166.6426">Demande Client</text></g><g id="RechercheTemplate"><rect fill="#FF6B6B" height="50" rx="12.5" ry="12.5" style="stroke:#181818;stroke-width:0.5;" width="149.9512" x="549.13" y="325.1094"/><line style="stroke:#181818;stroke-width:0.5;" x1="549.13" x2="699.0812" y1="352.7188" y2="352.7188"/><text fill="#000000" font-family="sans-serif" font-size="14" lengthAdjust="spacing" textLength="129.9512" x="559.13" y="344.6426">Recherche Template</text></g><g id="PasDeTemplate"><rect fill="#FF6B6B" height="50" rx="12.5" ry="12.5" style="stroke:#181818;stroke-width:0.5;" width="125.834" x="495.13" y="498.6094"/><line style="stroke:#181818;stroke-width:0.5;" x1="495.13" x2="620.964" y1="526.2188" y2="526.2188"/><text fill="#000000" font-family="sans-serif" font-size="14" lengthAdjust="spacing" textLength="105.834" x="505.13" y="518.1426">Pas de Template</text></g><g id="OuvertureMDE"><rect fill="#FF6B6B" height="50" rx="12.5" ry="12.5" style="stroke:#181818;stroke-width:0.5;" width="117.248" x="567.63" y="630.6094"/><line style="stroke:#181818;stroke-width:0.5;" x1="567.63" x2="684.878" y1="658.2188" y2="658.2188"/><text fill="#000000" font-family="sans-serif" font-size="14" lengthAdjust="spacing" textLength="97.248" x="577.63" y="650.1426">Ouverture MDE</text></g><g id="RechercheClient"><rect fill="#FFD700" height="50" rx="12.5" ry="12.5" style="stroke:#181818;stroke-width:0.5;" width="127.3857" x="397.63" y="779.6094"/><line style="stroke:#181818;stroke-width:0.5;" x1="397.63" x2="525.0157" y1="807.2188" y2="807.2188"/><text fill="#000000" font-family="sans-serif" font-size="14" lengthAdjust="spacing" textLength="107.3857" x="407.63" y="799.1426">Recherche Client</text></g><path d="M385.13,907.6094 L495.2926,907.6094 A12.5,12.5 0 0 1 507.7926,920.1094 L507.7926,935.2188 L372.63,935.2188 L372.63,920.1094 A12.5,12.5 0 0 1 385.13,907.6094 " fill="#FF6B6B" style="stroke:#FF6B6B;stroke-width:1;"/><rect fill="none" height="543.6094" rx="12.5" ry="12.5" style="stroke:#181818;stroke-width:0.5;" width="135.1626" x="372.63" y="907.6094"/><line style="stroke:#181818;stroke-width:0.5;" x1="372.63" x2="507.7926" y1="935.2188" y2="935.2188"/><text fill="#000000" font-family="sans-serif" font-size="14" lengthAdjust="spacing" textLength="98.834" x="390.7943" y="927.1426">Saisie Manuelle</text><ellipse cx="434.63" cy="956.2188" fill="#222222" rx="10" ry="10" style="stroke:#222222;stroke-width:1;"/><g id="SaisieManuelle.SaisieLigne1"><rect fill="#F1F1F1" height="50" rx="12.5" ry="12.5" style="stroke:#181818;stroke-width:0.5;" width="100.1719" x="384.63" y="1003.2188"/><line style="stroke:#181818;stroke-width:0.5;" x1="384.63" x2="484.8019" y1="1030.8281" y2="1030.8281"/><text fill="#000000" font-family="sans-serif" font-size="14" lengthAdjust="spacing" textLength="80.1719" x="394.63" y="1022.752">SaisieLigne1</text></g><g id="SaisieManuelle.SaisieLigne2"><rect fill="#F1F1F1" height="50" rx="12.5" ry="12.5" style="stroke:#181818;stroke-width:0.5;" width="100.1719" x="384.63" y="1107.2188"/><line style="stroke:#181818;stroke-width:0.5;" x1="384.63" x2="484.8019" y1="1134.8281" y2="1134.8281"/><text fill="#000000" font-family="sans-serif" font-size="14" lengthAdjust="spacing" textLength="80.1719" x="394.63" y="1126.752">SaisieLigne2</text></g><g id="SaisieManuelle.SaisieLigne3"><rect fill="#F1F1F1" height="50" rx="12.5" ry="12.5" style="stroke:#181818;stroke-width:0.5;" width="100.1719" x="384.63" y="1211.2188"/><line style="stroke:#181818;stroke-width:0.5;" x1="384.63" x2="484.8019" y1="1238.8281" y2="1238.8281"/><text fill="#000000" font-family="sans-serif" font-size="14" lengthAdjust="spacing" textLength="80.1719" x="394.63" y="1230.752">SaisieLigne3</text></g><g id="SaisieManuelle.SaisieAutres"><rect fill="#F1F1F1" height="50" rx="12.5" ry="12.5" style="stroke:#181818;stroke-width:0.5;" width="98.5928" x="385.13" y="1315.2188"/><line style="stroke:#181818;stroke-width:0.5;" x1="385.13" x2="483.7228" y1="1342.8281" y2="1342.8281"/><text fill="#000000" font-family="sans-serif" font-size="14" lengthAdjust="spacing" textLength="78.5928" x="395.13" y="1334.752">SaisieAutres</text></g><ellipse cx="434.63" cy="1430.2188" fill="none" rx="11" ry="11" style="stroke:#222222;stroke-width:1;"/><ellipse cx="434.63" cy="1430.2188" fill="#222222" rx="6" ry="6" style="stroke:#222222;stroke-width:1;"/><!--link *start*SaisieManuelle to SaisieLigne1--><g id="link_*start*SaisieManuelle_SaisieLigne1"><path d="M434.63,966.3688 C434.63,975.6388 434.63,984.3588 434.63,996.9988 " fill="none" id="*start*SaisieManuelle-to-SaisieLigne1" style="stroke:#181818;stroke-width:1;"/><polygon fill="#181818" points="434.63,1002.9988,438.63,993.9988,434.63,997.9988,430.63,993.9988,434.63,1002.9988" style="stroke:#181818;stroke-width:1;"/></g><!--link SaisieLigne1 to SaisieLigne2--><g id="link_SaisieLigne1_SaisieLigne2"><path d="M434.63,1053.3888 C434.63,1069.5288 434.63,1084.6888 434.63,1100.8688 " fill="none" id="SaisieLigne1-to-SaisieLigne2" style="stroke:#181818;stroke-width:1;"/><polygon fill="#181818" points="434.63,1106.8688,438.63,1097.8688,434.63,1101.8688,430.63,1097.8688,434.63,1106.8688" style="stroke:#181818;stroke-width:1;"/><text fill="#000000" font-family="sans-serif" font-size="13" lengthAdjust="spacing" textLength="62.1626" x="435.63" y="1085.7139">Popup 35s</text></g><!--link SaisieLigne2 to SaisieLigne3--><g id="link_SaisieLigne2_SaisieLigne3"><path d="M434.63,1157.3888 C434.63,1173.5288 434.63,1188.6888 434.63,1204.8688 " fill="none" id="SaisieLigne2-to-SaisieLigne3" style="stroke:#181818;stroke-width:1;"/><polygon fill="#181818" points="434.63,1210.8688,438.63,1201.8688,434.63,1205.8688,430.63,1201.8688,434.63,1210.8688" style="stroke:#181818;stroke-width:1;"/><text fill="#000000" font-family="sans-serif" font-size="13" lengthAdjust="spacing" textLength="62.1626" x="435.63" y="1189.7139">Popup 35s</text></g><!--link SaisieLigne3 to SaisieAutres--><g id="link_SaisieLigne3_SaisieAutres"><path d="M434.63,1261.3888 C434.63,1277.5288 434.63,1292.6888 434.63,1308.8688 " fill="none" id="SaisieLigne3-to-SaisieAutres" style="stroke:#181818;stroke-width:1;"/><polygon fill="#181818" points="434.63,1314.8688,438.63,1305.8688,434.63,1309.8688,430.63,1305.8688,434.63,1314.8688" style="stroke:#181818;stroke-width:1;"/><text fill="#000000" font-family="sans-serif" font-size="13" lengthAdjust="spacing" textLength="10.8354" x="435.63" y="1293.7139">...</text></g><!--link SaisieAutres to *end*SaisieManuelle--><g id="link_SaisieAutres_*end*SaisieManuelle"><path d="M434.63,1365.2688 C434.63,1382.9788 434.63,1400.1588 434.63,1413.1888 " fill="none" id="SaisieAutres-to-*end*SaisieManuelle" style="stroke:#181818;stroke-width:1;"/><polygon fill="#181818" points="434.63,1419.1888,438.63,1410.1888,434.63,1414.1888,430.63,1410.1888,434.63,1419.1888" style="stroke:#181818;stroke-width:1;"/><text fill="#000000" font-family="sans-serif" font-size="13" lengthAdjust="spacing" textLength="52.0381" x="435.63" y="1397.7139">30 lignes</text></g><g id="VerifExcel"><rect fill="#FFD700" height="50" rx="12.5" ry="12.5" style="stroke:#181818;stroke-width:0.5;" width="127.3789" x="376.63" y="1542.1094"/><line style="stroke:#181818;stroke-width:0.5;" x1="376.63" x2="504.0089" y1="1569.7188" y2="1569.7188"/><text fill="#000000" font-family="sans-serif" font-size="14" lengthAdjust="spacing" textLength="107.3789" x="386.63" y="1561.6426">Verification Excel</text></g><g id="Ajustements"><rect fill="#FFD700" height="50" rx="12.5" ry="12.5" style="stroke:#181818;stroke-width:0.5;" width="97.0342" x="409.63" y="1682.6094"/><line style="stroke:#181818;stroke-width:0.5;" x1="409.63" x2="506.6642" y1="1710.2188" y2="1710.2188"/><text fill="#000000" font-family="sans-serif" font-size="14" lengthAdjust="spacing" textLength="77.0342" x="419.63" y="1702.1426">Ajustements</text></g><g id="GenerationPDF"><rect fill="#FFD700" height="50" rx="12.5" ry="12.5" style="stroke:#181818;stroke-width:0.5;" width="121.1582" x="308.63" y="1810.6094"/><line style="stroke:#181818;stroke-width:0.5;" x1="308.63" x2="429.7882" y1="1838.2188" y2="1838.2188"/><text fill="#000000" font-family="sans-serif" font-size="14" lengthAdjust="spacing" textLength="101.1582" x="318.63" y="1830.1426">Generation PDF</text></g><g id="VerifPDF"><rect fill="#FFD700" height="50" rx="12.5" ry="12.5" style="stroke:#181818;stroke-width:0.5;" width="121.1445" x="330.63" y="1943.1094"/><line style="stroke:#181818;stroke-width:0.5;" x1="330.63" x2="451.7745" y1="1970.7188" y2="1970.7188"/><text fill="#000000" font-family="sans-serif" font-size="14" lengthAdjust="spacing" textLength="101.1445" x="340.63" y="1962.6426">Verification PDF</text></g><g id="BugPDF"><rect fill="#FF6B6B" height="50" rx="12.5" ry="12.5" style="stroke:#181818;stroke-width:0.5;" width="76.7998" x="61.63" y="2088.1094"/><line style="stroke:#181818;stroke-width:0.5;" x1="61.63" x2="138.4298" y1="2115.7188" y2="2115.7188"/><text fill="#000000" font-family="sans-serif" font-size="14" lengthAdjust="spacing" textLength="56.7998" x="71.63" y="2107.6426">Bug PDF</text></g><g id="EnvoiClient"><rect fill="#90EE90" height="50" rx="12.5" ry="12.5" style="stroke:#181818;stroke-width:0.5;" width="94.7031" x="343.63" y="2088.1094"/><line style="stroke:#181818;stroke-width:0.5;" x1="343.63" x2="438.3331" y1="2115.7188" y2="2115.7188"/><text fill="#000000" font-family="sans-serif" font-size="14" lengthAdjust="spacing" textLength="74.7031" x="353.63" y="2107.6426">Envoi Client</text></g><g id="EnAttente"><rect fill="#FFFFAA" height="50" rx="12.5" ry="12.5" style="stroke:#181818;stroke-width:0.5;" width="85.3789" x="348.63" y="2228.6094"/><line style="stroke:#181818;stroke-width:0.5;" x1="348.63" x2="434.0089" y1="2256.2188" y2="2256.2188"/><text fill="#000000" font-family="sans-serif" font-size="14" lengthAdjust="spacing" textLength="65.3789" x="358.63" y="2248.1426">En Attente</text></g><g id="Modification"><rect fill="#FFD700" height="50" rx="12.5" ry="12.5" style="stroke:#181818;stroke-width:0.5;" width="167.082" x="706.63" y="2356.6094"/><line style="stroke:#181818;stroke-width:0.5;" x1="706.63" x2="873.712" y1="2384.2188" y2="2384.2188"/><text fill="#000000" font-family="sans-serif" font-size="14" lengthAdjust="spacing" textLength="147.082" x="716.63" y="2376.1426">Modification Demandee</text></g><g id="Refus"><rect fill="#FF6B6B" height="50" rx="12.5" ry="12.5" style="stroke:#181818;stroke-width:0.5;" width="92.748" x="209.63" y="2356.6094"/><line style="stroke:#181818;stroke-width:0.5;" x1="209.63" x2="302.378" y1="2384.2188" y2="2384.2188"/><text fill="#000000" font-family="sans-serif" font-size="14" lengthAdjust="spacing" textLength="72.748" x="219.63" y="2376.1426">&#226;&#65533;&#338; Refus</text></g><g id="Accepte"><rect fill="#90EE90" height="50" rx="12.5" ry="12.5" style="stroke:#181818;stroke-width:0.5;" width="105.7363" x="338.13" y="2356.6094"/><line style="stroke:#181818;stroke-width:0.5;" x1="338.13" x2="443.8663" y1="2384.2188" y2="2384.2188"/><text fill="#000000" font-family="sans-serif" font-size="14" lengthAdjust="spacing" textLength="85.7363" x="348.13" y="2376.1426">&#226;&#339;&#8230; Accepte</text></g><ellipse cx="624.13" cy="54.6094" fill="#222222" rx="10" ry="10" style="stroke:#222222;stroke-width:1;"/><ellipse cx="256.13" cy="2579.1094" fill="none" rx="11" ry="11" style="stroke:#222222;stroke-width:1;"/><ellipse cx="256.13" cy="2579.1094" fill="#222222" rx="6" ry="6" style="stroke:#222222;stroke-width:1;"/><g id="elem_GMN2"><path d="M719.63,142.6094 L719.63,168.1094 L684.18,172.1094 L719.63,176.1094 L719.63,201.6641 A0,0 0 0 0 719.63,201.6641 L864.9425,201.6641 A0,0 0 0 0 864.9425,201.6641 L864.9425,152.6094 L854.9425,142.6094 L719.63,142.6094 A0,0 0 0 0 719.63,142.6094 " fill="#FEFFDD" style="stroke:#181818;stroke-width:0.5;"/><path d="M854.9425,142.6094 L854.9425,152.6094 L864.9425,152.6094 L854.9425,142.6094 " fill="#FEFFDD" style="stroke:#181818;stroke-width:0.5;"/><text fill="#000000" font-family="sans-serif" font-size="13" lengthAdjust="spacing" textLength="84.5381" x="725.63" y="161.1045">Email du client</text><text fill="#000000" font-family="sans-serif" font-size="13" lengthAdjust="spacing" textLength="116.3398" x="725.63" y="177.4561">Specifications projet</text><text fill="#000000" font-family="sans-serif" font-size="13" lengthAdjust="spacing" textLength="124.3125" x="725.63" y="193.8076">Delai: 48-72h attendu</text></g><g id="elem_GMN5"><path d="M734.13,279.6094 L734.13,346.1094 L699.41,350.1094 L734.13,354.1094 L734.13,420.4219 A0,0 0 0 0 734.13,420.4219 L984.0201,420.4219 A0,0 0 0 0 984.0201,420.4219 L984.0201,289.6094 L974.0201,279.6094 L734.13,279.6094 A0,0 0 0 0 734.13,279.6094 " fill="#FEFFDD" style="stroke:#181818;stroke-width:0.5;"/><path d="M974.0201,279.6094 L974.0201,289.6094 L984.0201,289.6094 L974.0201,279.6094 " fill="#FEFFDD" style="stroke:#181818;stroke-width:0.5;"/><text fill="#000000" font-family="sans-serif" font-size="13" lengthAdjust="spacing" textLength="24.5591" x="740.13" y="298.1045">&#240;&#376;&#8221;&#180;</text><text fill="#000000" font-family="sans-serif" font-size="13" font-weight="bold" lengthAdjust="spacing" textLength="158.1709" x="768.3009" y="298.1045">RECHERCHE MANUELLE</text><text fill="#000000" font-family="sans-serif" font-size="13" lengthAdjust="spacing" textLength="152.458" x="740.13" y="314.4561">- Fouille dossiers partages</text><text fill="#000000" font-family="sans-serif" font-size="13" lengthAdjust="spacing" textLength="116.6826" x="740.13" y="330.8076">- 200+ fichiers Word</text><text fill="#000000" font-family="sans-serif" font-size="13" lengthAdjust="spacing" textLength="135.8398" x="740.13" y="347.1592">- Nommage incoherent:</text><text fill="#000000" font-family="sans-serif" font-size="13" lengthAdjust="spacing" textLength="197.8564" x="747.3536" y="363.5107">"PPSPS_final_v2_OK_2023.docx"</text><text fill="#000000" font-family="sans-serif" font-size="13" lengthAdjust="spacing" textLength="221.6665" x="747.3536" y="379.8623">"PPSPS_Client_A_VRAI_FINAL.docx"</text><text fill="#000000" font-family="sans-serif" font-size="13" lengthAdjust="spacing" textLength="111.2808" x="740.13" y="396.2139">- Pas de versioning</text><text fill="#000000" font-family="sans-serif" font-size="13" lengthAdjust="spacing" textLength="127.6831" x="740.13" y="412.5654">&#226;&#65533;&#176; 30 min de fouille !</text></g><g id="elem_GMN8"><path d="M340.13,502.1094 L340.13,544.8125 A0,0 0 0 0 340.13,544.8125 L460.1154,544.8125 A0,0 0 0 0 460.1154,544.8125 L460.1154,527.6094 L495.08,523.6094 L460.1154,519.6094 L460.1154,512.1094 L450.1154,502.1094 L340.13,502.1094 A0,0 0 0 0 340.13,502.1094 " fill="#FEFFDD" style="stroke:#181818;stroke-width:0.5;"/><path d="M450.1154,502.1094 L450.1154,512.1094 L460.1154,512.1094 L450.1154,502.1094 " fill="#FEFFDD" style="stroke:#181818;stroke-width:0.5;"/><text fill="#000000" font-family="sans-serif" font-size="13" lengthAdjust="spacing" textLength="98.9854" x="346.13" y="520.6045">&#240;&#376;&#8221;&#180; Part de zero</text><text fill="#000000" font-family="sans-serif" font-size="13" lengthAdjust="spacing" textLength="47.8423" x="346.13" y="536.9561">&#226;&#65533;&#176; +1h</text></g><g id="elem_GMN11"><path d="M719.63,609.6094 L719.63,651.6094 L685.02,655.6094 L719.63,659.6094 L719.63,701.3672 A0,0 0 0 0 719.63,701.3672 L934.7667,701.3672 A0,0 0 0 0 934.7667,701.3672 L934.7667,619.6094 L924.7667,609.6094 L719.63,609.6094 A0,0 0 0 0 719.63,609.6094 " fill="#FEFFDD" style="stroke:#181818;stroke-width:0.5;"/><path d="M924.7667,609.6094 L924.7667,619.6094 L934.7667,619.6094 L924.7667,609.6094 " fill="#FEFFDD" style="stroke:#181818;stroke-width:0.5;"/><text fill="#000000" font-family="sans-serif" font-size="13" lengthAdjust="spacing" textLength="24.5591" x="725.63" y="628.1045">&#240;&#376;&#8221;&#180;</text><text fill="#000000" font-family="sans-serif" font-size="13" font-weight="bold" lengthAdjust="spacing" textLength="141.5591" x="753.8009" y="628.1045">TEMPS CHARGEMENT</text><text fill="#000000" font-family="sans-serif" font-size="13" lengthAdjust="spacing" textLength="99.5122" x="725.63" y="644.4561">&#226;&#65533;&#176; 15 secondes</text><text fill="#000000" font-family="sans-serif" font-size="13" lengthAdjust="spacing" textLength="149.5889" x="725.63" y="660.8076">Attente ecran accueil: 30s</text><text fill="#000000" font-family="sans-serif" font-size="13" lengthAdjust="spacing" textLength="104.7808" x="725.63" y="677.1592">Module devis: 40s</text><text fill="#000000" font-family="sans-serif" font-size="13" lengthAdjust="spacing" textLength="194.1367" x="725.63" y="693.5107">&#226;&#65533;&#176; Total 5 min juste pour ouvrir !</text></g><g id="elem_GMN14"><path d="M560.13,783.1094 L560.13,800.6094 L524.74,804.6094 L560.13,808.6094 L560.13,825.8125 A0,0 0 0 0 560.13,825.8125 L730.319,825.8125 A0,0 0 0 0 730.319,825.8125 L730.319,793.1094 L720.319,783.1094 L560.13,783.1094 A0,0 0 0 0 560.13,783.1094 " fill="#FEFFDD" style="stroke:#181818;stroke-width:0.5;"/><path d="M720.319,783.1094 L720.319,793.1094 L730.319,793.1094 L720.319,783.1094 " fill="#FEFFDD" style="stroke:#181818;stroke-width:0.5;"/><text fill="#000000" font-family="sans-serif" font-size="13" lengthAdjust="spacing" textLength="101.1499" x="566.13" y="801.6045">Liste clients (30s)</text><text fill="#000000" font-family="sans-serif" font-size="13" lengthAdjust="spacing" textLength="149.189" x="566.13" y="817.9561">Scroll + recherche (2 min)</text></g><g id="elem_GMN17"><path d="M543.13,1076.6094 L543.13,1175.6094 L507.71,1179.6094 L543.13,1183.6094 L543.13,1282.8281 A0,0 0 0 0 543.13,1282.8281 L737.3448,1282.8281 A0,0 0 0 0 737.3448,1282.8281 L737.3448,1086.6094 L727.3448,1076.6094 L543.13,1076.6094 A0,0 0 0 0 543.13,1076.6094 " fill="#FEFFDD" style="stroke:#181818;stroke-width:0.5;"/><path d="M727.3448,1076.6094 L727.3448,1086.6094 L737.3448,1086.6094 L727.3448,1076.6094 " fill="#FEFFDD" style="stroke:#181818;stroke-width:0.5;"/><text fill="#000000" font-family="sans-serif" font-size="13" lengthAdjust="spacing" textLength="24.5591" x="549.13" y="1095.1045">&#240;&#376;&#8221;&#180;</text><text fill="#000000" font-family="sans-serif" font-size="13" font-weight="bold" lengthAdjust="spacing" textLength="66.4473" x="577.3009" y="1095.1045">CALVAIRE</text><text fill="#000000" font-family="sans-serif" font-size="13" lengthAdjust="spacing" textLength="152.8452" x="549.13" y="1111.4561">30 lignes &#195;&#8212; 5min = 2h30</text><text fill="#000000" font-family="sans-serif" font-size="13" lengthAdjust="spacing" textLength="3.6118" x="549.13" y="1127.8076">&#160;</text><text fill="#000000" font-family="sans-serif" font-size="13" lengthAdjust="spacing" textLength="121.3799" x="549.13" y="1144.1592">Pour CHAQUE ligne:</text><text fill="#000000" font-family="sans-serif" font-size="13" lengthAdjust="spacing" textLength="114.7148" x="549.13" y="1160.5107">- Clic "Ajouter ligne"</text><text fill="#000000" font-family="sans-serif" font-size="13" lengthAdjust="spacing" textLength="138.7534" x="549.13" y="1176.8623">- Popup catalogue (35s)</text><text fill="#000000" font-family="sans-serif" font-size="13" lengthAdjust="spacing" textLength="153.1563" x="549.13" y="1193.2139">- Recherche article (2 min)</text><text fill="#000000" font-family="sans-serif" font-size="13" lengthAdjust="spacing" textLength="155.3589" x="549.13" y="1209.5654">- Copie depuis Excel perso</text><text fill="#000000" font-family="sans-serif" font-size="13" lengthAdjust="spacing" textLength="111.2808" x="549.13" y="1225.917">- Sauvegarde (25s)</text><text fill="#000000" font-family="sans-serif" font-size="13" lengthAdjust="spacing" textLength="3.6118" x="549.13" y="1242.2686">&#160;</text><text fill="#000000" font-family="sans-serif" font-size="13" lengthAdjust="spacing" textLength="173.2148" x="549.13" y="1258.6201">&#226;&#65533;&#176; Reduit a 1h30 avec Excel</text><text fill="#000000" font-family="sans-serif" font-size="13" lengthAdjust="spacing" textLength="163.2554" x="549.13" y="1274.9717">mais TOUJOURS tres long !</text></g><g id="elem_GMN20"><path d="M192.63,1529.6094 L192.63,1605.0156 A0,0 0 0 0 192.63,1605.0156 L341.5416,1605.0156 A0,0 0 0 0 341.5416,1605.0156 L341.5416,1571.1094 L376.37,1567.1094 L341.5416,1563.1094 L341.5416,1539.6094 L331.5416,1529.6094 L192.63,1529.6094 A0,0 0 0 0 192.63,1529.6094 " fill="#FEFFDD" style="stroke:#181818;stroke-width:0.5;"/><path d="M331.5416,1529.6094 L331.5416,1539.6094 L341.5416,1539.6094 L331.5416,1529.6094 " fill="#FEFFDD" style="stroke:#181818;stroke-width:0.5;"/><text fill="#000000" font-family="sans-serif" font-size="13" lengthAdjust="spacing" textLength="90.3271" x="198.63" y="1548.1045">- Marge globale</text><text fill="#000000" font-family="sans-serif" font-size="13" lengthAdjust="spacing" textLength="122.0908" x="198.63" y="1564.4561">- Prix vs concurrence</text><text fill="#000000" font-family="sans-serif" font-size="13" lengthAdjust="spacing" textLength="127.9116" x="198.63" y="1580.8076">- Coherence quantites</text><text fill="#000000" font-family="sans-serif" font-size="13" lengthAdjust="spacing" textLength="64.8096" x="198.63" y="1597.1592">&#226;&#65533;&#176; 10 min</text></g><g id="elem_GMN23"><path d="M541.63,1686.1094 L541.63,1703.6094 L506.8,1707.6094 L541.63,1711.6094 L541.63,1728.8125 A0,0 0 0 0 541.63,1728.8125 L730.9571,1728.8125 A0,0 0 0 0 730.9571,1728.8125 L730.9571,1696.1094 L720.9571,1686.1094 L541.63,1686.1094 A0,0 0 0 0 541.63,1686.1094 " fill="#FEFFDD" style="stroke:#181818;stroke-width:0.5;"/><path d="M720.9571,1686.1094 L720.9571,1696.1094 L730.9571,1696.1094 L720.9571,1686.1094 " fill="#FEFFDD" style="stroke:#181818;stroke-width:0.5;"/><text fill="#000000" font-family="sans-serif" font-size="13" lengthAdjust="spacing" textLength="168.3271" x="547.63" y="1704.6045">&#240;&#376;&#8221;&#180; Re-chargements (5 min)</text><text fill="#000000" font-family="sans-serif" font-size="13" lengthAdjust="spacing" textLength="106.2153" x="547.63" y="1720.9561">Modifier 2-3 lignes</text></g><g id="elem_GMN26"><path d="M464.63,1814.1094 L464.63,1831.6094 L429.88,1835.6094 L464.63,1839.6094 L464.63,1856.8125 A0,0 0 0 0 464.63,1856.8125 L597.4376,1856.8125 A0,0 0 0 0 597.4376,1856.8125 L597.4376,1824.1094 L587.4376,1814.1094 L464.63,1814.1094 A0,0 0 0 0 464.63,1814.1094 " fill="#FEFFDD" style="stroke:#181818;stroke-width:0.5;"/><path d="M587.4376,1814.1094 L587.4376,1824.1094 L597.4376,1824.1094 L587.4376,1814.1094 " fill="#FEFFDD" style="stroke:#181818;stroke-width:0.5;"/><text fill="#000000" font-family="sans-serif" font-size="13" lengthAdjust="spacing" textLength="111.8076" x="470.63" y="1832.6045">Clic "Generer PDF"</text><text fill="#000000" font-family="sans-serif" font-size="13" lengthAdjust="spacing" textLength="59.23" x="470.63" y="1848.9561">PDF (45s)</text></g><g id="elem_GMN29"><path d="M117.13,1938.6094 L117.13,1997.6641 A0,0 0 0 0 117.13,1997.6641 L294.9362,1997.6641 A0,0 0 0 0 294.9362,1997.6641 L294.9362,1972.1094 L330.54,1968.1094 L294.9362,1964.1094 L294.9362,1948.6094 L284.9362,1938.6094 L117.13,1938.6094 A0,0 0 0 0 117.13,1938.6094 " fill="#FEFFDD" style="stroke:#181818;stroke-width:0.5;"/><path d="M284.9362,1938.6094 L284.9362,1948.6094 L294.9362,1948.6094 L284.9362,1938.6094 " fill="#FEFFDD" style="stroke:#181818;stroke-width:0.5;"/><text fill="#000000" font-family="sans-serif" font-size="13" lengthAdjust="spacing" textLength="156.8062" x="123.13" y="1957.1045">&#240;&#376;&#8221;&#180; Parfois bugs affichage</text><text fill="#000000" font-family="sans-serif" font-size="13" lengthAdjust="spacing" textLength="96.6621" x="123.13" y="1973.4561">&#226;&#8224;&#8217; Regeneration</text><text fill="#000000" font-family="sans-serif" font-size="13" lengthAdjust="spacing" textLength="57.5796" x="123.13" y="1989.8076">&#226;&#65533;&#176; 3 min</text></g><g id="elem_GMN32"><path d="M473.63,2075.6094 L473.63,2109.1094 L438.91,2113.1094 L473.63,2117.1094 L473.63,2151.0156 A0,0 0 0 0 473.63,2151.0156 L610.9635,2151.0156 A0,0 0 0 0 610.9635,2151.0156 L610.9635,2085.6094 L600.9635,2075.6094 L473.63,2075.6094 A0,0 0 0 0 473.63,2075.6094 " fill="#FEFFDD" style="stroke:#181818;stroke-width:0.5;"/><path d="M600.9635,2075.6094 L600.9635,2085.6094 L610.9635,2085.6094 L600.9635,2075.6094 " fill="#FEFFDD" style="stroke:#181818;stroke-width:0.5;"/><text fill="#000000" font-family="sans-serif" font-size="13" lengthAdjust="spacing" textLength="101.1563" x="479.63" y="2094.1045">- Redaction email</text><text fill="#000000" font-family="sans-serif" font-size="13" lengthAdjust="spacing" textLength="116.3335" x="479.63" y="2110.4561">- Recherche contact</text><text fill="#000000" font-family="sans-serif" font-size="13" lengthAdjust="spacing" textLength="75.1499" x="479.63" y="2126.8076">- Piece jointe</text><text fill="#000000" font-family="sans-serif" font-size="13" lengthAdjust="spacing" textLength="57.5796" x="479.63" y="2143.1592">&#226;&#65533;&#176; 7 min</text></g><g id="elem_GMN35"><path d="M468.63,2232.1094 L468.63,2249.6094 L433.9,2253.6094 L468.63,2257.6094 L468.63,2274.8125 A0,0 0 0 0 468.63,2274.8125 L615.3771,2274.8125 A0,0 0 0 0 615.3771,2274.8125 L615.3771,2242.1094 L605.3771,2232.1094 L468.63,2232.1094 A0,0 0 0 0 468.63,2232.1094 " fill="#FEFFDD" style="stroke:#181818;stroke-width:0.5;"/><path d="M605.3771,2232.1094 L605.3771,2242.1094 L615.3771,2242.1094 L605.3771,2232.1094 " fill="#FEFFDD" style="stroke:#181818;stroke-width:0.5;"/><text fill="#000000" font-family="sans-serif" font-size="13" lengthAdjust="spacing" textLength="125.7471" x="474.63" y="2250.6045">Attente reponse client</text><text fill="#000000" font-family="sans-serif" font-size="13" lengthAdjust="spacing" textLength="40.479" x="474.63" y="2266.9561">24-72h</text></g><g id="elem_GMN38"><path d="M479.13,2360.1094 L479.13,2402.8125 A0,0 0 0 0 479.13,2402.8125 L671.358,2402.8125 A0,0 0 0 0 671.358,2402.8125 L671.358,2385.6094 L706.57,2381.6094 L671.358,2377.6094 L671.358,2370.1094 L661.358,2360.1094 L479.13,2360.1094 A0,0 0 0 0 479.13,2360.1094 " fill="#FEFFDD" style="stroke:#181818;stroke-width:0.5;"/><path d="M661.358,2360.1094 L661.358,2370.1094 L671.358,2370.1094 L661.358,2360.1094 " fill="#FEFFDD" style="stroke:#181818;stroke-width:0.5;"/><text fill="#000000" font-family="sans-serif" font-size="13" lengthAdjust="spacing" textLength="100.439" x="485.13" y="2378.6045">Retour a la saisie</text><text fill="#000000" font-family="sans-serif" font-size="13" lengthAdjust="spacing" textLength="171.228" x="485.13" y="2394.9561">&#240;&#376;&#8221;&#180; Recommence processus</text></g><g id="elem_GMN41"><path d="M302.63,2467.6094 L302.63,2690.1797 A0,0 0 0 0 302.63,2690.1797 L545.4488,2690.1797 A0,0 0 0 0 545.4488,2690.1797 L545.4488,2477.6094 L535.4488,2467.6094 L409.42,2467.6094 L395.25,2406.9694 L401.42,2467.6094 L302.63,2467.6094 A0,0 0 0 0 302.63,2467.6094 " fill="#FEFFDD" style="stroke:#181818;stroke-width:0.5;"/><path d="M535.4488,2467.6094 L535.4488,2477.6094 L545.4488,2477.6094 L535.4488,2467.6094 " fill="#FEFFDD" style="stroke:#181818;stroke-width:0.5;"/><text fill="#000000" font-family="sans-serif" font-size="13" font-weight="bold" lengthAdjust="spacing" textLength="153.1182" x="308.63" y="2486.1045">METRIQUES GLOBALES</text><text fill="#000000" font-family="sans-serif" font-size="13" lengthAdjust="spacing" textLength="100.2231" x="308.63" y="2502.4561">&#226;&#65533;&#176; Duree totale:</text><text fill="#000000" font-family="sans-serif" font-size="13" font-weight="bold" lengthAdjust="spacing" textLength="29.6309" x="412.465" y="2502.4561">2h05</text><text fill="#000000" font-family="sans-serif" font-size="13" lengthAdjust="spacing" textLength="3.6118" x="308.63" y="2518.8076">&#160;</text><text fill="#000000" font-family="sans-serif" font-size="13" lengthAdjust="spacing" textLength="89.5972" x="308.63" y="2535.1592">Decomposition:</text><text fill="#000000" font-family="sans-serif" font-size="13" lengthAdjust="spacing" textLength="210.2915" x="308.63" y="2551.5107">&#226;&#8364;&#162; Recherche ancien devis: 45 min</text><text fill="#000000" font-family="sans-serif" font-size="13" lengthAdjust="spacing" textLength="154.6162" x="308.63" y="2567.8623">&#226;&#8364;&#162; Ouverture MDE: 5 min</text><text fill="#000000" font-family="sans-serif" font-size="13" lengthAdjust="spacing" textLength="152.5024" x="308.63" y="2584.2139">&#226;&#8364;&#162; Saisie 30 lignes: 1h30</text><text fill="#000000" font-family="sans-serif" font-size="13" lengthAdjust="spacing" textLength="142.3525" x="308.63" y="2600.5654">&#226;&#8364;&#162; Verifications: 15 min</text><text fill="#000000" font-family="sans-serif" font-size="13" lengthAdjust="spacing" textLength="144.5171" x="308.63" y="2616.917">&#226;&#8364;&#162; PDF &amp; envoi: 10 min</text><text fill="#000000" font-family="sans-serif" font-size="13" lengthAdjust="spacing" textLength="3.6118" x="308.63" y="2633.2686">&#160;</text><text fill="#000000" font-family="sans-serif" font-size="13" lengthAdjust="spacing" textLength="27.46" x="308.63" y="2649.6201">&#240;&#376;&#732;&#164;</text><text fill="#000000" font-family="sans-serif" font-size="13" font-weight="bold" lengthAdjust="spacing" textLength="126.4009" x="339.7018" y="2649.6201">FRUSTRATION: 9/10</text><text fill="#000000" font-family="sans-serif" font-size="13" lengthAdjust="spacing" textLength="221.8188" x="308.63" y="2665.9717">&#240;&#376;&#8221;&#180; Avec templates: 30 min possible !</text><text fill="#000000" font-family="sans-serif" font-size="13" lengthAdjust="spacing" textLength="190.7915" x="308.63" y="2682.3232">Economie potentielle: 1h35/devis</text></g><!--link *start* to DemandeClient--><g id="link_*start*_DemandeClient"><path d="M624.13,64.6694 C624.13,82.2194 624.13,115.3694 624.13,140.9794 " fill="none" id="*start*-to-DemandeClient" style="stroke:#181818;stroke-width:1;"/><polygon fill="#181818" points="624.13,146.9794,628.13,137.9794,624.13,141.9794,620.13,137.9794,624.13,146.9794" style="stroke:#181818;stroke-width:1;"/><text fill="#000000" font-family="sans-serif" font-size="13" lengthAdjust="spacing" textLength="125.0171" x="625.13" y="109.1045">Client demande devis</text></g><!--link DemandeClient to RechercheTemplate--><g id="link_DemandeClient_RechercheTemplate"><path d="M624.13,197.2094 C624.13,230.8194 624.13,285.4094 624.13,319.0194 " fill="none" id="DemandeClient-to-RechercheTemplate" style="stroke:#181818;stroke-width:1;"/><polygon fill="#181818" points="624.13,325.0194,628.13,316.0194,624.13,320.0194,620.13,316.0194,624.13,325.0194" style="stroke:#181818;stroke-width:1;"/><text fill="#000000" font-family="sans-serif" font-size="13" lengthAdjust="spacing" textLength="169.8315" x="625.13" y="246.1045">Laurent cherche ancien devis</text></g><!--link RechercheTemplate to PasDeTemplate--><g id="link_RechercheTemplate_PasDeTemplate"><path d="M599.92,375.1994 C582.89,393.9494 561.53,421.5994 552.13,450.6094 C547.15,465.9994 547.5596,478.2807 550.3396,492.5107 " fill="none" id="RechercheTemplate-to-PasDeTemplate" style="stroke:#181818;stroke-width:1;"/><polygon fill="#181818" points="551.49,498.3994,553.6902,488.7994,550.5313,493.4921,545.8386,490.3333,551.49,498.3994" style="stroke:#181818;stroke-width:1;"/><text fill="#000000" font-family="sans-serif" font-size="13" lengthAdjust="spacing" textLength="113.4263" x="553.13" y="465.1045">Pas trouve similaire</text></g><!--link RechercheTemplate to OuvertureMDE--><g id="link_RechercheTemplate_OuvertureMDE"><path d="M639.33,375.3594 C650.6,394.8594 665.03,423.3894 671.13,450.6094 C685.7,515.5494 658.7983,586.7727 640.9583,624.9827 " fill="none" id="RechercheTemplate-to-OuvertureMDE" style="stroke:#181818;stroke-width:1;"/><polygon fill="#181818" points="638.42,630.4194,645.8519,623.9567,640.5353,625.8889,638.6031,620.5722,638.42,630.4194" style="stroke:#181818;stroke-width:1;"/><text fill="#000000" font-family="sans-serif" font-size="13" lengthAdjust="spacing" textLength="93.9326" x="676.13" y="529.1045">Template trouve</text></g><!--link PasDeTemplate to OuvertureMDE--><g id="link_PasDeTemplate_OuvertureMDE"><path d="M570.76,548.7594 C582.98,572.1094 598.5986,601.973 610.7886,625.273 " fill="none" id="PasDeTemplate-to-OuvertureMDE" style="stroke:#181818;stroke-width:1;"/><polygon fill="#181818" points="613.57,630.5894,612.9422,620.7605,611.2522,626.1591,605.8537,624.4691,613.57,630.5894" style="stroke:#181818;stroke-width:1;"/></g><!--link OuvertureMDE to RechercheClient--><g id="link_OuvertureMDE_RechercheClient"><path d="M598.89,680.8794 C568.22,708.1994 523.1897,748.3178 492.6297,775.5478 " fill="none" id="OuvertureMDE-to-RechercheClient" style="stroke:#181818;stroke-width:1;"/><polygon fill="#181818" points="488.15,779.5394,497.5306,776.5385,491.8831,776.2131,492.2085,770.5656,488.15,779.5394" style="stroke:#181818;stroke-width:1;"/><text fill="#000000" font-family="sans-serif" font-size="13" lengthAdjust="spacing" textLength="83.0972" x="540.13" y="746.1045">Cherche client</text></g><!--link RechercheClient to SaisieManuelle--><g id="link_RechercheClient_SaisieManuelle"><path d="M459.77,829.7994 C458.73,848.1994 457.527,869.7088 455.747,901.3488 " fill="none" id="RechercheClient-to-SaisieManuelle" style="stroke:#181818;stroke-width:1;"/><polygon fill="#181818" points="455.41,907.3394,459.9092,898.5783,455.6908,902.3473,451.9218,898.1289,455.41,907.3394" style="stroke:#181818;stroke-width:1;"/><text fill="#000000" font-family="sans-serif" font-size="13" lengthAdjust="spacing" textLength="85.998" x="459.13" y="874.1045">Nouveau devis</text></g><!--link SaisieManuelle to VerifExcel--><g id="link_SaisieManuelle_VerifExcel"><path d="M440.13,1451.7494 C440.13,1488.8494 440.13,1515.2694 440.13,1536.0294 " fill="none" id="SaisieManuelle-to-VerifExcel" style="stroke:#181818;stroke-width:1;"/><polygon fill="#181818" points="440.13,1542.0294,444.13,1533.0294,440.13,1537.0294,436.13,1533.0294,440.13,1542.0294" style="stroke:#181818;stroke-width:1;"/><text fill="#000000" font-family="sans-serif" font-size="13" lengthAdjust="spacing" textLength="70.8081" x="441.13" y="1496.1045">Verifications</text></g><!--link VerifExcel to Ajustements--><g id="link_VerifExcel_Ajustements"><path d="M443.27,1592.2294 C446.55,1617.4994 450.9075,1651.0093 454.1975,1676.3493 " fill="none" id="VerifExcel-to-Ajustements" style="stroke:#181818;stroke-width:1;"/><polygon fill="#181818" points="454.97,1682.2994,457.7779,1672.8593,454.3262,1677.341,449.8445,1673.8893,454.97,1682.2994" style="stroke:#181818;stroke-width:1;"/><text fill="#000000" font-family="sans-serif" font-size="13" lengthAdjust="spacing" textLength="139.4453" x="452.13" y="1649.1045">Corrections necessaires</text></g><!--link VerifExcel to GenerationPDF--><g id="link_VerifExcel_GenerationPDF"><path d="M420.68,1592.2794 C404.23,1614.3394 381.83,1648.5894 372.13,1682.6094 C359.68,1726.2694 361.9719,1773.9134 365.2319,1804.3934 " fill="none" id="VerifExcel-to-GenerationPDF" style="stroke:#181818;stroke-width:1;"/><polygon fill="#181818" points="365.87,1810.3594,368.8902,1800.985,365.3383,1805.3877,360.9355,1801.8358,365.87,1810.3594" style="stroke:#181818;stroke-width:1;"/><text fill="#000000" font-family="sans-serif" font-size="13" lengthAdjust="spacing" textLength="18.7827" x="373.13" y="1713.1045">OK</text></g><!--link Ajustements to GenerationPDF--><g id="link_Ajustements_GenerationPDF"><path d="M440.97,1732.8994 C425.21,1755.2194 405.441,1783.1982 389.701,1805.4882 " fill="none" id="Ajustements-to-GenerationPDF" style="stroke:#181818;stroke-width:1;"/><polygon fill="#181818" points="386.24,1810.3894,394.6989,1805.3449,389.1241,1806.305,388.164,1800.7303,386.24,1810.3894" style="stroke:#181818;stroke-width:1;"/></g><!--link GenerationPDF to VerifPDF--><g id="link_GenerationPDF_VerifPDF"><path d="M373.22,1860.8494 C377.17,1884.2894 382.1213,1913.6831 386.0713,1937.0831 " fill="none" id="GenerationPDF-to-VerifPDF" style="stroke:#181818;stroke-width:1;"/><polygon fill="#181818" points="387.07,1942.9994,389.5162,1933.4591,386.2378,1938.0691,381.6278,1934.7907,387.07,1942.9994" style="stroke:#181818;stroke-width:1;"/><text fill="#000000" font-family="sans-serif" font-size="13" lengthAdjust="spacing" textLength="118.5107" x="382.13" y="1905.1045">Verifie mise en page</text></g><!--link VerifPDF to BugPDF--><g id="link_VerifPDF_BugPDF"><path d="M342.1,1993.2094 C284.76,2021.3794 196.4249,2064.7932 144.0449,2090.5332 " fill="none" id="VerifPDF-to-BugPDF" style="stroke:#181818;stroke-width:1;"/><polygon fill="#181818" points="138.66,2093.1794,148.5015,2092.8,143.1475,2090.9742,144.9733,2085.6201,138.66,2093.1794" style="stroke:#181818;stroke-width:1;"/><text fill="#000000" font-family="sans-serif" font-size="13" lengthAdjust="spacing" textLength="79.5044" x="273.13" y="2042.1045">Bug affichage</text></g><!--link VerifPDF to EnvoiClient--><g id="link_VerifPDF_EnvoiClient"><path d="M391.13,1993.3694 C391.13,2019.6594 391.13,2055.3894 391.13,2081.7294 " fill="none" id="VerifPDF-to-EnvoiClient" style="stroke:#181818;stroke-width:1;"/><polygon fill="#181818" points="391.13,2087.7294,395.13,2078.7294,391.13,2082.7294,387.13,2078.7294,391.13,2087.7294" style="stroke:#181818;stroke-width:1;"/><text fill="#000000" font-family="sans-serif" font-size="13" lengthAdjust="spacing" textLength="48.3945" x="392.13" y="2042.1045">PDF OK</text></g><!--link BugPDF to GenerationPDF--><g id="link_BugPDF_GenerationPDF"><path d="M78.65,2087.8194 C49.83,2052.1794 6,1984.9194 40.13,1938.6094 C72.15,1895.1594 216.6767,1863.3523 302.6167,1847.7323 " fill="none" id="BugPDF-to-GenerationPDF" style="stroke:#181818;stroke-width:1;"/><polygon fill="#181818" points="308.52,1846.6594,298.9498,1844.3333,303.6006,1847.5535,300.3804,1852.2043,308.52,1846.6594" style="stroke:#181818;stroke-width:1;"/><text fill="#000000" font-family="sans-serif" font-size="13" lengthAdjust="spacing" textLength="57.0972" x="41.13" y="1973.6045">Regenere</text></g><!--link EnvoiClient to EnAttente--><g id="link_EnvoiClient_EnAttente"><path d="M391.13,2138.2294 C391.13,2163.4994 391.13,2196.9594 391.13,2222.2994 " fill="none" id="EnvoiClient-to-EnAttente" style="stroke:#181818;stroke-width:1;"/><polygon fill="#181818" points="391.13,2228.2994,395.13,2219.2994,391.13,2223.2994,387.13,2219.2994,391.13,2228.2994" style="stroke:#181818;stroke-width:1;"/><text fill="#000000" font-family="sans-serif" font-size="13" lengthAdjust="spacing" textLength="78.0381" x="392.13" y="2195.1045">Email envoye</text></g><!--link EnAttente to Refus--><g id="link_EnAttente_Refus"><path d="M348.57,2278.5894 C335.2,2287.1494 320.88,2297.4594 309.13,2308.6094 C294.16,2322.8194 283.7268,2336.6797 273.9968,2351.5397 " fill="none" id="EnAttente-to-Refus" style="stroke:#181818;stroke-width:1;"/><polygon fill="#181818" points="270.71,2356.5594,278.9866,2351.221,273.449,2352.3763,272.2937,2346.8387,270.71,2356.5594" style="stroke:#181818;stroke-width:1;"/><text fill="#000000" font-family="sans-serif" font-size="13" lengthAdjust="spacing" textLength="72.979" x="310.13" y="2323.1045">Client refuse</text></g><!--link EnAttente to Accepte--><g id="link_EnAttente_Accepte"><path d="M391.13,2278.8994 C391.13,2301.2194 391.13,2328.0994 391.13,2350.3894 " fill="none" id="EnAttente-to-Accepte" style="stroke:#181818;stroke-width:1;"/><polygon fill="#181818" points="391.13,2356.3894,395.13,2347.3894,391.13,2351.3894,387.13,2347.3894,391.13,2356.3894" style="stroke:#181818;stroke-width:1;"/><text fill="#000000" font-family="sans-serif" font-size="13" lengthAdjust="spacing" textLength="82.3799" x="392.13" y="2323.1045">Client accepte</text></g><!--link EnAttente to Modification--><g id="link_EnAttente_Modification"><path d="M433.92,2272.1894 C439.68,2274.4194 445.53,2276.6094 451.13,2278.6094 C537.11,2309.2394 631.6313,2337.0449 700.7113,2356.3449 " fill="none" id="EnAttente-to-Modification" style="stroke:#181818;stroke-width:1;"/><polygon fill="#181818" points="706.49,2357.9594,698.8983,2351.6852,701.6744,2356.614,696.7456,2359.3901,706.49,2357.9594" style="stroke:#181818;stroke-width:1;"/><text fill="#000000" font-family="sans-serif" font-size="13" lengthAdjust="spacing" textLength="158.2598" x="591.13" y="2323.1045">Client demande ajustement</text></g><!--link Modification to OuvertureMDE--><g id="link_Modification_OuvertureMDE"><path d="M790.13,2356.4494 C790.13,2331.0894 790.13,2290.0494 790.13,2254.6094 C790.13,803.6094 790.13,803.6094 790.13,803.6094 C790.13,769.9594 717.6147,716.424 669.1647,684.174 " fill="none" id="Modification-to-OuvertureMDE" style="stroke:#181818;stroke-width:1;"/><polygon fill="#181818" points="664.17,680.8494,669.4456,689.1661,668.3322,683.6199,673.8784,682.5065,664.17,680.8494" style="stroke:#181818;stroke-width:1;"/><text fill="#000000" font-family="sans-serif" font-size="13" lengthAdjust="spacing" textLength="74.4072" x="791.13" y="1777.1045">Rouvre MDE</text></g><!--link Refus to *end*--><g id="link_Refus_*end*"><path d="M256.13,2406.9694 C256.13,2450.1694 256.13,2532.4194 256.13,2562.1094 " fill="none" id="Refus-to-*end*" style="stroke:#181818;stroke-width:1;"/><polygon fill="#181818" points="256.13,2568.1094,260.13,2559.1094,256.13,2563.1094,252.13,2559.1094,256.13,2568.1094" style="stroke:#181818;stroke-width:1;"/></g><!--link Accepte to *end*--><g id="link_Accepte_*end*"><path d="M349.67,2406.6394 C327.45,2421.5294 301.38,2442.5794 285.13,2467.6094 C263.97,2500.2194 258.6576,2541.6861 257.1276,2562.1361 " fill="none" id="Accepte-to-*end*" style="stroke:#181818;stroke-width:1;"/><polygon fill="#181818" points="256.68,2568.1194,261.3403,2559.4429,257.053,2563.1333,253.3626,2558.846,256.68,2568.1194" style="stroke:#181818;stroke-width:1;"/></g><!--SRC=[TLVTRXj55BxtKnnI2T9KJXsxQUbA86tYTHjg9sRjX0k4eibwR4-qtZ7xOxKWf0ZU0BX10WbLY2ikUi45DmWfLQzuYxm0hy0vCxFhcOrpaP-T-SxC-Sx_v2AFEOnobdFe2ZPBsGAQSFWgmjK9XpE1Vpue4kZobSWQZSztle1cysFyNB1amWzZmPCSF33_JFGo_bNeJ1sxPS06j0KigydVUzeAWgUjHY8HdehPF0SvTJ4DW631H0oJ0g9oPRJaaPYAYEL29XaiKtd9QRtBOoOyUFHXyqbx3YpFUJ8f6lWBw8P6mxsT-8GyclCKVyPyiOn9Qm_wh4Xft-m0IoB4rxXLWb1AAdwtpxlNwpq-U7nGutWBXzg_VVFkhvkhNwx_X9sTC3Xy7eJu0mF_-3JezuET7OGqeISB4PEFP9O9dY9vbkPinZErsswr7W0QPgwsFfFfH2qVoyK2CI2IIEArICx3TO2juN0q79rFHSBYyrNx_EJ5URlLxknEPFHooqPeYvtxvsUXVtJUEphs-nMe2KCaZcvUuPte3v7CYCph__xv-_eDT5gm46Gyc1hDtxCSSjjSv1GyhsixXCxFKrciE6HY8T37ARz3z0H1QOx-6tG3bApsj7ZbFQEnuphtLiTjCPyghpaGnsD3z0AT-1LFfSN-mTxSOklUK5UtKgvQ15nLgZciDWUKSv8RI-DWC1p1uNC_V1OCWkEnYgHImxrzo7WaCIieWdnA6JoMHobBW4LHmKNieHDfSo0dHMno79DChPN7Z6NEOjXNlhuiCZnYAOiKqEYfI1sNEroS55mN5PDP9jzlfvnLKEhIQ9tkarRhhdIhYafVa9BwXWosaU5zAYnHAkCO7a1QtRNT9bBtDmMjLKT6J60w3bXIS8fn3rCEURAYLZKq34gSOb0JDUw5hr6TikfgI5_C4hv7MbgVzVqsvOjS5alex6Skjbt7Tkx6TYoiN-Gfpn2xkxjReSmYeKXBYX68IJ9hVDEeMTzbM8lEGxz_vX-5khvLXy3RxswkVeHzYgUFe3tlj1guFQIOma3-z3JGE4_L7_H315l-fInodkeDKvWKEMmJB9Qp0ds9FE-hdNKiOU8AQdgbdzM1SadzZoyBaK7mCk8nBB6uIRKvOkZP6Kid94FdMMaGyaaXSc2mXne3M_58YoC4crW6uvFJJqvEmn4euyKocJcvKGi5CkuPJyLKg-3fZxBjLK5bh-hhL5nPaavIbCLilQze3LYA7M8MomkcV8JMIyLBM6M0rI4gKkmQ4JVMKJqaul1bmP9SvDok17kgu5kaB3s8aA_AmqAb7QQwn8CZtSOJ7l4ie-AUrOMUyOIdYk2msqEnanSLU-iyHTi-VtCni11EB8Qy6St92bfuUxyC22nyQ60ChNQpKmRvcfzzuIrTApNNgu3BIbENr6PTtSF0XBfQHNte94eB5Dz-HA6uriezl8eaRJuTCHpvPLZh4vmXPdnpE9MwLi9tXv9Mq6c9KuanVr7CCc1Jcahe6egKcwjVRwv-GeFFAYtjaM5J09Ki3egPve3_MASwc21PIL5r4rgrueNaIbRciBAZcizD0MTKNLj9tM4t8llIpNEjXJ0rQC9Kw0Ed2RTMbp3hSjpMcIWmDU1IYaIF7SPGJsg6ibNGTYZxkMU6Q8w8LpQ9ikCR2YKUBTBh-Vuj0cRVcXHIliJSvUlPlFs8Xcz7gnAhk_sqoDOFXvG-UGtZHn5VAgqDYkc56aodfGdKMqyHLgLbHTSHC6y1pTpPsHZYDW9PXZodNiGWPf2fgbqh9H6EtAf6ukE4obfXbmpdkWrZQqXpanh_AjsLpzzzh-rd9X-oP1cx-ikqOqlgtGytLx-N5jK5qbYt3DBokv9Ll2zadii5ajhP6GJZy0XRxWYUzKyE_7umSYR8BggD0pODWDn3U7lUsaU0UewX5POo4yJJqvd_xH_Nh-tkQxsjSAPK9TS2EgEm1_LjCqvLKuEd-gu5S1gcHyEkUm0bz_igA_3PQ3gNSUI_Fr__XcnwuUbe7FhZevDZ3vu-t6jfxfMdVUhnkPdfCwzyxopfUNQXNZluWCLSbWj1Cp55hw3chbJTVwZ7moeo_WS0]--></g></svg>