<svg xmlns="http://www.w3.org/2000/svg" xmlns:xlink="http://www.w3.org/1999/xlink" contentStyleType="text/css" height="415px" preserveAspectRatio="none" style="width:3210px;height:415px;background:#FFFFFF;" version="1.1" viewBox="0 0 3210 415" width="3210px" zoomAndPan="magnify"><title>Timing Diagram - Timeline Cr&#195;&#169;ation Devis Type</title><defs/><g><text fill="#000000" font-family="sans-serif" font-size="14" font-weight="bold" lengthAdjust="spacing" textLength="326.1563" x="1425.6934" y="34.5332">Timing Diagram - Timeline Cr&#195;&#169;ation Devis Type</text><line style="stroke:#333333;stroke-width:0.5;" x1="10" x2="10" y1="48.6094" y2="385.0469"/><line style="stroke:#333333;stroke-width:0.5;" x1="3168.543" x2="3168.543" y1="48.6094" y2="385.0469"/><line style="stroke:#333333;stroke-width:0.5;stroke-dasharray:3.0,5.0;" x1="113.543" x2="113.543" y1="48.6094" y2="385.0469"/><line style="stroke:#333333;stroke-width:0.5;stroke-dasharray:3.0,5.0;" x1="163.543" x2="163.543" y1="48.6094" y2="385.0469"/><line style="stroke:#333333;stroke-width:0.5;stroke-dasharray:3.0,5.0;" x1="213.543" x2="213.543" y1="48.6094" y2="385.0469"/><line style="stroke:#333333;stroke-width:0.5;stroke-dasharray:3.0,5.0;" x1="263.543" x2="263.543" y1="48.6094" y2="385.0469"/><line style="stroke:#333333;stroke-width:0.5;stroke-dasharray:3.0,5.0;" x1="313.543" x2="313.543" y1="48.6094" y2="385.0469"/><line style="stroke:#333333;stroke-width:0.5;stroke-dasharray:3.0,5.0;" x1="363.543" x2="363.543" y1="48.6094" y2="385.0469"/><line style="stroke:#333333;stroke-width:0.5;stroke-dasharray:3.0,5.0;" x1="413.543" x2="413.543" y1="48.6094" y2="385.0469"/><line style="stroke:#333333;stroke-width:0.5;stroke-dasharray:3.0,5.0;" x1="463.543" x2="463.543" y1="48.6094" y2="385.0469"/><line style="stroke:#333333;stroke-width:0.5;stroke-dasharray:3.0,5.0;" x1="513.543" x2="513.543" y1="48.6094" y2="385.0469"/><line style="stroke:#333333;stroke-width:0.5;stroke-dasharray:3.0,5.0;" x1="563.543" x2="563.543" y1="48.6094" y2="385.0469"/><line style="stroke:#333333;stroke-width:0.5;stroke-dasharray:3.0,5.0;" x1="613.543" x2="613.543" y1="48.6094" y2="385.0469"/><line style="stroke:#333333;stroke-width:0.5;stroke-dasharray:3.0,5.0;" x1="663.543" x2="663.543" y1="48.6094" y2="385.0469"/><line style="stroke:#333333;stroke-width:0.5;stroke-dasharray:3.0,5.0;" x1="713.543" x2="713.543" y1="48.6094" y2="385.0469"/><line style="stroke:#333333;stroke-width:0.5;stroke-dasharray:3.0,5.0;" x1="763.543" x2="763.543" y1="48.6094" y2="385.0469"/><line style="stroke:#333333;stroke-width:0.5;stroke-dasharray:3.0,5.0;" x1="813.543" x2="813.543" y1="48.6094" y2="385.0469"/><line style="stroke:#333333;stroke-width:0.5;stroke-dasharray:3.0,5.0;" x1="863.543" x2="863.543" y1="48.6094" y2="385.0469"/><line style="stroke:#333333;stroke-width:0.5;stroke-dasharray:3.0,5.0;" x1="913.543" x2="913.543" y1="48.6094" y2="385.0469"/><line style="stroke:#333333;stroke-width:0.5;stroke-dasharray:3.0,5.0;" x1="963.543" x2="963.543" y1="48.6094" y2="385.0469"/><line style="stroke:#333333;stroke-width:0.5;stroke-dasharray:3.0,5.0;" x1="1013.543" x2="1013.543" y1="48.6094" y2="385.0469"/><line style="stroke:#333333;stroke-width:0.5;stroke-dasharray:3.0,5.0;" x1="1063.543" x2="1063.543" y1="48.6094" y2="385.0469"/><line style="stroke:#333333;stroke-width:0.5;stroke-dasharray:3.0,5.0;" x1="1113.543" x2="1113.543" y1="48.6094" y2="385.0469"/><line style="stroke:#333333;stroke-width:0.5;stroke-dasharray:3.0,5.0;" x1="1163.543" x2="1163.543" y1="48.6094" y2="385.0469"/><line style="stroke:#333333;stroke-width:0.5;stroke-dasharray:3.0,5.0;" x1="1213.543" x2="1213.543" y1="48.6094" y2="385.0469"/><line style="stroke:#333333;stroke-width:0.5;stroke-dasharray:3.0,5.0;" x1="1263.543" x2="1263.543" y1="48.6094" y2="385.0469"/><line style="stroke:#333333;stroke-width:0.5;stroke-dasharray:3.0,5.0;" x1="1313.543" x2="1313.543" y1="48.6094" y2="385.0469"/><line style="stroke:#333333;stroke-width:0.5;stroke-dasharray:3.0,5.0;" x1="1363.543" x2="1363.543" y1="48.6094" y2="385.0469"/><line style="stroke:#333333;stroke-width:0.5;stroke-dasharray:3.0,5.0;" x1="1413.543" x2="1413.543" y1="48.6094" y2="385.0469"/><line style="stroke:#333333;stroke-width:0.5;stroke-dasharray:3.0,5.0;" x1="1463.543" x2="1463.543" y1="48.6094" y2="385.0469"/><line style="stroke:#333333;stroke-width:0.5;stroke-dasharray:3.0,5.0;" x1="1513.543" x2="1513.543" y1="48.6094" y2="385.0469"/><line style="stroke:#333333;stroke-width:0.5;stroke-dasharray:3.0,5.0;" x1="1563.543" x2="1563.543" y1="48.6094" y2="385.0469"/><line style="stroke:#333333;stroke-width:0.5;stroke-dasharray:3.0,5.0;" x1="1613.543" x2="1613.543" y1="48.6094" y2="385.0469"/><line style="stroke:#333333;stroke-width:0.5;stroke-dasharray:3.0,5.0;" x1="1663.543" x2="1663.543" y1="48.6094" y2="385.0469"/><line style="stroke:#333333;stroke-width:0.5;stroke-dasharray:3.0,5.0;" x1="1713.543" x2="1713.543" y1="48.6094" y2="385.0469"/><line style="stroke:#333333;stroke-width:0.5;stroke-dasharray:3.0,5.0;" x1="1763.543" x2="1763.543" y1="48.6094" y2="385.0469"/><line style="stroke:#333333;stroke-width:0.5;stroke-dasharray:3.0,5.0;" x1="1813.543" x2="1813.543" y1="48.6094" y2="385.0469"/><line style="stroke:#333333;stroke-width:0.5;stroke-dasharray:3.0,5.0;" x1="1863.543" x2="1863.543" y1="48.6094" y2="385.0469"/><line style="stroke:#333333;stroke-width:0.5;stroke-dasharray:3.0,5.0;" x1="1913.543" x2="1913.543" y1="48.6094" y2="385.0469"/><line style="stroke:#333333;stroke-width:0.5;stroke-dasharray:3.0,5.0;" x1="1963.543" x2="1963.543" y1="48.6094" y2="385.0469"/><line style="stroke:#333333;stroke-width:0.5;stroke-dasharray:3.0,5.0;" x1="2013.543" x2="2013.543" y1="48.6094" y2="385.0469"/><line style="stroke:#333333;stroke-width:0.5;stroke-dasharray:3.0,5.0;" x1="2063.543" x2="2063.543" y1="48.6094" y2="385.0469"/><line style="stroke:#333333;stroke-width:0.5;stroke-dasharray:3.0,5.0;" x1="2113.543" x2="2113.543" y1="48.6094" y2="385.0469"/><line style="stroke:#333333;stroke-width:0.5;stroke-dasharray:3.0,5.0;" x1="2163.543" x2="2163.543" y1="48.6094" y2="385.0469"/><line style="stroke:#333333;stroke-width:0.5;stroke-dasharray:3.0,5.0;" x1="2213.543" x2="2213.543" y1="48.6094" y2="385.0469"/><line style="stroke:#333333;stroke-width:0.5;stroke-dasharray:3.0,5.0;" x1="2263.543" x2="2263.543" y1="48.6094" y2="385.0469"/><line style="stroke:#333333;stroke-width:0.5;stroke-dasharray:3.0,5.0;" x1="2313.543" x2="2313.543" y1="48.6094" y2="385.0469"/><line style="stroke:#333333;stroke-width:0.5;stroke-dasharray:3.0,5.0;" x1="2363.543" x2="2363.543" y1="48.6094" y2="385.0469"/><line style="stroke:#333333;stroke-width:0.5;stroke-dasharray:3.0,5.0;" x1="2413.543" x2="2413.543" y1="48.6094" y2="385.0469"/><line style="stroke:#333333;stroke-width:0.5;stroke-dasharray:3.0,5.0;" x1="2463.543" x2="2463.543" y1="48.6094" y2="385.0469"/><line style="stroke:#333333;stroke-width:0.5;stroke-dasharray:3.0,5.0;" x1="2513.543" x2="2513.543" y1="48.6094" y2="385.0469"/><line style="stroke:#333333;stroke-width:0.5;stroke-dasharray:3.0,5.0;" x1="2563.543" x2="2563.543" y1="48.6094" y2="385.0469"/><line style="stroke:#333333;stroke-width:0.5;stroke-dasharray:3.0,5.0;" x1="2613.543" x2="2613.543" y1="48.6094" y2="385.0469"/><line style="stroke:#333333;stroke-width:0.5;stroke-dasharray:3.0,5.0;" x1="2663.543" x2="2663.543" y1="48.6094" y2="385.0469"/><line style="stroke:#333333;stroke-width:0.5;stroke-dasharray:3.0,5.0;" x1="2713.543" x2="2713.543" y1="48.6094" y2="385.0469"/><line style="stroke:#333333;stroke-width:0.5;stroke-dasharray:3.0,5.0;" x1="2763.543" x2="2763.543" y1="48.6094" y2="385.0469"/><line style="stroke:#333333;stroke-width:0.5;stroke-dasharray:3.0,5.0;" x1="2813.543" x2="2813.543" y1="48.6094" y2="385.0469"/><line style="stroke:#333333;stroke-width:0.5;stroke-dasharray:3.0,5.0;" x1="2863.543" x2="2863.543" y1="48.6094" y2="385.0469"/><line style="stroke:#333333;stroke-width:0.5;stroke-dasharray:3.0,5.0;" x1="2913.543" x2="2913.543" y1="48.6094" y2="385.0469"/><line style="stroke:#333333;stroke-width:0.5;stroke-dasharray:3.0,5.0;" x1="2963.543" x2="2963.543" y1="48.6094" y2="385.0469"/><line style="stroke:#333333;stroke-width:0.5;stroke-dasharray:3.0,5.0;" x1="3013.543" x2="3013.543" y1="48.6094" y2="385.0469"/><line style="stroke:#333333;stroke-width:0.5;stroke-dasharray:3.0,5.0;" x1="3063.543" x2="3063.543" y1="48.6094" y2="385.0469"/><line style="stroke:#333333;stroke-width:0.5;stroke-dasharray:3.0,5.0;" x1="3113.543" x2="3113.543" y1="48.6094" y2="385.0469"/><line style="stroke:#333333;stroke-width:0.5;stroke-dasharray:3.0,5.0;" x1="3163.543" x2="3163.543" y1="48.6094" y2="385.0469"/><line style="stroke:#333333;stroke-width:0.5;" x1="10" x2="3168.543" y1="48.6094" y2="48.6094"/><text fill="#333333" font-family="sans-serif" font-size="14" font-weight="bold" lengthAdjust="spacing" textLength="51.3379" x="15" y="63.1426">Laurent</text><text fill="#333333" font-family="sans-serif" font-size="14" font-weight="bold" lengthAdjust="spacing" textLength="95.6826" x="15" y="80.752">(Resp. Affaire)</text><line style="stroke:#333333;stroke-width:0.5;" x1="10" x2="111.6826" y1="84.8281" y2="84.8281"/><line style="stroke:#333333;stroke-width:0.5;" x1="111.6826" x2="121.6826" y1="84.8281" y2="48.6094"/><polygon fill="#E2E2F0" points="125.543,89.8281,251.543,89.8281,263.543,101.8281,251.543,113.8281,125.543,113.8281,113.543,101.8281" style="stroke:#006400;stroke-width:1.5;"/><polygon fill="#E2E2F0" points="275.543,89.8281,551.543,89.8281,563.543,101.8281,551.543,113.8281,275.543,113.8281,263.543,101.8281" style="stroke:#006400;stroke-width:1.5;"/><polygon fill="#E2E2F0" points="575.543,89.8281,601.543,89.8281,613.543,101.8281,601.543,113.8281,575.543,113.8281,563.543,101.8281" style="stroke:#006400;stroke-width:1.5;"/><polygon fill="#E2E2F0" points="625.543,89.8281,901.543,89.8281,913.543,101.8281,901.543,113.8281,625.543,113.8281,613.543,101.8281" style="stroke:#006400;stroke-width:1.5;"/><polygon fill="#E2E2F0" points="925.543,89.8281,1301.543,89.8281,1313.543,101.8281,1301.543,113.8281,925.543,113.8281,913.543,101.8281" style="stroke:#006400;stroke-width:1.5;"/><polygon fill="#E2E2F0" points="1325.543,89.8281,1401.543,89.8281,1413.543,101.8281,1401.543,113.8281,1325.543,113.8281,1313.543,101.8281" style="stroke:#006400;stroke-width:1.5;"/><polygon fill="#E2E2F0" points="1425.543,89.8281,1501.543,89.8281,1513.543,101.8281,1501.543,113.8281,1425.543,113.8281,1413.543,101.8281" style="stroke:#006400;stroke-width:1.5;"/><polygon fill="#E2E2F0" points="1525.543,89.8281,1551.543,89.8281,1563.543,101.8281,1551.543,113.8281,1525.543,113.8281,1513.543,101.8281" style="stroke:#006400;stroke-width:1.5;"/><polygon fill="#E2E2F0" points="1575.543,89.8281,1581.543,89.8281,1593.543,101.8281,1581.543,113.8281,1575.543,113.8281,1563.543,101.8281" style="stroke:#006400;stroke-width:1.5;"/><polygon fill="#E2E2F0" points="1605.543,89.8281,1611.543,89.8281,1623.543,101.8281,1611.543,113.8281,1605.543,113.8281,1593.543,101.8281" style="stroke:#006400;stroke-width:1.5;"/><polygon fill="#E2E2F0" points="1635.543,89.8281,1681.543,89.8281,1693.543,101.8281,1681.543,113.8281,1635.543,113.8281,1623.543,101.8281" style="stroke:#006400;stroke-width:1.5;"/><polygon fill="#E2E2F0" points="1705.543,89.8281,1751.543,89.8281,1763.543,101.8281,1751.543,113.8281,1705.543,113.8281,1693.543,101.8281" style="stroke:#006400;stroke-width:1.5;"/><polygon fill="#E2E2F0" points="1775.543,89.8281,1851.543,89.8281,1863.543,101.8281,1851.543,113.8281,1775.543,113.8281,1763.543,101.8281" style="stroke:#006400;stroke-width:1.5;"/><polygon fill="#E2E2F0" points="1875.543,89.8281,2201.543,89.8281,2213.543,101.8281,2201.543,113.8281,1875.543,113.8281,1863.543,101.8281" style="stroke:#006400;stroke-width:1.5;"/><polygon fill="#E2E2F0" points="2225.543,89.8281,3101.543,89.8281,3113.543,101.8281,3101.543,113.8281,2225.543,113.8281,2213.543,101.8281" style="stroke:#006400;stroke-width:1.5;"/><polygon fill="#E2E2F0" points="3125.543,89.8281,3163.543,89.8281,3163.543,113.8281,3125.543,113.8281,3113.543,101.8281" style="stroke:#E2E2F0;stroke-width:1.5;"/><path d="M3163.543,89.8281 L3125.543,89.8281 L3113.543,101.8281 L3125.543,113.8281 L3163.543,113.8281 " fill="#E2E2F0" style="stroke:#006400;stroke-width:1.5;"/><text fill="#333333" font-family="sans-serif" font-size="12" font-weight="bold" lengthAdjust="spacing" textLength="46.6758" x="165.2051" y="106.7383">LitEmail</text><text fill="#333333" font-family="sans-serif" font-size="12" font-weight="bold" lengthAdjust="spacing" textLength="100.6992" x="363.1934" y="106.7383">ChercheTemplate</text><text fill="#333333" font-family="sans-serif" font-size="12" font-weight="bold" lengthAdjust="spacing" textLength="100.6992" x="538.1934" y="106.7383">ChercheTemplate</text><text fill="#333333" font-family="sans-serif" font-size="12" font-weight="bold" lengthAdjust="spacing" textLength="37.9922" x="744.5469" y="106.7383">Attend</text><text fill="#333333" font-family="sans-serif" font-size="12" font-weight="bold" lengthAdjust="spacing" textLength="37.9922" x="1094.5469" y="106.7383">Attend</text><text fill="#333333" font-family="sans-serif" font-size="12" font-weight="bold" lengthAdjust="spacing" textLength="94.6992" x="1316.1934" y="106.7383">RechercheClient</text><text fill="#333333" font-family="sans-serif" font-size="12" font-weight="bold" lengthAdjust="spacing" textLength="58.0371" x="1434.5244" y="106.7383">VerifExcel</text><text fill="#333333" font-family="sans-serif" font-size="12" font-weight="bold" lengthAdjust="spacing" textLength="73.3652" x="1501.8604" y="106.7383">SaisieLigne1</text><text fill="#333333" font-family="sans-serif" font-size="12" font-weight="bold" lengthAdjust="spacing" textLength="65.3555" x="1545.8652" y="106.7383">GenerePDF</text><text fill="#333333" font-family="sans-serif" font-size="12" font-weight="bold" lengthAdjust="spacing" textLength="50.6777" x="1583.2041" y="106.7383">VerifPDF</text><text fill="#333333" font-family="sans-serif" font-size="12" font-weight="bold" lengthAdjust="spacing" textLength="90.0234" x="1613.5313" y="106.7383">RedactionEmail</text><text fill="#333333" font-family="sans-serif" font-size="12" font-weight="bold" lengthAdjust="spacing" textLength="64.6875" x="1696.1992" y="106.7383">EnvoiEmail</text><text fill="#333333" font-family="sans-serif" font-size="12" font-weight="bold" lengthAdjust="spacing" textLength="46.6816" x="1790.2021" y="106.7383">Termine</text><text fill="#333333" font-family="sans-serif" font-size="12" font-weight="bold" lengthAdjust="spacing" textLength="73.3652" x="2001.8604" y="106.7383">SaisieLigne2</text><text fill="#333333" font-family="sans-serif" font-size="12" font-weight="bold" lengthAdjust="spacing" textLength="73.3652" x="2626.8604" y="106.7383">SaisieLigne3</text><text fill="#333333" font-family="sans-serif" font-size="12" font-weight="bold" lengthAdjust="spacing" textLength="73.3652" x="3125.543" y="106.7383">SaisieLignes</text><line style="stroke:#333333;stroke-width:0.5;" x1="10" x2="3168.543" y1="123.8281" y2="123.8281"/><text fill="#333333" font-family="sans-serif" font-size="14" font-weight="bold" lengthAdjust="spacing" textLength="68.4619" x="15" y="138.3613">MDE/Sage</text><line style="stroke:#333333;stroke-width:0.5;" x1="10" x2="84.4619" y1="142.4375" y2="142.4375"/><line style="stroke:#333333;stroke-width:0.5;" x1="84.4619" x2="94.4619" y1="142.4375" y2="123.8281"/><text fill="#333333" font-family="sans-serif" font-size="12" lengthAdjust="spacing" textLength="19.3477" x="19.1348" y="273.3477">Idle</text><text fill="#333333" font-family="sans-serif" font-size="12" lengthAdjust="spacing" textLength="66.0352" x="19.1348" y="253.3477">Chargement</text><text fill="#333333" font-family="sans-serif" font-size="12" lengthAdjust="spacing" textLength="60.709" x="19.1348" y="233.3477">LoginEcran</text><text fill="#333333" font-family="sans-serif" font-size="12" lengthAdjust="spacing" textLength="60.0234" x="19.1348" y="213.3477">MenuDevis</text><text fill="#333333" font-family="sans-serif" font-size="12" lengthAdjust="spacing" textLength="88.7109" x="19.1348" y="193.3477">RechercheClient</text><text fill="#333333" font-family="sans-serif" font-size="12" lengthAdjust="spacing" textLength="89.4082" x="19.1348" y="173.3477">PopupCatalogue</text><text fill="#333333" font-family="sans-serif" font-size="12" lengthAdjust="spacing" textLength="64.0254" x="19.1348" y="153.3477">GenerePDF</text><line style="stroke:#006400;stroke-width:2;" x1="113.543" x2="563.543" y1="267.4375" y2="267.4375"/><line style="stroke:#006400;stroke-width:2;" x1="563.543" x2="613.543" y1="247.4375" y2="247.4375"/><line style="stroke:#006400;stroke-width:2;" x1="613.543" x2="913.543" y1="227.4375" y2="227.4375"/><line style="stroke:#006400;stroke-width:2;" x1="913.543" x2="1313.543" y1="207.4375" y2="207.4375"/><line style="stroke:#006400;stroke-width:2;" x1="1313.543" x2="1413.543" y1="187.4375" y2="187.4375"/><line style="stroke:#006400;stroke-width:2;" x1="1413.543" x2="1513.543" y1="267.4375" y2="267.4375"/><line style="stroke:#006400;stroke-width:2;" x1="1513.543" x2="1563.543" y1="167.4375" y2="167.4375"/><line style="stroke:#006400;stroke-width:2;" x1="1563.543" x2="1623.543" y1="147.4375" y2="147.4375"/><line style="stroke:#006400;stroke-width:2;" x1="1623.543" x2="1763.543" y1="267.4375" y2="267.4375"/><line style="stroke:#006400;stroke-width:2;" x1="1763.543" x2="1863.543" y1="267.4375" y2="267.4375"/><line style="stroke:#006400;stroke-width:2;" x1="1863.543" x2="2213.543" y1="167.4375" y2="167.4375"/><line style="stroke:#006400;stroke-width:2;" x1="2213.543" x2="3113.543" y1="167.4375" y2="167.4375"/><line style="stroke:#006400;stroke-width:2;" x1="3113.543" x2="3163.543" y1="167.4375" y2="167.4375"/><line style="stroke:#006400;stroke-width:2;" x1="563.543" x2="563.543" y1="247.4375" y2="267.4375"/><line style="stroke:#006400;stroke-width:2;" x1="613.543" x2="613.543" y1="227.4375" y2="247.4375"/><line style="stroke:#006400;stroke-width:2;" x1="913.543" x2="913.543" y1="207.4375" y2="227.4375"/><line style="stroke:#006400;stroke-width:2;" x1="1313.543" x2="1313.543" y1="187.4375" y2="207.4375"/><line style="stroke:#006400;stroke-width:2;" x1="1413.543" x2="1413.543" y1="187.4375" y2="267.4375"/><line style="stroke:#006400;stroke-width:2;" x1="1513.543" x2="1513.543" y1="167.4375" y2="267.4375"/><line style="stroke:#006400;stroke-width:2;" x1="1563.543" x2="1563.543" y1="147.4375" y2="167.4375"/><line style="stroke:#006400;stroke-width:2;" x1="1623.543" x2="1623.543" y1="147.4375" y2="267.4375"/><line style="stroke:#006400;stroke-width:2;" x1="1763.543" x2="1763.543" y1="267.4375" y2="267.4375"/><line style="stroke:#006400;stroke-width:2;" x1="1863.543" x2="1863.543" y1="167.4375" y2="267.4375"/><line style="stroke:#006400;stroke-width:2;" x1="2213.543" x2="2213.543" y1="167.4375" y2="167.4375"/><line style="stroke:#006400;stroke-width:2;" x1="3113.543" x2="3113.543" y1="167.4375" y2="167.4375"/><line style="stroke:#333333;stroke-width:0.5;" x1="10" x2="3168.543" y1="279.4375" y2="279.4375"/><text fill="#333333" font-family="sans-serif" font-size="14" font-weight="bold" lengthAdjust="spacing" textLength="38.8896" x="15" y="293.9707">Client</text><line style="stroke:#333333;stroke-width:0.5;" x1="10" x2="54.8896" y1="298.0469" y2="298.0469"/><line style="stroke:#333333;stroke-width:0.5;" x1="54.8896" x2="64.8896" y1="298.0469" y2="279.4375"/><text fill="#333333" font-family="sans-serif" font-size="12" lengthAdjust="spacing" textLength="82.0488" x="26.4941" y="348.957">EnvoiDemande</text><text fill="#333333" font-family="sans-serif" font-size="12" lengthAdjust="spacing" textLength="64.0195" x="26.4941" y="328.957">RecoitDevis</text><text fill="#333333" font-family="sans-serif" font-size="12" lengthAdjust="spacing" textLength="34.0254" x="26.4941" y="308.957">Etudie</text><line style="stroke:#006400;stroke-width:2;" x1="113.543" x2="1693.543" y1="343.0469" y2="343.0469"/><line style="stroke:#006400;stroke-width:2;" x1="1693.543" x2="1763.543" y1="323.0469" y2="323.0469"/><line style="stroke:#006400;stroke-width:2;" x1="1763.543" x2="3163.543" y1="303.0469" y2="303.0469"/><line style="stroke:#006400;stroke-width:2;" x1="1693.543" x2="1693.543" y1="323.0469" y2="343.0469"/><line style="stroke:#006400;stroke-width:2;" x1="1763.543" x2="1763.543" y1="303.0469" y2="323.0469"/><line style="stroke:#333333;stroke-width:0.5;" x1="10" x2="3168.543" y1="355.0469" y2="355.0469"/><text fill="#333333" font-family="sans-serif" font-size="14" font-weight="bold" lengthAdjust="spacing" textLength="93.543" x="15" y="375.7754">Productivit&#195;&#169;</text><line style="stroke:#006400;stroke-width:2;" x1="113.543" x2="113.543" y1="377.0469" y2="377.0469"/><line style="stroke:#006400;stroke-width:2;" x1="113.543" x2="113.543" y1="363.0469" y2="377.0469"/><line style="stroke:#006400;stroke-width:2;" x1="113.543" x2="563.543" y1="363.0469" y2="363.0469"/><line style="stroke:#006400;stroke-width:2;" x1="563.543" x2="563.543" y1="363.0469" y2="377.0469"/><line style="stroke:#006400;stroke-width:2;" x1="563.543" x2="1413.543" y1="377.0469" y2="377.0469"/><line style="stroke:#006400;stroke-width:2;" x1="1413.543" x2="1413.543" y1="363.0469" y2="377.0469"/><line style="stroke:#006400;stroke-width:2;" x1="1413.543" x2="1513.543" y1="363.0469" y2="363.0469"/><line style="stroke:#006400;stroke-width:2;" x1="1513.543" x2="1763.543" y1="363.0469" y2="363.0469"/><line style="stroke:#006400;stroke-width:2;" x1="1763.543" x2="1763.543" y1="363.0469" y2="377.0469"/><line style="stroke:#006400;stroke-width:2;" x1="1763.543" x2="3163.543" y1="377.0469" y2="377.0469"/><line style="stroke:#333333;stroke-width:2;" x1="113.543" x2="113.543" y1="385.0469" y2="390.0469"/><line style="stroke:#333333;stroke-width:2;" x1="163.543" x2="163.543" y1="385.0469" y2="390.0469"/><line style="stroke:#333333;stroke-width:2;" x1="213.543" x2="213.543" y1="385.0469" y2="390.0469"/><line style="stroke:#333333;stroke-width:2;" x1="263.543" x2="263.543" y1="385.0469" y2="390.0469"/><line style="stroke:#333333;stroke-width:2;" x1="313.543" x2="313.543" y1="385.0469" y2="390.0469"/><line style="stroke:#333333;stroke-width:2;" x1="363.543" x2="363.543" y1="385.0469" y2="390.0469"/><line style="stroke:#333333;stroke-width:2;" x1="413.543" x2="413.543" y1="385.0469" y2="390.0469"/><line style="stroke:#333333;stroke-width:2;" x1="463.543" x2="463.543" y1="385.0469" y2="390.0469"/><line style="stroke:#333333;stroke-width:2;" x1="513.543" x2="513.543" y1="385.0469" y2="390.0469"/><line style="stroke:#333333;stroke-width:2;" x1="563.543" x2="563.543" y1="385.0469" y2="390.0469"/><line style="stroke:#333333;stroke-width:2;" x1="613.543" x2="613.543" y1="385.0469" y2="390.0469"/><line style="stroke:#333333;stroke-width:2;" x1="663.543" x2="663.543" y1="385.0469" y2="390.0469"/><line style="stroke:#333333;stroke-width:2;" x1="713.543" x2="713.543" y1="385.0469" y2="390.0469"/><line style="stroke:#333333;stroke-width:2;" x1="763.543" x2="763.543" y1="385.0469" y2="390.0469"/><line style="stroke:#333333;stroke-width:2;" x1="813.543" x2="813.543" y1="385.0469" y2="390.0469"/><line style="stroke:#333333;stroke-width:2;" x1="863.543" x2="863.543" y1="385.0469" y2="390.0469"/><line style="stroke:#333333;stroke-width:2;" x1="913.543" x2="913.543" y1="385.0469" y2="390.0469"/><line style="stroke:#333333;stroke-width:2;" x1="963.543" x2="963.543" y1="385.0469" y2="390.0469"/><line style="stroke:#333333;stroke-width:2;" x1="1013.543" x2="1013.543" y1="385.0469" y2="390.0469"/><line style="stroke:#333333;stroke-width:2;" x1="1063.543" x2="1063.543" y1="385.0469" y2="390.0469"/><line style="stroke:#333333;stroke-width:2;" x1="1113.543" x2="1113.543" y1="385.0469" y2="390.0469"/><line style="stroke:#333333;stroke-width:2;" x1="1163.543" x2="1163.543" y1="385.0469" y2="390.0469"/><line style="stroke:#333333;stroke-width:2;" x1="1213.543" x2="1213.543" y1="385.0469" y2="390.0469"/><line style="stroke:#333333;stroke-width:2;" x1="1263.543" x2="1263.543" y1="385.0469" y2="390.0469"/><line style="stroke:#333333;stroke-width:2;" x1="1313.543" x2="1313.543" y1="385.0469" y2="390.0469"/><line style="stroke:#333333;stroke-width:2;" x1="1363.543" x2="1363.543" y1="385.0469" y2="390.0469"/><line style="stroke:#333333;stroke-width:2;" x1="1413.543" x2="1413.543" y1="385.0469" y2="390.0469"/><line style="stroke:#333333;stroke-width:2;" x1="1463.543" x2="1463.543" y1="385.0469" y2="390.0469"/><line style="stroke:#333333;stroke-width:2;" x1="1513.543" x2="1513.543" y1="385.0469" y2="390.0469"/><line style="stroke:#333333;stroke-width:2;" x1="1563.543" x2="1563.543" y1="385.0469" y2="390.0469"/><line style="stroke:#333333;stroke-width:2;" x1="1613.543" x2="1613.543" y1="385.0469" y2="390.0469"/><line style="stroke:#333333;stroke-width:2;" x1="1663.543" x2="1663.543" y1="385.0469" y2="390.0469"/><line style="stroke:#333333;stroke-width:2;" x1="1713.543" x2="1713.543" y1="385.0469" y2="390.0469"/><line style="stroke:#333333;stroke-width:2;" x1="1763.543" x2="1763.543" y1="385.0469" y2="390.0469"/><line style="stroke:#333333;stroke-width:2;" x1="1813.543" x2="1813.543" y1="385.0469" y2="390.0469"/><line style="stroke:#333333;stroke-width:2;" x1="1863.543" x2="1863.543" y1="385.0469" y2="390.0469"/><line style="stroke:#333333;stroke-width:2;" x1="1913.543" x2="1913.543" y1="385.0469" y2="390.0469"/><line style="stroke:#333333;stroke-width:2;" x1="1963.543" x2="1963.543" y1="385.0469" y2="390.0469"/><line style="stroke:#333333;stroke-width:2;" x1="2013.543" x2="2013.543" y1="385.0469" y2="390.0469"/><line style="stroke:#333333;stroke-width:2;" x1="2063.543" x2="2063.543" y1="385.0469" y2="390.0469"/><line style="stroke:#333333;stroke-width:2;" x1="2113.543" x2="2113.543" y1="385.0469" y2="390.0469"/><line style="stroke:#333333;stroke-width:2;" x1="2163.543" x2="2163.543" y1="385.0469" y2="390.0469"/><line style="stroke:#333333;stroke-width:2;" x1="2213.543" x2="2213.543" y1="385.0469" y2="390.0469"/><line style="stroke:#333333;stroke-width:2;" x1="2263.543" x2="2263.543" y1="385.0469" y2="390.0469"/><line style="stroke:#333333;stroke-width:2;" x1="2313.543" x2="2313.543" y1="385.0469" y2="390.0469"/><line style="stroke:#333333;stroke-width:2;" x1="2363.543" x2="2363.543" y1="385.0469" y2="390.0469"/><line style="stroke:#333333;stroke-width:2;" x1="2413.543" x2="2413.543" y1="385.0469" y2="390.0469"/><line style="stroke:#333333;stroke-width:2;" x1="2463.543" x2="2463.543" y1="385.0469" y2="390.0469"/><line style="stroke:#333333;stroke-width:2;" x1="2513.543" x2="2513.543" y1="385.0469" y2="390.0469"/><line style="stroke:#333333;stroke-width:2;" x1="2563.543" x2="2563.543" y1="385.0469" y2="390.0469"/><line style="stroke:#333333;stroke-width:2;" x1="2613.543" x2="2613.543" y1="385.0469" y2="390.0469"/><line style="stroke:#333333;stroke-width:2;" x1="2663.543" x2="2663.543" y1="385.0469" y2="390.0469"/><line style="stroke:#333333;stroke-width:2;" x1="2713.543" x2="2713.543" y1="385.0469" y2="390.0469"/><line style="stroke:#333333;stroke-width:2;" x1="2763.543" x2="2763.543" y1="385.0469" y2="390.0469"/><line style="stroke:#333333;stroke-width:2;" x1="2813.543" x2="2813.543" y1="385.0469" y2="390.0469"/><line style="stroke:#333333;stroke-width:2;" x1="2863.543" x2="2863.543" y1="385.0469" y2="390.0469"/><line style="stroke:#333333;stroke-width:2;" x1="2913.543" x2="2913.543" y1="385.0469" y2="390.0469"/><line style="stroke:#333333;stroke-width:2;" x1="2963.543" x2="2963.543" y1="385.0469" y2="390.0469"/><line style="stroke:#333333;stroke-width:2;" x1="3013.543" x2="3013.543" y1="385.0469" y2="390.0469"/><line style="stroke:#333333;stroke-width:2;" x1="3063.543" x2="3063.543" y1="385.0469" y2="390.0469"/><line style="stroke:#333333;stroke-width:2;" x1="3113.543" x2="3113.543" y1="385.0469" y2="390.0469"/><line style="stroke:#333333;stroke-width:2;" x1="3163.543" x2="3163.543" y1="385.0469" y2="390.0469"/><line style="stroke:#333333;stroke-width:2;" x1="113.543" x2="3163.543" y1="385.0469" y2="385.0469"/><text fill="#333333" font-family="sans-serif" font-size="11" lengthAdjust="spacing" textLength="6.1177" x="110.4841" y="402.4658">0</text><text fill="#333333" font-family="sans-serif" font-size="11" lengthAdjust="spacing" textLength="12.2354" x="257.4253" y="402.4658">15</text><text fill="#333333" font-family="sans-serif" font-size="11" lengthAdjust="spacing" textLength="12.2354" x="557.4253" y="402.4658">45</text><text fill="#333333" font-family="sans-serif" font-size="11" lengthAdjust="spacing" textLength="12.2354" x="607.4253" y="402.4658">50</text><text fill="#333333" font-family="sans-serif" font-size="11" lengthAdjust="spacing" textLength="12.2354" x="907.4253" y="402.4658">80</text><text fill="#333333" font-family="sans-serif" font-size="11" lengthAdjust="spacing" textLength="18.353" x="1304.3665" y="402.4658">120</text><text fill="#333333" font-family="sans-serif" font-size="11" lengthAdjust="spacing" textLength="18.353" x="1404.3665" y="402.4658">130</text><text fill="#333333" font-family="sans-serif" font-size="11" lengthAdjust="spacing" textLength="18.353" x="1504.3665" y="402.4658">140</text><text fill="#333333" font-family="sans-serif" font-size="11" lengthAdjust="spacing" textLength="18.353" x="1554.3665" y="402.4658">145</text><text fill="#333333" font-family="sans-serif" font-size="11" lengthAdjust="spacing" textLength="18.353" x="1584.3665" y="402.4658">148</text><text fill="#333333" font-family="sans-serif" font-size="11" lengthAdjust="spacing" textLength="18.353" x="1614.3665" y="402.4658">151</text><text fill="#333333" font-family="sans-serif" font-size="11" lengthAdjust="spacing" textLength="18.353" x="1684.3665" y="402.4658">158</text><text fill="#333333" font-family="sans-serif" font-size="11" lengthAdjust="spacing" textLength="18.353" x="1754.3665" y="402.4658">165</text><text fill="#333333" font-family="sans-serif" font-size="11" lengthAdjust="spacing" textLength="18.353" x="1854.3665" y="402.4658">175</text><text fill="#333333" font-family="sans-serif" font-size="11" lengthAdjust="spacing" textLength="18.353" x="2204.3665" y="402.4658">210</text><text fill="#333333" font-family="sans-serif" font-size="11" lengthAdjust="spacing" textLength="18.353" x="3104.3665" y="402.4658">300</text><!--SRC=[VLJDJjj04BxlKwnoWHvQx8HGk3cotQgLKIE8E75PxB4zoDwrzYSgvpvDNmDUZ5t7ILYCkNbclc_ccv-rHjq0tM2BlA89iagobdvr3cYG0utbox_d_qoZu3I1BIgwUUg0a5pm71NGMSQC1Axl-UaDgEuRNPKbGmbVPfGfEWI950z6QJgxJjApMrP17xJ68H0tQ76zU_T97f0p-KHdQoaAaslSedPAUiZULn9oGdyB8sbeDMU65qYlwY0WKK26qjGgpb2dBSE6s8hE_bKqG7Pbd9dohS04MiOB88VKBX8I4eNBjwdY6cHUmmRQhc7QpY4w_pJkfGj6y3zcAy7DOL0MrqnMqBh-IRJqcbXf3RpO0pDH8KzpoRW5Ndu2l0Pk-hsvLkOUy0RodTfXuWFZlTlopZtUBKE5a6758ToJrg8pNSmqQqHbFfhYz-L4Ylb42XBDmwcoYqdE8fZYg4bEkF0uTo2nJF_cuD_Bk2L_Agj7UyZzwjHnagK4LVTOh_sVm472ElcnHnuT3divaZD4bg6_luBbxc6EZzjXlIpzZUzmnyEtcnQe3zTnuMdSWBJ_19XwCzeKE3hlLm00]--></g></svg>