<svg xmlns="http://www.w3.org/2000/svg" xmlns:xlink="http://www.w3.org/1999/xlink" contentStyleType="text/css" height="415px" preserveAspectRatio="none" style="width:3201px;height:415px;background:#FFFFFF;" version="1.1" viewBox="0 0 3201 415" width="3201px" zoomAndPan="magnify"><title>Timing Diagram - Timeline Creation Devis Type</title><defs/><g><text fill="#000000" font-family="sans-serif" font-size="14" font-weight="bold" lengthAdjust="spacing" textLength="313.5166" x="1427.4458" y="34.5332">Timing Diagram - Timeline Creation Devis Type</text><line style="stroke:#333333;stroke-width:0.5;" x1="10" x2="10" y1="48.6094" y2="385.0469"/><line style="stroke:#333333;stroke-width:0.5;" x1="3159.4082" x2="3159.4082" y1="48.6094" y2="385.0469"/><line style="stroke:#333333;stroke-width:0.5;stroke-dasharray:3.0,5.0;" x1="104.4082" x2="104.4082" y1="48.6094" y2="385.0469"/><line style="stroke:#333333;stroke-width:0.5;stroke-dasharray:3.0,5.0;" x1="154.4082" x2="154.4082" y1="48.6094" y2="385.0469"/><line style="stroke:#333333;stroke-width:0.5;stroke-dasharray:3.0,5.0;" x1="204.4082" x2="204.4082" y1="48.6094" y2="385.0469"/><line style="stroke:#333333;stroke-width:0.5;stroke-dasharray:3.0,5.0;" x1="254.4082" x2="254.4082" y1="48.6094" y2="385.0469"/><line style="stroke:#333333;stroke-width:0.5;stroke-dasharray:3.0,5.0;" x1="304.4082" x2="304.4082" y1="48.6094" y2="385.0469"/><line style="stroke:#333333;stroke-width:0.5;stroke-dasharray:3.0,5.0;" x1="354.4082" x2="354.4082" y1="48.6094" y2="385.0469"/><line style="stroke:#333333;stroke-width:0.5;stroke-dasharray:3.0,5.0;" x1="404.4082" x2="404.4082" y1="48.6094" y2="385.0469"/><line style="stroke:#333333;stroke-width:0.5;stroke-dasharray:3.0,5.0;" x1="454.4082" x2="454.4082" y1="48.6094" y2="385.0469"/><line style="stroke:#333333;stroke-width:0.5;stroke-dasharray:3.0,5.0;" x1="504.4082" x2="504.4082" y1="48.6094" y2="385.0469"/><line style="stroke:#333333;stroke-width:0.5;stroke-dasharray:3.0,5.0;" x1="554.4082" x2="554.4082" y1="48.6094" y2="385.0469"/><line style="stroke:#333333;stroke-width:0.5;stroke-dasharray:3.0,5.0;" x1="604.4082" x2="604.4082" y1="48.6094" y2="385.0469"/><line style="stroke:#333333;stroke-width:0.5;stroke-dasharray:3.0,5.0;" x1="654.4082" x2="654.4082" y1="48.6094" y2="385.0469"/><line style="stroke:#333333;stroke-width:0.5;stroke-dasharray:3.0,5.0;" x1="704.4082" x2="704.4082" y1="48.6094" y2="385.0469"/><line style="stroke:#333333;stroke-width:0.5;stroke-dasharray:3.0,5.0;" x1="754.4082" x2="754.4082" y1="48.6094" y2="385.0469"/><line style="stroke:#333333;stroke-width:0.5;stroke-dasharray:3.0,5.0;" x1="804.4082" x2="804.4082" y1="48.6094" y2="385.0469"/><line style="stroke:#333333;stroke-width:0.5;stroke-dasharray:3.0,5.0;" x1="854.4082" x2="854.4082" y1="48.6094" y2="385.0469"/><line style="stroke:#333333;stroke-width:0.5;stroke-dasharray:3.0,5.0;" x1="904.4082" x2="904.4082" y1="48.6094" y2="385.0469"/><line style="stroke:#333333;stroke-width:0.5;stroke-dasharray:3.0,5.0;" x1="954.4082" x2="954.4082" y1="48.6094" y2="385.0469"/><line style="stroke:#333333;stroke-width:0.5;stroke-dasharray:3.0,5.0;" x1="1004.4082" x2="1004.4082" y1="48.6094" y2="385.0469"/><line style="stroke:#333333;stroke-width:0.5;stroke-dasharray:3.0,5.0;" x1="1054.4082" x2="1054.4082" y1="48.6094" y2="385.0469"/><line style="stroke:#333333;stroke-width:0.5;stroke-dasharray:3.0,5.0;" x1="1104.4082" x2="1104.4082" y1="48.6094" y2="385.0469"/><line style="stroke:#333333;stroke-width:0.5;stroke-dasharray:3.0,5.0;" x1="1154.4082" x2="1154.4082" y1="48.6094" y2="385.0469"/><line style="stroke:#333333;stroke-width:0.5;stroke-dasharray:3.0,5.0;" x1="1204.4082" x2="1204.4082" y1="48.6094" y2="385.0469"/><line style="stroke:#333333;stroke-width:0.5;stroke-dasharray:3.0,5.0;" x1="1254.4082" x2="1254.4082" y1="48.6094" y2="385.0469"/><line style="stroke:#333333;stroke-width:0.5;stroke-dasharray:3.0,5.0;" x1="1304.4082" x2="1304.4082" y1="48.6094" y2="385.0469"/><line style="stroke:#333333;stroke-width:0.5;stroke-dasharray:3.0,5.0;" x1="1354.4082" x2="1354.4082" y1="48.6094" y2="385.0469"/><line style="stroke:#333333;stroke-width:0.5;stroke-dasharray:3.0,5.0;" x1="1404.4082" x2="1404.4082" y1="48.6094" y2="385.0469"/><line style="stroke:#333333;stroke-width:0.5;stroke-dasharray:3.0,5.0;" x1="1454.4082" x2="1454.4082" y1="48.6094" y2="385.0469"/><line style="stroke:#333333;stroke-width:0.5;stroke-dasharray:3.0,5.0;" x1="1504.4082" x2="1504.4082" y1="48.6094" y2="385.0469"/><line style="stroke:#333333;stroke-width:0.5;stroke-dasharray:3.0,5.0;" x1="1554.4082" x2="1554.4082" y1="48.6094" y2="385.0469"/><line style="stroke:#333333;stroke-width:0.5;stroke-dasharray:3.0,5.0;" x1="1604.4082" x2="1604.4082" y1="48.6094" y2="385.0469"/><line style="stroke:#333333;stroke-width:0.5;stroke-dasharray:3.0,5.0;" x1="1654.4082" x2="1654.4082" y1="48.6094" y2="385.0469"/><line style="stroke:#333333;stroke-width:0.5;stroke-dasharray:3.0,5.0;" x1="1704.4082" x2="1704.4082" y1="48.6094" y2="385.0469"/><line style="stroke:#333333;stroke-width:0.5;stroke-dasharray:3.0,5.0;" x1="1754.4082" x2="1754.4082" y1="48.6094" y2="385.0469"/><line style="stroke:#333333;stroke-width:0.5;stroke-dasharray:3.0,5.0;" x1="1804.4082" x2="1804.4082" y1="48.6094" y2="385.0469"/><line style="stroke:#333333;stroke-width:0.5;stroke-dasharray:3.0,5.0;" x1="1854.4082" x2="1854.4082" y1="48.6094" y2="385.0469"/><line style="stroke:#333333;stroke-width:0.5;stroke-dasharray:3.0,5.0;" x1="1904.4082" x2="1904.4082" y1="48.6094" y2="385.0469"/><line style="stroke:#333333;stroke-width:0.5;stroke-dasharray:3.0,5.0;" x1="1954.4082" x2="1954.4082" y1="48.6094" y2="385.0469"/><line style="stroke:#333333;stroke-width:0.5;stroke-dasharray:3.0,5.0;" x1="2004.4082" x2="2004.4082" y1="48.6094" y2="385.0469"/><line style="stroke:#333333;stroke-width:0.5;stroke-dasharray:3.0,5.0;" x1="2054.4082" x2="2054.4082" y1="48.6094" y2="385.0469"/><line style="stroke:#333333;stroke-width:0.5;stroke-dasharray:3.0,5.0;" x1="2104.4082" x2="2104.4082" y1="48.6094" y2="385.0469"/><line style="stroke:#333333;stroke-width:0.5;stroke-dasharray:3.0,5.0;" x1="2154.4082" x2="2154.4082" y1="48.6094" y2="385.0469"/><line style="stroke:#333333;stroke-width:0.5;stroke-dasharray:3.0,5.0;" x1="2204.4082" x2="2204.4082" y1="48.6094" y2="385.0469"/><line style="stroke:#333333;stroke-width:0.5;stroke-dasharray:3.0,5.0;" x1="2254.4082" x2="2254.4082" y1="48.6094" y2="385.0469"/><line style="stroke:#333333;stroke-width:0.5;stroke-dasharray:3.0,5.0;" x1="2304.4082" x2="2304.4082" y1="48.6094" y2="385.0469"/><line style="stroke:#333333;stroke-width:0.5;stroke-dasharray:3.0,5.0;" x1="2354.4082" x2="2354.4082" y1="48.6094" y2="385.0469"/><line style="stroke:#333333;stroke-width:0.5;stroke-dasharray:3.0,5.0;" x1="2404.4082" x2="2404.4082" y1="48.6094" y2="385.0469"/><line style="stroke:#333333;stroke-width:0.5;stroke-dasharray:3.0,5.0;" x1="2454.4082" x2="2454.4082" y1="48.6094" y2="385.0469"/><line style="stroke:#333333;stroke-width:0.5;stroke-dasharray:3.0,5.0;" x1="2504.4082" x2="2504.4082" y1="48.6094" y2="385.0469"/><line style="stroke:#333333;stroke-width:0.5;stroke-dasharray:3.0,5.0;" x1="2554.4082" x2="2554.4082" y1="48.6094" y2="385.0469"/><line style="stroke:#333333;stroke-width:0.5;stroke-dasharray:3.0,5.0;" x1="2604.4082" x2="2604.4082" y1="48.6094" y2="385.0469"/><line style="stroke:#333333;stroke-width:0.5;stroke-dasharray:3.0,5.0;" x1="2654.4082" x2="2654.4082" y1="48.6094" y2="385.0469"/><line style="stroke:#333333;stroke-width:0.5;stroke-dasharray:3.0,5.0;" x1="2704.4082" x2="2704.4082" y1="48.6094" y2="385.0469"/><line style="stroke:#333333;stroke-width:0.5;stroke-dasharray:3.0,5.0;" x1="2754.4082" x2="2754.4082" y1="48.6094" y2="385.0469"/><line style="stroke:#333333;stroke-width:0.5;stroke-dasharray:3.0,5.0;" x1="2804.4082" x2="2804.4082" y1="48.6094" y2="385.0469"/><line style="stroke:#333333;stroke-width:0.5;stroke-dasharray:3.0,5.0;" x1="2854.4082" x2="2854.4082" y1="48.6094" y2="385.0469"/><line style="stroke:#333333;stroke-width:0.5;stroke-dasharray:3.0,5.0;" x1="2904.4082" x2="2904.4082" y1="48.6094" y2="385.0469"/><line style="stroke:#333333;stroke-width:0.5;stroke-dasharray:3.0,5.0;" x1="2954.4082" x2="2954.4082" y1="48.6094" y2="385.0469"/><line style="stroke:#333333;stroke-width:0.5;stroke-dasharray:3.0,5.0;" x1="3004.4082" x2="3004.4082" y1="48.6094" y2="385.0469"/><line style="stroke:#333333;stroke-width:0.5;stroke-dasharray:3.0,5.0;" x1="3054.4082" x2="3054.4082" y1="48.6094" y2="385.0469"/><line style="stroke:#333333;stroke-width:0.5;stroke-dasharray:3.0,5.0;" x1="3104.4082" x2="3104.4082" y1="48.6094" y2="385.0469"/><line style="stroke:#333333;stroke-width:0.5;stroke-dasharray:3.0,5.0;" x1="3154.4082" x2="3154.4082" y1="48.6094" y2="385.0469"/><line style="stroke:#333333;stroke-width:0.5;" x1="10" x2="3159.4082" y1="48.6094" y2="48.6094"/><text fill="#333333" font-family="sans-serif" font-size="14" font-weight="bold" lengthAdjust="spacing" textLength="51.3379" x="15" y="63.1426">Laurent</text><text fill="#333333" font-family="sans-serif" font-size="14" font-weight="bold" lengthAdjust="spacing" textLength="95.6826" x="15" y="80.752">(Resp. Affaire)</text><line style="stroke:#333333;stroke-width:0.5;" x1="10" x2="111.6826" y1="84.8281" y2="84.8281"/><line style="stroke:#333333;stroke-width:0.5;" x1="111.6826" x2="121.6826" y1="84.8281" y2="48.6094"/><polygon fill="#E2E2F0" points="116.4082,89.8281,242.4082,89.8281,254.4082,101.8281,242.4082,113.8281,116.4082,113.8281,104.4082,101.8281" style="stroke:#006400;stroke-width:1.5;"/><polygon fill="#E2E2F0" points="266.4082,89.8281,542.4082,89.8281,554.4082,101.8281,542.4082,113.8281,266.4082,113.8281,254.4082,101.8281" style="stroke:#006400;stroke-width:1.5;"/><polygon fill="#E2E2F0" points="566.4082,89.8281,592.4082,89.8281,604.4082,101.8281,592.4082,113.8281,566.4082,113.8281,554.4082,101.8281" style="stroke:#006400;stroke-width:1.5;"/><polygon fill="#E2E2F0" points="616.4082,89.8281,892.4082,89.8281,904.4082,101.8281,892.4082,113.8281,616.4082,113.8281,604.4082,101.8281" style="stroke:#006400;stroke-width:1.5;"/><polygon fill="#E2E2F0" points="916.4082,89.8281,1292.4082,89.8281,1304.4082,101.8281,1292.4082,113.8281,916.4082,113.8281,904.4082,101.8281" style="stroke:#006400;stroke-width:1.5;"/><polygon fill="#E2E2F0" points="1316.4082,89.8281,1392.4082,89.8281,1404.4082,101.8281,1392.4082,113.8281,1316.4082,113.8281,1304.4082,101.8281" style="stroke:#006400;stroke-width:1.5;"/><polygon fill="#E2E2F0" points="1416.4082,89.8281,1492.4082,89.8281,1504.4082,101.8281,1492.4082,113.8281,1416.4082,113.8281,1404.4082,101.8281" style="stroke:#006400;stroke-width:1.5;"/><polygon fill="#E2E2F0" points="1516.4082,89.8281,1542.4082,89.8281,1554.4082,101.8281,1542.4082,113.8281,1516.4082,113.8281,1504.4082,101.8281" style="stroke:#006400;stroke-width:1.5;"/><polygon fill="#E2E2F0" points="1566.4082,89.8281,1572.4082,89.8281,1584.4082,101.8281,1572.4082,113.8281,1566.4082,113.8281,1554.4082,101.8281" style="stroke:#006400;stroke-width:1.5;"/><polygon fill="#E2E2F0" points="1596.4082,89.8281,1602.4082,89.8281,1614.4082,101.8281,1602.4082,113.8281,1596.4082,113.8281,1584.4082,101.8281" style="stroke:#006400;stroke-width:1.5;"/><polygon fill="#E2E2F0" points="1626.4082,89.8281,1672.4082,89.8281,1684.4082,101.8281,1672.4082,113.8281,1626.4082,113.8281,1614.4082,101.8281" style="stroke:#006400;stroke-width:1.5;"/><polygon fill="#E2E2F0" points="1696.4082,89.8281,1742.4082,89.8281,1754.4082,101.8281,1742.4082,113.8281,1696.4082,113.8281,1684.4082,101.8281" style="stroke:#006400;stroke-width:1.5;"/><polygon fill="#E2E2F0" points="1766.4082,89.8281,1842.4082,89.8281,1854.4082,101.8281,1842.4082,113.8281,1766.4082,113.8281,1754.4082,101.8281" style="stroke:#006400;stroke-width:1.5;"/><polygon fill="#E2E2F0" points="1866.4082,89.8281,2192.4082,89.8281,2204.4082,101.8281,2192.4082,113.8281,1866.4082,113.8281,1854.4082,101.8281" style="stroke:#006400;stroke-width:1.5;"/><polygon fill="#E2E2F0" points="2216.4082,89.8281,3092.4082,89.8281,3104.4082,101.8281,3092.4082,113.8281,2216.4082,113.8281,2204.4082,101.8281" style="stroke:#006400;stroke-width:1.5;"/><polygon fill="#E2E2F0" points="3116.4082,89.8281,3154.4082,89.8281,3154.4082,113.8281,3116.4082,113.8281,3104.4082,101.8281" style="stroke:#E2E2F0;stroke-width:1.5;"/><path d="M3154.4082,89.8281 L3116.4082,89.8281 L3104.4082,101.8281 L3116.4082,113.8281 L3154.4082,113.8281 " fill="#E2E2F0" style="stroke:#006400;stroke-width:1.5;"/><text fill="#333333" font-family="sans-serif" font-size="12" font-weight="bold" lengthAdjust="spacing" textLength="46.6758" x="156.0703" y="106.7383">LitEmail</text><text fill="#333333" font-family="sans-serif" font-size="12" font-weight="bold" lengthAdjust="spacing" textLength="100.6992" x="354.0586" y="106.7383">ChercheTemplate</text><text fill="#333333" font-family="sans-serif" font-size="12" font-weight="bold" lengthAdjust="spacing" textLength="100.6992" x="529.0586" y="106.7383">ChercheTemplate</text><text fill="#333333" font-family="sans-serif" font-size="12" font-weight="bold" lengthAdjust="spacing" textLength="37.9922" x="735.4121" y="106.7383">Attend</text><text fill="#333333" font-family="sans-serif" font-size="12" font-weight="bold" lengthAdjust="spacing" textLength="37.9922" x="1085.4121" y="106.7383">Attend</text><text fill="#333333" font-family="sans-serif" font-size="12" font-weight="bold" lengthAdjust="spacing" textLength="94.6992" x="1307.0586" y="106.7383">RechercheClient</text><text fill="#333333" font-family="sans-serif" font-size="12" font-weight="bold" lengthAdjust="spacing" textLength="58.0371" x="1425.3896" y="106.7383">VerifExcel</text><text fill="#333333" font-family="sans-serif" font-size="12" font-weight="bold" lengthAdjust="spacing" textLength="73.3652" x="1492.7256" y="106.7383">SaisieLigne1</text><text fill="#333333" font-family="sans-serif" font-size="12" font-weight="bold" lengthAdjust="spacing" textLength="65.3555" x="1536.7305" y="106.7383">GenerePDF</text><text fill="#333333" font-family="sans-serif" font-size="12" font-weight="bold" lengthAdjust="spacing" textLength="50.6777" x="1574.0693" y="106.7383">VerifPDF</text><text fill="#333333" font-family="sans-serif" font-size="12" font-weight="bold" lengthAdjust="spacing" textLength="90.0234" x="1604.3965" y="106.7383">RedactionEmail</text><text fill="#333333" font-family="sans-serif" font-size="12" font-weight="bold" lengthAdjust="spacing" textLength="64.6875" x="1687.0645" y="106.7383">EnvoiEmail</text><text fill="#333333" font-family="sans-serif" font-size="12" font-weight="bold" lengthAdjust="spacing" textLength="46.6816" x="1781.0674" y="106.7383">Termine</text><text fill="#333333" font-family="sans-serif" font-size="12" font-weight="bold" lengthAdjust="spacing" textLength="73.3652" x="1992.7256" y="106.7383">SaisieLigne2</text><text fill="#333333" font-family="sans-serif" font-size="12" font-weight="bold" lengthAdjust="spacing" textLength="73.3652" x="2617.7256" y="106.7383">SaisieLigne3</text><text fill="#333333" font-family="sans-serif" font-size="12" font-weight="bold" lengthAdjust="spacing" textLength="73.3652" x="3116.4082" y="106.7383">SaisieLignes</text><line style="stroke:#333333;stroke-width:0.5;" x1="10" x2="3159.4082" y1="123.8281" y2="123.8281"/><text fill="#333333" font-family="sans-serif" font-size="14" font-weight="bold" lengthAdjust="spacing" textLength="68.4619" x="15" y="138.3613">MDE/Sage</text><line style="stroke:#333333;stroke-width:0.5;" x1="10" x2="84.4619" y1="142.4375" y2="142.4375"/><line style="stroke:#333333;stroke-width:0.5;" x1="84.4619" x2="94.4619" y1="142.4375" y2="123.8281"/><text fill="#333333" font-family="sans-serif" font-size="12" lengthAdjust="spacing" textLength="19.3477" x="15" y="273.3477">Idle</text><text fill="#333333" font-family="sans-serif" font-size="12" lengthAdjust="spacing" textLength="66.0352" x="15" y="253.3477">Chargement</text><text fill="#333333" font-family="sans-serif" font-size="12" lengthAdjust="spacing" textLength="60.709" x="15" y="233.3477">LoginEcran</text><text fill="#333333" font-family="sans-serif" font-size="12" lengthAdjust="spacing" textLength="60.0234" x="15" y="213.3477">MenuDevis</text><text fill="#333333" font-family="sans-serif" font-size="12" lengthAdjust="spacing" textLength="88.7109" x="15" y="193.3477">RechercheClient</text><text fill="#333333" font-family="sans-serif" font-size="12" lengthAdjust="spacing" textLength="89.4082" x="15" y="173.3477">PopupCatalogue</text><text fill="#333333" font-family="sans-serif" font-size="12" lengthAdjust="spacing" textLength="64.0254" x="15" y="153.3477">GenerePDF</text><line style="stroke:#006400;stroke-width:2;" x1="104.4082" x2="554.4082" y1="267.4375" y2="267.4375"/><line style="stroke:#006400;stroke-width:2;" x1="554.4082" x2="604.4082" y1="247.4375" y2="247.4375"/><line style="stroke:#006400;stroke-width:2;" x1="604.4082" x2="904.4082" y1="227.4375" y2="227.4375"/><line style="stroke:#006400;stroke-width:2;" x1="904.4082" x2="1304.4082" y1="207.4375" y2="207.4375"/><line style="stroke:#006400;stroke-width:2;" x1="1304.4082" x2="1404.4082" y1="187.4375" y2="187.4375"/><line style="stroke:#006400;stroke-width:2;" x1="1404.4082" x2="1504.4082" y1="267.4375" y2="267.4375"/><line style="stroke:#006400;stroke-width:2;" x1="1504.4082" x2="1554.4082" y1="167.4375" y2="167.4375"/><line style="stroke:#006400;stroke-width:2;" x1="1554.4082" x2="1614.4082" y1="147.4375" y2="147.4375"/><line style="stroke:#006400;stroke-width:2;" x1="1614.4082" x2="1754.4082" y1="267.4375" y2="267.4375"/><line style="stroke:#006400;stroke-width:2;" x1="1754.4082" x2="1854.4082" y1="267.4375" y2="267.4375"/><line style="stroke:#006400;stroke-width:2;" x1="1854.4082" x2="2204.4082" y1="167.4375" y2="167.4375"/><line style="stroke:#006400;stroke-width:2;" x1="2204.4082" x2="3104.4082" y1="167.4375" y2="167.4375"/><line style="stroke:#006400;stroke-width:2;" x1="3104.4082" x2="3154.4082" y1="167.4375" y2="167.4375"/><line style="stroke:#006400;stroke-width:2;" x1="554.4082" x2="554.4082" y1="247.4375" y2="267.4375"/><line style="stroke:#006400;stroke-width:2;" x1="604.4082" x2="604.4082" y1="227.4375" y2="247.4375"/><line style="stroke:#006400;stroke-width:2;" x1="904.4082" x2="904.4082" y1="207.4375" y2="227.4375"/><line style="stroke:#006400;stroke-width:2;" x1="1304.4082" x2="1304.4082" y1="187.4375" y2="207.4375"/><line style="stroke:#006400;stroke-width:2;" x1="1404.4082" x2="1404.4082" y1="187.4375" y2="267.4375"/><line style="stroke:#006400;stroke-width:2;" x1="1504.4082" x2="1504.4082" y1="167.4375" y2="267.4375"/><line style="stroke:#006400;stroke-width:2;" x1="1554.4082" x2="1554.4082" y1="147.4375" y2="167.4375"/><line style="stroke:#006400;stroke-width:2;" x1="1614.4082" x2="1614.4082" y1="147.4375" y2="267.4375"/><line style="stroke:#006400;stroke-width:2;" x1="1754.4082" x2="1754.4082" y1="267.4375" y2="267.4375"/><line style="stroke:#006400;stroke-width:2;" x1="1854.4082" x2="1854.4082" y1="167.4375" y2="267.4375"/><line style="stroke:#006400;stroke-width:2;" x1="2204.4082" x2="2204.4082" y1="167.4375" y2="167.4375"/><line style="stroke:#006400;stroke-width:2;" x1="3104.4082" x2="3104.4082" y1="167.4375" y2="167.4375"/><line style="stroke:#333333;stroke-width:0.5;" x1="10" x2="3159.4082" y1="279.4375" y2="279.4375"/><text fill="#333333" font-family="sans-serif" font-size="14" font-weight="bold" lengthAdjust="spacing" textLength="38.8896" x="15" y="293.9707">Client</text><line style="stroke:#333333;stroke-width:0.5;" x1="10" x2="54.8896" y1="298.0469" y2="298.0469"/><line style="stroke:#333333;stroke-width:0.5;" x1="54.8896" x2="64.8896" y1="298.0469" y2="279.4375"/><text fill="#333333" font-family="sans-serif" font-size="12" lengthAdjust="spacing" textLength="82.0488" x="17.3594" y="348.957">EnvoiDemande</text><text fill="#333333" font-family="sans-serif" font-size="12" lengthAdjust="spacing" textLength="64.0195" x="17.3594" y="328.957">RecoitDevis</text><text fill="#333333" font-family="sans-serif" font-size="12" lengthAdjust="spacing" textLength="34.0254" x="17.3594" y="308.957">Etudie</text><line style="stroke:#006400;stroke-width:2;" x1="104.4082" x2="1684.4082" y1="343.0469" y2="343.0469"/><line style="stroke:#006400;stroke-width:2;" x1="1684.4082" x2="1754.4082" y1="323.0469" y2="323.0469"/><line style="stroke:#006400;stroke-width:2;" x1="1754.4082" x2="3154.4082" y1="303.0469" y2="303.0469"/><line style="stroke:#006400;stroke-width:2;" x1="1684.4082" x2="1684.4082" y1="323.0469" y2="343.0469"/><line style="stroke:#006400;stroke-width:2;" x1="1754.4082" x2="1754.4082" y1="303.0469" y2="323.0469"/><line style="stroke:#333333;stroke-width:0.5;" x1="10" x2="3159.4082" y1="355.0469" y2="355.0469"/><text fill="#333333" font-family="sans-serif" font-size="14" font-weight="bold" lengthAdjust="spacing" textLength="80.9033" x="15" y="375.7754">Productivite</text><line style="stroke:#006400;stroke-width:2;" x1="104.4082" x2="104.4082" y1="377.0469" y2="377.0469"/><line style="stroke:#006400;stroke-width:2;" x1="104.4082" x2="104.4082" y1="363.0469" y2="377.0469"/><line style="stroke:#006400;stroke-width:2;" x1="104.4082" x2="554.4082" y1="363.0469" y2="363.0469"/><line style="stroke:#006400;stroke-width:2;" x1="554.4082" x2="554.4082" y1="363.0469" y2="377.0469"/><line style="stroke:#006400;stroke-width:2;" x1="554.4082" x2="1404.4082" y1="377.0469" y2="377.0469"/><line style="stroke:#006400;stroke-width:2;" x1="1404.4082" x2="1404.4082" y1="363.0469" y2="377.0469"/><line style="stroke:#006400;stroke-width:2;" x1="1404.4082" x2="1504.4082" y1="363.0469" y2="363.0469"/><line style="stroke:#006400;stroke-width:2;" x1="1504.4082" x2="1754.4082" y1="363.0469" y2="363.0469"/><line style="stroke:#006400;stroke-width:2;" x1="1754.4082" x2="1754.4082" y1="363.0469" y2="377.0469"/><line style="stroke:#006400;stroke-width:2;" x1="1754.4082" x2="3154.4082" y1="377.0469" y2="377.0469"/><line style="stroke:#333333;stroke-width:2;" x1="104.4082" x2="104.4082" y1="385.0469" y2="390.0469"/><line style="stroke:#333333;stroke-width:2;" x1="154.4082" x2="154.4082" y1="385.0469" y2="390.0469"/><line style="stroke:#333333;stroke-width:2;" x1="204.4082" x2="204.4082" y1="385.0469" y2="390.0469"/><line style="stroke:#333333;stroke-width:2;" x1="254.4082" x2="254.4082" y1="385.0469" y2="390.0469"/><line style="stroke:#333333;stroke-width:2;" x1="304.4082" x2="304.4082" y1="385.0469" y2="390.0469"/><line style="stroke:#333333;stroke-width:2;" x1="354.4082" x2="354.4082" y1="385.0469" y2="390.0469"/><line style="stroke:#333333;stroke-width:2;" x1="404.4082" x2="404.4082" y1="385.0469" y2="390.0469"/><line style="stroke:#333333;stroke-width:2;" x1="454.4082" x2="454.4082" y1="385.0469" y2="390.0469"/><line style="stroke:#333333;stroke-width:2;" x1="504.4082" x2="504.4082" y1="385.0469" y2="390.0469"/><line style="stroke:#333333;stroke-width:2;" x1="554.4082" x2="554.4082" y1="385.0469" y2="390.0469"/><line style="stroke:#333333;stroke-width:2;" x1="604.4082" x2="604.4082" y1="385.0469" y2="390.0469"/><line style="stroke:#333333;stroke-width:2;" x1="654.4082" x2="654.4082" y1="385.0469" y2="390.0469"/><line style="stroke:#333333;stroke-width:2;" x1="704.4082" x2="704.4082" y1="385.0469" y2="390.0469"/><line style="stroke:#333333;stroke-width:2;" x1="754.4082" x2="754.4082" y1="385.0469" y2="390.0469"/><line style="stroke:#333333;stroke-width:2;" x1="804.4082" x2="804.4082" y1="385.0469" y2="390.0469"/><line style="stroke:#333333;stroke-width:2;" x1="854.4082" x2="854.4082" y1="385.0469" y2="390.0469"/><line style="stroke:#333333;stroke-width:2;" x1="904.4082" x2="904.4082" y1="385.0469" y2="390.0469"/><line style="stroke:#333333;stroke-width:2;" x1="954.4082" x2="954.4082" y1="385.0469" y2="390.0469"/><line style="stroke:#333333;stroke-width:2;" x1="1004.4082" x2="1004.4082" y1="385.0469" y2="390.0469"/><line style="stroke:#333333;stroke-width:2;" x1="1054.4082" x2="1054.4082" y1="385.0469" y2="390.0469"/><line style="stroke:#333333;stroke-width:2;" x1="1104.4082" x2="1104.4082" y1="385.0469" y2="390.0469"/><line style="stroke:#333333;stroke-width:2;" x1="1154.4082" x2="1154.4082" y1="385.0469" y2="390.0469"/><line style="stroke:#333333;stroke-width:2;" x1="1204.4082" x2="1204.4082" y1="385.0469" y2="390.0469"/><line style="stroke:#333333;stroke-width:2;" x1="1254.4082" x2="1254.4082" y1="385.0469" y2="390.0469"/><line style="stroke:#333333;stroke-width:2;" x1="1304.4082" x2="1304.4082" y1="385.0469" y2="390.0469"/><line style="stroke:#333333;stroke-width:2;" x1="1354.4082" x2="1354.4082" y1="385.0469" y2="390.0469"/><line style="stroke:#333333;stroke-width:2;" x1="1404.4082" x2="1404.4082" y1="385.0469" y2="390.0469"/><line style="stroke:#333333;stroke-width:2;" x1="1454.4082" x2="1454.4082" y1="385.0469" y2="390.0469"/><line style="stroke:#333333;stroke-width:2;" x1="1504.4082" x2="1504.4082" y1="385.0469" y2="390.0469"/><line style="stroke:#333333;stroke-width:2;" x1="1554.4082" x2="1554.4082" y1="385.0469" y2="390.0469"/><line style="stroke:#333333;stroke-width:2;" x1="1604.4082" x2="1604.4082" y1="385.0469" y2="390.0469"/><line style="stroke:#333333;stroke-width:2;" x1="1654.4082" x2="1654.4082" y1="385.0469" y2="390.0469"/><line style="stroke:#333333;stroke-width:2;" x1="1704.4082" x2="1704.4082" y1="385.0469" y2="390.0469"/><line style="stroke:#333333;stroke-width:2;" x1="1754.4082" x2="1754.4082" y1="385.0469" y2="390.0469"/><line style="stroke:#333333;stroke-width:2;" x1="1804.4082" x2="1804.4082" y1="385.0469" y2="390.0469"/><line style="stroke:#333333;stroke-width:2;" x1="1854.4082" x2="1854.4082" y1="385.0469" y2="390.0469"/><line style="stroke:#333333;stroke-width:2;" x1="1904.4082" x2="1904.4082" y1="385.0469" y2="390.0469"/><line style="stroke:#333333;stroke-width:2;" x1="1954.4082" x2="1954.4082" y1="385.0469" y2="390.0469"/><line style="stroke:#333333;stroke-width:2;" x1="2004.4082" x2="2004.4082" y1="385.0469" y2="390.0469"/><line style="stroke:#333333;stroke-width:2;" x1="2054.4082" x2="2054.4082" y1="385.0469" y2="390.0469"/><line style="stroke:#333333;stroke-width:2;" x1="2104.4082" x2="2104.4082" y1="385.0469" y2="390.0469"/><line style="stroke:#333333;stroke-width:2;" x1="2154.4082" x2="2154.4082" y1="385.0469" y2="390.0469"/><line style="stroke:#333333;stroke-width:2;" x1="2204.4082" x2="2204.4082" y1="385.0469" y2="390.0469"/><line style="stroke:#333333;stroke-width:2;" x1="2254.4082" x2="2254.4082" y1="385.0469" y2="390.0469"/><line style="stroke:#333333;stroke-width:2;" x1="2304.4082" x2="2304.4082" y1="385.0469" y2="390.0469"/><line style="stroke:#333333;stroke-width:2;" x1="2354.4082" x2="2354.4082" y1="385.0469" y2="390.0469"/><line style="stroke:#333333;stroke-width:2;" x1="2404.4082" x2="2404.4082" y1="385.0469" y2="390.0469"/><line style="stroke:#333333;stroke-width:2;" x1="2454.4082" x2="2454.4082" y1="385.0469" y2="390.0469"/><line style="stroke:#333333;stroke-width:2;" x1="2504.4082" x2="2504.4082" y1="385.0469" y2="390.0469"/><line style="stroke:#333333;stroke-width:2;" x1="2554.4082" x2="2554.4082" y1="385.0469" y2="390.0469"/><line style="stroke:#333333;stroke-width:2;" x1="2604.4082" x2="2604.4082" y1="385.0469" y2="390.0469"/><line style="stroke:#333333;stroke-width:2;" x1="2654.4082" x2="2654.4082" y1="385.0469" y2="390.0469"/><line style="stroke:#333333;stroke-width:2;" x1="2704.4082" x2="2704.4082" y1="385.0469" y2="390.0469"/><line style="stroke:#333333;stroke-width:2;" x1="2754.4082" x2="2754.4082" y1="385.0469" y2="390.0469"/><line style="stroke:#333333;stroke-width:2;" x1="2804.4082" x2="2804.4082" y1="385.0469" y2="390.0469"/><line style="stroke:#333333;stroke-width:2;" x1="2854.4082" x2="2854.4082" y1="385.0469" y2="390.0469"/><line style="stroke:#333333;stroke-width:2;" x1="2904.4082" x2="2904.4082" y1="385.0469" y2="390.0469"/><line style="stroke:#333333;stroke-width:2;" x1="2954.4082" x2="2954.4082" y1="385.0469" y2="390.0469"/><line style="stroke:#333333;stroke-width:2;" x1="3004.4082" x2="3004.4082" y1="385.0469" y2="390.0469"/><line style="stroke:#333333;stroke-width:2;" x1="3054.4082" x2="3054.4082" y1="385.0469" y2="390.0469"/><line style="stroke:#333333;stroke-width:2;" x1="3104.4082" x2="3104.4082" y1="385.0469" y2="390.0469"/><line style="stroke:#333333;stroke-width:2;" x1="3154.4082" x2="3154.4082" y1="385.0469" y2="390.0469"/><line style="stroke:#333333;stroke-width:2;" x1="104.4082" x2="3154.4082" y1="385.0469" y2="385.0469"/><text fill="#333333" font-family="sans-serif" font-size="11" lengthAdjust="spacing" textLength="6.1177" x="101.3494" y="402.4658">0</text><text fill="#333333" font-family="sans-serif" font-size="11" lengthAdjust="spacing" textLength="12.2354" x="248.2905" y="402.4658">15</text><text fill="#333333" font-family="sans-serif" font-size="11" lengthAdjust="spacing" textLength="12.2354" x="548.2905" y="402.4658">45</text><text fill="#333333" font-family="sans-serif" font-size="11" lengthAdjust="spacing" textLength="12.2354" x="598.2905" y="402.4658">50</text><text fill="#333333" font-family="sans-serif" font-size="11" lengthAdjust="spacing" textLength="12.2354" x="898.2905" y="402.4658">80</text><text fill="#333333" font-family="sans-serif" font-size="11" lengthAdjust="spacing" textLength="18.353" x="1295.2317" y="402.4658">120</text><text fill="#333333" font-family="sans-serif" font-size="11" lengthAdjust="spacing" textLength="18.353" x="1395.2317" y="402.4658">130</text><text fill="#333333" font-family="sans-serif" font-size="11" lengthAdjust="spacing" textLength="18.353" x="1495.2317" y="402.4658">140</text><text fill="#333333" font-family="sans-serif" font-size="11" lengthAdjust="spacing" textLength="18.353" x="1545.2317" y="402.4658">145</text><text fill="#333333" font-family="sans-serif" font-size="11" lengthAdjust="spacing" textLength="18.353" x="1575.2317" y="402.4658">148</text><text fill="#333333" font-family="sans-serif" font-size="11" lengthAdjust="spacing" textLength="18.353" x="1605.2317" y="402.4658">151</text><text fill="#333333" font-family="sans-serif" font-size="11" lengthAdjust="spacing" textLength="18.353" x="1675.2317" y="402.4658">158</text><text fill="#333333" font-family="sans-serif" font-size="11" lengthAdjust="spacing" textLength="18.353" x="1745.2317" y="402.4658">165</text><text fill="#333333" font-family="sans-serif" font-size="11" lengthAdjust="spacing" textLength="18.353" x="1845.2317" y="402.4658">175</text><text fill="#333333" font-family="sans-serif" font-size="11" lengthAdjust="spacing" textLength="18.353" x="2195.2317" y="402.4658">210</text><text fill="#333333" font-family="sans-serif" font-size="11" lengthAdjust="spacing" textLength="18.353" x="3095.2317" y="402.4658">300</text><!--SRC=[VLHDKwD04BtFhvZAnVMWGcBKlP42TaiBovIcFErbX0Pw2sQe-KYj_tvdW2IEY3Uw-xt-V8D6tG3TOOkyeWcoIhAMNZW7DCY1nXAOHi5f0djKTFVU0I6vu3age8kC6GbS_-4_da5rbtHJbWmbd2yeKtGC4YdUZD9qyPYaLo-iWZveZMCWRj3YUlVmITwGC_bE5rif2fDhtACUQ0T7ISWPVH16qj1scnbU8FrP1m690ZBMfRRT37NQCco8BUVi-w81CjHmPiht0XDe6I-075ExI4X85Au_fefha7aDEsYxXccxXEZwsxYNBfZ0dynUWbl2s5bSCrb1wuOdqTeROgCryE80p4I5FCqbunPuzmtm4RZfZ-P6MNh0PyY7RiTrZupFRikxzdWl31L2XXM7y43QYivqCTEi4PNvQektwvaKovaK95g6SsLNivnLCCTHivnmvN5UGMAP_il1ryjq97yhcxzMnVtfr6cJfGHLzrXl_D_0GS8s-NL0dXmEUpTfPuoiG_z-1SlTgvoAss6zBBt61zn9-FRI0lLH7JTUZpkGzcy0Ssz6cm8dyluF]--></g></svg>