<svg xmlns="http://www.w3.org/2000/svg" xmlns:xlink="http://www.w3.org/1999/xlink" contentStyleType="text/css" height="2026px" preserveAspectRatio="none" style="width:1142px;height:2026px;background:#FFFFFF;" version="1.1" viewBox="0 0 1142 2026" width="1142px" zoomAndPan="magnify"><title>Use Case Diagram - Direction &amp; Gestion Affaires ACTUEL</title><defs/><g><text fill="#000000" font-family="sans-serif" font-size="14" font-weight="bold" lengthAdjust="spacing" textLength="382.7578" x="372.6211" y="24.5332">Use Case Diagram - Direction &amp; Gestion Affaires ACTUEL</text><!--cluster Systeme Direction-Affaires ACTUEL--><g id="cluster_Systeme Direction-Affaires ACTUEL"><rect fill="#FFFFCC" height="928" rx="2.5" ry="2.5" style="stroke:#181818;stroke-width:1;" width="993" x="143" y="184.6094"/><text fill="#000000" font-family="sans-serif" font-size="14" font-weight="bold" lengthAdjust="spacing" textLength="239.6133" x="519.6934" y="201.1426">Systeme Direction-Affaires ACTUEL</text></g><!--cluster Outils (Chaos)--><g id="cluster_Outils (Chaos)"><rect fill="#FFE4E1" height="515" rx="2.5" ry="2.5" style="stroke:#181818;stroke-width:1;" width="161" x="640.5" y="1338.6094"/><text fill="#000000" font-family="sans-serif" font-size="14" font-weight="bold" lengthAdjust="spacing" textLength="95.6689" x="673.1655" y="1355.1426">Outils (Chaos)</text></g><g id="elem_UC1"><ellipse cx="721.2389" cy="977.5128" fill="#FFD700" rx="36.2389" ry="27.9034" style="stroke:#181818;stroke-width:0.5;"/><text fill="#000000" font-family="sans-serif" font-size="14" lengthAdjust="spacing" textLength="35.0068" x="703.7354" y="972.4366">Creer</text><text fill="#000000" font-family="sans-serif" font-size="14" lengthAdjust="spacing" textLength="32.6826" x="704.8975" y="990.046">devis</text></g><g id="elem_GMN8"><path d="M914,943.1094 L914,970.3394 L757.17,977.0094 L914,978.3394 L914,1002.1641 A0,0 0 0 0 914,1002.1641 L1119.7612,1002.1641 A0,0 0 0 0 1119.7612,1002.1641 L1119.7612,953.1094 L1109.7612,943.1094 L914,943.1094 A0,0 0 0 0 914,943.1094 " fill="#FEFFDD" style="stroke:#181818;stroke-width:0.5;"/><path d="M1109.7612,943.1094 L1109.7612,953.1094 L1119.7612,953.1094 L1109.7612,943.1094 " fill="#FEFFDD" style="stroke:#181818;stroke-width:0.5;"/><text fill="#000000" font-family="sans-serif" font-size="13" lengthAdjust="spacing" textLength="113.4517" x="920" y="961.6045">&#240;&#376;&#8221;&#180; 2h05 par devis</text><text fill="#000000" font-family="sans-serif" font-size="13" lengthAdjust="spacing" textLength="184.7612" x="920" y="977.9561">&#226;&#65533;&#176; Recherche template 30 min</text><text fill="#000000" font-family="sans-serif" font-size="13" lengthAdjust="spacing" textLength="107.6689" x="920" y="994.3076">&#240;&#376;&#8221;&#180; 100% manuel</text></g><g id="elem_UC2"><ellipse cx="720.8012" cy="880.5128" fill="#FF6B6B" rx="47.8012" ry="27.9034" style="stroke:#181818;stroke-width:0.5;"/><text fill="#000000" font-family="sans-serif" font-size="14" lengthAdjust="spacing" textLength="51.3584" x="695.122" y="875.4366">Generer</text><text fill="#000000" font-family="sans-serif" font-size="14" lengthAdjust="spacing" textLength="46.6895" x="697.4564" y="893.046">PPSPS</text></g><g id="elem_GMN12"><path d="M929.5,849.1094 L929.5,875.1994 L769.24,880.2894 L929.5,883.1994 L929.5,908.1641 A0,0 0 0 0 929.5,908.1641 L1104.4053,908.1641 A0,0 0 0 0 1104.4053,908.1641 L1104.4053,859.1094 L1094.4053,849.1094 L929.5,849.1094 A0,0 0 0 0 929.5,849.1094 " fill="#FEFFDD" style="stroke:#181818;stroke-width:0.5;"/><path d="M1094.4053,849.1094 L1094.4053,859.1094 L1104.4053,859.1094 L1094.4053,849.1094 " fill="#FEFFDD" style="stroke:#181818;stroke-width:0.5;"/><text fill="#000000" font-family="sans-serif" font-size="13" lengthAdjust="spacing" textLength="126.458" x="935.5" y="867.6045">&#240;&#376;&#8221;&#180; 3h00 par PPSPS</text><text fill="#000000" font-family="sans-serif" font-size="13" lengthAdjust="spacing" textLength="125.3281" x="935.5" y="883.9561">&#240;&#376;&#8221;&#180; Ctrl+F remplacer</text><text fill="#000000" font-family="sans-serif" font-size="13" lengthAdjust="spacing" textLength="153.9053" x="935.5" y="900.3076">&#240;&#376;&#8221;&#180; Risque oublis clauses</text></g><g id="elem_UC3"><ellipse cx="262.6291" cy="339.5128" fill="#FF6B6B" rx="100.6291" ry="27.9034" style="stroke:#181818;stroke-width:0.5;"/><text fill="#000000" font-family="sans-serif" font-size="14" lengthAdjust="spacing" textLength="59.917" x="232.6706" y="334.4366">Consulter</text><text fill="#000000" font-family="sans-serif" font-size="14" lengthAdjust="spacing" textLength="126.0684" x="199.5949" y="352.046">avancement affaires</text></g><g id="elem_GMN16"><path d="M624,299.1094 L624,320.6194 L361.99,335.5094 L624,328.6194 L624,341.8125 A0,0 0 0 0 624,341.8125 L817.6816,341.8125 A0,0 0 0 0 817.6816,341.8125 L817.6816,309.1094 L807.6816,299.1094 L624,299.1094 A0,0 0 0 0 624,299.1094 " fill="#FEFFDD" style="stroke:#181818;stroke-width:0.5;"/><path d="M807.6816,299.1094 L807.6816,309.1094 L817.6816,309.1094 L807.6816,299.1094 " fill="#FEFFDD" style="stroke:#181818;stroke-width:0.5;"/><text fill="#000000" font-family="sans-serif" font-size="13" lengthAdjust="spacing" textLength="172.6816" x="630" y="317.6045">&#240;&#376;&#8221;&#180; Impossible en temps reel</text><text fill="#000000" font-family="sans-serif" font-size="13" lengthAdjust="spacing" textLength="122.6177" x="630" y="333.9561">&#226;&#65533;&#176; 3h pour compiler</text></g><g id="elem_UC4"><ellipse cx="721.0278" cy="607.5128" fill="#FFD700" rx="72.0278" ry="27.9034" style="stroke:#181818;stroke-width:0.5;"/><text fill="#000000" font-family="sans-serif" font-size="14" lengthAdjust="spacing" textLength="39.6826" x="701.1865" y="602.4366">Suivre</text><text fill="#000000" font-family="sans-serif" font-size="14" lengthAdjust="spacing" textLength="85.6201" x="678.2178" y="620.046">budget affaire</text></g><g id="elem_GMN20"><path d="M178.5,584.1094 L178.5,626.8125 A0,0 0 0 0 178.5,626.8125 L346.188,626.8125 A0,0 0 0 0 346.188,626.8125 L346.188,609.9694 L648.99,607.2994 L346.188,601.9694 L346.188,594.1094 L336.188,584.1094 L178.5,584.1094 A0,0 0 0 0 178.5,584.1094 " fill="#FEFFDD" style="stroke:#181818;stroke-width:0.5;"/><path d="M336.188,584.1094 L336.188,594.1094 L346.188,594.1094 L336.188,584.1094 " fill="#FEFFDD" style="stroke:#181818;stroke-width:0.5;"/><text fill="#000000" font-family="sans-serif" font-size="13" lengthAdjust="spacing" textLength="146.688" x="184.5" y="602.6045">&#240;&#376;&#8221;&#180; Donnees dispersees</text><text fill="#000000" font-family="sans-serif" font-size="13" lengthAdjust="spacing" textLength="116.854" x="184.5" y="618.9561">&#226;&#65533;&#176; 1h30 par affaire</text></g><g id="elem_UC5"><ellipse cx="720.9997" cy="1068.5128" fill="#FFD700" rx="44.4997" ry="27.9034" style="stroke:#181818;stroke-width:0.5;"/><text fill="#000000" font-family="sans-serif" font-size="14" lengthAdjust="spacing" textLength="43.5791" x="699.2102" y="1063.4366">Valider</text><text fill="#000000" font-family="sans-serif" font-size="14" lengthAdjust="spacing" textLength="46.6895" x="697.655" y="1081.046">PPSPS</text></g><g id="elem_GMN24"><path d="M947,1037.1094 L947,1063.0794 L765.7,1068.3094 L947,1071.0794 L947,1096.1641 A0,0 0 0 0 947,1096.1641 L1087.1963,1096.1641 A0,0 0 0 0 1087.1963,1096.1641 L1087.1963,1047.1094 L1077.1963,1037.1094 L947,1037.1094 A0,0 0 0 0 947,1037.1094 " fill="#FEFFDD" style="stroke:#181818;stroke-width:0.5;"/><path d="M1077.1963,1037.1094 L1077.1963,1047.1094 L1087.1963,1047.1094 L1077.1963,1037.1094 " fill="#FEFFDD" style="stroke:#181818;stroke-width:0.5;"/><text fill="#000000" font-family="sans-serif" font-size="13" lengthAdjust="spacing" textLength="95.3481" x="953" y="1055.6045">&#240;&#376;&#8221;&#180; Email Word</text><text fill="#000000" font-family="sans-serif" font-size="13" lengthAdjust="spacing" textLength="119.1963" x="953" y="1071.9561">Commentaires Word</text><text fill="#000000" font-family="sans-serif" font-size="13" lengthAdjust="spacing" textLength="64.8096" x="953" y="1088.3076">&#226;&#65533;&#176; 30 min</text></g><g id="elem_UC6"><ellipse cx="721.0174" cy="698.5128" fill="#FF6B6B" rx="66.5174" ry="27.9034" style="stroke:#181818;stroke-width:0.5;"/><text fill="#000000" font-family="sans-serif" font-size="14" lengthAdjust="spacing" textLength="72.3652" x="684.8348" y="693.4366">Rechercher</text><text fill="#000000" font-family="sans-serif" font-size="14" lengthAdjust="spacing" textLength="77.8271" x="682.1038" y="711.046">ancien devis</text></g><g id="elem_GMN28"><path d="M159,662.1094 L159,737.5156 A0,0 0 0 0 159,737.5156 L366.3418,737.5156 A0,0 0 0 0 366.3418,737.5156 L366.3418,703.3794 L654.31,698.7494 L366.3418,695.3794 L366.3418,672.1094 L356.3418,662.1094 L159,662.1094 A0,0 0 0 0 159,662.1094 " fill="#FEFFDD" style="stroke:#181818;stroke-width:0.5;"/><path d="M356.3418,662.1094 L356.3418,672.1094 L366.3418,672.1094 L356.3418,662.1094 " fill="#FEFFDD" style="stroke:#181818;stroke-width:0.5;"/><text fill="#000000" font-family="sans-serif" font-size="13" lengthAdjust="spacing" textLength="24.5591" x="165" y="680.6045">&#240;&#376;&#8221;&#180;</text><text fill="#000000" font-family="sans-serif" font-size="13" font-weight="bold" lengthAdjust="spacing" textLength="158.1709" x="193.1709" y="680.6045">RECHERCHE MANUELLE</text><text fill="#000000" font-family="sans-serif" font-size="13" lengthAdjust="spacing" textLength="108.7417" x="165" y="696.9561">200+ fichiers Word</text><text fill="#000000" font-family="sans-serif" font-size="13" lengthAdjust="spacing" textLength="124.2871" x="165" y="713.3076">Nommage incoherent</text><text fill="#000000" font-family="sans-serif" font-size="13" lengthAdjust="spacing" textLength="120.4595" x="165" y="729.6592">&#226;&#65533;&#176; 30 min de fouille</text></g><g id="elem_UC7"><ellipse cx="262.6821" cy="520.5128" fill="#FF0000" rx="63.1821" ry="27.9034" style="stroke:#181818;stroke-width:0.5;"/><text fill="#000000" font-family="sans-serif" font-size="14" lengthAdjust="spacing" textLength="64.5791" x="230.3926" y="515.4366">Teletravail</text><text fill="#000000" font-family="sans-serif" font-size="14" lengthAdjust="spacing" textLength="73.1104" x="226.1269" y="533.046">(VPN/MDE)</text></g><g id="elem_GMN32"><path d="M641,469.1094 L641,505.0294 L325.54,518.6994 L641,513.0294 L641,544.5156 A0,0 0 0 0 641,544.5156 L801.4453,544.5156 A0,0 0 0 0 801.4453,544.5156 L801.4453,479.1094 L791.4453,469.1094 L641,469.1094 A0,0 0 0 0 641,469.1094 " fill="#FEFFDD" style="stroke:#181818;stroke-width:0.5;"/><path d="M791.4453,469.1094 L791.4453,479.1094 L801.4453,479.1094 L791.4453,469.1094 " fill="#FEFFDD" style="stroke:#181818;stroke-width:0.5;"/><text fill="#000000" font-family="sans-serif" font-size="13" lengthAdjust="spacing" textLength="126.4517" x="647" y="487.6045">&#240;&#376;&#8221;&#180; 30-40s par ecran</text><text fill="#000000" font-family="sans-serif" font-size="13" lengthAdjust="spacing" textLength="139.4453" x="647" y="503.9561">&#240;&#376;&#8221;&#180; Timeouts frequents</text><text fill="#000000" font-family="sans-serif" font-size="13" lengthAdjust="spacing" textLength="99.3218" x="647" y="520.3076">&#240;&#376;&#8221;&#180; VPN + Citrix</text><text fill="#000000" font-family="sans-serif" font-size="13" lengthAdjust="spacing" textLength="129.3462" x="647" y="536.6592">&#240;&#376;&#732;&#164; Frustration 10/10</text></g><g id="elem_UC8"><ellipse cx="720.9032" cy="405.5128" fill="#FF6B6B" rx="48.9032" ry="27.9034" style="stroke:#181818;stroke-width:0.5;"/><text fill="#000000" font-family="sans-serif" font-size="14" lengthAdjust="spacing" textLength="39.6826" x="701.0619" y="400.4366">Suivre</text><text fill="#000000" font-family="sans-serif" font-size="14" lengthAdjust="spacing" textLength="52.917" x="694.4447" y="418.046">reliquats</text></g><g id="elem_GMN36"><path d="M183.5,403.1094 L183.5,445.8125 A0,0 0 0 0 183.5,445.8125 L341.7744,445.8125 A0,0 0 0 0 341.7744,445.8125 L341.7744,425.3494 L671.88,407.6094 L341.7744,417.3494 L341.7744,413.1094 L331.7744,403.1094 L183.5,403.1094 A0,0 0 0 0 183.5,403.1094 " fill="#FEFFDD" style="stroke:#181818;stroke-width:0.5;"/><path d="M331.7744,403.1094 L331.7744,413.1094 L341.7744,413.1094 L331.7744,403.1094 " fill="#FEFFDD" style="stroke:#181818;stroke-width:0.5;"/><text fill="#000000" font-family="sans-serif" font-size="13" lengthAdjust="spacing" textLength="94.6499" x="189.5" y="421.6045">&#240;&#376;&#8221;&#180; Aucun suivi</text><text fill="#000000" font-family="sans-serif" font-size="13" lengthAdjust="spacing" textLength="137.2744" x="189.5" y="437.9561">&#240;&#376;&#8221;&#180; Pertes importantes</text></g><g id="elem_UC9"><ellipse cx="262.5085" cy="248.5128" fill="#FF0000" rx="72.0085" ry="27.9034" style="stroke:#181818;stroke-width:0.5;"/><text fill="#000000" font-family="sans-serif" font-size="14" lengthAdjust="spacing" textLength="54.4688" x="235.2741" y="243.4366">Analyser</text><text fill="#000000" font-family="sans-serif" font-size="14" lengthAdjust="spacing" textLength="85.5928" x="219.7121" y="261.046">performances</text></g><g id="elem_GMN40"><path d="M654.5,221.1094 L654.5,239.4694 L334.83,247.6694 L654.5,247.4694 L654.5,263.8125 A0,0 0 0 0 654.5,263.8125 L787.5234,263.8125 A0,0 0 0 0 787.5234,263.8125 L787.5234,231.1094 L777.5234,221.1094 L654.5,221.1094 A0,0 0 0 0 654.5,221.1094 " fill="#FEFFDD" style="stroke:#181818;stroke-width:0.5;"/><path d="M777.5234,221.1094 L777.5234,231.1094 L787.5234,231.1094 L777.5234,221.1094 " fill="#FEFFDD" style="stroke:#181818;stroke-width:0.5;"/><text fill="#000000" font-family="sans-serif" font-size="13" lengthAdjust="spacing" textLength="90.3081" x="660.5" y="239.6045">&#240;&#376;&#8221;&#180; Impossible</text><text fill="#000000" font-family="sans-serif" font-size="13" lengthAdjust="spacing" textLength="112.0234" x="660.5" y="255.9561">Pas de dashboards</text></g><g id="elem_UC10"><ellipse cx="720.9559" cy="789.5128" fill="#F1F1F1" rx="60.4559" ry="27.9034" style="stroke:#181818;stroke-width:0.5;"/><text fill="#000000" font-family="sans-serif" font-size="14" lengthAdjust="spacing" textLength="51.3584" x="695.2767" y="784.4366">Envoyer</text><text fill="#000000" font-family="sans-serif" font-size="14" lengthAdjust="spacing" textLength="69.2549" x="686.3284" y="802.046">devis client</text></g><g id="elem_GMN44"><path d="M215.5,772.1094 L215.5,814.8125 A0,0 0 0 0 215.5,814.8125 L309.8218,814.8125 A0,0 0 0 0 309.8218,814.8125 L309.8218,797.1994 L660.33,790.1294 L309.8218,789.1994 L309.8218,782.1094 L299.8218,772.1094 L215.5,772.1094 A0,0 0 0 0 215.5,772.1094 " fill="#FEFFDD" style="stroke:#181818;stroke-width:0.5;"/><path d="M299.8218,772.1094 L299.8218,782.1094 L309.8218,782.1094 L299.8218,772.1094 " fill="#FEFFDD" style="stroke:#181818;stroke-width:0.5;"/><text fill="#000000" font-family="sans-serif" font-size="13" lengthAdjust="spacing" textLength="57.5796" x="221.5" y="790.6045">&#226;&#65533;&#176; 7 min</text><text fill="#000000" font-family="sans-serif" font-size="13" lengthAdjust="spacing" textLength="73.3218" x="221.5" y="806.9561">PDF + Email</text></g><g id="elem_Sage"><ellipse cx="720.8538" cy="1402.5128" fill="#FF0000" rx="59.3538" ry="27.9034" style="stroke:#181818;stroke-width:0.5;"/><text fill="#000000" font-family="sans-serif" font-size="14" lengthAdjust="spacing" textLength="67.6963" x="687.0056" y="1397.4366">MDE/Sage</text><text fill="#000000" font-family="sans-serif" font-size="14" lengthAdjust="spacing" textLength="54.4688" x="693.6194" y="1415.046">(Legacy)</text></g><g id="elem_Word"><ellipse cx="720.7939" cy="1560.5128" fill="#FFD700" rx="64.2939" ry="27.9034" style="stroke:#181818;stroke-width:0.5;"/><text fill="#000000" font-family="sans-serif" font-size="14" lengthAdjust="spacing" textLength="33.4482" x="704.0697" y="1555.4366">Word</text><text fill="#000000" font-family="sans-serif" font-size="14" lengthAdjust="spacing" textLength="74.6826" x="683.4526" y="1573.046">(Templates)</text></g><g id="elem_Excel"><ellipse cx="720.8417" cy="1651.5128" fill="#FFD700" rx="42.8417" ry="27.9034" style="stroke:#181818;stroke-width:0.5;"/><text fill="#000000" font-family="sans-serif" font-size="14" lengthAdjust="spacing" textLength="34.2344" x="703.7246" y="1646.4366">Excel</text><text fill="#000000" font-family="sans-serif" font-size="14" lengthAdjust="spacing" textLength="44.3447" x="698.6694" y="1664.046">(perso)</text></g><g id="elem_Dossiers"><ellipse cx="721.1074" cy="1742.5128" fill="#FF6B6B" rx="51.1074" ry="27.9034" style="stroke:#181818;stroke-width:0.5;"/><text fill="#000000" font-family="sans-serif" font-size="14" lengthAdjust="spacing" textLength="54.4551" x="693.8799" y="1737.4366">Dossiers</text><text fill="#000000" font-family="sans-serif" font-size="14" lengthAdjust="spacing" textLength="56.0342" x="693.0903" y="1755.046">Partages</text></g><g id="elem_Email"><ellipse cx="721.1385" cy="1481.5718" fill="#F1F1F1" rx="45.6385" ry="15.4624" style="stroke:#181818;stroke-width:0.5;"/><text fill="#000000" font-family="sans-serif" font-size="14" lengthAdjust="spacing" textLength="48.248" x="695.7641" y="1485.6658">Outlook</text></g><g id="elem_VPN"><ellipse cx="721.1259" cy="1821.674" fill="#FF0000" rx="57.6259" ry="15.5646" style="stroke:#181818;stroke-width:0.5;"/><text fill="#000000" font-family="sans-serif" font-size="14" lengthAdjust="spacing" textLength="64.5586" x="685.8466" y="1826.1906">VPN/Citrix</text></g><!--entity Laurent--><g id="elem_Laurent"><ellipse cx="51.124" cy="1318.6094" fill="#FFB6C1" rx="8" ry="8" style="stroke:#181818;stroke-width:0.5;"/><path d="M51.124,1326.6094 L51.124,1353.6094 M38.124,1334.6094 L64.124,1334.6094 M51.124,1353.6094 L38.124,1368.6094 M51.124,1353.6094 L64.124,1368.6094 " fill="none" style="stroke:#181818;stroke-width:0.5;"/><text fill="#000000" font-family="sans-serif" font-size="14" lengthAdjust="spacing" textLength="47.4824" x="6" y="1384.6426">Laurent</text><text fill="#000000" font-family="sans-serif" font-size="14" lengthAdjust="spacing" textLength="90.248" x="6" y="1402.252">(Resp. Affaire)</text></g><!--entity Marie--><g id="elem_Marie"><ellipse cx="51.2207" cy="300.6094" fill="#DDA0DD" rx="8" ry="8" style="stroke:#181818;stroke-width:0.5;"/><path d="M51.2207,308.6094 L51.2207,335.6094 M38.2207,316.6094 L64.2207,316.6094 M51.2207,335.6094 L38.2207,350.6094 M51.2207,335.6094 L64.2207,350.6094 " fill="none" style="stroke:#181818;stroke-width:0.5;"/><text fill="#000000" font-family="sans-serif" font-size="14" lengthAdjust="spacing" textLength="35.0068" x="17" y="366.6426">Marie</text><text fill="#000000" font-family="sans-serif" font-size="14" lengthAdjust="spacing" textLength="68.4414" x="17" y="384.252">(Directrice)</text></g><!--entity Thomas--><g id="elem_Thomas"><ellipse cx="262.4722" cy="1507.6094" fill="#98FB98" rx="8" ry="8" style="stroke:#181818;stroke-width:0.5;"/><path d="M262.4722,1515.6094 L262.4722,1542.6094 M249.4722,1523.6094 L275.4722,1523.6094 M262.4722,1542.6094 L249.4722,1557.6094 M262.4722,1542.6094 L275.4722,1557.6094 " fill="none" style="stroke:#181818;stroke-width:0.5;"/><text fill="#000000" font-family="sans-serif" font-size="14" lengthAdjust="spacing" textLength="50.5723" x="211.5" y="1573.6426">Thomas</text><text fill="#000000" font-family="sans-serif" font-size="14" lengthAdjust="spacing" textLength="101.9443" x="211.5" y="1591.252">(Bureau Etudes)</text></g><!--entity Client--><g id="elem_Client"><ellipse cx="262.3965" cy="1164.1094" fill="#ADD8E6" rx="8" ry="8" style="stroke:#181818;stroke-width:0.5;"/><path d="M262.3965,1172.1094 L262.3965,1199.1094 M249.3965,1180.1094 L275.3965,1180.1094 M262.3965,1199.1094 L249.3965,1214.1094 M262.3965,1199.1094 L275.3965,1214.1094 " fill="none" style="stroke:#181818;stroke-width:0.5;"/><text fill="#000000" font-family="sans-serif" font-size="14" lengthAdjust="spacing" textLength="35.793" x="244.5" y="1230.1426">Client</text></g><g id="elem_GMN78"><path d="M589,44.6094 L589,169.0703 L852.7725,169.0703 L852.7725,54.6094 L842.7725,44.6094 L589,44.6094 " fill="#FEFFDD" style="stroke:#181818;stroke-width:0.5;"/><path d="M842.7725,44.6094 L842.7725,54.6094 L852.7725,54.6094 L842.7725,44.6094 " fill="#FEFFDD" style="stroke:#181818;stroke-width:1;"/><text fill="#000000" font-family="sans-serif" font-size="13" font-weight="bold" lengthAdjust="spacing" textLength="149.519" x="595" y="63.1045">PROBLEMES MAJEURS</text><text fill="#000000" font-family="sans-serif" font-size="13" lengthAdjust="spacing" textLength="242.7725" x="595" y="79.4561">&#240;&#376;&#8221;&#180; ERP Legacy ultra-lent (30-40s/ecran)</text><text fill="#000000" font-family="sans-serif" font-size="13" lengthAdjust="spacing" textLength="225.0879" x="595" y="95.8076">&#240;&#376;&#8221;&#180; Recherche manuelle 200+ fichiers</text><text fill="#000000" font-family="sans-serif" font-size="13" lengthAdjust="spacing" textLength="181.3652" x="595" y="112.1592">&#240;&#376;&#8221;&#180; PPSPS 100% manuel (3h)</text><text fill="#000000" font-family="sans-serif" font-size="13" lengthAdjust="spacing" textLength="210.2788" x="595" y="128.5107">&#240;&#376;&#8221;&#180; Pas de templates automatiques</text><text fill="#000000" font-family="sans-serif" font-size="13" lengthAdjust="spacing" textLength="170.5171" x="595" y="144.8623">&#240;&#376;&#8221;&#180; Pas de visibilite direction</text><text fill="#000000" font-family="sans-serif" font-size="13" lengthAdjust="spacing" textLength="153.1626" x="595" y="161.2139">&#240;&#376;&#8221;&#180; Teletravail impossible</text></g><!--link Laurent to UC1--><g id="link_Laurent_UC1"><path d="M96.26,1360.5094 C207.48,1366.7694 494.41,1376.2594 559,1312.6094 C605.14,1267.1294 548.69,1073.3294 589,1022.6094 C611.97,993.7094 648.5345,984.0189 678.9045,980.2989 " fill="none" id="Laurent-to-UC1" style="stroke:#181818;stroke-width:1;"/><polygon fill="#181818" points="684.86,979.5694,675.4404,976.6933,679.8971,980.1773,676.4131,984.6339,684.86,979.5694" style="stroke:#181818;stroke-width:1;"/></g><!--link Laurent to UC2--><g id="link_Laurent_UC2"><path d="M96.2,1344.9794 C106,1342.2094 116.35,1339.2894 126,1336.6094 C222.08,1309.8794 494.41,1294.5994 559,1218.6094 C642.06,1120.8794 511.2,1033.5594 589,931.6094 C609.14,905.2194 638.98,893.7216 668.04,887.5716 " fill="none" id="Laurent-to-UC2" style="stroke:#181818;stroke-width:1;"/><polygon fill="#181818" points="673.91,886.3294,664.2768,884.2795,669.0183,887.3646,665.9332,892.1061,673.91,886.3294" style="stroke:#181818;stroke-width:1;"/></g><!--link Laurent to UC4--><g id="link_Laurent_UC4"><path d="M57.75,1310.0494 C68.18,1233.1294 93.14,1087.2194 135,1059.6094 C213.92,1007.5494 492.21,1091.5194 559,1024.6094 C617.59,965.9094 538.14,718.1194 589,652.6094 C604.19,633.0394 622.5645,623.4926 646.0345,617.2026 " fill="none" id="Laurent-to-UC4" style="stroke:#181818;stroke-width:1;"/><polygon fill="#181818" points="651.83,615.6494,642.1013,614.1155,647.0004,616.9437,644.1722,621.8428,651.83,615.6494" style="stroke:#181818;stroke-width:1;"/></g><!--link Laurent to UC6--><g id="link_Laurent_UC6"><path d="M51.5,1310.0494 C53.73,1248.8794 67.9,1144.5894 135,1094.6094 C210.74,1038.1894 491.4,1131.5594 559,1065.6094 C610.44,1015.4194 544.58,800.0994 589,743.6094 C605.28,722.9094 625.7716,713.1041 650.5616,707.0441 " fill="none" id="Laurent-to-UC6" style="stroke:#181818;stroke-width:1;"/><polygon fill="#181818" points="656.39,705.6194,646.6976,703.8709,651.533,706.8067,648.5973,711.6421,656.39,705.6194" style="stroke:#181818;stroke-width:1;"/></g><!--link Laurent to UC7--><g id="link_Laurent_UC7"><path d="M54.08,1310.0094 C61.56,1148.0894 89.09,625.3594 135,566.6094 C151.11,545.9794 171.5292,536.0943 195.9392,529.8143 " fill="none" id="Laurent-to-UC7" style="stroke:#181818;stroke-width:1;"/><polygon fill="#181818" points="201.75,528.3194,192.0372,526.6879,196.9077,529.5652,194.0305,534.4356,201.75,528.3194" style="stroke:#181818;stroke-width:1;"/></g><!--link Laurent to UC10--><g id="link_Laurent_UC10"><path d="M55.49,1309.7194 C62.04,1258.1394 80.87,1178.0394 135,1137.6094 C286.38,1024.5394 422.95,1237.7294 559,1106.6094 C602.79,1064.4094 551,882.0894 589,834.6094 C606.58,812.6394 629.5911,802.6429 655.7711,796.8629 " fill="none" id="Laurent-to-UC10" style="stroke:#181818;stroke-width:1;"/><polygon fill="#181818" points="661.63,795.5694,651.9793,793.6037,656.7476,796.6473,653.704,801.4156,661.63,795.5694" style="stroke:#181818;stroke-width:1;"/></g><!--link Laurent to Sage--><g id="link_Laurent_Sage"><path d="M96.05,1386.0094 C108.2,1392.4094 121.71,1398.2894 135,1401.6094 C324.2,1448.8294 552.7158,1426.5959 658.1258,1412.1159 " fill="none" id="Laurent-to-Sage" style="stroke:#181818;stroke-width:1;stroke-dasharray:7.0,7.0;"/><polygon fill="#181818" points="664.07,1411.2994,654.6094,1408.5614,659.1165,1411.9798,655.6981,1416.487,664.07,1411.2994" style="stroke:#181818;stroke-width:1;"/><text fill="#000000" font-family="sans-serif" font-size="13" lengthAdjust="spacing" textLength="33.2363" x="246" y="1398.1045">utilise</text></g><!--link Laurent to Word--><g id="link_Laurent_Word"><path d="M56.1,1405.1194 C64.68,1492.0594 87.79,1671.2594 135,1708.6094 C215.52,1772.3094 265.4,1729.0894 366,1708.6094 C457.32,1690.0094 477.49,1671.7994 559,1626.6094 C573.23,1618.7194 574.5,1612.9894 589,1605.6094 C613.32,1593.2294 636.1036,1584.7706 660.3036,1577.2006 " fill="none" id="Laurent-to-Word" style="stroke:#181818;stroke-width:1;stroke-dasharray:7.0,7.0;"/><polygon fill="#181818" points="666.03,1575.4094,656.2463,1574.2787,661.258,1576.9021,658.6346,1581.9139,666.03,1575.4094" style="stroke:#181818;stroke-width:1;"/><text fill="#000000" font-family="sans-serif" font-size="13" lengthAdjust="spacing" textLength="33.2363" x="246" y="1705.1045">utilise</text></g><!--link Laurent to Excel--><g id="link_Laurent_Excel"><path d="M54.33,1405.4294 C60.22,1503.7394 79.44,1723.1394 135,1768.6094 C214.46,1833.6194 264.43,1783.5394 366,1768.6094 C454.61,1755.5794 475.31,1742.5194 559,1710.6094 C572.75,1705.3694 575.36,1702.1194 589,1696.6094 C619.77,1684.1794 649.7212,1673.926 676.0612,1665.406 " fill="none" id="Laurent-to-Excel" style="stroke:#181818;stroke-width:1;stroke-dasharray:7.0,7.0;"/><polygon fill="#181818" points="681.77,1663.5594,671.9758,1662.5234,677.0127,1665.0982,674.4379,1670.1351,681.77,1663.5594" style="stroke:#181818;stroke-width:1;"/><text fill="#000000" font-family="sans-serif" font-size="13" lengthAdjust="spacing" textLength="33.2363" x="246" y="1765.1045">utilise</text></g><!--link Laurent to Dossiers--><g id="link_Laurent_Dossiers"><path d="M52.99,1405.1494 C56.35,1513.5794 71.04,1773.9594 135,1827.6094 C217.26,1896.6194 550.1801,1797.8626 671.1201,1758.8226 " fill="none" id="Laurent-to-Dossiers" style="stroke:#181818;stroke-width:1;stroke-dasharray:7.0,7.0;"/><polygon fill="#181818" points="676.83,1756.9794,667.0364,1755.9376,672.0718,1758.5154,669.494,1763.5507,676.83,1756.9794" style="stroke:#181818;stroke-width:1;"/><text fill="#000000" font-family="sans-serif" font-size="13" lengthAdjust="spacing" textLength="33.9663" x="246" y="1824.1045">fouille</text></g><!--link Laurent to VPN--><g id="link_Laurent_VPN"><path d="M52.02,1405.4194 C53.21,1522.3794 63.37,1817.7194 135,1877.6094 C304.27,2019.1294 599.6691,1884.3529 688.9791,1838.2229 " fill="none" id="Laurent-to-VPN" style="stroke:#181818;stroke-width:1;stroke-dasharray:7.0,7.0;"/><polygon fill="#181818" points="694.31,1835.4694,684.478,1836.0457,689.8676,1837.7639,688.1493,1843.1535,694.31,1835.4694" style="stroke:#181818;stroke-width:1;"/><text fill="#000000" font-family="sans-serif" font-size="13" lengthAdjust="spacing" textLength="39.7427" x="243" y="1874.1045">souffre</text></g><!--link Marie to UC3--><g id="link_Marie_UC3"><path d="M85.2,339.6094 C106.08,339.6094 128.23,339.6094 155.9,339.6094 " fill="none" id="Marie-to-UC3" style="stroke:#181818;stroke-width:1;"/><polygon fill="#181818" points="161.9,339.6094,152.9,335.6094,156.9,339.6094,152.9,343.6094,161.9,339.6094" style="stroke:#181818;stroke-width:1;"/></g><!--link Marie to UC9--><g id="link_Marie_UC9"><path d="M85.28,319.5194 C100.19,310.9494 118.18,301.1994 135,293.6094 C157.73,283.3494 177.8812,275.7363 200.2512,268.1063 " fill="none" id="Marie-to-UC9" style="stroke:#181818;stroke-width:1;"/><polygon fill="#181818" points="205.93,266.1694,196.1206,265.2889,201.1977,267.7835,198.7031,272.8606,205.93,266.1694" style="stroke:#181818;stroke-width:1;"/></g><!--link Marie to Excel--><g id="link_Marie_Excel"><path d="M54.2,387.3094 C64.94,617.9594 112.28,1607.4794 135,1629.6094 C211.64,1704.2294 551.811,1671.7094 672.431,1657.5394 " fill="none" id="Marie-to-Excel" style="stroke:#181818;stroke-width:1;stroke-dasharray:7.0,7.0;"/><polygon fill="#181818" points="678.39,1656.8394,668.9848,1653.9168,673.4241,1657.4227,669.9182,1661.8621,678.39,1656.8394" style="stroke:#181818;stroke-width:1;"/><text fill="#000000" font-family="sans-serif" font-size="13" lengthAdjust="spacing" textLength="100.4517" x="212.5" y="1626.1045">demande exports</text></g><!--link Thomas to UC5--><g id="link_Thomas_UC5"><path d="M313.7,1514.8594 C338.42,1499.3094 368.7,1480.3594 396,1463.6094 C468.04,1419.3894 500.58,1426.6994 559,1365.6094 C638.45,1282.5294 688.6054,1158.2211 708.6954,1101.8611 " fill="none" id="Thomas-to-UC5" style="stroke:#181818;stroke-width:1;"/><polygon fill="#181818" points="710.71,1096.2094,703.9203,1103.3438,709.0312,1100.9191,711.4559,1106.0299,710.71,1096.2094" style="stroke:#181818;stroke-width:1;"/></g><!--link Thomas to Word--><g id="link_Thomas_Word"><path d="M313.55,1576.3794 C337.6,1588.9994 367.37,1602.2394 396,1608.6094 C466.72,1624.3294 487.31,1619.0694 559,1608.6094 C597.82,1602.9394 634.6258,1591.9584 666.1958,1580.9284 " fill="none" id="Thomas-to-Word" style="stroke:#181818;stroke-width:1;stroke-dasharray:7.0,7.0;"/><polygon fill="#181818" points="671.86,1578.9494,662.0443,1578.1417,667.1398,1580.5985,664.683,1585.694,671.86,1578.9494" style="stroke:#181818;stroke-width:1;"/><text fill="#000000" font-family="sans-serif" font-size="13" lengthAdjust="spacing" textLength="60.6899" x="447.5" y="1605.1045">commente</text></g><!--link Thomas to Email--><g id="link_Thomas_Email"><path d="M313.6,1529.7194 C338.16,1522.0994 368.34,1513.6794 396,1508.6094 C494.69,1490.5194 606.533,1484.7284 669.353,1482.7484 " fill="none" id="Thomas-to-Email" style="stroke:#181818;stroke-width:1;stroke-dasharray:7.0,7.0;"/><polygon fill="#181818" points="675.35,1482.5594,666.2285,1478.8449,670.3525,1482.7169,666.4805,1486.8409,675.35,1482.5594" style="stroke:#181818;stroke-width:1;"/><text fill="#000000" font-family="sans-serif" font-size="13" lengthAdjust="spacing" textLength="33.2363" x="461" y="1486.1045">utilise</text></g><!--reverse link Client to UC10--><g id="link_Client_UC10"><path d="M286.5386,1199.8881 C337.5286,1210.7381 483.36,1233.4194 559,1154.6094 C608.46,1103.0794 544.83,890.7394 589,834.6094 C606.4,812.4994 635.26,801.1994 661.47,795.4394 " fill="none" id="Client-backto-UC10" style="stroke:#181818;stroke-width:1;"/><polygon fill="#181818" points="280.67,1198.6394,288.6404,1204.4249,285.5605,1199.68,290.3054,1196.6001,280.67,1198.6394" style="stroke:#181818;stroke-width:1;"/></g><!--link UC1 to UC6--><g id="link_UC1_UC6"><path d="M686.33,985.7894 C634.58,995.6994 537.98,1004.8594 489,949.6094 C475.52,934.3994 463.81,850.1894 589,743.6094 C608.82,726.7394 629.4881,717.7025 653.5081,711.0425 " fill="none" id="UC1-to-UC6" style="stroke:#181818;stroke-width:1;stroke-dasharray:7.0,7.0;"/><polygon fill="#181818" points="659.29,709.4394,649.5484,707.9895,654.4718,710.7753,651.686,715.6986,659.29,709.4394" style="stroke:#181818;stroke-width:1;"/><text fill="#000000" font-family="sans-serif" font-size="13" lengthAdjust="spacing" textLength="55.6563" x="450" y="946.1045">&#171;include&#187;</text></g><!--link UC2 to UC6--><g id="link_UC2_UC6"><path d="M674.06,886.6394 C619.99,890.6294 532.97,887.3694 489,833.6094 C435.53,768.2194 568.1997,728.9899 653.6597,710.9299 " fill="none" id="UC2-to-UC6" style="stroke:#181818;stroke-width:1;stroke-dasharray:7.0,7.0;"/><polygon fill="#181818" points="659.53,709.6894,649.8974,707.6367,654.638,710.7232,651.5515,715.4638,659.53,709.6894" style="stroke:#181818;stroke-width:1;"/><text fill="#000000" font-family="sans-serif" font-size="13" lengthAdjust="spacing" textLength="55.6563" x="450" y="830.1045">&#171;include&#187;</text></g><!--link UC2 to UC5--><g id="link_UC2_UC5"><path d="M676.01,870.5694 C622.56,861.6094 534.89,856.8494 489,908.6094 C425.14,980.6394 590.6812,1034.9187 673.4112,1056.8987 " fill="none" id="UC2-to-UC5" style="stroke:#181818;stroke-width:1;stroke-dasharray:7.0,7.0;"/><polygon fill="#181818" points="679.21,1058.4394,671.5389,1052.2625,674.3776,1057.1555,669.4847,1059.9943,679.21,1058.4394" style="stroke:#181818;stroke-width:1;"/><text fill="#000000" font-family="sans-serif" font-size="13" lengthAdjust="spacing" textLength="55.6563" x="450" y="923.1045">&#171;include&#187;</text></g><!--link UC4 to UC8--><g id="link_UC4_UC8"><path d="M650.82,614.0894 C597.47,614.7294 526.98,605.4494 489,558.6094 C430.35,486.2794 586.1722,437.4764 669.2822,417.1264 " fill="none" id="UC4-to-UC8" style="stroke:#181818;stroke-width:1;stroke-dasharray:7.0,7.0;"/><polygon fill="#181818" points="675.11,415.6994,665.4169,413.9546,670.2535,416.8885,667.3196,421.7251,675.11,415.6994" style="stroke:#181818;stroke-width:1;"/><text fill="#000000" font-family="sans-serif" font-size="13" lengthAdjust="spacing" textLength="55.6563" x="450" y="555.1045">&#171;include&#187;</text></g><!--link UC1 to VPN--><g id="link_UC1_VPN"><path d="M685.08,980.2094 C655.01,984.3594 613.23,995.0594 589,1022.6094 C386.57,1252.7594 471.53,1448.9694 490,1543.6094 C512.41,1658.4694 500.92,1710.5494 589,1787.6094 C609.75,1805.7594 633.0237,1813.4917 658.6837,1817.5517 " fill="none" id="UC1-to-VPN" style="stroke:#181818;stroke-width:1;stroke-dasharray:7.0,7.0;"/><polygon fill="#181818" points="664.61,1818.4894,656.3457,1813.132,659.6714,1817.708,655.0955,1821.0337,664.61,1818.4894" style="stroke:#181818;stroke-width:1;"/><text fill="#000000" font-family="sans-serif" font-size="13" lengthAdjust="spacing" textLength="53.4917" x="451" y="1524.1045">&#171;extend&#187;</text><text fill="#000000" font-family="sans-serif" font-size="13" lengthAdjust="spacing" textLength="39.749" x="457.8713" y="1540.4561">lenteur</text></g><!--link UC7 to Sage--><g id="link_UC7_Sage"><path d="M318.86,533.2194 C336.75,540.0994 354.83,550.6194 366,566.6094 C420.22,644.2294 361.85,903.2994 396,991.6094 C462.04,1162.3594 620.3645,1314.9543 686.6945,1373.8843 " fill="none" id="UC7-to-Sage" style="stroke:#181818;stroke-width:1;stroke-dasharray:7.0,7.0;"/><polygon fill="#181818" points="691.18,1377.8694,687.1085,1368.9015,687.4421,1374.5485,681.7951,1374.8821,691.18,1377.8694" style="stroke:#181818;stroke-width:1;"/><text fill="#000000" font-family="sans-serif" font-size="13" lengthAdjust="spacing" textLength="53.4917" x="451.1899" y="972.1045">&#171;extend&#187;</text><text fill="#000000" font-family="sans-serif" font-size="13" lengthAdjust="spacing" textLength="161.8716" x="397" y="988.4561">performance catastrophique</text></g><!--link VPN to GMN78--><g id="link_VPN_GMN78"><path d="M667.85,1827.6894 C610.84,1830.8894 522.46,1825.5794 477.5,1770.1094 C369.19,1636.4894 385.56,367.4694 477.5,222.1094 C502.7,182.2694 545.78,155.8994 588.76,138.5594 " fill="none" id="VPN-GMN78" style="stroke:#181818;stroke-width:1;stroke-dasharray:7.0,7.0;"/></g><!--SRC=[XLRDRkCs4BxhAGO9sYOEdCYnupYBm80ZoTijagnX9zjBBhH4MqGbqKjAGOAYG1-alHHzW3tqq4jH84LFVOk-G5-XGrB_jTD30eip77xppM_AqeZ2lQJW4FpdCh8M98Ok_XBKJnbFu7DuIwN-DLcj21vBc3XtzzwrPKLqbKBAGR1rc49GNB4iugTSmDuroGHDqeVaO4xbvhWmSBW7H48kXFtfz6hez8exDqGmYZSC0C7yN5sVmxxhJcpNBPJlGXuJYTfNQ8jauALPGAMvO6ImVp6QNbsCYXjEnF1HhM1-mlx4TKVUqBBKUoHP8nzxYsUPqfXMB7HRlkyfsDEfuy2tbWMGIUeh_lOSGQbuI0BwoAH-vDxfALNttBPHB-4fpTdYAoN3Cu0_Fltvwz_V__Zo2vo6zXbiY01jm0X_-kVttru-mPpw8HNu1uXi4n4qrBSXPadBHC-sFuEO91cDK4AJG3_Q0FcM9bGecBFPOhR8OPugcCEhuTKMcAUjD_gXRMkOsa1BwAGYEfg2q2XzAbhYEPCVCmeyMqPCWXyHX2Lt8NLu8hCeLLZ98qbyZ0b6ZEIno97tNq7URxt-BjvmATaIWqmJpQH4f9ggYkf-21kU2V1vl66Hzc0hkaN67WNcwZ8BrhI4bQCQjCEkYqM36hH0kJn9AAPMmEI62abfC_Azi6_OpX_O1US3YLZG3klPAzbtriBXnOH5y3KNWHOuF5PqcxGlJqkIYkJRYgNCLXMvnCT2WtfD3DiXgyWPja1rEdFF-TARun_SJ6wnzgwzJaShdThs4QoO7p9ahK9uYxZ9cW9BV8u0q8Kjm14Eh7Z6ecWddtSqegd0l6CHTfWFizkJ6zSxp3quLnxOzbPUpzlbOdS7jjGXfBuWxOgzOp7bMIfX9IYMHfBAbW8-3KVWCEo6JwNehnzUVeQfo2H2rDsvPv_qxFzBLK4ZzZ4ZQH68qUv0Z5ee9fcV9I3H46j9PbIac28CQqjW1qrtr_Ca8T6pL4c1YRxY8bOrNM2vU8NIYvrrh0KpD8013OWCbvo8O2S0BtdapsM7nlPJJWDinbjALPzLkNDUDjoPEyMOw8gfl_LTOuoypr8MIJXmGiBLL4B_l87NmvbHWuH9TRB0VCKSkwPhuZ-R55D7DK9ATPNcg7gN3u5ysAdJMgLN_ZxvL6MlwYlSgEgZRRgkOXJri84GZECw3qnnNCkKyWew677-ZR6RSr7r8wmOaxHQhhAuy0Tf-W8dMgGpjrm5h68bw7R7UZWslqzRtuFMzx3rVTwsPvS7nyTZG_0RK25YaZP4citj8iFUTbd9r9kojTJ5Ye0t87csma9l4g2N6ykiE0Pil_5raN_L4GGKgmUJdZwfifDDWsRviV8To1WvApvhBlgcnzEwo8o1oiM6ORCqMVdkTDdj6c9HvrtYHshxijJASwm3WaOkBvav7uyjjMIyBZZxZs1W1AEM0D_pdbAQI0MgUD4GV7b9bIGOZn-IIFcM2KlrwohaTOrQ7mAVf0JRAT-4s2FHRzqBbZnDUOnvtUdCvk-lhhqRRu63w2llVhxGSwWsF-SpC2KCkBG8qbNFmu5f_oUwzHysBbGxdLdOi6SqPbf3MK_r-dg7biEclRmD5WkY198XTemSkYEtQM8FP4kCClfPRU-DsLJDGDtVyvvRzhj_0G00]--></g></svg>