<svg xmlns="http://www.w3.org/2000/svg" xmlns:xlink="http://www.w3.org/1999/xlink" contentStyleType="text/css" height="2027px" preserveAspectRatio="none" style="width:1153px;height:2027px;background:#FFFFFF;" version="1.1" viewBox="0 0 1153 2027" width="1153px" zoomAndPan="magnify"><title>Use Case Diagram - Direction &amp; Gestion Affaires ACTUEL</title><defs/><g><text fill="#000000" font-family="sans-serif" font-size="14" font-weight="bold" lengthAdjust="spacing" textLength="382.7578" x="378.1211" y="24.5332">Use Case Diagram - Direction &amp; Gestion Affaires ACTUEL</text><!--cluster Syst??me Direction-Affaires ACTUEL--><g id="cluster_Syst&#195;&#168;me Direction-Affaires ACTUEL"><rect fill="#FFFFCC" height="928" rx="2.5" ry="2.5" style="stroke:#181818;stroke-width:1;" width="1004" x="143" y="184.6094"/><text fill="#000000" font-family="sans-serif" font-size="14" font-weight="bold" lengthAdjust="spacing" textLength="246.5996" x="521.7002" y="201.1426">Syst&#195;&#168;me Direction-Affaires ACTUEL</text></g><!--cluster Outils (Chaos)--><g id="cluster_Outils (Chaos)"><rect fill="#FFE4E1" height="515" rx="2.5" ry="2.5" style="stroke:#181818;stroke-width:1;" width="161" x="646" y="1338.6094"/><text fill="#000000" font-family="sans-serif" font-size="14" font-weight="bold" lengthAdjust="spacing" textLength="95.6689" x="678.6655" y="1355.1426">Outils (Chaos)</text></g><g id="elem_UC1"><ellipse cx="726.6302" cy="977.5128" fill="#FFD700" rx="44.6302" ry="27.9034" style="stroke:#181818;stroke-width:0.5;"/><text fill="#000000" font-family="sans-serif" font-size="14" lengthAdjust="spacing" textLength="46.874" x="703.1932" y="972.4366">Cr&#195;&#169;er</text><text fill="#000000" font-family="sans-serif" font-size="14" lengthAdjust="spacing" textLength="32.6826" x="710.2889" y="990.046">devis</text></g><g id="elem_GMN8"><path d="M925,943.1094 L925,970.3094 L771.05,976.8794 L925,978.3094 L925,1002.1641 A0,0 0 0 0 925,1002.1641 L1130.7612,1002.1641 A0,0 0 0 0 1130.7612,1002.1641 L1130.7612,953.1094 L1120.7612,943.1094 L925,943.1094 A0,0 0 0 0 925,943.1094 " fill="#FEFFDD" style="stroke:#181818;stroke-width:0.5;"/><path d="M1120.7612,943.1094 L1120.7612,953.1094 L1130.7612,953.1094 L1120.7612,943.1094 " fill="#FEFFDD" style="stroke:#181818;stroke-width:0.5;"/><text fill="#000000" font-family="sans-serif" font-size="13" lengthAdjust="spacing" textLength="113.4517" x="931" y="961.6045">&#240;&#376;&#8221;&#180; 2h05 par devis</text><text fill="#000000" font-family="sans-serif" font-size="13" lengthAdjust="spacing" textLength="184.7612" x="931" y="977.9561">&#226;&#65533;&#176; Recherche template 30 min</text><text fill="#000000" font-family="sans-serif" font-size="13" lengthAdjust="spacing" textLength="107.6689" x="931" y="994.3076">&#240;&#376;&#8221;&#180; 100% manuel</text></g><g id="elem_UC2"><ellipse cx="726.5839" cy="880.5128" fill="#FF6B6B" rx="64.5839" ry="27.9034" style="stroke:#181818;stroke-width:0.5;"/><text fill="#000000" font-family="sans-serif" font-size="14" lengthAdjust="spacing" textLength="75.0928" x="689.0375" y="875.4366">G&#195;&#169;n&#195;&#169;rer</text><text fill="#000000" font-family="sans-serif" font-size="14" lengthAdjust="spacing" textLength="46.6895" x="703.2392" y="893.046">PPSPS</text></g><g id="elem_GMN12"><path d="M940.5,849.1094 L940.5,875.1894 L791.02,880.1794 L940.5,883.1894 L940.5,908.1641 A0,0 0 0 0 940.5,908.1641 L1115.4053,908.1641 A0,0 0 0 0 1115.4053,908.1641 L1115.4053,859.1094 L1105.4053,849.1094 L940.5,849.1094 A0,0 0 0 0 940.5,849.1094 " fill="#FEFFDD" style="stroke:#181818;stroke-width:0.5;"/><path d="M1105.4053,849.1094 L1105.4053,859.1094 L1115.4053,859.1094 L1105.4053,849.1094 " fill="#FEFFDD" style="stroke:#181818;stroke-width:0.5;"/><text fill="#000000" font-family="sans-serif" font-size="13" lengthAdjust="spacing" textLength="126.458" x="946.5" y="867.6045">&#240;&#376;&#8221;&#180; 3h00 par PPSPS</text><text fill="#000000" font-family="sans-serif" font-size="13" lengthAdjust="spacing" textLength="125.3281" x="946.5" y="883.9561">&#240;&#376;&#8221;&#180; Ctrl+F remplacer</text><text fill="#000000" font-family="sans-serif" font-size="13" lengthAdjust="spacing" textLength="153.9053" x="946.5" y="900.3076">&#240;&#376;&#8221;&#180; Risque oublis clauses</text></g><g id="elem_UC3"><ellipse cx="262.6291" cy="339.5128" fill="#FF6B6B" rx="100.6291" ry="27.9034" style="stroke:#181818;stroke-width:0.5;"/><text fill="#000000" font-family="sans-serif" font-size="14" lengthAdjust="spacing" textLength="59.917" x="232.6706" y="334.4366">Consulter</text><text fill="#000000" font-family="sans-serif" font-size="14" lengthAdjust="spacing" textLength="126.0684" x="199.5949" y="352.046">avancement affaires</text></g><g id="elem_GMN16"><path d="M624,299.1094 L624,320.7894 L362.04,335.5594 L624,328.7894 L624,341.8125 A0,0 0 0 0 624,341.8125 L828.7012,341.8125 A0,0 0 0 0 828.7012,341.8125 L828.7012,309.1094 L818.7012,299.1094 L624,299.1094 A0,0 0 0 0 624,299.1094 " fill="#FEFFDD" style="stroke:#181818;stroke-width:0.5;"/><path d="M818.7012,299.1094 L818.7012,309.1094 L828.7012,309.1094 L818.7012,299.1094 " fill="#FEFFDD" style="stroke:#181818;stroke-width:0.5;"/><text fill="#000000" font-family="sans-serif" font-size="13" lengthAdjust="spacing" textLength="183.7012" x="630" y="317.6045">&#240;&#376;&#8221;&#180; Impossible en temps r&#195;&#169;el</text><text fill="#000000" font-family="sans-serif" font-size="13" lengthAdjust="spacing" textLength="122.6177" x="630" y="333.9561">&#226;&#65533;&#176; 3h pour compiler</text></g><g id="elem_UC4"><ellipse cx="726.5278" cy="607.5128" fill="#FFD700" rx="72.0278" ry="27.9034" style="stroke:#181818;stroke-width:0.5;"/><text fill="#000000" font-family="sans-serif" font-size="14" lengthAdjust="spacing" textLength="39.6826" x="706.6865" y="602.4366">Suivre</text><text fill="#000000" font-family="sans-serif" font-size="14" lengthAdjust="spacing" textLength="85.6201" x="683.7178" y="620.046">budget affaire</text></g><g id="elem_GMN20"><path d="M167.5,584.1094 L167.5,626.8125 A0,0 0 0 0 167.5,626.8125 L357.2271,626.8125 A0,0 0 0 0 357.2271,626.8125 L357.2271,610.0194 L654.24,607.2994 L357.2271,602.0194 L357.2271,594.1094 L347.2271,584.1094 L167.5,584.1094 A0,0 0 0 0 167.5,584.1094 " fill="#FEFFDD" style="stroke:#181818;stroke-width:0.5;"/><path d="M347.2271,584.1094 L347.2271,594.1094 L357.2271,594.1094 L347.2271,584.1094 " fill="#FEFFDD" style="stroke:#181818;stroke-width:0.5;"/><text fill="#000000" font-family="sans-serif" font-size="13" lengthAdjust="spacing" textLength="168.7271" x="173.5" y="602.6045">&#240;&#376;&#8221;&#180; Donn&#195;&#169;es dispers&#195;&#169;es</text><text fill="#000000" font-family="sans-serif" font-size="13" lengthAdjust="spacing" textLength="116.854" x="173.5" y="618.9561">&#226;&#65533;&#176; 1h30 par affaire</text></g><g id="elem_UC5"><ellipse cx="726.4997" cy="1068.5128" fill="#FFD700" rx="44.4997" ry="27.9034" style="stroke:#181818;stroke-width:0.5;"/><text fill="#000000" font-family="sans-serif" font-size="14" lengthAdjust="spacing" textLength="43.5791" x="704.7102" y="1063.4366">Valider</text><text fill="#000000" font-family="sans-serif" font-size="14" lengthAdjust="spacing" textLength="46.6895" x="703.155" y="1081.046">PPSPS</text></g><g id="elem_GMN24"><path d="M958,1037.1094 L958,1063.0694 L771.05,1068.3194 L958,1071.0694 L958,1096.1641 A0,0 0 0 0 958,1096.1641 L1098.1963,1096.1641 A0,0 0 0 0 1098.1963,1096.1641 L1098.1963,1047.1094 L1088.1963,1037.1094 L958,1037.1094 A0,0 0 0 0 958,1037.1094 " fill="#FEFFDD" style="stroke:#181818;stroke-width:0.5;"/><path d="M1088.1963,1037.1094 L1088.1963,1047.1094 L1098.1963,1047.1094 L1088.1963,1037.1094 " fill="#FEFFDD" style="stroke:#181818;stroke-width:0.5;"/><text fill="#000000" font-family="sans-serif" font-size="13" lengthAdjust="spacing" textLength="95.3481" x="964" y="1055.6045">&#240;&#376;&#8221;&#180; Email Word</text><text fill="#000000" font-family="sans-serif" font-size="13" lengthAdjust="spacing" textLength="119.1963" x="964" y="1071.9561">Commentaires Word</text><text fill="#000000" font-family="sans-serif" font-size="13" lengthAdjust="spacing" textLength="64.8096" x="964" y="1088.3076">&#226;&#65533;&#176; 30 min</text></g><g id="elem_UC6"><ellipse cx="726.5174" cy="698.5128" fill="#FF6B6B" rx="66.5174" ry="27.9034" style="stroke:#181818;stroke-width:0.5;"/><text fill="#000000" font-family="sans-serif" font-size="14" lengthAdjust="spacing" textLength="72.3652" x="690.3348" y="693.4366">Rechercher</text><text fill="#000000" font-family="sans-serif" font-size="14" lengthAdjust="spacing" textLength="77.8271" x="687.6038" y="711.046">ancien devis</text></g><g id="elem_GMN28"><path d="M159,662.1094 L159,737.5156 A0,0 0 0 0 159,737.5156 L366.3418,737.5156 A0,0 0 0 0 366.3418,737.5156 L366.3418,703.3894 L659.96,698.7494 L366.3418,695.3894 L366.3418,672.1094 L356.3418,662.1094 L159,662.1094 A0,0 0 0 0 159,662.1094 " fill="#FEFFDD" style="stroke:#181818;stroke-width:0.5;"/><path d="M356.3418,662.1094 L356.3418,672.1094 L366.3418,672.1094 L356.3418,662.1094 " fill="#FEFFDD" style="stroke:#181818;stroke-width:0.5;"/><text fill="#000000" font-family="sans-serif" font-size="13" lengthAdjust="spacing" textLength="24.5591" x="165" y="680.6045">&#240;&#376;&#8221;&#180;</text><text fill="#000000" font-family="sans-serif" font-size="13" font-weight="bold" lengthAdjust="spacing" textLength="158.1709" x="193.1709" y="680.6045">RECHERCHE MANUELLE</text><text fill="#000000" font-family="sans-serif" font-size="13" lengthAdjust="spacing" textLength="108.7417" x="165" y="696.9561">200+ fichiers Word</text><text fill="#000000" font-family="sans-serif" font-size="13" lengthAdjust="spacing" textLength="135.3066" x="165" y="713.3076">Nommage incoh&#195;&#169;rent</text><text fill="#000000" font-family="sans-serif" font-size="13" lengthAdjust="spacing" textLength="120.4595" x="165" y="729.6592">&#226;&#65533;&#176; 30 min de fouille</text></g><g id="elem_UC7"><ellipse cx="262.4323" cy="520.5128" fill="#FF0000" rx="73.9323" ry="27.9034" style="stroke:#181818;stroke-width:0.5;"/><text fill="#000000" font-family="sans-serif" font-size="14" lengthAdjust="spacing" textLength="88.3135" x="218.2756" y="515.4366">T&#195;&#169;l&#195;&#169;travail</text><text fill="#000000" font-family="sans-serif" font-size="14" lengthAdjust="spacing" textLength="73.1104" x="225.8772" y="533.046">(VPN/MDE)</text></g><g id="elem_GMN32"><path d="M641,469.1094 L641,505.1794 L336.45,518.3994 L641,513.1794 L641,544.5156 A0,0 0 0 0 641,544.5156 L812.4648,544.5156 A0,0 0 0 0 812.4648,544.5156 L812.4648,479.1094 L802.4648,469.1094 L641,469.1094 A0,0 0 0 0 641,469.1094 " fill="#FEFFDD" style="stroke:#181818;stroke-width:0.5;"/><path d="M802.4648,469.1094 L802.4648,479.1094 L812.4648,479.1094 L802.4648,469.1094 " fill="#FEFFDD" style="stroke:#181818;stroke-width:0.5;"/><text fill="#000000" font-family="sans-serif" font-size="13" lengthAdjust="spacing" textLength="137.4712" x="647" y="487.6045">&#240;&#376;&#8221;&#180; 30-40s par &#195;&#169;cran</text><text fill="#000000" font-family="sans-serif" font-size="13" lengthAdjust="spacing" textLength="150.4648" x="647" y="503.9561">&#240;&#376;&#8221;&#180; Timeouts fr&#195;&#169;quents</text><text fill="#000000" font-family="sans-serif" font-size="13" lengthAdjust="spacing" textLength="99.3218" x="647" y="520.3076">&#240;&#376;&#8221;&#180; VPN + Citrix</text><text fill="#000000" font-family="sans-serif" font-size="13" lengthAdjust="spacing" textLength="129.3462" x="647" y="536.6592">&#240;&#376;&#732;&#164; Frustration 10/10</text></g><g id="elem_UC8"><ellipse cx="726.4032" cy="405.5128" fill="#FF6B6B" rx="48.9032" ry="27.9034" style="stroke:#181818;stroke-width:0.5;"/><text fill="#000000" font-family="sans-serif" font-size="14" lengthAdjust="spacing" textLength="39.6826" x="706.5619" y="400.4366">Suivre</text><text fill="#000000" font-family="sans-serif" font-size="14" lengthAdjust="spacing" textLength="52.917" x="699.9447" y="418.046">reliquats</text></g><g id="elem_GMN36"><path d="M183.5,403.1094 L183.5,445.8125 A0,0 0 0 0 183.5,445.8125 L341.7744,445.8125 A0,0 0 0 0 341.7744,445.8125 L341.7744,425.3994 L677.52,407.5794 L341.7744,417.3994 L341.7744,413.1094 L331.7744,403.1094 L183.5,403.1094 A0,0 0 0 0 183.5,403.1094 " fill="#FEFFDD" style="stroke:#181818;stroke-width:0.5;"/><path d="M331.7744,403.1094 L331.7744,413.1094 L341.7744,413.1094 L331.7744,403.1094 " fill="#FEFFDD" style="stroke:#181818;stroke-width:0.5;"/><text fill="#000000" font-family="sans-serif" font-size="13" lengthAdjust="spacing" textLength="94.6499" x="189.5" y="421.6045">&#240;&#376;&#8221;&#180; Aucun suivi</text><text fill="#000000" font-family="sans-serif" font-size="13" lengthAdjust="spacing" textLength="137.2744" x="189.5" y="437.9561">&#240;&#376;&#8221;&#180; Pertes importantes</text></g><g id="elem_UC9"><ellipse cx="262.5085" cy="248.5128" fill="#FF0000" rx="72.0085" ry="27.9034" style="stroke:#181818;stroke-width:0.5;"/><text fill="#000000" font-family="sans-serif" font-size="14" lengthAdjust="spacing" textLength="54.4688" x="235.2741" y="243.4366">Analyser</text><text fill="#000000" font-family="sans-serif" font-size="14" lengthAdjust="spacing" textLength="85.5928" x="219.7121" y="261.046">performances</text></g><g id="elem_GMN40"><path d="M660,221.1094 L660,239.4594 L334.68,247.6794 L660,247.4594 L660,263.8125 A0,0 0 0 0 660,263.8125 L793.0234,263.8125 A0,0 0 0 0 793.0234,263.8125 L793.0234,231.1094 L783.0234,221.1094 L660,221.1094 A0,0 0 0 0 660,221.1094 " fill="#FEFFDD" style="stroke:#181818;stroke-width:0.5;"/><path d="M783.0234,221.1094 L783.0234,231.1094 L793.0234,231.1094 L783.0234,221.1094 " fill="#FEFFDD" style="stroke:#181818;stroke-width:0.5;"/><text fill="#000000" font-family="sans-serif" font-size="13" lengthAdjust="spacing" textLength="90.3081" x="666" y="239.6045">&#240;&#376;&#8221;&#180; Impossible</text><text fill="#000000" font-family="sans-serif" font-size="13" lengthAdjust="spacing" textLength="112.0234" x="666" y="255.9561">Pas de dashboards</text></g><g id="elem_UC10"><ellipse cx="726.4559" cy="789.5128" fill="#F1F1F1" rx="60.4559" ry="27.9034" style="stroke:#181818;stroke-width:0.5;"/><text fill="#000000" font-family="sans-serif" font-size="14" lengthAdjust="spacing" textLength="51.3584" x="700.7767" y="784.4366">Envoyer</text><text fill="#000000" font-family="sans-serif" font-size="14" lengthAdjust="spacing" textLength="69.2549" x="691.8284" y="802.046">devis client</text></g><g id="elem_GMN44"><path d="M215.5,772.1094 L215.5,814.8125 A0,0 0 0 0 215.5,814.8125 L309.8218,814.8125 A0,0 0 0 0 309.8218,814.8125 L309.8218,797.2094 L665.73,790.1294 L309.8218,789.2094 L309.8218,782.1094 L299.8218,772.1094 L215.5,772.1094 A0,0 0 0 0 215.5,772.1094 " fill="#FEFFDD" style="stroke:#181818;stroke-width:0.5;"/><path d="M299.8218,772.1094 L299.8218,782.1094 L309.8218,782.1094 L299.8218,772.1094 " fill="#FEFFDD" style="stroke:#181818;stroke-width:0.5;"/><text fill="#000000" font-family="sans-serif" font-size="13" lengthAdjust="spacing" textLength="57.5796" x="221.5" y="790.6045">&#226;&#65533;&#176; 7 min</text><text fill="#000000" font-family="sans-serif" font-size="13" lengthAdjust="spacing" textLength="73.3218" x="221.5" y="806.9561">PDF + Email</text></g><g id="elem_Sage"><ellipse cx="726.3538" cy="1402.5128" fill="#FF0000" rx="59.3538" ry="27.9034" style="stroke:#181818;stroke-width:0.5;"/><text fill="#000000" font-family="sans-serif" font-size="14" lengthAdjust="spacing" textLength="67.6963" x="692.5056" y="1397.4366">MDE/Sage</text><text fill="#000000" font-family="sans-serif" font-size="14" lengthAdjust="spacing" textLength="54.4688" x="699.1194" y="1415.046">(Legacy)</text></g><g id="elem_Word"><ellipse cx="726.2939" cy="1560.5128" fill="#FFD700" rx="64.2939" ry="27.9034" style="stroke:#181818;stroke-width:0.5;"/><text fill="#000000" font-family="sans-serif" font-size="14" lengthAdjust="spacing" textLength="33.4482" x="709.5697" y="1555.4366">Word</text><text fill="#000000" font-family="sans-serif" font-size="14" lengthAdjust="spacing" textLength="74.6826" x="688.9526" y="1573.046">(Templates)</text></g><g id="elem_Excel"><ellipse cx="726.3417" cy="1651.5128" fill="#FFD700" rx="42.8417" ry="27.9034" style="stroke:#181818;stroke-width:0.5;"/><text fill="#000000" font-family="sans-serif" font-size="14" lengthAdjust="spacing" textLength="34.2344" x="709.2246" y="1646.4366">Excel</text><text fill="#000000" font-family="sans-serif" font-size="14" lengthAdjust="spacing" textLength="44.3447" x="704.1694" y="1664.046">(perso)</text></g><g id="elem_Dossiers"><ellipse cx="726.4988" cy="1742.5128" fill="#FF6B6B" rx="59.4988" ry="27.9034" style="stroke:#181818;stroke-width:0.5;"/><text fill="#000000" font-family="sans-serif" font-size="14" lengthAdjust="spacing" textLength="54.4551" x="699.2713" y="1737.4366">Dossiers</text><text fill="#000000" font-family="sans-serif" font-size="14" lengthAdjust="spacing" textLength="67.9014" x="692.5481" y="1755.046">Partag&#195;&#169;s</text></g><g id="elem_Email"><ellipse cx="726.6385" cy="1481.5718" fill="#F1F1F1" rx="45.6385" ry="15.4624" style="stroke:#181818;stroke-width:0.5;"/><text fill="#000000" font-family="sans-serif" font-size="14" lengthAdjust="spacing" textLength="48.248" x="701.2641" y="1485.6658">Outlook</text></g><g id="elem_VPN"><ellipse cx="726.6259" cy="1821.674" fill="#FF0000" rx="57.6259" ry="15.5646" style="stroke:#181818;stroke-width:0.5;"/><text fill="#000000" font-family="sans-serif" font-size="14" lengthAdjust="spacing" textLength="64.5586" x="691.3466" y="1826.1906">VPN/Citrix</text></g><!--entity Laurent--><g id="elem_Laurent"><ellipse cx="51.124" cy="1318.6094" fill="#FFB6C1" rx="8" ry="8" style="stroke:#181818;stroke-width:0.5;"/><path d="M51.124,1326.6094 L51.124,1353.6094 M38.124,1334.6094 L64.124,1334.6094 M51.124,1353.6094 L38.124,1368.6094 M51.124,1353.6094 L64.124,1368.6094 " fill="none" style="stroke:#181818;stroke-width:0.5;"/><text fill="#000000" font-family="sans-serif" font-size="14" lengthAdjust="spacing" textLength="47.4824" x="6" y="1384.6426">Laurent</text><text fill="#000000" font-family="sans-serif" font-size="14" lengthAdjust="spacing" textLength="90.248" x="6" y="1402.252">(Resp. Affaire)</text></g><!--entity Marie--><g id="elem_Marie"><ellipse cx="51.2207" cy="300.6094" fill="#DDA0DD" rx="8" ry="8" style="stroke:#181818;stroke-width:0.5;"/><path d="M51.2207,308.6094 L51.2207,335.6094 M38.2207,316.6094 L64.2207,316.6094 M51.2207,335.6094 L38.2207,350.6094 M51.2207,335.6094 L64.2207,350.6094 " fill="none" style="stroke:#181818;stroke-width:0.5;"/><text fill="#000000" font-family="sans-serif" font-size="14" lengthAdjust="spacing" textLength="35.0068" x="17" y="366.6426">Marie</text><text fill="#000000" font-family="sans-serif" font-size="14" lengthAdjust="spacing" textLength="68.4414" x="17" y="384.252">(Directrice)</text></g><!--entity Thomas--><g id="elem_Thomas"><ellipse cx="262.4419" cy="1507.6094" fill="#98FB98" rx="8" ry="8" style="stroke:#181818;stroke-width:0.5;"/><path d="M262.4419,1515.6094 L262.4419,1542.6094 M249.4419,1523.6094 L275.4419,1523.6094 M262.4419,1542.6094 L249.4419,1557.6094 M262.4419,1542.6094 L275.4419,1557.6094 " fill="none" style="stroke:#181818;stroke-width:0.5;"/><text fill="#000000" font-family="sans-serif" font-size="14" lengthAdjust="spacing" textLength="50.5723" x="203" y="1573.6426">Thomas</text><text fill="#000000" font-family="sans-serif" font-size="14" lengthAdjust="spacing" textLength="118.8838" x="203" y="1591.252">(Bureau &#195;&#8240;tudes)</text></g><!--entity Client--><g id="elem_Client"><ellipse cx="262.3965" cy="1164.1094" fill="#ADD8E6" rx="8" ry="8" style="stroke:#181818;stroke-width:0.5;"/><path d="M262.3965,1172.1094 L262.3965,1199.1094 M249.3965,1180.1094 L275.3965,1180.1094 M262.3965,1199.1094 L249.3965,1214.1094 M262.3965,1199.1094 L275.3965,1214.1094 " fill="none" style="stroke:#181818;stroke-width:0.5;"/><text fill="#000000" font-family="sans-serif" font-size="14" lengthAdjust="spacing" textLength="35.793" x="244.5" y="1230.1426">Client</text></g><g id="elem_GMN78"><path d="M589,44.6094 L589,169.0703 L863.792,169.0703 L863.792,54.6094 L853.792,44.6094 L589,44.6094 " fill="#FEFFDD" style="stroke:#181818;stroke-width:0.5;"/><path d="M853.792,44.6094 L853.792,54.6094 L863.792,54.6094 L853.792,44.6094 " fill="#FEFFDD" style="stroke:#181818;stroke-width:1;"/><text fill="#000000" font-family="sans-serif" font-size="13" font-weight="bold" lengthAdjust="spacing" textLength="154.5654" x="595" y="63.1045">PROBL&#195;&#710;MES MAJEURS</text><text fill="#000000" font-family="sans-serif" font-size="13" lengthAdjust="spacing" textLength="253.792" x="595" y="79.4561">&#240;&#376;&#8221;&#180; ERP Legacy ultra-lent (30-40s/&#195;&#169;cran)</text><text fill="#000000" font-family="sans-serif" font-size="13" lengthAdjust="spacing" textLength="225.0879" x="595" y="95.8076">&#240;&#376;&#8221;&#180; Recherche manuelle 200+ fichiers</text><text fill="#000000" font-family="sans-serif" font-size="13" lengthAdjust="spacing" textLength="181.3652" x="595" y="112.1592">&#240;&#376;&#8221;&#180; PPSPS 100% manuel (3h)</text><text fill="#000000" font-family="sans-serif" font-size="13" lengthAdjust="spacing" textLength="210.2788" x="595" y="128.5107">&#240;&#376;&#8221;&#180; Pas de templates automatiques</text><text fill="#000000" font-family="sans-serif" font-size="13" lengthAdjust="spacing" textLength="181.5366" x="595" y="144.8623">&#240;&#376;&#8221;&#180; Pas de visibilit&#195;&#169; direction</text><text fill="#000000" font-family="sans-serif" font-size="13" lengthAdjust="spacing" textLength="175.2017" x="595" y="161.2139">&#240;&#376;&#8221;&#180; T&#195;&#169;l&#195;&#169;travail impossible</text></g><!--link Laurent to UC1--><g id="link_Laurent_UC1"><path d="M96.26,1360.5094 C207.48,1366.7694 494.41,1376.2694 559,1312.6094 C605.14,1267.1294 548.38,1073.0794 589,1022.6094 C611.29,994.9094 645.113,984.8948 675.993,980.7648 " fill="none" id="Laurent-to-UC1" style="stroke:#181818;stroke-width:1;"/><polygon fill="#181818" points="681.94,979.9694,672.4892,977.1977,676.9841,980.6322,673.5497,985.1271,681.94,979.9694" style="stroke:#181818;stroke-width:1;"/></g><!--link Laurent to UC2--><g id="link_Laurent_UC2"><path d="M96.2,1344.9794 C106,1342.2094 116.35,1339.2894 126,1336.6094 C222.08,1309.8794 494.41,1294.5994 559,1218.6094 C642.06,1120.8894 510.5,1033.0294 589,931.6094 C607.12,908.1994 631.3703,896.9991 658.6803,890.1491 " fill="none" id="Laurent-to-UC2" style="stroke:#181818;stroke-width:1;"/><polygon fill="#181818" points="664.5,888.6894,654.7973,886.9991,659.6502,889.9058,656.7436,894.7588,664.5,888.6894" style="stroke:#181818;stroke-width:1;"/></g><!--link Laurent to UC4--><g id="link_Laurent_UC4"><path d="M57.75,1310.0494 C68.18,1233.1294 93.14,1087.2194 135,1059.6094 C213.92,1007.5494 492.21,1091.5194 559,1024.6094 C617.59,965.9094 537.73,717.7994 589,652.6094 C605.35,631.8194 625.729,621.9436 650.839,615.8536 " fill="none" id="Laurent-to-UC4" style="stroke:#181818;stroke-width:1;"/><polygon fill="#181818" points="656.67,614.4394,646.9808,612.6734,651.8109,615.6179,648.8664,620.448,656.67,614.4394" style="stroke:#181818;stroke-width:1;"/></g><!--link Laurent to UC6--><g id="link_Laurent_UC6"><path d="M51.5,1310.0494 C53.73,1248.8794 67.9,1144.5894 135,1094.6094 C210.74,1038.1994 491.4,1131.5594 559,1065.6094 C610.44,1015.4194 544.22,799.8194 589,743.6094 C606.49,721.6494 629.1104,711.5897 655.5404,705.7697 " fill="none" id="Laurent-to-UC6" style="stroke:#181818;stroke-width:1;"/><polygon fill="#181818" points="661.4,704.4794,651.7504,702.5084,656.517,705.5546,653.4708,710.3213,661.4,704.4794" style="stroke:#181818;stroke-width:1;"/></g><!--link Laurent to UC7--><g id="link_Laurent_UC7"><path d="M54.08,1310.0094 C61.56,1148.0894 89.09,625.3594 135,566.6094 C149.24,548.3794 165.6508,539.1193 187.4608,532.4693 " fill="none" id="Laurent-to-UC7" style="stroke:#181818;stroke-width:1;"/><polygon fill="#181818" points="193.2,530.7194,183.4247,529.5181,188.4174,532.1776,185.7579,537.1703,193.2,530.7194" style="stroke:#181818;stroke-width:1;"/></g><!--link Laurent to UC10--><g id="link_Laurent_UC10"><path d="M55.49,1309.7194 C62.04,1258.1394 80.87,1178.0394 135,1137.6094 C286.38,1024.5394 422.95,1237.7294 559,1106.6094 C602.79,1064.4094 550.71,881.8494 589,834.6094 C607.85,811.3494 633.1333,801.1598 660.9333,795.6798 " fill="none" id="Laurent-to-UC10" style="stroke:#181818;stroke-width:1;"/><polygon fill="#181818" points="666.82,794.5194,657.2163,792.3355,661.9144,795.4864,658.7635,800.1845,666.82,794.5194" style="stroke:#181818;stroke-width:1;"/></g><!--link Laurent to Sage--><g id="link_Laurent_Sage"><path d="M96.05,1386.0094 C108.2,1392.4094 121.71,1398.2894 135,1401.6094 C326.47,1449.3894 557.9361,1426.6981 663.9261,1412.0981 " fill="none" id="Laurent-to-Sage" style="stroke:#181818;stroke-width:1;stroke-dasharray:7.0,7.0;"/><polygon fill="#181818" points="669.87,1411.2794,660.4083,1408.5449,664.9168,1411.9617,661.5,1416.4701,669.87,1411.2794" style="stroke:#181818;stroke-width:1;"/><text fill="#000000" font-family="sans-serif" font-size="13" lengthAdjust="spacing" textLength="33.2363" x="246" y="1398.1045">utilise</text></g><!--link Laurent to Word--><g id="link_Laurent_Word"><path d="M56.1,1405.1194 C64.68,1492.0594 87.79,1671.2594 135,1708.6094 C215.52,1772.3094 265.4,1729.0894 366,1708.6094 C457.32,1690.0094 477.49,1671.7994 559,1626.6094 C573.23,1618.7194 574.45,1612.8994 589,1605.6094 C614.77,1592.6994 639.3163,1583.9707 664.8163,1576.4307 " fill="none" id="Laurent-to-Word" style="stroke:#181818;stroke-width:1;stroke-dasharray:7.0,7.0;"/><polygon fill="#181818" points="670.57,1574.7294,660.8052,1573.4455,665.7752,1576.1471,663.0736,1581.1172,670.57,1574.7294" style="stroke:#181818;stroke-width:1;"/><text fill="#000000" font-family="sans-serif" font-size="13" lengthAdjust="spacing" textLength="33.2363" x="246" y="1705.1045">utilise</text></g><!--link Laurent to Excel--><g id="link_Laurent_Excel"><path d="M54.33,1405.4294 C60.22,1503.7394 79.44,1723.1394 135,1768.6094 C214.46,1833.6194 264.43,1783.5394 366,1768.6094 C454.61,1755.5794 475.31,1742.5194 559,1710.6094 C572.75,1705.3694 575.32,1702.0294 589,1696.6094 C621.59,1683.6894 653.7834,1673.1478 681.3834,1664.6878 " fill="none" id="Laurent-to-Excel" style="stroke:#181818;stroke-width:1;stroke-dasharray:7.0,7.0;"/><polygon fill="#181818" points="687.12,1662.9294,677.3429,1661.7426,682.3395,1664.3947,679.6874,1669.3913,687.12,1662.9294" style="stroke:#181818;stroke-width:1;"/><text fill="#000000" font-family="sans-serif" font-size="13" lengthAdjust="spacing" textLength="33.2363" x="246" y="1765.1045">utilise</text></g><!--link Laurent to Dossiers--><g id="link_Laurent_Dossiers"><path d="M52.99,1405.1494 C56.35,1513.5794 71.04,1773.9594 135,1827.6094 C217.03,1896.4194 545.9944,1800.4649 671.7344,1760.3049 " fill="none" id="Laurent-to-Dossiers" style="stroke:#181818;stroke-width:1;stroke-dasharray:7.0,7.0;"/><polygon fill="#181818" points="677.45,1758.4794,667.6597,1757.4072,672.687,1760.0006,670.0937,1765.028,677.45,1758.4794" style="stroke:#181818;stroke-width:1;"/><text fill="#000000" font-family="sans-serif" font-size="13" lengthAdjust="spacing" textLength="33.9663" x="246" y="1824.1045">fouille</text></g><!--link Laurent to VPN--><g id="link_Laurent_VPN"><path d="M52.02,1405.4194 C53.21,1522.3794 63.37,1817.7194 135,1877.6094 C306.04,2020.6094 604.7871,1884.439 694.5471,1838.159 " fill="none" id="Laurent-to-VPN" style="stroke:#181818;stroke-width:1;stroke-dasharray:7.0,7.0;"/><polygon fill="#181818" points="699.88,1835.4094,690.0476,1835.9785,695.4359,1837.7007,693.7138,1843.0891,699.88,1835.4094" style="stroke:#181818;stroke-width:1;"/><text fill="#000000" font-family="sans-serif" font-size="13" lengthAdjust="spacing" textLength="39.7427" x="243" y="1874.1045">souffre</text></g><!--link Marie to UC3--><g id="link_Marie_UC3"><path d="M85.2,339.6094 C106.08,339.6094 128.23,339.6094 155.9,339.6094 " fill="none" id="Marie-to-UC3" style="stroke:#181818;stroke-width:1;"/><polygon fill="#181818" points="161.9,339.6094,152.9,335.6094,156.9,339.6094,152.9,343.6094,161.9,339.6094" style="stroke:#181818;stroke-width:1;"/></g><!--link Marie to UC9--><g id="link_Marie_UC9"><path d="M85.28,319.5194 C100.19,310.9494 118.18,301.1994 135,293.6094 C157.73,283.3494 177.8812,275.7363 200.2512,268.1063 " fill="none" id="Marie-to-UC9" style="stroke:#181818;stroke-width:1;"/><polygon fill="#181818" points="205.93,266.1694,196.1206,265.2889,201.1977,267.7835,198.7031,272.8606,205.93,266.1694" style="stroke:#181818;stroke-width:1;"/></g><!--link Marie to Excel--><g id="link_Marie_Excel"><path d="M54.2,387.3094 C64.94,617.9594 112.27,1607.4894 135,1629.6094 C212.47,1705.0094 556.6213,1671.872 677.9813,1657.562 " fill="none" id="Marie-to-Excel" style="stroke:#181818;stroke-width:1;stroke-dasharray:7.0,7.0;"/><polygon fill="#181818" points="683.94,1656.8594,674.5335,1653.9408,678.9744,1657.4449,675.4703,1661.8858,683.94,1656.8594" style="stroke:#181818;stroke-width:1;"/><text fill="#000000" font-family="sans-serif" font-size="13" lengthAdjust="spacing" textLength="100.4517" x="212.5" y="1626.1045">demande exports</text></g><!--link Thomas to UC5--><g id="link_Thomas_UC5"><path d="M322.06,1509.5994 C345.05,1495.1594 371.71,1478.5194 396,1463.6094 C468.04,1419.3894 500.14,1426.2794 559,1365.6094 C639.67,1282.4494 692.294,1158.1439 713.524,1101.8139 " fill="none" id="Thomas-to-UC5" style="stroke:#181818;stroke-width:1;"/><polygon fill="#181818" points="715.64,1096.1994,708.723,1103.2104,713.8766,1100.8781,716.209,1106.0318,715.64,1096.1994" style="stroke:#181818;stroke-width:1;"/></g><!--link Thomas to Word--><g id="link_Thomas_Word"><path d="M322.21,1580.8194 C344.54,1591.9994 370.71,1602.9894 396,1608.6094 C466.72,1624.3394 487.27,1618.7394 559,1608.6094 C599.51,1602.8894 638.2875,1591.6253 671.0675,1580.5153 " fill="none" id="Thomas-to-Word" style="stroke:#181818;stroke-width:1;stroke-dasharray:7.0,7.0;"/><polygon fill="#181818" points="676.75,1578.5894,666.9423,1577.69,672.0146,1580.1943,669.5102,1585.2666,676.75,1578.5894" style="stroke:#181818;stroke-width:1;"/><text fill="#000000" font-family="sans-serif" font-size="13" lengthAdjust="spacing" textLength="60.6899" x="447.5" y="1605.1045">commente</text></g><!--link Thomas to Email--><g id="link_Thomas_Email"><path d="M322.27,1527.0494 C345.06,1520.1894 371.52,1513.0794 396,1508.6094 C496.79,1490.2094 611.2226,1484.5146 674.9026,1482.6546 " fill="none" id="Thomas-to-Email" style="stroke:#181818;stroke-width:1;stroke-dasharray:7.0,7.0;"/><polygon fill="#181818" points="680.9,1482.4794,671.7871,1478.7438,675.9021,1482.6254,672.0206,1486.7404,680.9,1482.4794" style="stroke:#181818;stroke-width:1;"/><text fill="#000000" font-family="sans-serif" font-size="13" lengthAdjust="spacing" textLength="33.2363" x="461" y="1486.1045">utilise</text></g><!--reverse link Client to UC10--><g id="link_Client_UC10"><path d="M286.5386,1199.8881 C337.5286,1210.7381 483.36,1233.4194 559,1154.6094 C608.46,1103.0794 544.48,890.4594 589,834.6094 C607.66,811.1894 638.82,799.8394 666.66,794.3894 " fill="none" id="Client-backto-UC10" style="stroke:#181818;stroke-width:1;"/><polygon fill="#181818" points="280.67,1198.6394,288.6404,1204.4249,285.5605,1199.68,290.3054,1196.6001,280.67,1198.6394" style="stroke:#181818;stroke-width:1;"/></g><!--link UC1 to UC6--><g id="link_UC1_UC6"><path d="M684.42,987.2994 C630.4,996.9594 537.92,1003.5394 490,949.6094 C476.51,934.4194 463.66,849.4294 589,743.6094 C610.11,725.7794 632.6585,716.4616 658.1285,709.9216 " fill="none" id="UC1-to-UC6" style="stroke:#181818;stroke-width:1;stroke-dasharray:7.0,7.0;"/><polygon fill="#181818" points="663.94,708.4294,654.228,706.7934,659.0971,709.6729,656.2176,714.542,663.94,708.4294" style="stroke:#181818;stroke-width:1;"/><text fill="#000000" font-family="sans-serif" font-size="13" lengthAdjust="spacing" textLength="55.6563" x="450" y="946.1045">&#171;include&#187;</text></g><!--link UC2 to UC6--><g id="link_UC2_UC6"><path d="M664.07,887.8694 C608.93,890.3894 531.1,883.6794 490,833.6094 C435.41,767.0994 572.0899,728.1131 659.0799,710.4531 " fill="none" id="UC2-to-UC6" style="stroke:#181818;stroke-width:1;stroke-dasharray:7.0,7.0;"/><polygon fill="#181818" points="664.96,709.2594,655.3441,707.1299,660.06,710.2541,656.9357,714.97,664.96,709.2594" style="stroke:#181818;stroke-width:1;"/><text fill="#000000" font-family="sans-serif" font-size="13" lengthAdjust="spacing" textLength="55.6563" x="450" y="830.1045">&#171;include&#187;</text></g><!--link UC2 to UC5--><g id="link_UC2_UC5"><path d="M668.4,868.3494 C613.56,860.5594 533.46,859.6994 490,908.6094 C425.05,981.6994 594.779,1035.6551 678.779,1057.2551 " fill="none" id="UC2-to-UC5" style="stroke:#181818;stroke-width:1;stroke-dasharray:7.0,7.0;"/><polygon fill="#181818" points="684.59,1058.7494,676.8697,1052.634,679.7475,1057.5042,674.8774,1060.382,684.59,1058.7494" style="stroke:#181818;stroke-width:1;"/><text fill="#000000" font-family="sans-serif" font-size="13" lengthAdjust="spacing" textLength="55.6563" x="450" y="923.1045">&#171;include&#187;</text></g><!--link UC4 to UC8--><g id="link_UC4_UC8"><path d="M656.66,614.4994 C602.1,615.5894 529.18,606.7394 490,558.6094 C430.26,485.2194 590.111,436.74 674.571,416.77 " fill="none" id="UC4-to-UC8" style="stroke:#181818;stroke-width:1;stroke-dasharray:7.0,7.0;"/><polygon fill="#181818" points="680.41,415.3894,670.7311,413.5676,675.5442,416.5399,672.5719,421.3529,680.41,415.3894" style="stroke:#181818;stroke-width:1;"/><text fill="#000000" font-family="sans-serif" font-size="13" lengthAdjust="spacing" textLength="55.6563" x="450" y="555.1045">&#171;include&#187;</text></g><!--link UC1 to VPN--><g id="link_UC1_VPN"><path d="M682.1,980.7094 C651.57,985.2494 612.44,996.2294 589,1022.6094 C387.94,1248.8494 472.66,1448.7594 491,1543.6094 C513.18,1658.3494 500.81,1710.9294 589,1787.6094 C611.08,1806.8094 636.4083,1814.665 663.5383,1818.475 " fill="none" id="UC1-to-VPN" style="stroke:#181818;stroke-width:1;stroke-dasharray:7.0,7.0;"/><polygon fill="#181818" points="669.48,1819.3094,661.1237,1814.0966,664.5286,1818.614,660.0112,1822.0189,669.48,1819.3094" style="stroke:#181818;stroke-width:1;"/><text fill="#000000" font-family="sans-serif" font-size="13" lengthAdjust="spacing" textLength="53.4917" x="451" y="1524.1045">&#171;extend&#187;</text><text fill="#000000" font-family="sans-serif" font-size="13" lengthAdjust="spacing" textLength="39.749" x="457.8713" y="1540.4561">lenteur</text></g><!--link UC7 to Sage--><g id="link_UC7_Sage"><path d="M325.02,535.7394 C340.82,542.5894 356.12,552.4594 366,566.6094 C420.22,644.2294 361.49,903.4394 396,991.6094 C463.26,1163.4194 624.6226,1315.752 691.9126,1374.272 " fill="none" id="UC7-to-Sage" style="stroke:#181818;stroke-width:1;stroke-dasharray:7.0,7.0;"/><polygon fill="#181818" points="696.44,1378.2094,692.2738,1369.2851,692.6672,1374.9283,687.024,1375.3216,696.44,1378.2094" style="stroke:#181818;stroke-width:1;"/><text fill="#000000" font-family="sans-serif" font-size="13" lengthAdjust="spacing" textLength="53.4917" x="451.1899" y="972.1045">&#171;extend&#187;</text><text fill="#000000" font-family="sans-serif" font-size="13" lengthAdjust="spacing" textLength="161.8716" x="397" y="988.4561">performance catastrophique</text></g><!--link VPN to GMN78--><g id="link_VPN_GMN78"><path d="M674.02,1827.9894 C615.83,1831.7694 524.05,1827.2694 477.5,1770.1094 C368.89,1636.7394 384.94,367.0794 477.5,222.1094 C502.82,182.4494 545.66,156.1994 588.73,138.9094 " fill="none" id="VPN-GMN78" style="stroke:#181818;stroke-width:1;stroke-dasharray:7.0,7.0;"/></g><!--SRC=[XLRDRkCs4BxhAGO9sYOEdCYnupYB880ZozijagnX9zjBBenCMqGbqKjIGOAYm081-XJjfUYXUykXXrwA0WbwshVO5-WhT4XAigJQwS62oHaEFtxpgvYAA5n92Xx1pu2HkI0nDF6Ve85YF84luJMLvbz_DYEuBQ7lNLxvPuuJqPa2nK6mUQXWcXzn718eBc3ZZAI29kewsHfJkTZD3Mnl096G2M5pE3pjUgtyp3aHZE892q2m85Ct-x0v6FJTmI1NlWnvJ2Hgdw8jaiBpm-SFZogTKcaFMJbi7lM6fqUz_9GNCRpOADY_iDaV37f-rt7qdIIP8oSRatkfdX-UVelfaencZO8DZNuuz3putd40Kaa3JUE69_3aHogkaoczPT9STUMrjFRWq7LHDU6APhpncPRX7i3puzz_VFxmyzFli1-w1x0W0em1A_pbdx_-V7g4CGr2Al07YiQBYA2XjWinIsecMgxx1SGaIMc44ffCpQKLdAyrp4H_X0Ox6ar6ampilWRRFUsUhW2xNxkf7Rgk0MiCr8IU4j7E48J16b1H4u-PV9zIuEbDn2G44K5mSXrUZoSoZPJ6Icv94j1OUuzaJicGjrz0tgxT_YPUS2dP3JgS9ePF2TPtKONpTWWBdWe8UBnWaNd4Ie2JbDqA3D-RT3gd1R8CMAVkVvC_1bUdXcl04-CMZBGfamigf5rLGBN2jgKzksOTg7SaOjEwVmzU2CQ36Xe_9Yo2RxcO6e77OysxJOHYjw0gZyMLM8hWrIvC0im-AAT8j-wx9KNT6gX6O-nxN_jZ_C5v_mApySnlD8pIlklkm8m58KFYbWWl43UPKs19m4CRz8bQWHqHmOodB8hMKdgfZqVwemH68ekm1hqRNUoT3_pjx2c7-YckkvBWmte2kSsEAuqljSr0a7eoNxAOybH9c9dmn9H9bApf803O0OzXrRmhH9z-UleLXYAL2DHKyPQxrtB_Btu5ZTZxbAZSBxtrVkdLKFJJ84r0eY5MauoeK1Wn37DEO9LLw_Eydv3eNkeOmT2VSH7hNC-n7Br0xD7Q_3Q24Hf0vqw936yu4TEr0FpabjyNzHlBKj4ni5Ilo5-pjuoZmw8SZmP3z8b9eF9TFrHQpTjKiKZ2bXSIhZiNli_l-2riAYL865fx4mnVZBGpEYV1lGqqlLKYf53NKO-gbrcBo1gYtYqb_lAzTm7LCQmh3RUgPckLxa0pYdfOJmZwSQxZqVecbvI2fJY5Rumu_ywQpkXOLYXC7HktHgu3ENyIClKLjhp816ynDJZvzD1idfZkMLtlrzQTshfRMn_MxRd5nkxkYUNu5MWlCKah8aFeQf4bSBMiOEfLKMdAOat0Av0ydSsmh5S8C7EGOwSX2xPTMHrbgpA2ASK4mhYdTphpPDMWdP6SR5IoHWxoPUc9WQtwj2ooZM7vn8fXErivsOXrt6nQOb7dJH94UaXpz4oqQno2HewFcTq_EN7q_F6ouE0_WeuLz6e2lC-_KpIH6bH-eoNu-9XgoVJav3g9zDjIuUZ2lNHvMQDKYY0WYc15vOiGooI-svI36wuKZp6k6utH-EtfsVF3fn_F_Gbsfs_yg_74DATIKnsFm2Oou4WZI5CZW2tR2lRoDh1TERCS_UnSXyMZqkigogRRbwT0D1vMxMNrC9yZ9P0KNu3-mqV9LPfO3DaD-bfFnXzB4t-bLTLxewduMHKkAk2_]--></g></svg>