<svg xmlns="http://www.w3.org/2000/svg" xmlns:xlink="http://www.w3.org/1999/xlink" contentStyleType="text/css" height="2423px" preserveAspectRatio="none" style="width:1058px;height:2423px;background:#FFFFFF;" version="1.1" viewBox="0 0 1058 2423" width="1058px" zoomAndPan="magnify"><title>Processus Commande Mat&#233;riel - &#201;TAT ACTUEL (CHAOS)</title><defs/><g><text fill="#000000" font-family="sans-serif" font-size="14" font-weight="bold" lengthAdjust="spacing" textLength="379.1185" x="335.7052" y="29.9659">Processus Commande Mat&#233;riel - &#201;TAT ACTUEL (CHAOS)</text><line style="stroke:#181818;stroke-width:0.5;stroke-dasharray:5.0,5.0;" x1="95" x2="95" y1="143.2038" y2="2320.9791"/><line style="stroke:#181818;stroke-width:0.5;stroke-dasharray:5.0,5.0;" x1="272.626" x2="272.626" y1="143.2038" y2="2320.9791"/><line style="stroke:#181818;stroke-width:0.5;stroke-dasharray:5.0,5.0;" x1="450.4492" x2="450.4492" y1="143.2038" y2="2320.9791"/><line style="stroke:#181818;stroke-width:0.5;stroke-dasharray:5.0,5.0;" x1="633.5673" x2="633.5673" y1="143.2038" y2="2320.9791"/><line style="stroke:#181818;stroke-width:0.5;stroke-dasharray:5.0,5.0;" x1="706.9551" x2="706.9551" y1="143.2038" y2="2320.9791"/><line style="stroke:#181818;stroke-width:0.5;stroke-dasharray:5.0,5.0;" x1="765.3729" x2="765.3729" y1="143.2038" y2="2320.9791"/><line style="stroke:#181818;stroke-width:0.5;stroke-dasharray:5.0,5.0;" x1="847.3248" x2="847.3248" y1="143.2038" y2="2320.9791"/><text fill="#000000" font-family="sans-serif" font-size="14" lengthAdjust="spacing" textLength="33.0539" x="75.7739" y="120.0339">Marc</text><text fill="#000000" font-family="sans-serif" font-size="14" lengthAdjust="spacing" textLength="98.6016" x="43" y="139.1018">(Chef Chantier)</text><ellipse cx="95.3008" cy="53.5679" fill="#FFB6C1" rx="8" ry="8" style="stroke:#181818;stroke-width:0.5;"/><path d="M95.3008,61.5679 L95.3008,88.5679 M82.3008,69.5679 L108.3008,69.5679 M95.3008,88.5679 L82.3008,103.5679 M95.3008,88.5679 L108.3008,103.5679 " fill="none" style="stroke:#181818;stroke-width:0.5;"/><text fill="#000000" font-family="sans-serif" font-size="14" lengthAdjust="spacing" textLength="33.0539" x="75.7739" y="2334.945">Marc</text><text fill="#000000" font-family="sans-serif" font-size="14" lengthAdjust="spacing" textLength="98.6016" x="43" y="2354.0129">(Chef Chantier)</text><ellipse cx="95.3008" cy="2366.6149" fill="#FFB6C1" rx="8" ry="8" style="stroke:#181818;stroke-width:0.5;"/><path d="M95.3008,2374.6149 L95.3008,2401.6149 M82.3008,2382.6149 L108.3008,2382.6149 M95.3008,2401.6149 L82.3008,2416.6149 M95.3008,2401.6149 L108.3008,2416.6149 " fill="none" style="stroke:#181818;stroke-width:0.5;"/><text fill="#000000" font-family="sans-serif" font-size="14" lengthAdjust="spacing" textLength="37.0578" x="251.263" y="120.0339">Sylvie</text><text fill="#000000" font-family="sans-serif" font-size="14" lengthAdjust="spacing" textLength="52.3318" x="243.626" y="139.1018">(Achats)</text><ellipse cx="272.7919" cy="53.5679" fill="#ADD8E6" rx="8" ry="8" style="stroke:#181818;stroke-width:0.5;"/><path d="M272.7919,61.5679 L272.7919,88.5679 M259.7919,69.5679 L285.7919,69.5679 M272.7919,88.5679 L259.7919,103.5679 M272.7919,88.5679 L285.7919,103.5679 " fill="none" style="stroke:#181818;stroke-width:0.5;"/><text fill="#000000" font-family="sans-serif" font-size="14" lengthAdjust="spacing" textLength="37.0578" x="251.263" y="2334.945">Sylvie</text><text fill="#000000" font-family="sans-serif" font-size="14" lengthAdjust="spacing" textLength="52.3318" x="243.626" y="2354.0129">(Achats)</text><ellipse cx="272.7919" cy="2366.6149" fill="#ADD8E6" rx="8" ry="8" style="stroke:#181818;stroke-width:0.5;"/><path d="M272.7919,2374.6149 L272.7919,2401.6149 M259.7919,2382.6149 L285.7919,2382.6149 M272.7919,2401.6149 L259.7919,2416.6149 M272.7919,2401.6149 L285.7919,2416.6149 " fill="none" style="stroke:#181818;stroke-width:0.5;"/><text fill="#000000" font-family="sans-serif" font-size="14" lengthAdjust="spacing" textLength="23.8979" x="435.8251" y="120.0339">&#201;ric</text><text fill="#000000" font-family="sans-serif" font-size="14" lengthAdjust="spacing" textLength="48.6498" x="423.4492" y="139.1018">(D&#233;p&#244;t)</text><ellipse cx="450.7741" cy="53.5679" fill="#98FB98" rx="8" ry="8" style="stroke:#181818;stroke-width:0.5;"/><path d="M450.7741,61.5679 L450.7741,88.5679 M437.7741,69.5679 L463.7741,69.5679 M450.7741,88.5679 L437.7741,103.5679 M450.7741,88.5679 L463.7741,103.5679 " fill="none" style="stroke:#181818;stroke-width:0.5;"/><text fill="#000000" font-family="sans-serif" font-size="14" lengthAdjust="spacing" textLength="23.8979" x="435.8251" y="2334.945">&#201;ric</text><text fill="#000000" font-family="sans-serif" font-size="14" lengthAdjust="spacing" textLength="48.6498" x="423.4492" y="2354.0129">(D&#233;p&#244;t)</text><ellipse cx="450.7741" cy="2366.6149" fill="#98FB98" rx="8" ry="8" style="stroke:#181818;stroke-width:0.5;"/><path d="M450.7741,2374.6149 L450.7741,2401.6149 M437.7741,2382.6149 L463.7741,2382.6149 M450.7741,2401.6149 L437.7741,2416.6149 M450.7741,2401.6149 L463.7741,2416.6149 " fill="none" style="stroke:#181818;stroke-width:0.5;"/><rect fill="#FF6B6B" height="33.0679" rx="2.5" ry="2.5" style="stroke:#181818;stroke-width:0.5;" width="80.3877" x="593.5673" y="109.1358"/><text fill="#000000" font-family="sans-serif" font-size="14" lengthAdjust="spacing" textLength="66.3877" x="600.5673" y="131.1018">Sage MDE</text><rect fill="#FF6B6B" height="33.0679" rx="2.5" ry="2.5" style="stroke:#181818;stroke-width:0.5;" width="80.3877" x="593.5673" y="2319.9791"/><text fill="#000000" font-family="sans-serif" font-size="14" lengthAdjust="spacing" textLength="66.3877" x="600.5673" y="2341.945">Sage MDE</text><rect fill="#FFD700" height="33.0679" rx="2.5" ry="2.5" style="stroke:#181818;stroke-width:0.5;" width="47.4179" x="683.9551" y="109.1358"/><text fill="#000000" font-family="sans-serif" font-size="14" lengthAdjust="spacing" textLength="33.4179" x="690.9551" y="131.1018">Excel</text><rect fill="#FFD700" height="33.0679" rx="2.5" ry="2.5" style="stroke:#181818;stroke-width:0.5;" width="47.4179" x="683.9551" y="2319.9791"/><text fill="#000000" font-family="sans-serif" font-size="14" lengthAdjust="spacing" textLength="33.4179" x="690.9551" y="2341.945">Excel</text><rect fill="#E2E2F0" height="33.0679" rx="2.5" ry="2.5" style="stroke:#181818;stroke-width:0.5;" width="49.9519" x="741.3729" y="109.1358"/><text fill="#000000" font-family="sans-serif" font-size="14" lengthAdjust="spacing" textLength="35.9519" x="748.3729" y="131.1018">Email</text><rect fill="#E2E2F0" height="33.0679" rx="2.5" ry="2.5" style="stroke:#181818;stroke-width:0.5;" width="49.9519" x="741.3729" y="2319.9791"/><text fill="#000000" font-family="sans-serif" font-size="14" lengthAdjust="spacing" textLength="35.9519" x="748.3729" y="2341.945">Email</text><rect fill="#E2E2F0" height="33.0679" rx="2.5" ry="2.5" style="stroke:#181818;stroke-width:0.5;" width="92.1757" x="801.3248" y="109.1358"/><text fill="#000000" font-family="sans-serif" font-size="14" lengthAdjust="spacing" textLength="78.1757" x="808.3248" y="131.1018">Fournisseur</text><rect fill="#E2E2F0" height="33.0679" rx="2.5" ry="2.5" style="stroke:#181818;stroke-width:0.5;" width="92.1757" x="801.3248" y="2319.9791"/><text fill="#000000" font-family="sans-serif" font-size="14" lengthAdjust="spacing" textLength="78.1757" x="808.3248" y="2341.945">Fournisseur</text><rect fill="#EEEEEE" height="3" style="stroke:#EEEEEE;stroke-width:1;" width="1051.5288" x="0" y="175.0568"/><line style="stroke:#000000;stroke-width:1;" x1="0" x2="1051.5288" y1="175.0568" y2="175.0568"/><line style="stroke:#000000;stroke-width:1;" x1="0" x2="1051.5288" y1="178.0568" y2="178.0568"/><rect fill="#EEEEEE" height="25.706" style="stroke:#000000;stroke-width:2;" width="143.0511" x="454.2389" y="163.2038"/><text fill="#000000" font-family="sans-serif" font-size="13" font-weight="bold" lengthAdjust="spacing" textLength="125.6711" x="460.2389" y="181.1008">JOUR 1 - Lundi 9h00</text><path d="M29,203.9098 L29,248.9098 L160,248.9098 L160,213.9098 L150,203.9098 L29,203.9098 " fill="#FFAAAA" style="stroke:#181818;stroke-width:0.5;"/><path d="M150,203.9098 L150,213.9098 L160,213.9098 L150,203.9098 " fill="#FFAAAA" style="stroke:#181818;stroke-width:0.5;"/><text fill="#000000" font-family="sans-serif" font-size="13" font-weight="bold" lengthAdjust="spacing" textLength="101.5171" x="35" y="222.8068">Besoin identifi&#233;</text><text fill="#000000" font-family="sans-serif" font-size="13" lengthAdjust="spacing" textLength="110.7991" x="35" y="240.5128">C&#226;ble 3G2.5 - 50m</text><line style="stroke:#181818;stroke-width:1;" x1="95.3008" x2="137.3008" y1="283.3808" y2="283.3808"/><line style="stroke:#181818;stroke-width:1;" x1="137.3008" x2="137.3008" y1="283.3808" y2="296.3808"/><line style="stroke:#181818;stroke-width:1;" x1="96.3008" x2="137.3008" y1="296.3808" y2="296.3808"/><polygon fill="#181818" points="106.3008,292.3808,96.3008,296.3808,106.3008,300.3808,102.3008,296.3808" style="stroke:#181818;stroke-width:1;"/><text fill="#000000" font-family="sans-serif" font-size="13" lengthAdjust="spacing" textLength="120.5491" x="102.3008" y="277.5718">Cherche bon papier</text><path d="M234.5491,259.3218 L234.5491,304.3218 L428.5491,304.3218 L428.5491,269.3218 L418.5491,259.3218 L234.5491,259.3218 " fill="#FF6B6B" style="stroke:#181818;stroke-width:0.5;"/><path d="M418.5491,259.3218 L418.5491,269.3218 L428.5491,269.3218 L418.5491,259.3218 " fill="#FF6B6B" style="stroke:#181818;stroke-width:0.5;"/><text fill="#000000" font-family="sans-serif" font-size="13" lengthAdjust="spacing" textLength="173.5632" x="240.5491" y="278.2188">&#128308; Support papier uniquement</text><text fill="#000000" font-family="sans-serif" font-size="13" lengthAdjust="spacing" textLength="77.8441" x="240.5491" y="295.9248">&#9200; 5 min perdu</text><line style="stroke:#181818;stroke-width:1;" x1="95.3008" x2="137.3008" y1="338.7929" y2="338.7929"/><line style="stroke:#181818;stroke-width:1;" x1="137.3008" x2="137.3008" y1="338.7929" y2="351.7929"/><line style="stroke:#181818;stroke-width:1;" x1="96.3008" x2="137.3008" y1="351.7929" y2="351.7929"/><polygon fill="#181818" points="106.3008,347.7929,96.3008,351.7929,106.3008,355.7929,102.3008,351.7929" style="stroke:#181818;stroke-width:1;"/><text fill="#000000" font-family="sans-serif" font-size="13" lengthAdjust="spacing" textLength="133.1591" x="102.3008" y="332.9839">Remplit bon &#224; la main</text><path d="M247.1591,314.7338 L247.1591,359.7338 L424.1591,359.7338 L424.1591,324.7338 L414.1591,314.7338 L247.1591,314.7338 " fill="#FF6B6B" style="stroke:#181818;stroke-width:0.5;"/><path d="M414.1591,314.7338 L414.1591,324.7338 L424.1591,324.7338 L414.1591,314.7338 " fill="#FF6B6B" style="stroke:#181818;stroke-width:0.5;"/><text fill="#000000" font-family="sans-serif" font-size="13" lengthAdjust="spacing" textLength="127.6471" x="253.1591" y="333.6308">&#128308; R&#233;f&#233;rence impr&#233;cise</text><text fill="#000000" font-family="sans-serif" font-size="13" lengthAdjust="spacing" textLength="156.2471" x="253.1591" y="351.3369">"c&#226;ble 3G2.5" sans d&#233;tails</text><line style="stroke:#181818;stroke-width:2;" x1="254.7919" x2="264.7919" y1="395.7049" y2="405.7049"/><line style="stroke:#181818;stroke-width:2;" x1="254.7919" x2="264.7919" y1="405.7049" y2="395.7049"/><line style="stroke:#181818;stroke-width:1;" x1="95.3008" x2="259.7919" y1="400.7049" y2="400.7049"/><text fill="#000000" font-family="sans-serif" font-size="13" lengthAdjust="spacing" textLength="119.7171" x="102.3008" y="394.8959">Appel t&#233;l&#233;phonique</text><path d="M277,370.1459 L277,415.1459 L395,415.1459 L395,380.1459 L385,370.1459 L277,370.1459 " fill="#FF6B6B" style="stroke:#181818;stroke-width:0.5;"/><path d="M385,370.1459 L385,380.1459 L395,380.1459 L385,370.1459 " fill="#FF6B6B" style="stroke:#181818;stroke-width:0.5;"/><text fill="#000000" font-family="sans-serif" font-size="13" lengthAdjust="spacing" textLength="97.0061" x="283" y="389.0429">&#128308; Pas de r&#233;ponse</text><text fill="#000000" font-family="sans-serif" font-size="13" lengthAdjust="spacing" textLength="66.6641" x="283" y="406.7489">En r&#233;union</text><line style="stroke:#181818;stroke-width:1;" x1="95.3008" x2="137.3008" y1="444.2639" y2="444.2639"/><line style="stroke:#181818;stroke-width:1;" x1="137.3008" x2="137.3008" y1="444.2639" y2="457.2639"/><line style="stroke:#181818;stroke-width:1;" x1="96.3008" x2="137.3008" y1="457.2639" y2="457.2639"/><polygon fill="#181818" points="106.3008,453.2639,96.3008,457.2639,106.3008,461.2639,102.3008,457.2639" style="stroke:#181818;stroke-width:1;"/><text fill="#000000" font-family="sans-serif" font-size="13" lengthAdjust="spacing" textLength="99.3071" x="102.3008" y="438.4549">Rappelle... 3 fois</text><path d="M213.3071,429.0579 L213.3071,456.0579 L359.3071,456.0579 L359.3071,439.0579 L349.3071,429.0579 L213.3071,429.0579 " fill="#FF6B6B" style="stroke:#181818;stroke-width:0.5;"/><path d="M349.3071,429.0579 L349.3071,439.0579 L359.3071,439.0579 L349.3071,429.0579 " fill="#FF6B6B" style="stroke:#181818;stroke-width:0.5;"/><text fill="#000000" font-family="sans-serif" font-size="13" lengthAdjust="spacing" textLength="125.1251" x="219.3071" y="447.9549">&#9200; 25 minutes perdues</text><polygon fill="#181818" points="260.7919,484.9699,270.7919,488.9699,260.7919,492.9699,264.7919,488.9699" style="stroke:#181818;stroke-width:1;"/><line style="stroke:#181818;stroke-width:1;" x1="95.3008" x2="266.7919" y1="488.9699" y2="488.9699"/><text fill="#000000" font-family="sans-serif" font-size="13" lengthAdjust="spacing" textLength="123.8641" x="102.3008" y="483.1609">Appel r&#233;ussi (10h45)</text><path d="M57,501.9699 L57,546.9699 L310,546.9699 L310,511.9699 L300,501.9699 L57,501.9699 " fill="#FEFFDD" style="stroke:#181818;stroke-width:0.5;"/><path d="M300,501.9699 L300,511.9699 L310,511.9699 L300,501.9699 " fill="#FEFFDD" style="stroke:#181818;stroke-width:0.5;"/><text fill="#000000" font-family="sans-serif" font-size="13" lengthAdjust="spacing" textLength="93.4831" x="111.1444" y="520.8669">&#201;change verbal</text><text fill="#000000" font-family="sans-serif" font-size="13" lengthAdjust="spacing" textLength="136.6691" x="111.1444" y="538.573">"J'ai besoin de c&#226;ble..."</text><polygon fill="#181818" points="621.7612,572.088,631.7612,576.088,621.7612,580.088,625.7612,576.088" style="stroke:#181818;stroke-width:1;"/><line style="stroke:#181818;stroke-width:1;" x1="272.7919" x2="627.7612" y1="576.088" y2="576.088"/><text fill="#000000" font-family="sans-serif" font-size="13" lengthAdjust="spacing" textLength="148.8371" x="279.7919" y="570.279">Recherche "c&#226;ble 3G2.5"</text><polygon fill="#181818" points="283.7919,668.7651,273.7919,672.7651,283.7919,676.7651,279.7919,672.7651" style="stroke:#181818;stroke-width:1;"/><line style="stroke:#181818;stroke-width:1;stroke-dasharray:2.0,2.0;" x1="277.7919" x2="632.7612" y1="672.7651" y2="672.7651"/><text fill="#000000" font-family="sans-serif" font-size="13" lengthAdjust="spacing" textLength="78.3511" x="289.7919" y="666.9561">12 r&#233;sultats !</text><path d="M638,589.088 L638,740.088 L824,740.088 L824,599.088 L814,589.088 L638,589.088 " fill="#FF6B6B" style="stroke:#181818;stroke-width:0.5;"/><path d="M814,589.088 L814,599.088 L824,599.088 L814,589.088 " fill="#FF6B6B" style="stroke:#181818;stroke-width:0.5;"/><text fill="#000000" font-family="sans-serif" font-size="13" lengthAdjust="spacing" textLength="0" x="644" y="607.985">&#128308;</text><text fill="#000000" font-family="sans-serif" font-size="13" font-weight="bold" lengthAdjust="spacing" textLength="146.4452" x="647.38" y="607.985">BASE DONN&#201;ES CHAOS</text><text fill="#000000" font-family="sans-serif" font-size="13" lengthAdjust="spacing" textLength="153.2831" x="644" y="625.691">12 r&#233;f&#233;rences diff&#233;rentes</text><text fill="#000000" font-family="sans-serif" font-size="13" lengthAdjust="spacing" textLength="136.9162" x="644" y="643.397">pour le M&#202;ME produit:</text><text fill="#000000" font-family="sans-serif" font-size="13" lengthAdjust="spacing" textLength="165.4902" x="644" y="661.103">- CABLE-3G2.5-ROUGE-50M</text><text fill="#000000" font-family="sans-serif" font-size="13" lengthAdjust="spacing" textLength="103.0901" x="644" y="678.8091">- CBL_3G25_R_50</text><text fill="#000000" font-family="sans-serif" font-size="13" lengthAdjust="spacing" textLength="134.6411" x="644" y="696.5151">- 3G2.5-CABLE-ROUGE</text><text fill="#000000" font-family="sans-serif" font-size="13" lengthAdjust="spacing" textLength="143.5851" x="644" y="714.2211">- CABLE_3G_2.5_ROUGE</text><text fill="#000000" font-family="sans-serif" font-size="13" lengthAdjust="spacing" textLength="18.018" x="644" y="731.9271">- ...</text><line style="stroke:#181818;stroke-width:1;" x1="272.7919" x2="314.7919" y1="774.7951" y2="774.7951"/><line style="stroke:#181818;stroke-width:1;" x1="314.7919" x2="314.7919" y1="774.7951" y2="787.7951"/><line style="stroke:#181818;stroke-width:1;" x1="273.7919" x2="314.7919" y1="787.7951" y2="787.7951"/><polygon fill="#181818" points="283.7919,783.7951,273.7919,787.7951,283.7919,791.7951,279.7919,787.7951" style="stroke:#181818;stroke-width:1;"/><text fill="#000000" font-family="sans-serif" font-size="13" lengthAdjust="spacing" textLength="163.9821" x="279.7919" y="768.9861">Choisit une r&#233;f "au hasard"</text><path d="M454.9821,750.7361 L454.9821,795.7361 L597.9821,795.7361 L597.9821,760.7361 L587.9821,750.7361 L454.9821,750.7361 " fill="#FFD700" style="stroke:#181818;stroke-width:0.5;"/><path d="M587.9821,750.7361 L587.9821,760.7361 L597.9821,760.7361 L587.9821,750.7361 " fill="#FFD700" style="stroke:#181818;stroke-width:0.5;"/><text fill="#000000" font-family="sans-serif" font-size="13" lengthAdjust="spacing" textLength="94.3151" x="460.9821" y="769.6331">&#9888;&#65039; 40% de chance</text><text fill="#000000" font-family="sans-serif" font-size="13" lengthAdjust="spacing" textLength="122.4991" x="460.9821" y="787.3391">que ce soit la bonne</text><polygon fill="#181818" points="695.664,832.7072,705.664,836.7072,695.664,840.7072,699.664,836.7072" style="stroke:#181818;stroke-width:1;"/><line style="stroke:#181818;stroke-width:1;" x1="272.7919" x2="701.664" y1="836.7072" y2="836.7072"/><text fill="#000000" font-family="sans-serif" font-size="13" lengthAdjust="spacing" textLength="124.2541" x="279.7919" y="830.8982">Cherche fournisseur</text><path d="M712,806.1481 L712,851.1481 L861,851.1481 L861,816.1481 L851,806.1481 L712,806.1481 " fill="#FF6B6B" style="stroke:#181818;stroke-width:0.5;"/><path d="M851,806.1481 L851,816.1481 L861,816.1481 L851,806.1481 " fill="#FF6B6B" style="stroke:#181818;stroke-width:0.5;"/><text fill="#000000" font-family="sans-serif" font-size="13" lengthAdjust="spacing" textLength="128.0111" x="718" y="825.0452">&#128308; Donn&#233;es &#233;parpill&#233;es</text><text fill="#000000" font-family="sans-serif" font-size="13" lengthAdjust="spacing" textLength="37.739" x="718" y="842.7512">&#9200; 8 min</text><polygon fill="#181818" points="835.4127,888.1192,845.4127,892.1192,835.4127,896.1192,839.4127,892.1192" style="stroke:#181818;stroke-width:1;"/><line style="stroke:#181818;stroke-width:1;" x1="272.7919" x2="841.4127" y1="892.1192" y2="892.1192"/><text fill="#000000" font-family="sans-serif" font-size="13" lengthAdjust="spacing" textLength="119.7171" x="279.7919" y="886.3102">Appel t&#233;l&#233;phonique</text><path d="M852,861.5602 L852,906.5602 L1041,906.5602 L1041,871.5602 L1031,861.5602 L852,861.5602 " fill="#FF6B6B" style="stroke:#181818;stroke-width:0.5;"/><path d="M1031,861.5602 L1031,871.5602 L1041,871.5602 L1031,861.5602 " fill="#FF6B6B" style="stroke:#181818;stroke-width:0.5;"/><text fill="#000000" font-family="sans-serif" font-size="13" lengthAdjust="spacing" textLength="168.1161" x="858" y="880.4572">&#128308; Pas de commande en ligne</text><text fill="#000000" font-family="sans-serif" font-size="13" lengthAdjust="spacing" textLength="129.2331" x="858" y="898.1632">&#9200; 15 min au t&#233;l&#233;phone</text><polygon fill="#181818" points="283.7919,931.6782,273.7919,935.6782,283.7919,939.6782,279.7919,935.6782" style="stroke:#181818;stroke-width:1;"/><line style="stroke:#181818;stroke-width:1;stroke-dasharray:2.0,2.0;" x1="277.7919" x2="846.4127" y1="935.6782" y2="935.6782"/><text fill="#000000" font-family="sans-serif" font-size="13" lengthAdjust="spacing" textLength="103.5581" x="289.7919" y="929.8692">"Dispo sous 48h"</text><polygon fill="#181818" points="754.3489,1010.6493,764.3489,1014.6493,754.3489,1018.6493,758.3489,1014.6493" style="stroke:#181818;stroke-width:1;"/><line style="stroke:#181818;stroke-width:1;" x1="272.7919" x2="760.3489" y1="1014.6493" y2="1014.6493"/><text fill="#000000" font-family="sans-serif" font-size="13" lengthAdjust="spacing" textLength="145.8601" x="279.7919" y="1008.8403">&#201;crit email confirmation</text><path d="M771,948.6782 L771,1064.6782 L936,1064.6782 L936,958.6782 L926,948.6782 L771,948.6782 " fill="#FF6B6B" style="stroke:#181818;stroke-width:0.5;"/><path d="M926,948.6782 L926,958.6782 L936,958.6782 L926,948.6782 " fill="#FF6B6B" style="stroke:#181818;stroke-width:0.5;"/><text fill="#000000" font-family="sans-serif" font-size="13" lengthAdjust="spacing" textLength="0" x="777" y="967.5752">&#128308;</text><text fill="#000000" font-family="sans-serif" font-size="13" font-weight="bold" lengthAdjust="spacing" textLength="79.9501" x="780.38" y="967.5752">RE-SAISIE #4</text><text fill="#000000" font-family="sans-serif" font-size="13" lengthAdjust="spacing" textLength="144.1701" x="777" y="985.2813">Recopie manuellement:</text><text fill="#000000" font-family="sans-serif" font-size="13" lengthAdjust="spacing" textLength="69.095" x="777" y="1002.9873">- R&#233;f&#233;rence</text><text fill="#000000" font-family="sans-serif" font-size="13" lengthAdjust="spacing" textLength="61.1521" x="777" y="1020.6933">- Quantit&#233;</text><text fill="#000000" font-family="sans-serif" font-size="13" lengthAdjust="spacing" textLength="31.031" x="777" y="1038.3993">- Prix</text><text fill="#000000" font-family="sans-serif" font-size="13" lengthAdjust="spacing" textLength="56.355" x="777" y="1056.1053">- Adresse</text><polygon fill="#181818" points="621.7612,1092.6203,631.7612,1096.6203,621.7612,1100.6203,625.7612,1096.6203" style="stroke:#181818;stroke-width:1;"/><line style="stroke:#181818;stroke-width:1;" x1="272.7919" x2="627.7612" y1="1096.6203" y2="1096.6203"/><text fill="#000000" font-family="sans-serif" font-size="13" lengthAdjust="spacing" textLength="104.5071" x="279.7919" y="1090.8113">Saisit commande</text><path d="M638,1074.9143 L638,1101.9143 L742,1101.9143 L742,1084.9143 L732,1074.9143 L638,1074.9143 " fill="#FF6B6B" style="stroke:#181818;stroke-width:0.5;"/><path d="M732,1074.9143 L732,1084.9143 L742,1084.9143 L732,1074.9143 " fill="#FF6B6B" style="stroke:#181818;stroke-width:0.5;"/><text fill="#000000" font-family="sans-serif" font-size="13" lengthAdjust="spacing" textLength="0" x="644" y="1093.8113">&#128308;</text><text fill="#000000" font-family="sans-serif" font-size="13" font-weight="bold" lengthAdjust="spacing" textLength="79.9501" x="647.38" y="1093.8113">RE-SAISIE #5</text><polygon fill="#181818" points="695.664,1130.3264,705.664,1134.3264,695.664,1138.3264,699.664,1134.3264" style="stroke:#181818;stroke-width:1;"/><line style="stroke:#181818;stroke-width:1;" x1="272.7919" x2="701.664" y1="1134.3264" y2="1134.3264"/><text fill="#000000" font-family="sans-serif" font-size="13" lengthAdjust="spacing" textLength="95.9401" x="279.7919" y="1128.5174">Saisit dans suivi</text><path d="M712,1112.6203 L712,1139.6203 L816,1139.6203 L816,1122.6203 L806,1112.6203 L712,1112.6203 " fill="#FF6B6B" style="stroke:#181818;stroke-width:0.5;"/><path d="M806,1112.6203 L806,1122.6203 L816,1122.6203 L806,1112.6203 " fill="#FF6B6B" style="stroke:#181818;stroke-width:0.5;"/><text fill="#000000" font-family="sans-serif" font-size="13" lengthAdjust="spacing" textLength="0" x="718" y="1131.5174">&#128308;</text><text fill="#000000" font-family="sans-serif" font-size="13" font-weight="bold" lengthAdjust="spacing" textLength="79.9501" x="721.38" y="1131.5174">RE-SAISIE #6</text><polygon fill="#181818" points="106.3008,1165.0324,96.3008,1169.0324,106.3008,1173.0324,102.3008,1169.0324" style="stroke:#181818;stroke-width:1;"/><line style="stroke:#181818;stroke-width:1;" x1="100.3008" x2="271.7919" y1="1169.0324" y2="1169.0324"/><text fill="#000000" font-family="sans-serif" font-size="13" lengthAdjust="spacing" textLength="153.4911" x="112.3008" y="1163.2234">SMS "Livraison mercredi"</text><rect fill="#EEEEEE" height="3" style="stroke:#EEEEEE;stroke-width:1;" width="1051.5288" x="0" y="1198.8854"/><line style="stroke:#000000;stroke-width:1;" x1="0" x2="1051.5288" y1="1198.8854" y2="1198.8854"/><line style="stroke:#000000;stroke-width:1;" x1="0" x2="1051.5288" y1="1201.8854" y2="1201.8854"/><rect fill="#EEEEEE" height="25.706" style="stroke:#000000;stroke-width:2;" width="110.4081" x="470.5604" y="1187.0324"/><text fill="#000000" font-family="sans-serif" font-size="13" font-weight="bold" lengthAdjust="spacing" textLength="93.0281" x="476.5604" y="1204.9294">JOUR 2 - Mardi</text><path d="M48,1227.7384 L48,1290.7384 L893,1290.7384 L893,1237.7384 L883,1227.7384 L48,1227.7384 " fill="#FFFFCC" style="stroke:#181818;stroke-width:0.5;"/><path d="M883,1227.7384 L883,1237.7384 L893,1237.7384 L883,1227.7384 " fill="#FFFFCC" style="stroke:#181818;stroke-width:0.5;"/><text fill="#000000" font-family="sans-serif" font-size="13" lengthAdjust="spacing" textLength="0" x="402.8232" y="1246.6354">&#9208;&#65039;</text><text fill="#000000" font-family="sans-serif" font-size="13" font-weight="bold" lengthAdjust="spacing" textLength="123.4741" x="406.2032" y="1246.6354">CHANTIER BLOQU&#201;</text><text fill="#000000" font-family="sans-serif" font-size="13" lengthAdjust="spacing" textLength="99.9181" x="402.8232" y="1264.3414">Attente livraison</text><text fill="#000000" font-family="sans-serif" font-size="13" lengthAdjust="spacing" textLength="98.2541" x="402.8232" y="1282.0474">&#128176; Co&#251;t: 800&#8364;/jour</text><polygon fill="#181818" points="260.7919,1327.4155,270.7919,1331.4155,260.7919,1335.4155,264.7919,1331.4155" style="stroke:#181818;stroke-width:1;"/><line style="stroke:#181818;stroke-width:1;" x1="95.3008" x2="266.7919" y1="1331.4155" y2="1331.4155"/><text fill="#000000" font-family="sans-serif" font-size="13" lengthAdjust="spacing" textLength="116.3371" x="102.3008" y="1325.6065">Rappelle pour suivi</text><path d="M277,1300.8564 L277,1345.8564 L400,1345.8564 L400,1310.8564 L390,1300.8564 L277,1300.8564 " fill="#FF6B6B" style="stroke:#181818;stroke-width:0.5;"/><path d="M390,1300.8564 L390,1310.8564 L400,1310.8564 L390,1300.8564 " fill="#FF6B6B" style="stroke:#181818;stroke-width:0.5;"/><text fill="#000000" font-family="sans-serif" font-size="13" lengthAdjust="spacing" textLength="102.3621" x="283" y="1319.7535">&#128308; Aucune visibilit&#233;</text><text fill="#000000" font-family="sans-serif" font-size="13" lengthAdjust="spacing" textLength="65.1691" x="283" y="1337.4595">temps r&#233;el</text><rect fill="#EEEEEE" height="3" style="stroke:#EEEEEE;stroke-width:1;" width="1051.5288" x="0" y="1373.1215"/><line style="stroke:#000000;stroke-width:1;" x1="0" x2="1051.5288" y1="1373.1215" y2="1373.1215"/><line style="stroke:#000000;stroke-width:1;" x1="0" x2="1051.5288" y1="1376.1215" y2="1376.1215"/><rect fill="#EEEEEE" height="25.706" style="stroke:#000000;stroke-width:2;" width="164.7351" x="443.3968" y="1361.2685"/><text fill="#000000" font-family="sans-serif" font-size="13" font-weight="bold" lengthAdjust="spacing" textLength="147.3551" x="449.3968" y="1379.1655">JOUR 3 - Mercredi 9h00</text><polygon fill="#181818" points="461.7741,1416.6805,451.7741,1420.6805,461.7741,1424.6805,457.7741,1420.6805" style="stroke:#181818;stroke-width:1;"/><line style="stroke:#181818;stroke-width:1;" x1="455.7741" x2="846.4127" y1="1420.6805" y2="1420.6805"/><text fill="#000000" font-family="sans-serif" font-size="13" lengthAdjust="spacing" textLength="103.2331" x="467.7741" y="1414.8715">Livraison camion</text><line style="stroke:#181818;stroke-width:1;" x1="450.7741" x2="492.7741" y1="1457.7395" y2="1457.7395"/><line style="stroke:#181818;stroke-width:1;" x1="492.7741" x2="492.7741" y1="1457.7395" y2="1470.7395"/><line style="stroke:#181818;stroke-width:1;" x1="451.7741" x2="492.7741" y1="1470.7395" y2="1470.7395"/><polygon fill="#181818" points="461.7741,1466.7395,451.7741,1470.7395,461.7741,1474.7395,457.7741,1470.7395" style="stroke:#181818;stroke-width:1;"/><text fill="#000000" font-family="sans-serif" font-size="13" lengthAdjust="spacing" textLength="168.9872" x="457.7741" y="1451.9305">Cherche bon de commande</text><path d="M637.9872,1433.6805 L637.9872,1478.6805 L810.9872,1478.6805 L810.9872,1443.6805 L800.9872,1433.6805 L637.9872,1433.6805 " fill="#FF6B6B" style="stroke:#181818;stroke-width:0.5;"/><path d="M800.9872,1433.6805 L800.9872,1443.6805 L810.9872,1443.6805 L800.9872,1433.6805 " fill="#FF6B6B" style="stroke:#181818;stroke-width:0.5;"/><text fill="#000000" font-family="sans-serif" font-size="13" lengthAdjust="spacing" textLength="152.7631" x="643.9872" y="1452.5775">&#128308; Pas de r&#233;f&#233;rence crois&#233;e</text><text fill="#000000" font-family="sans-serif" font-size="13" lengthAdjust="spacing" textLength="113.1781" x="643.9872" y="1470.2835">&#9200; 15 min &#224; chercher</text><line style="stroke:#181818;stroke-width:1;" x1="450.7741" x2="492.7741" y1="1530.8576" y2="1530.8576"/><line style="stroke:#181818;stroke-width:1;" x1="492.7741" x2="492.7741" y1="1530.8576" y2="1543.8576"/><line style="stroke:#181818;stroke-width:1;" x1="451.7741" x2="492.7741" y1="1543.8576" y2="1543.8576"/><polygon fill="#181818" points="461.7741,1539.8576,451.7741,1543.8576,461.7741,1547.8576,457.7741,1543.8576" style="stroke:#181818;stroke-width:1;"/><text fill="#000000" font-family="sans-serif" font-size="13" lengthAdjust="spacing" textLength="124.6441" x="457.7741" y="1525.0486">Compare r&#233;f&#233;rences</text><path d="M593.6441,1489.0925 L593.6441,1569.0925 L795.6441,1569.0925 L795.6441,1499.0925 L785.6441,1489.0925 L593.6441,1489.0925 " fill="#FF6B6B" style="stroke:#181818;stroke-width:0.5;"/><path d="M785.6441,1489.0925 L785.6441,1499.0925 L795.6441,1499.0925 L785.6441,1489.0925 " fill="#FF6B6B" style="stroke:#181818;stroke-width:0.5;"/><text fill="#000000" font-family="sans-serif" font-size="13" lengthAdjust="spacing" textLength="0" x="599.6441" y="1507.9896">&#128308;</text><text fill="#000000" font-family="sans-serif" font-size="13" font-weight="bold" lengthAdjust="spacing" textLength="132.3791" x="603.0241" y="1507.9896">NOMENCLATURES &#8800;</text><text fill="#000000" font-family="sans-serif" font-size="13" lengthAdjust="spacing" textLength="133.4841" x="599.6441" y="1525.6956">Bon: "CBL-3x2.5-R-50"</text><text fill="#000000" font-family="sans-serif" font-size="13" lengthAdjust="spacing" textLength="181.8572" x="599.6441" y="1543.4016">Cmd: "CABLE_3G_2.5_ROUGE"</text><text fill="#000000" font-family="sans-serif" font-size="13" lengthAdjust="spacing" textLength="106.1191" x="599.6441" y="1561.1076">C'est le m&#234;me ???</text><polygon fill="#181818" points="283.7919,1606.4756,273.7919,1610.4756,283.7919,1614.4756,279.7919,1610.4756" style="stroke:#181818;stroke-width:1;"/><line style="stroke:#181818;stroke-width:1;" x1="277.7919" x2="449.7741" y1="1610.4756" y2="1610.4756"/><text fill="#000000" font-family="sans-serif" font-size="13" lengthAdjust="spacing" textLength="106.3271" x="289.7919" y="1604.6666">Appel v&#233;rification</text><path d="M455,1579.9166 L455,1624.9166 L583,1624.9166 L583,1589.9166 L573,1579.9166 L455,1579.9166 " fill="#FF6B6B" style="stroke:#181818;stroke-width:0.5;"/><path d="M573,1579.9166 L573,1589.9166 L583,1589.9166 L573,1579.9166 " fill="#FF6B6B" style="stroke:#181818;stroke-width:0.5;"/><text fill="#000000" font-family="sans-serif" font-size="13" lengthAdjust="spacing" textLength="107.8221" x="461" y="1598.8136">&#128308; Pas de tra&#231;abilit&#233;</text><text fill="#000000" font-family="sans-serif" font-size="13" lengthAdjust="spacing" textLength="45.175" x="461" y="1616.5196">&#9200; 10 min</text><line style="stroke:#181818;stroke-width:1;" x1="450.7741" x2="492.7741" y1="1659.3877" y2="1659.3877"/><line style="stroke:#181818;stroke-width:1;" x1="492.7741" x2="492.7741" y1="1659.3877" y2="1672.3877"/><line style="stroke:#181818;stroke-width:1;" x1="451.7741" x2="492.7741" y1="1672.3877" y2="1672.3877"/><polygon fill="#181818" points="461.7741,1668.3877,451.7741,1672.3877,461.7741,1676.3877,457.7741,1672.3877" style="stroke:#181818;stroke-width:1;"/><text fill="#000000" font-family="sans-serif" font-size="13" lengthAdjust="spacing" textLength="140.7381" x="457.7741" y="1653.5787">Compte manuellement</text><path d="M609.7381,1635.3286 L609.7381,1680.3286 L704.7381,1680.3286 L704.7381,1645.3286 L694.7381,1635.3286 L609.7381,1635.3286 " fill="#FF6B6B" style="stroke:#181818;stroke-width:0.5;"/><path d="M694.7381,1635.3286 L694.7381,1645.3286 L704.7381,1645.3286 L694.7381,1635.3286 " fill="#FF6B6B" style="stroke:#181818;stroke-width:0.5;"/><text fill="#000000" font-family="sans-serif" font-size="13" lengthAdjust="spacing" textLength="74.6461" x="615.7381" y="1654.2257">&#128308; Pas de scan</text><text fill="#000000" font-family="sans-serif" font-size="13" lengthAdjust="spacing" textLength="45.175" x="615.7381" y="1671.9317">&#9200; 10 min</text><polygon fill="#181818" points="621.7612,1726.1527,631.7612,1730.1527,621.7612,1734.1527,625.7612,1730.1527" style="stroke:#181818;stroke-width:1;"/><line style="stroke:#181818;stroke-width:1;" x1="450.7741" x2="627.7612" y1="1730.1527" y2="1730.1527"/><text fill="#000000" font-family="sans-serif" font-size="13" lengthAdjust="spacing" textLength="93.6521" x="457.7741" y="1724.3437">Saisit r&#233;ception</text><path d="M638,1690.7407 L638,1753.7407 L776,1753.7407 L776,1700.7407 L766,1690.7407 L638,1690.7407 " fill="#FF6B6B" style="stroke:#181818;stroke-width:0.5;"/><path d="M766,1690.7407 L766,1700.7407 L776,1700.7407 L766,1690.7407 " fill="#FF6B6B" style="stroke:#181818;stroke-width:0.5;"/><text fill="#000000" font-family="sans-serif" font-size="13" lengthAdjust="spacing" textLength="0" x="644" y="1709.6377">&#128308;</text><text fill="#000000" font-family="sans-serif" font-size="13" font-weight="bold" lengthAdjust="spacing" textLength="79.9501" x="647.38" y="1709.6377">RE-SAISIE #7</text><text fill="#000000" font-family="sans-serif" font-size="13" lengthAdjust="spacing" textLength="117.7021" x="644" y="1727.3437">Interface complexe</text><text fill="#000000" font-family="sans-serif" font-size="13" lengthAdjust="spacing" textLength="45.175" x="644" y="1745.0497">&#9200; 20 min</text><polygon fill="#181818" points="106.3008,1778.5647,96.3008,1782.5647,106.3008,1786.5647,102.3008,1782.5647" style="stroke:#181818;stroke-width:1;"/><line style="stroke:#181818;stroke-width:1;" x1="100.3008" x2="449.7741" y1="1782.5647" y2="1782.5647"/><text fill="#000000" font-family="sans-serif" font-size="13" lengthAdjust="spacing" textLength="97.9421" x="112.3008" y="1776.7557">"Mat&#233;riel dispo"</text><rect fill="#EEEEEE" height="3" style="stroke:#EEEEEE;stroke-width:1;" width="1051.5288" x="0" y="1812.4178"/><line style="stroke:#000000;stroke-width:1;" x1="0" x2="1051.5288" y1="1812.4178" y2="1812.4178"/><line style="stroke:#000000;stroke-width:1;" x1="0" x2="1051.5288" y1="1815.4178" y2="1815.4178"/><rect fill="#EEEEEE" height="25.706" style="stroke:#000000;stroke-width:2;" width="110.4861" x="470.5214" y="1800.5647"/><text fill="#000000" font-family="sans-serif" font-size="13" font-weight="bold" lengthAdjust="spacing" textLength="93.1061" x="476.5214" y="1818.4618">JOUR 3 - 16h00</text><line style="stroke:#181818;stroke-width:1;" x1="95.3008" x2="137.3008" y1="1859.9768" y2="1859.9768"/><line style="stroke:#181818;stroke-width:1;" x1="137.3008" x2="137.3008" y1="1859.9768" y2="1872.9768"/><line style="stroke:#181818;stroke-width:1;" x1="96.3008" x2="137.3008" y1="1872.9768" y2="1872.9768"/><polygon fill="#181818" points="106.3008,1868.9768,96.3008,1872.9768,106.3008,1876.9768,102.3008,1872.9768" style="stroke:#181818;stroke-width:1;"/><text fill="#000000" font-family="sans-serif" font-size="13" lengthAdjust="spacing" textLength="115.6871" x="102.3008" y="1854.1678">R&#233;cup&#232;re au d&#233;p&#244;t</text><line style="stroke:#181818;stroke-width:1;" x1="95.3008" x2="137.3008" y1="1904.6828" y2="1904.6828"/><line style="stroke:#181818;stroke-width:1;" x1="137.3008" x2="137.3008" y1="1904.6828" y2="1917.6828"/><line style="stroke:#181818;stroke-width:1;" x1="96.3008" x2="137.3008" y1="1917.6828" y2="1917.6828"/><polygon fill="#181818" points="106.3008,1913.6828,96.3008,1917.6828,106.3008,1921.6828,102.3008,1917.6828" style="stroke:#181818;stroke-width:1;"/><text fill="#000000" font-family="sans-serif" font-size="13" lengthAdjust="spacing" textLength="138.1771" x="102.3008" y="1898.8738">D&#233;ballage sur chantier</text><path d="M5,1930.6828 L5,2028.6828 L186,2028.6828 L186,1940.6828 L176,1930.6828 L5,1930.6828 " fill="#FF0000" style="stroke:#181818;stroke-width:0.5;"/><path d="M176,1930.6828 L176,1940.6828 L186,1940.6828 L176,1930.6828 " fill="#FF0000" style="stroke:#181818;stroke-width:0.5;"/><text fill="#000000" font-family="sans-serif" font-size="13" lengthAdjust="spacing" textLength="0" x="11" y="1949.5798">&#10060;</text><text fill="#000000" font-family="sans-serif" font-size="13" font-weight="bold" lengthAdjust="spacing" textLength="92.7551" x="14.38" y="1949.5798">CATASTROPHE</text><text fill="#000000" font-family="sans-serif" font-size="13" lengthAdjust="spacing" textLength="160.0562" x="11" y="1967.2858">C'EST LE MAUVAIS C&#194;BLE !</text><text fill="#000000" font-family="sans-serif" font-size="13" lengthAdjust="spacing" textLength="3.38" x="11" y="1984.9918">&#160;</text><text fill="#000000" font-family="sans-serif" font-size="13" lengthAdjust="spacing" textLength="101.6601" x="11" y="2002.6979">&#128308; Chantier bloqu&#233;</text><text fill="#000000" font-family="sans-serif" font-size="13" lengthAdjust="spacing" textLength="156.4811" x="11" y="2020.4039">&#128557; Il faut tout recommencer</text><polygon fill="#181818" points="260.7919,2053.9189,270.7919,2057.9189,260.7919,2061.9189,264.7919,2057.9189" style="stroke:#181818;stroke-width:1;"/><line style="stroke:#181818;stroke-width:1;" x1="95.3008" x2="266.7919" y1="2057.9189" y2="2057.9189"/><text fill="#000000" font-family="sans-serif" font-size="13" lengthAdjust="spacing" textLength="85.2151" x="102.3008" y="2052.1099">Appel furieux &#129324;</text><path d="M57,2070.9189 L57,2115.9189 L310,2115.9189 L310,2080.9189 L300,2070.9189 L57,2070.9189 " fill="#FF0000" style="stroke:#181818;stroke-width:0.5;"/><path d="M300,2070.9189 L300,2080.9189 L310,2080.9189 L300,2070.9189 " fill="#FF0000" style="stroke:#181818;stroke-width:0.5;"/><text fill="#000000" font-family="sans-serif" font-size="13" lengthAdjust="spacing" textLength="0" x="93.5748" y="2089.8159">&#128557;</text><text fill="#000000" font-family="sans-serif" font-size="13" font-weight="bold" lengthAdjust="spacing" textLength="153.6212" x="96.9548" y="2089.8159">IL FAUT RECOMMENCER</text><text fill="#000000" font-family="sans-serif" font-size="13" lengthAdjust="spacing" textLength="171.8082" x="93.5748" y="2107.5219">Tout le processus &#224; refaire...</text><rect fill="#EEEEEE" height="3" style="stroke:#EEEEEE;stroke-width:1;" width="1051.5288" x="0" y="2143.1839"/><line style="stroke:#000000;stroke-width:1;" x1="0" x2="1051.5288" y1="2143.1839" y2="2143.1839"/><line style="stroke:#000000;stroke-width:1;" x1="0" x2="1051.5288" y1="2146.1839" y2="2146.1839"/><rect fill="#EEEEEE" height="25.706" style="stroke:#000000;stroke-width:2;" width="58.057" x="496.7359" y="2131.3309"/><text fill="#000000" font-family="sans-serif" font-size="13" font-weight="bold" lengthAdjust="spacing" textLength="40.677" x="502.7359" y="2149.2279">BILAN</text><path d="M48,2172.0369 L48,2305.0369 L893,2305.0369 L893,2182.0369 L883,2172.0369 L48,2172.0369 " fill="#FFCCCC" style="stroke:#181818;stroke-width:0.5;"/><path d="M883,2172.0369 L883,2182.0369 L893,2182.0369 L883,2172.0369 " fill="#FFCCCC" style="stroke:#181818;stroke-width:0.5;"/><text fill="#000000" font-family="sans-serif" font-size="13" font-weight="bold" lengthAdjust="spacing" textLength="152.6721" x="380.2487" y="2190.934">M&#201;TRIQUES PROCESSUS</text><text fill="#000000" font-family="sans-serif" font-size="13" lengthAdjust="spacing" textLength="83.0311" x="380.2487" y="2208.64">&#9200; Dur&#233;e totale:</text><text fill="#000000" font-family="sans-serif" font-size="13" font-weight="bold" lengthAdjust="spacing" textLength="51.168" x="466.6597" y="2208.64">~3 jours</text><text fill="#000000" font-family="sans-serif" font-size="13" lengthAdjust="spacing" textLength="112.4631" x="380.2487" y="2226.346">&#128222; Nombreux appels</text><text fill="#000000" font-family="sans-serif" font-size="13" lengthAdjust="spacing" textLength="119.7951" x="380.2487" y="2244.052">&#9851;&#65039; Multiples re-saisies</text><text fill="#000000" font-family="sans-serif" font-size="13" lengthAdjust="spacing" textLength="78.4811" x="380.2487" y="2261.758">&#10060; Taux erreur:</text><text fill="#000000" font-family="sans-serif" font-size="13" font-weight="bold" lengthAdjust="spacing" textLength="26.585" x="462.1097" y="2261.758">50%</text><text fill="#000000" font-family="sans-serif" font-size="13" lengthAdjust="spacing" textLength="60.1771" x="492.0748" y="2261.758">(constat&#233;)</text><text fill="#000000" font-family="sans-serif" font-size="13" lengthAdjust="spacing" textLength="75.6991" x="380.2487" y="2279.464">&#128557; Stress &#233;lev&#233;</text><text fill="#000000" font-family="sans-serif" font-size="13" lengthAdjust="spacing" textLength="101.6601" x="380.2487" y="2297.1701">&#9208;&#65039; Chantier bloqu&#233;</text><!--SRC=[dLTDRzj64BthLqnf1B65oAK_v3W6t82Yw4I1P3cYr5C1OqsjeYtubILfk9SUSdDH843RGrkWJL0KQ5saG0uv1CYH_oH_eFa9VRkaBCaVSbeV394xcjbvy-RDA1Mfp-b0HXvFaYmXEme25WuvTLYQdqd1VQfHVjgt-cJP_O7JfcNxeTLrLoeLvgMH9AF3fFT5k6oF-OZiCGjJmUMAGImXTK9BUtkDBNjjOkr-vHyB3dlB6xCqAGoBbxHaDPlRpjR4D3-LGdbkvcTn_YOjJ1syewLxstkDUzkLcCbKU296K7XcJt3hfbDuL0y8lTNOQioREISUzmjNwfCoQjurpGj60HEbaVeqVxWNPJ8KIS8pgKtqSwMokqkFkeCUhG6mTXOE1TqRcoRjxbOgOPHoYewvF8V4mb-5g5fjy2GI8OaX1t0ZaPzLgtXlvxyTeImR3zPNwt1NDuCA3uUa_5GgsaVjC-rh1v1pwOqv7KKXnIm6-4KuAPwCqtC8Y3wy-E4DkLaSHp8j3IaBnTEC1mWDW_VFNrET0bmcvdAONHkmnuFO5waEcByadn4W2XS4xULd8r29Xnud4SGoF_D4md5gU3Df6fImCA5XVfO2yUHI-9EI9JjanJ7g1dRw8COuqZai27-04e7F21j7eOxhXEe9oKVXzLao5SNdgwkhj46ZI2HNXr2ehMlOifGd1NGykSBj_ErL_2GHjBncZZVhAnSOSgUqXl_y57qIWimuEsA-GktHRIRegE0D4Yj0n3sDcQXbHwcuw0HLDA_aoJpe5TqejPdxhQshooMPdw8zwPC5m8AybkjGixk_dvywBcbTqFGjV4oA3lZ5g7W0H3YEqJ24AtJoRpeEnJ8QPYBTmK6DRAlHTchwRhLUT_30gTNDJd7IQ1_YVVsmTrWtzPl2glY6jfrwWEKX3W-dhu7FrV2KQTjZb1Yipa9DbH4PBACnIvWS6XSmq7A1ol_yyf-tpsdJlAMhW2fvgc0W8u7eg4wgUWDT4l8h8slvcVRlQAeg2p1lmbr-1aZ1PYPZuVlggUJXjgBXbR6qHFtVpl4c8u67v8id8I_3hHLg0Poc7cTJrK7dk6KqHH97m0Q3PdDxRCp1eOHsH_5T0ZckdX0v70aPi5HrwY8YzfoQQxNSbaDBcvg1u7i4YOCqXPbgOwLn1SDcr4W_FyxKo486-kb0YXFzmHfA34I-eALSfWapGUTZxrV7_HRGeVGwL5gOPE9OVApVhMly5dBcTbmosk9OmZrqEm3d91yAOpgsrf4qR36sBa-iEmM1LFozFTlMzN-ho5-jekdt-osdHursz_4WFzNeMscgUXriAGFg6t_t6jj5_YxTeMtJVF_irQTVmka2fPn8SA4NDu5XPPxgtMF0ToJyig0fPbMY-fdxCu4cAM-eb4iafiEwfErdUjNOeIbe7WiK3ojw1Ja_dvs_CytoKGFfV2nw4kg3Myvt5gPhgTgpC5q87mKGWZbloKBAx7SxphxTjlg37ZJx_UbBNR5617ameB6rZHEjlT1TGoqYmL2zlwIf-kmsJrAbuq7-Ly3f_ltxLznoVkmTgvLo9BoREhg4A9Ki_uDDowcnCI-et6Kyqlc-lpbEuh7m9lTpJQzs61x_5rcwgs5keIlaY7cQ9x7FJoOLNxykRD6-ndGR7oe9DUP9lBOr8U-59GRNpEByJ_03AZqizkYBHbYliLZuQWz8q6TUkS9VjRMQPZ7vVlbMTRxLjzn-htlmq2bsrjkEswUsGnrhy3conXBx3BJ12Z41PFBhW8xyw6ccA_hXnOz_Kykd4SjIIYFyaroraEAnl76B6cM093k1bzzVLQxPeMRkhODLgwqsxLc3FlKSkzjHpU3qT09z5Lx9pVcF8JIWv2Cc99zV7u1zezMszXTBfMrhgQnME_Zzr6iz7g3V3dfTst7TGR4dgSetCoLFo3rbFXAhLh_U82MCYRRuyEBxNsa_2ewaobCBefxsFxrJyjl1bYP08qWShoMAciKkWFhq6UovnDUaSbetRrMhj8o1cgIAIYiJEDnKpJci4pu_BdjCA_kbMfrd_oy0]--></g></svg>