<svg xmlns="http://www.w3.org/2000/svg" xmlns:xlink="http://www.w3.org/1999/xlink" contentStyleType="text/css" height="1160px" preserveAspectRatio="none" style="width:2145px;height:1160px;background:#FFFFFF;" version="1.1" viewBox="0 0 2145 1160" width="2145px" zoomAndPan="magnify"><title>Component Diagram - Architecture Syst&#232;me ACTUEL</title><defs/><g><text fill="#000000" font-family="sans-serif" font-size="14" font-weight="bold" lengthAdjust="spacing" textLength="364.9785" x="883.3538" y="24.9659">Component Diagram - Architecture Syst&#232;me ACTUEL</text><!--cluster Chantiers (5 sites)--><g id="cluster_Chantiers (5 sites)"><path d="M8.5,46.6699 L134.5195,46.6699 A3.75,3.75 0 0 1 137.0195,49.1699 L144.0195,71.7378 L682.5,71.7378 A2.5,2.5 0 0 1 685,74.2378 L685,161.1699 A2.5,2.5 0 0 1 682.5,163.6699 L8.5,163.6699 A2.5,2.5 0 0 1 6,161.1699 L6,49.1699 A2.5,2.5 0 0 1 8.5,46.6699 " fill="#FFE4E1" style="stroke:#000000;stroke-width:1.5;"/><line style="stroke:#000000;stroke-width:1.5;" x1="6" x2="144.0195" y1="71.7378" y2="71.7378"/><text fill="#000000" font-family="sans-serif" font-size="14" font-weight="bold" lengthAdjust="spacing" textLength="125.0195" x="10" y="63.6358">Chantiers (5 sites)</text></g><!--cluster Bureau Albertville--><g id="cluster_Bureau Albertville"><path d="M1187.5,55.6699 L1315.5775,55.6699 A3.75,3.75 0 0 1 1318.0775,58.1699 L1325.0775,80.7378 L1738.5,80.7378 A2.5,2.5 0 0 1 1741,83.2378 L1741,152.1699 A2.5,2.5 0 0 1 1738.5,154.6699 L1187.5,154.6699 A2.5,2.5 0 0 1 1185,152.1699 L1185,58.1699 A2.5,2.5 0 0 1 1187.5,55.6699 " fill="#E6F3FF" style="stroke:#000000;stroke-width:1.5;"/><line style="stroke:#000000;stroke-width:1.5;" x1="1185" x2="1325.0775" y1="80.7378" y2="80.7378"/><text fill="#000000" font-family="sans-serif" font-size="14" font-weight="bold" lengthAdjust="spacing" textLength="127.0775" x="1189" y="72.6358">Bureau Albertville</text></g><!--cluster D?p?t--><g id="cluster_D&#233;p&#244;t"><path d="M916.5,572.1699 L959.7378,572.1699 A3.75,3.75 0 0 1 962.2378,574.6699 L969.2378,597.2378 L1262.5,597.2378 A2.5,2.5 0 0 1 1265,599.7378 L1265,668.6699 A2.5,2.5 0 0 1 1262.5,671.1699 L916.5,671.1699 A2.5,2.5 0 0 1 914,668.6699 L914,574.6699 A2.5,2.5 0 0 1 916.5,572.1699 " fill="#E8F5E9" style="stroke:#000000;stroke-width:1.5;"/><line style="stroke:#000000;stroke-width:1.5;" x1="914" x2="969.2378" y1="597.2378" y2="597.2378"/><text fill="#000000" font-family="sans-serif" font-size="14" font-weight="bold" lengthAdjust="spacing" textLength="42.2378" x="918" y="589.1358">D&#233;p&#244;t</text></g><!--cluster Syst?me Legacy--><g id="cluster_Syst&#232;me Legacy"><path d="M954.5,773.6699 L1066.8136,773.6699 A3.75,3.75 0 0 1 1069.3136,776.1699 L1076.3136,798.7378 L1510.5,798.7378 A2.5,2.5 0 0 1 1513,801.2378 L1513,1151.1699 A2.5,2.5 0 0 1 1510.5,1153.6699 L954.5,1153.6699 A2.5,2.5 0 0 1 952,1151.1699 L952,776.1699 A2.5,2.5 0 0 1 954.5,773.6699 " fill="#FFCCCC" style="stroke:#000000;stroke-width:1.5;"/><line style="stroke:#000000;stroke-width:1.5;" x1="952" x2="1076.3136" y1="798.7378" y2="798.7378"/><text fill="#000000" font-family="sans-serif" font-size="14" font-weight="bold" lengthAdjust="spacing" textLength="111.3136" x="956" y="790.6358">Syst&#232;me Legacy</text></g><!--cluster SageMDE--><g id="cluster_SageMDE"><path d="M1151,837.6699 C1151,827.6699 1316,827.6699 1316,827.6699 C1316,827.6699 1481,827.6699 1481,837.6699 L1481,1111.6699 C1481,1121.6699 1316,1121.6699 1316,1121.6699 C1316,1121.6699 1151,1121.6699 1151,1111.6699 L1151,837.6699 " fill="#FF6B6B" style="stroke:#181818;stroke-width:1;"/><path d="M1151,837.6699 C1151,847.6699 1316,847.6699 1316,847.6699 C1316,847.6699 1481,847.6699 1481,837.6699 " fill="none" style="stroke:#181818;stroke-width:1;"/><text fill="#000000" font-family="sans-serif" font-size="14" font-weight="bold" lengthAdjust="spacing" textLength="68.3477" x="1281.8261" y="864.6358">Sage MDE</text><text fill="#000000" font-family="sans-serif" font-size="14" font-weight="bold" lengthAdjust="spacing" textLength="108.6396" x="1261.6802" y="883.7038">(Windows 2012)</text></g><!--cluster Fichiers Excel (Chaos)--><g id="cluster_Fichiers Excel (Chaos)"><path d="M1539.5,860.1699 L1689.3475,860.1699 A3.75,3.75 0 0 1 1691.8475,862.6699 L1698.8475,885.2378 L2068.5,885.2378 A2.5,2.5 0 0 1 2071,887.7378 L2071,1132.1699 A2.5,2.5 0 0 1 2068.5,1134.6699 L1539.5,1134.6699 A2.5,2.5 0 0 1 1537,1132.1699 L1537,862.6699 A2.5,2.5 0 0 1 1539.5,860.1699 " fill="#FFF9E6" style="stroke:#000000;stroke-width:1.5;"/><line style="stroke:#000000;stroke-width:1.5;" x1="1537" x2="1698.8475" y1="885.2378" y2="885.2378"/><text fill="#000000" font-family="sans-serif" font-size="14" font-weight="bold" lengthAdjust="spacing" textLength="148.8475" x="1541" y="877.1358">Fichiers Excel (Chaos)</text></g><!--cluster Communication--><g id="cluster_Communication"><path d="M157.5,232.6699 L270.1076,232.6699 A3.75,3.75 0 0 1 272.6076,235.1699 L279.6076,257.7378 L496.5,257.7378 A2.5,2.5 0 0 1 499,260.2378 L499,480.1699 A2.5,2.5 0 0 1 496.5,482.6699 L157.5,482.6699 A2.5,2.5 0 0 1 155,480.1699 L155,235.1699 A2.5,2.5 0 0 1 157.5,232.6699 " fill="#F0F0F0" style="stroke:#000000;stroke-width:1.5;"/><line style="stroke:#000000;stroke-width:1.5;" x1="155" x2="279.6076" y1="257.7378" y2="257.7378"/><text fill="#000000" font-family="sans-serif" font-size="14" font-weight="bold" lengthAdjust="spacing" textLength="111.6076" x="159" y="249.6358">Communication</text></g><!--cluster Fournisseurs (50+)--><g id="cluster_Fournisseurs (50+)"><path d="M538.4431,390.6533 C549.4487,368.4621 573.5851,361.3596 589.5785,385.1005 C606.439,363.8682 627.5235,364.1895 642.9608,386.8322 C658.6599,368.0869 676.716,365.9468 690.3033,389.2119 C705.8516,363.6034 724.9406,368.1749 740.3477,389.3629 C755.4616,361.6216 773.3535,363.5992 791.8686,385.8582 C804.0369,361.6992 819.7559,363.4373 836.4918,380.9694 C854.353,357.3368 872.9542,361.7414 888.3211,383.7988 C901.815,359.8381 923.9141,360.2192 939.9565,380.8476 C956.1479,360.394 973.9807,364.2648 986.6065,384.8963 C1000.667,357.1117 1026.4466,362.7237 1039.1465,386.2885 C1054.2509,359.4046 1075.8639,364.8256 1089.6605,387.6184 C1104.9244,359.4505 1122.0778,359.1496 1140.6992,384.411 C1156.402,364.3619 1179.1245,360.8141 1190.9856,388.4613 C1207.8387,362.744 1223.3785,366.4571 1239,389.6699 C1240.7138,388.1979 1241.8661,388.5958 1242.5566,390.6903 C1253.5432,397.9637 1252.7698,404.7553 1242.6375,412.1085 C1253.4281,417.6552 1254.3032,425.9992 1245.3458,433.9901 C1255.3985,441.4748 1255.2041,451.0467 1243.2842,456.5208 C1253.8892,471.0489 1247.6321,480.047 1232,483.6699 C1235.0538,481.898 1237.9416,483.4164 1237.7305,487.0996 C1225.2566,509.5199 1207.8449,513.5744 1189.9318,493.1707 C1172.1863,514.0804 1150.9526,512.6609 1138.4936,487.2946 C1123.7152,507.3937 1102.6844,513.8332 1088.7764,486.3845 C1077.621,513.1705 1057.9495,514.7776 1041.9303,490.8801 C1031.277,512.7982 1007.0252,517.2613 992.56,495.1549 C975.1362,524.386 953.201,521.6737 936.6652,494.2783 C922.1616,512.384 901.3829,516.1909 890.3826,490.5703 C877.1668,514.4432 855.8981,512.8538 840.8972,492.5709 C824.6747,517.8077 800.8108,516.7722 787.855,489.2845 C774.6597,515.1239 756.0012,517.2563 737.6616,494.61 C718.9442,518.2798 702.8535,516.6451 687.7322,490.9713 C670.3655,511.6399 654.4024,509.1002 639.0708,488.5677 C627.1022,511.2387 610.622,513.8508 594.4021,492.9234 C566.3175,521.645 543.4124,509.0827 531,476.6699 C532.4426,476.329 533.1055,477.2065 532.8474,478.543 C523.9175,472.7158 522.8281,463.6645 531.8113,456.9767 C519.1685,450.0661 519.3019,442.2308 529.8306,433.3755 C521.5494,428.5083 521.1465,419.7133 530.1638,415.1625 C517.3552,403.0204 521.6799,387.787 538,382.6699 C541.7954,384.9919 541.6073,387.9451 538.4431,390.6533 " fill="#E0E0E0" style="stroke:#181818;stroke-width:1;"/><text fill="#000000" font-family="sans-serif" font-size="14" font-weight="bold" lengthAdjust="spacing" textLength="127.2315" x="821.3842" y="402.6358">Fournisseurs (50+)</text></g><!--entity Marc1--><g id="elem_Marc1"><rect fill="#FFB6C1" height="39.0679" rx="2.5" ry="2.5" style="stroke:#181818;stroke-width:0.5;" width="121.8496" x="22" y="96.6699"/><text fill="#000000" font-family="sans-serif" font-size="14" lengthAdjust="spacing" textLength="101.8496" x="32" y="121.6358">Chef Chantier 1</text></g><!--entity Marc2--><g id="elem_Marc2"><rect fill="#FFB6C1" height="39.0679" rx="2.5" ry="2.5" style="stroke:#181818;stroke-width:0.5;" width="121.8496" x="390" y="96.6699"/><text fill="#000000" font-family="sans-serif" font-size="14" lengthAdjust="spacing" textLength="101.8496" x="400" y="121.6358">Chef Chantier 2</text></g><!--entity Marc3--><g id="elem_Marc3"><rect fill="#FFB6C1" height="39.0679" rx="2.5" ry="2.5" style="stroke:#181818;stroke-width:0.5;" width="121.8496" x="547" y="96.6699"/><text fill="#000000" font-family="sans-serif" font-size="14" lengthAdjust="spacing" textLength="101.8496" x="557" y="121.6358">Chef Chantier 3</text></g><g id="elem_GMN6"><path d="M179,84.6699 L179,112.1699 L144.09,116.1699 L179,120.1699 L179,147.7879 A0,0 0 0 0 179,147.7879 L355.0512,147.7879 A0,0 0 0 0 355.0512,147.7879 L355.0512,94.6699 L345.0512,84.6699 L179,84.6699 A0,0 0 0 0 179,84.6699 " fill="#FEFFDD" style="stroke:#181818;stroke-width:0.5;"/><path d="M345.0512,84.6699 L345.0512,94.6699 L355.0512,94.6699 L345.0512,84.6699 " fill="#FEFFDD" style="stroke:#181818;stroke-width:0.5;"/><text fill="#000000" font-family="sans-serif" font-size="13" lengthAdjust="spacing" textLength="113.8151" x="185" y="103.5669">&#128308; Pas d'acc&#232;s digital</text><text fill="#000000" font-family="sans-serif" font-size="13" lengthAdjust="spacing" textLength="155.0512" x="185" y="121.2729">&#128196; Bons papier uniquement</text><text fill="#000000" font-family="sans-serif" font-size="13" lengthAdjust="spacing" textLength="146.2632" x="185" y="138.9789">&#128222; T&#233;l&#233;phone uniquement</text></g><!--entity Sylvie--><g id="elem_Sylvie"><rect fill="#ADD8E6" height="39.0679" rx="2.5" ry="2.5" style="stroke:#181818;stroke-width:0.5;" width="151.9495" x="1201" y="96.6699"/><text fill="#000000" font-family="sans-serif" font-size="14" lengthAdjust="spacing" textLength="131.9495" x="1211" y="121.6358">Gestionnaire Achats</text></g><!--entity Julien--><g id="elem_Julien"><rect fill="#FFDAB9" height="39.0679" rx="2.5" ry="2.5" style="stroke:#181818;stroke-width:0.5;" width="157.7875" x="1567" y="96.6699"/><text fill="#000000" font-family="sans-serif" font-size="14" lengthAdjust="spacing" textLength="137.7875" x="1577" y="121.6358">Responsable Affaires</text></g><g id="elem_GMN12"><path d="M1388.5,93.6699 L1388.5,112.1699 L1353.13,116.1699 L1388.5,120.1699 L1388.5,139.0819 A0,0 0 0 0 1388.5,139.0819 L1531.8431,139.0819 A0,0 0 0 0 1531.8431,139.0819 L1531.8431,103.6699 L1521.8431,93.6699 L1388.5,93.6699 A0,0 0 0 0 1388.5,93.6699 " fill="#FEFFDD" style="stroke:#181818;stroke-width:0.5;"/><path d="M1521.8431,93.6699 L1521.8431,103.6699 L1531.8431,103.6699 L1521.8431,93.6699 " fill="#FEFFDD" style="stroke:#181818;stroke-width:0.5;"/><text fill="#000000" font-family="sans-serif" font-size="13" lengthAdjust="spacing" textLength="37.791" x="1394.5" y="112.5669">&#128105;&#8205;&#128188; Sylvie</text><text fill="#000000" font-family="sans-serif" font-size="13" lengthAdjust="spacing" textLength="122.3431" x="1394.5" y="130.2729">Hub central (goulot)</text></g><!--entity Eric--><g id="elem_Eric"><rect fill="#98FB98" height="39.0679" rx="2.5" ry="2.5" style="stroke:#181818;stroke-width:0.5;" width="93.2757" x="929.5" y="613.1699"/><text fill="#000000" font-family="sans-serif" font-size="14" lengthAdjust="spacing" textLength="73.2757" x="939.5" y="638.1358">Magasinier</text></g><g id="elem_GMN17"><path d="M1057.5,610.1699 L1057.5,628.6699 L1022.67,632.6699 L1057.5,636.6699 L1057.5,655.5819 A0,0 0 0 0 1057.5,655.5819 L1248.3582,655.5819 A0,0 0 0 0 1248.3582,655.5819 L1248.3582,620.1699 L1238.3582,610.1699 L1057.5,610.1699 A0,0 0 0 0 1057.5,610.1699 " fill="#FEFFDD" style="stroke:#181818;stroke-width:0.5;"/><path d="M1238.3582,610.1699 L1238.3582,620.1699 L1248.3582,620.1699 L1238.3582,610.1699 " fill="#FEFFDD" style="stroke:#181818;stroke-width:0.5;"/><text fill="#000000" font-family="sans-serif" font-size="13" lengthAdjust="spacing" textLength="25.571" x="1063.5" y="629.0669">&#128230; &#201;ric</text><text fill="#000000" font-family="sans-serif" font-size="13" lengthAdjust="spacing" textLength="169.8582" x="1063.5" y="646.7729">&#128308; 1 seul PC pour 3 personnes</text></g><g id="elem_GMN25"><path d="M968,877.6699 L968,976.2 L1124.1351,976.2 L1124.1351,887.6699 L1114.1351,877.6699 L968,877.6699 " fill="#FEFFDD" style="stroke:#181818;stroke-width:0.5;"/><path d="M1114.1351,877.6699 L1114.1351,887.6699 L1124.1351,887.6699 L1114.1351,877.6699 " fill="#FEFFDD" style="stroke:#181818;stroke-width:1;"/><text fill="#000000" font-family="sans-serif" font-size="13" lengthAdjust="spacing" textLength="0" x="974" y="896.5669">&#9888;&#65039;</text><text fill="#000000" font-family="sans-serif" font-size="13" font-weight="bold" lengthAdjust="spacing" textLength="66.0271" x="977.38" y="896.5669">OBSOL&#200;TE</text><text fill="#000000" font-family="sans-serif" font-size="13" lengthAdjust="spacing" textLength="63.83" x="974" y="914.2729">- Pas d'API</text><text fill="#000000" font-family="sans-serif" font-size="13" lengthAdjust="spacing" textLength="125.2681" x="974" y="931.9789">- Interface complexe</text><text fill="#000000" font-family="sans-serif" font-size="13" lengthAdjust="spacing" textLength="132.3271" x="974" y="949.685">- Donn&#233;es chaotiques</text><text fill="#000000" font-family="sans-serif" font-size="13" lengthAdjust="spacing" textLength="135.1351" x="974" y="967.391">- 12 r&#233;f pour 1 produit</text></g><!--entity Module Achats--><g id="elem_Module Achats"><rect fill="#F1F1F1" height="39.0679" rx="2.5" ry="2.5" style="stroke:#181818;stroke-width:0.5;" width="117.5096" x="1194" y="907.6699"/><text fill="#000000" font-family="sans-serif" font-size="14" lengthAdjust="spacing" textLength="97.5096" x="1204" y="932.6358">Module Achats</text></g><!--entity Module Stock--><g id="elem_Module Stock"><rect fill="#F1F1F1" height="39.0679" rx="2.5" ry="2.5" style="stroke:#181818;stroke-width:0.5;" width="108.9837" x="1347.5" y="907.6699"/><text fill="#000000" font-family="sans-serif" font-size="14" lengthAdjust="spacing" textLength="88.9837" x="1357.5" y="932.6358">Module Stock</text></g><!--entity Module Commandes--><g id="elem_Module Commandes"><rect fill="#F1F1F1" height="39.0679" rx="2.5" ry="2.5" style="stroke:#181818;stroke-width:0.5;" width="156.7935" x="1194.5" y="1058.6699"/><text fill="#000000" font-family="sans-serif" font-size="14" lengthAdjust="spacing" textLength="136.7935" x="1204.5" y="1083.6358">Module Commandes</text></g><!--entity Excel1--><g id="elem_Excel1"><rect fill="#FFD700" height="58.1358" rx="2.5" ry="2.5" style="stroke:#181818;stroke-width:0.5;" width="104.8817" x="1861.5" y="898.1699"/><text fill="#000000" font-family="sans-serif" font-size="14" lengthAdjust="spacing" textLength="33.4179" x="1871.5" y="923.1358">Excel</text><text fill="#000000" font-family="sans-serif" font-size="14" lengthAdjust="spacing" textLength="84.8817" x="1871.5" y="942.2038">Fournisseurs</text></g><!--entity Excel2--><g id="elem_Excel2"><rect fill="#FFD700" height="58.1358" rx="2.5" ry="2.5" style="stroke:#181818;stroke-width:0.5;" width="137.5295" x="1688" y="898.1699"/><text fill="#000000" font-family="sans-serif" font-size="14" lengthAdjust="spacing" textLength="33.4179" x="1698" y="923.1358">Excel</text><text fill="#000000" font-family="sans-serif" font-size="14" lengthAdjust="spacing" textLength="117.5295" x="1698" y="942.2038">Suivi Commandes</text></g><!--entity Excel3--><g id="elem_Excel3"><rect fill="#FFD700" height="58.1358" rx="2.5" ry="2.5" style="stroke:#181818;stroke-width:0.5;" width="99.2957" x="1553.5" y="898.1699"/><text fill="#000000" font-family="sans-serif" font-size="14" lengthAdjust="spacing" textLength="33.4179" x="1563.5" y="923.1358">Excel</text><text fill="#000000" font-family="sans-serif" font-size="14" lengthAdjust="spacing" textLength="79.2957" x="1563.5" y="942.2038">Stock D&#233;p&#244;t</text></g><!--entity Excel4--><g id="elem_Excel4"><rect fill="#FFD700" height="58.1358" rx="2.5" ry="2.5" style="stroke:#181818;stroke-width:0.5;" width="53.4179" x="2001.5" y="898.1699"/><text fill="#000000" font-family="sans-serif" font-size="14" lengthAdjust="spacing" textLength="33.4179" x="2011.5" y="923.1358">Excel</text><text fill="#000000" font-family="sans-serif" font-size="14" lengthAdjust="spacing" textLength="25.2699" x="2011.5" y="942.2038">Prix</text></g><g id="elem_GMN33"><path d="M1840,1037.6699 L1840,1118.494 A0,0 0 0 0 1840,1118.494 L1987.9452,1118.494 A0,0 0 0 0 1987.9452,1118.494 L1987.9452,1047.6699 L1977.9452,1037.6699 L1918,1037.6699 L1914,956.1999 L1910,1037.6699 L1840,1037.6699 A0,0 0 0 0 1840,1037.6699 " fill="#FEFFDD" style="stroke:#181818;stroke-width:0.5;"/><path d="M1977.9452,1037.6699 L1977.9452,1047.6699 L1987.9452,1047.6699 L1977.9452,1037.6699 " fill="#FEFFDD" style="stroke:#181818;stroke-width:0.5;"/><text fill="#000000" font-family="sans-serif" font-size="13" lengthAdjust="spacing" textLength="0" x="1846" y="1056.5669">&#128308;</text><text fill="#000000" font-family="sans-serif" font-size="13" font-weight="bold" lengthAdjust="spacing" textLength="123.5652" x="1849.38" y="1056.5669">SILOS DE DONN&#201;ES</text><text fill="#000000" font-family="sans-serif" font-size="13" lengthAdjust="spacing" textLength="66.4301" x="1846" y="1074.2729">- Doublons</text><text fill="#000000" font-family="sans-serif" font-size="13" lengthAdjust="spacing" textLength="90.0121" x="1846" y="1091.9789">- Incoh&#233;rences</text><text fill="#000000" font-family="sans-serif" font-size="13" lengthAdjust="spacing" textLength="78.1691" x="1846" y="1109.685">- Pas de sync</text></g><!--entity Tel--><g id="elem_Tel"><rect fill="#FFD700" height="39.0679" rx="2.5" ry="2.5" style="stroke:#181818;stroke-width:0.5;" width="122.7456" x="268.5" y="270.6699"/><text fill="#000000" font-family="sans-serif" font-size="14" lengthAdjust="spacing" textLength="102.7456" x="278.5" y="295.6358">T&#233;l&#233;phone/SMS</text></g><!--entity Email--><g id="elem_Email"><rect fill="#F1F1F1" height="39.0679" rx="2.5" ry="2.5" style="stroke:#181818;stroke-width:0.5;" width="55.9519" x="427" y="270.6699"/><text fill="#000000" font-family="sans-serif" font-size="14" lengthAdjust="spacing" textLength="35.9519" x="437" y="295.6358">Email</text></g><!--entity Paper--><g id="elem_Paper"><rect fill="#FF6B6B" height="39.0679" rx="2.5" ry="2.5" style="stroke:#181818;stroke-width:0.5;" width="62.2238" x="171" y="270.6699"/><text fill="#000000" font-family="sans-serif" font-size="14" lengthAdjust="spacing" textLength="42.2238" x="181" y="295.6358">Papier</text></g><g id="elem_GMN40"><path d="M264.5,421.6699 L264.5,467.0819 A0,0 0 0 0 264.5,467.0819 L395.8441,467.0819 A0,0 0 0 0 395.8441,467.0819 L395.8441,431.6699 L385.8441,421.6699 L334,421.6699 L330,309.8099 L326,421.6699 L264.5,421.6699 A0,0 0 0 0 264.5,421.6699 " fill="#FEFFDD" style="stroke:#181818;stroke-width:0.5;"/><path d="M385.8441,421.6699 L385.8441,431.6699 L395.8441,431.6699 L385.8441,421.6699 " fill="#FEFFDD" style="stroke:#181818;stroke-width:0.5;"/><text fill="#000000" font-family="sans-serif" font-size="13" lengthAdjust="spacing" textLength="110.3441" x="270.5" y="440.5669">&#128308; 15-20 appels/jour</text><text fill="#000000" font-family="sans-serif" font-size="13" lengthAdjust="spacing" textLength="104.4421" x="270.5" y="458.2729">Pas de tra&#231;abilit&#233;</text></g><!--entity F1--><g id="elem_F1"><rect fill="#F1F1F1" height="39.0679" rx="2.5" ry="2.5" style="stroke:#181818;stroke-width:0.5;" width="110.7617" x="974.5" y="424.6699"/><text fill="#000000" font-family="sans-serif" font-size="14" lengthAdjust="spacing" textLength="90.7617" x="984.5" y="449.6358">Fournisseur A</text></g><!--entity F2--><g id="elem_F2"><rect fill="#F1F1F1" height="39.0679" rx="2.5" ry="2.5" style="stroke:#181818;stroke-width:0.5;" width="110.9156" x="1120.5" y="424.6699"/><text fill="#000000" font-family="sans-serif" font-size="14" lengthAdjust="spacing" textLength="90.9156" x="1130.5" y="449.6358">Fournisseur B</text></g><!--entity F3--><g id="elem_F3"><rect fill="#F1F1F1" height="39.0679" rx="2.5" ry="2.5" style="stroke:#181818;stroke-width:0.5;" width="110.6637" x="828.5" y="424.6699"/><text fill="#000000" font-family="sans-serif" font-size="14" lengthAdjust="spacing" textLength="90.6637" x="838.5" y="449.6358">Fournisseur C</text></g><!--entity F4--><g id="elem_F4"><rect fill="#F1F1F1" height="39.0679" rx="2.5" ry="2.5" style="stroke:#181818;stroke-width:0.5;" width="96.4957" x="539" y="424.6699"/><text fill="#000000" font-family="sans-serif" font-size="14" lengthAdjust="spacing" textLength="76.4957" x="549" y="449.6358">... 47 autres</text></g><g id="elem_GMN48"><path d="M670.5,412.6699 L670.5,475.7879 L793.3421,475.7879 L793.3421,422.6699 L783.3421,412.6699 L670.5,412.6699 " fill="#FEFFDD" style="stroke:#181818;stroke-width:0.5;"/><path d="M783.3421,412.6699 L783.3421,422.6699 L793.3421,422.6699 L783.3421,412.6699 " fill="#FEFFDD" style="stroke:#181818;stroke-width:1;"/><text fill="#000000" font-family="sans-serif" font-size="13" lengthAdjust="spacing" textLength="60.19" x="676.5" y="431.5669">&#128308; Pas d'EDI</text><text fill="#000000" font-family="sans-serif" font-size="13" lengthAdjust="spacing" textLength="59.644" x="676.5" y="449.2729">&#128308; Pas d'API</text><text fill="#000000" font-family="sans-serif" font-size="13" lengthAdjust="spacing" textLength="101.8421" x="676.5" y="466.9789">&#128222; 100% t&#233;l&#233;phone</text></g><g id="elem_GMN77"><path d="M626.5,556.6699 L626.5,708.318 L837.2092,708.318 L837.2092,566.6699 L827.2092,556.6699 L626.5,556.6699 " fill="#FEFFDD" style="stroke:#181818;stroke-width:0.5;"/><path d="M827.2092,556.6699 L827.2092,566.6699 L837.2092,566.6699 L827.2092,556.6699 " fill="#FEFFDD" style="stroke:#181818;stroke-width:1;"/><text fill="#000000" font-family="sans-serif" font-size="13" font-weight="bold" lengthAdjust="spacing" textLength="177.6712" x="632.5" y="575.5669">PROBL&#200;MES ARCHITECTURE</text><text fill="#000000" font-family="sans-serif" font-size="13" lengthAdjust="spacing" textLength="174.7332" x="632.5" y="593.2729">&#128308; Aucune int&#233;gration syst&#232;me</text><text fill="#000000" font-family="sans-serif" font-size="13" lengthAdjust="spacing" textLength="189.7092" x="632.5" y="610.9789">&#128308; Sylvie = goulot d'&#233;tranglement</text><text fill="#000000" font-family="sans-serif" font-size="13" lengthAdjust="spacing" textLength="183.5342" x="632.5" y="628.685">&#128308; Donn&#233;es &#233;parpill&#233;es (6 outils)</text><text fill="#000000" font-family="sans-serif" font-size="13" lengthAdjust="spacing" textLength="104.5071" x="632.5" y="646.391">&#128308; Re-saisie 6-7 fois</text><text fill="#000000" font-family="sans-serif" font-size="13" lengthAdjust="spacing" textLength="131.9111" x="632.5" y="664.097">&#128308; Pas d'automatisation</text><text fill="#000000" font-family="sans-serif" font-size="13" lengthAdjust="spacing" textLength="165.0221" x="632.5" y="681.803">&#128308; Pas de visibilit&#233; temps r&#233;el</text><text fill="#000000" font-family="sans-serif" font-size="13" lengthAdjust="spacing" textLength="97.0061" x="632.5" y="699.509">&#128176; Co&#251;t: 910K&#8364;/an</text></g><!--link SageMDE to GMN25--><g id="link_SageMDE_GMN25"><path d="M1150.9473,927.1699 C1150.5896,927.1699 1150.2319,927.1699 1149.8742,927.1699 C1147.0128,927.1699 1144.1519,927.1699 1141.2913,927.1699 C1135.57,927.1699 1129.85,927.1699 1124.13,927.1699 " fill="none" id="SageMDE-GMN25" style="stroke:#181818;stroke-width:1;stroke-dasharray:7.0,7.0;"/></g><!--link F1 to GMN48--><g id="link_F1_GMN48"><path d="M1020.1,424.3799 C1006.13,398.9199 977.95,355.8999 939.5,338.1699 C894.7,317.5099 873.62,318.2299 828.5,338.1699 C794.36,353.2599 767.09,387.0599 750.37,412.4599 " fill="none" id="F1-GMN48" style="stroke:#181818;stroke-width:1;stroke-dasharray:7.0,7.0;"/></g><!--link Marc1 to Tel--><g id="link_Marc1_Tel"><path d="M104.01,135.6899 C118.9,147.8199 139.92,162.9799 161,171.6699 C180.18,179.5799 188.31,170.6499 207,179.6699 C252.57,201.6699 290.0534,241.0104 311.2334,266.0304 " fill="none" id="Marc1-to-Tel" style="stroke:#181818;stroke-width:1;stroke-dasharray:7.0,7.0;"/><polygon fill="#181818" points="315.11,270.6099,312.348,261.1562,311.8795,266.7937,306.2421,266.3251,315.11,270.6099" style="stroke:#181818;stroke-width:1;"/><text fill="#000000" font-family="sans-serif" font-size="13" lengthAdjust="spacing" textLength="40.196" x="261" y="203.5669">appels</text></g><!--link Marc2 to Tel--><g id="link_Marc2_Tel"><path d="M428.34,135.6799 C413.15,147.3399 392.29,161.9699 372,171.6699 C360.71,177.0699 353.15,170.1699 345,179.6699 C323.25,204.9999 323.4441,240.5204 326.2441,264.5004 " fill="none" id="Marc2-to-Tel" style="stroke:#181818;stroke-width:1;stroke-dasharray:7.0,7.0;"/><polygon fill="#181818" points="326.94,270.4599,329.8692,261.0567,326.3601,265.4936,321.9232,261.9845,326.94,270.4599" style="stroke:#181818;stroke-width:1;"/><text fill="#000000" font-family="sans-serif" font-size="13" lengthAdjust="spacing" textLength="40.196" x="346" y="203.5669">appels</text></g><!--link Marc3 to Tel--><g id="link_Marc3_Tel"><path d="M598.12,135.7799 C584.49,159.3099 557.52,198.8799 522,216.6699 C499.49,227.9399 432.4,215.3899 409,224.6699 C384.15,234.5299 365.2884,250.8746 350.5884,266.1646 " fill="none" id="Marc3-to-Tel" style="stroke:#181818;stroke-width:1;stroke-dasharray:7.0,7.0;"/><polygon fill="#181818" points="346.43,270.4899,355.5511,266.7742,349.8953,266.8855,349.784,261.2297,346.43,270.4899" style="stroke:#181818;stroke-width:1;"/><text fill="#000000" font-family="sans-serif" font-size="13" lengthAdjust="spacing" textLength="40.196" x="567" y="203.5669">appels</text></g><!--link Marc1 to Paper--><g id="link_Marc1_Paper"><path d="M89.34,135.8199 C96.92,156.6399 110.88,190.7899 129,216.6699 C143.34,237.1499 159.3192,252.9636 174.9392,266.6636 " fill="none" id="Marc1-to-Paper" style="stroke:#181818;stroke-width:1;stroke-dasharray:7.0,7.0;"/><polygon fill="#181818" points="179.45,270.6199,175.3214,261.6782,175.691,267.3229,170.0462,267.6926,179.45,270.6199" style="stroke:#181818;stroke-width:1;"/><text fill="#000000" font-family="sans-serif" font-size="13" lengthAdjust="spacing" textLength="72.8391" x="130" y="203.5669">bons papier</text></g><!--link Tel to Sylvie--><g id="link_Tel_Sylvie"><path d="M346.01,270.4799 C360.63,254.9599 383.74,233.9599 409,224.6699 C450.3,209.4799 761.33,222.0999 805,216.6699 C877.43,207.6599 893.65,195.0599 965,179.6699 C1045.33,162.3399 1131.7501,145.1942 1195.0101,132.9042 " fill="none" id="Tel-to-Sylvie" style="stroke:#181818;stroke-width:1;stroke-dasharray:7.0,7.0;"/><polygon fill="#181818" points="1200.9,131.7599,1191.3023,129.5497,1195.9918,132.7135,1192.828,137.4029,1200.9,131.7599" style="stroke:#181818;stroke-width:1;"/><text fill="#000000" font-family="sans-serif" font-size="13" lengthAdjust="spacing" textLength="90.6881" x="968.951" y="194.5669">tous les appels</text><text fill="#000000" font-family="sans-serif" font-size="13" lengthAdjust="spacing" textLength="96.5901" x="966" y="212.2729">passent par elle</text></g><!--link Sylvie to Tel--><g id="link_Sylvie_Tel"><path d="M1200.82,120.7699 C1061.31,128.0899 770.37,146.8099 675,179.6699 C645.74,189.7499 645.58,207.5399 616,216.6699 C572.01,230.2499 452.06,208.3799 409,224.6699 C383.83,234.1899 364.8269,250.7946 350.1869,266.2446 " fill="none" id="Sylvie-to-Tel" style="stroke:#181818;stroke-width:1;stroke-dasharray:7.0,7.0;"/><polygon fill="#181818" points="346.06,270.5999,355.1539,266.8183,349.4991,266.9705,349.3469,261.3157,346.06,270.5999" style="stroke:#181818;stroke-width:1;"/><text fill="#000000" font-family="sans-serif" font-size="13" lengthAdjust="spacing" textLength="120.1201" x="676" y="203.5669">appels fournisseurs</text></g><!--link Paper to Sylvie--><g id="link_Paper_Sylvie"><path d="M210.51,270.5499 C218.58,255.2899 232.25,234.6499 251,224.6699 C278.51,210.0299 362.48,229.2199 391,216.6699 C412.58,207.1799 407.3,188.8899 429,179.6699 C455.19,168.5399 656.6,173.4199 685,171.6699 C870.69,160.2299 1082.415,138.5274 1194.985,126.3074 " fill="none" id="Paper-to-Sylvie" style="stroke:#181818;stroke-width:1;stroke-dasharray:7.0,7.0;"/><polygon fill="#181818" points="1200.95,125.6599,1191.5709,122.6545,1195.9792,126.1995,1192.4342,130.6078,1200.95,125.6599" style="stroke:#181818;stroke-width:1;"/><text fill="#000000" font-family="sans-serif" font-size="13" lengthAdjust="spacing" textLength="83.1351" x="430" y="203.5669">centralisation</text></g><!--link Sylvie to SageMDE--><g id="link_Sylvie_SageMDE"><path d="M1281.53,135.8699 C1288.73,167.3299 1302,232.8899 1302,289.1699 C1302,289.1699 1302,289.1699 1302,518.1699 C1302,604.4199 1305.87,632.7199 1265,708.6699 C1250.26,736.0699 1242.39,742.9099 1215,757.6699 C1200.19,765.6499 1189.32,753.2199 1178,765.6699 C1172.055,772.2099 1167.8856,785.2511 1164.978,801.1977 C1163.5241,809.171 1162.9759,811.8997 1162.0887,820.8761 " fill="none" id="Sylvie-to-SageMDE" style="stroke:#181818;stroke-width:1;"/><polygon fill="#181818" points="1161.4985,826.847,1166.3644,818.2841,1161.9903,821.8713,1158.4032,817.4973,1161.4985,826.847" style="stroke:#181818;stroke-width:1;"/><text fill="#000000" font-family="sans-serif" font-size="13" lengthAdjust="spacing" textLength="33.787" x="1303" y="449.5669">saisie</text></g><!--link Sylvie to Excel1--><g id="link_Sylvie_Excel1"><path d="M1301.84,135.8699 C1319.99,148.4099 1345.73,163.9899 1371,171.6699 C1384.21,175.6799 1484.85,170.3099 1495,179.6699 C1600.7,277.0899 1473.43,373.3299 1542,499.6699 C1627.32,656.8699 1738.63,621.1399 1844,765.6699 C1874.45,807.4299 1893.5168,858.7773 1904.1168,892.4173 " fill="none" id="Sylvie-to-Excel1" style="stroke:#181818;stroke-width:1;"/><polygon fill="#181818" points="1905.92,898.1399,1907.0303,888.3538,1904.4173,893.371,1899.4001,890.7581,1905.92,898.1399" style="stroke:#181818;stroke-width:1;"/><text fill="#000000" font-family="sans-serif" font-size="13" lengthAdjust="spacing" textLength="33.787" x="1543" y="449.5669">saisie</text></g><!--link Sylvie to Excel2--><g id="link_Sylvie_Excel2"><path d="M1291.36,135.8299 C1300.16,147.8699 1311.19,164.1299 1319,179.6699 C1430.99,402.4799 1329.2,532.8099 1506,708.6699 C1560.71,763.0899 1611.19,715.7099 1670,765.6699 C1711.91,801.2799 1735.0851,856.6437 1746.8851,892.3037 " fill="none" id="Sylvie-to-Excel2" style="stroke:#181818;stroke-width:1;"/><polygon fill="#181818" points="1748.77,897.9999,1749.7401,888.1989,1747.1992,893.253,1742.1452,890.7121,1748.77,897.9999" style="stroke:#181818;stroke-width:1;"/><text fill="#000000" font-family="sans-serif" font-size="13" lengthAdjust="spacing" textLength="33.787" x="1394" y="449.5669">saisie</text></g><!--link Sylvie to Email--><g id="link_Sylvie_Email"><path d="M1246.88,135.6999 C1207.85,158.7699 1136.97,197.4499 1071,216.6699 C851.31,280.6899 577.8998,288.3278 489.2798,289.0978 " fill="none" id="Sylvie-to-Email" style="stroke:#181818;stroke-width:1;"/><polygon fill="#181818" points="483.28,289.1499,492.3144,293.0716,488.2798,289.1065,492.2449,285.0719,483.28,289.1499" style="stroke:#181818;stroke-width:1;"/><text fill="#000000" font-family="sans-serif" font-size="13" lengthAdjust="spacing" textLength="78.7281" x="1165" y="203.5669">confirmation</text></g><!--link Tel to F1--><g id="link_Tel_F1"><path d="M391.55,306.1699 C397.44,307.4299 403.32,308.6199 409,309.6699 C505.16,327.5099 531.28,319.6099 627,339.6699 C657.29,346.0199 663.41,353.9399 694,358.6699 C722.89,363.1399 930.3,354.7599 957,366.6699 C983.99,378.7099 1002.5435,400.8934 1015.0835,419.3934 " fill="none" id="Tel-to-F1" style="stroke:#181818;stroke-width:1;stroke-dasharray:7.0,7.0;"/><polygon fill="#181818" points="1018.45,424.3599,1016.7113,414.6657,1015.6446,420.2211,1010.0892,419.1544,1018.45,424.3599" style="stroke:#181818;stroke-width:1;"/><text fill="#000000" font-family="sans-serif" font-size="13" lengthAdjust="spacing" textLength="75.2961" x="695" y="354.5669">commandes</text></g><!--link Tel to F2--><g id="link_Tel_F2"><path d="M391.9,306.7699 C397.66,307.8799 403.42,308.8799 409,309.6699 C664.57,345.9099 739.06,275.1799 989,339.6699 C1007.67,344.4899 1009.47,353.3499 1028,358.6699 C1060.22,367.9299 1072.93,351.8599 1103,366.6699 C1129.35,379.6499 1147.8341,401.3681 1160.5741,419.5281 " fill="none" id="Tel-to-F2" style="stroke:#181818;stroke-width:1;stroke-dasharray:7.0,7.0;"/><polygon fill="#181818" points="1164.02,424.4399,1162.1258,414.7749,1161.1485,420.3467,1155.5767,419.3694,1164.02,424.4399" style="stroke:#181818;stroke-width:1;"/><text fill="#000000" font-family="sans-serif" font-size="13" lengthAdjust="spacing" textLength="75.2961" x="1029" y="354.5669">commandes</text></g><!--link Tel to F3--><g id="link_Tel_F3"><path d="M376.29,309.6899 C419.43,325.9599 485.95,348.5799 546,358.6699 C575.05,363.5499 784.1,354.6699 811,366.6699 C837.99,378.7099 856.5435,400.8934 869.0835,419.3934 " fill="none" id="Tel-to-F3" style="stroke:#181818;stroke-width:1;stroke-dasharray:7.0,7.0;"/><polygon fill="#181818" points="872.45,424.3599,870.7113,414.6657,869.6446,420.2211,864.0892,419.1544,872.45,424.3599" style="stroke:#181818;stroke-width:1;"/><text fill="#000000" font-family="sans-serif" font-size="13" lengthAdjust="spacing" textLength="75.2961" x="547" y="354.5669">commandes</text></g><!--link Email to F1--><g id="link_Email_F1"><path d="M483.02,295.3699 C588.59,311.1899 956.33,366.3199 957,366.6699 C982.9,380.1199 1001.2951,401.5028 1014.1651,419.4628 " fill="none" id="Email-to-F1" style="stroke:#181818;stroke-width:1;stroke-dasharray:7.0,7.0;"/><polygon fill="#181818" points="1017.66,424.3399,1015.6691,414.6944,1014.7476,420.2757,1009.1663,419.3542,1017.66,424.3399" style="stroke:#181818;stroke-width:1;"/><text fill="#000000" font-family="sans-serif" font-size="13" lengthAdjust="spacing" textLength="78.7281" x="905" y="354.5669">confirmation</text></g><!--link Email to F2--><g id="link_Email_F2"><path d="M483.06,291.7399 C601.72,294.3299 1058.64,306.4299 1113,339.6699 C1144.41,358.8699 1160.388,394.5061 1168.578,418.7261 " fill="none" id="Email-to-F2" style="stroke:#181818;stroke-width:1;stroke-dasharray:7.0,7.0;"/><polygon fill="#181818" points="1170.5,424.4099,1171.4062,414.6028,1168.8983,419.6734,1163.8278,417.1655,1170.5,424.4099" style="stroke:#181818;stroke-width:1;"/><text fill="#000000" font-family="sans-serif" font-size="13" lengthAdjust="spacing" textLength="78.7281" x="1133" y="354.5669">confirmation</text></g><!--link F1 to Eric--><g id="link_F1_Eric"><path d="M1024.62,463.7299 C1014.3,499.3899 993.4689,571.3267 983.0989,607.1367 " fill="none" id="F1-to-Eric" style="stroke:#181818;stroke-width:1;stroke-dasharray:7.0,7.0;"/><polygon fill="#181818" points="981.43,612.8999,987.7755,605.3677,982.8208,608.0972,980.0913,603.1425,981.43,612.8999" style="stroke:#181818;stroke-width:1;"/><text fill="#000000" font-family="sans-serif" font-size="13" lengthAdjust="spacing" textLength="51.454" x="1011" y="522.5669">livraison</text></g><!--link F2 to Eric--><g id="link_F2_Eric"><path d="M1150.56,463.8599 C1122.35,485.0599 1076.08,521.2899 1040,556.6699 C1021.67,574.6499 1006.5691,592.6095 994.1291,608.2895 " fill="none" id="F2-to-Eric" style="stroke:#181818;stroke-width:1;stroke-dasharray:7.0,7.0;"/><polygon fill="#181818" points="990.4,612.9899,999.1273,608.4254,993.5076,609.0729,992.8601,603.4532,990.4,612.9899" style="stroke:#181818;stroke-width:1;"/><text fill="#000000" font-family="sans-serif" font-size="13" lengthAdjust="spacing" textLength="51.454" x="1094" y="522.5669">livraison</text></g><!--link F3 to Eric--><g id="link_F3_Eric"><path d="M893.16,463.7299 C910.75,499.3899 946.4262,571.7087 964.0862,607.5187 " fill="none" id="F3-to-Eric" style="stroke:#181818;stroke-width:1;stroke-dasharray:7.0,7.0;"/><polygon fill="#181818" points="966.74,612.8999,966.3468,603.0589,964.5285,608.4156,959.1718,606.5973,966.74,612.8999" style="stroke:#181818;stroke-width:1;"/><text fill="#000000" font-family="sans-serif" font-size="13" lengthAdjust="spacing" textLength="51.454" x="922" y="522.5669">livraison</text></g><!--link Eric to SageMDE--><g id="link_Eric_SageMDE"><path d="M988.48,652.1799 C1000.27,668.6099 1019.21,692.4599 1040,708.6699 C1084.99,743.7499 1124.32,717.5799 1155,765.6699 C1164.4425,780.4749 1169.48,797.713 1171.7086,815.2902 C1171.9872,817.4874 1172.2219,819.6898 1172.4158,821.8935 C1172.5127,822.9953 1172.5995,824.0974 1172.6764,825.1993 C1172.7149,825.7503 1172.3853,820.3124 1172.4189,820.8631 " fill="none" id="Eric-to-SageMDE" style="stroke:#181818;stroke-width:1;"/><polygon fill="#181818" points="1172.7846,826.852,1176.2287,817.625,1172.4799,821.8613,1168.2436,818.1125,1172.7846,826.852" style="stroke:#181818;stroke-width:1;"/><text fill="#000000" font-family="sans-serif" font-size="13" lengthAdjust="spacing" textLength="58.2141" x="1148" y="753.5669">r&#233;ception</text></g><!--link Eric to Excel3--><g id="link_Eric_Excel3"><path d="M986.58,652.4299 C997.55,669.9999 1016.39,695.4799 1040,708.6699 C1055.41,717.2799 1336.45,755.7099 1354,757.6699 C1380.34,760.5999 1449.47,753.4599 1473,765.6699 C1529.34,794.8999 1567.1417,855.1119 1586.8217,892.7819 " fill="none" id="Eric-to-Excel3" style="stroke:#181818;stroke-width:1;"/><polygon fill="#181818" points="1589.6,898.0999,1588.9779,888.2707,1587.2848,893.6682,1581.8872,891.9751,1589.6,898.0999" style="stroke:#181818;stroke-width:1;"/><text fill="#000000" font-family="sans-serif" font-size="13" lengthAdjust="spacing" textLength="31.967" x="1355" y="753.5669">stock</text></g><!--link Julien to SageMDE--><g id="link_Julien_SageMDE"><path d="M1641.29,135.8599 C1633.8,167.2999 1620,232.8499 1620,289.1699 C1620,289.1699 1620,289.1699 1620,633.6699 C1620,747.8499 1505.04,727.1799 1395,757.6699 C1383.37,760.8899 1186.87,757.4899 1178,765.6699 C1171.5025,771.6624 1167.0525,784.4255 1164.0356,800.264 C1162.5272,808.1832 1161.377,816.8712 1160.5084,825.8662 C1160.4541,826.4284 1160.9524,821.0172 1160.9003,821.5816 " fill="none" id="Julien-to-SageMDE" style="stroke:#181818;stroke-width:1;stroke-dasharray:7.0,7.0;"/><polygon fill="#181818" points="1160.3488,827.5562,1165.1592,818.9621,1160.8084,822.5774,1157.1931,818.2266,1160.3488,827.5562" style="stroke:#181818;stroke-width:1;"/><text fill="#000000" font-family="sans-serif" font-size="13" lengthAdjust="spacing" textLength="75.6861" x="1621" y="449.5669">consultation</text></g><!--link Julien to Excel1--><g id="link_Julien_Excel1"><path d="M1725.32,132.8099 C1804.35,153.5499 1914,198.6399 1914,289.1699 C1914,289.1699 1914,289.1699 1914,633.6699 C1914,730.6599 1914,839.7499 1914,891.9299 " fill="none" id="Julien-to-Excel1" style="stroke:#181818;stroke-width:1;stroke-dasharray:7.0,7.0;"/><polygon fill="#181818" points="1914,897.9299,1918,888.9299,1914,892.9299,1910,888.9299,1914,897.9299" style="stroke:#181818;stroke-width:1;"/><text fill="#000000" font-family="sans-serif" font-size="13" lengthAdjust="spacing" textLength="75.6861" x="1915" y="449.5669">consultation</text></g><!--link Julien to Excel2--><g id="link_Julien_Excel2"><path d="M1651.34,135.7699 C1662.97,176.9799 1690.67,279.2599 1705,366.6699 C1738.13,568.8399 1751.6172,809.8266 1755.4972,892.0566 " fill="none" id="Julien-to-Excel2" style="stroke:#181818;stroke-width:1;stroke-dasharray:7.0,7.0;"/><polygon fill="#181818" points="1755.78,898.0499,1759.3514,888.8714,1755.5443,893.0555,1751.3603,889.2484,1755.78,898.0499" style="stroke:#181818;stroke-width:1;"/><text fill="#000000" font-family="sans-serif" font-size="13" lengthAdjust="spacing" textLength="75.6861" x="1724" y="449.5669">consultation</text></g><!--link Julien to Excel4--><g id="link_Julien_Excel4"><path d="M1725.04,133.0899 C1845.44,159.6399 2061,217.2199 2061,289.1699 C2061,289.1699 2061,289.1699 2061,633.6699 C2061,731.2799 2043.6898,840.1542 2034.3598,892.1442 " fill="none" id="Julien-to-Excel4" style="stroke:#181818;stroke-width:1;stroke-dasharray:7.0,7.0;"/><polygon fill="#181818" points="2033.3,898.0499,2038.8268,889.898,2034.1832,893.1285,2030.9526,888.4849,2033.3,898.0499" style="stroke:#181818;stroke-width:1;"/><text fill="#000000" font-family="sans-serif" font-size="13" lengthAdjust="spacing" textLength="75.6861" x="2062" y="449.5669">consultation</text></g><!--link Julien to Tel--><g id="link_Julien_Tel"><path d="M1619.24,135.7099 C1600.43,147.8399 1574.21,162.9999 1549,171.6699 C1541.11,174.3799 1260.32,215.9999 1252,216.6699 C1228.66,218.5399 431.02,216.6999 409,224.6699 C383.69,233.8199 364.6941,250.4731 350.0941,266.0431 " fill="none" id="Julien-to-Tel" style="stroke:#181818;stroke-width:1;stroke-dasharray:7.0,7.0;"/><polygon fill="#181818" points="345.99,270.4199,355.064,266.5908,349.4101,266.7726,349.2283,261.1186,345.99,270.4199" style="stroke:#181818;stroke-width:1;"/><text fill="#000000" font-family="sans-serif" font-size="13" lengthAdjust="spacing" textLength="91.8451" x="1498" y="203.5669">appels &#233;quipes</text></g><!--link GMN48 to GMN77--><g id="link_GMN48_GMN77"><path d="M732,475.9699 C732,497.8999 732,528.3599 732,556.5399 " fill="none" id="GMN48-GMN77" style="stroke:#181818;stroke-width:1;stroke-dasharray:7.0,7.0;"/></g><!--SRC=[XLPBRoD54BxFhoXjX3OnSk8P9qviYPNyc643oSQoWpWG3krnssvsF3CxtHCIePKGui0U4E9nui1oWhN4WSCUaE0s_oH_WFq9L3yydd7inRxOLLzNLttrQi54GA4RpUCefA607YFJXCoX2kt4dp51VP4c58QtN6IlvXJQtSkFt3FBuazP61E9z9TdX-8MJILuWeJJW5fMJFodP4hXGNT6Gi5emc7t23WQvNiFOCVpt4FNXYyiW4-wCpg19GpiJu5mE2U9RqjOfz6rxuES7EHi1zLpK3q78IgC17hAfZC1qKHVX5A0Doz_UWrzF35-I7m_UuK_s9G94XZjZrz39mevn2IMrjEGFKlf76DVwd-1osmHP8juXfIKzJGSgtkjvmLcEaWkIQ4TZ6WYhbaGK2J6RNXrpzF4l4-vO54O4ePPQFip8hWAQNWRN3CAE-rUxyHjIEI0Sim39oDCGdioaGSqz8CqO3IKuVVQdURzyBKf4y7tYxillttpyeT_YkB7wGXyZ28X0UnEepI8nDwsY7eOVFPQo31El2EtgSCu9rF2MOYaAPVSXFcmqppnEisJ-mv9xPBGto1xiVgBsR61qpI0VXVYACK4GunrXGHHlisZl7RFw9JujwhoklXHdes982F29Ko2ptlkLRZxCGl7qUSSd9hjOALAkb69EdcqqMbqr54PLZHEWpml9TbGHFxJiWYxR4x2CLN8vniIeIzHP-v-_lNVlxw3IkMYCxmuoxwvT2iLfQYQ-cptJyt_qr3GP49ygbene3VKA7f8IxQW7D2zICXIv4PZEv1aYuccq8OuGGVPrYBr64u2sRtkZK-n0h2x8jF1NjDjw0mhtLNeeSMGSSnHegjFoLKRzuvhjG9ocB9hLk0a1pkRm99DCBMrWjOtGFi9kraX3dF4akvH94GqLtMcN5kLLgKoF3sx60BckNVnv4dsmXtcfFUYT1HWU-MS-z4iMoGqz7DILLueyDlGtyQaZ1Q7WazaJqi2Q_Ah2ImCZeFX-L25S8bq5oES4nResEGlAUghIQHa-1DdagdG3U6YiK8R7LMT6f0ufW4_-0oJfbGc16pqx7SoOW4JsM8j5Z-8qZ7MH27FEDLhxyfwS6logyCf0A2j_FFiTNb7ovrrULVBwrA-lxyFXyT0Kh6SPzxX_TRnxirljtUwBbgsZ9hJTgts3eWLvsjXFeG13LIQUBvDkALNqlx-8vMPbk7FqajeexY-MQoDw8orC4VvJbcxkLWlbhGYZvdPtm8HfHm2R71j-GetCXA8MnmtCr1S9fQ-eNJ837B6jT7IVGQqMnZuUvOHLgkFyZ7O0auOn-rGq9b6twfoDgja8Kkled32ahdsoUZNcOD9eUZAZXVBCUV9ivLXCs1MOcUpk5uIQySAPWh-5NJEkgxarXcxJZ1aEJSydNAr-LeGB1MMvsoHrpVBI_RrRbIOSdfmkliqriukjMPYOXRaC2qRqcy4opmLLBtajZ0ydWP2XrT0v0b_Ay3vFy3XMm2bx6UBPocBCJLMOR1XsrOg_S551tVakJk4zg3x-FJInLVgG6zCrV_jr4_nFSP2R7XytifhS4xhPy4IOuhkFT0F79mNsG8RG3vbpGjEmVAbYdE3934-sTI_tGP4gM01tri21xIgonqQrMCiNSQjyWCpHVVH5TE7HHs5QpnevYy8Ee-vpAYQt_Ws-nFdGlQtQ47JhdruzzKV1oIqyjdr7m00]--></g></svg>