<svg xmlns="http://www.w3.org/2000/svg" xmlns:xlink="http://www.w3.org/1999/xlink" contentStyleType="text/css" height="769px" preserveAspectRatio="none" style="width:1037px;height:769px;background:#FFFFFF;" version="1.1" viewBox="0 0 1037 769" width="1037px" zoomAndPan="magnify"><title>Network Diagram - Flux de Donn&#233;es ACTUEL</title><defs/><g><text fill="#000000" font-family="sans-serif" font-size="14" font-weight="bold" lengthAdjust="spacing" textLength="308.6008" x="357.467" y="24.9659">Network Diagram - Flux de Donn&#233;es ACTUEL</text><!--cluster Chantiers (Terrain)--><g id="cluster_Chantiers (Terrain)"><path d="M514.0348,138.5679 L646.8864,138.5679 A3.75,3.75 0 0 1 649.3864,141.0679 L656.3864,163.6358 L857.0348,163.6358 A2.5,2.5 0 0 1 859.5348,166.1358 L859.5348,258.0679 A2.5,2.5 0 0 1 857.0348,260.5679 L514.0348,260.5679 A2.5,2.5 0 0 1 511.5348,258.0679 L511.5348,141.0679 A2.5,2.5 0 0 1 514.0348,138.5679 " fill="#FFE4E1" style="stroke:#000000;stroke-width:1.5;"/><line style="stroke:#000000;stroke-width:1.5;" x1="511.5348" x2="656.3864" y1="163.6358" y2="163.6358"/><text fill="#000000" font-family="sans-serif" font-size="14" font-weight="bold" lengthAdjust="spacing" textLength="131.8515" x="515.5348" y="155.5339">Chantiers (Terrain)</text></g><!--cluster Bureau Si?ge--><g id="cluster_Bureau Si&#232;ge"><path d="M630.0348,449.5679 L722.9585,449.5679 A3.75,3.75 0 0 1 725.4585,452.0679 L732.4585,474.6358 L866.0348,474.6358 A2.5,2.5 0 0 1 868.5348,477.1358 L868.5348,751.5679 A2.5,2.5 0 0 1 866.0348,754.0679 L630.0348,754.0679 A2.5,2.5 0 0 1 627.5348,751.5679 L627.5348,452.0679 A2.5,2.5 0 0 1 630.0348,449.5679 " fill="#E6F3FF" style="stroke:#000000;stroke-width:1.5;"/><line style="stroke:#000000;stroke-width:1.5;" x1="627.5348" x2="732.4585" y1="474.6358" y2="474.6358"/><text fill="#000000" font-family="sans-serif" font-size="14" font-weight="bold" lengthAdjust="spacing" textLength="91.9237" x="631.5348" y="466.5339">Bureau Si&#232;ge</text></g><!--cluster D?p?t--><g id="cluster_D&#233;p&#244;t"><path d="M895.0348,440.0679 L938.2727,440.0679 A3.75,3.75 0 0 1 940.7727,442.5679 L947.7727,465.1358 L1028.0348,465.1358 A2.5,2.5 0 0 1 1030.5348,467.6358 L1030.5348,578.5679 A2.5,2.5 0 0 1 1028.0348,581.0679 L895.0348,581.0679 A2.5,2.5 0 0 1 892.5348,578.5679 L892.5348,442.5679 A2.5,2.5 0 0 1 895.0348,440.0679 " fill="#E8F5E9" style="stroke:#000000;stroke-width:1.5;"/><line style="stroke:#000000;stroke-width:1.5;" x1="892.5348" x2="947.7727" y1="465.1358" y2="465.1358"/><text fill="#000000" font-family="sans-serif" font-size="14" font-weight="bold" lengthAdjust="spacing" textLength="42.2378" x="896.5348" y="457.0339">D&#233;p&#244;t</text></g><!--cluster Internet--><g id="cluster_Internet"><path d="M37.846,642.8381 C41.6114,634.999 48.1862,634.1 53.0246,641.7893 C56.9137,632.4877 63.163,633.9029 68.9112,639.853 C74.1194,630.5799 80.0194,631.0596 87.119,637.6872 C92.1732,628.0201 98.1906,627.7898 104.4621,636.541 C108.6798,629.9088 114.564,629.1408 119.9118,635.1609 C123.5185,627.0367 132.1753,625.7857 137.4533,633.2844 C141.6356,626.6398 147.4482,624.4061 152.7324,632.1113 C157.9441,622.6347 165.9015,624.3316 171.2629,631.9491 C177.0318,625.3805 183.0563,624.1784 187.3531,633.445 C192.7287,625.8707 199.5318,625.8322 203.5574,634.7699 C209.643,627.7555 217.0337,627.4083 221.9767,636.109 C227.5542,630.0468 236.1342,629.2234 238.7411,639.2117 C242.8879,631.7217 250.4012,632.7985 254.3747,639.4041 C265.1353,632.3353 273.3552,634.2489 277.5348,647.0679 C279.0733,646.447 279.922,647.5111 279.6901,648.9344 C290.9306,654.3881 291.4963,665.7994 280.6243,672.1432 C292.2156,678.806 290.5353,688.0463 281.3004,695.3168 C290.4856,703.0656 290.8961,711.1387 279.506,717.2003 C288.5488,729.4585 287.5488,741.9073 270.5348,746.0679 C271.7273,745.8605 272.3406,746.5642 271.9543,747.7163 C266.6221,756.122 259.0975,755.9196 253.9215,747.5484 C252.1238,755.3191 245.3638,756.7175 240.015,751.2901 C233.9089,759.8227 228.308,760.0711 222.7632,750.7477 C215.9099,760.6355 209.7632,758.2078 203.7304,749.8898 C200.9855,759.0204 193.8935,760.1821 187.4813,753.7087 C182.1212,762.3115 174.2365,760.6216 170.278,752.2853 C166.8473,761.0491 158.781,760.6638 153.6822,754.0904 C148.7625,762.5457 143.0871,761.6728 137.5985,754.6828 C132.1234,761.7998 124.4901,760.5681 121.2748,752.2871 C115.5965,758.8841 108.3555,758.2486 104.4868,750.2111 C99.7337,758.9085 91.7772,758.5782 87.4445,749.801 C82.2509,756.114 75.0334,756.9611 71.5507,748.0185 C66.6316,757.7283 59.641,757.7554 54.0621,748.6311 C41.6432,760.0038 30.3571,754.3151 27.5348,739.0679 C29.3879,738.394 30.3553,739.2237 30.1487,741.1436 C16.8201,737.98 15.9573,729.4128 22.7145,719.3862 C9.0241,713.8549 6,704.7739 16.7326,693.5811 C6.1988,684.0261 8.1846,674.4826 22.0319,670.5335 C10.1037,656.3349 15.4239,641.5281 34.5348,640.0679 C36.7206,639.5739 38.2312,640.2591 37.846,642.8381 " fill="#E0F7FA" style="stroke:#181818;stroke-width:1;"/><text fill="#000000" font-family="sans-serif" font-size="14" font-weight="bold" lengthAdjust="spacing" textLength="58.8978" x="123.086" y="660.0339">Internet</text></g><!--cluster Fournisseurs--><g id="cluster_Fournisseurs"><path d="M312.0348,632.0679 L403.1105,632.0679 A3.75,3.75 0 0 1 405.6105,634.5679 L412.6105,657.1358 L601.0348,657.1358 A2.5,2.5 0 0 1 603.5348,659.6358 L603.5348,751.5679 A2.5,2.5 0 0 1 601.0348,754.0679 L312.0348,754.0679 A2.5,2.5 0 0 1 309.5348,751.5679 L309.5348,634.5679 A2.5,2.5 0 0 1 312.0348,632.0679 " fill="#E0E0E0" style="stroke:#000000;stroke-width:1.5;"/><line style="stroke:#000000;stroke-width:1.5;" x1="309.5348" x2="412.6105" y1="657.1358" y2="657.1358"/><text fill="#000000" font-family="sans-serif" font-size="14" font-weight="bold" lengthAdjust="spacing" textLength="90.0757" x="313.5348" y="649.0339">Fournisseurs</text></g><!--entity marc1--><g id="elem_marc1"><rect fill="#F1F1F1" height="68.1358" rx="2.5" ry="2.5" style="stroke:#181818;stroke-width:0.5;" width="81.8598" x="527.5348" y="176.5679"/><rect fill="#F1F1F1" height="10" style="stroke:#181818;stroke-width:0.5;" width="15" x="589.3947" y="181.5679"/><rect fill="#F1F1F1" height="2" style="stroke:#181818;stroke-width:0.5;" width="4" x="587.3947" y="183.5679"/><rect fill="#F1F1F1" height="2" style="stroke:#181818;stroke-width:0.5;" width="4" x="587.3947" y="187.5679"/><text fill="#000000" font-family="sans-serif" font-size="14" lengthAdjust="spacing" textLength="36.6939" x="542.5348" y="211.5339">&#128241; Marc</text><text fill="#000000" font-family="sans-serif" font-size="14" lengthAdjust="spacing" textLength="41.8598" x="542.5348" y="230.6018">Chef 1</text></g><!--entity marc2--><g id="elem_marc2"><rect fill="#F1F1F1" height="68.1358" rx="2.5" ry="2.5" style="stroke:#181818;stroke-width:0.5;" width="81.8598" x="644.5348" y="176.5679"/><rect fill="#F1F1F1" height="10" style="stroke:#181818;stroke-width:0.5;" width="15" x="706.3947" y="181.5679"/><rect fill="#F1F1F1" height="2" style="stroke:#181818;stroke-width:0.5;" width="4" x="704.3947" y="183.5679"/><rect fill="#F1F1F1" height="2" style="stroke:#181818;stroke-width:0.5;" width="4" x="704.3947" y="187.5679"/><text fill="#000000" font-family="sans-serif" font-size="14" lengthAdjust="spacing" textLength="36.6939" x="659.5348" y="211.5339">&#128241; Marc</text><text fill="#000000" font-family="sans-serif" font-size="14" lengthAdjust="spacing" textLength="41.8598" x="659.5348" y="230.6018">Chef 2</text></g><!--entity marc3--><g id="elem_marc3"><rect fill="#F1F1F1" height="68.1358" rx="2.5" ry="2.5" style="stroke:#181818;stroke-width:0.5;" width="81.8598" x="761.5348" y="176.5679"/><rect fill="#F1F1F1" height="10" style="stroke:#181818;stroke-width:0.5;" width="15" x="823.3947" y="181.5679"/><rect fill="#F1F1F1" height="2" style="stroke:#181818;stroke-width:0.5;" width="4" x="821.3947" y="183.5679"/><rect fill="#F1F1F1" height="2" style="stroke:#181818;stroke-width:0.5;" width="4" x="821.3947" y="187.5679"/><text fill="#000000" font-family="sans-serif" font-size="14" lengthAdjust="spacing" textLength="36.6939" x="776.5348" y="211.5339">&#128241; Marc</text><text fill="#000000" font-family="sans-serif" font-size="14" lengthAdjust="spacing" textLength="41.8598" x="776.5348" y="230.6018">Chef 3</text></g><!--entity sylvie--><g id="elem_sylvie"><rect fill="#F1F1F1" height="68.1358" rx="2.5" ry="2.5" style="stroke:#181818;stroke-width:0.5;" width="83.9318" x="643.5348" y="487.5679"/><rect fill="#F1F1F1" height="10" style="stroke:#181818;stroke-width:0.5;" width="15" x="707.4667" y="492.5679"/><rect fill="#F1F1F1" height="2" style="stroke:#181818;stroke-width:0.5;" width="4" x="705.4667" y="494.5679"/><rect fill="#F1F1F1" height="2" style="stroke:#181818;stroke-width:0.5;" width="4" x="705.4667" y="498.5679"/><text fill="#000000" font-family="sans-serif" font-size="14" lengthAdjust="spacing" textLength="40.6978" x="658.5348" y="522.5339">&#128187; Sylvie</text><text fill="#000000" font-family="sans-serif" font-size="14" lengthAdjust="spacing" textLength="43.9318" x="658.5348" y="541.6018">Achats</text></g><!--entity julien--><g id="elem_julien"><rect fill="#F1F1F1" height="68.1358" rx="2.5" ry="2.5" style="stroke:#181818;stroke-width:0.5;" width="90.4278" x="762.5348" y="487.5679"/><rect fill="#F1F1F1" height="10" style="stroke:#181818;stroke-width:0.5;" width="15" x="832.9627" y="492.5679"/><rect fill="#F1F1F1" height="2" style="stroke:#181818;stroke-width:0.5;" width="4" x="830.9627" y="494.5679"/><rect fill="#F1F1F1" height="2" style="stroke:#181818;stroke-width:0.5;" width="4" x="830.9627" y="498.5679"/><text fill="#000000" font-family="sans-serif" font-size="14" lengthAdjust="spacing" textLength="39.8858" x="777.5348" y="522.5339">&#128187; Julien</text><text fill="#000000" font-family="sans-serif" font-size="14" lengthAdjust="spacing" textLength="50.4278" x="777.5348" y="541.6018">Affaires</text></g><!--entity server--><g id="elem_server"><rect fill="#F1F1F1" height="68.1358" rx="2.5" ry="2.5" style="stroke:#181818;stroke-width:0.5;" width="106.3877" x="746.5348" y="670.0679"/><rect fill="#F1F1F1" height="10" style="stroke:#181818;stroke-width:0.5;" width="15" x="832.9226" y="675.0679"/><rect fill="#F1F1F1" height="2" style="stroke:#181818;stroke-width:0.5;" width="4" x="830.9226" y="677.0679"/><rect fill="#F1F1F1" height="2" style="stroke:#181818;stroke-width:0.5;" width="4" x="830.9226" y="681.0679"/><text fill="#000000" font-family="sans-serif" font-size="14" lengthAdjust="spacing" textLength="54.4458" x="761.5348" y="705.0339">&#128421;&#65039; Serveur</text><text fill="#000000" font-family="sans-serif" font-size="14" lengthAdjust="spacing" textLength="66.3877" x="761.5348" y="724.1018">Sage MDE</text></g><!--entity eric--><g id="elem_eric"><rect fill="#F1F1F1" height="87.2038" rx="2.5" ry="2.5" style="stroke:#181818;stroke-width:0.5;" width="106.8777" x="908.0348" y="478.0679"/><rect fill="#F1F1F1" height="10" style="stroke:#181818;stroke-width:0.5;" width="15" x="994.9126" y="483.0679"/><rect fill="#F1F1F1" height="2" style="stroke:#181818;stroke-width:0.5;" width="4" x="992.9126" y="485.0679"/><rect fill="#F1F1F1" height="2" style="stroke:#181818;stroke-width:0.5;" width="4" x="992.9126" y="489.0679"/><text fill="#000000" font-family="sans-serif" font-size="14" lengthAdjust="spacing" textLength="27.5379" x="923.0348" y="513.0339">&#128187; &#201;ric</text><text fill="#000000" font-family="sans-serif" font-size="14" lengthAdjust="spacing" textLength="40.2498" x="923.0348" y="532.1018">D&#233;p&#244;t</text><text fill="#000000" font-family="sans-serif" font-size="14" lengthAdjust="spacing" textLength="66.8777" x="923.0348" y="551.1697">&#128308; 1 seul PC!</text></g><!--entity cloud--><g id="elem_cloud"><rect fill="#F1F1F1" height="68.1358" rx="2.5" ry="2.5" style="stroke:#181818;stroke-width:0.5;" width="105.7437" x="163.5348" y="670.0679"/><rect fill="#F1F1F1" height="10" style="stroke:#181818;stroke-width:0.5;" width="15" x="249.2786" y="675.0679"/><rect fill="#F1F1F1" height="2" style="stroke:#181818;stroke-width:0.5;" width="4" x="247.2786" y="677.0679"/><rect fill="#F1F1F1" height="2" style="stroke:#181818;stroke-width:0.5;" width="4" x="247.2786" y="681.0679"/><text fill="#000000" font-family="sans-serif" font-size="14" lengthAdjust="spacing" textLength="65.7437" x="178.5348" y="705.0339">&#9729;&#65039; OneDrive</text><text fill="#000000" font-family="sans-serif" font-size="14" lengthAdjust="spacing" textLength="52.4718" x="178.5348" y="724.1018">Excel x4</text></g><!--entity email--><g id="elem_email"><rect fill="#F1F1F1" height="68.1358" rx="2.5" ry="2.5" style="stroke:#181818;stroke-width:0.5;" width="92.6678" x="35.0348" y="670.0679"/><rect fill="#F1F1F1" height="10" style="stroke:#181818;stroke-width:0.5;" width="15" x="107.7026" y="675.0679"/><rect fill="#F1F1F1" height="2" style="stroke:#181818;stroke-width:0.5;" width="4" x="105.7026" y="677.0679"/><rect fill="#F1F1F1" height="2" style="stroke:#181818;stroke-width:0.5;" width="4" x="105.7026" y="681.0679"/><text fill="#000000" font-family="sans-serif" font-size="14" lengthAdjust="spacing" textLength="39.5918" x="50.0348" y="705.0339">&#128231; Email</text><text fill="#000000" font-family="sans-serif" font-size="14" lengthAdjust="spacing" textLength="52.6678" x="50.0348" y="724.1018">Outlook</text></g><!--entity fourn1--><g id="elem_fourn1"><rect fill="#F1F1F1" height="68.1358" rx="2.5" ry="2.5" style="stroke:#181818;stroke-width:0.5;" width="113.1077" x="474.0348" y="670.0679"/><rect fill="#F1F1F1" height="10" style="stroke:#181818;stroke-width:0.5;" width="15" x="567.1425" y="675.0679"/><rect fill="#F1F1F1" height="2" style="stroke:#181818;stroke-width:0.5;" width="4" x="565.1425" y="677.0679"/><rect fill="#F1F1F1" height="2" style="stroke:#181818;stroke-width:0.5;" width="4" x="565.1425" y="681.0679"/><text fill="#000000" font-family="sans-serif" font-size="14" lengthAdjust="spacing" textLength="55.0478" x="489.0348" y="705.0339">&#128222; Fourn A</text><text fill="#000000" font-family="sans-serif" font-size="14" lengthAdjust="spacing" textLength="73.1077" x="489.0348" y="724.1018">&#128308; T&#233;l&#233;phone</text></g><!--entity fourn2--><g id="elem_fourn2"><rect fill="#F1F1F1" height="68.1358" rx="2.5" ry="2.5" style="stroke:#181818;stroke-width:0.5;" width="113.1077" x="326.0348" y="670.0679"/><rect fill="#F1F1F1" height="10" style="stroke:#181818;stroke-width:0.5;" width="15" x="419.1425" y="675.0679"/><rect fill="#F1F1F1" height="2" style="stroke:#181818;stroke-width:0.5;" width="4" x="417.1425" y="677.0679"/><rect fill="#F1F1F1" height="2" style="stroke:#181818;stroke-width:0.5;" width="4" x="417.1425" y="681.0679"/><text fill="#000000" font-family="sans-serif" font-size="14" lengthAdjust="spacing" textLength="55.2018" x="341.0348" y="705.0339">&#128222; Fourn B</text><text fill="#000000" font-family="sans-serif" font-size="14" lengthAdjust="spacing" textLength="73.1077" x="341.0348" y="724.1018">&#128308; T&#233;l&#233;phone</text></g><g id="elem_N1"><path d="M200.5348,46.0679 L200.5348,374.7762 L492.0651,374.7762 L492.0651,56.0679 L482.0651,46.0679 L200.5348,46.0679 " fill="#FEFFDD" style="stroke:#181818;stroke-width:0.5;"/><path d="M482.0651,46.0679 L482.0651,56.0679 L492.0651,56.0679 L482.0651,46.0679 " fill="#FEFFDD" style="stroke:#181818;stroke-width:1;"/><text fill="#000000" font-family="sans-serif" font-size="13" lengthAdjust="spacing" textLength="0" x="206.5348" y="64.9649">&#128308;</text><text fill="#000000" font-family="sans-serif" font-size="13" font-weight="bold" lengthAdjust="spacing" textLength="207.5972" x="209.9149" y="64.9649">FLUX DE DONN&#201;ES CHAOTIQUES</text><text fill="#000000" font-family="sans-serif" font-size="13" lengthAdjust="spacing" textLength="3.38" x="206.5348" y="82.6709">&#160;</text><text fill="#000000" font-family="sans-serif" font-size="13" font-weight="bold" lengthAdjust="spacing" textLength="72.6051" x="206.5348" y="100.377">Probl&#232;mes:</text><text fill="#000000" font-family="sans-serif" font-size="13" lengthAdjust="spacing" textLength="270.5303" x="206.5348" y="118.083">1. Chantiers D&#201;CONNECT&#201;S (t&#233;l&#233;phone only)</text><text fill="#000000" font-family="sans-serif" font-size="13" lengthAdjust="spacing" textLength="200.6162" x="206.5348" y="135.789">2. Sylvie = HUB CENTRAL (goulot)</text><text fill="#000000" font-family="sans-serif" font-size="13" lengthAdjust="spacing" textLength="142.4151" x="206.5348" y="153.495">3. Donn&#233;es &#233;parpill&#233;es:</text><text fill="#000000" font-family="sans-serif" font-size="13" lengthAdjust="spacing" textLength="158.1451" x="216.6749" y="171.201">- Sage MDE (serveur local)</text><text fill="#000000" font-family="sans-serif" font-size="13" lengthAdjust="spacing" textLength="125.1381" x="216.6749" y="188.907">- Excel x4 (OneDrive)</text><text fill="#000000" font-family="sans-serif" font-size="13" lengthAdjust="spacing" textLength="101.0361" x="216.6749" y="206.6131">- Email (Outlook)</text><text fill="#000000" font-family="sans-serif" font-size="13" lengthAdjust="spacing" textLength="157.7811" x="216.6749" y="224.3191">- T&#233;l&#233;phone (pas de trace)</text><text fill="#000000" font-family="sans-serif" font-size="13" lengthAdjust="spacing" textLength="88.0751" x="216.6749" y="242.0251">- Papier (bons)</text><text fill="#000000" font-family="sans-serif" font-size="13" lengthAdjust="spacing" textLength="197.9252" x="206.5348" y="259.7311">4. Pas d'int&#233;gration fournisseurs</text><text fill="#000000" font-family="sans-serif" font-size="13" lengthAdjust="spacing" textLength="260.4292" x="206.5348" y="277.4371">5. Multiples re-saisies des m&#234;mes donn&#233;es</text><text fill="#000000" font-family="sans-serif" font-size="13" lengthAdjust="spacing" textLength="3.38" x="206.5348" y="295.1431">&#160;</text><text fill="#000000" font-family="sans-serif" font-size="13" font-weight="bold" lengthAdjust="spacing" textLength="49.933" x="206.5348" y="312.8492">Impact:</text><text fill="#000000" font-family="sans-serif" font-size="13" lengthAdjust="spacing" textLength="153.2701" x="206.5348" y="330.5552">&#128308; Processus tr&#232;s inefficace</text><text fill="#000000" font-family="sans-serif" font-size="13" lengthAdjust="spacing" textLength="249.2492" x="206.5348" y="348.2612">&#10060; 50% commandes incompl&#232;tes (constat&#233;)</text><text fill="#000000" font-family="sans-serif" font-size="13" lengthAdjust="spacing" textLength="202.3972" x="206.5348" y="365.9672">&#9208;&#65039; Chantiers bloqu&#233;s fr&#233;quemment</text></g><!--link marc1 to sylvie--><g id="link_marc1_sylvie"><path d="M570.5948,244.6579 C574.2948,287.7079 584.4148,364.4479 611.5348,424.0679 C622.0248,447.1279 635.045,465.2182 650.055,482.7682 " fill="none" id="marc1-to-sylvie" style="stroke:#181818;stroke-width:1;stroke-dasharray:7.0,7.0;"/><polygon fill="#181818" points="653.9548,487.3279,651.1449,477.8884,650.705,483.5281,645.0653,483.0882,653.9548,487.3279" style="stroke:#181818;stroke-width:1;"/><text fill="#000000" font-family="sans-serif" font-size="13" lengthAdjust="spacing" textLength="64.5061" x="612.5348" y="419.9649">T&#233;l&#233;phone</text></g><!--link marc2 to sylvie--><g id="link_marc2_sylvie"><path d="M685.5348,244.6379 C685.5348,303.9579 685.5348,421.7879 685.5348,481.2679 " fill="none" id="marc2-to-sylvie" style="stroke:#181818;stroke-width:1;stroke-dasharray:7.0,7.0;"/><polygon fill="#181818" points="685.5348,487.2679,689.5348,478.2679,685.5348,482.2679,681.5348,478.2679,685.5348,487.2679" style="stroke:#181818;stroke-width:1;"/><text fill="#000000" font-family="sans-serif" font-size="13" lengthAdjust="spacing" textLength="64.5061" x="686.5348" y="419.9649">T&#233;l&#233;phone</text></g><!--link marc3 to sylvie--><g id="link_marc3_sylvie"><path d="M803.0048,244.7579 C802.0848,289.2879 794.7748,369.1279 757.5348,424.0679 C753.9348,429.3779 750.0848,427.5579 745.5348,432.0679 C729.1948,448.2779 717.7179,464.4187 707.0179,482.0487 " fill="none" id="marc3-to-sylvie" style="stroke:#181818;stroke-width:1;stroke-dasharray:7.0,7.0;"/><polygon fill="#181818" points="703.9048,487.1779,711.9939,481.5594,706.499,482.9036,705.1549,477.4087,703.9048,487.1779" style="stroke:#181818;stroke-width:1;"/><text fill="#000000" font-family="sans-serif" font-size="13" lengthAdjust="spacing" textLength="64.5061" x="767.5348" y="419.9649">T&#233;l&#233;phone</text></g><!--link sylvie to server--><g id="link_sylvie_server"><path d="M706.4448,555.6779 C726.9448,588.1379 754.8305,632.2952 775.3605,664.7952 " fill="none" id="sylvie-to-server" style="stroke:#181818;stroke-width:1;"/><polygon fill="#181818" points="778.5648,669.8679,777.1401,660.1227,775.8945,665.6407,770.3765,664.3952,778.5648,669.8679" style="stroke:#181818;stroke-width:1;"/><text fill="#000000" font-family="sans-serif" font-size="13" lengthAdjust="spacing" textLength="24.999" x="743.5348" y="611.9649">LAN</text></g><!--link julien to server--><g id="link_julien_server"><path d="M806.0648,555.6779 C804.6248,588.1379 802.7104,631.3738 801.2704,663.8738 " fill="none" id="julien-to-server" style="stroke:#181818;stroke-width:1;"/><polygon fill="#181818" points="801.0048,669.8679,805.3993,661.0538,801.2262,664.8728,797.4071,660.6997,801.0048,669.8679" style="stroke:#181818;stroke-width:1;"/><text fill="#000000" font-family="sans-serif" font-size="13" lengthAdjust="spacing" textLength="24.999" x="804.5348" y="611.9649">LAN</text></g><!--link eric to server--><g id="link_eric_server"><path d="M923.1448,565.3479 C894.4148,597.3479 859.7129,636.023 833.3029,665.443 " fill="none" id="eric-to-server" style="stroke:#181818;stroke-width:1;"/><polygon fill="#181818" points="829.2948,669.9079,838.2836,665.8826,832.6349,666.1872,832.3304,660.5385,829.2948,669.9079" style="stroke:#181818;stroke-width:1;"/><text fill="#000000" font-family="sans-serif" font-size="13" lengthAdjust="spacing" textLength="24.999" x="890.5348" y="611.9649">LAN</text></g><!--link sylvie to cloud--><g id="link_sylvie_cloud"><path d="M643.3748,525.8179 C570.2148,533.1379 417.2848,555.9879 309.5348,624.0679 C288.7648,637.1979 272.1693,650.6283 255.3693,665.7883 " fill="none" id="sylvie-to-cloud" style="stroke:#181818;stroke-width:1;"/><polygon fill="#181818" points="250.9148,669.8079,260.2763,666.7481,254.6269,666.4582,254.9168,660.8088,250.9148,669.8079" style="stroke:#181818;stroke-width:1;"/><text fill="#000000" font-family="sans-serif" font-size="13" lengthAdjust="spacing" textLength="49.894" x="356.5348" y="611.9649">Internet</text></g><!--link julien to cloud--><g id="link_julien_cloud"><path d="M784.5848,555.8379 C774.1648,568.3379 760.7448,581.3779 745.5348,589.0679 C717.9848,602.9879 706.9048,591.5379 676.5348,597.0679 C642.2848,603.3079 635.0248,611.3379 600.5348,616.0679 C568.4848,620.4579 339.7448,612.4979 309.5348,624.0679 C284.6048,633.6179 265.8924,648.6304 249.0524,665.7504 " fill="none" id="julien-to-cloud" style="stroke:#181818;stroke-width:1;"/><polygon fill="#181818" points="244.8448,670.0279,254.0078,666.4167,248.3511,666.4634,248.3045,660.8067,244.8448,670.0279" style="stroke:#181818;stroke-width:1;"/><text fill="#000000" font-family="sans-serif" font-size="13" lengthAdjust="spacing" textLength="49.894" x="677.5348" y="611.9649">Internet</text></g><!--link sylvie to email--><g id="link_sylvie_email"><path d="M643.4848,526.5879 C531.8148,537.8679 230.6048,572.4179 146.5348,624.0679 C128.2248,635.3179 116.1419,648.66 104.8619,664.8 " fill="none" id="sylvie-to-email" style="stroke:#181818;stroke-width:1;"/><polygon fill="#181818" points="101.4248,669.7179,109.8591,664.6324,104.2891,665.6196,103.3018,660.0496,101.4248,669.7179" style="stroke:#181818;stroke-width:1;"/><text fill="#000000" font-family="sans-serif" font-size="13" lengthAdjust="spacing" textLength="49.894" x="207.5348" y="611.9649">Internet</text></g><!--link sylvie to fourn1--><g id="link_sylvie_fourn1"><path d="M643.3348,529.9979 C606.4648,538.9679 555.0948,558.0179 530.5348,597.0679 C517.0148,618.5679 517.0558,641.7751 520.8958,664.0551 " fill="none" id="sylvie-to-fourn1" style="stroke:#181818;stroke-width:1;stroke-dasharray:7.0,7.0;"/><polygon fill="#181818" points="521.9148,669.9679,524.3281,660.4193,521.0656,665.0406,516.4443,661.7781,521.9148,669.9679" style="stroke:#181818;stroke-width:1;"/><text fill="#000000" font-family="sans-serif" font-size="13" lengthAdjust="spacing" textLength="64.5061" x="531.5348" y="611.9649">T&#233;l&#233;phone</text></g><!--link sylvie to fourn2--><g id="link_sylvie_fourn2"><path d="M643.3348,526.8779 C592.4948,533.9379 506.6648,552.0279 448.5348,597.0679 C424.2048,615.9279 409.0802,641.0353 398.1902,664.5053 " fill="none" id="sylvie-to-fourn2" style="stroke:#181818;stroke-width:1;stroke-dasharray:7.0,7.0;"/><polygon fill="#181818" points="395.6648,669.9479,403.0813,663.4675,397.7693,665.4124,395.8245,660.1004,395.6648,669.9479" style="stroke:#181818;stroke-width:1;"/><text fill="#000000" font-family="sans-serif" font-size="13" lengthAdjust="spacing" textLength="64.5061" x="449.5348" y="611.9649">T&#233;l&#233;phone</text></g><!--SRC=[VLHDRzD04BtxLmn523TIeYPf-OX4fJInrQ8qAIIHa0Y7hRj9bgvtq_Mwj48SE4P2gWG8SO6U40qtf1ugSVG_wH-WFu5PsqdS3sfVx7blPz-ysLdDDAVGfFgDLBjGPsIWY0zvS7bu03iKwbA8Q483gDOwNQTXMIFYxP81XONQa0ZDg0h0xb2b21EB2t3NTPrbfmXlBO2N5yUVViCcKLvFr8Qq3yLNG0BmCL2y2IxDuD9DS7a6bwrt6HrheQ8aX3QBJWOK5JWFtBBhJXLy_0FjGxxFQ4zKlI7HGPmbY4CpnjEGCogGqUyJfcZ2UHq74ywN7t_FZg1DrJuDLK-qpSQRTIV9PQBgagHwD1b5fzg8UUIkE8ypOgAnObXHokY9Y-FFfr349267hTgTE2D5YiddSHdkmCA6q5G96gTRSX-wrIJT-TVtHbHBqBfY-rYVS-1H3WVBSOvuRMhZJt1ymdXFj4BDfTnDDZ6XIwfT6Ih10fIYWdWlyyuw-HrY7AgfvauquLZ4K0eQv-iRj7Y5l7ORkMHsZqy350ghQK-WaYN7SEbskFn_s4gZ-VngsYOaDAfDA-djzRXn_deqcoRfIGMcJScckePb5yP-Py4KC-8Jxww8lugNhXOdfAR6pAPnFROvbtCRtHTGTw3UQZQZiTE6sdgrrTburdNQkPo5l5nkIybj7ftuDAXW2A1OWFaerwDn3PSwjKuqReEjv_k15Fnm4VcbGZfHy0JMksjGSvgTvzK6s0CPSgaDfLoOtnkudAWHuzpyLH349m_J2G8xI8OAkFG8NvpYqxCCzlHypw7OI3izoxDmnXgmHsWBNbvQ4M- -S8kCi4QmjwK8J72vW27atMS2wyHxJpCf4g_JAK3IIW4sGwxPY6CjYkO3mW96JNQyYw9VllbCIqtitV1ne7HYRTmKzDkZGH06A2Sw2O09skyp3vKXu_pR1rXPkWUUz7qYJ58cy7k43TBuOtkeLHEKPmIV7vsPYPztQvlBlJ2Qu3ofQB8NKj-dGbjKx80v6zO_]--></g></svg>