<svg xmlns="http://www.w3.org/2000/svg" xmlns:xlink="http://www.w3.org/1999/xlink" contentStyleType="text/css" height="397px" preserveAspectRatio="none" style="width:821px;height:397px;background:#FFFFFF;" version="1.1" viewBox="0 0 821 397" width="821px" zoomAndPan="magnify"><title>Mind Map - Pain Points Achats &amp; Logistique</title><defs/><g><text fill="#000000" font-family="sans-serif" font-size="14" font-weight="bold" lengthAdjust="spacing" textLength="302.1049" x="258.1605" y="34.9659">Mind Map - Pain Points Achats &amp; Logistique</text><rect fill="#F1F1F1" height="58.1358" rx="12.5" ry="12.5" style="stroke:#181818;stroke-width:1.5;" width="88.4037" x="356.6071" y="188.5433"/><text fill="#000000" font-family="sans-serif" font-size="14" lengthAdjust="spacing" textLength="0" x="366.6071" y="213.5093">&#128176;</text><text fill="#000000" font-family="sans-serif" font-size="14" font-weight="bold" lengthAdjust="spacing" textLength="64.7637" x="370.2471" y="213.5093">910K&#8364;/an</text><text fill="#000000" font-family="sans-serif" font-size="14" lengthAdjust="spacing" textLength="68.3617" x="366.6071" y="232.5772">de PERTES</text><rect fill="#F1F1F1" height="58.1358" rx="12.5" ry="12.5" style="stroke:#181818;stroke-width:1.5;" width="135.8635" x="495.0108" y="72.6698"/><text fill="#000000" font-family="sans-serif" font-size="14" lengthAdjust="spacing" textLength="115.8635" x="505.0108" y="97.6357">&#128308; Base de donn&#233;es</text><text fill="#000000" font-family="sans-serif" font-size="14" lengthAdjust="spacing" textLength="46.7878" x="505.0108" y="116.7036">CHAOS</text><text fill="#000000" font-family="sans-serif" font-size="14" lengthAdjust="spacing" textLength="89.6976" x="683.8744" y="66.0339">12 r&#233;f&#233;rences</text><text fill="#000000" font-family="sans-serif" font-size="14" lengthAdjust="spacing" textLength="95.5916" x="683.8744" y="85.1018">pour 1 produit</text><path d="M630.8744,101.7377 L640.8744,101.7377 C655.8744,101.7377 655.8744,70.1358 670.8744,70.1358 L680.8744,70.1358 " fill="none" style="stroke:#181818;stroke-width:1;"/><text fill="#000000" font-family="sans-serif" font-size="14" lengthAdjust="spacing" textLength="63.3918" x="683.8744" y="106.1697">Doublons</text><path d="M630.8744,101.7377 L640.8744,101.7377 C655.8744,101.7377 655.8744,100.7377 670.8744,100.7377 L680.8744,100.7377 " fill="none" style="stroke:#181818;stroke-width:1;"/><text fill="#000000" font-family="sans-serif" font-size="14" lengthAdjust="spacing" textLength="125.5515" x="683.8744" y="127.2376">Donn&#233;es obsol&#232;tes</text><path d="M630.8744,101.7377 L640.8744,101.7377 C655.8744,101.7377 655.8744,121.8056 670.8744,121.8056 L680.8744,121.8056 " fill="none" style="stroke:#181818;stroke-width:1;"/><text fill="#000000" font-family="sans-serif" font-size="14" lengthAdjust="spacing" textLength="66.0517" x="683.8744" y="148.3055">&#128176; 350K&#8364;/an</text><path d="M630.8744,101.7377 L640.8744,101.7377 C655.8744,101.7377 655.8744,142.8735 670.8744,142.8735 L680.8744,142.8735 " fill="none" style="stroke:#181818;stroke-width:1;"/><path d="M445.0108,217.6113 L455.0108,217.6113 C470.0108,217.6113 470.0108,101.7377 485.0108,101.7377 L495.0108,101.7377 " fill="none" style="stroke:#181818;stroke-width:1;"/><rect fill="#F1F1F1" height="58.1358" rx="12.5" ry="12.5" style="stroke:#181818;stroke-width:1.5;" width="97.2097" x="495.0108" y="187.5433"/><text fill="#000000" font-family="sans-serif" font-size="14" lengthAdjust="spacing" textLength="67.8437" x="505.0108" y="212.5093">&#128308; Re-saisies</text><text fill="#000000" font-family="sans-serif" font-size="14" lengthAdjust="spacing" textLength="77.2097" x="505.0108" y="231.5772">manuel (6x)</text><text fill="#000000" font-family="sans-serif" font-size="14" lengthAdjust="spacing" textLength="66.3877" x="645.2205" y="169.3734">Sage MDE</text><path d="M592.2205,216.6113 L602.2205,216.6113 C617.2205,216.6113 617.2205,163.9415 632.2205,163.9415 L642.2205,163.9415 " fill="none" style="stroke:#181818;stroke-width:1;"/><text fill="#000000" font-family="sans-serif" font-size="14" lengthAdjust="spacing" textLength="52.4718" x="645.2205" y="190.4414">Excel x4</text><path d="M592.2205,216.6113 L602.2205,216.6113 C617.2205,216.6113 617.2205,185.0094 632.2205,185.0094 L642.2205,185.0094 " fill="none" style="stroke:#181818;stroke-width:1;"/><text fill="#000000" font-family="sans-serif" font-size="14" lengthAdjust="spacing" textLength="35.9519" x="645.2205" y="211.5093">Email</text><path d="M592.2205,216.6113 L602.2205,216.6113 C617.2205,216.6113 617.2205,206.0773 632.2205,206.0773 L642.2205,206.0773 " fill="none" style="stroke:#181818;stroke-width:1;"/><text fill="#000000" font-family="sans-serif" font-size="14" lengthAdjust="spacing" textLength="42.2238" x="645.2205" y="232.5772">Papier</text><path d="M592.2205,216.6113 L602.2205,216.6113 C617.2205,216.6113 617.2205,227.1452 632.2205,227.1452 L642.2205,227.1452 " fill="none" style="stroke:#181818;stroke-width:1;"/><text fill="#000000" font-family="sans-serif" font-size="14" lengthAdjust="spacing" textLength="82.2777" x="645.2205" y="253.6451">&#9200; 45 min/cmd</text><path d="M592.2205,216.6113 L602.2205,216.6113 C617.2205,216.6113 617.2205,248.2131 632.2205,248.2131 L642.2205,248.2131 " fill="none" style="stroke:#181818;stroke-width:1;"/><text fill="#000000" font-family="sans-serif" font-size="14" lengthAdjust="spacing" textLength="66.0517" x="645.2205" y="274.713">&#128176; 270K&#8364;/an</text><path d="M592.2205,216.6113 L602.2205,216.6113 C617.2205,216.6113 617.2205,269.281 632.2205,269.281 L642.2205,269.281 " fill="none" style="stroke:#181818;stroke-width:1;"/><path d="M445.0108,217.6113 L455.0108,217.6113 C470.0108,217.6113 470.0108,216.6113 485.0108,216.6113 L495.0108,216.6113 " fill="none" style="stroke:#181818;stroke-width:1;"/><rect fill="#F1F1F1" height="58.1358" rx="12.5" ry="12.5" style="stroke:#181818;stroke-width:1.5;" width="93.5697" x="495.0108" y="303.4169"/><text fill="#000000" font-family="sans-serif" font-size="14" lengthAdjust="spacing" textLength="46.8158" x="505.0108" y="328.3828">&#128308; Pas de</text><text fill="#000000" font-family="sans-serif" font-size="14" lengthAdjust="spacing" textLength="73.5697" x="505.0108" y="347.4507">visibilit&#233; TR</text><text fill="#000000" font-family="sans-serif" font-size="14" lengthAdjust="spacing" textLength="92.4556" x="641.5805" y="295.7809">Stock inconnu</text><path d="M588.5805,332.4848 L598.5805,332.4848 C613.5805,332.4848 613.5805,290.349 628.5805,290.349 L638.5805,290.349 " fill="none" style="stroke:#181818;stroke-width:1;"/><text fill="#000000" font-family="sans-serif" font-size="14" lengthAdjust="spacing" textLength="117.3756" x="641.5805" y="316.8489">Statut commande</text><path d="M588.5805,332.4848 L598.5805,332.4848 C613.5805,332.4848 613.5805,311.4169 628.5805,311.4169 L638.5805,311.4169 " fill="none" style="stroke:#181818;stroke-width:1;"/><text fill="#000000" font-family="sans-serif" font-size="14" lengthAdjust="spacing" textLength="90.7057" x="641.5805" y="337.9168">Co&#251;ts affaires</text><path d="M588.5805,332.4848 L598.5805,332.4848 C613.5805,332.4848 613.5805,332.4848 628.5805,332.4848 L638.5805,332.4848 " fill="none" style="stroke:#181818;stroke-width:1;"/><text fill="#000000" font-family="sans-serif" font-size="14" lengthAdjust="spacing" textLength="122.3315" x="641.5805" y="358.9847">&#9200; 3h pour un chiffre</text><path d="M588.5805,332.4848 L598.5805,332.4848 C613.5805,332.4848 613.5805,353.5527 628.5805,353.5527 L638.5805,353.5527 " fill="none" style="stroke:#181818;stroke-width:1;"/><text fill="#000000" font-family="sans-serif" font-size="14" lengthAdjust="spacing" textLength="66.0517" x="641.5805" y="380.0526">&#128176; 150K&#8364;/an</text><path d="M588.5805,332.4848 L598.5805,332.4848 C613.5805,332.4848 613.5805,374.6206 628.5805,374.6206 L638.5805,374.6206 " fill="none" style="stroke:#181818;stroke-width:1;"/><path d="M445.0108,217.6113 L455.0108,217.6113 C470.0108,217.6113 470.0108,332.4848 485.0108,332.4848 L495.0108,332.4848 " fill="none" style="stroke:#181818;stroke-width:1;"/><rect fill="#F1F1F1" height="58.1358" rx="12.5" ry="12.5" style="stroke:#181818;stroke-width:1.5;" width="128.4156" x="178.1915" y="93.7377"/><text fill="#000000" font-family="sans-serif" font-size="14" lengthAdjust="spacing" textLength="108.4156" x="188.1915" y="118.7036">&#128308; Communication</text><text fill="#000000" font-family="sans-serif" font-size="14" lengthAdjust="spacing" textLength="65.6317" x="188.1915" y="137.7716">archa&#239;que</text><text fill="#000000" font-family="sans-serif" font-size="14" lengthAdjust="spacing" textLength="106.0356" x="19.156" y="86.1018">100% t&#233;l&#233;phone</text><path d="M178.1915,122.8056 L168.1915,122.8056 C153.1915,122.8056 153.1915,80.6698 138.1915,80.6698 L128.1915,80.6698 " fill="none" style="stroke:#181818;stroke-width:1;"/><text fill="#000000" font-family="sans-serif" font-size="14" lengthAdjust="spacing" textLength="115.1915" x="10" y="107.1697">15-20 appels/jour</text><path d="M178.1915,122.8056 L168.1915,122.8056 C153.1915,122.8056 153.1915,101.7377 138.1915,101.7377 L128.1915,101.7377 " fill="none" style="stroke:#181818;stroke-width:1;"/><text fill="#000000" font-family="sans-serif" font-size="14" lengthAdjust="spacing" textLength="61.1798" x="64.0118" y="128.2376">Pas d'EDI</text><path d="M178.1915,122.8056 L168.1915,122.8056 C153.1915,122.8056 153.1915,122.8056 138.1915,122.8056 L128.1915,122.8056 " fill="none" style="stroke:#181818;stroke-width:1;"/><text fill="#000000" font-family="sans-serif" font-size="14" lengthAdjust="spacing" textLength="60.5918" x="64.5997" y="149.3055">Pas d'API</text><path d="M178.1915,122.8056 L168.1915,122.8056 C153.1915,122.8056 153.1915,143.8735 138.1915,143.8735 L128.1915,143.8735 " fill="none" style="stroke:#181818;stroke-width:1;"/><text fill="#000000" font-family="sans-serif" font-size="14" lengthAdjust="spacing" textLength="58.0438" x="67.1478" y="170.3734">&#128176; 90K&#8364;/an</text><path d="M178.1915,122.8056 L168.1915,122.8056 C153.1915,122.8056 153.1915,164.9415 138.1915,164.9415 L128.1915,164.9415 " fill="none" style="stroke:#181818;stroke-width:1;"/><path d="M356.6071,217.6113 L346.6071,217.6113 C331.6071,217.6113 331.6071,122.8056 316.6071,122.8056 L306.6071,122.8056 " fill="none" style="stroke:#181818;stroke-width:1;"/><rect fill="#F1F1F1" height="58.1358" rx="12.5" ry="12.5" style="stroke:#181818;stroke-width:1.5;" width="112.5257" x="194.0815" y="188.5433"/><text fill="#000000" font-family="sans-serif" font-size="14" lengthAdjust="spacing" textLength="92.5257" x="204.0815" y="213.5093">&#128308; Taux d'erreur</text><text fill="#000000" font-family="sans-serif" font-size="14" lengthAdjust="spacing" textLength="27.6499" x="204.0815" y="232.5772">50%</text><text fill="#000000" font-family="sans-serif" font-size="14" lengthAdjust="spacing" textLength="91.2236" x="49.8578" y="191.4414">Mauvaises r&#233;f</text><path d="M194.0815,217.6113 L184.0815,217.6113 C169.0815,217.6113 169.0815,186.0094 154.0815,186.0094 L144.0815,186.0094 " fill="none" style="stroke:#181818;stroke-width:1;"/><text fill="#000000" font-family="sans-serif" font-size="14" lengthAdjust="spacing" textLength="105.8396" x="35.2419" y="212.5093">Chantier bloqu&#233;</text><path d="M194.0815,217.6113 L184.0815,217.6113 C169.0815,217.6113 169.0815,207.0773 154.0815,207.0773 L144.0815,207.0773 " fill="none" style="stroke:#181818;stroke-width:1;"/><text fill="#000000" font-family="sans-serif" font-size="14" lengthAdjust="spacing" textLength="94.4296" x="46.6519" y="233.5772">&#128176; 2,400&#8364;/erreur</text><path d="M194.0815,217.6113 L184.0815,217.6113 C169.0815,217.6113 169.0815,228.1452 154.0815,228.1452 L144.0815,228.1452 " fill="none" style="stroke:#181818;stroke-width:1;"/><text fill="#000000" font-family="sans-serif" font-size="14" lengthAdjust="spacing" textLength="66.0517" x="75.0297" y="254.6451">&#128176; 200K&#8364;/an</text><path d="M194.0815,217.6113 L184.0815,217.6113 C169.0815,217.6113 169.0815,249.2131 154.0815,249.2131 L144.0815,249.2131 " fill="none" style="stroke:#181818;stroke-width:1;"/><path d="M356.6071,217.6113 L346.6071,217.6113 C331.6071,217.6113 331.6071,217.6113 316.6071,217.6113 L306.6071,217.6113 " fill="none" style="stroke:#181818;stroke-width:1;"/><rect fill="#F1F1F1" height="58.1358" rx="12.5" ry="12.5" style="stroke:#181818;stroke-width:1.5;" width="109.0536" x="197.5535" y="283.349"/><text fill="#000000" font-family="sans-serif" font-size="14" lengthAdjust="spacing" textLength="69.7477" x="207.5535" y="308.3149">&#128308; Processus</text><text fill="#000000" font-family="sans-serif" font-size="14" lengthAdjust="spacing" textLength="89.0536" x="207.5535" y="327.3828">100% manuel</text><text fill="#000000" font-family="sans-serif" font-size="14" lengthAdjust="spacing" textLength="133.7835" x="10.77" y="275.713">Z&#233;ro automatisation</text><path d="M197.5535,312.4169 L187.5535,312.4169 C172.5535,312.4169 172.5535,270.281 157.5535,270.281 L147.5535,270.281 " fill="none" style="stroke:#181818;stroke-width:1;"/><text fill="#000000" font-family="sans-serif" font-size="14" lengthAdjust="spacing" textLength="118.7196" x="25.8339" y="296.7809">Z&#233;ro digitalisation</text><path d="M197.5535,312.4169 L187.5535,312.4169 C172.5535,312.4169 172.5535,291.349 157.5535,291.349 L147.5535,291.349 " fill="none" style="stroke:#181818;stroke-width:1;"/><text fill="#000000" font-family="sans-serif" font-size="14" lengthAdjust="spacing" textLength="124.2495" x="20.304" y="317.8489">Papier + t&#233;l&#233;phone</text><path d="M197.5535,312.4169 L187.5535,312.4169 C172.5535,312.4169 172.5535,312.4169 157.5535,312.4169 L147.5535,312.4169 " fill="none" style="stroke:#181818;stroke-width:1;"/><text fill="#000000" font-family="sans-serif" font-size="14" lengthAdjust="spacing" textLength="128.0995" x="16.454" y="338.9168">&#9200; 3 jours/commande</text><path d="M197.5535,312.4169 L187.5535,312.4169 C172.5535,312.4169 172.5535,333.4848 157.5535,333.4848 L147.5535,333.4848 " fill="none" style="stroke:#181818;stroke-width:1;"/><text fill="#000000" font-family="sans-serif" font-size="14" lengthAdjust="spacing" textLength="58.0438" x="86.5097" y="359.9847">&#128176; 50K&#8364;/an</text><path d="M197.5535,312.4169 L187.5535,312.4169 C172.5535,312.4169 172.5535,354.5527 157.5535,354.5527 L147.5535,354.5527 " fill="none" style="stroke:#181818;stroke-width:1;"/><path d="M356.6071,217.6113 L346.6071,217.6113 C331.6071,217.6113 331.6071,312.4169 316.6071,312.4169 L306.6071,312.4169 " fill="none" style="stroke:#181818;stroke-width:1;"/><!--SRC=[RLFDRjD04BxxAUPIQ0rfdDGfRKvj4nVQ9jHAqXvGf6fZhvC5UzVTdoXSUG4an9qhaP3eWHj7lqcVW4TWd4segtAoT-RRcM- -R_P8QI9rndYSaHn2mlXDA1ZNwkOucX7yzCIKASrk3NKSpNHAeOzWw2EwjiA3nOF5mpEetd3XpxSlT-2wXmtlulxJZphXhZlcCOKm68o2eUEMYA-_u8Ge2XYE1UV5agenxxmvlYppxWqqcY2BPL8i9ULHcSk5aT20N8hOC6r1NM4cgU1gSx9rG4oKI8llcguJApvxhGqRvn-30QqfmXGhwsU46vh2zlvYnzuQaYaEtWtiALX4c5tuwrD6M6f_Gv8pAkt__USxy5k0qjQZBAuqRxvwsZma2gSVypaIcB2KwM89ey6wjnRH1s0ymf7C9aIqqH2939d6r0OxelYD1f0a8KnknYrPxCrW9PZX4CrOaaXQOTEeI97IH8DYCNqWri4MXhE8Q2Ruc1E9BXS_Is-jCvwt1KWsBPRvJF1Dj5LhUa3odAQg_XvRRzJ18Py7tRFgyJWygx0vV2hDY9W5ugYKrCWnRtbR5jydPev-eSNbRgmbc16kqG70JRWrnRAg-alVyyhQjb0ru_t73obmqPJ1NLYDQ1V2Ndg7UoY062qoL4MjbAbcOZPbcgIFCdOnuCLJhLO6GIcIgZ_sSqMkuiuHnKTg7whZX2bEUjNlmPnAXMsWiTlqclxkmVQfPF1MpD44Q1oqVR_jxqCd646Ptd6sNuSzKDWjmhU6prIoYIbfxZZdP4vWO52_ZBRXCgVyl7kn2K20goa5poZNplbr_m6mxzTEc8OXbSW4hljEboR4f1flH29cVDg6gz5fxS3f4Jur-8pQGBdJ4LXNViJSy2y0]--></g></svg>