<svg xmlns="http://www.w3.org/2000/svg" xmlns:xlink="http://www.w3.org/1999/xlink" contentStyleType="text/css" height="333px" preserveAspectRatio="none" style="width:907px;height:333px;background:#FFFFFF;" version="1.1" viewBox="0 0 907 333" width="907px" zoomAndPan="magnify"><title>Mind Map - Pain Points Achats &amp; Logistique</title><defs/><g><text fill="#000000" font-family="sans-serif" font-size="14" font-weight="bold" lengthAdjust="spacing" textLength="302.1049" x="300.9653" y="34.9659">Mind Map - Pain Points Achats &amp; Logistique</text><rect fill="#F1F1F1" height="58.1358" rx="12.5" ry="12.5" style="stroke:#181818;stroke-width:1.5;" width="106.7296" x="396.241" y="156.9415"/><text fill="#000000" font-family="sans-serif" font-size="14" lengthAdjust="spacing" textLength="0" x="406.241" y="181.9074">&#128308;</text><text fill="#000000" font-family="sans-serif" font-size="14" font-weight="bold" lengthAdjust="spacing" textLength="83.0897" x="409.881" y="181.9074">PROBL&#200;MES</text><text fill="#000000" font-family="sans-serif" font-size="14" font-weight="bold" lengthAdjust="spacing" textLength="62.8737" x="406.241" y="200.9753">MAJEURS</text><rect fill="#F1F1F1" height="58.1358" rx="12.5" ry="12.5" style="stroke:#181818;stroke-width:1.5;" width="135.8635" x="552.9706" y="63.1358"/><text fill="#000000" font-family="sans-serif" font-size="14" lengthAdjust="spacing" textLength="115.8635" x="562.9706" y="88.1018">&#128308; Base de donn&#233;es</text><text fill="#000000" font-family="sans-serif" font-size="14" lengthAdjust="spacing" textLength="46.7878" x="562.9706" y="107.1697">CHAOS</text><text fill="#000000" font-family="sans-serif" font-size="14" lengthAdjust="spacing" textLength="137.0735" x="741.8342" y="66.0339">Doublons r&#233;f&#233;rences</text><path d="M688.8342,92.2038 L698.8342,92.2038 C713.8342,92.2038 713.8342,60.6019 728.8342,60.6019 L738.8342,60.6019 " fill="none" style="stroke:#181818;stroke-width:1;"/><text fill="#000000" font-family="sans-serif" font-size="14" lengthAdjust="spacing" textLength="125.5515" x="741.8342" y="87.1018">Donn&#233;es obsol&#232;tes</text><path d="M688.8342,92.2038 L698.8342,92.2038 C713.8342,92.2038 713.8342,81.6698 728.8342,81.6698 L738.8342,81.6698 " fill="none" style="stroke:#181818;stroke-width:1;"/><text fill="#000000" font-family="sans-serif" font-size="14" lengthAdjust="spacing" textLength="122.1915" x="741.8342" y="108.1697">Double tarification</text><path d="M688.8342,92.2038 L698.8342,92.2038 C713.8342,92.2038 713.8342,102.7377 728.8342,102.7377 L738.8342,102.7377 " fill="none" style="stroke:#181818;stroke-width:1;"/><text fill="#000000" font-family="sans-serif" font-size="14" lengthAdjust="spacing" textLength="153.2014" x="741.8342" y="129.2376">Sage MDE "calamiteux"</text><path d="M688.8342,92.2038 L698.8342,92.2038 C713.8342,92.2038 713.8342,123.8056 728.8342,123.8056 L738.8342,123.8056 " fill="none" style="stroke:#181818;stroke-width:1;"/><path d="M502.9706,186.0094 L512.9706,186.0094 C527.9706,186.0094 527.9706,92.2038 542.9706,92.2038 L552.9706,92.2038 " fill="none" style="stroke:#181818;stroke-width:1;"/><rect fill="#F1F1F1" height="58.1358" rx="12.5" ry="12.5" style="stroke:#181818;stroke-width:1.5;" width="100.3177" x="552.9706" y="156.9415"/><text fill="#000000" font-family="sans-serif" font-size="14" lengthAdjust="spacing" textLength="69.4817" x="562.9706" y="181.9074">&#128308; Livraisons</text><text fill="#000000" font-family="sans-serif" font-size="14" lengthAdjust="spacing" textLength="80.3177" x="562.9706" y="200.9753">incompl&#232;tes</text><text fill="#000000" font-family="sans-serif" font-size="14" font-weight="bold" lengthAdjust="spacing" textLength="106.5396" x="706.2883" y="150.3055">50% seulement</text><text fill="#000000" font-family="sans-serif" font-size="14" lengthAdjust="spacing" textLength="60.1578" x="706.2883" y="169.3734">complets</text><path d="M653.2883,186.0094 L663.2883,186.0094 C678.2883,186.0094 678.2883,154.4075 693.2883,154.4075 L703.2883,154.4075 " fill="none" style="stroke:#181818;stroke-width:1;"/><text fill="#000000" font-family="sans-serif" font-size="14" lengthAdjust="spacing" textLength="130.1575" x="706.2883" y="190.4414">Reliquats non suivis</text><path d="M653.2883,186.0094 L663.2883,186.0094 C678.2883,186.0094 678.2883,185.0094 693.2883,185.0094 L703.2883,185.0094 " fill="none" style="stroke:#181818;stroke-width:1;"/><text fill="#000000" font-family="sans-serif" font-size="14" lengthAdjust="spacing" textLength="119.2515" x="706.2883" y="211.5093">Chantiers bloqu&#233;s</text><path d="M653.2883,186.0094 L663.2883,186.0094 C678.2883,186.0094 678.2883,206.0773 693.2883,206.0773 L703.2883,206.0773 " fill="none" style="stroke:#181818;stroke-width:1;"/><text fill="#000000" font-family="sans-serif" font-size="14" lengthAdjust="spacing" textLength="166.6833" x="706.2883" y="232.5772">Re-commandes multiples</text><path d="M653.2883,186.0094 L663.2883,186.0094 C678.2883,186.0094 678.2883,227.1452 693.2883,227.1452 L703.2883,227.1452 " fill="none" style="stroke:#181818;stroke-width:1;"/><path d="M502.9706,186.0094 L512.9706,186.0094 C527.9706,186.0094 527.9706,186.0094 542.9706,186.0094 L552.9706,186.0094 " fill="none" style="stroke:#181818;stroke-width:1;"/><rect fill="#F1F1F1" height="58.1358" rx="12.5" ry="12.5" style="stroke:#181818;stroke-width:1.5;" width="93.5697" x="552.9706" y="250.7471"/><text fill="#000000" font-family="sans-serif" font-size="14" lengthAdjust="spacing" textLength="46.8158" x="562.9706" y="275.713">&#128308; Pas de</text><text fill="#000000" font-family="sans-serif" font-size="14" lengthAdjust="spacing" textLength="73.5697" x="562.9706" y="294.7809">visibilit&#233; TR</text><text fill="#000000" font-family="sans-serif" font-size="14" lengthAdjust="spacing" textLength="92.4556" x="699.5403" y="253.6451">Stock inconnu</text><path d="M646.5403,279.815 L656.5403,279.815 C671.5403,279.815 671.5403,248.2131 686.5403,248.2131 L696.5403,248.2131 " fill="none" style="stroke:#181818;stroke-width:1;"/><text fill="#000000" font-family="sans-serif" font-size="14" lengthAdjust="spacing" textLength="124.0815" x="699.5403" y="274.713">Statut commandes</text><path d="M646.5403,279.815 L656.5403,279.815 C671.5403,279.815 671.5403,269.281 686.5403,269.281 L696.5403,269.281 " fill="none" style="stroke:#181818;stroke-width:1;"/><text fill="#000000" font-family="sans-serif" font-size="14" lengthAdjust="spacing" textLength="90.7057" x="699.5403" y="295.7809">Co&#251;ts affaires</text><path d="M646.5403,279.815 L656.5403,279.815 C671.5403,279.815 671.5403,290.349 686.5403,290.349 L696.5403,290.349 " fill="none" style="stroke:#181818;stroke-width:1;"/><text fill="#000000" font-family="sans-serif" font-size="14" lengthAdjust="spacing" textLength="138.8795" x="699.5403" y="316.8489">Impossible de piloter</text><path d="M646.5403,279.815 L656.5403,279.815 C671.5403,279.815 671.5403,311.4169 686.5403,311.4169 L696.5403,311.4169 " fill="none" style="stroke:#181818;stroke-width:1;"/><path d="M502.9706,186.0094 L512.9706,186.0094 C527.9706,186.0094 527.9706,279.815 542.9706,279.815 L552.9706,279.815 " fill="none" style="stroke:#181818;stroke-width:1;"/><rect fill="#F1F1F1" height="58.1358" rx="12.5" ry="12.5" style="stroke:#181818;stroke-width:1.5;" width="128.4156" x="217.8254" y="72.6698"/><text fill="#000000" font-family="sans-serif" font-size="14" lengthAdjust="spacing" textLength="108.4156" x="227.8254" y="97.6357">&#128308; Communication</text><text fill="#000000" font-family="sans-serif" font-size="14" lengthAdjust="spacing" textLength="65.6317" x="227.8254" y="116.7036">archa&#239;que</text><text fill="#000000" font-family="sans-serif" font-size="14" lengthAdjust="spacing" textLength="106.0356" x="58.7898" y="75.5678">100% t&#233;l&#233;phone</text><path d="M217.8254,101.7377 L207.8254,101.7377 C192.8254,101.7377 192.8254,70.1358 177.8254,70.1358 L167.8254,70.1358 " fill="none" style="stroke:#181818;stroke-width:1;"/><text fill="#000000" font-family="sans-serif" font-size="14" lengthAdjust="spacing" textLength="61.1798" x="103.6456" y="96.6357">Pas d'EDI</text><path d="M217.8254,101.7377 L207.8254,101.7377 C192.8254,101.7377 192.8254,91.2038 177.8254,91.2038 L167.8254,91.2038 " fill="none" style="stroke:#181818;stroke-width:1;"/><text fill="#000000" font-family="sans-serif" font-size="14" lengthAdjust="spacing" textLength="60.5918" x="104.2336" y="117.7036">Pas d'API</text><path d="M217.8254,101.7377 L207.8254,101.7377 C192.8254,101.7377 192.8254,112.2717 177.8254,112.2717 L167.8254,112.2717 " fill="none" style="stroke:#181818;stroke-width:1;"/><text fill="#000000" font-family="sans-serif" font-size="14" lengthAdjust="spacing" textLength="154.8254" x="10" y="138.7716">Commandes manuelles</text><path d="M217.8254,101.7377 L207.8254,101.7377 C192.8254,101.7377 192.8254,133.3396 177.8254,133.3396 L167.8254,133.3396 " fill="none" style="stroke:#181818;stroke-width:1;"/><path d="M396.241,186.0094 L386.241,186.0094 C371.241,186.0094 371.241,101.7377 356.241,101.7377 L346.241,101.7377 " fill="none" style="stroke:#181818;stroke-width:1;"/><rect fill="#F1F1F1" height="58.1358" rx="12.5" ry="12.5" style="stroke:#181818;stroke-width:1.5;" width="109.0536" x="237.1873" y="156.9415"/><text fill="#000000" font-family="sans-serif" font-size="14" lengthAdjust="spacing" textLength="69.7477" x="247.1873" y="181.9074">&#128308; Processus</text><text fill="#000000" font-family="sans-serif" font-size="14" lengthAdjust="spacing" textLength="89.0536" x="247.1873" y="200.9753">100% manuel</text><text fill="#000000" font-family="sans-serif" font-size="14" lengthAdjust="spacing" textLength="133.7835" x="50.4038" y="159.8395">Z&#233;ro automatisation</text><path d="M237.1873,186.0094 L227.1873,186.0094 C212.1873,186.0094 212.1873,154.4075 197.1873,154.4075 L187.1873,154.4075 " fill="none" style="stroke:#181818;stroke-width:1;"/><text fill="#000000" font-family="sans-serif" font-size="14" lengthAdjust="spacing" textLength="118.7196" x="65.4678" y="180.9074">Z&#233;ro digitalisation</text><path d="M237.1873,186.0094 L227.1873,186.0094 C212.1873,186.0094 212.1873,175.4754 197.1873,175.4754 L187.1873,175.4754 " fill="none" style="stroke:#181818;stroke-width:1;"/><text fill="#000000" font-family="sans-serif" font-size="14" lengthAdjust="spacing" textLength="124.2495" x="59.9378" y="201.9753">Papier + t&#233;l&#233;phone</text><path d="M237.1873,186.0094 L227.1873,186.0094 C212.1873,186.0094 212.1873,196.5433 197.1873,196.5433 L187.1873,196.5433 " fill="none" style="stroke:#181818;stroke-width:1;"/><text fill="#000000" font-family="sans-serif" font-size="14" lengthAdjust="spacing" textLength="127.5675" x="56.6198" y="223.0432">Multiples ressaisies</text><path d="M237.1873,186.0094 L227.1873,186.0094 C212.1873,186.0094 212.1873,217.6113 197.1873,217.6113 L187.1873,217.6113 " fill="none" style="stroke:#181818;stroke-width:1;"/><path d="M396.241,186.0094 L386.241,186.0094 C371.241,186.0094 371.241,186.0094 356.241,186.0094 L346.241,186.0094 " fill="none" style="stroke:#181818;stroke-width:1;"/><rect fill="#F1F1F1" height="58.1358" rx="12.5" ry="12.5" style="stroke:#181818;stroke-width:1.5;" width="85.6598" x="260.5812" y="241.2131"/><text fill="#000000" font-family="sans-serif" font-size="14" lengthAdjust="spacing" textLength="53.1578" x="270.5812" y="266.1791">&#128308; Aucune</text><text fill="#000000" font-family="sans-serif" font-size="14" lengthAdjust="spacing" textLength="65.6598" x="270.5812" y="285.247">tra&#231;abilit&#233;</text><text fill="#000000" font-family="sans-serif" font-size="14" lengthAdjust="spacing" textLength="151.7734" x="55.8078" y="244.1111">Qui a command&#233; quoi?</text><path d="M260.5812,270.281 L250.5812,270.281 C235.5812,270.281 235.5812,238.6792 220.5812,238.6792 L210.5812,238.6792 " fill="none" style="stroke:#181818;stroke-width:1;"/><text fill="#000000" font-family="sans-serif" font-size="14" lengthAdjust="spacing" textLength="139.9855" x="67.5957" y="265.1791">Validation non trac&#233;e</text><path d="M260.5812,270.281 L250.5812,270.281 C235.5812,270.281 235.5812,259.7471 220.5812,259.7471 L210.5812,259.7471 " fill="none" style="stroke:#181818;stroke-width:1;"/><text fill="#000000" font-family="sans-serif" font-size="14" lengthAdjust="spacing" textLength="92.5536" x="115.0276" y="286.247">Emails perdus</text><path d="M260.5812,270.281 L250.5812,270.281 C235.5812,270.281 235.5812,280.815 220.5812,280.815 L210.5812,280.815 " fill="none" style="stroke:#181818;stroke-width:1;"/><text fill="#000000" font-family="sans-serif" font-size="14" lengthAdjust="spacing" textLength="110.5296" x="97.0516" y="307.3149">Litiges fr&#233;quents</text><path d="M260.5812,270.281 L250.5812,270.281 C235.5812,270.281 235.5812,301.8829 220.5812,301.8829 L210.5812,301.8829 " fill="none" style="stroke:#181818;stroke-width:1;"/><path d="M396.241,186.0094 L386.241,186.0094 C371.241,186.0094 371.241,270.281 356.241,270.281 L346.241,270.281 " fill="none" style="stroke:#181818;stroke-width:1;"/><!--SRC=[PLFBRXD14BpFLxGY0SaYHt7aH94lnB4TYBDB5Zl90LcAnhjZfyNip6OU5lm17y2T8_Z4XHl7_I4-WTw77n6I9MkdgckggtlEhUF6PQZIZESGSrGFiKRbx4ClUUJq5-e5MeTFNZ3cq4a14P4X8dQhuaFDXveFBs6t8e2_tx_zXY28npSNOV4r6aw2OAg28EgDXdTZ-c11mxdWLa1AFwrKiH9sglhlUZSJmeC766W_arfPCCLgNgoCK8cmQwZcWvvPBOkVRWjGZG3g3-UOS8TQrS24BwYBmH3s4YvvXaxuptjiOoJ4fU5ewRQfGfNeBDzL3OAJenTWXPSY4ygLtLGKuHh2M4ZglOn2QGNMun8RfF_8bKDXB50lJxvORIfQ995nbL8NcPSEISvk3SNSKZ1JHK8uGuckMC7jkEd5wUGJb3QLykiZxho3ZMHpkIx-a2S-dtCqwyEhBDUMH6MLV8vIEs4OasBkm68gjXxwfEPL4-DKSKFJBdwLCww4saSK2lcInIf_rAevhOo_6WwkTZzxyTNQqQPdhhoGptiscYPiFSsWqgufTU57MW0Dt3kTaHsxCzaQIN61ZijdICnpIXvU_syoMWSE58kbmUEkZvvFlABidU753zwaNnT-y0Xy7JEDvCbhV5D3ztHxMjrUBG4L9xIYDJRCE4eBkJ2fRyOGeiC56PZJTbEaz9eOEnVq9EjdoLWiQNFkeX2Mj3sbQllm-EYuStYsVsaGtkibj4-WVTRjTBgTK-WFRw643zZ-spW4gxr9QC3qA0tEVEdgW8tuaiFOqpvceWitkL2ZmVNw08QqQqQhSi7Pw3xQ4auxhGjqC166dC1zn0PYpYb0gaXqYchHXRlRozOP2xbQU7fdNH2AzJNfcY-4JVu1]--></g></svg>