<svg xmlns="http://www.w3.org/2000/svg" xmlns:xlink="http://www.w3.org/1999/xlink" contentStyleType="text/css" height="3194px" preserveAspectRatio="none" style="width:888px;height:3194px;background:#FFFFFF;" version="1.1" viewBox="0 0 888 3194" width="888px" zoomAndPan="magnify"><title>State Diagram - Cycle de Vie d'une Commande</title><defs/><g><text fill="#000000" font-family="sans-serif" font-size="14" font-weight="bold" lengthAdjust="spacing" textLength="321.6207" x="276.3212" y="24.9659">State Diagram - Cycle de Vie d'une Commande</text><g id="BesoinIdentifie"><rect fill="#90EE90" height="50" rx="12.5" ry="12.5" style="stroke:#181818;stroke-width:0.5;" width="122.9696" x="521.5" y="145.0679"/><line style="stroke:#181818;stroke-width:0.5;" x1="521.5" x2="644.4696" y1="174.1358" y2="174.1358"/><text fill="#000000" font-family="sans-serif" font-size="14" lengthAdjust="spacing" textLength="102.9696" x="531.5" y="165.0339">Besoin Identifi&#233;</text></g><g id="TentativeContact"><rect fill="#FFD700" height="50" rx="12.5" ry="12.5" style="stroke:#181818;stroke-width:0.5;" width="155.3515" x="330.5" y="274.0679"/><line style="stroke:#181818;stroke-width:0.5;" x1="330.5" x2="485.8515" y1="303.1358" y2="303.1358"/><text fill="#000000" font-family="sans-serif" font-size="14" lengthAdjust="spacing" textLength="135.3515" x="340.5" y="294.0339">Tentative de Contact</text></g><g id="EnAttente"><rect fill="#FF6B6B" height="50" rx="12.5" ry="12.5" style="stroke:#181818;stroke-width:0.5;" width="88.6277" x="403.5" y="403.0679"/><line style="stroke:#181818;stroke-width:0.5;" x1="403.5" x2="492.1277" y1="432.1358" y2="432.1358"/><text fill="#000000" font-family="sans-serif" font-size="14" lengthAdjust="spacing" textLength="68.6277" x="413.5" y="423.0339">En Attente</text></g><g id="RechercheProduit"><rect fill="#FFD700" height="50" rx="12.5" ry="12.5" style="stroke:#181818;stroke-width:0.5;" width="141.2115" x="227.5" y="403.0679"/><line style="stroke:#181818;stroke-width:0.5;" x1="227.5" x2="368.7115" y1="432.1358" y2="432.1358"/><text fill="#000000" font-family="sans-serif" font-size="14" lengthAdjust="spacing" textLength="121.2115" x="237.5" y="423.0339">Recherche Produit</text></g><g id="Confusion"><rect fill="#FF6B6B" height="50" rx="12.5" ry="12.5" style="stroke:#181818;stroke-width:0.5;" width="163.4854" x="295.5" y="583.0679"/><line style="stroke:#181818;stroke-width:0.5;" x1="295.5" x2="458.9854" y1="612.1358" y2="612.1358"/><text fill="#000000" font-family="sans-serif" font-size="14" lengthAdjust="spacing" textLength="143.4854" x="305.5" y="603.0339">Confusion R&#233;f&#233;rences</text></g><g id="ChoixReference"><rect fill="#FFD700" height="50" rx="12.5" ry="12.5" style="stroke:#181818;stroke-width:0.5;" width="126.8896" x="319.5" y="763.0679"/><line style="stroke:#181818;stroke-width:0.5;" x1="319.5" x2="446.3896" y1="792.1358" y2="792.1358"/><text fill="#000000" font-family="sans-serif" font-size="14" lengthAdjust="spacing" textLength="106.8896" x="329.5" y="783.0339">Choix R&#233;f&#233;rence</text></g><path d="M322,892.0679 L443.8371,892.0679 A12.5,12.5 0 0 1 456.3371,904.5679 L456.3371,921.1358 L309.5,921.1358 L309.5,904.5679 A12.5,12.5 0 0 1 322,892.0679 " fill="#FF6B6B" style="stroke:#FF6B6B;stroke-width:1;"/><rect fill="none" height="426.0679" rx="12.5" ry="12.5" style="stroke:#181818;stroke-width:0.5;" width="146.8371" x="309.5" y="892.0679"/><line style="stroke:#181818;stroke-width:0.5;" x1="309.5" x2="456.3371" y1="921.1358" y2="921.1358"/><text fill="#000000" font-family="sans-serif" font-size="14" lengthAdjust="spacing" textLength="108.1636" x="328.8367" y="912.0339">Saisies Multiples</text><ellipse cx="368" cy="942.1358" fill="#222222" rx="10" ry="10" style="stroke:#222222;stroke-width:1;"/><g id="Saisies.SaisieEmail"><rect fill="#F1F1F1" height="50" rx="12.5" ry="12.5" style="stroke:#181818;stroke-width:0.5;" width="93.3177" x="321.5" y="989.1358"/><line style="stroke:#181818;stroke-width:0.5;" x1="321.5" x2="414.8177" y1="1018.2038" y2="1018.2038"/><text fill="#000000" font-family="sans-serif" font-size="14" lengthAdjust="spacing" textLength="73.3177" x="331.5" y="1009.1018">SaisieEmail</text></g><g id="Saisies.SaisieSage"><rect fill="#F1F1F1" height="50" rx="12.5" ry="12.5" style="stroke:#181818;stroke-width:0.5;" width="89.4117" x="323.5" y="1094.1358"/><line style="stroke:#181818;stroke-width:0.5;" x1="323.5" x2="412.9117" y1="1123.2038" y2="1123.2038"/><text fill="#000000" font-family="sans-serif" font-size="14" lengthAdjust="spacing" textLength="69.4117" x="333.5" y="1114.1018">SaisieSage</text></g><g id="Saisies.SaisieExcel"><rect fill="#F1F1F1" height="50" rx="12.5" ry="12.5" style="stroke:#181818;stroke-width:0.5;" width="90.7837" x="322.5" y="1199.1358"/><line style="stroke:#181818;stroke-width:0.5;" x1="322.5" x2="413.2837" y1="1228.2038" y2="1228.2038"/><text fill="#000000" font-family="sans-serif" font-size="14" lengthAdjust="spacing" textLength="70.7837" x="332.5" y="1219.1018">SaisieExcel</text></g><ellipse cx="368" cy="1297.1358" fill="none" rx="11" ry="11" style="stroke:#222222;stroke-width:1;"/><ellipse cx="368" cy="1297.1358" fill="#222222" rx="6" ry="6" style="stroke:#222222;stroke-width:1;"/><!--link *start*Saisies to SaisieEmail--><g id="link_*start*Saisies_SaisieEmail"><path d="M368,952.2858 C368,961.5558 368,970.2758 368,982.9158 " fill="none" id="*start*Saisies-to-SaisieEmail" style="stroke:#181818;stroke-width:1;"/><polygon fill="#181818" points="368,988.9158,372,979.9158,368,983.9158,364,979.9158,368,988.9158" style="stroke:#181818;stroke-width:1;"/></g><!--link SaisieEmail to SaisieSage--><g id="link_SaisieEmail_SaisieSage"><path d="M368,1039.2858 C368,1055.6958 368,1071.3258 368,1087.7858 " fill="none" id="SaisieEmail-to-SaisieSage" style="stroke:#181818;stroke-width:1;"/><polygon fill="#181818" points="368,1093.7858,372,1084.7858,368,1088.7858,364,1084.7858,368,1093.7858" style="stroke:#181818;stroke-width:1;"/><text fill="#000000" font-family="sans-serif" font-size="13" lengthAdjust="spacing" textLength="77.3371" x="369" y="1072.0328">RE-SAISIE #5</text></g><!--link SaisieSage to SaisieExcel--><g id="link_SaisieSage_SaisieExcel"><path d="M368,1144.2858 C368,1160.6958 368,1176.3258 368,1192.7858 " fill="none" id="SaisieSage-to-SaisieExcel" style="stroke:#181818;stroke-width:1;"/><polygon fill="#181818" points="368,1198.7858,372,1189.7858,368,1193.7858,364,1189.7858,368,1198.7858" style="stroke:#181818;stroke-width:1;"/><text fill="#000000" font-family="sans-serif" font-size="13" lengthAdjust="spacing" textLength="77.3371" x="369" y="1177.0328">RE-SAISIE #6</text></g><!--link SaisieExcel to *end*Saisies--><g id="link_SaisieExcel_*end*Saisies"><path d="M368,1249.1758 C368,1261.7258 368,1270.4158 368,1279.9858 " fill="none" id="SaisieExcel-to-*end*Saisies" style="stroke:#181818;stroke-width:1;"/><polygon fill="#181818" points="368,1285.9858,372,1276.9858,368,1280.9858,364,1276.9858,368,1285.9858" style="stroke:#181818;stroke-width:1;"/></g><g id="EnCours"><rect fill="#FFFFAA" height="50" rx="12.5" ry="12.5" style="stroke:#181818;stroke-width:0.5;" width="78.5338" x="343.5" y="1403.5679"/><line style="stroke:#181818;stroke-width:0.5;" x1="343.5" x2="422.0338" y1="1432.6358" y2="1432.6358"/><text fill="#000000" font-family="sans-serif" font-size="14" lengthAdjust="spacing" textLength="58.5338" x="353.5" y="1423.5339">En Cours</text></g><g id="Livraison"><rect fill="#98FB98" height="50" rx="12.5" ry="12.5" style="stroke:#181818;stroke-width:0.5;" width="143.1715" x="311.5" y="1539.0679"/><line style="stroke:#181818;stroke-width:0.5;" x1="311.5" x2="454.6715" y1="1568.1358" y2="1568.1358"/><text fill="#000000" font-family="sans-serif" font-size="14" lengthAdjust="spacing" textLength="123.1715" x="321.5" y="1559.0339">Livraison au D&#233;p&#244;t</text></g><path d="M289,1668.0679 L503.2381,1668.0679 A12.5,12.5 0 0 1 515.7381,1680.5679 L515.7381,1697.1358 L276.5,1697.1358 L276.5,1680.5679 A12.5,12.5 0 0 1 289,1668.0679 " fill="#FFD700" style="stroke:#FFD700;stroke-width:1;"/><rect fill="none" height="759.0679" rx="12.5" ry="12.5" style="stroke:#181818;stroke-width:0.5;" width="239.2381" x="276.5" y="1668.0679"/><line style="stroke:#181818;stroke-width:0.5;" x1="276.5" x2="515.7381" y1="1697.1358" y2="1697.1358"/><text fill="#000000" font-family="sans-serif" font-size="14" lengthAdjust="spacing" textLength="65.6177" x="363.3102" y="1688.0339">R&#233;ception</text><ellipse cx="364" cy="1718.1358" fill="#222222" rx="10" ry="10" style="stroke:#222222;stroke-width:1;"/><g id="ReceptionEric.ChercheCommande"><rect fill="#F1F1F1" height="50" rx="12.5" ry="12.5" style="stroke:#181818;stroke-width:0.5;" width="150.9555" x="288.5" y="1765.1358"/><line style="stroke:#181818;stroke-width:0.5;" x1="288.5" x2="439.4555" y1="1794.2038" y2="1794.2038"/><text fill="#000000" font-family="sans-serif" font-size="14" lengthAdjust="spacing" textLength="130.9555" x="298.5" y="1785.1018">ChercheCommande</text></g><g id="ReceptionEric.CompareRef"><rect fill="#F1F1F1" height="50" rx="12.5" ry="12.5" style="stroke:#181818;stroke-width:0.5;" width="101.9697" x="313" y="1870.1358"/><line style="stroke:#181818;stroke-width:0.5;" x1="313" x2="414.9697" y1="1899.2038" y2="1899.2038"/><text fill="#000000" font-family="sans-serif" font-size="14" lengthAdjust="spacing" textLength="81.9697" x="323" y="1890.1018">CompareRef</text></g><g id="ReceptionEric.DoubteRef"><rect fill="#F1F1F1" height="50" rx="12.5" ry="12.5" style="stroke:#181818;stroke-width:0.5;" width="90.3217" x="319" y="1975.1358"/><line style="stroke:#181818;stroke-width:0.5;" x1="319" x2="409.3217" y1="2004.2038" y2="2004.2038"/><text fill="#000000" font-family="sans-serif" font-size="14" lengthAdjust="spacing" textLength="70.3217" x="329" y="1995.1018">DoubteRef</text></g><g id="ReceptionEric.AppelSylvie"><rect fill="#F1F1F1" height="50" rx="12.5" ry="12.5" style="stroke:#181818;stroke-width:0.5;" width="94.7317" x="316.5" y="2080.1358"/><line style="stroke:#181818;stroke-width:0.5;" x1="316.5" x2="411.2317" y1="2109.2038" y2="2109.2038"/><text fill="#000000" font-family="sans-serif" font-size="14" lengthAdjust="spacing" textLength="74.7317" x="326.5" y="2100.1018">AppelSylvie</text></g><g id="ReceptionEric.Comptage"><rect fill="#F1F1F1" height="50" rx="12.5" ry="12.5" style="stroke:#181818;stroke-width:0.5;" width="88.4317" x="320" y="2185.1358"/><line style="stroke:#181818;stroke-width:0.5;" x1="320" x2="408.4317" y1="2214.2038" y2="2214.2038"/><text fill="#000000" font-family="sans-serif" font-size="14" lengthAdjust="spacing" textLength="68.4317" x="330" y="2205.1018">Comptage</text></g><g id="ReceptionEric.SaisieReception"><rect fill="#F1F1F1" height="50" rx="12.5" ry="12.5" style="stroke:#181818;stroke-width:0.5;" width="122.9836" x="302.5" y="2290.1358"/><line style="stroke:#181818;stroke-width:0.5;" x1="302.5" x2="425.4836" y1="2319.2038" y2="2319.2038"/><text fill="#000000" font-family="sans-serif" font-size="14" lengthAdjust="spacing" textLength="102.9836" x="312.5" y="2310.1018">SaisieReception</text></g><ellipse cx="364" cy="2406.1358" fill="none" rx="11" ry="11" style="stroke:#222222;stroke-width:1;"/><ellipse cx="364" cy="2406.1358" fill="#222222" rx="6" ry="6" style="stroke:#222222;stroke-width:1;"/><!--link *start*ReceptionEric to ChercheCommande--><g id="link_*start*ReceptionEric_ChercheCommande"><path d="M364,1728.2858 C364,1737.5558 364,1746.2758 364,1758.9158 " fill="none" id="*start*ReceptionEric-to-ChercheCommande" style="stroke:#181818;stroke-width:1;"/><polygon fill="#181818" points="364,1764.9158,368,1755.9158,364,1759.9158,360,1755.9158,364,1764.9158" style="stroke:#181818;stroke-width:1;"/></g><!--link ChercheCommande to CompareRef--><g id="link_ChercheCommande_CompareRef"><path d="M364,1815.2858 C364,1831.6958 364,1847.3258 364,1863.7858 " fill="none" id="ChercheCommande-to-CompareRef" style="stroke:#181818;stroke-width:1;"/><polygon fill="#181818" points="364,1869.7858,368,1860.7858,364,1864.7858,360,1860.7858,364,1869.7858" style="stroke:#181818;stroke-width:1;"/><text fill="#000000" font-family="sans-serif" font-size="13" lengthAdjust="spacing" textLength="95.4071" x="365" y="1848.0328">Trouv&#233; (15 min)</text></g><!--link CompareRef to DoubteRef--><g id="link_CompareRef_DoubteRef"><path d="M364,1920.2858 C364,1936.6958 364,1952.3258 364,1968.7858 " fill="none" id="CompareRef-to-DoubteRef" style="stroke:#181818;stroke-width:1;"/><polygon fill="#181818" points="364,1974.7858,368,1965.7858,364,1969.7858,360,1965.7858,364,1974.7858" style="stroke:#181818;stroke-width:1;"/><text fill="#000000" font-family="sans-serif" font-size="13" lengthAdjust="spacing" textLength="110.1881" x="365" y="1953.0328">Nomenclatures &#8800;</text></g><!--link DoubteRef to AppelSylvie--><g id="link_DoubteRef_AppelSylvie"><path d="M364,2025.2858 C364,2041.6958 364,2057.3258 364,2073.7858 " fill="none" id="DoubteRef-to-AppelSylvie" style="stroke:#181818;stroke-width:1;"/><polygon fill="#181818" points="364,2079.7858,368,2070.7858,364,2074.7858,360,2070.7858,364,2079.7858" style="stroke:#181818;stroke-width:1;"/><text fill="#000000" font-family="sans-serif" font-size="13" lengthAdjust="spacing" textLength="83.4601" x="365" y="2058.0328">Appelle Sylvie</text></g><!--link AppelSylvie to Comptage--><g id="link_AppelSylvie_Comptage"><path d="M364,2130.2858 C364,2146.6958 364,2162.3258 364,2178.7858 " fill="none" id="AppelSylvie-to-Comptage" style="stroke:#181818;stroke-width:1;"/><polygon fill="#181818" points="364,2184.7858,368,2175.7858,364,2179.7858,360,2175.7858,364,2184.7858" style="stroke:#181818;stroke-width:1;"/><text fill="#000000" font-family="sans-serif" font-size="13" lengthAdjust="spacing" textLength="56.797" x="365" y="2163.0328">Confirm&#233;</text></g><!--link Comptage to SaisieReception--><g id="link_Comptage_SaisieReception"><path d="M364,2235.2858 C364,2251.6958 364,2267.3258 364,2283.7858 " fill="none" id="Comptage-to-SaisieReception" style="stroke:#181818;stroke-width:1;"/><polygon fill="#181818" points="364,2289.7858,368,2280.7858,364,2284.7858,360,2280.7858,364,2289.7858" style="stroke:#181818;stroke-width:1;"/><text fill="#000000" font-family="sans-serif" font-size="13" lengthAdjust="spacing" textLength="140.7381" x="365" y="2268.0328">Compte manuellement</text></g><!--link SaisieReception to *end*ReceptionEric--><g id="link_SaisieReception_*end*ReceptionEric"><path d="M364,2340.4558 C364,2358.3658 364,2375.8058 364,2388.9958 " fill="none" id="SaisieReception-to-*end*ReceptionEric" style="stroke:#181818;stroke-width:1;"/><polygon fill="#181818" points="364,2394.9958,368,2385.9958,364,2389.9958,360,2385.9958,364,2394.9958" style="stroke:#181818;stroke-width:1;"/><text fill="#000000" font-family="sans-serif" font-size="13" lengthAdjust="spacing" textLength="77.3371" x="365" y="2373.0328">RE-SAISIE #7</text></g><g id="Stocke"><rect fill="#FFD700" height="50" rx="12.5" ry="12.5" style="stroke:#181818;stroke-width:0.5;" width="127.3376" x="342.5" y="2506.0679"/><line style="stroke:#181818;stroke-width:0.5;" x1="342.5" x2="469.8376" y1="2535.1358" y2="2535.1358"/><text fill="#000000" font-family="sans-serif" font-size="14" lengthAdjust="spacing" textLength="107.3376" x="352.5" y="2526.0339">Stock&#233; au D&#233;p&#244;t</text></g><g id="Recupere"><rect fill="#90EE90" height="50" rx="12.5" ry="12.5" style="stroke:#181818;stroke-width:0.5;" width="82.1597" x="386" y="2635.0679"/><line style="stroke:#181818;stroke-width:0.5;" x1="386" x2="468.1597" y1="2664.1358" y2="2664.1358"/><text fill="#000000" font-family="sans-serif" font-size="14" lengthAdjust="spacing" textLength="62.1597" x="396" y="2655.0339">R&#233;cup&#233;r&#233;</text></g><g id="Verification"><rect fill="#FFD700" height="50" rx="12.5" ry="12.5" style="stroke:#181818;stroke-width:0.5;" width="154.4695" x="380" y="2764.0679"/><line style="stroke:#181818;stroke-width:0.5;" x1="380" x2="534.4695" y1="2793.1358" y2="2793.1358"/><text fill="#000000" font-family="sans-serif" font-size="14" lengthAdjust="spacing" textLength="134.4695" x="390" y="2784.0339">V&#233;rification Chantier</text></g><g id="Erreur"><rect fill="#FF0000" height="50" rx="12.5" ry="12.5" style="stroke:#181818;stroke-width:0.5;" width="75.5658" x="714" y="2917.5679"/><line style="stroke:#181818;stroke-width:0.5;" x1="714" x2="789.5658" y1="2946.6358" y2="2946.6358"/><text fill="#000000" font-family="sans-serif" font-size="14" lengthAdjust="spacing" textLength="55.5658" x="724" y="2937.5339">&#10060; ERREUR</text></g><g id="Utilise"><rect fill="#90EE90" height="50" rx="12.5" ry="12.5" style="stroke:#181818;stroke-width:0.5;" width="64.3658" x="425" y="2917.5679"/><line style="stroke:#181818;stroke-width:0.5;" x1="425" x2="489.3658" y1="2946.6358" y2="2946.6358"/><text fill="#000000" font-family="sans-serif" font-size="14" lengthAdjust="spacing" textLength="44.3658" x="435" y="2937.5339">&#9989; Utilis&#233;</text></g><ellipse cx="583" cy="56.0679" fill="#222222" rx="10" ry="10" style="stroke:#222222;stroke-width:1;"/><ellipse cx="374" cy="3120.0679" fill="none" rx="11" ry="11" style="stroke:#222222;stroke-width:1;"/><ellipse cx="374" cy="3120.0679" fill="#222222" rx="6" ry="6" style="stroke:#222222;stroke-width:1;"/><g id="elem_GMN2"><path d="M680,147.5679 L680,166.0679 L644.72,170.0679 L680,174.0679 L680,192.9799 A0,0 0 0 0 680,192.9799 L859.5221,192.9799 A0,0 0 0 0 859.5221,192.9799 L859.5221,157.5679 L849.5221,147.5679 L680,147.5679 A0,0 0 0 0 680,147.5679 " fill="#FEFFDD" style="stroke:#181818;stroke-width:0.5;"/><path d="M849.5221,147.5679 L849.5221,157.5679 L859.5221,157.5679 L849.5221,147.5679 " fill="#FEFFDD" style="stroke:#181818;stroke-width:0.5;"/><text fill="#000000" font-family="sans-serif" font-size="13" lengthAdjust="spacing" textLength="158.5221" x="686" y="166.4649">Marc a besoin de mat&#233;riel</text><text fill="#000000" font-family="sans-serif" font-size="13" lengthAdjust="spacing" textLength="108.4981" x="686" y="184.1709">pour son chantier</text></g><g id="elem_GMN5"><path d="M520.5,276.5679 L520.5,295.0679 L485.68,299.0679 L520.5,303.0679 L520.5,321.9799 A0,0 0 0 0 520.5,321.9799 L705.7552,321.9799 A0,0 0 0 0 705.7552,321.9799 L705.7552,286.5679 L695.7552,276.5679 L520.5,276.5679 A0,0 0 0 0 520.5,276.5679 " fill="#FEFFDD" style="stroke:#181818;stroke-width:0.5;"/><path d="M695.7552,276.5679 L695.7552,286.5679 L705.7552,286.5679 L695.7552,276.5679 " fill="#FEFFDD" style="stroke:#181818;stroke-width:0.5;"/><text fill="#000000" font-family="sans-serif" font-size="13" lengthAdjust="spacing" textLength="153.5041" x="526.5" y="295.4649">&#128308; Pas de canal asynchrone</text><text fill="#000000" font-family="sans-serif" font-size="13" lengthAdjust="spacing" textLength="164.2552" x="526.5" y="313.1709">D&#233;pend disponibilit&#233; Sylvie</text></g><g id="elem_GMN8"><path d="M6,405.5679 L6,450.9799 L191.7882,450.9799 L191.7882,415.5679 L181.7882,405.5679 L6,405.5679 " fill="#FEFFDD" style="stroke:#181818;stroke-width:0.5;"/><path d="M181.7882,405.5679 L181.7882,415.5679 L191.7882,415.5679 L181.7882,405.5679 " fill="#FEFFDD" style="stroke:#181818;stroke-width:1;"/><text fill="#000000" font-family="sans-serif" font-size="13" lengthAdjust="spacing" textLength="164.7882" x="12" y="424.4649">&#9200; 25 min perdu en moyenne</text><text fill="#000000" font-family="sans-serif" font-size="13" lengthAdjust="spacing" textLength="131.8331" x="12" y="442.1709">Marc rappelle 3-4 fois</text></g><g id="elem_GMN11"><path d="M527.5,414.0679 L527.5,441.7739 L700.9381,441.7739 L700.9381,424.0679 L690.9381,414.0679 L527.5,414.0679 " fill="#FEFFDD" style="stroke:#181818;stroke-width:0.5;"/><path d="M690.9381,414.0679 L690.9381,424.0679 L700.9381,424.0679 L690.9381,414.0679 " fill="#FEFFDD" style="stroke:#181818;stroke-width:1;"/><text fill="#000000" font-family="sans-serif" font-size="13" lengthAdjust="spacing" textLength="152.4381" x="533.5" y="432.9649">Sylvie cherche dans Sage</text></g><g id="elem_GMN14"><path d="M494,532.0679 L494,604.0679 L458.6,608.0679 L494,612.0679 L494,683.716 A0,0 0 0 0 494,683.716 L681.5952,683.716 A0,0 0 0 0 681.5952,683.716 L681.5952,542.0679 L671.5952,532.0679 L494,532.0679 A0,0 0 0 0 494,532.0679 " fill="#FEFFDD" style="stroke:#181818;stroke-width:0.5;"/><path d="M671.5952,532.0679 L671.5952,542.0679 L681.5952,542.0679 L671.5952,532.0679 " fill="#FEFFDD" style="stroke:#181818;stroke-width:0.5;"/><text fill="#000000" font-family="sans-serif" font-size="13" lengthAdjust="spacing" textLength="0" x="500" y="550.9649">&#128308;</text><text fill="#000000" font-family="sans-serif" font-size="13" font-weight="bold" lengthAdjust="spacing" textLength="146.4452" x="503.38" y="550.9649">CHAOS BASE DONN&#201;ES</text><text fill="#000000" font-family="sans-serif" font-size="13" lengthAdjust="spacing" textLength="166.5952" x="500" y="568.6709">12 variantes pour 1 produit</text><text fill="#000000" font-family="sans-serif" font-size="13" lengthAdjust="spacing" textLength="157.9242" x="500" y="586.377">CABLE-3G2.5-ROUGE-50M</text><text fill="#000000" font-family="sans-serif" font-size="13" lengthAdjust="spacing" textLength="95.5241" x="500" y="604.083">CBL_3G25_R_50</text><text fill="#000000" font-family="sans-serif" font-size="13" lengthAdjust="spacing" textLength="127.0751" x="500" y="621.789">3G2.5-CABLE-ROUGE</text><text fill="#000000" font-family="sans-serif" font-size="13" lengthAdjust="spacing" textLength="136.0191" x="500" y="639.495">CABLE_3G_2.5_ROUGE</text><text fill="#000000" font-family="sans-serif" font-size="13" lengthAdjust="spacing" textLength="155.5062" x="500" y="657.201">3G2,5 CABLE ROUGE 50M</text><text fill="#000000" font-family="sans-serif" font-size="13" lengthAdjust="spacing" textLength="10.452" x="500" y="674.907">...</text></g><g id="elem_GMN17"><path d="M98,774.0679 L98,801.7739 A0,0 0 0 0 98,801.7739 L284.4121,801.7739 A0,0 0 0 0 284.4121,801.7739 L284.4121,792.0679 L319.19,788.0679 L284.4121,784.0679 L284.4121,784.0679 L274.4121,774.0679 L98,774.0679 A0,0 0 0 0 98,774.0679 " fill="#FEFFDD" style="stroke:#181818;stroke-width:0.5;"/><path d="M274.4121,774.0679 L274.4121,784.0679 L284.4121,784.0679 L274.4121,774.0679 " fill="#FEFFDD" style="stroke:#181818;stroke-width:0.5;"/><text fill="#000000" font-family="sans-serif" font-size="13" lengthAdjust="spacing" textLength="165.4121" x="104" y="792.9649">&#9888;&#65039; 40% chance de se tromper</text></g><g id="elem_GMN20"><path d="M492,1073.5679 L492,1101.0679 L456.75,1105.0679 L492,1109.0679 L492,1136.686 A0,0 0 0 0 492,1136.686 L646.2111,1136.686 A0,0 0 0 0 646.2111,1136.686 L646.2111,1083.5679 L636.2111,1073.5679 L492,1073.5679 A0,0 0 0 0 492,1073.5679 " fill="#FEFFDD" style="stroke:#181818;stroke-width:0.5;"/><path d="M636.2111,1073.5679 L636.2111,1083.5679 L646.2111,1083.5679 L636.2111,1073.5679 " fill="#FEFFDD" style="stroke:#181818;stroke-width:0.5;"/><text fill="#000000" font-family="sans-serif" font-size="13" lengthAdjust="spacing" textLength="0" x="498" y="1092.4649">&#128308;</text><text fill="#000000" font-family="sans-serif" font-size="13" font-weight="bold" lengthAdjust="spacing" textLength="78.7151" x="501.38" y="1092.4649">6 RE-SAISIES</text><text fill="#000000" font-family="sans-serif" font-size="13" lengthAdjust="spacing" textLength="133.2111" x="498" y="1110.1709">des m&#234;mes donn&#233;es !</text><text fill="#000000" font-family="sans-serif" font-size="13" lengthAdjust="spacing" textLength="85.2801" x="498" y="1127.877">&#9200; 45 min perdu</text></g><g id="elem_GMN23"><path d="M458,1397.0679 L458,1424.5679 L422.6,1428.5679 L458,1432.5679 L458,1460.186 A0,0 0 0 0 458,1460.186 L581.6871,1460.186 A0,0 0 0 0 581.6871,1460.186 L581.6871,1407.0679 L571.6871,1397.0679 L458,1397.0679 A0,0 0 0 0 458,1397.0679 " fill="#FEFFDD" style="stroke:#181818;stroke-width:0.5;"/><path d="M571.6871,1397.0679 L571.6871,1407.0679 L581.6871,1407.0679 L571.6871,1397.0679 " fill="#FEFFDD" style="stroke:#181818;stroke-width:0.5;"/><text fill="#000000" font-family="sans-serif" font-size="13" lengthAdjust="spacing" textLength="101.7511" x="464" y="1415.9649">Attente 2-3 jours</text><text fill="#000000" font-family="sans-serif" font-size="13" lengthAdjust="spacing" textLength="101.6601" x="464" y="1433.6709">&#9208;&#65039; Chantier bloqu&#233;</text><text fill="#000000" font-family="sans-serif" font-size="13" lengthAdjust="spacing" textLength="102.6871" x="464" y="1451.377">&#128176; 800&#8364;/jour perdu</text></g><g id="elem_GMN26"><path d="M34.5,2007.0679 L34.5,2087.892 A0,0 0 0 0 34.5,2087.892 L241.9592,2087.892 A0,0 0 0 0 241.9592,2087.892 L241.9592,2051.5679 L276.24,2047.5679 L241.9592,2043.5679 L241.9592,2017.0679 L231.9592,2007.0679 L34.5,2007.0679 A0,0 0 0 0 34.5,2007.0679 " fill="#FEFFDD" style="stroke:#181818;stroke-width:0.5;"/><path d="M231.9592,2007.0679 L231.9592,2017.0679 L241.9592,2017.0679 L231.9592,2007.0679 " fill="#FEFFDD" style="stroke:#181818;stroke-width:0.5;"/><text fill="#000000" font-family="sans-serif" font-size="13" lengthAdjust="spacing" textLength="86.0731" x="40.5" y="2025.9649">&#128308; 100% manuel</text><text fill="#000000" font-family="sans-serif" font-size="13" lengthAdjust="spacing" textLength="74.6461" x="40.5" y="2043.6709">&#128308; Pas de scan</text><text fill="#000000" font-family="sans-serif" font-size="13" lengthAdjust="spacing" textLength="186.4592" x="40.5" y="2061.377">&#128308; Nomenclatures incompatibles</text><text fill="#000000" font-family="sans-serif" font-size="13" lengthAdjust="spacing" textLength="33.722" x="40.5" y="2079.083">&#9200; 1h30</text></g><g id="elem_GMN29"><path d="M504.5,2508.5679 L504.5,2527.0679 L469.81,2531.0679 L504.5,2535.0679 L504.5,2553.9799 A0,0 0 0 0 504.5,2553.9799 L703.3272,2553.9799 A0,0 0 0 0 703.3272,2553.9799 L703.3272,2518.5679 L693.3272,2508.5679 L504.5,2508.5679 A0,0 0 0 0 504.5,2508.5679 " fill="#FEFFDD" style="stroke:#181818;stroke-width:0.5;"/><path d="M693.3272,2508.5679 L693.3272,2518.5679 L703.3272,2518.5679 L693.3272,2508.5679 " fill="#FEFFDD" style="stroke:#181818;stroke-width:0.5;"/><text fill="#000000" font-family="sans-serif" font-size="13" lengthAdjust="spacing" textLength="145.1451" x="510.5" y="2527.4649">&#128308; Pas de plan rangement</text><text fill="#000000" font-family="sans-serif" font-size="13" lengthAdjust="spacing" textLength="177.8272" x="510.5" y="2545.1709">"Quelque part" dans le d&#233;p&#244;t</text></g><g id="elem_GMN32"><path d="M531,2893.0679 L531,2991.598 A0,0 0 0 0 531,2991.598 L678.9971,2991.598 A0,0 0 0 0 678.9971,2991.598 L678.9971,2946.5679 L713.83,2942.5679 L678.9971,2938.5679 L678.9971,2903.0679 L668.9971,2893.0679 L531,2893.0679 A0,0 0 0 0 531,2893.0679 " fill="#FEFFDD" style="stroke:#181818;stroke-width:0.5;"/><path d="M668.9971,2893.0679 L668.9971,2903.0679 L678.9971,2903.0679 L668.9971,2893.0679 " fill="#FEFFDD" style="stroke:#181818;stroke-width:0.5;"/><text fill="#000000" font-family="sans-serif" font-size="13" font-weight="bold" lengthAdjust="spacing" textLength="92.7551" x="537" y="2911.9649">CATASTROPHE</text><text fill="#000000" font-family="sans-serif" font-size="13" lengthAdjust="spacing" textLength="126.9971" x="537" y="2929.6709">Mauvaise r&#233;f&#233;rence !</text><text fill="#000000" font-family="sans-serif" font-size="13" lengthAdjust="spacing" textLength="115.8301" x="537" y="2947.377">&#128308; Chantier bloqu&#233; 3j</text><text fill="#000000" font-family="sans-serif" font-size="13" lengthAdjust="spacing" textLength="84.1491" x="537" y="2965.083">&#128176; 2,400&#8364; perdu</text><text fill="#000000" font-family="sans-serif" font-size="13" lengthAdjust="spacing" textLength="80.9251" x="537" y="2982.789">&#128557; Marc furieux</text></g><g id="elem_GMN35"><path d="M420,3053.0679 L420,3187.01 A0,0 0 0 0 420,3187.01 L660.2582,3187.01 A0,0 0 0 0 660.2582,3187.01 L660.2582,3063.0679 L650.2582,3053.0679 L512.77,3053.0679 L468.37,2967.5979 L504.77,3053.0679 L420,3053.0679 A0,0 0 0 0 420,3053.0679 " fill="#FEFFDD" style="stroke:#181818;stroke-width:0.5;"/><path d="M650.2582,3053.0679 L650.2582,3063.0679 L660.2582,3063.0679 L650.2582,3053.0679 " fill="#FEFFDD" style="stroke:#181818;stroke-width:0.5;"/><text fill="#000000" font-family="sans-serif" font-size="13" font-weight="bold" lengthAdjust="spacing" textLength="145.3011" x="426" y="3071.9649">M&#201;TRIQUES GLOBALES</text><text fill="#000000" font-family="sans-serif" font-size="13" lengthAdjust="spacing" textLength="133.1461" x="426" y="3089.6709">&#9200; Dur&#233;e succ&#232;s: 3 jours</text><text fill="#000000" font-family="sans-serif" font-size="13" lengthAdjust="spacing" textLength="219.2582" x="426" y="3107.377">&#9200; Dur&#233;e &#233;chec: 6 jours (recommence)</text><text fill="#000000" font-family="sans-serif" font-size="13" lengthAdjust="spacing" textLength="107.5361" x="426" y="3125.083">&#10060; Taux erreur: 50%</text><text fill="#000000" font-family="sans-serif" font-size="13" lengthAdjust="spacing" textLength="199.0172" x="426" y="3142.789">&#128176; Co&#251;t moyen/commande: 2,708&#8364;</text><text fill="#000000" font-family="sans-serif" font-size="13" lengthAdjust="spacing" textLength="131.8071" x="426" y="3160.495">&#128101; Temps humain: 6h30</text><text fill="#000000" font-family="sans-serif" font-size="13" lengthAdjust="spacing" textLength="119.2881" x="426" y="3178.201">&#128222; Nombre appels: 12</text></g><!--link *start* to BesoinIdentifie--><g id="link_*start*_BesoinIdentifie"><path d="M583,66.2379 C583,83.2679 583,114.2979 583,138.9579 " fill="none" id="*start*-to-BesoinIdentifie" style="stroke:#181818;stroke-width:1;"/><polygon fill="#181818" points="583,144.9579,587,135.9579,583,139.9579,579,135.9579,583,144.9579" style="stroke:#181818;stroke-width:1;"/><text fill="#000000" font-family="sans-serif" font-size="13" lengthAdjust="spacing" textLength="128.1801" x="584" y="110.9649">Marc identifie besoin</text></g><!--link BesoinIdentifie to TentativeContact--><g id="link_BesoinIdentifie_TentativeContact"><path d="M549.67,195.2579 C518.53,217.8479 477.156,247.8738 446.056,270.4438 " fill="none" id="BesoinIdentifie-to-TentativeContact" style="stroke:#181818;stroke-width:1;"/><polygon fill="#181818" points="441.2,273.9679,450.8334,271.9191,445.2467,271.0312,446.1346,265.4444,441.2,273.9679" style="stroke:#181818;stroke-width:1;"/><text fill="#000000" font-family="sans-serif" font-size="13" lengthAdjust="spacing" textLength="116.5191" x="507" y="239.9649">Marc appelle Sylvie</text></g><!--link TentativeContact to EnAttente--><g id="link_TentativeContact_EnAttente"><path d="M447.55,324.3179 C457.36,332.4579 466.61,342.4679 472,354.0679 C479.31,369.7979 475.906,383.1231 467.926,397.6031 " fill="none" id="TentativeContact-to-EnAttente" style="stroke:#181818;stroke-width:1;"/><polygon fill="#181818" points="465.03,402.8579,472.8772,396.9063,467.4433,398.4789,465.8707,393.045,465.03,402.8579" style="stroke:#181818;stroke-width:1;"/><text fill="#000000" font-family="sans-serif" font-size="13" lengthAdjust="spacing" textLength="96.1221" x="477" y="368.9649">Sylvie pas dispo</text></g><!--link EnAttente to TentativeContact--><g id="link_EnAttente_TentativeContact"><path d="M426.48,402.9379 C419.93,394.1479 413.54,383.7279 410,373.0679 C404.81,357.4279 404.0371,344.8381 404.8671,330.3381 " fill="none" id="EnAttente-to-TentativeContact" style="stroke:#181818;stroke-width:1;"/><polygon fill="#181818" points="405.21,324.3479,400.7022,333.1046,404.9243,329.3397,408.6891,333.5618,405.21,324.3479" style="stroke:#181818;stroke-width:1;"/><text fill="#000000" font-family="sans-serif" font-size="13" lengthAdjust="spacing" textLength="52.741" x="411" y="368.9649">Rappelle</text></g><!--link TentativeContact to RechercheProduit--><g id="link_TentativeContact_RechercheProduit"><path d="M349.65,324.2279 C336.6,332.0379 323.99,341.9079 315,354.0679 C304.55,368.1879 301.0236,381.7504 299.4236,397.0604 " fill="none" id="TentativeContact-to-RechercheProduit" style="stroke:#181818;stroke-width:1;"/><polygon fill="#181818" points="298.8,403.0279,303.7138,394.4924,299.3197,398.055,295.7571,393.6609,298.8,403.0279" style="stroke:#181818;stroke-width:1;"/><text fill="#000000" font-family="sans-serif" font-size="13" lengthAdjust="spacing" textLength="82.3811" x="316" y="368.9649">Sylvie r&#233;pond</text></g><!--link RechercheProduit to Confusion--><g id="link_RechercheProduit_Confusion"><path d="M308.65,453.0779 C323.73,487.0479 348.7068,543.3135 363.8268,577.3935 " fill="none" id="RechercheProduit-to-Confusion" style="stroke:#181818;stroke-width:1;"/><polygon fill="#181818" points="366.26,582.8779,366.2664,573.0291,364.2323,578.3075,358.9538,576.2734,366.26,582.8779" style="stroke:#181818;stroke-width:1;"/><text fill="#000000" font-family="sans-serif" font-size="13" lengthAdjust="spacing" textLength="135.9801" x="330" y="497.9649">Trouve 12 r&#233;f&#233;rences !</text></g><!--link Confusion to ChoixReference--><g id="link_Confusion_ChoixReference"><path d="M377.81,633.0779 C378.95,667.0479 380.8394,722.8013 381.9794,756.8813 " fill="none" id="Confusion-to-ChoixReference" style="stroke:#181818;stroke-width:1;"/><polygon fill="#181818" points="382.18,762.8779,385.8769,753.7492,382.0128,757.8807,377.8813,754.0167,382.18,762.8779" style="stroke:#181818;stroke-width:1;"/><text fill="#000000" font-family="sans-serif" font-size="13" lengthAdjust="spacing" textLength="152.4641" x="383" y="728.9649">Sylvie choisit "au hasard"</text></g><!--link ChoixReference to Saisies--><g id="link_ChoixReference_Saisies"><path d="M383,813.2579 C383,832.1379 383,854.3879 383,885.9879 " fill="none" id="ChoixReference-to-Saisies" style="stroke:#181818;stroke-width:1;"/><polygon fill="#181818" points="383,891.9879,387,882.9879,383,886.9879,379,882.9879,383,891.9879" style="stroke:#181818;stroke-width:1;"/><text fill="#000000" font-family="sans-serif" font-size="13" lengthAdjust="spacing" textLength="107.3931" x="384" y="857.9649">Passe commande</text></g><!--link Saisies to EnCours--><g id="link_Saisies_EnCours"><path d="M383,1318.2779 C383,1352.4879 383,1377.2279 383,1397.3179 " fill="none" id="Saisies-to-EnCours" style="stroke:#181818;stroke-width:1;"/><polygon fill="#181818" points="383,1403.3179,387,1394.3179,383,1398.3179,379,1394.3179,383,1403.3179" style="stroke:#181818;stroke-width:1;"/><text fill="#000000" font-family="sans-serif" font-size="13" lengthAdjust="spacing" textLength="190.5282" x="384" y="1362.9649">Commande fournisseur pass&#233;e</text></g><!--link EnCours to Livraison--><g id="link_EnCours_Livraison"><path d="M383,1453.7479 C383,1477.7879 383,1508.4779 383,1532.6179 " fill="none" id="EnCours-to-Livraison" style="stroke:#181818;stroke-width:1;"/><polygon fill="#181818" points="383,1538.6179,387,1529.6179,383,1533.6179,379,1529.6179,383,1538.6179" style="stroke:#181818;stroke-width:1;"/><text fill="#000000" font-family="sans-serif" font-size="13" lengthAdjust="spacing" textLength="101.9851" x="384" y="1504.9649">Fournisseur livre</text></g><!--link Livraison to ReceptionEric--><g id="link_Livraison_ReceptionEric"><path d="M383.65,1589.2779 C384.15,1607.6279 384.727,1629.2501 385.617,1661.9901 " fill="none" id="Livraison-to-ReceptionEric" style="stroke:#181818;stroke-width:1;"/><polygon fill="#181818" points="385.78,1667.9879,389.534,1658.8825,385.6441,1662.9898,381.5369,1659.0999,385.78,1667.9879" style="stroke:#181818;stroke-width:1;"/><text fill="#000000" font-family="sans-serif" font-size="13" lengthAdjust="spacing" textLength="63.388" x="386" y="1633.9649">&#201;ric v&#233;rifie</text></g><!--link ReceptionEric to Stocke--><g id="link_ReceptionEric_Stocke"><path d="M403.86,2427.0679 C404.54,2459.9579 404.9959,2481.6792 405.3759,2500.0492 " fill="none" id="ReceptionEric-to-Stocke" style="stroke:#181818;stroke-width:1;"/><polygon fill="#181818" points="405.5,2506.0479,409.313,2496.9671,405.3966,2501.049,401.3147,2497.1326,405.5,2506.0479" style="stroke:#181818;stroke-width:1;"/><text fill="#000000" font-family="sans-serif" font-size="13" lengthAdjust="spacing" textLength="70.9541" x="406" y="2471.9649">Rangement</text></g><!--link Stocke to Recupere--><g id="link_Stocke_Recupere"><path d="M410,2556.2579 C413.74,2578.8479 418.2991,2606.4786 422.0391,2629.0486 " fill="none" id="Stocke-to-Recupere" style="stroke:#181818;stroke-width:1;"/><polygon fill="#181818" points="423.02,2634.9679,425.4949,2625.4351,422.2026,2630.0352,417.6025,2626.7429,423.02,2634.9679" style="stroke:#181818;stroke-width:1;"/><text fill="#000000" font-family="sans-serif" font-size="13" lengthAdjust="spacing" textLength="121.4201" x="419" y="2600.9649">Marc vient chercher</text></g><!--link Recupere to Verification--><g id="link_Recupere_Verification"><path d="M432.71,2685.2579 C438.05,2707.8479 444.601,2735.5585 449.931,2758.1285 " fill="none" id="Recupere-to-Verification" style="stroke:#181818;stroke-width:1;"/><polygon fill="#181818" points="451.31,2763.9679,453.1344,2754.2895,450.1608,2759.1018,445.3486,2756.1282,451.31,2763.9679" style="stroke:#181818;stroke-width:1;"/><text fill="#000000" font-family="sans-serif" font-size="13" lengthAdjust="spacing" textLength="71.89" x="445" y="2729.9649">Marc v&#233;rifie</text></g><!--link Verification to Erreur--><g id="link_Verification_Erreur"><path d="M505.14,2814.1479 C547.61,2835.3879 602.84,2862.9979 603,2863.0679 C643.62,2879.5879 658.85,2871.4379 697,2893.0679 C708.52,2899.5979 715.3612,2904.7367 724.6512,2913.3967 " fill="none" id="Verification-to-Erreur" style="stroke:#181818;stroke-width:1;"/><polygon fill="#181818" points="729.04,2917.4879,725.1842,2908.4252,725.3826,2914.0786,719.7293,2914.277,729.04,2917.4879" style="stroke:#181818;stroke-width:1;"/><text fill="#000000" font-family="sans-serif" font-size="13" lengthAdjust="spacing" textLength="128.7001" x="604" y="2858.9649">50% mauvais produit</text></g><!--link Verification to Utilise--><g id="link_Verification_Utilise"><path d="M457,2814.0779 C457,2842.3579 457,2883.0779 457,2911.4279 " fill="none" id="Verification-to-Utilise" style="stroke:#181818;stroke-width:1;"/><polygon fill="#181818" points="457,2917.4279,461,2908.4279,457,2912.4279,453,2908.4279,457,2917.4279" style="stroke:#181818;stroke-width:1;"/><text fill="#000000" font-family="sans-serif" font-size="13" lengthAdjust="spacing" textLength="101.6341" x="458" y="2858.9649">50% bon produit</text></g><!--link Erreur to BesoinIdentifie--><g id="link_Erreur_BesoinIdentifie"><path d="M753.8,2917.4479 C755.88,2887.5679 759,2835.0879 759,2790.0679 C759,298.0679 759,298.0679 759,298.0679 C759,266.6979 689.8708,225.1808 637.8108,198.0508 " fill="none" id="Erreur-to-BesoinIdentifie" style="stroke:#181818;stroke-width:1;"/><polygon fill="#181818" points="632.49,195.2779,638.6227,202.9844,636.924,197.5886,642.3198,195.89,632.49,195.2779" style="stroke:#181818;stroke-width:1;"/><text fill="#000000" font-family="sans-serif" font-size="13" lengthAdjust="spacing" textLength="120.2631" x="760" y="1433.9649">Recommence TOUT</text></g><!--link Utilise to *end*--><g id="link_Utilise_*end*"><path d="M444.32,2967.7079 C432.87,2989.7479 415.76,3023.3379 402,3053.0679 C392.8,3072.9479 385.2706,3091.126 380.0506,3104.026 " fill="none" id="Utilise-to-*end*" style="stroke:#181818;stroke-width:1;"/><polygon fill="#181818" points="377.8,3109.5879,384.8839,3102.7455,379.6755,3104.953,377.468,3099.7447,377.8,3109.5879" style="stroke:#181818;stroke-width:1;"/></g><!--link GMN8 to EnAttente--><g id="link_GMN8_EnAttente"><path d="M133.03,405.4679 C158,390.2879 193.37,371.6479 227.5,363.5679 C288.48,349.1179 309.44,342.6179 368.5,363.5679 C390.61,371.4079 411.06,388.3179 425.68,402.8479 " fill="none" id="GMN8-EnAttente" style="stroke:#181818;stroke-width:1;stroke-dasharray:7.0,7.0;"/></g><!--link RechercheProduit to GMN11--><g id="link_RechercheProduit_GMN11"><path d="M328.63,403.0679 C348.61,388.4079 376.02,371.3079 403.5,363.5679 C441.58,352.8479 454.12,354.0079 492.5,363.5679 C531.43,373.2579 571.59,398.0079 594.6,413.8779 " fill="none" id="RechercheProduit-GMN11" style="stroke:#181818;stroke-width:1;stroke-dasharray:7.0,7.0;"/></g><!--SRC=[TLRBQXjN6DxFK_orAKrDvCWNEROM1KaU9mOxJYGvcrBCqUZ8EkdCcScPCyOcT5Femb08lInAwIMRGbrQo2ABG9Tw4xz0-mZzptKkSXT6dlz-_VuZcOmfZ2IH5FOPEHSaWHOChYAaJYayP_ZpKS4f3D8a8NnAW-3JjS-WrVe4-ZHF6J-SKYxP3EMwS4n41CmJ9beW279jVSN8WrDOtAm0oPUihEwrmt2l7V0KTGGxdqj8Pqsf08mlOdseK1CY5pU2qHYPMLe8o5CEqPoW1XK1vLDG9eEWwL2bCiOF8ja57QJuJoHTBYJBQApgSnLVe5UNYHTNVgsAJcR9pkh1mVx3TZERfXX6_E-ltx-3fsW2BKQ4anZDNV5eBbAkijrVt6GgXIdBivIp2OiPPklYAfDR2a1b5_AUbCXGBJ8Qa2bFojRT6aCQpQd0lwSYdHPCbee20qdvr9SYv62DwmAKhZ3pdVvEtsGUqvbEtBCnfTlNRs6p0mbsBwDYMW3baAHNb7FVNk7glzNQXbdAyagcfQV_QU3GAljGVL9Wiz8HBwLwTykQOXYYhOWpEYKyXn4vhxPZoRYA5KES5Jd3wUp2MAG5Zj76fYhi3EUNyeZcy84FkXGULWHqv2MhLciVikUxyLfR6ppkdOoWtnk5i7_ovCdYEXojhI4R_LyGmN1NqBbUdWt8VAA3NlyeR6qzsbplj8Odfu_2LgTzhEZzepEaTiw6PvqsVXi98wtbd2vAdI7hp15Hy7x7i43Jm1XSNr-l5A_CJrTjdhBB8PrHNO5o82EavrZP5LB0dEH4J5VAuYcTQk5CtUgMQlrsWrgNKTFwuvj_th-6xVQ76bCYlVev1IdI9AlXIyEyYdr4C4IiR5TjE2f57ajje4xWk8WbosBRO4UrxOLN68S3NyCB4y8KtbM-AbmrZ6eHmjQeTpWw366rusKrhsBeCg9nNNQdjAkPIXYz1ry4ZJcpOPPJjbEQCUCrnIIInHy9_anJpXStUiGD16nN8A1IHPUxmQy1ZgGgdpj220Q5u0nhYQEAM9QZoIeaQNaBI4ONQtXmqEirGhTS3CM1oMPh2rvOskthzwhd0tj3O1AdBul5ZKxqsxUmssxVVldd0oMz5Bvpgy8_OXS2iz7xVb29EqPw6NKfXOEiu7xnpW1KoLZTsptex-q6GKcoO4qpYNiI2XQXZyMr-hrGnt1MELgu1bREuLv5oov1RSG61hhyuOScnQ9PaX51SU0TdE5TkhUXk_gnqYdvIdm_BIRIIZz94roHcCX2OATlhz-eG-VvIhgd8DmkUjTybTSOQcmNYpH3hy23YKHtovFBUVVPcw7Af7e_y4APnvYa7_rIpev_VKSU-crmm54hgrk9ZJR2Xh7VEFKvtdf7gfU3yKXLJh99J7ExAnlphNRzkbHQg9EJQVIvtdd2pqqc7c8K2rlJc2whSVVHCyn6o5bCE5vcPnzWvHdczR9GZmg1HlKTLAz7uwMwqyQNdTa2TyO_6h63NBfJAcepMsGuoVQnwDNSAp7m56NrELKZ7n7RM6EvkGVF3S5AkUNMvclwhYH1ZQhnI0YrlrsyMggjnGMEYZ-NIzAd4XzhERNY4wGwKHVHxSzVGpWSXgT30rd6FFfljvjtoV2mw7ZBU-FUQ3myUVeur21xR0AXrPU4HbdTl2Q8mTOBXsERzxSrabaGKzGV_ZB5cnNue2ukgy1cWhlx_O_DG6ZGZiSdf-ComP- -icMmVNGrSMrqt-x6cAGdgPHfefCzNboFXuVFJiCHF3ewwVUEx6LHMx5VOCQuIaKKBNxFkr05SC_5GPhJg0ixXWdtX8zLePHgmPWKbq1rVhfNhZw3TF6tD4_J1-voTx5g3zkxM3KjzSrl-09DiXpc1TvWZcxKfYhETx-elPxWWEhdA8QtiLcMypy0]--></g></svg>