<svg xmlns="http://www.w3.org/2000/svg" xmlns:xlink="http://www.w3.org/1999/xlink" contentStyleType="text/css" height="681px" preserveAspectRatio="none" style="width:391px;height:681px;background:#FFFFFF;" version="1.1" viewBox="0 0 391 681" width="391px" zoomAndPan="magnify"><title>Timing Diagram - Timeline d'une Commande Type</title><defs/><g><text fill="#000000" font-family="sans-serif" font-size="14" font-weight="bold" lengthAdjust="spacing" textLength="348.0527" x="20" y="34.9659">Timing Diagram - Timeline d'une Commande Type</text><line style="stroke:#333333;stroke-width:0.5;" x1="95.948" x2="95.948" y1="50.0679" y2="650.4754"/><line style="stroke:#333333;stroke-width:0.5;" x1="293.1046" x2="293.1046" y1="50.0679" y2="650.4754"/><line style="stroke:#333333;stroke-width:0.5;stroke-dasharray:3.0,5.0;" x1="188.1046" x2="188.1046" y1="50.0679" y2="650.4754"/><line style="stroke:#333333;stroke-width:0.5;stroke-dasharray:3.0,5.0;" x1="238.1046" x2="238.1046" y1="50.0679" y2="650.4754"/><line style="stroke:#333333;stroke-width:0.5;stroke-dasharray:3.0,5.0;" x1="288.1046" x2="288.1046" y1="50.0679" y2="650.4754"/><line style="stroke:#333333;stroke-width:0.5;" x1="95.948" x2="293.1046" y1="50.0679" y2="50.0679"/><text fill="#333333" font-family="sans-serif" font-size="14" font-weight="bold" lengthAdjust="spacing" textLength="35.2099" x="100.948" y="65.0339">Marc</text><text fill="#333333" font-family="sans-serif" font-size="14" font-weight="bold" lengthAdjust="spacing" textLength="105.6856" x="100.948" y="84.1018">(Chef Chantier)</text><line style="stroke:#333333;stroke-width:0.5;" x1="95.948" x2="207.6337" y1="89.2038" y2="89.2038"/><line style="stroke:#333333;stroke-width:0.5;" x1="207.6337" x2="217.6337" y1="89.2038" y2="50.0679"/><polygon fill="#E2E2F0" points="200.1046,94.2038,176.1869,94.2038,188.1869,106.2038,176.1869,118.2038,200.1046,118.2038,188.1046,106.2038" style="stroke:#006400;stroke-width:1.5;"/><polygon fill="#E2E2F0" points="200.1869,94.2038,176.2691,94.2038,188.2691,106.2038,176.2691,118.2038,200.1869,118.2038,188.1869,106.2038" style="stroke:#006400;stroke-width:1.5;"/><polygon fill="#E2E2F0" points="200.2691,94.2038,176.3514,94.2038,188.3514,106.2038,176.3514,118.2038,200.2691,118.2038,188.2691,106.2038" style="stroke:#006400;stroke-width:1.5;"/><polygon fill="#E2E2F0" points="200.3514,94.2038,176.7625,94.2038,188.7625,106.2038,176.7625,118.2038,200.3514,118.2038,188.3514,106.2038" style="stroke:#006400;stroke-width:1.5;"/><polygon fill="#E2E2F0" points="200.7625,94.2038,176.8448,94.2038,188.8448,106.2038,176.8448,118.2038,200.7625,118.2038,188.7625,106.2038" style="stroke:#006400;stroke-width:1.5;"/><polygon fill="#E2E2F0" points="200.8448,94.2038,176.927,94.2038,188.927,106.2038,176.927,118.2038,200.8448,118.2038,188.8448,106.2038" style="stroke:#006400;stroke-width:1.5;"/><polygon fill="#E2E2F0" points="200.927,94.2038,177.8316,94.2038,189.8316,106.2038,177.8316,118.2038,200.927,118.2038,188.927,106.2038" style="stroke:#006400;stroke-width:1.5;"/><polygon fill="#E2E2F0" points="201.8316,94.2038,199.7889,94.2038,211.7889,106.2038,199.7889,118.2038,201.8316,118.2038,189.8316,106.2038" style="stroke:#006400;stroke-width:1.5;"/><polygon fill="#E2E2F0" points="223.7889,94.2038,200.0356,94.2038,212.0356,106.2038,200.0356,118.2038,223.7889,118.2038,211.7889,106.2038" style="stroke:#006400;stroke-width:1.5;"/><polygon fill="#E2E2F0" points="224.0356,94.2038,225.2,94.2038,237.2,106.2038,225.2,118.2038,224.0356,118.2038,212.0356,106.2038" style="stroke:#006400;stroke-width:1.5;"/><polygon fill="#E2E2F0" points="249.2,94.2038,225.4468,94.2038,237.4468,106.2038,225.4468,118.2038,249.2,118.2038,237.2,106.2038" style="stroke:#006400;stroke-width:1.5;"/><polygon fill="#E2E2F0" points="249.4468,94.2038,225.6935,94.2038,237.6935,106.2038,225.6935,118.2038,249.4468,118.2038,237.4468,106.2038" style="stroke:#006400;stroke-width:1.5;"/><polygon fill="#E2E2F0" points="249.6935,94.2038,225.7757,94.2038,237.7757,106.2038,225.7757,118.2038,249.6935,118.2038,237.6935,106.2038" style="stroke:#006400;stroke-width:1.5;"/><polygon fill="#E2E2F0" points="249.7757,94.2038,225.8579,94.2038,237.8579,106.2038,225.8579,118.2038,249.7757,118.2038,237.7757,106.2038" style="stroke:#006400;stroke-width:1.5;"/><polygon fill="#E2E2F0" points="249.8579,94.2038,226.1046,94.2038,238.1046,106.2038,226.1046,118.2038,249.8579,118.2038,237.8579,106.2038" style="stroke:#006400;stroke-width:1.5;"/><polygon fill="#E2E2F0" points="250.1046,94.2038,288.1046,94.2038,288.1046,118.2038,250.1046,118.2038,238.1046,106.2038" style="stroke:#E2E2F0;stroke-width:1.5;"/><path d="M288.1046,94.2038 L250.1046,94.2038 L238.1046,106.2038 L250.1046,118.2038 L288.1046,118.2038 " fill="#E2E2F0" style="stroke:#006400;stroke-width:1.5;"/><text fill="#333333" font-family="sans-serif" font-size="12" font-weight="bold" lengthAdjust="spacing" textLength="40.0923" x="168.0996" y="110.8598">Besoin</text><text fill="#333333" font-family="sans-serif" font-size="12" font-weight="bold" lengthAdjust="spacing" textLength="71.6885" x="152.3837" y="110.8598">ChercheDoc</text><text fill="#333333" font-family="sans-serif" font-size="12" font-weight="bold" lengthAdjust="spacing" textLength="70.2965" x="153.162" y="110.8598">RemplitBon</text><text fill="#333333" font-family="sans-serif" font-size="12" font-weight="bold" lengthAdjust="spacing" textLength="68.9045" x="154.1047" y="110.8598">AppelSylvie</text><text fill="#333333" font-family="sans-serif" font-size="12" font-weight="bold" lengthAdjust="spacing" textLength="41.2683" x="168.1695" y="110.8598">Attend</text><text fill="#333333" font-family="sans-serif" font-size="12" font-weight="bold" lengthAdjust="spacing" textLength="68.9045" x="154.4337" y="110.8598">AppelSylvie</text><text fill="#333333" font-family="sans-serif" font-size="12" font-weight="bold" lengthAdjust="spacing" textLength="41.2683" x="168.7452" y="110.8598">Attend</text><text fill="#333333" font-family="sans-serif" font-size="12" font-weight="bold" lengthAdjust="spacing" textLength="41.2683" x="180.1761" y="110.8598">Attend</text><text fill="#333333" font-family="sans-serif" font-size="12" font-weight="bold" lengthAdjust="spacing" textLength="62.8684" x="180.478" y="110.8598">AppelSuivi</text><text fill="#333333" font-family="sans-serif" font-size="12" font-weight="bold" lengthAdjust="spacing" textLength="41.2683" x="203.9837" y="110.8598">Attend</text><text fill="#333333" font-family="sans-serif" font-size="12" font-weight="bold" lengthAdjust="spacing" textLength="92.4967" x="191.0751" y="110.8598">RecupereDepot</text><text fill="#333333" font-family="sans-serif" font-size="12" font-weight="bold" lengthAdjust="spacing" textLength="93.0487" x="191.0458" y="110.8598">RetourChantier</text><text fill="#333333" font-family="sans-serif" font-size="12" font-weight="bold" lengthAdjust="spacing" textLength="60.0724" x="207.6984" y="110.8598">Deballage</text><text fill="#333333" font-family="sans-serif" font-size="12" font-weight="bold" lengthAdjust="spacing" textLength="46.2723" x="214.6806" y="110.8598">ERREUR</text><text fill="#333333" font-family="sans-serif" font-size="12" font-weight="bold" lengthAdjust="spacing" textLength="79.7166" x="198.123" y="110.8598">AppelFurieux</text><text fill="#333333" font-family="sans-serif" font-size="12" font-weight="bold" lengthAdjust="spacing" textLength="41.2683" x="250.1046" y="110.8598">Attend</text><line style="stroke:#333333;stroke-width:0.5;" x1="95.948" x2="293.1046" y1="128.2038" y2="128.2038"/><text fill="#333333" font-family="sans-serif" font-size="14" font-weight="bold" lengthAdjust="spacing" textLength="40.4599" x="100.948" y="143.1697">Sylvie</text><text fill="#333333" font-family="sans-serif" font-size="14" font-weight="bold" lengthAdjust="spacing" textLength="57.0358" x="100.948" y="162.2376">(Achats)</text><line style="stroke:#333333;stroke-width:0.5;" x1="95.948" x2="158.9838" y1="167.3396" y2="167.3396"/><line style="stroke:#333333;stroke-width:0.5;" x1="158.9838" x2="168.9838" y1="167.3396" y2="128.2038"/><text fill="#333333" font-family="sans-serif" font-size="12" lengthAdjust="spacing" textLength="60.0004" x="100.948" y="397.9956">Disponible</text><text fill="#333333" font-family="sans-serif" font-size="12" lengthAdjust="spacing" textLength="46.8363" x="100.948" y="377.9956">Reunion</text><text fill="#333333" font-family="sans-serif" font-size="12" lengthAdjust="spacing" textLength="64.8485" x="100.948" y="357.9956">TraiteAppel</text><text fill="#333333" font-family="sans-serif" font-size="12" lengthAdjust="spacing" textLength="74.1365" x="100.948" y="337.9956">ChercheSage</text><text fill="#333333" font-family="sans-serif" font-size="12" lengthAdjust="spacing" textLength="75.3125" x="100.948" y="317.9956">ChercheExcel</text><text fill="#333333" font-family="sans-serif" font-size="12" lengthAdjust="spacing" textLength="65.5685" x="100.948" y="297.9956">AppelFourn</text><text fill="#333333" font-family="sans-serif" font-size="12" lengthAdjust="spacing" textLength="76.4765" x="100.948" y="277.9956">EmailConfirm</text><text fill="#333333" font-family="sans-serif" font-size="12" lengthAdjust="spacing" textLength="59.4964" x="100.948" y="257.9956">SaisieSage</text><text fill="#333333" font-family="sans-serif" font-size="12" lengthAdjust="spacing" textLength="60.6724" x="100.948" y="237.9956">SaisieExcel</text><text fill="#333333" font-family="sans-serif" font-size="12" lengthAdjust="spacing" textLength="87.1566" x="100.948" y="217.9956">RenseigneMarc</text><text fill="#333333" font-family="sans-serif" font-size="12" lengthAdjust="spacing" textLength="79.3086" x="100.948" y="197.9956">RenseigneEric</text><text fill="#333333" font-family="sans-serif" font-size="12" lengthAdjust="spacing" textLength="62.9525" x="100.948" y="177.9956">GereErreur</text><line style="stroke:#006400;stroke-width:2;" x1="188.1046" x2="188.3514" y1="392.3396" y2="392.3396"/><line style="stroke:#006400;stroke-width:2;" x1="188.3514" x2="188.8448" y1="372.3396" y2="372.3396"/><line style="stroke:#006400;stroke-width:2;" x1="188.8448" x2="188.927" y1="352.3396" y2="352.3396"/><line style="stroke:#006400;stroke-width:2;" x1="188.927" x2="189.1244" y1="332.3396" y2="332.3396"/><line style="stroke:#006400;stroke-width:2;" x1="189.1244" x2="189.256" y1="312.3396" y2="312.3396"/><line style="stroke:#006400;stroke-width:2;" x1="189.256" x2="189.5027" y1="292.3396" y2="292.3396"/><line style="stroke:#006400;stroke-width:2;" x1="189.5027" x2="189.6671" y1="272.3396" y2="272.3396"/><line style="stroke:#006400;stroke-width:2;" x1="189.6671" x2="189.7494" y1="252.3396" y2="252.3396"/><line style="stroke:#006400;stroke-width:2;" x1="189.7494" x2="189.8316" y1="232.3396" y2="232.3396"/><line style="stroke:#006400;stroke-width:2;" x1="189.8316" x2="211.7889" y1="392.3396" y2="392.3396"/><line style="stroke:#006400;stroke-width:2;" x1="211.7889" x2="212.0356" y1="212.3396" y2="212.3396"/><line style="stroke:#006400;stroke-width:2;" x1="212.0356" x2="236.131" y1="392.3396" y2="392.3396"/><line style="stroke:#006400;stroke-width:2;" x1="236.131" x2="236.2954" y1="192.3396" y2="192.3396"/><line style="stroke:#006400;stroke-width:2;" x1="236.2954" x2="237.8579" y1="392.3396" y2="392.3396"/><line style="stroke:#006400;stroke-width:2;" x1="237.8579" x2="238.1046" y1="172.3396" y2="172.3396"/><line style="stroke:#006400;stroke-width:2;" x1="238.1046" x2="288.1046" y1="392.3396" y2="392.3396"/><line style="stroke:#006400;stroke-width:2;" x1="188.3514" x2="188.3514" y1="372.3396" y2="392.3396"/><line style="stroke:#006400;stroke-width:2;" x1="188.8448" x2="188.8448" y1="352.3396" y2="372.3396"/><line style="stroke:#006400;stroke-width:2;" x1="188.927" x2="188.927" y1="332.3396" y2="352.3396"/><line style="stroke:#006400;stroke-width:2;" x1="189.1244" x2="189.1244" y1="312.3396" y2="332.3396"/><line style="stroke:#006400;stroke-width:2;" x1="189.256" x2="189.256" y1="292.3396" y2="312.3396"/><line style="stroke:#006400;stroke-width:2;" x1="189.5027" x2="189.5027" y1="272.3396" y2="292.3396"/><line style="stroke:#006400;stroke-width:2;" x1="189.6671" x2="189.6671" y1="252.3396" y2="272.3396"/><line style="stroke:#006400;stroke-width:2;" x1="189.7494" x2="189.7494" y1="232.3396" y2="252.3396"/><line style="stroke:#006400;stroke-width:2;" x1="189.8316" x2="189.8316" y1="232.3396" y2="392.3396"/><line style="stroke:#006400;stroke-width:2;" x1="211.7889" x2="211.7889" y1="212.3396" y2="392.3396"/><line style="stroke:#006400;stroke-width:2;" x1="212.0356" x2="212.0356" y1="212.3396" y2="392.3396"/><line style="stroke:#006400;stroke-width:2;" x1="236.131" x2="236.131" y1="192.3396" y2="392.3396"/><line style="stroke:#006400;stroke-width:2;" x1="236.2954" x2="236.2954" y1="192.3396" y2="392.3396"/><line style="stroke:#006400;stroke-width:2;" x1="237.8579" x2="237.8579" y1="172.3396" y2="392.3396"/><line style="stroke:#006400;stroke-width:2;" x1="238.1046" x2="238.1046" y1="172.3396" y2="392.3396"/><line style="stroke:#333333;stroke-width:0.5;" x1="95.948" x2="293.1046" y1="404.3396" y2="404.3396"/><text fill="#333333" font-family="sans-serif" font-size="14" font-weight="bold" lengthAdjust="spacing" textLength="25.6619" x="100.948" y="419.3055">&#201;ric</text><text fill="#333333" font-family="sans-serif" font-size="14" font-weight="bold" lengthAdjust="spacing" textLength="51.7298" x="100.948" y="438.3734">(D&#233;p&#244;t)</text><line style="stroke:#333333;stroke-width:0.5;" x1="95.948" x2="153.6778" y1="443.4754" y2="443.4754"/><line style="stroke:#333333;stroke-width:0.5;" x1="153.6778" x2="163.6778" y1="443.4754" y2="404.3396"/><text fill="#333333" font-family="sans-serif" font-size="12" lengthAdjust="spacing" textLength="41.6163" x="112.8441" y="614.1315">Attente</text><text fill="#333333" font-family="sans-serif" font-size="12" lengthAdjust="spacing" textLength="56.2444" x="112.8441" y="594.1315">Reception</text><text fill="#333333" font-family="sans-serif" font-size="12" lengthAdjust="spacing" textLength="68.4485" x="112.8441" y="574.1315">ChercheDoc</text><text fill="#333333" font-family="sans-serif" font-size="12" lengthAdjust="spacing" textLength="70.2605" x="112.8441" y="554.1315">CompareRef</text><text fill="#333333" font-family="sans-serif" font-size="12" lengthAdjust="spacing" textLength="64.0565" x="112.8441" y="534.1315">AppelSylvie</text><text fill="#333333" font-family="sans-serif" font-size="12" lengthAdjust="spacing" textLength="44.5443" x="112.8441" y="514.1315">Compte</text><text fill="#333333" font-family="sans-serif" font-size="12" lengthAdjust="spacing" textLength="35.7602" x="112.8441" y="494.1315">Range</text><text fill="#333333" font-family="sans-serif" font-size="12" lengthAdjust="spacing" textLength="52.7404" x="112.8441" y="474.1315">AttendPC</text><text fill="#333333" font-family="sans-serif" font-size="12" lengthAdjust="spacing" textLength="59.4964" x="112.8441" y="454.1315">SaisieSage</text><line style="stroke:#006400;stroke-width:2;" x1="188.1046" x2="235.4731" y1="608.4754" y2="608.4754"/><line style="stroke:#006400;stroke-width:2;" x1="235.4731" x2="235.7198" y1="588.4754" y2="588.4754"/><line style="stroke:#006400;stroke-width:2;" x1="235.7198" x2="235.9665" y1="568.4754" y2="568.4754"/><line style="stroke:#006400;stroke-width:2;" x1="235.9665" x2="236.131" y1="548.4754" y2="548.4754"/><line style="stroke:#006400;stroke-width:2;" x1="236.131" x2="236.2954" y1="528.4754" y2="528.4754"/><line style="stroke:#006400;stroke-width:2;" x1="236.2954" x2="236.4599" y1="508.4754" y2="508.4754"/><line style="stroke:#006400;stroke-width:2;" x1="236.4599" x2="236.6244" y1="488.4754" y2="488.4754"/><line style="stroke:#006400;stroke-width:2;" x1="236.6244" x2="236.8711" y1="468.4754" y2="468.4754"/><line style="stroke:#006400;stroke-width:2;" x1="236.8711" x2="237.2" y1="448.4754" y2="448.4754"/><line style="stroke:#006400;stroke-width:2;" x1="237.2" x2="238.1046" y1="608.4754" y2="608.4754"/><line style="stroke:#006400;stroke-width:2;" x1="238.1046" x2="288.1046" y1="608.4754" y2="608.4754"/><line style="stroke:#006400;stroke-width:2;" x1="235.4731" x2="235.4731" y1="588.4754" y2="608.4754"/><line style="stroke:#006400;stroke-width:2;" x1="235.7198" x2="235.7198" y1="568.4754" y2="588.4754"/><line style="stroke:#006400;stroke-width:2;" x1="235.9665" x2="235.9665" y1="548.4754" y2="568.4754"/><line style="stroke:#006400;stroke-width:2;" x1="236.131" x2="236.131" y1="528.4754" y2="548.4754"/><line style="stroke:#006400;stroke-width:2;" x1="236.2954" x2="236.2954" y1="508.4754" y2="528.4754"/><line style="stroke:#006400;stroke-width:2;" x1="236.4599" x2="236.4599" y1="488.4754" y2="508.4754"/><line style="stroke:#006400;stroke-width:2;" x1="236.6244" x2="236.6244" y1="468.4754" y2="488.4754"/><line style="stroke:#006400;stroke-width:2;" x1="236.8711" x2="236.8711" y1="448.4754" y2="468.4754"/><line style="stroke:#006400;stroke-width:2;" x1="237.2" x2="237.2" y1="448.4754" y2="608.4754"/><line style="stroke:#006400;stroke-width:2;" x1="238.1046" x2="238.1046" y1="608.4754" y2="608.4754"/><line style="stroke:#333333;stroke-width:0.5;" x1="95.948" x2="293.1046" y1="620.4754" y2="620.4754"/><text fill="#333333" font-family="sans-serif" font-size="14" font-weight="bold" lengthAdjust="spacing" textLength="60.7458" x="100.948" y="640.9074">Chantier</text><line style="stroke:#006400;stroke-width:2;" x1="188.1046" x2="188.1046" y1="642.4754" y2="642.4754"/><line style="stroke:#006400;stroke-width:2;" x1="188.1046" x2="188.1046" y1="628.4754" y2="642.4754"/><line style="stroke:#006400;stroke-width:2;" x1="188.1046" x2="189.9139" y1="628.4754" y2="628.4754"/><line style="stroke:#006400;stroke-width:2;" x1="189.9139" x2="189.9139" y1="628.4754" y2="642.4754"/><line style="stroke:#006400;stroke-width:2;" x1="189.9139" x2="237.7757" y1="642.4754" y2="642.4754"/><line style="stroke:#006400;stroke-width:2;" x1="237.7757" x2="288.1046" y1="642.4754" y2="642.4754"/><line style="stroke:#333333;stroke-width:2;" x1="188.1046" x2="188.1046" y1="650.4754" y2="655.4754"/><line style="stroke:#333333;stroke-width:2;" x1="238.1046" x2="238.1046" y1="650.4754" y2="655.4754"/><line style="stroke:#333333;stroke-width:2;" x1="288.1046" x2="288.1046" y1="650.4754" y2="655.4754"/><line style="stroke:#333333;stroke-width:2;" x1="188.1046" x2="288.1046" y1="650.4754" y2="650.4754"/><text fill="#333333" font-family="sans-serif" font-size="11" lengthAdjust="spacing" textLength="6.2919" x="184.9587" y="668.2343">0</text><text fill="#333333" font-family="sans-serif" font-size="11" lengthAdjust="spacing" textLength="6.2919" x="185.0409" y="668.2343">5</text><text fill="#333333" font-family="sans-serif" font-size="11" lengthAdjust="spacing" textLength="12.5839" x="181.9772" y="668.2343">10</text><text fill="#333333" font-family="sans-serif" font-size="11" lengthAdjust="spacing" textLength="12.5839" x="182.0594" y="668.2343">15</text><text fill="#333333" font-family="sans-serif" font-size="11" lengthAdjust="spacing" textLength="12.5839" x="182.4706" y="668.2343">40</text><text fill="#333333" font-family="sans-serif" font-size="11" lengthAdjust="spacing" textLength="12.5839" x="182.5528" y="668.2343">45</text><text fill="#333333" font-family="sans-serif" font-size="11" lengthAdjust="spacing" textLength="12.5839" x="182.6351" y="668.2343">50</text><text fill="#333333" font-family="sans-serif" font-size="11" lengthAdjust="spacing" textLength="12.5839" x="182.8324" y="668.2343">62</text><text fill="#333333" font-family="sans-serif" font-size="11" lengthAdjust="spacing" textLength="12.5839" x="182.964" y="668.2343">70</text><text fill="#333333" font-family="sans-serif" font-size="11" lengthAdjust="spacing" textLength="12.5839" x="183.2107" y="668.2343">85</text><text fill="#333333" font-family="sans-serif" font-size="11" lengthAdjust="spacing" textLength="12.5839" x="183.3752" y="668.2343">95</text><text fill="#333333" font-family="sans-serif" font-size="11" lengthAdjust="spacing" textLength="18.8758" x="180.3115" y="668.2343">100</text><text fill="#333333" font-family="sans-serif" font-size="11" lengthAdjust="spacing" textLength="18.8758" x="180.3937" y="668.2343">105</text><text fill="#333333" font-family="sans-serif" font-size="11" lengthAdjust="spacing" textLength="18.8758" x="180.4759" y="668.2343">110</text><text fill="#333333" font-family="sans-serif" font-size="11" lengthAdjust="spacing" textLength="25.1678" x="199.205" y="668.2343">1440</text><text fill="#333333" font-family="sans-serif" font-size="11" lengthAdjust="spacing" textLength="25.1678" x="199.4517" y="668.2343">1455</text><text fill="#333333" font-family="sans-serif" font-size="11" lengthAdjust="spacing" textLength="25.1678" x="222.8892" y="668.2343">2880</text><text fill="#333333" font-family="sans-serif" font-size="11" lengthAdjust="spacing" textLength="25.1678" x="223.1359" y="668.2343">2895</text><text fill="#333333" font-family="sans-serif" font-size="11" lengthAdjust="spacing" textLength="25.1678" x="223.3826" y="668.2343">2910</text><text fill="#333333" font-family="sans-serif" font-size="11" lengthAdjust="spacing" textLength="25.1678" x="223.5471" y="668.2343">2920</text><text fill="#333333" font-family="sans-serif" font-size="11" lengthAdjust="spacing" textLength="25.1678" x="223.7115" y="668.2343">2930</text><text fill="#333333" font-family="sans-serif" font-size="11" lengthAdjust="spacing" textLength="25.1678" x="223.876" y="668.2343">2940</text><text fill="#333333" font-family="sans-serif" font-size="11" lengthAdjust="spacing" textLength="25.1678" x="224.0405" y="668.2343">2950</text><text fill="#333333" font-family="sans-serif" font-size="11" lengthAdjust="spacing" textLength="25.1678" x="224.2872" y="668.2343">2965</text><text fill="#333333" font-family="sans-serif" font-size="11" lengthAdjust="spacing" textLength="25.1678" x="224.6161" y="668.2343">2985</text><text fill="#333333" font-family="sans-serif" font-size="11" lengthAdjust="spacing" textLength="25.1678" x="224.8629" y="668.2343">3000</text><text fill="#333333" font-family="sans-serif" font-size="11" lengthAdjust="spacing" textLength="25.1678" x="225.1096" y="668.2343">3015</text><text fill="#333333" font-family="sans-serif" font-size="11" lengthAdjust="spacing" textLength="25.1678" x="225.1918" y="668.2343">3020</text><text fill="#333333" font-family="sans-serif" font-size="11" lengthAdjust="spacing" textLength="25.1678" x="225.274" y="668.2343">3025</text><text fill="#333333" font-family="sans-serif" font-size="11" lengthAdjust="spacing" textLength="25.1678" x="225.5208" y="668.2343">3040</text><!--SRC=[ZLFDZfim4BxxAQnSTdkeP4ZOabkom5QgMgaYsril3ap8I62GCQlD8_HHUkyRvCLgcn33qgXxGUBxPkQRdyyALGdq6IiK1OsH5v9NzAC1e4G1DB_hz3UggugBN0UU6Y0agqM6BT35Dowpd-8-EiA1HaSk58ByiA2yfOOXijvthQABtQbyGT21s-p8LTj7zE0rvlnBegaLdtytvp-gZqaqHlOek3pHnI1WcU67a3lwfUuazNJNNpkH8zamOjGfjlGHsXe5wQKC46FRr0Bt9H1Jsq1RfK0e84D5Wtc4R89h5JsUp8uGrvc6FLSzXQefKJtMmk0kVjiqK5x6Sz8fT09jwCgLiEAvmVwN_YmvAh2SQMvMmaLUsjtnGfzgy-3FgUGrirK-iH5dIp_fLPeMms3491N7Cgh50MMbkVMOst5iST3o69jHWvR7Wd_VOROAJwzuV0nciDLuQNP17RxWPBsY1Im4MEUPZ22ulQEHFjduOSYkTaWXWqRrX_93FUj0J5pWhpsNebz7moMaSB2CxvXRJhYqQkrjKfRJOWfkjhfUZLhbekZ1W4tjd7-FBFxWsfySob-7mUm1E5jdNGCIOcXgfOENZ8qzhxH5tElJxCZvCUnvMVOQI-Qxj2HDan_fxAmwvetldpg9qBsEvl-iMqcaXAvNMx5tNVNjS7y1]--></g></svg>