<svg xmlns="http://www.w3.org/2000/svg" xmlns:xlink="http://www.w3.org/1999/xlink" contentStyleType="text/css" height="1675px" preserveAspectRatio="none" style="width:1032px;height:1675px;background:#FFFFFF;" version="1.1" viewBox="0 0 1032 1675" width="1032px" zoomAndPan="magnify"><title>Use Case Diagram - Achats &amp; Logistique ACTUEL</title><defs/><g><text fill="#000000" font-family="sans-serif" font-size="14" font-weight="bold" lengthAdjust="spacing" textLength="333.3247" x="342.3377" y="24.9659">Use Case Diagram - Achats &amp; Logistique ACTUEL</text><!--cluster Syst?me Achats-Logistique ACTUEL--><g id="cluster_Syst&#232;me Achats-Logistique ACTUEL"><rect fill="#FFFFCC" height="866" rx="2.5" ry="2.5" style="stroke:#181818;stroke-width:1;" width="838" x="188" y="178.0679"/><text fill="#000000" font-family="sans-serif" font-size="14" font-weight="bold" lengthAdjust="spacing" textLength="244.7051" x="484.6475" y="195.0339">Syst&#232;me Achats-Logistique ACTUEL</text></g><!--cluster Outils (Silos)--><g id="cluster_Outils (Silos)"><rect fill="#FFE4E1" height="537" rx="2.5" ry="2.5" style="stroke:#181818;stroke-width:1;" width="175" x="585" y="1073.0679"/><text fill="#000000" font-family="sans-serif" font-size="14" font-weight="bold" lengthAdjust="spacing" textLength="86.9257" x="629.0371" y="1090.0339">Outils (Silos)</text></g><g id="elem_UC1"><ellipse cx="672.472" cy="485.1544" fill="#FFD700" rx="69.972" ry="30.0865" style="stroke:#181818;stroke-width:0.5;"/><text fill="#000000" font-family="sans-serif" font-size="14" lengthAdjust="spacing" textLength="82.2917" x="628.3261" y="480.3534">Commander</text><text fill="#000000" font-family="sans-serif" font-size="14" lengthAdjust="spacing" textLength="54.7958" x="642.0741" y="499.4213">mat&#233;riel</text></g><g id="elem_GMN9"><path d="M881,462.5679 L881,481.0679 L742.76,485.0679 L881,489.0679 L881,507.9799 A0,0 0 0 0 881,507.9799 L990.3871,507.9799 A0,0 0 0 0 990.3871,507.9799 L990.3871,472.5679 L980.3871,462.5679 L881,462.5679 A0,0 0 0 0 881,462.5679 " fill="#FEFFDD" style="stroke:#181818;stroke-width:0.5;"/><path d="M980.3871,462.5679 L980.3871,472.5679 L990.3871,472.5679 L980.3871,462.5679 " fill="#FEFFDD" style="stroke:#181818;stroke-width:0.5;"/><text fill="#000000" font-family="sans-serif" font-size="13" lengthAdjust="spacing" textLength="88.3871" x="887" y="481.4649">&#128308; 50% d'erreurs</text><text fill="#000000" font-family="sans-serif" font-size="13" lengthAdjust="spacing" textLength="45.045" x="887" y="499.1709">&#9200; 3 jours</text></g><g id="elem_UC2"><ellipse cx="286.508" cy="422.034" fill="#FFD700" rx="56.508" ry="29.9661" style="stroke:#181818;stroke-width:0.5;"/><text fill="#000000" font-family="sans-serif" font-size="14" lengthAdjust="spacing" textLength="63.6718" x="254.6721" y="415.932">Consulter</text><text fill="#000000" font-family="sans-serif" font-size="14" lengthAdjust="spacing" textLength="34.4259" x="269.2951" y="435">stock</text></g><g id="elem_GMN13"><path d="M579.5,311.0679 L579.5,338.7739 A0,0 0 0 0 579.5,338.7739 L611.81,338.7739 L338.1,409.2879 L619.81,338.7739 L765.7691,338.7739 A0,0 0 0 0 765.7691,338.7739 L765.7691,321.0679 L755.7691,311.0679 L579.5,311.0679 A0,0 0 0 0 579.5,311.0679 " fill="#FEFFDD" style="stroke:#181818;stroke-width:0.5;"/><path d="M755.7691,311.0679 L755.7691,321.0679 L765.7691,321.0679 L755.7691,311.0679 " fill="#FEFFDD" style="stroke:#181818;stroke-width:0.5;"/><text fill="#000000" font-family="sans-serif" font-size="13" lengthAdjust="spacing" textLength="165.2691" x="585.5" y="329.9649">&#128308; Donn&#233;es non fiables (40%)</text></g><g id="elem_UC3"><ellipse cx="672.3229" cy="789.034" fill="#FFD700" rx="68.8229" ry="29.9661" style="stroke:#181818;stroke-width:0.5;"/><text fill="#000000" font-family="sans-serif" font-size="14" lengthAdjust="spacing" textLength="43.7638" x="650.441" y="782.932">Traiter</text><text fill="#000000" font-family="sans-serif" font-size="14" lengthAdjust="spacing" textLength="81.0877" x="631.7791" y="802">commandes</text></g><g id="elem_GMN17"><path d="M218.5,760.5679 L218.5,805.9799 A0,0 0 0 0 218.5,805.9799 L354.8361,805.9799 A0,0 0 0 0 354.8361,805.9799 L354.8361,788.1179 L603.28,787.9979 L354.8361,780.1179 L354.8361,770.5679 L344.8361,760.5679 L218.5,760.5679 A0,0 0 0 0 218.5,760.5679 " fill="#FEFFDD" style="stroke:#181818;stroke-width:0.5;"/><path d="M344.8361,760.5679 L344.8361,770.5679 L354.8361,770.5679 L344.8361,760.5679 " fill="#FEFFDD" style="stroke:#181818;stroke-width:0.5;"/><text fill="#000000" font-family="sans-serif" font-size="13" lengthAdjust="spacing" textLength="71.097" x="224.5" y="779.4649">&#128308; 6 re-saisies</text><text fill="#000000" font-family="sans-serif" font-size="13" lengthAdjust="spacing" textLength="115.3361" x="224.5" y="797.1709">&#9200; 2h par commande</text></g><g id="elem_UC4"><ellipse cx="672.3439" cy="998.034" fill="#FF6B6B" rx="93.3439" ry="29.9661" style="stroke:#181818;stroke-width:0.5;"/><text fill="#000000" font-family="sans-serif" font-size="14" lengthAdjust="spacing" textLength="74.7037" x="634.992" y="991.932">Rechercher</text><text fill="#000000" font-family="sans-serif" font-size="14" lengthAdjust="spacing" textLength="115.7655" x="614.4611" y="1011">r&#233;f&#233;rence produit</text></g><g id="elem_GMN21"><path d="M861,975.5679 L861,994.0679 L766.25,998.0679 L861,1002.0679 L861,1020.9799 A0,0 0 0 0 861,1020.9799 L1009.9721,1020.9799 A0,0 0 0 0 1009.9721,1020.9799 L1009.9721,985.5679 L999.9721,975.5679 L861,975.5679 A0,0 0 0 0 861,975.5679 " fill="#FEFFDD" style="stroke:#181818;stroke-width:0.5;"/><path d="M999.9721,975.5679 L999.9721,985.5679 L1009.9721,985.5679 L999.9721,975.5679 " fill="#FEFFDD" style="stroke:#181818;stroke-width:0.5;"/><text fill="#000000" font-family="sans-serif" font-size="13" lengthAdjust="spacing" textLength="127.9721" x="867" y="994.4649">&#128308; 12 variantes/produit</text><text fill="#000000" font-family="sans-serif" font-size="13" lengthAdjust="spacing" textLength="100.7111" x="867" y="1012.1709">Confusion totale</text></g><g id="elem_UC5"><ellipse cx="672.6079" cy="580.1997" fill="#FFD700" rx="74.1079" ry="30.1318" style="stroke:#181818;stroke-width:0.5;"/><text fill="#000000" font-family="sans-serif" font-size="14" lengthAdjust="spacing" textLength="87.9476" x="625.6341" y="575.3987">R&#233;ceptionner</text><text fill="#000000" font-family="sans-serif" font-size="14" lengthAdjust="spacing" textLength="62.1178" x="638.5491" y="594.4667">livraisons</text></g><g id="elem_GMN25"><path d="M219.5,582.5679 L219.5,627.9799 A0,0 0 0 0 219.5,627.9799 L353.0931,627.9799 A0,0 0 0 0 353.0931,627.9799 L353.0931,604.7679 L599.17,584.7779 L353.0931,596.7679 L353.0931,592.5679 L343.0931,582.5679 L219.5,582.5679 A0,0 0 0 0 219.5,582.5679 " fill="#FEFFDD" style="stroke:#181818;stroke-width:0.5;"/><path d="M343.0931,582.5679 L343.0931,592.5679 L353.0931,592.5679 L343.0931,582.5679 " fill="#FEFFDD" style="stroke:#181818;stroke-width:0.5;"/><text fill="#000000" font-family="sans-serif" font-size="13" lengthAdjust="spacing" textLength="86.0731" x="225.5" y="601.4649">&#128308; 100% manuel</text><text fill="#000000" font-family="sans-serif" font-size="13" lengthAdjust="spacing" textLength="112.5931" x="225.5" y="619.1709">&#9200; 1h30 par livraison</text></g><g id="elem_UC6"><ellipse cx="672.2828" cy="675.1343" fill="#FF6B6B" rx="68.2828" ry="30.0664" style="stroke:#181818;stroke-width:0.5;"/><text fill="#000000" font-family="sans-serif" font-size="14" lengthAdjust="spacing" textLength="79.9817" x="629.292" y="670.3333">Suivre co&#251;ts</text><text fill="#000000" font-family="sans-serif" font-size="14" lengthAdjust="spacing" textLength="68.5157" x="635.025" y="689.4013">par affaire</text></g><g id="elem_GMN29"><path d="M205.5,662.5679 L205.5,725.686 A0,0 0 0 0 205.5,725.686 L367.4201,725.686 A0,0 0 0 0 367.4201,725.686 L367.4201,694.1079 L604.38,678.3879 L367.4201,686.1079 L367.4201,672.5679 L357.4201,662.5679 L205.5,662.5679 A0,0 0 0 0 205.5,662.5679 " fill="#FEFFDD" style="stroke:#181818;stroke-width:0.5;"/><path d="M357.4201,662.5679 L357.4201,672.5679 L367.4201,672.5679 L357.4201,662.5679 " fill="#FEFFDD" style="stroke:#181818;stroke-width:0.5;"/><text fill="#000000" font-family="sans-serif" font-size="13" lengthAdjust="spacing" textLength="140.9201" x="211.5" y="681.4649">&#128308; Donn&#233;es incoh&#233;rentes</text><text fill="#000000" font-family="sans-serif" font-size="13" lengthAdjust="spacing" textLength="113.5941" x="211.5" y="699.1709">&#9200; 3h pour un chiffre</text><text fill="#000000" font-family="sans-serif" font-size="13" lengthAdjust="spacing" textLength="86.2161" x="211.5" y="716.877">&#177;20% d'erreur</text></g><g id="elem_UC7"><ellipse cx="286.7244" cy="517.034" fill="#FFD700" rx="65.7244" ry="29.9661" style="stroke:#181818;stroke-width:0.5;"/><text fill="#000000" font-family="sans-serif" font-size="14" lengthAdjust="spacing" textLength="37.5479" x="267.9505" y="510.932">G&#233;rer</text><text fill="#000000" font-family="sans-serif" font-size="14" lengthAdjust="spacing" textLength="76.7057" x="248.3716" y="530">stock d&#233;p&#244;t</text></g><g id="elem_GMN33"><path d="M594.5,374.5679 L594.5,419.9799 A0,0 0 0 0 594.5,419.9799 L595.41,419.9799 L341.3,500.2579 L603.41,419.9799 L750.6741,419.9799 A0,0 0 0 0 750.6741,419.9799 L750.6741,384.5679 L740.6741,374.5679 L594.5,374.5679 A0,0 0 0 0 594.5,374.5679 " fill="#FEFFDD" style="stroke:#181818;stroke-width:0.5;"/><path d="M740.6741,374.5679 L740.6741,384.5679 L750.6741,384.5679 L740.6741,374.5679 " fill="#FEFFDD" style="stroke:#181818;stroke-width:0.5;"/><text fill="#000000" font-family="sans-serif" font-size="13" lengthAdjust="spacing" textLength="107.8221" x="600.5" y="393.4649">&#128308; Pas de tra&#231;abilit&#233;</text><text fill="#000000" font-family="sans-serif" font-size="13" lengthAdjust="spacing" textLength="135.1741" x="600.5" y="411.1709">Rangement chaotique</text></g><g id="elem_UC8"><ellipse cx="672.2733" cy="903.034" fill="#FFD700" rx="69.7733" ry="29.9661" style="stroke:#181818;stroke-width:0.5;"/><text fill="#000000" font-family="sans-serif" font-size="14" lengthAdjust="spacing" textLength="64.3298" x="640.1084" y="896.932">Contacter</text><text fill="#000000" font-family="sans-serif" font-size="14" lengthAdjust="spacing" textLength="82.4317" x="631.0574" y="916">fournisseurs</text></g><g id="elem_GMN37"><path d="M874,880.5679 L874,899.0679 L742.76,903.0679 L874,907.0679 L874,925.9799 A0,0 0 0 0 874,925.9799 L996.8421,925.9799 A0,0 0 0 0 996.8421,925.9799 L996.8421,890.5679 L986.8421,880.5679 L874,880.5679 A0,0 0 0 0 874,880.5679 " fill="#FEFFDD" style="stroke:#181818;stroke-width:0.5;"/><path d="M986.8421,880.5679 L986.8421,890.5679 L996.8421,890.5679 L986.8421,880.5679 " fill="#FEFFDD" style="stroke:#181818;stroke-width:0.5;"/><text fill="#000000" font-family="sans-serif" font-size="13" lengthAdjust="spacing" textLength="101.8421" x="880" y="899.4649">&#128308; 100% t&#233;l&#233;phone</text><text fill="#000000" font-family="sans-serif" font-size="13" lengthAdjust="spacing" textLength="82.2251" x="880" y="917.1709">Pas d'EDI/API</text></g><g id="elem_UC9"><ellipse cx="286.6327" cy="327.034" fill="#F1F1F1" rx="82.6327" ry="29.9661" style="stroke:#181818;stroke-width:0.5;"/><text fill="#000000" font-family="sans-serif" font-size="14" lengthAdjust="spacing" textLength="45.7658" x="263.7498" y="320.932">Valider</text><text fill="#000000" font-family="sans-serif" font-size="14" lengthAdjust="spacing" textLength="100.6176" x="236.3239" y="340">budgets achats</text></g><g id="elem_UC10"><ellipse cx="672.7326" cy="246.034" fill="#FF6B6B" rx="76.7326" ry="29.9661" style="stroke:#181818;stroke-width:0.5;"/><text fill="#000000" font-family="sans-serif" font-size="14" lengthAdjust="spacing" textLength="56.5878" x="644.4387" y="239.932">Analyser</text><text fill="#000000" font-family="sans-serif" font-size="14" lengthAdjust="spacing" textLength="92.2737" x="626.5958" y="259">performances</text></g><g id="elem_GMN42"><path d="M204.5,216.5679 L204.5,261.9799 A0,0 0 0 0 204.5,261.9799 L368.2531,261.9799 A0,0 0 0 0 368.2531,261.9799 L368.2531,244.5479 L596.05,244.6879 L368.2531,236.5479 L368.2531,226.5679 L358.2531,216.5679 L204.5,216.5679 A0,0 0 0 0 204.5,216.5679 " fill="#FEFFDD" style="stroke:#181818;stroke-width:0.5;"/><path d="M358.2531,216.5679 L358.2531,226.5679 L368.2531,226.5679 L358.2531,216.5679 " fill="#FEFFDD" style="stroke:#181818;stroke-width:0.5;"/><text fill="#000000" font-family="sans-serif" font-size="13" lengthAdjust="spacing" textLength="70.2911" x="210.5" y="235.4649">&#128308; Impossible</text><text fill="#000000" font-family="sans-serif" font-size="13" lengthAdjust="spacing" textLength="142.7531" x="210.5" y="253.1709">Donn&#233;es inexploitables</text></g><g id="elem_Sage"><ellipse cx="672.27" cy="1374.034" fill="#FF6B6B" rx="59.27" ry="29.9661" style="stroke:#181818;stroke-width:0.5;"/><text fill="#000000" font-family="sans-serif" font-size="14" lengthAdjust="spacing" textLength="66.3877" x="639.0761" y="1367.932">Sage MDE</text><text fill="#000000" font-family="sans-serif" font-size="14" lengthAdjust="spacing" textLength="67.5777" x="638.4811" y="1387">(Obsol&#232;te)</text></g><g id="elem_Excel1"><ellipse cx="672.5057" cy="1469.034" fill="#FFD700" rx="71.5057" ry="29.9661" style="stroke:#181818;stroke-width:0.5;"/><text fill="#000000" font-family="sans-serif" font-size="14" lengthAdjust="spacing" textLength="33.4179" x="655.7968" y="1462.932">Excel</text><text fill="#000000" font-family="sans-serif" font-size="14" lengthAdjust="spacing" textLength="84.8817" x="630.0649" y="1482">Fournisseurs</text></g><g id="elem_Excel2"><ellipse cx="672.4211" cy="1563.9048" fill="#FFD700" rx="35.9211" ry="29.3369" style="stroke:#181818;stroke-width:0.5;"/><text fill="#000000" font-family="sans-serif" font-size="14" lengthAdjust="spacing" textLength="33.4179" x="655.7122" y="1557.8028">Excel</text><text fill="#000000" font-family="sans-serif" font-size="14" lengthAdjust="spacing" textLength="30.6739" x="657.0841" y="1576.8707">Suivi</text></g><g id="elem_Email"><ellipse cx="672.3864" cy="1292.2416" fill="#F1F1F1" rx="37.3864" ry="16.6736" style="stroke:#181818;stroke-width:0.5;"/><text fill="#000000" font-family="sans-serif" font-size="14" lengthAdjust="spacing" textLength="35.9519" x="651.4105" y="1296.9745">Email</text></g><g id="elem_Tel"><ellipse cx="672.7229" cy="1223.0464" fill="#FFD700" rx="62.7229" ry="16.9784" style="stroke:#181818;stroke-width:0.5;"/><text fill="#000000" font-family="sans-serif" font-size="14" lengthAdjust="spacing" textLength="69.4677" x="634.989" y="1227.7793">T&#233;l&#233;phone</text></g><g id="elem_Paper"><ellipse cx="672.342" cy="1141.034" fill="#FF6B6B" rx="41.342" ry="29.9661" style="stroke:#181818;stroke-width:0.5;"/><text fill="#000000" font-family="sans-serif" font-size="14" lengthAdjust="spacing" textLength="42.2238" x="651.2301" y="1134.932">Papier</text><text fill="#000000" font-family="sans-serif" font-size="14" lengthAdjust="spacing" textLength="41.3278" x="651.6781" y="1154">(Bons)</text></g><!--entity Marc--><g id="elem_Marc"><ellipse cx="73.3008" cy="381.5679" fill="#FFB6C1" rx="8" ry="8" style="stroke:#181818;stroke-width:0.5;"/><path d="M73.3008,389.5679 L73.3008,416.5679 M60.3008,397.5679 L86.3008,397.5679 M73.3008,416.5679 L60.3008,431.5679 M73.3008,416.5679 L86.3008,431.5679 " fill="none" style="stroke:#181818;stroke-width:0.5;"/><text fill="#000000" font-family="sans-serif" font-size="14" lengthAdjust="spacing" textLength="33.0539" x="24" y="448.0339">Marc</text><text fill="#000000" font-family="sans-serif" font-size="14" lengthAdjust="spacing" textLength="98.6016" x="24" y="467.1018">(Chef Chantier)</text></g><!--entity Sylvie--><g id="elem_Sylvie"><ellipse cx="286.6747" cy="1251.5679" fill="#ADD8E6" rx="8" ry="8" style="stroke:#181818;stroke-width:0.5;"/><path d="M286.6747,1259.5679 L286.6747,1286.5679 M273.6747,1267.5679 L299.6747,1267.5679 M286.6747,1286.5679 L273.6747,1301.5679 M286.6747,1286.5679 L299.6747,1301.5679 " fill="none" style="stroke:#181818;stroke-width:0.5;"/><text fill="#000000" font-family="sans-serif" font-size="14" lengthAdjust="spacing" textLength="37.0578" x="216.5" y="1318.0339">Sylvie</text><text fill="#000000" font-family="sans-serif" font-size="14" lengthAdjust="spacing" textLength="140.3495" x="216.5" y="1337.1018">(Gestionnaire Achats)</text></g><!--entity Julien--><g id="elem_Julien"><ellipse cx="73.5698" cy="1101.5679" fill="#FFDAB9" rx="8" ry="8" style="stroke:#181818;stroke-width:0.5;"/><path d="M73.5698,1109.5679 L73.5698,1136.5679 M60.5698,1117.5679 L86.5698,1117.5679 M73.5698,1136.5679 L60.5698,1151.5679 M73.5698,1136.5679 L86.5698,1151.5679 " fill="none" style="stroke:#181818;stroke-width:0.5;"/><text fill="#000000" font-family="sans-serif" font-size="14" lengthAdjust="spacing" textLength="36.2458" x="24.5" y="1168.0339">Julien</text><text fill="#000000" font-family="sans-serif" font-size="14" lengthAdjust="spacing" textLength="98.1396" x="24.5" y="1187.1018">(Resp. Affaires)</text></g><!--entity Eric--><g id="elem_Eric"><ellipse cx="73.3378" cy="758.5679" fill="#98FB98" rx="8" ry="8" style="stroke:#181818;stroke-width:0.5;"/><path d="M73.3378,766.5679 L73.3378,793.5679 M60.3378,774.5679 L86.3378,774.5679 M73.3378,793.5679 L60.3378,808.5679 M73.3378,793.5679 L86.3378,808.5679 " fill="none" style="stroke:#181818;stroke-width:0.5;"/><text fill="#000000" font-family="sans-serif" font-size="14" lengthAdjust="spacing" textLength="23.8979" x="32.5" y="825.0339">&#201;ric</text><text fill="#000000" font-family="sans-serif" font-size="14" lengthAdjust="spacing" textLength="81.6757" x="32.5" y="844.1018">(Magasinier)</text></g><!--entity Christine--><g id="elem_Christine"><ellipse cx="73.5567" cy="247.5679" fill="#DDA0DD" rx="8" ry="8" style="stroke:#181818;stroke-width:0.5;"/><path d="M73.5567,255.5679 L73.5567,282.5679 M60.5567,263.5679 L86.5567,263.5679 M73.5567,282.5679 L60.5567,297.5679 M73.5567,282.5679 L86.5567,297.5679 " fill="none" style="stroke:#181818;stroke-width:0.5;"/><text fill="#000000" font-family="sans-serif" font-size="14" lengthAdjust="spacing" textLength="58.8138" x="6" y="314.0339">Christine</text><text fill="#000000" font-family="sans-serif" font-size="14" lengthAdjust="spacing" textLength="135.1134" x="6" y="333.1018">(Directrice G&#233;n&#233;rale)</text></g><g id="elem_GMN82"><path d="M545,46.0679 L545,162.304 L800.2212,162.304 L800.2212,56.0679 L790.2212,46.0679 L545,46.0679 " fill="#FEFFDD" style="stroke:#181818;stroke-width:0.5;"/><path d="M790.2212,46.0679 L790.2212,56.0679 L800.2212,56.0679 L790.2212,46.0679 " fill="#FEFFDD" style="stroke:#181818;stroke-width:1;"/><text fill="#000000" font-family="sans-serif" font-size="13" font-weight="bold" lengthAdjust="spacing" textLength="138.9181" x="551" y="64.9649">PROBL&#200;MES MAJEURS</text><text fill="#000000" font-family="sans-serif" font-size="13" lengthAdjust="spacing" textLength="193.8042" x="551" y="82.6709">&#128308; Aucune int&#233;gration entre outils</text><text fill="#000000" font-family="sans-serif" font-size="13" lengthAdjust="spacing" textLength="234.2212" x="551" y="100.377">&#128308; Re-saisie 6-7 fois des m&#234;mes donn&#233;es</text><text fill="#000000" font-family="sans-serif" font-size="13" lengthAdjust="spacing" textLength="165.0221" x="551" y="118.083">&#128308; Pas de visibilit&#233; temps r&#233;el</text><text fill="#000000" font-family="sans-serif" font-size="13" lengthAdjust="spacing" textLength="114.9721" x="551" y="135.789">&#128308; Taux d'erreur 50%</text><text fill="#000000" font-family="sans-serif" font-size="13" lengthAdjust="spacing" textLength="120.5881" x="551" y="153.495">&#128308; Pertes importantes</text></g><!--link Marc to UC1--><g id="link_Marc_UC1"><path d="M123.24,378.7279 C129.94,371.0379 136.16,362.7079 141,354.0679 C175.7,292.0879 123.98,242.7379 180,199.0679 C246.25,147.4279 294,161.2479 369,199.0679 C486.47,258.2979 440.14,357.6179 545,437.0679 C564.57,451.8879 583.552,460.6983 605.892,468.1983 " fill="none" id="Marc-to-UC1" style="stroke:#181818;stroke-width:1;"/><polygon fill="#181818" points="611.58,470.1079,604.321,463.4515,606.84,468.5166,601.7749,471.0356,611.58,470.1079" style="stroke:#181818;stroke-width:1;"/></g><!--link Marc to UC2--><g id="link_Marc_UC2"><path d="M123.17,422.0679 C155.06,422.0679 190.82,422.0679 224,422.0679 " fill="none" id="Marc-to-UC2" style="stroke:#181818;stroke-width:1;"/><polygon fill="#181818" points="230,422.0679,221,418.0679,225,422.0679,221,426.0679,230,422.0679" style="stroke:#181818;stroke-width:1;"/></g><!--link Marc to Paper--><g id="link_Marc_Paper"><path d="M86.53,471.1879 C101.11,532.0879 125.6,639.2079 141,732.0679 C153.11,805.1379 139.54,1001.0279 180,1063.0679 C267.15,1196.7079 357.43,1217.0979 515,1192.0679 C557.9,1185.2579 599.4564,1170.7695 630.6664,1158.3295 " fill="none" id="Marc-to-Paper" style="stroke:#181818;stroke-width:1;stroke-dasharray:7.0,7.0;"/><polygon fill="#181818" points="636.24,1156.1079,626.3986,1155.7246,631.5954,1157.9592,629.3607,1163.156,636.24,1156.1079" style="stroke:#181818;stroke-width:1;"/><text fill="#000000" font-family="sans-serif" font-size="13" lengthAdjust="spacing" textLength="36.348" x="268.5" y="1058.9649">utilise</text></g><!--link Sylvie to UC3--><g id="link_Sylvie_UC3"><path d="M350.68,1242.7579 C357.9,1234.5879 364.32,1225.6279 369,1216.0679 C401.75,1149.1279 352.97,940.6779 399,882.0679 C405.96,873.2079 532.4852,832.5144 610.1452,808.1444 " fill="none" id="Sylvie-to-UC3" style="stroke:#181818;stroke-width:1;"/><polygon fill="#181818" points="615.87,806.3479,606.0852,805.2261,611.0994,807.845,608.4805,812.8591,615.87,806.3479" style="stroke:#181818;stroke-width:1;"/></g><!--link Sylvie to UC4--><g id="link_Sylvie_UC4"><path d="M349.72,1242.9179 C357.17,1234.6679 363.93,1225.6379 369,1216.0679 C409.64,1139.3579 335.72,1082.4979 399,1023.0679 C450.08,975.0979 526.8082,973.3487 587.7182,981.1187 " fill="none" id="Sylvie-to-UC4" style="stroke:#181818;stroke-width:1;"/><polygon fill="#181818" points="593.67,981.8779,585.2485,976.7712,588.7102,981.2452,584.2362,984.7069,593.67,981.8779" style="stroke:#181818;stroke-width:1;"/></g><!--link Sylvie to UC8--><g id="link_Sylvie_UC8"><path d="M350.49,1242.6679 C357.73,1234.5079 364.22,1225.5779 369,1216.0679 C395.92,1162.5279 357.74,991.5379 399,948.0679 C426.19,919.4179 525.2484,909.3249 596.6884,905.5449 " fill="none" id="Sylvie-to-UC8" style="stroke:#181818;stroke-width:1;"/><polygon fill="#181818" points="602.68,905.2279,593.4812,901.709,597.687,905.4921,593.9039,909.6979,602.68,905.2279" style="stroke:#181818;stroke-width:1;"/></g><!--link Sylvie to Sage--><g id="link_Sylvie_Sage"><path d="M356.68,1331.7179 C370.34,1338.1279 384.84,1343.9979 399,1348.0679 C470.7,1368.7079 550.9507,1373.7158 606.9307,1374.5758 " fill="none" id="Sylvie-to-Sage" style="stroke:#181818;stroke-width:1;stroke-dasharray:7.0,7.0;"/><polygon fill="#181818" points="612.93,1374.6679,603.9925,1370.5301,607.9306,1374.5911,603.8696,1378.5292,612.93,1374.6679" style="stroke:#181818;stroke-width:1;"/><text fill="#000000" font-family="sans-serif" font-size="13" lengthAdjust="spacing" textLength="36.348" x="439" y="1343.9649">utilise</text></g><!--link Sylvie to Excel1--><g id="link_Sylvie_Excel1"><path d="M340.31,1341.3279 C369.13,1368.2079 399,1396.0679 399,1396.0679 C463.57,1431.8779 540.6712,1449.8442 598.0112,1459.3742 " fill="none" id="Sylvie-to-Excel1" style="stroke:#181818;stroke-width:1;stroke-dasharray:7.0,7.0;"/><polygon fill="#181818" points="603.93,1460.3579,595.7076,1454.9365,598.9977,1459.5382,594.396,1462.8282,603.93,1460.3579" style="stroke:#181818;stroke-width:1;"/><text fill="#000000" font-family="sans-serif" font-size="13" lengthAdjust="spacing" textLength="36.348" x="439" y="1391.9649">utilise</text></g><!--link Sylvie to Excel2--><g id="link_Sylvie_Excel2"><path d="M348.13,1341.4579 C355.91,1349.7379 363.18,1358.6979 369,1368.0679 C393.49,1407.4779 366.97,1434.4879 399,1468.0679 C463.57,1535.7579 572.7108,1555.1712 630.4608,1561.0412 " fill="none" id="Sylvie-to-Excel2" style="stroke:#181818;stroke-width:1;stroke-dasharray:7.0,7.0;"/><polygon fill="#181818" points="636.43,1561.6479,627.8806,1556.7583,631.4556,1561.1423,627.0716,1564.7173,636.43,1561.6479" style="stroke:#181818;stroke-width:1;"/><text fill="#000000" font-family="sans-serif" font-size="13" lengthAdjust="spacing" textLength="36.348" x="439" y="1463.9649">utilise</text></g><!--link Sylvie to Email--><g id="link_Sylvie_Email"><path d="M356.66,1310.7779 C370.58,1313.8179 385.18,1316.4779 399,1318.0679 C485.4,1328.0079 581.6496,1311.688 632.8696,1300.868 " fill="none" id="Sylvie-to-Email" style="stroke:#181818;stroke-width:1;stroke-dasharray:7.0,7.0;"/><polygon fill="#181818" points="638.74,1299.6279,629.1076,1297.5744,633.848,1300.6613,630.7611,1305.4017,638.74,1299.6279" style="stroke:#181818;stroke-width:1;"/><text fill="#000000" font-family="sans-serif" font-size="13" lengthAdjust="spacing" textLength="36.348" x="439" y="1313.9649">utilise</text></g><!--link Sylvie to Tel--><g id="link_Sylvie_Tel"><path d="M356.69,1283.5279 C401.9,1277.5879 462.14,1268.9679 515,1259.0679 C552.68,1252.0179 589.2015,1243.5723 620.3415,1235.9623 " fill="none" id="Sylvie-to-Tel" style="stroke:#181818;stroke-width:1;stroke-dasharray:7.0,7.0;"/><polygon fill="#181818" points="626.17,1234.5379,616.4777,1232.7888,621.3129,1235.7249,618.3769,1240.5601,626.17,1234.5379" style="stroke:#181818;stroke-width:1;"/><text fill="#000000" font-family="sans-serif" font-size="13" lengthAdjust="spacing" textLength="36.348" x="439" y="1254.9649">utilise</text></g><!--link Julien to UC1--><g id="link_Julien_UC1"><path d="M88.61,1092.9279 C104.38,1045.2179 133.91,973.1479 180,925.0679 C246.05,856.1579 307.47,896.0379 369,823.0679 C395.91,791.1579 379.89,771.1779 399,734.0679 C449.71,635.5779 456.84,599.1379 545,532.0679 C564.3,517.3879 582.9705,508.7729 605.1605,501.4729 " fill="none" id="Julien-to-UC1" style="stroke:#181818;stroke-width:1;"/><polygon fill="#181818" points="610.86,499.5979,601.0607,498.6108,606.1104,501.1604,603.5607,506.2101,610.86,499.5979" style="stroke:#181818;stroke-width:1;"/></g><!--link Julien to UC6--><g id="link_Julien_UC6"><path d="M122.72,1099.0379 C182.8,1044.5479 287.51,946.6879 369,855.0679 C383.53,838.7279 381.44,829.1079 399,816.0679 C443.27,783.1879 468.94,802.3879 515,772.0679 C531.01,761.5279 529.64,752.5379 545,741.0679 C568.92,723.2079 592.9274,710.1061 617.3774,698.5261 " fill="none" id="Julien-to-UC6" style="stroke:#181818;stroke-width:1;"/><polygon fill="#181818" points="622.8,695.9579,612.954,696.1952,618.2812,698.0981,616.3783,703.4253,622.8,695.9579" style="stroke:#181818;stroke-width:1;"/></g><!--link Julien to UC9--><g id="link_Julien_UC9"><path d="M88.74,1092.9979 C104.13,1037.9979 128.17,945.9079 141,865.0679 C158.16,756.9679 116.81,463.4379 180,374.0679 C189.43,360.7279 198.1194,353.6478 212.9794,346.7378 " fill="none" id="Julien-to-UC9" style="stroke:#181818;stroke-width:1;"/><polygon fill="#181818" points="218.42,344.2079,208.5726,344.3757,213.8862,346.3162,211.9458,351.6298,218.42,344.2079" style="stroke:#181818;stroke-width:1;"/></g><!--link Julien to Sage--><g id="link_Julien_Sage"><path d="M74.53,1191.3379 C77.57,1263.5079 95.16,1396.0079 180,1457.0679 C240.43,1500.5579 446.81,1480.9679 515,1451.0679 C532.27,1443.4979 529.13,1431.2479 545,1421.0679 C567.68,1406.5179 589.7999,1397.4004 613.5699,1389.7304 " fill="none" id="Julien-to-Sage" style="stroke:#181818;stroke-width:1;stroke-dasharray:7.0,7.0;"/><polygon fill="#181818" points="619.28,1387.8879,609.4865,1386.845,614.5216,1389.4233,611.9432,1394.4584,619.28,1387.8879" style="stroke:#181818;stroke-width:1;"/><text fill="#000000" font-family="sans-serif" font-size="13" lengthAdjust="spacing" textLength="51.7791" x="261" y="1452.9649">consulte</text></g><!--link Julien to Excel1--><g id="link_Julien_Excel1"><path d="M81.27,1191.2979 C94.91,1282.3979 128.85,1471.5179 180,1510.0679 C246.25,1559.9879 487.9033,1512.2055 604.3533,1485.3655 " fill="none" id="Julien-to-Excel1" style="stroke:#181818;stroke-width:1;stroke-dasharray:7.0,7.0;"/><polygon fill="#181818" points="610.2,1484.0179,600.5315,1482.1415,605.3277,1485.1409,602.3283,1489.9371,610.2,1484.0179" style="stroke:#181818;stroke-width:1;"/><text fill="#000000" font-family="sans-serif" font-size="13" lengthAdjust="spacing" textLength="51.7791" x="261" y="1505.9649">consulte</text></g><!--link Julien to Excel2--><g id="link_Julien_Excel2"><path d="M79.56,1191.4379 C90.96,1291.7279 122.26,1513.6479 180,1559.0679 C318.66,1668.1579 548.2406,1606.2035 633.6306,1577.6035 " fill="none" id="Julien-to-Excel2" style="stroke:#181818;stroke-width:1;stroke-dasharray:7.0,7.0;"/><polygon fill="#181818" points="639.32,1575.6979,629.5156,1574.7633,634.5789,1577.2859,632.0563,1582.3492,639.32,1575.6979" style="stroke:#181818;stroke-width:1;"/><text fill="#000000" font-family="sans-serif" font-size="13" lengthAdjust="spacing" textLength="51.7791" x="261" y="1554.9649">consulte</text></g><!--link Eric to UC5--><g id="link_Eric_UC5"><path d="M114.61,815.6279 C174.2,837.4479 287.79,868.0779 369,823.0679 C391,810.8679 379.56,791.0279 399,775.0679 C441.62,740.0779 477.64,771.6179 515,731.0679 C547.6,695.6879 512.28,662.3379 545,627.0679 C560.7,610.1479 577.3304,601.1419 598.8804,594.1819 " fill="none" id="Eric-to-UC5" style="stroke:#181818;stroke-width:1;"/><polygon fill="#181818" points="604.59,592.3379,594.7962,591.2976,599.832,593.8746,597.2549,598.9104,604.59,592.3379" style="stroke:#181818;stroke-width:1;"/></g><!--link Eric to UC7--><g id="link_Eric_UC7"><path d="M85.72,749.7079 C99.8,697.8079 128.57,616.6779 180,565.0679 C194.06,550.9579 207.4831,542.8652 225.4531,535.4552 " fill="none" id="Eric-to-UC7" style="stroke:#181818;stroke-width:1;"/><polygon fill="#181818" points="231,533.1679,221.1548,532.9009,226.3776,535.074,224.2045,540.2968,231,533.1679" style="stroke:#181818;stroke-width:1;"/></g><!--link Eric to UC2--><g id="link_Eric_UC2"><path d="M77.83,749.8179 C85.07,679.3679 107.96,549.4779 180,469.0679 C194.52,452.8679 210.049,444.0296 229.619,436.8296 " fill="none" id="Eric-to-UC2" style="stroke:#181818;stroke-width:1;"/><polygon fill="#181818" points="235.25,434.7579,225.4224,434.1115,230.5575,436.4843,228.1846,441.6195,235.25,434.7579" style="stroke:#181818;stroke-width:1;"/></g><!--link Eric to Sage--><g id="link_Eric_Sage"><path d="M88.01,848.0879 C102.74,902.9979 126.2,994.8479 141,1075.0679 C153.28,1141.6179 129.18,1332.3879 180,1377.0679 C243.2,1432.6379 494.8687,1401.6933 609.7787,1384.1533 " fill="none" id="Eric-to-Sage" style="stroke:#181818;stroke-width:1;stroke-dasharray:7.0,7.0;"/><polygon fill="#181818" points="615.71,1383.2479,606.2095,1380.6518,610.7672,1384.0024,607.4166,1388.5602,615.71,1383.2479" style="stroke:#181818;stroke-width:1;"/><text fill="#000000" font-family="sans-serif" font-size="13" lengthAdjust="spacing" textLength="36.348" x="268.5" y="1372.9649">utilise</text></g><!--link Christine to UC10--><g id="link_Christine_UC10"><path d="M91.19,239.0079 C106.09,203.6779 131.71,158.5879 171,137.0679 C305.09,63.6279 379.06,67.1079 515,137.0679 C535.4,147.5679 527.74,163.9579 545,179.0679 C566.6,197.9679 589.0287,210.9081 613.0987,222.2081 " fill="none" id="Christine-to-UC10" style="stroke:#181818;stroke-width:1;"/><polygon fill="#181818" points="618.53,224.7579,612.083,217.3124,614.0039,222.6331,608.6833,224.5541,618.53,224.7579" style="stroke:#181818;stroke-width:1;"/></g><!--link Christine to UC9--><g id="link_Christine_UC9"><path d="M141.26,300.4079 C163.96,304.6079 183.54,308.2171 206.69,312.4971 " fill="none" id="Christine-to-UC9" style="stroke:#181818;stroke-width:1;"/><polygon fill="#181818" points="212.59,313.5879,204.4672,308.0184,207.6733,312.6789,203.0128,315.8851,212.59,313.5879" style="stroke:#181818;stroke-width:1;"/></g><!--link UC1 to UC4--><g id="link_UC1_UC4"><path d="M607.39,496.5079 C584.96,503.4079 561.39,514.4479 545,532.0679 C455.02,628.7579 481.02,686.7879 462.5,817.5679 C452.77,886.2579 489.82,908.0179 545,950.0679 C561.18,962.3979 575.2618,969.7518 594.2818,976.8818 " fill="none" id="UC1-to-UC4" style="stroke:#181818;stroke-width:1;stroke-dasharray:7.0,7.0;"/><polygon fill="#181818" points="599.9,978.9879,592.8767,972.0833,595.2182,977.2328,590.0686,979.5743,599.9,978.9879" style="stroke:#181818;stroke-width:1;"/><text fill="#000000" font-family="sans-serif" font-size="13" lengthAdjust="spacing" textLength="57.5771" x="428.5" y="832.4649">&#171;include&#187;</text></g><!--link UC3 to UC4--><g id="link_UC3_UC4"><path d="M618.27,807.8679 C538.42,838.3779 404.6,901.9679 462.5,968.5679 C492.51,1003.0879 536.8614,1011.1778 580.7314,1010.2278 " fill="none" id="UC3-to-UC4" style="stroke:#181818;stroke-width:1;stroke-dasharray:7.0,7.0;"/><polygon fill="#181818" points="586.73,1010.0979,577.6455,1006.2937,581.7312,1010.2062,577.8187,1014.2918,586.73,1010.0979" style="stroke:#181818;stroke-width:1;"/><text fill="#000000" font-family="sans-serif" font-size="13" lengthAdjust="spacing" textLength="57.5771" x="428.5" y="964.4649">&#171;include&#187;</text></g><!--link UC3 to UC8--><g id="link_UC3_UC8"><path d="M672.5,819.4579 C672.5,835.9679 672.5,850.3279 672.5,866.8179 " fill="none" id="UC3-to-UC8" style="stroke:#181818;stroke-width:1;stroke-dasharray:7.0,7.0;"/><polygon fill="#181818" points="672.5,872.8179,676.5,863.8179,672.5,867.8179,668.5,863.8179,672.5,872.8179" style="stroke:#181818;stroke-width:1;"/><text fill="#000000" font-family="sans-serif" font-size="13" lengthAdjust="spacing" textLength="57.5771" x="631.5" y="851.4649">&#171;include&#187;</text></g><!--link UC5 to UC4--><g id="link_UC5_UC4"><path d="M605.03,592.6079 C583.44,599.5779 561,610.3779 545,627.0679 C408.6,769.3179 450.9,882.4979 462.5,902.5679 C488.61,947.7279 536.7178,970.0926 583.3778,982.7026 " fill="none" id="UC5-to-UC4" style="stroke:#181818;stroke-width:1;stroke-dasharray:7.0,7.0;"/><polygon fill="#181818" points="589.17,984.2679,581.5253,978.0584,584.3432,982.9634,579.4381,985.7813,589.17,984.2679" style="stroke:#181818;stroke-width:1;"/><text fill="#000000" font-family="sans-serif" font-size="13" lengthAdjust="spacing" textLength="57.5771" x="428.5" y="898.4649">&#171;include&#187;</text></g><!--link UC6 to UC3--><g id="link_UC6_UC3"><path d="M672.5,705.4579 C672.5,721.9679 672.5,736.3279 672.5,752.8179 " fill="none" id="UC6-to-UC3" style="stroke:#181818;stroke-width:1;stroke-dasharray:7.0,7.0;"/><polygon fill="#181818" points="672.5,758.8179,676.5,749.8179,672.5,753.8179,668.5,749.8179,672.5,758.8179" style="stroke:#181818;stroke-width:1;"/><text fill="#000000" font-family="sans-serif" font-size="13" lengthAdjust="spacing" textLength="57.5771" x="631.5" y="737.4649">&#171;include&#187;</text></g><!--link UC4 to Tel--><g id="link_UC4_Tel"><path d="M590.64,983.5279 C537.74,979.2879 471.92,984.6679 434,1027.5679 C376.56,1092.5479 471.21,1142.4879 545,1188.0679 C566.78,1201.5179 587.9097,1208.6008 611.4497,1213.7708 " fill="none" id="UC4-to-Tel" style="stroke:#181818;stroke-width:1;stroke-dasharray:7.0,7.0;"/><polygon fill="#181818" points="617.31,1215.0579,609.3776,1209.2204,612.4264,1213.9853,607.6615,1217.0342,617.31,1215.0579" style="stroke:#181818;stroke-width:1;"/><text fill="#000000" font-family="sans-serif" font-size="13" lengthAdjust="spacing" textLength="55.497" x="429.497" y="1042.4649">&#171;extend&#187;</text><text fill="#000000" font-family="sans-serif" font-size="13" lengthAdjust="spacing" textLength="114.4911" x="400" y="1060.1709">appels clarification</text></g><!--link UC8 to Email--><g id="link_UC8_Email"><path d="M609.08,915.7679 C586.7,922.8179 562.73,933.6279 545,950.0679 C419.99,1065.9779 409.69,1108.3079 452,1190.5679 C486.89,1258.3979 576.7283,1280.2136 629.8583,1287.6736 " fill="none" id="UC8-to-Email" style="stroke:#181818;stroke-width:1;stroke-dasharray:7.0,7.0;"/><polygon fill="#181818" points="635.8,1288.5079,627.4436,1283.2954,630.8486,1287.8127,626.3312,1291.2176,635.8,1288.5079" style="stroke:#181818;stroke-width:1;"/><text fill="#000000" font-family="sans-serif" font-size="13" lengthAdjust="spacing" textLength="55.497" x="429.6155" y="1168.4649">&#171;extend&#187;</text><text fill="#000000" font-family="sans-serif" font-size="13" lengthAdjust="spacing" textLength="78.7281" x="418" y="1186.1709">confirmation</text></g><!--link Paper to GMN82--><g id="link_Paper_GMN82"><path d="M632.46,1132.9079 C581.38,1120.1179 495.09,1089.9279 457,1026.5679 C364.38,872.4779 364.11,371.4879 457,217.5679 C477.05,184.3479 510.41,160.3679 544.96,143.2579 " fill="none" id="Paper-GMN82" style="stroke:#181818;stroke-width:1;stroke-dasharray:7.0,7.0;"/></g><!--SRC=[VLQxRYCt5EtdAoviREmr8AzUbgN0C21f9CCB6pPaEvKQQiIHc70u4v9ZU16aJweqwLDcbIe1jakN-PDyGJuXbvodP8qBFSZxElTDpJIdyAGeZ0b-kOoi90cW0KDlJRI2h-0cN36bsVSnXU7uyMboupYS-Xfq29AjrXgMJ59Fir0u3l5qAE7WbaXlBex7Q-h3U4s4PbI-Fm2Ym53WS3eTzSQjdFlX4tzc5Fclg39g1465cVrKAkM0mw7hzYUzNEvZp1aLA3UZAZg5eUyRmKma9HfJxd0qo4MIdoKpo6x9YYWc2bWJl8R3GNyw6lHptl5Q6h-5GUPQ5v69mbMo4Sb64avJqO8D3brts7HTnp6yHAmmhkYRqidd87UdyIgO1mRYT3eUmm-E0n0hwfay78p3821YIULS14IZGKQvjVSqRbclpfjDv1UXfbaQGj_Gy0xWlzz-_G9dpNUmFA9IqbWgU_tlBtz21xuDqpCLIok-OrQec6jZLkdG-oupsNx3PBiqwMBoaWrLo2F0PsJ1yVznj_dkVPszHqcOjUPb_ghCOcVNegqvQx1J6ko1f0r5c6AqTB6zXeX8o3NMcPvHRqsb-So5J3O-nfWAJ70amsNCT8QZQt3qHhtH7i-x9P1M6vw9P5ZgL7t8D5Wg1jIF5LOrzel6egb5asmy6jdoDu0uUyR8ACn6XkEiFXvd5HXDJ3fw7LDUXAErxZHjG0gTTHWUOkIW6BZaRwtcmiYGjAao4BtTO9GWUdkgW65MrpQikfAU3gO7In1Y0TwQ-RwablJFN-rAmTP1l3BgykA4PRA9aYzvgixVADBp4juzCYyfQ4cItyc2SORTPQapx5aQ85Z4HKBRf6-qYSOnOP3uw8jWIfakou3qtm3ItqaM6kVenJeKQHWikgE9U_rXU7zTP_uRmfaT3OjukQ8ufOcTBfdvmHRlK13-IHdcY4e_b5WTNj5bhMPzHblD4kfr48LAiGLFGLOoJ5yY7Z9jMxqAzyUjCNWNQyPn53mm7fe1ZKOdtKaBPrwr_CYAmgqxmNbxjr0XJpxhRCPQIWcqa9YyU9JFnNGt1VQ-EYPt9KobivArlPSr82mTkVRVrjGgasOP7YdVf-6UHCm4_dY4VPnwWbTK5gvWa8vWHZanVPykHyTko4RZqWxpog6T7avFBpCbNuC9AbDqMqcwAvriPQQodUrZT_lOpuz6jmrrgRf2oO9QJslNq4pqzfDCt6hSIFUtawtnF1vRnzxsSP0VAsvusJghaWe_QedjAd4BbNq_EFQra1ezgnxEguTsUjWJqosDnVF1AHyIcRVDLrS38tijF1xZedJCI-3KvXELNromzFxoqZ7Rysr2_nNXh4wYbn8wEmG4CddHL9ZLPg1qeSZdnGKrbENbvLoGAABO-1x7vUWppphj6FkLmgZoOzXzXZCgVKxQYRG8jGu3xAkJa_lPtUWc-UbsyW2tmu-Jfzd3oOcJZQXXxCKOA2Pmek8JrYZ0QQHnduLs-EHyi_p10Bt6EVWXCzj0GP3y4U3FCfjiplQoU4Q1R5M0fa6a05yCTiTQhaSIlnIhopoy2d4gjHcJE3wbjey3fvYG_mC0]--></g></svg>