<svg xmlns="http://www.w3.org/2000/svg" xmlns:xlink="http://www.w3.org/1999/xlink" contentStyleType="text/css" height="1750px" preserveAspectRatio="none" style="width:1592px;height:1750px;background:#FFFFFF;" version="1.1" viewBox="0 0 1592 1750" width="1592px" zoomAndPan="magnify"><defs/><g><rect fill="#F1F1F1" height="55.2188" rx="12.5" ry="12.5" style="stroke:#181818;stroke-width:1.5;" width="216.0342" x="729.0176" y="846.5313"/><text fill="#000000" font-family="sans-serif" font-size="14" font-weight="bold" lengthAdjust="spacing" textLength="94.8828" x="739.0176" y="871.0645">AUDIT DURET</text><text fill="#000000" font-family="sans-serif" font-size="14" font-weight="bold" lengthAdjust="spacing" textLength="196.0342" x="739.0176" y="888.6738">6 PATTERNS TRANSVERSES</text><rect fill="#F1F1F1" height="72.8281" rx="12.5" ry="12.5" style="stroke:#181818;stroke-width:1.5;" width="135.1377" x="995.0518" y="290.4375"/><text fill="#000000" font-family="sans-serif" font-size="14" lengthAdjust="spacing" textLength="115.1377" x="1005.0518" y="314.9707">&#240;&#376;&#8221;&#180; PATTERN #1</text><text fill="#000000" font-family="sans-serif" font-size="14" lengthAdjust="spacing" textLength="114.1807" x="1005.0518" y="332.5801">D&#195;&#8240;PENDANCE</text><text fill="#000000" font-family="sans-serif" font-size="14" lengthAdjust="spacing" textLength="112.041" x="1005.0518" y="350.1895">EXCEL MASSIVE</text><rect fill="#F1F1F1" height="37.6094" rx="12.5" ry="12.5" style="stroke:#181818;stroke-width:1.5;" width="105.6201" x="1180.1895" y="20"/><text fill="#000000" font-family="sans-serif" font-size="14" font-weight="bold" lengthAdjust="spacing" textLength="85.6201" x="1190.1895" y="44.5332">Services: 8/8</text><path d="M1130.1895,326.8516 L1140.1895,326.8516 C1155.1895,326.8516 1155.1895,38.8047 1170.1895,38.8047 L1180.1895,38.8047 " fill="none" style="stroke:#181818;stroke-width:1;"/><rect fill="#F1F1F1" height="37.6094" rx="12.5" ry="12.5" style="stroke:#181818;stroke-width:1.5;" width="198.8076" x="1180.1895" y="77.6094"/><text fill="#000000" font-family="sans-serif" font-size="14" lengthAdjust="spacing" textLength="178.8076" x="1190.1895" y="102.1426">60+ fichiers non connect&#195;&#169;s</text><path d="M1130.1895,326.8516 L1140.1895,326.8516 C1155.1895,326.8516 1155.1895,96.4141 1170.1895,96.4141 L1180.1895,96.4141 " fill="none" style="stroke:#181818;stroke-width:1;"/><rect fill="#F1F1F1" height="37.6094" rx="12.5" ry="12.5" style="stroke:#181818;stroke-width:1.5;" width="161.2373" x="1180.1895" y="135.2188"/><text fill="#000000" font-family="sans-serif" font-size="14" lengthAdjust="spacing" textLength="141.2373" x="1190.1895" y="159.752">Gestion-Op: 30+ Excel</text><path d="M1130.1895,326.8516 L1140.1895,326.8516 C1155.1895,326.8516 1155.1895,154.0234 1170.1895,154.0234 L1180.1895,154.0234 " fill="none" style="stroke:#181818;stroke-width:1;"/><rect fill="#F1F1F1" height="37.6094" rx="12.5" ry="12.5" style="stroke:#181818;stroke-width:1.5;" width="150.3408" x="1180.1895" y="192.8281"/><text fill="#000000" font-family="sans-serif" font-size="14" lengthAdjust="spacing" textLength="130.3408" x="1190.1895" y="217.3613">Albertville: 15+ Excel</text><path d="M1130.1895,326.8516 L1140.1895,326.8516 C1155.1895,326.8516 1155.1895,211.6328 1170.1895,211.6328 L1180.1895,211.6328 " fill="none" style="stroke:#181818;stroke-width:1;"/><rect fill="#F1F1F1" height="37.6094" rx="12.5" ry="12.5" style="stroke:#181818;stroke-width:1.5;" width="93.9102" x="1180.1895" y="250.4375"/><text fill="#000000" font-family="sans-serif" font-size="14" lengthAdjust="spacing" textLength="73.9102" x="1190.1895" y="274.9707">RH: 7 Excel</text><path d="M1130.1895,326.8516 L1140.1895,326.8516 C1155.1895,326.8516 1155.1895,269.2422 1170.1895,269.2422 L1180.1895,269.2422 " fill="none" style="stroke:#181818;stroke-width:1;"/><rect fill="#F1F1F1" height="37.6094" rx="12.5" ry="12.5" style="stroke:#181818;stroke-width:1.5;" width="194.501" x="1180.1895" y="308.0469"/><text fill="#000000" font-family="sans-serif" font-size="14" lengthAdjust="spacing" textLength="174.501" x="1190.1895" y="332.5801">Achats: 4 versions d&#195;&#169;sync</text><path d="M1130.1895,326.8516 L1140.1895,326.8516 C1155.1895,326.8516 1155.1895,326.8516 1170.1895,326.8516 L1180.1895,326.8516 " fill="none" style="stroke:#181818;stroke-width:1;"/><rect fill="#F1F1F1" height="37.6094" rx="12.5" ry="12.5" style="stroke:#181818;stroke-width:1.5;" width="65.124" x="1180.1895" y="480.875"/><text fill="#000000" font-family="sans-serif" font-size="14" font-weight="bold" lengthAdjust="spacing" textLength="45.124" x="1190.1895" y="505.4082">Impact</text><rect fill="#F1F1F1" height="37.6094" rx="12.5" ry="12.5" style="stroke:#181818;stroke-width:1.5;" width="137.4893" x="1295.3135" y="365.6563"/><text fill="#000000" font-family="sans-serif" font-size="14" lengthAdjust="spacing" textLength="117.4893" x="1305.3135" y="390.1895">Ressaisies 6-7 fois</text><path d="M1245.3135,499.6797 L1255.3135,499.6797 C1270.3135,499.6797 1270.3135,384.4609 1285.3135,384.4609 L1295.3135,384.4609 " fill="none" style="stroke:#181818;stroke-width:1;"/><rect fill="#F1F1F1" height="37.6094" rx="12.5" ry="12.5" style="stroke:#181818;stroke-width:1.5;" width="115.9219" x="1295.3135" y="423.2656"/><text fill="#000000" font-family="sans-serif" font-size="14" lengthAdjust="spacing" textLength="95.9219" x="1305.3135" y="447.7988">Incoh&#195;&#169;rences</text><path d="M1245.3135,499.6797 L1255.3135,499.6797 C1270.3135,499.6797 1270.3135,442.0703 1285.3135,442.0703 L1295.3135,442.0703 " fill="none" style="stroke:#181818;stroke-width:1;"/><rect fill="#F1F1F1" height="37.6094" rx="12.5" ry="12.5" style="stroke:#181818;stroke-width:1.5;" width="119.8184" x="1295.3135" y="480.875"/><text fill="#000000" font-family="sans-serif" font-size="14" lengthAdjust="spacing" textLength="99.8184" x="1305.3135" y="505.4082">Silos donn&#195;&#169;es</text><path d="M1245.3135,499.6797 L1255.3135,499.6797 C1270.3135,499.6797 1270.3135,499.6797 1285.3135,499.6797 L1295.3135,499.6797 " fill="none" style="stroke:#181818;stroke-width:1;"/><rect fill="#F1F1F1" height="37.6094" rx="12.5" ry="12.5" style="stroke:#181818;stroke-width:1.5;" width="146.8613" x="1295.3135" y="538.4844"/><text fill="#000000" font-family="sans-serif" font-size="14" lengthAdjust="spacing" textLength="126.8613" x="1305.3135" y="563.0176">Pas de collaboration</text><path d="M1245.3135,499.6797 L1255.3135,499.6797 C1270.3135,499.6797 1270.3135,557.2891 1285.3135,557.2891 L1295.3135,557.2891 " fill="none" style="stroke:#181818;stroke-width:1;"/><rect fill="#F1F1F1" height="37.6094" rx="12.5" ry="12.5" style="stroke:#181818;stroke-width:1.5;" width="180.5352" x="1295.3135" y="596.0938"/><text fill="#000000" font-family="sans-serif" font-size="14" lengthAdjust="spacing" textLength="160.5352" x="1305.3135" y="620.627">D&#195;&#169;pendance personnes</text><path d="M1245.3135,499.6797 L1255.3135,499.6797 C1270.3135,499.6797 1270.3135,614.8984 1285.3135,614.8984 L1295.3135,614.8984 " fill="none" style="stroke:#181818;stroke-width:1;"/><path d="M1130.1895,326.8516 L1140.1895,326.8516 C1155.1895,326.8516 1155.1895,499.6797 1170.1895,499.6797 L1180.1895,499.6797 " fill="none" style="stroke:#181818;stroke-width:1;"/><path d="M945.0518,874.1406 L955.0518,874.1406 C970.0518,874.1406 970.0518,326.8516 985.0518,326.8516 L995.0518,326.8516 " fill="none" style="stroke:#181818;stroke-width:1;"/><rect fill="#F1F1F1" height="72.8281" rx="12.5" ry="12.5" style="stroke:#181818;stroke-width:1.5;" width="147.6064" x="995.0518" y="866.5313"/><text fill="#000000" font-family="sans-serif" font-size="14" lengthAdjust="spacing" textLength="115.1377" x="1005.0518" y="891.0645">&#240;&#376;&#8221;&#180; PATTERN #2</text><text fill="#000000" font-family="sans-serif" font-size="14" lengthAdjust="spacing" textLength="127.6064" x="1005.0518" y="908.6738">PROCESSUS 100%</text><text fill="#000000" font-family="sans-serif" font-size="14" lengthAdjust="spacing" textLength="67.6826" x="1005.0518" y="926.2832">MANUELS</text><rect fill="#F1F1F1" height="37.6094" rx="12.5" ry="12.5" style="stroke:#181818;stroke-width:1.5;" width="105.6201" x="1192.6582" y="711.3125"/><text fill="#000000" font-family="sans-serif" font-size="14" font-weight="bold" lengthAdjust="spacing" textLength="85.6201" x="1202.6582" y="735.8457">Services: 8/8</text><path d="M1142.6582,902.9453 L1152.6582,902.9453 C1167.6582,902.9453 1167.6582,730.1172 1182.6582,730.1172 L1192.6582,730.1172 " fill="none" style="stroke:#181818;stroke-width:1;"/><rect fill="#F1F1F1" height="37.6094" rx="12.5" ry="12.5" style="stroke:#181818;stroke-width:1.5;" width="132.834" x="1192.6582" y="768.9219"/><text fill="#000000" font-family="sans-serif" font-size="14" font-weight="bold" lengthAdjust="spacing" textLength="112.834" x="1202.6582" y="793.4551">Exemples terrain</text><rect fill="#F1F1F1" height="37.6094" rx="12.5" ry="12.5" style="stroke:#181818;stroke-width:1.5;" width="193.5234" x="1375.4922" y="653.7031"/><text fill="#000000" font-family="sans-serif" font-size="14" lengthAdjust="spacing" textLength="173.5234" x="1385.4922" y="678.2363">Devis: 2h vs 30min possible</text><path d="M1325.4922,787.7266 L1335.4922,787.7266 C1350.4922,787.7266 1350.4922,672.5078 1365.4922,672.5078 L1375.4922,672.5078 " fill="none" style="stroke:#181818;stroke-width:1;"/><rect fill="#F1F1F1" height="37.6094" rx="12.5" ry="12.5" style="stroke:#181818;stroke-width:1.5;" width="205.2061" x="1375.4922" y="711.3125"/><text fill="#000000" font-family="sans-serif" font-size="14" lengthAdjust="spacing" textLength="185.2061" x="1385.4922" y="735.8457">PPSPS: 3h vs 30min possible</text><path d="M1325.4922,787.7266 L1335.4922,787.7266 C1350.4922,787.7266 1350.4922,730.1172 1365.4922,730.1172 L1375.4922,730.1172 " fill="none" style="stroke:#181818;stroke-width:1;"/><rect fill="#F1F1F1" height="37.6094" rx="12.5" ry="12.5" style="stroke:#181818;stroke-width:1.5;" width="184.9648" x="1375.4922" y="768.9219"/><text fill="#000000" font-family="sans-serif" font-size="14" lengthAdjust="spacing" textLength="164.9648" x="1385.4922" y="793.4551">Paie: 3j/sem vs 1j possible</text><path d="M1325.4922,787.7266 L1335.4922,787.7266 C1350.4922,787.7266 1350.4922,787.7266 1365.4922,787.7266 L1375.4922,787.7266 " fill="none" style="stroke:#181818;stroke-width:1;"/><rect fill="#F1F1F1" height="37.6094" rx="12.5" ry="12.5" style="stroke:#181818;stroke-width:1.5;" width="180.3027" x="1375.4922" y="826.5313"/><text fill="#000000" font-family="sans-serif" font-size="14" lengthAdjust="spacing" textLength="160.3027" x="1385.4922" y="851.0645">Rapports: 2h vs 10-25min</text><path d="M1325.4922,787.7266 L1335.4922,787.7266 C1350.4922,787.7266 1350.4922,845.3359 1365.4922,845.3359 L1375.4922,845.3359 " fill="none" style="stroke:#181818;stroke-width:1;"/><rect fill="#F1F1F1" height="37.6094" rx="12.5" ry="12.5" style="stroke:#181818;stroke-width:1.5;" width="149.165" x="1375.4922" y="884.1406"/><text fill="#000000" font-family="sans-serif" font-size="14" lengthAdjust="spacing" textLength="129.165" x="1385.4922" y="908.6738">Commandes: 3 jours</text><path d="M1325.4922,787.7266 L1335.4922,787.7266 C1350.4922,787.7266 1350.4922,902.9453 1365.4922,902.9453 L1375.4922,902.9453 " fill="none" style="stroke:#181818;stroke-width:1;"/><path d="M1142.6582,902.9453 L1152.6582,902.9453 C1167.6582,902.9453 1167.6582,787.7266 1182.6582,787.7266 L1192.6582,787.7266 " fill="none" style="stroke:#181818;stroke-width:1;"/><rect fill="#F1F1F1" height="37.6094" rx="12.5" ry="12.5" style="stroke:#181818;stroke-width:1.5;" width="65.124" x="1192.6582" y="1028.1641"/><text fill="#000000" font-family="sans-serif" font-size="14" font-weight="bold" lengthAdjust="spacing" textLength="45.124" x="1202.6582" y="1052.6973">Impact</text><rect fill="#F1F1F1" height="37.6094" rx="12.5" ry="12.5" style="stroke:#181818;stroke-width:1.5;" width="149.3906" x="1307.7822" y="941.75"/><text fill="#000000" font-family="sans-serif" font-size="14" lengthAdjust="spacing" textLength="129.3906" x="1317.7822" y="966.2832">Surcharge &#195;&#169;quipes</text><path d="M1257.7822,1046.9688 L1267.7822,1046.9688 C1282.7822,1046.9688 1282.7822,960.5547 1297.7822,960.5547 L1307.7822,960.5547 " fill="none" style="stroke:#181818;stroke-width:1;"/><rect fill="#F1F1F1" height="37.6094" rx="12.5" ry="12.5" style="stroke:#181818;stroke-width:1.5;" width="115.7168" x="1307.7822" y="999.3594"/><text fill="#000000" font-family="sans-serif" font-size="14" lengthAdjust="spacing" textLength="95.7168" x="1317.7822" y="1023.8926">Burn-out risque</text><path d="M1257.7822,1046.9688 L1267.7822,1046.9688 C1282.7822,1046.9688 1282.7822,1018.1641 1297.7822,1018.1641 L1307.7822,1018.1641 " fill="none" style="stroke:#181818;stroke-width:1;"/><rect fill="#F1F1F1" height="37.6094" rx="12.5" ry="12.5" style="stroke:#181818;stroke-width:1.5;" width="164.7305" x="1307.7822" y="1056.9688"/><text fill="#000000" font-family="sans-serif" font-size="14" lengthAdjust="spacing" textLength="144.7305" x="1317.7822" y="1081.502">Temps perdu important</text><path d="M1257.7822,1046.9688 L1267.7822,1046.9688 C1282.7822,1046.9688 1282.7822,1075.7734 1297.7822,1075.7734 L1307.7822,1075.7734 " fill="none" style="stroke:#181818;stroke-width:1;"/><rect fill="#F1F1F1" height="37.6094" rx="12.5" ry="12.5" style="stroke:#181818;stroke-width:1.5;" width="150.7031" x="1307.7822" y="1114.5781"/><text fill="#000000" font-family="sans-serif" font-size="14" lengthAdjust="spacing" textLength="130.7031" x="1317.7822" y="1139.1113">Frustration maximale</text><path d="M1257.7822,1046.9688 L1267.7822,1046.9688 C1282.7822,1046.9688 1282.7822,1133.3828 1297.7822,1133.3828 L1307.7822,1133.3828 " fill="none" style="stroke:#181818;stroke-width:1;"/><path d="M1142.6582,902.9453 L1152.6582,902.9453 C1167.6582,902.9453 1167.6582,1046.9688 1182.6582,1046.9688 L1192.6582,1046.9688 " fill="none" style="stroke:#181818;stroke-width:1;"/><path d="M945.0518,874.1406 L955.0518,874.1406 C970.0518,874.1406 970.0518,902.9453 985.0518,902.9453 L995.0518,902.9453 " fill="none" style="stroke:#181818;stroke-width:1;"/><rect fill="#F1F1F1" height="72.8281" rx="12.5" ry="12.5" style="stroke:#181818;stroke-width:1.5;" width="135.1377" x="995.0518" y="1413.8203"/><text fill="#000000" font-family="sans-serif" font-size="14" lengthAdjust="spacing" textLength="115.1377" x="1005.0518" y="1438.3535">&#240;&#376;&#8221;&#180; PATTERN #3</text><text fill="#000000" font-family="sans-serif" font-size="14" lengthAdjust="spacing" textLength="66.9102" x="1005.0518" y="1455.9629">ABSENCE</text><text fill="#000000" font-family="sans-serif" font-size="14" lengthAdjust="spacing" textLength="111.6582" x="1005.0518" y="1473.5723">TRA&#195;&#8225;ABILIT&#195;&#8240;</text><rect fill="#F1F1F1" height="37.6094" rx="12.5" ry="12.5" style="stroke:#181818;stroke-width:1.5;" width="105.6201" x="1180.1895" y="1172.1875"/><text fill="#000000" font-family="sans-serif" font-size="14" font-weight="bold" lengthAdjust="spacing" textLength="85.6201" x="1190.1895" y="1196.7207">Services: 7/8</text><path d="M1130.1895,1450.2344 L1140.1895,1450.2344 C1155.1895,1450.2344 1155.1895,1190.9922 1170.1895,1190.9922 L1180.1895,1190.9922 " fill="none" style="stroke:#181818;stroke-width:1;"/><rect fill="#F1F1F1" height="37.6094" rx="12.5" ry="12.5" style="stroke:#181818;stroke-width:1.5;" width="160.0273" x="1180.1895" y="1229.7969"/><text fill="#000000" font-family="sans-serif" font-size="14" lengthAdjust="spacing" textLength="140.0273" x="1190.1895" y="1254.3301">Post-it (Service-Client)</text><path d="M1130.1895,1450.2344 L1140.1895,1450.2344 C1155.1895,1450.2344 1155.1895,1248.6016 1170.1895,1248.6016 L1180.1895,1248.6016 " fill="none" style="stroke:#181818;stroke-width:1;"/><rect fill="#F1F1F1" height="37.6094" rx="12.5" ry="12.5" style="stroke:#181818;stroke-width:1.5;" width="203.6338" x="1180.1895" y="1287.4063"/><text fill="#000000" font-family="sans-serif" font-size="14" lengthAdjust="spacing" textLength="183.6338" x="1190.1895" y="1311.9395">CERFA papier (Maintenance)</text><path d="M1130.1895,1450.2344 L1140.1895,1450.2344 C1155.1895,1450.2344 1155.1895,1306.2109 1170.1895,1306.2109 L1180.1895,1306.2109 " fill="none" style="stroke:#181818;stroke-width:1;"/><rect fill="#F1F1F1" height="37.6094" rx="12.5" ry="12.5" style="stroke:#181818;stroke-width:1.5;" width="188.0547" x="1180.1895" y="1345.0156"/><text fill="#000000" font-family="sans-serif" font-size="14" lengthAdjust="spacing" textLength="168.0547" x="1190.1895" y="1369.5488">WhatsApp/Oral (Chantiers)</text><path d="M1130.1895,1450.2344 L1140.1895,1450.2344 C1155.1895,1450.2344 1155.1895,1363.8203 1170.1895,1363.8203 L1180.1895,1363.8203 " fill="none" style="stroke:#181818;stroke-width:1;"/><rect fill="#F1F1F1" height="37.6094" rx="12.5" ry="12.5" style="stroke:#181818;stroke-width:1.5;" width="154.8047" x="1180.1895" y="1402.625"/><text fill="#000000" font-family="sans-serif" font-size="14" lengthAdjust="spacing" textLength="134.8047" x="1190.1895" y="1427.1582">Papier cong&#195;&#169;s (RH)</text><path d="M1130.1895,1450.2344 L1140.1895,1450.2344 C1155.1895,1450.2344 1155.1895,1421.4297 1170.1895,1421.4297 L1180.1895,1421.4297 " fill="none" style="stroke:#181818;stroke-width:1;"/><rect fill="#F1F1F1" height="37.6094" rx="12.5" ry="12.5" style="stroke:#181818;stroke-width:1.5;" width="165.9131" x="1180.1895" y="1460.2344"/><text fill="#000000" font-family="sans-serif" font-size="14" lengthAdjust="spacing" textLength="145.9131" x="1190.1895" y="1484.7676">T&#195;&#169;l&#195;&#169;phone (Achats)</text><path d="M1130.1895,1450.2344 L1140.1895,1450.2344 C1155.1895,1450.2344 1155.1895,1479.0391 1170.1895,1479.0391 L1180.1895,1479.0391 " fill="none" style="stroke:#181818;stroke-width:1;"/><rect fill="#F1F1F1" height="37.6094" rx="12.5" ry="12.5" style="stroke:#181818;stroke-width:1.5;" width="65.124" x="1180.1895" y="1604.2578"/><text fill="#000000" font-family="sans-serif" font-size="14" font-weight="bold" lengthAdjust="spacing" textLength="45.124" x="1190.1895" y="1628.791">Impact</text><rect fill="#F1F1F1" height="37.6094" rx="12.5" ry="12.5" style="stroke:#181818;stroke-width:1.5;" width="135.9648" x="1295.3135" y="1517.8438"/><text fill="#000000" font-family="sans-serif" font-size="14" lengthAdjust="spacing" textLength="115.9648" x="1305.3135" y="1542.377">50% infos perdues</text><path d="M1245.3135,1623.0625 L1255.3135,1623.0625 C1270.3135,1623.0625 1270.3135,1536.6484 1285.3135,1536.6484 L1295.3135,1536.6484 " fill="none" style="stroke:#181818;stroke-width:1;"/><rect fill="#F1F1F1" height="37.6094" rx="12.5" ry="12.5" style="stroke:#181818;stroke-width:1.5;" width="146.0615" x="1295.3135" y="1575.4531"/><text fill="#000000" font-family="sans-serif" font-size="14" lengthAdjust="spacing" textLength="126.0615" x="1305.3135" y="1599.9863">Historique inexistant</text><path d="M1245.3135,1623.0625 L1255.3135,1623.0625 C1270.3135,1623.0625 1270.3135,1594.2578 1285.3135,1594.2578 L1295.3135,1594.2578 " fill="none" style="stroke:#181818;stroke-width:1;"/><rect fill="#F1F1F1" height="37.6094" rx="12.5" ry="12.5" style="stroke:#181818;stroke-width:1.5;" width="158.7285" x="1295.3135" y="1633.0625"/><text fill="#000000" font-family="sans-serif" font-size="14" lengthAdjust="spacing" textLength="138.7285" x="1305.3135" y="1657.5957">Litiges non anticip&#195;&#169;s</text><path d="M1245.3135,1623.0625 L1255.3135,1623.0625 C1270.3135,1623.0625 1270.3135,1651.8672 1285.3135,1651.8672 L1295.3135,1651.8672 " fill="none" style="stroke:#181818;stroke-width:1;"/><rect fill="#F1F1F1" height="37.6094" rx="12.5" ry="12.5" style="stroke:#181818;stroke-width:1.5;" width="166.5078" x="1295.3135" y="1690.6719"/><text fill="#000000" font-family="sans-serif" font-size="14" lengthAdjust="spacing" textLength="146.5078" x="1305.3135" y="1715.2051">Opportunit&#195;&#169;s perdues</text><path d="M1245.3135,1623.0625 L1255.3135,1623.0625 C1270.3135,1623.0625 1270.3135,1709.4766 1285.3135,1709.4766 L1295.3135,1709.4766 " fill="none" style="stroke:#181818;stroke-width:1;"/><path d="M1130.1895,1450.2344 L1140.1895,1450.2344 C1155.1895,1450.2344 1155.1895,1623.0625 1170.1895,1623.0625 L1180.1895,1623.0625 " fill="none" style="stroke:#181818;stroke-width:1;"/><path d="M945.0518,874.1406 L955.0518,874.1406 C970.0518,874.1406 970.0518,1450.2344 985.0518,1450.2344 L995.0518,1450.2344 " fill="none" style="stroke:#181818;stroke-width:1;"/><rect fill="#F1F1F1" height="72.8281" rx="12.5" ry="12.5" style="stroke:#181818;stroke-width:1.5;" width="135.1377" x="543.8799" y="290.4375"/><text fill="#000000" font-family="sans-serif" font-size="14" lengthAdjust="spacing" textLength="115.1377" x="553.8799" y="314.9707">&#240;&#376;&#8221;&#180; PATTERN #4</text><text fill="#000000" font-family="sans-serif" font-size="14" lengthAdjust="spacing" textLength="66.8965" x="553.8799" y="332.5801">OUTILS IT</text><text fill="#000000" font-family="sans-serif" font-size="14" lengthAdjust="spacing" textLength="89.4688" x="553.8799" y="350.1895">OBSOL&#195;&#710;TES</text><rect fill="#F1F1F1" height="37.6094" rx="12.5" ry="12.5" style="stroke:#181818;stroke-width:1.5;" width="105.6201" x="388.2598" y="135.2188"/><text fill="#000000" font-family="sans-serif" font-size="14" font-weight="bold" lengthAdjust="spacing" textLength="85.6201" x="398.2598" y="159.752">Services: 8/8</text><path d="M543.8799,326.8516 L533.8799,326.8516 C518.8799,326.8516 518.8799,154.0234 503.8799,154.0234 L493.8799,154.0234 " fill="none" style="stroke:#181818;stroke-width:1;"/><rect fill="#F1F1F1" height="37.6094" rx="12.5" ry="12.5" style="stroke:#181818;stroke-width:1.5;" width="213.1357" x="280.7441" y="192.8281"/><text fill="#000000" font-family="sans-serif" font-size="14" font-weight="bold" lengthAdjust="spacing" textLength="193.1357" x="290.7441" y="217.3613">Syst&#195;&#168;mes probl&#195;&#169;matiques</text><rect fill="#F1F1F1" height="37.6094" rx="12.5" ry="12.5" style="stroke:#181818;stroke-width:1.5;" width="195.2666" x="35.4775" y="77.6094"/><text fill="#000000" font-family="sans-serif" font-size="14" lengthAdjust="spacing" textLength="175.2666" x="45.4775" y="102.1426">SAGE MDE: 30-40s/&#195;&#169;cran</text><path d="M280.7441,211.6328 L270.7441,211.6328 C255.7441,211.6328 255.7441,96.4141 240.7441,96.4141 L230.7441,96.4141 " fill="none" style="stroke:#181818;stroke-width:1;"/><rect fill="#F1F1F1" height="37.6094" rx="12.5" ry="12.5" style="stroke:#181818;stroke-width:1.5;" width="192.3203" x="38.4238" y="135.2188"/><text fill="#000000" font-family="sans-serif" font-size="14" lengthAdjust="spacing" textLength="172.3203" x="48.4238" y="159.752">POPAYE: Pas d'app mobile</text><path d="M280.7441,211.6328 L270.7441,211.6328 C255.7441,211.6328 255.7441,154.0234 240.7441,154.0234 L230.7441,154.0234 " fill="none" style="stroke:#181818;stroke-width:1;"/><rect fill="#F1F1F1" height="37.6094" rx="12.5" ry="12.5" style="stroke:#181818;stroke-width:1.5;" width="160.2734" x="70.4707" y="192.8281"/><text fill="#000000" font-family="sans-serif" font-size="14" lengthAdjust="spacing" textLength="140.2734" x="80.4707" y="217.3613">Excel: Non connect&#195;&#169;</text><path d="M280.7441,211.6328 L270.7441,211.6328 C255.7441,211.6328 255.7441,211.6328 240.7441,211.6328 L230.7441,211.6328 " fill="none" style="stroke:#181818;stroke-width:1;"/><rect fill="#F1F1F1" height="37.6094" rx="12.5" ry="12.5" style="stroke:#181818;stroke-width:1.5;" width="149.9512" x="80.793" y="250.4375"/><text fill="#000000" font-family="sans-serif" font-size="14" lengthAdjust="spacing" textLength="129.9512" x="90.793" y="274.9707">Post-it: Aucune trace</text><path d="M280.7441,211.6328 L270.7441,211.6328 C255.7441,211.6328 255.7441,269.2422 240.7441,269.2422 L230.7441,269.2422 " fill="none" style="stroke:#181818;stroke-width:1;"/><rect fill="#F1F1F1" height="37.6094" rx="12.5" ry="12.5" style="stroke:#181818;stroke-width:1.5;" width="220.7441" x="10" y="308.0469"/><text fill="#000000" font-family="sans-serif" font-size="14" lengthAdjust="spacing" textLength="200.7441" x="20" y="332.5801">T&#195;&#169;l&#195;&#169;phone perso: Pas d'outil</text><path d="M280.7441,211.6328 L270.7441,211.6328 C255.7441,211.6328 255.7441,326.8516 240.7441,326.8516 L230.7441,326.8516 " fill="none" style="stroke:#181818;stroke-width:1;"/><path d="M543.8799,326.8516 L533.8799,326.8516 C518.8799,326.8516 518.8799,211.6328 503.8799,211.6328 L493.8799,211.6328 " fill="none" style="stroke:#181818;stroke-width:1;"/><rect fill="#F1F1F1" height="37.6094" rx="12.5" ry="12.5" style="stroke:#181818;stroke-width:1.5;" width="65.124" x="428.7559" y="452.0703"/><text fill="#000000" font-family="sans-serif" font-size="14" font-weight="bold" lengthAdjust="spacing" textLength="45.124" x="438.7559" y="476.6035">Impact</text><rect fill="#F1F1F1" height="37.6094" rx="12.5" ry="12.5" style="stroke:#181818;stroke-width:1.5;" width="163.5752" x="215.1807" y="365.6563"/><text fill="#000000" font-family="sans-serif" font-size="14" lengthAdjust="spacing" textLength="143.5752" x="225.1807" y="390.1895">Productivit&#195;&#169; r&#195;&#169;duite</text><path d="M428.7559,470.875 L418.7559,470.875 C403.7559,470.875 403.7559,384.4609 388.7559,384.4609 L378.7559,384.4609 " fill="none" style="stroke:#181818;stroke-width:1;"/><rect fill="#F1F1F1" height="37.6094" rx="12.5" ry="12.5" style="stroke:#181818;stroke-width:1.5;" width="178.3408" x="200.415" y="423.2656"/><text fill="#000000" font-family="sans-serif" font-size="14" lengthAdjust="spacing" textLength="158.3408" x="210.415" y="447.7988">T&#195;&#169;l&#195;&#169;travail impossible</text><path d="M428.7559,470.875 L418.7559,470.875 C403.7559,470.875 403.7559,442.0703 388.7559,442.0703 L378.7559,442.0703 " fill="none" style="stroke:#181818;stroke-width:1;"/><rect fill="#F1F1F1" height="37.6094" rx="12.5" ry="12.5" style="stroke:#181818;stroke-width:1.5;" width="127.584" x="251.1719" y="480.875"/><text fill="#000000" font-family="sans-serif" font-size="14" lengthAdjust="spacing" textLength="107.584" x="261.1719" y="505.4082">Pas de mobilit&#195;&#169;</text><path d="M428.7559,470.875 L418.7559,470.875 C403.7559,470.875 403.7559,499.6797 388.7559,499.6797 L378.7559,499.6797 " fill="none" style="stroke:#181818;stroke-width:1;"/><rect fill="#F1F1F1" height="37.6094" rx="12.5" ry="12.5" style="stroke:#181818;stroke-width:1.5;" width="140.627" x="238.1289" y="538.4844"/><text fill="#000000" font-family="sans-serif" font-size="14" lengthAdjust="spacing" textLength="120.627" x="248.1289" y="563.0176">Turnover technique</text><path d="M428.7559,470.875 L418.7559,470.875 C403.7559,470.875 403.7559,557.2891 388.7559,557.2891 L378.7559,557.2891 " fill="none" style="stroke:#181818;stroke-width:1;"/><path d="M543.8799,326.8516 L533.8799,326.8516 C518.8799,326.8516 518.8799,470.875 503.8799,470.875 L493.8799,470.875 " fill="none" style="stroke:#181818;stroke-width:1;"/><path d="M729.0176,874.1406 L719.0176,874.1406 C704.0176,874.1406 704.0176,326.8516 689.0176,326.8516 L679.0176,326.8516 " fill="none" style="stroke:#181818;stroke-width:1;"/><rect fill="#F1F1F1" height="72.8281" rx="12.5" ry="12.5" style="stroke:#181818;stroke-width:1.5;" width="149.7529" x="529.2646" y="837.7266"/><text fill="#000000" font-family="sans-serif" font-size="14" lengthAdjust="spacing" textLength="115.1377" x="539.2646" y="862.2598">&#240;&#376;&#8221;&#180; PATTERN #5</text><text fill="#000000" font-family="sans-serif" font-size="14" lengthAdjust="spacing" textLength="86.1875" x="539.2646" y="879.8691">VISIBILIT&#195;&#8240;</text><text fill="#000000" font-family="sans-serif" font-size="14" lengthAdjust="spacing" textLength="129.7529" x="539.2646" y="897.4785">TEMPS R&#195;&#8240;EL 0%</text><rect fill="#F1F1F1" height="37.6094" rx="12.5" ry="12.5" style="stroke:#181818;stroke-width:1.5;" width="105.6201" x="373.6445" y="596.0938"/><text fill="#000000" font-family="sans-serif" font-size="14" font-weight="bold" lengthAdjust="spacing" textLength="85.6201" x="383.6445" y="620.627">Services: 6/8</text><path d="M529.2646,874.1406 L519.2646,874.1406 C504.2646,874.1406 504.2646,614.8984 489.2646,614.8984 L479.2646,614.8984 " fill="none" style="stroke:#181818;stroke-width:1;"/><rect fill="#F1F1F1" height="37.6094" rx="12.5" ry="12.5" style="stroke:#181818;stroke-width:1.5;" width="186.5439" x="292.7207" y="653.7031"/><text fill="#000000" font-family="sans-serif" font-size="14" lengthAdjust="spacing" textLength="166.5439" x="302.7207" y="678.2363">Direction: Pilotage aveugle</text><path d="M529.2646,874.1406 L519.2646,874.1406 C504.2646,874.1406 504.2646,672.5078 489.2646,672.5078 L479.2646,672.5078 " fill="none" style="stroke:#181818;stroke-width:1;"/><rect fill="#F1F1F1" height="37.6094" rx="12.5" ry="12.5" style="stroke:#181818;stroke-width:1.5;" width="197.4404" x="281.8242" y="711.3125"/><text fill="#000000" font-family="sans-serif" font-size="14" lengthAdjust="spacing" textLength="177.4404" x="291.8242" y="735.8457">Chefs: Pas de budget visible</text><path d="M529.2646,874.1406 L519.2646,874.1406 C504.2646,874.1406 504.2646,730.1172 489.2646,730.1172 L479.2646,730.1172 " fill="none" style="stroke:#181818;stroke-width:1;"/><rect fill="#F1F1F1" height="37.6094" rx="12.5" ry="12.5" style="stroke:#181818;stroke-width:1.5;" width="211.0508" x="268.2139" y="768.9219"/><text fill="#000000" font-family="sans-serif" font-size="14" lengthAdjust="spacing" textLength="191.0508" x="278.2139" y="793.4551">KPIs: G&#195;&#169;n&#195;&#169;ration manuelle</text><path d="M529.2646,874.1406 L519.2646,874.1406 C504.2646,874.1406 504.2646,787.7266 489.2646,787.7266 L479.2646,787.7266 " fill="none" style="stroke:#181818;stroke-width:1;"/><rect fill="#F1F1F1" height="37.6094" rx="12.5" ry="12.5" style="stroke:#181818;stroke-width:1.5;" width="240.0215" x="239.2432" y="826.5313"/><text fill="#000000" font-family="sans-serif" font-size="14" lengthAdjust="spacing" textLength="220.0215" x="249.2432" y="851.0645">D&#195;&#169;passements: D&#195;&#169;tect&#195;&#169;s tard</text><path d="M529.2646,874.1406 L519.2646,874.1406 C504.2646,874.1406 504.2646,845.3359 489.2646,845.3359 L479.2646,845.3359 " fill="none" style="stroke:#181818;stroke-width:1;"/><rect fill="#F1F1F1" height="37.6094" rx="12.5" ry="12.5" style="stroke:#181818;stroke-width:1.5;" width="174.2871" x="304.9775" y="884.1406"/><text fill="#000000" font-family="sans-serif" font-size="14" lengthAdjust="spacing" textLength="154.2871" x="314.9775" y="908.6738">Reliquats: 60% oubli&#195;&#169;s</text><path d="M529.2646,874.1406 L519.2646,874.1406 C504.2646,874.1406 504.2646,902.9453 489.2646,902.9453 L479.2646,902.9453 " fill="none" style="stroke:#181818;stroke-width:1;"/><rect fill="#F1F1F1" height="37.6094" rx="12.5" ry="12.5" style="stroke:#181818;stroke-width:1.5;" width="65.124" x="414.1406" y="1028.1641"/><text fill="#000000" font-family="sans-serif" font-size="14" font-weight="bold" lengthAdjust="spacing" textLength="45.124" x="424.1406" y="1052.6973">Impact</text><rect fill="#F1F1F1" height="37.6094" rx="12.5" ry="12.5" style="stroke:#181818;stroke-width:1.5;" width="167.458" x="196.6826" y="941.75"/><text fill="#000000" font-family="sans-serif" font-size="14" lengthAdjust="spacing" textLength="147.458" x="206.6826" y="966.2832">D&#195;&#169;cisions retard&#195;&#169;es</text><path d="M414.1406,1046.9688 L404.1406,1046.9688 C389.1406,1046.9688 389.1406,960.5547 374.1406,960.5547 L364.1406,960.5547 " fill="none" style="stroke:#181818;stroke-width:1;"/><rect fill="#F1F1F1" height="37.6094" rx="12.5" ry="12.5" style="stroke:#181818;stroke-width:1.5;" width="138.2686" x="225.8721" y="999.3594"/><text fill="#000000" font-family="sans-serif" font-size="14" lengthAdjust="spacing" textLength="118.2686" x="235.8721" y="1023.8926">Pertes financi&#195;&#168;res</text><path d="M414.1406,1046.9688 L404.1406,1046.9688 C389.1406,1046.9688 389.1406,1018.1641 374.1406,1018.1641 L364.1406,1018.1641 " fill="none" style="stroke:#181818;stroke-width:1;"/><rect fill="#F1F1F1" height="37.6094" rx="12.5" ry="12.5" style="stroke:#181818;stroke-width:1.5;" width="192.1631" x="171.9775" y="1056.9688"/><text fill="#000000" font-family="sans-serif" font-size="14" lengthAdjust="spacing" textLength="172.1631" x="181.9775" y="1081.502">Pilotage r&#195;&#169;actif vs proactif</text><path d="M414.1406,1046.9688 L404.1406,1046.9688 C389.1406,1046.9688 389.1406,1075.7734 374.1406,1075.7734 L364.1406,1075.7734 " fill="none" style="stroke:#181818;stroke-width:1;"/><rect fill="#F1F1F1" height="37.6094" rx="12.5" ry="12.5" style="stroke:#181818;stroke-width:1.5;" width="156.1992" x="207.9414" y="1114.5781"/><text fill="#000000" font-family="sans-serif" font-size="14" lengthAdjust="spacing" textLength="136.1992" x="217.9414" y="1139.1113">Manque transparence</text><path d="M414.1406,1046.9688 L404.1406,1046.9688 C389.1406,1046.9688 389.1406,1133.3828 374.1406,1133.3828 L364.1406,1133.3828 " fill="none" style="stroke:#181818;stroke-width:1;"/><path d="M529.2646,874.1406 L519.2646,874.1406 C504.2646,874.1406 504.2646,1046.9688 489.2646,1046.9688 L479.2646,1046.9688 " fill="none" style="stroke:#181818;stroke-width:1;"/><path d="M729.0176,874.1406 L719.0176,874.1406 C704.0176,874.1406 704.0176,874.1406 689.0176,874.1406 L679.0176,874.1406 " fill="none" style="stroke:#181818;stroke-width:1;"/><rect fill="#F1F1F1" height="72.8281" rx="12.5" ry="12.5" style="stroke:#181818;stroke-width:1.5;" width="147.3945" x="531.623" y="1385.0156"/><text fill="#000000" font-family="sans-serif" font-size="14" lengthAdjust="spacing" textLength="119.041" x="541.623" y="1409.5488">&#240;&#376;&#376;&#160; PATTERN #6</text><text fill="#000000" font-family="sans-serif" font-size="14" lengthAdjust="spacing" textLength="127.3945" x="541.623" y="1427.1582">OPPORTUNIT&#195;&#8240;S</text><text fill="#000000" font-family="sans-serif" font-size="14" lengthAdjust="spacing" textLength="67.6826" x="541.623" y="1444.7676">PERDUES</text><rect fill="#F1F1F1" height="37.6094" rx="12.5" ry="12.5" style="stroke:#181818;stroke-width:1.5;" width="105.6201" x="376.0029" y="1172.1875"/><text fill="#000000" font-family="sans-serif" font-size="14" font-weight="bold" lengthAdjust="spacing" textLength="85.6201" x="386.0029" y="1196.7207">Services: 6/8</text><path d="M531.623,1421.4297 L521.623,1421.4297 C506.623,1421.4297 506.623,1190.9922 491.623,1190.9922 L481.623,1190.9922 " fill="none" style="stroke:#181818;stroke-width:1;"/><rect fill="#F1F1F1" height="37.6094" rx="12.5" ry="12.5" style="stroke:#181818;stroke-width:1.5;" width="85.3721" x="396.251" y="1345.0156"/><text fill="#000000" font-family="sans-serif" font-size="14" font-weight="bold" lengthAdjust="spacing" textLength="65.3721" x="406.251" y="1369.5488">Exemples</text><rect fill="#F1F1F1" height="37.6094" rx="12.5" ry="12.5" style="stroke:#181818;stroke-width:1.5;" width="175.6064" x="170.6445" y="1229.7969"/><text fill="#000000" font-family="sans-serif" font-size="14" lengthAdjust="spacing" textLength="155.6064" x="180.6445" y="1254.3301">Devis terrain impossibles</text><path d="M396.251,1363.8203 L386.251,1363.8203 C371.251,1363.8203 371.251,1248.6016 356.251,1248.6016 L346.251,1248.6016 " fill="none" style="stroke:#181818;stroke-width:1;"/><rect fill="#F1F1F1" height="37.6094" rx="12.5" ry="12.5" style="stroke:#181818;stroke-width:1.5;" width="218.6387" x="127.6123" y="1287.4063"/><text fill="#000000" font-family="sans-serif" font-size="14" lengthAdjust="spacing" textLength="198.6387" x="137.6123" y="1311.9395">Remont&#195;&#169;es chantiers perdues</text><path d="M396.251,1363.8203 L386.251,1363.8203 C371.251,1363.8203 371.251,1306.2109 356.251,1306.2109 L346.251,1306.2109 " fill="none" style="stroke:#181818;stroke-width:1;"/><rect fill="#F1F1F1" height="37.6094" rx="12.5" ry="12.5" style="stroke:#181818;stroke-width:1.5;" width="174.2529" x="171.998" y="1345.0156"/><text fill="#000000" font-family="sans-serif" font-size="14" lengthAdjust="spacing" textLength="154.2529" x="181.998" y="1369.5488">Clients oubli&#195;&#169;s (post-it)</text><path d="M396.251,1363.8203 L386.251,1363.8203 C371.251,1363.8203 371.251,1363.8203 356.251,1363.8203 L346.251,1363.8203 " fill="none" style="stroke:#181818;stroke-width:1;"/><rect fill="#F1F1F1" height="37.6094" rx="12.5" ry="12.5" style="stroke:#181818;stroke-width:1.5;" width="224.8525" x="121.3984" y="1402.625"/><text fill="#000000" font-family="sans-serif" font-size="14" lengthAdjust="spacing" textLength="204.8525" x="131.3984" y="1427.1582">Reliquats non refactur&#195;&#169;s (60%)</text><path d="M396.251,1363.8203 L386.251,1363.8203 C371.251,1363.8203 371.251,1421.4297 356.251,1421.4297 L346.251,1421.4297 " fill="none" style="stroke:#181818;stroke-width:1;"/><rect fill="#F1F1F1" height="37.6094" rx="12.5" ry="12.5" style="stroke:#181818;stroke-width:1.5;" width="131.2822" x="214.9688" y="1460.2344"/><text fill="#000000" font-family="sans-serif" font-size="14" lengthAdjust="spacing" textLength="111.2822" x="224.9688" y="1484.7676">Retard facturation</text><path d="M396.251,1363.8203 L386.251,1363.8203 C371.251,1363.8203 371.251,1479.0391 356.251,1479.0391 L346.251,1479.0391 " fill="none" style="stroke:#181818;stroke-width:1;"/><path d="M531.623,1421.4297 L521.623,1421.4297 C506.623,1421.4297 506.623,1363.8203 491.623,1363.8203 L481.623,1363.8203 " fill="none" style="stroke:#181818;stroke-width:1;"/><rect fill="#F1F1F1" height="37.6094" rx="12.5" ry="12.5" style="stroke:#181818;stroke-width:1.5;" width="65.124" x="416.499" y="1575.4531"/><text fill="#000000" font-family="sans-serif" font-size="14" font-weight="bold" lengthAdjust="spacing" textLength="45.124" x="426.499" y="1599.9863">Impact</text><rect fill="#F1F1F1" height="37.6094" rx="12.5" ry="12.5" style="stroke:#181818;stroke-width:1.5;" width="153.0547" x="213.4443" y="1517.8438"/><text fill="#000000" font-family="sans-serif" font-size="14" lengthAdjust="spacing" textLength="133.0547" x="223.4443" y="1542.377">Perte CA significative</text><path d="M416.499,1594.2578 L406.499,1594.2578 C391.499,1594.2578 391.499,1536.6484 376.499,1536.6484 L366.499,1536.6484 " fill="none" style="stroke:#181818;stroke-width:1;"/><rect fill="#F1F1F1" height="37.6094" rx="12.5" ry="12.5" style="stroke:#181818;stroke-width:1.5;" width="187.5078" x="178.9912" y="1575.4531"/><text fill="#000000" font-family="sans-serif" font-size="14" lengthAdjust="spacing" textLength="167.5078" x="188.9912" y="1599.9863">Satisfaction client r&#195;&#169;duite</text><path d="M416.499,1594.2578 L406.499,1594.2578 C391.499,1594.2578 391.499,1594.2578 376.499,1594.2578 L366.499,1594.2578 " fill="none" style="stroke:#181818;stroke-width:1;"/><rect fill="#F1F1F1" height="37.6094" rx="12.5" ry="12.5" style="stroke:#181818;stroke-width:1.5;" width="154.4561" x="212.043" y="1633.0625"/><text fill="#000000" font-family="sans-serif" font-size="14" lengthAdjust="spacing" textLength="134.4561" x="222.043" y="1657.5957">Image "pas moderne"</text><path d="M416.499,1594.2578 L406.499,1594.2578 C391.499,1594.2578 391.499,1651.8672 376.499,1651.8672 L366.499,1651.8672 " fill="none" style="stroke:#181818;stroke-width:1;"/><path d="M531.623,1421.4297 L521.623,1421.4297 C506.623,1421.4297 506.623,1594.2578 491.623,1594.2578 L481.623,1594.2578 " fill="none" style="stroke:#181818;stroke-width:1;"/><path d="M729.0176,874.1406 L719.0176,874.1406 C704.0176,874.1406 704.0176,1421.4297 689.0176,1421.4297 L679.0176,1421.4297 " fill="none" style="stroke:#181818;stroke-width:1;"/><!--SRC=[VLRDRjj64BxhAGOfWiei54koB1iwXPPeMub-299oMq2N5RcIDY1tcTsbuDm21EXR56XlwIs77dAsaLFV8a_IsQN8sB6TYo3k36Tdlldc6xvKcaYTCPva96yq770STp4QHp1Q15xaE4lkE7tmtIZoWba8KU3EmYil2BtGST3TWTjFNpv_VV_dpR-L4_pKMVBHxOUlxp_vtcpapeRUadk_3Rq9JDqm75zv-9gv9wHonsAg1d1wU8hHp6c__GkiMRnbL2hWWaCiEAUnllrmyu-o7XTKQIPuQvuFu0YzlUkOfjRYfYigzOwbAHr0v_YkARWSmCbTrtXBD5xSWnrUXE4K9FQATppUPpVESXBhCYqCG9KYJ36geDywWRLWgZICUIosvbL9ETPI7eOi5HWHKpUMwjGdU4QneZGbAo69AQEqZ8nRJdb2C0Rac9AfMZs5RtV9_M0-zC9m4KAdtNw-v5Dtjl0cuG-GTHplccPvYXLeAYLXlAfjH7SCNRjRs2c45Ba0kL2AhLAwJzmF_H3HVjg1C8JywCsXefdnwRpvpY4WUIwahc_fj5lTOunJMeSYomXFJBv7y4OKKZtQWx2Gs3QveM3WUbkml4Bsh92y9GeDagctnVxE2AjL1ioa09QPwmdNfUbS5agN3O2CNBECOA9FW7sqvEvPw5aM8_iDh_zspyQJSMGf_W3nanfnNoZTOXgQUsDhc3BAzO4r3htWt8MSvCXqQ4wn7Pfoq_xI_AlXfvldXtD9KcWEjvYxcOdIwfUluMniB6kX6LoMbiWyfvPEMy4fD4kc7pmAw77xEJ2-5dkKAZGlcT92CWGIhVGQdshW9aop3IqdqsGKixoUJ0Vcjia5P-Murb4RALrhK2nv4kJUaiyNqNWImZZ2lsVXV7BxuRy_8k_7Z0xVANFLnmnJogLOsS8px2lchchQk1SUJ4UUaOjMhwqEZLCioPvy_jntVqUZdSwVaQUGYHMhY6ibOm2p-qgqVxFixm3S8YuGQsHKN77lkpROaQxkGAAozD66-58aHQpPhaGGfFbD2gOVXCMxTeIbbjZt9z5gZ2s1tSarmWaHg7Ku-_6M6toUQiNnab-Dm_4tXYFjlQaVGc2VKCNRpnyqfLytPSGaWeI3XTMY2cg2uqfsjDYK6S9mIzTgKEMvAf8DrO3wKvK0h_qnsYzCwbOzwp7b1KttFgLU4eLoWmE5xlP0Lti2SAKbfUxJ56krKjz7iejYbR9lg-Hx-6sKc9NxG58JvPv-utP1egsPcLCJvgEiJLMfjcCOagsDp24dxV_IQKgucIbi7LSviVkYRiANppT_VUj17sV0z-T1j9Zjcn2Yv7l1QF78GFGVaVXxqbxf_Hsog6ghPOBhiaQ8AusvhmQbQAaxs44pBvb_K4NPWsnbGT8rrbp8lIl2NhiPGA6qrilluGmOb67eebviECDl0NJTxTaTudzb0XX6n3Qn1pCopamVdY4xS0eIAZbzrcYynDrQV-FuAHQwc4wgtG-T5zrsj_VYj7ak6Oxw3ZyUe7CwwFK6lJuATGJ6VD1eNlWJKBYUS4Sdg8gIhGgJoK7Z5GuZ10N2b-4UD4_DQ7e0eLSTWiTtJ0fkwDfuTJKjdU1Iw30NsZhtUwqpN1QchpYcLzF6284iKeslnY9XV3E0OTxf7dSR4y8t1HOvWBLi30NU8DyDu3pu7m00]--></g></svg>