<svg xmlns="http://www.w3.org/2000/svg" xmlns:xlink="http://www.w3.org/1999/xlink" contentStyleType="text/css" height="742px" preserveAspectRatio="none" style="width:2491px;height:742px;background:#FFFFFF;" version="1.1" viewBox="0 0 2491 742" width="2491px" zoomAndPan="magnify"><title>Architecture IT Cible - Option 1 : Full Odoo (Recommand&#195;&#169;e)</title><defs/><g><text fill="#000000" font-family="sans-serif" font-size="14" font-weight="bold" lengthAdjust="spacing" textLength="409.3359" x="1033.9485" y="24.5332">Architecture IT Cible - Option 1 : Full Odoo (Recommand&#195;&#169;e)</text><!--cluster UTILISATEURS FINAUX--><g id="cluster_UTILISATEURS FINAUX"><path d="M468.5,44.6094 L627.3896,44.6094 A3.75,3.75 0 0 1 629.8896,47.1094 L636.8896,68.2188 L945.5,68.2188 A2.5,2.5 0 0 1 948,70.7188 L948,209.1094 A2.5,2.5 0 0 1 945.5,211.6094 L468.5,211.6094 A2.5,2.5 0 0 1 466,209.1094 L466,47.1094 A2.5,2.5 0 0 1 468.5,44.6094 " fill="#E6F3FF" style="stroke:#000000;stroke-width:1.5;"/><line style="stroke:#000000;stroke-width:1.5;" x1="466" x2="636.8896" y1="68.2188" y2="68.2188"/><text fill="#000000" font-family="sans-serif" font-size="14" font-weight="bold" lengthAdjust="spacing" textLength="157.8896" x="470" y="61.1426">UTILISATEURS FINAUX</text></g><!--cluster C??UR DU SYST??ME : ODOO ENTERPRISE--><g id="cluster_C&#197;&#8217;UR DU SYST&#195;&#710;ME : ODOO ENTERPRISE"><path d="M8.5,261.6094 L302.7412,261.6094 A3.75,3.75 0 0 1 305.2412,264.1094 L312.2412,285.2188 L1221.5,285.2188 A2.5,2.5 0 0 1 1224,287.7188 L1224,396.1094 A2.5,2.5 0 0 1 1221.5,398.6094 L8.5,398.6094 A2.5,2.5 0 0 1 6,396.1094 L6,264.1094 A2.5,2.5 0 0 1 8.5,261.6094 " fill="#E8F5E9" style="stroke:#000000;stroke-width:1.5;"/><line style="stroke:#000000;stroke-width:1.5;" x1="6" x2="312.2412" y1="285.2188" y2="285.2188"/><text fill="#000000" font-family="sans-serif" font-size="14" font-weight="bold" lengthAdjust="spacing" textLength="293.2412" x="10" y="278.1426">C&#197;&#8217;UR DU SYST&#195;&#710;ME : ODOO ENTERPRISE</text></g><!--cluster RH & PAIE--><g id="cluster_RH &amp; PAIE"><path d="M1250.5,261.6094 L1322.2861,261.6094 A3.75,3.75 0 0 1 1324.7861,264.1094 L1331.7861,285.2188 L1791.5,285.2188 A2.5,2.5 0 0 1 1794,287.7188 L1794,396.1094 A2.5,2.5 0 0 1 1791.5,398.6094 L1250.5,398.6094 A2.5,2.5 0 0 1 1248,396.1094 L1248,264.1094 A2.5,2.5 0 0 1 1250.5,261.6094 " fill="#FFF4E4" style="stroke:#000000;stroke-width:1.5;"/><line style="stroke:#000000;stroke-width:1.5;" x1="1248" x2="1331.7861" y1="285.2188" y2="285.2188"/><text fill="#000000" font-family="sans-serif" font-size="14" font-weight="bold" lengthAdjust="spacing" textLength="70.7861" x="1252" y="278.1426">RH &amp; PAIE</text></g><!--cluster INFRASTRUCTURE & DATA--><g id="cluster_INFRASTRUCTURE &amp; DATA"><path d="M686.5,451.6094 L873.376,451.6094 A3.75,3.75 0 0 1 875.876,454.1094 L882.876,475.2188 L1199.5,475.2188 A2.5,2.5 0 0 1 1202,477.7188 L1202,586.1094 A2.5,2.5 0 0 1 1199.5,588.6094 L686.5,588.6094 A2.5,2.5 0 0 1 684,586.1094 L684,454.1094 A2.5,2.5 0 0 1 686.5,451.6094 " fill="#E4E4FF" style="stroke:#000000;stroke-width:1.5;"/><line style="stroke:#000000;stroke-width:1.5;" x1="684" x2="882.876" y1="475.2188" y2="475.2188"/><text fill="#000000" font-family="sans-serif" font-size="14" font-weight="bold" lengthAdjust="spacing" textLength="185.876" x="688" y="468.1426">INFRASTRUCTURE &amp; DATA</text></g><!--entity Dir--><g id="elem_Dir"><ellipse cx="524.9067" cy="109.1094" fill="#F1F1F1" rx="8" ry="8" style="stroke:#181818;stroke-width:0.5;"/><path d="M524.9067,117.1094 L524.9067,144.1094 M511.9067,125.1094 L537.9067,125.1094 M524.9067,144.1094 L511.9067,159.1094 M524.9067,144.1094 L537.9067,159.1094 " fill="none" style="stroke:#181818;stroke-width:0.5;"/><text fill="#000000" font-family="sans-serif" font-size="14" lengthAdjust="spacing" textLength="55.2412" x="482.5" y="175.1426">Direction</text><text fill="#000000" font-family="sans-serif" font-size="14" lengthAdjust="spacing" textLength="84.8135" x="482.5" y="192.752">(Dashboards)</text></g><!--entity Mgr--><g id="elem_Mgr"><ellipse cx="766.1206" cy="109.1094" fill="#F1F1F1" rx="8" ry="8" style="stroke:#181818;stroke-width:0.5;"/><path d="M766.1206,117.1094 L766.1206,144.1094 M753.1206,125.1094 L779.1206,125.1094 M766.1206,144.1094 L753.1206,159.1094 M766.1206,144.1094 L779.1206,159.1094 " fill="none" style="stroke:#181818;stroke-width:0.5;"/><text fill="#000000" font-family="sans-serif" font-size="14" lengthAdjust="spacing" textLength="62.2549" x="724.5" y="175.1426">Managers</text><text fill="#000000" font-family="sans-serif" font-size="14" lengthAdjust="spacing" textLength="83.2412" x="724.5" y="192.752">(Web/Mobile)</text></g><!--entity Terrain--><g id="elem_Terrain"><ellipse cx="886.8516" cy="109.1094" fill="#F1F1F1" rx="8" ry="8" style="stroke:#181818;stroke-width:0.5;"/><path d="M886.8516,117.1094 L886.8516,144.1094 M873.8516,125.1094 L899.8516,125.1094 M886.8516,144.1094 L873.8516,159.1094 M886.8516,144.1094 L899.8516,159.1094 " fill="none" style="stroke:#181818;stroke-width:0.5;"/><text fill="#000000" font-family="sans-serif" font-size="14" lengthAdjust="spacing" textLength="44.3447" x="842.5" y="175.1426">Terrain</text><text fill="#000000" font-family="sans-serif" font-size="14" lengthAdjust="spacing" textLength="88.7031" x="842.5" y="192.752">(Odoo Mobile)</text></g><!--entity Clients--><g id="elem_Clients"><ellipse cx="646.0723" cy="109.1094" fill="#F1F1F1" rx="8" ry="8" style="stroke:#181818;stroke-width:0.5;"/><path d="M646.0723,117.1094 L646.0723,144.1094 M633.0723,125.1094 L659.0723,125.1094 M646.0723,144.1094 L633.0723,159.1094 M646.0723,144.1094 L659.0723,159.1094 " fill="none" style="stroke:#181818;stroke-width:0.5;"/><text fill="#000000" font-family="sans-serif" font-size="14" lengthAdjust="spacing" textLength="42.793" x="602.5" y="175.1426">Clients</text><text fill="#000000" font-family="sans-serif" font-size="14" lengthAdjust="spacing" textLength="87.1445" x="602.5" y="192.752">(Portail Odoo)</text></g><!--entity CRM--><g id="elem_CRM"><rect fill="#90EE90" height="65.2188" rx="2.5" ry="2.5" style="stroke:#181818;stroke-width:0.5;" width="145.0342" x="184.5" y="317.6094"/><rect fill="#90EE90" height="10" style="stroke:#181818;stroke-width:0.5;" width="15" x="309.5342" y="322.6094"/><rect fill="#90EE90" height="2" style="stroke:#181818;stroke-width:0.5;" width="4" x="307.5342" y="324.6094"/><rect fill="#90EE90" height="2" style="stroke:#181818;stroke-width:0.5;" width="4" x="307.5342" y="328.6094"/><text fill="#000000" font-family="sans-serif" font-size="14" lengthAdjust="spacing" textLength="70.0205" x="199.5" y="352.1426">Odoo CRM</text><text fill="#000000" font-family="sans-serif" font-size="14" lengthAdjust="spacing" textLength="105.0342" x="199.5" y="369.752">(Ventes &amp; Devis)</text></g><!--entity Projet--><g id="elem_Projet"><rect fill="#90EE90" height="65.2188" rx="2.5" ry="2.5" style="stroke:#181818;stroke-width:0.5;" width="131.0205" x="524.5" y="317.6094"/><rect fill="#90EE90" height="10" style="stroke:#181818;stroke-width:0.5;" width="15" x="635.5205" y="322.6094"/><rect fill="#90EE90" height="2" style="stroke:#181818;stroke-width:0.5;" width="4" x="633.5205" y="324.6094"/><rect fill="#90EE90" height="2" style="stroke:#181818;stroke-width:0.5;" width="4" x="633.5205" y="328.6094"/><text fill="#000000" font-family="sans-serif" font-size="14" lengthAdjust="spacing" textLength="81.71" x="539.5" y="352.1426">Odoo Projets</text><text fill="#000000" font-family="sans-serif" font-size="14" lengthAdjust="spacing" textLength="91.0205" x="539.5" y="369.752">(Suivi Affaires)</text></g><!--entity FSM--><g id="elem_FSM"><rect fill="#90EE90" height="65.2188" rx="2.5" ry="2.5" style="stroke:#181818;stroke-width:0.5;" width="159.0547" x="1048.5" y="317.6094"/><rect fill="#90EE90" height="10" style="stroke:#181818;stroke-width:0.5;" width="15" x="1187.5547" y="322.6094"/><rect fill="#90EE90" height="2" style="stroke:#181818;stroke-width:0.5;" width="4" x="1185.5547" y="324.6094"/><rect fill="#90EE90" height="2" style="stroke:#181818;stroke-width:0.5;" width="4" x="1185.5547" y="328.6094"/><text fill="#000000" font-family="sans-serif" font-size="14" lengthAdjust="spacing" textLength="119.0547" x="1063.5" y="352.1426">Odoo Field Service</text><text fill="#000000" font-family="sans-serif" font-size="14" lengthAdjust="spacing" textLength="89.4824" x="1063.5" y="369.752">(Interventions)</text></g><!--entity Stock--><g id="elem_Stock"><rect fill="#90EE90" height="65.2188" rx="2.5" ry="2.5" style="stroke:#181818;stroke-width:0.5;" width="173.0684" x="690.5" y="317.6094"/><rect fill="#90EE90" height="10" style="stroke:#181818;stroke-width:0.5;" width="15" x="843.5684" y="322.6094"/><rect fill="#90EE90" height="2" style="stroke:#181818;stroke-width:0.5;" width="4" x="841.5684" y="324.6094"/><rect fill="#90EE90" height="2" style="stroke:#181818;stroke-width:0.5;" width="4" x="841.5684" y="328.6094"/><text fill="#000000" font-family="sans-serif" font-size="14" lengthAdjust="spacing" textLength="133.0684" x="705.5" y="352.1426">Odoo Achats &amp; Stock</text><text fill="#000000" font-family="sans-serif" font-size="14" lengthAdjust="spacing" textLength="73.1514" x="705.5" y="369.752">(Logistique)</text></g><!--entity Compta--><g id="elem_Compta"><rect fill="#90EE90" height="65.2188" rx="2.5" ry="2.5" style="stroke:#181818;stroke-width:0.5;" width="127.1582" x="22.5" y="317.6094"/><rect fill="#90EE90" height="10" style="stroke:#181818;stroke-width:0.5;" width="15" x="129.6582" y="322.6094"/><rect fill="#90EE90" height="2" style="stroke:#181818;stroke-width:0.5;" width="4" x="127.6582" y="324.6094"/><rect fill="#90EE90" height="2" style="stroke:#181818;stroke-width:0.5;" width="4" x="127.6582" y="328.6094"/><text fill="#000000" font-family="sans-serif" font-size="14" lengthAdjust="spacing" textLength="87.1582" x="37.5" y="352.1426">Odoo Compta</text><text fill="#000000" font-family="sans-serif" font-size="14" lengthAdjust="spacing" textLength="79.3584" x="37.5" y="369.752">(Facturation)</text></g><!--entity PayFit--><g id="elem_PayFit"><rect fill="#FFD700" height="65.2188" rx="2.5" ry="2.5" style="stroke:#181818;stroke-width:0.5;" width="124.0205" x="1654" y="317.6094"/><rect fill="#FFD700" height="10" style="stroke:#181818;stroke-width:0.5;" width="15" x="1758.0205" y="322.6094"/><rect fill="#FFD700" height="2" style="stroke:#181818;stroke-width:0.5;" width="4" x="1756.0205" y="324.6094"/><rect fill="#FFD700" height="2" style="stroke:#181818;stroke-width:0.5;" width="4" x="1756.0205" y="328.6094"/><text fill="#000000" font-family="sans-serif" font-size="14" lengthAdjust="spacing" textLength="39.6758" x="1669" y="352.1426">PayFit</text><text fill="#000000" font-family="sans-serif" font-size="14" lengthAdjust="spacing" textLength="84.0205" x="1669" y="369.752">(Paie &amp; DSN)</text></g><!--entity RH--><g id="elem_RH"><rect fill="#90EE90" height="65.2188" rx="2.5" ry="2.5" style="stroke:#181818;stroke-width:0.5;" width="151.4736" x="1264.5" y="317.6094"/><rect fill="#90EE90" height="10" style="stroke:#181818;stroke-width:0.5;" width="15" x="1395.9736" y="322.6094"/><rect fill="#90EE90" height="2" style="stroke:#181818;stroke-width:0.5;" width="4" x="1393.9736" y="324.6094"/><rect fill="#90EE90" height="2" style="stroke:#181818;stroke-width:0.5;" width="4" x="1393.9736" y="328.6094"/><text fill="#000000" font-family="sans-serif" font-size="14" lengthAdjust="spacing" textLength="111.4736" x="1279.5" y="352.1426">Odoo Employ&#195;&#169;s</text><text fill="#000000" font-family="sans-serif" font-size="14" lengthAdjust="spacing" textLength="80.8896" x="1279.5" y="369.752">(Dossier RH)</text></g><!--entity DB--><g id="elem_DB"><path d="M1090,518.1094 C1090,508.1094 1138.1309,508.1094 1138.1309,508.1094 C1138.1309,508.1094 1186.2617,508.1094 1186.2617,518.1094 L1186.2617,562.3281 C1186.2617,572.3281 1138.1309,572.3281 1138.1309,572.3281 C1138.1309,572.3281 1090,572.3281 1090,562.3281 L1090,518.1094 " fill="#4169E1" style="stroke:#181818;stroke-width:0.5;"/><path d="M1090,518.1094 C1090,528.1094 1138.1309,528.1094 1138.1309,528.1094 C1138.1309,528.1094 1186.2617,528.1094 1186.2617,518.1094 " fill="none" style="stroke:#181818;stroke-width:0.5;"/><text fill="#000000" font-family="sans-serif" font-size="14" lengthAdjust="spacing" textLength="76.2617" x="1100" y="546.6426">PostgreSQL</text><text fill="#000000" font-family="sans-serif" font-size="14" lengthAdjust="spacing" textLength="66.9102" x="1100" y="564.252">(Odoo DB)</text></g><!--entity GED--><g id="elem_GED"><rect fill="#6495ED" height="65.2188" rx="2.5" ry="2.5" style="stroke:#181818;stroke-width:0.5;" width="166.2324" x="889" y="507.6094"/><rect fill="#6495ED" height="10" style="stroke:#181818;stroke-width:0.5;" width="15" x="1035.2324" y="512.6094"/><rect fill="#6495ED" height="2" style="stroke:#181818;stroke-width:0.5;" width="4" x="1033.2324" y="514.6094"/><rect fill="#6495ED" height="2" style="stroke:#181818;stroke-width:0.5;" width="4" x="1033.2324" y="518.6094"/><text fill="#000000" font-family="sans-serif" font-size="14" lengthAdjust="spacing" textLength="108.9443" x="904" y="542.1426">Odoo Documents</text><text fill="#000000" font-family="sans-serif" font-size="14" lengthAdjust="spacing" textLength="126.2324" x="904" y="559.752">(GED Centralis&#195;&#169;e)</text></g><!--entity APIs--><g id="elem_APIs"><rect fill="#FFD700" height="65.2188" rx="2.5" ry="2.5" style="stroke:#181818;stroke-width:0.5;" width="152.834" x="700.5" y="507.6094"/><rect fill="#FFD700" height="10" style="stroke:#181818;stroke-width:0.5;" width="15" x="833.334" y="512.6094"/><rect fill="#FFD700" height="2" style="stroke:#181818;stroke-width:0.5;" width="4" x="831.334" y="514.6094"/><rect fill="#FFD700" height="2" style="stroke:#181818;stroke-width:0.5;" width="4" x="831.334" y="518.6094"/><text fill="#000000" font-family="sans-serif" font-size="14" lengthAdjust="spacing" textLength="112.834" x="715.5" y="542.1426">Connecteurs APIs</text><text fill="#000000" font-family="sans-serif" font-size="14" lengthAdjust="spacing" textLength="105.8271" x="715.5" y="559.752">(Rexel, Sonepar)</text></g><g id="elem_GMN38"><path d="M1813.5,312.6094 L1813.5,388.0156 L2022.3589,388.0156 L2022.3589,322.6094 L2012.3589,312.6094 L1813.5,312.6094 " fill="#FEFFDD" style="stroke:#181818;stroke-width:0.5;"/><path d="M2012.3589,312.6094 L2012.3589,322.6094 L2022.3589,322.6094 L2012.3589,312.6094 " fill="#FEFFDD" style="stroke:#181818;stroke-width:1;"/><text fill="#000000" font-family="sans-serif" font-size="13" font-weight="bold" lengthAdjust="spacing" textLength="141.5654" x="1819.5" y="331.1045">ODOO CRM &amp; VENTES</text><text fill="#000000" font-family="sans-serif" font-size="13" lengthAdjust="spacing" textLength="108.3862" x="1819.5" y="347.4561">&#226;&#8364;&#162; Fin des Post-it</text><text fill="#000000" font-family="sans-serif" font-size="13" lengthAdjust="spacing" textLength="187.8589" x="1819.5" y="363.8076">&#226;&#8364;&#162; Devis en 30min (Templates)</text><text fill="#000000" font-family="sans-serif" font-size="13" lengthAdjust="spacing" textLength="166.4102" x="1819.5" y="380.1592">&#226;&#8364;&#162; Signature &#195;&#169;lectronique</text></g><g id="elem_GMN41"><path d="M2279.5,312.6094 L2279.5,388.0156 L2484.2329,388.0156 L2484.2329,322.6094 L2474.2329,312.6094 L2279.5,312.6094 " fill="#FEFFDD" style="stroke:#181818;stroke-width:0.5;"/><path d="M2474.2329,312.6094 L2474.2329,322.6094 L2484.2329,322.6094 L2474.2329,312.6094 " fill="#FEFFDD" style="stroke:#181818;stroke-width:1;"/><text fill="#000000" font-family="sans-serif" font-size="13" font-weight="bold" lengthAdjust="spacing" textLength="141.5718" x="2285.5" y="331.1045">ODOO FIELD SERVICE</text><text fill="#000000" font-family="sans-serif" font-size="13" lengthAdjust="spacing" textLength="180.6416" x="2285.5" y="347.4561">&#226;&#8364;&#162; App Mobile Native (Offline)</text><text fill="#000000" font-family="sans-serif" font-size="13" lengthAdjust="spacing" textLength="158.5835" x="2285.5" y="363.8076">&#226;&#8364;&#162; Rapports d'intervention</text><text fill="#000000" font-family="sans-serif" font-size="13" lengthAdjust="spacing" textLength="183.7329" x="2285.5" y="380.1592">&#226;&#8364;&#162; Signature client sur &#195;&#169;cran</text></g><g id="elem_GMN44"><path d="M2058,312.6094 L2058,388.0156 L2244.3818,388.0156 L2244.3818,322.6094 L2234.3818,312.6094 L2058,312.6094 " fill="#FEFFDD" style="stroke:#181818;stroke-width:0.5;"/><path d="M2234.3818,312.6094 L2234.3818,322.6094 L2244.3818,322.6094 L2234.3818,312.6094 " fill="#FEFFDD" style="stroke:#181818;stroke-width:1;"/><text fill="#000000" font-family="sans-serif" font-size="13" font-weight="bold" lengthAdjust="spacing" textLength="165.3818" x="2064" y="331.1045">PAYFIT (BEST-OF-BREED)</text><text fill="#000000" font-family="sans-serif" font-size="13" lengthAdjust="spacing" textLength="162.5952" x="2064" y="347.4561">&#226;&#8364;&#162; Expert Paie Fran&#195;&#167;aise</text><text fill="#000000" font-family="sans-serif" font-size="13" lengthAdjust="spacing" textLength="139.6421" x="2064" y="363.8076">&#226;&#8364;&#162; DSN Automatis&#195;&#169;e</text><text fill="#000000" font-family="sans-serif" font-size="13" lengthAdjust="spacing" textLength="122.1162" x="2064" y="380.1592">&#226;&#8364;&#162; Bulletins simples</text></g><!--link Dir to CRM--><g id="link_Dir_CRM"><path d="M482.3,152.4394 C399.07,159.9194 220,181.1494 183,227.6094 C160.3,256.1094 183.8975,288.0555 211.7275,313.4455 " fill="none" id="Dir-to-CRM" style="stroke:#181818;stroke-width:1;"/><polygon fill="#181818" points="216.16,317.4894,212.2072,308.4686,212.4663,314.1195,206.8153,314.3786,216.16,317.4894" style="stroke:#181818;stroke-width:1;"/></g><!--link Dir to Projet--><g id="link_Dir_Projet"><path d="M540.16,195.7494 C552.31,233.1494 567.185,278.9233 577.835,311.6833 " fill="none" id="Dir-to-Projet" style="stroke:#181818;stroke-width:1;"/><polygon fill="#181818" points="579.69,317.3894,580.7116,307.5936,578.1442,312.6343,573.1035,310.067,579.69,317.3894" style="stroke:#181818;stroke-width:1;"/></g><!--link Dir to Compta--><g id="link_Dir_Compta"><path d="M482.41,148.5194 C410.99,149.5394 265.25,160.4894 167,227.6094 C134.66,249.6994 114.3767,283.9373 101.3767,311.9373 " fill="none" id="Dir-to-Compta" style="stroke:#181818;stroke-width:1;"/><polygon fill="#181818" points="98.85,317.3794,106.268,310.9007,100.9556,312.8443,99.012,307.5318,98.85,317.3794" style="stroke:#181818;stroke-width:1;"/></g><!--link Mgr to CRM--><g id="link_Mgr_CRM"><path d="M736.14,195.6894 C727.86,205.1294 718.06,213.8994 707,219.6094 C686.79,230.0294 627.41,223.7894 605,227.6094 C560.58,235.1794 549.89,239.7694 507,253.6094 C446.42,273.1594 384.646,296.8888 335.136,316.8188 " fill="none" id="Mgr-to-CRM" style="stroke:#181818;stroke-width:1;"/><polygon fill="#181818" points="329.57,319.0594,339.4126,319.4092,334.2083,317.1923,336.4252,311.9879,329.57,319.0594" style="stroke:#181818;stroke-width:1;"/></g><!--link Mgr to Projet--><g id="link_Mgr_Projet"><path d="M766.38,195.6794 C764.03,213.7794 757.96,233.1294 744,245.6094 C732.16,256.1894 687.06,246.2294 673,253.6094 C645.58,268.0194 626.5261,290.5324 611.9361,312.3424 " fill="none" id="Mgr-to-Projet" style="stroke:#181818;stroke-width:1;"/><polygon fill="#181818" points="608.6,317.3294,616.9288,312.0729,611.3801,313.1735,610.2795,307.6248,608.6,317.3294" style="stroke:#181818;stroke-width:1;"/></g><!--link Mgr to RH--><g id="link_Mgr_RH"><path d="M795.85,195.7094 C804.12,205.1494 813.93,213.9194 825,219.6094 C846.01,230.4094 907.46,225.6794 931,227.6094 C1061.3,238.3094 1103.02,204.0694 1224,253.6094 C1258.28,267.6494 1286.0135,291.2109 1307.6635,313.2309 " fill="none" id="Mgr-to-RH" style="stroke:#181818;stroke-width:1;"/><polygon fill="#181818" points="1311.87,317.5094,1308.4125,308.2874,1308.3645,313.944,1302.7079,313.8961,1311.87,317.5094" style="stroke:#181818;stroke-width:1;"/></g><!--link Terrain to FSM--><g id="link_Terrain_FSM"><path d="M931.77,186.2594 C977.23,223.9894 1042.273,277.9675 1085.203,313.5975 " fill="none" id="Terrain-to-FSM" style="stroke:#181818;stroke-width:1;"/><polygon fill="#181818" points="1089.82,317.4294,1085.4491,308.6035,1085.9725,314.2361,1080.3399,314.7595,1089.82,317.4294" style="stroke:#181818;stroke-width:1;"/></g><!--link Terrain to Stock--><g id="link_Terrain_Stock"><path d="M920.91,195.6894 C928.5,211.8394 932.18,229.8394 924,245.6094 C907.75,276.9194 882.3998,297.7384 853.3398,314.5984 " fill="none" id="Terrain-to-Stock" style="stroke:#181818;stroke-width:1;"/><polygon fill="#181818" points="848.15,317.6094,857.942,316.5527,852.4748,315.1002,853.9273,309.633,848.15,317.6094" style="stroke:#181818;stroke-width:1;"/></g><!--link Clients to CRM--><g id="link_Clients_CRM"><path d="M615.44,195.8094 C606.81,205.3694 596.57,214.1694 585,219.6094 C566.5,228.3094 231.3,212.9894 217,227.6094 C193.31,251.8194 208.5983,285.3847 227.6183,312.5447 " fill="none" id="Clients-to-CRM" style="stroke:#181818;stroke-width:1;"/><polygon fill="#181818" points="231.06,317.4594,229.1739,307.7928,228.1919,313.3638,222.6209,312.3818,231.06,317.4594" style="stroke:#181818;stroke-width:1;"/><text fill="#000000" font-family="sans-serif" font-size="13" lengthAdjust="spacing" textLength="73.6963" x="218" y="242.1045">Portail Client</text></g><!--link CRM to Projet--><g id="link_CRM_Projet"><path d="M329.67,350.1094 C387.65,350.1094 462.18,350.1094 518.26,350.1094 " fill="none" id="CRM-to-Projet" style="stroke:#181818;stroke-width:1;"/><polygon fill="#181818" points="524.26,350.1094,515.26,346.1094,519.26,350.1094,515.26,354.1094,524.26,350.1094" style="stroke:#181818;stroke-width:1;"/><text fill="#000000" font-family="sans-serif" font-size="13" lengthAdjust="spacing" textLength="158.8057" x="348" y="343.6045">Gagn&#195;&#169; -&gt; Nouveau Projet</text></g><!--link Projet to FSM--><g id="link_Projet_FSM"><path d="M607.79,317.5994 C622.11,295.0694 644.54,266.8194 673,253.6094 C680.16,250.2894 914.98,250.9194 922.5,252.6094 C977.78,265.0594 1030.4631,291.1907 1070.6531,314.3807 " fill="none" id="Projet-to-FSM" style="stroke:#181818;stroke-width:1;"/><polygon fill="#181818" points="1075.85,317.3794,1070.0537,309.4168,1071.5192,314.8805,1066.0555,316.346,1075.85,317.3794" style="stroke:#181818;stroke-width:1;"/><text fill="#000000" font-family="sans-serif" font-size="13" lengthAdjust="spacing" textLength="131.8789" x="790.5" y="242.1045">T&#195;&#162;che -&gt; Intervention</text></g><!--link FSM to Stock--><g id="link_FSM_Stock"><path d="M1048.24,350.1094 C993.25,350.1094 926.2,350.1094 869.76,350.1094 " fill="none" id="FSM-to-Stock" style="stroke:#181818;stroke-width:1;"/><polygon fill="#181818" points="863.76,350.1094,872.76,354.1094,868.76,350.1094,872.76,346.1094,863.76,350.1094" style="stroke:#181818;stroke-width:1;"/><text fill="#000000" font-family="sans-serif" font-size="13" lengthAdjust="spacing" textLength="148.2939" x="882" y="343.6045">Consommation Mat&#195;&#169;riel</text></g><!--link Stock to Compta--><g id="link_Stock_Compta"><path d="M752.84,317.4094 C733.96,294.7794 705.51,266.4994 673,253.6094 C620.73,232.8894 217.91,229.7494 167,253.6094 C138.88,266.7894 120.1751,289.9297 106.2951,312.4797 " fill="none" id="Stock-to-Compta" style="stroke:#181818;stroke-width:1;"/><polygon fill="#181818" points="103.15,317.5894,111.2741,312.0216,105.7709,313.3313,104.4612,307.8282,103.15,317.5894" style="stroke:#181818;stroke-width:1;"/><text fill="#000000" font-family="sans-serif" font-size="13" lengthAdjust="spacing" textLength="116.3208" x="409" y="242.1045">Facture Fournisseur</text></g><!--link Projet to Compta--><g id="link_Projet_Compta"><path d="M542.83,317.4194 C506.37,294.2294 453.64,265.1094 402.5,252.6094 C351.66,240.1794 214.35,231.3194 167,253.6094 C139.1,266.7494 120.5185,289.588 106.6185,312.038 " fill="none" id="Projet-to-Compta" style="stroke:#181818;stroke-width:1;"/><polygon fill="#181818" points="103.46,317.1394,111.5987,311.593,106.0921,312.8883,104.7969,307.3817,103.46,317.1394" style="stroke:#181818;stroke-width:1;"/><text fill="#000000" font-family="sans-serif" font-size="13" lengthAdjust="spacing" textLength="101.8799" x="300.5" y="242.1045">Facturation Client</text></g><!--link RH to PayFit--><g id="link_RH_PayFit"><path d="M1415.64,350.1094 C1485.65,350.1094 1582.52,350.1094 1647.86,350.1094 " fill="none" id="RH-to-PayFit" style="stroke:#181818;stroke-width:1;"/><polygon fill="#181818" points="1653.86,350.1094,1644.86,346.1094,1648.86,350.1094,1644.86,354.1094,1653.86,350.1094" style="stroke:#181818;stroke-width:1;"/><text fill="#000000" font-family="sans-serif" font-size="13" lengthAdjust="spacing" textLength="202.3188" x="1433.75" y="343.6045">Variables Paie (Absences, Heures)</text></g><!--link PayFit to Compta--><g id="link_PayFit_Compta"><path d="M1653.75,322.2694 C1597.41,298.6794 1511.47,266.6794 1433,253.6094 C1334.16,237.1494 267.04,206.8294 167,253.6094 C138.86,266.7694 120.1651,289.9097 106.2851,312.4597 " fill="none" id="PayFit-to-Compta" style="stroke:#181818;stroke-width:1;"/><polygon fill="#181818" points="103.14,317.5694,111.2641,312.0016,105.7609,313.3113,104.4512,307.8082,103.14,317.5694" style="stroke:#181818;stroke-width:1;"/><text fill="#000000" font-family="sans-serif" font-size="13" lengthAdjust="spacing" textLength="128.4194" x="614" y="242.1045">&#195;&#8240;critures Paie (OD)</text></g><!--link Stock to APIs--><g id="link_Stock_APIs"><path d="M732.3374,387.1476 C718.4974,401.9176 711.77,416.1494 717,435.6094 C724.01,461.6794 735.9727,483.0239 749.4027,502.5739 " fill="none" id="Stock-APIs" style="stroke:#181818;stroke-width:1;"/><polygon fill="#181818" points="736.44,382.7694,727.3673,386.6017,733.0212,386.4179,733.205,392.0718,736.44,382.7694" style="stroke:#181818;stroke-width:1;"/><polygon fill="#181818" points="752.8,507.5194,751.001,497.8362,749.9689,503.3981,744.407,502.366,752.8,507.5194" style="stroke:#181818;stroke-width:1;"/><text fill="#000000" font-family="sans-serif" font-size="13" lengthAdjust="spacing" textLength="71.519" x="718" y="432.1045">Prix &amp; Dispo</text></g><!--link APIs to Stock--><g id="link_APIs_Stock"><path d="M786.05,507.4194 C791.93,482.9194 797.84,448.1494 794,417.6094 C792.56,406.1394 791.319,399.616 788.409,388.726 " fill="none" id="APIs-to-Stock" style="stroke:#181818;stroke-width:1;"/><polygon fill="#181818" points="786.86,382.9294,785.319,392.6569,788.1508,387.7599,793.0478,390.5917,786.86,382.9294" style="stroke:#181818;stroke-width:1;"/><text fill="#000000" font-family="sans-serif" font-size="13" lengthAdjust="spacing" textLength="98.979" x="796" y="432.1045">Commandes EDI</text></g><!--link CRM to GMN38--><g id="link_CRM_GMN38"><path d="M314.81,317.5194 C367.56,289.7794 448.62,252.0394 524.5,236.6094 C592.66,222.7494 1710.88,213.5394 1776.5,236.6094 C1819.28,251.6494 1858.71,285.6794 1885.01,312.5794 " fill="none" id="CRM-GMN38" style="stroke:#181818;stroke-width:1;stroke-dasharray:7.0,7.0;"/></g><!--link FSM to GMN41--><g id="link_FSM_GMN41"><path d="M1155.22,317.5494 C1180.52,290.0394 1220.93,252.6294 1265.5,236.6094 C1316.68,218.2094 2193.32,218.2094 2244.5,236.6094 C2286.45,251.6894 2324.71,285.7094 2350.16,312.5994 " fill="none" id="FSM-GMN41" style="stroke:#181818;stroke-width:1;stroke-dasharray:7.0,7.0;"/></g><!--link PayFit to GMN44--><g id="link_PayFit_GMN44"><path d="M1732.45,317.5794 C1748.68,289.6694 1776.43,251.6494 1813.5,236.6094 C1856.54,219.1494 1979.06,220.1694 2022.5,236.6094 C2062.45,251.7294 2097.99,285.5594 2121.51,312.3794 " fill="none" id="PayFit-GMN44" style="stroke:#181818;stroke-width:1;stroke-dasharray:7.0,7.0;"/></g><rect fill="#DDDDDD" height="115.6563" id="_legend" rx="7.5" ry="7.5" style="stroke:#000000;stroke-width:1;" width="437.3418" x="1019.9456" y="606.6094"/><text fill="#000000" font-family="sans-serif" font-size="14" font-weight="bold" lengthAdjust="spacing" textLength="283.3564" x="1024.9456" y="626.1426">ARCHITECTURE UNIFI&#195;&#8240;E (FULL ODOO)</text><text fill="#000000" font-family="sans-serif" font-size="14" lengthAdjust="spacing" textLength="3.8896" x="1024.9456" y="643.752">&#160;</text><text fill="#000000" font-family="sans-serif" font-size="14" lengthAdjust="spacing" textLength="31.2607" x="1024.9456" y="661.3613">&#226;&#339;&#8230;</text><text fill="#000000" font-family="sans-serif" font-size="14" font-weight="bold" lengthAdjust="spacing" textLength="78.7705" x="1060.0959" y="661.3613">Simplicit&#195;&#169;</text><text fill="#000000" font-family="sans-serif" font-size="14" lengthAdjust="spacing" textLength="274.7227" x="1142.7561" y="661.3613">: Une seule interface pour 90% des besoins.</text><text fill="#000000" font-family="sans-serif" font-size="14" lengthAdjust="spacing" textLength="31.2607" x="1024.9456" y="678.9707">&#226;&#339;&#8230;</text><text fill="#000000" font-family="sans-serif" font-size="14" font-weight="bold" lengthAdjust="spacing" textLength="84.998" x="1060.0959" y="678.9707">Coh&#195;&#169;rence</text><text fill="#000000" font-family="sans-serif" font-size="14" lengthAdjust="spacing" textLength="258.542" x="1148.9836" y="678.9707">: Donn&#195;&#169;e unique (Client, Article, Projet).</text><text fill="#000000" font-family="sans-serif" font-size="14" lengthAdjust="spacing" textLength="31.2607" x="1024.9456" y="696.5801">&#226;&#339;&#8230;</text><text fill="#000000" font-family="sans-serif" font-size="14" font-weight="bold" lengthAdjust="spacing" textLength="65.5225" x="1060.0959" y="696.5801">Mobilit&#195;&#169;</text><text fill="#000000" font-family="sans-serif" font-size="14" lengthAdjust="spacing" textLength="206.2334" x="1129.5081" y="696.5801">: App Odoo native pour le terrain.</text><text fill="#000000" font-family="sans-serif" font-size="14" lengthAdjust="spacing" textLength="31.2607" x="1024.9456" y="714.1895">&#226;&#339;&#8230;</text><text fill="#000000" font-family="sans-serif" font-size="14" font-weight="bold" lengthAdjust="spacing" textLength="28.7998" x="1060.0959" y="714.1895">Paie</text><text fill="#000000" font-family="sans-serif" font-size="14" lengthAdjust="spacing" textLength="359.502" x="1092.7854" y="714.1895">: D&#195;&#169;l&#195;&#169;g&#195;&#169;e &#195;&#160; un expert (PayFit) pour la conformit&#195;&#169;.</text><!--SRC=[VLRDRjj64BxpAQOsciY6bJg8azP1KO0Mbp41ML99ocs0NbRKIjw6vhAxIyD1KI1eqBv0JxqLERGeq4EV8KPFVGi_IMTsAOaot5m4aVEpttpppIojjAM0K1SNqeh2Dbf0aiD0pl1j7yQrbQg2n_0SugOiOJnN2dgfADJb9Q_cDs_V_odsWk2ZkLZ8Ia3A1dauUZ5aK9JSc21u20FL51S2fbQMqd0h6cs2cXUl-5B0pZHFXaaMvcoQPX0det3wzGxiicVnapY6xmC0NbYbOIUI6h4Xac-gNiJDnKnnFJTxEy0De6tZUCOhJAmD-dqbPf-SgPaiXVSxMtRySg4rbvJELTJrQqqRtq4fHMKfvKHfowLdmJktjk27JgbXNPUou0ItK-hWvgVRDxzEKuYcaBtCyfkt__vynf3NSJGU0nlbB9saISQe_i_Yf-pOrOyyrwh28s370HsaPuZZ75y80myW4bUofG4ji7jyoDZnuJrn4ws-5Qw6h95N4iB5WYEdRQotVY0ybgASGoRqbIm49admV7s5TghHvuYp3vqV5XVS4kBCgk8LPXYgfJHMVjUqhBlt7qWmm6VBCJ3c95B7Rbkuiwn3kvr8Jo6hIQE5vAW-fzPDHz3w02PXGfJ7SNp4ZkvIFk6lOscfyLmAeZiRjOGv0uL5dnxU1vTTrgLwJGSIvv4oHWgDU7muddmVt4XLbSD8H275z7_fIzsWJaPn6cPvEXtaqvGHg30FIJI8lnsQERTynWqwJvInIosoBuShfKSdxTISmExHusV7xF4zw2DLD9Ujvb-m20RuNwyPz0de_Uwpe-EdBDhECC0gS5Xfq26S99GZ5TUYF80CFMgkVJoPrWIsB63WjPiQd6dezxyWKQ__Uv5kJAxjGO1ZlNPT_MzTLu_fQH2qK-sUKQfRpqvxGT3EyYeRZkPgths5CCPbSmrE_HLsYSWAo7Lz9WQzu4lNHNevKisLuCqAKElZ8Q0hBe7txwZp-AOxKW6PLy3G3vanj73TBZxZJXWQHpBm3cisQ4jplyDZrUXA6eDjw1nxnyqdl5CTieNwf8gyo9_3ETUIutr0kiSvw8Kp8wf2c0CunVIuH8BMjNl2pTlRDtyNMXAQLU0usbiVmwuzYMqDdnFhJXD8kvRN96nfQXMuT_qjCjpLWqbPb0H1fQm0BPSN5jJ2gG1WVzyjLUhC0pYdtPhjx-FxctUtF_xr_Xskimee0Or7NzgEnIrK41KyERn4frukS93nri8QDqwPN5RSiKoDA57iMbMqoW9HpO40tOL5Ybl3YXCsZ21ZwNaoO5kuyEPeho8OOM-kYBB5eiIRjNjyokiQXMbW_b1sHNCVmCBr5aoZ7TP2y-f_GVecEfoJy6MCNm6z4vRb_N7SFqaPY_QsiBBhMcZh6njZMap_1vT6TCdCHX0sLf5ms-MxCPxWvuImiZ9W97ACGjZWAiMI7cRAOh035AQ3qoHdVkTDHqcSE7qnwCNJuT3TeGJFvV_dbzitlsDCHdbb8TsuxE-ZTARuYO8JWVGwuXQy453ZeC3nuSTE43DX549wj9Lde2xSm97cNPhrdeR6jHrwVeGEy3FAog8K1-t0xsqdSgtjmA5sktrR-MOxA0ZE-jsq7Kn4-zETwDpTu47Wxs-818JlIC_tSQzDnt4tLmkbB_t1ZnpDdk3WFm00]--></g></svg>