<svg xmlns="http://www.w3.org/2000/svg" xmlns:xlink="http://www.w3.org/1999/xlink" contentStyleType="text/css" height="2568px" preserveAspectRatio="none" style="width:2323px;height:2568px;background:#FFFFFF;" version="1.1" viewBox="0 0 2323 2568" width="2323px" zoomAndPan="magnify"><title>Flux de Transformation Digitale - De l'Audit &#195;&#160; l'Ex&#195;&#169;cution</title><defs/><g><text fill="#000000" font-family="sans-serif" font-size="14" font-weight="bold" lengthAdjust="spacing" textLength="395.7803" x="962.493" y="34.5332">Flux de Transformation Digitale - De l'Audit &#195;&#160; l'Ex&#195;&#169;cution</text><rect fill="none" height="22.6406" style="stroke:none;stroke-width:1;" width="2290.7662" x="15" y="51.0645"/><ellipse cx="114.9766" cy="88.7051" fill="#222222" rx="10" ry="10" style="stroke:#222222;stroke-width:1;"/><rect fill="#F1F1F1" height="65.2813" rx="12.5" ry="12.5" style="stroke:#181818;stroke-width:0.5;" width="186.4238" x="21.7646" y="118.7051"/><text fill="#000000" font-family="sans-serif" font-size="12" lengthAdjust="spacing" textLength="28.6348" x="31.7646" y="141.1621">&#240;&#376;&#381;&#175;</text><text fill="#000000" font-family="sans-serif" font-size="12" font-weight="bold" lengthAdjust="spacing" textLength="123.1172" x="63.7334" y="141.1621">AUDIT R&#195;&#8240;ALIS&#195;&#8240;</text><text fill="#000000" font-family="sans-serif" font-size="12" lengthAdjust="spacing" textLength="85.3828" x="31.7646" y="156.2559">Novembre 2025</text><text fill="#000000" font-family="sans-serif" font-size="12" lengthAdjust="spacing" textLength="166.4238" x="31.7646" y="171.3496">8 services, ~100 collaborateurs</text><path d="M228.9531,246.0918 L228.9531,255.2676 L208.9531,259.2676 L228.9531,263.2676 L228.9531,272.4434 A0,0 0 0 0 228.9531,272.4434 L413.6338,272.4434 A0,0 0 0 0 413.6338,272.4434 L413.6338,256.0918 L403.6338,246.0918 L228.9531,246.0918 A0,0 0 0 0 228.9531,246.0918 " fill="#FEFFDD" style="stroke:#181818;stroke-width:0.5;"/><path d="M403.6338,246.0918 L403.6338,256.0918 L413.6338,256.0918 L403.6338,246.0918 " fill="#FEFFDD" style="stroke:#181818;stroke-width:0.5;"/><text fill="#000000" font-family="sans-serif" font-size="13" lengthAdjust="spacing" textLength="163.6807" x="234.9531" y="264.5869">Synth&#195;&#168;se globale cr&#195;&#169;&#195;&#169;e</text><rect fill="#F1F1F1" height="110.5625" rx="12.5" ry="12.5" style="stroke:#181818;stroke-width:0.5;" width="187.9531" x="21" y="203.9863"/><text fill="#000000" font-family="sans-serif" font-size="12" lengthAdjust="spacing" textLength="26.6777" x="31" y="226.4434">&#240;&#376;&#8220;&#352;</text><text fill="#000000" font-family="sans-serif" font-size="12" font-weight="bold" lengthAdjust="spacing" textLength="51.3398" x="61.0117" y="226.4434">Constats</text><text fill="#000000" font-family="sans-serif" font-size="12" lengthAdjust="spacing" textLength="167.9531" x="31" y="241.5371">&#226;&#8364;&#162; 60+ Excel non connect&#195;&#169;s</text><text fill="#000000" font-family="sans-serif" font-size="12" lengthAdjust="spacing" textLength="162.0938" x="31" y="256.6309">&#226;&#8364;&#162; Processus 100% manuels</text><text fill="#000000" font-family="sans-serif" font-size="12" lengthAdjust="spacing" textLength="141.3926" x="31" y="271.7246">&#226;&#8364;&#162; Syst&#195;&#168;mes obsol&#195;&#168;tes</text><text fill="#000000" font-family="sans-serif" font-size="12" lengthAdjust="spacing" textLength="142.2539" x="31" y="286.8184">&#226;&#8364;&#162; Tra&#195;&#167;abilit&#195;&#169; 20-50%</text><text fill="#000000" font-family="sans-serif" font-size="12" lengthAdjust="spacing" textLength="124.0664" x="31" y="301.9121">&#226;&#8364;&#162; Pertes importantes</text><line style="stroke:#000000;stroke-width:1.5;" x1="15" x2="15" y1="51.0645" y2="2556.4707"/><rect fill="#F1F1F1" height="50.1875" rx="12.5" ry="12.5" style="stroke:#181818;stroke-width:0.5;" width="172.2383" x="1005.5066" y="334.5488"/><text fill="#000000" font-family="sans-serif" font-size="12" lengthAdjust="spacing" textLength="22.4648" x="1015.5066" y="357.0059">&#240;&#376;&#8220;&#8249;</text><text fill="#000000" font-family="sans-serif" font-size="12" font-weight="bold" lengthAdjust="spacing" textLength="125.5195" x="1041.3055" y="357.0059">Pr&#195;&#169;sentation CODIR</text><text fill="#000000" font-family="sans-serif" font-size="12" lengthAdjust="spacing" textLength="152.2383" x="1015.5066" y="372.0996">Synth&#195;&#168;se ex&#195;&#169;cutive 5 min</text><polygon fill="#F1F1F1" points="1023.4612,404.7363,1159.7903,404.7363,1171.7903,416.7363,1159.7903,428.7363,1023.4612,428.7363,1011.4612,416.7363,1023.4612,404.7363" style="stroke:#181818;stroke-width:0.5;"/><text fill="#000000" font-family="sans-serif" font-size="11" lengthAdjust="spacing" textLength="136.3291" x="1023.4612" y="421.2373">Go/No-Go Transformation ?</text><text fill="#000000" font-family="sans-serif" font-size="11" lengthAdjust="spacing" textLength="44.7305" x="966.7307" y="414.3193">&#226;&#339;&#8230; GO</text><text fill="#000000" font-family="sans-serif" font-size="11" lengthAdjust="spacing" textLength="65.6992" x="1171.7903" y="414.3193">&#226;&#65533;&#338; NO-GO</text><rect fill="#F1F1F1" height="50.1875" rx="12.5" ry="12.5" style="stroke:#181818;stroke-width:0.5;" width="147.4766" x="850.7403" y="448.7363"/><text fill="#000000" font-family="sans-serif" font-size="12" lengthAdjust="spacing" textLength="22.1426" x="860.7403" y="471.1934">&#240;&#376;&#8217;&#176;</text><text fill="#000000" font-family="sans-serif" font-size="12" font-weight="bold" lengthAdjust="spacing" textLength="102" x="886.2169" y="471.1934">Validation Budget</text><text fill="#000000" font-family="sans-serif" font-size="12" lengthAdjust="spacing" textLength="126.0938" x="860.7403" y="486.2871">&#195;&#8240;tude de faisabilit&#195;&#169;</text><polygon fill="#F1F1F1" points="872.8087,895.3301,976.1485,895.3301,988.1485,907.3301,976.1485,919.3301,872.8087,919.3301,860.8087,907.3301,872.8087,895.3301" style="stroke:#181818;stroke-width:0.5;"/><text fill="#000000" font-family="sans-serif" font-size="11" lengthAdjust="spacing" textLength="103.3398" x="872.8087" y="911.8311">Go/No-Go Vague 1 ?</text><text fill="#000000" font-family="sans-serif" font-size="11" lengthAdjust="spacing" textLength="44.7305" x="816.0782" y="904.9131">&#226;&#339;&#8230; GO</text><text fill="#000000" font-family="sans-serif" font-size="11" lengthAdjust="spacing" textLength="58.373" x="988.1485" y="904.9131">&#226;&#65533;&#338; STOP</text><rect fill="#F1F1F1" height="80.375" rx="12.5" ry="12.5" style="stroke:#181818;stroke-width:0.5;" width="182.0762" x="679.7662" y="1345.1582"/><text fill="#000000" font-family="sans-serif" font-size="12" lengthAdjust="spacing" textLength="28.6348" x="689.7662" y="1367.6152">&#240;&#376;&#381;&#175;</text><text fill="#000000" font-family="sans-serif" font-size="12" font-weight="bold" lengthAdjust="spacing" textLength="78.6914" x="721.735" y="1367.6152">Bilan Vague 1</text><text fill="#000000" font-family="sans-serif" font-size="12" lengthAdjust="spacing" textLength="24.6621" x="803.7604" y="1367.6152">(M6)</text><text fill="#000000" font-family="sans-serif" font-size="12" lengthAdjust="spacing" textLength="114.2227" x="689.7662" y="1382.709">&#226;&#8364;&#162; Gains mesur&#195;&#169;s</text><text fill="#000000" font-family="sans-serif" font-size="12" lengthAdjust="spacing" textLength="146.0801" x="689.7662" y="1397.8027">&#226;&#8364;&#162; Satisfaction utilisateurs</text><text fill="#000000" font-family="sans-serif" font-size="12" lengthAdjust="spacing" textLength="162.0762" x="689.7662" y="1412.8965">&#226;&#8364;&#162; Retour sur investissement</text><polygon fill="#F1F1F1" points="719.1344,1445.5332,822.4742,1445.5332,834.4742,1457.5332,822.4742,1469.5332,719.1344,1469.5332,707.1344,1457.5332,719.1344,1445.5332" style="stroke:#181818;stroke-width:0.5;"/><text fill="#000000" font-family="sans-serif" font-size="11" lengthAdjust="spacing" textLength="103.3398" x="719.1344" y="1462.0342">Go/No-Go Vague 2 ?</text><text fill="#000000" font-family="sans-serif" font-size="11" lengthAdjust="spacing" textLength="44.7305" x="662.4039" y="1455.1162">&#226;&#339;&#8230; GO</text><text fill="#000000" font-family="sans-serif" font-size="11" lengthAdjust="spacing" textLength="58.373" x="834.4742" y="1455.1162">&#226;&#65533;&#338; STOP</text><rect fill="#F1F1F1" height="80.375" rx="12.5" ry="12.5" style="stroke:#181818;stroke-width:0.5;" width="186.623" x="538.5535" y="1850.0801"/><text fill="#000000" font-family="sans-serif" font-size="12" lengthAdjust="spacing" textLength="28.6348" x="548.5535" y="1872.5371">&#240;&#376;&#381;&#175;</text><text fill="#000000" font-family="sans-serif" font-size="12" font-weight="bold" lengthAdjust="spacing" textLength="78.6914" x="580.5222" y="1872.5371">Bilan Vague 2</text><text fill="#000000" font-family="sans-serif" font-size="12" lengthAdjust="spacing" textLength="31.3359" x="662.5476" y="1872.5371">(M18)</text><text fill="#000000" font-family="sans-serif" font-size="12" lengthAdjust="spacing" textLength="112.8926" x="548.5535" y="1887.6309">&#226;&#8364;&#162; Gains cumul&#195;&#169;s</text><text fill="#000000" font-family="sans-serif" font-size="12" lengthAdjust="spacing" textLength="166.0723" x="548.5535" y="1902.7246">&#226;&#8364;&#162; Transformation structurelle</text><text fill="#000000" font-family="sans-serif" font-size="12" lengthAdjust="spacing" textLength="166.623" x="548.5535" y="1917.8184">&#226;&#8364;&#162; Adoption g&#195;&#169;n&#195;&#169;ralis&#195;&#169;e</text><polygon fill="#F1F1F1" points="580.1951,1950.4551,683.5349,1950.4551,695.5349,1962.4551,683.5349,1974.4551,580.1951,1974.4551,568.1951,1962.4551,580.1951,1950.4551" style="stroke:#181818;stroke-width:0.5;"/><text fill="#000000" font-family="sans-serif" font-size="11" lengthAdjust="spacing" textLength="103.3398" x="580.1951" y="1966.9561">Go/No-Go Vague 3 ?</text><text fill="#000000" font-family="sans-serif" font-size="11" lengthAdjust="spacing" textLength="44.7305" x="523.4646" y="1960.0381">&#226;&#339;&#8230; GO</text><text fill="#000000" font-family="sans-serif" font-size="11" lengthAdjust="spacing" textLength="58.373" x="695.5349" y="1960.0381">&#226;&#65533;&#338; STOP</text><rect fill="#F1F1F1" height="80.375" rx="12.5" ry="12.5" style="stroke:#181818;stroke-width:0.5;" width="190.2852" x="424.6338" y="2299.9082"/><text fill="#000000" font-family="sans-serif" font-size="12" lengthAdjust="spacing" textLength="28.6348" x="434.6338" y="2322.3652">&#240;&#376;&#381;&#175;</text><text fill="#000000" font-family="sans-serif" font-size="12" font-weight="bold" lengthAdjust="spacing" textLength="60.6738" x="466.6025" y="2322.3652">Bilan Final</text><text fill="#000000" font-family="sans-serif" font-size="12" lengthAdjust="spacing" textLength="31.3359" x="530.6104" y="2322.3652">(M24)</text><text fill="#000000" font-family="sans-serif" font-size="12" lengthAdjust="spacing" textLength="161.4023" x="434.6338" y="2337.459">&#226;&#8364;&#162; Transformation compl&#195;&#168;te</text><text fill="#000000" font-family="sans-serif" font-size="12" lengthAdjust="spacing" textLength="133.5703" x="434.6338" y="2352.5527">&#226;&#8364;&#162; ROI global mesur&#195;&#169;</text><text fill="#000000" font-family="sans-serif" font-size="12" lengthAdjust="spacing" textLength="170.2852" x="434.6338" y="2367.6465">&#226;&#8364;&#162; Excellence op&#195;&#169;rationnelle</text><rect fill="#F1F1F1" height="50.1875" rx="12.5" ry="12.5" style="stroke:#181818;stroke-width:0.5;" width="173.5156" x="433.0186" y="2400.2832"/><text fill="#000000" font-family="sans-serif" font-size="12" lengthAdjust="spacing" textLength="153.5156" x="443.0186" y="2422.7402">&#240;&#376;&#65533;&#8224; **TRANSFORMATION</text><text fill="#000000" font-family="sans-serif" font-size="12" lengthAdjust="spacing" textLength="76.541" x="443.0186" y="2437.834">R&#195;&#8240;USSIE**</text><ellipse cx="519.7764" cy="2481.4707" fill="none" rx="11" ry="11" style="stroke:#222222;stroke-width:1;"/><ellipse cx="519.7764" cy="2481.4707" fill="#222222" rx="6" ry="6" style="stroke:#222222;stroke-width:1;"/><rect fill="#F1F1F1" height="50.1875" rx="12.5" ry="12.5" style="stroke:#181818;stroke-width:0.5;" width="130.8242" x="678.5415" y="1994.4551"/><text fill="#000000" font-family="sans-serif" font-size="12" lengthAdjust="spacing" textLength="110.8242" x="688.5415" y="2016.9121">&#226;&#65533;&#338; Arr&#195;&#170;t Vague 3</text><text fill="#000000" font-family="sans-serif" font-size="12" lengthAdjust="spacing" textLength="110.7363" x="688.5415" y="2032.0059">Consolidation acquis</text><ellipse cx="743.9536" cy="2090.6426" fill="none" rx="11" ry="11" style="stroke:#222222;stroke-width:1;"/><ellipse cx="743.9536" cy="2090.6426" fill="#222222" rx="6" ry="6" style="stroke:#222222;stroke-width:1;"/><rect fill="#F1F1F1" height="50.1875" rx="12.5" ry="12.5" style="stroke:#181818;stroke-width:0.5;" width="140.7559" x="839.3657" y="1489.5332"/><text fill="#000000" font-family="sans-serif" font-size="12" lengthAdjust="spacing" textLength="110.8242" x="849.3657" y="1511.9902">&#226;&#65533;&#338; Arr&#195;&#170;t Vague 2</text><text fill="#000000" font-family="sans-serif" font-size="12" lengthAdjust="spacing" textLength="120.7559" x="849.3657" y="1527.084">Consolidation Vague 1</text><ellipse cx="909.7437" cy="1585.7207" fill="none" rx="11" ry="11" style="stroke:#222222;stroke-width:1;"/><ellipse cx="909.7437" cy="1585.7207" fill="#222222" rx="6" ry="6" style="stroke:#222222;stroke-width:1;"/><rect fill="#F1F1F1" height="50.1875" rx="12.5" ry="12.5" style="stroke:#181818;stroke-width:0.5;" width="136.0625" x="1010.1216" y="939.3301"/><text fill="#000000" font-family="sans-serif" font-size="12" lengthAdjust="spacing" textLength="97.4648" x="1020.1216" y="961.7871">&#226;&#65533;&#338; Arr&#195;&#170;t Projet</text><text fill="#000000" font-family="sans-serif" font-size="12" lengthAdjust="spacing" textLength="116.0625" x="1020.1216" y="976.8809">POCs non concluants</text><ellipse cx="1078.1528" cy="1035.5176" fill="none" rx="11" ry="11" style="stroke:#222222;stroke-width:1;"/><ellipse cx="1078.1528" cy="1035.5176" fill="#222222" rx="6" ry="6" style="stroke:#222222;stroke-width:1;"/><path d="M1361.3618,448.7363 L1361.3618,506.9668 L1341.3618,510.9668 L1361.3618,514.9668 L1361.3618,573.1973 A0,0 0 0 0 1361.3618,573.1973 L1585.0615,573.1973 A0,0 0 0 0 1585.0615,573.1973 L1585.0615,458.7363 L1575.0615,448.7363 L1361.3618,448.7363 A0,0 0 0 0 1361.3618,448.7363 " fill="#FFCCCC" style="stroke:#181818;stroke-width:0.5;"/><path d="M1575.0615,448.7363 L1575.0615,458.7363 L1585.0615,458.7363 L1575.0615,448.7363 " fill="#FFCCCC" style="stroke:#181818;stroke-width:0.5;"/><text fill="#000000" font-family="sans-serif" font-size="13" font-weight="bold" lengthAdjust="spacing" textLength="147.5322" x="1367.3618" y="467.2314">Cons&#195;&#169;quences No-Go</text><text fill="#000000" font-family="sans-serif" font-size="13" lengthAdjust="spacing" textLength="3.6118" x="1514.894" y="467.2314">:</text><text fill="#000000" font-family="sans-serif" font-size="13" lengthAdjust="spacing" textLength="181.397" x="1367.3618" y="483.583">&#226;&#8364;&#162; Pertes actuelles continuent</text><text fill="#000000" font-family="sans-serif" font-size="13" lengthAdjust="spacing" textLength="191.5024" x="1367.3618" y="499.9346">&#226;&#8364;&#162; Aggravation avec croissance</text><text fill="#000000" font-family="sans-serif" font-size="13" lengthAdjust="spacing" textLength="202.6997" x="1367.3618" y="516.2861">&#226;&#8364;&#162; D&#195;&#169;parts &#195;&#169;quipes (burn-out)</text><text fill="#000000" font-family="sans-serif" font-size="13" lengthAdjust="spacing" textLength="145.9707" x="1367.3618" y="532.6377">&#226;&#8364;&#162; Turnover techniciens</text><text fill="#000000" font-family="sans-serif" font-size="13" lengthAdjust="spacing" textLength="142.3589" x="1367.3618" y="548.9893">&#226;&#8364;&#162; Retard concurrentiel</text><text fill="#000000" font-family="sans-serif" font-size="13" lengthAdjust="spacing" textLength="151.2266" x="1367.3618" y="565.3408">&#226;&#8364;&#162; Croissance bloqu&#195;&#169;e</text><rect fill="#F1F1F1" height="50.1875" rx="12.5" ry="12.5" style="stroke:#181818;stroke-width:0.5;" width="165.1777" x="1176.1841" y="485.873"/><text fill="#000000" font-family="sans-serif" font-size="12" lengthAdjust="spacing" textLength="27.6738" x="1186.1841" y="508.3301">&#226;&#65533;&#338;</text><text fill="#000000" font-family="sans-serif" font-size="12" font-weight="bold" lengthAdjust="spacing" textLength="114.1699" x="1217.1919" y="508.3301">Projet Abandonn&#195;&#169;</text><text fill="#000000" font-family="sans-serif" font-size="12" lengthAdjust="spacing" textLength="104.0625" x="1186.1841" y="523.4238">Maintien status quo</text><ellipse cx="1258.7729" cy="619.1973" fill="none" rx="11" ry="11" style="stroke:#222222;stroke-width:1;"/><ellipse cx="1258.7729" cy="619.1973" fill="#222222" rx="6" ry="6" style="stroke:#222222;stroke-width:1;"/><line style="stroke:#000000;stroke-width:1.5;" x1="418.6338" x2="418.6338" y1="51.0645" y2="2556.4707"/><rect fill="#F1F1F1" height="80.375" rx="12.5" ry="12.5" style="stroke:#181818;stroke-width:0.5;" width="176.8906" x="1596.0615" y="533.9238"/><text fill="#000000" font-family="sans-serif" font-size="12" lengthAdjust="spacing" textLength="24.0176" x="1606.0615" y="556.3809">&#240;&#376;&#8216;&#165;</text><text fill="#000000" font-family="sans-serif" font-size="12" font-weight="bold" lengthAdjust="spacing" textLength="129.5391" x="1633.4131" y="556.3809">Constitution &#195;&#8240;quipe</text><text fill="#000000" font-family="sans-serif" font-size="12" lengthAdjust="spacing" textLength="122.9121" x="1606.0615" y="571.4746">&#226;&#8364;&#162; Sponsor ex&#195;&#169;cutif</text><text fill="#000000" font-family="sans-serif" font-size="12" lengthAdjust="spacing" textLength="82.0547" x="1606.0615" y="586.5684">&#226;&#8364;&#162; Chef projet</text><text fill="#000000" font-family="sans-serif" font-size="12" lengthAdjust="spacing" textLength="130.8984" x="1606.0615" y="601.6621">&#226;&#8364;&#162; Champions m&#195;&#169;tier</text><rect fill="#F1F1F1" height="110.5625" rx="12.5" ry="12.5" style="stroke:#181818;stroke-width:0.5;" width="172.7539" x="1598.1299" y="649.2988"/><text fill="#000000" font-family="sans-serif" font-size="12" lengthAdjust="spacing" textLength="27.6738" x="1608.1299" y="671.7559">&#240;&#376;&#8221;&#65533;</text><text fill="#000000" font-family="sans-serif" font-size="12" font-weight="bold" lengthAdjust="spacing" textLength="121.7461" x="1639.1377" y="671.7559">&#195;&#8240;tude Faisabilit&#195;&#169;</text><text fill="#000000" font-family="sans-serif" font-size="12" lengthAdjust="spacing" textLength="76.0313" x="1608.1299" y="686.8496">(Semaine 3-4)</text><text fill="#000000" font-family="sans-serif" font-size="12" lengthAdjust="spacing" textLength="117.5625" x="1608.1299" y="701.9434">&#226;&#8364;&#162; Chiffrage pr&#195;&#169;cis</text><text fill="#000000" font-family="sans-serif" font-size="12" lengthAdjust="spacing" textLength="111.4043" x="1608.1299" y="717.0371">&#226;&#8364;&#162; Mesure baseline</text><text fill="#000000" font-family="sans-serif" font-size="12" lengthAdjust="spacing" textLength="95.5488" x="1608.1299" y="732.1309">&#226;&#8364;&#162; ROI calcul&#195;&#169;</text><text fill="#000000" font-family="sans-serif" font-size="12" lengthAdjust="spacing" textLength="110.7305" x="1608.1299" y="747.2246">&#226;&#8364;&#162; Cahiers charges</text><rect fill="#F1F1F1" height="95.4688" rx="12.5" ry="12.5" style="stroke:#181818;stroke-width:0.5;" width="170.75" x="1599.1318" y="779.8613"/><text fill="#000000" font-family="sans-serif" font-size="12" lengthAdjust="spacing" textLength="25.793" x="1609.1318" y="802.3184">&#240;&#376;&#167;&#170;</text><text fill="#000000" font-family="sans-serif" font-size="12" font-weight="bold" lengthAdjust="spacing" textLength="86.7012" x="1638.2588" y="802.3184">POCs 3 Projets</text><text fill="#000000" font-family="sans-serif" font-size="12" lengthAdjust="spacing" textLength="43.3359" x="1609.1318" y="817.4121">(Mois 2)</text><text fill="#000000" font-family="sans-serif" font-size="12" lengthAdjust="spacing" textLength="136.0488" x="1609.1318" y="832.5059">&#226;&#8364;&#162; SIRH (Lucca, PayFit)</text><text fill="#000000" font-family="sans-serif" font-size="12" lengthAdjust="spacing" textLength="145.3945" x="1609.1318" y="847.5996">&#226;&#8364;&#162; CRM (HubSpot gratuit)</text><text fill="#000000" font-family="sans-serif" font-size="12" lengthAdjust="spacing" textLength="150.75" x="1609.1318" y="862.6934">&#226;&#8364;&#162; App Mobile (maquettes)</text><line style="stroke:#000000;stroke-width:1.5;" x1="1590.0615" x2="1590.0615" y1="51.0645" y2="2556.4707"/><rect fill="none" height="385.8281" style="stroke:#000000;stroke-width:1.5;" width="260.041" x="2040.2247" y="939.3301"/><path d="M2295.2657,939.3301 L2295.2657,949.9395 L2285.2657,959.9395 L2040.2247,959.9395 " fill="none" style="stroke:#000000;stroke-width:1.5;"/><text fill="#000000" font-family="sans-serif" font-size="14" lengthAdjust="spacing" textLength="245.041" x="2043.2247" y="954.8633">&#240;&#376;&#338;&#352; VAGUE 1 - Quick Wins (M3-M6)</text><rect fill="#F1F1F1" height="125.6563" rx="12.5" ry="12.5" style="stroke:#181818;stroke-width:0.5;" width="176.0703" x="2084.7101" y="976.9395"/><text fill="#000000" font-family="sans-serif" font-size="12" lengthAdjust="spacing" textLength="27.3516" x="2094.7101" y="999.3965">&#240;&#376;&#353;&#8364;</text><text fill="#000000" font-family="sans-serif" font-size="12" font-weight="bold" lengthAdjust="spacing" textLength="117.3867" x="2125.3956" y="999.3965">6 Projets Prioritaires</text><text fill="#000000" font-family="sans-serif" font-size="12" lengthAdjust="spacing" textLength="86.7129" x="2094.7101" y="1014.4902">&#226;&#8364;&#162; SIRH Cloud</text><text fill="#000000" font-family="sans-serif" font-size="12" lengthAdjust="spacing" textLength="102.0352" x="2094.7101" y="1029.584">&#226;&#8364;&#162; CRM/Ticketing</text><text fill="#000000" font-family="sans-serif" font-size="12" lengthAdjust="spacing" textLength="102.7324" x="2094.7101" y="1044.6777">&#226;&#8364;&#162; Dashboards BI</text><text fill="#000000" font-family="sans-serif" font-size="12" lengthAdjust="spacing" textLength="156.0703" x="2094.7101" y="1059.7715">&#226;&#8364;&#162; Templates Devis/PPSPS</text><text fill="#000000" font-family="sans-serif" font-size="12" lengthAdjust="spacing" textLength="138.082" x="2094.7101" y="1074.8652">&#226;&#8364;&#162; App Mobile Chantiers</text><text fill="#000000" font-family="sans-serif" font-size="12" lengthAdjust="spacing" textLength="90.6973" x="2094.7101" y="1089.959">&#226;&#8364;&#162; RFID Stocks</text><rect fill="#F1F1F1" height="50.1875" rx="12.5" ry="12.5" style="stroke:#181818;stroke-width:0.5;" width="178.9121" x="2083.2892" y="1122.5957"/><text fill="#000000" font-family="sans-serif" font-size="12" lengthAdjust="spacing" textLength="24.6738" x="2093.2892" y="1145.0527">&#240;&#376;&#8220;&#353;</text><text fill="#000000" font-family="sans-serif" font-size="12" font-weight="bold" lengthAdjust="spacing" textLength="130.9043" x="2121.297" y="1145.0527">Formations &#195;&#8240;quipes</text><text fill="#000000" font-family="sans-serif" font-size="12" lengthAdjust="spacing" textLength="120.7383" x="2093.2892" y="1160.1465">2-3 jours par personne</text><rect fill="#F1F1F1" height="50.1875" rx="12.5" ry="12.5" style="stroke:#181818;stroke-width:0.5;" width="157.4902" x="2094.0001" y="1192.7832"/><text fill="#000000" font-family="sans-serif" font-size="12" lengthAdjust="spacing" textLength="26.7949" x="2104.0001" y="1215.2402">&#226;&#339;&#8230;</text><text fill="#000000" font-family="sans-serif" font-size="12" font-weight="bold" lengthAdjust="spacing" textLength="107.3613" x="2134.129" y="1215.2402">Go-Live Progressif</text><text fill="#000000" font-family="sans-serif" font-size="12" lengthAdjust="spacing" textLength="102.0352" x="2104.0001" y="1230.334">Service par service</text><rect fill="#F1F1F1" height="50.1875" rx="12.5" ry="12.5" style="stroke:#181818;stroke-width:0.5;" width="174.8984" x="2085.296" y="1262.9707"/><text fill="#000000" font-family="sans-serif" font-size="12" lengthAdjust="spacing" textLength="26.6777" x="2095.296" y="1285.4277">&#240;&#376;&#8220;&#352;</text><text fill="#000000" font-family="sans-serif" font-size="12" font-weight="bold" lengthAdjust="spacing" textLength="124.8867" x="2125.3077" y="1285.4277">Mesure Gains R&#195;&#169;els</text><text fill="#000000" font-family="sans-serif" font-size="12" lengthAdjust="spacing" textLength="92.707" x="2095.296" y="1300.5215">Before/After KPIs</text><rect fill="none" height="340.5469" style="stroke:#000000;stroke-width:1.5;" width="277.5166" x="1895.0476" y="1489.5332"/><path d="M2162.5642,1489.5332 L2162.5642,1500.1426 L2152.5642,1510.1426 L1895.0476,1510.1426 " fill="none" style="stroke:#000000;stroke-width:1.5;"/><text fill="#000000" font-family="sans-serif" font-size="14" lengthAdjust="spacing" textLength="257.5166" x="1898.0476" y="1505.0664">&#240;&#376;&#338;&#352; VAGUE 2 - Structurants (M7-M18)</text><rect fill="#F1F1F1" height="125.6563" rx="12.5" ry="12.5" style="stroke:#181818;stroke-width:0.5;" width="185.4102" x="1941.1008" y="1527.1426"/><text fill="#000000" font-family="sans-serif" font-size="12" lengthAdjust="spacing" textLength="27.3516" x="1951.1008" y="1549.5996">&#240;&#376;&#353;&#8364;</text><text fill="#000000" font-family="sans-serif" font-size="12" font-weight="bold" lengthAdjust="spacing" textLength="99.375" x="1981.7864" y="1549.5996">6 Projets Majeurs</text><text fill="#000000" font-family="sans-serif" font-size="12" lengthAdjust="spacing" textLength="133.4063" x="1951.1008" y="1564.6934">&#226;&#8364;&#162; Migration ERP Odoo</text><text fill="#000000" font-family="sans-serif" font-size="12" lengthAdjust="spacing" textLength="130.084" x="1951.1008" y="1579.7871">&#226;&#8364;&#162; Automatisation Paie</text><text fill="#000000" font-family="sans-serif" font-size="12" lengthAdjust="spacing" textLength="165.4102" x="1951.1008" y="1594.8809">&#226;&#8364;&#162; Plateforme E-Procurement</text><text fill="#000000" font-family="sans-serif" font-size="12" lengthAdjust="spacing" textLength="136.043" x="1951.1008" y="1609.9746">&#226;&#8364;&#162; Syst&#195;&#168;me Tickets BE</text><text fill="#000000" font-family="sans-serif" font-size="12" lengthAdjust="spacing" textLength="103.3828" x="1951.1008" y="1625.0684">&#226;&#8364;&#162; Portails Clients</text><text fill="#000000" font-family="sans-serif" font-size="12" lengthAdjust="spacing" textLength="121.3887" x="1951.1008" y="1640.1621">&#226;&#8364;&#162; APIs Fournisseurs</text><rect fill="#F1F1F1" height="35.0938" rx="12.5" ry="12.5" style="stroke:#181818;stroke-width:0.5;" width="183.5527" x="1942.0295" y="1672.7988"/><text fill="#000000" font-family="sans-serif" font-size="12" lengthAdjust="spacing" textLength="24.6738" x="1952.0295" y="1695.2559">&#240;&#376;&#8220;&#353;</text><text fill="#000000" font-family="sans-serif" font-size="12" font-weight="bold" lengthAdjust="spacing" textLength="135.5449" x="1980.0374" y="1695.2559">Formations Avanc&#195;&#169;es</text><rect fill="#F1F1F1" height="35.0938" rx="12.5" ry="12.5" style="stroke:#181818;stroke-width:0.5;" width="202.666" x="1932.4729" y="1727.8926"/><text fill="#000000" font-family="sans-serif" font-size="12" lengthAdjust="spacing" textLength="26.7949" x="1942.4729" y="1750.3496">&#226;&#339;&#8230;</text><text fill="#000000" font-family="sans-serif" font-size="12" font-weight="bold" lengthAdjust="spacing" textLength="152.5371" x="1972.6018" y="1750.3496">D&#195;&#169;ploiement G&#195;&#169;n&#195;&#169;ral</text><rect fill="#F1F1F1" height="35.0938" rx="12.5" ry="12.5" style="stroke:#181818;stroke-width:0.5;" width="193.5547" x="1937.0286" y="1782.9863"/><text fill="#000000" font-family="sans-serif" font-size="12" lengthAdjust="spacing" textLength="26.6777" x="1947.0286" y="1805.4434">&#240;&#376;&#8220;&#352;</text><text fill="#000000" font-family="sans-serif" font-size="12" font-weight="bold" lengthAdjust="spacing" textLength="143.543" x="1977.0403" y="1805.4434">Mesure Gains Cumul&#195;&#169;s</text><rect fill="none" height="285.4531" style="stroke:#000000;stroke-width:1.5;" width="277.5303" x="1782.9521" y="1994.4551"/><path d="M2050.4824,1994.4551 L2050.4824,2005.0645 L2040.4824,2015.0645 L1782.9521,2015.0645 " fill="none" style="stroke:#000000;stroke-width:1.5;"/><text fill="#000000" font-family="sans-serif" font-size="14" lengthAdjust="spacing" textLength="257.5303" x="1785.9521" y="2009.9883">&#240;&#376;&#338;&#352; VAGUE 3 - Excellence (M19-M24)</text><rect fill="#F1F1F1" height="125.6563" rx="12.5" ry="12.5" style="stroke:#181818;stroke-width:0.5;" width="188.0762" x="1827.6792" y="2032.0645"/><text fill="#000000" font-family="sans-serif" font-size="12" lengthAdjust="spacing" textLength="27.3516" x="1837.6792" y="2054.5215">&#240;&#376;&#353;&#8364;</text><text fill="#000000" font-family="sans-serif" font-size="12" font-weight="bold" lengthAdjust="spacing" textLength="114.2227" x="1868.3647" y="2054.5215">6 Projets Avanc&#195;&#169;s</text><text fill="#000000" font-family="sans-serif" font-size="12" lengthAdjust="spacing" textLength="160.2598" x="1837.6792" y="2069.6152">&#226;&#8364;&#162; ML Pr&#195;&#169;dictions Budgets</text><text fill="#000000" font-family="sans-serif" font-size="12" lengthAdjust="spacing" textLength="168.0762" x="1837.6792" y="2084.709">&#226;&#8364;&#162; ML Optimisation Chiffrages</text><text fill="#000000" font-family="sans-serif" font-size="12" lengthAdjust="spacing" textLength="148.9102" x="1837.6792" y="2099.8027">&#226;&#8364;&#162; ML Pr&#195;&#169;vision Besoins</text><text fill="#000000" font-family="sans-serif" font-size="12" lengthAdjust="spacing" textLength="130.9043" x="1837.6792" y="2114.8965">&#226;&#8364;&#162; Analytics Avanc&#195;&#169;s</text><text fill="#000000" font-family="sans-serif" font-size="12" lengthAdjust="spacing" textLength="156.9434" x="1837.6792" y="2129.9902">&#226;&#8364;&#162; Gouvernance Donn&#195;&#169;es</text><text fill="#000000" font-family="sans-serif" font-size="12" lengthAdjust="spacing" textLength="129.3926" x="1837.6792" y="2145.084">&#226;&#8364;&#162; Culture Data-Driven</text><rect fill="#F1F1F1" height="35.0938" rx="12.5" ry="12.5" style="stroke:#181818;stroke-width:0.5;" width="170.8496" x="1836.2925" y="2177.7207"/><text fill="#000000" font-family="sans-serif" font-size="12" lengthAdjust="spacing" textLength="26.6777" x="1846.2925" y="2200.1777">&#240;&#376;&#8220;&#352;</text><text fill="#000000" font-family="sans-serif" font-size="12" font-weight="bold" lengthAdjust="spacing" textLength="120.8379" x="1876.3042" y="2200.1777">IA/ML Op&#195;&#169;rationnel</text><rect fill="#F1F1F1" height="35.0938" rx="12.5" ry="12.5" style="stroke:#181818;stroke-width:0.5;" width="189.6289" x="1826.9028" y="2232.8145"/><text fill="#000000" font-family="sans-serif" font-size="12" lengthAdjust="spacing" textLength="26.7949" x="1836.9028" y="2255.2715">&#226;&#339;&#8230;</text><text fill="#000000" font-family="sans-serif" font-size="12" font-weight="bold" lengthAdjust="spacing" textLength="139.5" x="1867.0317" y="2255.2715">Am&#195;&#169;lioration Continue</text><line style="stroke:#000000;stroke-width:1.5;" x1="1776.9521" x2="1776.9521" y1="51.0645" y2="2556.4707"/><line style="stroke:#000000;stroke-width:1.5;" x1="2304.2657" x2="2304.2657" y1="51.0645" y2="2556.4707"/><line style="stroke:#181818;stroke-width:1;" x1="114.9766" x2="114.9766" y1="98.7051" y2="118.7051"/><polygon fill="#181818" points="110.9766,108.7051,114.9766,118.7051,118.9766,108.7051,114.9766,112.7051" style="stroke:#181818;stroke-width:1;"/><line style="stroke:#181818;stroke-width:1;" x1="114.9766" x2="114.9766" y1="183.9863" y2="203.9863"/><polygon fill="#181818" points="110.9766,193.9863,114.9766,203.9863,118.9766,193.9863,114.9766,197.9863" style="stroke:#181818;stroke-width:1;"/><line style="stroke:#181818;stroke-width:1;" x1="519.7764" x2="519.7764" y1="2380.2832" y2="2400.2832"/><polygon fill="#181818" points="515.7764,2390.2832,519.7764,2400.2832,523.7764,2390.2832,519.7764,2394.2832" style="stroke:#181818;stroke-width:1;"/><line style="stroke:#181818;stroke-width:1;" x1="519.7764" x2="519.7764" y1="2450.4707" y2="2470.4707"/><polygon fill="#181818" points="515.7764,2460.4707,519.7764,2470.4707,523.7764,2460.4707,519.7764,2464.4707" style="stroke:#181818;stroke-width:1;"/><line style="stroke:#181818;stroke-width:1;" x1="743.9536" x2="743.9536" y1="2044.6426" y2="2079.6426"/><polygon fill="#181818" points="739.9536,2069.6426,743.9536,2079.6426,747.9536,2069.6426,743.9536,2073.6426" style="stroke:#181818;stroke-width:1;"/><line style="stroke:#181818;stroke-width:1;" x1="695.5349" x2="743.9536" y1="1962.4551" y2="1962.4551"/><line style="stroke:#181818;stroke-width:1;" x1="743.9536" x2="743.9536" y1="1962.4551" y2="1994.4551"/><polygon fill="#181818" points="739.9536,1984.4551,743.9536,1994.4551,747.9536,1984.4551,743.9536,1988.4551" style="stroke:#181818;stroke-width:1;"/><line style="stroke:#181818;stroke-width:1;" x1="631.865" x2="631.865" y1="1930.4551" y2="1950.4551"/><polygon fill="#181818" points="627.865,1940.4551,631.865,1950.4551,635.865,1940.4551,631.865,1944.4551" style="stroke:#181818;stroke-width:1;"/><line style="stroke:#181818;stroke-width:1;" x1="909.7437" x2="909.7437" y1="1539.7207" y2="1574.7207"/><polygon fill="#181818" points="905.7437,1564.7207,909.7437,1574.7207,913.7437,1564.7207,909.7437,1568.7207" style="stroke:#181818;stroke-width:1;"/><line style="stroke:#181818;stroke-width:1;" x1="834.4742" x2="909.7437" y1="1457.5332" y2="1457.5332"/><line style="stroke:#181818;stroke-width:1;" x1="909.7437" x2="909.7437" y1="1457.5332" y2="1489.5332"/><polygon fill="#181818" points="905.7437,1479.5332,909.7437,1489.5332,913.7437,1479.5332,909.7437,1483.5332" style="stroke:#181818;stroke-width:1;"/><line style="stroke:#181818;stroke-width:1;" x1="770.8043" x2="770.8043" y1="1425.5332" y2="1445.5332"/><polygon fill="#181818" points="766.8043,1435.5332,770.8043,1445.5332,774.8043,1435.5332,770.8043,1439.5332" style="stroke:#181818;stroke-width:1;"/><line style="stroke:#181818;stroke-width:1;" x1="1078.1528" x2="1078.1528" y1="989.5176" y2="1024.5176"/><polygon fill="#181818" points="1074.1528,1014.5176,1078.1528,1024.5176,1082.1528,1014.5176,1078.1528,1018.5176" style="stroke:#181818;stroke-width:1;"/><line style="stroke:#181818;stroke-width:1;" x1="988.1485" x2="1078.1528" y1="907.3301" y2="907.3301"/><line style="stroke:#181818;stroke-width:1;" x1="1078.1528" x2="1078.1528" y1="907.3301" y2="939.3301"/><polygon fill="#181818" points="1074.1528,929.3301,1078.1528,939.3301,1082.1528,929.3301,1078.1528,933.3301" style="stroke:#181818;stroke-width:1;"/><line style="stroke:#181818;stroke-width:1;" x1="1258.7729" x2="1258.7729" y1="536.0605" y2="608.1973"/><polygon fill="#181818" points="1254.7729,598.1973,1258.7729,608.1973,1262.7729,598.1973,1258.7729,602.1973" style="stroke:#181818;stroke-width:1;"/><line style="stroke:#181818;stroke-width:1;" x1="1011.4612" x2="924.4786" y1="416.7363" y2="416.7363"/><line style="stroke:#181818;stroke-width:1;" x1="924.4786" x2="924.4786" y1="416.7363" y2="448.7363"/><polygon fill="#181818" points="920.4786,438.7363,924.4786,448.7363,928.4786,438.7363,924.4786,442.7363" style="stroke:#181818;stroke-width:1;"/><line style="stroke:#181818;stroke-width:1;" x1="1171.7903" x2="1258.7729" y1="416.7363" y2="416.7363"/><line style="stroke:#181818;stroke-width:1;" x1="1258.7729" x2="1258.7729" y1="416.7363" y2="485.873"/><polygon fill="#181818" points="1254.7729,475.873,1258.7729,485.873,1262.7729,475.873,1258.7729,479.873" style="stroke:#181818;stroke-width:1;"/><line style="stroke:#181818;stroke-width:1;" x1="1091.6258" x2="1091.6258" y1="384.7363" y2="404.7363"/><polygon fill="#181818" points="1087.6258,394.7363,1091.6258,404.7363,1095.6258,394.7363,1091.6258,398.7363" style="stroke:#181818;stroke-width:1;"/><line style="stroke:#181818;stroke-width:1;" x1="1684.5068" x2="1684.5068" y1="614.2988" y2="649.2988"/><polygon fill="#181818" points="1680.5068,639.2988,1684.5068,649.2988,1688.5068,639.2988,1684.5068,643.2988" style="stroke:#181818;stroke-width:1;"/><line style="stroke:#181818;stroke-width:1;" x1="1684.5068" x2="1684.5068" y1="759.8613" y2="779.8613"/><polygon fill="#181818" points="1680.5068,769.8613,1684.5068,779.8613,1688.5068,769.8613,1684.5068,773.8613" style="stroke:#181818;stroke-width:1;"/><line style="stroke:#181818;stroke-width:1;" x1="2172.7452" x2="2172.7452" y1="1102.5957" y2="1122.5957"/><polygon fill="#181818" points="2168.7452,1112.5957,2172.7452,1122.5957,2176.7452,1112.5957,2172.7452,1116.5957" style="stroke:#181818;stroke-width:1;"/><line style="stroke:#181818;stroke-width:1;" x1="2172.7452" x2="2172.7452" y1="1172.7832" y2="1192.7832"/><polygon fill="#181818" points="2168.7452,1182.7832,2172.7452,1192.7832,2176.7452,1182.7832,2172.7452,1186.7832" style="stroke:#181818;stroke-width:1;"/><line style="stroke:#181818;stroke-width:1;" x1="2172.7452" x2="2172.7452" y1="1242.9707" y2="1262.9707"/><polygon fill="#181818" points="2168.7452,1252.9707,2172.7452,1262.9707,2176.7452,1252.9707,2172.7452,1256.9707" style="stroke:#181818;stroke-width:1;"/><line style="stroke:#181818;stroke-width:1;" x1="2033.8059" x2="2033.8059" y1="1652.7988" y2="1672.7988"/><polygon fill="#181818" points="2029.8059,1662.7988,2033.8059,1672.7988,2037.8059,1662.7988,2033.8059,1666.7988" style="stroke:#181818;stroke-width:1;"/><line style="stroke:#181818;stroke-width:1;" x1="2033.8059" x2="2033.8059" y1="1707.8926" y2="1727.8926"/><polygon fill="#181818" points="2029.8059,1717.8926,2033.8059,1727.8926,2037.8059,1717.8926,2033.8059,1721.8926" style="stroke:#181818;stroke-width:1;"/><line style="stroke:#181818;stroke-width:1;" x1="2033.8059" x2="2033.8059" y1="1762.9863" y2="1782.9863"/><polygon fill="#181818" points="2029.8059,1772.9863,2033.8059,1782.9863,2037.8059,1772.9863,2033.8059,1776.9863" style="stroke:#181818;stroke-width:1;"/><line style="stroke:#181818;stroke-width:1;" x1="1921.7173" x2="1921.7173" y1="2157.7207" y2="2177.7207"/><polygon fill="#181818" points="1917.7173,2167.7207,1921.7173,2177.7207,1925.7173,2167.7207,1921.7173,2171.7207" style="stroke:#181818;stroke-width:1;"/><line style="stroke:#181818;stroke-width:1;" x1="1921.7173" x2="1921.7173" y1="2212.8145" y2="2232.8145"/><polygon fill="#181818" points="1917.7173,2222.8145,1921.7173,2232.8145,1925.7173,2222.8145,1921.7173,2226.8145" style="stroke:#181818;stroke-width:1;"/><line style="stroke:#181818;stroke-width:1;" x1="114.9766" x2="114.9766" y1="314.5488" y2="319.5488"/><line style="stroke:#181818;stroke-width:1;" x1="114.9766" x2="1091.6258" y1="319.5488" y2="319.5488"/><line style="stroke:#181818;stroke-width:1;" x1="1091.6258" x2="1091.6258" y1="319.5488" y2="334.5488"/><polygon fill="#181818" points="1087.6258,324.5488,1091.6258,334.5488,1095.6258,324.5488,1091.6258,328.5488" style="stroke:#181818;stroke-width:1;"/><line style="stroke:#181818;stroke-width:1;" x1="924.4786" x2="924.4786" y1="498.9238" y2="516.4238"/><line style="stroke:#181818;stroke-width:1;" x1="924.4786" x2="1684.5068" y1="516.4238" y2="516.4238"/><line style="stroke:#181818;stroke-width:1;" x1="1684.5068" x2="1684.5068" y1="516.4238" y2="533.9238"/><polygon fill="#181818" points="1680.5068,523.9238,1684.5068,533.9238,1688.5068,523.9238,1684.5068,527.9238" style="stroke:#181818;stroke-width:1;"/><line style="stroke:#181818;stroke-width:1;" x1="2172.7452" x2="2172.7452" y1="1313.1582" y2="1330.1582"/><line style="stroke:#181818;stroke-width:1;" x1="2172.7452" x2="770.8043" y1="1330.1582" y2="1330.1582"/><line style="stroke:#181818;stroke-width:1;" x1="770.8043" x2="770.8043" y1="1330.1582" y2="1345.1582"/><polygon fill="#181818" points="766.8043,1335.1582,770.8043,1345.1582,774.8043,1335.1582,770.8043,1339.1582" style="stroke:#181818;stroke-width:1;"/><line style="stroke:#181818;stroke-width:1;" x1="2033.8059" x2="2033.8059" y1="1818.0801" y2="1835.0801"/><line style="stroke:#181818;stroke-width:1;" x1="2033.8059" x2="631.865" y1="1835.0801" y2="1835.0801"/><line style="stroke:#181818;stroke-width:1;" x1="631.865" x2="631.865" y1="1835.0801" y2="1850.0801"/><polygon fill="#181818" points="627.865,1840.0801,631.865,1850.0801,635.865,1840.0801,631.865,1844.0801" style="stroke:#181818;stroke-width:1;"/><line style="stroke:#181818;stroke-width:1;" x1="1921.7173" x2="1921.7173" y1="2267.9082" y2="2284.9082"/><line style="stroke:#181818;stroke-width:1;" x1="1921.7173" x2="519.7764" y1="2284.9082" y2="2284.9082"/><line style="stroke:#181818;stroke-width:1;" x1="519.7764" x2="519.7764" y1="2284.9082" y2="2299.9082"/><polygon fill="#181818" points="515.7764,2289.9082,519.7764,2299.9082,523.7764,2289.9082,519.7764,2293.9082" style="stroke:#181818;stroke-width:1;"/><line style="stroke:#181818;stroke-width:1;" x1="568.1951" x2="556.1951" y1="1962.4551" y2="1962.4551"/><line style="stroke:#181818;stroke-width:1;" x1="556.1951" x2="556.1951" y1="1962.4551" y2="1980.4551"/><line style="stroke:#181818;stroke-width:1;" x1="556.1951" x2="1921.7173" y1="1980.4551" y2="1980.4551"/><line style="stroke:#181818;stroke-width:1;" x1="1921.7173" x2="1921.7173" y1="1980.4551" y2="2032.0645"/><polygon fill="#181818" points="1917.7173,2022.0645,1921.7173,2032.0645,1925.7173,2022.0645,1921.7173,2026.0645" style="stroke:#181818;stroke-width:1;"/><line style="stroke:#181818;stroke-width:1;" x1="707.1344" x2="695.1344" y1="1457.5332" y2="1457.5332"/><line style="stroke:#181818;stroke-width:1;" x1="695.1344" x2="695.1344" y1="1457.5332" y2="1475.5332"/><line style="stroke:#181818;stroke-width:1;" x1="695.1344" x2="2033.8059" y1="1475.5332" y2="1475.5332"/><line style="stroke:#181818;stroke-width:1;" x1="2033.8059" x2="2033.8059" y1="1475.5332" y2="1527.1426"/><polygon fill="#181818" points="2029.8059,1517.1426,2033.8059,1527.1426,2037.8059,1517.1426,2033.8059,1521.1426" style="stroke:#181818;stroke-width:1;"/><line style="stroke:#181818;stroke-width:1;" x1="860.8087" x2="848.8087" y1="907.3301" y2="907.3301"/><line style="stroke:#181818;stroke-width:1;" x1="848.8087" x2="848.8087" y1="907.3301" y2="925.3301"/><line style="stroke:#181818;stroke-width:1;" x1="848.8087" x2="2172.7452" y1="925.3301" y2="925.3301"/><line style="stroke:#181818;stroke-width:1;" x1="2172.7452" x2="2172.7452" y1="925.3301" y2="976.9395"/><polygon fill="#181818" points="2168.7452,966.9395,2172.7452,976.9395,2176.7452,966.9395,2172.7452,970.9395" style="stroke:#181818;stroke-width:1;"/><line style="stroke:#181818;stroke-width:1;" x1="1684.5068" x2="1684.5068" y1="875.3301" y2="880.3301"/><line style="stroke:#181818;stroke-width:1;" x1="1684.5068" x2="924.4786" y1="880.3301" y2="880.3301"/><line style="stroke:#181818;stroke-width:1;" x1="924.4786" x2="924.4786" y1="880.3301" y2="895.3301"/><polygon fill="#181818" points="920.4786,885.3301,924.4786,895.3301,928.4786,885.3301,924.4786,889.3301" style="stroke:#181818;stroke-width:1;"/><text fill="#000000" font-family="sans-serif" font-size="18" lengthAdjust="spacing" textLength="71.0244" x="181.3047" y="69.75">Direction</text><text fill="#000000" font-family="sans-serif" font-size="18" lengthAdjust="spacing" textLength="57.999" x="975.3481" y="69.75">CODIR</text><text fill="#000000" font-family="sans-serif" font-size="18" lengthAdjust="spacing" textLength="142.3213" x="1612.3462" y="69.75">Comit&#195;&#169; Pilotage</text><text fill="#000000" font-family="sans-serif" font-size="18" lengthAdjust="spacing" textLength="129.8496" x="1975.6841" y="69.75">&#195;&#8240;quipe Projet</text><!--SRC=[VLVTRXD75BxFKnnHeJekLe83AOMBQh7ZO3MENJlGczoCrsDxwEoCipDZWHgggBm1lMcbLWAabe8gbSls0bLAb1V92_GLUixisfurSI8Ix9sPy_ETRxvprWehEJIaUm833WSfKsQequHPeHNKnKXOXkiLg7EGdqPk82oSFJzzYLzsdk27jx6ZdMjhntMHyfW-7wyPorAxjdRtxFtvt-SVJl-2SZbwM6yUGFVi-SN9-sYlsVCVokL3jQ-dFEcd7AgRrTk7wWuOdav5pCqD-FxcvYR4MahMrocptANcNcxrukINyvTejgOLEhE6B9szllZXpzFNiBtv6UmyYRa4XId4MYcCYq8rYpsTLACBumoWZ-kGCEMu3DPxJmqT-IFX1dJVQ4bVB0zs85Bux0th2ocyTKoWSdlpUk23ftW2H3BHgMKAFzzRKzfoICLeRE-Y3sN7PDTm64dT9vpZb4pHBqT8Q-rwitiyp_ZYv1zCkUEt6AviLYE_YV8FxV5vRQOSRaCY528dXb3QrHlxkhAhbolzvJhOCLTGEdjz_kF5oU-msrvV0yXT_tpw7Zq_Ob8CiktttM34hKUT2caTSWV_3Pam2qJG9S1nJISvG1qXjMKZVhmm_DFfRxCg2kkP1DxWaHCJ7XQrDy4zEWqI6ouMQsC-X4cg7tCRFcJ910qQIEY85Jpr0UMUV_tltm_eUX5-en0x-IxrUCA4uh1LkRKU6XR3OOfve4iVZ0XeqUB68Pdxp729HnSBtNOJOYPZHrHw6rXZOupCG3ncwOWeCWlnzCtfEoftksPWYmYBsNcUbrfQ6AW64VMQtGTGsdDnp6v0Xprj21l6ssr1wO7h8uGMHdYHN64vcaoWfJ5n3gM47JbkaQdhUUqo0W8KgFE8ZHo7cvTp1ZVZmKKHyyYF_VC9weBmLRxcjU45Nk97qUx37RHMWQ-TYB-5RmIMhDJQghIsrw_1T_vS3idvAmmPCTcUmO7_2vsYHA7s53J08rAJsWqAE6mSe0TkXHej7jUP6VSrImS6xZU3-ysJYMHqWUjyAin6fzFhz2v53OccY5q12xgDPXrwLiVVPWMTPq2wzGepQCmkdWduxZEeLhRWiKQf8x1WWcP9m08hETRbygwkxD7rHYn6cBuHGwy2cNpwqxcKVXm2IMVEr5r6U7Uzv4WVmNsEii0teg7bANpLQM8ATFXPNjev9sP5oGJ-lf1CpQXHBcC5jmEIPLuIShcan3s4mGoPxno0rrhYBVHI7w39BG82U1Q4cdAK2cDuWWAO9tO9EQjNa7CrFQyYQ1K9shEfYwr3vRH4qSyhhPjt0ewkP6cBFQQCGeAs1Dr4ShJJxK1xe7N0BMSriSDa6pfC13hI8LAIRdFOgL0Rmo8I5fVrBiZeZiJU2GnGDnBIuFKGU2x0ES9QGmEXLWHmrcqBcLt2tcZALEp9W-aLzizvMgVbYTJ2nmcxz5NHdvJ9fJEhw5bpIQQRtacs-zcycW4ZLtEowZc9zLecPJotNMZkONCqUTsvb44bee6U-ELHc94m7ervMfUGS-jASbv5pwi8keK4zMEFv0hlF-RwHQLLlLNWvqg6pijO9EaUPDF6GCHPkRE-RmfRseX2CYFhl3cQIyoWZlhXWHkDo0T8AYQVMX67SGHbqcxAKyKegpgAOSQsGDUTfDgWa5jMgQSeYIeWrHAjcj663pch5eMiU9651Uv6VdQGGkUN5ISLx1wEBsWO476PYfUHiI4KiHxBKmrdYYN2nHgRJpPo5YU8R4vS2EbYDIYzBcOd-V8Tmz7dueJGEEX6-xr6kzkA3fhj_KELpUSFUxtcJW4JO_LazWsx12VYef7p5z0xQ7VMmrkVFOvI2k-TdJ7-KD6Cf-Vp8ukHtkPUqK5kNmt4C7EssjKgHzLbHtb3cdcQ-vbxMUNZOm-TVC3q4rd-QX5BHyqWCvyRpqqN3U-tAxE9Edz2apmPXAZFr23dDTs-5ieIpXCaEpYh6JXosfTYyUu0dpGQDVpnNhFncGxZx8RbD-2rfbo-wvUNtaQmqJgYXA7eFPMLBUoBHjYOfdcLfZp6Ln8SDmtTliA-JDLHZMY28Tyqm42fZzsZefrTBsm-mAVudfU2vV5OYHYpCuKDsE9n0lE8kZJbbByiRAZDeu2-r4SkUqNoO7jW222FVuR-_m00]--></g></svg>