<svg xmlns="http://www.w3.org/2000/svg" xmlns:xlink="http://www.w3.org/1999/xlink" contentStyleType="text/css" height="716px" preserveAspectRatio="none" style="width:2773px;height:716px;background:#FFFFFF;" version="1.1" viewBox="0 0 2773 716" width="2773px" zoomAndPan="magnify"><title>Flux Donnees Architecture Cible RH</title><defs/><g><text fill="#000000" font-family="sans-serif" font-size="14" font-weight="bold" lengthAdjust="spacing" textLength="240.3789" x="1259.3105" y="24.5332">Flux Donnees Architecture Cible RH</text><!--cluster Utilisateurs--><g id="cluster_Utilisateurs"><path d="M1174.5,44.6094 L1251.748,44.6094 A3.75,3.75 0 0 1 1254.248,47.1094 L1261.248,68.2188 L1777.5,68.2188 A2.5,2.5 0 0 1 1780,70.7188 L1780,159.1094 A2.5,2.5 0 0 1 1777.5,161.6094 L1174.5,161.6094 A2.5,2.5 0 0 1 1172,159.1094 L1172,47.1094 A2.5,2.5 0 0 1 1174.5,44.6094 " fill="#E0F7FA" style="stroke:#000000;stroke-width:1.5;"/><line style="stroke:#000000;stroke-width:1.5;" x1="1172" x2="1261.248" y1="68.2188" y2="68.2188"/><text fill="#000000" font-family="sans-serif" font-size="14" font-weight="bold" lengthAdjust="spacing" textLength="76.248" x="1176" y="61.1426">Utilisateurs</text></g><!--cluster Cloud France--><g id="cluster_Cloud France"><path d="M600.5,247.1094 L690.9551,247.1094 A3.75,3.75 0 0 1 693.4551,249.6094 L700.4551,270.7188 L1899.5,270.7188 A2.5,2.5 0 0 1 1902,273.2188 L1902,706.6094 A2.5,2.5 0 0 1 1899.5,709.1094 L600.5,709.1094 A2.5,2.5 0 0 1 598,706.6094 L598,249.6094 A2.5,2.5 0 0 1 600.5,247.1094 " fill="#E3F2FD" style="stroke:#000000;stroke-width:1.5;"/><line style="stroke:#000000;stroke-width:1.5;" x1="598" x2="700.4551" y1="270.7188" y2="270.7188"/><text fill="#000000" font-family="sans-serif" font-size="14" font-weight="bold" lengthAdjust="spacing" textLength="89.4551" x="602" y="263.6426">Cloud France</text></g><!--cluster Integrations--><g id="cluster_Integrations"><path d="M1928.5,592.6094 L2009.6172,592.6094 A3.75,3.75 0 0 1 2012.1172,595.1094 L2019.1172,616.2188 L2763.5,616.2188 A2.5,2.5 0 0 1 2766,618.7188 L2766,707.1094 A2.5,2.5 0 0 1 2763.5,709.6094 L1928.5,709.6094 A2.5,2.5 0 0 1 1926,707.1094 L1926,595.1094 A2.5,2.5 0 0 1 1928.5,592.6094 " fill="#FFF8E1" style="stroke:#000000;stroke-width:1.5;"/><line style="stroke:#000000;stroke-width:1.5;" x1="1926" x2="2019.1172" y1="616.2188" y2="616.2188"/><text fill="#000000" font-family="sans-serif" font-size="14" font-weight="bold" lengthAdjust="spacing" textLength="80.1172" x="1930" y="609.1426">Integrations</text></g><!--entity Sophie--><g id="elem_Sophie"><rect fill="#F1F1F1" height="65.2188" rx="2.5" ry="2.5" style="stroke:#181818;stroke-width:0.5;" width="107.7031" x="1355" y="80.6094"/><rect fill="#F1F1F1" height="10" style="stroke:#181818;stroke-width:0.5;" width="15" x="1442.7031" y="85.6094"/><rect fill="#F1F1F1" height="2" style="stroke:#181818;stroke-width:0.5;" width="4" x="1440.7031" y="87.6094"/><rect fill="#F1F1F1" height="2" style="stroke:#181818;stroke-width:0.5;" width="4" x="1440.7031" y="91.6094"/><text fill="#000000" font-family="sans-serif" font-size="14" lengthAdjust="spacing" textLength="67.7031" x="1370" y="115.1426">Sophie RH</text><text fill="#000000" font-family="sans-serif" font-size="14" lengthAdjust="spacing" textLength="38.1104" x="1370" y="132.752">(Web)</text></g><!--entity Mgr--><g id="elem_Mgr"><rect fill="#F1F1F1" height="65.2188" rx="2.5" ry="2.5" style="stroke:#181818;stroke-width:0.5;" width="135.3066" x="1498.5" y="80.6094"/><rect fill="#F1F1F1" height="10" style="stroke:#181818;stroke-width:0.5;" width="15" x="1613.8066" y="85.6094"/><rect fill="#F1F1F1" height="2" style="stroke:#181818;stroke-width:0.5;" width="4" x="1611.8066" y="87.6094"/><rect fill="#F1F1F1" height="2" style="stroke:#181818;stroke-width:0.5;" width="4" x="1611.8066" y="91.6094"/><text fill="#000000" font-family="sans-serif" font-size="14" lengthAdjust="spacing" textLength="62.2549" x="1513.5" y="115.1426">Managers</text><text fill="#000000" font-family="sans-serif" font-size="14" lengthAdjust="spacing" textLength="95.3066" x="1513.5" y="132.752">(Web + Mobile)</text></g><!--entity Collab--><g id="elem_Collab"><rect fill="#F1F1F1" height="65.2188" rx="2.5" ry="2.5" style="stroke:#181818;stroke-width:0.5;" width="131.0479" x="1188.5" y="80.6094"/><rect fill="#F1F1F1" height="10" style="stroke:#181818;stroke-width:0.5;" width="15" x="1299.5479" y="85.6094"/><rect fill="#F1F1F1" height="2" style="stroke:#181818;stroke-width:0.5;" width="4" x="1297.5479" y="87.6094"/><rect fill="#F1F1F1" height="2" style="stroke:#181818;stroke-width:0.5;" width="4" x="1297.5479" y="91.6094"/><text fill="#000000" font-family="sans-serif" font-size="14" lengthAdjust="spacing" textLength="91.0479" x="1203.5" y="115.1426">Collaborateurs</text><text fill="#000000" font-family="sans-serif" font-size="14" lengthAdjust="spacing" textLength="50.5654" x="1203.5" y="132.752">(Mobile)</text></g><!--entity DIR--><g id="elem_DIR"><rect fill="#F1F1F1" height="65.2188" rx="2.5" ry="2.5" style="stroke:#181818;stroke-width:0.5;" width="95.2412" x="1668.5" y="80.6094"/><rect fill="#F1F1F1" height="10" style="stroke:#181818;stroke-width:0.5;" width="15" x="1743.7412" y="85.6094"/><rect fill="#F1F1F1" height="2" style="stroke:#181818;stroke-width:0.5;" width="4" x="1741.7412" y="87.6094"/><rect fill="#F1F1F1" height="2" style="stroke:#181818;stroke-width:0.5;" width="4" x="1741.7412" y="91.6094"/><text fill="#000000" font-family="sans-serif" font-size="14" lengthAdjust="spacing" textLength="55.2412" x="1683.5" y="115.1426">Direction</text><text fill="#000000" font-family="sans-serif" font-size="14" lengthAdjust="spacing" textLength="38.1104" x="1683.5" y="132.752">(Web)</text></g><!--entity SIRH--><g id="elem_SIRH"><rect fill="#F1F1F1" height="65.2188" rx="2.5" ry="2.5" style="stroke:#181818;stroke-width:0.5;" width="156.7031" x="1248.5" y="283.1094"/><rect fill="#F1F1F1" height="10" style="stroke:#181818;stroke-width:0.5;" width="15" x="1385.2031" y="288.1094"/><rect fill="#F1F1F1" height="2" style="stroke:#181818;stroke-width:0.5;" width="4" x="1383.2031" y="290.1094"/><rect fill="#F1F1F1" height="2" style="stroke:#181818;stroke-width:0.5;" width="4" x="1383.2031" y="294.1094"/><text fill="#000000" font-family="sans-serif" font-size="14" lengthAdjust="spacing" textLength="82.4688" x="1263.5" y="317.6426">SIRH Central</text><text fill="#000000" font-family="sans-serif" font-size="14" lengthAdjust="spacing" textLength="116.7031" x="1263.5" y="335.252">(ex: Lucca, PayFit)</text></g><!--entity Absences--><g id="elem_Absences"><rect fill="#F1F1F1" height="65.2188" rx="2.5" ry="2.5" style="stroke:#181818;stroke-width:0.5;" width="172.2754" x="997" y="447.6094"/><rect fill="#F1F1F1" height="10" style="stroke:#181818;stroke-width:0.5;" width="15" x="1149.2754" y="452.6094"/><rect fill="#F1F1F1" height="2" style="stroke:#181818;stroke-width:0.5;" width="4" x="1147.2754" y="454.6094"/><rect fill="#F1F1F1" height="2" style="stroke:#181818;stroke-width:0.5;" width="4" x="1147.2754" y="458.6094"/><text fill="#000000" font-family="sans-serif" font-size="14" lengthAdjust="spacing" textLength="111.2891" x="1012" y="482.1426">Module Absences</text><text fill="#000000" font-family="sans-serif" font-size="14" lengthAdjust="spacing" textLength="132.2754" x="1012" y="499.752">Conges Maladie RTT</text></g><!--entity Pointage--><g id="elem_Pointage"><rect fill="#F1F1F1" height="65.2188" rx="2.5" ry="2.5" style="stroke:#181818;stroke-width:0.5;" width="148.9375" x="614.5" y="447.6094"/><rect fill="#F1F1F1" height="10" style="stroke:#181818;stroke-width:0.5;" width="15" x="743.4375" y="452.6094"/><rect fill="#F1F1F1" height="2" style="stroke:#181818;stroke-width:0.5;" width="4" x="741.4375" y="454.6094"/><rect fill="#F1F1F1" height="2" style="stroke:#181818;stroke-width:0.5;" width="4" x="741.4375" y="458.6094"/><text fill="#000000" font-family="sans-serif" font-size="14" lengthAdjust="spacing" textLength="105.0752" x="629.5" y="482.1426">Module Pointage</text><text fill="#000000" font-family="sans-serif" font-size="14" lengthAdjust="spacing" textLength="108.9375" x="629.5" y="499.752">Heures Chantiers</text></g><!--entity Paie--><g id="elem_Paie"><rect fill="#F1F1F1" height="65.2188" rx="2.5" ry="2.5" style="stroke:#181818;stroke-width:0.5;" width="132.6064" x="1204.5" y="447.6094"/><rect fill="#F1F1F1" height="10" style="stroke:#181818;stroke-width:0.5;" width="15" x="1317.1064" y="452.6094"/><rect fill="#F1F1F1" height="2" style="stroke:#181818;stroke-width:0.5;" width="4" x="1315.1064" y="454.6094"/><rect fill="#F1F1F1" height="2" style="stroke:#181818;stroke-width:0.5;" width="4" x="1315.1064" y="458.6094"/><text fill="#000000" font-family="sans-serif" font-size="14" lengthAdjust="spacing" textLength="77.8271" x="1219.5" y="482.1426">Module Paie</text><text fill="#000000" font-family="sans-serif" font-size="14" lengthAdjust="spacing" textLength="92.6064" x="1219.5" y="499.752">Automatisation</text></g><!--entity Onboard--><g id="elem_Onboard"><rect fill="#F1F1F1" height="65.2188" rx="2.5" ry="2.5" style="stroke:#181818;stroke-width:0.5;" width="162.9717" x="798.5" y="447.6094"/><rect fill="#F1F1F1" height="10" style="stroke:#181818;stroke-width:0.5;" width="15" x="941.4717" y="452.6094"/><rect fill="#F1F1F1" height="2" style="stroke:#181818;stroke-width:0.5;" width="4" x="939.4717" y="454.6094"/><rect fill="#F1F1F1" height="2" style="stroke:#181818;stroke-width:0.5;" width="4" x="939.4717" y="458.6094"/><text fill="#000000" font-family="sans-serif" font-size="14" lengthAdjust="spacing" textLength="122.9717" x="813.5" y="482.1426">Module Onboarding</text><text fill="#000000" font-family="sans-serif" font-size="14" lengthAdjust="spacing" textLength="91.8477" x="813.5" y="499.752">39 taches auto</text></g><!--entity Offboard--><g id="elem_Offboard"><rect fill="#F1F1F1" height="65.2188" rx="2.5" ry="2.5" style="stroke:#181818;stroke-width:0.5;" width="162.9648" x="1538.5" y="447.6094"/><rect fill="#F1F1F1" height="10" style="stroke:#181818;stroke-width:0.5;" width="15" x="1681.4648" y="452.6094"/><rect fill="#F1F1F1" height="2" style="stroke:#181818;stroke-width:0.5;" width="4" x="1679.4648" y="454.6094"/><rect fill="#F1F1F1" height="2" style="stroke:#181818;stroke-width:0.5;" width="4" x="1679.4648" y="458.6094"/><text fill="#000000" font-family="sans-serif" font-size="14" lengthAdjust="spacing" textLength="122.9648" x="1553.5" y="482.1426">Module Offboarding</text><text fill="#000000" font-family="sans-serif" font-size="14" lengthAdjust="spacing" textLength="91.8477" x="1553.5" y="499.752">22 taches auto</text></g><!--entity Dashboard--><g id="elem_Dashboard"><rect fill="#F1F1F1" height="65.2188" rx="2.5" ry="2.5" style="stroke:#181818;stroke-width:0.5;" width="148.9238" x="1736.5" y="447.6094"/><rect fill="#F1F1F1" height="10" style="stroke:#181818;stroke-width:0.5;" width="15" x="1865.4238" y="452.6094"/><rect fill="#F1F1F1" height="2" style="stroke:#181818;stroke-width:0.5;" width="4" x="1863.4238" y="454.6094"/><rect fill="#F1F1F1" height="2" style="stroke:#181818;stroke-width:0.5;" width="4" x="1863.4238" y="458.6094"/><text fill="#000000" font-family="sans-serif" font-size="14" lengthAdjust="spacing" textLength="99.5996" x="1751.5" y="482.1426">Dashboards RH</text><text fill="#000000" font-family="sans-serif" font-size="14" lengthAdjust="spacing" textLength="108.9238" x="1751.5" y="499.752">KPIs Temps Reel</text></g><!--entity DB--><g id="elem_DB"><path d="M1010,639.1094 C1010,629.1094 1065.9204,629.1094 1065.9204,629.1094 C1065.9204,629.1094 1121.8408,629.1094 1121.8408,639.1094 L1121.8408,683.3281 C1121.8408,693.3281 1065.9204,693.3281 1065.9204,693.3281 C1065.9204,693.3281 1010,693.3281 1010,683.3281 L1010,639.1094 " fill="#F1F1F1" style="stroke:#181818;stroke-width:0.5;"/><path d="M1010,639.1094 C1010,649.1094 1065.9204,649.1094 1065.9204,649.1094 C1065.9204,649.1094 1121.8408,649.1094 1121.8408,639.1094 " fill="none" style="stroke:#181818;stroke-width:0.5;"/><text fill="#000000" font-family="sans-serif" font-size="14" lengthAdjust="spacing" textLength="91.8408" x="1020" y="667.6426">Base Donnees</text><text fill="#000000" font-family="sans-serif" font-size="14" lengthAdjust="spacing" textLength="67.6895" x="1020" y="685.252">RH Unifiee</text></g><!--entity Docs--><g id="elem_Docs"><path d="M1373,458.1094 C1373,448.1094 1437.8584,448.1094 1437.8584,448.1094 C1437.8584,448.1094 1502.7168,448.1094 1502.7168,458.1094 L1502.7168,502.3281 C1502.7168,512.3281 1437.8584,512.3281 1437.8584,512.3281 C1437.8584,512.3281 1373,512.3281 1373,502.3281 L1373,458.1094 " fill="#F1F1F1" style="stroke:#181818;stroke-width:0.5;"/><path d="M1373,458.1094 C1373,468.1094 1437.8584,468.1094 1437.8584,468.1094 C1437.8584,468.1094 1502.7168,468.1094 1502.7168,458.1094 " fill="none" style="stroke:#181818;stroke-width:0.5;"/><text fill="#000000" font-family="sans-serif" font-size="14" lengthAdjust="spacing" textLength="70.8066" x="1383" y="486.6426">Documents</text><text fill="#000000" font-family="sans-serif" font-size="14" lengthAdjust="spacing" textLength="109.7168" x="1383" y="504.252">Bulletins Contrats</text></g><!--entity SAGE--><g id="elem_SAGE"><rect fill="#F1F1F1" height="65.2188" rx="2.5" ry="2.5" style="stroke:#181818;stroke-width:0.5;" width="131.8135" x="2447" y="628.6094"/><rect fill="#F1F1F1" height="10" style="stroke:#181818;stroke-width:0.5;" width="15" x="2558.8135" y="633.6094"/><rect fill="#F1F1F1" height="2" style="stroke:#181818;stroke-width:0.5;" width="4" x="2556.8135" y="635.6094"/><rect fill="#F1F1F1" height="2" style="stroke:#181818;stroke-width:0.5;" width="4" x="2556.8135" y="639.6094"/><text fill="#000000" font-family="sans-serif" font-size="14" lengthAdjust="spacing" textLength="91.8135" x="2462" y="663.1426">SAGE Compta</text><text fill="#000000" font-family="sans-serif" font-size="14" lengthAdjust="spacing" textLength="70.8203" x="2462" y="680.752">Export paie</text></g><!--entity SILAE--><g id="elem_SILAE"><rect fill="#F1F1F1" height="65.2188" rx="2.5" ry="2.5" style="stroke:#181818;stroke-width:0.5;" width="136.4756" x="2614" y="628.6094"/><rect fill="#F1F1F1" height="10" style="stroke:#181818;stroke-width:0.5;" width="15" x="2730.4756" y="633.6094"/><rect fill="#F1F1F1" height="2" style="stroke:#181818;stroke-width:0.5;" width="4" x="2728.4756" y="635.6094"/><rect fill="#F1F1F1" height="2" style="stroke:#181818;stroke-width:0.5;" width="4" x="2728.4756" y="639.6094"/><text fill="#000000" font-family="sans-serif" font-size="14" lengthAdjust="spacing" textLength="96.4756" x="2629" y="663.1426">SILAE Only RH</text><text fill="#000000" font-family="sans-serif" font-size="14" lengthAdjust="spacing" textLength="83.2754" x="2629" y="680.752">Bulletins paie</text></g><!--entity Banque--><g id="elem_Banque"><rect fill="#F1F1F1" height="65.2188" rx="2.5" ry="2.5" style="stroke:#181818;stroke-width:0.5;" width="155.1514" x="2256.5" y="628.6094"/><rect fill="#F1F1F1" height="10" style="stroke:#181818;stroke-width:0.5;" width="15" x="2391.6514" y="633.6094"/><rect fill="#F1F1F1" height="2" style="stroke:#181818;stroke-width:0.5;" width="4" x="2389.6514" y="635.6094"/><rect fill="#F1F1F1" height="2" style="stroke:#181818;stroke-width:0.5;" width="4" x="2389.6514" y="639.6094"/><text fill="#000000" font-family="sans-serif" font-size="14" lengthAdjust="spacing" textLength="48.2686" x="2271.5" y="663.1426">Banque</text><text fill="#000000" font-family="sans-serif" font-size="14" lengthAdjust="spacing" textLength="115.1514" x="2271.5" y="680.752">Virements salaires</text></g><!--entity Email--><g id="elem_Email"><rect fill="#F1F1F1" height="65.2188" rx="2.5" ry="2.5" style="stroke:#181818;stroke-width:0.5;" width="125.5791" x="2095" y="628.6094"/><rect fill="#F1F1F1" height="10" style="stroke:#181818;stroke-width:0.5;" width="15" x="2200.5791" y="633.6094"/><rect fill="#F1F1F1" height="2" style="stroke:#181818;stroke-width:0.5;" width="4" x="2198.5791" y="635.6094"/><rect fill="#F1F1F1" height="2" style="stroke:#181818;stroke-width:0.5;" width="4" x="2198.5791" y="639.6094"/><text fill="#000000" font-family="sans-serif" font-size="14" lengthAdjust="spacing" textLength="85.5791" x="2110" y="663.1426">Email Service</text><text fill="#000000" font-family="sans-serif" font-size="14" lengthAdjust="spacing" textLength="76.2549" x="2110" y="680.752">Notifications</text></g><!--entity Push--><g id="elem_Push"><rect fill="#F1F1F1" height="65.2188" rx="2.5" ry="2.5" style="stroke:#181818;stroke-width:0.5;" width="117.041" x="1942.5" y="628.6094"/><rect fill="#F1F1F1" height="10" style="stroke:#181818;stroke-width:0.5;" width="15" x="2039.541" y="633.6094"/><rect fill="#F1F1F1" height="2" style="stroke:#181818;stroke-width:0.5;" width="4" x="2037.541" y="635.6094"/><rect fill="#F1F1F1" height="2" style="stroke:#181818;stroke-width:0.5;" width="4" x="2037.541" y="639.6094"/><text fill="#000000" font-family="sans-serif" font-size="14" lengthAdjust="spacing" textLength="77.041" x="1957.5" y="663.1426">Push Mobile</text><text fill="#000000" font-family="sans-serif" font-size="14" lengthAdjust="spacing" textLength="35.7861" x="1957.5" y="680.752">Alerts</text></g><g id="elem_N1"><path d="M6,59.1094 L6,167.2188 L356.3037,167.2188 L356.3037,69.1094 L346.3037,59.1094 L6,59.1094 " fill="#FEFFDD" style="stroke:#181818;stroke-width:0.5;"/><path d="M346.3037,59.1094 L346.3037,69.1094 L356.3037,69.1094 L346.3037,59.1094 " fill="#FEFFDD" style="stroke:#181818;stroke-width:1;"/><text fill="#000000" font-family="sans-serif" font-size="13" font-weight="bold" lengthAdjust="spacing" textLength="181.3271" x="12" y="77.6045">Flux Principaux Temps Reel :</text><text fill="#000000" font-family="sans-serif" font-size="13" lengthAdjust="spacing" textLength="293.9346" x="12" y="93.9561">1. Collab demande conge mobile &#226;&#8224;&#8217; Notif manager</text><text fill="#000000" font-family="sans-serif" font-size="13" lengthAdjust="spacing" textLength="233.2319" x="12" y="110.3076">2. Manager valide FH &#226;&#8224;&#8217; Auto dans paie</text><text fill="#000000" font-family="sans-serif" font-size="13" lengthAdjust="spacing" textLength="257.061" x="12" y="126.6592">3. Sophie calcul paie &#226;&#8224;&#8217; Auto TR km paniers</text><text fill="#000000" font-family="sans-serif" font-size="13" lengthAdjust="spacing" textLength="246.9556" x="12" y="143.0107">4. Onboarding &#226;&#8224;&#8217; Workflow auto 39 taches</text><text fill="#000000" font-family="sans-serif" font-size="13" lengthAdjust="spacing" textLength="329.3037" x="12" y="159.3623">5. Dashboard &#226;&#8224;&#8217; KPIs temps reel (absenteisme turnover)</text></g><g id="elem_N2"><path d="M391.5,67.1094 L391.5,158.8672 L654.5615,158.8672 L654.5615,77.1094 L644.5615,67.1094 L391.5,67.1094 " fill="#FEFFDD" style="stroke:#181818;stroke-width:0.5;"/><path d="M644.5615,67.1094 L644.5615,77.1094 L654.5615,77.1094 L644.5615,67.1094 " fill="#FEFFDD" style="stroke:#181818;stroke-width:1;"/><text fill="#000000" font-family="sans-serif" font-size="13" font-weight="bold" lengthAdjust="spacing" textLength="102.5908" x="397.5" y="85.6045">Avant vs Apres :</text><text fill="#000000" font-family="sans-serif" font-size="13" lengthAdjust="spacing" textLength="242.0615" x="397.5" y="101.9561">- Avant: 15 outils + 7 Excel = 22 systemes</text><text fill="#000000" font-family="sans-serif" font-size="13" lengthAdjust="spacing" textLength="232.2988" x="397.5" y="118.3076">- Apres: 1 SIRH centralise + integrations</text><text fill="#000000" font-family="sans-serif" font-size="13" lengthAdjust="spacing" textLength="173.9385" x="397.5" y="134.6592">- Ressaisies: 5-6 fois &#226;&#8224;&#8217; 1 fois</text><text fill="#000000" font-family="sans-serif" font-size="13" lengthAdjust="spacing" textLength="225.9702" x="397.5" y="151.0107">- Temps Sophie paie: 3j/sem &#226;&#8224;&#8217; 1j/sem</text></g><g id="elem_N3"><path d="M17.5,261.6094 L17.5,369.7188 L344.876,369.7188 L344.876,271.6094 L334.876,261.6094 L17.5,261.6094 " fill="#FEFFDD" style="stroke:#181818;stroke-width:0.5;"/><path d="M334.876,261.6094 L334.876,271.6094 L344.876,271.6094 L334.876,261.6094 " fill="#FEFFDD" style="stroke:#181818;stroke-width:1;"/><text fill="#000000" font-family="sans-serif" font-size="13" font-weight="bold" lengthAdjust="spacing" textLength="140.8545" x="23.5" y="280.1045">Automatisations Cles :</text><text fill="#000000" font-family="sans-serif" font-size="13" lengthAdjust="spacing" textLength="265.8906" x="23.5" y="296.4561">- Calcul TR automatique (vs manuel 100 pers)</text><text fill="#000000" font-family="sans-serif" font-size="13" lengthAdjust="spacing" textLength="260.8506" x="23.5" y="312.8076">- Calcul heures recup automatique (35h/sem)</text><text fill="#000000" font-family="sans-serif" font-size="13" lengthAdjust="spacing" textLength="281.0425" x="23.5" y="329.1592">- Validation FH workflow (vs relances manuelles)</text><text fill="#000000" font-family="sans-serif" font-size="13" lengthAdjust="spacing" textLength="306.376" x="23.5" y="345.5107">- Onboarding checklist auto (vs 39 taches manuelles)</text><text fill="#000000" font-family="sans-serif" font-size="13" lengthAdjust="spacing" textLength="273.8188" x="23.5" y="361.8623">- KPIs temps reel (vs compilation demi-journee)</text></g><g id="elem_N4"><path d="M380,261.6094 L380,369.7188 L581.6543,369.7188 L581.6543,271.6094 L571.6543,261.6094 L380,261.6094 " fill="#FEFFDD" style="stroke:#181818;stroke-width:0.5;"/><path d="M571.6543,261.6094 L571.6543,271.6094 L581.6543,271.6094 L571.6543,261.6094 " fill="#FEFFDD" style="stroke:#181818;stroke-width:1;"/><text fill="#000000" font-family="sans-serif" font-size="13" font-weight="bold" lengthAdjust="spacing" textLength="59.2427" x="386" y="280.1045">Securite :</text><text fill="#000000" font-family="sans-serif" font-size="13" lengthAdjust="spacing" textLength="101.1372" x="386" y="296.4561">- TLS 1.3 (transit)</text><text fill="#000000" font-family="sans-serif" font-size="13" lengthAdjust="spacing" textLength="104.7617" x="386" y="312.8076">- AES-256 (repos)</text><text fill="#000000" font-family="sans-serif" font-size="13" lengthAdjust="spacing" textLength="177.7661" x="386" y="329.1592">- SSO (authentification unique)</text><text fill="#000000" font-family="sans-serif" font-size="13" lengthAdjust="spacing" textLength="104.749" x="386" y="345.5107">- RGPD compliant</text><text fill="#000000" font-family="sans-serif" font-size="13" lengthAdjust="spacing" textLength="180.6543" x="386" y="361.8623">- Audit trail (qui fait quoi quand)</text></g><!--link Sophie to SIRH--><g id="link_Sophie_SIRH"><path d="M1396.01,145.8794 C1380.65,183.4194 1357.5315,239.956 1342.2015,277.436 " fill="none" id="Sophie-to-SIRH" style="stroke:#181818;stroke-width:1;"/><polygon fill="#181818" points="1339.93,282.9894,1347.0395,276.1735,1341.8229,278.3615,1339.6349,273.1449,1339.93,282.9894" style="stroke:#181818;stroke-width:1;"/><text fill="#000000" font-family="sans-serif" font-size="13" lengthAdjust="spacing" textLength="72.9536" x="1410.5718" y="211.6045">HTTPS Web</text><text fill="#000000" font-family="sans-serif" font-size="13" lengthAdjust="spacing" textLength="148.0972" x="1373" y="227.9561">CRUD Collaborateurs RH</text></g><!--link Mgr to SIRH--><g id="link_Mgr_SIRH"><path d="M1563.61,145.8194 C1560.09,171.6794 1551.41,207.6394 1530,231.1094 C1497.58,266.6494 1453.5327,285.8135 1411.3627,297.7635 " fill="none" id="Mgr-to-SIRH" style="stroke:#181818;stroke-width:1;"/><polygon fill="#181818" points="1405.59,299.3994,1415.3396,300.7941,1410.4006,298.0362,1413.1585,293.0971,1405.59,299.3994" style="stroke:#181818;stroke-width:1;"/><text fill="#000000" font-family="sans-serif" font-size="13" lengthAdjust="spacing" textLength="114.8608" x="1562.9399" y="211.6045">HTTPS Web/Mobile</text><text fill="#000000" font-family="sans-serif" font-size="13" lengthAdjust="spacing" textLength="138.7407" x="1551" y="227.9561">Validation FH Absences</text></g><!--link Collab to SIRH--><g id="link_Collab_SIRH"><path d="M1213.05,145.7994 C1188.1,169.1494 1164,201.8094 1181,231.1094 C1195.94,256.8694 1216.7816,272.7 1242.9116,285.62 " fill="none" id="Collab-to-SIRH" style="stroke:#181818;stroke-width:1;"/><polygon fill="#181818" points="1248.29,288.2794,1241.9952,280.7047,1243.808,286.0632,1238.4494,287.8759,1248.29,288.2794" style="stroke:#181818;stroke-width:1;"/><text fill="#000000" font-family="sans-serif" font-size="13" lengthAdjust="spacing" textLength="65.0381" x="1232.5908" y="211.6045">Mobile App</text><text fill="#000000" font-family="sans-serif" font-size="13" lengthAdjust="spacing" textLength="166.2197" x="1182" y="227.9561">Pointage Demandes Conges</text></g><!--link DIR to Dashboard--><g id="link_DIR_Dashboard"><path d="M1724.26,145.8594 C1742.25,214.9794 1783.2689,372.5728 1801.2389,441.6228 " fill="none" id="DIR-to-Dashboard" style="stroke:#181818;stroke-width:1;"/><polygon fill="#181818" points="1802.75,447.4294,1804.3543,437.7121,1801.4907,442.5906,1796.6122,439.7269,1802.75,447.4294" style="stroke:#181818;stroke-width:1;"/><text fill="#000000" font-family="sans-serif" font-size="13" lengthAdjust="spacing" textLength="72.9536" x="1798.9041" y="313.1045">HTTPS Web</text><text fill="#000000" font-family="sans-serif" font-size="13" lengthAdjust="spacing" textLength="104.7617" x="1783" y="329.4561">Consulte KPIs RH</text></g><!--link SIRH to Absences--><g id="link_SIRH_Absences"><path d="M1279.67,348.1294 C1236.7,376.7494 1178.6639,415.4036 1135.6139,444.0736 " fill="none" id="SIRH-to-Absences" style="stroke:#181818;stroke-width:1;"/><polygon fill="#181818" points="1130.62,447.3994,1140.3281,445.74,1134.7816,444.6279,1135.8937,439.0814,1130.62,447.3994" style="stroke:#181818;stroke-width:1;"/><text fill="#000000" font-family="sans-serif" font-size="13" lengthAdjust="spacing" textLength="44.8018" x="1198" y="414.1045">Gestion</text></g><!--link SIRH to Pointage--><g id="link_SIRH_Pointage"><path d="M1248.18,333.0694 C1141.49,355.9094 945.52,399.8194 781,447.6094 C775.33,449.2594 775.1988,449.2242 769.3388,451.0842 " fill="none" id="SIRH-to-Pointage" style="stroke:#181818;stroke-width:1;"/><polygon fill="#181818" points="763.62,452.8994,773.4084,453.9891,768.3857,451.3867,770.9881,446.364,763.62,452.8994" style="stroke:#181818;stroke-width:1;"/><text fill="#000000" font-family="sans-serif" font-size="13" lengthAdjust="spacing" textLength="44.8018" x="960" y="414.1045">Gestion</text></g><!--link SIRH to Paie--><g id="link_SIRH_Paie"><path d="M1301.26,348.1094 C1290.77,362.8394 1279.76,381.1694 1274,399.6094 C1269.22,414.8994 1268.055,426.6603 1268.315,441.5103 " fill="none" id="SIRH-to-Paie" style="stroke:#181818;stroke-width:1;"/><polygon fill="#181818" points="1268.42,447.5094,1272.2618,438.4407,1268.3325,442.5101,1264.2631,438.5808,1268.42,447.5094" style="stroke:#181818;stroke-width:1;"/><text fill="#000000" font-family="sans-serif" font-size="13" lengthAdjust="spacing" textLength="65.0381" x="1275" y="414.1045">Calcul auto</text></g><!--link SIRH to Onboard--><g id="link_SIRH_Onboard"><path d="M1248.37,345.1894 C1167.83,374.4694 1048.8288,417.7291 967.2288,447.3991 " fill="none" id="SIRH-to-Onboard" style="stroke:#181818;stroke-width:1;"/><polygon fill="#181818" points="961.59,449.4494,971.4151,450.1332,966.289,447.7408,968.6814,442.6147,961.59,449.4494" style="stroke:#181818;stroke-width:1;"/><text fill="#000000" font-family="sans-serif" font-size="13" lengthAdjust="spacing" textLength="59.9473" x="1091" y="414.1045">Workflows</text></g><!--link SIRH to Offboard--><g id="link_SIRH_Offboard"><path d="M1405.76,343.0594 C1443.47,357.3094 1488.47,376.6694 1526,399.6094 C1548.07,413.0994 1565.8357,427.5475 1583.1257,443.3075 " fill="none" id="SIRH-to-Offboard" style="stroke:#181818;stroke-width:1;"/><polygon fill="#181818" points="1587.56,447.3494,1583.6032,438.3303,1583.8648,443.9811,1578.2139,444.2427,1587.56,447.3494" style="stroke:#181818;stroke-width:1;"/><text fill="#000000" font-family="sans-serif" font-size="13" lengthAdjust="spacing" textLength="59.9473" x="1551" y="414.1045">Workflows</text></g><!--link SIRH to Dashboard--><g id="link_SIRH_Dashboard"><path d="M1405.54,336.2894 C1464.76,351.7694 1547.69,374.8094 1619,399.6094 C1641.83,407.5494 1687.8448,426.62 1731.7748,445.22 " fill="none" id="SIRH-to-Dashboard" style="stroke:#181818;stroke-width:1;"/><polygon fill="#181818" points="1737.3,447.5594,1730.5718,440.3669,1732.6957,445.6099,1727.4527,447.7338,1737.3,447.5594" style="stroke:#181818;stroke-width:1;"/><text fill="#000000" font-family="sans-serif" font-size="13" lengthAdjust="spacing" textLength="116.3398" x="1666" y="414.1045">Donnees temps reel</text></g><!--link Absences to DB--><g id="link_Absences_DB"><path d="M1070.57,512.8794 C1067.46,522.2994 1064.56,532.7394 1063,542.6094 C1058.4,571.6294 1059.3628,599.2053 1061.5828,623.0053 " fill="none" id="Absences-to-DB" style="stroke:#181818;stroke-width:1;"/><polygon fill="#181818" points="1062.14,628.9794,1065.2868,619.6468,1061.6756,624.001,1057.3214,620.3898,1062.14,628.9794" style="stroke:#181818;stroke-width:1;"/><text fill="#000000" font-family="sans-serif" font-size="13" lengthAdjust="spacing" textLength="163.9917" x="1064" y="565.1045">CRUD Conges Maladie RTT</text></g><!--link Pointage to DB--><g id="link_Pointage_DB"><path d="M710.33,512.8694 C725.94,533.8194 748.89,560.2894 775,576.6094 C848.65,622.6394 942.5385,643.135 1004.0585,652.515 " fill="none" id="Pointage-to-DB" style="stroke:#181818;stroke-width:1;"/><polygon fill="#181818" points="1009.99,653.4194,1001.6957,648.1085,1005.0471,652.6657,1000.4899,656.0171,1009.99,653.4194" style="stroke:#181818;stroke-width:1;"/><text fill="#000000" font-family="sans-serif" font-size="13" lengthAdjust="spacing" textLength="142.3208" x="776" y="565.1045">CRUD Heures Chantiers</text></g><!--link Paie to DB--><g id="link_Paie_DB"><path d="M1264.1,513.0494 C1258.36,533.2694 1248.41,558.8594 1232,576.6094 C1202.43,608.5894 1163.5166,627.9757 1128.0066,641.1257 " fill="none" id="Paie-to-DB" style="stroke:#181818;stroke-width:1;"/><polygon fill="#181818" points="1122.38,643.2094,1132.209,643.835,1127.0688,641.473,1129.4308,636.3329,1122.38,643.2094" style="stroke:#181818;stroke-width:1;"/><text fill="#000000" font-family="sans-serif" font-size="13" lengthAdjust="spacing" textLength="124.9854" x="1254" y="565.1045">CRUD Paie Elements</text></g><!--link Onboard to DB--><g id="link_Onboard_DB"><path d="M902.53,512.8094 C917.03,532.1994 936.88,556.9794 957,576.6094 C976.45,595.5894 995.351,610.6857 1015.701,625.5157 " fill="none" id="Onboard-to-DB" style="stroke:#181818;stroke-width:1;"/><polygon fill="#181818" points="1020.55,629.0494,1015.6323,620.5161,1016.5092,626.1046,1010.9207,626.9815,1020.55,629.0494" style="stroke:#181818;stroke-width:1;"/><text fill="#000000" font-family="sans-serif" font-size="13" lengthAdjust="spacing" textLength="93.9009" x="958" y="565.1045">CRUD Checklist</text></g><!--link Offboard to DB--><g id="link_Offboard_DB"><path d="M1550.06,512.6594 C1504.27,532.5994 1442.78,558.0194 1387,576.6094 C1295.63,607.0594 1192.4929,632.0491 1127.9029,646.6191 " fill="none" id="Offboard-to-DB" style="stroke:#181818;stroke-width:1;"/><polygon fill="#181818" points="1122.05,647.9394,1131.7096,649.8609,1126.9274,646.8391,1129.9492,642.057,1122.05,647.9394" style="stroke:#181818;stroke-width:1;"/><text fill="#000000" font-family="sans-serif" font-size="13" lengthAdjust="spacing" textLength="93.9009" x="1478" y="565.1045">CRUD Checklist</text></g><!--link SIRH to Docs--><g id="link_SIRH_Docs"><path d="M1342.62,348.1194 C1353.28,368.5694 1368.27,395.4394 1384,417.6094 C1391.32,427.9194 1396.1084,434.002 1404.4184,443.412 " fill="none" id="SIRH-to-Docs" style="stroke:#181818;stroke-width:1;"/><polygon fill="#181818" points="1408.39,447.9094,1405.4308,438.5156,1405.0803,444.1616,1399.4343,443.8111,1408.39,447.9094" style="stroke:#181818;stroke-width:1;"/><text fill="#000000" font-family="sans-serif" font-size="13" lengthAdjust="spacing" textLength="136.5635" x="1385" y="414.1045">Store Bulletins Contrats</text></g><!--link Paie to SILAE--><g id="link_Paie_SILAE"><path d="M1337.69,508.1494 C1343.81,509.9194 1349.97,511.4494 1356,512.6094 C1489.93,538.3194 2460.06,483.5894 2583,542.6094 C2620.51,560.6194 2646.0324,595.1351 2662.6224,623.3951 " fill="none" id="Paie-to-SILAE" style="stroke:#181818;stroke-width:1;"/><polygon fill="#181818" points="2665.66,628.5694,2664.5532,618.7829,2663.1287,624.2575,2657.6541,622.833,2665.66,628.5694" style="stroke:#181818;stroke-width:1;"/><text fill="#000000" font-family="sans-serif" font-size="13" lengthAdjust="spacing" textLength="122.1226" x="2626" y="557.1045">Export elements paie</text><text fill="#000000" font-family="sans-serif" font-size="13" lengthAdjust="spacing" textLength="115.6289" x="2629.2468" y="573.4561">Generation bulletins</text></g><!--link Paie to SAGE--><g id="link_Paie_SAGE"><path d="M1337.69,508.1194 C1343.81,509.8994 1349.97,511.4394 1356,512.6094 C1472.22,535.1394 2315.31,489.2794 2421,542.6094 C2456.97,560.7594 2480.3534,594.9169 2495.4034,623.0969 " fill="none" id="Paie-to-SAGE" style="stroke:#181818;stroke-width:1;"/><polygon fill="#181818" points="2498.23,628.3894,2497.5185,618.5663,2495.8745,623.979,2490.4618,622.335,2498.23,628.3894" style="stroke:#181818;stroke-width:1;"/><text fill="#000000" font-family="sans-serif" font-size="13" lengthAdjust="spacing" textLength="112.0044" x="2462" y="565.1045">Export compta paie</text></g><!--link Paie to Banque--><g id="link_Paie_Banque"><path d="M1337.7,508.0894 C1343.82,509.8794 1349.98,511.4294 1356,512.6094 C1456.14,532.2594 2187.84,487.9094 2274,542.6094 C2303.97,561.6394 2318.0516,594.9162 2325.7516,622.7762 " fill="none" id="Paie-to-Banque" style="stroke:#181818;stroke-width:1;"/><polygon fill="#181818" points="2327.35,628.5594,2328.8079,618.819,2326.018,623.7401,2321.097,620.9502,2327.35,628.5594" style="stroke:#181818;stroke-width:1;"/><text fill="#000000" font-family="sans-serif" font-size="13" lengthAdjust="spacing" textLength="106.9263" x="2306" y="565.1045">Virements salaires</text></g><!--link Absences to Email--><g id="link_Absences_Email"><path d="M1169.14,509.0594 C1175.14,510.4294 1181.14,511.6394 1187,512.6094 C1283.85,528.6394 1982.97,497.1894 2070,542.6094 C2105.13,560.9394 2127.3515,595.0005 2141.5115,623.1205 " fill="none" id="Absences-to-Email" style="stroke:#181818;stroke-width:1;"/><polygon fill="#181818" points="2144.21,628.4794,2143.7348,618.642,2141.9612,624.0136,2136.5896,622.24,2144.21,628.4794" style="stroke:#181818;stroke-width:1;"/><text fill="#000000" font-family="sans-serif" font-size="13" lengthAdjust="spacing" textLength="135.8462" x="2110" y="565.1045">Notifications validations</text></g><!--link Onboard to Email--><g id="link_Onboard_Email"><path d="M961.69,508.8094 C967.84,510.2894 973.99,511.5794 980,512.6094 C1374.07,579.9494 1487.59,461.2594 1879,542.6094 C1919.24,550.9694 1924.93,567.4794 1965,576.6094 C1989.33,582.1494 2054.12,574.6494 2077,584.6094 C2099.03,594.2094 2114.8471,607.9688 2129.3671,624.1088 " fill="none" id="Onboard-to-Email" style="stroke:#181818;stroke-width:1;"/><polygon fill="#181818" points="2133.38,628.5694,2130.3344,619.2032,2130.0359,624.8522,2124.387,624.5537,2133.38,628.5694" style="stroke:#181818;stroke-width:1;"/><text fill="#000000" font-family="sans-serif" font-size="13" lengthAdjust="spacing" textLength="95.3608" x="1966" y="557.1045">Workflow taches</text><text fill="#000000" font-family="sans-serif" font-size="13" lengthAdjust="spacing" textLength="83.1099" x="1972.1255" y="573.4561">4-5 personnes</text></g><!--link Pointage to Push--><g id="link_Pointage_Push"><path d="M763.58,508.6594 C769.42,510.1994 775.27,511.5494 781,512.6094 C1130.38,577.5294 1226.67,504.7094 1580,542.6094 C1665.73,551.8094 1685.38,566.4094 1771,576.6094 C1799.96,580.0594 1874.67,574.4394 1902,584.6094 C1927.32,594.0294 1947.0435,608.2643 1965.1735,624.4443 " fill="none" id="Pointage-to-Push" style="stroke:#181818;stroke-width:1;"/><polygon fill="#181818" points="1969.65,628.4394,1965.5986,619.4624,1965.9195,625.1102,1960.2718,625.4311,1969.65,628.4394" style="stroke:#181818;stroke-width:1;"/><text fill="#000000" font-family="sans-serif" font-size="13" lengthAdjust="spacing" textLength="98.9854" x="1772" y="565.1045">Rappel saisie FH</text></g><!--SRC=[TLRBRXit5DtFLroa6zcf7CkoabP02yYInZPY9u8a9ukg2sf4MOmfSZpaE3QA0lcDxeh-IlyaNz93SbwItOsWuJsNl8zpBcc5bPnYcJ_II2l5kQ51bco4vOdDCqv3iOHzUX55AKlks2sdLpTMI66OvNbcNj4Fu-FuNJoWFoAYtsOwtGW7NwZMPxuy-9sOeR3epDTCOOVC12kzfckz5987sFLjvZ13BILRwYpi3sGJ4umEDX8P8XHQDKyQNKwZFnkH3gNELnHdJ2NSHTgDJ-9H4Udbz8A6NDcCIMp17_jqbIS9-v4cx2aMjWWTA1-uNkKems1fEBP2L4EjRb6gQoRPoYKydtjy2MZuJBHG5j4ir0KIWizmmvGLg8BtACrD3oQ07kHMRvbrXKQM0Sj44_THBJNBLaBTBbJtPx8isM1x1Z-FBinDX_MwzZWvUUvHs7rzcTdu3-Ex-NvoQMZEjoa-EPUXsYK4-1MpRCaCQdxcVWigBHIAVAF4Md3KtxcSxM17Eictw060PxcKt0hbUkoQOarmq8dPQUcbilmsypLnv8lZ-ATnfsZfu7mCxsrgsKAD7rETMKfHij1964FVhmPZr4O- -RpgOskaGpZe6LFtEJhn2LJpKP91k_4HEXVC3ZZUCY5fnhC7aG3_GLjad8GOFTG377AIcqr1UdHOyimMBC2wIxFGJxlzgwSUzUbYFf_C20m7vwOt8zgLXnCcTFEYmvlod4zCYfMFXkABcg9XfwPhSA11cYvKoKiQyIrJA-xx0if7q9ZtgRg_5oHopgNbv1dZveRVt7cK9yFXd1iNJsshZdl9XivWVSXaaalFrjfMa1pcppgxMqlzrJIC1PzVjZOJA4UVzGpFmF0egiBru3CNGMZ0llAZAlXTvBxU8v_8BiOlZMNWLrHcitVYXYTtcBWsgXBwFq0ZEmW7zfdL6EBFnHNLmGH5zAbG32-2yO9Og7EkU90RBSjT6hvESfLhuhNd7Mj8a0b0psMqL-CWepxjw8SUAlRkrgT4bvqjfjb2dRPxbABShgLcjpTUVdsQiZJb4c48Wo1ZS5HfC1Ow_D21IWyF_NKuoOHAHChmjnvyr3yy1AHpL0YHLa4Uo1sqe6rGqB__VF_sz_TlVuLKQ1kkFVYT755n1uQytEarseryJCTY607UFIekJqe2-Ttw7du-fRij3CfJZEZqg74nrDYgJ4u_L5qNSEWTDQHGuRryQpbGYxbMMIxCbXDU1ae_yEmWucf5hdYD4fxu4WuUm7fwm9MOEX64ihN9B_UfqoETunbXy0Pu1_eaEE4NmfLadWmEzN6rWol0OJubuR8Mk3XUasXS0nuxvIRq4mwzzbjQQs7gR3h-smD3BukokdhsgVlbZU7R1jf_lvHRD-IsSpL3LBAHOJ6cq1PMm1pzMwW4Q90ZpyxniUVdGHE-2RC2RveytNNizZOkce3U7ULVovwwtJCkcPTIE0OX1PS66P9oJWGIEA_wtR3dzgp_03jz2ncE1-z5-ui64JX_aGQdlbGp99JXCLcLPturWtgwr48lbS4xAtHwF6kVzDvIA-EfBYAOpJw2TRdTeE_LFA1SkR84nFHyCl91IG5MXOtobR24lJ4RMlUve3N3ztsk1NuWr4Qe_m40]--></g></svg>