<svg xmlns="http://www.w3.org/2000/svg" xmlns:xlink="http://www.w3.org/1999/xlink" contentStyleType="text/css" height="755px" preserveAspectRatio="none" style="width:1395px;height:755px;background:#FFFFFF;" version="1.1" viewBox="0 0 1395 755" width="1395px" zoomAndPan="magnify"><title>Onboarding - CIBLE (Automatis&#195;&#169;)</title><defs/><g><text fill="#000000" font-family="sans-serif" font-size="14" font-weight="bold" lengthAdjust="spacing" textLength="235.8535" x="578.5422" y="34.5332">Onboarding - CIBLE (Automatis&#195;&#169;)</text><rect fill="none" height="22.6406" style="stroke:none;stroke-width:1;" width="1362.938" x="15" y="51.0645"/><ellipse cx="113.1221" cy="88.7051" fill="#222222" rx="10" ry="10" style="stroke:#222222;stroke-width:1;"/><rect fill="#F1F1F1" height="35.0938" rx="12.5" ry="12.5" style="stroke:#181818;stroke-width:0.5;" width="132.0664" x="47.0889" y="118.7051"/><text fill="#000000" font-family="sans-serif" font-size="12" lengthAdjust="spacing" textLength="112.0664" x="57.0889" y="141.1621">Candidat Signe Offre</text><rect fill="#F1F1F1" height="35.0938" rx="12.5" ry="12.5" style="stroke:#181818;stroke-width:0.5;" width="184.2441" x="21" y="173.7988"/><text fill="#000000" font-family="sans-serif" font-size="12" lengthAdjust="spacing" textLength="164.2441" x="31" y="196.2559">RH clique "Cr&#195;&#169;er Employ&#195;&#169;"</text><rect fill="#F1F1F1" height="35.0938" rx="12.5" ry="12.5" style="stroke:#181818;stroke-width:0.5;" width="179.0762" x="23.584" y="228.8926"/><text fill="#000000" font-family="sans-serif" font-size="12" lengthAdjust="spacing" textLength="159.0762" x="33.584" y="251.3496">Odoo cr&#195;&#169;e Fiche Employ&#195;&#169;</text><line style="stroke:#000000;stroke-width:1.5;" x1="15" x2="15" y1="51.0645" y2="743.6426"/><rect fill="#555555" height="6" rx="2.5" ry="2.5" style="stroke:#555555;stroke-width:1;" width="772.2207" x="215.2441" y="283.9863"/><rect fill="#F1F1F1" height="35.0938" rx="12.5" ry="12.5" style="stroke:#181818;stroke-width:0.5;" width="146.8613" x="227.2441" y="309.9863"/><text fill="#000000" font-family="sans-serif" font-size="12" lengthAdjust="spacing" textLength="126.8613" x="237.2441" y="332.4434">Notif IT (Pr&#195;&#169;parer PC)</text><rect fill="#F1F1F1" height="35.0938" rx="12.5" ry="12.5" style="stroke:#181818;stroke-width:0.5;" width="192.9219" x="384.1055" y="309.9863"/><text fill="#000000" font-family="sans-serif" font-size="12" lengthAdjust="spacing" textLength="172.9219" x="394.1055" y="332.4434">Notif Logistique (EPI/V&#195;&#169;hicule)</text><rect fill="#F1F1F1" height="35.0938" rx="12.5" ry="12.5" style="stroke:#181818;stroke-width:0.5;" width="215.0703" x="587.0273" y="309.9863"/><text fill="#000000" font-family="sans-serif" font-size="12" lengthAdjust="spacing" textLength="195.0703" x="597.0273" y="332.4434">Notif Manager (Pr&#195;&#169;parer Arriv&#195;&#169;e)</text><rect fill="#F1F1F1" height="35.0938" rx="12.5" ry="12.5" style="stroke:#181818;stroke-width:0.5;" width="163.3672" x="812.0977" y="309.9863"/><text fill="#000000" font-family="sans-serif" font-size="12" lengthAdjust="spacing" textLength="143.3672" x="822.0977" y="332.4434">Notif RH (Contrat &amp; DPAE)</text><rect fill="#555555" height="6" rx="2.5" ry="2.5" style="stroke:#555555;stroke-width:1;" width="772.2207" x="215.2441" y="365.0801"/><line style="stroke:#000000;stroke-width:1.5;" x1="209.2441" x2="209.2441" y1="51.0645" y2="743.6426"/><rect fill="#F1F1F1" height="35.0938" rx="12.5" ry="12.5" style="stroke:#181818;stroke-width:0.5;" width="148.9063" x="1007.3906" y="391.0801"/><text fill="#000000" font-family="sans-serif" font-size="12" lengthAdjust="spacing" textLength="128.9063" x="1017.3906" y="413.5371">Sync Nouveau Salari&#195;&#169;</text><rect fill="#F1F1F1" height="35.0938" rx="12.5" ry="12.5" style="stroke:#181818;stroke-width:0.5;" width="146.8906" x="1008.3984" y="446.1738"/><text fill="#000000" font-family="sans-serif" font-size="12" lengthAdjust="spacing" textLength="126.8906" x="1018.3984" y="468.6309">Cr&#195;&#169;ation Dossier Paie</text><rect fill="#F1F1F1" height="35.0938" rx="12.5" ry="12.5" style="stroke:#181818;stroke-width:0.5;" width="168.7578" x="997.4648" y="501.2676"/><text fill="#000000" font-family="sans-serif" font-size="12" lengthAdjust="spacing" textLength="148.7578" x="1007.4648" y="523.7246">Invitation Espace Personnel</text><line style="stroke:#000000;stroke-width:1.5;" x1="991.4648" x2="991.4648" y1="51.0645" y2="743.6426"/><rect fill="#F1F1F1" height="35.0938" rx="12.5" ry="12.5" style="stroke:#181818;stroke-width:0.5;" width="171.5527" x="1188.5537" y="556.3613"/><text fill="#000000" font-family="sans-serif" font-size="12" lengthAdjust="spacing" textLength="151.5527" x="1198.5537" y="578.8184">Re&#195;&#167;oit Mat&#195;&#169;riel &amp; Acc&#195;&#168;s</text><rect fill="#F1F1F1" height="35.0938" rx="12.5" ry="12.5" style="stroke:#181818;stroke-width:0.5;" width="115.3965" x="1216.6318" y="611.4551"/><text fill="#000000" font-family="sans-serif" font-size="12" lengthAdjust="spacing" textLength="95.3965" x="1226.6318" y="633.9121">Installe App Odoo</text><rect fill="#F1F1F1" height="35.0938" rx="12.5" ry="12.5" style="stroke:#181818;stroke-width:0.5;" width="196.2148" x="1176.2227" y="666.5488"/><text fill="#000000" font-family="sans-serif" font-size="12" lengthAdjust="spacing" textLength="176.2148" x="1186.2227" y="689.0059">Compl&#195;&#168;te Dossier (RIB, S&#195;&#169;cu)</text><ellipse cx="1274.3301" cy="732.6426" fill="none" rx="11" ry="11" style="stroke:#222222;stroke-width:1;"/><ellipse cx="1274.3301" cy="732.6426" fill="#222222" rx="6" ry="6" style="stroke:#222222;stroke-width:1;"/><line style="stroke:#000000;stroke-width:1.5;" x1="1170.2227" x2="1170.2227" y1="51.0645" y2="743.6426"/><line style="stroke:#000000;stroke-width:1.5;" x1="1376.4375" x2="1376.4375" y1="51.0645" y2="743.6426"/><line style="stroke:#181818;stroke-width:1;" x1="113.1221" x2="113.1221" y1="98.7051" y2="118.7051"/><polygon fill="#181818" points="109.1221,108.7051,113.1221,118.7051,117.1221,108.7051,113.1221,112.7051" style="stroke:#181818;stroke-width:1;"/><line style="stroke:#181818;stroke-width:1;" x1="113.1221" x2="113.1221" y1="153.7988" y2="173.7988"/><polygon fill="#181818" points="109.1221,163.7988,113.1221,173.7988,117.1221,163.7988,113.1221,167.7988" style="stroke:#181818;stroke-width:1;"/><line style="stroke:#181818;stroke-width:1;" x1="113.1221" x2="113.1221" y1="208.8926" y2="228.8926"/><polygon fill="#181818" points="109.1221,218.8926,113.1221,228.8926,117.1221,218.8926,113.1221,222.8926" style="stroke:#181818;stroke-width:1;"/><line style="stroke:#181818;stroke-width:1;" x1="300.6748" x2="300.6748" y1="289.9863" y2="309.9863"/><polygon fill="#181818" points="296.6748,299.9863,300.6748,309.9863,304.6748,299.9863,300.6748,303.9863" style="stroke:#181818;stroke-width:1;"/><line style="stroke:#181818;stroke-width:1;" x1="480.5664" x2="480.5664" y1="289.9863" y2="309.9863"/><polygon fill="#181818" points="476.5664,299.9863,480.5664,309.9863,484.5664,299.9863,480.5664,303.9863" style="stroke:#181818;stroke-width:1;"/><line style="stroke:#181818;stroke-width:1;" x1="694.5625" x2="694.5625" y1="289.9863" y2="309.9863"/><polygon fill="#181818" points="690.5625,299.9863,694.5625,309.9863,698.5625,299.9863,694.5625,303.9863" style="stroke:#181818;stroke-width:1;"/><line style="stroke:#181818;stroke-width:1;" x1="893.7813" x2="893.7813" y1="289.9863" y2="309.9863"/><polygon fill="#181818" points="889.7813,299.9863,893.7813,309.9863,897.7813,299.9863,893.7813,303.9863" style="stroke:#181818;stroke-width:1;"/><line style="stroke:#181818;stroke-width:1;" x1="300.6748" x2="300.6748" y1="345.0801" y2="365.0801"/><polygon fill="#181818" points="296.6748,355.0801,300.6748,365.0801,304.6748,355.0801,300.6748,359.0801" style="stroke:#181818;stroke-width:1;"/><line style="stroke:#181818;stroke-width:1;" x1="480.5664" x2="480.5664" y1="345.0801" y2="365.0801"/><polygon fill="#181818" points="476.5664,355.0801,480.5664,365.0801,484.5664,355.0801,480.5664,359.0801" style="stroke:#181818;stroke-width:1;"/><line style="stroke:#181818;stroke-width:1;" x1="694.5625" x2="694.5625" y1="345.0801" y2="365.0801"/><polygon fill="#181818" points="690.5625,355.0801,694.5625,365.0801,698.5625,355.0801,694.5625,359.0801" style="stroke:#181818;stroke-width:1;"/><line style="stroke:#181818;stroke-width:1;" x1="893.7813" x2="893.7813" y1="345.0801" y2="365.0801"/><polygon fill="#181818" points="889.7813,355.0801,893.7813,365.0801,897.7813,355.0801,893.7813,359.0801" style="stroke:#181818;stroke-width:1;"/><line style="stroke:#181818;stroke-width:1;" x1="1081.8438" x2="1081.8438" y1="426.1738" y2="446.1738"/><polygon fill="#181818" points="1077.8438,436.1738,1081.8438,446.1738,1085.8438,436.1738,1081.8438,440.1738" style="stroke:#181818;stroke-width:1;"/><line style="stroke:#181818;stroke-width:1;" x1="1081.8438" x2="1081.8438" y1="481.2676" y2="501.2676"/><polygon fill="#181818" points="1077.8438,491.2676,1081.8438,501.2676,1085.8438,491.2676,1081.8438,495.2676" style="stroke:#181818;stroke-width:1;"/><line style="stroke:#181818;stroke-width:1;" x1="1274.3301" x2="1274.3301" y1="591.4551" y2="611.4551"/><polygon fill="#181818" points="1270.3301,601.4551,1274.3301,611.4551,1278.3301,601.4551,1274.3301,605.4551" style="stroke:#181818;stroke-width:1;"/><line style="stroke:#181818;stroke-width:1;" x1="1274.3301" x2="1274.3301" y1="646.5488" y2="666.5488"/><polygon fill="#181818" points="1270.3301,656.5488,1274.3301,666.5488,1278.3301,656.5488,1274.3301,660.5488" style="stroke:#181818;stroke-width:1;"/><line style="stroke:#181818;stroke-width:1;" x1="1274.3301" x2="1274.3301" y1="701.6426" y2="721.6426"/><polygon fill="#181818" points="1270.3301,711.6426,1274.3301,721.6426,1278.3301,711.6426,1274.3301,715.6426" style="stroke:#181818;stroke-width:1;"/><line style="stroke:#181818;stroke-width:1;" x1="113.1221" x2="113.1221" y1="263.9863" y2="268.9863"/><line style="stroke:#181818;stroke-width:1;" x1="113.1221" x2="592.3545" y1="268.9863" y2="268.9863"/><line style="stroke:#181818;stroke-width:1;" x1="592.3545" x2="592.3545" y1="268.9863" y2="283.9863"/><polygon fill="#181818" points="588.3545,273.9863,592.3545,283.9863,596.3545,273.9863,592.3545,277.9863" style="stroke:#181818;stroke-width:1;"/><line style="stroke:#181818;stroke-width:1;" x1="592.3545" x2="592.3545" y1="371.0801" y2="376.0801"/><line style="stroke:#181818;stroke-width:1;" x1="592.3545" x2="1081.8438" y1="376.0801" y2="376.0801"/><line style="stroke:#181818;stroke-width:1;" x1="1081.8438" x2="1081.8438" y1="376.0801" y2="391.0801"/><polygon fill="#181818" points="1077.8438,381.0801,1081.8438,391.0801,1085.8438,381.0801,1081.8438,385.0801" style="stroke:#181818;stroke-width:1;"/><line style="stroke:#181818;stroke-width:1;" x1="1081.8438" x2="1081.8438" y1="536.3613" y2="541.3613"/><line style="stroke:#181818;stroke-width:1;" x1="1081.8438" x2="1274.3301" y1="541.3613" y2="541.3613"/><line style="stroke:#181818;stroke-width:1;" x1="1274.3301" x2="1274.3301" y1="541.3613" y2="556.3613"/><polygon fill="#181818" points="1270.3301,546.3613,1274.3301,556.3613,1278.3301,546.3613,1274.3301,550.3613" style="stroke:#181818;stroke-width:1;"/><text fill="#000000" font-family="sans-serif" font-size="18" lengthAdjust="spacing" textLength="164.0654" x="30.0894" y="69.75">Recrutement (Odoo)</text><text fill="#000000" font-family="sans-serif" font-size="18" lengthAdjust="spacing" textLength="210.0938" x="495.3076" y="69.75">Orchestration (Odoo Plan)</text><text fill="#000000" font-family="sans-serif" font-size="18" lengthAdjust="spacing" textLength="104.0273" x="1028.8301" y="69.75">Paie (PayFit)</text><text fill="#000000" font-family="sans-serif" font-size="18" lengthAdjust="spacing" textLength="151.2949" x="1197.6826" y="69.75">Employ&#195;&#169; (Jour J)</text><!--SRC=[TLBDJkCm4BxdAKOSLgcqA-xfAOIW3G8QjOZxhEE64QudQqygLUgDXu5zZUN562SIFuSUxVdc-xE5n5bO-J-CeIFVmo-ecekR6l9o5DwXK7nx_lzlaMN7jJLX5BkpNY1VTSoBOnO5WsH5XRwZ3WKsr7kbssw3NMR5-ZSOHtz72sTLI3GsGBqR71_IuKmHYGRCF8ChCe_s2s2fegkWTr626c4_oqBhqAlsbiDJ1b3SiT0Mcdl8subemA0wRRLOJX307ib_0c-ufoYJgxnkc_E7jFD8PdJsnCOjUkoLyXj_6GBj9zydjZHyNh5Frk47NBPbhK3hEvXyPySMIHsqUBWYqJJ5vk0DtF6ujpZ21Xq6caievkxc1YuvHahnT5j7ZT-Jp9Cw3cWij3P4zjwwrDvdbv1VynZWEYcjhTwyC8acapGCP9rwB8tHqskSUFLbdVwCSXWWbPviiB8bWDWF6_cwkVW9cqHYHiqNXOVi7G00]--></g></svg>