<svg xmlns="http://www.w3.org/2000/svg" xmlns:xlink="http://www.w3.org/1999/xlink" contentStyleType="text/css" height="938px" preserveAspectRatio="none" style="width:842px;height:938px;background:#FFFFFF;" version="1.1" viewBox="0 0 842 938" width="842px" zoomAndPan="magnify"><title>Machine a Etats - Cycle de Vie Intervention SAV</title><defs/><g><text fill="#000000" font-family="sans-serif" font-size="14" font-weight="bold" lengthAdjust="spacing" textLength="317.4268" x="255.5884" y="24.5332">Machine a Etats - Cycle de Vie Intervention SAV</text><ellipse cx="632" cy="303.1094" fill="#222222" rx="10" ry="10" style="stroke:#222222;stroke-width:1;"/><g id="A_Planifier"><rect fill="#F1F1F1" height="82.8906" rx="12.5" ry="12.5" style="stroke:#181818;stroke-width:0.5;" width="114.7168" x="558.5" y="469.6094"/><line style="stroke:#181818;stroke-width:0.5;" x1="558.5" x2="673.2168" y1="497.2188" y2="497.2188"/><text fill="#000000" font-family="sans-serif" font-size="14" lengthAdjust="spacing" textLength="67.7031" x="582.0068" y="489.1426">A_Planifier</text><text fill="#000000" font-family="sans-serif" font-size="12" lengthAdjust="spacing" textLength="94.7168" x="563.5" y="514.6758">Statut : A planifier</text><text fill="#000000" font-family="sans-serif" font-size="12" lengthAdjust="spacing" textLength="88.0547" x="563.5" y="529.7695">Assignee a : null</text><text fill="#000000" font-family="sans-serif" font-size="12" lengthAdjust="spacing" textLength="54.0293" x="563.5" y="544.8633">Date : null</text></g><g id="Planifiee"><rect fill="#F1F1F1" height="82.8906" rx="12.5" ry="12.5" style="stroke:#181818;stroke-width:0.5;" width="138.7637" x="467.5" y="646.6094"/><line style="stroke:#181818;stroke-width:0.5;" x1="467.5" x2="606.2637" y1="674.2188" y2="674.2188"/><text fill="#000000" font-family="sans-serif" font-size="14" lengthAdjust="spacing" textLength="53.7031" x="510.0303" y="666.1426">Planifiee</text><text fill="#000000" font-family="sans-serif" font-size="12" lengthAdjust="spacing" textLength="87.3867" x="472.5" y="691.6758">Statut : Planifiee</text><text fill="#000000" font-family="sans-serif" font-size="12" lengthAdjust="spacing" textLength="108.7383" x="472.5" y="706.7695">Assignee a : Gaetan</text><text fill="#000000" font-family="sans-serif" font-size="12" lengthAdjust="spacing" textLength="118.7637" x="472.5" y="721.8633">Date : 26/11/2025 14h</text></g><g id="En_Route"><rect fill="#F1F1F1" height="97.9844" rx="12.5" ry="12.5" style="stroke:#181818;stroke-width:0.5;" width="133.918" x="291" y="828.6094"/><line style="stroke:#181818;stroke-width:0.5;" x1="291" x2="424.918" y1="856.2188" y2="856.2188"/><text fill="#000000" font-family="sans-serif" font-size="14" lengthAdjust="spacing" textLength="62.2686" x="326.8247" y="848.1426">En_Route</text><text fill="#000000" font-family="sans-serif" font-size="12" lengthAdjust="spacing" textLength="60.0234" x="296" y="873.6758">GPS active</text><text fill="#000000" font-family="sans-serif" font-size="12" lengthAdjust="spacing" textLength="88.0254" x="296" y="888.7695">Trajet vers client</text><text fill="#000000" font-family="sans-serif" font-size="12" lengthAdjust="spacing" textLength="90.709" x="296" y="903.8633">Notification client</text><text fill="#000000" font-family="sans-serif" font-size="12" lengthAdjust="spacing" textLength="113.918" x="296" y="918.957">"Technicien en route"</text></g><g id="En_Cours"><rect fill="#F1F1F1" height="97.9844" rx="12.5" ry="12.5" style="stroke:#181818;stroke-width:0.5;" width="136.0684" x="234" y="49.6094"/><line style="stroke:#181818;stroke-width:0.5;" x1="234" x2="370.0684" y1="77.2188" y2="77.2188"/><text fill="#000000" font-family="sans-serif" font-size="14" lengthAdjust="spacing" textLength="62.2549" x="270.9067" y="69.1426">En_Cours</text><text fill="#000000" font-family="sans-serif" font-size="12" lengthAdjust="spacing" textLength="88.7109" x="239" y="94.6758">Statut : En cours</text><text fill="#000000" font-family="sans-serif" font-size="12" lengthAdjust="spacing" textLength="116.0684" x="239" y="109.7695">Heure arrivee : 14h05</text><text fill="#000000" font-family="sans-serif" font-size="12" lengthAdjust="spacing" textLength="109.4063" x="239" y="124.8633">Duree prevue : 1h30</text><text fill="#000000" font-family="sans-serif" font-size="12" lengthAdjust="spacing" textLength="95.373" x="239" y="139.957">Chronometre actif</text></g><g id="Terminee_OK"><rect fill="#F1F1F1" height="113.0781" rx="12.5" ry="12.5" style="stroke:#181818;stroke-width:0.5;" width="133.4141" x="27.5" y="246.6094"/><line style="stroke:#181818;stroke-width:0.5;" x1="27.5" x2="160.9141" y1="274.2188" y2="274.2188"/><text fill="#000000" font-family="sans-serif" font-size="14" lengthAdjust="spacing" textLength="87.1445" x="50.6348" y="266.1426">Terminee_OK</text><text fill="#000000" font-family="sans-serif" font-size="12" lengthAdjust="spacing" textLength="92.0391" x="32.5" y="291.6758">Statut : Terminee</text><text fill="#000000" font-family="sans-serif" font-size="12" lengthAdjust="spacing" textLength="113.4141" x="32.5" y="306.7695">Heure depart : 15h40</text><text fill="#000000" font-family="sans-serif" font-size="12" lengthAdjust="spacing" textLength="102.0645" x="32.5" y="321.8633">Duree reelle : 1h35</text><text fill="#000000" font-family="sans-serif" font-size="12" lengthAdjust="spacing" textLength="74.3613" x="32.5" y="336.957">Ecart : +5 min</text><text fill="#000000" font-family="sans-serif" font-size="12" lengthAdjust="spacing" textLength="81.3633" x="32.5" y="352.0508">Conforme : Oui</text></g><g id="Facturee"><rect fill="#F1F1F1" height="82.8906" rx="12.5" ry="12.5" style="stroke:#181818;stroke-width:0.5;" width="108.0547" x="40" y="469.6094"/><line style="stroke:#181818;stroke-width:0.5;" x1="40" x2="148.0547" y1="497.2188" y2="497.2188"/><text fill="#000000" font-family="sans-serif" font-size="14" lengthAdjust="spacing" textLength="55.248" x="66.4033" y="489.1426">Facturee</text><text fill="#000000" font-family="sans-serif" font-size="12" lengthAdjust="spacing" textLength="88.0547" x="45" y="514.6758">Facture generee</text><text fill="#000000" font-family="sans-serif" font-size="12" lengthAdjust="spacing" textLength="78.0469" x="45" y="529.7695">Envoyee client</text><text fill="#000000" font-family="sans-serif" font-size="12" lengthAdjust="spacing" textLength="75.3809" x="45" y="544.8633">Statut : Payee</text></g><g id="Enquete_Envoyee"><rect fill="#F1F1F1" height="67.7969" rx="12.5" ry="12.5" style="stroke:#181818;stroke-width:0.5;" width="134.7383" x="26.5" y="654.1094"/><line style="stroke:#181818;stroke-width:0.5;" x1="26.5" x2="161.2383" y1="681.7188" y2="681.7188"/><text fill="#000000" font-family="sans-serif" font-size="14" lengthAdjust="spacing" textLength="114.4268" x="36.6558" y="673.6426">Enquete_Envoyee</text><text fill="#000000" font-family="sans-serif" font-size="12" lengthAdjust="spacing" textLength="107.3965" x="31.5" y="699.1758">Taux reponse : 40%</text><text fill="#000000" font-family="sans-serif" font-size="12" lengthAdjust="spacing" textLength="114.7383" x="31.5" y="714.2695">Note moyenne : 4.5/5</text></g><ellipse cx="224" cy="877.6094" fill="none" rx="11" ry="11" style="stroke:#222222;stroke-width:1;"/><ellipse cx="224" cy="877.6094" fill="#222222" rx="6" ry="6" style="stroke:#222222;stroke-width:1;"/><g id="Annulee"><rect fill="#F1F1F1" height="50" rx="12.5" ry="12.5" style="stroke:#181818;stroke-width:0.5;" width="71.3789" x="216.5" y="389.6094"/><line style="stroke:#181818;stroke-width:0.5;" x1="216.5" x2="287.8789" y1="417.2188" y2="417.2188"/><text fill="#000000" font-family="sans-serif" font-size="14" lengthAdjust="spacing" textLength="51.3789" x="226.5" y="409.1426">Annulee</text></g><g id="Reportee"><rect fill="#F1F1F1" height="50" rx="12.5" ry="12.5" style="stroke:#181818;stroke-width:0.5;" width="77.5928" x="709" y="278.1094"/><line style="stroke:#181818;stroke-width:0.5;" x1="709" x2="786.5928" y1="305.7188" y2="305.7188"/><text fill="#000000" font-family="sans-serif" font-size="14" lengthAdjust="spacing" textLength="57.5928" x="719" y="297.6426">Reportee</text></g><g id="elem_GMN2"><path d="M405,44.6094 L405,94.6094 L370.29,98.6094 L405,102.6094 L405,152.7188 A0,0 0 0 0 405,152.7188 L569.0762,152.7188 A0,0 0 0 0 569.0762,152.7188 L569.0762,54.6094 L559.0762,44.6094 L405,44.6094 A0,0 0 0 0 405,44.6094 " fill="#FEFFDD" style="stroke:#181818;stroke-width:0.5;"/><path d="M559.0762,44.6094 L559.0762,54.6094 L569.0762,54.6094 L559.0762,44.6094 " fill="#FEFFDD" style="stroke:#181818;stroke-width:0.5;"/><text fill="#000000" font-family="sans-serif" font-size="13" font-weight="bold" lengthAdjust="spacing" textLength="139.4009" x="411" y="63.1045">POINTAGE GPS AUTO</text><text fill="#000000" font-family="sans-serif" font-size="13" lengthAdjust="spacing" textLength="133.6626" x="411" y="79.4561">- Arrivee : GPS detecte</text><text fill="#000000" font-family="sans-serif" font-size="13" lengthAdjust="spacing" textLength="143.0762" x="411" y="95.8076">- Depart : Validation tech</text><text fill="#000000" font-family="sans-serif" font-size="13" lengthAdjust="spacing" textLength="116.3335" x="411" y="112.1592">- Calcul duree reelle</text><text fill="#000000" font-family="sans-serif" font-size="13" lengthAdjust="spacing" textLength="130.4063" x="411" y="128.5107">- Alert si &gt; 30min ecart</text><text fill="#000000" font-family="sans-serif" font-size="13" lengthAdjust="spacing" textLength="121.0625" x="411" y="144.8623">&#8594; Refacturation auto</text></g><g id="elem_GMN5"><path d="M405.5,257.1094 L405.5,299.1094 L160.74,303.1094 L405.5,307.1094 L405.5,348.8672 A0,0 0 0 0 405.5,348.8672 L586.9053,348.8672 A0,0 0 0 0 586.9053,348.8672 L586.9053,267.1094 L576.9053,257.1094 L405.5,257.1094 A0,0 0 0 0 405.5,257.1094 " fill="#FEFFDD" style="stroke:#181818;stroke-width:0.5;"/><path d="M576.9053,257.1094 L576.9053,267.1094 L586.9053,267.1094 L576.9053,257.1094 " fill="#FEFFDD" style="stroke:#181818;stroke-width:0.5;"/><text fill="#000000" font-family="sans-serif" font-size="13" font-weight="bold" lengthAdjust="spacing" textLength="119.1646" x="411.5" y="275.6045">RAPPORT DIGITAL</text><text fill="#000000" font-family="sans-serif" font-size="13" lengthAdjust="spacing" textLength="155.3018" x="411.5" y="291.9561">- 3 min (vs 12 min CERFA)</text><text fill="#000000" font-family="sans-serif" font-size="13" lengthAdjust="spacing" textLength="160.4053" x="411.5" y="308.3076">- Photos integrees (max 10)</text><text fill="#000000" font-family="sans-serif" font-size="13" lengthAdjust="spacing" textLength="138.0298" x="411.5" y="324.6592">- Signature electronique</text><text fill="#000000" font-family="sans-serif" font-size="13" lengthAdjust="spacing" textLength="142.3462" x="411.5" y="341.0107">- PDF envoye client auto</text></g><g id="elem_GMN8"><path d="M6,823.6094 L6,931.7188 A0,0 0 0 0 6,931.7188 L155.9844,931.7188 A0,0 0 0 0 155.9844,931.7188 L155.9844,833.6094 L145.9844,823.6094 L88.7,823.6094 L91.71,722.1994 L80.7,823.6094 L6,823.6094 A0,0 0 0 0 6,823.6094 " fill="#FEFFDD" style="stroke:#181818;stroke-width:0.5;"/><path d="M145.9844,823.6094 L145.9844,833.6094 L155.9844,833.6094 L145.9844,823.6094 " fill="#FEFFDD" style="stroke:#181818;stroke-width:0.5;"/><text fill="#000000" font-family="sans-serif" font-size="13" font-weight="bold" lengthAdjust="spacing" textLength="103.2827" x="12" y="842.1045">ENQUETE AUTO</text><text fill="#000000" font-family="sans-serif" font-size="13" lengthAdjust="spacing" textLength="128.9844" x="12" y="858.4561">- J+2 post-intervention</text><text fill="#000000" font-family="sans-serif" font-size="13" lengthAdjust="spacing" textLength="74.4326" x="12" y="874.8076">- 5 questions</text><text fill="#000000" font-family="sans-serif" font-size="13" lengthAdjust="spacing" textLength="88.5244" x="12" y="891.1592">- Si note &lt; 3/5 :</text><text fill="#000000" font-family="sans-serif" font-size="13" lengthAdjust="spacing" textLength="80.9263" x="19.2236" y="907.5107">Alert Clothilde</text><text fill="#000000" font-family="sans-serif" font-size="13" lengthAdjust="spacing" textLength="103.3081" x="19.2236" y="923.8623">(action corrective)</text></g><!--link *start* to A_Planifier--><g id="link_*start*_A_Planifier"><path d="M629.35,312.9894 C624.9,328.3994 616.12,361.1894 613,389.6094 C610.58,411.6994 612.53,417.3894 613,439.6094 C613.21,449.2894 613.3187,453.7046 613.7287,463.4846 " fill="none" id="*start*-to-A_Planifier" style="stroke:#181818;stroke-width:1;"/><polygon fill="#181818" points="613.98,469.4794,617.5995,460.3197,613.7706,464.4838,609.6065,460.6548,613.98,469.4794" style="stroke:#181818;stroke-width:1;"/><text fill="#000000" font-family="sans-serif" font-size="13" lengthAdjust="spacing" textLength="77.3208" x="628.46" y="412.1045">Contrat signe</text><text fill="#000000" font-family="sans-serif" font-size="13" lengthAdjust="spacing" textLength="106.2407" x="614" y="428.4561">ou demande client</text></g><!--link A_Planifier to Planifiee--><g id="link_A_Planifier_Planifiee"><path d="M597.68,552.6994 C584.96,580.8694 570.5594,612.7811 557.8294,640.9711 " fill="none" id="A_Planifier-to-Planifiee" style="stroke:#181818;stroke-width:1;"/><polygon fill="#181818" points="555.36,646.4394,562.7096,639.8832,557.4178,641.8825,555.4185,636.5907,555.36,646.4394" style="stroke:#181818;stroke-width:1;"/><text fill="#000000" font-family="sans-serif" font-size="13" lengthAdjust="spacing" textLength="93.2217" x="587.7168" y="597.1045">Clothilde affecte</text><text fill="#000000" font-family="sans-serif" font-size="13" lengthAdjust="spacing" textLength="98.6553" x="585" y="613.4561">technicien + date</text></g><!--link Planifiee to En_Route--><g id="link_Planifiee_En_Route"><path d="M498.16,729.7894 C470.5,758.7694 437.3628,793.4791 408.2028,824.0291 " fill="none" id="Planifiee-to-En_Route" style="stroke:#181818;stroke-width:1;"/><polygon fill="#181818" points="404.06,828.3694,413.1676,824.6209,407.5123,824.7525,407.3806,819.0972,404.06,828.3694" style="stroke:#181818;stroke-width:1;"/><text fill="#000000" font-family="sans-serif" font-size="13" lengthAdjust="spacing" textLength="94.6626" x="470" y="774.1045">Gaetan demarre</text><text fill="#000000" font-family="sans-serif" font-size="13" lengthAdjust="spacing" textLength="85.2808" x="474.6909" y="790.4561">tournee (8h30)</text></g><!--link En_Route to En_Cours--><g id="link_En_Route_En_Cours"><path d="M355.61,828.4494 C353.94,790.5894 352,736.4994 352,689.1094 C352,302.1094 352,302.1094 352,302.1094 C352,248.1494 337.0394,194.0735 322.8794,153.5535 " fill="none" id="En_Route-to-En_Cours" style="stroke:#181818;stroke-width:1;"/><polygon fill="#181818" points="320.9,147.8894,320.093,157.7051,322.5495,152.6095,327.6451,155.066,320.9,147.8894" style="stroke:#181818;stroke-width:1;"/><text fill="#000000" font-family="sans-serif" font-size="13" lengthAdjust="spacing" textLength="82.3862" x="353" y="508.6045">Pointage GPS</text><text fill="#000000" font-family="sans-serif" font-size="13" lengthAdjust="spacing" textLength="77.3081" x="355.5391" y="524.9561">arrivee (auto)</text></g><!--link En_Cours to Terminee_OK--><g id="link_En_Cours_Terminee_OK"><path d="M233.99,105.8094 C183.9,114.3494 118.99,134.5994 86,182.6094 C73.4,200.9494 71.7725,218.9063 75.2625,240.4963 " fill="none" id="En_Cours-to-Terminee_OK" style="stroke:#181818;stroke-width:1;"/><polygon fill="#181818" points="76.22,246.4194,78.7325,236.8964,75.4221,241.4834,70.8351,238.173,76.22,246.4194" style="stroke:#181818;stroke-width:1;"/><text fill="#000000" font-family="sans-serif" font-size="13" lengthAdjust="spacing" textLength="83.8271" x="105.6082" y="197.1045">Rapport digital</text><text fill="#000000" font-family="sans-serif" font-size="13" lengthAdjust="spacing" textLength="121.0435" x="87" y="213.4561">complete + signature</text></g><!--link Terminee_OK to Facturee--><g id="link_Terminee_OK_Facturee"><path d="M89.36,359.8094 C87.88,384.2894 86.89,413.3794 88,439.6094 C88.41,449.3094 88.6448,453.7498 89.4548,463.5298 " fill="none" id="Terminee_OK-to-Facturee" style="stroke:#181818;stroke-width:1;"/><polygon fill="#181818" points="89.95,469.5094,93.1935,460.2099,89.5373,464.5264,85.2208,460.8702,89.95,469.5094" style="stroke:#181818;stroke-width:1;"/><text fill="#000000" font-family="sans-serif" font-size="13" lengthAdjust="spacing" textLength="93.9453" x="96.5791" y="412.1045">Facturation auto</text><text fill="#000000" font-family="sans-serif" font-size="13" lengthAdjust="spacing" textLength="109.1035" x="89" y="428.4561">(integration SAGE)</text></g><!--link Facturee to Enquete_Envoyee--><g id="link_Facturee_Enquete_Envoyee"><path d="M94,552.6994 C94,583.4894 94,619.2994 94,648.0694 " fill="none" id="Facturee-to-Enquete_Envoyee" style="stroke:#181818;stroke-width:1;"/><polygon fill="#181818" points="94,654.0694,98,645.0694,94,649.0694,90,645.0694,94,654.0694" style="stroke:#181818;stroke-width:1;"/><text fill="#000000" font-family="sans-serif" font-size="13" lengthAdjust="spacing" textLength="64.6636" x="120.4858" y="597.1045">J+2 : Email</text><text fill="#000000" font-family="sans-serif" font-size="13" lengthAdjust="spacing" textLength="115.6353" x="95" y="613.4561">enquete satisfaction</text></g><!--link Enquete_Envoyee to *end*--><g id="link_Enquete_Envoyee_*end*"><path d="M102.62,722.3594 C109.34,744.0594 120.21,772.2094 136,793.6094 C148.57,810.6394 157.41,809.2894 173,823.6094 C189.55,838.8094 203.4313,853.704 213.0013,864.314 " fill="none" id="Enquete_Envoyee-to-*end*" style="stroke:#181818;stroke-width:1;"/><polygon fill="#181818" points="217.02,868.7694,213.9623,859.4072,213.6711,865.0566,208.0218,864.7654,217.02,868.7694" style="stroke:#181818;stroke-width:1;"/><text fill="#000000" font-family="sans-serif" font-size="13" lengthAdjust="spacing" textLength="88.8672" x="137" y="782.1045">Cycle complete</text></g><!--link En_Cours to Annulee--><g id="link_En_Cours_Annulee"><path d="M264.83,147.8494 C258.31,158.7294 252.5,170.6294 249,182.6094 C227.75,255.3694 238.4589,340.7022 246.0689,383.4722 " fill="none" id="En_Cours-to-Annulee" style="stroke:#181818;stroke-width:1;"/><polygon fill="#181818" points="247.12,389.3794,249.4816,379.8178,246.2441,384.4567,241.6053,381.2193,247.12,389.3794" style="stroke:#181818;stroke-width:1;"/><text fill="#000000" font-family="sans-serif" font-size="13" lengthAdjust="spacing" textLength="75.8862" x="250" y="197.1045">Client annule</text><text fill="#000000" font-family="sans-serif" font-size="13" lengthAdjust="spacing" textLength="31.7764" x="272.0549" y="213.4561">(rare)</text></g><!--link Annulee to *end*--><g id="link_Annulee_*end*"><path d="M250.7,439.9394 C247.47,499.9994 238.71,660.1194 230,793.6094 C228.29,819.8494 226.4346,844.7466 225.2446,860.4066 " fill="none" id="Annulee-to-*end*" style="stroke:#181818;stroke-width:1;"/><polygon fill="#181818" points="224.79,866.3894,229.4604,857.7183,225.1689,861.4037,221.4834,857.1122,224.79,866.3894" style="stroke:#181818;stroke-width:1;"/></g><!--link En_Cours to Reportee--><g id="link_En_Cours_Reportee"><path d="M370.38,144.0594 C375.92,147.0994 381.5,149.9894 387,152.6094 C502.85,207.7994 544.29,191.1194 660,246.6094 C678.57,255.5094 693.0505,264.1721 708.9505,274.7221 " fill="none" id="En_Cours-to-Reportee" style="stroke:#181818;stroke-width:1;"/><polygon fill="#181818" points="713.95,278.0394,708.6622,269.7304,709.7837,275.275,704.2391,276.3964,713.95,278.0394" style="stroke:#181818;stroke-width:1;"/><text fill="#000000" font-family="sans-serif" font-size="13" lengthAdjust="spacing" textLength="115.6289" x="584" y="197.1045">Probleme technique</text><text fill="#000000" font-family="sans-serif" font-size="13" lengthAdjust="spacing" textLength="108.3989" x="587.615" y="213.4561">(piece manquante)</text></g><!--link Reportee to A_Planifier--><g id="link_Reportee_A_Planifier"><path d="M749.51,328.2394 C750.13,357.0994 747.31,405.7294 725,439.6094 C712.48,458.6194 698.0516,470.5743 678.9016,481.7543 " fill="none" id="Reportee-to-A_Planifier" style="stroke:#181818;stroke-width:1;"/><polygon fill="#181818" points="673.72,484.7794,683.5091,483.6962,678.038,482.2585,679.4757,476.7874,673.72,484.7794" style="stroke:#181818;stroke-width:1;"/><text fill="#000000" font-family="sans-serif" font-size="13" lengthAdjust="spacing" textLength="89.6035" x="745" y="420.1045">Re-planification</text></g><!--SRC=[RLLjRkD63FslKn0B570SkB6Tg2YCOW71Lj9qszYrjVbJ5y6iJ5bJZ6RSqSZOlK0Fq2FkIPOSVKHM5h01YO_aF99lA2UTGlX3fBdK209Y9rm94rX-ISb-G7YM28_QeJsZTj9es4NFGV3N-6-OJDv3zB9HGijCeeK5B8rsLZWevL7ZNfkA4XH2KvPKIGeFWal_7HrMENg8uDIQ1ovHwPCnjGNeIga1lX8EM-G2OdRj6tiibN6vLCH5P1ccZlWvJ7CjKs86rt2WH47GZ-ZOTSOB-8BPWq0dz0NUC9l_T3ERtSodyn1cTtd_16OOwvUjgRnZdS9tp5fcPohBwKS_vxVJgo3eksvs858dpzYt9bRyWmxEQCkstptqoJWwDXL-XZMyr- -IrnRGpxBlkzvH3SKbKIcv4KPg9ux81FQQQ1838YWgPsg2hMFNkfZEObiV_1KhIrrheXVSbcdOTrWHZd2oUAuyJlNtuMLkZJO5Eiv2NSXwHpFX16r1OiQNzGVotehJoLW71tcKJgYzJarnKaZ5NNkT4b5BWxyCwlYtvW5Ubt30ax3iDGlpk-d0fIw2_aerHOG3ZpYjewz38Ei0fAkK6LjmwBgIb_ouo7kgt9-mQ1xhmV8ezdf4Oy9ZOzf53p5Dvqq0mX4ragKFnVfilc1tNtl8wsqGvD3BLslatufQ-jA6B-2twpcdAuIabcCDGqcCoendPZGFRHYKYEepjUnaTCclTzCVlkD4GaOew4Lhx_HZU1E-JSQiU4ajcatMJdsWbKZJvcZs0rSCmXkeXLPOfBQr3as-GVWMMLi-VcFD9uKqi7gh41jASfAO4bb1v0IDXF9r4M-tvnOdpHQiRsaGQ2xLocFkm6JTHGm0nkFD-l4feSdwNH1zJDRZCTad47NNYe43LKohpYEhLgtFGib3hGtcwi6bK6cbuD0JRPrEeULz3k_XTae216JH4lJrl_-9S3QGNe3w0CowuQumyzHxwlNijz5cizuci7fyU4oYtnlkjtmFO7GkOJRtZyjuUnzTUMoJ6sTAg8MDMCAe49zXDgtHNNkH0HKLJFk11r07hkvfjR4e6b5_b-WduvmfwYvV2CdJZP_-_1WdSR_FhE-JATr4zhwD7Wc14fJyMZRS_47m2zpUXB0W6pHjxJv9tZQgxmKfbTQ_N-vNhoo_0G00]--></g></svg>