<svg xmlns="http://www.w3.org/2000/svg" xmlns:xlink="http://www.w3.org/1999/xlink" contentStyleType="text/css" height="1755px" preserveAspectRatio="none" style="width:1461px;height:1755px;background:#FFFFFF;" version="1.1" viewBox="0 0 1461 1755" width="1461px" zoomAndPan="magnify"><title>Architecture Systeme ACTUELLE - "Le Chaos Organise"</title><defs/><g><text fill="#000000" font-family="Verdana" font-size="22" font-weight="bold" lengthAdjust="spacing" textLength="677.6064" x="387.3375" y="37.1182">Architecture Systeme ACTUELLE - "Le Chaos Organise"</text><!--cluster Chantier--><g id="cluster_Chantier"><polygon fill="#FFC0CB" points="1000.11,68.7373,1010.11,58.7373,1214.11,58.7373,1214.11,397.2373,1204.11,407.2373,1000.11,407.2373,1000.11,68.7373" style="stroke:#000000;stroke-width:1;"/><line style="stroke:#000000;stroke-width:1;" x1="1204.11" x2="1214.11" y1="68.7373" y2="58.7373"/><line style="stroke:#000000;stroke-width:1;" x1="1000.11" x2="1204.11" y1="68.7373" y2="68.7373"/><line style="stroke:#000000;stroke-width:1;" x1="1204.11" x2="1204.11" y1="68.7373" y2="407.2373"/><text fill="#000000" font-family="Verdana" font-size="14" font-weight="bold" lengthAdjust="spacing" textLength="138.3867" x="1033.9166" y="85.8125">Chantier (Mobile)</text></g><!--cluster Bureau--><g id="cluster_Bureau"><polygon fill="#ADD8E6" points="486.11,492.2373,496.11,482.2373,937.11,482.2373,937.11,905.2373,927.11,915.2373,486.11,915.2373,486.11,492.2373" style="stroke:#000000;stroke-width:1;"/><line style="stroke:#000000;stroke-width:1;" x1="927.11" x2="937.11" y1="492.2373" y2="482.2373"/><line style="stroke:#000000;stroke-width:1;" x1="486.11" x2="927.11" y1="492.2373" y2="492.2373"/><line style="stroke:#000000;stroke-width:1;" x1="927.11" x2="927.11" y1="492.2373" y2="915.2373"/><text fill="#000000" font-family="Verdana" font-size="14" font-weight="bold" lengthAdjust="spacing" textLength="141.832" x="636.694" y="509.3125">Bureau Albertville</text></g><!--cluster PosteSylvie--><g id="cluster_PosteSylvie"><polygon fill="#FFFFFF" points="552.11,755.2373,562.11,745.2373,913.11,745.2373,913.11,881.2373,903.11,891.2373,552.11,891.2373,552.11,755.2373" style="stroke:#000000;stroke-width:1;"/><line style="stroke:#000000;stroke-width:1;" x1="903.11" x2="913.11" y1="755.2373" y2="745.2373"/><line style="stroke:#000000;stroke-width:1;" x1="552.11" x2="903.11" y1="755.2373" y2="755.2373"/><line style="stroke:#000000;stroke-width:1;" x1="903.11" x2="903.11" y1="755.2373" y2="891.2373"/><text fill="#000000" font-family="Verdana" font-size="14" font-weight="bold" lengthAdjust="spacing" textLength="95.6621" x="680.7789" y="772.3125">Poste Sylvie</text></g><!--cluster Depot--><g id="cluster_Depot"><polygon fill="#FFFFE0" points="430.11,1179.2373,440.11,1169.2373,654.11,1169.2373,654.11,1599.2373,644.11,1609.2373,430.11,1609.2373,430.11,1179.2373" style="stroke:#000000;stroke-width:1;"/><line style="stroke:#000000;stroke-width:1;" x1="644.11" x2="654.11" y1="1179.2373" y2="1169.2373"/><line style="stroke:#000000;stroke-width:1;" x1="430.11" x2="644.11" y1="1179.2373" y2="1179.2373"/><line style="stroke:#000000;stroke-width:1;" x1="644.11" x2="644.11" y1="1179.2373" y2="1609.2373"/><text fill="#000000" font-family="Verdana" font-size="14" font-weight="bold" lengthAdjust="spacing" textLength="108.9443" x="483.6378" y="1196.3125">Depot Annecy</text></g><!--cluster CloudFourn--><g id="cluster_CloudFourn"><path d="M270.8189,751.54 C277.2321,736.9278 291.0564,736.5542 298.6117,750.4256 C306.7137,733.8255 317.0859,734.6448 327.9496,747.6926 C334.6699,732.3983 347.4202,731.7847 356.14,745.7672 C364.8902,731.8738 376.515,734.3738 383.5387,747.5168 C393.8574,731.3647 404.5804,733.1366 414.0565,748.3369 C427.3128,733.6907 439.3744,739.5937 446.11,755.2373 C447.2378,755.8379 447.1321,756.6774 446.1814,757.3483 C458.0367,762.7334 459.9978,771.8329 448.8096,779.9032 C461.2595,785.8347 460.2273,794.6977 451.7532,803.2656 C464.4457,811.8733 462.665,822.0164 450.0225,828.9146 C459.3475,833.3928 460.3584,843.522 451.6445,849.4267 C463.1571,857.0668 463.6603,864.6685 451.379,872.029 C461.018,880.1138 460.1491,887.7623 450.6032,895.2048 C463.638,900.3838 464.1153,909.8789 453.8441,918.3248 C462.7953,927.1649 462.603,935.6951 451.2126,942.3027 C463.275,948.1444 461.9187,957.7026 452.5464,964.8143 C464.5794,971.3017 464.6192,983.4951 452.8227,990.2415 C464.7672,998.4762 463.4636,1009.071 450.2311,1014.6304 C460.4311,1021.7459 461.0955,1031.1133 448.6421,1036.5895 C460.3954,1042.9268 462.8885,1053.5127 449.9985,1061.2078 C457.5349,1075.0441 457.3213,1084.7731 439.11,1088.2373 C439.7931,1087.9771 440.2686,1088.103 440.2543,1088.9549 C433.7008,1103.5695 424.9632,1104.9643 413.9392,1093.4587 C404.1263,1107.7763 389.1624,1106.9745 382.5736,1090.2057 C376.9032,1101.3194 366.8704,1105.3926 358.1775,1093.3964 C349.3158,1107.2033 338.4683,1105.1909 330.1008,1092.8656 C320.9931,1106.0664 310.2249,1106.4659 300.8267,1093.1868 C283.6775,1106.6079 268.8319,1101.601 262.11,1081.2373 C264.3522,1081.3786 265.6355,1082.8691 264.1554,1085.022 C251.6261,1077.2338 248.4091,1068.2197 261.7918,1058.1521 C254.3693,1050.0913 255.8918,1044.2494 265.0154,1038.9691 C253.6213,1032.3605 250.66,1019.2623 263.913,1011.6588 C252.9447,1007.9683 252.2839,999.4205 259.5715,991.7491 C248.4886,983.2995 247.1319,975.6598 260.2015,967.8468 C249.9418,960.6345 248.192,948.7259 260.8173,942.0601 C250.2117,936.2132 249.7768,929.3954 259.2995,922.0237 C250.0879,914.4355 251.2772,904.9142 261.6566,899.364 C246.9051,892.2426 246.6536,881.1039 260.1835,872.4354 C251.7555,863.8473 253.8653,857.8397 263.689,852.4536 C252.7393,846.4939 252.8227,835.1078 262.3289,828.01 C251.5423,821.3031 250.3352,809.7905 261.4415,802.3271 C250.8954,793.9058 254.6554,783.2247 265.7062,778.7019 C253.6948,768.3548 252.9203,755.4335 269.11,748.2373 C271.2708,748.285 272.0343,749.7454 270.8189,751.54 " fill="#D3D3D3" style="stroke:#000000;stroke-width:1;"/><text fill="#000000" font-family="Verdana" font-size="14" font-weight="bold" lengthAdjust="spacing" textLength="175.4785" x="266.3707" y="767.3125">Fournisseurs Externes</text></g><!--entity Marc--><g id="elem_Marc"><rect fill="#FFFFFF" height="54.0293" rx="2.5" ry="2.5" style="stroke:#000000;stroke-width:1;" width="148.6113" x="1047.61" y="124.7373"/><text fill="#000000" font-family="Verdana" font-size="14" lengthAdjust="spacing" textLength="33.4756" x="1057.61" y="148.8125">Marc</text><text fill="#000000" font-family="Verdana" font-size="14" lengthAdjust="spacing" textLength="128.6113" x="1057.61" y="165.8271">(Telephone Perso)</text></g><!--entity Papier--><g id="elem_Papier"><path d="M1070.61,339.7373 L1070.61,388.7666 A2.5,2.5 0 0 0 1073.11,391.2666 L1171.0094,391.2666 A2.5,2.5 0 0 0 1173.5094,388.7666 L1173.5094,347.2373 L1163.5094,337.2373 L1073.11,337.2373 A2.5,2.5 0 0 0 1070.61,339.7373 " fill="#FFCCCC" style="stroke:#000000;stroke-width:1;"/><path d="M1163.5094,337.2373 L1163.5094,344.7373 A2.5,2.5 0 0 0 1166.0094,347.2373 L1173.5094,347.2373 " fill="#FFCCCC" style="stroke:#000000;stroke-width:1;"/><text fill="#000000" font-family="Verdana" font-size="14" lengthAdjust="spacing" textLength="82.8994" x="1080.61" y="361.3125">Bons Papier</text><text fill="#000000" font-family="Verdana" font-size="14" lengthAdjust="spacing" textLength="69.4668" x="1080.61" y="378.3271">(Illisibles)</text></g><!--entity Sage--><g id="elem_Sage"><path d="M502.11,579.2373 C502.11,569.2373 577.9435,569.2373 577.9435,569.2373 C577.9435,569.2373 653.777,569.2373 653.777,579.2373 L653.777,622.2666 C653.777,632.2666 577.9435,632.2666 577.9435,632.2666 C577.9435,632.2666 502.11,632.2666 502.11,622.2666 L502.11,579.2373 " fill="#FF6B6B" style="stroke:#000000;stroke-width:1;"/><path d="M502.11,579.2373 C502.11,589.2373 577.9435,589.2373 577.9435,589.2373 C577.9435,589.2373 653.777,589.2373 653.777,579.2373 " fill="none" style="stroke:#000000;stroke-width:1;"/><text fill="#000000" font-family="Verdana" font-size="14" lengthAdjust="spacing" textLength="131.667" x="512.11" y="607.3125">Serveur Sage MDE</text><text fill="#000000" font-family="Verdana" font-size="14" lengthAdjust="spacing" textLength="114.8096" x="512.11" y="624.3271">(Obsolete 2010)</text></g><g id="elem_GMN10"><path d="M689.61,548.2373 L689.61,596.7373 L654.37,600.7373 L689.61,604.7373 L689.61,653.0332 A0,0 0 0 0 689.61,653.0332 L920.4127,653.0332 A0,0 0 0 0 920.4127,653.0332 L920.4127,558.2373 L910.4127,548.2373 L689.61,548.2373 A0,0 0 0 0 689.61,548.2373 " fill="#FFFFFF" style="stroke:#000000;stroke-width:1;"/><path d="M910.4127,548.2373 L910.4127,558.2373 L920.4127,558.2373 L910.4127,548.2373 " fill="#FFFFFF" style="stroke:#000000;stroke-width:1;"/><text fill="#000000" font-family="Verdana" font-size="13" lengthAdjust="spacing" textLength="30.1831" x="695.61" y="566.3071">&#240;&#376;&#8221;&#180;</text><text fill="#000000" font-family="Verdana" font-size="13" font-weight="bold" lengthAdjust="spacing" textLength="175.0493" x="730.3634" y="566.3071">PROBLEMES CRITIQUES</text><text fill="#000000" font-family="Verdana" font-size="13" lengthAdjust="spacing" textLength="135.7319" x="695.61" y="582.1064">&#226;&#8364;&#162; 30-40 sec/ecran</text><text fill="#000000" font-family="Verdana" font-size="13" lengthAdjust="spacing" textLength="187.4463" x="695.61" y="597.9058">&#226;&#8364;&#162; Base donnees chaotique</text><text fill="#000000" font-family="Verdana" font-size="13" lengthAdjust="spacing" textLength="166.1626" x="695.61" y="613.7051">&#226;&#8364;&#162; 12 ref pour 1 produit</text><text fill="#000000" font-family="Verdana" font-size="13" lengthAdjust="spacing" textLength="152.1533" x="695.61" y="629.5044">&#226;&#8364;&#162; Pas d'API moderne</text><text fill="#000000" font-family="Verdana" font-size="13" lengthAdjust="spacing" textLength="158.52" x="695.61" y="645.3037">&#226;&#8364;&#162; Plantages frequents</text></g><!--entity Excel--><g id="elem_Excel"><rect fill="#FFD700" height="64.0293" rx="2.5" ry="2.5" style="stroke:#000000;stroke-width:1;" width="155.7598" x="568.11" y="811.2373"/><rect fill="#FFD700" height="10" style="stroke:#000000;stroke-width:1;" width="15" x="703.8698" y="816.2373"/><rect fill="#FFD700" height="2" style="stroke:#000000;stroke-width:1;" width="4" x="701.8698" y="818.2373"/><rect fill="#FFD700" height="2" style="stroke:#000000;stroke-width:1;" width="4" x="701.8698" y="822.2373"/><text fill="#000000" font-family="Verdana" font-size="14" lengthAdjust="spacing" textLength="103.5918" x="583.11" y="845.3125">Excel Multiples</text><text fill="#000000" font-family="Verdana" font-size="14" lengthAdjust="spacing" textLength="115.7598" x="583.11" y="862.3271">(Non connectes)</text></g><!--entity Outlook--><g id="elem_Outlook"><rect fill="#FFE4B5" height="64.0293" rx="2.5" ry="2.5" style="stroke:#000000;stroke-width:1;" width="138" x="759.11" y="811.2373"/><rect fill="#FFE4B5" height="10" style="stroke:#000000;stroke-width:1;" width="15" x="877.11" y="816.2373"/><rect fill="#FFE4B5" height="2" style="stroke:#000000;stroke-width:1;" width="4" x="875.11" y="818.2373"/><rect fill="#FFE4B5" height="2" style="stroke:#000000;stroke-width:1;" width="4" x="875.11" y="822.2373"/><text fill="#000000" font-family="Verdana" font-size="14" lengthAdjust="spacing" textLength="98" x="774.11" y="845.3125">Email Outlook</text><text fill="#000000" font-family="Verdana" font-size="14" lengthAdjust="spacing" textLength="84.3965" x="774.11" y="862.3271">(Ressaisies)</text></g><!--entity Eric--><g id="elem_Eric"><rect fill="#FFFFFF" height="54.0293" rx="2.5" ry="2.5" style="stroke:#000000;stroke-width:1;" width="108.2041" x="446.11" y="1392.2373"/><text fill="#000000" font-family="Verdana" font-size="14" lengthAdjust="spacing" textLength="25.9629" x="456.11" y="1416.3125">Eric</text><text fill="#000000" font-family="Verdana" font-size="14" lengthAdjust="spacing" textLength="88.2041" x="456.11" y="1433.3271">(Magasinier)</text></g><!--entity PCDepot--><g id="elem_PCDepot"><rect fill="#FFB6C1" height="64.0293" rx="2.5" ry="2.5" style="stroke:#000000;stroke-width:1;" width="138.1641" x="446.11" y="1235.2373"/><rect fill="#FFB6C1" height="10" style="stroke:#000000;stroke-width:1;" width="15" x="564.2741" y="1240.2373"/><rect fill="#FFB6C1" height="2" style="stroke:#000000;stroke-width:1;" width="4" x="562.2741" y="1242.2373"/><rect fill="#FFB6C1" height="2" style="stroke:#000000;stroke-width:1;" width="4" x="562.2741" y="1246.2373"/><text fill="#000000" font-family="Verdana" font-size="14" lengthAdjust="spacing" textLength="92.1826" x="461.11" y="1269.3125">PC Partag&#195;&#169;</text><text fill="#000000" font-family="Verdana" font-size="14" lengthAdjust="spacing" textLength="98.1641" x="461.11" y="1286.3271">(1 seul poste)</text></g><!--entity StockPhys--><g id="elem_StockPhys"><path d="M478.61,1541.7373 L478.61,1590.7666 A2.5,2.5 0 0 0 481.11,1593.2666 L602.8395,1593.2666 A2.5,2.5 0 0 0 605.3395,1590.7666 L605.3395,1549.2373 L595.3395,1539.2373 L481.11,1539.2373 A2.5,2.5 0 0 0 478.61,1541.7373 " fill="#FFCCCC" style="stroke:#000000;stroke-width:1;"/><path d="M595.3395,1539.2373 L595.3395,1546.7373 A2.5,2.5 0 0 0 597.8395,1549.2373 L605.3395,1549.2373 " fill="#FFCCCC" style="stroke:#000000;stroke-width:1;"/><text fill="#000000" font-family="Verdana" font-size="14" lengthAdjust="spacing" textLength="106.7295" x="488.61" y="1563.3125">Stock Physique</text><text fill="#000000" font-family="Verdana" font-size="14" lengthAdjust="spacing" textLength="99.0732" x="488.61" y="1580.3271">(Desorganise)</text></g><!--entity Rexel--><g id="elem_Rexel"><ellipse cx="316.8805" cy="813.2373" fill="#FFFFFF" rx="8" ry="8" style="stroke:#000000;stroke-width:1;"/><path d="M316.8805,821.2373 L316.8805,848.2373 M303.8805,829.2373 L329.8805,829.2373 M316.8805,848.2373 L303.8805,863.2373 M316.8805,848.2373 L329.8805,863.2373 " fill="none" style="stroke:#000000;stroke-width:1;"/><text fill="#000000" font-family="Verdana" font-size="14" lengthAdjust="spacing" textLength="38.541" x="297.61" y="879.3125">Rexel</text></g><!--entity Sonepar--><g id="elem_Sonepar"><ellipse cx="401.296" cy="813.2373" fill="#FFFFFF" rx="8" ry="8" style="stroke:#000000;stroke-width:1;"/><path d="M401.296,821.2373 L401.296,848.2373 M388.296,829.2373 L414.296,829.2373 M401.296,848.2373 L388.296,863.2373 M401.296,848.2373 L414.296,863.2373 " fill="none" style="stroke:#000000;stroke-width:1;"/><text fill="#000000" font-family="Verdana" font-size="14" lengthAdjust="spacing" textLength="58.3721" x="372.11" y="879.3125">Sonepar</text></g><!--entity Autres--><g id="elem_Autres"><ellipse cx="330.8873" cy="1003.2373" fill="#FFFFFF" rx="8" ry="8" style="stroke:#000000;stroke-width:1;"/><path d="M330.8873,1011.2373 L330.8873,1038.2373 M317.8873,1019.2373 L343.8873,1019.2373 M330.8873,1038.2373 L317.8873,1053.2373 M330.8873,1038.2373 L343.8873,1053.2373 " fill="none" style="stroke:#000000;stroke-width:1;"/><text fill="#000000" font-family="Verdana" font-size="14" lengthAdjust="spacing" textLength="45.5547" x="308.11" y="1069.3125">Autres</text></g><!--entity Sylvie--><g id="elem_Sylvie"><ellipse cx="578.192" cy="334.2373" fill="#FFFFFF" rx="8" ry="8" style="stroke:#000000;stroke-width:1;"/><path d="M578.192,342.2373 L578.192,369.2373 M565.192,350.2373 L591.192,350.2373 M578.192,369.2373 L565.192,384.2373 M578.192,369.2373 L591.192,384.2373 " fill="none" style="stroke:#000000;stroke-width:1;"/><text fill="#000000" font-family="Verdana" font-size="14" lengthAdjust="spacing" textLength="42.1641" x="557.11" y="400.3125">Sylvie</text></g><g id="elem_N1"><path d="M1231.61,107.2373 L1231.61,196.2339 L1454.2814,196.2339 L1454.2814,117.2373 L1444.2814,107.2373 L1231.61,107.2373 " fill="#FF0000" style="stroke:#000000;stroke-width:1;"/><path d="M1444.2814,107.2373 L1444.2814,117.2373 L1454.2814,117.2373 L1444.2814,107.2373 " fill="#FF0000" style="stroke:#000000;stroke-width:1;"/><text fill="#000000" font-family="Verdana" font-size="13" lengthAdjust="spacing" textLength="43.0435" x="1237.61" y="125.3071">&#226;&#353;&#160;&#239;&#184;&#65533;</text><text fill="#000000" font-family="Verdana" font-size="13" font-weight="bold" lengthAdjust="spacing" textLength="154.0576" x="1285.2238" y="125.3071">POINTS DE RUPTURE</text><text fill="#000000" font-family="Verdana" font-size="13" lengthAdjust="spacing" textLength="177.2964" x="1237.61" y="141.1064">&#226;&#8364;&#162; Sylvie = goulot unique</text><text fill="#000000" font-family="Verdana" font-size="13" lengthAdjust="spacing" textLength="154.4702" x="1237.61" y="156.9058">&#226;&#8364;&#162; 1 seul PC d&#195;&#169;p&#195;&#180;t</text><text fill="#000000" font-family="Verdana" font-size="13" lengthAdjust="spacing" textLength="157.7202" x="1237.61" y="172.7051">&#226;&#8364;&#162; Aucune redondance</text><text fill="#000000" font-family="Verdana" font-size="13" lengthAdjust="spacing" textLength="177.1821" x="1237.61" y="188.5044">&#226;&#8364;&#162; Pas de backup process</text></g><!--link Marc to Papier--><g id="link_Marc_Papier"><path d="M1122.11,178.9673 C1122.11,219.4173 1122.11,290.5573 1122.11,331.0073 " fill="none" id="Marc-to-Papier" style="stroke:#000000;stroke-width:1;"/><polygon fill="#000000" points="1122.11,337.0073,1126.11,328.0073,1122.11,332.0073,1118.11,328.0073,1122.11,337.0073" style="stroke:#000000;stroke-width:1;"/><text fill="#000000" font-family="Verdana" font-size="13" lengthAdjust="spacing" textLength="110.7666" x="1123.11" y="258.3071">&#226;&#339;&#65533;&#239;&#184;&#65533; &#195;&#8240;crit</text><text fill="#000000" font-family="Verdana" font-size="13" lengthAdjust="spacing" textLength="55.8276" x="1150.5795" y="274.1064">(illisible)</text></g><!--link Papier to Outlook--><g id="link_Papier_Outlook"><path d="M1129.32,391.5473 C1142.36,444.8273 1164.37,567.6473 1117.11,653.2373 C1070.17,738.2573 972.4881,789.1472 902.9781,816.6872 " fill="none" id="Papier-to-Outlook" style="stroke:#000000;stroke-width:1;stroke-dasharray:7.0,7.0;"/><polygon fill="#000000" points="897.4,818.8973,907.2406,819.301,902.0484,817.0556,904.2938,811.8634,897.4,818.8973" style="stroke:#000000;stroke-width:1;"/><text fill="#000000" font-family="Verdana" font-size="13" lengthAdjust="spacing" textLength="109.5098" x="1146.11" y="598.3071">&#240;&#376;&#8220;&#382; Info perdue</text><text fill="#000000" font-family="Verdana" font-size="13" lengthAdjust="spacing" textLength="81.6182" x="1160.0558" y="614.1064">&#226;&#65533;&#176; Retards</text></g><!--link Marc to Sylvie--><g id="link_Marc_Sylvie"><path d="M1047.35,173.8973 C1001.05,187.5773 940.61,206.4573 888.11,226.2373 C777.16,268.0273 654.2101,326.2921 604.5901,350.3221 " fill="none" id="Marc-to-Sylvie" style="stroke:#000000;stroke-width:1;"/><polygon fill="#000000" points="599.19,352.9373,609.0336,352.6146,603.6901,350.758,605.5467,345.4145,599.19,352.9373" style="stroke:#000000;stroke-width:1;"/><text fill="#000000" font-family="Verdana" font-size="13" lengthAdjust="spacing" textLength="140.3721" x="931.0985" y="240.3071">&#240;&#376;&#8220;&#382; Appels multiples</text><text fill="#000000" font-family="Verdana" font-size="13" lengthAdjust="spacing" textLength="60.3789" x="971.0951" y="256.1064">(15/jour)</text><path d="M893.11,264.8359 L893.11,289.8359 L1109.11,289.8359 L1109.11,274.8359 L1099.11,264.8359 L893.11,264.8359 " fill="#FFCCCC" style="stroke:#000000;stroke-width:1;"/><path d="M1099.11,264.8359 L1099.11,274.8359 L1109.11,274.8359 L1099.11,264.8359 " fill="#FFCCCC" style="stroke:#000000;stroke-width:1;"/><text fill="#000000" font-family="Verdana" font-size="13" lengthAdjust="spacing" textLength="195.3491" x="899.11" y="282.9058">&#240;&#376;&#8221;&#180; Interruptions constantes</text></g><!--link Sylvie to Excel--><g id="link_Sylvie_Excel"><path d="M556.87,367.9473 C509.74,375.2373 396.9,400.0073 350.11,474.2373 C292.76,565.2373 278.52,638.7373 353.11,716.2373 C367.5,731.1873 426.35,717.9173 446.11,724.2373 C506.02,743.3873 562.3239,779.4934 600.9639,807.5334 " fill="none" id="Sylvie-to-Excel" style="stroke:#000000;stroke-width:1;"/><polygon fill="#000000" points="605.82,811.0573,600.8851,802.534,601.7732,808.1207,596.1865,809.0088,605.82,811.0573" style="stroke:#000000;stroke-width:1;"/><text fill="#000000" font-family="Verdana" font-size="13" lengthAdjust="spacing" textLength="134.8369" x="351.11" y="598.3071">&#240;&#376;&#8217;&#187; Saisie manuelle</text><text fill="#000000" font-family="Verdana" font-size="13" lengthAdjust="spacing" textLength="115.9082" x="360.5744" y="614.1064">(Silos donn&#195;&#169;es)</text></g><!--link Sylvie to Sage--><g id="link_Sylvie_Sage"><path d="M578.11,403.4373 C578.11,449.6373 578.11,520.4973 578.11,563.0373 " fill="none" id="Sylvie-to-Sage" style="stroke:#000000;stroke-width:1;"/><polygon fill="#000000" points="578.11,569.0373,582.11,560.0373,578.11,564.0373,574.11,560.0373,578.11,569.0373" style="stroke:#000000;stroke-width:1;"/><text fill="#000000" font-family="Verdana" font-size="13" lengthAdjust="spacing" textLength="91.311" x="587.3493" y="447.3071">&#240;&#376;&#8217;&#187; Re-saisie</text><text fill="#000000" font-family="Verdana" font-size="13" lengthAdjust="spacing" textLength="107.7896" x="579.11" y="463.1064">(Interface lente)</text></g><!--link Sylvie to Outlook--><g id="link_Sylvie_Outlook"><path d="M599.58,368.3973 C670.54,379.3373 895.41,417.9873 937.11,474.2373 C1001.17,560.6373 974.66,615.4473 937.11,716.2373 C923.03,754.0473 896.3654,784.0267 870.9754,807.1567 " fill="none" id="Sylvie-to-Outlook" style="stroke:#000000;stroke-width:1;"/><polygon fill="#000000" points="866.54,811.1973,875.8869,808.0933,870.2362,807.8301,870.4994,802.1794,866.54,811.1973" style="stroke:#000000;stroke-width:1;"/><text fill="#000000" font-family="Verdana" font-size="13" lengthAdjust="spacing" textLength="93.6724" x="995.299" y="598.3071">&#240;&#376;&#8220;&#167; Re-saisie</text><text fill="#000000" font-family="Verdana" font-size="13" lengthAdjust="spacing" textLength="132.0503" x="976.11" y="614.1064">(Email fournisseurs)</text></g><!--link Outlook to CloudFourn--><g id="link_Outlook_CloudFourn"><path d="M814.74,811.0673 C801.05,782.7073 776.85,743.0573 742.11,724.2373 C651.93,675.3973 614.14,715.6873 511.61,713.2373 C455.83,711.9073 306.99,698.6173 281.11,724.2373 C276.5762,728.7273 272.8531,733.8365 269.8118,739.3537 C269.7168,739.5261 272.4776,734.4218 272.3839,734.595 " fill="none" id="Outlook-to-CloudFourn" style="stroke:#000000;stroke-width:1;"/><polygon fill="#000000" points="269.5287,739.8721,277.3296,733.86,271.9081,735.4745,270.2935,730.053,269.5287,739.8721" style="stroke:#000000;stroke-width:1;"/><text fill="#000000" font-family="Verdana" font-size="13" lengthAdjust="spacing" textLength="155.562" x="355.61" y="697.3071">&#240;&#376;&#8220;&#167; Commandes email</text><text fill="#000000" font-family="Verdana" font-size="13" lengthAdjust="spacing" textLength="147.9639" x="359.4091" y="713.1064">(Pas d'automatisation)</text></g><!--link Sylvie to CloudFourn--><g id="link_Sylvie_CloudFourn"><path d="M556.87,366.2973 C467.71,371.2073 125.33,395.0673 61.11,474.2373 C11,536.0173 29.54,580.2173 61.11,653.2373 C85.06,708.6373 134.1275,755.2873 177.785,788.3798 C199.6138,804.9261 220.09,818.0829 235.3978,827.2495 C243.0517,831.8328 244.15,832.5384 248.7426,835.0514 " fill="none" id="Sylvie-to-CloudFourn" style="stroke:#000000;stroke-width:1;"/><polygon fill="#000000" points="254.0062,837.9315,248.0309,830.1023,249.6199,835.5314,244.1908,837.1204,254.0062,837.9315" style="stroke:#000000;stroke-width:1;"/><text fill="#000000" font-family="Verdana" font-size="13" lengthAdjust="spacing" textLength="231.5688" x="62.11" y="598.3071">&#226;&#732;&#381;&#239;&#184;&#65533; Commandes t&#195;&#169;l&#195;&#169;phone</text><text fill="#000000" font-family="Verdana" font-size="13" lengthAdjust="spacing" textLength="98.6426" x="128.5731" y="614.1064">(Chronophage)</text></g><!--link CloudFourn to Eric--><g id="link_CloudFourn_Eric"><path d="M275.8925,1096.4298 C276.43,1098.2126 276.9813,1099.9873 277.5467,1101.7532 C278.6774,1105.285 279.8644,1108.7817 281.11,1112.2373 C323.54,1229.9273 420.8383,1338.4941 469.2883,1387.8841 " fill="none" id="CloudFourn-to-Eric" style="stroke:#000000;stroke-width:1;stroke-dasharray:7.0,7.0;"/><polygon fill="#000000" points="473.49,1392.1673,470.0429,1382.9414,469.9886,1388.598,464.332,1388.5436,473.49,1392.1673" style="stroke:#000000;stroke-width:1;"/><text fill="#000000" font-family="Verdana" font-size="13" lengthAdjust="spacing" textLength="168.9238" x="299.11" y="1134.3071">&#240;&#376;&#353;&#353; Livraisons physiques</text><text fill="#000000" font-family="Verdana" font-size="13" lengthAdjust="spacing" textLength="146.3262" x="310.4088" y="1150.1064">(Nomenclatures &#226;&#8240;&#160;)</text></g><!--reverse link PCDepot to Eric--><g id="link_PCDepot_Eric"><path d="M509.1248,1305.4617 C507.7048,1314.9817 507.15,1319.5473 506.11,1329.2373 C503.85,1350.3373 502.29,1374.3373 501.33,1392.0973 " fill="none" id="PCDepot-backto-Eric" style="stroke:#000000;stroke-width:1;"/><polygon fill="#000000" points="510.01,1299.5273,504.726,1307.8387,509.2724,1304.4726,512.6385,1309.0189,510.01,1299.5273" style="stroke:#000000;stroke-width:1;"/><text fill="#000000" font-family="Verdana" font-size="13" lengthAdjust="spacing" textLength="155.0859" x="507.11" y="1343.3071">&#240;&#376;&#8217;&#187; Saisie &#195;&#160; posteriori</text><text fill="#000000" font-family="Verdana" font-size="13" lengthAdjust="spacing" textLength="138.106" x="515.6" y="1359.1064">(20 min/r&#195;&#169;ception)</text></g><!--reverse link Sage to PCDepot--><g id="link_Sage_PCDepot"><path d="M570.1728,638.282 C564.8228,663.042 558.46,692.9173 552.11,724.2373 C533.5,816.0673 521.04,837.9573 512.11,931.2373 C510.71,945.8373 512.04,949.5673 512.11,964.2373 C512.6,1063.0773 514,1180.0973 514.7,1234.9373 " fill="none" id="Sage-backto-PCDepot" style="stroke:#000000;stroke-width:1;"/><polygon fill="#000000" points="571.44,632.4173,565.6294,640.3695,570.384,637.3045,573.449,642.0591,571.44,632.4173" style="stroke:#000000;stroke-width:1;"/><text fill="#000000" font-family="Verdana" font-size="13" lengthAdjust="spacing" textLength="149.0557" x="513.11" y="945.3071">&#240;&#376;&#8221;&#8222; Mise &#195;&#160; jour stock</text><text fill="#000000" font-family="Verdana" font-size="13" lengthAdjust="spacing" textLength="81.0596" x="547.108" y="961.1064">(J+2 retard)</text></g><!--link Eric to StockPhys--><g id="link_Eric_StockPhys"><path d="M503.01,1446.3673 C505.44,1464.3273 509.58,1488.5773 516.11,1509.2373 C519.28,1519.2573 521.234,1524.398 525.654,1533.608 " fill="none" id="Eric-to-StockPhys" style="stroke:#000000;stroke-width:1;"/><polygon fill="#000000" points="528.25,1539.0173,527.9622,1529.1727,526.0867,1534.5095,520.7498,1532.634,528.25,1539.0173" style="stroke:#000000;stroke-width:1;"/><text fill="#000000" font-family="Verdana" font-size="13" lengthAdjust="spacing" textLength="145.1963" x="517.11" y="1490.3071">&#240;&#376;&#8220;&#166; Stockage manuel</text><text fill="#000000" font-family="Verdana" font-size="13" lengthAdjust="spacing" textLength="88.791" x="545.3126" y="1506.1064">(Pas de scan)</text></g><!--link Sage to Excel--><g id="link_Sage_Excel"><path d="M586.86,632.6873 C599.88,678.7373 622.5867,759.0539 635.6567,805.2539 " fill="none" id="Sage-to-Excel" style="stroke:#000000;stroke-width:1;stroke-dasharray:7.0,7.0;"/><polygon fill="#000000" points="637.29,811.0273,638.689,801.2783,635.9289,806.2161,630.9911,803.456,637.29,811.0273" style="stroke:#000000;stroke-width:1;"/><text fill="#000000" font-family="Verdana" font-size="13" lengthAdjust="spacing" textLength="115.2163" x="610.11" y="697.3071">&#226;&#65533;&#338; Pas de sync</text><text fill="#000000" font-family="Verdana" font-size="13" lengthAdjust="spacing" textLength="113.0898" x="611.1732" y="713.1064">(Incoh&#195;&#169;rences)</text></g><!--link Excel to StockPhys--><g id="link_Excel_StockPhys"><path d="M657.75,875.3373 C670.48,912.2273 689.11,975.8173 689.11,1032.2373 C689.11,1032.2373 689.11,1032.2373 689.11,1420.2373 C689.11,1460.9873 693.24,1477.9673 667.11,1509.2373 C651.41,1528.0373 633.7141,1538.6239 611.4641,1547.1339 " fill="none" id="Excel-to-StockPhys" style="stroke:#000000;stroke-width:1;stroke-dasharray:7.0,7.0;"/><polygon fill="#000000" points="605.86,1549.2773,615.6951,1549.7983,610.5301,1547.4911,612.8372,1542.3261,605.86,1549.2773" style="stroke:#000000;stroke-width:1;"/><text fill="#000000" font-family="Verdana" font-size="13" lengthAdjust="spacing" textLength="200.7954" x="690.11" y="1264.8071">&#226;&#65533;&#338; Stock virtuel &#226;&#8240;&#160; r&#195;&#169;el</text><text fill="#000000" font-family="Verdana" font-size="13" lengthAdjust="spacing" textLength="129.2319" x="725.8917" y="1280.6064">(Erreurs inventaire)</text></g><rect fill="none" height="112.0879" id="_legend" rx="7.5" ry="7.5" style="stroke:#000000;stroke-width:1;" width="240.7744" x="605.7535" y="1630.2373"/><text fill="#000000" font-family="Verdana" font-size="14" lengthAdjust="spacing" textLength="183.2305" x="610.7535" y="1649.3125">&#240;&#376;&#8221;&#180; = Pain Point Critique</text><text fill="#000000" font-family="Verdana" font-size="14" lengthAdjust="spacing" textLength="157.2949" x="610.7535" y="1666.3271">&#226;&#65533;&#176; = Perte de temps</text><text fill="#000000" font-family="Verdana" font-size="14" lengthAdjust="spacing" textLength="164.7393" x="610.7535" y="1683.3418">&#240;&#376;&#8217;&#176; = Co&#195;&#187;t &#195;&#169;lev&#195;&#169;</text><text fill="#000000" font-family="Verdana" font-size="14" lengthAdjust="spacing" textLength="193.8604" x="610.7535" y="1700.3564">&#226;&#65533;&#338; = Dysfonctionnement</text><text fill="#000000" font-family="Verdana" font-size="14" lengthAdjust="spacing" textLength="230.7744" x="610.7535" y="1717.3711">&#240;&#376;&#8220;&#382; = Communication manuelle</text><text fill="#000000" font-family="Verdana" font-size="14" lengthAdjust="spacing" textLength="184.6797" x="610.7535" y="1734.3857">&#240;&#376;&#8217;&#187; = Ressaisie manuelle</text><!--SRC=[RLRDRXit4BxlKqoLGs8NSgGqIO403Y39Sg50YbN9FXJeXTgbBDOKkIMvIeGYWD6yGNiAa1I93sq35AWFEGG8sW8oTEfR-0Nw2fqXTwLL51tqinn-dFdccu_wp4tub4CgcL2H4qvoQ9Xu8XoFNMOu3EVMKK2ZTNpIxdRRK8LAbqDhmhI58tFAbB2y4aLA9nmg-5WvmGtSwkcHa7od0ip2wkcDlb1dy4C4-6AdN3cez9Y9lrMtZhdawKGh3drkh0xxQCt7ZX4AAasjBFHPYaYueoEbi68akGt1OG5k71wsy1KzAr9gOXKiWuOSSUDcGahkm_F7DxhYTEAQCkDvMc5JNsFLMBkSYH3k7uJVUI2zOZrDCMUge_qqvX9wcNGYnPmmmSTQOO1II6IHOmZ250- -hDK-YJ9bGi9HvgJMPuWnuDOoBBC0o5S8edstUSz3FFFl_YrXZesOnGA6tCnuPc28D4Fle8rOHoEh9SUoxjJgjG3dLn7hVlD-CwyUrmrH0dhibrTPNbqktr-VlrgyWztT_k2esMttsaDe3Jh7dQzFsiFTtNNanVMFVomku8jQzMuDB8zlyzWmjRNUf4mJOeXRY55GJdoVyQsm-XqmV0ofndBga1gTPC9jHVMndEHcez-1ANRGg6sSlaGLOaKMneRZGSfP7yDLukjUI-Q0fzf1Wretzpo51q4htt0fzPDD4RUD817ts2cpGg4CytRZu-YZ3lTRcAh1FAwUBzxYdZeIb4ci3lML2xcL7tTusBpVgfS6OEXqV0RzoTmIKRZvW5kTZs3UK8gWWF8Sn59d2LGEaK2CnECCAT4HIJRC9mNuvRp6hmoR5nN6JXke3FXJBdsm_rPU6c9bAJFX_F2zlDp8dCdF2LyffPi88vaJDD5incDmynGRW-IF9HBpUpoXNs8y9fQCRnMP0LGJ_KHL7nR3_W2Rk_pvlt_-klfpyHu_uEhvzVbbR8H3SaHX43jH7hwtvwMzj_TmDKWFSbs_NFuD7JNMa7AJ4BTN5uYtkCGy7JE9ZJRFpvsWlBkHfbnQc9OSe7xlzdV8waxanmhjG9BzvPrPRQQHwYXiXydIm0YwXdKeLkGgoa-g-ipnv60XnTuNYmyufMGGC6KgGscIB8P2eZdJP15zw1qhb29zclione1NWy-GiL8kOnPpa4WytzgyHTtYjutzmSF69RNjH56nQLL7INDbe9QUOY49TfyJ3CA5mMQPqrCKZFMYsTcYPHFkuj-NovKcrf2Ew21zlVLN3OAt9aOhdKwG3qoo1BAtHzMIKcY8ynINRvPle2jc1akbFgNv90Qtdt8LewRnNh7aEUUNYzSxaTzTpLBIR3xNd-WTflGwM80HsWY4krE3gL2t3IKRypGKNI1K9H-xZzluwlhy5-YX4mGq4XvOiWD4U_GvUIW96QiCAHLAM1d6kWk_XgS47aHLT863ZHdcWUDxABEdz60jCdBcaIUN-aIiH3u_ps4XMXggvKzGeCrLx0KNwqa-w36fDOJJnetqyit11MV2E4ojO1eyKpxLjZ7UueIQeNwPCDndtDS2ROIEfJd3BeMfn4mUrsacQxNyIaPBURDuNQW7BxkZpkFZ8HoqON3IFpuPjFEhhhXNSYdkmwdE97OdKwjhR7M51PD7xq-y-l3jdTk8Q6HnXdz-34T24uOqH5kN6uSHYy-ob8X6ccoqkhYmkYxXucMKy4Xo-eIHTZWoqURLlOzGGWKke8K-MKer-Dq-_G53Nl0u_D-NsXB02x_SqdZK1mT-blYCFjO0s9vzE9ZRiLOnQLRXNqVbIXZabFj-996cs0_pohasZlg0OQj_F-iGgYmK6FqF]--></g></svg>