<svg xmlns="http://www.w3.org/2000/svg" xmlns:xlink="http://www.w3.org/1999/xlink" contentStyleType="text/css" height="879px" preserveAspectRatio="none" style="width:431px;height:879px;background:#FFFFFF;" version="1.1" viewBox="0 0 431 879" width="431px" zoomAndPan="magnify"><title>Planning Implementation 12 Mois Digitalisation Chantiers</title><defs/><g><text fill="#000000" font-family="sans-serif" font-size="14" font-weight="bold" lengthAdjust="spacing" textLength="381.9443" x="10" y="24.5332">Planning Implementation 12 Mois Digitalisation Chantiers</text><line style="stroke:#C0C0C0;stroke-width:1;" x1="89.4722" x2="89.4722" y1="38.6094" y2="54.6094"/><line style="stroke:#C0C0C0;stroke-width:1;" x1="137.4722" x2="137.4722" y1="38.6094" y2="54.6094"/><text fill="#000000" font-family="sans-serif" font-size="12" font-weight="bold" lengthAdjust="spacing" textLength="26.6953" x="100.1245" y="51.0664">2025</text><text fill="#000000" font-family="sans-serif" font-size="12" font-weight="bold" lengthAdjust="spacing" textLength="26.6953" x="212.1245" y="51.0664">2026</text><line style="stroke:#C0C0C0;stroke-width:1;" x1="313.4722" x2="313.4722" y1="38.6094" y2="54.6094"/><line style="stroke:#C0C0C0;stroke-width:1;" x1="89.4722" x2="89.4722" y1="54.6094" y2="68.6094"/><line style="stroke:#C0C0C0;stroke-width:1;" x1="104.4055" x2="104.4055" y1="54.6094" y2="68.6094"/><text fill="#000000" font-family="sans-serif" font-size="10" lengthAdjust="spacing" textLength="17.7832" x="89.4722" y="64.9902">Nov</text><line style="stroke:#C0C0C0;stroke-width:1;" x1="137.4722" x2="137.4722" y1="54.6094" y2="68.6094"/><text fill="#000000" font-family="sans-serif" font-size="10" lengthAdjust="spacing" textLength="17.7832" x="112.0472" y="64.9902">Dec</text><line style="stroke:#C0C0C0;stroke-width:1;" x1="170.5388" x2="170.5388" y1="54.6094" y2="68.6094"/><text fill="#000000" font-family="sans-serif" font-size="10" lengthAdjust="spacing" textLength="16.123" x="145.944" y="64.9902">Jan</text><line style="stroke:#C0C0C0;stroke-width:1;" x1="200.4055" x2="200.4055" y1="54.6094" y2="68.6094"/><text fill="#000000" font-family="sans-serif" font-size="10" lengthAdjust="spacing" textLength="17.2314" x="176.8564" y="64.9902">Feb</text><line style="stroke:#C0C0C0;stroke-width:1;" x1="233.4722" x2="233.4722" y1="54.6094" y2="68.6094"/><text fill="#000000" font-family="sans-serif" font-size="10" lengthAdjust="spacing" textLength="27.7832" x="203.0472" y="64.9902">March</text><line style="stroke:#C0C0C0;stroke-width:1;" x1="265.4722" x2="265.4722" y1="54.6094" y2="68.6094"/><text fill="#000000" font-family="sans-serif" font-size="10" lengthAdjust="spacing" textLength="20.0049" x="239.4697" y="64.9902">April</text><line style="stroke:#C0C0C0;stroke-width:1;" x1="298.5388" x2="298.5388" y1="54.6094" y2="68.6094"/><text fill="#000000" font-family="sans-serif" font-size="10" lengthAdjust="spacing" textLength="18.8916" x="272.5597" y="64.9902">May</text><text fill="#000000" font-family="sans-serif" font-size="10" lengthAdjust="spacing" textLength="16.123" x="298.5388" y="64.9902">Jun</text><line style="stroke:#C0C0C0;stroke-width:1;" x1="313.4722" x2="313.4722" y1="54.6094" y2="68.6094"/><line style="stroke:#C0C0C0;stroke-width:1;" x1="89.4722" x2="313.4722" y1="38.6094" y2="38.6094"/><line style="stroke:#C0C0C0;stroke-width:1;" x1="89.4722" x2="313.4722" y1="54.6094" y2="54.6094"/><line style="stroke:#C0C0C0;stroke-width:1;" x1="89.4722" x2="313.4722" y1="68.6094" y2="68.6094"/><line style="stroke:#181818;stroke-width:1.5;" x1="88.4722" x2="80.4722" y1="112.3633" y2="112.3633"/><line style="stroke:#181818;stroke-width:1.5;" x1="80.4722" x2="80.4722" y1="112.3633" y2="130.1992"/><line style="stroke:#181818;stroke-width:1.5;" x1="80.4722" x2="88.4722" y1="130.1992" y2="130.1992"/><polygon fill="#181818" points="84.4722,126.1992,84.4722,130.1992,84.4722,134.1992,88.4722,130.1992" style="stroke:#181818;stroke-width:1.5;"/><line style="stroke:#181818;stroke-width:1.5;" x1="120.4722" x2="126.4722" y1="130.1992" y2="130.1992"/><line style="stroke:#181818;stroke-width:1.5;" x1="126.4722" x2="126.4722" y1="130.1992" y2="139.1172"/><line style="stroke:#181818;stroke-width:1.5;" x1="126.4722" x2="112.4722" y1="139.1172" y2="139.1172"/><line style="stroke:#181818;stroke-width:1.5;" x1="112.4722" x2="112.4722" y1="139.1172" y2="148.0352"/><line style="stroke:#181818;stroke-width:1.5;" x1="112.4722" x2="120.4722" y1="148.0352" y2="148.0352"/><polygon fill="#181818" points="116.4722,144.0352,116.4722,148.0352,116.4722,152.0352,120.4722,148.0352" style="stroke:#181818;stroke-width:1.5;"/><line style="stroke:#181818;stroke-width:1.5;" x1="88.4722" x2="80.4722" y1="165.8711" y2="165.8711"/><line style="stroke:#181818;stroke-width:1.5;" x1="80.4722" x2="80.4722" y1="165.8711" y2="183.707"/><line style="stroke:#181818;stroke-width:1.5;" x1="80.4722" x2="88.4722" y1="183.707" y2="183.707"/><polygon fill="#181818" points="84.4722,179.707,84.4722,183.707,84.4722,187.707,88.4722,183.707" style="stroke:#181818;stroke-width:1.5;"/><line style="stroke:#181818;stroke-width:1.5;" x1="120.4722" x2="126.4722" y1="183.707" y2="183.707"/><line style="stroke:#181818;stroke-width:1.5;" x1="126.4722" x2="126.4722" y1="183.707" y2="192.625"/><line style="stroke:#181818;stroke-width:1.5;" x1="126.4722" x2="112.4722" y1="192.625" y2="192.625"/><line style="stroke:#181818;stroke-width:1.5;" x1="112.4722" x2="112.4722" y1="192.625" y2="201.543"/><line style="stroke:#181818;stroke-width:1.5;" x1="112.4722" x2="120.4722" y1="201.543" y2="201.543"/><polygon fill="#181818" points="116.4722,197.543,116.4722,201.543,116.4722,205.543,120.4722,201.543" style="stroke:#181818;stroke-width:1.5;"/><line style="stroke:#181818;stroke-width:1.5;" x1="120.4722" x2="112.4722" y1="219.3789" y2="219.3789"/><line style="stroke:#181818;stroke-width:1.5;" x1="112.4722" x2="112.4722" y1="219.3789" y2="237.2148"/><line style="stroke:#181818;stroke-width:1.5;" x1="112.4722" x2="120.4722" y1="237.2148" y2="237.2148"/><polygon fill="#181818" points="116.4722,233.2148,116.4722,237.2148,116.4722,241.2148,120.4722,237.2148" style="stroke:#181818;stroke-width:1.5;"/><line style="stroke:#181818;stroke-width:1.5;" x1="152.4722" x2="158.4722" y1="237.2148" y2="237.2148"/><line style="stroke:#181818;stroke-width:1.5;" x1="158.4722" x2="158.4722" y1="237.2148" y2="246.1328"/><line style="stroke:#181818;stroke-width:1.5;" x1="158.4722" x2="144.4722" y1="246.1328" y2="246.1328"/><line style="stroke:#181818;stroke-width:1.5;" x1="144.4722" x2="144.4722" y1="246.1328" y2="255.0508"/><line style="stroke:#181818;stroke-width:1.5;" x1="144.4722" x2="152.4722" y1="255.0508" y2="255.0508"/><polygon fill="#181818" points="148.4722,251.0508,148.4722,255.0508,148.4722,259.0508,152.4722,255.0508" style="stroke:#181818;stroke-width:1.5;"/><line style="stroke:#181818;stroke-width:1.5;" x1="184.4722" x2="190.4722" y1="255.0508" y2="255.0508"/><line style="stroke:#181818;stroke-width:1.5;" x1="190.4722" x2="190.4722" y1="255.0508" y2="263.9688"/><line style="stroke:#181818;stroke-width:1.5;" x1="190.4722" x2="176.4722" y1="263.9688" y2="263.9688"/><line style="stroke:#181818;stroke-width:1.5;" x1="176.4722" x2="176.4722" y1="263.9688" y2="272.8867"/><line style="stroke:#181818;stroke-width:1.5;" x1="176.4722" x2="184.4722" y1="272.8867" y2="272.8867"/><polygon fill="#181818" points="180.4722,268.8867,180.4722,272.8867,180.4722,276.8867,184.4722,272.8867" style="stroke:#181818;stroke-width:1.5;"/><line style="stroke:#181818;stroke-width:1.5;" x1="152.4722" x2="158.4722" y1="112.3633" y2="112.3633"/><line style="stroke:#181818;stroke-width:1.5;" x1="158.4722" x2="158.4722" y1="112.3633" y2="315.6406"/><line style="stroke:#181818;stroke-width:1.5;" x1="158.4722" x2="144.4722" y1="315.6406" y2="315.6406"/><line style="stroke:#181818;stroke-width:1.5;" x1="144.4722" x2="144.4722" y1="315.6406" y2="324.5586"/><line style="stroke:#181818;stroke-width:1.5;" x1="144.4722" x2="152.4722" y1="324.5586" y2="324.5586"/><polygon fill="#181818" points="148.4722,320.5586,148.4722,324.5586,148.4722,328.5586,152.4722,324.5586" style="stroke:#181818;stroke-width:1.5;"/><line style="stroke:#181818;stroke-width:1.5;" x1="152.4722" x2="144.4722" y1="324.5586" y2="324.5586"/><line style="stroke:#181818;stroke-width:1.5;" x1="144.4722" x2="144.4722" y1="324.5586" y2="342.3945"/><line style="stroke:#181818;stroke-width:1.5;" x1="144.4722" x2="152.4722" y1="342.3945" y2="342.3945"/><polygon fill="#181818" points="148.4722,338.3945,148.4722,342.3945,148.4722,346.3945,152.4722,342.3945" style="stroke:#181818;stroke-width:1.5;"/><line style="stroke:#181818;stroke-width:1.5;" x1="184.4722" x2="190.4722" y1="342.3945" y2="342.3945"/><line style="stroke:#181818;stroke-width:1.5;" x1="190.4722" x2="190.4722" y1="342.3945" y2="351.3125"/><line style="stroke:#181818;stroke-width:1.5;" x1="190.4722" x2="176.4722" y1="351.3125" y2="351.3125"/><line style="stroke:#181818;stroke-width:1.5;" x1="176.4722" x2="176.4722" y1="351.3125" y2="360.2305"/><line style="stroke:#181818;stroke-width:1.5;" x1="176.4722" x2="184.4722" y1="360.2305" y2="360.2305"/><polygon fill="#181818" points="180.4722,356.2305,180.4722,360.2305,180.4722,364.2305,184.4722,360.2305" style="stroke:#181818;stroke-width:1.5;"/><line style="stroke:#181818;stroke-width:1.5;" x1="216.4722" x2="222.4722" y1="360.2305" y2="360.2305"/><line style="stroke:#181818;stroke-width:1.5;" x1="222.4722" x2="222.4722" y1="360.2305" y2="369.1484"/><line style="stroke:#181818;stroke-width:1.5;" x1="222.4722" x2="208.4722" y1="369.1484" y2="369.1484"/><line style="stroke:#181818;stroke-width:1.5;" x1="208.4722" x2="208.4722" y1="369.1484" y2="378.0664"/><line style="stroke:#181818;stroke-width:1.5;" x1="208.4722" x2="216.4722" y1="378.0664" y2="378.0664"/><polygon fill="#181818" points="212.4722,374.0664,212.4722,378.0664,212.4722,382.0664,216.4722,378.0664" style="stroke:#181818;stroke-width:1.5;"/><line style="stroke:#181818;stroke-width:1.5;" x1="152.4722" x2="144.4722" y1="324.5586" y2="324.5586"/><line style="stroke:#181818;stroke-width:1.5;" x1="144.4722" x2="144.4722" y1="324.5586" y2="395.9023"/><line style="stroke:#181818;stroke-width:1.5;" x1="144.4722" x2="152.4722" y1="395.9023" y2="395.9023"/><polygon fill="#181818" points="148.4722,391.9023,148.4722,395.9023,148.4722,399.9023,152.4722,395.9023" style="stroke:#181818;stroke-width:1.5;"/><line style="stroke:#181818;stroke-width:1.5;" x1="152.4722" x2="144.4722" y1="395.9023" y2="395.9023"/><line style="stroke:#181818;stroke-width:1.5;" x1="144.4722" x2="144.4722" y1="395.9023" y2="413.7383"/><line style="stroke:#181818;stroke-width:1.5;" x1="144.4722" x2="152.4722" y1="413.7383" y2="413.7383"/><polygon fill="#181818" points="148.4722,409.7383,148.4722,413.7383,148.4722,417.7383,152.4722,413.7383" style="stroke:#181818;stroke-width:1.5;"/><line style="stroke:#181818;stroke-width:1.5;" x1="200.4722" x2="206.4722" y1="413.7383" y2="413.7383"/><line style="stroke:#181818;stroke-width:1.5;" x1="206.4722" x2="206.4722" y1="413.7383" y2="422.6563"/><line style="stroke:#181818;stroke-width:1.5;" x1="206.4722" x2="192.4722" y1="422.6563" y2="422.6563"/><line style="stroke:#181818;stroke-width:1.5;" x1="192.4722" x2="192.4722" y1="422.6563" y2="431.5742"/><line style="stroke:#181818;stroke-width:1.5;" x1="192.4722" x2="200.4722" y1="431.5742" y2="431.5742"/><polygon fill="#181818" points="196.4722,427.5742,196.4722,431.5742,196.4722,435.5742,200.4722,431.5742" style="stroke:#181818;stroke-width:1.5;"/><line style="stroke:#181818;stroke-width:1.5;" x1="216.4722" x2="222.4722" y1="395.9023" y2="395.9023"/><line style="stroke:#181818;stroke-width:1.5;" x1="222.4722" x2="222.4722" y1="395.9023" y2="440.4922"/><line style="stroke:#181818;stroke-width:1.5;" x1="222.4722" x2="208.4722" y1="440.4922" y2="440.4922"/><line style="stroke:#181818;stroke-width:1.5;" x1="208.4722" x2="208.4722" y1="440.4922" y2="449.4102"/><line style="stroke:#181818;stroke-width:1.5;" x1="208.4722" x2="216.4722" y1="449.4102" y2="449.4102"/><polygon fill="#181818" points="212.4722,445.4102,212.4722,449.4102,212.4722,453.4102,216.4722,449.4102" style="stroke:#181818;stroke-width:1.5;"/><line style="stroke:#181818;stroke-width:1.5;" x1="216.4722" x2="208.4722" y1="449.4102" y2="449.4102"/><line style="stroke:#181818;stroke-width:1.5;" x1="208.4722" x2="208.4722" y1="449.4102" y2="467.2461"/><line style="stroke:#181818;stroke-width:1.5;" x1="208.4722" x2="216.4722" y1="467.2461" y2="467.2461"/><polygon fill="#181818" points="212.4722,463.2461,212.4722,467.2461,212.4722,471.2461,216.4722,467.2461" style="stroke:#181818;stroke-width:1.5;"/><line style="stroke:#181818;stroke-width:1.5;" x1="248.4722" x2="254.4722" y1="467.2461" y2="467.2461"/><line style="stroke:#181818;stroke-width:1.5;" x1="254.4722" x2="254.4722" y1="467.2461" y2="476.1641"/><line style="stroke:#181818;stroke-width:1.5;" x1="254.4722" x2="240.4722" y1="476.1641" y2="476.1641"/><line style="stroke:#181818;stroke-width:1.5;" x1="240.4722" x2="240.4722" y1="476.1641" y2="485.082"/><line style="stroke:#181818;stroke-width:1.5;" x1="240.4722" x2="248.4722" y1="485.082" y2="485.082"/><polygon fill="#181818" points="244.4722,481.082,244.4722,485.082,244.4722,489.082,248.4722,485.082" style="stroke:#181818;stroke-width:1.5;"/><line style="stroke:#181818;stroke-width:1.5;" x1="216.4722" x2="208.4722" y1="449.4102" y2="449.4102"/><line style="stroke:#181818;stroke-width:1.5;" x1="208.4722" x2="208.4722" y1="449.4102" y2="502.918"/><line style="stroke:#181818;stroke-width:1.5;" x1="208.4722" x2="216.4722" y1="502.918" y2="502.918"/><polygon fill="#181818" points="212.4722,498.918,212.4722,502.918,212.4722,506.918,216.4722,502.918" style="stroke:#181818;stroke-width:1.5;"/><line style="stroke:#181818;stroke-width:1.5;" x1="216.4722" x2="208.4722" y1="502.918" y2="502.918"/><line style="stroke:#181818;stroke-width:1.5;" x1="208.4722" x2="208.4722" y1="502.918" y2="520.7539"/><line style="stroke:#181818;stroke-width:1.5;" x1="208.4722" x2="216.4722" y1="520.7539" y2="520.7539"/><polygon fill="#181818" points="212.4722,516.7539,212.4722,520.7539,212.4722,524.7539,216.4722,520.7539" style="stroke:#181818;stroke-width:1.5;"/><line style="stroke:#181818;stroke-width:1.5;" x1="248.4722" x2="254.4722" y1="520.7539" y2="520.7539"/><line style="stroke:#181818;stroke-width:1.5;" x1="254.4722" x2="254.4722" y1="520.7539" y2="529.6719"/><line style="stroke:#181818;stroke-width:1.5;" x1="254.4722" x2="240.4722" y1="529.6719" y2="529.6719"/><line style="stroke:#181818;stroke-width:1.5;" x1="240.4722" x2="240.4722" y1="529.6719" y2="538.5898"/><line style="stroke:#181818;stroke-width:1.5;" x1="240.4722" x2="248.4722" y1="538.5898" y2="538.5898"/><polygon fill="#181818" points="244.4722,534.5898,244.4722,538.5898,244.4722,542.5898,248.4722,538.5898" style="stroke:#181818;stroke-width:1.5;"/><line style="stroke:#181818;stroke-width:1.5;" x1="248.4722" x2="254.4722" y1="378.0664" y2="378.0664"/><line style="stroke:#181818;stroke-width:1.5;" x1="254.4722" x2="254.4722" y1="378.0664" y2="581.3438"/><line style="stroke:#181818;stroke-width:1.5;" x1="254.4722" x2="240.4722" y1="581.3438" y2="581.3438"/><line style="stroke:#181818;stroke-width:1.5;" x1="240.4722" x2="240.4722" y1="581.3438" y2="590.2617"/><line style="stroke:#181818;stroke-width:1.5;" x1="240.4722" x2="248.4722" y1="590.2617" y2="590.2617"/><polygon fill="#181818" points="244.4722,586.2617,244.4722,590.2617,244.4722,594.2617,248.4722,590.2617" style="stroke:#181818;stroke-width:1.5;"/><line style="stroke:#181818;stroke-width:1.5;" x1="248.4722" x2="240.4722" y1="590.2617" y2="590.2617"/><line style="stroke:#181818;stroke-width:1.5;" x1="240.4722" x2="240.4722" y1="590.2617" y2="608.0977"/><line style="stroke:#181818;stroke-width:1.5;" x1="240.4722" x2="248.4722" y1="608.0977" y2="608.0977"/><polygon fill="#181818" points="244.4722,604.0977,244.4722,608.0977,244.4722,612.0977,248.4722,608.0977" style="stroke:#181818;stroke-width:1.5;"/><line style="stroke:#181818;stroke-width:1.5;" x1="280.4722" x2="286.4722" y1="608.0977" y2="608.0977"/><line style="stroke:#181818;stroke-width:1.5;" x1="286.4722" x2="286.4722" y1="608.0977" y2="617.0156"/><line style="stroke:#181818;stroke-width:1.5;" x1="286.4722" x2="272.4722" y1="617.0156" y2="617.0156"/><line style="stroke:#181818;stroke-width:1.5;" x1="272.4722" x2="272.4722" y1="617.0156" y2="625.9336"/><line style="stroke:#181818;stroke-width:1.5;" x1="272.4722" x2="280.4722" y1="625.9336" y2="625.9336"/><polygon fill="#181818" points="276.4722,621.9336,276.4722,625.9336,276.4722,629.9336,280.4722,625.9336" style="stroke:#181818;stroke-width:1.5;"/><line style="stroke:#181818;stroke-width:1.5;" x1="248.4722" x2="240.4722" y1="590.2617" y2="590.2617"/><line style="stroke:#181818;stroke-width:1.5;" x1="240.4722" x2="240.4722" y1="590.2617" y2="643.7695"/><line style="stroke:#181818;stroke-width:1.5;" x1="240.4722" x2="248.4722" y1="643.7695" y2="643.7695"/><polygon fill="#181818" points="244.4722,639.7695,244.4722,643.7695,244.4722,647.7695,248.4722,643.7695" style="stroke:#181818;stroke-width:1.5;"/><line style="stroke:#181818;stroke-width:1.5;" x1="248.4722" x2="240.4722" y1="643.7695" y2="643.7695"/><line style="stroke:#181818;stroke-width:1.5;" x1="240.4722" x2="240.4722" y1="643.7695" y2="661.6055"/><line style="stroke:#181818;stroke-width:1.5;" x1="240.4722" x2="248.4722" y1="661.6055" y2="661.6055"/><polygon fill="#181818" points="244.4722,657.6055,244.4722,661.6055,244.4722,665.6055,248.4722,661.6055" style="stroke:#181818;stroke-width:1.5;"/><line style="stroke:#181818;stroke-width:1.5;" x1="280.4722" x2="286.4722" y1="661.6055" y2="661.6055"/><line style="stroke:#181818;stroke-width:1.5;" x1="286.4722" x2="286.4722" y1="661.6055" y2="670.5234"/><line style="stroke:#181818;stroke-width:1.5;" x1="286.4722" x2="272.4722" y1="670.5234" y2="670.5234"/><line style="stroke:#181818;stroke-width:1.5;" x1="272.4722" x2="272.4722" y1="670.5234" y2="679.4414"/><line style="stroke:#181818;stroke-width:1.5;" x1="272.4722" x2="280.4722" y1="679.4414" y2="679.4414"/><polygon fill="#181818" points="276.4722,675.4414,276.4722,679.4414,276.4722,683.4414,280.4722,679.4414" style="stroke:#181818;stroke-width:1.5;"/><line style="stroke:#181818;stroke-width:1.5;" x1="248.4722" x2="240.4722" y1="643.7695" y2="643.7695"/><line style="stroke:#181818;stroke-width:1.5;" x1="240.4722" x2="240.4722" y1="643.7695" y2="697.2773"/><line style="stroke:#181818;stroke-width:1.5;" x1="240.4722" x2="248.4722" y1="697.2773" y2="697.2773"/><polygon fill="#181818" points="244.4722,693.2773,244.4722,697.2773,244.4722,701.2773,248.4722,697.2773" style="stroke:#181818;stroke-width:1.5;"/><line style="stroke:#181818;stroke-width:1.5;" x1="248.4722" x2="240.4722" y1="697.2773" y2="697.2773"/><line style="stroke:#181818;stroke-width:1.5;" x1="240.4722" x2="240.4722" y1="697.2773" y2="715.1133"/><line style="stroke:#181818;stroke-width:1.5;" x1="240.4722" x2="248.4722" y1="715.1133" y2="715.1133"/><polygon fill="#181818" points="244.4722,711.1133,244.4722,715.1133,244.4722,719.1133,248.4722,715.1133" style="stroke:#181818;stroke-width:1.5;"/><line style="stroke:#181818;stroke-width:1.5;" x1="280.4722" x2="286.4722" y1="715.1133" y2="715.1133"/><line style="stroke:#181818;stroke-width:1.5;" x1="286.4722" x2="286.4722" y1="715.1133" y2="724.0313"/><line style="stroke:#181818;stroke-width:1.5;" x1="286.4722" x2="272.4722" y1="724.0313" y2="724.0313"/><line style="stroke:#181818;stroke-width:1.5;" x1="272.4722" x2="272.4722" y1="724.0313" y2="732.9492"/><line style="stroke:#181818;stroke-width:1.5;" x1="272.4722" x2="280.4722" y1="732.9492" y2="732.9492"/><polygon fill="#181818" points="276.4722,728.9492,276.4722,732.9492,276.4722,736.9492,280.4722,732.9492" style="stroke:#181818;stroke-width:1.5;"/><line style="stroke:#181818;stroke-width:1;" x1="89.4722" x2="94.4722" y1="86.5273" y2="86.5273"/><line style="stroke:#181818;stroke-width:1;" x1="254.229" x2="312.4722" y1="86.5273" y2="86.5273"/><rect fill="#ADD8E6" height="13.8359" style="stroke:none;stroke-width:1;" width="60" x="91.4722" y="105.4453"/><line style="stroke:#ADD8E6;stroke-width:1;" x1="91.4722" x2="151.4722" y1="105.4453" y2="105.4453"/><line style="stroke:#ADD8E6;stroke-width:1;" x1="91.4722" x2="151.4722" y1="119.2813" y2="119.2813"/><line style="stroke:#ADD8E6;stroke-width:1;" x1="91.4722" x2="91.4722" y1="105.4453" y2="119.2813"/><line style="stroke:#ADD8E6;stroke-width:1;" x1="151.4722" x2="151.4722" y1="105.4453" y2="119.2813"/><rect fill="#FFFF00" height="13.8359" style="stroke:none;stroke-width:1;" width="28" x="91.4722" y="123.2813"/><line style="stroke:#FFFF00;stroke-width:1;" x1="91.4722" x2="119.4722" y1="123.2813" y2="123.2813"/><line style="stroke:#FFFF00;stroke-width:1;" x1="91.4722" x2="119.4722" y1="137.1172" y2="137.1172"/><line style="stroke:#FFFF00;stroke-width:1;" x1="91.4722" x2="91.4722" y1="123.2813" y2="137.1172"/><line style="stroke:#FFFF00;stroke-width:1;" x1="119.4722" x2="119.4722" y1="123.2813" y2="137.1172"/><rect fill="#90EE90" height="13.8359" style="stroke:none;stroke-width:1;" width="44" x="123.4722" y="141.1172"/><line style="stroke:#90EE90;stroke-width:1;" x1="123.4722" x2="167.4722" y1="141.1172" y2="141.1172"/><line style="stroke:#90EE90;stroke-width:1;" x1="123.4722" x2="167.4722" y1="154.9531" y2="154.9531"/><line style="stroke:#90EE90;stroke-width:1;" x1="123.4722" x2="123.4722" y1="141.1172" y2="154.9531"/><line style="stroke:#90EE90;stroke-width:1;" x1="167.4722" x2="167.4722" y1="141.1172" y2="154.9531"/><rect fill="#FFA500" height="13.8359" style="stroke:none;stroke-width:1;" width="60" x="91.4722" y="158.9531"/><line style="stroke:#FFA500;stroke-width:1;" x1="91.4722" x2="151.4722" y1="158.9531" y2="158.9531"/><line style="stroke:#FFA500;stroke-width:1;" x1="91.4722" x2="151.4722" y1="172.7891" y2="172.7891"/><line style="stroke:#FFA500;stroke-width:1;" x1="91.4722" x2="91.4722" y1="158.9531" y2="172.7891"/><line style="stroke:#FFA500;stroke-width:1;" x1="151.4722" x2="151.4722" y1="158.9531" y2="172.7891"/><rect fill="#FFFF00" height="13.8359" style="stroke:none;stroke-width:1;" width="28" x="91.4722" y="176.7891"/><line style="stroke:#FFFF00;stroke-width:1;" x1="91.4722" x2="119.4722" y1="176.7891" y2="176.7891"/><line style="stroke:#FFFF00;stroke-width:1;" x1="91.4722" x2="119.4722" y1="190.625" y2="190.625"/><line style="stroke:#FFFF00;stroke-width:1;" x1="91.4722" x2="91.4722" y1="176.7891" y2="190.625"/><line style="stroke:#FFFF00;stroke-width:1;" x1="119.4722" x2="119.4722" y1="176.7891" y2="190.625"/><rect fill="#FFFF00" height="13.8359" style="stroke:none;stroke-width:1;" width="28" x="123.4722" y="194.625"/><line style="stroke:#FFFF00;stroke-width:1;" x1="123.4722" x2="151.4722" y1="194.625" y2="194.625"/><line style="stroke:#FFFF00;stroke-width:1;" x1="123.4722" x2="151.4722" y1="208.4609" y2="208.4609"/><line style="stroke:#FFFF00;stroke-width:1;" x1="123.4722" x2="123.4722" y1="194.625" y2="208.4609"/><line style="stroke:#FFFF00;stroke-width:1;" x1="151.4722" x2="151.4722" y1="194.625" y2="208.4609"/><rect fill="#FFC0CB" height="13.8359" style="stroke:none;stroke-width:1;" width="92" x="123.4722" y="212.4609"/><line style="stroke:#FFC0CB;stroke-width:1;" x1="123.4722" x2="215.4722" y1="212.4609" y2="212.4609"/><line style="stroke:#FFC0CB;stroke-width:1;" x1="123.4722" x2="215.4722" y1="226.2969" y2="226.2969"/><line style="stroke:#FFC0CB;stroke-width:1;" x1="123.4722" x2="123.4722" y1="212.4609" y2="226.2969"/><line style="stroke:#FFC0CB;stroke-width:1;" x1="215.4722" x2="215.4722" y1="212.4609" y2="226.2969"/><rect fill="#FFB6C1" height="13.8359" style="stroke:none;stroke-width:1;" width="28" x="123.4722" y="230.2969"/><line style="stroke:#FFB6C1;stroke-width:1;" x1="123.4722" x2="151.4722" y1="230.2969" y2="230.2969"/><line style="stroke:#FFB6C1;stroke-width:1;" x1="123.4722" x2="151.4722" y1="244.1328" y2="244.1328"/><line style="stroke:#FFB6C1;stroke-width:1;" x1="123.4722" x2="123.4722" y1="230.2969" y2="244.1328"/><line style="stroke:#FFB6C1;stroke-width:1;" x1="151.4722" x2="151.4722" y1="230.2969" y2="244.1328"/><rect fill="#FFB6C1" height="13.8359" style="stroke:none;stroke-width:1;" width="28" x="155.4722" y="248.1328"/><line style="stroke:#FFB6C1;stroke-width:1;" x1="155.4722" x2="183.4722" y1="248.1328" y2="248.1328"/><line style="stroke:#FFB6C1;stroke-width:1;" x1="155.4722" x2="183.4722" y1="261.9688" y2="261.9688"/><line style="stroke:#FFB6C1;stroke-width:1;" x1="155.4722" x2="155.4722" y1="248.1328" y2="261.9688"/><line style="stroke:#FFB6C1;stroke-width:1;" x1="183.4722" x2="183.4722" y1="248.1328" y2="261.9688"/><rect fill="#90EE90" height="13.8359" style="stroke:none;stroke-width:1;" width="28" x="187.4722" y="265.9688"/><line style="stroke:#90EE90;stroke-width:1;" x1="187.4722" x2="215.4722" y1="265.9688" y2="265.9688"/><line style="stroke:#90EE90;stroke-width:1;" x1="187.4722" x2="215.4722" y1="279.8047" y2="279.8047"/><line style="stroke:#90EE90;stroke-width:1;" x1="187.4722" x2="187.4722" y1="265.9688" y2="279.8047"/><line style="stroke:#90EE90;stroke-width:1;" x1="215.4722" x2="215.4722" y1="265.9688" y2="279.8047"/><line style="stroke:#181818;stroke-width:1;" x1="89.4722" x2="94.4722" y1="298.7227" y2="298.7227"/><line style="stroke:#181818;stroke-width:1;" x1="252.4136" x2="312.4722" y1="298.7227" y2="298.7227"/><rect fill="#ADD8E6" height="13.8359" style="stroke:none;stroke-width:1;" width="92" x="155.4722" y="317.6406"/><line style="stroke:#ADD8E6;stroke-width:1;" x1="155.4722" x2="247.4722" y1="317.6406" y2="317.6406"/><line style="stroke:#ADD8E6;stroke-width:1;" x1="155.4722" x2="247.4722" y1="331.4766" y2="331.4766"/><line style="stroke:#ADD8E6;stroke-width:1;" x1="155.4722" x2="155.4722" y1="317.6406" y2="331.4766"/><line style="stroke:#ADD8E6;stroke-width:1;" x1="247.4722" x2="247.4722" y1="317.6406" y2="331.4766"/><rect fill="#00FFFF" height="13.8359" style="stroke:none;stroke-width:1;" width="28" x="155.4722" y="335.4766"/><line style="stroke:#00FFFF;stroke-width:1;" x1="155.4722" x2="183.4722" y1="335.4766" y2="335.4766"/><line style="stroke:#00FFFF;stroke-width:1;" x1="155.4722" x2="183.4722" y1="349.3125" y2="349.3125"/><line style="stroke:#00FFFF;stroke-width:1;" x1="155.4722" x2="155.4722" y1="335.4766" y2="349.3125"/><line style="stroke:#00FFFF;stroke-width:1;" x1="183.4722" x2="183.4722" y1="335.4766" y2="349.3125"/><rect fill="#00FFFF" height="13.8359" style="stroke:none;stroke-width:1;" width="28" x="187.4722" y="353.3125"/><line style="stroke:#00FFFF;stroke-width:1;" x1="187.4722" x2="215.4722" y1="353.3125" y2="353.3125"/><line style="stroke:#00FFFF;stroke-width:1;" x1="187.4722" x2="215.4722" y1="367.1484" y2="367.1484"/><line style="stroke:#00FFFF;stroke-width:1;" x1="187.4722" x2="187.4722" y1="353.3125" y2="367.1484"/><line style="stroke:#00FFFF;stroke-width:1;" x1="215.4722" x2="215.4722" y1="353.3125" y2="367.1484"/><rect fill="#90EE90" height="13.8359" style="stroke:none;stroke-width:1;" width="28" x="219.4722" y="371.1484"/><line style="stroke:#90EE90;stroke-width:1;" x1="219.4722" x2="247.4722" y1="371.1484" y2="371.1484"/><line style="stroke:#90EE90;stroke-width:1;" x1="219.4722" x2="247.4722" y1="384.9844" y2="384.9844"/><line style="stroke:#90EE90;stroke-width:1;" x1="219.4722" x2="219.4722" y1="371.1484" y2="384.9844"/><line style="stroke:#90EE90;stroke-width:1;" x1="247.4722" x2="247.4722" y1="371.1484" y2="384.9844"/><rect fill="#800080" height="13.8359" style="stroke:none;stroke-width:1;" width="60" x="155.4722" y="388.9844"/><line style="stroke:#800080;stroke-width:1;" x1="155.4722" x2="215.4722" y1="388.9844" y2="388.9844"/><line style="stroke:#800080;stroke-width:1;" x1="155.4722" x2="215.4722" y1="402.8203" y2="402.8203"/><line style="stroke:#800080;stroke-width:1;" x1="155.4722" x2="155.4722" y1="388.9844" y2="402.8203"/><line style="stroke:#800080;stroke-width:1;" x1="215.4722" x2="215.4722" y1="388.9844" y2="402.8203"/><rect fill="#EE82EE" height="13.8359" style="stroke:none;stroke-width:1;" width="44" x="155.4722" y="406.8203"/><line style="stroke:#EE82EE;stroke-width:1;" x1="155.4722" x2="199.4722" y1="406.8203" y2="406.8203"/><line style="stroke:#EE82EE;stroke-width:1;" x1="155.4722" x2="199.4722" y1="420.6563" y2="420.6563"/><line style="stroke:#EE82EE;stroke-width:1;" x1="155.4722" x2="155.4722" y1="406.8203" y2="420.6563"/><line style="stroke:#EE82EE;stroke-width:1;" x1="199.4722" x2="199.4722" y1="406.8203" y2="420.6563"/><rect fill="#90EE90" height="13.8359" style="stroke:none;stroke-width:1;" width="28" x="203.4722" y="424.6563"/><line style="stroke:#90EE90;stroke-width:1;" x1="203.4722" x2="231.4722" y1="424.6563" y2="424.6563"/><line style="stroke:#90EE90;stroke-width:1;" x1="203.4722" x2="231.4722" y1="438.4922" y2="438.4922"/><line style="stroke:#90EE90;stroke-width:1;" x1="203.4722" x2="203.4722" y1="424.6563" y2="438.4922"/><line style="stroke:#90EE90;stroke-width:1;" x1="231.4722" x2="231.4722" y1="424.6563" y2="438.4922"/><rect fill="#008000" height="13.8359" style="stroke:none;stroke-width:1;" width="60" x="219.4722" y="442.4922"/><line style="stroke:#008000;stroke-width:1;" x1="219.4722" x2="279.4722" y1="442.4922" y2="442.4922"/><line style="stroke:#008000;stroke-width:1;" x1="219.4722" x2="279.4722" y1="456.3281" y2="456.3281"/><line style="stroke:#008000;stroke-width:1;" x1="219.4722" x2="219.4722" y1="442.4922" y2="456.3281"/><line style="stroke:#008000;stroke-width:1;" x1="279.4722" x2="279.4722" y1="442.4922" y2="456.3281"/><rect fill="#90EE90" height="13.8359" style="stroke:none;stroke-width:1;" width="28" x="219.4722" y="460.3281"/><line style="stroke:#90EE90;stroke-width:1;" x1="219.4722" x2="247.4722" y1="460.3281" y2="460.3281"/><line style="stroke:#90EE90;stroke-width:1;" x1="219.4722" x2="247.4722" y1="474.1641" y2="474.1641"/><line style="stroke:#90EE90;stroke-width:1;" x1="219.4722" x2="219.4722" y1="460.3281" y2="474.1641"/><line style="stroke:#90EE90;stroke-width:1;" x1="247.4722" x2="247.4722" y1="460.3281" y2="474.1641"/><rect fill="#006400" height="13.8359" style="stroke:none;stroke-width:1;" width="28" x="251.4722" y="478.1641"/><line style="stroke:#006400;stroke-width:1;" x1="251.4722" x2="279.4722" y1="478.1641" y2="478.1641"/><line style="stroke:#006400;stroke-width:1;" x1="251.4722" x2="279.4722" y1="492" y2="492"/><line style="stroke:#006400;stroke-width:1;" x1="251.4722" x2="251.4722" y1="478.1641" y2="492"/><line style="stroke:#006400;stroke-width:1;" x1="279.4722" x2="279.4722" y1="478.1641" y2="492"/><rect fill="#A52A2A" height="13.8359" style="stroke:none;stroke-width:1;" width="60" x="219.4722" y="496"/><line style="stroke:#A52A2A;stroke-width:1;" x1="219.4722" x2="279.4722" y1="496" y2="496"/><line style="stroke:#A52A2A;stroke-width:1;" x1="219.4722" x2="279.4722" y1="509.8359" y2="509.8359"/><line style="stroke:#A52A2A;stroke-width:1;" x1="219.4722" x2="219.4722" y1="496" y2="509.8359"/><line style="stroke:#A52A2A;stroke-width:1;" x1="279.4722" x2="279.4722" y1="496" y2="509.8359"/><rect fill="#DEB887" height="13.8359" style="stroke:none;stroke-width:1;" width="28" x="219.4722" y="513.8359"/><line style="stroke:#DEB887;stroke-width:1;" x1="219.4722" x2="247.4722" y1="513.8359" y2="513.8359"/><line style="stroke:#DEB887;stroke-width:1;" x1="219.4722" x2="247.4722" y1="527.6719" y2="527.6719"/><line style="stroke:#DEB887;stroke-width:1;" x1="219.4722" x2="219.4722" y1="513.8359" y2="527.6719"/><line style="stroke:#DEB887;stroke-width:1;" x1="247.4722" x2="247.4722" y1="513.8359" y2="527.6719"/><rect fill="#DEB887" height="13.8359" style="stroke:none;stroke-width:1;" width="28" x="251.4722" y="531.6719"/><line style="stroke:#DEB887;stroke-width:1;" x1="251.4722" x2="279.4722" y1="531.6719" y2="531.6719"/><line style="stroke:#DEB887;stroke-width:1;" x1="251.4722" x2="279.4722" y1="545.5078" y2="545.5078"/><line style="stroke:#DEB887;stroke-width:1;" x1="251.4722" x2="251.4722" y1="531.6719" y2="545.5078"/><line style="stroke:#DEB887;stroke-width:1;" x1="279.4722" x2="279.4722" y1="531.6719" y2="545.5078"/><line style="stroke:#181818;stroke-width:1;" x1="89.4722" x2="94.4722" y1="564.4258" y2="564.4258"/><line style="stroke:#181818;stroke-width:1;" x1="265.8628" x2="312.4722" y1="564.4258" y2="564.4258"/><rect fill="#FFD700" height="13.8359" style="stroke:none;stroke-width:1;" width="60" x="251.4722" y="583.3438"/><line style="stroke:#FFD700;stroke-width:1;" x1="251.4722" x2="311.4722" y1="583.3438" y2="583.3438"/><line style="stroke:#FFD700;stroke-width:1;" x1="251.4722" x2="311.4722" y1="597.1797" y2="597.1797"/><line style="stroke:#FFD700;stroke-width:1;" x1="251.4722" x2="251.4722" y1="583.3438" y2="597.1797"/><line style="stroke:#FFD700;stroke-width:1;" x1="311.4722" x2="311.4722" y1="583.3438" y2="597.1797"/><rect fill="#FFFF00" height="13.8359" style="stroke:none;stroke-width:1;" width="28" x="251.4722" y="601.1797"/><line style="stroke:#FFFF00;stroke-width:1;" x1="251.4722" x2="279.4722" y1="601.1797" y2="601.1797"/><line style="stroke:#FFFF00;stroke-width:1;" x1="251.4722" x2="279.4722" y1="615.0156" y2="615.0156"/><line style="stroke:#FFFF00;stroke-width:1;" x1="251.4722" x2="251.4722" y1="601.1797" y2="615.0156"/><line style="stroke:#FFFF00;stroke-width:1;" x1="279.4722" x2="279.4722" y1="601.1797" y2="615.0156"/><rect fill="#FFFF00" height="13.8359" style="stroke:none;stroke-width:1;" width="28" x="283.4722" y="619.0156"/><line style="stroke:#FFFF00;stroke-width:1;" x1="283.4722" x2="311.4722" y1="619.0156" y2="619.0156"/><line style="stroke:#FFFF00;stroke-width:1;" x1="283.4722" x2="311.4722" y1="632.8516" y2="632.8516"/><line style="stroke:#FFFF00;stroke-width:1;" x1="283.4722" x2="283.4722" y1="619.0156" y2="632.8516"/><line style="stroke:#FFFF00;stroke-width:1;" x1="311.4722" x2="311.4722" y1="619.0156" y2="632.8516"/><rect fill="#FFA500" height="13.8359" style="stroke:none;stroke-width:1;" width="60" x="251.4722" y="636.8516"/><line style="stroke:#FFA500;stroke-width:1;" x1="251.4722" x2="311.4722" y1="636.8516" y2="636.8516"/><line style="stroke:#FFA500;stroke-width:1;" x1="251.4722" x2="311.4722" y1="650.6875" y2="650.6875"/><line style="stroke:#FFA500;stroke-width:1;" x1="251.4722" x2="251.4722" y1="636.8516" y2="650.6875"/><line style="stroke:#FFA500;stroke-width:1;" x1="311.4722" x2="311.4722" y1="636.8516" y2="650.6875"/><rect fill="#FFFF00" height="13.8359" style="stroke:none;stroke-width:1;" width="28" x="251.4722" y="654.6875"/><line style="stroke:#FFFF00;stroke-width:1;" x1="251.4722" x2="279.4722" y1="654.6875" y2="654.6875"/><line style="stroke:#FFFF00;stroke-width:1;" x1="251.4722" x2="279.4722" y1="668.5234" y2="668.5234"/><line style="stroke:#FFFF00;stroke-width:1;" x1="251.4722" x2="251.4722" y1="654.6875" y2="668.5234"/><line style="stroke:#FFFF00;stroke-width:1;" x1="279.4722" x2="279.4722" y1="654.6875" y2="668.5234"/><rect fill="#FFFF00" height="13.8359" style="stroke:none;stroke-width:1;" width="28" x="283.4722" y="672.5234"/><line style="stroke:#FFFF00;stroke-width:1;" x1="283.4722" x2="311.4722" y1="672.5234" y2="672.5234"/><line style="stroke:#FFFF00;stroke-width:1;" x1="283.4722" x2="311.4722" y1="686.3594" y2="686.3594"/><line style="stroke:#FFFF00;stroke-width:1;" x1="283.4722" x2="283.4722" y1="672.5234" y2="686.3594"/><line style="stroke:#FFFF00;stroke-width:1;" x1="311.4722" x2="311.4722" y1="672.5234" y2="686.3594"/><rect fill="#90EE90" height="13.8359" style="stroke:none;stroke-width:1;" width="60" x="251.4722" y="690.3594"/><line style="stroke:#90EE90;stroke-width:1;" x1="251.4722" x2="311.4722" y1="690.3594" y2="690.3594"/><line style="stroke:#90EE90;stroke-width:1;" x1="251.4722" x2="311.4722" y1="704.1953" y2="704.1953"/><line style="stroke:#90EE90;stroke-width:1;" x1="251.4722" x2="251.4722" y1="690.3594" y2="704.1953"/><line style="stroke:#90EE90;stroke-width:1;" x1="311.4722" x2="311.4722" y1="690.3594" y2="704.1953"/><rect fill="#008000" height="13.8359" style="stroke:none;stroke-width:1;" width="28" x="251.4722" y="708.1953"/><line style="stroke:#008000;stroke-width:1;" x1="251.4722" x2="279.4722" y1="708.1953" y2="708.1953"/><line style="stroke:#008000;stroke-width:1;" x1="251.4722" x2="279.4722" y1="722.0313" y2="722.0313"/><line style="stroke:#008000;stroke-width:1;" x1="251.4722" x2="251.4722" y1="708.1953" y2="722.0313"/><line style="stroke:#008000;stroke-width:1;" x1="279.4722" x2="279.4722" y1="708.1953" y2="722.0313"/><rect fill="#006400" height="13.8359" style="stroke:none;stroke-width:1;" width="28" x="283.4722" y="726.0313"/><line style="stroke:#006400;stroke-width:1;" x1="283.4722" x2="311.4722" y1="726.0313" y2="726.0313"/><line style="stroke:#006400;stroke-width:1;" x1="283.4722" x2="311.4722" y1="739.8672" y2="739.8672"/><line style="stroke:#006400;stroke-width:1;" x1="283.4722" x2="283.4722" y1="726.0313" y2="739.8672"/><line style="stroke:#006400;stroke-width:1;" x1="311.4722" x2="311.4722" y1="726.0313" y2="739.8672"/><line style="stroke:#181818;stroke-width:1;" x1="89.4722" x2="94.4722" y1="758.7852" y2="758.7852"/><line style="stroke:#181818;stroke-width:1;" x1="196.769" x2="312.4722" y1="758.7852" y2="758.7852"/><polygon fill="#FF0000" points="97.4722,777.7031,102.4722,782.7031,97.4722,787.7031,92.4722,782.7031" style="stroke:#FF0000;stroke-width:1;"/><polygon fill="#FF0000" points="216.9388,795.5391,221.9388,800.5391,216.9388,805.5391,211.9388,800.5391" style="stroke:#FF0000;stroke-width:1;"/><polygon fill="#FF0000" points="280.9388,813.375,285.9388,818.375,280.9388,823.375,275.9388,818.375" style="stroke:#FF0000;stroke-width:1;"/><polygon fill="#FF0000" points="312.9388,831.2109,317.9388,836.2109,312.9388,841.2109,307.9388,836.2109" style="stroke:#FF0000;stroke-width:1;"/><text fill="#000000" font-family="sans-serif" font-size="11" lengthAdjust="spacing" textLength="149.7568" x="99.4722" y="91.0283">Phase 1 : Quick Wins (M1-M3)</text><text fill="#000000" font-family="sans-serif" font-size="11" lengthAdjust="spacing" textLength="71.543" x="155.4722" y="116.8643">App Mobile V1</text><text fill="#000000" font-family="sans-serif" font-size="11" lengthAdjust="spacing" textLength="66.6338" x="123.4722" y="134.7002">Design UI/UX</text><text fill="#000000" font-family="sans-serif" font-size="11" lengthAdjust="spacing" textLength="120.7529" x="171.4722" y="152.5361">Dev Mobile iOS+Android</text><text fill="#000000" font-family="sans-serif" font-size="11" lengthAdjust="spacing" textLength="73.3799" x="155.4722" y="170.3721">Module Photos</text><text fill="#000000" font-family="sans-serif" font-size="11" lengthAdjust="spacing" textLength="60.543" x="123.4722" y="188.208">Upload Auto</text><text fill="#000000" font-family="sans-serif" font-size="11" lengthAdjust="spacing" textLength="112.7983" x="155.4722" y="206.0439">Galerie + Compression</text><text fill="#000000" font-family="sans-serif" font-size="11" lengthAdjust="spacing" textLength="83.7676" x="127.4722" y="223.8799">Module Rapports</text><text fill="#000000" font-family="sans-serif" font-size="11" lengthAdjust="spacing" textLength="76.4092" x="155.4722" y="241.7158">Templates PDF</text><text fill="#000000" font-family="sans-serif" font-size="11" lengthAdjust="spacing" textLength="80.1099" x="187.4722" y="259.5518">Generation Auto</text><text fill="#000000" font-family="sans-serif" font-size="11" lengthAdjust="spacing" textLength="71.543" x="219.4722" y="277.3877">Signature Elec</text><text fill="#000000" font-family="sans-serif" font-size="11" lengthAdjust="spacing" textLength="147.9414" x="99.4722" y="303.2236">Phase 2 : Structurant (M4-M8)</text><text fill="#000000" font-family="sans-serif" font-size="11" lengthAdjust="spacing" textLength="74.6045" x="159.4722" y="329.0596">Backend Cloud</text><text fill="#000000" font-family="sans-serif" font-size="11" lengthAdjust="spacing" textLength="85.2876" x="187.4722" y="346.8955">API REST + Auth</text><text fill="#000000" font-family="sans-serif" font-size="11" lengthAdjust="spacing" textLength="72.1606" x="219.4722" y="364.7314">Base Donnees</text><text fill="#000000" font-family="sans-serif" font-size="11" lengthAdjust="spacing" textLength="79.4814" x="251.4722" y="382.5674">Azure Functions</text><text fill="#000000" font-family="sans-serif" font-size="11" lengthAdjust="spacing" textLength="83.1606" x="219.4722" y="400.4033">Module Incidents</text><text fill="#000000" font-family="sans-serif" font-size="11" lengthAdjust="spacing" textLength="115.8276" x="203.4722" y="418.2393">Formulaires + Workflow</text><text fill="#000000" font-family="sans-serif" font-size="11" lengthAdjust="spacing" textLength="59.9146" x="235.4722" y="436.0752">Notifications</text><text fill="#000000" font-family="sans-serif" font-size="11" lengthAdjust="spacing" textLength="66.6499" x="283.4722" y="453.9111">Module Plans</text><text fill="#000000" font-family="sans-serif" font-size="11" lengthAdjust="spacing" textLength="61.7568" x="251.4722" y="471.7471">Visualisation</text><text fill="#000000" font-family="sans-serif" font-size="11" lengthAdjust="spacing" textLength="95.0898" x="283.4722" y="489.583">Annotations + Sync</text><text fill="#000000" font-family="sans-serif" font-size="11" lengthAdjust="spacing" textLength="101.4922" x="283.4722" y="507.4189">Module Commandes</text><text fill="#000000" font-family="sans-serif" font-size="11" lengthAdjust="spacing" textLength="50.1499" x="251.4722" y="525.2549">Catalogue</text><text fill="#000000" font-family="sans-serif" font-size="11" lengthAdjust="spacing" textLength="81.603" x="283.4722" y="543.0908">Workflow + Suivi</text><text fill="#000000" font-family="sans-serif" font-size="11" lengthAdjust="spacing" textLength="161.3906" x="99.4722" y="568.9268">Phase 3 : Optimisation (M9-M12)</text><text fill="#000000" font-family="sans-serif" font-size="11" lengthAdjust="spacing" textLength="83.7676" x="315.4722" y="594.7627">Mode Hors Ligne</text><text fill="#000000" font-family="sans-serif" font-size="11" lengthAdjust="spacing" textLength="62.9814" x="283.4722" y="612.5986">SQLite Local</text><text fill="#000000" font-family="sans-serif" font-size="11" lengthAdjust="spacing" textLength="61.7622" x="315.4722" y="630.4346">Sync Engine</text><text fill="#000000" font-family="sans-serif" font-size="11" lengthAdjust="spacing" textLength="98.4468" x="315.4722" y="648.2705">Dashboard Chantier</text><text fill="#000000" font-family="sans-serif" font-size="11" lengthAdjust="spacing" textLength="97.2168" x="283.4722" y="666.1064">Budget Temps Reel</text><text fill="#000000" font-family="sans-serif" font-size="11" lengthAdjust="spacing" textLength="78.5791" x="315.4722" y="683.9424">Planning + KPIs</text><text fill="#000000" font-family="sans-serif" font-size="11" lengthAdjust="spacing" textLength="114.3291" x="315.4722" y="701.7783">Formation Deploiement</text><text fill="#000000" font-family="sans-serif" font-size="11" lengthAdjust="spacing" textLength="81.3076" x="283.4722" y="719.6143">Formation Chefs</text><text fill="#000000" font-family="sans-serif" font-size="11" lengthAdjust="spacing" textLength="95.686" x="315.4722" y="737.4502">Support + GO-LIVE</text><text fill="#000000" font-family="sans-serif" font-size="11" lengthAdjust="spacing" textLength="92.2969" x="99.4722" y="763.2861">Jalons GO/NO-GO</text><text fill="#000000" font-family="sans-serif" font-size="11" lengthAdjust="spacing" textLength="100.8638" x="105.4722" y="789.1221">GO/NO-GO Phase 1</text><text fill="#000000" font-family="sans-serif" font-size="11" lengthAdjust="spacing" textLength="67.8799" x="224.9388" y="806.958">Bilan Phase 1</text><text fill="#000000" font-family="sans-serif" font-size="11" lengthAdjust="spacing" textLength="67.8799" x="288.9388" y="824.7939">Bilan Phase 2</text><text fill="#000000" font-family="sans-serif" font-size="11" lengthAdjust="spacing" textLength="71.5215" x="320.9388" y="842.6299">GO-LIVE Final</text><line style="stroke:#C0C0C0;stroke-width:1;" x1="89.4722" x2="89.4722" y1="847.0469" y2="861.0469"/><line style="stroke:#C0C0C0;stroke-width:1;" x1="104.4055" x2="104.4055" y1="847.0469" y2="861.0469"/><text fill="#000000" font-family="sans-serif" font-size="10" lengthAdjust="spacing" textLength="17.7832" x="89.4722" y="857.4277">Nov</text><line style="stroke:#C0C0C0;stroke-width:1;" x1="137.4722" x2="137.4722" y1="847.0469" y2="861.0469"/><text fill="#000000" font-family="sans-serif" font-size="10" lengthAdjust="spacing" textLength="17.7832" x="112.0472" y="857.4277">Dec</text><line style="stroke:#C0C0C0;stroke-width:1;" x1="170.5388" x2="170.5388" y1="847.0469" y2="861.0469"/><text fill="#000000" font-family="sans-serif" font-size="10" lengthAdjust="spacing" textLength="16.123" x="145.944" y="857.4277">Jan</text><line style="stroke:#C0C0C0;stroke-width:1;" x1="200.4055" x2="200.4055" y1="847.0469" y2="861.0469"/><text fill="#000000" font-family="sans-serif" font-size="10" lengthAdjust="spacing" textLength="17.2314" x="176.8564" y="857.4277">Feb</text><line style="stroke:#C0C0C0;stroke-width:1;" x1="233.4722" x2="233.4722" y1="847.0469" y2="861.0469"/><text fill="#000000" font-family="sans-serif" font-size="10" lengthAdjust="spacing" textLength="27.7832" x="203.0472" y="857.4277">March</text><line style="stroke:#C0C0C0;stroke-width:1;" x1="265.4722" x2="265.4722" y1="847.0469" y2="861.0469"/><text fill="#000000" font-family="sans-serif" font-size="10" lengthAdjust="spacing" textLength="20.0049" x="239.4697" y="857.4277">April</text><line style="stroke:#C0C0C0;stroke-width:1;" x1="298.5388" x2="298.5388" y1="847.0469" y2="861.0469"/><text fill="#000000" font-family="sans-serif" font-size="10" lengthAdjust="spacing" textLength="18.8916" x="272.5597" y="857.4277">May</text><text fill="#000000" font-family="sans-serif" font-size="10" lengthAdjust="spacing" textLength="16.123" x="298.5388" y="857.4277">Jun</text><line style="stroke:#C0C0C0;stroke-width:1;" x1="313.4722" x2="313.4722" y1="847.0469" y2="861.0469"/><line style="stroke:#C0C0C0;stroke-width:1;" x1="89.4722" x2="89.4722" y1="861.0469" y2="877.0469"/><line style="stroke:#C0C0C0;stroke-width:1;" x1="137.4722" x2="137.4722" y1="861.0469" y2="877.0469"/><text fill="#000000" font-family="sans-serif" font-size="12" font-weight="bold" lengthAdjust="spacing" textLength="26.6953" x="100.1245" y="873.5039">2025</text><text fill="#000000" font-family="sans-serif" font-size="12" font-weight="bold" lengthAdjust="spacing" textLength="26.6953" x="212.1245" y="873.5039">2026</text><line style="stroke:#C0C0C0;stroke-width:1;" x1="313.4722" x2="313.4722" y1="861.0469" y2="877.0469"/><line style="stroke:#C0C0C0;stroke-width:1;" x1="89.4722" x2="313.4722" y1="847.0469" y2="847.0469"/><line style="stroke:#C0C0C0;stroke-width:1;" x1="89.4722" x2="313.4722" y1="861.0469" y2="861.0469"/><line style="stroke:#C0C0C0;stroke-width:1;" x1="89.4722" x2="313.4722" y1="877.0469" y2="877.0469"/><!--SRC=[fLVRSXev47sVh-YtjSj54Z1s79x2VN704B3nRhcsKlAC0Aq7YP8qfDYltzPeD1SC7fTveHXrgq_tKUj8-guqaNf9kDRGDx-_9Y7XdF7bhy5w4z8rvPfe9hZdQQP32iuCHJDKQp0IJ467BPac8LDskBt2e8nAvNaRoRXMFi4WQy7rAjoPCV4lzJN4MIYeVQbTLQhLIlMhvrKgC5aHHQ4A3VWPCVy57XbNS3QgLaQNvr2fUDvJSxD1s6U6CUVLVu0eC4FcRqWK1hp-0W7PAI0y04pE5w6G5Fzo6BBbIhV2Y7fkne4SdZfKiIM7Xy7dXxziU3lYubyUZVyt3KFnEpOaWObsoVsXx9Y9ltNvi_7ieia3ALZWaBRMvC3gLsyMqvUKydt095r4f3p0WaOYYCmgheGMokAu_sMCZINXIwJB-H_Yws4J2X90Cz8Y5zoEVfIp12yZhOyj91c52sYBzKPIfR3JSd1eFmahINUViodPR0GwMgJioo9zEueqOVp5o_aNUAjPtkufxYQYgO99frS0Y2tbvSGTO93sAqfnS_nHJgNTdjb29NveEntCvfpmzpJ31YGwaXIw8VKBQBDtRQNZtPrBsgrMAXirb8sPbf6FqAX1g1lrokWcqOqMyL_G7TgXY9BjbWoLhsTEET8vXxQuRPxcP03JxkmUknN9NXMmq5PUVNj7NjNjSBCrRPcIEu9pIbK1ezCw2SAaw1Qo-PzPn5x4VTCxHHWpUifAPjdkRxi1zrc0nqo2b_ii4wn99F68yl9JtkBGU-e9kOv2mb1ISBaUXNnPe4QakCPShiLp9aAgz-lBSiZMx4vejc0-oR69Rl7eALIwJ5zfFfxSJlBjtp82u_2UypvMZGMPCnMbntuEnOoVKeq5pqXhSYxibSEiqMp7_HnOR2n7wn3vSXmipdYVF3nfrkZiDbVkiup4bXI_aSJSZEFLeHl1ovDOHZJ1MGSuKbvHAvBXxb68OB-Y33QZq3MsuIzYMvP26SCfM3RPLqfyYKeytcYsTfV2iz6togXQIxGO6QRmfv3AT05F2Xyl5Y7Zz1qzAaAKfjJzzGQFbIbTpjdF8TCKXi8tbuG42GS_Uc5mm1cxfYMXovSiLufjqmyZcFpI2Zf4hPu5aK5wjqwkYsxy_JUvt9ItIiBJ9GgMg6dcN5SmfJJC8AtfeyLb6MG4fY-C2_Wn6QWCwiTxZilZE4ccAP5696q_TYZU-5ZycB5egUcTxuX4A7FJtgun3zvUqONAOCrdUPK7rIk3ptLZ5D-GaCl-k38SpBiPKdzyWbAcgUPs-oqg5wfoV_pvRbpfZ-tkJh-Invp5Zrtn_melS9J78TqxebRtKdCncIarozPYs1y7ejKAqGetJ7U1SNvbOMkvi9V5i4ub2o4l3uTC68SUuqviOlTwCMIo5eM8zOCHlwD3_5JtFBD9zCDe25jyMyVlxqz8OFtJpLbFChWJMwXUGVMcKQytwjVGxjuRVkldtbb_CWGb8kbJ29ZIaZr7fcNElLko9J2DK57Mj07cw-n-T0wphXj4KTioARZP9jxjV6ITKBdrR2Dqx7nThxIOXXcLc1RCHrw7BaWKQfpgYm3tT0FQcshjgkODKO4YiaIaXVJQ0X7ahW6zwVy0]--></g></svg>