<svg xmlns="http://www.w3.org/2000/svg" xmlns:xlink="http://www.w3.org/1999/xlink" contentStyleType="text/css" height="1315px" preserveAspectRatio="none" style="width:916px;height:1315px;background:#FFFFFF;" version="1.1" viewBox="0 0 916 1315" width="916px" zoomAndPan="magnify"><title>Remontee Incident Chantier (Avant vs Apres)</title><defs/><g><text fill="#000000" font-family="sans-serif" font-size="14" font-weight="bold" lengthAdjust="spacing" textLength="301.0615" x="303.9338" y="29.5332">Remontee Incident Chantier (Avant vs Apres)</text><line style="stroke:#181818;stroke-width:0.5;stroke-dasharray:5.0,5.0;" x1="55" x2="55" y1="138.8281" y2="1215.2969"/><line style="stroke:#181818;stroke-width:0.5;stroke-dasharray:5.0,5.0;" x1="283.9087" x2="283.9087" y1="138.8281" y2="1215.2969"/><line style="stroke:#181818;stroke-width:0.5;stroke-dasharray:5.0,5.0;" x1="375.4946" x2="375.4946" y1="138.8281" y2="1215.2969"/><line style="stroke:#181818;stroke-width:0.5;stroke-dasharray:5.0,5.0;" x1="517.7656" x2="517.7656" y1="138.8281" y2="1215.2969"/><line style="stroke:#181818;stroke-width:0.5;stroke-dasharray:5.0,5.0;" x1="638.6958" x2="638.6958" y1="138.8281" y2="1215.2969"/><line style="stroke:#181818;stroke-width:0.5;stroke-dasharray:5.0,5.0;" x1="772.9116" x2="772.9116" y1="138.8281" y2="1215.2969"/><text fill="#000000" font-family="sans-serif" font-size="14" lengthAdjust="spacing" textLength="31.1104" x="37.2964" y="118.1426">Marc</text><text fill="#000000" font-family="sans-serif" font-size="14" lengthAdjust="spacing" textLength="95.7031" x="5" y="135.752">(Chef Chantier)</text><ellipse cx="55.8516" cy="52.1094" fill="#E2E2F0" rx="8" ry="8" style="stroke:#181818;stroke-width:0.5;"/><path d="M55.8516,60.1094 L55.8516,87.1094 M42.8516,68.1094 L68.8516,68.1094 M55.8516,87.1094 L42.8516,102.1094 M55.8516,87.1094 L68.8516,102.1094 " fill="none" style="stroke:#181818;stroke-width:0.5;"/><text fill="#000000" font-family="sans-serif" font-size="14" lengthAdjust="spacing" textLength="31.1104" x="37.2964" y="1228.8301">Marc</text><text fill="#000000" font-family="sans-serif" font-size="14" lengthAdjust="spacing" textLength="95.7031" x="5" y="1246.4395">(Chef Chantier)</text><ellipse cx="55.8516" cy="1258.0156" fill="#E2E2F0" rx="8" ry="8" style="stroke:#181818;stroke-width:0.5;"/><path d="M55.8516,1266.0156 L55.8516,1293.0156 M42.8516,1274.0156 L68.8516,1274.0156 M55.8516,1293.0156 L42.8516,1308.0156 M55.8516,1293.0156 L68.8516,1308.0156 " fill="none" style="stroke:#181818;stroke-width:0.5;"/><rect fill="#E2E2F0" height="49.2188" rx="2.5" ry="2.5" style="stroke:#181818;stroke-width:0.5;" width="78.5859" x="244.9087" y="88.6094"/><text fill="#000000" font-family="sans-serif" font-size="14" lengthAdjust="spacing" textLength="64.5859" x="251.9087" y="110.1426">WhatsApp</text><text fill="#000000" font-family="sans-serif" font-size="14" lengthAdjust="spacing" textLength="48.2344" x="260.0845" y="127.752">(Actuel)</text><rect fill="#E2E2F0" height="49.2188" rx="2.5" ry="2.5" style="stroke:#181818;stroke-width:0.5;" width="78.5859" x="244.9087" y="1214.2969"/><text fill="#000000" font-family="sans-serif" font-size="14" lengthAdjust="spacing" textLength="64.5859" x="251.9087" y="1235.8301">WhatsApp</text><text fill="#000000" font-family="sans-serif" font-size="14" lengthAdjust="spacing" textLength="48.2344" x="260.0845" y="1253.4395">(Actuel)</text><rect fill="#E2E2F0" height="49.2188" rx="2.5" ry="2.5" style="stroke:#181818;stroke-width:0.5;" width="84.041" x="333.4946" y="88.6094"/><text fill="#000000" font-family="sans-serif" font-size="14" lengthAdjust="spacing" textLength="70.041" x="340.4946" y="110.1426">App Mobile</text><text fill="#000000" font-family="sans-serif" font-size="14" lengthAdjust="spacing" textLength="41.2275" x="354.9014" y="127.752">(Cible)</text><rect fill="#E2E2F0" height="49.2188" rx="2.5" ry="2.5" style="stroke:#181818;stroke-width:0.5;" width="84.041" x="333.4946" y="1214.2969"/><text fill="#000000" font-family="sans-serif" font-size="14" lengthAdjust="spacing" textLength="70.041" x="340.4946" y="1235.8301">App Mobile</text><text fill="#000000" font-family="sans-serif" font-size="14" lengthAdjust="spacing" textLength="41.2275" x="354.9014" y="1253.4395">(Cible)</text><rect fill="#E2E2F0" height="49.2188" rx="2.5" ry="2.5" style="stroke:#181818;stroke-width:0.5;" width="68.4824" x="483.7656" y="88.6094"/><text fill="#000000" font-family="sans-serif" font-size="14" lengthAdjust="spacing" textLength="54.4824" x="490.7656" y="110.1426">Backend</text><text fill="#000000" font-family="sans-serif" font-size="14" lengthAdjust="spacing" textLength="36.5791" x="499.7173" y="127.752">Cloud</text><rect fill="#E2E2F0" height="49.2188" rx="2.5" ry="2.5" style="stroke:#181818;stroke-width:0.5;" width="68.4824" x="483.7656" y="1214.2969"/><text fill="#000000" font-family="sans-serif" font-size="14" lengthAdjust="spacing" textLength="54.4824" x="490.7656" y="1235.8301">Backend</text><text fill="#000000" font-family="sans-serif" font-size="14" lengthAdjust="spacing" textLength="36.5791" x="499.7173" y="1253.4395">Cloud</text><rect fill="#E2E2F0" height="49.2188" rx="2.5" ry="2.5" style="stroke:#181818;stroke-width:0.5;" width="95.7236" x="591.6958" y="88.6094"/><text fill="#000000" font-family="sans-serif" font-size="14" lengthAdjust="spacing" textLength="81.7236" x="598.6958" y="110.1426">Responsable</text><text fill="#000000" font-family="sans-serif" font-size="14" lengthAdjust="spacing" textLength="40.4619" x="619.3267" y="127.752">Affaire</text><rect fill="#E2E2F0" height="49.2188" rx="2.5" ry="2.5" style="stroke:#181818;stroke-width:0.5;" width="95.7236" x="591.6958" y="1214.2969"/><text fill="#000000" font-family="sans-serif" font-size="14" lengthAdjust="spacing" textLength="81.7236" x="598.6958" y="1235.8301">Responsable</text><text fill="#000000" font-family="sans-serif" font-size="14" lengthAdjust="spacing" textLength="40.4619" x="619.3267" y="1253.4395">Affaire</text><rect fill="#E2E2F0" height="49.2188" rx="2.5" ry="2.5" style="stroke:#181818;stroke-width:0.5;" width="59.1445" x="743.9116" y="88.6094"/><text fill="#000000" font-family="sans-serif" font-size="14" lengthAdjust="spacing" textLength="45.1445" x="750.9116" y="110.1426">Bureau</text><text fill="#000000" font-family="sans-serif" font-size="14" lengthAdjust="spacing" textLength="43.5859" x="751.6909" y="127.752">Etudes</text><rect fill="#E2E2F0" height="49.2188" rx="2.5" ry="2.5" style="stroke:#181818;stroke-width:0.5;" width="59.1445" x="743.9116" y="1214.2969"/><text fill="#000000" font-family="sans-serif" font-size="14" lengthAdjust="spacing" textLength="45.1445" x="750.9116" y="1235.8301">Bureau</text><text fill="#000000" font-family="sans-serif" font-size="14" lengthAdjust="spacing" textLength="43.5859" x="751.6909" y="1253.4395">Etudes</text><rect fill="#EEEEEE" height="3" style="stroke:#EEEEEE;stroke-width:1;" width="909.9292" x="0" y="170.0039"/><line style="stroke:#000000;stroke-width:1;" x1="0" x2="909.9292" y1="170.0039" y2="170.0039"/><line style="stroke:#000000;stroke-width:1;" x1="0" x2="909.9292" y1="173.0039" y2="173.0039"/><rect fill="#EEEEEE" height="24.3516" style="stroke:#000000;stroke-width:2;" width="266.7891" x="321.5701" y="158.8281"/><text fill="#000000" font-family="sans-serif" font-size="13" font-weight="bold" lengthAdjust="spacing" textLength="249.1772" x="327.5701" y="176.3232">AVANT : WhatsApp (Aucune Tracabilite)</text><polygon fill="#181818" points="272.2017,230.8828,282.2017,234.8828,272.2017,238.8828,276.2017,234.8828" style="stroke:#181818;stroke-width:1;"/><line style="stroke:#181818;stroke-width:1;" x1="55.8516" x2="278.2017" y1="234.8828" y2="234.8828"/><text fill="#000000" font-family="sans-serif" font-size="13" lengthAdjust="spacing" textLength="84.5444" x="62.8516" y="213.6748">Message texte</text><text fill="#000000" font-family="sans-serif" font-size="13" lengthAdjust="spacing" textLength="204.3501" x="62.8516" y="230.0264">"Probleme alimentation tableau B2"</text><path d="M289,198.1797 L289,240.1797 L411,240.1797 L411,208.1797 L401,198.1797 L289,198.1797 " fill="#FEFFDD" style="stroke:#181818;stroke-width:0.5;"/><path d="M401,198.1797 L401,208.1797 L411,208.1797 L401,198.1797 " fill="#FEFFDD" style="stroke:#181818;stroke-width:0.5;"/><text fill="#000000" font-family="sans-serif" font-size="13" lengthAdjust="spacing" textLength="101.8862" x="295" y="216.6748">Aucune structure,</text><text fill="#000000" font-family="sans-serif" font-size="13" lengthAdjust="spacing" textLength="96.1226" x="295" y="233.0264">pas de categorie</text><polygon fill="#181818" points="627.5576,275.4102,637.5576,279.4102,627.5576,283.4102,631.5576,279.4102" style="stroke:#181818;stroke-width:1;"/><line style="stroke:#181818;stroke-width:1;" x1="284.2017" x2="633.5576" y1="279.4102" y2="279.4102"/><text fill="#000000" font-family="sans-serif" font-size="13" lengthAdjust="spacing" textLength="127.8926" x="291.2017" y="274.5537">Notification WhatsApp</text><path d="M644,250.8828 L644,292.8828 L848,292.8828 L848,260.8828 L838,250.8828 L644,250.8828 " fill="#FEFFDD" style="stroke:#181818;stroke-width:0.5;"/><path d="M838,250.8828 L838,260.8828 L848,260.8828 L838,250.8828 " fill="#FEFFDD" style="stroke:#181818;stroke-width:0.5;"/><text fill="#000000" font-family="sans-serif" font-size="13" lengthAdjust="spacing" textLength="183.5425" x="650" y="269.3779">Melange avec messages perso,</text><text fill="#000000" font-family="sans-serif" font-size="13" lengthAdjust="spacing" textLength="165.4834" x="650" y="285.7295">se perd dans fil conversation</text><line style="stroke:#181818;stroke-width:1;" x1="639.5576" x2="681.5576" y1="325.6133" y2="325.6133"/><line style="stroke:#181818;stroke-width:1;" x1="681.5576" x2="681.5576" y1="325.6133" y2="338.6133"/><line style="stroke:#181818;stroke-width:1;" x1="640.5576" x2="681.5576" y1="338.6133" y2="338.6133"/><polygon fill="#181818" points="650.5576,334.6133,640.5576,338.6133,650.5576,342.6133,646.5576,338.6133" style="stroke:#181818;stroke-width:1;"/><text fill="#000000" font-family="sans-serif" font-size="13" lengthAdjust="spacing" textLength="119.9263" x="646.5576" y="320.7568">Lit message (si vu...)</text><path d="M777.9263,303.5859 L777.9263,345.5859 L898.9263,345.5859 L898.9263,313.5859 L888.9263,303.5859 L777.9263,303.5859 " fill="#FEFFDD" style="stroke:#181818;stroke-width:0.5;"/><path d="M888.9263,303.5859 L888.9263,313.5859 L898.9263,313.5859 L888.9263,303.5859 " fill="#FEFFDD" style="stroke:#181818;stroke-width:0.5;"/><text fill="#000000" font-family="sans-serif" font-size="13" lengthAdjust="spacing" textLength="94.6753" x="783.9263" y="322.0811">Peut etre oublie,</text><text fill="#000000" font-family="sans-serif" font-size="13" lengthAdjust="spacing" textLength="100.4453" x="783.9263" y="338.4326">aucun suivi statut</text><polygon fill="#181818" points="66.8516,388.9922,56.8516,392.9922,66.8516,396.9922,62.8516,392.9922" style="stroke:#181818;stroke-width:1;"/><line style="stroke:#181818;stroke-width:1;" x1="60.8516" x2="638.5576" y1="392.9922" y2="392.9922"/><text fill="#000000" font-family="sans-serif" font-size="13" lengthAdjust="spacing" textLength="115.6226" x="72.8516" y="371.7842">Reponse WhatsApp</text><text fill="#000000" font-family="sans-serif" font-size="13" lengthAdjust="spacing" textLength="106.9644" x="72.8516" y="388.1357">(quand disponible)</text><path d="M644,356.2891 L644,398.2891 L850,398.2891 L850,366.2891 L840,356.2891 L644,356.2891 " fill="#FEFFDD" style="stroke:#181818;stroke-width:0.5;"/><path d="M840,356.2891 L840,366.2891 L850,366.2891 L840,356.2891 " fill="#FEFFDD" style="stroke:#181818;stroke-width:0.5;"/><text fill="#000000" font-family="sans-serif" font-size="13" lengthAdjust="spacing" textLength="185.7007" x="650" y="374.7842">Pas de traitement systematique,</text><text fill="#000000" font-family="sans-serif" font-size="13" lengthAdjust="spacing" textLength="144.8345" x="650" y="391.1357">pas d'historique structure</text><rect fill="#EEEEEE" height="3" style="stroke:#EEEEEE;stroke-width:1;" width="909.9292" x="0" y="425.168"/><line style="stroke:#000000;stroke-width:1;" x1="0" x2="909.9292" y1="425.168" y2="425.168"/><line style="stroke:#000000;stroke-width:1;" x1="0" x2="909.9292" y1="428.168" y2="428.168"/><rect fill="#EEEEEE" height="24.3516" style="stroke:#000000;stroke-width:2;" width="255.249" x="327.3401" y="413.9922"/><text fill="#000000" font-family="sans-serif" font-size="13" font-weight="bold" lengthAdjust="spacing" textLength="237.6372" x="333.3401" y="431.4873">APRES : Application Mobile (Tracable)</text><polygon fill="#181818" points="363.5151,532.1016,373.5151,536.1016,363.5151,540.1016,367.5151,536.1016" style="stroke:#181818;stroke-width:1;"/><line style="stroke:#181818;stroke-width:1;" x1="55.8516" x2="369.5151" y1="536.1016" y2="536.1016"/><text fill="#000000" font-family="sans-serif" font-size="13" lengthAdjust="spacing" textLength="111.2681" x="62.8516" y="465.8389">Formulaire Incident</text><text fill="#000000" font-family="sans-serif" font-size="13" lengthAdjust="spacing" textLength="159.6943" x="62.8516" y="482.1904">- Type: Probleme technique</text><text fill="#000000" font-family="sans-serif" font-size="13" lengthAdjust="spacing" textLength="129.3398" x="62.8516" y="498.542">- Categorie: Electrique</text><text fill="#000000" font-family="sans-serif" font-size="13" lengthAdjust="spacing" textLength="98.9917" x="62.8516" y="514.8936">- Urgence: Haute</text><text fill="#000000" font-family="sans-serif" font-size="13" lengthAdjust="spacing" textLength="121.7544" x="62.8516" y="531.2451">- Photo + Description</text><path d="M380,466.6953 L380,525.6953 L508,525.6953 L508,476.6953 L498,466.6953 L380,466.6953 " fill="#FEFFDD" style="stroke:#181818;stroke-width:0.5;"/><path d="M498,466.6953 L498,476.6953 L508,476.6953 L498,466.6953 " fill="#FEFFDD" style="stroke:#181818;stroke-width:0.5;"/><text fill="#000000" font-family="sans-serif" font-size="13" lengthAdjust="spacing" textLength="56.3545" x="386" y="485.1904">Structure,</text><text fill="#000000" font-family="sans-serif" font-size="13" lengthAdjust="spacing" textLength="57.0908" x="386" y="501.542">categorie,</text><text fill="#000000" font-family="sans-serif" font-size="13" lengthAdjust="spacing" textLength="107.6943" x="386" y="517.8936">photo automatique</text><polygon fill="#181818" points="506.0068,578.8047,516.0068,582.8047,506.0068,586.8047,510.0068,582.8047" style="stroke:#181818;stroke-width:1;"/><line style="stroke:#181818;stroke-width:1;" x1="375.5151" x2="512.0068" y1="582.8047" y2="582.8047"/><text fill="#000000" font-family="sans-serif" font-size="13" lengthAdjust="spacing" textLength="118.4917" x="382.5151" y="561.5967">API POST /incidents</text><text fill="#000000" font-family="sans-serif" font-size="13" lengthAdjust="spacing" textLength="88.8545" x="382.5151" y="577.9482">JSON structure</text><line style="stroke:#181818;stroke-width:1;" x1="518.0068" x2="560.0068" y1="645.8594" y2="645.8594"/><line style="stroke:#181818;stroke-width:1;" x1="560.0068" x2="560.0068" y1="645.8594" y2="658.8594"/><line style="stroke:#181818;stroke-width:1;" x1="519.0068" x2="560.0068" y1="658.8594" y2="658.8594"/><polygon fill="#181818" points="529.0068,654.8594,519.0068,658.8594,529.0068,662.8594,525.0068,658.8594" style="stroke:#181818;stroke-width:1;"/><text fill="#000000" font-family="sans-serif" font-size="13" lengthAdjust="spacing" textLength="97.5571" x="525.0068" y="608.2998">Creation incident</text><text fill="#000000" font-family="sans-serif" font-size="13" lengthAdjust="spacing" textLength="52.7617" x="525.0068" y="624.6514">ID #1234</text><text fill="#000000" font-family="sans-serif" font-size="13" lengthAdjust="spacing" textLength="93.228" x="525.0068" y="641.0029">Statut: Nouveau</text><polygon fill="#181818" points="627.5576,701.5625,637.5576,705.5625,627.5576,709.5625,631.5576,705.5625" style="stroke:#181818;stroke-width:1;"/><line style="stroke:#181818;stroke-width:1;" x1="518.0068" x2="633.5576" y1="705.5625" y2="705.5625"/><text fill="#000000" font-family="sans-serif" font-size="13" lengthAdjust="spacing" textLength="97.5508" x="525.0068" y="684.3545">Notification Push</text><text fill="#000000" font-family="sans-serif" font-size="13" lengthAdjust="spacing" textLength="97.1826" x="525.0068" y="700.7061">+ Email si urgent</text><polygon fill="#181818" points="761.4839,748.2656,771.4839,752.2656,761.4839,756.2656,765.4839,752.2656" style="stroke:#181818;stroke-width:1;"/><line style="stroke:#181818;stroke-width:1;" x1="518.0068" x2="767.4839" y1="752.2656" y2="752.2656"/><text fill="#000000" font-family="sans-serif" font-size="13" lengthAdjust="spacing" textLength="107.6563" x="525.0068" y="731.0576">Notification (copie)</text><text fill="#000000" font-family="sans-serif" font-size="13" lengthAdjust="spacing" textLength="127.188" x="525.0068" y="747.4092">si probleme technique</text><polygon fill="#181818" points="529.0068,794.9688,519.0068,798.9688,529.0068,802.9688,525.0068,798.9688" style="stroke:#181818;stroke-width:1;"/><line style="stroke:#181818;stroke-width:1;" x1="523.0068" x2="638.5576" y1="798.9688" y2="798.9688"/><text fill="#000000" font-family="sans-serif" font-size="13" lengthAdjust="spacing" textLength="91.0508" x="535.0068" y="777.7607">Prise en charge</text><text fill="#000000" font-family="sans-serif" font-size="13" lengthAdjust="spacing" textLength="92.4917" x="535.0068" y="794.1123">Statut: En cours</text><polygon fill="#181818" points="66.8516,841.6719,56.8516,845.6719,66.8516,849.6719,62.8516,845.6719" style="stroke:#181818;stroke-width:1;"/><line style="stroke:#181818;stroke-width:1;" x1="60.8516" x2="517.0068" y1="845.6719" y2="845.6719"/><text fill="#000000" font-family="sans-serif" font-size="13" lengthAdjust="spacing" textLength="64.3081" x="72.8516" y="824.4639">Notification</text><text fill="#000000" font-family="sans-serif" font-size="13" lengthAdjust="spacing" textLength="224.5864" x="72.8516" y="840.8154">"Incident #1234 pris en charge par RA"</text><polygon fill="#181818" points="761.4839,888.375,771.4839,892.375,761.4839,896.375,765.4839,892.375" style="stroke:#181818;stroke-width:1;"/><line style="stroke:#181818;stroke-width:1;" x1="639.5576" x2="767.4839" y1="892.375" y2="892.375"/><text fill="#000000" font-family="sans-serif" font-size="13" lengthAdjust="spacing" textLength="72.2681" x="646.5576" y="871.167">Consultation</text><text fill="#000000" font-family="sans-serif" font-size="13" lengthAdjust="spacing" textLength="84.5254" x="646.5576" y="887.5186">(si necessaire)</text><polygon fill="#181818" points="529.0068,935.0781,519.0068,939.0781,529.0068,943.0781,525.0068,939.0781" style="stroke:#181818;stroke-width:1;"/><line style="stroke:#181818;stroke-width:1;" x1="523.0068" x2="772.4839" y1="939.0781" y2="939.0781"/><text fill="#000000" font-family="sans-serif" font-size="13" lengthAdjust="spacing" textLength="108.3799" x="535.0068" y="917.8701">Ajout commentaire</text><text fill="#000000" font-family="sans-serif" font-size="13" lengthAdjust="spacing" textLength="104.7998" x="535.0068" y="934.2217">solution technique</text><polygon fill="#181818" points="66.8516,981.7813,56.8516,985.7813,66.8516,989.7813,62.8516,985.7813" style="stroke:#181818;stroke-width:1;"/><line style="stroke:#181818;stroke-width:1;" x1="60.8516" x2="517.0068" y1="985.7813" y2="985.7813"/><text fill="#000000" font-family="sans-serif" font-size="13" lengthAdjust="spacing" textLength="64.3081" x="72.8516" y="964.5732">Notification</text><text fill="#000000" font-family="sans-serif" font-size="13" lengthAdjust="spacing" textLength="126.2866" x="72.8516" y="980.9248">"Commentaire ajoute"</text><polygon fill="#181818" points="529.0068,1028.4844,519.0068,1032.4844,529.0068,1036.4844,525.0068,1032.4844" style="stroke:#181818;stroke-width:1;"/><line style="stroke:#181818;stroke-width:1;" x1="523.0068" x2="638.5576" y1="1032.4844" y2="1032.4844"/><text fill="#000000" font-family="sans-serif" font-size="13" lengthAdjust="spacing" textLength="61.4263" x="535.0068" y="1011.2764">Resolution</text><text fill="#000000" font-family="sans-serif" font-size="13" lengthAdjust="spacing" textLength="81.6563" x="535.0068" y="1027.6279">Statut: Resolu</text><polygon fill="#181818" points="66.8516,1075.1875,56.8516,1079.1875,66.8516,1083.1875,62.8516,1079.1875" style="stroke:#181818;stroke-width:1;"/><line style="stroke:#181818;stroke-width:1;" x1="60.8516" x2="517.0068" y1="1079.1875" y2="1079.1875"/><text fill="#000000" font-family="sans-serif" font-size="13" lengthAdjust="spacing" textLength="64.3081" x="72.8516" y="1057.9795">Notification</text><text fill="#000000" font-family="sans-serif" font-size="13" lengthAdjust="spacing" textLength="133.542" x="72.8516" y="1074.3311">"Incident #1234 resolu"</text><path d="M18,1092.1875 L18,1200.1875 L811,1200.1875 L811,1102.1875 L801,1092.1875 L18,1092.1875 " fill="#FEFFDD" style="stroke:#181818;stroke-width:0.5;"/><path d="M801,1092.1875 L801,1102.1875 L811,1102.1875 L801,1092.1875 " fill="#FEFFDD" style="stroke:#181818;stroke-width:0.5;"/><text fill="#000000" font-family="sans-serif" font-size="13" font-weight="bold" lengthAdjust="spacing" textLength="41.1709" x="328.5623" y="1110.6826">GAINS</text><text fill="#000000" font-family="sans-serif" font-size="13" lengthAdjust="spacing" textLength="3.6118" x="373.345" y="1110.6826">:</text><text fill="#000000" font-family="sans-serif" font-size="13" lengthAdjust="spacing" textLength="162.9316" x="328.5623" y="1127.0342">- 100% tracabilite (vs ~20%)</text><text fill="#000000" font-family="sans-serif" font-size="13" lengthAdjust="spacing" textLength="135.8271" x="328.5623" y="1143.3857">- Suivi statut temps reel</text><text fill="#000000" font-family="sans-serif" font-size="13" lengthAdjust="spacing" textLength="115.5972" x="328.5623" y="1159.7373">- Historique complet</text><text fill="#000000" font-family="sans-serif" font-size="13" lengthAdjust="spacing" textLength="108.3989" x="328.5623" y="1176.0889">- Photos attachees</text><text fill="#000000" font-family="sans-serif" font-size="13" lengthAdjust="spacing" textLength="149.5762" x="328.5623" y="1192.4404">- Pas de perte information</text><!--SRC=[bLLDRnen4BtlhnXHHOLyDKbxGgBIXj2MgaaGqER2nPWXwzRO6tkCcaj_UyTUbcMJGzNROe_dlNdpPY156c6A6si84SP6gXKQWc4X32bqqCst_0LR3tdfqFUoJ4Yo3Zgtmic5wGuBNE-ZUnqG7k9DLWf7IgeoFkuy589yNfOSdqiAgAl0XxmTnX5mQvTAOqoibXghE3vl1ruB-GlDQc66sePLYjaTjUEcw4jhl5Z6ZFbwBPJ353rzWNmT78gmC2CAA_HLmb6M3GQG_yZlvj27kWGM9CXW4EPEIC5S5M4F1eCiYsN3sKUkYiDlqNlnY43ucnYxCt6MIMmGX5OR5bYGiWOeCXC1hgywcR64uDHZGNtOGNXoWULoUBem9LDQ8KX1-6YTmYnZ74QRHhGxIsgjP9MqPjhAU8jQ6EOZjYXXKv7pKABpbfDxZ9yhM0dZOQqqI6ksV9SIPjcqGVgcg7uENQzW6yxFptijg0a60YI7OCDIgqXUn7h01xLLN9IWG7NI95gV3HZxX71WbASW33DIiOF92csGIWvoWlMFWe9_zlp5Z9_2Ng-tXV9irdZKY5crTJ8TpHYOiNGjN6Kzw5QTrI_Q6dlVXq_MROAEFjhFoiASmVovH2PLDvbG5YQYnhjXtR8-Z3HASlN5T_U8HlBn5n4edKmAInPEu0QzTAfCwXzMFJimnDu9iTZqZhFOdG1P5kaowzrOn4edOvZSp-RmJks8-uNvEhk_Er2cZcuz7F9e97tKlk3n3Rovl7h_OM5cgPlHWM7BJZxCyDgPa-2BXJc1qKQmnzWz8If0BTZHoqTTQKk5FJQfWlALmBMF6heJfzX8Q40MWjCt54TyP8FpXt0x-nq2yh3kjs0gab6LRn82BmwkhRD7Zeo7xDwWQPSW3eP16SU4ZTBBEAJTYf-MHqJQJTe47CB5MHsgbR2lx9yqXqq2434bTbxBmIjmbxfHeZhxRnrSUiOOoPAM5qHwTnfN9S3nyUTyV3SxFeO-_pg3oukBepYVzPA4Bl-7_BcwEEgbwzd1Ck2YDwNd_AZJtPTcQbcaKYEbupGT7WIHa0MYhmwhHS3hYo6KMVDyLbihLXQ9Pdy1]--></g></svg>