<svg xmlns="http://www.w3.org/2000/svg" xmlns:xlink="http://www.w3.org/1999/xlink" contentStyleType="text/css" height="347px" preserveAspectRatio="none" style="width:2777px;height:347px;background:#FFFFFF;" version="1.1" viewBox="0 0 2777 347" width="2777px" zoomAndPan="magnify"><title>Timeline Generation Rapport (Avant vs Apres)</title><defs/><g><text fill="#000000" font-family="sans-serif" font-size="14" font-weight="bold" lengthAdjust="spacing" textLength="307.2822" x="1195.2261" y="34.5332">Timeline Generation Rapport (Avant vs Apres)</text><line style="stroke:#333333;stroke-width:0.5;" x1="10" x2="10" y1="48.6094" y2="316.9219"/><line style="stroke:#333333;stroke-width:0.5;" x1="2688.7344" x2="2688.7344" y1="48.6094" y2="316.9219"/><rect fill="#FFAAAA" height="268.3125" style="stroke:none;stroke-width:1;" width="2250" x="133.7344" y="48.6094"/><rect fill="#AAFFAA" height="268.3125" style="stroke:none;stroke-width:1;" width="250" x="2383.7344" y="48.6094"/><line style="stroke:#333333;stroke-width:0.5;stroke-dasharray:3.0,5.0;" x1="133.7344" x2="133.7344" y1="48.6094" y2="316.9219"/><line style="stroke:#333333;stroke-width:0.5;stroke-dasharray:3.0,5.0;" x1="183.7344" x2="183.7344" y1="48.6094" y2="316.9219"/><line style="stroke:#333333;stroke-width:0.5;stroke-dasharray:3.0,5.0;" x1="233.7344" x2="233.7344" y1="48.6094" y2="316.9219"/><line style="stroke:#333333;stroke-width:0.5;stroke-dasharray:3.0,5.0;" x1="283.7344" x2="283.7344" y1="48.6094" y2="316.9219"/><line style="stroke:#333333;stroke-width:0.5;stroke-dasharray:3.0,5.0;" x1="333.7344" x2="333.7344" y1="48.6094" y2="316.9219"/><line style="stroke:#333333;stroke-width:0.5;stroke-dasharray:3.0,5.0;" x1="383.7344" x2="383.7344" y1="48.6094" y2="316.9219"/><line style="stroke:#333333;stroke-width:0.5;stroke-dasharray:3.0,5.0;" x1="433.7344" x2="433.7344" y1="48.6094" y2="316.9219"/><line style="stroke:#333333;stroke-width:0.5;stroke-dasharray:3.0,5.0;" x1="483.7344" x2="483.7344" y1="48.6094" y2="316.9219"/><line style="stroke:#333333;stroke-width:0.5;stroke-dasharray:3.0,5.0;" x1="533.7344" x2="533.7344" y1="48.6094" y2="316.9219"/><line style="stroke:#333333;stroke-width:0.5;stroke-dasharray:3.0,5.0;" x1="583.7344" x2="583.7344" y1="48.6094" y2="316.9219"/><line style="stroke:#333333;stroke-width:0.5;stroke-dasharray:3.0,5.0;" x1="633.7344" x2="633.7344" y1="48.6094" y2="316.9219"/><line style="stroke:#333333;stroke-width:0.5;stroke-dasharray:3.0,5.0;" x1="683.7344" x2="683.7344" y1="48.6094" y2="316.9219"/><line style="stroke:#333333;stroke-width:0.5;stroke-dasharray:3.0,5.0;" x1="733.7344" x2="733.7344" y1="48.6094" y2="316.9219"/><line style="stroke:#333333;stroke-width:0.5;stroke-dasharray:3.0,5.0;" x1="783.7344" x2="783.7344" y1="48.6094" y2="316.9219"/><line style="stroke:#333333;stroke-width:0.5;stroke-dasharray:3.0,5.0;" x1="833.7344" x2="833.7344" y1="48.6094" y2="316.9219"/><line style="stroke:#333333;stroke-width:0.5;stroke-dasharray:3.0,5.0;" x1="883.7344" x2="883.7344" y1="48.6094" y2="316.9219"/><line style="stroke:#333333;stroke-width:0.5;stroke-dasharray:3.0,5.0;" x1="933.7344" x2="933.7344" y1="48.6094" y2="316.9219"/><line style="stroke:#333333;stroke-width:0.5;stroke-dasharray:3.0,5.0;" x1="983.7344" x2="983.7344" y1="48.6094" y2="316.9219"/><line style="stroke:#333333;stroke-width:0.5;stroke-dasharray:3.0,5.0;" x1="1033.7344" x2="1033.7344" y1="48.6094" y2="316.9219"/><line style="stroke:#333333;stroke-width:0.5;stroke-dasharray:3.0,5.0;" x1="1083.7344" x2="1083.7344" y1="48.6094" y2="316.9219"/><line style="stroke:#333333;stroke-width:0.5;stroke-dasharray:3.0,5.0;" x1="1133.7344" x2="1133.7344" y1="48.6094" y2="316.9219"/><line style="stroke:#333333;stroke-width:0.5;stroke-dasharray:3.0,5.0;" x1="1183.7344" x2="1183.7344" y1="48.6094" y2="316.9219"/><line style="stroke:#333333;stroke-width:0.5;stroke-dasharray:3.0,5.0;" x1="1233.7344" x2="1233.7344" y1="48.6094" y2="316.9219"/><line style="stroke:#333333;stroke-width:0.5;stroke-dasharray:3.0,5.0;" x1="1283.7344" x2="1283.7344" y1="48.6094" y2="316.9219"/><line style="stroke:#333333;stroke-width:0.5;stroke-dasharray:3.0,5.0;" x1="1333.7344" x2="1333.7344" y1="48.6094" y2="316.9219"/><line style="stroke:#333333;stroke-width:0.5;stroke-dasharray:3.0,5.0;" x1="1383.7344" x2="1383.7344" y1="48.6094" y2="316.9219"/><line style="stroke:#333333;stroke-width:0.5;stroke-dasharray:3.0,5.0;" x1="1433.7344" x2="1433.7344" y1="48.6094" y2="316.9219"/><line style="stroke:#333333;stroke-width:0.5;stroke-dasharray:3.0,5.0;" x1="1483.7344" x2="1483.7344" y1="48.6094" y2="316.9219"/><line style="stroke:#333333;stroke-width:0.5;stroke-dasharray:3.0,5.0;" x1="1533.7344" x2="1533.7344" y1="48.6094" y2="316.9219"/><line style="stroke:#333333;stroke-width:0.5;stroke-dasharray:3.0,5.0;" x1="1583.7344" x2="1583.7344" y1="48.6094" y2="316.9219"/><line style="stroke:#333333;stroke-width:0.5;stroke-dasharray:3.0,5.0;" x1="1633.7344" x2="1633.7344" y1="48.6094" y2="316.9219"/><line style="stroke:#333333;stroke-width:0.5;stroke-dasharray:3.0,5.0;" x1="1683.7344" x2="1683.7344" y1="48.6094" y2="316.9219"/><line style="stroke:#333333;stroke-width:0.5;stroke-dasharray:3.0,5.0;" x1="1733.7344" x2="1733.7344" y1="48.6094" y2="316.9219"/><line style="stroke:#333333;stroke-width:0.5;stroke-dasharray:3.0,5.0;" x1="1783.7344" x2="1783.7344" y1="48.6094" y2="316.9219"/><line style="stroke:#333333;stroke-width:0.5;stroke-dasharray:3.0,5.0;" x1="1833.7344" x2="1833.7344" y1="48.6094" y2="316.9219"/><line style="stroke:#333333;stroke-width:0.5;stroke-dasharray:3.0,5.0;" x1="1883.7344" x2="1883.7344" y1="48.6094" y2="316.9219"/><line style="stroke:#333333;stroke-width:0.5;stroke-dasharray:3.0,5.0;" x1="1933.7344" x2="1933.7344" y1="48.6094" y2="316.9219"/><line style="stroke:#333333;stroke-width:0.5;stroke-dasharray:3.0,5.0;" x1="1983.7344" x2="1983.7344" y1="48.6094" y2="316.9219"/><line style="stroke:#333333;stroke-width:0.5;stroke-dasharray:3.0,5.0;" x1="2033.7344" x2="2033.7344" y1="48.6094" y2="316.9219"/><line style="stroke:#333333;stroke-width:0.5;stroke-dasharray:3.0,5.0;" x1="2083.7344" x2="2083.7344" y1="48.6094" y2="316.9219"/><line style="stroke:#333333;stroke-width:0.5;stroke-dasharray:3.0,5.0;" x1="2133.7344" x2="2133.7344" y1="48.6094" y2="316.9219"/><line style="stroke:#333333;stroke-width:0.5;stroke-dasharray:3.0,5.0;" x1="2183.7344" x2="2183.7344" y1="48.6094" y2="316.9219"/><line style="stroke:#333333;stroke-width:0.5;stroke-dasharray:3.0,5.0;" x1="2233.7344" x2="2233.7344" y1="48.6094" y2="316.9219"/><line style="stroke:#333333;stroke-width:0.5;stroke-dasharray:3.0,5.0;" x1="2283.7344" x2="2283.7344" y1="48.6094" y2="316.9219"/><line style="stroke:#333333;stroke-width:0.5;stroke-dasharray:3.0,5.0;" x1="2333.7344" x2="2333.7344" y1="48.6094" y2="316.9219"/><line style="stroke:#333333;stroke-width:0.5;stroke-dasharray:3.0,5.0;" x1="2383.7344" x2="2383.7344" y1="48.6094" y2="316.9219"/><line style="stroke:#333333;stroke-width:0.5;stroke-dasharray:3.0,5.0;" x1="2433.7344" x2="2433.7344" y1="48.6094" y2="316.9219"/><line style="stroke:#333333;stroke-width:0.5;stroke-dasharray:3.0,5.0;" x1="2483.7344" x2="2483.7344" y1="48.6094" y2="316.9219"/><line style="stroke:#333333;stroke-width:0.5;stroke-dasharray:3.0,5.0;" x1="2533.7344" x2="2533.7344" y1="48.6094" y2="316.9219"/><line style="stroke:#333333;stroke-width:0.5;stroke-dasharray:3.0,5.0;" x1="2583.7344" x2="2583.7344" y1="48.6094" y2="316.9219"/><line style="stroke:#333333;stroke-width:0.5;stroke-dasharray:3.0,5.0;" x1="2633.7344" x2="2633.7344" y1="48.6094" y2="316.9219"/><line style="stroke:#333333;stroke-width:0.5;stroke-dasharray:3.0,5.0;" x1="2683.7344" x2="2683.7344" y1="48.6094" y2="316.9219"/><line style="stroke:#333333;stroke-width:0.5;" x1="10" x2="2688.7344" y1="48.6094" y2="48.6094"/><text fill="#333333" font-family="sans-serif" font-size="14" font-weight="bold" lengthAdjust="spacing" textLength="165.6758" x="15" y="63.1426">Systeme ACTUEL (Long)</text><line style="stroke:#333333;stroke-width:0.5;" x1="10" x2="181.6758" y1="67.2188" y2="67.2188"/><line style="stroke:#333333;stroke-width:0.5;" x1="181.6758" x2="191.6758" y1="67.2188" y2="48.6094"/><text fill="#333333" font-family="sans-serif" font-size="12" lengthAdjust="spacing" textLength="112.7285" x="15" y="253.2227">Intervention terminee</text><text fill="#333333" font-family="sans-serif" font-size="12" lengthAdjust="spacing" textLength="118.7344" x="15" y="233.2227">Retour bureau/maison</text><text fill="#333333" font-family="sans-serif" font-size="12" lengthAdjust="spacing" textLength="52.6816" x="15" y="205.6758">Ouvre PC</text><text fill="#333333" font-family="sans-serif" font-size="12" lengthAdjust="spacing" textLength="64.6992" x="15" y="220.7695">Lance Word</text><text fill="#333333" font-family="sans-serif" font-size="12" lengthAdjust="spacing" textLength="84.7148" x="15" y="185.6758">Saisie manuelle</text><text fill="#333333" font-family="sans-serif" font-size="12" lengthAdjust="spacing" textLength="71.373" x="15" y="200.7695">infos chantier</text><text fill="#333333" font-family="sans-serif" font-size="12" lengthAdjust="spacing" textLength="99.3984" x="15" y="165.6758">Telecharge photos</text><text fill="#333333" font-family="sans-serif" font-size="12" lengthAdjust="spacing" textLength="52.7168" x="15" y="180.7695">telephone</text><text fill="#333333" font-family="sans-serif" font-size="12" lengthAdjust="spacing" textLength="72.7148" x="15" y="145.6758">Insere photos</text><text fill="#333333" font-family="sans-serif" font-size="12" lengthAdjust="spacing" textLength="28.6699" x="15" y="160.7695">Word</text><text fill="#333333" font-family="sans-serif" font-size="12" lengthAdjust="spacing" textLength="67.3594" x="15" y="133.2227">Genere PDF</text><text fill="#333333" font-family="sans-serif" font-size="12" lengthAdjust="spacing" textLength="68.7012" x="15" y="105.6758">Envoie email</text><text fill="#333333" font-family="sans-serif" font-size="12" lengthAdjust="spacing" textLength="39.3574" x="15" y="120.7695">manuel</text><text fill="#333333" font-family="sans-serif" font-size="12" lengthAdjust="spacing" textLength="84.7207" x="15" y="93.2227">Rapport envoye</text><line style="stroke:#006400;stroke-width:2;" x1="133.7344" x2="383.7344" y1="247.3125" y2="247.3125"/><line style="stroke:#006400;stroke-width:2;" x1="383.7344" x2="633.7344" y1="227.3125" y2="227.3125"/><line style="stroke:#006400;stroke-width:2;" x1="633.7344" x2="883.7344" y1="207.3125" y2="207.3125"/><line style="stroke:#006400;stroke-width:2;" x1="883.7344" x2="1383.7344" y1="187.3125" y2="187.3125"/><line style="stroke:#006400;stroke-width:2;" x1="1383.7344" x2="1633.7344" y1="167.3125" y2="167.3125"/><line style="stroke:#006400;stroke-width:2;" x1="1633.7344" x2="2133.7344" y1="147.3125" y2="147.3125"/><line style="stroke:#006400;stroke-width:2;" x1="2133.7344" x2="2233.7344" y1="127.3125" y2="127.3125"/><line style="stroke:#006400;stroke-width:2;" x1="2233.7344" x2="2383.7344" y1="107.3125" y2="107.3125"/><line style="stroke:#006400;stroke-width:2;" x1="2383.7344" x2="2683.7344" y1="87.3125" y2="87.3125"/><line style="stroke:#006400;stroke-width:2;" x1="383.7344" x2="383.7344" y1="227.3125" y2="247.3125"/><line style="stroke:#006400;stroke-width:2;" x1="633.7344" x2="633.7344" y1="207.3125" y2="227.3125"/><line style="stroke:#006400;stroke-width:2;" x1="883.7344" x2="883.7344" y1="187.3125" y2="207.3125"/><line style="stroke:#006400;stroke-width:2;" x1="1383.7344" x2="1383.7344" y1="167.3125" y2="187.3125"/><line style="stroke:#006400;stroke-width:2;" x1="1633.7344" x2="1633.7344" y1="147.3125" y2="167.3125"/><line style="stroke:#006400;stroke-width:2;" x1="2133.7344" x2="2133.7344" y1="127.3125" y2="147.3125"/><line style="stroke:#006400;stroke-width:2;" x1="2233.7344" x2="2233.7344" y1="107.3125" y2="127.3125"/><line style="stroke:#006400;stroke-width:2;" x1="2383.7344" x2="2383.7344" y1="87.3125" y2="107.3125"/><line style="stroke:#333333;stroke-width:0.5;" x1="10" x2="2688.7344" y1="259.3125" y2="259.3125"/><text fill="#333333" font-family="sans-serif" font-size="14" font-weight="bold" lengthAdjust="spacing" textLength="194.4756" x="15" y="273.8457">Systeme CIBLE App (Rapide)</text><line style="stroke:#333333;stroke-width:0.5;" x1="10" x2="210.4756" y1="277.9219" y2="277.9219"/><line style="stroke:#333333;stroke-width:0.5;" x1="210.4756" x2="220.4756" y1="277.9219" y2="259.3125"/><polygon fill="#E2E2F0" points="145.7344,282.9219,2371.7344,282.9219,2383.7344,294.9219,2371.7344,306.9219,145.7344,306.9219,133.7344,294.9219" style="stroke:#006400;stroke-width:1.5;"/><polygon fill="#E2E2F0" points="2395.7344,282.9219,2421.7344,282.9219,2433.7344,294.9219,2421.7344,306.9219,2395.7344,306.9219,2383.7344,294.9219" style="stroke:#006400;stroke-width:1.5;"/><polygon fill="#E2E2F0" points="2445.7344,282.9219,2471.7344,282.9219,2483.7344,294.9219,2471.7344,306.9219,2445.7344,306.9219,2433.7344,294.9219" style="stroke:#006400;stroke-width:1.5;"/><polygon fill="#E2E2F0" points="2495.7344,282.9219,2521.7344,282.9219,2533.7344,294.9219,2521.7344,306.9219,2495.7344,306.9219,2483.7344,294.9219" style="stroke:#006400;stroke-width:1.5;"/><polygon fill="#E2E2F0" points="2545.7344,282.9219,2621.7344,282.9219,2633.7344,294.9219,2621.7344,306.9219,2545.7344,306.9219,2533.7344,294.9219" style="stroke:#006400;stroke-width:1.5;"/><polygon fill="#E2E2F0" points="2645.7344,282.9219,2683.7344,282.9219,2683.7344,306.9219,2645.7344,306.9219,2633.7344,294.9219" style="stroke:#E2E2F0;stroke-width:1.5;"/><path d="M2683.7344,282.9219 L2645.7344,282.9219 L2633.7344,294.9219 L2645.7344,306.9219 L2683.7344,306.9219 " fill="#E2E2F0" style="stroke:#006400;stroke-width:1.5;"/><text fill="#333333" font-family="sans-serif" font-size="12" font-weight="bold" lengthAdjust="spacing" textLength="122.0273" x="1197.7207" y="299.832">Intervention terminee</text><text fill="#333333" font-family="sans-serif" font-size="12" font-weight="bold" lengthAdjust="spacing" textLength="59.3496" x="2359.7354" y="292.2852">Ouvre app</text><text fill="#333333" font-family="sans-serif" font-size="12" font-weight="bold" lengthAdjust="spacing" textLength="97.998" x="2359.7354" y="307.3789">Module Rapports</text><text fill="#333333" font-family="sans-serif" font-size="12" font-weight="bold" lengthAdjust="spacing" textLength="110.6895" x="2403.3896" y="292.2852">Chantier pre-rempli</text><text fill="#333333" font-family="sans-serif" font-size="12" font-weight="bold" lengthAdjust="spacing" textLength="79.3711" x="2403.3896" y="307.3789">Verifie heures</text><text fill="#333333" font-family="sans-serif" font-size="12" font-weight="bold" lengthAdjust="spacing" textLength="68.0098" x="2474.7295" y="292.2852">Photos deja</text><text fill="#333333" font-family="sans-serif" font-size="12" font-weight="bold" lengthAdjust="spacing" textLength="55.3652" x="2474.7295" y="307.3789">attachees</text><text fill="#333333" font-family="sans-serif" font-size="12" font-weight="bold" lengthAdjust="spacing" textLength="98.7012" x="2534.3838" y="299.832">Clic Generer PDF</text><text fill="#333333" font-family="sans-serif" font-size="12" font-weight="bold" lengthAdjust="spacing" textLength="120.0117" x="2645.7344" y="292.2852">Rapport auto-envoye</text><text fill="#333333" font-family="sans-serif" font-size="12" font-weight="bold" lengthAdjust="spacing" textLength="88.3535" x="2645.7344" y="307.3789">Client + Bureau</text><line style="stroke:#333333;stroke-width:2;" x1="133.7344" x2="133.7344" y1="316.9219" y2="321.9219"/><line style="stroke:#333333;stroke-width:2;" x1="183.7344" x2="183.7344" y1="316.9219" y2="321.9219"/><line style="stroke:#333333;stroke-width:2;" x1="233.7344" x2="233.7344" y1="316.9219" y2="321.9219"/><line style="stroke:#333333;stroke-width:2;" x1="283.7344" x2="283.7344" y1="316.9219" y2="321.9219"/><line style="stroke:#333333;stroke-width:2;" x1="333.7344" x2="333.7344" y1="316.9219" y2="321.9219"/><line style="stroke:#333333;stroke-width:2;" x1="383.7344" x2="383.7344" y1="316.9219" y2="321.9219"/><line style="stroke:#333333;stroke-width:2;" x1="433.7344" x2="433.7344" y1="316.9219" y2="321.9219"/><line style="stroke:#333333;stroke-width:2;" x1="483.7344" x2="483.7344" y1="316.9219" y2="321.9219"/><line style="stroke:#333333;stroke-width:2;" x1="533.7344" x2="533.7344" y1="316.9219" y2="321.9219"/><line style="stroke:#333333;stroke-width:2;" x1="583.7344" x2="583.7344" y1="316.9219" y2="321.9219"/><line style="stroke:#333333;stroke-width:2;" x1="633.7344" x2="633.7344" y1="316.9219" y2="321.9219"/><line style="stroke:#333333;stroke-width:2;" x1="683.7344" x2="683.7344" y1="316.9219" y2="321.9219"/><line style="stroke:#333333;stroke-width:2;" x1="733.7344" x2="733.7344" y1="316.9219" y2="321.9219"/><line style="stroke:#333333;stroke-width:2;" x1="783.7344" x2="783.7344" y1="316.9219" y2="321.9219"/><line style="stroke:#333333;stroke-width:2;" x1="833.7344" x2="833.7344" y1="316.9219" y2="321.9219"/><line style="stroke:#333333;stroke-width:2;" x1="883.7344" x2="883.7344" y1="316.9219" y2="321.9219"/><line style="stroke:#333333;stroke-width:2;" x1="933.7344" x2="933.7344" y1="316.9219" y2="321.9219"/><line style="stroke:#333333;stroke-width:2;" x1="983.7344" x2="983.7344" y1="316.9219" y2="321.9219"/><line style="stroke:#333333;stroke-width:2;" x1="1033.7344" x2="1033.7344" y1="316.9219" y2="321.9219"/><line style="stroke:#333333;stroke-width:2;" x1="1083.7344" x2="1083.7344" y1="316.9219" y2="321.9219"/><line style="stroke:#333333;stroke-width:2;" x1="1133.7344" x2="1133.7344" y1="316.9219" y2="321.9219"/><line style="stroke:#333333;stroke-width:2;" x1="1183.7344" x2="1183.7344" y1="316.9219" y2="321.9219"/><line style="stroke:#333333;stroke-width:2;" x1="1233.7344" x2="1233.7344" y1="316.9219" y2="321.9219"/><line style="stroke:#333333;stroke-width:2;" x1="1283.7344" x2="1283.7344" y1="316.9219" y2="321.9219"/><line style="stroke:#333333;stroke-width:2;" x1="1333.7344" x2="1333.7344" y1="316.9219" y2="321.9219"/><line style="stroke:#333333;stroke-width:2;" x1="1383.7344" x2="1383.7344" y1="316.9219" y2="321.9219"/><line style="stroke:#333333;stroke-width:2;" x1="1433.7344" x2="1433.7344" y1="316.9219" y2="321.9219"/><line style="stroke:#333333;stroke-width:2;" x1="1483.7344" x2="1483.7344" y1="316.9219" y2="321.9219"/><line style="stroke:#333333;stroke-width:2;" x1="1533.7344" x2="1533.7344" y1="316.9219" y2="321.9219"/><line style="stroke:#333333;stroke-width:2;" x1="1583.7344" x2="1583.7344" y1="316.9219" y2="321.9219"/><line style="stroke:#333333;stroke-width:2;" x1="1633.7344" x2="1633.7344" y1="316.9219" y2="321.9219"/><line style="stroke:#333333;stroke-width:2;" x1="1683.7344" x2="1683.7344" y1="316.9219" y2="321.9219"/><line style="stroke:#333333;stroke-width:2;" x1="1733.7344" x2="1733.7344" y1="316.9219" y2="321.9219"/><line style="stroke:#333333;stroke-width:2;" x1="1783.7344" x2="1783.7344" y1="316.9219" y2="321.9219"/><line style="stroke:#333333;stroke-width:2;" x1="1833.7344" x2="1833.7344" y1="316.9219" y2="321.9219"/><line style="stroke:#333333;stroke-width:2;" x1="1883.7344" x2="1883.7344" y1="316.9219" y2="321.9219"/><line style="stroke:#333333;stroke-width:2;" x1="1933.7344" x2="1933.7344" y1="316.9219" y2="321.9219"/><line style="stroke:#333333;stroke-width:2;" x1="1983.7344" x2="1983.7344" y1="316.9219" y2="321.9219"/><line style="stroke:#333333;stroke-width:2;" x1="2033.7344" x2="2033.7344" y1="316.9219" y2="321.9219"/><line style="stroke:#333333;stroke-width:2;" x1="2083.7344" x2="2083.7344" y1="316.9219" y2="321.9219"/><line style="stroke:#333333;stroke-width:2;" x1="2133.7344" x2="2133.7344" y1="316.9219" y2="321.9219"/><line style="stroke:#333333;stroke-width:2;" x1="2183.7344" x2="2183.7344" y1="316.9219" y2="321.9219"/><line style="stroke:#333333;stroke-width:2;" x1="2233.7344" x2="2233.7344" y1="316.9219" y2="321.9219"/><line style="stroke:#333333;stroke-width:2;" x1="2283.7344" x2="2283.7344" y1="316.9219" y2="321.9219"/><line style="stroke:#333333;stroke-width:2;" x1="2333.7344" x2="2333.7344" y1="316.9219" y2="321.9219"/><line style="stroke:#333333;stroke-width:2;" x1="2383.7344" x2="2383.7344" y1="316.9219" y2="321.9219"/><line style="stroke:#333333;stroke-width:2;" x1="2433.7344" x2="2433.7344" y1="316.9219" y2="321.9219"/><line style="stroke:#333333;stroke-width:2;" x1="2483.7344" x2="2483.7344" y1="316.9219" y2="321.9219"/><line style="stroke:#333333;stroke-width:2;" x1="2533.7344" x2="2533.7344" y1="316.9219" y2="321.9219"/><line style="stroke:#333333;stroke-width:2;" x1="2583.7344" x2="2583.7344" y1="316.9219" y2="321.9219"/><line style="stroke:#333333;stroke-width:2;" x1="2633.7344" x2="2633.7344" y1="316.9219" y2="321.9219"/><line style="stroke:#333333;stroke-width:2;" x1="2683.7344" x2="2683.7344" y1="316.9219" y2="321.9219"/><line style="stroke:#333333;stroke-width:2;" x1="133.7344" x2="2683.7344" y1="316.9219" y2="316.9219"/><text fill="#333333" font-family="sans-serif" font-size="11" lengthAdjust="spacing" textLength="6.1177" x="130.6755" y="334.3408">0</text><text fill="#333333" font-family="sans-serif" font-size="11" lengthAdjust="spacing" textLength="6.1177" x="380.6755" y="334.3408">5</text><text fill="#333333" font-family="sans-serif" font-size="11" lengthAdjust="spacing" textLength="12.2354" x="627.6167" y="334.3408">10</text><text fill="#333333" font-family="sans-serif" font-size="11" lengthAdjust="spacing" textLength="12.2354" x="877.6167" y="334.3408">15</text><text fill="#333333" font-family="sans-serif" font-size="11" lengthAdjust="spacing" textLength="12.2354" x="1377.6167" y="334.3408">25</text><text fill="#333333" font-family="sans-serif" font-size="11" lengthAdjust="spacing" textLength="12.2354" x="1627.6167" y="334.3408">30</text><text fill="#333333" font-family="sans-serif" font-size="11" lengthAdjust="spacing" textLength="12.2354" x="2127.6167" y="334.3408">40</text><text fill="#333333" font-family="sans-serif" font-size="11" lengthAdjust="spacing" textLength="12.2354" x="2227.6167" y="334.3408">42</text><text fill="#333333" font-family="sans-serif" font-size="11" lengthAdjust="spacing" textLength="12.2354" x="2377.6167" y="334.3408">45</text><text fill="#333333" font-family="sans-serif" font-size="11" lengthAdjust="spacing" textLength="12.2354" x="2427.6167" y="334.3408">46</text><text fill="#333333" font-family="sans-serif" font-size="11" lengthAdjust="spacing" textLength="12.2354" x="2477.6167" y="334.3408">47</text><text fill="#333333" font-family="sans-serif" font-size="11" lengthAdjust="spacing" textLength="12.2354" x="2527.6167" y="334.3408">48</text><text fill="#333333" font-family="sans-serif" font-size="11" lengthAdjust="spacing" textLength="12.2354" x="2627.6167" y="334.3408">50</text><line style="stroke:#333333;stroke-width:2;stroke-dasharray:4.0,4.0;" x1="133.7344" x2="133.7344" y1="48.6094" y2="316.9219"/><line style="stroke:#333333;stroke-width:2;stroke-dasharray:4.0,4.0;" x1="2383.7344" x2="2383.7344" y1="48.6094" y2="316.9219"/><text fill="#000000" font-family="sans-serif" font-size="12" lengthAdjust="spacing" textLength="147.3867" x="136.7344" y="63.0664">AVANT (30-45 min manuel)</text><line style="stroke:#333333;stroke-width:2;stroke-dasharray:4.0,4.0;" x1="2383.7344" x2="2383.7344" y1="48.6094" y2="316.9219"/><line style="stroke:#333333;stroke-width:2;stroke-dasharray:4.0,4.0;" x1="2633.7344" x2="2633.7344" y1="48.6094" y2="316.9219"/><text fill="#000000" font-family="sans-serif" font-size="12" lengthAdjust="spacing" textLength="150.7324" x="2386.7344" y="63.0664">APRES (2 min automatique)</text><!--SRC=[VPDDRvj048Rl-oj6pWMhiagTk8rw2g5s5SbjBDjDBbpMU6AsMcRfVY3bttTOY08z50a9xJplx3iVUEKrmb7Lg1KXV4T2Axqo17lPDCPwIB9MaeVMGTPOT7CXh3a5vs5sU7KUQuGiF_vQRo7P6hhCPo2PB7r0BKf3fNBuJkOFzzirvsaWuVJgZ3sUgvD68UvIqGj1EPWza4VR8aKp_5cpFvo9oFuF47UhSPezUXCid8956JxMKZb37VHfSjbZQ2t2BYzeAwb4U3Rs7Ab9hWEh5K8jYKyq5gJenJWeAswGGji9bXF14JLor5uGcifuumhsh96_AJgz_gTYX_QTVFDmCu7YXDZgjqsCBSUnDRM6_I5NgGlgRKPgsf5XiCZqwwIZVHSuND0FSmvyEh0kPlayGlEXPk2TM5Yi6wqAUaAhNjX0XTpjNlDbfDd5mk2ClsL1qdjPLZXWj-FKMfNz8dBweSvLEWBU2f31cqLVHK6iubM03t0V9ysYIbqgpQ-75Bo1cnLSRJOPF_0LigVivn6IwtJ1nxmumqpd8n47MBLAuIhBEbsdsktN1qYMKT7TNlElyYVWNFm5]--></g></svg>