<svg xmlns="http://www.w3.org/2000/svg" xmlns:xlink="http://www.w3.org/1999/xlink" contentStyleType="text/css" height="247px" preserveAspectRatio="none" style="width:1323px;height:247px;background:#FFFFFF;" version="1.1" viewBox="0 0 1323 247" width="1323px" zoomAndPan="magnify"><title>Timeline Reception Stocks (Avant vs Apres RFID)</title><defs/><g><text fill="#000000" font-family="sans-serif" font-size="14" font-weight="bold" lengthAdjust="spacing" textLength="329.8545" x="473.6011" y="34.5332">Timeline Reception Stocks (Avant vs Apres RFID)</text><line style="stroke:#333333;stroke-width:0.5;" x1="10" x2="10" y1="48.6094" y2="216.9219"/><line style="stroke:#333333;stroke-width:0.5;" x1="1268.0566" x2="1268.0566" y1="48.6094" y2="216.9219"/><rect fill="#FFAAAA" height="168.3125" style="stroke:none;stroke-width:1;" width="1000" x="113.0566" y="48.6094"/><rect fill="#AAFFAA" height="168.3125" style="stroke:none;stroke-width:1;" width="1100" x="113.0566" y="48.6094"/><line style="stroke:#333333;stroke-width:0.5;stroke-dasharray:3.0,5.0;" x1="113.0566" x2="113.0566" y1="48.6094" y2="216.9219"/><line style="stroke:#333333;stroke-width:0.5;stroke-dasharray:3.0,5.0;" x1="163.0566" x2="163.0566" y1="48.6094" y2="216.9219"/><line style="stroke:#333333;stroke-width:0.5;stroke-dasharray:3.0,5.0;" x1="213.0566" x2="213.0566" y1="48.6094" y2="216.9219"/><line style="stroke:#333333;stroke-width:0.5;stroke-dasharray:3.0,5.0;" x1="263.0566" x2="263.0566" y1="48.6094" y2="216.9219"/><line style="stroke:#333333;stroke-width:0.5;stroke-dasharray:3.0,5.0;" x1="313.0566" x2="313.0566" y1="48.6094" y2="216.9219"/><line style="stroke:#333333;stroke-width:0.5;stroke-dasharray:3.0,5.0;" x1="363.0566" x2="363.0566" y1="48.6094" y2="216.9219"/><line style="stroke:#333333;stroke-width:0.5;stroke-dasharray:3.0,5.0;" x1="413.0566" x2="413.0566" y1="48.6094" y2="216.9219"/><line style="stroke:#333333;stroke-width:0.5;stroke-dasharray:3.0,5.0;" x1="463.0566" x2="463.0566" y1="48.6094" y2="216.9219"/><line style="stroke:#333333;stroke-width:0.5;stroke-dasharray:3.0,5.0;" x1="513.0566" x2="513.0566" y1="48.6094" y2="216.9219"/><line style="stroke:#333333;stroke-width:0.5;stroke-dasharray:3.0,5.0;" x1="563.0566" x2="563.0566" y1="48.6094" y2="216.9219"/><line style="stroke:#333333;stroke-width:0.5;stroke-dasharray:3.0,5.0;" x1="613.0566" x2="613.0566" y1="48.6094" y2="216.9219"/><line style="stroke:#333333;stroke-width:0.5;stroke-dasharray:3.0,5.0;" x1="663.0566" x2="663.0566" y1="48.6094" y2="216.9219"/><line style="stroke:#333333;stroke-width:0.5;stroke-dasharray:3.0,5.0;" x1="713.0566" x2="713.0566" y1="48.6094" y2="216.9219"/><line style="stroke:#333333;stroke-width:0.5;stroke-dasharray:3.0,5.0;" x1="763.0566" x2="763.0566" y1="48.6094" y2="216.9219"/><line style="stroke:#333333;stroke-width:0.5;stroke-dasharray:3.0,5.0;" x1="813.0566" x2="813.0566" y1="48.6094" y2="216.9219"/><line style="stroke:#333333;stroke-width:0.5;stroke-dasharray:3.0,5.0;" x1="863.0566" x2="863.0566" y1="48.6094" y2="216.9219"/><line style="stroke:#333333;stroke-width:0.5;stroke-dasharray:3.0,5.0;" x1="913.0566" x2="913.0566" y1="48.6094" y2="216.9219"/><line style="stroke:#333333;stroke-width:0.5;stroke-dasharray:3.0,5.0;" x1="963.0566" x2="963.0566" y1="48.6094" y2="216.9219"/><line style="stroke:#333333;stroke-width:0.5;stroke-dasharray:3.0,5.0;" x1="1013.0566" x2="1013.0566" y1="48.6094" y2="216.9219"/><line style="stroke:#333333;stroke-width:0.5;stroke-dasharray:3.0,5.0;" x1="1063.0566" x2="1063.0566" y1="48.6094" y2="216.9219"/><line style="stroke:#333333;stroke-width:0.5;stroke-dasharray:3.0,5.0;" x1="1113.0566" x2="1113.0566" y1="48.6094" y2="216.9219"/><line style="stroke:#333333;stroke-width:0.5;stroke-dasharray:3.0,5.0;" x1="1163.0566" x2="1163.0566" y1="48.6094" y2="216.9219"/><line style="stroke:#333333;stroke-width:0.5;stroke-dasharray:3.0,5.0;" x1="1213.0566" x2="1213.0566" y1="48.6094" y2="216.9219"/><line style="stroke:#333333;stroke-width:0.5;stroke-dasharray:3.0,5.0;" x1="1263.0566" x2="1263.0566" y1="48.6094" y2="216.9219"/><line style="stroke:#333333;stroke-width:0.5;" x1="10" x2="1268.0566" y1="48.6094" y2="48.6094"/><text fill="#333333" font-family="sans-serif" font-size="14" font-weight="bold" lengthAdjust="spacing" textLength="165.6758" x="15" y="63.1426">Systeme ACTUEL (Long)</text><line style="stroke:#333333;stroke-width:0.5;" x1="10" x2="181.6758" y1="67.2188" y2="67.2188"/><line style="stroke:#333333;stroke-width:0.5;" x1="181.6758" x2="191.6758" y1="67.2188" y2="48.6094"/><text fill="#333333" font-family="sans-serif" font-size="12" lengthAdjust="spacing" textLength="46.0254" x="15" y="153.2227">BL Recu</text><text fill="#333333" font-family="sans-serif" font-size="12" lengthAdjust="spacing" textLength="98.0566" x="15" y="125.6758">Comptage manuel</text><text fill="#333333" font-family="sans-serif" font-size="12" lengthAdjust="spacing" textLength="72.0234" x="15" y="140.7695">colis par colis</text><text fill="#333333" font-family="sans-serif" font-size="12" lengthAdjust="spacing" textLength="84.7148" x="15" y="105.6758">Saisie manuelle</text><text fill="#333333" font-family="sans-serif" font-size="12" lengthAdjust="spacing" textLength="32.6836" x="15" y="120.7695">Lireco</text><text fill="#333333" font-family="sans-serif" font-size="12" lengthAdjust="spacing" textLength="95.3965" x="15" y="93.2227">Reception validee</text><line style="stroke:#006400;stroke-width:2;" x1="113.0566" x2="213.0566" y1="147.3125" y2="147.3125"/><line style="stroke:#006400;stroke-width:2;" x1="213.0566" x2="863.0566" y1="127.3125" y2="127.3125"/><line style="stroke:#006400;stroke-width:2;" x1="863.0566" x2="1113.0566" y1="107.3125" y2="107.3125"/><line style="stroke:#006400;stroke-width:2;" x1="1113.0566" x2="1263.0566" y1="87.3125" y2="87.3125"/><line style="stroke:#006400;stroke-width:2;" x1="213.0566" x2="213.0566" y1="127.3125" y2="147.3125"/><line style="stroke:#006400;stroke-width:2;" x1="863.0566" x2="863.0566" y1="107.3125" y2="127.3125"/><line style="stroke:#006400;stroke-width:2;" x1="1113.0566" x2="1113.0566" y1="87.3125" y2="107.3125"/><line style="stroke:#333333;stroke-width:0.5;" x1="10" x2="1268.0566" y1="159.3125" y2="159.3125"/><text fill="#333333" font-family="sans-serif" font-size="14" font-weight="bold" lengthAdjust="spacing" textLength="199.9238" x="15" y="173.8457">Systeme CIBLE RFID (Rapide)</text><line style="stroke:#333333;stroke-width:0.5;" x1="10" x2="215.9238" y1="177.9219" y2="177.9219"/><line style="stroke:#333333;stroke-width:0.5;" x1="215.9238" x2="225.9238" y1="177.9219" y2="159.3125"/><polygon fill="#E2E2F0" points="125.0566,182.9219,1101.0566,182.9219,1113.0566,194.9219,1101.0566,206.9219,125.0566,206.9219,113.0566,194.9219" style="stroke:#006400;stroke-width:1.5;"/><polygon fill="#E2E2F0" points="1125.0566,182.9219,1151.0566,182.9219,1163.0566,194.9219,1151.0566,206.9219,1125.0566,206.9219,1113.0566,194.9219" style="stroke:#006400;stroke-width:1.5;"/><polygon fill="#E2E2F0" points="1175.0566,182.9219,1201.0566,182.9219,1213.0566,194.9219,1201.0566,206.9219,1175.0566,206.9219,1163.0566,194.9219" style="stroke:#006400;stroke-width:1.5;"/><polygon fill="#E2E2F0" points="1225.0566,182.9219,1263.0566,182.9219,1263.0566,206.9219,1225.0566,206.9219,1213.0566,194.9219" style="stroke:#E2E2F0;stroke-width:1.5;"/><path d="M1263.0566,182.9219 L1225.0566,182.9219 L1213.0566,194.9219 L1225.0566,206.9219 L1263.0566,206.9219 " fill="#E2E2F0" style="stroke:#006400;stroke-width:1.5;"/><text fill="#333333" font-family="sans-serif" font-size="12" font-weight="bold" lengthAdjust="spacing" textLength="48.6738" x="588.7197" y="199.832">BL Recu</text><text fill="#333333" font-family="sans-serif" font-size="12" font-weight="bold" lengthAdjust="spacing" textLength="60.0117" x="1108.0508" y="192.2852">Scan RFID</text><text fill="#333333" font-family="sans-serif" font-size="12" font-weight="bold" lengthAdjust="spacing" textLength="47.9941" x="1108.0508" y="207.3789">portique</text><text fill="#333333" font-family="sans-serif" font-size="12" font-weight="bold" lengthAdjust="spacing" textLength="82.0137" x="1147.0498" y="192.2852">Reconciliation</text><text fill="#333333" font-family="sans-serif" font-size="12" font-weight="bold" lengthAdjust="spacing" textLength="71.3379" x="1147.0498" y="207.3789">automatique</text><text fill="#333333" font-family="sans-serif" font-size="12" font-weight="bold" lengthAdjust="spacing" textLength="86.6719" x="1225.0566" y="192.2852">Reception auto</text><text fill="#333333" font-family="sans-serif" font-size="12" font-weight="bold" lengthAdjust="spacing" textLength="85.7344" x="1225.0566" y="207.3789">creee + validee</text><line style="stroke:#333333;stroke-width:2;" x1="113.0566" x2="113.0566" y1="216.9219" y2="221.9219"/><line style="stroke:#333333;stroke-width:2;" x1="163.0566" x2="163.0566" y1="216.9219" y2="221.9219"/><line style="stroke:#333333;stroke-width:2;" x1="213.0566" x2="213.0566" y1="216.9219" y2="221.9219"/><line style="stroke:#333333;stroke-width:2;" x1="263.0566" x2="263.0566" y1="216.9219" y2="221.9219"/><line style="stroke:#333333;stroke-width:2;" x1="313.0566" x2="313.0566" y1="216.9219" y2="221.9219"/><line style="stroke:#333333;stroke-width:2;" x1="363.0566" x2="363.0566" y1="216.9219" y2="221.9219"/><line style="stroke:#333333;stroke-width:2;" x1="413.0566" x2="413.0566" y1="216.9219" y2="221.9219"/><line style="stroke:#333333;stroke-width:2;" x1="463.0566" x2="463.0566" y1="216.9219" y2="221.9219"/><line style="stroke:#333333;stroke-width:2;" x1="513.0566" x2="513.0566" y1="216.9219" y2="221.9219"/><line style="stroke:#333333;stroke-width:2;" x1="563.0566" x2="563.0566" y1="216.9219" y2="221.9219"/><line style="stroke:#333333;stroke-width:2;" x1="613.0566" x2="613.0566" y1="216.9219" y2="221.9219"/><line style="stroke:#333333;stroke-width:2;" x1="663.0566" x2="663.0566" y1="216.9219" y2="221.9219"/><line style="stroke:#333333;stroke-width:2;" x1="713.0566" x2="713.0566" y1="216.9219" y2="221.9219"/><line style="stroke:#333333;stroke-width:2;" x1="763.0566" x2="763.0566" y1="216.9219" y2="221.9219"/><line style="stroke:#333333;stroke-width:2;" x1="813.0566" x2="813.0566" y1="216.9219" y2="221.9219"/><line style="stroke:#333333;stroke-width:2;" x1="863.0566" x2="863.0566" y1="216.9219" y2="221.9219"/><line style="stroke:#333333;stroke-width:2;" x1="913.0566" x2="913.0566" y1="216.9219" y2="221.9219"/><line style="stroke:#333333;stroke-width:2;" x1="963.0566" x2="963.0566" y1="216.9219" y2="221.9219"/><line style="stroke:#333333;stroke-width:2;" x1="1013.0566" x2="1013.0566" y1="216.9219" y2="221.9219"/><line style="stroke:#333333;stroke-width:2;" x1="1063.0566" x2="1063.0566" y1="216.9219" y2="221.9219"/><line style="stroke:#333333;stroke-width:2;" x1="1113.0566" x2="1113.0566" y1="216.9219" y2="221.9219"/><line style="stroke:#333333;stroke-width:2;" x1="1163.0566" x2="1163.0566" y1="216.9219" y2="221.9219"/><line style="stroke:#333333;stroke-width:2;" x1="1213.0566" x2="1213.0566" y1="216.9219" y2="221.9219"/><line style="stroke:#333333;stroke-width:2;" x1="1263.0566" x2="1263.0566" y1="216.9219" y2="221.9219"/><line style="stroke:#333333;stroke-width:2;" x1="113.0566" x2="1263.0566" y1="216.9219" y2="216.9219"/><text fill="#333333" font-family="sans-serif" font-size="11" lengthAdjust="spacing" textLength="6.1177" x="109.9978" y="234.3408">0</text><text fill="#333333" font-family="sans-serif" font-size="11" lengthAdjust="spacing" textLength="6.1177" x="209.9978" y="234.3408">2</text><text fill="#333333" font-family="sans-serif" font-size="11" lengthAdjust="spacing" textLength="12.2354" x="856.939" y="234.3408">15</text><text fill="#333333" font-family="sans-serif" font-size="11" lengthAdjust="spacing" textLength="12.2354" x="1106.939" y="234.3408">20</text><text fill="#333333" font-family="sans-serif" font-size="11" lengthAdjust="spacing" textLength="12.2354" x="1156.939" y="234.3408">21</text><text fill="#333333" font-family="sans-serif" font-size="11" lengthAdjust="spacing" textLength="12.2354" x="1206.939" y="234.3408">22</text><line style="stroke:#333333;stroke-width:2;stroke-dasharray:4.0,4.0;" x1="113.0566" x2="113.0566" y1="48.6094" y2="216.9219"/><line style="stroke:#333333;stroke-width:2;stroke-dasharray:4.0,4.0;" x1="1113.0566" x2="1113.0566" y1="48.6094" y2="216.9219"/><text fill="#000000" font-family="sans-serif" font-size="12" lengthAdjust="spacing" textLength="201.75" x="116.0566" y="63.0664">AVANT (Comptage + Saisie manuels)</text><line style="stroke:#333333;stroke-width:2;stroke-dasharray:4.0,4.0;" x1="113.0566" x2="113.0566" y1="48.6094" y2="216.9219"/><line style="stroke:#333333;stroke-width:2;stroke-dasharray:4.0,4.0;" x1="1213.0566" x2="1213.0566" y1="48.6094" y2="216.9219"/><text fill="#000000" font-family="sans-serif" font-size="12" lengthAdjust="spacing" textLength="180.0703" x="116.0566" y="63.0664">APRES (Scan RFID automatique)</text><!--SRC=[PP31QiCm44Jl-eh1kTZaaXXwwIcAcq30b6AdFVcYA4iYAakk9GVwzvMTDhQfG21MRsPdrokl2KTLarQ6K92anYjhK7ehFnrYVXF6u-R0cvOSYltX9M6ijQVEUKJbj_DK4tXsVD_bY7DhBaa44N3fEz9CMYELev7C3jjyDzWWBaIZpdJdCtNInDXcnUvAA8Tec_U9keWDl_CIswHJDBDruyM5K0iJQfMHLeTw8reChrwmVfegIg6S-kCrLIPNBKaxECzIZ4kv2Hq2qpHFAOKPngbCOrkllZeQ7DOJ9XZqQz1Az2wL4PstjHZPTCx-DkkfC4PBH5YEhTbLNQuwN8yLl4MwmcA_v-7W6Vo3lnuHFvQnn6nAb_nJfrXmtkjxzLknAn4_Hi8aQC9-0000]--></g></svg>