<svg xmlns="http://www.w3.org/2000/svg" xmlns:xlink="http://www.w3.org/1999/xlink" contentStyleType="text/css" height="743px" preserveAspectRatio="none" style="width:2289px;height:743px;background:#FFFFFF;" version="1.1" viewBox="0 0 2289 743" width="2289px" zoomAndPan="magnify"><title>Architecture Composants Application Mobile Chantier</title><defs/><g><text fill="#000000" font-family="sans-serif" font-size="14" font-weight="bold" lengthAdjust="spacing" textLength="360.1514" x="957.6665" y="24.5332">Architecture Composants Application Mobile Chantier</text><!--cluster Frontend Mobile--><g id="cluster_Frontend Mobile"><path d="M25.5,80.7194 L135.376,80.7194 A3.75,3.75 0 0 1 137.876,83.2194 L144.876,104.3288 L375.5,104.3288 A2.5,2.5 0 0 1 378,106.8288 L378,195.2194 A2.5,2.5 0 0 1 375.5,197.7194 L25.5,197.7194 A2.5,2.5 0 0 1 23,195.2194 L23,83.2194 A2.5,2.5 0 0 1 25.5,80.7194 " fill="none" style="stroke:#000000;stroke-width:1.5;"/><line style="stroke:#000000;stroke-width:1.5;" x1="23" x2="144.876" y1="104.3288" y2="104.3288"/><text fill="#000000" font-family="sans-serif" font-size="14" font-weight="bold" lengthAdjust="spacing" textLength="108.876" x="27" y="97.2526">Frontend Mobile</text></g><!--cluster Backend Cloud Azure--><g id="cluster_Backend Cloud Azure"><path d="M8.5,230.7194 L154.1895,230.7194 A3.75,3.75 0 0 1 156.6895,233.2194 L163.6895,254.3288 L1171.5,254.3288 A2.5,2.5 0 0 1 1174,256.8288 L1174,734.2194 A2.5,2.5 0 0 1 1171.5,736.7194 L8.5,736.7194 A2.5,2.5 0 0 1 6,734.2194 L6,233.2194 A2.5,2.5 0 0 1 8.5,230.7194 " fill="none" style="stroke:#000000;stroke-width:1.5;"/><line style="stroke:#000000;stroke-width:1.5;" x1="6" x2="163.6895" y1="254.3288" y2="254.3288"/><text fill="#000000" font-family="sans-serif" font-size="14" font-weight="bold" lengthAdjust="spacing" textLength="144.6895" x="10" y="247.2526">Backend Cloud Azure</text></g><!--cluster API Gateway--><g id="cluster_API Gateway"><path d="M32.5,274.7194 L118.3135,274.7194 A3.75,3.75 0 0 1 120.8135,277.2194 L127.8135,298.3288 L201.5,298.3288 A2.5,2.5 0 0 1 204,300.8288 L204,528.7194 A2.5,2.5 0 0 1 201.5,531.2194 L32.5,531.2194 A2.5,2.5 0 0 1 30,528.7194 L30,277.2194 A2.5,2.5 0 0 1 32.5,274.7194 " fill="none" style="stroke:#000000;stroke-width:1.5;"/><line style="stroke:#000000;stroke-width:1.5;" x1="30" x2="127.8135" y1="298.3288" y2="298.3288"/><text fill="#000000" font-family="sans-serif" font-size="14" font-weight="bold" lengthAdjust="spacing" textLength="84.8135" x="34" y="291.2526">API Gateway</text></g><!--cluster Services Metier--><g id="cluster_Services Metier"><path d="M230.5,422.7194 L334.2305,422.7194 A3.75,3.75 0 0 1 336.7305,425.2194 L343.7305,446.3288 L1147.5,446.3288 A2.5,2.5 0 0 1 1150,448.8288 L1150,520.2194 A2.5,2.5 0 0 1 1147.5,522.7194 L230.5,522.7194 A2.5,2.5 0 0 1 228,520.2194 L228,425.2194 A2.5,2.5 0 0 1 230.5,422.7194 " fill="none" style="stroke:#000000;stroke-width:1.5;"/><line style="stroke:#000000;stroke-width:1.5;" x1="228" x2="343.7305" y1="446.3288" y2="446.3288"/><text fill="#000000" font-family="sans-serif" font-size="14" font-weight="bold" lengthAdjust="spacing" textLength="102.7305" x="232" y="439.2526">Services Metier</text></g><!--cluster Storage--><g id="cluster_Storage"><path d="M452.5,595.7194 L505.624,595.7194 A3.75,3.75 0 0 1 508.124,598.2194 L515.124,619.3288 L786.5,619.3288 A2.5,2.5 0 0 1 789,621.8288 L789,710.2194 A2.5,2.5 0 0 1 786.5,712.7194 L452.5,712.7194 A2.5,2.5 0 0 1 450,710.2194 L450,598.2194 A2.5,2.5 0 0 1 452.5,595.7194 " fill="none" style="stroke:#000000;stroke-width:1.5;"/><line style="stroke:#000000;stroke-width:1.5;" x1="450" x2="515.124" y1="619.3288" y2="619.3288"/><text fill="#000000" font-family="sans-serif" font-size="14" font-weight="bold" lengthAdjust="spacing" textLength="52.124" x="454" y="612.2526">Storage</text></g><!--cluster Donnees--><g id="cluster_Donnees"><path d="M1198,591.2194 C1198,581.2194 1358,581.2194 1358,581.2194 C1358,581.2194 1518,581.2194 1518,591.2194 L1518,702.2194 C1518,712.2194 1358,712.2194 1358,712.2194 C1358,712.2194 1198,712.2194 1198,702.2194 L1198,591.2194 " fill="none" style="stroke:#181818;stroke-width:1;"/><path d="M1198,591.2194 C1198,601.2194 1358,601.2194 1358,601.2194 C1358,601.2194 1518,601.2194 1518,591.2194 " fill="none" style="stroke:#181818;stroke-width:1;"/><text fill="#000000" font-family="sans-serif" font-size="14" font-weight="bold" lengthAdjust="spacing" textLength="59.124" x="1328.438" y="617.7526">Donnees</text></g><!--cluster Integrations--><g id="cluster_Integrations"><path d="M1544.5,595.7194 L1625.6172,595.7194 A3.75,3.75 0 0 1 1628.1172,598.2194 L1635.1172,619.3288 L2071.5,619.3288 A2.5,2.5 0 0 1 2074,621.8288 L2074,710.2194 A2.5,2.5 0 0 1 2071.5,712.7194 L1544.5,712.7194 A2.5,2.5 0 0 1 1542,710.2194 L1542,598.2194 A2.5,2.5 0 0 1 1544.5,595.7194 " fill="none" style="stroke:#000000;stroke-width:1.5;"/><line style="stroke:#000000;stroke-width:1.5;" x1="1542" x2="1635.1172" y1="619.3288" y2="619.3288"/><text fill="#000000" font-family="sans-serif" font-size="14" font-weight="bold" lengthAdjust="spacing" textLength="80.1172" x="1546" y="612.2526">Integrations</text></g><!--entity iOS--><g id="elem_iOS"><rect fill="#F1F1F1" height="65.2188" rx="2.5" ry="2.5" style="stroke:#181818;stroke-width:0.5;" width="115.5029" x="39" y="116.7194"/><rect fill="#F1F1F1" height="10" style="stroke:#181818;stroke-width:0.5;" width="15" x="134.5029" y="121.7194"/><rect fill="#F1F1F1" height="2" style="stroke:#181818;stroke-width:0.5;" width="4" x="132.5029" y="123.7194"/><rect fill="#F1F1F1" height="2" style="stroke:#181818;stroke-width:0.5;" width="4" x="132.5029" y="127.7194"/><text fill="#000000" font-family="sans-serif" font-size="14" lengthAdjust="spacing" textLength="52.1377" x="54" y="151.2526">App iOS</text><text fill="#000000" font-family="sans-serif" font-size="14" lengthAdjust="spacing" textLength="75.5029" x="54" y="168.862">iPhone/iPad</text></g><!--entity Android--><g id="elem_Android"><rect fill="#F1F1F1" height="65.2188" rx="2.5" ry="2.5" style="stroke:#181818;stroke-width:0.5;" width="170.7441" x="190.5" y="116.7194"/><rect fill="#F1F1F1" height="10" style="stroke:#181818;stroke-width:0.5;" width="15" x="341.2441" y="121.7194"/><rect fill="#F1F1F1" height="2" style="stroke:#181818;stroke-width:0.5;" width="4" x="339.2441" y="123.7194"/><rect fill="#F1F1F1" height="2" style="stroke:#181818;stroke-width:0.5;" width="4" x="339.2441" y="127.7194"/><text fill="#000000" font-family="sans-serif" font-size="14" lengthAdjust="spacing" textLength="77.0547" x="205.5" y="151.2526">App Android</text><text fill="#000000" font-family="sans-serif" font-size="14" lengthAdjust="spacing" textLength="130.7441" x="205.5" y="168.862">Smartphone/Tablette</text></g><!--entity API--><g id="elem_API"><rect fill="#F1F1F1" height="65.2188" rx="2.5" ry="2.5" style="stroke:#181818;stroke-width:0.5;" width="141.9307" x="46" y="310.7194"/><rect fill="#F1F1F1" height="10" style="stroke:#181818;stroke-width:0.5;" width="15" x="167.9307" y="315.7194"/><rect fill="#F1F1F1" height="2" style="stroke:#181818;stroke-width:0.5;" width="4" x="165.9307" y="317.7194"/><rect fill="#F1F1F1" height="2" style="stroke:#181818;stroke-width:0.5;" width="4" x="165.9307" y="321.7194"/><text fill="#000000" font-family="sans-serif" font-size="14" lengthAdjust="spacing" textLength="63.793" x="61" y="345.2526">API REST</text><text fill="#000000" font-family="sans-serif" font-size="14" lengthAdjust="spacing" textLength="101.9307" x="61" y="362.862">Node.js Express</text></g><!--entity Auth--><g id="elem_Auth"><rect fill="#F1F1F1" height="65.2188" rx="2.5" ry="2.5" style="stroke:#181818;stroke-width:0.5;" width="119.3721" x="63.5" y="450.2194"/><rect fill="#F1F1F1" height="10" style="stroke:#181818;stroke-width:0.5;" width="15" x="162.8721" y="455.2194"/><rect fill="#F1F1F1" height="2" style="stroke:#181818;stroke-width:0.5;" width="4" x="160.8721" y="457.2194"/><rect fill="#F1F1F1" height="2" style="stroke:#181818;stroke-width:0.5;" width="4" x="160.8721" y="461.2194"/><text fill="#000000" font-family="sans-serif" font-size="14" lengthAdjust="spacing" textLength="79.3721" x="78.5" y="484.7526">Auth Service</text><text fill="#000000" font-family="sans-serif" font-size="14" lengthAdjust="spacing" textLength="28.7656" x="78.5" y="502.362">JWT</text></g><!--entity ChantierSvc--><g id="elem_ChantierSvc"><rect fill="#F1F1F1" height="47.6094" rx="2.5" ry="2.5" style="stroke:#181818;stroke-width:0.5;" width="150.4893" x="801" y="458.7194"/><rect fill="#F1F1F1" height="10" style="stroke:#181818;stroke-width:0.5;" width="15" x="931.4893" y="463.7194"/><rect fill="#F1F1F1" height="2" style="stroke:#181818;stroke-width:0.5;" width="4" x="929.4893" y="465.7194"/><rect fill="#F1F1F1" height="2" style="stroke:#181818;stroke-width:0.5;" width="4" x="929.4893" y="469.7194"/><text fill="#000000" font-family="sans-serif" font-size="14" lengthAdjust="spacing" textLength="110.4893" x="816" y="493.2526">Chantiers Service</text></g><!--entity IncidentSvc--><g id="elem_IncidentSvc"><rect fill="#F1F1F1" height="47.6094" rx="2.5" ry="2.5" style="stroke:#181818;stroke-width:0.5;" width="146.6064" x="986.5" y="458.7194"/><rect fill="#F1F1F1" height="10" style="stroke:#181818;stroke-width:0.5;" width="15" x="1113.1064" y="463.7194"/><rect fill="#F1F1F1" height="2" style="stroke:#181818;stroke-width:0.5;" width="4" x="1111.1064" y="465.7194"/><rect fill="#F1F1F1" height="2" style="stroke:#181818;stroke-width:0.5;" width="4" x="1111.1064" y="469.7194"/><text fill="#000000" font-family="sans-serif" font-size="14" lengthAdjust="spacing" textLength="106.6064" x="1001.5" y="493.2526">Incidents Service</text></g><!--entity PhotoSvc--><g id="elem_PhotoSvc"><rect fill="#F1F1F1" height="47.6094" rx="2.5" ry="2.5" style="stroke:#181818;stroke-width:0.5;" width="134.1582" x="244" y="458.7194"/><rect fill="#F1F1F1" height="10" style="stroke:#181818;stroke-width:0.5;" width="15" x="358.1582" y="463.7194"/><rect fill="#F1F1F1" height="2" style="stroke:#181818;stroke-width:0.5;" width="4" x="356.1582" y="465.7194"/><rect fill="#F1F1F1" height="2" style="stroke:#181818;stroke-width:0.5;" width="4" x="356.1582" y="469.7194"/><text fill="#000000" font-family="sans-serif" font-size="14" lengthAdjust="spacing" textLength="94.1582" x="259" y="493.2526">Photos Service</text></g><!--entity RapportSvc--><g id="elem_RapportSvc"><rect fill="#F1F1F1" height="47.6094" rx="2.5" ry="2.5" style="stroke:#181818;stroke-width:0.5;" width="147.3789" x="618.5" y="458.7194"/><rect fill="#F1F1F1" height="10" style="stroke:#181818;stroke-width:0.5;" width="15" x="745.8789" y="463.7194"/><rect fill="#F1F1F1" height="2" style="stroke:#181818;stroke-width:0.5;" width="4" x="743.8789" y="465.7194"/><rect fill="#F1F1F1" height="2" style="stroke:#181818;stroke-width:0.5;" width="4" x="743.8789" y="469.7194"/><text fill="#000000" font-family="sans-serif" font-size="14" lengthAdjust="spacing" textLength="107.3789" x="633.5" y="493.2526">Rapports Service</text></g><!--entity CmdSvc--><g id="elem_CmdSvc"><rect fill="#F1F1F1" height="47.6094" rx="2.5" ry="2.5" style="stroke:#181818;stroke-width:0.5;" width="169.9375" x="413" y="458.7194"/><rect fill="#F1F1F1" height="10" style="stroke:#181818;stroke-width:0.5;" width="15" x="562.9375" y="463.7194"/><rect fill="#F1F1F1" height="2" style="stroke:#181818;stroke-width:0.5;" width="4" x="560.9375" y="465.7194"/><rect fill="#F1F1F1" height="2" style="stroke:#181818;stroke-width:0.5;" width="4" x="560.9375" y="469.7194"/><text fill="#000000" font-family="sans-serif" font-size="14" lengthAdjust="spacing" textLength="129.9375" x="428" y="493.2526">Commandes Service</text></g><!--entity Blob--><g id="elem_Blob"><rect fill="#F1F1F1" height="65.2188" rx="2.5" ry="2.5" style="stroke:#181818;stroke-width:0.5;" width="161.4063" x="611.5" y="631.7194"/><rect fill="#F1F1F1" height="10" style="stroke:#181818;stroke-width:0.5;" width="15" x="752.9063" y="636.7194"/><rect fill="#F1F1F1" height="2" style="stroke:#181818;stroke-width:0.5;" width="4" x="750.9063" y="638.7194"/><rect fill="#F1F1F1" height="2" style="stroke:#181818;stroke-width:0.5;" width="4" x="750.9063" y="642.7194"/><text fill="#000000" font-family="sans-serif" font-size="14" lengthAdjust="spacing" textLength="121.4063" x="626.5" y="666.2526">Azure Blob Storage</text><text fill="#000000" font-family="sans-serif" font-size="14" lengthAdjust="spacing" textLength="87.541" x="626.5" y="683.862">Photos + PDF</text></g><!--entity Files--><g id="elem_Files"><rect fill="#F1F1F1" height="65.2188" rx="2.5" ry="2.5" style="stroke:#181818;stroke-width:0.5;" width="110.0205" x="466" y="631.7194"/><rect fill="#F1F1F1" height="10" style="stroke:#181818;stroke-width:0.5;" width="15" x="556.0205" y="636.7194"/><rect fill="#F1F1F1" height="2" style="stroke:#181818;stroke-width:0.5;" width="4" x="554.0205" y="638.7194"/><rect fill="#F1F1F1" height="2" style="stroke:#181818;stroke-width:0.5;" width="4" x="554.0205" y="642.7194"/><text fill="#000000" font-family="sans-serif" font-size="14" lengthAdjust="spacing" textLength="70.0205" x="481" y="666.2526">Azure Files</text><text fill="#000000" font-family="sans-serif" font-size="14" lengthAdjust="spacing" textLength="35.0205" x="481" y="683.862">Plans</text></g><!--entity Postgres--><g id="elem_Postgres"><path d="M1382.5,642.2194 C1382.5,632.2194 1441.9136,632.2194 1441.9136,632.2194 C1441.9136,632.2194 1501.3271,632.2194 1501.3271,642.2194 L1501.3271,686.4381 C1501.3271,696.4381 1441.9136,696.4381 1441.9136,696.4381 C1441.9136,696.4381 1382.5,696.4381 1382.5,686.4381 L1382.5,642.2194 " fill="#F1F1F1" style="stroke:#181818;stroke-width:0.5;"/><path d="M1382.5,642.2194 C1382.5,652.2194 1441.9136,652.2194 1441.9136,652.2194 C1441.9136,652.2194 1501.3271,652.2194 1501.3271,642.2194 " fill="none" style="stroke:#181818;stroke-width:0.5;"/><text fill="#000000" font-family="sans-serif" font-size="14" lengthAdjust="spacing" textLength="76.2617" x="1392.5" y="670.7526">PostgreSQL</text><text fill="#000000" font-family="sans-serif" font-size="14" lengthAdjust="spacing" textLength="98.8271" x="1392.5" y="688.362">Donnees metier</text></g><!--entity Redis--><g id="elem_Redis"><path d="M1214.5,642.2194 C1214.5,632.2194 1281.1152,632.2194 1281.1152,632.2194 C1281.1152,632.2194 1347.7305,632.2194 1347.7305,642.2194 L1347.7305,686.4381 C1347.7305,696.4381 1281.1152,696.4381 1281.1152,696.4381 C1281.1152,696.4381 1214.5,696.4381 1214.5,686.4381 L1214.5,642.2194 " fill="#F1F1F1" style="stroke:#181818;stroke-width:0.5;"/><path d="M1214.5,642.2194 C1214.5,652.2194 1281.1152,652.2194 1281.1152,652.2194 C1281.1152,652.2194 1347.7305,652.2194 1347.7305,642.2194 " fill="none" style="stroke:#181818;stroke-width:0.5;"/><text fill="#000000" font-family="sans-serif" font-size="14" lengthAdjust="spacing" textLength="35.793" x="1224.5" y="670.7526">Redis</text><text fill="#000000" font-family="sans-serif" font-size="14" lengthAdjust="spacing" textLength="113.2305" x="1224.5" y="688.362">Cache + Sessions</text></g><!--entity ERP--><g id="elem_ERP"><rect fill="#F1F1F1" height="65.2188" rx="2.5" ry="2.5" style="stroke:#181818;stroke-width:0.5;" width="151.2686" x="1719.5" y="631.7194"/><rect fill="#F1F1F1" height="10" style="stroke:#181818;stroke-width:0.5;" width="15" x="1850.7686" y="636.7194"/><rect fill="#F1F1F1" height="2" style="stroke:#181818;stroke-width:0.5;" width="4" x="1848.7686" y="638.7194"/><rect fill="#F1F1F1" height="2" style="stroke:#181818;stroke-width:0.5;" width="4" x="1848.7686" y="642.7194"/><text fill="#000000" font-family="sans-serif" font-size="14" lengthAdjust="spacing" textLength="66.9238" x="1734.5" y="666.2526">ERP Odoo</text><text fill="#000000" font-family="sans-serif" font-size="14" lengthAdjust="spacing" textLength="111.2686" x="1734.5" y="683.862">Chantiers Affaires</text></g><!--entity Email--><g id="elem_Email"><rect fill="#F1F1F1" height="65.2188" rx="2.5" ry="2.5" style="stroke:#181818;stroke-width:0.5;" width="125.5791" x="1558" y="631.7194"/><rect fill="#F1F1F1" height="10" style="stroke:#181818;stroke-width:0.5;" width="15" x="1663.5791" y="636.7194"/><rect fill="#F1F1F1" height="2" style="stroke:#181818;stroke-width:0.5;" width="4" x="1661.5791" y="638.7194"/><rect fill="#F1F1F1" height="2" style="stroke:#181818;stroke-width:0.5;" width="4" x="1661.5791" y="642.7194"/><text fill="#000000" font-family="sans-serif" font-size="14" lengthAdjust="spacing" textLength="85.5791" x="1573" y="666.2526">Email Service</text><text fill="#000000" font-family="sans-serif" font-size="14" lengthAdjust="spacing" textLength="59.1445" x="1573" y="683.862">SendGrid</text></g><!--entity Push--><g id="elem_Push"><rect fill="#F1F1F1" height="65.2188" rx="2.5" ry="2.5" style="stroke:#181818;stroke-width:0.5;" width="152.0547" x="1906" y="631.7194"/><rect fill="#F1F1F1" height="10" style="stroke:#181818;stroke-width:0.5;" width="15" x="2038.0547" y="636.7194"/><rect fill="#F1F1F1" height="2" style="stroke:#181818;stroke-width:0.5;" width="4" x="2036.0547" y="638.7194"/><rect fill="#F1F1F1" height="2" style="stroke:#181818;stroke-width:0.5;" width="4" x="2036.0547" y="642.7194"/><text fill="#000000" font-family="sans-serif" font-size="14" lengthAdjust="spacing" textLength="112.0547" x="1921" y="666.2526">Push Notifications</text><text fill="#000000" font-family="sans-serif" font-size="14" lengthAdjust="spacing" textLength="84.4033" x="1921" y="683.862">FCM + APNS</text></g><g id="elem_GMN42"><path d="M396.5,119.7194 L396.5,178.7741 L513.6099,178.7741 L513.6099,129.7194 L503.6099,119.7194 L396.5,119.7194 " fill="#FEFFDD" style="stroke:#181818;stroke-width:0.5;"/><path d="M503.6099,119.7194 L503.6099,129.7194 L513.6099,129.7194 L503.6099,119.7194 " fill="#FEFFDD" style="stroke:#181818;stroke-width:1;"/><text fill="#000000" font-family="sans-serif" font-size="13" lengthAdjust="spacing" textLength="96.1099" x="402.5" y="138.2145">Mode hors ligne:</text><text fill="#000000" font-family="sans-serif" font-size="13" lengthAdjust="spacing" textLength="70.0908" x="402.5" y="154.5661">SQLite local</text><text fill="#000000" font-family="sans-serif" font-size="13" lengthAdjust="spacing" textLength="57.8145" x="402.5" y="170.9176">Sync auto</text></g><g id="elem_GMN45"><path d="M2093.5,626.7194 L2093.5,702.1256 L2282.4844,702.1256 L2282.4844,636.7194 L2272.4844,626.7194 L2093.5,626.7194 " fill="#FEFFDD" style="stroke:#181818;stroke-width:0.5;"/><path d="M2272.4844,626.7194 L2272.4844,636.7194 L2282.4844,636.7194 L2272.4844,626.7194 " fill="#FEFFDD" style="stroke:#181818;stroke-width:1;"/><text fill="#000000" font-family="sans-serif" font-size="13" lengthAdjust="spacing" textLength="44.0845" x="2099.5" y="645.2145">Photos:</text><text fill="#000000" font-family="sans-serif" font-size="13" lengthAdjust="spacing" textLength="153.9116" x="2099.5" y="661.5661">- Organisation par chantier</text><text fill="#000000" font-family="sans-serif" font-size="13" lengthAdjust="spacing" textLength="167.9844" x="2099.5" y="677.9176">- Metadata GPS + timestamp</text><text fill="#000000" font-family="sans-serif" font-size="13" lengthAdjust="spacing" textLength="113.439" x="2099.5" y="694.2692">- Compression auto</text></g><!--link iOS to API--><g id="link_iOS_API"><path d="M100.3,181.9194 C104.01,217.4994 109.3581,268.9017 113.0681,304.5017 " fill="none" id="iOS-to-API" style="stroke:#181818;stroke-width:1;"/><polygon fill="#181818" points="113.69,310.4694,116.7356,301.1032,113.1717,305.4963,108.7787,301.9325,113.69,310.4694" style="stroke:#181818;stroke-width:1;"/></g><!--link Android to API--><g id="link_Android_API"><path d="M249.74,181.9194 C220.28,217.4994 176.5968,270.2482 147.1168,305.8482 " fill="none" id="Android-to-API" style="stroke:#181818;stroke-width:1;"/><polygon fill="#181818" points="143.29,310.4694,152.111,306.0887,146.479,306.6184,145.9494,300.9863,143.29,310.4694" style="stroke:#181818;stroke-width:1;"/></g><!--link API to Auth--><g id="link_API_Auth"><path d="M118.38,375.7694 C119.35,397.9694 120.379,421.5751 121.349,443.8551 " fill="none" id="API-to-Auth" style="stroke:#181818;stroke-width:1;"/><polygon fill="#181818" points="121.61,449.8494,125.2148,440.6839,121.3925,444.8541,117.2223,441.0319,121.61,449.8494" style="stroke:#181818;stroke-width:1;"/></g><!--link Auth to Redis--><g id="link_Auth_Redis"><path d="M172.18,515.2494 C189.21,524.6394 208.84,533.8494 228,539.2194 C468.51,606.6594 541.03,543.1394 789,573.2194 C942.22,591.8094 1113.9953,626.7024 1208.2853,647.0724 " fill="none" id="Auth-to-Redis" style="stroke:#181818;stroke-width:1;"/><polygon fill="#181818" points="1214.15,648.3394,1206.1976,642.5291,1209.2627,647.2836,1204.5083,650.3487,1214.15,648.3394" style="stroke:#181818;stroke-width:1;"/></g><!--link API to ChantierSvc--><g id="link_API_ChantierSvc"><path d="M188.07,347.1394 C336.73,353.9794 675.61,373.6994 783,414.7194 C808.84,424.5894 829.4983,439.5685 847.1283,454.7885 " fill="none" id="API-to-ChantierSvc" style="stroke:#181818;stroke-width:1;"/><polygon fill="#181818" points="851.67,458.7094,847.4714,449.8003,847.8853,455.442,842.2436,455.8559,851.67,458.7094" style="stroke:#181818;stroke-width:1;"/></g><!--link API to IncidentSvc--><g id="link_API_IncidentSvc"><path d="M188.01,345.1394 C365.89,348.2394 826.54,361.3294 969,414.7194 C994.54,424.2894 1014.6906,439.2275 1031.8706,454.5375 " fill="none" id="API-to-IncidentSvc" style="stroke:#181818;stroke-width:1;"/><polygon fill="#181818" points="1036.35,458.5294,1032.2921,449.5553,1032.6172,455.2028,1026.9696,455.5279,1036.35,458.5294" style="stroke:#181818;stroke-width:1;"/></g><!--link API to PhotoSvc--><g id="link_API_PhotoSvc"><path d="M161.51,375.7694 C197.19,401.0594 241.5454,432.4892 273.6054,455.2192 " fill="none" id="API-to-PhotoSvc" style="stroke:#181818;stroke-width:1;"/><polygon fill="#181818" points="278.5,458.6894,273.4715,450.2209,274.4211,455.7975,268.8445,456.7471,278.5,458.6894" style="stroke:#181818;stroke-width:1;"/></g><!--link API to RapportSvc--><g id="link_API_RapportSvc"><path d="M188.34,343.9294 C285.33,345.8794 462.56,357.8694 601,414.7194 C626.04,424.9994 646.005,439.7293 663.255,454.7493 " fill="none" id="API-to-RapportSvc" style="stroke:#181818;stroke-width:1;"/><polygon fill="#181818" points="667.78,458.6894,663.6192,449.7626,664.0091,455.406,658.3657,455.796,667.78,458.6894" style="stroke:#181818;stroke-width:1;"/></g><!--link API to CmdSvc--><g id="link_API_CmdSvc"><path d="M188.22,355.4394 C245.92,366.0994 328.43,384.9994 396,414.7194 C422.18,426.2394 444.2886,440.6817 463.8986,455.1217 " fill="none" id="API-to-CmdSvc" style="stroke:#181818;stroke-width:1;"/><polygon fill="#181818" points="468.73,458.6794,463.8546,450.1219,464.7038,455.7146,459.111,456.5638,468.73,458.6794" style="stroke:#181818;stroke-width:1;"/></g><!--link ChantierSvc to Postgres--><g id="link_ChantierSvc_Postgres"><path d="M906.56,506.7794 C923.93,518.6094 946.63,532.0094 969,539.2194 C990.02,545.9894 1345.36,563.1294 1365,573.2194 C1390.43,586.2794 1407.6503,606.6716 1421.0903,627.1716 " fill="none" id="ChantierSvc-to-Postgres" style="stroke:#181818;stroke-width:1;"/><polygon fill="#181818" points="1424.38,632.1894,1422.7906,622.4696,1421.6386,628.0079,1416.1003,626.8559,1424.38,632.1894" style="stroke:#181818;stroke-width:1;"/></g><!--link IncidentSvc to Postgres--><g id="link_IncidentSvc_Postgres"><path d="M1133.65,493.1994 C1198.7,504.2694 1294,527.2794 1365,573.2194 C1388.31,588.2994 1404.9802,607.6045 1418.8102,627.1145 " fill="none" id="IncidentSvc-to-Postgres" style="stroke:#181818;stroke-width:1;"/><polygon fill="#181818" points="1422.28,632.0094,1420.3385,622.3538,1419.3885,627.9303,1413.812,626.9802,1422.28,632.0094" style="stroke:#181818;stroke-width:1;"/></g><!--link PhotoSvc to Blob--><g id="link_PhotoSvc_Blob"><path d="M340.04,506.9594 C355.74,518.3894 375.99,531.3594 396,539.2194 C479.11,571.8594 513.85,533.8594 594,573.2194 C622.2,587.0694 644.072,607.1525 662.152,627.1125 " fill="none" id="PhotoSvc-to-Blob" style="stroke:#181818;stroke-width:1;"/><polygon fill="#181818" points="666.18,631.5594,663.1025,622.2037,662.8233,627.8536,657.1733,627.5744,666.18,631.5594" style="stroke:#181818;stroke-width:1;"/></g><!--link RapportSvc to Blob--><g id="link_RapportSvc_Blob"><path d="M692,506.8194 C692,538.5394 692,589.7094 692,625.4394 " fill="none" id="RapportSvc-to-Blob" style="stroke:#181818;stroke-width:1;"/><polygon fill="#181818" points="692,631.4394,696,622.4394,692,626.4394,688,622.4394,692,631.4394" style="stroke:#181818;stroke-width:1;"/></g><!--link CmdSvc to Postgres--><g id="link_CmdSvc_Postgres"><path d="M531.59,506.9494 C550.96,518.9794 576.3,532.5294 601,539.2194 C650.79,552.6994 781.5,544.2194 833,547.2194 C930.5,552.8994 954.48,559.9694 1052,565.2194 C1069.37,566.1594 1349.29,565.7394 1365,573.2194 C1390.99,585.5894 1408.3426,606.2977 1421.6726,627.0977 " fill="none" id="CmdSvc-to-Postgres" style="stroke:#181818;stroke-width:1;"/><polygon fill="#181818" points="1424.91,632.1494,1423.4216,622.4136,1422.2121,627.9397,1416.6861,626.7302,1424.91,632.1494" style="stroke:#181818;stroke-width:1;"/></g><!--link ChantierSvc to ERP--><g id="link_ChantierSvc_ERP"><path d="M905.55,506.8294 C922.96,518.9894 946.03,532.6994 969,539.2194 C997.92,547.4194 1480.02,544.9794 1510,547.2194 C1595.87,553.6494 1624.53,535.6194 1702,573.2194 C1729.69,586.6594 1750.5183,606.8973 1767.4883,627.0773 " fill="none" id="ChantierSvc-to-ERP" style="stroke:#181818;stroke-width:1;"/><polygon fill="#181818" points="1771.35,631.6694,1768.6189,622.2068,1768.1319,627.8426,1762.4961,627.3556,1771.35,631.6694" style="stroke:#181818;stroke-width:1;"/><text fill="#000000" font-family="sans-serif" font-size="13" lengthAdjust="spacing" textLength="28.9009" x="1681" y="561.7145">Sync</text></g><!--link RapportSvc to Email--><g id="link_RapportSvc_Email"><path d="M721.68,506.8394 C738.87,518.8494 761.51,532.3994 784,539.2194 C803.53,545.1494 1499.06,565.6094 1518,573.2194 C1548.41,585.4394 1571.9023,606.2196 1590.8423,626.8496 " fill="none" id="RapportSvc-to-Email" style="stroke:#181818;stroke-width:1;"/><polygon fill="#181818" points="1594.9,631.2694,1591.7599,621.9345,1591.5185,627.5862,1585.8668,627.3448,1594.9,631.2694" style="stroke:#181818;stroke-width:1;"/><text fill="#000000" font-family="sans-serif" font-size="13" lengthAdjust="spacing" textLength="62.1309" x="1390" y="561.7145">Envoi PDF</text></g><!--link IncidentSvc to Push--><g id="link_IncidentSvc_Push"><path d="M1133.54,485.2694 C1310.66,489.9994 1756.03,508.2094 1888,573.2194 C1915.56,586.7994 1936.4611,606.7974 1953.6611,626.8274 " fill="none" id="IncidentSvc-to-Push" style="stroke:#181818;stroke-width:1;"/><polygon fill="#181818" points="1957.57,631.3794,1954.7414,621.9455,1954.3126,627.586,1948.672,627.1573,1957.57,631.3794" style="stroke:#181818;stroke-width:1;"/><text fill="#000000" font-family="sans-serif" font-size="13" lengthAdjust="spacing" textLength="70.8081" x="1866" y="561.7145">Notifications</text></g><!--link iOS to GMN42--><g id="link_iOS_GMN42"><path d="M118.83,116.6794 C135.51,95.0794 160.68,68.7494 190.5,57.7194 C225.93,44.6094 325.07,44.6094 360.5,57.7194 C391.77,69.2894 418.11,97.4194 434.97,119.4594 " fill="none" id="iOS-GMN42" style="stroke:#181818;stroke-width:1;stroke-dasharray:7.0,7.0;"/></g><!--link Blob to GMN45--><g id="link_Blob_GMN45"><path d="M772.81,642.1994 C874.98,615.6094 1056.71,572.4294 1215.5,556.2194 C1308.46,546.7294 1968.52,524.7194 2056.5,556.2194 C2095.58,570.2094 2131.37,601.3794 2155.71,626.6494 " fill="none" id="Blob-GMN45" style="stroke:#181818;stroke-width:1;stroke-dasharray:7.0,7.0;"/></g><!--SRC=[PLHDZvim4BtpAqPxhTBUSwZ4PfCeLPFGi58FcnucC06tO2FRIRkjzhzt_061x0tUFBytZ1zZXMq8KbtKmb9XBvfWeTfE6PJMGDfrZIZG2YLXgqw2gOkQAu9qadHO_CAAu66bbRGaoqXvW7y9m0kV1R7FZr9ajPBqIMHO_W0q3kphgIor4kLHvYrgstdUCvuQifOyDnAIjv7T8pyujqMZBYMaVxbdPycQ0oNDDh16Ix_nDNJZ_1WxBFFdezofaZx-DB3yqsao9XXbcqYxs1foqbTHq55- -VuSoeno_MtY4ba6jkGcCZZr8pAzZfVeqVnQ1Df65g8aD-OnhKS76a_FgYd7GmFXW5sdz9rC10SINsgBigIxdjeoCEu-p2hD3xVHkHd3OwDE44j76Tlw0DdJockvyfY-uYWOvZKemuWzuBtOhKIB9pHizgIa93B1x0PdojXAK_xjwr562hHnpcu4eMmcPmvK2hPSO54JTvRpvN9oZJ_WQvCSRJYqbVRXZkuloqC6-r8frXZkC3sVKR2J_mOcU5wBehcb9ESuhhK8yVOrHyekfeQTik8SVo5kRRNOScDfjil3HJB5zSI_1CncdtqAO-HlxvnR_-mYcFXukjVmFKDrdAuU6qUfnuRezC0eA8DMI4KoqWnd-vcFXAU5NjsZFX0t-HiMzASdtvcvgvX3_YgBUuqm_3aivLK95x_t_RZ9pwUpJnAfB84MLMr1dUCMsl8gW5hnDJUYaZHdY1F7gn0QLQ2xHjS1uCMgnEqSft6l58CVVWYdC8Ezhb0A4nPdXngAVckwAgyBTA65TPPp6gneoLXiErzqsrU7uDxP_WS0]--></g></svg>