<svg xmlns="http://www.w3.org/2000/svg" xmlns:xlink="http://www.w3.org/1999/xlink" contentStyleType="text/css" height="957px" preserveAspectRatio="none" style="width:744px;height:957px;background:#FFFFFF;" version="1.1" viewBox="0 0 744 957" width="744px" zoomAndPan="magnify"><title>Processus Intervention - CIBLE (Odoo Field Service)</title><defs/><g><text fill="#000000" font-family="sans-serif" font-size="14" font-weight="bold" lengthAdjust="spacing" textLength="349.2959" x="193.8" y="29.5332">Processus Intervention - CIBLE (Odoo Field Service)</text><rect fill="#FFFFFF" height="30.3516" style="stroke:#181818;stroke-width:1;" width="10" x="277.2764" y="320.5859"/><rect fill="#FFFFFF" height="319.6914" style="stroke:#181818;stroke-width:1;" width="10" x="277.2764" y="392.4648"/><rect fill="#FFFFFF" height="30.3516" style="stroke:#181818;stroke-width:1;" width="10" x="422.5908" y="215.5313"/><rect fill="#FFFFFF" height="116.2305" style="stroke:#181818;stroke-width:1;" width="10" x="422.5908" y="712.1563"/><line style="stroke:#181818;stroke-width:0.5;stroke-dasharray:5.0,5.0;" x1="55" x2="55" y1="138.8281" y2="857.5625"/><line style="stroke:#181818;stroke-width:0.5;stroke-dasharray:5.0,5.0;" x1="146.7031" x2="146.7031" y1="138.8281" y2="857.5625"/><line style="stroke:#181818;stroke-width:0.5;stroke-dasharray:5.0,5.0;" x1="281.373" x2="281.373" y1="138.8281" y2="857.5625"/><line style="stroke:#181818;stroke-width:0.5;stroke-dasharray:5.0,5.0;" x1="427.4531" x2="427.4531" y1="138.8281" y2="857.5625"/><line style="stroke:#181818;stroke-width:0.5;stroke-dasharray:5.0,5.0;" x1="612.4624" x2="612.4624" y1="138.8281" y2="857.5625"/><text fill="#000000" font-family="sans-serif" font-size="14" lengthAdjust="spacing" textLength="31.1104" x="37.2964" y="118.1426">Marc</text><text fill="#000000" font-family="sans-serif" font-size="14" lengthAdjust="spacing" textLength="95.7031" x="5" y="135.752">(Chef Chantier)</text><ellipse cx="55.8516" cy="52.1094" fill="#FFB6C1" rx="8" ry="8" style="stroke:#181818;stroke-width:0.5;"/><path d="M55.8516,60.1094 L55.8516,87.1094 M42.8516,68.1094 L68.8516,68.1094 M55.8516,87.1094 L42.8516,102.1094 M55.8516,87.1094 L68.8516,102.1094 " fill="none" style="stroke:#181818;stroke-width:0.5;"/><text fill="#000000" font-family="sans-serif" font-size="14" lengthAdjust="spacing" textLength="31.1104" x="37.2964" y="871.0957">Marc</text><text fill="#000000" font-family="sans-serif" font-size="14" lengthAdjust="spacing" textLength="95.7031" x="5" y="888.7051">(Chef Chantier)</text><ellipse cx="55.8516" cy="900.2813" fill="#FFB6C1" rx="8" ry="8" style="stroke:#181818;stroke-width:0.5;"/><path d="M55.8516,908.2813 L55.8516,935.2813 M42.8516,916.2813 L68.8516,916.2813 M55.8516,935.2813 L42.8516,950.2813 M55.8516,935.2813 L68.8516,950.2813 " fill="none" style="stroke:#181818;stroke-width:0.5;"/><text fill="#000000" font-family="sans-serif" font-size="14" lengthAdjust="spacing" textLength="36.5791" x="125.6479" y="118.1426">Julien</text><text fill="#000000" font-family="sans-serif" font-size="14" lengthAdjust="spacing" textLength="54.4688" x="116.7031" y="135.752">(Bureau)</text><ellipse cx="146.9375" cy="52.1094" fill="#ADD8E6" rx="8" ry="8" style="stroke:#181818;stroke-width:0.5;"/><path d="M146.9375,60.1094 L146.9375,87.1094 M133.9375,68.1094 L159.9375,68.1094 M146.9375,87.1094 L133.9375,102.1094 M146.9375,87.1094 L159.9375,102.1094 " fill="none" style="stroke:#181818;stroke-width:0.5;"/><text fill="#000000" font-family="sans-serif" font-size="14" lengthAdjust="spacing" textLength="36.5791" x="125.6479" y="871.0957">Julien</text><text fill="#000000" font-family="sans-serif" font-size="14" lengthAdjust="spacing" textLength="54.4688" x="116.7031" y="888.7051">(Bureau)</text><ellipse cx="146.9375" cy="900.2813" fill="#ADD8E6" rx="8" ry="8" style="stroke:#181818;stroke-width:0.5;"/><path d="M146.9375,908.2813 L146.9375,935.2813 M133.9375,916.2813 L159.9375,916.2813 M146.9375,935.2813 L133.9375,950.2813 M146.9375,935.2813 L159.9375,950.2813 " fill="none" style="stroke:#181818;stroke-width:0.5;"/><rect fill="#90EE90" height="49.2188" rx="2.5" ry="2.5" style="stroke:#181818;stroke-width:0.5;" width="91.8066" x="236.373" y="88.6094"/><text fill="#000000" font-family="sans-serif" font-size="14" lengthAdjust="spacing" textLength="70.041" x="247.2559" y="110.1426">App Mobile</text><text fill="#000000" font-family="sans-serif" font-size="14" lengthAdjust="spacing" textLength="77.8066" x="243.373" y="127.752">(Odoo Field)</text><rect fill="#90EE90" height="49.2188" rx="2.5" ry="2.5" style="stroke:#181818;stroke-width:0.5;" width="91.8066" x="236.373" y="856.5625"/><text fill="#000000" font-family="sans-serif" font-size="14" lengthAdjust="spacing" textLength="70.041" x="247.2559" y="878.0957">App Mobile</text><text fill="#000000" font-family="sans-serif" font-size="14" lengthAdjust="spacing" textLength="77.8066" x="243.373" y="895.7051">(Odoo Field)</text><rect fill="#87CEEB" height="49.2188" rx="2.5" ry="2.5" style="stroke:#181818;stroke-width:0.5;" width="118.2754" x="368.4531" y="88.6094"/><text fill="#000000" font-family="sans-serif" font-size="14" lengthAdjust="spacing" textLength="66.9238" x="394.1289" y="110.1426">Odoo ERP</text><text fill="#000000" font-family="sans-serif" font-size="14" lengthAdjust="spacing" textLength="104.2754" x="375.4531" y="127.752">(Projet/Planning)</text><rect fill="#87CEEB" height="49.2188" rx="2.5" ry="2.5" style="stroke:#181818;stroke-width:0.5;" width="118.2754" x="368.4531" y="856.5625"/><text fill="#000000" font-family="sans-serif" font-size="14" lengthAdjust="spacing" textLength="66.9238" x="394.1289" y="878.0957">Odoo ERP</text><text fill="#000000" font-family="sans-serif" font-size="14" lengthAdjust="spacing" textLength="104.2754" x="375.4531" y="895.7051">(Projet/Planning)</text><text fill="#000000" font-family="sans-serif" font-size="14" lengthAdjust="spacing" textLength="35.793" x="592.4624" y="135.752">Client</text><ellipse cx="613.3589" cy="69.7188" fill="#E2E2F0" rx="8" ry="8" style="stroke:#181818;stroke-width:0.5;"/><path d="M613.3589,77.7188 L613.3589,104.7188 M600.3589,85.7188 L626.3589,85.7188 M613.3589,104.7188 L600.3589,119.7188 M613.3589,104.7188 L626.3589,119.7188 " fill="none" style="stroke:#181818;stroke-width:0.5;"/><text fill="#000000" font-family="sans-serif" font-size="14" lengthAdjust="spacing" textLength="35.793" x="592.4624" y="871.0957">Client</text><ellipse cx="613.3589" cy="882.6719" fill="#E2E2F0" rx="8" ry="8" style="stroke:#181818;stroke-width:0.5;"/><path d="M613.3589,890.6719 L613.3589,917.6719 M600.3589,898.6719 L626.3589,898.6719 M613.3589,917.6719 L600.3589,932.6719 M613.3589,917.6719 L626.3589,932.6719 " fill="none" style="stroke:#181818;stroke-width:0.5;"/><rect fill="#FFFFFF" height="30.3516" style="stroke:#181818;stroke-width:1;" width="10" x="277.2764" y="320.5859"/><rect fill="#FFFFFF" height="319.6914" style="stroke:#181818;stroke-width:1;" width="10" x="277.2764" y="392.4648"/><rect fill="#FFFFFF" height="30.3516" style="stroke:#181818;stroke-width:1;" width="10" x="422.5908" y="215.5313"/><rect fill="#FFFFFF" height="116.2305" style="stroke:#181818;stroke-width:1;" width="10" x="422.5908" y="712.1563"/><rect fill="#EEEEEE" height="3" style="stroke:#EEEEEE;stroke-width:1;" width="737.896" x="0" y="170.0039"/><line style="stroke:#000000;stroke-width:1;" x1="0" x2="737.896" y1="170.0039" y2="170.0039"/><line style="stroke:#000000;stroke-width:1;" x1="0" x2="737.896" y1="173.0039" y2="173.0039"/><rect fill="#EEEEEE" height="24.3516" style="stroke:#000000;stroke-width:2;" width="125.96" x="305.968" y="158.8281"/><text fill="#000000" font-family="sans-serif" font-size="13" font-weight="bold" lengthAdjust="spacing" textLength="108.3481" x="311.968" y="176.3232">Planification (J-7)</text><polygon fill="#181818" points="410.5908,211.5313,420.5908,215.5313,410.5908,219.5313,414.5908,215.5313" style="stroke:#181818;stroke-width:1;"/><line style="stroke:#181818;stroke-width:1;" x1="146.9375" x2="416.5908" y1="215.5313" y2="215.5313"/><text fill="#000000" font-family="sans-serif" font-size="13" lengthAdjust="spacing" textLength="114.1816" x="153.9375" y="210.6748">Planifie Intervention</text><polygon fill="#181818" points="293.2764,241.8828,283.2764,245.8828,293.2764,249.8828,289.2764,245.8828" style="stroke:#181818;stroke-width:1;"/><line style="stroke:#181818;stroke-width:1;" x1="287.2764" x2="426.5908" y1="245.8828" y2="245.8828"/><text fill="#000000" font-family="sans-serif" font-size="13" lengthAdjust="spacing" textLength="83.1099" x="299.2764" y="241.0264">Sync Planning</text><rect fill="#EEEEEE" height="3" style="stroke:#EEEEEE;stroke-width:1;" width="737.896" x="0" y="275.0586"/><line style="stroke:#000000;stroke-width:1;" x1="0" x2="737.896" y1="275.0586" y2="275.0586"/><line style="stroke:#000000;stroke-width:1;" x1="0" x2="737.896" y1="278.0586" y2="278.0586"/><rect fill="#EEEEEE" height="24.3516" style="stroke:#000000;stroke-width:2;" width="143.2891" x="297.3035" y="263.8828"/><text fill="#000000" font-family="sans-serif" font-size="13" font-weight="bold" lengthAdjust="spacing" textLength="125.6772" x="303.3035" y="281.3779">Intervention (Jour J)</text><polygon fill="#181818" points="265.2764,316.5859,275.2764,320.5859,265.2764,324.5859,269.2764,320.5859" style="stroke:#181818;stroke-width:1;"/><line style="stroke:#181818;stroke-width:1;" x1="55.8516" x2="271.2764" y1="320.5859" y2="320.5859"/><text fill="#000000" font-family="sans-serif" font-size="13" lengthAdjust="spacing" textLength="105.5171" x="62.8516" y="315.7295">Consulte Planning</text><polygon fill="#181818" points="66.8516,346.9375,56.8516,350.9375,66.8516,354.9375,62.8516,350.9375" style="stroke:#181818;stroke-width:1;"/><line style="stroke:#181818;stroke-width:1;stroke-dasharray:2.0,2.0;" x1="60.8516" x2="281.2764" y1="350.9375" y2="350.9375"/><text fill="#000000" font-family="sans-serif" font-size="13" lengthAdjust="spacing" textLength="129.8857" x="72.8516" y="346.0811">"Chantier: Villa Martin"</text><polygon fill="#181818" points="265.2764,388.4648,275.2764,392.4648,265.2764,396.4648,269.2764,392.4648" style="stroke:#181818;stroke-width:1;"/><line style="stroke:#181818;stroke-width:1;" x1="55.8516" x2="271.2764" y1="392.4648" y2="392.4648"/><text fill="#000000" font-family="sans-serif" font-size="13" lengthAdjust="spacing" textLength="122.2622" x="62.8516" y="387.6084">Start Timer (D&#195;&#169;but)</text><path d="M292,363.9375 L292,405.9375 L384,405.9375 L384,373.9375 L374,363.9375 L292,363.9375 " fill="#90EE90" style="stroke:#181818;stroke-width:0.5;"/><path d="M374,363.9375 L374,373.9375 L384,373.9375 L374,363.9375 " fill="#90EE90" style="stroke:#181818;stroke-width:0.5;"/><text fill="#000000" font-family="sans-serif" font-size="13" lengthAdjust="spacing" textLength="67.1899" x="298" y="382.4326">Suivi temps</text><text fill="#000000" font-family="sans-serif" font-size="13" lengthAdjust="spacing" textLength="71.5508" x="298" y="398.7842">automatique</text><polygon fill="#181818" points="265.2764,429.9922,275.2764,433.9922,265.2764,437.9922,269.2764,433.9922" style="stroke:#181818;stroke-width:1;"/><line style="stroke:#181818;stroke-width:1;" x1="55.8516" x2="271.2764" y1="433.9922" y2="433.9922"/><text fill="#000000" font-family="sans-serif" font-size="13" lengthAdjust="spacing" textLength="147.3862" x="62.8516" y="429.1357">&#240;&#376;&#8220;&#184; Prise Photos (Avant)</text><line style="stroke:#181818;stroke-width:1;" x1="287.2764" x2="329.2764" y1="464.3438" y2="464.3438"/><line style="stroke:#181818;stroke-width:1;" x1="329.2764" x2="329.2764" y1="464.3438" y2="477.3438"/><line style="stroke:#181818;stroke-width:1;" x1="288.2764" x2="329.2764" y1="477.3438" y2="477.3438"/><polygon fill="#181818" points="298.2764,473.3438,288.2764,477.3438,298.2764,481.3438,294.2764,477.3438" style="stroke:#181818;stroke-width:1;"/><text fill="#000000" font-family="sans-serif" font-size="13" lengthAdjust="spacing" textLength="95.3862" x="294.2764" y="459.4873">Stockage Offline</text><polygon fill="#181818" points="265.2764,503.6953,275.2764,507.6953,265.2764,511.6953,269.2764,507.6953" style="stroke:#181818;stroke-width:1;"/><line style="stroke:#181818;stroke-width:1;" x1="55.8516" x2="271.2764" y1="507.6953" y2="507.6953"/><text fill="#000000" font-family="sans-serif" font-size="13" lengthAdjust="spacing" textLength="115.7813" x="62.8516" y="502.8389">R&#195;&#169;alise Travaux...</text><polygon fill="#181818" points="265.2764,534.0469,275.2764,538.0469,265.2764,542.0469,269.2764,538.0469" style="stroke:#181818;stroke-width:1;"/><line style="stroke:#181818;stroke-width:1;" x1="55.8516" x2="271.2764" y1="538.0469" y2="538.0469"/><text fill="#000000" font-family="sans-serif" font-size="13" lengthAdjust="spacing" textLength="153.8735" x="62.8516" y="533.1904">&#240;&#376;&#8220;&#184; Prise Photos (Apr&#195;&#168;s)</text><polygon fill="#181818" points="265.2764,564.3984,275.2764,568.3984,265.2764,572.3984,269.2764,568.3984" style="stroke:#181818;stroke-width:1;"/><line style="stroke:#181818;stroke-width:1;" x1="55.8516" x2="271.2764" y1="568.3984" y2="568.3984"/><text fill="#000000" font-family="sans-serif" font-size="13" lengthAdjust="spacing" textLength="93.9009" x="62.8516" y="563.542">Stop Timer (Fin)</text><polygon fill="#181818" points="265.2764,605.9258,275.2764,609.9258,265.2764,613.9258,269.2764,609.9258" style="stroke:#181818;stroke-width:1;"/><line style="stroke:#181818;stroke-width:1;" x1="55.8516" x2="271.2764" y1="609.9258" y2="609.9258"/><text fill="#000000" font-family="sans-serif" font-size="13" lengthAdjust="spacing" textLength="197.4248" x="62.8516" y="605.0693">Remplit Rapport (Dict&#195;&#169;e Vocale)</text><path d="M292,581.3984 L292,623.3984 L393,623.3984 L393,591.3984 L383,581.3984 L292,581.3984 " fill="#90EE90" style="stroke:#181818;stroke-width:0.5;"/><path d="M383,581.3984 L383,591.3984 L393,591.3984 L383,581.3984 " fill="#90EE90" style="stroke:#181818;stroke-width:0.5;"/><text fill="#000000" font-family="sans-serif" font-size="13" lengthAdjust="spacing" textLength="53.479" x="298" y="599.8936">Rapide &amp;</text><text fill="#000000" font-family="sans-serif" font-size="13" lengthAdjust="spacing" textLength="80.3994" x="298" y="616.2451">Standardis&#195;&#169;</text><polygon fill="#181818" points="601.3589,647.4531,611.3589,651.4531,601.3589,655.4531,605.3589,651.4531" style="stroke:#181818;stroke-width:1;"/><line style="stroke:#181818;stroke-width:1;" x1="55.8516" x2="607.3589" y1="651.4531" y2="651.4531"/><text fill="#000000" font-family="sans-serif" font-size="13" lengthAdjust="spacing" textLength="134.8813" x="62.8516" y="646.5967">Fait signer sur l'&#195;&#169;cran</text><polygon fill="#181818" points="298.2764,677.8047,288.2764,681.8047,298.2764,685.8047,294.2764,681.8047" style="stroke:#181818;stroke-width:1;"/><line style="stroke:#181818;stroke-width:1;" x1="292.2764" x2="612.3589" y1="681.8047" y2="681.8047"/><text fill="#000000" font-family="sans-serif" font-size="13" lengthAdjust="spacing" textLength="55.6499" x="304.2764" y="676.9482">Signature</text><polygon fill="#181818" points="410.5908,708.1563,420.5908,712.1563,410.5908,716.1563,414.5908,712.1563" style="stroke:#181818;stroke-width:1;"/><line style="stroke:#181818;stroke-width:1;" x1="282.2764" x2="416.5908" y1="712.1563" y2="712.1563"/><text fill="#000000" font-family="sans-serif" font-size="13" lengthAdjust="spacing" textLength="116.3145" x="289.2764" y="707.2998">Sync (D&#195;&#168;s que 4G)</text><rect fill="#EEEEEE" height="3" style="stroke:#EEEEEE;stroke-width:1;" width="737.896" x="0" y="741.332"/><line style="stroke:#000000;stroke-width:1;" x1="0" x2="737.896" y1="741.332" y2="741.332"/><line style="stroke:#000000;stroke-width:1;" x1="0" x2="737.896" y1="744.332" y2="744.332"/><rect fill="#EEEEEE" height="24.3516" style="stroke:#000000;stroke-width:2;" width="124.5063" x="306.6948" y="730.1563"/><text fill="#000000" font-family="sans-serif" font-size="13" font-weight="bold" lengthAdjust="spacing" textLength="106.8945" x="312.6948" y="747.6514">Post-Intervention</text><polygon fill="#181818" points="157.9375,782.8594,147.9375,786.8594,157.9375,790.8594,153.9375,786.8594" style="stroke:#181818;stroke-width:1;"/><line style="stroke:#181818;stroke-width:1;" x1="151.9375" x2="421.5908" y1="786.8594" y2="786.8594"/><text fill="#000000" font-family="sans-serif" font-size="13" lengthAdjust="spacing" textLength="177.0425" x="163.9375" y="782.0029">Notif "Intervention Termin&#195;&#169;e"</text><polygon fill="#181818" points="601.3589,824.3867,611.3589,828.3867,601.3589,832.3867,605.3589,828.3867" style="stroke:#181818;stroke-width:1;"/><line style="stroke:#181818;stroke-width:1;" x1="427.5908" x2="607.3589" y1="828.3867" y2="828.3867"/><text fill="#000000" font-family="sans-serif" font-size="13" lengthAdjust="spacing" textLength="156.7681" x="434.5908" y="823.5303">Envoi Rapport PDF (Email)</text><path d="M618,799.8594 L618,841.8594 L727,841.8594 L727,809.8594 L717,799.8594 L618,799.8594 " fill="#87CEEB" style="stroke:#181818;stroke-width:0.5;"/><path d="M717,799.8594 L717,809.8594 L727,809.8594 L717,799.8594 " fill="#87CEEB" style="stroke:#181818;stroke-width:0.5;"/><text fill="#000000" font-family="sans-serif" font-size="13" lengthAdjust="spacing" textLength="65.0317" x="624" y="818.3545">Facturation</text><text fill="#000000" font-family="sans-serif" font-size="13" lengthAdjust="spacing" textLength="88.5371" x="624" y="834.7061">d&#195;&#169;clench&#195;&#169;e</text><!--SRC=[ZLFDZjCm4BxdAKQj1CcXPP7G_bGgKfkcQ2iMghRQ4nUluxO3hXrifu8R4g_10omtZdlU5I_2ap1scYxfzi0jpdpVp3VVp3XqKi3KQ2wiBIrSAYVCLYY7Ma47qilXsmpYzxdMC4OXSvXJ6Bb8eeXnfmsqhfZX7rIShiKIqZKZfZ192vW57u7sU3myJL_Mw4afKIZ23qiZM5a1gv_G7en6vzbfL33Za6D1kQ0rA0guqZSe1P4UTLH47snVd6JPnKcJ5O3PR4eSwksZS2-caYc5QbKHGxnzVfPcsR2MbdeHBeIhpoZgzy7pS8cS1KVYIUSiWNu_YdQQEwz3hbwD4mq7VMhSCYS2A0fLYK6oUp3_gZZKgg9SDA6-T6CMyKIN1YPLyU1idIZLofQIYFja-rGKZxn77S9wJe-wt8se1zSe9VE_7QhMlm8ygrbYxWW52zm80_7euVlzpvlI9SqwIjE7mTNQxKS2C2znY-34fh3qOgNJ6pBoSoaYeNBmb8DA3xz-t_tvzkF-ZdOIBVMqravRY0TRafrKpUn5QVw9hSYmvLAY4ir4Cw-IIPzZOTYMbL-wtUv_rYeCaMzjyiG5NTGcZ54b1mMfIOaEPgmeDBaLZv0xBqB0jUPCqiaSjOZmc0juvjroJENCv6WzxuX5rLxsOCoeaCML8YcMra8-zmHkc8egoADc0Z57jrPRLsrhMBumoLiBD0vuzIPviW9- -xLrdSOU-lKxljNLHVJWdNQuX5Q3jH1cWoguqTeJwcuojTMuzsqw6aESRHZAfc6xOmLgdbD3uHxfbOVEfL1y7T8_kdPuKdy1]--></g></svg>