<svg xmlns="http://www.w3.org/2000/svg" xmlns:xlink="http://www.w3.org/1999/xlink" contentStyleType="text/css" height="860px" preserveAspectRatio="none" style="width:2119px;height:860px;background:#FFFFFF;" version="1.1" viewBox="0 0 2119 860" width="2119px" zoomAndPan="magnify"><title>Flux Donnees Architecture Cible Chantiers</title><defs/><g><text fill="#000000" font-family="sans-serif" font-size="14" font-weight="bold" lengthAdjust="spacing" textLength="284.7305" x="910.3848" y="24.5332">Flux Donnees Architecture Cible Chantiers</text><!--cluster Utilisateurs Mobiles--><g id="cluster_Utilisateurs Mobiles"><path d="M803,44.6094 L936.2549,44.6094 A3.75,3.75 0 0 1 938.7549,47.1094 L945.7549,68.2188 L1326,68.2188 A2.5,2.5 0 0 1 1328.5,70.7188 L1328.5,159.1094 A2.5,2.5 0 0 1 1326,161.6094 L803,161.6094 A2.5,2.5 0 0 1 800.5,159.1094 L800.5,47.1094 A2.5,2.5 0 0 1 803,44.6094 " fill="#E0F7FA" style="stroke:#000000;stroke-width:1.5;"/><line style="stroke:#000000;stroke-width:1.5;" x1="800.5" x2="945.7549" y1="68.2188" y2="68.2188"/><text fill="#000000" font-family="sans-serif" font-size="14" font-weight="bold" lengthAdjust="spacing" textLength="132.2549" x="804.5" y="61.1426">Utilisateurs Mobiles</text></g><!--cluster Azure Cloud France--><g id="cluster_Azure Cloud France"><path d="M541,247.1094 L674.2412,247.1094 A3.75,3.75 0 0 1 676.7412,249.6094 L683.7412,270.7188 L1580,270.7188 A2.5,2.5 0 0 1 1582.5,273.2188 L1582.5,851.1094 A2.5,2.5 0 0 1 1580,853.6094 L541,853.6094 A2.5,2.5 0 0 1 538.5,851.1094 L538.5,249.6094 A2.5,2.5 0 0 1 541,247.1094 " fill="#E3F2FD" style="stroke:#000000;stroke-width:1.5;"/><line style="stroke:#000000;stroke-width:1.5;" x1="538.5" x2="683.7412" y1="270.7188" y2="270.7188"/><text fill="#000000" font-family="sans-serif" font-size="14" font-weight="bold" lengthAdjust="spacing" textLength="132.2412" x="542.5" y="263.6426">Azure Cloud France</text></g><!--cluster Integrations Externes--><g id="cluster_Integrations Externes"><path d="M1609,592.6094 L1753.1514,592.6094 A3.75,3.75 0 0 1 1755.6514,595.1094 L1762.6514,616.2188 L2110,616.2188 A2.5,2.5 0 0 1 2112.5,618.7188 L2112.5,707.1094 A2.5,2.5 0 0 1 2110,709.6094 L1609,709.6094 A2.5,2.5 0 0 1 1606.5,707.1094 L1606.5,595.1094 A2.5,2.5 0 0 1 1609,592.6094 " fill="#FFF8E1" style="stroke:#000000;stroke-width:1.5;"/><line style="stroke:#000000;stroke-width:1.5;" x1="1606.5" x2="1762.6514" y1="616.2188" y2="616.2188"/><text fill="#000000" font-family="sans-serif" font-size="14" font-weight="bold" lengthAdjust="spacing" textLength="143.1514" x="1610.5" y="609.1426">Integrations Externes</text></g><!--entity Chef--><g id="elem_Chef"><rect fill="#F1F1F1" height="65.2188" rx="2.5" ry="2.5" style="stroke:#181818;stroke-width:0.5;" width="126.3789" x="816.5" y="80.6094"/><rect fill="#F1F1F1" height="10" style="stroke:#181818;stroke-width:0.5;" width="15" x="922.8789" y="85.6094"/><rect fill="#F1F1F1" height="2" style="stroke:#181818;stroke-width:0.5;" width="4" x="920.8789" y="87.6094"/><rect fill="#F1F1F1" height="2" style="stroke:#181818;stroke-width:0.5;" width="4" x="920.8789" y="91.6094"/><text fill="#000000" font-family="sans-serif" font-size="14" lengthAdjust="spacing" textLength="86.3789" x="831.5" y="115.1426">Chef Chantier</text><text fill="#000000" font-family="sans-serif" font-size="14" lengthAdjust="spacing" textLength="84.8066" x="831.5" y="132.752">(iOS/Android)</text></g><!--entity RA--><g id="elem_RA"><rect fill="#F1F1F1" height="65.2188" rx="2.5" ry="2.5" style="stroke:#181818;stroke-width:0.5;" width="166.0752" x="1146.5" y="80.6094"/><rect fill="#F1F1F1" height="10" style="stroke:#181818;stroke-width:0.5;" width="15" x="1292.5752" y="85.6094"/><rect fill="#F1F1F1" height="2" style="stroke:#181818;stroke-width:0.5;" width="4" x="1290.5752" y="87.6094"/><rect fill="#F1F1F1" height="2" style="stroke:#181818;stroke-width:0.5;" width="4" x="1290.5752" y="91.6094"/><text fill="#000000" font-family="sans-serif" font-size="14" lengthAdjust="spacing" textLength="126.0752" x="1161.5" y="115.1426">Responsable Affaire</text><text fill="#000000" font-family="sans-serif" font-size="14" lengthAdjust="spacing" textLength="38.1104" x="1161.5" y="132.752">(Web)</text></g><!--entity BE--><g id="elem_BE"><rect fill="#F1F1F1" height="65.2188" rx="2.5" ry="2.5" style="stroke:#181818;stroke-width:0.5;" width="132.6201" x="978" y="80.6094"/><rect fill="#F1F1F1" height="10" style="stroke:#181818;stroke-width:0.5;" width="15" x="1090.6201" y="85.6094"/><rect fill="#F1F1F1" height="2" style="stroke:#181818;stroke-width:0.5;" width="4" x="1088.6201" y="87.6094"/><rect fill="#F1F1F1" height="2" style="stroke:#181818;stroke-width:0.5;" width="4" x="1088.6201" y="91.6094"/><text fill="#000000" font-family="sans-serif" font-size="14" lengthAdjust="spacing" textLength="92.6201" x="993" y="115.1426">Bureau Etudes</text><text fill="#000000" font-family="sans-serif" font-size="14" lengthAdjust="spacing" textLength="38.1104" x="993" y="132.752">(Web)</text></g><!--entity API--><g id="elem_API"><rect fill="#F1F1F1" height="65.2188" rx="2.5" ry="2.5" style="stroke:#181818;stroke-width:0.5;" width="121.7031" x="983.5" y="283.1094"/><rect fill="#F1F1F1" height="10" style="stroke:#181818;stroke-width:0.5;" width="15" x="1085.2031" y="288.1094"/><rect fill="#F1F1F1" height="2" style="stroke:#181818;stroke-width:0.5;" width="4" x="1083.2031" y="290.1094"/><rect fill="#F1F1F1" height="2" style="stroke:#181818;stroke-width:0.5;" width="4" x="1083.2031" y="294.1094"/><text fill="#000000" font-family="sans-serif" font-size="14" lengthAdjust="spacing" textLength="81.7031" x="998.5" y="317.6426">API Gateway</text><text fill="#000000" font-family="sans-serif" font-size="14" lengthAdjust="spacing" textLength="47.4688" x="998.5" y="335.252">Node.js</text></g><!--entity Auth--><g id="elem_Auth"><rect fill="#F1F1F1" height="65.2188" rx="2.5" ry="2.5" style="stroke:#181818;stroke-width:0.5;" width="119.3721" x="612" y="447.6094"/><rect fill="#F1F1F1" height="10" style="stroke:#181818;stroke-width:0.5;" width="15" x="711.3721" y="452.6094"/><rect fill="#F1F1F1" height="2" style="stroke:#181818;stroke-width:0.5;" width="4" x="709.3721" y="454.6094"/><rect fill="#F1F1F1" height="2" style="stroke:#181818;stroke-width:0.5;" width="4" x="709.3721" y="458.6094"/><text fill="#000000" font-family="sans-serif" font-size="14" lengthAdjust="spacing" textLength="79.3721" x="627" y="482.1426">Auth Service</text><text fill="#000000" font-family="sans-serif" font-size="14" lengthAdjust="spacing" textLength="28.7656" x="627" y="499.752">JWT</text></g><!--entity IncSvc--><g id="elem_IncSvc"><rect fill="#F1F1F1" height="47.6094" rx="2.5" ry="2.5" style="stroke:#181818;stroke-width:0.5;" width="146.6064" x="1198" y="456.1094"/><rect fill="#F1F1F1" height="10" style="stroke:#181818;stroke-width:0.5;" width="15" x="1324.6064" y="461.1094"/><rect fill="#F1F1F1" height="2" style="stroke:#181818;stroke-width:0.5;" width="4" x="1322.6064" y="463.1094"/><rect fill="#F1F1F1" height="2" style="stroke:#181818;stroke-width:0.5;" width="4" x="1322.6064" y="467.1094"/><text fill="#000000" font-family="sans-serif" font-size="14" lengthAdjust="spacing" textLength="106.6064" x="1213" y="490.6426">Incidents Service</text></g><!--entity PhotoSvc--><g id="elem_PhotoSvc"><rect fill="#F1F1F1" height="47.6094" rx="2.5" ry="2.5" style="stroke:#181818;stroke-width:0.5;" width="134.1582" x="789.5" y="456.1094"/><rect fill="#F1F1F1" height="10" style="stroke:#181818;stroke-width:0.5;" width="15" x="903.6582" y="461.1094"/><rect fill="#F1F1F1" height="2" style="stroke:#181818;stroke-width:0.5;" width="4" x="901.6582" y="463.1094"/><rect fill="#F1F1F1" height="2" style="stroke:#181818;stroke-width:0.5;" width="4" x="901.6582" y="467.1094"/><text fill="#000000" font-family="sans-serif" font-size="14" lengthAdjust="spacing" textLength="94.1582" x="804.5" y="490.6426">Photos Service</text></g><!--entity RapSvc--><g id="elem_RapSvc"><rect fill="#F1F1F1" height="47.6094" rx="2.5" ry="2.5" style="stroke:#181818;stroke-width:0.5;" width="147.3789" x="971" y="456.1094"/><rect fill="#F1F1F1" height="10" style="stroke:#181818;stroke-width:0.5;" width="15" x="1098.3789" y="461.1094"/><rect fill="#F1F1F1" height="2" style="stroke:#181818;stroke-width:0.5;" width="4" x="1096.3789" y="463.1094"/><rect fill="#F1F1F1" height="2" style="stroke:#181818;stroke-width:0.5;" width="4" x="1096.3789" y="467.1094"/><text fill="#000000" font-family="sans-serif" font-size="14" lengthAdjust="spacing" textLength="107.3789" x="986" y="490.6426">Rapports Service</text></g><!--entity CmdSvc--><g id="elem_CmdSvc"><rect fill="#F1F1F1" height="47.6094" rx="2.5" ry="2.5" style="stroke:#181818;stroke-width:0.5;" width="169.9375" x="1380.5" y="456.1094"/><rect fill="#F1F1F1" height="10" style="stroke:#181818;stroke-width:0.5;" width="15" x="1530.4375" y="461.1094"/><rect fill="#F1F1F1" height="2" style="stroke:#181818;stroke-width:0.5;" width="4" x="1528.4375" y="463.1094"/><rect fill="#F1F1F1" height="2" style="stroke:#181818;stroke-width:0.5;" width="4" x="1528.4375" y="467.1094"/><text fill="#000000" font-family="sans-serif" font-size="14" lengthAdjust="spacing" textLength="129.9375" x="1395.5" y="490.6426">Commandes Service</text></g><!--entity Postgres--><g id="elem_Postgres"><path d="M1244,639.1094 C1244,629.1094 1303.4136,629.1094 1303.4136,629.1094 C1303.4136,629.1094 1362.8271,629.1094 1362.8271,639.1094 L1362.8271,683.3281 C1362.8271,693.3281 1303.4136,693.3281 1303.4136,693.3281 C1303.4136,693.3281 1244,693.3281 1244,683.3281 L1244,639.1094 " fill="#F1F1F1" style="stroke:#181818;stroke-width:0.5;"/><path d="M1244,639.1094 C1244,649.1094 1303.4136,649.1094 1303.4136,649.1094 C1303.4136,649.1094 1362.8271,649.1094 1362.8271,639.1094 " fill="none" style="stroke:#181818;stroke-width:0.5;"/><text fill="#000000" font-family="sans-serif" font-size="14" lengthAdjust="spacing" textLength="76.2617" x="1254" y="667.6426">PostgreSQL</text><text fill="#000000" font-family="sans-serif" font-size="14" lengthAdjust="spacing" textLength="98.8271" x="1254" y="685.252">Donnees Metier</text></g><!--entity Redis--><g id="elem_Redis"><path d="M555,639.1094 C555,629.1094 615.5825,629.1094 615.5825,629.1094 C615.5825,629.1094 676.165,629.1094 676.165,639.1094 L676.165,683.3281 C676.165,693.3281 615.5825,693.3281 615.5825,693.3281 C615.5825,693.3281 555,693.3281 555,683.3281 L555,639.1094 " fill="#F1F1F1" style="stroke:#181818;stroke-width:0.5;"/><path d="M555,639.1094 C555,649.1094 615.5825,649.1094 615.5825,649.1094 C615.5825,649.1094 676.165,649.1094 676.165,639.1094 " fill="none" style="stroke:#181818;stroke-width:0.5;"/><text fill="#000000" font-family="sans-serif" font-size="14" lengthAdjust="spacing" textLength="35.793" x="565" y="667.6426">Redis</text><text fill="#000000" font-family="sans-serif" font-size="14" lengthAdjust="spacing" textLength="101.165" x="565" y="685.252">Cache Sessions</text></g><!--entity Blob--><g id="elem_Blob"><path d="M840.5,783.6094 C840.5,773.6094 894.2705,773.6094 894.2705,773.6094 C894.2705,773.6094 948.041,773.6094 948.041,783.6094 L948.041,827.8281 C948.041,837.8281 894.2705,837.8281 894.2705,837.8281 C894.2705,837.8281 840.5,837.8281 840.5,827.8281 L840.5,783.6094 " fill="#F1F1F1" style="stroke:#181818;stroke-width:0.5;"/><path d="M840.5,783.6094 C840.5,793.6094 894.2705,793.6094 894.2705,793.6094 C894.2705,793.6094 948.041,793.6094 948.041,783.6094 " fill="none" style="stroke:#181818;stroke-width:0.5;"/><text fill="#000000" font-family="sans-serif" font-size="14" lengthAdjust="spacing" textLength="68.4824" x="850.5" y="812.1426">Azure Blob</text><text fill="#000000" font-family="sans-serif" font-size="14" lengthAdjust="spacing" textLength="87.541" x="850.5" y="829.752">Photos + PDF</text></g><!--entity Functions--><g id="elem_Functions"><rect fill="#F1F1F1" height="65.2188" rx="2.5" ry="2.5" style="stroke:#181818;stroke-width:0.5;" width="195.6338" x="868.5" y="628.6094"/><rect fill="#F1F1F1" height="10" style="stroke:#181818;stroke-width:0.5;" width="15" x="1044.1338" y="633.6094"/><rect fill="#F1F1F1" height="2" style="stroke:#181818;stroke-width:0.5;" width="4" x="1042.1338" y="635.6094"/><rect fill="#F1F1F1" height="2" style="stroke:#181818;stroke-width:0.5;" width="4" x="1042.1338" y="639.6094"/><text fill="#000000" font-family="sans-serif" font-size="14" lengthAdjust="spacing" textLength="101.1582" x="883.5" y="663.1426">Azure Functions</text><text fill="#000000" font-family="sans-serif" font-size="14" lengthAdjust="spacing" textLength="155.6338" x="883.5" y="680.752">Compression Generation</text></g><!--entity ERP--><g id="elem_ERP"><rect fill="#F1F1F1" height="65.2188" rx="2.5" ry="2.5" style="stroke:#181818;stroke-width:0.5;" width="151.2686" x="1945" y="628.6094"/><rect fill="#F1F1F1" height="10" style="stroke:#181818;stroke-width:0.5;" width="15" x="2076.2686" y="633.6094"/><rect fill="#F1F1F1" height="2" style="stroke:#181818;stroke-width:0.5;" width="4" x="2074.2686" y="635.6094"/><rect fill="#F1F1F1" height="2" style="stroke:#181818;stroke-width:0.5;" width="4" x="2074.2686" y="639.6094"/><text fill="#000000" font-family="sans-serif" font-size="14" lengthAdjust="spacing" textLength="66.9238" x="1960" y="663.1426">ERP Odoo</text><text fill="#000000" font-family="sans-serif" font-size="14" lengthAdjust="spacing" textLength="111.2686" x="1960" y="680.752">Chantiers Affaires</text></g><!--entity Email--><g id="elem_Email"><rect fill="#F1F1F1" height="65.2188" rx="2.5" ry="2.5" style="stroke:#181818;stroke-width:0.5;" width="99.1445" x="1623" y="628.6094"/><rect fill="#F1F1F1" height="10" style="stroke:#181818;stroke-width:0.5;" width="15" x="1702.1445" y="633.6094"/><rect fill="#F1F1F1" height="2" style="stroke:#181818;stroke-width:0.5;" width="4" x="1700.1445" y="635.6094"/><rect fill="#F1F1F1" height="2" style="stroke:#181818;stroke-width:0.5;" width="4" x="1700.1445" y="639.6094"/><text fill="#000000" font-family="sans-serif" font-size="14" lengthAdjust="spacing" textLength="59.1445" x="1638" y="663.1426">SendGrid</text><text fill="#000000" font-family="sans-serif" font-size="14" lengthAdjust="spacing" textLength="35.0068" x="1638" y="680.752">Email</text></g><!--entity Push--><g id="elem_Push"><rect fill="#F1F1F1" height="65.2188" rx="2.5" ry="2.5" style="stroke:#181818;stroke-width:0.5;" width="152.0547" x="1757.5" y="628.6094"/><rect fill="#F1F1F1" height="10" style="stroke:#181818;stroke-width:0.5;" width="15" x="1889.5547" y="633.6094"/><rect fill="#F1F1F1" height="2" style="stroke:#181818;stroke-width:0.5;" width="4" x="1887.5547" y="635.6094"/><rect fill="#F1F1F1" height="2" style="stroke:#181818;stroke-width:0.5;" width="4" x="1887.5547" y="639.6094"/><text fill="#000000" font-family="sans-serif" font-size="14" lengthAdjust="spacing" textLength="112.0547" x="1772.5" y="663.1426">Push Notifications</text><text fill="#000000" font-family="sans-serif" font-size="14" lengthAdjust="spacing" textLength="84.4033" x="1772.5" y="680.752">FCM + APNS</text></g><g id="elem_N1"><path d="M6,59.1094 L6,167.2188 L293.4492,167.2188 L293.4492,69.1094 L283.4492,59.1094 L6,59.1094 " fill="#FEFFDD" style="stroke:#181818;stroke-width:0.5;"/><path d="M283.4492,59.1094 L283.4492,69.1094 L293.4492,69.1094 L283.4492,59.1094 " fill="#FEFFDD" style="stroke:#181818;stroke-width:1;"/><text fill="#000000" font-family="sans-serif" font-size="13" font-weight="bold" lengthAdjust="spacing" textLength="181.3271" x="12" y="77.6045">Flux Principaux Temps Reel :</text><text fill="#000000" font-family="sans-serif" font-size="13" lengthAdjust="spacing" textLength="236.8755" x="12" y="93.9561">1. Chef prend photo &#226;&#8224;&#8217; Upload auto Blob</text><text fill="#000000" font-family="sans-serif" font-size="13" lengthAdjust="spacing" textLength="266.4492" x="12" y="110.3076">2. Chef remonte incident &#226;&#8224;&#8217; Notif Push RA/BE</text><text fill="#000000" font-family="sans-serif" font-size="13" lengthAdjust="spacing" textLength="255.2583" x="12" y="126.6592">3. Chef genere rapport &#226;&#8224;&#8217; PDF auto + Email</text><text fill="#000000" font-family="sans-serif" font-size="13" lengthAdjust="spacing" textLength="252.7383" x="12" y="143.0107">4. RA consulte incidents &#226;&#8224;&#8217; Dashboard web</text><text fill="#000000" font-family="sans-serif" font-size="13" lengthAdjust="spacing" textLength="230.3311" x="12" y="159.3623">5. BE resout incident &#226;&#8224;&#8217; Notif Push chef</text></g><g id="elem_N2"><path d="M328.5,67.1094 L328.5,158.8672 L514.2661,158.8672 L514.2661,77.1094 L504.2661,67.1094 L328.5,67.1094 " fill="#FEFFDD" style="stroke:#181818;stroke-width:0.5;"/><path d="M504.2661,67.1094 L504.2661,77.1094 L514.2661,77.1094 L504.2661,67.1094 " fill="#FEFFDD" style="stroke:#181818;stroke-width:1;"/><text fill="#000000" font-family="sans-serif" font-size="13" font-weight="bold" lengthAdjust="spacing" textLength="113.3882" x="334.5" y="85.6045">Mode Hors Ligne :</text><text fill="#000000" font-family="sans-serif" font-size="13" lengthAdjust="spacing" textLength="141.6099" x="334.5" y="101.9561">- SQLite local sur mobile</text><text fill="#000000" font-family="sans-serif" font-size="13" lengthAdjust="spacing" textLength="132.2661" x="334.5" y="118.3076">- Queue upload photos</text><text fill="#000000" font-family="sans-serif" font-size="13" lengthAdjust="spacing" textLength="164.7661" x="334.5" y="134.6592">- Sync auto des reconnexion</text><text fill="#000000" font-family="sans-serif" font-size="13" lengthAdjust="spacing" textLength="111.2681" x="334.5" y="151.0107">- Conflict resolution</text></g><g id="elem_N3"><path d="M53.5,261.6094 L53.5,369.7188 L245.0044,369.7188 L245.0044,271.6094 L235.0044,261.6094 L53.5,261.6094 " fill="#FEFFDD" style="stroke:#181818;stroke-width:0.5;"/><path d="M235.0044,261.6094 L235.0044,271.6094 L245.0044,271.6094 L235.0044,261.6094 " fill="#FEFFDD" style="stroke:#181818;stroke-width:1;"/><text fill="#000000" font-family="sans-serif" font-size="13" font-weight="bold" lengthAdjust="spacing" textLength="59.2427" x="59.5" y="280.1045">Securite :</text><text fill="#000000" font-family="sans-serif" font-size="13" lengthAdjust="spacing" textLength="101.1372" x="59.5" y="296.4561">- TLS 1.3 (transit)</text><text fill="#000000" font-family="sans-serif" font-size="13" lengthAdjust="spacing" textLength="134.3926" x="59.5" y="312.8076">- AES-256 (repos Blob)</text><text fill="#000000" font-family="sans-serif" font-size="13" lengthAdjust="spacing" textLength="170.5044" x="59.5" y="329.1592">- JWT tokens (expiration 24h)</text><text fill="#000000" font-family="sans-serif" font-size="13" lengthAdjust="spacing" textLength="124.9917" x="59.5" y="345.5107">- Refresh tokens (30j)</text><text fill="#000000" font-family="sans-serif" font-size="13" lengthAdjust="spacing" textLength="97.5381" x="59.5" y="361.8623">- MFA disponible</text></g><g id="elem_N4"><path d="M280.5,261.6094 L280.5,369.7188 L522.2461,369.7188 L522.2461,271.6094 L512.2461,261.6094 L280.5,261.6094 " fill="#FEFFDD" style="stroke:#181818;stroke-width:0.5;"/><path d="M512.2461,261.6094 L512.2461,271.6094 L522.2461,271.6094 L512.2461,261.6094 " fill="#FEFFDD" style="stroke:#181818;stroke-width:1;"/><text fill="#000000" font-family="sans-serif" font-size="13" font-weight="bold" lengthAdjust="spacing" textLength="87.4199" x="286.5" y="280.1045">Performance :</text><text fill="#000000" font-family="sans-serif" font-size="13" lengthAdjust="spacing" textLength="136.2144" x="286.5" y="296.4561">- Latence API : &lt;300ms</text><text fill="#000000" font-family="sans-serif" font-size="13" lengthAdjust="spacing" textLength="220.7461" x="286.5" y="312.8076">- Upload photo : &lt;2 sec (compression)</text><text fill="#000000" font-family="sans-serif" font-size="13" lengthAdjust="spacing" textLength="151.3726" x="286.5" y="329.1592">- Generation PDF : &lt;5 sec</text><text fill="#000000" font-family="sans-serif" font-size="13" lengthAdjust="spacing" textLength="153.5498" x="286.5" y="345.5107">- Sync hors ligne : &lt;10 sec</text><text fill="#000000" font-family="sans-serif" font-size="13" lengthAdjust="spacing" textLength="176.2871" x="286.5" y="361.8623">- Concurrent users : 20 (chefs)</text></g><!--link Chef to API--><g id="link_Chef_API"><path d="M853.31,145.6294 C836.12,170.3694 819.81,204.8994 837.5,231.1094 C869.8,278.9694 928.7145,298.3387 977.2645,307.0587 " fill="none" id="Chef-to-API" style="stroke:#181818;stroke-width:1;"/><polygon fill="#181818" points="983.17,308.1194,975.0189,302.5914,978.2487,307.2355,973.6046,310.4654,983.17,308.1194" style="stroke:#181818;stroke-width:1;"/><text fill="#000000" font-family="sans-serif" font-size="13" lengthAdjust="spacing" textLength="111.2617" x="879.6899" y="211.6045">HTTPS Mobile App</text><text fill="#000000" font-family="sans-serif" font-size="13" lengthAdjust="spacing" textLength="193.6416" x="838.5" y="227.9561">CRUD Photos Incidents Rapports</text></g><!--link RA to API--><g id="link_RA_API"><path d="M1233.16,145.8494 C1234.39,171.2094 1232.13,206.4594 1214.5,231.1094 C1188.77,267.0794 1148.8625,286.4643 1111.3525,298.5143 " fill="none" id="RA-to-API" style="stroke:#181818;stroke-width:1;"/><polygon fill="#181818" points="1105.64,300.3494,1115.4321,301.405,1110.4004,298.8201,1112.9853,293.7884,1105.64,300.3494" style="stroke:#181818;stroke-width:1;"/><text fill="#000000" font-family="sans-serif" font-size="13" lengthAdjust="spacing" textLength="72.9536" x="1276.1235" y="211.6045">HTTPS Web</text><text fill="#000000" font-family="sans-serif" font-size="13" lengthAdjust="spacing" textLength="166.2007" x="1229.5" y="227.9561">Consulte Incidents Chantiers</text></g><!--link BE to API--><g id="link_BE_API"><path d="M1043.09,145.6294 C1042.47,161.1294 1041.81,180.0994 1041.5,197.1094 C1040.98,226.0794 1041.7139,253.0744 1042.6839,276.7044 " fill="none" id="BE-to-API" style="stroke:#181818;stroke-width:1;"/><polygon fill="#181818" points="1042.93,282.6994,1046.5575,273.5429,1042.7249,277.7036,1038.5642,273.871,1042.93,282.6994" style="stroke:#181818;stroke-width:1;"/><text fill="#000000" font-family="sans-serif" font-size="13" lengthAdjust="spacing" textLength="72.9536" x="1089.8503" y="211.6045">HTTPS Web</text><text fill="#000000" font-family="sans-serif" font-size="13" lengthAdjust="spacing" textLength="167.6543" x="1042.5" y="227.9561">Resout Incidents Techniques</text></g><!--link API to Auth--><g id="link_API_Auth"><path d="M983.46,338.5494 C940.31,354.4794 881.33,377.0994 830.5,399.6094 C797.2,414.3494 766.1585,429.6606 736.6085,444.8206 " fill="none" id="API-to-Auth" style="stroke:#181818;stroke-width:1;"/><polygon fill="#181818" points="731.27,447.5594,741.1035,447.0102,735.7187,445.2771,737.4518,439.8922,731.27,447.5594" style="stroke:#181818;stroke-width:1;"/><text fill="#000000" font-family="sans-serif" font-size="13" lengthAdjust="spacing" textLength="87.4199" x="831.5" y="414.1045">Validation JWT</text></g><!--link Auth to Redis--><g id="link_Auth_Redis"><path d="M612.13,512.6494 C601.8,520.9594 592.47,530.9294 586.5,542.6094 C572.5,570.0194 581.3079,599.1873 593.7279,623.6973 " fill="none" id="Auth-to-Redis" style="stroke:#181818;stroke-width:1;"/><polygon fill="#181818" points="596.44,629.0494,595.9399,619.2132,594.1799,624.5893,588.8039,622.8293,596.44,629.0494" style="stroke:#181818;stroke-width:1;"/><text fill="#000000" font-family="sans-serif" font-size="13" lengthAdjust="spacing" textLength="52.749" x="587.5" y="565.1045">Sessions</text></g><!--link API to IncSvc--><g id="link_API_IncSvc"><path d="M1088.54,348.1294 C1132.76,379.7894 1194.9615,424.3165 1234.4315,452.5765 " fill="none" id="API-to-IncSvc" style="stroke:#181818;stroke-width:1;"/><polygon fill="#181818" points="1239.31,456.0694,1234.3209,447.5777,1235.2446,453.1586,1229.6637,454.0823,1239.31,456.0694" style="stroke:#181818;stroke-width:1;"/><text fill="#000000" font-family="sans-serif" font-size="13" lengthAdjust="spacing" textLength="34.6709" x="1185.5" y="414.1045">REST</text></g><!--link API to PhotoSvc--><g id="link_API_PhotoSvc"><path d="M1007.81,348.3294 C971.26,379.9194 920.5694,423.7359 887.9194,451.9559 " fill="none" id="API-to-PhotoSvc" style="stroke:#181818;stroke-width:1;"/><polygon fill="#181818" points="883.38,455.8794,892.8048,453.0204,887.1628,452.6098,887.5734,446.9679,883.38,455.8794" style="stroke:#181818;stroke-width:1;"/><text fill="#000000" font-family="sans-serif" font-size="13" lengthAdjust="spacing" textLength="34.6709" x="945.5" y="414.1045">REST</text></g><!--link API to RapSvc--><g id="link_API_RapSvc"><path d="M1044.5,348.3294 C1044.5,379.9194 1044.5,421.6594 1044.5,449.8794 " fill="none" id="API-to-RapSvc" style="stroke:#181818;stroke-width:1;"/><polygon fill="#181818" points="1044.5,455.8794,1048.5,446.8794,1044.5,450.8794,1040.5,446.8794,1044.5,455.8794" style="stroke:#181818;stroke-width:1;"/><text fill="#000000" font-family="sans-serif" font-size="13" lengthAdjust="spacing" textLength="34.6709" x="1045.5" y="414.1045">REST</text></g><!--link API to CmdSvc--><g id="link_API_CmdSvc"><path d="M1105.72,340.2394 C1186.11,371.2694 1320.7424,423.239 1400.3124,453.949 " fill="none" id="API-to-CmdSvc" style="stroke:#181818;stroke-width:1;"/><polygon fill="#181818" points="1405.91,456.1094,1398.9539,449.1371,1401.2454,454.3091,1396.0734,456.6005,1405.91,456.1094" style="stroke:#181818;stroke-width:1;"/><text fill="#000000" font-family="sans-serif" font-size="13" lengthAdjust="spacing" textLength="34.6709" x="1305.5" y="414.1045">REST</text></g><!--link IncSvc to Postgres--><g id="link_IncSvc_Postgres"><path d="M1275.62,504.1394 C1281.31,535.9694 1290.5345,587.5629 1296.8945,623.1529 " fill="none" id="IncSvc-to-Postgres" style="stroke:#181818;stroke-width:1;"/><polygon fill="#181818" points="1297.95,629.0594,1300.3044,619.4961,1297.0704,624.1373,1292.4291,620.9034,1297.95,629.0594" style="stroke:#181818;stroke-width:1;"/><text fill="#000000" font-family="sans-serif" font-size="13" lengthAdjust="spacing" textLength="93.1963" x="1288.5" y="565.1045">CRUD Incidents</text></g><!--link PhotoSvc to Blob--><g id="link_PhotoSvc_Blob"><path d="M789.18,502.6694 C747.35,516.7394 700.42,534.0394 694.5,542.6094 C685.92,555.0494 691.05,561.8994 694.5,576.6094 C713.57,657.8894 719.71,686.3794 780.5,743.6094 C797.66,759.7694 814.5287,770.2962 834.8187,780.2062 " fill="none" id="PhotoSvc-to-Blob" style="stroke:#181818;stroke-width:1;"/><polygon fill="#181818" points="840.21,782.8394,833.8785,775.2954,835.7172,780.645,830.3676,782.4838,840.21,782.8394" style="stroke:#181818;stroke-width:1;"/><text fill="#000000" font-family="sans-serif" font-size="13" lengthAdjust="spacing" textLength="85.2808" x="754.5" y="666.6045">Upload Photos</text></g><!--link PhotoSvc to Postgres--><g id="link_PhotoSvc_Postgres"><path d="M923.04,504.1194 C947.76,514.1294 975.39,527.1394 998.5,542.6094 C1016.52,554.6694 1013.6,567.9894 1033.5,576.6094 C1068.41,591.7294 1168.75,571.5994 1204.5,584.6094 C1230.3,593.9994 1250.4028,608.6427 1268.6128,625.0527 " fill="none" id="PhotoSvc-to-Postgres" style="stroke:#181818;stroke-width:1;"/><polygon fill="#181818" points="1273.07,629.0694,1269.0619,620.073,1269.3557,625.7222,1263.7064,626.0159,1273.07,629.0694" style="stroke:#181818;stroke-width:1;"/><text fill="#000000" font-family="sans-serif" font-size="13" lengthAdjust="spacing" textLength="98.2871" x="1034.5" y="565.1045">Metadata Photos</text></g><!--link RapSvc to Postgres--><g id="link_RapSvc_Postgres"><path d="M1084.19,504.2294 C1102.15,515.1994 1123.37,528.8994 1141.5,542.6094 C1159.58,556.2794 1159.83,565.3494 1179.5,576.6094 C1189.63,582.3994 1194.16,579.2194 1204.5,584.6094 C1227.5,596.5994 1246.07,610.1111 1264.22,625.1511 " fill="none" id="RapSvc-to-Postgres" style="stroke:#181818;stroke-width:1;"/><polygon fill="#181818" points="1268.84,628.9794,1264.4623,620.1569,1264.99,625.7891,1259.3579,626.3169,1268.84,628.9794" style="stroke:#181818;stroke-width:1;"/><text fill="#000000" font-family="sans-serif" font-size="13" lengthAdjust="spacing" textLength="93.9136" x="1180.5" y="565.1045">CRUD Rapports</text></g><!--link RapSvc to Blob--><g id="link_RapSvc_Blob"><path d="M1022.02,504.3194 C1004.43,525.2794 985.83,555.9294 1004.5,576.6094 C1016.18,589.5394 1070.37,572.0994 1082.5,584.6094 C1131.78,635.4594 1134.56,686.6494 1092.5,743.6094 C1059.71,788.0294 1001.0344,800.677 954.5244,804.037 " fill="none" id="RapSvc-to-Blob" style="stroke:#181818;stroke-width:1;"/><polygon fill="#181818" points="948.54,804.4694,957.8048,807.8105,953.527,804.1091,957.2284,799.8313,948.54,804.4694" style="stroke:#181818;stroke-width:1;"/><text fill="#000000" font-family="sans-serif" font-size="13" lengthAdjust="spacing" textLength="60.6836" x="1122.5" y="666.6045">Store PDF</text></g><!--link CmdSvc to Postgres--><g id="link_CmdSvc_Postgres"><path d="M1448.78,504.2194 C1434.12,524.0294 1411.87,553.0094 1390.5,576.6094 C1374.06,594.7694 1358.8624,609.682 1342.4424,624.962 " fill="none" id="CmdSvc-to-Postgres" style="stroke:#181818;stroke-width:1;"/><polygon fill="#181818" points="1338.05,629.0494,1347.3635,625.8465,1341.7103,625.6432,1341.9136,619.99,1338.05,629.0494" style="stroke:#181818;stroke-width:1;"/><text fill="#000000" font-family="sans-serif" font-size="13" lengthAdjust="spacing" textLength="114.8608" x="1419.5" y="565.1045">CRUD Commandes</text></g><!--link PhotoSvc to Functions--><g id="link_PhotoSvc_Functions"><path d="M789.37,498.8094 C737.68,515.5494 679.96,543.0694 711.5,576.6094 C721.41,587.1494 827.68,580.2994 841.5,584.6094 C871.75,594.0494 897.331,608.8481 920.641,625.0281 " fill="none" id="PhotoSvc-to-Functions" style="stroke:#181818;stroke-width:1;"/><polygon fill="#181818" points="925.57,628.4494,920.4574,620.0314,921.4625,625.5983,915.8957,626.6034,925.57,628.4494" style="stroke:#181818;stroke-width:1;"/><text fill="#000000" font-family="sans-serif" font-size="13" lengthAdjust="spacing" textLength="121.3735" x="712.5" y="565.1045">Trigger Compression</text></g><!--link RapSvc to Functions--><g id="link_RapSvc_Functions"><path d="M970.84,503.9194 C916.37,520.8694 851.47,541.2894 850.5,542.6094 C827.13,574.5294 857.5111,603.1158 895.2311,625.5158 " fill="none" id="RapSvc-to-Functions" style="stroke:#181818;stroke-width:1;"/><polygon fill="#181818" points="900.39,628.5794,894.6941,620.5447,896.0909,626.0264,890.6092,627.4232,900.39,628.5794" style="stroke:#181818;stroke-width:1;"/><text fill="#000000" font-family="sans-serif" font-size="13" lengthAdjust="spacing" textLength="138.7217" x="851.5" y="565.1045">Trigger Generation PDF</text></g><!--link Functions to Blob--><g id="link_Functions_Blob"><path d="M903.42,693.7294 C883.94,702.4994 862.17,711.3294 841.5,717.6094 C821.65,723.6394 808.86,709.7294 795.5,725.6094 C775.54,749.3394 802.1164,768.4541 834.9464,783.0341 " fill="none" id="Functions-to-Blob" style="stroke:#181818;stroke-width:1;"/><polygon fill="#181818" points="840.43,785.4694,833.8282,778.1607,835.8604,783.44,830.5811,785.4722,840.43,785.4694" style="stroke:#181818;stroke-width:1;"/><text fill="#000000" font-family="sans-serif" font-size="13" lengthAdjust="spacing" textLength="151.7217" x="796.5" y="740.1045">Write Compressed Photos</text></g><!--link Functions to Blob--><g id="link_Functions_Blob"><path d="M965.39,693.6394 C963.79,709.3394 960.23,728.2094 952.5,743.6094 C947.06,754.4494 943.16,760.2982 934.82,769.1682 " fill="none" id="Functions-to-Blob-1" style="stroke:#181818;stroke-width:1;"/><polygon fill="#181818" points="930.71,773.5394,939.7892,769.7226,934.135,769.8967,933.9609,764.2425,930.71,773.5394" style="stroke:#181818;stroke-width:1;"/><text fill="#000000" font-family="sans-serif" font-size="13" lengthAdjust="spacing" textLength="124.9854" x="959.5" y="740.1045">Write Generated PDF</text></g><!--link IncSvc to Push--><g id="link_IncSvc_Push"><path d="M1331.77,504.1394 C1342.23,507.4394 1353.09,510.4494 1363.5,512.6094 C1445.35,529.6194 1664.56,503.6094 1738.5,542.6094 C1774.46,561.5794 1798.7276,595.4374 1814.6276,623.3174 " fill="none" id="IncSvc-to-Push" style="stroke:#181818;stroke-width:1;"/><polygon fill="#181818" points="1817.6,628.5294,1816.6161,618.7298,1815.123,624.1861,1809.6667,622.693,1817.6,628.5294" style="stroke:#181818;stroke-width:1;"/><text fill="#000000" font-family="sans-serif" font-size="13" lengthAdjust="spacing" textLength="106.9326" x="1780.5" y="557.1045">Notification RA/BE</text><text fill="#000000" font-family="sans-serif" font-size="13" lengthAdjust="spacing" textLength="88.8862" x="1789.5232" y="573.4561">Nouvel incident</text></g><!--link RapSvc to Email--><g id="link_RapSvc_Email"><path d="M1118.23,500.2394 C1138.32,504.8794 1160.15,509.4294 1180.5,512.6094 C1260.25,525.0794 1468.43,510.5194 1542.5,542.6094 C1585.77,561.3494 1620.4224,595.9007 1644.0924,623.8507 " fill="none" id="RapSvc-to-Email" style="stroke:#181818;stroke-width:1;"/><polygon fill="#181818" points="1647.97,628.4294,1645.2061,618.9763,1644.7387,624.6138,1639.1012,624.1464,1647.97,628.4294" style="stroke:#181818;stroke-width:1;"/><text fill="#000000" font-family="sans-serif" font-size="13" lengthAdjust="spacing" textLength="62.1309" x="1609.4204" y="557.1045">Envoi PDF</text><text fill="#000000" font-family="sans-serif" font-size="13" lengthAdjust="spacing" textLength="89.9717" x="1595.5" y="573.4561">Client + Bureau</text></g><!--link CmdSvc to ERP--><g id="link_CmdSvc_ERP"><path d="M1550.91,485.6194 C1663.87,492.7794 1855.85,509.4794 1917.5,542.6094 C1954.3,562.3894 1980.8302,595.8586 1998.7302,623.3986 " fill="none" id="CmdSvc-to-ERP" style="stroke:#181818;stroke-width:1;"/><polygon fill="#181818" points="2002,628.4294,2000.4491,618.7034,1999.2752,624.2371,1993.7415,623.0631,2002,628.4294" style="stroke:#181818;stroke-width:1;"/><text fill="#000000" font-family="sans-serif" font-size="13" lengthAdjust="spacing" textLength="106.209" x="1961.5" y="557.1045">Sync Commandes</text><text fill="#000000" font-family="sans-serif" font-size="13" lengthAdjust="spacing" textLength="98.2617" x="1965.4736" y="573.4561">Verification stock</text></g><!--SRC=[VLRDRXit4BxlKmpSY-t0ZYpPRM441MHPSbpOZgALuqFL0xKxqZ9UaLkIwpWj2kGrUYlwAdsJF4bdoFsJA-GcSRuXFtxppN2TT3d292-VuL8hXMXXQ99CEanSQH16SadnKIQKasXi51KYUHHhXBrx9tDfXSFIMBZLIvcZtOFlnht93vCX_141_3BASDNaBjI-V1U_7ghKQ9aU_0h20WCOE4DRQ6K5dpLShOGqIF07N0RORCYW2-8ZIXYxCaNR3L-Cepyxn8Q_U-AvBbEO6A4IP5g3INzo6MWDfzTmHSG_YSyBTQTJFFve_KOKyF7IPH2ZUP89qVZvOHw2jChHQvN859MpDSH7QJL-IZW-pRJJsq6_L8LdeYYqUP5DYrLuf3SReUY2M_7H9WtnL3Yn59PkETNMhGt6xsyMggxSBRBGU_x84BPREJDC9Iat4ac6jB-raaJtS1_PmWOLBtAzNAZgIgzWUZdnS5xsIddGf5I9uwreQxqfJDWOhb2X4HpmTsXGMyMwLWxN0MLX_EpGA6-ZoMJou_War6iycyAxL6lQllPXxP9GDm8mBaQLNXcPBjHu8sGUGlpBbwMq6Tnf9rSo4HNRoUYMBZMStiMXJ0HXSjwsHqS_iH_W7DxEvzEuSZWCYu9epEuleHAbjKDTsMWs_5ysUPN5KRRC7NPosiQw6EzEejRGfUkap379bFojfDf6ZFPPxDXp-21ocVhB0RasygiSzjMbU5toDZ7ObaApSJnlLck_lbmFDdsv6inPhqRLbdwVoeGKyv8rbuYQ4nZ6RYB8VP5haLQwRYCw6v771RkqnbMSTXtN5gJ5L6V5JfDnoSvHnNvNVjEBqJQRnia4d1kvNgE1Zl6xn-s2jdtX2KGjfaFmmT08RdR5HfPlWAjz6SlRTkl0tZ_VSZ_DrDSNOnv_vHFc8AlATBdxrg6qiNhIalSa1-UIGDGpOHPtnUCc9Lq_gwJLRQ4-e6cFj4udZr6aD96bThixeRuyFFHlpzGmWqBGppbk2Xv8nEhyy90W9yV-dG1IGgLGi0xmxpzVl_pzzSjVjMb4IOlLLEfNU8CRJTEbkLkRv8K8gdWPA6bG9QrPH0GJhDEcqFN38Q-QaN9wJDcGr4qjcmvjaYw5pPPQc1G-8JCxEwQtYdZvZluchOGVHhukYzMHhEybkwKt2zvg6eCtSgsmqka8w35W8-Gw4JdOqi363oqVUrzYYL06kOfW9f_35VCtuqV7OC9loJFRcACqibQvJ9mddPTSnbsq1fvMZ4dfdLZpcT_4LBq1x3jwXgrq1tvrE8wF-cVVmxx1GeUt90HePe7JZqZctiVdGbPDqZ_DGdo6AwAHDPX1xsC8tD871qqu-eJWhvLT14yzmIcQbJOR_YHeEDvGn_3_C7ZV37gzJH3clYCLH_fWCO7zf6tqSFXsEpFoZ96jk1aNAW-5WZSdlIPAuf9WXZrGMdxKpg7VenEezlQWlSL_]--></g></svg>