<svg xmlns="http://www.w3.org/2000/svg" xmlns:xlink="http://www.w3.org/1999/xlink" contentStyleType="text/css" height="1604px" preserveAspectRatio="none" style="width:1284px;height:1604px;background:#FFFFFF;" version="1.1" viewBox="0 0 1284 1604" width="1284px" zoomAndPan="magnify"><title>Sequence : Commande de Materiel (Le parcours du combattant)</title><defs/><g><text fill="#000000" font-family="Verdana" font-size="22" font-weight="bold" lengthAdjust="spacing" textLength="790.9902" x="245.3716" y="60.2715">Sequence : Commande de Materiel (Le parcours du combattant)</text><rect fill="#FFFFFF" height="1521.2285" style="stroke:#000000;stroke-width:1;" width="123.1084" x="61" y="76.8906"/><text fill="#000000" font-family="Verdana" font-size="13" font-weight="bold" lengthAdjust="spacing" textLength="62.0737" x="91.5173" y="89.9604">Chantier</text><rect fill="#F0F8FF" height="1521.2285" style="stroke:#000000;stroke-width:1;" width="652.3672" x="333.9048" y="76.8906"/><text fill="#000000" font-family="Verdana" font-size="13" font-weight="bold" lengthAdjust="spacing" textLength="110.0874" x="605.0447" y="89.9604">Bureau / Siege</text><rect fill="#FFFFFF" height="1521.2285" style="stroke:#000000;stroke-width:1;" width="273.4614" x="998.272" y="76.8906"/><text fill="#000000" font-family="Verdana" font-size="13" font-weight="bold" lengthAdjust="spacing" textLength="150.1411" x="1059.9321" y="89.9604">Logistique / Externe</text><rect fill="#FFFFFF" height="462.9897" style="stroke:#000000;stroke-width:1;" width="10" x="365.7334" y="434.3145"/><rect fill="#FFFFFF" height="29.7993" style="stroke:#000000;stroke-width:1;" width="10" x="709.21" y="464.1138"/><rect fill="#FFFFFF" height="239.5952" style="stroke:#000000;stroke-width:1;" width="10" x="1027.561" y="970.9028"/><line style="stroke:#000000;stroke-width:1;" x1="122" x2="122" y1="191.7192" y2="1500.0898"/><line style="stroke:#000000;stroke-width:1;" x1="369.9048" x2="369.9048" y1="191.7192" y2="1500.0898"/><line style="stroke:#000000;stroke-width:1;" x1="713.5093" x2="713.5093" y1="191.7192" y2="1500.0898"/><line style="stroke:#000000;stroke-width:1;" x1="830.9106" x2="830.9106" y1="191.7192" y2="1500.0898"/><line style="stroke:#000000;stroke-width:1;" x1="945.7104" x2="945.7104" y1="191.7192" y2="1500.0898"/><line style="stroke:#000000;stroke-width:1;" x1="1032.272" x2="1032.272" y1="191.7192" y2="1500.0898"/><line style="stroke:#000000;stroke-width:1;" x1="1208.8936" x2="1208.8936" y1="191.7192" y2="1500.0898"/><text fill="#000000" font-family="Verdana" font-size="14" lengthAdjust="spacing" textLength="33.4756" x="102.8164" y="171.7651">Marc</text><text fill="#000000" font-family="Verdana" font-size="14" lengthAdjust="spacing" textLength="109.1084" x="65" y="188.7798">(Chef Chantier)</text><ellipse cx="122.5542" cy="105.6899" fill="#FFFFFF" rx="8" ry="8" style="stroke:#000000;stroke-width:1;"/><path d="M122.5542,113.6899 L122.5542,140.6899 M109.5542,121.6899 L135.5542,121.6899 M122.5542,140.6899 L109.5542,155.6899 M122.5542,140.6899 L135.5542,155.6899 " fill="none" style="stroke:#000000;stroke-width:1;"/><text fill="#000000" font-family="Verdana" font-size="14" lengthAdjust="spacing" textLength="33.4756" x="102.8164" y="1513.165">Marc</text><text fill="#000000" font-family="Verdana" font-size="14" lengthAdjust="spacing" textLength="109.1084" x="65" y="1530.1797">(Chef Chantier)</text><ellipse cx="122.5542" cy="1542.1191" fill="#FFFFFF" rx="8" ry="8" style="stroke:#000000;stroke-width:1;"/><path d="M122.5542,1550.1191 L122.5542,1577.1191 M109.5542,1558.1191 L135.5542,1558.1191 M122.5542,1577.1191 L109.5542,1592.1191 M122.5542,1577.1191 L135.5542,1592.1191 " fill="none" style="stroke:#000000;stroke-width:1;"/><text fill="#000000" font-family="Verdana" font-size="14" lengthAdjust="spacing" textLength="42.1641" x="346.6514" y="171.7651">Sylvie</text><text fill="#000000" font-family="Verdana" font-size="14" lengthAdjust="spacing" textLength="59.6572" x="337.9048" y="188.7798">(Achats)</text><ellipse cx="370.7334" cy="105.6899" fill="#FFFFFF" rx="8" ry="8" style="stroke:#000000;stroke-width:1;"/><path d="M370.7334,113.6899 L370.7334,140.6899 M357.7334,121.6899 L383.7334,121.6899 M370.7334,140.6899 L357.7334,155.6899 M370.7334,140.6899 L383.7334,155.6899 " fill="none" style="stroke:#000000;stroke-width:1;"/><text fill="#000000" font-family="Verdana" font-size="14" lengthAdjust="spacing" textLength="42.1641" x="346.6514" y="1513.165">Sylvie</text><text fill="#000000" font-family="Verdana" font-size="14" lengthAdjust="spacing" textLength="59.6572" x="337.9048" y="1530.1797">(Achats)</text><ellipse cx="370.7334" cy="1542.1191" fill="#FFFFFF" rx="8" ry="8" style="stroke:#000000;stroke-width:1;"/><path d="M370.7334,1550.1191 L370.7334,1577.1191 M357.7334,1558.1191 L383.7334,1558.1191 M370.7334,1577.1191 L357.7334,1592.1191 M370.7334,1577.1191 L383.7334,1592.1191 " fill="none" style="stroke:#000000;stroke-width:1;"/><text fill="#000000" font-family="Verdana" font-size="14" lengthAdjust="spacing" textLength="71.4014" x="675.5093" y="188.7798">Sage MDE</text><path d="M696.21,138.7046 C696.21,128.7046 714.21,128.7046 714.21,128.7046 C714.21,128.7046 732.21,128.7046 732.21,138.7046 L732.21,164.7046 C732.21,174.7046 714.21,174.7046 714.21,174.7046 C714.21,174.7046 696.21,174.7046 696.21,164.7046 L696.21,138.7046 " fill="#FFFFFF" style="stroke:#000000;stroke-width:1.5;"/><path d="M696.21,138.7046 C696.21,148.7046 714.21,148.7046 714.21,148.7046 C714.21,148.7046 732.21,148.7046 732.21,138.7046 " fill="none" style="stroke:#000000;stroke-width:1.5;"/><text fill="#000000" font-family="Verdana" font-size="14" lengthAdjust="spacing" textLength="71.4014" x="675.5093" y="1513.165">Sage MDE</text><path d="M696.21,1526.1045 C696.21,1516.1045 714.21,1516.1045 714.21,1516.1045 C714.21,1516.1045 732.21,1516.1045 732.21,1526.1045 L732.21,1552.1045 C732.21,1562.1045 714.21,1562.1045 714.21,1562.1045 C714.21,1562.1045 696.21,1562.1045 696.21,1552.1045 L696.21,1526.1045 " fill="#FFFFFF" style="stroke:#000000;stroke-width:1.5;"/><path d="M696.21,1526.1045 C696.21,1536.1045 714.21,1536.1045 714.21,1536.1045 C714.21,1536.1045 732.21,1536.1045 732.21,1526.1045 " fill="none" style="stroke:#000000;stroke-width:1.5;"/><rect fill="#FFFFFF" height="48.0293" style="stroke:#000000;stroke-width:1;" width="112.7998" x="776.9106" y="138.6899"/><rect fill="#FFFFFF" height="48.0293" style="stroke:#000000;stroke-width:1;" width="112.7998" x="772.9106" y="142.6899"/><text fill="#000000" font-family="Verdana" font-size="14" lengthAdjust="spacing" textLength="36.6133" x="811.0039" y="163.7651">Excel</text><text fill="#000000" font-family="Verdana" font-size="14" lengthAdjust="spacing" textLength="98.7998" x="779.9106" y="180.7798">(Suivi/Fourn.)</text><rect fill="#FFFFFF" height="48.0293" style="stroke:#000000;stroke-width:1;" width="112.7998" x="776.9106" y="1499.0898"/><rect fill="#FFFFFF" height="48.0293" style="stroke:#000000;stroke-width:1;" width="112.7998" x="772.9106" y="1503.0898"/><text fill="#000000" font-family="Verdana" font-size="14" lengthAdjust="spacing" textLength="36.6133" x="811.0039" y="1524.165">Excel</text><text fill="#000000" font-family="Verdana" font-size="14" lengthAdjust="spacing" textLength="98.7998" x="779.9106" y="1541.1797">(Suivi/Fourn.)</text><rect fill="#FFFFFF" height="31.0146" rx="2.5" ry="2.5" style="stroke:#000000;stroke-width:1;" width="52.5615" x="919.7104" y="159.7046"/><text fill="#000000" font-family="Verdana" font-size="14" lengthAdjust="spacing" textLength="38.5615" x="926.7104" y="180.7798">Email</text><rect fill="#FFFFFF" height="31.0146" rx="2.5" ry="2.5" style="stroke:#000000;stroke-width:1;" width="52.5615" x="919.7104" y="1499.0898"/><text fill="#000000" font-family="Verdana" font-size="14" lengthAdjust="spacing" textLength="38.5615" x="926.7104" y="1520.165">Email</text><text fill="#000000" font-family="Verdana" font-size="14" lengthAdjust="spacing" textLength="25.9629" x="1016.5796" y="171.7651">Eric</text><text fill="#000000" font-family="Verdana" font-size="14" lengthAdjust="spacing" textLength="54.5781" x="1002.272" y="188.7798">(Depot)</text><ellipse cx="1032.561" cy="105.6899" fill="#FFFFFF" rx="8" ry="8" style="stroke:#000000;stroke-width:1;"/><path d="M1032.561,113.6899 L1032.561,140.6899 M1019.561,121.6899 L1045.561,121.6899 M1032.561,140.6899 L1019.561,155.6899 M1032.561,140.6899 L1045.561,155.6899 " fill="none" style="stroke:#000000;stroke-width:1;"/><text fill="#000000" font-family="Verdana" font-size="14" lengthAdjust="spacing" textLength="25.9629" x="1016.5796" y="1513.165">Eric</text><text fill="#000000" font-family="Verdana" font-size="14" lengthAdjust="spacing" textLength="54.5781" x="1002.272" y="1530.1797">(Depot)</text><ellipse cx="1032.561" cy="1542.1191" fill="#FFFFFF" rx="8" ry="8" style="stroke:#000000;stroke-width:1;"/><path d="M1032.561,1550.1191 L1032.561,1577.1191 M1019.561,1558.1191 L1045.561,1558.1191 M1032.561,1577.1191 L1019.561,1592.1191 M1032.561,1577.1191 L1045.561,1592.1191 " fill="none" style="stroke:#000000;stroke-width:1;"/><rect fill="#FFFFFF" height="31.0146" rx="2.5" ry="2.5" style="stroke:#000000;stroke-width:1;" width="95.8398" x="1161.8936" y="159.7046"/><text fill="#000000" font-family="Verdana" font-size="14" lengthAdjust="spacing" textLength="81.8398" x="1168.8936" y="180.7798">Fournisseur</text><rect fill="#FFFFFF" height="31.0146" rx="2.5" ry="2.5" style="stroke:#000000;stroke-width:1;" width="95.8398" x="1161.8936" y="1499.0898"/><text fill="#000000" font-family="Verdana" font-size="14" lengthAdjust="spacing" textLength="81.8398" x="1168.8936" y="1520.165">Fournisseur</text><rect fill="#FFFFFF" height="462.9897" style="stroke:#000000;stroke-width:1;" width="10" x="365.7334" y="434.3145"/><rect fill="#FFFFFF" height="29.7993" style="stroke:#000000;stroke-width:1;" width="10" x="709.21" y="464.1138"/><rect fill="#FFFFFF" height="239.5952" style="stroke:#000000;stroke-width:1;" width="10" x="1027.561" y="970.9028"/><rect fill="#FFFFFF" height="3" style="stroke:#FFFFFF;stroke-width:1;" width="1272.7334" x="5" y="222.6189"/><line style="stroke:#000000;stroke-width:0.5;" x1="5" x2="1277.7334" y1="222.6189" y2="222.6189"/><line style="stroke:#000000;stroke-width:0.5;" x1="5" x2="1277.7334" y1="225.6189" y2="225.6189"/><rect fill="#FFFFFF" height="23.7993" style="stroke:#000000;stroke-width:1;" width="253.6875" x="514.5229" y="211.7192"/><text fill="#000000" font-family="Verdana" font-size="13" font-weight="bold" lengthAdjust="spacing" textLength="235.2441" x="520.5229" y="228.7891">Jour 1 - Identification du besoin</text><line style="stroke:#000000;stroke-width:1;" x1="122.5542" x2="164.5542" y1="267.3179" y2="267.3179"/><line style="stroke:#000000;stroke-width:1;" x1="164.5542" x2="164.5542" y1="267.3179" y2="280.3179"/><line style="stroke:#000000;stroke-width:1;" x1="123.5542" x2="164.5542" y1="280.3179" y2="280.3179"/><polygon fill="#000000" points="133.5542,276.3179,123.5542,280.3179,133.5542,284.3179,129.5542,280.3179" style="stroke:#000000;stroke-width:1;"/><text fill="#000000" font-family="Verdana" font-size="13" font-weight="bold" lengthAdjust="spacing" textLength="9.2422" x="129.5542" y="262.5884">1</text><text fill="#000000" font-family="Verdana" font-size="13" lengthAdjust="spacing" textLength="135.1924" x="142.7964" y="262.5884">Besoin c&#195;&#162;ble 3G2.5</text><line style="stroke:#000000;stroke-width:1;" x1="122.5542" x2="164.5542" y1="325.9165" y2="325.9165"/><line style="stroke:#000000;stroke-width:1;" x1="164.5542" x2="164.5542" y1="325.9165" y2="338.9165"/><line style="stroke:#000000;stroke-width:1;" x1="123.5542" x2="164.5542" y1="338.9165" y2="338.9165"/><polygon fill="#000000" points="133.5542,334.9165,123.5542,338.9165,133.5542,342.9165,129.5542,338.9165" style="stroke:#000000;stroke-width:1;"/><text fill="#000000" font-family="Verdana" font-size="13" font-weight="bold" lengthAdjust="spacing" textLength="9.2422" x="129.5542" y="313.2874">2</text><text fill="#000000" font-family="Verdana" font-size="13" lengthAdjust="spacing" textLength="177.6582" x="142.7964" y="305.3877">Remplit bon papier (5 min)</text><text fill="#FF0000" font-family="Verdana" font-size="13" lengthAdjust="spacing" textLength="215.5474" x="142.7964" y="321.187">Note: R&#195;&#169;f&#195;&#169;rence impr&#195;&#169;cise</text><line style="stroke:#000000;stroke-width:2;" x1="352.7334" x2="362.7334" y1="363.7158" y2="373.7158"/><line style="stroke:#000000;stroke-width:2;" x1="352.7334" x2="362.7334" y1="373.7158" y2="363.7158"/><line style="stroke:#000000;stroke-width:1;" x1="122.5542" x2="357.7334" y1="368.7158" y2="368.7158"/><text fill="#000000" font-family="Verdana" font-size="13" font-weight="bold" lengthAdjust="spacing" textLength="9.2422" x="129.5542" y="363.9863">3</text><text fill="#000000" font-family="Verdana" font-size="13" lengthAdjust="spacing" textLength="166.3467" x="142.7964" y="363.9863">Appel (Pas de r&#195;&#169;ponse)</text><path d="M127,381.7158 L127,406.7158 L363,406.7158 L363,391.7158 L353,381.7158 L127,381.7158 " fill="#FFCCCC" style="stroke:#000000;stroke-width:1;"/><path d="M353,381.7158 L353,391.7158 L363,391.7158 L353,381.7158 " fill="#FFCCCC" style="stroke:#000000;stroke-width:1;"/><text fill="#000000" font-family="Verdana" font-size="13" lengthAdjust="spacing" textLength="215.1094" x="133" y="399.7856">&#240;&#376;&#8221;&#180; 25 min perdues &#195;&#160; attendre</text><polygon fill="#000000" points="353.7334,430.3145,363.7334,434.3145,353.7334,438.3145,357.7334,434.3145" style="stroke:#000000;stroke-width:1;"/><line style="stroke:#000000;stroke-width:1;" x1="122.5542" x2="359.7334" y1="434.3145" y2="434.3145"/><text fill="#000000" font-family="Verdana" font-size="13" font-weight="bold" lengthAdjust="spacing" textLength="9.2422" x="129.5542" y="429.585">4</text><text fill="#000000" font-family="Verdana" font-size="13" lengthAdjust="spacing" textLength="151.4043" x="142.7964" y="429.585">Appel r&#195;&#169;ussi (10h45)</text><polygon fill="#000000" points="697.21,460.1138,707.21,464.1138,697.21,468.1138,701.21,464.1138" style="stroke:#000000;stroke-width:1;"/><line style="stroke:#000000;stroke-width:1;" x1="375.7334" x2="703.21" y1="464.1138" y2="464.1138"/><text fill="#000000" font-family="Verdana" font-size="13" font-weight="bold" lengthAdjust="spacing" textLength="9.2422" x="382.7334" y="459.3843">5</text><text fill="#000000" font-family="Verdana" font-size="13" lengthAdjust="spacing" textLength="171.8311" x="395.9756" y="459.3843">Recherche "c&#195;&#162;ble 3G2.5"</text><polygon fill="#000000" points="386.7334,489.9131,376.7334,493.9131,386.7334,497.9131,382.7334,493.9131" style="stroke:#000000;stroke-width:1;"/><line style="stroke:#000000;stroke-width:1;stroke-dasharray:2.0,2.0;" x1="380.7334" x2="713.21" y1="493.9131" y2="493.9131"/><text fill="#000000" font-family="Verdana" font-size="13" font-weight="bold" lengthAdjust="spacing" textLength="9.2422" x="392.7334" y="489.1836">6</text><text fill="#000000" font-family="Verdana" font-size="13" lengthAdjust="spacing" textLength="159.6372" x="405.9756" y="489.1836">12 r&#195;&#169;sultats trouv&#195;&#169;s</text><path d="M719,506.9131 L719,547.9131 L1000,547.9131 L1000,516.9131 L990,506.9131 L719,506.9131 " fill="#FFCCCC" style="stroke:#000000;stroke-width:1;"/><path d="M990,506.9131 L990,516.9131 L1000,516.9131 L990,506.9131 " fill="#FFCCCC" style="stroke:#000000;stroke-width:1;"/><text fill="#000000" font-family="Verdana" font-size="13" lengthAdjust="spacing" textLength="260.5332" x="725" y="524.9829">&#240;&#376;&#8221;&#180; 12 r&#195;&#169;f&#195;&#169;rences pour 1 produit !</text><text fill="#000000" font-family="Verdana" font-size="13" lengthAdjust="spacing" textLength="167.3179" x="725" y="540.7822">Risque d'erreur &#195;&#169;lev&#195;&#169;</text><polygon fill="#000000" points="702.21,571.311,712.21,575.311,702.21,579.311,706.21,575.311" style="stroke:#000000;stroke-width:1;"/><line style="stroke:#000000;stroke-width:1;" x1="375.7334" x2="708.21" y1="575.311" y2="575.311"/><text fill="#000000" font-family="Verdana" font-size="13" font-weight="bold" lengthAdjust="spacing" textLength="9.2422" x="382.7334" y="570.5815">7</text><text fill="#000000" font-family="Verdana" font-size="13" lengthAdjust="spacing" textLength="301.2344" x="395.9756" y="570.5815">S&#195;&#169;lectionne une r&#195;&#169;f&#195;&#169;rence (au hasard?)</text><polygon fill="#000000" points="819.3105,601.1104,829.3105,605.1104,819.3105,609.1104,823.3105,605.1104" style="stroke:#000000;stroke-width:1;"/><line style="stroke:#000000;stroke-width:1;" x1="375.7334" x2="825.3105" y1="605.1104" y2="605.1104"/><text fill="#000000" font-family="Verdana" font-size="13" font-weight="bold" lengthAdjust="spacing" textLength="9.2422" x="382.7334" y="600.3809">8</text><text fill="#000000" font-family="Verdana" font-size="13" lengthAdjust="spacing" textLength="197.7676" x="395.9756" y="600.3809">Recherche contact fournisseur</text><polygon fill="#000000" points="1197.8135,630.9097,1207.8135,634.9097,1197.8135,638.9097,1201.8135,634.9097" style="stroke:#000000;stroke-width:1;"/><line style="stroke:#000000;stroke-width:1;" x1="375.7334" x2="1203.8135" y1="634.9097" y2="634.9097"/><text fill="#000000" font-family="Verdana" font-size="13" font-weight="bold" lengthAdjust="spacing" textLength="9.2422" x="382.7334" y="630.1802">9</text><text fill="#000000" font-family="Verdana" font-size="13" lengthAdjust="spacing" textLength="153.5117" x="395.9756" y="630.1802">Appel t&#195;&#169;l&#195;&#169;phonique</text><path d="M380,647.9097 L380,672.9097 L611,672.9097 L611,657.9097 L601,647.9097 L380,647.9097 " fill="#FFCCCC" style="stroke:#000000;stroke-width:1;"/><path d="M601,647.9097 L601,657.9097 L611,657.9097 L601,647.9097 " fill="#FFCCCC" style="stroke:#000000;stroke-width:1;"/><text fill="#000000" font-family="Verdana" font-size="13" lengthAdjust="spacing" textLength="210.3042" x="386" y="665.9795">&#240;&#376;&#8221;&#180; Pas de commande en ligne</text><polygon fill="#000000" points="933.9912,696.5083,943.9912,700.5083,933.9912,704.5083,937.9912,700.5083" style="stroke:#000000;stroke-width:1;"/><line style="stroke:#000000;stroke-width:1;" x1="375.7334" x2="939.9912" y1="700.5083" y2="700.5083"/><text fill="#000000" font-family="Verdana" font-size="13" font-weight="bold" lengthAdjust="spacing" textLength="18.4844" x="382.7334" y="695.7788">10</text><text fill="#000000" font-family="Verdana" font-size="13" lengthAdjust="spacing" textLength="204.7183" x="405.2178" y="695.7788">R&#195;&#169;daction email confirmation</text><path d="M801,713.5083 L801,738.5083 L940,738.5083 L940,723.5083 L930,713.5083 L801,713.5083 " fill="#FFCCCC" style="stroke:#000000;stroke-width:1;"/><path d="M930,713.5083 L930,723.5083 L940,723.5083 L930,713.5083 " fill="#FFCCCC" style="stroke:#000000;stroke-width:1;"/><text fill="#000000" font-family="Verdana" font-size="13" lengthAdjust="spacing" textLength="118.0156" x="807" y="731.5781">&#240;&#376;&#8221;&#180; Ressaisie #4</text><polygon fill="#000000" points="702.21,762.1069,712.21,766.1069,702.21,770.1069,706.21,766.1069" style="stroke:#000000;stroke-width:1;"/><line style="stroke:#000000;stroke-width:1;" x1="375.7334" x2="708.21" y1="766.1069" y2="766.1069"/><text fill="#000000" font-family="Verdana" font-size="13" font-weight="bold" lengthAdjust="spacing" textLength="18.4844" x="382.7334" y="761.3774">11</text><text fill="#000000" font-family="Verdana" font-size="13" lengthAdjust="spacing" textLength="114.7466" x="405.2178" y="761.3774">Saisie commande</text><path d="M570,779.1069 L570,804.1069 L709,804.1069 L709,789.1069 L699,779.1069 L570,779.1069 " fill="#FFCCCC" style="stroke:#000000;stroke-width:1;"/><path d="M699,779.1069 L699,789.1069 L709,789.1069 L699,779.1069 " fill="#FFCCCC" style="stroke:#000000;stroke-width:1;"/><text fill="#000000" font-family="Verdana" font-size="13" lengthAdjust="spacing" textLength="118.0156" x="576" y="797.1768">&#240;&#376;&#8221;&#180; Ressaisie #5</text><polygon fill="#000000" points="819.3105,827.7056,829.3105,831.7056,819.3105,835.7056,823.3105,831.7056" style="stroke:#000000;stroke-width:1;"/><line style="stroke:#000000;stroke-width:1;" x1="375.7334" x2="825.3105" y1="831.7056" y2="831.7056"/><text fill="#000000" font-family="Verdana" font-size="13" font-weight="bold" lengthAdjust="spacing" textLength="18.4844" x="382.7334" y="826.9761">12</text><text fill="#000000" font-family="Verdana" font-size="13" lengthAdjust="spacing" textLength="72.7441" x="405.2178" y="826.9761">Saisie suivi</text><path d="M687,844.7056 L687,869.7056 L826,869.7056 L826,854.7056 L816,844.7056 L687,844.7056 " fill="#FFCCCC" style="stroke:#000000;stroke-width:1;"/><path d="M816,844.7056 L816,854.7056 L826,854.7056 L816,844.7056 " fill="#FFCCCC" style="stroke:#000000;stroke-width:1;"/><text fill="#000000" font-family="Verdana" font-size="13" lengthAdjust="spacing" textLength="118.0156" x="693" y="862.7754">&#240;&#376;&#8221;&#180; Ressaisie #6</text><polygon fill="#000000" points="133.5542,893.3042,123.5542,897.3042,133.5542,901.3042,129.5542,897.3042" style="stroke:#000000;stroke-width:1;"/><line style="stroke:#000000;stroke-width:1;" x1="127.5542" x2="369.7334" y1="897.3042" y2="897.3042"/><text fill="#000000" font-family="Verdana" font-size="13" font-weight="bold" lengthAdjust="spacing" textLength="18.4844" x="139.5542" y="892.5747">13</text><text fill="#000000" font-family="Verdana" font-size="13" lengthAdjust="spacing" textLength="196.6948" x="162.0386" y="892.5747">SMS "Livraison pr&#195;&#169;vue J+2"</text><rect fill="#FFFFFF" height="3" style="stroke:#FFFFFF;stroke-width:1;" width="1272.7334" x="5" y="926.2039"/><line style="stroke:#000000;stroke-width:0.5;" x1="5" x2="1277.7334" y1="926.2039" y2="926.2039"/><line style="stroke:#000000;stroke-width:0.5;" x1="5" x2="1277.7334" y1="929.2039" y2="929.2039"/><rect fill="#FFFFFF" height="23.7993" style="stroke:#000000;stroke-width:1;" width="165.8359" x="558.4487" y="915.3042"/><text fill="#000000" font-family="Verdana" font-size="13" font-weight="bold" lengthAdjust="spacing" textLength="147.3926" x="564.4487" y="932.374">Jour 3 - R&#195;&#169;ception</text><polygon fill="#000000" points="1048.561,966.9028,1038.561,970.9028,1048.561,974.9028,1044.561,970.9028" style="stroke:#000000;stroke-width:1;"/><line style="stroke:#000000;stroke-width:1;" x1="1042.561" x2="1208.8135" y1="970.9028" y2="970.9028"/><text fill="#000000" font-family="Verdana" font-size="13" font-weight="bold" lengthAdjust="spacing" textLength="18.4844" x="1054.561" y="966.1733">14</text><text fill="#000000" font-family="Verdana" font-size="13" lengthAdjust="spacing" textLength="130.7681" x="1077.0454" y="966.1733">Livraison mat&#195;&#169;riel</text><line style="stroke:#000000;stroke-width:1;" x1="1037.561" x2="1079.561" y1="1000.7021" y2="1000.7021"/><line style="stroke:#000000;stroke-width:1;" x1="1079.561" x2="1079.561" y1="1000.7021" y2="1013.7021"/><line style="stroke:#000000;stroke-width:1;" x1="1038.561" x2="1079.561" y1="1013.7021" y2="1013.7021"/><polygon fill="#000000" points="1048.561,1009.7021,1038.561,1013.7021,1048.561,1017.7021,1044.561,1013.7021" style="stroke:#000000;stroke-width:1;"/><text fill="#000000" font-family="Verdana" font-size="13" font-weight="bold" lengthAdjust="spacing" textLength="18.4844" x="1044.561" y="995.9727">15</text><text fill="#000000" font-family="Verdana" font-size="13" lengthAdjust="spacing" textLength="119.2725" x="1067.0454" y="995.9727">Comptage manuel</text><path d="M1042,1026.7021 L1042,1051.7021 L1200,1051.7021 L1200,1036.7021 L1190,1026.7021 L1042,1026.7021 " fill="#FFCCCC" style="stroke:#000000;stroke-width:1;"/><path d="M1190,1026.7021 L1190,1036.7021 L1200,1036.7021 L1190,1026.7021 " fill="#FFCCCC" style="stroke:#000000;stroke-width:1;"/><text fill="#000000" font-family="Verdana" font-size="13" lengthAdjust="spacing" textLength="137.4712" x="1048" y="1044.772">&#240;&#376;&#8221;&#180; Pas de scanette</text><polygon fill="#000000" points="381.7334,1075.3008,371.7334,1079.3008,381.7334,1083.3008,377.7334,1079.3008" style="stroke:#000000;stroke-width:1;"/><line style="stroke:#000000;stroke-width:1;" x1="375.7334" x2="1026.561" y1="1079.3008" y2="1079.3008"/><text fill="#000000" font-family="Verdana" font-size="13" font-weight="bold" lengthAdjust="spacing" textLength="18.4844" x="387.7334" y="1074.5713">16</text><text fill="#000000" font-family="Verdana" font-size="13" lengthAdjust="spacing" textLength="168.4922" x="410.2178" y="1074.5713">Appel v&#195;&#169;rification r&#195;&#169;f.</text><path d="M1042,1092.3008 L1042,1117.3008 L1255,1117.3008 L1255,1102.3008 L1245,1092.3008 L1042,1092.3008 " fill="#FFFFFF" style="stroke:#000000;stroke-width:1;"/><path d="M1245,1092.3008 L1245,1102.3008 L1255,1102.3008 L1245,1092.3008 " fill="#FFFFFF" style="stroke:#000000;stroke-width:1;"/><text fill="#000000" font-family="Verdana" font-size="13" lengthAdjust="spacing" textLength="192.2451" x="1048" y="1110.3706">Nomenclatures incompatibles</text><polygon fill="#000000" points="725.21,1140.8994,715.21,1144.8994,725.21,1148.8994,721.21,1144.8994" style="stroke:#000000;stroke-width:1;"/><line style="stroke:#000000;stroke-width:1;" x1="719.21" x2="1026.561" y1="1144.8994" y2="1144.8994"/><text fill="#000000" font-family="Verdana" font-size="13" font-weight="bold" lengthAdjust="spacing" textLength="18.4844" x="731.21" y="1140.1699">17</text><text fill="#000000" font-family="Verdana" font-size="13" lengthAdjust="spacing" textLength="179.6895" x="753.6943" y="1140.1699">Saisie r&#195;&#169;ception (20 min)</text><path d="M719,1157.8994 L719,1182.8994 L858,1182.8994 L858,1167.8994 L848,1157.8994 L719,1157.8994 " fill="#FFCCCC" style="stroke:#000000;stroke-width:1;"/><path d="M848,1157.8994 L848,1167.8994 L858,1167.8994 L848,1157.8994 " fill="#FFCCCC" style="stroke:#000000;stroke-width:1;"/><text fill="#000000" font-family="Verdana" font-size="13" lengthAdjust="spacing" textLength="118.0156" x="725" y="1175.9692">&#240;&#376;&#8221;&#180; Ressaisie #7</text><polygon fill="#000000" points="133.5542,1206.498,123.5542,1210.498,133.5542,1214.498,129.5542,1210.498" style="stroke:#000000;stroke-width:1;"/><line style="stroke:#000000;stroke-width:1;" x1="127.5542" x2="1031.561" y1="1210.498" y2="1210.498"/><text fill="#000000" font-family="Verdana" font-size="13" font-weight="bold" lengthAdjust="spacing" textLength="18.4844" x="139.5542" y="1205.7686">18</text><text fill="#000000" font-family="Verdana" font-size="13" lengthAdjust="spacing" textLength="195.5332" x="162.0386" y="1205.7686">Notification "Mat&#195;&#169;riel dispo"</text><polygon fill="#000000" points="1020.561,1236.2974,1030.561,1240.2974,1020.561,1244.2974,1024.561,1240.2974" style="stroke:#000000;stroke-width:1;"/><line style="stroke:#000000;stroke-width:1;" x1="122.5542" x2="1026.561" y1="1240.2974" y2="1240.2974"/><text fill="#000000" font-family="Verdana" font-size="13" font-weight="bold" lengthAdjust="spacing" textLength="18.4844" x="129.5542" y="1235.5679">19</text><text fill="#000000" font-family="Verdana" font-size="13" lengthAdjust="spacing" textLength="199.6084" x="152.0386" y="1235.5679">R&#195;&#169;cup&#195;&#169;ration au d&#195;&#169;p&#195;&#180;t</text><line style="stroke:#000000;stroke-width:2;" x1="113.5542" x2="131.5542" y1="1231.2974" y2="1249.2974"/><line style="stroke:#000000;stroke-width:2;" x1="113.5542" x2="131.5542" y1="1249.2974" y2="1231.2974"/><path d="M10,1253.2974 L10,1310.2974 L236,1310.2974 L236,1263.2974 L226,1253.2974 L10,1253.2974 " fill="#FF0000" style="stroke:#000000;stroke-width:1;"/><path d="M226,1253.2974 L226,1263.2974 L236,1263.2974 L226,1253.2974 " fill="#FF0000" style="stroke:#000000;stroke-width:1;"/><text fill="#000000" font-family="Verdana" font-size="13" lengthAdjust="spacing" textLength="159.9165" x="16" y="1271.3672">&#226;&#65533;&#338; MAUVAIS C&#195;&#8218;BLE !</text><text fill="#000000" font-family="Verdana" font-size="13" lengthAdjust="spacing" textLength="169.7236" x="16" y="1287.1665">&#240;&#376;&#8221;&#180; Chantier bloqu&#195;&#169; 3j</text><text fill="#000000" font-family="Verdana" font-size="13" lengthAdjust="spacing" textLength="205.3086" x="16" y="1302.9658">&#240;&#376;&#8217;&#176; Perte estim&#195;&#169;e: 2,400&#226;&#8218;&#172;</text><rect fill="#FFFFFF" height="3" style="stroke:#FFFFFF;stroke-width:1;" width="1272.7334" x="5" y="1336.595"/><line style="stroke:#000000;stroke-width:0.5;" x1="5" x2="1277.7334" y1="1336.595" y2="1336.595"/><line style="stroke:#000000;stroke-width:0.5;" x1="5" x2="1277.7334" y1="1339.595" y2="1339.595"/><rect fill="#FFFFFF" height="23.7993" style="stroke:#000000;stroke-width:1;" width="196.292" x="543.2207" y="1325.6953"/><text fill="#000000" font-family="Verdana" font-size="13" font-weight="bold" lengthAdjust="spacing" textLength="177.8486" x="549.2207" y="1342.7651">&#240;&#376;&#8220;&#352; BILAN PROCESSUS</text><path d="M67,1364.4946 L67,1484.4946 L1264,1484.4946 L1264,1374.4946 L1254,1364.4946 L67,1364.4946 " fill="#FFCCCC" style="stroke:#000000;stroke-width:1;"/><path d="M1254,1364.4946 L1254,1374.4946 L1264,1374.4946 L1254,1364.4946 " fill="#FFCCCC" style="stroke:#000000;stroke-width:1;"/><text fill="#000000" font-family="Verdana" font-size="13" font-weight="bold" lengthAdjust="spacing" textLength="198.2944" x="553.593" y="1382.5645">M&#195;&#8240;TRIQUES ACTUELLES</text><text fill="#000000" font-family="Verdana" font-size="13" lengthAdjust="spacing" textLength="215.5474" x="553.593" y="1398.3638">&#226;&#65533;&#176; Dur&#195;&#169;e: 3 jours vs 2h cible</text><text fill="#000000" font-family="Verdana" font-size="13" lengthAdjust="spacing" textLength="174.2432" x="553.593" y="1414.1631">&#240;&#376;&#8220;&#382; 15 appels/commande</text><text fill="#000000" font-family="Verdana" font-size="13" lengthAdjust="spacing" textLength="204.1216" x="553.593" y="1429.9624">&#226;&#8482;&#187;&#239;&#184;&#65533; 7 ressaisies manuelles</text><text fill="#000000" font-family="Verdana" font-size="13" lengthAdjust="spacing" textLength="156.0063" x="553.593" y="1445.7617">&#226;&#65533;&#338; Taux erreur: 50%</text><text fill="#000000" font-family="Verdana" font-size="13" lengthAdjust="spacing" textLength="202.0015" x="553.593" y="1461.561">&#240;&#376;&#8217;&#176; Co&#195;&#187;t erreurs: 60K&#226;&#8218;&#172;/an</text><text fill="#000000" font-family="Verdana" font-size="13" lengthAdjust="spacing" textLength="211.853" x="553.593" y="1477.3604">&#240;&#376;&#732;&#173; Stress &#195;&#169;lev&#195;&#169; &#195;&#169;quipes</text><text fill="#000000" font-family="Verdana" font-size="10" lengthAdjust="spacing" textLength="184.5947" x="1087.1387" y="20.0537">Etat des lieux - PROCESSUS ACTUEL</text><!--SRC=[ZLRDRjj64BxpAIOAYafkRCkobG16x4AMvS2fxBgctLvyMP4ZSmDobzvT2iejGFe4lRL8WS2t02tgGmu1WhQ039_w5dw1la9dbwGagkgF01iITsQ-cM- -cUK34s62aCQC2uzbHeei6Q3ol0XPY0fwXXa8KKFCCHl3AfoSVjdj-Vwv3vtksNclxnbkOWGVhp8K0S8sT6MIC14YkS4HCwWunb3l4mXJWSoKXZ23G2O3PWmJfk5v0pc6MZUY7nnL3Hv-4t637j271KOgg1sHvuMeToCSGcdNg07JO4yy525GZ2BGNgQGPR0EFiTBf72Tc0Uu5sULaFxBUCIHWdQ2Y1cTHyiVEhEG6JPW6icINL8X-xtSWdwuyq36CGQ6Iw6XrXi765CiF-CZldv0HOgrFA8xSGvKlU41JobxSaWOZtC3-ssXWhwyvDfmOfIgw8s9Ge7BQEafRcdPnrIQ0ewU_1tD9SIrnamvA_TxXhcp0y_f2MnGUmz397Q7F62sDDkf0Mh91UpiU9ub6rPt7UdKwBty9BXzFRaUa0OsdxNMsej6fvYaCJU492Yfb1e7zJOaN3Gkn5CYKQfjXU7kiJH8nXJgtT3-KqvCF4cL_HLmZK_NdVLkcSQuw1PXTDBKIko4IYFDEO-K-e8DJr1OKFmoCY27UKeF3mwwz26tsvkx3_UlVfoyXvRB259KOKPQfm1lWTH932cSbRs0vt0ohJdKDvhHLhlXKLluY1HVwiWhFAol5P5b8uXGqH_KghJLvfojn9pzwZpeHYj7r5bCCwd1A9cDt0ClnAfpjMeNQbdLPSGPuHhIN0Yfac56NNjm8Kwvja8CFqMbI42Md7SnEkGb1VhviHiCWP09NCI0EWrdn3HJuUUDkG1kKYeK1L8OAWo6C_dEsJiHJvjX7AxhV2I57Pr55dB7PJmKkWdAlOM2jjsbgFJFZIaK2WsPgm_GFQGqXrmbRc1oq1Y73ZDtMWPvYbephcr2Mqj8p8_AXAf1_x6TSp7RItWjWcgxeXRIT1R_4VBnF1l5RFj7FYqhFb9aOyVRTNf4Odd-MQjMKMKn3-McsQHDuvWCC7LCsksIDzHcJ4kCeiy24xTEFdIHpCR4hJfdEdEXgoSrbX_YBIFZgWISqRy8G0TC84szDmsxCF6ZF8lfTioLlROCPXkEPK9oZvcXwqW35zJDbDneulKSGANXQfwIUglfrkJ_dUQvNZsP0HITelKwIvkkqocV47AToagp7B7JfLTKatShIvrV7eR6E7G3H__U6ugWQIMzp6zabxCSqR8lTswJFZRVwpz___NkEpZgd7_TEVIXU_lw_jKFU_sUNJMpOifB7WQnlCei2co-A0s-dzp02If284YUs5EwErgFjfhDsskADld9AIqtVdFt5lOE-vtZkJSNKbirmKV5DYbufHjqPUN8PdPpTdhurNclVDdfz_oL5JfrLL0M-vagq3VXXNkr6MbeHH3ODbkx8eNVOACDp6f8hq-dseQv__Pwyl7sbya7YWTFG9Kzr8M2hLXWIjePerUmV0rlGxlvoHJ1CjALbCf7KvphRNZS_AAWOvs9mlIFDvEVmJSMPtwHk-zN6Ky9phuMM7Qylm00]--></g></svg>