<svg xmlns="http://www.w3.org/2000/svg" xmlns:xlink="http://www.w3.org/1999/xlink" contentStyleType="text/css" height="2925px" preserveAspectRatio="none" style="width:1128px;height:2925px;background:#FFFFFF;" version="1.1" viewBox="0 0 1128 2925" width="1128px" zoomAndPan="magnify"><title>Processus Commande Materiel - ETAT ACTUEL (CHAOS)</title><defs/><g><text fill="#000000" font-family="Arial" font-size="16" font-weight="bold" lengthAdjust="spacing" textLength="435.625" x="342.5414" y="40.0078">Processus Commande Materiel - ETAT ACTUEL (CHAOS)</text><line style="stroke:#333333;stroke-width:0.5;stroke-dasharray:5.0,5.0;" x1="95" x2="95" y1="172.6963" y2="2663.3638"/><line style="stroke:#333333;stroke-width:0.5;stroke-dasharray:5.0,5.0;" x1="252.9614" x2="252.9614" y1="172.6963" y2="2663.3638"/><line style="stroke:#333333;stroke-width:0.5;stroke-dasharray:5.0,5.0;" x1="405.5525" x2="405.5525" y1="172.6963" y2="2663.3638"/><line style="stroke:#333333;stroke-width:0.5;stroke-dasharray:5.0,5.0;" x1="562.6104" x2="562.6104" y1="172.6963" y2="2663.3638"/><line style="stroke:#333333;stroke-width:0.5;stroke-dasharray:5.0,5.0;" x1="686.8003" x2="686.8003" y1="172.6963" y2="2663.3638"/><line style="stroke:#333333;stroke-width:0.5;stroke-dasharray:5.0,5.0;" x1="797.6987" x2="797.6987" y1="172.6963" y2="2663.3638"/><line style="stroke:#333333;stroke-width:0.5;stroke-dasharray:5.0,5.0;" x1="925.2041" x2="925.2041" y1="172.6963" y2="2663.3638"/><text fill="#000000" font-family="Arial" font-size="11" font-weight="bold" lengthAdjust="spacing" textLength="25.6792" x="79.8823" y="147.7163">Marc</text><text fill="#000000" font-family="Arial" font-size="11" font-weight="bold" lengthAdjust="spacing" textLength="79.4438" x="53" y="160.3652">(Chef Chantier)</text><ellipse cx="95.7219" cy="74.3984" fill="#FFB6C1" rx="8" ry="8" style="stroke:#333333;stroke-width:2;"/><path d="M95.7219,82.3984 L95.7219,109.3984 M82.7219,90.3984 L108.7219,90.3984 M95.7219,109.3984 L82.7219,124.3984 M95.7219,109.3984 L108.7219,124.3984 " fill="none" style="stroke:#333333;stroke-width:2;"/><text fill="#000000" font-family="Arial" font-size="11" font-weight="bold" lengthAdjust="spacing" textLength="25.6792" x="79.8823" y="2682.6816">Marc</text><text fill="#000000" font-family="Arial" font-size="11" font-weight="bold" lengthAdjust="spacing" textLength="79.4438" x="53" y="2695.3306">(Chef Chantier)</text><ellipse cx="95.7219" cy="2717.6616" fill="#FFB6C1" rx="8" ry="8" style="stroke:#333333;stroke-width:2;"/><path d="M95.7219,2725.6616 L95.7219,2752.6616 M82.7219,2733.6616 L108.7219,2733.6616 M95.7219,2752.6616 L82.7219,2767.6616 M95.7219,2752.6616 L108.7219,2767.6616 " fill="none" style="stroke:#333333;stroke-width:2;"/><text fill="#000000" font-family="Arial" font-size="11" font-weight="bold" lengthAdjust="spacing" textLength="31.8022" x="234.063" y="147.7163">Sylvie</text><text fill="#000000" font-family="Arial" font-size="11" font-weight="bold" lengthAdjust="spacing" textLength="44.0054" x="227.9614" y="160.3652">(Achats)</text><ellipse cx="252.9641" cy="74.3984" fill="#ADD8E6" rx="8" ry="8" style="stroke:#333333;stroke-width:2;"/><path d="M252.9641,82.3984 L252.9641,109.3984 M239.9641,90.3984 L265.9641,90.3984 M252.9641,109.3984 L239.9641,124.3984 M252.9641,109.3984 L265.9641,124.3984 " fill="none" style="stroke:#333333;stroke-width:2;"/><text fill="#000000" font-family="Arial" font-size="11" font-weight="bold" lengthAdjust="spacing" textLength="31.8022" x="234.063" y="2682.6816">Sylvie</text><text fill="#000000" font-family="Arial" font-size="11" font-weight="bold" lengthAdjust="spacing" textLength="44.0054" x="227.9614" y="2695.3306">(Achats)</text><ellipse cx="252.9641" cy="2717.6616" fill="#ADD8E6" rx="8" ry="8" style="stroke:#333333;stroke-width:2;"/><path d="M252.9641,2725.6616 L252.9641,2752.6616 M239.9641,2733.6616 L265.9641,2733.6616 M252.9641,2752.6616 L239.9641,2767.6616 M252.9641,2752.6616 L265.9641,2767.6616 " fill="none" style="stroke:#333333;stroke-width:2;"/><text fill="#000000" font-family="Arial" font-size="11" font-weight="bold" lengthAdjust="spacing" textLength="20.7915" x="392.4014" y="147.7163">Eric</text><text fill="#000000" font-family="Arial" font-size="11" font-weight="bold" lengthAdjust="spacing" textLength="38.4893" x="383.5525" y="160.3652">(Depot)</text><ellipse cx="405.7971" cy="74.3984" fill="#98FB98" rx="8" ry="8" style="stroke:#333333;stroke-width:2;"/><path d="M405.7971,82.3984 L405.7971,109.3984 M392.7971,90.3984 L418.7971,90.3984 M405.7971,109.3984 L392.7971,124.3984 M405.7971,109.3984 L418.7971,124.3984 " fill="none" style="stroke:#333333;stroke-width:2;"/><text fill="#000000" font-family="Arial" font-size="11" font-weight="bold" lengthAdjust="spacing" textLength="20.7915" x="392.4014" y="2682.6816">Eric</text><text fill="#000000" font-family="Arial" font-size="11" font-weight="bold" lengthAdjust="spacing" textLength="38.4893" x="383.5525" y="2695.3306">(Depot)</text><ellipse cx="405.7971" cy="2717.6616" fill="#98FB98" rx="8" ry="8" style="stroke:#333333;stroke-width:2;"/><path d="M405.7971,2725.6616 L405.7971,2752.6616 M392.7971,2733.6616 L418.7971,2733.6616 M405.7971,2752.6616 L392.7971,2767.6616 M405.7971,2752.6616 L418.7971,2767.6616 " fill="none" style="stroke:#333333;stroke-width:2;"/><rect fill="#FF6B6B" height="46.6489" rx="2.5" ry="2.5" style="stroke:#333333;stroke-width:2;" width="87.1899" x="519.6104" y="125.0474"/><text fill="#000000" font-family="Arial" font-size="11" lengthAdjust="spacing" textLength="53.1899" x="536.6104" y="152.3652">Sage MDE</text><rect fill="#FF6B6B" height="46.6489" rx="2.5" ry="2.5" style="stroke:#333333;stroke-width:2;" width="87.1899" x="519.6104" y="2662.3638"/><text fill="#000000" font-family="Arial" font-size="11" lengthAdjust="spacing" textLength="53.1899" x="536.6104" y="2689.6816">Sage MDE</text><rect fill="#FFD700" height="46.6489" rx="2.5" ry="2.5" style="stroke:#333333;stroke-width:2;" width="60.8984" x="656.8003" y="125.0474"/><text fill="#000000" font-family="Arial" font-size="11" lengthAdjust="spacing" textLength="26.8984" x="673.8003" y="152.3652">Excel</text><rect fill="#FFD700" height="46.6489" rx="2.5" ry="2.5" style="stroke:#333333;stroke-width:2;" width="60.8984" x="656.8003" y="2662.3638"/><text fill="#000000" font-family="Arial" font-size="11" lengthAdjust="spacing" textLength="26.8984" x="673.8003" y="2689.6816">Excel</text><rect fill="#E2E2F0" height="46.6489" rx="2.5" ry="2.5" style="stroke:#333333;stroke-width:2;" width="61.5054" x="767.6987" y="125.0474"/><text fill="#000000" font-family="Arial" font-size="11" lengthAdjust="spacing" textLength="27.5054" x="784.6987" y="152.3652">Email</text><rect fill="#E2E2F0" height="46.6489" rx="2.5" ry="2.5" style="stroke:#333333;stroke-width:2;" width="61.5054" x="767.6987" y="2662.3638"/><text fill="#000000" font-family="Arial" font-size="11" lengthAdjust="spacing" textLength="27.5054" x="784.6987" y="2689.6816">Email</text><rect fill="#F5DEB3" height="46.6489" rx="2.5" ry="2.5" style="stroke:#333333;stroke-width:2;" width="92.0776" x="879.2041" y="125.0474"/><text fill="#000000" font-family="Arial" font-size="11" lengthAdjust="spacing" textLength="58.0776" x="896.2041" y="152.3652">Fournisseur</text><rect fill="#F5DEB3" height="46.6489" rx="2.5" ry="2.5" style="stroke:#333333;stroke-width:2;" width="92.0776" x="879.2041" y="2662.3638"/><text fill="#000000" font-family="Arial" font-size="11" lengthAdjust="spacing" textLength="58.0776" x="896.2041" y="2689.6816">Fournisseur</text><rect fill="#EEEEEE" height="3" style="stroke:#EEEEEE;stroke-width:1;" width="1121.7078" x="0" y="212.0208"/><line style="stroke:#000000;stroke-width:1;" x1="0" x2="1121.7078" y1="212.0208" y2="212.0208"/><line style="stroke:#000000;stroke-width:1;" x1="0" x2="1121.7078" y1="215.0208" y2="215.0208"/><rect fill="#EEEEEE" height="40.6489" style="stroke:#000000;stroke-width:2;" width="144.6284" x="488.5397" y="192.6963"/><text fill="#000000" font-family="Arial" font-size="11" font-weight="bold" lengthAdjust="spacing" textLength="107.5723" x="504.5397" y="217.0142">JOUR 1 - Lundi 9h00</text><path d="M28,248.3452 L28,300.3452 L162,300.3452 L162,258.3452 L152,248.3452 L28,248.3452 " fill="#FFF9E6" style="stroke:#333333;stroke-width:1;"/><path d="M152,248.3452 L152,258.3452 L162,258.3452 L152,248.3452 " fill="#FFF9E6" style="stroke:#333333;stroke-width:1;"/><text fill="#000000" font-family="Arial" font-size="10" font-weight="bold" lengthAdjust="spacing" textLength="74.4531" x="58.0171" y="272.7251">Besoin identifie</text><text fill="#000000" font-family="Arial" font-size="10" lengthAdjust="spacing" textLength="84.4873" x="53" y="284.2241">Cable 3G2.5 - 50m</text><line style="stroke:#333333;stroke-width:2;" x1="95.7219" x2="137.7219" y1="346.0918" y2="346.0918"/><line style="stroke:#333333;stroke-width:2;" x1="137.7219" x2="137.7219" y1="346.0918" y2="359.0918"/><line style="stroke:#333333;stroke-width:2;" x1="96.7219" x2="137.7219" y1="359.0918" y2="359.0918"/><polygon fill="#333333" points="106.7219,355.0918,96.7219,359.0918,106.7219,363.0918,102.7219,359.0918" style="stroke:#333333;stroke-width:1;"/><text fill="#000000" font-family="Arial" font-size="10" lengthAdjust="spacing" textLength="87.8369" x="112.7219" y="331.9727">Cherche bon papier</text><path d="M221.8369,311.3433 L221.8369,363.3433 L401.8369,363.3433 L401.8369,321.3433 L391.8369,311.3433 L221.8369,311.3433 " fill="#FFCCCC" style="stroke:#333333;stroke-width:1;"/><path d="M391.8369,311.3433 L391.8369,321.3433 L401.8369,321.3433 L391.8369,311.3433 " fill="#FFCCCC" style="stroke:#333333;stroke-width:1;"/><text fill="#000000" font-family="Arial" font-size="10" lengthAdjust="spacing" textLength="130.918" x="246.8369" y="335.7231">&#128308; Support papier uniquement</text><text fill="#000000" font-family="Arial" font-size="10" lengthAdjust="spacing" textLength="63.0859" x="280.7529" y="347.2222">&#9200; 5 min perdu</text><line style="stroke:#333333;stroke-width:2;" x1="95.7219" x2="137.7219" y1="409.0898" y2="409.0898"/><line style="stroke:#333333;stroke-width:2;" x1="137.7219" x2="137.7219" y1="409.0898" y2="422.0898"/><line style="stroke:#333333;stroke-width:2;" x1="96.7219" x2="137.7219" y1="422.0898" y2="422.0898"/><polygon fill="#333333" points="106.7219,418.0898,96.7219,422.0898,106.7219,426.0898,102.7219,422.0898" style="stroke:#333333;stroke-width:1;"/><text fill="#000000" font-family="Arial" font-size="10" lengthAdjust="spacing" textLength="96.7139" x="112.7219" y="394.9707">Remplit bon a la main</text><path d="M230.7139,374.3413 L230.7139,426.3413 L396.7139,426.3413 L396.7139,384.3413 L386.7139,374.3413 L230.7139,374.3413 " fill="#FFCCCC" style="stroke:#333333;stroke-width:1;"/><path d="M386.7139,374.3413 L386.7139,384.3413 L396.7139,384.3413 L386.7139,374.3413 " fill="#FFCCCC" style="stroke:#333333;stroke-width:1;"/><text fill="#000000" font-family="Arial" font-size="10" lengthAdjust="spacing" textLength="101.9824" x="263.0283" y="398.7212">&#128308; Reference imprecise</text><text fill="#000000" font-family="Arial" font-size="10" lengthAdjust="spacing" textLength="116.6113" x="255.7139" y="410.2202">"cable 3G2.5" sans details</text><line style="stroke:#333333;stroke-width:2;" x1="234.9641" x2="244.9641" y1="473.5879" y2="483.5879"/><line style="stroke:#333333;stroke-width:2;" x1="234.9641" x2="244.9641" y1="483.5879" y2="473.5879"/><line style="stroke:#333333;stroke-width:2;" x1="95.7219" x2="239.9641" y1="478.5879" y2="478.5879"/><text fill="#000000" font-family="Arial" font-size="10" lengthAdjust="spacing" textLength="85.6299" x="131.5281" y="464.4688">Appel telephonique</text><path d="M257,437.3394 L257,489.3394 L387,489.3394 L387,447.3394 L377,437.3394 L257,437.3394 " fill="#FFCCCC" style="stroke:#333333;stroke-width:1;"/><path d="M377,437.3394 L377,447.3394 L387,447.3394 L377,437.3394 " fill="#FFCCCC" style="stroke:#333333;stroke-width:1;"/><text fill="#000000" font-family="Arial" font-size="10" lengthAdjust="spacing" textLength="80.3271" x="282" y="461.7192">&#128308; Pas de reponse</text><text fill="#000000" font-family="Arial" font-size="10" lengthAdjust="spacing" textLength="48.3691" x="297.979" y="473.2183">En reunion</text><line style="stroke:#333333;stroke-width:2;" x1="95.7219" x2="137.7219" y1="532.8364" y2="532.8364"/><line style="stroke:#333333;stroke-width:2;" x1="137.7219" x2="137.7219" y1="532.8364" y2="545.8364"/><line style="stroke:#333333;stroke-width:2;" x1="96.7219" x2="137.7219" y1="545.8364" y2="545.8364"/><polygon fill="#333333" points="106.7219,541.8364,96.7219,545.8364,106.7219,549.8364,102.7219,545.8364" style="stroke:#333333;stroke-width:1;"/><text fill="#000000" font-family="Arial" font-size="10" lengthAdjust="spacing" textLength="74.4873" x="112.7219" y="518.7173">Rappelle... 3 fois</text><path d="M208.4873,503.8374 L208.4873,544.8374 L356.4873,544.8374 L356.4873,513.8374 L346.4873,503.8374 L208.4873,503.8374 " fill="#FFCCCC" style="stroke:#333333;stroke-width:1;"/><path d="M346.4873,503.8374 L346.4873,513.8374 L356.4873,513.8374 L346.4873,503.8374 " fill="#FFCCCC" style="stroke:#333333;stroke-width:1;"/><text fill="#000000" font-family="Arial" font-size="10" lengthAdjust="spacing" textLength="98.1104" x="233.4873" y="528.2173">&#9200; 25 minutes perdues</text><polygon fill="#333333" points="240.9641,587.3354,250.9641,591.3354,240.9641,595.3354,244.9641,591.3354" style="stroke:#333333;stroke-width:1;"/><line style="stroke:#333333;stroke-width:2;" x1="95.7219" x2="246.9641" y1="591.3354" y2="591.3354"/><text fill="#000000" font-family="Arial" font-size="10" lengthAdjust="spacing" textLength="92.2754" x="128.2053" y="577.2163">Appel reussi (10h45)</text><path d="M54,604.3354 L54,656.3354 L293,656.3354 L293,614.3354 L283,604.3354 L54,604.3354 " fill="#FFFFCC" style="stroke:#333333;stroke-width:1;"/><path d="M283,604.3354 L283,614.3354 L293,614.3354 L283,604.3354 " fill="#FFFFCC" style="stroke:#333333;stroke-width:1;"/><text fill="#000000" font-family="Arial" font-size="10" lengthAdjust="spacing" textLength="69.4922" x="139.2373" y="628.7153">Echange verbal</text><text fill="#000000" font-family="Arial" font-size="10" lengthAdjust="spacing" textLength="102.959" x="122.5039" y="640.2144">"J'ai besoin de cable..."</text><polygon fill="#333333" points="551.2053,695.8325,561.2053,699.8325,551.2053,703.8325,555.2053,699.8325" style="stroke:#333333;stroke-width:1;"/><line style="stroke:#333333;stroke-width:2;" x1="252.9641" x2="557.2053" y1="699.8325" y2="699.8325"/><text fill="#000000" font-family="Arial" font-size="10" lengthAdjust="spacing" textLength="112.1631" x="352.0032" y="685.7134">Recherche "cable 3G2.5"</text><polygon fill="#333333" points="263.9641,784.5781,253.9641,788.5781,263.9641,792.5781,259.9641,788.5781" style="stroke:#333333;stroke-width:1;"/><line style="stroke:#333333;stroke-width:2;stroke-dasharray:2.0,2.0;" x1="257.9641" x2="562.2053" y1="788.5781" y2="788.5781"/><text fill="#000000" font-family="Arial" font-size="10" lengthAdjust="spacing" textLength="57.251" x="379.4592" y="774.459">12 resultats !</text><path d="M568,712.8325 L568,833.8325 L750,833.8325 L750,722.8325 L740,712.8325 L568,712.8325 " fill="#FFCCCC" style="stroke:#333333;stroke-width:1;"/><path d="M740,712.8325 L740,722.8325 L750,722.8325 L740,712.8325 " fill="#FFCCCC" style="stroke:#333333;stroke-width:1;"/><text fill="#000000" font-family="Arial" font-size="10" lengthAdjust="spacing" textLength="7.5" x="594.5356" y="737.2124">&#128308;</text><text fill="#000000" font-family="Arial" font-size="10" font-weight="bold" lengthAdjust="spacing" textLength="118.9063" x="604.814" y="737.2124">BASE DONNEES CHAOS</text><text fill="#000000" font-family="Arial" font-size="10" lengthAdjust="spacing" textLength="110.6201" x="603.8179" y="748.7114">12 references differentes</text><text fill="#000000" font-family="Arial" font-size="10" lengthAdjust="spacing" textLength="99.4873" x="609.3843" y="760.2104">pour le MEME produit:</text><text fill="#000000" font-family="Arial" font-size="10" lengthAdjust="spacing" textLength="132.2559" x="593" y="771.7095">- CABLE-3G2.5-ROUGE-50M</text><text fill="#000000" font-family="Arial" font-size="10" lengthAdjust="spacing" textLength="85.0537" x="616.6011" y="783.2085">- CBL_3G25_R_50</text><text fill="#000000" font-family="Arial" font-size="10" lengthAdjust="spacing" textLength="109.4727" x="604.3916" y="794.7075">- 3G2.5-CABLE-ROUGE</text><text fill="#000000" font-family="Arial" font-size="10" lengthAdjust="spacing" textLength="119.4971" x="599.3794" y="806.2065">- CABLE_3G_2.5_ROUGE</text><text fill="#000000" font-family="Arial" font-size="10" lengthAdjust="spacing" textLength="14.4434" x="651.9063" y="817.7056">- ...</text><line style="stroke:#333333;stroke-width:2;" x1="252.9641" x2="294.9641" y1="879.5732" y2="879.5732"/><line style="stroke:#333333;stroke-width:2;" x1="294.9641" x2="294.9641" y1="879.5732" y2="892.5732"/><line style="stroke:#333333;stroke-width:2;" x1="253.9641" x2="294.9641" y1="892.5732" y2="892.5732"/><polygon fill="#333333" points="263.9641,888.5732,253.9641,892.5732,263.9641,896.5732,259.9641,892.5732" style="stroke:#333333;stroke-width:1;"/><text fill="#000000" font-family="Arial" font-size="10" lengthAdjust="spacing" textLength="118.833" x="269.9641" y="865.4541">Choisit une ref "au hasard"</text><path d="M409.833,844.8247 L409.833,896.8247 L548.833,896.8247 L548.833,854.8247 L538.833,844.8247 L409.833,844.8247 " fill="#FFF9E6" style="stroke:#333333;stroke-width:1;"/><path d="M538.833,844.8247 L538.833,854.8247 L548.833,854.8247 L538.833,844.8247 " fill="#FFF9E6" style="stroke:#333333;stroke-width:1;"/><text fill="#000000" font-family="Arial" font-size="10" lengthAdjust="spacing" textLength="72.5391" x="443.3193" y="869.2046">&#128992; Faible chance</text><text fill="#000000" font-family="Arial" font-size="10" lengthAdjust="spacing" textLength="89.5117" x="434.833" y="880.7036">que ce soit la bonne</text><polygon fill="#333333" points="675.2495,945.0713,685.2495,949.0713,675.2495,953.0713,679.2495,949.0713" style="stroke:#333333;stroke-width:1;"/><line style="stroke:#333333;stroke-width:2;" x1="252.9641" x2="681.2495" y1="949.0713" y2="949.0713"/><text fill="#000000" font-family="Arial" font-size="10" lengthAdjust="spacing" textLength="90.0439" x="425.0848" y="934.9521">Cherche fournisseur</text><path d="M692,907.8228 L692,959.8228 L843,959.8228 L843,917.8228 L833,907.8228 L692,907.8228 " fill="#FFCCCC" style="stroke:#333333;stroke-width:1;"/><path d="M833,907.8228 L833,917.8228 L843,917.8228 L833,907.8228 " fill="#FFCCCC" style="stroke:#333333;stroke-width:1;"/><text fill="#000000" font-family="Arial" font-size="10" lengthAdjust="spacing" textLength="101.4502" x="717" y="932.2026">&#128308; Donnees eparpillees</text><text fill="#000000" font-family="Arial" font-size="10" lengthAdjust="spacing" textLength="34.7314" x="750.3594" y="943.7017">&#9200; 8 min</text><polygon fill="#333333" points="913.2429,1008.0693,923.2429,1012.0693,913.2429,1016.0693,917.2429,1012.0693" style="stroke:#333333;stroke-width:1;"/><line style="stroke:#333333;stroke-width:2;" x1="252.9641" x2="919.2429" y1="1012.0693" y2="1012.0693"/><text fill="#000000" font-family="Arial" font-size="10" lengthAdjust="spacing" textLength="85.6299" x="546.2886" y="997.9502">Appel telephonique</text><path d="M930,970.8208 L930,1022.8208 L1111,1022.8208 L1111,980.8208 L1101,970.8208 L930,970.8208 " fill="#FFCCCC" style="stroke:#333333;stroke-width:1;"/><path d="M1101,970.8208 L1101,980.8208 L1111,980.8208 L1101,970.8208 " fill="#FFCCCC" style="stroke:#333333;stroke-width:1;"/><text fill="#000000" font-family="Arial" font-size="10" lengthAdjust="spacing" textLength="131.4648" x="955" y="995.2007">&#128308; Pas de commande en ligne</text><text fill="#000000" font-family="Arial" font-size="10" lengthAdjust="spacing" textLength="100.9033" x="970.2808" y="1006.6997">&#9200; 15 min au telephone</text><polygon fill="#333333" points="263.9641,1062.3179,253.9641,1066.3179,263.9641,1070.3179,259.9641,1066.3179" style="stroke:#333333;stroke-width:1;"/><line style="stroke:#333333;stroke-width:2;stroke-dasharray:2.0,2.0;" x1="257.9641" x2="924.2429" y1="1066.3179" y2="1066.3179"/><text fill="#000000" font-family="Arial" font-size="10" lengthAdjust="spacing" textLength="76.0303" x="551.0884" y="1052.1987">"Dispo sous 48h"</text><polygon fill="#333333" points="786.4514,1139.5645,796.4514,1143.5645,786.4514,1147.5645,790.4514,1143.5645" style="stroke:#333333;stroke-width:1;"/><line style="stroke:#333333;stroke-width:2;" x1="252.9641" x2="792.4514" y1="1143.5645" y2="1143.5645"/><text fill="#000000" font-family="Arial" font-size="10" lengthAdjust="spacing" textLength="103.9209" x="473.7473" y="1129.4453">Ecrit email confirmation</text><path d="M803,1079.3179 L803,1177.3179 L975,1177.3179 L975,1089.3179 L965,1079.3179 L803,1079.3179 " fill="#FFCCCC" style="stroke:#333333;stroke-width:1;"/><path d="M965,1079.3179 L965,1089.3179 L975,1089.3179 L965,1079.3179 " fill="#FFCCCC" style="stroke:#333333;stroke-width:1;"/><text fill="#000000" font-family="Arial" font-size="10" lengthAdjust="spacing" textLength="7.5" x="852.3237" y="1103.6978">&#128308;</text><text fill="#000000" font-family="Arial" font-size="10" font-weight="bold" lengthAdjust="spacing" textLength="63.9111" x="862.6021" y="1103.6978">RE-SAISIE #4</text><text fill="#000000" font-family="Arial" font-size="10" lengthAdjust="spacing" textLength="122.8369" x="828" y="1115.1968">&#9851;&#65039; Recopie manuellement:</text><text fill="#000000" font-family="Arial" font-size="10" lengthAdjust="spacing" textLength="52.2461" x="863.2954" y="1126.6958">- Reference</text><text fill="#000000" font-family="Arial" font-size="10" lengthAdjust="spacing" textLength="43.9111" x="867.4629" y="1138.1948">- Quantite</text><text fill="#000000" font-family="Arial" font-size="10" lengthAdjust="spacing" textLength="23.3301" x="877.7534" y="1149.6938">- Prix</text><text fill="#000000" font-family="Arial" font-size="10" lengthAdjust="spacing" textLength="42.793" x="868.022" y="1161.1929">- Adresse</text><polygon fill="#333333" points="551.2053,1219.811,561.2053,1223.811,551.2053,1227.811,555.2053,1223.811" style="stroke:#333333;stroke-width:1;"/><line style="stroke:#333333;stroke-width:2;" x1="252.9641" x2="557.2053" y1="1223.811" y2="1223.811"/><text fill="#000000" font-family="Arial" font-size="10" lengthAdjust="spacing" textLength="76.6992" x="369.7351" y="1209.6919">Saisit commande</text><path d="M568,1188.312 L568,1229.312 L692,1229.312 L692,1198.312 L682,1188.312 L568,1188.312 " fill="#FFCCCC" style="stroke:#333333;stroke-width:1;"/><path d="M682,1188.312 L682,1198.312 L692,1198.312 L682,1188.312 " fill="#FFCCCC" style="stroke:#333333;stroke-width:1;"/><text fill="#000000" font-family="Arial" font-size="10" lengthAdjust="spacing" textLength="7.5" x="593" y="1212.6919">&#128308;</text><text fill="#000000" font-family="Arial" font-size="10" font-weight="bold" lengthAdjust="spacing" textLength="63.9111" x="603.2783" y="1212.6919">RE-SAISIE #5</text><polygon fill="#333333" points="675.2495,1271.3101,685.2495,1275.3101,675.2495,1279.3101,679.2495,1275.3101" style="stroke:#333333;stroke-width:1;"/><line style="stroke:#333333;stroke-width:2;" x1="252.9641" x2="681.2495" y1="1275.3101" y2="1275.3101"/><text fill="#000000" font-family="Arial" font-size="10" lengthAdjust="spacing" textLength="71.6992" x="434.2572" y="1261.1909">Saisit dans suivi</text><path d="M692,1239.811 L692,1280.811 L816,1280.811 L816,1249.811 L806,1239.811 L692,1239.811 " fill="#FFCCCC" style="stroke:#333333;stroke-width:1;"/><path d="M806,1239.811 L806,1249.811 L816,1249.811 L806,1239.811 " fill="#FFCCCC" style="stroke:#333333;stroke-width:1;"/><text fill="#000000" font-family="Arial" font-size="10" lengthAdjust="spacing" textLength="7.5" x="717" y="1264.1909">&#128308;</text><text fill="#000000" font-family="Arial" font-size="10" font-weight="bold" lengthAdjust="spacing" textLength="63.9111" x="727.2783" y="1264.1909">RE-SAISIE #6</text><polygon fill="#333333" points="106.7219,1319.8091,96.7219,1323.8091,106.7219,1327.8091,102.7219,1323.8091" style="stroke:#333333;stroke-width:1;"/><line style="stroke:#333333;stroke-width:2;" x1="100.7219" x2="251.9641" y1="1323.8091" y2="1323.8091"/><text fill="#000000" font-family="Arial" font-size="10" lengthAdjust="spacing" textLength="113.2422" x="117.7219" y="1309.6899">SMS "Livraison mercredi"</text><rect fill="#EEEEEE" height="3" style="stroke:#EEEEEE;stroke-width:1;" width="1121.7078" x="0" y="1361.1335"/><line style="stroke:#000000;stroke-width:1;" x1="0" x2="1121.7078" y1="1361.1335" y2="1361.1335"/><line style="stroke:#000000;stroke-width:1;" x1="0" x2="1121.7078" y1="1364.1335" y2="1364.1335"/><rect fill="#EEEEEE" height="40.6489" style="stroke:#000000;stroke-width:2;" width="115.9038" x="502.902" y="1341.8091"/><text fill="#000000" font-family="Arial" font-size="11" font-weight="bold" lengthAdjust="spacing" textLength="78.8477" x="518.902" y="1366.127">JOUR 2 - Mardi</text><path d="M38,1397.458 L38,1449.458 L981,1449.458 L981,1407.458 L971,1397.458 L38,1397.458 " fill="#FFFFCC" style="stroke:#333333;stroke-width:1;"/><path d="M971,1397.458 L971,1407.458 L981,1407.458 L971,1397.458 " fill="#FFFFCC" style="stroke:#333333;stroke-width:1;"/><text fill="#000000" font-family="Arial" font-size="10" lengthAdjust="spacing" textLength="15" x="452.1409" y="1421.8379">&#9208;&#65039;</text><text fill="#000000" font-family="Arial" font-size="10" font-weight="bold" lengthAdjust="spacing" textLength="97.2217" x="469.9192" y="1421.8379">CHANTIER BLOQUE</text><text fill="#000000" font-family="Arial" font-size="10" lengthAdjust="spacing" textLength="71.1475" x="474.0671" y="1433.3369">Attente livraison</text><polygon fill="#333333" points="240.9641,1497.7046,250.9641,1501.7046,240.9641,1505.7046,244.9641,1501.7046" style="stroke:#333333;stroke-width:1;"/><line style="stroke:#333333;stroke-width:2;" x1="95.7219" x2="246.9641" y1="1501.7046" y2="1501.7046"/><text fill="#000000" font-family="Arial" font-size="10" lengthAdjust="spacing" textLength="85.0488" x="131.8186" y="1487.5854">Rappelle pour suivi</text><path d="M257,1460.4561 L257,1512.4561 L388,1512.4561 L388,1470.4561 L378,1460.4561 L257,1460.4561 " fill="#FFCCCC" style="stroke:#333333;stroke-width:1;"/><path d="M378,1460.4561 L378,1470.4561 L388,1470.4561 L378,1460.4561 " fill="#FFCCCC" style="stroke:#333333;stroke-width:1;"/><text fill="#000000" font-family="Arial" font-size="10" lengthAdjust="spacing" textLength="81.9824" x="282" y="1484.8359">&#128308; Aucune visibilite</text><text fill="#000000" font-family="Arial" font-size="10" lengthAdjust="spacing" textLength="46.6846" x="299.6489" y="1496.335">temps reel</text><rect fill="#EEEEEE" height="3" style="stroke:#EEEEEE;stroke-width:1;" width="1121.7078" x="0" y="1547.7786"/><line style="stroke:#000000;stroke-width:1;" x1="0" x2="1121.7078" y1="1547.7786" y2="1547.7786"/><line style="stroke:#000000;stroke-width:1;" x1="0" x2="1121.7078" y1="1550.7786" y2="1550.7786"/><rect fill="#EEEEEE" height="40.6489" style="stroke:#000000;stroke-width:2;" width="160.5483" x="480.5797" y="1528.4541"/><text fill="#000000" font-family="Arial" font-size="11" font-weight="bold" lengthAdjust="spacing" textLength="123.4922" x="496.5797" y="1552.772">JOUR 3 - Mercredi 9h00</text><polygon fill="#333333" points="416.7971,1612.6021,406.7971,1616.6021,416.7971,1620.6021,412.7971,1616.6021" style="stroke:#333333;stroke-width:1;"/><line style="stroke:#333333;stroke-width:2;" x1="410.7971" x2="924.2429" y1="1616.6021" y2="1616.6021"/><text fill="#000000" font-family="Arial" font-size="10" lengthAdjust="spacing" textLength="75.0342" x="628.0029" y="1602.4829">Livraison camion</text><line style="stroke:#333333;stroke-width:2;" x1="405.7971" x2="447.7971" y1="1664.3506" y2="1664.3506"/><line style="stroke:#333333;stroke-width:2;" x1="447.7971" x2="447.7971" y1="1664.3506" y2="1677.3506"/><line style="stroke:#333333;stroke-width:2;" x1="406.7971" x2="447.7971" y1="1677.3506" y2="1677.3506"/><polygon fill="#333333" points="416.7971,1673.3506,406.7971,1677.3506,416.7971,1681.3506,412.7971,1677.3506" style="stroke:#333333;stroke-width:1;"/><text fill="#000000" font-family="Arial" font-size="10" lengthAdjust="spacing" textLength="123.4082" x="422.7971" y="1650.2314">Cherche bon de commande</text><path d="M567.4082,1629.6021 L567.4082,1681.6021 L738.4082,1681.6021 L738.4082,1639.6021 L728.4082,1629.6021 L567.4082,1629.6021 " fill="#FFCCCC" style="stroke:#333333;stroke-width:1;"/><path d="M728.4082,1629.6021 L728.4082,1639.6021 L738.4082,1639.6021 L728.4082,1629.6021 " fill="#FFCCCC" style="stroke:#333333;stroke-width:1;"/><text fill="#000000" font-family="Arial" font-size="10" lengthAdjust="spacing" textLength="121.4502" x="592.4082" y="1653.9819">&#128308; Pas de reference croisee</text><text fill="#000000" font-family="Arial" font-size="10" lengthAdjust="spacing" textLength="90.3174" x="607.9746" y="1665.481">&#9200; 15 min a chercher</text><line style="stroke:#333333;stroke-width:2;" x1="405.7971" x2="447.7971" y1="1738.8477" y2="1738.8477"/><line style="stroke:#333333;stroke-width:2;" x1="447.7971" x2="447.7971" y1="1738.8477" y2="1751.8477"/><line style="stroke:#333333;stroke-width:2;" x1="406.7971" x2="447.7971" y1="1751.8477" y2="1751.8477"/><polygon fill="#333333" points="416.7971,1747.8477,406.7971,1751.8477,416.7971,1755.8477,412.7971,1751.8477" style="stroke:#333333;stroke-width:1;"/><text fill="#000000" font-family="Arial" font-size="10" lengthAdjust="spacing" textLength="91.1523" x="422.7971" y="1724.7285">Compare references</text><path d="M535.1523,1692.6001 L535.1523,1767.6001 L732.1523,1767.6001 L732.1523,1702.6001 L722.1523,1692.6001 L535.1523,1692.6001 " fill="#FFCCCC" style="stroke:#333333;stroke-width:1;"/><path d="M722.1523,1692.6001 L722.1523,1702.6001 L732.1523,1702.6001 L722.1523,1692.6001 " fill="#FFCCCC" style="stroke:#333333;stroke-width:1;"/><text fill="#000000" font-family="Arial" font-size="10" lengthAdjust="spacing" textLength="7.5" x="578.6265" y="1716.98">&#128308;</text><text fill="#000000" font-family="Arial" font-size="10" font-weight="bold" lengthAdjust="spacing" textLength="99.9316" x="588.9048" y="1716.98">NOMENCLATURES &#8800;</text><text fill="#000000" font-family="Arial" font-size="10" lengthAdjust="spacing" textLength="102.7002" x="582.3813" y="1728.479">Bon: "CBL-3x2.5-R-50"</text><text fill="#000000" font-family="Arial" font-size="10" lengthAdjust="spacing" textLength="147.1582" x="560.1523" y="1739.978">Cmd: "CABLE_3G_2.5_ROUGE"</text><text fill="#000000" font-family="Arial" font-size="10" lengthAdjust="spacing" textLength="83.0566" x="592.2031" y="1751.4771">C'est le meme ???</text><polygon fill="#333333" points="263.9641,1815.8447,253.9641,1819.8447,263.9641,1823.8447,259.9641,1819.8447" style="stroke:#333333;stroke-width:1;"/><line style="stroke:#333333;stroke-width:2;" x1="257.9641" x2="404.7971" y1="1819.8447" y2="1819.8447"/><text fill="#000000" font-family="Arial" font-size="10" lengthAdjust="spacing" textLength="76.1523" x="291.3044" y="1805.7256">Appel verification</text><path d="M410,1778.5962 L410,1830.5962 L546,1830.5962 L546,1788.5962 L536,1778.5962 L410,1778.5962 " fill="#FFCCCC" style="stroke:#333333;stroke-width:1;"/><path d="M536,1778.5962 L536,1788.5962 L546,1788.5962 L536,1778.5962 " fill="#FFCCCC" style="stroke:#333333;stroke-width:1;"/><text fill="#000000" font-family="Arial" font-size="10" lengthAdjust="spacing" textLength="86.9873" x="435" y="1802.9761">&#128308; Pas de tracabilite</text><text fill="#000000" font-family="Arial" font-size="10" lengthAdjust="spacing" textLength="40.293" x="458.3472" y="1814.4751">&#9200; 10 min</text><line style="stroke:#333333;stroke-width:2;" x1="405.7971" x2="447.7971" y1="1876.3428" y2="1876.3428"/><line style="stroke:#333333;stroke-width:2;" x1="447.7971" x2="447.7971" y1="1876.3428" y2="1889.3428"/><line style="stroke:#333333;stroke-width:2;" x1="406.7971" x2="447.7971" y1="1889.3428" y2="1889.3428"/><polygon fill="#333333" points="416.7971,1885.3428,406.7971,1889.3428,416.7971,1893.3428,412.7971,1889.3428" style="stroke:#333333;stroke-width:1;"/><text fill="#000000" font-family="Arial" font-size="10" lengthAdjust="spacing" textLength="100.6055" x="422.7971" y="1862.2236">Compte manuellement</text><path d="M544.6055,1841.5942 L544.6055,1893.5942 L659.6055,1893.5942 L659.6055,1851.5942 L649.6055,1841.5942 L544.6055,1841.5942 " fill="#FFCCCC" style="stroke:#333333;stroke-width:1;"/><path d="M649.6055,1841.5942 L649.6055,1851.5942 L659.6055,1851.5942 L649.6055,1841.5942 " fill="#FFCCCC" style="stroke:#333333;stroke-width:1;"/><text fill="#000000" font-family="Arial" font-size="10" lengthAdjust="spacing" textLength="65.3125" x="569.6055" y="1865.9741">&#128308; Pas de scan</text><text fill="#000000" font-family="Arial" font-size="10" lengthAdjust="spacing" textLength="40.293" x="582.1152" y="1877.4731">&#9200; 10 min</text><polygon fill="#333333" points="551.2053,1947.5903,561.2053,1951.5903,551.2053,1955.5903,555.2053,1951.5903" style="stroke:#333333;stroke-width:1;"/><line style="stroke:#333333;stroke-width:2;" x1="405.7971" x2="557.2053" y1="1951.5903" y2="1951.5903"/><text fill="#000000" font-family="Arial" font-size="10" lengthAdjust="spacing" textLength="68.3691" x="450.3167" y="1937.4712">Saisit reception</text><path d="M568,1904.5923 L568,1968.5923 L702,1968.5923 L702,1914.5923 L692,1904.5923 L568,1904.5923 " fill="#FFCCCC" style="stroke:#333333;stroke-width:1;"/><path d="M692,1904.5923 L692,1914.5923 L702,1914.5923 L692,1904.5923 " fill="#FFCCCC" style="stroke:#333333;stroke-width:1;"/><text fill="#000000" font-family="Arial" font-size="10" lengthAdjust="spacing" textLength="7.5" x="598.1489" y="1928.9722">&#128308;</text><text fill="#000000" font-family="Arial" font-size="10" font-weight="bold" lengthAdjust="spacing" textLength="63.9111" x="608.4272" y="1928.9722">RE-SAISIE #7</text><text fill="#000000" font-family="Arial" font-size="10" lengthAdjust="spacing" textLength="84.4873" x="593" y="1940.4712">Interface complexe</text><text fill="#000000" font-family="Arial" font-size="10" lengthAdjust="spacing" textLength="40.293" x="615.0972" y="1951.9702">&#9200; 20 min</text><polygon fill="#333333" points="106.7219,2007.5884,96.7219,2011.5884,106.7219,2015.5884,102.7219,2011.5884" style="stroke:#333333;stroke-width:1;"/><line style="stroke:#333333;stroke-width:2;" x1="100.7219" x2="404.7971" y1="2011.5884" y2="2011.5884"/><text fill="#000000" font-family="Arial" font-size="10" lengthAdjust="spacing" textLength="69.3506" x="216.0842" y="1997.4692">"Materiel dispo"</text><rect fill="#EEEEEE" height="3" style="stroke:#EEEEEE;stroke-width:1;" width="1121.7078" x="0" y="2048.9128"/><line style="stroke:#000000;stroke-width:1;" x1="0" x2="1121.7078" y1="2048.9128" y2="2048.9128"/><line style="stroke:#000000;stroke-width:1;" x1="0" x2="1121.7078" y1="2051.9128" y2="2051.9128"/><rect fill="#EEEEEE" height="40.6489" style="stroke:#000000;stroke-width:2;" width="117.7568" x="501.9755" y="2029.5884"/><text fill="#000000" font-family="Arial" font-size="11" font-weight="bold" lengthAdjust="spacing" textLength="80.7007" x="517.9755" y="2053.9063">JOUR 3 - 16h00</text><line style="stroke:#333333;stroke-width:2;" x1="95.7219" x2="137.7219" y1="2117.7363" y2="2117.7363"/><line style="stroke:#333333;stroke-width:2;" x1="137.7219" x2="137.7219" y1="2117.7363" y2="2130.7363"/><line style="stroke:#333333;stroke-width:2;" x1="96.7219" x2="137.7219" y1="2130.7363" y2="2130.7363"/><polygon fill="#333333" points="106.7219,2126.7363,96.7219,2130.7363,106.7219,2134.7363,102.7219,2130.7363" style="stroke:#333333;stroke-width:1;"/><text fill="#000000" font-family="Arial" font-size="10" lengthAdjust="spacing" textLength="85.0635" x="112.7219" y="2103.6172">Recupere au depot</text><line style="stroke:#333333;stroke-width:2;" x1="95.7219" x2="137.7219" y1="2176.2354" y2="2176.2354"/><line style="stroke:#333333;stroke-width:2;" x1="137.7219" x2="137.7219" y1="2176.2354" y2="2189.2354"/><line style="stroke:#333333;stroke-width:2;" x1="96.7219" x2="137.7219" y1="2189.2354" y2="2189.2354"/><polygon fill="#333333" points="106.7219,2185.2354,96.7219,2189.2354,106.7219,2193.2354,102.7219,2189.2354" style="stroke:#333333;stroke-width:1;"/><text fill="#000000" font-family="Arial" font-size="10" lengthAdjust="spacing" textLength="100.0586" x="112.7219" y="2162.1162">Deballage sur chantier</text><path d="M5,2202.2354 L5,2289.2354 L187,2289.2354 L187,2212.2354 L177,2202.2354 L5,2202.2354 " fill="#FF6B6B" style="stroke:#333333;stroke-width:1;"/><path d="M177,2202.2354 L177,2212.2354 L187,2212.2354 L177,2202.2354 " fill="#FF6B6B" style="stroke:#333333;stroke-width:1;"/><text fill="#000000" font-family="Arial" font-size="10" lengthAdjust="spacing" textLength="7.5" x="53.0566" y="2226.6152">&#10060;</text><text fill="#000000" font-family="Arial" font-size="10" font-weight="bold" lengthAdjust="spacing" textLength="76.1133" x="63.335" y="2226.6152">CATASTROPHE</text><text fill="#000000" font-family="Arial" font-size="10" lengthAdjust="spacing" textLength="132.5049" x="30" y="2238.1143">C'EST LE MAUVAIS CABLE !</text><text fill="#000000" font-family="Arial" font-size="10" lengthAdjust="spacing" textLength="2.7783" x="94.8633" y="2249.6133">&#160;</text><text fill="#000000" font-family="Arial" font-size="10" lengthAdjust="spacing" textLength="80.8838" x="55.8105" y="2261.1123">&#128308; Chantier bloque</text><text fill="#000000" font-family="Arial" font-size="10" lengthAdjust="spacing" textLength="107.8223" x="42.3413" y="2272.6113">Il faut tout recommencer</text><polygon fill="#333333" points="240.9641,2328.2295,250.9641,2332.2295,240.9641,2336.2295,244.9641,2332.2295" style="stroke:#333333;stroke-width:1;"/><line style="stroke:#333333;stroke-width:2;" x1="95.7219" x2="246.9641" y1="2332.2295" y2="2332.2295"/><text fill="#000000" font-family="Arial" font-size="10" lengthAdjust="spacing" textLength="58.3691" x="145.1584" y="2318.1104">Appel furieux</text><path d="M54,2345.2295 L54,2397.2295 L293,2397.2295 L293,2355.2295 L283,2345.2295 L54,2345.2295 " fill="#FF6B6B" style="stroke:#333333;stroke-width:1;"/><path d="M283,2345.2295 L283,2355.2295 L293,2355.2295 L283,2345.2295 " fill="#FF6B6B" style="stroke:#333333;stroke-width:1;"/><text fill="#000000" font-family="Arial" font-size="10" font-weight="bold" lengthAdjust="spacing" textLength="121.6602" x="113.1533" y="2369.6094">IL FAUT RECOMMENCER</text><text fill="#000000" font-family="Arial" font-size="10" lengthAdjust="spacing" textLength="126.7236" x="110.6216" y="2381.1084">Tout le processus a refaire...</text><rect fill="#EEEEEE" height="3" style="stroke:#EEEEEE;stroke-width:1;" width="1121.7078" x="0" y="2432.552"/><line style="stroke:#000000;stroke-width:1;" x1="0" x2="1121.7078" y1="2432.552" y2="2432.552"/><line style="stroke:#000000;stroke-width:1;" x1="0" x2="1121.7078" y1="2435.552" y2="2435.552"/><rect fill="#EEEEEE" height="40.6489" style="stroke:#000000;stroke-width:2;" width="70.6631" x="525.5223" y="2413.2275"/><text fill="#000000" font-family="Arial" font-size="11" font-weight="bold" lengthAdjust="spacing" textLength="33.6069" x="541.5223" y="2437.5454">BILAN</text><path d="M38,2468.8765 L38,2647.8765 L981,2647.8765 L981,2478.8765 L971,2468.8765 L38,2468.8765 " fill="#FFCCCC" style="stroke:#333333;stroke-width:1;"/><path d="M971,2468.8765 L971,2478.8765 L981,2478.8765 L971,2468.8765 " fill="#FFCCCC" style="stroke:#333333;stroke-width:1;"/><text fill="#000000" font-family="Arial" font-size="10" font-weight="bold" lengthAdjust="spacing" textLength="125.0195" x="447.1311" y="2493.2563">METRIQUES PROCESSUS</text><text fill="#000000" font-family="Arial" font-size="10" lengthAdjust="spacing" textLength="67.5342" x="455.1707" y="2504.7554">&#9200; Duree totale:</text><text fill="#000000" font-family="Arial" font-size="10" font-weight="bold" lengthAdjust="spacing" textLength="38.6279" x="525.4832" y="2504.7554">~3 jours</text><text fill="#000000" font-family="Arial" font-size="10" lengthAdjust="spacing" textLength="88.6523" x="465.3147" y="2516.2544">&#128222; Nombreux appels</text><text fill="#000000" font-family="Arial" font-size="10" lengthAdjust="spacing" textLength="123.6426" x="447.8196" y="2527.7534">&#9851;&#65039; Multiples re-saisies (7&#215;)</text><text fill="#000000" font-family="Arial" font-size="10" lengthAdjust="spacing" textLength="64.7412" x="448.0881" y="2539.2524">&#10060; Taux erreur:</text><text fill="#000000" font-family="Arial" font-size="10" font-weight="bold" lengthAdjust="spacing" textLength="55.5859" x="515.6077" y="2539.2524">Eleve (30%)</text><text fill="#000000" font-family="Arial" font-size="10" lengthAdjust="spacing" textLength="55.0244" x="482.1287" y="2550.7515">Stress eleve</text><text fill="#000000" font-family="Arial" font-size="10" lengthAdjust="spacing" textLength="88.3838" x="465.449" y="2562.2505">&#9208;&#65039; Chantier bloque</text><text fill="#000000" font-family="Arial" font-size="10" lengthAdjust="spacing" textLength="2.7783" x="508.2517" y="2573.7495">&#160;</text><text fill="#000000" font-family="Arial" font-size="10" font-weight="bold" lengthAdjust="spacing" textLength="83.335" x="467.9734" y="2585.2485">COUTS CACHES:</text><text fill="#000000" font-family="Arial" font-size="10" lengthAdjust="spacing" textLength="109.2236" x="455.0291" y="2596.7476">- Temps perdu total: ~6h</text><text fill="#000000" font-family="Arial" font-size="10" lengthAdjust="spacing" textLength="86.1475" x="466.5671" y="2608.2466">- Chantier arrete: 2j</text><text fill="#000000" font-family="Arial" font-size="10" lengthAdjust="spacing" textLength="87.8076" x="465.7371" y="2619.7456">- Retour materiel: 1j</text><text fill="#000000" font-family="Arial" font-size="10" lengthAdjust="spacing" textLength="3.3301" x="457.2727" y="2631.2446">-</text><text fill="#000000" font-family="Arial" font-size="10" font-weight="bold" lengthAdjust="spacing" textLength="98.6279" x="463.3811" y="2631.2446">COUT TOTAL: ~800&#8364;</text><rect fill="#F5F5F5" height="121.9922" id="_legend" rx="7.5" ry="7.5" style="stroke:#333333;stroke-width:1;" width="132.8174" x="975.8904" y="2783.6616"/><text fill="#000000" font-family="Arial" font-size="10" font-weight="bold" lengthAdjust="spacing" textLength="48.3398" x="1018.1292" y="2808.0415">LEGENDE</text><text fill="#000000" font-family="Arial" font-size="10" lengthAdjust="spacing" textLength="88.0908" x="998.2537" y="2819.5405">&#128308; Probleme critique</text><text fill="#000000" font-family="Arial" font-size="10" lengthAdjust="spacing" textLength="85.3271" x="999.6355" y="2831.0396">&#128992; Attention requise</text><text fill="#000000" font-family="Arial" font-size="10" lengthAdjust="spacing" textLength="69.1943" x="1007.7019" y="2842.5386">&#9200; Temps perdu</text><text fill="#000000" font-family="Arial" font-size="10" lengthAdjust="spacing" textLength="102.8174" x="990.8904" y="2854.0376">&#9851;&#65039; Re-saisie manuelle</text><text fill="#000000" font-family="Arial" font-size="10" lengthAdjust="spacing" textLength="102.2705" x="991.1638" y="2865.5366">&#9208;&#65039; Blocage processus</text><text fill="#000000" font-family="Arial" font-size="10" lengthAdjust="spacing" textLength="87.5488" x="998.5247" y="2877.0356">&#9989; Succes operation</text><text fill="#000000" font-family="Arial" font-size="10" lengthAdjust="spacing" textLength="78.0713" x="1003.2634" y="2888.5347">&#10060; Erreur systeme</text><!--SRC=[hLZRRYF74NtdLvGP1988KwAevNeZOBqO3LkxT7YHPuPE30GWMiEcsCRStDqZQ5_ya3T_WL_p0VcB_8c_9ATxXfVXIfkL740GfczLrQUgJbNpYDw-VKiJ5db3B_Bie7L4eL3tCXQNvCLhRdHtdDz9RUJFfS3Ya1j1lXBSo3oxf7wlF-YUdtVxFJeEn8h79bTYUOADNcb4gI3aJcI6RXAUcVbaJCDI2OFb7uJIbOHJ75NReyJlHKpQV4o4fe8hm- -4jlAYZuMWeUHtYgSfZ0i53CfYPvFGiP95PT6DocEXTQafpjEKPqj1AMnMKYGa33S4HIM-Zt6vN9zGTsCAb68tLqkfXPLgaRaUJPlejBwIMPoK47fwUhRzgn7JPmkzvhZ4MPacPzKTpfRsmeiuJtAbJmiil5H4mZ_cfVbZ8WISiQpDQ1bf4h67bx_1QxB1gqkuUqIU7ytPc8xz3zuiF6crdAkeFU4g_aTsxA_5Ylmr_2k5EcaJrsHNo9-DPy42P_4V9wVHY0MRe-77v5uA7Av2h3fLJJRENSq3viqtfvYILk5G5BcfZjYPne4Xkvb5BHitCfO5R88kH11DXgpIOGVLWV37C68JjXYpzvx_O_CCUuX5KccmNmSdsDzzDZuua79P7x1VpSNhl5IPr1hvuBQuSSFiwzayc8x2aCs3LWjnznt6T0xynsMsbFINTQz7Dlgo7DcNtmkr3x7rqU9l7WHCtxU8EfqheNEPaLmYy-HAYau7qpw_XRSltlTF1v0xwAKjX09PWQsM4zRzrWczX2-5YjU2Rf4J1I_WrKgladThiw-J1S4iW6WscItyO1IDV6zCOLaKkJBrIIepInmfBAatHgC9em6bCB0GQba-QKOWqYAHnfd1AU58OvaznnBmaL2M8aYcXH8nyXfRsl4EY3PfdcbQWXTaeZ-nvA4EIP1OKI0AZ4X4iSxTZPvZo0stEaWXRZDd0yim039vzlJjkLMPYDFJKxgWLIxr5sXqsFOTk61VNG4iz2DAcXU3CLfBEZxlhLyDJWwYxEjwizM1RCsGG5YwvOa5yxiZBkcsYZTSqM4BazjxAkkqjagHVDQlSHrW3LUqN6fszsmxxyCmNIOWRKrVFGTmf80NCXhEfbF6GdAyvPB0YQoZ0ZwHA_SDgB1M82i9vaoGubIeV5bASudvBldUrPXrdPdTO3P_pxg3tgHQkHelC3zO18j1pyrKkweJRkzE0dOkiBZOJGEfnu6g4V3Ny3jIeCnizAoepKjQSuqQrNu2ZXqDM43g4LrpQO6stekj7n6_XBI0runDB6HO9XurnB7VZX5MEo9xZZk6LZxm5c35GYAe7TxRW7rZu_LHzOue_q_Pj-q6H4Q9lCl4lWdd5I41tesMVJmgljuFpVPGwY87W2YRhzwismtCR06uHAuee2li0BgpbLIfwvcU5yS1wuRUA1mn-jCh5y5sFM3r758f1yk26RFIaeMbsIfajzpdHj-NjZgRQd2Zv8Fxy9P8Boq-aweXT-6tWUx5fWzW-cV2grQpj5oiItalNwpezHEAAauD9o6rn_9UGH-AIegWHfiasxkIsmSi4zi2Fb9jlsxKRMVGrNZc_vKDQvFg4IpQj3k4gU_dp3dECyOo3MAlrlyPLjwGVyL9puR4AsFB6FT0zLOcbTyDgga6YOXaJ-_csXVssZKQksQZ3ljlNPTrIJlWOfxQG6wvxckxljysxENRYmhbfd37AdVT-2EfIdKLKNltEJ0eJq4uU-Bqy-9gEfkmgJ_s8ZIX8Vt-wx-S7w_i8wCDukzUFBY2W6BGjlrLkhJpdn2zMpiIsjZQaY95wTsxTu_OtAp823fqRl6p6QD6q2YEshhn_GwxtW7LVWgOQRB92tJhc6TVfBJ1CUZFHF67-F4RvvuHSapXCUa2i4Z4GmE0_bEsL0JHthvybfRVsyqCEN-zoOp3HZKkqMa9MpwMzcrok64eq2qbjhtHIEUuVYezqStV13E4q8JLPhjxMqh12pICWjdDXufE_2CMHZHcDF7cFm21giL0ctI8qUPbHhT9RYid84fenKj31iz9YpiIrMQ7-fzjuge4DkL3wua6yTCBT3gZCLrxyuW2viycDfrOuCoFh6vBSDlN9xTvogKIpQO83hWQZRtfbn7o9aew7RpQWn6uDoJOuxCmd8VR-kb2mVuGWKJ93KzmmKxdbmlw2UBqTjVDXzcKqJHFRz4UFv2ZP7rOWITeJsLXVwjGegjjAEFp-9l__7RIy5_48K4evNuHwNHO8ku57L_q_dpYr8N6Lc8ITlgWc1owprtEdyqZwt7_0mildOGkHOxWNSTVtUgIVdczhhhFZGmE2mnks_-fRXAChI-RdqVGSLVpbGAAPf4tXfGtlTxl__ntexBYpSocmqKOUTEX5moFJrh_1G00]--></g></svg>