<svg xmlns="http://www.w3.org/2000/svg" xmlns:xlink="http://www.w3.org/1999/xlink" contentStyleType="text/css" height="1584px" preserveAspectRatio="none" style="width:1560px;height:1584px;background:#FFFFFF;" version="1.1" viewBox="0 0 1560 1584" width="1560px" zoomAndPan="magnify"><title>Processus Commande Materiel - Swimlanes (Etat ACTUEL)</title><defs/><g><text fill="#000000" font-family="Verdana" font-size="22" font-weight="bold" lengthAdjust="spacing" textLength="721.0371" x="418.2286" y="37.1182">Processus Commande Materiel - Swimlanes (Etat ACTUEL)</text><rect fill="#FFFFFF" height="21.876" style="stroke:#FFFFFF;stroke-width:1;" width="1537.4944" x="10" y="55.0166"/><rect fill="#FFC0CB" height="1522.7349" style="stroke:#FFC0CB;stroke-width:1;" width="577.1667" x="10" y="55.0166"/><ellipse cx="303.6282" cy="91.8926" fill="#FFFFFF" rx="10" ry="10" style="stroke:#000000;stroke-width:1;"/><path d="M407.1516,126.2849 L407.1516,135.1846 L387.1516,139.1846 L407.1516,143.1846 L407.1516,152.0842 A0,0 0 0 0 407.1516,152.0842 L552.8386,152.0842 A0,0 0 0 0 552.8386,152.0842 L552.8386,136.2849 L542.8386,126.2849 L407.1516,126.2849 A0,0 0 0 0 407.1516,126.2849 " fill="#FFFFFF" style="stroke:#000000;stroke-width:1;"/><path d="M542.8386,126.2849 L542.8386,136.2849 L552.8386,136.2849 L542.8386,126.2849 " fill="#FFFFFF" style="stroke:#000000;stroke-width:1;"/><text fill="#000000" font-family="Verdana" font-size="13" lengthAdjust="spacing" textLength="124.687" x="413.1516" y="144.3547">Cable 3G2.5 - 50m</text><rect fill="#FFFFFF" height="34.584" rx="12.5" ry="12.5" style="stroke:#000000;stroke-width:1;" width="167.0469" x="220.1047" y="121.8926"/><text fill="#000000" font-family="Verdana" font-size="12" lengthAdjust="spacing" textLength="147.0469" x="230.1047" y="143.957">Identifie besoin materiel</text><path d="M392.5032,180.8689 L392.5032,189.7686 L372.5032,193.7686 L392.5032,197.7686 L392.5032,206.6682 A0,0 0 0 0 392.5032,206.6682 L537.2444,206.6682 A0,0 0 0 0 537.2444,206.6682 L537.2444,190.8689 L527.2444,180.8689 L392.5032,180.8689 A0,0 0 0 0 392.5032,180.8689 " fill="#FFCCCC" style="stroke:#000000;stroke-width:1;"/><path d="M527.2444,180.8689 L527.2444,190.8689 L537.2444,190.8689 L527.2444,180.8689 " fill="#FFCCCC" style="stroke:#000000;stroke-width:1;"/><text fill="#000000" font-family="Verdana" font-size="13" lengthAdjust="spacing" textLength="123.7412" x="398.5032" y="198.9387">&#128308; 5 min recherche</text><rect fill="#FFFFFF" height="34.584" rx="12.5" ry="12.5" style="stroke:#000000;stroke-width:1;" width="137.75" x="234.7532" y="176.4766"/><text fill="#000000" font-family="Verdana" font-size="12" lengthAdjust="spacing" textLength="117.75" x="244.7532" y="198.541">Cherche bon papier</text><path d="M411.4319,235.4529 L411.4319,244.3525 L391.4319,248.3525 L411.4319,252.3525 L411.4319,261.2522 A0,0 0 0 0 411.4319,261.2522 L582.1667,261.2522 A0,0 0 0 0 582.1667,261.2522 L582.1667,245.4529 L572.1667,235.4529 L411.4319,235.4529 A0,0 0 0 0 411.4319,235.4529 " fill="#FFCCCC" style="stroke:#000000;stroke-width:1;"/><path d="M572.1667,235.4529 L572.1667,245.4529 L582.1667,245.4529 L572.1667,235.4529 " fill="#FFCCCC" style="stroke:#000000;stroke-width:1;"/><text fill="#000000" font-family="Verdana" font-size="13" lengthAdjust="spacing" textLength="149.7349" x="417.4319" y="253.5227">&#128308; Reference imprecise</text><rect fill="#FFFFFF" height="34.584" rx="12.5" ry="12.5" style="stroke:#000000;stroke-width:1;" width="175.6074" x="215.8245" y="231.0605"/><text fill="#000000" font-family="Verdana" font-size="12" lengthAdjust="spacing" textLength="155.6074" x="225.8245" y="253.125">Remplit &#224; la main (5 min)</text><path d="M400.2932,338.7212 L400.2932,347.6208 L380.2932,351.6208 L400.2932,355.6208 L400.2932,364.5205 A0,0 0 0 0 400.2932,364.5205 L541.2068,364.5205 A0,0 0 0 0 541.2068,364.5205 L541.2068,348.7212 L531.2068,338.7212 L400.2932,338.7212 A0,0 0 0 0 400.2932,338.7212 " fill="#FFCCCC" style="stroke:#000000;stroke-width:1;"/><path d="M531.2068,338.7212 L531.2068,348.7212 L541.2068,348.7212 L531.2068,338.7212 " fill="#FFCCCC" style="stroke:#000000;stroke-width:1;"/><text fill="#000000" font-family="Verdana" font-size="13" lengthAdjust="spacing" textLength="119.9136" x="406.2932" y="356.791">&#128308; 25 min perdues</text><rect fill="#FFFFFF" height="34.584" rx="12.5" ry="12.5" style="stroke:#000000;stroke-width:1;" width="153.3301" x="226.9631" y="334.3289"/><text fill="#000000" font-family="Verdana" font-size="12" lengthAdjust="spacing" textLength="133.3301" x="236.9631" y="356.3933">Attente + Rappel (x3)</text><rect fill="#FFFFFF" height="34.584" rx="12.5" ry="12.5" style="stroke:#000000;stroke-width:1;" width="130.0625" x="238.5969" y="1296.7876"/><text fill="#000000" font-family="Verdana" font-size="12" lengthAdjust="spacing" textLength="110.0625" x="248.5969" y="1318.8521">Recupere materiel</text><path d="M15,1341.3716 L15,1446.1675 L236.8081,1446.1675 L236.8081,1351.3716 L226.8081,1341.3716 L15,1341.3716 " fill="#FFFFFF" style="stroke:#000000;stroke-width:1;"/><path d="M226.8081,1341.3716 L226.8081,1351.3716 L236.8081,1351.3716 L226.8081,1341.3716 " fill="#FFFFFF" style="stroke:#000000;stroke-width:1;"/><text fill="#000000" font-family="Verdana" font-size="13" font-weight="bold" lengthAdjust="spacing" textLength="200.8081" x="21" y="1359.4414">STATISTIQUES PROCESSUS</text><text fill="#000000" font-family="Verdana" font-size="13" lengthAdjust="spacing" textLength="177.8105" x="21" y="1375.2407">&#9200; Duree moyenne: 3 jours</text><text fill="#000000" font-family="Verdana" font-size="13" lengthAdjust="spacing" textLength="143.2412" x="21" y="1391.04">&#9851;&#65039; Ressaisies: 7 fois</text><text fill="#000000" font-family="Verdana" font-size="13" lengthAdjust="spacing" textLength="135.2305" x="21" y="1406.8394">&#10060; Taux erreur: 50%</text><text fill="#000000" font-family="Verdana" font-size="13" lengthAdjust="spacing" textLength="165.4771" x="21" y="1422.6387">&#128222; Appels: 15/commande</text><text fill="#000000" font-family="Verdana" font-size="13" lengthAdjust="spacing" textLength="165.8008" x="21" y="1438.438">&#128176; Cout erreurs: 60K&#8364;/an</text><polygon fill="#FFFFFF" points="248.8081,1446.1675,358.4482,1446.1675,370.4482,1458.1675,358.4482,1470.1675,248.8081,1470.1675,236.8081,1458.1675,248.8081,1446.1675" style="stroke:#000000;stroke-width:1;"/><text fill="#000000" font-family="Verdana" font-size="11" lengthAdjust="spacing" textLength="109.6401" x="248.8081" y="1462.5422">Materiel conforme ?</text><text fill="#000000" font-family="Verdana" font-size="11" lengthAdjust="spacing" textLength="21.8657" x="214.9424" y="1455.8579">Non</text><text fill="#000000" font-family="Verdana" font-size="11" lengthAdjust="spacing" textLength="18.6377" x="370.4482" y="1455.8579">Oui</text><path d="M207.4287,1480.1675 L207.4287,1504.8665 L187.4287,1508.8665 L207.4287,1512.8665 L207.4287,1537.5654 A0,0 0 0 0 207.4287,1537.5654 L377.77,1537.5654 A0,0 0 0 0 377.77,1537.5654 L377.77,1490.1675 L367.77,1480.1675 L207.4287,1480.1675 A0,0 0 0 0 207.4287,1480.1675 " fill="#FF0000" style="stroke:#000000;stroke-width:1;"/><path d="M367.77,1480.1675 L367.77,1490.1675 L377.77,1490.1675 L367.77,1480.1675 " fill="#FF0000" style="stroke:#000000;stroke-width:1;"/><text fill="#000000" font-family="Verdana" font-size="13" lengthAdjust="spacing" textLength="149.3413" x="213.4287" y="1498.2373">&#128176; Cout erreur: 2,400&#8364;</text><text fill="#000000" font-family="Verdana" font-size="13" lengthAdjust="spacing" textLength="117.1523" x="213.4287" y="1514.0366">&#9200; Retard: 3 jours</text><text fill="#000000" font-family="Verdana" font-size="13" lengthAdjust="spacing" textLength="113.2422" x="213.4287" y="1529.8359">&#128557; Stress equipes</text><rect fill="#FF0000" height="34.584" rx="12.5" ry="12.5" style="stroke:#000000;stroke-width:1;" width="131.7734" x="55.6553" y="1491.5745"/><text fill="#000000" font-family="Verdana" font-size="12" lengthAdjust="spacing" textLength="111.7734" x="65.6553" y="1513.6389">&#10060; Chantier bloque</text><rect fill="#008000" height="34.584" rx="12.5" ry="12.5" style="stroke:#000000;stroke-width:1;" width="175.8887" x="397.77" y="1480.1675"/><text fill="#000000" font-family="Verdana" font-size="12" lengthAdjust="spacing" textLength="155.8887" x="407.77" y="1502.2319">&#9989; Fin (Chantier continue)</text><ellipse cx="485.7144" cy="1560.7515" fill="none" rx="11" ry="11" style="stroke:#000000;stroke-width:1;"/><ellipse cx="485.7144" cy="1560.7515" fill="#FFFFFF" rx="6" ry="6" style="stroke:#000000;stroke-width:1;"/><line style="stroke:#000000;stroke-width:1;" x1="10" x2="10" y1="55.0166" y2="1577.7515"/><rect fill="#ADD8E6" height="1522.7349" style="stroke:#ADD8E6;stroke-width:1;" width="425.5488" x="587.1667" y="55.0166"/><polygon fill="#FFFFFF" points="635.6797,285.6445,738.0796,285.6445,750.0796,297.6445,738.0796,309.6445,635.6797,309.6445,623.6797,297.6445,635.6797,285.6445" style="stroke:#000000;stroke-width:1;"/><text fill="#000000" font-family="Verdana" font-size="11" lengthAdjust="spacing" textLength="21.8657" x="690.8796" y="320.7036">Non</text><text fill="#000000" font-family="Verdana" font-size="11" lengthAdjust="spacing" textLength="102.3999" x="635.6797" y="302.0193">Sylvie disponible ?</text><text fill="#000000" font-family="Verdana" font-size="11" lengthAdjust="spacing" textLength="18.6377" x="750.0796" y="295.335">Oui</text><polygon fill="#FFFFFF" points="686.8796,388.9128,698.8796,400.9128,686.8796,412.9128,674.8796,400.9128,686.8796,388.9128" style="stroke:#000000;stroke-width:1;"/><rect fill="#FFFFFF" height="34.584" rx="12.5" ry="12.5" style="stroke:#000000;stroke-width:1;" width="93.8691" x="639.9451" y="432.9128"/><text fill="#000000" font-family="Verdana" font-size="12" lengthAdjust="spacing" textLength="73.8691" x="649.9451" y="454.9773">Re&#231;oit appel</text><path d="M790.5818,491.8892 L790.5818,500.7888 L770.5818,504.7888 L790.5818,508.7888 L790.5818,517.6885 A0,0 0 0 0 790.5818,517.6885 L970.1208,517.6885 A0,0 0 0 0 970.1208,517.6885 L970.1208,501.8892 L960.1208,491.8892 L790.5818,491.8892 A0,0 0 0 0 790.5818,491.8892 " fill="#FFFFFF" style="stroke:#000000;stroke-width:1;"/><path d="M960.1208,491.8892 L960.1208,501.8892 L970.1208,501.8892 L960.1208,491.8892 " fill="#FFFFFF" style="stroke:#000000;stroke-width:1;"/><text fill="#000000" font-family="Verdana" font-size="13" lengthAdjust="spacing" textLength="158.5391" x="796.5818" y="509.959">Base donnees chaotique</text><rect fill="#FFFFFF" height="34.584" rx="12.5" ry="12.5" style="stroke:#000000;stroke-width:1;" width="167.4043" x="603.1775" y="487.4968"/><text fill="#000000" font-family="Verdana" font-size="12" lengthAdjust="spacing" textLength="147.4043" x="613.1775" y="509.5613">Cherche dans Sage MDE</text><path d="M799.8982,590.7651 L799.8982,607.5645 L779.8982,611.5645 L799.8982,615.5645 L799.8982,632.3638 A0,0 0 0 0 799.8982,632.3638 L983.7156,632.3638 A0,0 0 0 0 983.7156,632.3638 L983.7156,600.7651 L973.7156,590.7651 L799.8982,590.7651 A0,0 0 0 0 799.8982,590.7651 " fill="#FFCCCC" style="stroke:#000000;stroke-width:1;"/><path d="M973.7156,590.7651 L973.7156,600.7651 L983.7156,600.7651 L973.7156,590.7651 " fill="#FFCCCC" style="stroke:#000000;stroke-width:1;"/><text fill="#000000" font-family="Verdana" font-size="13" lengthAdjust="spacing" textLength="162.8174" x="805.8982" y="608.835">&#128308; 12 variantes possibles</text><text fill="#000000" font-family="Verdana" font-size="13" lengthAdjust="spacing" textLength="123.4683" x="805.8982" y="624.6343">Risque erreur 50%</text><rect fill="#FFFFFF" height="34.584" rx="12.5" ry="12.5" style="stroke:#000000;stroke-width:1;" width="186.0371" x="593.8611" y="594.2725"/><text fill="#000000" font-family="Verdana" font-size="12" lengthAdjust="spacing" textLength="166.0371" x="603.8611" y="616.3369">Choisit reference au hasard</text><polygon fill="#FFFFFF" points="631.3157,542.0808,742.4436,542.0808,754.4436,554.0808,742.4436,566.0808,631.3157,566.0808,619.3157,554.0808,631.3157,542.0808" style="stroke:#000000;stroke-width:1;"/><text fill="#000000" font-family="Verdana" font-size="11" lengthAdjust="spacing" textLength="57.5728" x="690.8796" y="577.1399">Non / Flou</text><text fill="#000000" font-family="Verdana" font-size="11" lengthAdjust="spacing" textLength="111.1279" x="631.3157" y="558.4556">Reference trouvee ?</text><text fill="#000000" font-family="Verdana" font-size="11" lengthAdjust="spacing" textLength="18.6377" x="754.4436" y="551.7712">Oui</text><polygon fill="#FFFFFF" points="686.8796,652.3638,698.8796,664.3638,686.8796,676.3638,674.8796,664.3638,686.8796,652.3638" style="stroke:#000000;stroke-width:1;"/><path d="M800.5925,700.7561 L800.5925,709.6558 L780.5925,713.6558 L800.5925,717.6558 L800.5925,726.5554 A0,0 0 0 0 800.5925,726.5554 L970.6165,726.5554 A0,0 0 0 0 970.6165,726.5554 L970.6165,710.7561 L960.6165,700.7561 L800.5925,700.7561 A0,0 0 0 0 800.5925,700.7561 " fill="#FFCCCC" style="stroke:#000000;stroke-width:1;"/><path d="M960.6165,700.7561 L960.6165,710.7561 L970.6165,710.7561 L960.6165,700.7561 " fill="#FFCCCC" style="stroke:#000000;stroke-width:1;"/><text fill="#000000" font-family="Verdana" font-size="13" lengthAdjust="spacing" textLength="149.0239" x="806.5925" y="718.8259">&#128308; Donnees eparpillees</text><rect fill="#FFFFFF" height="34.584" rx="12.5" ry="12.5" style="stroke:#000000;stroke-width:1;" width="187.4258" x="593.1667" y="696.3638"/><text fill="#000000" font-family="Verdana" font-size="12" lengthAdjust="spacing" textLength="167.4258" x="603.1667" y="718.4282">Cherche fournisseur (Excel)</text><path d="M774.7439,755.3401 L774.7439,764.2397 L754.7439,768.2397 L774.7439,772.2397 L774.7439,781.1394 A0,0 0 0 0 774.7439,781.1394 L988.865,781.1394 A0,0 0 0 0 988.865,781.1394 L988.865,765.3401 L978.865,755.3401 L774.7439,755.3401 A0,0 0 0 0 774.7439,755.3401 " fill="#FFCCCC" style="stroke:#000000;stroke-width:1;"/><path d="M978.865,755.3401 L978.865,765.3401 L988.865,765.3401 L978.865,755.3401 " fill="#FFCCCC" style="stroke:#000000;stroke-width:1;"/><text fill="#000000" font-family="Verdana" font-size="13" lengthAdjust="spacing" textLength="193.1211" x="780.7439" y="773.4099">&#128308; Pas de commande en ligne</text><rect fill="#FFFFFF" height="34.584" rx="12.5" ry="12.5" style="stroke:#000000;stroke-width:1;" width="135.7285" x="619.0154" y="750.9478"/><text fill="#000000" font-family="Verdana" font-size="12" lengthAdjust="spacing" textLength="115.7285" x="629.0154" y="773.0122">Appelle fournisseur</text><path d="M795.3982,809.9241 L795.3982,818.8237 L775.3982,822.8237 L795.3982,826.8237 L795.3982,835.7234 A0,0 0 0 0 795.3982,835.7234 L917.2307,835.7234 A0,0 0 0 0 917.2307,835.7234 L917.2307,819.9241 L907.2307,809.9241 L795.3982,809.9241 A0,0 0 0 0 795.3982,809.9241 " fill="#FFCCCC" style="stroke:#000000;stroke-width:1;"/><path d="M907.2307,809.9241 L907.2307,819.9241 L917.2307,819.9241 L907.2307,809.9241 " fill="#FFCCCC" style="stroke:#000000;stroke-width:1;"/><text fill="#000000" font-family="Verdana" font-size="13" lengthAdjust="spacing" textLength="100.8325" x="801.3982" y="827.9939">&#128308; Ressaisie #4</text><rect fill="#FFFFFF" height="34.584" rx="12.5" ry="12.5" style="stroke:#000000;stroke-width:1;" width="177.0371" x="598.3611" y="805.5317"/><text fill="#000000" font-family="Verdana" font-size="12" lengthAdjust="spacing" textLength="157.0371" x="608.3611" y="827.5962">Envoie Email confirmation</text><path d="M766.8689,864.5081 L766.8689,873.4077 L746.8689,877.4077 L766.8689,881.4077 L766.8689,890.3074 A0,0 0 0 0 766.8689,890.3074 L888.7014,890.3074 A0,0 0 0 0 888.7014,890.3074 L888.7014,874.5081 L878.7014,864.5081 L766.8689,864.5081 A0,0 0 0 0 766.8689,864.5081 " fill="#FFCCCC" style="stroke:#000000;stroke-width:1;"/><path d="M878.7014,864.5081 L878.7014,874.5081 L888.7014,874.5081 L878.7014,864.5081 " fill="#FFCCCC" style="stroke:#000000;stroke-width:1;"/><text fill="#000000" font-family="Verdana" font-size="13" lengthAdjust="spacing" textLength="100.8325" x="772.8689" y="882.5779">&#128308; Ressaisie #5</text><rect fill="#FFFFFF" height="34.584" rx="12.5" ry="12.5" style="stroke:#000000;stroke-width:1;" width="119.9785" x="626.8904" y="860.1157"/><text fill="#000000" font-family="Verdana" font-size="12" lengthAdjust="spacing" textLength="99.9785" x="636.8904" y="882.1802">Saisit dans Sage</text><path d="M784.3943,919.092 L784.3943,927.9917 L764.3943,931.9917 L784.3943,935.9917 L784.3943,944.8914 A0,0 0 0 0 784.3943,944.8914 L906.2268,944.8914 A0,0 0 0 0 906.2268,944.8914 L906.2268,929.092 L896.2268,919.092 L784.3943,919.092 A0,0 0 0 0 784.3943,919.092 " fill="#FFCCCC" style="stroke:#000000;stroke-width:1;"/><path d="M896.2268,919.092 L896.2268,929.092 L906.2268,929.092 L896.2268,919.092 " fill="#FFCCCC" style="stroke:#000000;stroke-width:1;"/><text fill="#000000" font-family="Verdana" font-size="13" lengthAdjust="spacing" textLength="100.8325" x="790.3943" y="937.1619">&#128308; Ressaisie #6</text><rect fill="#FFFFFF" height="34.584" rx="12.5" ry="12.5" style="stroke:#000000;stroke-width:1;" width="155.0293" x="609.365" y="914.6997"/><text fill="#000000" font-family="Verdana" font-size="12" lengthAdjust="spacing" textLength="135.0293" x="619.365" y="936.7642">Saisit dans Excel Suivi</text><line style="stroke:#000000;stroke-width:1;" x1="587.1667" x2="587.1667" y1="55.0166" y2="1577.7515"/><rect fill="#FFFFFF" height="34.584" rx="12.5" ry="12.5" style="stroke:#000000;stroke-width:1;" width="125.416" x="1018.7156" y="969.2837"/><text fill="#000000" font-family="Verdana" font-size="12" lengthAdjust="spacing" textLength="105.416" x="1028.7156" y="991.3481">Traite commande</text><rect fill="#FFFFFF" height="34.584" rx="12.5" ry="12.5" style="stroke:#000000;stroke-width:1;" width="119.7676" x="1021.5398" y="1023.8677"/><text fill="#000000" font-family="Verdana" font-size="12" lengthAdjust="spacing" textLength="99.7676" x="1031.5398" y="1045.9321">Livre (2-3 jours)</text><line style="stroke:#000000;stroke-width:1;" x1="1012.7156" x2="1012.7156" y1="55.0166" y2="1577.7515"/><rect fill="#FFFFE0" height="1522.7349" style="stroke:#FFFFE0;stroke-width:1;" width="397.1987" x="1148.1316" y="55.0166"/><rect fill="#FFFFFF" height="34.584" rx="12.5" ry="12.5" style="stroke:#000000;stroke-width:1;" width="148.666" x="1169.9197" y="1078.4517"/><text fill="#000000" font-family="Verdana" font-size="12" lengthAdjust="spacing" textLength="128.666" x="1179.9197" y="1100.5161">Receptionne livraison</text><path d="M1336.8923,1137.428 L1336.8923,1146.3276 L1316.8923,1150.3276 L1336.8923,1154.3276 L1336.8923,1163.2273 A0,0 0 0 0 1336.8923,1163.2273 L1540.3303,1163.2273 A0,0 0 0 0 1540.3303,1163.2273 L1540.3303,1147.428 L1530.3303,1137.428 L1336.8923,1137.428 A0,0 0 0 0 1336.8923,1137.428 " fill="#FFCCCC" style="stroke:#000000;stroke-width:1;"/><path d="M1530.3303,1137.428 L1530.3303,1147.428 L1540.3303,1147.428 L1530.3303,1137.428 " fill="#FFCCCC" style="stroke:#000000;stroke-width:1;"/><text fill="#000000" font-family="Verdana" font-size="13" lengthAdjust="spacing" textLength="182.438" x="1342.8923" y="1155.4978">&#128308; Incompatibilite frequente</text><rect fill="#FFFFFF" height="34.584" rx="12.5" ry="12.5" style="stroke:#000000;stroke-width:1;" width="145.2793" x="1171.613" y="1133.0356"/><text fill="#000000" font-family="Verdana" font-size="12" lengthAdjust="spacing" textLength="125.2793" x="1181.613" y="1155.1001">Verifie nomenclature</text><path d="M1342.7517,1192.012 L1342.7517,1200.9116 L1322.7517,1204.9116 L1342.7517,1208.9116 L1342.7517,1217.8113 A0,0 0 0 0 1342.7517,1217.8113 L1458.3064,1217.8113 A0,0 0 0 0 1458.3064,1217.8113 L1458.3064,1202.012 L1448.3064,1192.012 L1342.7517,1192.012 A0,0 0 0 0 1342.7517,1192.012 " fill="#FFCCCC" style="stroke:#000000;stroke-width:1;"/><path d="M1448.3064,1192.012 L1448.3064,1202.012 L1458.3064,1202.012 L1448.3064,1192.012 " fill="#FFCCCC" style="stroke:#000000;stroke-width:1;"/><text fill="#000000" font-family="Verdana" font-size="13" lengthAdjust="spacing" textLength="94.5547" x="1348.7517" y="1210.0818">&#128308; Pas de scan</text><rect fill="#FFFFFF" height="34.584" rx="12.5" ry="12.5" style="stroke:#000000;stroke-width:1;" width="156.998" x="1165.7537" y="1187.6196"/><text fill="#000000" font-family="Verdana" font-size="12" lengthAdjust="spacing" textLength="136.998" x="1175.7537" y="1209.6841">Compte manuellement</text><path d="M1354.3738,1246.5959 L1354.3738,1255.4956 L1334.3738,1259.4956 L1354.3738,1263.4956 L1354.3738,1272.3953 A0,0 0 0 0 1354.3738,1272.3953 L1538.1213,1272.3953 A0,0 0 0 0 1538.1213,1272.3953 L1538.1213,1256.5959 L1528.1213,1246.5959 L1354.3738,1246.5959 A0,0 0 0 0 1354.3738,1246.5959 " fill="#FFCCCC" style="stroke:#000000;stroke-width:1;"/><path d="M1528.1213,1246.5959 L1528.1213,1256.5959 L1538.1213,1256.5959 L1528.1213,1246.5959 " fill="#FFCCCC" style="stroke:#000000;stroke-width:1;"/><text fill="#000000" font-family="Verdana" font-size="13" lengthAdjust="spacing" textLength="162.7476" x="1360.3738" y="1264.6658">&#128308; Ressaisie #7 (20 min)</text><rect fill="#FFFFFF" height="34.584" rx="12.5" ry="12.5" style="stroke:#000000;stroke-width:1;" width="180.2422" x="1154.1316" y="1242.2036"/><text fill="#000000" font-family="Verdana" font-size="12" lengthAdjust="spacing" textLength="160.2422" x="1164.1316" y="1264.2681">Saisit reception dans Sage</text><line style="stroke:#000000;stroke-width:1;" x1="1148.1316" x2="1148.1316" y1="55.0166" y2="1577.7515"/><line style="stroke:#000000;stroke-width:1;" x1="1545.3303" x2="1545.3303" y1="55.0166" y2="1577.7515"/><line style="stroke:#000000;stroke-width:1;" x1="303.6282" x2="303.6282" y1="101.8926" y2="121.8926"/><polygon fill="#000000" points="299.6282,111.8926,303.6282,121.8926,307.6282,111.8926,303.6282,115.8926" style="stroke:#000000;stroke-width:1;"/><line style="stroke:#000000;stroke-width:1;" x1="303.6282" x2="303.6282" y1="156.4766" y2="176.4766"/><polygon fill="#000000" points="299.6282,166.4766,303.6282,176.4766,307.6282,166.4766,303.6282,170.4766" style="stroke:#000000;stroke-width:1;"/><line style="stroke:#000000;stroke-width:1;" x1="303.6282" x2="303.6282" y1="211.0605" y2="231.0605"/><polygon fill="#000000" points="299.6282,221.0605,303.6282,231.0605,307.6282,221.0605,303.6282,225.0605" style="stroke:#000000;stroke-width:1;"/><line style="stroke:#000000;stroke-width:1;" x1="485.7144" x2="485.7144" y1="1514.7515" y2="1549.7515"/><polygon fill="#000000" points="481.7144,1539.7515,485.7144,1549.7515,489.7144,1539.7515,485.7144,1543.7515" style="stroke:#000000;stroke-width:1;"/><line style="stroke:#000000;stroke-width:1;" x1="236.8081" x2="121.542" y1="1458.1675" y2="1458.1675"/><line style="stroke:#000000;stroke-width:1;" x1="121.542" x2="121.542" y1="1458.1675" y2="1491.5745"/><polygon fill="#000000" points="117.542,1481.5745,121.542,1491.5745,125.542,1481.5745,121.542,1485.5745" style="stroke:#000000;stroke-width:1;"/><line style="stroke:#000000;stroke-width:1;" x1="370.4482" x2="485.7144" y1="1458.1675" y2="1458.1675"/><line style="stroke:#000000;stroke-width:1;" x1="485.7144" x2="485.7144" y1="1458.1675" y2="1480.1675"/><polygon fill="#000000" points="481.7144,1470.1675,485.7144,1480.1675,489.7144,1470.1675,485.7144,1474.1675" style="stroke:#000000;stroke-width:1;"/><line style="stroke:#000000;stroke-width:1;" x1="303.6282" x2="303.6282" y1="1331.3716" y2="1446.1675"/><polygon fill="#000000" points="299.6282,1436.1675,303.6282,1446.1675,307.6282,1436.1675,303.6282,1440.1675" style="stroke:#000000;stroke-width:1;"/><line style="stroke:#000000;stroke-width:1;" x1="750.0796" x2="934.4583" y1="297.6445" y2="297.6445"/><polygon fill="#000000" points="930.4583,341.6208,934.4583,351.6208,938.4583,341.6208,934.4583,345.6208" style="stroke:#000000;stroke-width:1;"/><line style="stroke:#000000;stroke-width:1;" x1="934.4583" x2="934.4583" y1="297.6445" y2="400.9128"/><line style="stroke:#000000;stroke-width:1;" x1="934.4583" x2="698.8796" y1="400.9128" y2="400.9128"/><polygon fill="#000000" points="708.8796,396.9128,698.8796,400.9128,708.8796,404.9128,704.8796,400.9128" style="stroke:#000000;stroke-width:1;"/><line style="stroke:#000000;stroke-width:1;" x1="686.8796" x2="686.8796" y1="412.9128" y2="432.9128"/><polygon fill="#000000" points="682.8796,422.9128,686.8796,432.9128,690.8796,422.9128,686.8796,426.9128" style="stroke:#000000;stroke-width:1;"/><line style="stroke:#000000;stroke-width:1;" x1="686.8796" x2="686.8796" y1="467.4968" y2="487.4968"/><polygon fill="#000000" points="682.8796,477.4968,686.8796,487.4968,690.8796,477.4968,686.8796,481.4968" style="stroke:#000000;stroke-width:1;"/><line style="stroke:#000000;stroke-width:1;" x1="686.8796" x2="686.8796" y1="566.0808" y2="594.2725"/><polygon fill="#000000" points="682.8796,584.2725,686.8796,594.2725,690.8796,584.2725,686.8796,588.2725" style="stroke:#000000;stroke-width:1;"/><line style="stroke:#000000;stroke-width:1;" x1="754.4436" x2="993.7156" y1="554.0808" y2="554.0808"/><polygon fill="#000000" points="989.7156,601.5645,993.7156,611.5645,997.7156,601.5645,993.7156,605.5645" style="stroke:#000000;stroke-width:1;"/><line style="stroke:#000000;stroke-width:1;" x1="993.7156" x2="993.7156" y1="554.0808" y2="664.3638"/><line style="stroke:#000000;stroke-width:1;" x1="993.7156" x2="698.8796" y1="664.3638" y2="664.3638"/><polygon fill="#000000" points="708.8796,660.3638,698.8796,664.3638,708.8796,668.3638,704.8796,664.3638" style="stroke:#000000;stroke-width:1;"/><line style="stroke:#000000;stroke-width:1;" x1="686.8796" x2="686.8796" y1="628.8564" y2="652.3638"/><polygon fill="#000000" points="682.8796,642.3638,686.8796,652.3638,690.8796,642.3638,686.8796,646.3638" style="stroke:#000000;stroke-width:1;"/><line style="stroke:#000000;stroke-width:1;" x1="686.8796" x2="686.8796" y1="522.0808" y2="542.0808"/><polygon fill="#000000" points="682.8796,532.0808,686.8796,542.0808,690.8796,532.0808,686.8796,536.0808" style="stroke:#000000;stroke-width:1;"/><line style="stroke:#000000;stroke-width:1;" x1="686.8796" x2="686.8796" y1="676.3638" y2="696.3638"/><polygon fill="#000000" points="682.8796,686.3638,686.8796,696.3638,690.8796,686.3638,686.8796,690.3638" style="stroke:#000000;stroke-width:1;"/><line style="stroke:#000000;stroke-width:1;" x1="686.8796" x2="686.8796" y1="730.9478" y2="750.9478"/><polygon fill="#000000" points="682.8796,740.9478,686.8796,750.9478,690.8796,740.9478,686.8796,744.9478" style="stroke:#000000;stroke-width:1;"/><line style="stroke:#000000;stroke-width:1;" x1="686.8796" x2="686.8796" y1="785.5317" y2="805.5317"/><polygon fill="#000000" points="682.8796,795.5317,686.8796,805.5317,690.8796,795.5317,686.8796,799.5317" style="stroke:#000000;stroke-width:1;"/><line style="stroke:#000000;stroke-width:1;" x1="686.8796" x2="686.8796" y1="840.1157" y2="860.1157"/><polygon fill="#000000" points="682.8796,850.1157,686.8796,860.1157,690.8796,850.1157,686.8796,854.1157" style="stroke:#000000;stroke-width:1;"/><line style="stroke:#000000;stroke-width:1;" x1="686.8796" x2="686.8796" y1="894.6997" y2="914.6997"/><polygon fill="#000000" points="682.8796,904.6997,686.8796,914.6997,690.8796,904.6997,686.8796,908.6997" style="stroke:#000000;stroke-width:1;"/><line style="stroke:#000000;stroke-width:1;" x1="1081.4236" x2="1081.4236" y1="1003.8677" y2="1023.8677"/><polygon fill="#000000" points="1077.4236,1013.8677,1081.4236,1023.8677,1085.4236,1013.8677,1081.4236,1017.8677" style="stroke:#000000;stroke-width:1;"/><line style="stroke:#000000;stroke-width:1;" x1="1244.2527" x2="1244.2527" y1="1113.0356" y2="1133.0356"/><polygon fill="#000000" points="1240.2527,1123.0356,1244.2527,1133.0356,1248.2527,1123.0356,1244.2527,1127.0356" style="stroke:#000000;stroke-width:1;"/><line style="stroke:#000000;stroke-width:1;" x1="1244.2527" x2="1244.2527" y1="1167.6196" y2="1187.6196"/><polygon fill="#000000" points="1240.2527,1177.6196,1244.2527,1187.6196,1248.2527,1177.6196,1244.2527,1181.6196" style="stroke:#000000;stroke-width:1;"/><line style="stroke:#000000;stroke-width:1;" x1="1244.2527" x2="1244.2527" y1="1222.2036" y2="1242.2036"/><polygon fill="#000000" points="1240.2527,1232.2036,1244.2527,1242.2036,1248.2527,1232.2036,1244.2527,1236.2036" style="stroke:#000000;stroke-width:1;"/><line style="stroke:#000000;stroke-width:1;" x1="686.8796" x2="686.8796" y1="309.6445" y2="321.9867"/><line style="stroke:#000000;stroke-width:1;" x1="686.8796" x2="303.6282" y1="321.9867" y2="321.9867"/><line style="stroke:#000000;stroke-width:1;" x1="303.6282" x2="303.6282" y1="321.9867" y2="334.3289"/><polygon fill="#000000" points="299.6282,324.3289,303.6282,334.3289,307.6282,324.3289,303.6282,328.3289" style="stroke:#000000;stroke-width:1;"/><line style="stroke:#000000;stroke-width:1;" x1="303.6282" x2="303.6282" y1="368.9128" y2="376.5707"/><line style="stroke:#000000;stroke-width:1;" x1="303.6282" x2="686.8796" y1="376.5707" y2="376.5707"/><line style="stroke:#000000;stroke-width:1;" x1="686.8796" x2="686.8796" y1="376.5707" y2="388.9128"/><polygon fill="#000000" points="682.8796,378.9128,686.8796,388.9128,690.8796,378.9128,686.8796,382.9128" style="stroke:#000000;stroke-width:1;"/><line style="stroke:#000000;stroke-width:1;" x1="303.6282" x2="303.6282" y1="265.6445" y2="270.6445"/><line style="stroke:#000000;stroke-width:1;" x1="303.6282" x2="686.8796" y1="270.6445" y2="270.6445"/><line style="stroke:#000000;stroke-width:1;" x1="686.8796" x2="686.8796" y1="270.6445" y2="285.6445"/><polygon fill="#000000" points="682.8796,275.6445,686.8796,285.6445,690.8796,275.6445,686.8796,279.6445" style="stroke:#000000;stroke-width:1;"/><line style="stroke:#000000;stroke-width:1;" x1="686.8796" x2="686.8796" y1="949.2837" y2="954.2837"/><line style="stroke:#000000;stroke-width:1;" x1="686.8796" x2="1081.4236" y1="954.2837" y2="954.2837"/><line style="stroke:#000000;stroke-width:1;" x1="1081.4236" x2="1081.4236" y1="954.2837" y2="969.2837"/><polygon fill="#000000" points="1077.4236,959.2837,1081.4236,969.2837,1085.4236,959.2837,1081.4236,963.2837" style="stroke:#000000;stroke-width:1;"/><line style="stroke:#000000;stroke-width:1;" x1="1081.4236" x2="1081.4236" y1="1058.4517" y2="1063.4517"/><line style="stroke:#000000;stroke-width:1;" x1="1081.4236" x2="1244.2527" y1="1063.4517" y2="1063.4517"/><line style="stroke:#000000;stroke-width:1;" x1="1244.2527" x2="1244.2527" y1="1063.4517" y2="1078.4517"/><polygon fill="#000000" points="1240.2527,1068.4517,1244.2527,1078.4517,1248.2527,1068.4517,1244.2527,1072.4517" style="stroke:#000000;stroke-width:1;"/><line style="stroke:#000000;stroke-width:1;" x1="1244.2527" x2="1244.2527" y1="1276.7876" y2="1281.7876"/><line style="stroke:#000000;stroke-width:1;" x1="1244.2527" x2="303.6282" y1="1281.7876" y2="1281.7876"/><line style="stroke:#000000;stroke-width:1;" x1="303.6282" x2="303.6282" y1="1281.7876" y2="1296.7876"/><polygon fill="#000000" points="299.6282,1286.7876,303.6282,1296.7876,307.6282,1286.7876,303.6282,1290.7876" style="stroke:#000000;stroke-width:1;"/><text fill="#000000" font-family="Verdana" font-size="18" lengthAdjust="spacing" textLength="142.3125" x="227.4271" y="73.1133">Marc (Chantier)</text><text fill="#000000" font-family="Verdana" font-size="18" lengthAdjust="spacing" textLength="141.2227" x="729.3298" y="73.1133">Sylvie (Bureau)</text><text fill="#000000" font-family="Verdana" font-size="18" lengthAdjust="spacing" textLength="105.2227" x="1027.8123" y="73.1133">Fournisseur</text><text fill="#000000" font-family="Verdana" font-size="18" lengthAdjust="spacing" textLength="109.8809" x="1291.7905" y="73.1133">Eric (Depot)</text><!--SRC=[bLHDRnn54BtFhoXaHTer16_MsKIQ792zdeqi769sraYHV6dFr7WRUhg7xfwD8-q9YHjI9E004X1kN18f1mwHSim_yHz8Va9UZ_V3guKbp6dKtLNrtgjNzP4VSybKAI5rvALNJCVMPEnSxQXlobBedEc1y6mbAxf9wMDPAg7PKIlnmjDUVtII7BMZQBfrBFKtqmV2PjJgZuNsacrx6Zalh8_YmvnnKaYcCtP6QYfdEUz5sdWcAy_7FgQ-E0E4tVlTJtierkkKKTmViyt6Y3EQAb4Xw_KGsXeC-lXYUlVivx-fHoLoMywkWg9uo6MbfAStVv8IA8hRLlEelI7Ba0ksh3CcMLP89Xq7WaVXwRwgUPe-KHDGQUtNbaKDbhAWrkmmbwuoMWOUdxK9-gBY5qQt8w9rTOZYFUyX3TF7D1HL1P5R5xi0H_IlyBfNB2ksUSqkOkK0vM4jsn7hN1Q0keOFEhpvoq27fiIzfQgvq8vISOuc7oIhlTWNo9iRhHdTpiR2UFbj3I42rwL2tffwmgjSQOS6ojI1CWePwL3OBY94JMFXXCqtahpLfOcm4agXUcMS2ugwKpsK3YY8hUNQmY4t_e7_WbrXQgkbS-5fAxd8M6rg-y6CArV2Lb8f_4VnNX1ChQJQaE9OECB0PFF9WI1AdciOCT4JWvOaiA32lIwanGX8epVwq3a1zPYsRaTnAXeX5ntxiC3UQc0Z0gMrdCWFYxy3EmsMt66baHNIBpd2J4ToOj62xirT-XfF7KIUZyiZY6SUJnChOVm3heo_ScF6LI2l6VfCaD058UAli1B2Zj2cX5MKyF3l1fY76Y0gg7WcLO1KM8Otu1Wu01Su0S8wj0_f_7-tpML2B-IoSup_L_6xKABJh1Yei3RnWNkDqULh6x0PgSMI3UOmjbnV7rj3pkFBtt-WUJewKmQ4r-UeWm-716m_liGUh_riO6BgVdAxqxdyxdbpVVdq9P1ZG-SnpNet2_lb1QNUWXH1KbbnECTqDNNmcoCe6ryVFS2xRvbrVFdRzpG8QtQ14eIyH1-QhUQygUPpMYY3vkdpA_IA2soTxUrqj3SwJ4U7NvuaAHqF7_QJD3r9jxTFTO1x04j0E_E4OPu5Qjpz-lhjgwVBFhYOxc9ePRY2P2DHNomqmDOurU-U_VG7DTEDfxTwEtC_XvjLqN1_f_CvDDk1FTu3]--></g></svg>