<svg xmlns="http://www.w3.org/2000/svg" xmlns:xlink="http://www.w3.org/1999/xlink" contentStyleType="text/css" height="1755px" preserveAspectRatio="none" style="width:1186px;height:1755px;background:#FFFFFF;" version="1.1" viewBox="0 0 1186 1755" width="1186px" zoomAndPan="magnify"><title>Architecture Systeme ACTUELLE - "Le Chaos Organise"</title><defs/><g><text fill="#000000" font-family="Verdana" font-size="22" font-weight="bold" lengthAdjust="spacing" textLength="677.6064" x="249.9774" y="37.1182">Architecture Systeme ACTUELLE - "Le Chaos Organise"</text><!--cluster Chantier--><g id="cluster_Chantier"><polygon fill="#FFC0CB" points="635.8,68.7373,645.8,58.7373,849.8,58.7373,849.8,397.2373,839.8,407.2373,635.8,407.2373,635.8,68.7373" style="stroke:#000000;stroke-width:1;"/><line style="stroke:#000000;stroke-width:1;" x1="839.8" x2="849.8" y1="68.7373" y2="58.7373"/><line style="stroke:#000000;stroke-width:1;" x1="635.8" x2="839.8" y1="68.7373" y2="68.7373"/><line style="stroke:#000000;stroke-width:1;" x1="839.8" x2="839.8" y1="68.7373" y2="407.2373"/><text fill="#000000" font-family="Verdana" font-size="14" font-weight="bold" lengthAdjust="spacing" textLength="138.3867" x="669.6066" y="85.8125">Chantier (Mobile)</text></g><!--cluster Bureau--><g id="cluster_Bureau"><polygon fill="#ADD8E6" points="423.8,492.2373,433.8,482.2373,856.8,482.2373,856.8,905.2373,846.8,915.2373,423.8,915.2373,423.8,492.2373" style="stroke:#000000;stroke-width:1;"/><line style="stroke:#000000;stroke-width:1;" x1="846.8" x2="856.8" y1="492.2373" y2="482.2373"/><line style="stroke:#000000;stroke-width:1;" x1="423.8" x2="846.8" y1="492.2373" y2="492.2373"/><line style="stroke:#000000;stroke-width:1;" x1="846.8" x2="846.8" y1="492.2373" y2="915.2373"/><text fill="#000000" font-family="Verdana" font-size="14" font-weight="bold" lengthAdjust="spacing" textLength="141.832" x="565.384" y="509.3125">Bureau Albertville</text></g><!--cluster PosteSylvie--><g id="cluster_PosteSylvie"><polygon fill="#FFFFFF" points="471.8,755.2373,481.8,745.2373,832.8,745.2373,832.8,881.2373,822.8,891.2373,471.8,891.2373,471.8,755.2373" style="stroke:#000000;stroke-width:1;"/><line style="stroke:#000000;stroke-width:1;" x1="822.8" x2="832.8" y1="755.2373" y2="745.2373"/><line style="stroke:#000000;stroke-width:1;" x1="471.8" x2="822.8" y1="755.2373" y2="755.2373"/><line style="stroke:#000000;stroke-width:1;" x1="822.8" x2="822.8" y1="755.2373" y2="891.2373"/><text fill="#000000" font-family="Verdana" font-size="14" font-weight="bold" lengthAdjust="spacing" textLength="95.6621" x="600.4689" y="772.3125">Poste Sylvie</text></g><!--cluster Depot--><g id="cluster_Depot"><polygon fill="#FFFFE0" points="349.8,1179.2373,359.8,1169.2373,552.8,1169.2373,552.8,1599.2373,542.8,1609.2373,349.8,1609.2373,349.8,1179.2373" style="stroke:#000000;stroke-width:1;"/><line style="stroke:#000000;stroke-width:1;" x1="542.8" x2="552.8" y1="1179.2373" y2="1169.2373"/><line style="stroke:#000000;stroke-width:1;" x1="349.8" x2="542.8" y1="1179.2373" y2="1179.2373"/><line style="stroke:#000000;stroke-width:1;" x1="542.8" x2="542.8" y1="1179.2373" y2="1609.2373"/><text fill="#000000" font-family="Verdana" font-size="14" font-weight="bold" lengthAdjust="spacing" textLength="108.9443" x="392.8278" y="1196.3125">Depot Annecy</text></g><!--cluster CloudFourn--><g id="cluster_CloudFourn"><path d="M191.8313,750.8791 C200.4355,735.264 210.248,738.7996 219.9075,749.7645 C228.8022,735.8034 240.1291,733.6251 251.2616,747.2182 C257.8249,735.3378 266.4078,732.2064 276.8293,742.8358 C287.4708,729.1047 297.3291,732.3578 305.136,745.7898 C315.5223,731.9849 327.0482,732.3364 336.1608,747.1696 C348.6406,734.9539 362.4354,739.5494 367.8,755.2373 C369.8213,754.0037 371.6058,755.3157 371.6367,757.4829 C382.5854,766.8614 381.6696,774.7038 370.2208,782.8313 C381.4607,786.1052 381.9282,795.3738 374.1451,802.4524 C385.9806,807.7489 387.7072,819.8707 376.1721,827.0899 C385.5568,833.8102 387.4545,841.325 377.4966,849.2038 C386.7938,858.7297 389.6046,867.1676 375.0055,874.3237 C386.8866,878.7994 389.9746,886.7297 380.0238,896.211 C390.7548,903.0603 392.1819,912.922 381.4891,921.036 C390.981,929.5332 389.7458,938.2684 378.1804,943.69 C386.0093,951.8865 385.3323,959.2307 375.4823,965.2108 C388.0603,972.5082 386.8435,981.5229 375.4777,988.8156 C385.067,997.7293 384.8276,1006.8622 371.8887,1012.3388 C383.5443,1017.9947 382.1254,1029.0147 372.9996,1035.6605 C384.5066,1044.7827 381.2489,1054.8594 369.2972,1060.4826 C379.86,1074.1011 377.0483,1082.8272 360.8,1088.2373 C361.5444,1087.0493 362.6829,1087.031 363.2646,1088.3944 C356.6428,1104.0882 346.5951,1103.237 335.6445,1093.0064 C327.1738,1108.4708 316.8791,1105.8921 307.8277,1093.5882 C298.7956,1107.8144 290.0285,1112.0829 277.5101,1097.2221 C268.2597,1111.5406 256.952,1107.9123 249.1265,1095.6978 C240.7413,1108.7768 228.578,1105.6167 223.1614,1092.7293 C208.2557,1106.8121 188.452,1102.2746 183.8,1081.2373 C185.5649,1080.1778 187.0232,1081.1233 186.8324,1083.1555 C176.7555,1076.495 173.9044,1069.6716 184.4979,1060.8479 C175.3261,1053.3759 175.6951,1045.9325 184.6794,1038.6086 C173.1126,1031.2393 173.5223,1023.6702 183.4517,1015.1747 C172.3411,1006.7603 173.0631,994.8109 186.8802,989.759 C176.1279,984.0433 177.7976,975.2234 186.3793,969.0402 C174.8147,961.6673 171.0703,950.9863 185.2343,942.5034 C175.7399,937.9794 173.9999,927.4709 183.0744,921.0752 C173.3689,913.8896 174.8759,902.9564 185.7935,898.225 C171.7012,893.1287 171.2066,880.6852 182.9176,872.6836 C171.9493,864.6381 172.0332,857.3782 183.1308,849.536 C175.0344,841.2441 175.4319,832.6423 186.8013,827.6089 C172.7859,819.0188 175.2472,811.0388 186.2872,801.9468 C174.6526,794.8605 175.3569,786.7116 186.8846,780.2634 C171.5447,769.9357 174.7926,754.7326 190.8,748.2373 C192.175,748.4869 192.9134,749.6704 191.8313,750.8791 " fill="#D3D3D3" style="stroke:#000000;stroke-width:1;"/><text fill="#000000" font-family="Verdana" font-size="14" font-weight="bold" lengthAdjust="spacing" textLength="175.4785" x="188.0607" y="767.3125">Fournisseurs Externes</text></g><!--entity Marc--><g id="elem_Marc"><rect fill="#FFFFFF" height="54.0293" rx="2.5" ry="2.5" style="stroke:#000000;stroke-width:1;" width="148.6113" x="683.3" y="124.7373"/><text fill="#000000" font-family="Verdana" font-size="14" lengthAdjust="spacing" textLength="33.4756" x="693.3" y="148.8125">Marc</text><text fill="#000000" font-family="Verdana" font-size="14" lengthAdjust="spacing" textLength="128.6113" x="693.3" y="165.8271">(Telephone Perso)</text></g><!--entity Papier--><g id="elem_Papier"><path d="M721.3,339.7373 L721.3,388.7666 A2.5,2.5 0 0 0 723.8,391.2666 L821.6994,391.2666 A2.5,2.5 0 0 0 824.1994,388.7666 L824.1994,347.2373 L814.1994,337.2373 L723.8,337.2373 A2.5,2.5 0 0 0 721.3,339.7373 " fill="#FFCCCC" style="stroke:#000000;stroke-width:1;"/><path d="M814.1994,337.2373 L814.1994,344.7373 A2.5,2.5 0 0 0 816.6994,347.2373 L824.1994,347.2373 " fill="#FFCCCC" style="stroke:#000000;stroke-width:1;"/><text fill="#000000" font-family="Verdana" font-size="14" lengthAdjust="spacing" textLength="82.8994" x="731.3" y="361.3125">Bons Papier</text><text fill="#000000" font-family="Verdana" font-size="14" lengthAdjust="spacing" textLength="69.4668" x="731.3" y="378.3271">(Illisibles)</text></g><!--entity Sage--><g id="elem_Sage"><path d="M439.8,579.2373 C439.8,569.2373 515.6335,569.2373 515.6335,569.2373 C515.6335,569.2373 591.467,569.2373 591.467,579.2373 L591.467,622.2666 C591.467,632.2666 515.6335,632.2666 515.6335,632.2666 C515.6335,632.2666 439.8,632.2666 439.8,622.2666 L439.8,579.2373 " fill="#FF6B6B" style="stroke:#000000;stroke-width:1;"/><path d="M439.8,579.2373 C439.8,589.2373 515.6335,589.2373 515.6335,589.2373 C515.6335,589.2373 591.467,589.2373 591.467,579.2373 " fill="none" style="stroke:#000000;stroke-width:1;"/><text fill="#000000" font-family="Verdana" font-size="14" lengthAdjust="spacing" textLength="131.667" x="449.8" y="607.3125">Serveur Sage MDE</text><text fill="#000000" font-family="Verdana" font-size="14" lengthAdjust="spacing" textLength="114.8096" x="449.8" y="624.3271">(Obsolete 2010)</text></g><g id="elem_GMN10"><path d="M626.8,548.2373 L626.8,596.7373 L592.02,600.7373 L626.8,604.7373 L626.8,653.0332 A0,0 0 0 0 626.8,653.0332 L840.4196,653.0332 A0,0 0 0 0 840.4196,653.0332 L840.4196,558.2373 L830.4196,548.2373 L626.8,548.2373 A0,0 0 0 0 626.8,548.2373 " fill="#FFFFFF" style="stroke:#000000;stroke-width:1;"/><path d="M830.4196,548.2373 L830.4196,558.2373 L840.4196,558.2373 L830.4196,548.2373 " fill="#FFFFFF" style="stroke:#000000;stroke-width:1;"/><text fill="#000000" font-family="Verdana" font-size="13" lengthAdjust="spacing" textLength="13" x="632.8" y="566.3071">&#128308;</text><text fill="#000000" font-family="Verdana" font-size="13" font-weight="bold" lengthAdjust="spacing" textLength="175.0493" x="650.3703" y="566.3071">PROBLEMES CRITIQUES</text><text fill="#000000" font-family="Verdana" font-size="13" lengthAdjust="spacing" textLength="118.4854" x="632.8" y="582.1064">&#8226; 30-40 sec/ecran</text><text fill="#000000" font-family="Verdana" font-size="13" lengthAdjust="spacing" textLength="170.1997" x="632.8" y="597.9058">&#8226; Base donnees chaotique</text><text fill="#000000" font-family="Verdana" font-size="13" lengthAdjust="spacing" textLength="148.916" x="632.8" y="613.7051">&#8226; 12 ref pour 1 produit</text><text fill="#000000" font-family="Verdana" font-size="13" lengthAdjust="spacing" textLength="134.9067" x="632.8" y="629.5044">&#8226; Pas d'API moderne</text><text fill="#000000" font-family="Verdana" font-size="13" lengthAdjust="spacing" textLength="141.2734" x="632.8" y="645.3037">&#8226; Plantages frequents</text></g><!--entity Excel--><g id="elem_Excel"><rect fill="#FFD700" height="64.0293" rx="2.5" ry="2.5" style="stroke:#000000;stroke-width:1;" width="155.7598" x="487.8" y="811.2373"/><rect fill="#FFD700" height="10" style="stroke:#000000;stroke-width:1;" width="15" x="623.5598" y="816.2373"/><rect fill="#FFD700" height="2" style="stroke:#000000;stroke-width:1;" width="4" x="621.5598" y="818.2373"/><rect fill="#FFD700" height="2" style="stroke:#000000;stroke-width:1;" width="4" x="621.5598" y="822.2373"/><text fill="#000000" font-family="Verdana" font-size="14" lengthAdjust="spacing" textLength="103.5918" x="502.8" y="845.3125">Excel Multiples</text><text fill="#000000" font-family="Verdana" font-size="14" lengthAdjust="spacing" textLength="115.7598" x="502.8" y="862.3271">(Non connectes)</text></g><!--entity Outlook--><g id="elem_Outlook"><rect fill="#FFE4B5" height="64.0293" rx="2.5" ry="2.5" style="stroke:#000000;stroke-width:1;" width="138" x="678.8" y="811.2373"/><rect fill="#FFE4B5" height="10" style="stroke:#000000;stroke-width:1;" width="15" x="796.8" y="816.2373"/><rect fill="#FFE4B5" height="2" style="stroke:#000000;stroke-width:1;" width="4" x="794.8" y="818.2373"/><rect fill="#FFE4B5" height="2" style="stroke:#000000;stroke-width:1;" width="4" x="794.8" y="822.2373"/><text fill="#000000" font-family="Verdana" font-size="14" lengthAdjust="spacing" textLength="98" x="693.8" y="845.3125">Email Outlook</text><text fill="#000000" font-family="Verdana" font-size="14" lengthAdjust="spacing" textLength="84.3965" x="693.8" y="862.3271">(Ressaisies)</text></g><!--entity Eric--><g id="elem_Eric"><rect fill="#FFFFFF" height="54.0293" rx="2.5" ry="2.5" style="stroke:#000000;stroke-width:1;" width="108.2041" x="365.8" y="1392.2373"/><text fill="#000000" font-family="Verdana" font-size="14" lengthAdjust="spacing" textLength="25.9629" x="375.8" y="1416.3125">Eric</text><text fill="#000000" font-family="Verdana" font-size="14" lengthAdjust="spacing" textLength="88.2041" x="375.8" y="1433.3271">(Magasinier)</text></g><!--entity PCDepot--><g id="elem_PCDepot"><rect fill="#FFB6C1" height="64.0293" rx="2.5" ry="2.5" style="stroke:#000000;stroke-width:1;" width="138.1641" x="365.8" y="1235.2373"/><rect fill="#FFB6C1" height="10" style="stroke:#000000;stroke-width:1;" width="15" x="483.9641" y="1240.2373"/><rect fill="#FFB6C1" height="2" style="stroke:#000000;stroke-width:1;" width="4" x="481.9641" y="1242.2373"/><rect fill="#FFB6C1" height="2" style="stroke:#000000;stroke-width:1;" width="4" x="481.9641" y="1246.2373"/><text fill="#000000" font-family="Verdana" font-size="14" lengthAdjust="spacing" textLength="76.9521" x="380.8" y="1269.3125">PC Partag&#233;</text><text fill="#000000" font-family="Verdana" font-size="14" lengthAdjust="spacing" textLength="98.1641" x="380.8" y="1286.3271">(1 seul poste)</text></g><!--entity StockPhys--><g id="elem_StockPhys"><path d="M387.3,1541.7373 L387.3,1590.7666 A2.5,2.5 0 0 0 389.8,1593.2666 L511.5295,1593.2666 A2.5,2.5 0 0 0 514.0295,1590.7666 L514.0295,1549.2373 L504.0295,1539.2373 L389.8,1539.2373 A2.5,2.5 0 0 0 387.3,1541.7373 " fill="#FFCCCC" style="stroke:#000000;stroke-width:1;"/><path d="M504.0295,1539.2373 L504.0295,1546.7373 A2.5,2.5 0 0 0 506.5295,1549.2373 L514.0295,1549.2373 " fill="#FFCCCC" style="stroke:#000000;stroke-width:1;"/><text fill="#000000" font-family="Verdana" font-size="14" lengthAdjust="spacing" textLength="106.7295" x="397.3" y="1563.3125">Stock Physique</text><text fill="#000000" font-family="Verdana" font-size="14" lengthAdjust="spacing" textLength="99.0732" x="397.3" y="1580.3271">(Desorganise)</text></g><!--entity Rexel--><g id="elem_Rexel"><ellipse cx="238.5705" cy="813.2373" fill="#FFFFFF" rx="8" ry="8" style="stroke:#000000;stroke-width:1;"/><path d="M238.5705,821.2373 L238.5705,848.2373 M225.5705,829.2373 L251.5705,829.2373 M238.5705,848.2373 L225.5705,863.2373 M238.5705,848.2373 L251.5705,863.2373 " fill="none" style="stroke:#000000;stroke-width:1;"/><text fill="#000000" font-family="Verdana" font-size="14" lengthAdjust="spacing" textLength="38.541" x="219.3" y="879.3125">Rexel</text></g><!--entity Sonepar--><g id="elem_Sonepar"><ellipse cx="322.986" cy="813.2373" fill="#FFFFFF" rx="8" ry="8" style="stroke:#000000;stroke-width:1;"/><path d="M322.986,821.2373 L322.986,848.2373 M309.986,829.2373 L335.986,829.2373 M322.986,848.2373 L309.986,863.2373 M322.986,848.2373 L335.986,863.2373 " fill="none" style="stroke:#000000;stroke-width:1;"/><text fill="#000000" font-family="Verdana" font-size="14" lengthAdjust="spacing" textLength="58.3721" x="293.8" y="879.3125">Sonepar</text></g><!--entity Autres--><g id="elem_Autres"><ellipse cx="252.5773" cy="1003.2373" fill="#FFFFFF" rx="8" ry="8" style="stroke:#000000;stroke-width:1;"/><path d="M252.5773,1011.2373 L252.5773,1038.2373 M239.5773,1019.2373 L265.5773,1019.2373 M252.5773,1038.2373 L239.5773,1053.2373 M252.5773,1038.2373 L265.5773,1053.2373 " fill="none" style="stroke:#000000;stroke-width:1;"/><text fill="#000000" font-family="Verdana" font-size="14" lengthAdjust="spacing" textLength="45.5547" x="229.8" y="1069.3125">Autres</text></g><!--entity Sylvie--><g id="elem_Sylvie"><ellipse cx="515.882" cy="334.2373" fill="#FFFFFF" rx="8" ry="8" style="stroke:#000000;stroke-width:1;"/><path d="M515.882,342.2373 L515.882,369.2373 M502.882,350.2373 L528.882,350.2373 M515.882,369.2373 L502.882,384.2373 M515.882,369.2373 L528.882,384.2373 " fill="none" style="stroke:#000000;stroke-width:1;"/><text fill="#000000" font-family="Verdana" font-size="14" lengthAdjust="spacing" textLength="42.1641" x="494.8" y="400.3125">Sylvie</text></g><g id="elem_N1"><path d="M867.8,107.2373 L867.8,196.2339 L1073.4279,196.2339 L1073.4279,117.2373 L1063.4279,107.2373 L867.8,107.2373 " fill="#FF0000" style="stroke:#000000;stroke-width:1;"/><path d="M1063.4279,107.2373 L1063.4279,117.2373 L1073.4279,117.2373 L1063.4279,107.2373 " fill="#FF0000" style="stroke:#000000;stroke-width:1;"/><text fill="#000000" font-family="Verdana" font-size="13" lengthAdjust="spacing" textLength="26" x="873.8" y="125.3071">&#9888;&#65039;</text><text fill="#000000" font-family="Verdana" font-size="13" font-weight="bold" lengthAdjust="spacing" textLength="154.0576" x="904.3703" y="125.3071">POINTS DE RUPTURE</text><text fill="#000000" font-family="Verdana" font-size="13" lengthAdjust="spacing" textLength="160.0498" x="873.8" y="141.1064">&#8226; Sylvie = goulot unique</text><text fill="#000000" font-family="Verdana" font-size="13" lengthAdjust="spacing" textLength="113.8198" x="873.8" y="156.9058">&#8226; 1 seul PC d&#233;p&#244;t</text><text fill="#000000" font-family="Verdana" font-size="13" lengthAdjust="spacing" textLength="140.4736" x="873.8" y="172.7051">&#8226; Aucune redondance</text><text fill="#000000" font-family="Verdana" font-size="13" lengthAdjust="spacing" textLength="159.9355" x="873.8" y="188.5044">&#8226; Pas de backup process</text></g><!--link Marc to Papier--><g id="link_Marc_Papier"><path d="M759.67,178.9673 C762.55,219.4173 767.6239,290.5725 770.5039,331.0225 " fill="none" id="Marc-to-Papier" style="stroke:#000000;stroke-width:1;"/><polygon fill="#000000" points="770.93,337.0073,774.2807,327.746,770.5749,332.0199,766.3009,328.3141,770.93,337.0073" style="stroke:#000000;stroke-width:1;"/><text fill="#000000" font-family="Verdana" font-size="13" lengthAdjust="spacing" textLength="59.8013" x="768.8" y="258.3071">&#9997;&#65039; &#201;crit</text><text fill="#000000" font-family="Verdana" font-size="13" lengthAdjust="spacing" textLength="55.8276" x="770.7868" y="274.1064">(illisible)</text></g><!--link Papier to Outlook--><g id="link_Papier_Outlook"><path d="M824.53,368.5273 C890.31,375.8173 1001.49,399.2073 1052.8,474.2373 C1097.71,539.9073 1091.5,583.7273 1052.8,653.2373 C1002.8,743.0373 896.2059,793.5945 822.7259,819.6145 " fill="none" id="Papier-to-Outlook" style="stroke:#000000;stroke-width:1;stroke-dasharray:7.0,7.0;"/><polygon fill="#000000" points="817.07,821.6173,826.889,822.3837,821.7832,819.9483,824.2186,814.8425,817.07,821.6173" style="stroke:#000000;stroke-width:1;"/><text fill="#000000" font-family="Verdana" font-size="13" lengthAdjust="spacing" textLength="93.7612" x="1084.8" y="598.3071">&#128222; Info perdue</text><text fill="#000000" font-family="Verdana" font-size="13" lengthAdjust="spacing" textLength="67.7041" x="1097.8286" y="614.1064">&#9200; Retards</text></g><!--link Marc to Sylvie--><g id="link_Marc_Sylvie"><path d="M683.13,160.2673 C637.14,168.8373 580.53,187.1373 545.8,226.2373 C521.87,253.1773 515.7859,288.7608 514.7459,319.0508 " fill="none" id="Marc-to-Sylvie" style="stroke:#000000;stroke-width:1;"/><polygon fill="#000000" points="514.54,325.0473,518.8465,316.1899,514.7116,320.0502,510.8512,315.9153,514.54,325.0473" style="stroke:#000000;stroke-width:1;"/><text fill="#000000" font-family="Verdana" font-size="13" lengthAdjust="spacing" textLength="124.6235" x="588.0712" y="240.3071">&#128222; Appels multiples</text><text fill="#000000" font-family="Verdana" font-size="13" lengthAdjust="spacing" textLength="60.3789" x="620.1936" y="256.1064">(15/jour)</text><path d="M550.8,264.8359 L550.8,289.8359 L749.8,289.8359 L749.8,274.8359 L739.8,264.8359 L550.8,264.8359 " fill="#FFCCCC" style="stroke:#000000;stroke-width:1;"/><path d="M739.8,264.8359 L739.8,274.8359 L749.8,274.8359 L739.8,264.8359 " fill="#FFCCCC" style="stroke:#000000;stroke-width:1;"/><text fill="#000000" font-family="Verdana" font-size="13" lengthAdjust="spacing" textLength="178.166" x="556.8" y="282.9058">&#128308; Interruptions constantes</text></g><!--link Sylvie to Excel--><g id="link_Sylvie_Excel"><path d="M494.47,368.6473 C449.37,377.1373 344.94,403.8473 301.8,474.2373 C245.59,565.9473 231.8,637.2473 304.8,716.2373 C314.38,726.5973 354.46,719.6373 367.8,724.2373 C426.44,744.4473 481.7901,779.9324 520.1801,807.5624 " fill="none" id="Sylvie-to-Excel" style="stroke:#000000;stroke-width:1;"/><polygon fill="#000000" points="525.05,811.0673,520.0818,802.5633,520.9918,808.1465,515.4086,809.0565,525.05,811.0673" style="stroke:#000000;stroke-width:1;"/><text fill="#000000" font-family="Verdana" font-size="13" lengthAdjust="spacing" textLength="120.0151" x="302.8" y="598.3071">&#128187; Saisie manuelle</text><text fill="#000000" font-family="Verdana" font-size="13" lengthAdjust="spacing" textLength="101.7656" x="311.9248" y="614.1064">(Silos donn&#233;es)</text></g><!--link Sylvie to Sage--><g id="link_Sylvie_Sage"><path d="M515.8,403.4373 C515.8,449.6373 515.8,520.4973 515.8,563.0373 " fill="none" id="Sylvie-to-Sage" style="stroke:#000000;stroke-width:1;"/><polygon fill="#000000" points="515.8,569.0373,519.8,560.0373,515.8,564.0373,511.8,560.0373,515.8,569.0373" style="stroke:#000000;stroke-width:1;"/><text fill="#000000" font-family="Verdana" font-size="13" lengthAdjust="spacing" textLength="76.4893" x="532.4501" y="447.3071">&#128187; Re-saisie</text><text fill="#000000" font-family="Verdana" font-size="13" lengthAdjust="spacing" textLength="107.7896" x="516.8" y="463.1064">(Interface lente)</text></g><!--link Sylvie to Outlook--><g id="link_Sylvie_Outlook"><path d="M537.27,372.4873 C566.51,382.3273 620.52,400.3873 666.8,415.2373 C751,442.2473 804.36,403.0473 856.8,474.2373 C920.59,560.8373 894.35,615.4473 856.8,716.2373 C842.72,754.0473 816.0554,784.0267 790.6654,807.1567 " fill="none" id="Sylvie-to-Outlook" style="stroke:#000000;stroke-width:1;"/><polygon fill="#000000" points="786.23,811.1973,795.5769,808.0933,789.9262,807.8301,790.1894,802.1794,786.23,811.1973" style="stroke:#000000;stroke-width:1;"/><text fill="#000000" font-family="Verdana" font-size="13" lengthAdjust="spacing" textLength="76.4893" x="923.5805" y="598.3071">&#128231; Re-saisie</text><text fill="#000000" font-family="Verdana" font-size="13" lengthAdjust="spacing" textLength="132.0503" x="895.8" y="614.1064">(Email fournisseurs)</text></g><!--link Outlook to CloudFourn--><g id="link_Outlook_CloudFourn"><path d="M734.41,811.1173 C720.7,782.7873 696.49,743.1473 661.8,724.2373 C581.11,680.2473 547.18,715.6873 455.3,713.2373 C441.48,712.8673 225.91,702.3173 202.8,724.2373 C198.1713,728.6298 194.3758,733.6648 191.2807,739.1269 C191.0873,739.4682 193.7697,734.5439 193.5817,734.8886 " fill="none" id="Outlook-to-CloudFourn" style="stroke:#000000;stroke-width:1;"/><polygon fill="#000000" points="190.7086,740.1559,198.5299,734.1703,193.1029,735.7665,191.5067,730.3395,190.7086,740.1559" style="stroke:#000000;stroke-width:1;"/><text fill="#000000" font-family="Verdana" font-size="13" lengthAdjust="spacing" textLength="138.3789" x="312.0925" y="697.3071">&#128231; Commandes email</text><text fill="#000000" font-family="Verdana" font-size="13" lengthAdjust="spacing" textLength="147.9639" x="307.3" y="713.1064">(Pas d'automatisation)</text></g><!--link Sylvie to CloudFourn--><g id="link_Sylvie_CloudFourn"><path d="M494.76,366.9573 C413.07,374.1173 118.74,404.4773 63.8,474.2373 C11,541.2873 40.12,632.3798 82.875,707.1586 C104.2525,744.5479 129.0388,777.8589 148.6981,802.0468 C158.5278,814.1408 167.0758,823.9541 173.2751,830.856 C174.05,831.7187 170.7555,828.0933 171.4549,828.8639 " fill="none" id="Sylvie-to-CloudFourn" style="stroke:#000000;stroke-width:1;"/><polygon fill="#000000" points="175.4876,833.3065,172.4003,823.9541,172.127,829.6043,166.4768,829.331,175.4876,833.3065" style="stroke:#000000;stroke-width:1;"/><text fill="#000000" font-family="Verdana" font-size="13" lengthAdjust="spacing" textLength="180.4131" x="64.8" y="598.3071">&#9742;&#65039; Commandes t&#233;l&#233;phone</text><text fill="#000000" font-family="Verdana" font-size="13" lengthAdjust="spacing" textLength="98.6426" x="105.6853" y="614.1064">(Chronophage)</text></g><!--link CloudFourn to Eric--><g id="link_CloudFourn_Eric"><path d="M197.6131,1096.4183 C198.1476,1098.2022 198.6957,1099.9781 199.2578,1101.7453 C200.3819,1105.2796 201.5619,1108.7789 202.8,1112.2373 C244.84,1229.6573 341.2314,1338.3316 389.2414,1387.8016 " fill="none" id="CloudFourn-to-Eric" style="stroke:#000000;stroke-width:1;stroke-dasharray:7.0,7.0;"/><polygon fill="#000000" points="393.42,1392.1073,390.0225,1382.863,389.9378,1388.5192,384.2816,1388.4345,393.42,1392.1073" style="stroke:#000000;stroke-width:1;"/><text fill="#000000" font-family="Verdana" font-size="13" lengthAdjust="spacing" textLength="152.4263" x="219.8" y="1134.3071">&#128666; Livraisons physiques</text><text fill="#000000" font-family="Verdana" font-size="13" lengthAdjust="spacing" textLength="124.8076" x="233.6093" y="1150.1064">(Nomenclatures &#8800;)</text></g><!--reverse link PCDepot to Eric--><g id="link_PCDepot_Eric"><path d="M428.8148,1305.4617 C427.3948,1314.9817 426.84,1319.5473 425.8,1329.2373 C423.54,1350.3373 421.98,1374.3373 421.02,1392.0973 " fill="none" id="PCDepot-backto-Eric" style="stroke:#000000;stroke-width:1;"/><polygon fill="#000000" points="429.7,1299.5273,424.416,1307.8387,428.9624,1304.4726,432.3285,1309.0189,429.7,1299.5273" style="stroke:#000000;stroke-width:1;"/><text fill="#000000" font-family="Verdana" font-size="13" lengthAdjust="spacing" textLength="134.6147" x="426.8" y="1343.3071">&#128187; Saisie &#224; posteriori</text><text fill="#000000" font-family="Verdana" font-size="13" lengthAdjust="spacing" textLength="123.9634" x="432.1257" y="1359.1064">(20 min/r&#233;ception)</text></g><!--reverse link Sage to PCDepot--><g id="link_Sage_PCDepot"><path d="M501.1555,637.8616 C491.5155,662.3916 480.56,692.3173 471.8,724.2373 C447,814.5973 440.73,837.9573 431.8,931.2373 C430.4,945.8373 431.73,949.5673 431.8,964.2373 C432.29,1063.0773 433.69,1180.0973 434.39,1234.9373 " fill="none" id="Sage-backto-PCDepot" style="stroke:#000000;stroke-width:1;"/><polygon fill="#000000" points="503.35,632.2773,496.3353,639.1907,501.5212,636.9309,503.781,642.1167,503.35,632.2773" style="stroke:#000000;stroke-width:1;"/><text fill="#000000" font-family="Verdana" font-size="13" lengthAdjust="spacing" textLength="128.521" x="432.8" y="945.3071">&#128260; Mise &#224; jour stock</text><text fill="#000000" font-family="Verdana" font-size="13" lengthAdjust="spacing" textLength="81.0596" x="456.5307" y="961.1064">(J+2 retard)</text></g><!--link Eric to StockPhys--><g id="link_Eric_StockPhys"><path d="M421.06,1446.6273 C422.32,1464.4873 424.84,1488.5273 429.8,1509.2373 C432.2,1519.2373 433.7015,1524.2867 437.3215,1533.5767 " fill="none" id="Eric-to-StockPhys" style="stroke:#000000;stroke-width:1;"/><polygon fill="#000000" points="439.5,1539.1673,439.9594,1529.3292,437.6846,1534.5085,432.5053,1532.2338,439.5,1539.1673" style="stroke:#000000;stroke-width:1;"/><text fill="#000000" font-family="Verdana" font-size="13" lengthAdjust="spacing" textLength="130.3745" x="430.8" y="1490.3071">&#128230; Stockage manuel</text><text fill="#000000" font-family="Verdana" font-size="13" lengthAdjust="spacing" textLength="88.791" x="451.5917" y="1506.1064">(Pas de scan)</text></g><!--link Sage to Excel--><g id="link_Sage_Excel"><path d="M522.24,632.6873 C531.81,678.7373 548.4893,758.9528 558.0893,805.1528 " fill="none" id="Sage-to-Excel" style="stroke:#000000;stroke-width:1;stroke-dasharray:7.0,7.0;"/><polygon fill="#000000" points="559.31,811.0273,561.3953,801.4017,558.2928,806.1319,553.5626,803.0293,559.31,811.0273" style="stroke:#000000;stroke-width:1;"/><text fill="#000000" font-family="Verdana" font-size="13" lengthAdjust="spacing" textLength="94.4404" x="542.0534" y="697.3071">&#10060; Pas de sync</text><text fill="#000000" font-family="Verdana" font-size="13" lengthAdjust="spacing" textLength="98.9473" x="539.8" y="713.1064">(Incoh&#233;rences)</text></g><!--link Excel to StockPhys--><g id="link_Excel_StockPhys"><path d="M571.7,875.3773 C578.21,912.5573 587.8,976.6973 587.8,1032.2373 C587.8,1032.2373 587.8,1032.2373 587.8,1420.2373 C587.8,1460.9873 591.42,1477.5573 565.8,1509.2373 C552.54,1525.6373 538.7522,1535.1267 519.7822,1543.6567 " fill="none" id="Excel-to-StockPhys" style="stroke:#000000;stroke-width:1;stroke-dasharray:7.0,7.0;"/><polygon fill="#000000" points="514.31,1546.1173,524.1588,1546.0745,518.8702,1544.0668,520.8779,1538.7782,514.31,1546.1173" style="stroke:#000000;stroke-width:1;"/><text fill="#000000" font-family="Verdana" font-size="13" lengthAdjust="spacing" textLength="144.3584" x="588.8" y="1264.8071">&#10060; Stock virtuel &#8800; r&#233;el</text><text fill="#000000" font-family="Verdana" font-size="13" lengthAdjust="spacing" textLength="129.2319" x="596.3632" y="1280.6064">(Erreurs inventaire)</text></g><rect fill="none" height="112.0879" id="_legend" rx="7.5" ry="7.5" style="stroke:#000000;stroke-width:1;" width="223.8145" x="476.8734" y="1630.2373"/><text fill="#000000" font-family="Verdana" font-size="14" lengthAdjust="spacing" textLength="164.7256" x="481.8734" y="1649.3125">&#128308; = Pain Point Critique</text><text fill="#000000" font-family="Verdana" font-size="14" lengthAdjust="spacing" textLength="142.3105" x="481.8734" y="1666.3271">&#9200; = Perte de temps</text><text fill="#000000" font-family="Verdana" font-size="14" lengthAdjust="spacing" textLength="110.0176" x="481.8734" y="1683.3418">&#128176; = Co&#251;t &#233;lev&#233;</text><text fill="#000000" font-family="Verdana" font-size="14" lengthAdjust="spacing" textLength="171.4863" x="481.8734" y="1700.3564">&#10060; = Dysfonctionnement</text><text fill="#000000" font-family="Verdana" font-size="14" lengthAdjust="spacing" textLength="213.8145" x="481.8734" y="1717.3711">&#128222; = Communication manuelle</text><text fill="#000000" font-family="Verdana" font-size="14" lengthAdjust="spacing" textLength="168.7178" x="481.8734" y="1734.3857">&#128187; = Ressaisie manuelle</text><!--SRC=[RLRDZXj54BxFKnJE8Tb5tjWX2LAaZMHxlSZ8pXfxzu34fJtJNZVRxXwwUvnOA187Bf60I2475F4JSG1yuv03Kexp9du1U0IgkdjcRS8SlBFTLTLLNtrVzRpd5dp98PTCgCG99pbqJBeGZgUkC1ocQ-l8eDCxl-WFXtreGcF8eRTWsiAPkMHAMDv84gKp3WrSLavm0xT6UYOaFsW0ir2ltXWBTGLV9e0Fk-JAGMF4JFgPkdNE9SyNMd4OSsDryACzRpl7KD3eQcLXp7ACX1u3AOKLCybjC0uRSEFqj8TFyhHAgOjLi08wSiQDMmafkJUFopU6udBXkhBWCQtWDDPODTOkLoAO-uNmVpIa9zNB77EcElfFKYvXL4WdSim94toa5HeeXK1MEGOZJF7amrRhVwCicP1mLZYfzHN6c71h6PPP1OWx5A9_jtlFXtZgV_rFnXoRCOi5JBbPySB05666qKaVOvtDh9OSoxhJQhT2EB-BiUvtxtTZzRXl21BGSxzTP_dFBo_VmE7XU7BM7VP7_Idq9eFpmISN_UdXOMsq_UfN-A3LlDi2ozFRF3LCxUrrARcCGE4MKkIG4ryKVC-aVGSCdqEkCVisv4PdXN1x5cFCFBlP6GzWYSqoQjz_B95icBY5kU4ON3dhzxdAV7dNp3ZXkNRGeGwjFHnX8L3YKowbVhpFrRuHnDKHksHMA6HRx2ek9_zfvBY7QHhCezoWHnlXA2JMX2IAREt5mqvFk_TxxHsMJvrEhs2yM5k21frFkDLHPx5hP446ksHFfIuoQ9mYR6Y9nncYcoDuR10X6VZjME57Xgsh-bAd3JGc_0cNtjY_xMvDiQwScN1-UD_TxXJEn7F2AwLq4yD8vWJ9bgru2cwTOriG-hai_qWNz2xcyt9ZV9D8xT3Cz6FLV5Yf-G5iV_psxx-UG_aiDS8X6gAI_K4IROwEF66FZXxMydY0RFt-PnYekOQScunmt3x_4_Dnp6GssJyhoZewTVASImlB7IMtxzt-784xIBmyKDQInbW4t_kXD0OAmJP57kf5uLk7H4GaaXY_wTF4yy8K8BSNRr5Z96zOCbKWuwZVKo5nj998oWtgldQliYNDHkS9RuRnGFEGpf-pb8D4EFaxVdlO_Bxd6gREV8Sw1qbIsTTfxn0enkZf9UQTOHyvHS18GPgiS7g9ZRU- -GVl0B0NQVl3TzJWwrYktCXouoy3ZDXR6Arqli2gCQaTpwCZAeowJlhpARrw1KEnCbWMjI2F4WgpUCbLYcJ4gMzX- -prGUAzcaLEP8jYt6z9-Je8rWXj1CQuquAbKBTDkKbv7Wgh79kIpzrkRrv-3IFKAyKWve0boMACZz-dwKOan6921bLRQr5xS7yB2nGlKAC2buDD6HwDwZgLnHDQgAX2mtA6q17qL7VYq_48HSPjV_e6gYXhbNhMf7hX5PWIru8XkUpcGsvXBAs4SPWC8GW8X4-hRuoVDaAja7XC6Ewp6sk1ggQZI1I8Ur0FdlweJTffjU8Lk7trcWY0LylPuD7v54xwCBaOdrzC-l5YeQaUANGCbxgGY7YXwel3NnfXmEBKpP0wvHjNxtIAjC2l2iCHfOnXbSdUDS9XnjAh8YVi406RrDS4bZ0iDpZuCvv8JdzXfXqIEwblmsEC8LIe57eudwvpmc5pJ9yoM36UWLzGkOr-BsYdfykt3f3eV5LkWWTYV0mdQplNAYLsAVpgKYuwuLmwzXB1kbElgdfYL67VeaNzkN2zItc7z9D_0G00]--></g></svg>