<svg xmlns="http://www.w3.org/2000/svg" xmlns:xlink="http://www.w3.org/1999/xlink" contentStyleType="text/css" height="1608px" preserveAspectRatio="none" style="width:1958px;height:1608px;background:#F8F8FF;" version="1.1" viewBox="0 0 1958 1608" width="1958px" zoomAndPan="magnify"><title>Sequence : Commande Materiel (Version DIGITALISEE)</title><defs/><g><rect fill="#F8F8FF" height="1608" style="stroke:none;stroke-width:1;" width="1958" x="0" y="0"/><text fill="#000000" font-family="Verdana" font-size="22" font-weight="bold" lengthAdjust="spacing" textLength="685.8027" x="634.9451" y="60.2715">Sequence : Commande Materiel (Version DIGITALISEE)</text><rect fill="#E6FFE6" height="1525.7979" style="stroke:#000000;stroke-width:1;" width="395.8149" x="11" y="76.8906"/><text fill="#000000" font-family="Verdana" font-size="13" font-weight="bold" lengthAdjust="spacing" textLength="105.1045" x="156.3552" y="89.9604">Terrain Mobile</text><rect fill="#E6F3FF" height="1525.7979" style="stroke:#000000;stroke-width:1;" width="559.0156" x="495.7275" y="76.8906"/><text fill="#000000" font-family="Verdana" font-size="13" font-weight="bold" lengthAdjust="spacing" textLength="119.6089" x="715.4309" y="89.9604">Syst&#232;me Central</text><rect fill="#FFF0E6" height="1525.7979" style="stroke:#000000;stroke-width:1;" width="626.3823" x="1066.7432" y="76.8906"/><text fill="#000000" font-family="Verdana" font-size="13" font-weight="bold" lengthAdjust="spacing" textLength="145.2217" x="1307.3235" y="89.9604">Achats &amp; Logistique</text><rect fill="#F0F0F0" height="1525.7979" style="stroke:#000000;stroke-width:1;" width="240.5674" x="1705.1255" y="76.8906"/><text fill="#000000" font-family="Verdana" font-size="13" font-weight="bold" lengthAdjust="spacing" textLength="174.1479" x="1738.3352" y="89.9604">Fournisseurs Connect&#233;s</text><rect fill="#FFFFFF" height="1259.3706" style="stroke:#000000;stroke-width:1;" width="10" x="321.4961" y="253.3032"/><rect fill="#FFFFFF" height="89.3979" style="stroke:#000000;stroke-width:1;" width="10" x="564.7983" y="286.1025"/><rect fill="#FFFFFF" height="274.1938" style="stroke:#000000;stroke-width:1;" width="10" x="777.2656" y="596.0957"/><rect fill="#FFFFFF" height="89.3979" style="stroke:#000000;stroke-width:1;" width="10" x="1618.7817" y="973.6875"/><line style="stroke:#000000;stroke-width:1;" x1="91" x2="91" y1="174.7046" y2="1521.6738"/><line style="stroke:#000000;stroke-width:1;" x1="326.1772" x2="326.1772" y1="174.7046" y2="1521.6738"/><line style="stroke:#000000;stroke-width:1;" x1="569.7275" x2="569.7275" y1="174.7046" y2="1521.6738"/><line style="stroke:#000000;stroke-width:1;" x1="782.2168" x2="782.2168" y1="174.7046" y2="1521.6738"/><line style="stroke:#000000;stroke-width:1;" x1="952.3145" x2="952.3145" y1="174.7046" y2="1521.6738"/><line style="stroke:#000000;stroke-width:1;" x1="1126.7432" x2="1126.7432" y1="174.7046" y2="1521.6738"/><line style="stroke:#000000;stroke-width:1;" x1="1285.4863" x2="1285.4863" y1="174.7046" y2="1521.6738"/><line style="stroke:#000000;stroke-width:1;" x1="1433.0137" x2="1433.0137" y1="174.7046" y2="1521.6738"/><line style="stroke:#000000;stroke-width:1;" x1="1623.438" x2="1623.438" y1="174.7046" y2="1521.6738"/><line style="stroke:#000000;stroke-width:1;" x1="1759.1255" x2="1759.1255" y1="174.7046" y2="1521.6738"/><line style="stroke:#000000;stroke-width:1;" x1="1880.4937" x2="1880.4937" y1="174.7046" y2="1521.6738"/><text fill="#000000" font-family="Verdana" font-size="14" lengthAdjust="spacing" textLength="147.5059" x="15" y="171.7651">Marc (Chef Chantier)</text><ellipse cx="91.7529" cy="105.6899" fill="#FFFFFF" rx="8" ry="8" style="stroke:#000000;stroke-width:1;"/><path d="M91.7529,113.6899 L91.7529,140.6899 M78.7529,121.6899 L104.7529,121.6899 M91.7529,140.6899 L78.7529,155.6899 M91.7529,140.6899 L104.7529,155.6899 " fill="none" style="stroke:#000000;stroke-width:1;"/><text fill="#000000" font-family="Verdana" font-size="14" lengthAdjust="spacing" textLength="147.5059" x="15" y="1534.749">Marc (Chef Chantier)</text><ellipse cx="91.7529" cy="1546.6885" fill="#FFFFFF" rx="8" ry="8" style="stroke:#000000;stroke-width:1;"/><path d="M91.7529,1554.6885 L91.7529,1581.6885 M78.7529,1562.6885 L104.7529,1562.6885 M91.7529,1581.6885 L78.7529,1596.6885 M91.7529,1581.6885 L104.7529,1596.6885 " fill="none" style="stroke:#000000;stroke-width:1;"/><rect fill="#FFFFFF" height="31.0146" rx="2.5" ry="2.5" style="stroke:#000000;stroke-width:1;" width="132.6377" x="260.1772" y="142.6899"/><text fill="#000000" font-family="Verdana" font-size="14" lengthAdjust="spacing" textLength="118.6377" x="267.1772" y="163.7651">App Mobile Odoo</text><rect fill="#FFFFFF" height="31.0146" rx="2.5" ry="2.5" style="stroke:#000000;stroke-width:1;" width="132.6377" x="260.1772" y="1520.6738"/><text fill="#000000" font-family="Verdana" font-size="14" lengthAdjust="spacing" textLength="118.6377" x="267.1772" y="1541.749">App Mobile Odoo</text><text fill="#000000" font-family="Verdana" font-size="14" lengthAdjust="spacing" textLength="134.1416" x="499.7275" y="171.7651">ERP Odoo Moderne</text><path d="M551.7983,121.6899 C551.7983,111.6899 569.7983,111.6899 569.7983,111.6899 C569.7983,111.6899 587.7983,111.6899 587.7983,121.6899 L587.7983,147.6899 C587.7983,157.6899 569.7983,157.6899 569.7983,157.6899 C569.7983,157.6899 551.7983,157.6899 551.7983,147.6899 L551.7983,121.6899 " fill="#FFFFFF" style="stroke:#000000;stroke-width:1.5;"/><path d="M551.7983,121.6899 C551.7983,131.6899 569.7983,131.6899 569.7983,131.6899 C569.7983,131.6899 587.7983,131.6899 587.7983,121.6899 " fill="none" style="stroke:#000000;stroke-width:1.5;"/><text fill="#000000" font-family="Verdana" font-size="14" lengthAdjust="spacing" textLength="134.1416" x="499.7275" y="1534.749">ERP Odoo Moderne</text><path d="M551.7983,1547.6885 C551.7983,1537.6885 569.7983,1537.6885 569.7983,1537.6885 C569.7983,1537.6885 587.7983,1537.6885 587.7983,1547.6885 L587.7983,1573.6885 C587.7983,1583.6885 569.7983,1583.6885 569.7983,1583.6885 C569.7983,1583.6885 551.7983,1583.6885 551.7983,1573.6885 L551.7983,1547.6885 " fill="#FFFFFF" style="stroke:#000000;stroke-width:1.5;"/><path d="M551.7983,1547.6885 C551.7983,1557.6885 569.7983,1557.6885 569.7983,1557.6885 C569.7983,1557.6885 587.7983,1557.6885 587.7983,1547.6885 " fill="none" style="stroke:#000000;stroke-width:1.5;"/><rect fill="#FFFFFF" height="31.0146" rx="2.5" ry="2.5" style="stroke:#000000;stroke-width:1;" width="104.0977" x="730.2168" y="142.6899"/><text fill="#000000" font-family="Verdana" font-size="14" lengthAdjust="spacing" textLength="90.0977" x="737.2168" y="163.7651">API Gateway</text><rect fill="#FFFFFF" height="31.0146" rx="2.5" ry="2.5" style="stroke:#000000;stroke-width:1;" width="104.0977" x="730.2168" y="1520.6738"/><text fill="#000000" font-family="Verdana" font-size="14" lengthAdjust="spacing" textLength="90.0977" x="737.2168" y="1541.749">API Gateway</text><rect fill="#FFFFFF" height="31.0146" rx="2.5" ry="2.5" style="stroke:#000000;stroke-width:1;" width="176.4287" x="864.3145" y="142.6899"/><text fill="#000000" font-family="Verdana" font-size="14" lengthAdjust="spacing" textLength="162.4287" x="871.3145" y="163.7651">ML Engine Suggestions</text><rect fill="#FFFFFF" height="31.0146" rx="2.5" ry="2.5" style="stroke:#000000;stroke-width:1;" width="176.4287" x="864.3145" y="1520.6738"/><text fill="#000000" font-family="Verdana" font-size="14" lengthAdjust="spacing" textLength="162.4287" x="871.3145" y="1541.749">ML Engine Suggestions</text><text fill="#000000" font-family="Verdana" font-size="14" lengthAdjust="spacing" textLength="106.7432" x="1070.7432" y="171.7651">Sylvie (Achats)</text><ellipse cx="1127.1147" cy="105.6899" fill="#FFFFFF" rx="8" ry="8" style="stroke:#000000;stroke-width:1;"/><path d="M1127.1147,113.6899 L1127.1147,140.6899 M1114.1147,121.6899 L1140.1147,121.6899 M1127.1147,140.6899 L1114.1147,155.6899 M1127.1147,140.6899 L1140.1147,155.6899 " fill="none" style="stroke:#000000;stroke-width:1;"/><text fill="#000000" font-family="Verdana" font-size="14" lengthAdjust="spacing" textLength="106.7432" x="1070.7432" y="1534.749">Sylvie (Achats)</text><ellipse cx="1127.1147" cy="1546.6885" fill="#FFFFFF" rx="8" ry="8" style="stroke:#000000;stroke-width:1;"/><path d="M1127.1147,1554.6885 L1127.1147,1581.6885 M1114.1147,1562.6885 L1140.1147,1562.6885 M1127.1147,1581.6885 L1114.1147,1596.6885 M1127.1147,1581.6885 L1140.1147,1596.6885 " fill="none" style="stroke:#000000;stroke-width:1;"/><rect fill="#FFFFFF" height="31.0146" rx="2.5" ry="2.5" style="stroke:#000000;stroke-width:1;" width="164.5273" x="1203.4863" y="142.6899"/><text fill="#000000" font-family="Verdana" font-size="14" lengthAdjust="spacing" textLength="150.5273" x="1210.4863" y="163.7651">E-Procurement Portal</text><rect fill="#FFFFFF" height="31.0146" rx="2.5" ry="2.5" style="stroke:#000000;stroke-width:1;" width="164.5273" x="1203.4863" y="1520.6738"/><text fill="#000000" font-family="Verdana" font-size="14" lengthAdjust="spacing" textLength="150.5273" x="1210.4863" y="1541.749">E-Procurement Portal</text><text fill="#000000" font-family="Verdana" font-size="14" lengthAdjust="spacing" textLength="85.4629" x="1388.0137" y="171.7651">Eric (Depot)</text><ellipse cx="1433.7451" cy="105.6899" fill="#FFFFFF" rx="8" ry="8" style="stroke:#000000;stroke-width:1;"/><path d="M1433.7451,113.6899 L1433.7451,140.6899 M1420.7451,121.6899 L1446.7451,121.6899 M1433.7451,140.6899 L1420.7451,155.6899 M1433.7451,140.6899 L1446.7451,155.6899 " fill="none" style="stroke:#000000;stroke-width:1;"/><text fill="#000000" font-family="Verdana" font-size="14" lengthAdjust="spacing" textLength="85.4629" x="1388.0137" y="1534.749">Eric (Depot)</text><ellipse cx="1433.7451" cy="1546.6885" fill="#FFFFFF" rx="8" ry="8" style="stroke:#000000;stroke-width:1;"/><path d="M1433.7451,1554.6885 L1433.7451,1581.6885 M1420.7451,1562.6885 L1446.7451,1562.6885 M1433.7451,1581.6885 L1420.7451,1596.6885 M1433.7451,1581.6885 L1446.7451,1596.6885 " fill="none" style="stroke:#000000;stroke-width:1;"/><rect fill="#FFFFFF" height="31.0146" rx="2.5" ry="2.5" style="stroke:#000000;stroke-width:1;" width="110.6875" x="1568.438" y="142.6899"/><text fill="#000000" font-family="Verdana" font-size="14" lengthAdjust="spacing" textLength="96.6875" x="1575.438" y="163.7651">RFID Scanner</text><rect fill="#FFFFFF" height="31.0146" rx="2.5" ry="2.5" style="stroke:#000000;stroke-width:1;" width="110.6875" x="1568.438" y="1520.6738"/><text fill="#000000" font-family="Verdana" font-size="14" lengthAdjust="spacing" textLength="96.6875" x="1575.438" y="1541.749">RFID Scanner</text><rect fill="#FFFFFF" height="31.0146" rx="2.5" ry="2.5" style="stroke:#000000;stroke-width:1;" width="81.3682" x="1719.1255" y="142.6899"/><text fill="#000000" font-family="Verdana" font-size="14" lengthAdjust="spacing" textLength="67.3682" x="1726.1255" y="163.7651">Rexel API</text><rect fill="#FFFFFF" height="31.0146" rx="2.5" ry="2.5" style="stroke:#000000;stroke-width:1;" width="81.3682" x="1719.1255" y="1520.6738"/><text fill="#000000" font-family="Verdana" font-size="14" lengthAdjust="spacing" textLength="67.3682" x="1726.1255" y="1541.749">Rexel API</text><rect fill="#FFFFFF" height="31.0146" rx="2.5" ry="2.5" style="stroke:#000000;stroke-width:1;" width="101.1992" x="1830.4937" y="142.6899"/><text fill="#000000" font-family="Verdana" font-size="14" lengthAdjust="spacing" textLength="87.1992" x="1837.4937" y="163.7651">Sonepar API</text><rect fill="#FFFFFF" height="31.0146" rx="2.5" ry="2.5" style="stroke:#000000;stroke-width:1;" width="101.1992" x="1830.4937" y="1520.6738"/><text fill="#000000" font-family="Verdana" font-size="14" lengthAdjust="spacing" textLength="87.1992" x="1837.4937" y="1541.749">Sonepar API</text><rect fill="#FFFFFF" height="1259.3706" style="stroke:#000000;stroke-width:1;" width="10" x="321.4961" y="253.3032"/><rect fill="#FFFFFF" height="89.3979" style="stroke:#000000;stroke-width:1;" width="10" x="564.7983" y="286.1025"/><rect fill="#FFFFFF" height="274.1938" style="stroke:#000000;stroke-width:1;" width="10" x="777.2656" y="596.0957"/><rect fill="#FFFFFF" height="89.3979" style="stroke:#000000;stroke-width:1;" width="10" x="1618.7817" y="973.6875"/><rect fill="#FFFFFF" height="3" style="stroke:#FFFFFF;stroke-width:1;" width="1946.6929" x="5" y="205.6042"/><line style="stroke:#000000;stroke-width:0.5;" x1="5" x2="1951.6929" y1="205.6042" y2="205.6042"/><line style="stroke:#000000;stroke-width:0.5;" x1="5" x2="1951.6929" y1="208.6042" y2="208.6042"/><rect fill="#FFFFFF" height="23.7993" style="stroke:#000000;stroke-width:1;" width="324.3179" x="816.1875" y="194.7046"/><text fill="#000000" font-family="Verdana" font-size="13" font-weight="bold" lengthAdjust="spacing" textLength="305.8745" x="822.1875" y="211.7744">&#9889; Commande Instantan&#233;e (2h vs 3 jours)</text><polygon fill="#000000" points="309.4961,249.3032,319.4961,253.3032,309.4961,257.3032,313.4961,253.3032" style="stroke:#000000;stroke-width:1;"/><line style="stroke:#000000;stroke-width:1;" x1="91.7529" x2="315.4961" y1="253.3032" y2="253.3032"/><text fill="#000000" font-family="Verdana" font-size="13" font-weight="bold" lengthAdjust="spacing" textLength="9.2422" x="98.7529" y="248.5737">1</text><text fill="#000000" font-family="Verdana" font-size="13" lengthAdjust="spacing" textLength="197.501" x="111.9951" y="248.5737">&#128241; Scan QR produit n&#233;cessaire</text><path d="M336,233.5039 L336,258.5039 L562,258.5039 L562,243.5039 L552,233.5039 L336,233.5039 " fill="#E6FFE6" style="stroke:#000000;stroke-width:1;"/><path d="M552,233.5039 L552,243.5039 L562,243.5039 L552,233.5039 " fill="#E6FFE6" style="stroke:#000000;stroke-width:1;"/><text fill="#000000" font-family="Verdana" font-size="13" lengthAdjust="spacing" textLength="205.0103" x="342" y="251.5737">&#128994; 10 secondes vs 5 min papier</text><polygon fill="#000000" points="552.7983,282.1025,562.7983,286.1025,552.7983,290.1025,556.7983,286.1025" style="stroke:#000000;stroke-width:1;"/><line style="stroke:#000000;stroke-width:1;" x1="331.4961" x2="558.7983" y1="286.1025" y2="286.1025"/><text fill="#000000" font-family="Verdana" font-size="13" font-weight="bold" lengthAdjust="spacing" textLength="9.2422" x="338.4961" y="281.373">2</text><text fill="#000000" font-family="Verdana" font-size="13" lengthAdjust="spacing" textLength="192.6196" x="351.7383" y="281.373">&#128269; Recherche produit "3G2.5"</text><polygon fill="#000000" points="940.5288,311.9019,950.5288,315.9019,940.5288,319.9019,944.5288,315.9019" style="stroke:#000000;stroke-width:1;"/><line style="stroke:#000000;stroke-width:1;" x1="574.7983" x2="946.5288" y1="315.9019" y2="315.9019"/><text fill="#000000" font-family="Verdana" font-size="13" font-weight="bold" lengthAdjust="spacing" textLength="9.2422" x="581.7983" y="311.1724">3</text><text fill="#000000" font-family="Verdana" font-size="13" lengthAdjust="spacing" textLength="180.6226" x="595.0405" y="311.1724">&#129302; Suggestions intelligentes</text><polygon fill="#000000" points="585.7983,341.7012,575.7983,345.7012,585.7983,349.7012,581.7983,345.7012" style="stroke:#000000;stroke-width:1;"/><line style="stroke:#000000;stroke-width:1;stroke-dasharray:2.0,2.0;" x1="579.7983" x2="951.5288" y1="345.7012" y2="345.7012"/><text fill="#000000" font-family="Verdana" font-size="13" font-weight="bold" lengthAdjust="spacing" textLength="9.2422" x="591.7983" y="340.9717">4</text><text fill="#000000" font-family="Verdana" font-size="13" lengthAdjust="spacing" textLength="165.4771" x="605.0405" y="340.9717">Top 3 produits pertinents</text><polygon fill="#000000" points="342.4961,371.5005,332.4961,375.5005,342.4961,379.5005,338.4961,375.5005" style="stroke:#000000;stroke-width:1;"/><line style="stroke:#000000;stroke-width:1;stroke-dasharray:2.0,2.0;" x1="336.4961" x2="568.7983" y1="375.5005" y2="375.5005"/><text fill="#000000" font-family="Verdana" font-size="13" font-weight="bold" lengthAdjust="spacing" textLength="9.2422" x="348.4961" y="370.771">5</text><text fill="#000000" font-family="Verdana" font-size="13" lengthAdjust="spacing" textLength="196.0601" x="361.7383" y="370.771">&#128203; Liste claire + photos + prix</text><path d="M957,388.5005 L957,429.5005 L1138,429.5005 L1138,398.5005 L1128,388.5005 L957,388.5005 " fill="#E6FFE6" style="stroke:#000000;stroke-width:1;"/><path d="M1128,388.5005 L1128,398.5005 L1138,398.5005 L1128,388.5005 " fill="#E6FFE6" style="stroke:#000000;stroke-width:1;"/><text fill="#000000" font-family="Verdana" font-size="13" lengthAdjust="spacing" textLength="150.2744" x="963" y="406.5703">&#128994; IA &#233;limine confusion</text><text fill="#000000" font-family="Verdana" font-size="13" lengthAdjust="spacing" textLength="160.1069" x="963" y="422.3696">1 choix vs 12 r&#233;f&#233;rences</text><polygon fill="#000000" points="102.7529,452.8984,92.7529,456.8984,102.7529,460.8984,98.7529,456.8984" style="stroke:#000000;stroke-width:1;"/><line style="stroke:#000000;stroke-width:1;" x1="96.7529" x2="320.4961" y1="456.8984" y2="456.8984"/><text fill="#000000" font-family="Verdana" font-size="13" font-weight="bold" lengthAdjust="spacing" textLength="9.2422" x="108.7529" y="452.1689">6</text><text fill="#000000" font-family="Verdana" font-size="13" lengthAdjust="spacing" textLength="143.7744" x="121.9951" y="452.1689">&#128161; Affiche suggestions</text><polygon fill="#000000" points="309.4961,482.6978,319.4961,486.6978,309.4961,490.6978,313.4961,486.6978" style="stroke:#000000;stroke-width:1;"/><line style="stroke:#000000;stroke-width:1;" x1="91.7529" x2="315.4961" y1="486.6978" y2="486.6978"/><text fill="#000000" font-family="Verdana" font-size="13" font-weight="bold" lengthAdjust="spacing" textLength="9.2422" x="98.7529" y="481.9683">7</text><text fill="#000000" font-family="Verdana" font-size="13" lengthAdjust="spacing" textLength="142.9556" x="111.9951" y="481.9683">&#9989; S&#233;lectionne (1 clic)</text><polygon fill="#000000" points="557.7983,515.4971,567.7983,519.4971,557.7983,523.4971,561.7983,519.4971" style="stroke:#000000;stroke-width:1;"/><line style="stroke:#000000;stroke-width:1;" x1="331.4961" x2="563.7983" y1="519.4971" y2="519.4971"/><text fill="#000000" font-family="Verdana" font-size="13" font-weight="bold" lengthAdjust="spacing" textLength="9.2422" x="338.4961" y="514.7676">8</text><text fill="#000000" font-family="Verdana" font-size="13" lengthAdjust="spacing" textLength="157.7012" x="351.7383" y="514.7676">&#128722; Cr&#233;e commande auto</text><path d="M574,499.6978 L574,524.6978 L758,524.6978 L758,509.6978 L748,499.6978 L574,499.6978 " fill="#E6FFE6" style="stroke:#000000;stroke-width:1;"/><path d="M748,499.6978 L748,509.6978 L758,509.6978 L748,499.6978 " fill="#E6FFE6" style="stroke:#000000;stroke-width:1;"/><text fill="#000000" font-family="Verdana" font-size="13" lengthAdjust="spacing" textLength="163.0522" x="580" y="517.7676">&#128994; Validation instantan&#233;e</text><rect fill="#FFFFFF" height="3" style="stroke:#FFFFFF;stroke-width:1;" width="1946.6929" x="5" y="551.3967"/><line style="stroke:#000000;stroke-width:0.5;" x1="5" x2="1951.6929" y1="551.3967" y2="551.3967"/><line style="stroke:#000000;stroke-width:0.5;" x1="5" x2="1951.6929" y1="554.3967" y2="554.3967"/><rect fill="#FFFFFF" height="23.7993" style="stroke:#000000;stroke-width:1;" width="204.2583" x="876.2173" y="540.4971"/><text fill="#000000" font-family="Verdana" font-size="13" font-weight="bold" lengthAdjust="spacing" textLength="185.8149" x="882.2173" y="557.5669">&#129302; Traitement Automatis&#233;</text><polygon fill="#000000" points="765.2656,592.0957,775.2656,596.0957,765.2656,600.0957,769.2656,596.0957" style="stroke:#000000;stroke-width:1;"/><line style="stroke:#000000;stroke-width:1;" x1="569.7983" x2="771.2656" y1="596.0957" y2="596.0957"/><text fill="#000000" font-family="Verdana" font-size="13" font-weight="bold" lengthAdjust="spacing" textLength="9.2422" x="576.7983" y="591.3662">9</text><text fill="#000000" font-family="Verdana" font-size="13" lengthAdjust="spacing" textLength="147.3926" x="590.0405" y="591.3662">&#128260; D&#233;clenche workflow</text><polygon fill="#000000" points="1747.8096,621.895,1757.8096,625.895,1747.8096,629.895,1751.8096,625.895" style="stroke:#000000;stroke-width:1;"/><line style="stroke:#000000;stroke-width:1;" x1="787.2656" x2="1753.8096" y1="625.895" y2="625.895"/><text fill="#000000" font-family="Verdana" font-size="13" font-weight="bold" lengthAdjust="spacing" textLength="18.4844" x="794.2656" y="621.1655">10</text><text fill="#000000" font-family="Verdana" font-size="13" lengthAdjust="spacing" textLength="172.1484" x="816.75" y="621.1655">&#128225; V&#233;rifie stock temps r&#233;el</text><polygon fill="#000000" points="798.2656,651.6943,788.2656,655.6943,798.2656,659.6943,794.2656,655.6943" style="stroke:#000000;stroke-width:1;"/><line style="stroke:#000000;stroke-width:1;stroke-dasharray:2.0,2.0;" x1="792.2656" x2="1758.8096" y1="655.6943" y2="655.6943"/><text fill="#000000" font-family="Verdana" font-size="13" font-weight="bold" lengthAdjust="spacing" textLength="18.4844" x="804.2656" y="650.9648">11</text><text fill="#000000" font-family="Verdana" font-size="13" lengthAdjust="spacing" textLength="129.2637" x="826.75" y="650.9648">&#9989; "50 unit&#233;s dispo"</text><polygon fill="#000000" points="1869.0933,681.4937,1879.0933,685.4937,1869.0933,689.4937,1873.0933,685.4937" style="stroke:#000000;stroke-width:1;"/><line style="stroke:#000000;stroke-width:1;" x1="787.2656" x2="1875.0933" y1="685.4937" y2="685.4937"/><text fill="#000000" font-family="Verdana" font-size="13" font-weight="bold" lengthAdjust="spacing" textLength="18.4844" x="794.2656" y="680.7642">12</text><text fill="#000000" font-family="Verdana" font-size="13" lengthAdjust="spacing" textLength="180.5083" x="816.75" y="680.7642">&#128225; Compare prix concurrent</text><polygon fill="#000000" points="798.2656,711.293,788.2656,715.293,798.2656,719.293,794.2656,715.293" style="stroke:#000000;stroke-width:1;"/><line style="stroke:#000000;stroke-width:1;stroke-dasharray:2.0,2.0;" x1="792.2656" x2="1880.0933" y1="715.293" y2="715.293"/><text fill="#000000" font-family="Verdana" font-size="13" font-weight="bold" lengthAdjust="spacing" textLength="18.4844" x="804.2656" y="710.5635">13</text><text fill="#000000" font-family="Verdana" font-size="13" lengthAdjust="spacing" textLength="119.1201" x="826.75" y="710.5635">&#128176; "Prix identique"</text><polygon fill="#000000" points="1747.8096,741.0923,1757.8096,745.0923,1747.8096,749.0923,1751.8096,745.0923" style="stroke:#000000;stroke-width:1;"/><line style="stroke:#000000;stroke-width:1;" x1="787.2656" x2="1753.8096" y1="745.0923" y2="745.0923"/><text fill="#000000" font-family="Verdana" font-size="13" font-weight="bold" lengthAdjust="spacing" textLength="18.4844" x="794.2656" y="740.3628">14</text><text fill="#000000" font-family="Verdana" font-size="13" lengthAdjust="spacing" textLength="178.5342" x="816.75" y="740.3628">&#128640; Commande automatique</text><polygon fill="#000000" points="798.2656,770.8916,788.2656,774.8916,798.2656,778.8916,794.2656,774.8916" style="stroke:#000000;stroke-width:1;"/><line style="stroke:#000000;stroke-width:1;stroke-dasharray:2.0,2.0;" x1="792.2656" x2="1758.8096" y1="774.8916" y2="774.8916"/><text fill="#000000" font-family="Verdana" font-size="13" font-weight="bold" lengthAdjust="spacing" textLength="18.4844" x="804.2656" y="770.1621">15</text><text fill="#000000" font-family="Verdana" font-size="13" lengthAdjust="spacing" textLength="220.0034" x="826.75" y="770.1621">&#128203; "Commande #R12345 valid&#233;e"</text><path d="M792,787.8916 L792,812.8916 L1020,812.8916 L1020,797.8916 L1010,787.8916 L792,787.8916 " fill="#E6FFE6" style="stroke:#000000;stroke-width:1;"/><path d="M1010,787.8916 L1010,797.8916 L1020,797.8916 L1010,787.8916 " fill="#E6FFE6" style="stroke:#000000;stroke-width:1;"/><text fill="#000000" font-family="Verdana" font-size="13" lengthAdjust="spacing" textLength="207.4351" x="798" y="805.9614">&#128994; 0 ressaisie vs 7 actuellement</text><polygon fill="#000000" points="580.7983,836.4902,570.7983,840.4902,580.7983,844.4902,576.7983,840.4902" style="stroke:#000000;stroke-width:1;"/><line style="stroke:#000000;stroke-width:1;" x1="574.7983" x2="776.2656" y1="840.4902" y2="840.4902"/><text fill="#000000" font-family="Verdana" font-size="13" font-weight="bold" lengthAdjust="spacing" textLength="18.4844" x="586.7983" y="835.7607">16</text><text fill="#000000" font-family="Verdana" font-size="13" lengthAdjust="spacing" textLength="160.9829" x="609.2827" y="835.7607">&#9989; Commande confirm&#233;e</text><polygon fill="#000000" points="1115.1147,866.2896,1125.1147,870.2896,1115.1147,874.2896,1119.1147,870.2896" style="stroke:#000000;stroke-width:1;"/><line style="stroke:#000000;stroke-width:1;" x1="782.2656" x2="1121.1147" y1="870.2896" y2="870.2896"/><text fill="#000000" font-family="Verdana" font-size="13" font-weight="bold" lengthAdjust="spacing" textLength="18.4844" x="789.2656" y="865.5601">17</text><text fill="#000000" font-family="Verdana" font-size="13" lengthAdjust="spacing" textLength="255.7788" x="811.75" y="865.5601">&#128232; Notification "Commande auto cr&#233;&#233;e"</text><rect fill="#FFFFFF" height="3" style="stroke:#FFFFFF;stroke-width:1;" width="1946.6929" x="5" y="899.1892"/><line style="stroke:#000000;stroke-width:0.5;" x1="5" x2="1951.6929" y1="899.1892" y2="899.1892"/><line style="stroke:#000000;stroke-width:0.5;" x1="5" x2="1951.6929" y1="902.1892" y2="902.1892"/><rect fill="#FFFFFF" height="23.7993" style="stroke:#000000;stroke-width:1;" width="205.0391" x="875.8269" y="888.2896"/><text fill="#000000" font-family="Verdana" font-size="13" font-weight="bold" lengthAdjust="spacing" textLength="186.5957" x="881.8269" y="905.3594">&#128230; R&#233;ception Automatis&#233;e</text><polygon fill="#000000" points="1444.7451,939.8882,1434.7451,943.8882,1444.7451,947.8882,1440.7451,943.8882" style="stroke:#000000;stroke-width:1;"/><line style="stroke:#000000;stroke-width:1;" x1="1438.7451" x2="1758.8096" y1="943.8882" y2="943.8882"/><text fill="#000000" font-family="Verdana" font-size="13" font-weight="bold" lengthAdjust="spacing" textLength="18.4844" x="1450.7451" y="939.1587">18</text><text fill="#000000" font-family="Verdana" font-size="13" lengthAdjust="spacing" textLength="169.3872" x="1473.2295" y="939.1587">&#128666; Livraison avec QR code</text><polygon fill="#000000" points="1606.7817,969.6875,1616.7817,973.6875,1606.7817,977.6875,1610.7817,973.6875" style="stroke:#000000;stroke-width:1;"/><line style="stroke:#000000;stroke-width:1;" x1="1433.7451" x2="1612.7817" y1="973.6875" y2="973.6875"/><text fill="#000000" font-family="Verdana" font-size="13" font-weight="bold" lengthAdjust="spacing" textLength="18.4844" x="1440.7451" y="968.958">19</text><text fill="#000000" font-family="Verdana" font-size="13" lengthAdjust="spacing" textLength="143.5522" x="1463.2295" y="968.958">&#128241; Scan code livraison</text><polygon fill="#000000" points="580.7983,999.4868,570.7983,1003.4868,580.7983,1007.4868,576.7983,1003.4868" style="stroke:#000000;stroke-width:1;"/><line style="stroke:#000000;stroke-width:1;" x1="574.7983" x2="1617.7817" y1="1003.4868" y2="1003.4868"/><text fill="#000000" font-family="Verdana" font-size="13" font-weight="bold" lengthAdjust="spacing" textLength="18.4844" x="586.7983" y="998.7573">20</text><text fill="#000000" font-family="Verdana" font-size="13" lengthAdjust="spacing" textLength="190.1567" x="609.2827" y="998.7573">&#128260; Identification automatique</text><polygon fill="#000000" points="1606.7817,1029.2861,1616.7817,1033.2861,1606.7817,1037.2861,1610.7817,1033.2861" style="stroke:#000000;stroke-width:1;"/><line style="stroke:#000000;stroke-width:1;stroke-dasharray:2.0,2.0;" x1="569.7983" x2="1612.7817" y1="1033.2861" y2="1033.2861"/><text fill="#000000" font-family="Verdana" font-size="13" font-weight="bold" lengthAdjust="spacing" textLength="18.4844" x="576.7983" y="1028.5566">21</text><text fill="#000000" font-family="Verdana" font-size="13" lengthAdjust="spacing" textLength="221.2349" x="599.2827" y="1028.5566">&#9989; "Commande R12345 attendue"</text><polygon fill="#000000" points="580.7983,1059.0854,570.7983,1063.0854,580.7983,1067.0854,576.7983,1063.0854" style="stroke:#000000;stroke-width:1;"/><line style="stroke:#000000;stroke-width:1;" x1="574.7983" x2="1622.7817" y1="1063.0854" y2="1063.0854"/><text fill="#000000" font-family="Verdana" font-size="13" font-weight="bold" lengthAdjust="spacing" textLength="18.4844" x="586.7983" y="1058.356">22</text><text fill="#000000" font-family="Verdana" font-size="13" lengthAdjust="spacing" textLength="183.0728" x="609.2827" y="1058.356">&#9989; R&#233;ception valid&#233;e (2 sec)</text><path d="M1628,1076.0854 L1628,1101.0854 L1810,1101.0854 L1810,1086.0854 L1800,1076.0854 L1628,1076.0854 " fill="#E6FFE6" style="stroke:#000000;stroke-width:1;"/><path d="M1800,1076.0854 L1800,1086.0854 L1810,1086.0854 L1800,1076.0854 " fill="#E6FFE6" style="stroke:#000000;stroke-width:1;"/><text fill="#000000" font-family="Verdana" font-size="13" lengthAdjust="spacing" textLength="161.6431" x="1634" y="1094.1553">&#128994; 2 sec vs 20 min saisie</text><polygon fill="#000000" points="342.4961,1124.6841,332.4961,1128.6841,342.4961,1132.6841,338.4961,1128.6841" style="stroke:#000000;stroke-width:1;"/><line style="stroke:#000000;stroke-width:1;" x1="336.4961" x2="568.7983" y1="1128.6841" y2="1128.6841"/><text fill="#000000" font-family="Verdana" font-size="13" font-weight="bold" lengthAdjust="spacing" textLength="18.4844" x="348.4961" y="1123.9546">23</text><text fill="#000000" font-family="Verdana" font-size="13" lengthAdjust="spacing" textLength="120.561" x="370.9805" y="1123.9546">&#128242; "Mat&#233;riel dispo"</text><polygon fill="#000000" points="102.7529,1154.4834,92.7529,1158.4834,102.7529,1162.4834,98.7529,1158.4834" style="stroke:#000000;stroke-width:1;"/><line style="stroke:#000000;stroke-width:1;" x1="96.7529" x2="568.7983" y1="1158.4834" y2="1158.4834"/><text fill="#000000" font-family="Verdana" font-size="13" font-weight="bold" lengthAdjust="spacing" textLength="18.4844" x="108.7529" y="1153.7539">24</text><text fill="#000000" font-family="Verdana" font-size="13" lengthAdjust="spacing" textLength="125.5376" x="131.2373" y="1153.7539">&#128241; Push notification</text><rect fill="#FFFFFF" height="3" style="stroke:#FFFFFF;stroke-width:1;" width="1946.6929" x="5" y="1187.3831"/><line style="stroke:#000000;stroke-width:0.5;" x1="5" x2="1951.6929" y1="1187.3831" y2="1187.3831"/><line style="stroke:#000000;stroke-width:0.5;" x1="5" x2="1951.6929" y1="1190.3831" y2="1190.3831"/><rect fill="#FFFFFF" height="23.7993" style="stroke:#000000;stroke-width:1;" width="200.0942" x="878.2993" y="1176.4834"/><text fill="#000000" font-family="Verdana" font-size="13" font-weight="bold" lengthAdjust="spacing" textLength="181.6509" x="884.2993" y="1193.5532">&#9989; R&#233;cup&#233;ration Garantie</text><polygon fill="#000000" points="1421.7451,1228.082,1431.7451,1232.082,1421.7451,1236.082,1425.7451,1232.082" style="stroke:#000000;stroke-width:1;"/><line style="stroke:#000000;stroke-width:1;" x1="91.7529" x2="1427.7451" y1="1232.082" y2="1232.082"/><text fill="#000000" font-family="Verdana" font-size="13" font-weight="bold" lengthAdjust="spacing" textLength="18.4844" x="98.7529" y="1227.3525">25</text><text fill="#000000" font-family="Verdana" font-size="13" lengthAdjust="spacing" textLength="136.8047" x="121.2373" y="1227.3525">&#127919; R&#233;cup&#232;re mat&#233;riel</text><polygon fill="#000000" points="102.7529,1257.8813,92.7529,1261.8813,102.7529,1265.8813,98.7529,1261.8813" style="stroke:#000000;stroke-width:1;"/><line style="stroke:#000000;stroke-width:1;" x1="96.7529" x2="1432.7451" y1="1261.8813" y2="1261.8813"/><text fill="#000000" font-family="Verdana" font-size="13" font-weight="bold" lengthAdjust="spacing" textLength="18.4844" x="108.7529" y="1257.1519">26</text><text fill="#000000" font-family="Verdana" font-size="13" lengthAdjust="spacing" textLength="170.3457" x="131.2373" y="1257.1519">&#128230; Mat&#233;riel correct garanti</text><path d="M12,1274.8813 L12,1331.8813 L170,1331.8813 L170,1284.8813 L160,1274.8813 L12,1274.8813 " fill="#90EE90" style="stroke:#000000;stroke-width:1;"/><path d="M160,1274.8813 L160,1284.8813 L170,1284.8813 L160,1274.8813 " fill="#90EE90" style="stroke:#000000;stroke-width:1;"/><text fill="#000000" font-family="Verdana" font-size="13" lengthAdjust="spacing" textLength="126.7373" x="18" y="1292.9512">&#9989; BON MAT&#201;RIEL !</text><text fill="#000000" font-family="Verdana" font-size="13" lengthAdjust="spacing" textLength="133.2373" x="18" y="1308.7505">&#128994; Chantier continue</text><text fill="#000000" font-family="Verdana" font-size="13" lengthAdjust="spacing" textLength="137.0522" x="18" y="1324.5498">&#128176; &#201;conomie: 2,400&#8364;</text><rect fill="#FFFFFF" height="3" style="stroke:#FFFFFF;stroke-width:1;" width="1946.6929" x="5" y="1358.179"/><line style="stroke:#000000;stroke-width:0.5;" x1="5" x2="1951.6929" y1="1358.179" y2="1358.179"/><line style="stroke:#000000;stroke-width:0.5;" x1="5" x2="1951.6929" y1="1361.179" y2="1361.179"/><rect fill="#FFFFFF" height="23.7993" style="stroke:#000000;stroke-width:1;" width="258.2324" x="849.2302" y="1347.2793"/><text fill="#000000" font-family="Verdana" font-size="13" font-weight="bold" lengthAdjust="spacing" textLength="239.7891" x="855.2302" y="1364.3491">&#128202; COMPARAISON AVANT/APR&#200;S</text><path d="M25,1386.0786 L25,1506.0786 L1946,1506.0786 L1946,1396.0786 L1936,1386.0786 L25,1386.0786 " fill="#E6FFE6" style="stroke:#000000;stroke-width:1;"/><path d="M1936,1386.0786 L1936,1396.0786 L1946,1396.0786 L1936,1386.0786 " fill="#E6FFE6" style="stroke:#000000;stroke-width:1;"/><text fill="#000000" font-family="Verdana" font-size="13" font-weight="bold" lengthAdjust="spacing" textLength="149.9761" x="864.4004" y="1404.1484">GAINS MESURABLES</text><text fill="#000000" font-family="Verdana" font-size="13" lengthAdjust="spacing" textLength="205.9688" x="864.4004" y="1419.9478">&#9200; Dur&#233;e: 2h vs 3 jours (-94%)</text><text fill="#000000" font-family="Verdana" font-size="13" lengthAdjust="spacing" textLength="180.6797" x="864.4004" y="1435.7471">&#128222; Appels: 0 vs 15 (-100%)</text><text fill="#000000" font-family="Verdana" font-size="13" lengthAdjust="spacing" textLength="208.8062" x="864.4004" y="1451.5464">&#9851;&#65039; Ressaisies: 0 vs 7 (-100%)</text><text fill="#000000" font-family="Verdana" font-size="13" lengthAdjust="spacing" textLength="233.8921" x="864.4004" y="1467.3457">&#10060; Taux erreur: 2% vs 50% (-96%)</text><text fill="#000000" font-family="Verdana" font-size="13" lengthAdjust="spacing" textLength="146.7388" x="864.4004" y="1483.145">&#128176; &#201;conomie: 58K&#8364;/an</text><text fill="#000000" font-family="Verdana" font-size="13" lengthAdjust="spacing" textLength="189.1602" x="864.4004" y="1498.9443">&#128522; Satisfaction: 9/10 vs 4/10</text><text fill="#000000" font-family="Verdana" font-size="10" lengthAdjust="spacing" textLength="221.582" x="1724.1108" y="20.0537">Architecture CIBLE - PROCESSUS OPTIMISE</text><!--SRC=[VLPRRnj557xVNt7gg2W9DNLkRHCfbRREEhAm4-DryzINoNfi3rdlB3EpJlg6K95ekLHg4O9ogOfGrKX859wGUFG_oH-0dy0vinUldK3y47lcpBbyvplVp3KpucCESSX4vB34o2WP7tFbw1CHnKonCHopu6IeP1BrwpAK2fOQT_3JS9mHPtskm5N1I1WUc4Hng3VljJoeGgTxMFTy_xuFXvrUiztqFSS84tBm-KS9Zm8EEr2Nup6B-XpQp70bU0ZBHrnf8IFOQ-utUsuBZtahZdCipw3IuqfXZj2MnoBa5LZoRZKQtYq7y8y51XEhj9aAOBa-uWEeZrXa15Sh5M0QQCCQOaL612B6JQYuSPnvWyE-bDOIrz8bXqTzmC1PTF-XDjCt25ITHqQnC8s_WJ2Gspupx9Xf3XMlsx7Eq35Y4t7hb1Qk2DzfmZvMVieUfg4xpSj6xHPuqL1425mo779j41sTrjHQID4DHineU0TQSYZG4776B1kDHcqU9VzXE14SbbFx5A1qxN9uhzfHCi36Zh5iw4Xbg7Gya7ujk_MKGF3tU2nDwfCMBdliDffxu0SiYhYoPhImK4b39YeIMlD4QMG9cWPcUgwfcXfzhl3Apv0-Y63gadvT2QSl8uuBXINz9iCY_kukNBnuDQDcCz86Jx9eUewGhOzWec43FiG4zGhixZgEvLprxemuIEn_NZx_tTO87tGXLhAV20Fe8U1QCw6u4qd3GOdXoEGqjgTU_WnhDT0ya1XQKwWj62FbOnOZbHq4MaoGC2MIEhEmc8Cb7Zdw-al481Xnd4nU953Ps5z_RwioSsDfQS_WMIGQdVpbcpBHG4I6Xw4OOlUvTj2cEWlJap52aNdN47F4EK93dVcy3Chdq49YSWX2GW7UXNWaZTJqHOapfy_dKokX90UKu09MJHUcvw4OqtGWP8E4fED1j0R1I8epWczj7TJqV30zLoGvUW4ksphozUmLk8E18B3qhFWhMtlnmwVWOrHaf21YmZA62qMmyX-T-FuPr1Ln9yWPHHhxFmGuOg50EI4H52NkMMRQzlHG1KqwZoww6gEjdfvRBkQz96MnD7W4UyYw48l7qawbEXc4yhJ48sG-sUAHV6JIHhs28yHC350cj9712M30M1EMF7GAqseHYb2fRDKWYGGDAlI5ZcKbzvqDMUuQPmj7aDkUKzzGNXHL0qvkM2tLyEmjL3faAVfeP4NDkJBf5n_FffPbmA3rLUbQAbOAwwNkslh6vXPC27eiiRB0F3gqqAKQA3lB6X52djqc4KnmKcnVYlmo5X0wHJ0Ygb1ZQcaEJwh7DgqtS20DuXwa3AZCLGG1Di3cLveKwc7AZUUleKiQ4zkZ9MvmIuuP3dUjDAUWlS2Hd22ZD1vX4nwGOWLuTJdMX30clIvB6kr2c1-QaSdgkBMUKw97qBIDAsegzGPRNaX55iSogQWwQmmp1WMQEh_WdwnBDUSDHA4c5LqfusJJc- -hTRRGM7kGMhfUizARzhWqMlEAzWSzEWpD2bu_6UiBHStb1P7h97e4KQcrwKsJfP_4w255Pn-VNFHmcRjRYdPzzLjk_mO7Q9n7Bfer2_aQPda54WSiC31CVQSeo0a-tQpzqdRDyxPh6Ppt3W-WxVQcZxjDhmNN7aGMblmvHVH5bKyuhUDeJX_ZWXmBlWFhDpPhjOjFVitP-0JgX-sEstMRFhfqZzo3tastqvr-vjlQvfEuKOX4-LctkhhlDWzyQ7l-_QwB3qj_TTLkN3nz2ti9oH76BT_9i5pTtho-OeqmXv-eNppKEpYmT1riuVvQhPOPN7ptrzz_FaKLoIOvDxizR_NZ5z1ZoHdW-nCV91ZmkhsPQzSfsAqYs3mQMtVUHonkiYZR_VO9-3ID0sOlZXtOlhbcWstYV_ly842SVm40]--></g></svg>