<svg xmlns="http://www.w3.org/2000/svg" xmlns:xlink="http://www.w3.org/1999/xlink" contentStyleType="text/css" height="955px" preserveAspectRatio="none" style="width:3577px;height:955px;background:#FFFFFF;" version="1.1" viewBox="0 0 3577 955" width="3577px" zoomAndPan="magnify"><title>Architecture CIBLE - Systeme Integre &amp; Moderne</title><defs/><g><text fill="#000000" font-family="Verdana" font-size="22" font-weight="bold" lengthAdjust="spacing" textLength="607.2773" x="1480.8573" y="37.1182">Architecture CIBLE - Systeme Integre &amp; Moderne</text><!--cluster Terrain--><g id="cluster_Terrain"><polygon fill="#E6FFE6" points="2073.1697,68.7373,2083.1697,58.7373,2398.1697,58.7373,2398.1697,403.7373,2388.1697,413.7373,2073.1697,413.7373,2073.1697,68.7373" style="stroke:#000000;stroke-width:1;"/><line style="stroke:#000000;stroke-width:1;" x1="2388.1697" x2="2398.1697" y1="68.7373" y2="58.7373"/><line style="stroke:#000000;stroke-width:1;" x1="2073.1697" x2="2388.1697" y1="68.7373" y2="68.7373"/><line style="stroke:#000000;stroke-width:1;" x1="2388.1697" x2="2388.1697" y1="68.7373" y2="413.7373"/><text fill="#000000" font-family="Verdana" font-size="14" font-weight="bold" lengthAdjust="spacing" textLength="113.1895" x="2175.075" y="85.8125">Terrain Mobile</text></g><!--cluster DataCenter--><g id="cluster_DataCenter"><polygon fill="#E6F3FF" points="549.1697,277.7373,559.1697,267.7373,1936.1697,267.7373,1936.1697,799.7373,1926.1697,809.7373,549.1697,809.7373,549.1697,277.7373" style="stroke:#000000;stroke-width:1;"/><line style="stroke:#000000;stroke-width:1;" x1="1926.1697" x2="1936.1697" y1="277.7373" y2="267.7373"/><line style="stroke:#000000;stroke-width:1;" x1="549.1697" x2="1926.1697" y1="277.7373" y2="277.7373"/><line style="stroke:#000000;stroke-width:1;" x1="1926.1697" x2="1926.1697" y1="277.7373" y2="809.7373"/><text fill="#000000" font-family="Verdana" font-size="14" font-weight="bold" lengthAdjust="spacing" textLength="150.4658" x="1163.4368" y="294.8125">Data Center Hybrid</text></g><!--cluster DepotConnecte--><g id="cluster_DepotConnecte"><polygon fill="#FFF0E6" points="2536.1697,277.7373,2546.1697,267.7373,3049.1697,267.7373,3049.1697,622.7373,3039.1697,632.7373,2536.1697,632.7373,2536.1697,277.7373" style="stroke:#000000;stroke-width:1;"/><line style="stroke:#000000;stroke-width:1;" x1="3039.1697" x2="3049.1697" y1="277.7373" y2="267.7373"/><line style="stroke:#000000;stroke-width:1;" x1="2536.1697" x2="3039.1697" y1="277.7373" y2="277.7373"/><line style="stroke:#000000;stroke-width:1;" x1="3039.1697" x2="3039.1697" y1="277.7373" y2="632.7373"/><text fill="#000000" font-family="Verdana" font-size="14" font-weight="bold" lengthAdjust="spacing" textLength="124.3799" x="2726.4797" y="294.8125">Depot Connecte</text></g><!--cluster CloudAPI--><g id="cluster_CloudAPI"><path d="M1977.5637,507.9487 C1986.9432,492.5798 2005.3308,487.9343 2014.8098,507.8436 C2023.7372,489.1261 2036.6265,485.857 2050.1112,503.4077 C2061.5057,485.7922 2081.1445,480.5258 2092.9128,503.0087 C2104.1949,483.1381 2120.0436,483.8821 2131.1377,503.1921 C2141.4603,485.8755 2157.2228,484.3495 2167.7754,502.9575 C2176.26,486.2974 2187.9196,484.907 2199.0063,500.4325 C2208.6837,481.1851 2225.3837,474.5108 2240.5028,494.7077 C2251.9809,477.5663 2268.5335,483.5654 2274.7331,500.0769 C2286.5885,482.1481 2300.3027,479.7034 2313.9398,498.1569 C2325.6866,482.3144 2344.5027,483.0296 2354.4858,500.3154 C2367.2534,487.1668 2378.6343,488.8624 2387.4485,504.7962 C2400.3341,486.2359 2413.9901,486.1661 2427.9343,503.6057 C2439.263,488.7992 2454.453,489.0131 2463.1327,506.4936 C2479.3847,487.5916 2493.6317,490.3147 2504.1697,512.2373 C2507.4131,514.4053 2508.0176,516.461 2504.6001,519.0497 C2526.4483,534.0382 2530.7538,549.3599 2509.2718,568.4464 C2531.7556,588.9537 2525.8341,615.6296 2497.1697,625.2373 C2499.0455,623.7733 2500.3907,624.7808 2500.76,626.7932 C2490.3116,644.3859 2477.3933,646.246 2465.3375,628.3998 C2457.4225,649.9526 2442.4008,652.9534 2427.9073,634.5647 C2414.9733,653.1149 2400.2002,651.7641 2391.5757,630.6204 C2382.3435,653.3833 2369.5281,652.4601 2353.5478,637.4061 C2341.8875,653.05 2329.2987,655.7989 2317.4475,637.6098 C2305.2112,658.2616 2290.9064,657.7649 2277.5592,638.7262 C2267.2723,660.228 2247.0639,656.9745 2237.0628,638.4371 C2229.958,654.7807 2213.2693,656.3907 2203.0171,641.9139 C2188.6078,655.4904 2171.0376,657.2949 2163.6873,634.3186 C2152.539,650.8821 2133.6654,650.6044 2124.5317,632.0711 C2115.4837,649.1452 2104.8793,650.778 2091.3113,636.9265 C2076.3103,652.3043 2060.7319,653.0736 2051.4563,630.8569 C2039.8485,644.8622 2028.611,647.6467 2017.1837,630.6574 C1996.8545,649.1069 1976.3397,647.7722 1968.1697,618.2373 C1971.7403,616.1244 1974.5615,617.9469 1974.0563,622.0791 C1945.0627,609.0578 1939.2547,587.5443 1964.8775,565.6406 C1940.6819,540.569 1941.0475,520.3721 1975.1697,505.2373 C1977.1668,505.0335 1978.088,505.9262 1977.5637,507.9487 " fill="#F0F8FF" style="stroke:#000000;stroke-width:1;"/><text fill="#000000" font-family="Verdana" font-size="14" font-weight="bold" lengthAdjust="spacing" textLength="187.5439" x="2142.3977" y="524.3125">Fournisseurs Connectes</text></g><!--cluster ServicesCloud--><g id="cluster_ServicesCloud"><path d="M57.6565,291.1667 C65.293,275.8329 77.9602,275.55 88.1718,288.3762 C96.4386,270.9204 106.6578,270.0967 119.1245,284.2656 C128.7465,270.0903 141.4899,269.6824 151.64,283.6556 C159.9855,265.3264 172.4712,268.0214 184.1802,280.0502 C195.1945,260.5139 208.705,260.7421 221.0509,278.7422 C233.1156,264.3909 244.4633,268.0265 253.3407,282.3334 C262.1514,264.7527 271.7204,267.526 283.545,279.2243 C292.4024,262.8416 305.9913,262.2125 315.424,278.6657 C325.3583,262.5568 339.4136,265.2176 348.0992,279.987 C360.0833,264.9279 377.7258,267.3415 385.3583,284.9501 C394.9236,269.0977 407.9707,269.2185 418.0434,284.416 C429.7932,271.3405 440.525,270.4463 450.6871,286.213 C458.5627,272.1605 472.7057,273.3902 479.6089,287.2216 C493.2059,271.1779 508.5011,275.2197 517.1697,292.7373 C520.6151,291.6024 523.0373,293.891 522.4276,297.3642 C545.031,311.3683 547.5353,334.7844 525.2557,351.1485 C546.8964,374.0974 543.6383,398.0183 510.1697,405.7373 C512.0446,405.5144 513.5514,406.465 512.7032,408.6284 C502.6716,427.8115 490.8133,428.2127 477.5505,411.8213 C466.6004,423.8979 455.9056,423.1143 448.1118,408.3585 C438.8609,424.1342 424.6152,424.8828 414.7743,408.9793 C407.1744,424.301 394.9651,427.098 384.1511,412.2406 C375.6181,428.7446 359.7456,429.2445 350.8911,412.5628 C341.7736,424.7166 327.533,423.9687 319.6791,410.9933 C310.4506,427.1281 298.1112,429.8198 287.1907,412.6435 C276.0763,431.3397 259.864,431.1511 249.7267,411.6843 C239.9577,424.485 227.5118,423.3499 219.8047,409.3797 C208.7351,425.7435 198.7548,422.2329 188.5672,408.4653 C181.3717,425.1487 164.4704,428.9037 153.4507,412.5276 C143.2685,428.4442 133.2138,427.9127 123.1568,412.4069 C110.2631,428.8557 97.2916,426.9406 89.6081,407.5321 C73.0107,426.7099 53.5658,420.9986 45.1697,398.7373 C49.0576,399.7221 49.3896,401.7492 47.1326,404.7425 C15.3927,391.285 13.9611,372.4433 35.2651,347.9095 C11,321.3923 16.5191,295.9634 52.1697,285.7373 C56.2578,285.4166 57.991,287.018 57.6565,291.1667 " fill="#F5F5F5" style="stroke:#000000;stroke-width:1;"/><text fill="#000000" font-family="Verdana" font-size="14" font-weight="bold" lengthAdjust="spacing" textLength="115.001" x="223.6692" y="304.8125">Services Cloud</text></g><!--entity Marc--><g id="elem_Marc"><rect fill="#FFFFFF" height="54.0293" rx="2.5" ry="2.5" style="stroke:#000000;stroke-width:1;" width="129.1084" x="2252.6697" y="129.7373"/><text fill="#000000" font-family="Verdana" font-size="14" lengthAdjust="spacing" textLength="33.4756" x="2262.6697" y="153.8125">Marc</text><text fill="#000000" font-family="Verdana" font-size="14" lengthAdjust="spacing" textLength="109.1084" x="2262.6697" y="170.8271">(Chef Chantier)</text></g><!--entity AppMobile--><g id="elem_AppMobile"><rect fill="#90EE90" height="64.0293" rx="2.5" ry="2.5" style="stroke:#000000;stroke-width:1;" width="158.46" x="2181.1697" y="333.7373"/><rect fill="#90EE90" height="10" style="stroke:#000000;stroke-width:1;" width="15" x="2319.6297" y="338.7373"/><rect fill="#90EE90" height="2" style="stroke:#000000;stroke-width:1;" width="4" x="2317.6297" y="340.7373"/><rect fill="#90EE90" height="2" style="stroke:#000000;stroke-width:1;" width="4" x="2317.6297" y="344.7373"/><text fill="#000000" font-family="Verdana" font-size="14" lengthAdjust="spacing" textLength="118.46" x="2196.1697" y="367.8125">App Odoo Native</text><text fill="#000000" font-family="Verdana" font-size="14" lengthAdjust="spacing" textLength="112.6357" x="2196.1697" y="384.8271">(iOS + Android)</text></g><!--entity Offline--><g id="elem_Offline"><rect fill="#98FB98" height="64.0293" rx="2.5" ry="2.5" style="stroke:#000000;stroke-width:1;" width="128.0264" x="2089.1697" y="124.7373"/><rect fill="#98FB98" height="10" style="stroke:#000000;stroke-width:1;" width="15" x="2197.1961" y="129.7373"/><rect fill="#98FB98" height="2" style="stroke:#000000;stroke-width:1;" width="4" x="2195.1961" y="131.7373"/><rect fill="#98FB98" height="2" style="stroke:#000000;stroke-width:1;" width="4" x="2195.1961" y="135.7373"/><text fill="#000000" font-family="Verdana" font-size="14" lengthAdjust="spacing" textLength="88.0264" x="2104.1697" y="158.8125">Mode Offline</text><text fill="#000000" font-family="Verdana" font-size="14" lengthAdjust="spacing" textLength="82.9268" x="2104.1697" y="175.8271">(Sync auto)</text></g><!--entity Odoo--><g id="elem_Odoo"><rect fill="#87CEEB" height="64.0293" rx="2.5" ry="2.5" style="stroke:#000000;stroke-width:1;" width="139.6953" x="565.1697" y="553.2373"/><rect fill="#87CEEB" height="10" style="stroke:#000000;stroke-width:1;" width="15" x="684.865" y="558.2373"/><rect fill="#87CEEB" height="2" style="stroke:#000000;stroke-width:1;" width="4" x="682.865" y="560.2373"/><rect fill="#87CEEB" height="2" style="stroke:#000000;stroke-width:1;" width="4" x="682.865" y="564.2373"/><text fill="#000000" font-family="Verdana" font-size="14" lengthAdjust="spacing" textLength="99.6953" x="580.1697" y="587.3125">ERP Odoo v17</text><text fill="#000000" font-family="Verdana" font-size="14" lengthAdjust="spacing" textLength="95.0811" x="580.1697" y="604.3271">(On-premise)</text></g><!--entity Postgres--><g id="elem_Postgres"><path d="M565.1697,740.7373 C565.1697,730.7373 649.1448,730.7373 649.1448,730.7373 C649.1448,730.7373 733.1199,730.7373 733.1199,740.7373 L733.1199,783.7666 C733.1199,793.7666 649.1448,793.7666 649.1448,793.7666 C649.1448,793.7666 565.1697,793.7666 565.1697,783.7666 L565.1697,740.7373 " fill="#4682B4" style="stroke:#000000;stroke-width:1;"/><path d="M565.1697,740.7373 C565.1697,750.7373 649.1448,750.7373 649.1448,750.7373 C649.1448,750.7373 733.1199,750.7373 733.1199,740.7373 " fill="none" style="stroke:#000000;stroke-width:1;"/><text fill="#000000" font-family="Verdana" font-size="14" lengthAdjust="spacing" textLength="103.8926" x="575.1697" y="768.8125">PostgreSQL 15</text><text fill="#000000" font-family="Verdana" font-size="14" lengthAdjust="spacing" textLength="147.9502" x="575.1697" y="785.8271">(Haute Performance)</text></g><!--entity APIGateway--><g id="elem_APIGateway"><rect fill="#5F9EA0" height="64.0293" rx="2.5" ry="2.5" style="stroke:#000000;stroke-width:1;" width="172.4326" x="922.1697" y="553.2373"/><rect fill="#5F9EA0" height="10" style="stroke:#000000;stroke-width:1;" width="15" x="1074.6023" y="558.2373"/><rect fill="#5F9EA0" height="2" style="stroke:#000000;stroke-width:1;" width="4" x="1072.6023" y="560.2373"/><rect fill="#5F9EA0" height="2" style="stroke:#000000;stroke-width:1;" width="4" x="1072.6023" y="564.2373"/><text fill="#000000" font-family="Verdana" font-size="14" lengthAdjust="spacing" textLength="90.0977" x="937.1697" y="587.3125">API Gateway</text><text fill="#000000" font-family="Verdana" font-size="14" lengthAdjust="spacing" textLength="132.4326" x="937.1697" y="604.3271">(REST + GraphQL)</text></g><!--entity MLEngine--><g id="elem_MLEngine"><rect fill="#48D1CC" height="64.0293" rx="2.5" ry="2.5" style="stroke:#000000;stroke-width:1;" width="129.3389" x="1233.6697" y="333.7373"/><rect fill="#48D1CC" height="10" style="stroke:#000000;stroke-width:1;" width="15" x="1343.0086" y="338.7373"/><rect fill="#48D1CC" height="2" style="stroke:#000000;stroke-width:1;" width="4" x="1341.0086" y="340.7373"/><rect fill="#48D1CC" height="2" style="stroke:#000000;stroke-width:1;" width="4" x="1341.0086" y="344.7373"/><text fill="#000000" font-family="Verdana" font-size="14" lengthAdjust="spacing" textLength="71.9893" x="1248.6697" y="367.8125">ML Engine</text><text fill="#000000" font-family="Verdana" font-size="14" lengthAdjust="spacing" textLength="89.3389" x="1248.6697" y="384.8271">(Predictions)</text></g><!--entity Eric--><g id="elem_Eric"><rect fill="#FFFFFF" height="54.0293" rx="2.5" ry="2.5" style="stroke:#000000;stroke-width:1;" width="108.2041" x="2794.1697" y="558.2373"/><text fill="#000000" font-family="Verdana" font-size="14" lengthAdjust="spacing" textLength="25.9629" x="2804.1697" y="582.3125">Eric</text><text fill="#000000" font-family="Verdana" font-size="14" lengthAdjust="spacing" textLength="88.2041" x="2804.1697" y="599.3271">(Magasinier)</text></g><!--entity PortiqueRFID--><g id="elem_PortiqueRFID"><rect fill="#FFD700" height="64.0293" rx="2.5" ry="2.5" style="stroke:#000000;stroke-width:1;" width="151.9111" x="2649.1697" y="333.7373"/><rect fill="#FFD700" height="10" style="stroke:#000000;stroke-width:1;" width="15" x="2781.0808" y="338.7373"/><rect fill="#FFD700" height="2" style="stroke:#000000;stroke-width:1;" width="4" x="2779.0808" y="340.7373"/><rect fill="#FFD700" height="2" style="stroke:#000000;stroke-width:1;" width="4" x="2779.0808" y="344.7373"/><text fill="#000000" font-family="Verdana" font-size="14" lengthAdjust="spacing" textLength="97.5762" x="2664.1697" y="367.8125">Portique RFID</text><text fill="#000000" font-family="Verdana" font-size="14" lengthAdjust="spacing" textLength="111.9111" x="2664.1697" y="384.8271">(Zebra FX9600)</text></g><!--entity Douchettes--><g id="elem_Douchettes"><rect fill="#FFA500" height="64.0293" rx="2.5" ry="2.5" style="stroke:#000000;stroke-width:1;" width="158.3574" x="2836.1697" y="333.7373"/><rect fill="#FFA500" height="10" style="stroke:#000000;stroke-width:1;" width="15" x="2974.5271" y="338.7373"/><rect fill="#FFA500" height="2" style="stroke:#000000;stroke-width:1;" width="4" x="2972.5271" y="340.7373"/><rect fill="#FFA500" height="2" style="stroke:#000000;stroke-width:1;" width="4" x="2972.5271" y="344.7373"/><text fill="#000000" font-family="Verdana" font-size="14" lengthAdjust="spacing" textLength="118.3574" x="2851.1697" y="367.8125">Douchettes Scan</text><text fill="#000000" font-family="Verdana" font-size="14" lengthAdjust="spacing" textLength="115.8486" x="2851.1697" y="384.8271">(Zebra MC3300)</text></g><!--entity StockReel--><g id="elem_StockReel"><path d="M2552.1697,563.7373 C2552.1697,553.7373 2625.1013,553.7373 2625.1013,553.7373 C2625.1013,553.7373 2698.033,553.7373 2698.033,563.7373 L2698.033,606.7666 C2698.033,616.7666 2625.1013,616.7666 2625.1013,616.7666 C2625.1013,616.7666 2552.1697,616.7666 2552.1697,606.7666 L2552.1697,563.7373 " fill="#FF8C00" style="stroke:#000000;stroke-width:1;"/><path d="M2552.1697,563.7373 C2552.1697,573.7373 2625.1013,573.7373 2625.1013,573.7373 C2625.1013,573.7373 2698.033,573.7373 2698.033,563.7373 " fill="none" style="stroke:#000000;stroke-width:1;"/><text fill="#000000" font-family="Verdana" font-size="14" lengthAdjust="spacing" textLength="125.8633" x="2562.1697" y="591.8125">Stock Temps Reel</text><text fill="#000000" font-family="Verdana" font-size="14" lengthAdjust="spacing" textLength="85.1484" x="2562.1697" y="608.8271">(RFID Tags)</text></g><!--entity RexelAPI--><g id="elem_RexelAPI"><rect fill="#B0E0E6" height="64.0293" rx="2.5" ry="2.5" style="stroke:#000000;stroke-width:1;" width="183.5479" x="1976.1697" y="553.2373"/><rect fill="#B0E0E6" height="10" style="stroke:#000000;stroke-width:1;" width="15" x="2139.7175" y="558.2373"/><rect fill="#B0E0E6" height="2" style="stroke:#000000;stroke-width:1;" width="4" x="2137.7175" y="560.2373"/><rect fill="#B0E0E6" height="2" style="stroke:#000000;stroke-width:1;" width="4" x="2137.7175" y="564.2373"/><text fill="#000000" font-family="Verdana" font-size="14" lengthAdjust="spacing" textLength="67.3682" x="1991.1697" y="587.3125">Rexel API</text><text fill="#000000" font-family="Verdana" font-size="14" lengthAdjust="spacing" textLength="143.5479" x="1991.1697" y="604.3271">(Catalogue + Stock)</text></g><!--entity SoneAPI--><g id="elem_SoneAPI"><rect fill="#B0E0E6" height="64.0293" rx="2.5" ry="2.5" style="stroke:#000000;stroke-width:1;" width="139.7021" x="2356.1697" y="553.2373"/><rect fill="#B0E0E6" height="10" style="stroke:#000000;stroke-width:1;" width="15" x="2475.8718" y="558.2373"/><rect fill="#B0E0E6" height="2" style="stroke:#000000;stroke-width:1;" width="4" x="2473.8718" y="560.2373"/><rect fill="#B0E0E6" height="2" style="stroke:#000000;stroke-width:1;" width="4" x="2473.8718" y="564.2373"/><text fill="#000000" font-family="Verdana" font-size="14" lengthAdjust="spacing" textLength="87.1992" x="2371.1697" y="587.3125">Sonepar API</text><text fill="#000000" font-family="Verdana" font-size="14" lengthAdjust="spacing" textLength="99.7021" x="2371.1697" y="604.3271">(Prix + Dispo)</text></g><!--entity AutresAPI--><g id="elem_AutresAPI"><rect fill="#B0E0E6" height="64.0293" rx="2.5" ry="2.5" style="stroke:#000000;stroke-width:1;" width="124.6084" x="2195.6697" y="553.2373"/><rect fill="#B0E0E6" height="10" style="stroke:#000000;stroke-width:1;" width="15" x="2300.2781" y="558.2373"/><rect fill="#B0E0E6" height="2" style="stroke:#000000;stroke-width:1;" width="4" x="2298.2781" y="560.2373"/><rect fill="#B0E0E6" height="2" style="stroke:#000000;stroke-width:1;" width="4" x="2298.2781" y="564.2373"/><text fill="#000000" font-family="Verdana" font-size="14" lengthAdjust="spacing" textLength="81.6758" x="2210.6697" y="587.3125">Autres APIs</text><text fill="#000000" font-family="Verdana" font-size="14" lengthAdjust="spacing" textLength="84.6084" x="2210.6697" y="604.3271">(Extensible)</text></g><!--entity PowerBI--><g id="elem_PowerBI"><rect fill="#FFE4B5" height="64.0293" rx="2.5" ry="2.5" style="stroke:#000000;stroke-width:1;" width="135.6826" x="224.1697" y="333.7373"/><rect fill="#FFE4B5" height="10" style="stroke:#000000;stroke-width:1;" width="15" x="339.8523" y="338.7373"/><rect fill="#FFE4B5" height="2" style="stroke:#000000;stroke-width:1;" width="4" x="337.8523" y="340.7373"/><rect fill="#FFE4B5" height="2" style="stroke:#000000;stroke-width:1;" width="4" x="337.8523" y="344.7373"/><text fill="#000000" font-family="Verdana" font-size="14" lengthAdjust="spacing" textLength="63.123" x="239.1697" y="367.8125">Power BI</text><text fill="#000000" font-family="Verdana" font-size="14" lengthAdjust="spacing" textLength="95.6826" x="239.1697" y="384.8271">(Dashboards)</text></g><!--entity Backup--><g id="elem_Backup"><rect fill="#D3D3D3" height="64.0293" rx="2.5" ry="2.5" style="stroke:#000000;stroke-width:1;" width="136.1885" x="53.1697" y="333.7373"/><rect fill="#D3D3D3" height="10" style="stroke:#000000;stroke-width:1;" width="15" x="169.3582" y="338.7373"/><rect fill="#D3D3D3" height="2" style="stroke:#000000;stroke-width:1;" width="4" x="167.3582" y="340.7373"/><rect fill="#D3D3D3" height="2" style="stroke:#000000;stroke-width:1;" width="4" x="167.3582" y="344.7373"/><text fill="#000000" font-family="Verdana" font-size="14" lengthAdjust="spacing" textLength="96.1885" x="68.1697" y="367.8125">Azure Backup</text><text fill="#000000" font-family="Verdana" font-size="14" lengthAdjust="spacing" textLength="33.2363" x="68.1697" y="384.8271">(DR)</text></g><!--entity Monitor--><g id="elem_Monitor"><rect fill="#C0C0C0" height="64.0293" rx="2.5" ry="2.5" style="stroke:#000000;stroke-width:1;" width="114.4092" x="395.1697" y="333.7373"/><rect fill="#C0C0C0" height="10" style="stroke:#000000;stroke-width:1;" width="15" x="489.5789" y="338.7373"/><rect fill="#C0C0C0" height="2" style="stroke:#000000;stroke-width:1;" width="4" x="487.5789" y="340.7373"/><rect fill="#C0C0C0" height="2" style="stroke:#000000;stroke-width:1;" width="4" x="487.5789" y="344.7373"/><text fill="#000000" font-family="Verdana" font-size="14" lengthAdjust="spacing" textLength="74.4092" x="410.1697" y="367.8125">Monitoring</text><text fill="#000000" font-family="Verdana" font-size="14" lengthAdjust="spacing" textLength="45.7734" x="410.1697" y="384.8271">(24/7)</text></g><g id="elem_GMN47"><path d="M3065.6697,313.2373 L3065.6697,418.0332 L3300.1985,418.0332 L3300.1985,323.2373 L3290.1985,313.2373 L3065.6697,313.2373 " fill="#E6FFE6" style="stroke:#000000;stroke-width:1;"/><path d="M3290.1985,313.2373 L3290.1985,323.2373 L3300.1985,323.2373 L3290.1985,313.2373 " fill="#E6FFE6" style="stroke:#000000;stroke-width:1;"/><text fill="#000000" font-family="Verdana" font-size="13" lengthAdjust="spacing" textLength="13" x="3071.6697" y="331.3071">&#128994;</text><text fill="#000000" font-family="Verdana" font-size="13" font-weight="bold" lengthAdjust="spacing" textLength="195.9585" x="3089.24" y="331.3071">AMELIORATIONS TERRAIN</text><text fill="#000000" font-family="Verdana" font-size="13" lengthAdjust="spacing" textLength="128.0767" x="3071.6697" y="347.1064">&#8226; Interface intuitive</text><text fill="#000000" font-family="Verdana" font-size="13" lengthAdjust="spacing" textLength="145.0313" x="3071.6697" y="362.9058">&#8226; Mode offline robuste</text><text fill="#000000" font-family="Verdana" font-size="13" lengthAdjust="spacing" textLength="145.228" x="3071.6697" y="378.7051">&#8226; Scan QR/Code barre</text><text fill="#000000" font-family="Verdana" font-size="13" lengthAdjust="spacing" textLength="145.9136" x="3071.6697" y="394.5044">&#8226; Photos geolocalisees</text><text fill="#000000" font-family="Verdana" font-size="13" lengthAdjust="spacing" textLength="159.7134" x="3071.6697" y="410.3037">&#8226; Signature electronique</text></g><g id="elem_GMN50"><path d="M3065.1697,532.7373 L3065.1697,637.5332 L3302.7835,637.5332 L3302.7835,542.7373 L3292.7835,532.7373 L3065.1697,532.7373 " fill="#E6F3FF" style="stroke:#000000;stroke-width:1;"/><path d="M3292.7835,532.7373 L3292.7835,542.7373 L3302.7835,542.7373 L3292.7835,532.7373 " fill="#E6F3FF" style="stroke:#000000;stroke-width:1;"/><text fill="#000000" font-family="Verdana" font-size="13" lengthAdjust="spacing" textLength="13" x="3071.1697" y="550.8071">&#128994;</text><text fill="#000000" font-family="Verdana" font-size="13" font-weight="bold" lengthAdjust="spacing" textLength="199.0435" x="3088.74" y="550.8071">COEUR SYSTEME MODERNE</text><text fill="#000000" font-family="Verdana" font-size="13" lengthAdjust="spacing" textLength="184.5518" x="3071.1697" y="566.6064">&#8226; Architecture microservices</text><text fill="#000000" font-family="Verdana" font-size="13" lengthAdjust="spacing" textLength="170.917" x="3071.1697" y="582.4058">&#8226; APIs REST documentees</text><text fill="#000000" font-family="Verdana" font-size="13" lengthAdjust="spacing" textLength="180.8765" x="3071.1697" y="598.2051">&#8226; Haute disponibilite 99.9%</text><text fill="#000000" font-family="Verdana" font-size="13" lengthAdjust="spacing" textLength="155.1621" x="3071.1697" y="614.0044">&#8226; Scalabilite horizontale</text><text fill="#000000" font-family="Verdana" font-size="13" lengthAdjust="spacing" textLength="142.7651" x="3071.1697" y="629.8037">&#8226; Integrations natives</text></g><g id="elem_GMN53"><path d="M3335.6697,313.2373 L3335.6697,418.0332 L3570.992,418.0332 L3570.992,323.2373 L3560.992,313.2373 L3335.6697,313.2373 " fill="#FFF0E6" style="stroke:#000000;stroke-width:1;"/><path d="M3560.992,313.2373 L3560.992,323.2373 L3570.992,323.2373 L3560.992,313.2373 " fill="#FFF0E6" style="stroke:#000000;stroke-width:1;"/><text fill="#000000" font-family="Verdana" font-size="13" lengthAdjust="spacing" textLength="13" x="3341.6697" y="331.3071">&#128994;</text><text fill="#000000" font-family="Verdana" font-size="13" font-weight="bold" lengthAdjust="spacing" textLength="196.752" x="3359.24" y="331.3071">AUTOMATISATION TOTALE</text><text fill="#000000" font-family="Verdana" font-size="13" lengthAdjust="spacing" textLength="183.7075" x="3341.6697" y="347.1064">&#8226; Reception 2 sec vs 20 min</text><text fill="#000000" font-family="Verdana" font-size="13" lengthAdjust="spacing" textLength="133.6055" x="3341.6697" y="362.9058">&#8226; 0 erreur comptage</text><text fill="#000000" font-family="Verdana" font-size="13" lengthAdjust="spacing" textLength="122.1543" x="3341.6697" y="378.7051">&#8226; Stock temps reel</text><text fill="#000000" font-family="Verdana" font-size="13" lengthAdjust="spacing" textLength="143.4316" x="3341.6697" y="394.5044">&#8226; Tracabilite complete</text><text fill="#000000" font-family="Verdana" font-size="13" lengthAdjust="spacing" textLength="84.6841" x="3341.6697" y="410.3037">&#8226; ROI 6 mois</text></g><g id="elem_GMN56"><path d="M3338.1697,532.7373 L3338.1697,637.5332 L3556.0169,637.5332 L3556.0169,542.7373 L3546.0169,532.7373 L3338.1697,532.7373 " fill="#F0F8FF" style="stroke:#000000;stroke-width:1;"/><path d="M3546.0169,532.7373 L3546.0169,542.7373 L3556.0169,542.7373 L3546.0169,532.7373 " fill="#F0F8FF" style="stroke:#000000;stroke-width:1;"/><text fill="#000000" font-family="Verdana" font-size="13" lengthAdjust="spacing" textLength="13" x="3344.1697" y="550.8071">&#128994;</text><text fill="#000000" font-family="Verdana" font-size="13" font-weight="bold" lengthAdjust="spacing" textLength="179.2769" x="3361.74" y="550.8071">ECOSYSTEME CONNECTE</text><text fill="#000000" font-family="Verdana" font-size="13" lengthAdjust="spacing" textLength="172.561" x="3344.1697" y="566.6064">&#8226; Catalogues synchronises</text><text fill="#000000" font-family="Verdana" font-size="13" lengthAdjust="spacing" textLength="110.4365" x="3344.1697" y="582.4058">&#8226; Prix temps reel</text><text fill="#000000" font-family="Verdana" font-size="13" lengthAdjust="spacing" textLength="159.6055" x="3344.1697" y="598.2051">&#8226; Stock fournisseurs live</text><text fill="#000000" font-family="Verdana" font-size="13" lengthAdjust="spacing" textLength="186.1704" x="3344.1697" y="614.0044">&#8226; Commandes automatiques</text><text fill="#000000" font-family="Verdana" font-size="13" lengthAdjust="spacing" textLength="144.8916" x="3344.1697" y="629.8037">&#8226; 0 ressaisie manuelle</text></g><!--link Marc to AppMobile--><g id="link_Marc_AppMobile"><path d="M2309.9497,183.9573 C2299.4397,222.1373 2281.5328,287.1527 2270.3128,327.8927 " fill="none" id="Marc-to-AppMobile" style="stroke:#000000;stroke-width:1;"/><polygon fill="#000000" points="2268.7197,333.6773,2274.9658,326.0624,2270.0473,328.8568,2267.2529,323.9383,2268.7197,333.6773" style="stroke:#000000;stroke-width:1;"/><text fill="#000000" font-family="Verdana" font-size="13" lengthAdjust="spacing" textLength="120.853" x="2301.1697" y="232.8071">&#128241; Interface tactile</text><text fill="#000000" font-family="Verdana" font-size="13" lengthAdjust="spacing" textLength="97.9507" x="2312.6209" y="248.6064">(UX optimisee)</text></g><!--link AppMobile to APIGateway--><g id="link_AppMobile_APIGateway"><path d="M2181.0897,396.3973 C2108.1297,422.6073 1996.2697,459.8873 1896.1697,481.2373 C1606.0697,543.1073 1260.1687,569.6451 1100.4487,579.3051 " fill="none" id="AppMobile-to-APIGateway" style="stroke:#000000;stroke-width:1;"/><polygon fill="#000000" points="1094.4597,579.6673,1103.6848,583.1167,1099.4506,579.3655,1103.2018,575.1313,1094.4597,579.6673" style="stroke:#000000;stroke-width:1;"/><text fill="#000000" font-family="Verdana" font-size="13" lengthAdjust="spacing" textLength="106.6406" x="2018.1697" y="462.3071">&#128272; HTTPS + JWT</text><text fill="#000000" font-family="Verdana" font-size="13" lengthAdjust="spacing" textLength="67.0693" x="2037.9553" y="478.1064">(Securise)</text></g><!--link APIGateway to Odoo--><g id="link_APIGateway_Odoo"><path d="M988.3397,553.0473 C969.7997,526.3073 939.4097,490.1673 902.1697,474.2373 C832.4297,444.4073 798.7797,452.9573 732.1697,489.2373 C703.4497,504.8773 681.3616,526.947 663.5516,548.217 " fill="none" id="APIGateway-to-Odoo" style="stroke:#000000;stroke-width:1;"/><polygon fill="#000000" points="659.6997,552.8173,668.5445,548.4849,662.9096,548.9837,662.4108,543.3489,659.6997,552.8173" style="stroke:#000000;stroke-width:1;"/><text fill="#000000" font-family="Verdana" font-size="13" lengthAdjust="spacing" textLength="100.0962" x="801.1697" y="462.3071">&#128260; Transactions</text><text fill="#000000" font-family="Verdana" font-size="13" lengthAdjust="spacing" textLength="84.2524" x="809.0916" y="478.1064">(Temps reel)</text></g><!--link Odoo to Postgres--><g id="link_Odoo_Postgres"><path d="M637.6697,617.5273 C640.2297,649.4773 643.6912,692.7864 646.2312,724.5364 " fill="none" id="Odoo-to-Postgres" style="stroke:#000000;stroke-width:1;"/><polygon fill="#000000" points="646.7097,730.5173,649.9792,721.227,646.311,725.5332,642.0047,721.8649,646.7097,730.5173" style="stroke:#000000;stroke-width:1;"/><text fill="#000000" font-family="Verdana" font-size="13" lengthAdjust="spacing" textLength="91.4888" x="657.1892" y="681.8071">&#128190; Persistance</text><text fill="#000000" font-family="Verdana" font-size="13" lengthAdjust="spacing" textLength="113.5278" x="646.1697" y="697.6064">(ACID compliant)</text></g><!--reverse link MLEngine to APIGateway--><g id="link_MLEngine_APIGateway"><path d="M1369.0874,367.8739 C1488.5974,371.1939 1730.0897,385.4973 1783.1697,448.2373 C1792.6397,459.4373 1792.8297,470.2073 1783.1697,481.2373 C1738.2597,532.5173 1286.6597,566.7373 1094.2497,579.0973 " fill="none" id="MLEngine-backto-APIGateway" style="stroke:#000000;stroke-width:1;"/><polygon fill="#000000" points="1363.0897,367.7073,1371.9751,371.9557,1368.0878,367.8462,1372.1973,363.9588,1363.0897,367.7073" style="stroke:#000000;stroke-width:1;"/><text fill="#000000" font-family="Verdana" font-size="13" lengthAdjust="spacing" textLength="96.9795" x="1791.1697" y="462.3071">&#129302; Suggestions</text><text fill="#000000" font-family="Verdana" font-size="13" lengthAdjust="spacing" textLength="84.5317" x="1797.3936" y="478.1064">(IA integree)</text></g><!--reverse link PortiqueRFID to Eric--><g id="link_PortiqueRFID_Eric"><path d="M2721.665,404.011 C2720.565,428.011 2722.3397,455.3073 2735.1697,481.2373 C2750.9397,513.1173 2781.1597,539.8473 2806.3897,558.0773 " fill="none" id="PortiqueRFID-backto-Eric" style="stroke:#000000;stroke-width:1;"/><polygon fill="#000000" points="2721.9397,398.0173,2717.5318,406.8247,2721.7108,403.0121,2725.5234,407.191,2721.9397,398.0173" style="stroke:#000000;stroke-width:1;"/><text fill="#000000" font-family="Verdana" font-size="13" lengthAdjust="spacing" textLength="136.0938" x="2736.1697" y="462.3071">&#128230; Scan automatique</text><text fill="#000000" font-family="Verdana" font-size="13" lengthAdjust="spacing" textLength="80.4058" x="2764.0137" y="478.1064">(2 sec/colis)</text></g><!--reverse link Douchettes to Eric--><g id="link_Douchettes_Eric"><path d="M2903.8037,403.6315 C2890.5637,446.6215 2868.6897,517.6373 2856.2797,557.9073 " fill="none" id="Douchettes-backto-Eric" style="stroke:#000000;stroke-width:1;"/><polygon fill="#000000" points="2905.5697,397.8973,2899.0979,405.3213,2904.098,402.6758,2906.7435,407.676,2905.5697,397.8973" style="stroke:#000000;stroke-width:1;"/><text fill="#000000" font-family="Verdana" font-size="13" lengthAdjust="spacing" textLength="97.3477" x="2902.9888" y="462.3071">&#128241; Scan mobile</text><text fill="#000000" font-family="Verdana" font-size="13" lengthAdjust="spacing" textLength="122.9858" x="2890.1697" y="478.1064">(QR + Code barre)</text></g><!--link PortiqueRFID to StockReel--><g id="link_PortiqueRFID_StockReel"><path d="M2649.1297,392.6173 C2623.8997,405.2473 2598.5797,423.2573 2584.1697,448.2373 C2564.8797,481.6673 2581.2899,519.9781 2599.4499,548.6581 " fill="none" id="PortiqueRFID-to-StockReel" style="stroke:#000000;stroke-width:1;"/><polygon fill="#000000" points="2602.6597,553.7273,2601.2245,543.9836,2599.9848,549.5029,2594.4655,548.2633,2602.6597,553.7273" style="stroke:#000000;stroke-width:1;"/><text fill="#000000" font-family="Verdana" font-size="13" lengthAdjust="spacing" textLength="81.9419" x="2595.5798" y="462.3071">&#127991;&#65039; RFID tags</text><text fill="#000000" font-family="Verdana" font-size="13" lengthAdjust="spacing" textLength="102.7622" x="2585.1697" y="478.1064">(5000 produits)</text></g><!--link APIGateway to RexelAPI--><g id="link_APIGateway_RexelAPI"><path d="M1094.4597,585.2373 C1291.5597,585.2373 1767.3497,585.2373 1969.9797,585.2373 " fill="none" id="APIGateway-to-RexelAPI" style="stroke:#000000;stroke-width:1;"/><polygon fill="#000000" points="1975.9797,585.2373,1966.9797,581.2373,1970.9797,585.2373,1966.9797,589.2373,1975.9797,585.2373" style="stroke:#000000;stroke-width:1;"/><text fill="#000000" font-family="Verdana" font-size="13" lengthAdjust="spacing" textLength="116.9492" x="1477.1697" y="602.3071">&#127760; Catalogue sync</text><text fill="#000000" font-family="Verdana" font-size="13" lengthAdjust="spacing" textLength="84.2524" x="1493.5181" y="618.1064">(Temps reel)</text></g><!--link APIGateway to SoneAPI--><g id="link_APIGateway_SoneAPI"><path d="M1022.7497,552.9873 C1036.7297,526.3973 1060.5997,490.5073 1093.6697,474.2373 C1145.9097,448.5373 1166.4497,473.8473 1224.6697,474.2373 C1348.3997,475.0673 2225.2497,438.6573 2338.1697,489.2373 C2367.4697,502.3673 2387.9351,525.5268 2403.3851,547.9468 " fill="none" id="APIGateway-to-SoneAPI" style="stroke:#000000;stroke-width:1;"/><polygon fill="#000000" points="2406.7897,552.8873,2404.9765,543.2068,2403.9525,548.7702,2398.3891,547.7463,2406.7897,552.8873" style="stroke:#000000;stroke-width:1;"/><text fill="#000000" font-family="Verdana" font-size="13" lengthAdjust="spacing" textLength="129.8159" x="1094.6697" y="462.3071">&#128176; Prix comparaison</text><text fill="#000000" font-family="Verdana" font-size="13" lengthAdjust="spacing" textLength="41.9326" x="1138.6113" y="478.1064">(Auto)</text></g><!--link APIGateway to AutresAPI--><g id="link_APIGateway_AutresAPI"><path d="M1094.3197,566.4673 C1222.2497,539.6473 1470.3497,491.6773 1684.1697,474.2373 C1727.5797,470.6973 1738.6197,473.4173 1782.1697,474.2373 C1958.2597,477.5673 2020.1097,411.5273 2178.1697,489.2373 C2205.8197,502.8273 2224.2613,525.7697 2238.0013,548.0597 " fill="none" id="APIGateway-to-AutresAPI" style="stroke:#000000;stroke-width:1;"/><polygon fill="#000000" points="2241.1497,553.1673,2239.8321,543.407,2238.526,548.911,2233.022,547.6049,2241.1497,553.1673" style="stroke:#000000;stroke-width:1;"/><text fill="#000000" font-family="Verdana" font-size="13" lengthAdjust="spacing" textLength="96.5859" x="1685.1697" y="462.3071">&#128200; Extensibilite</text><text fill="#000000" font-family="Verdana" font-size="13" lengthAdjust="spacing" textLength="54.1455" x="1706.3899" y="478.1064">(Future)</text></g><!--reverse link PowerBI to Odoo--><g id="link_PowerBI_Odoo"><path d="M326.8064,401.9754 C351.9764,426.6254 385.2197,456.6973 422.1697,481.2373 C467.1697,511.1173 522.1397,537.4773 564.9597,556.0573 " fill="none" id="PowerBI-backto-Odoo" style="stroke:#000000;stroke-width:1;"/><polygon fill="#000000" points="322.5197,397.7773,326.151,406.9323,326.0919,401.2757,331.7485,401.2167,322.5197,397.7773" style="stroke:#000000;stroke-width:1;"/><text fill="#000000" font-family="Verdana" font-size="13" lengthAdjust="spacing" textLength="75.9878" x="430.187" y="462.3071">&#128202; Analytics</text><text fill="#000000" font-family="Verdana" font-size="13" lengthAdjust="spacing" textLength="90.0225" x="423.1697" y="478.1064">(DirectQuery)</text></g><!--reverse link Backup to Postgres--><g id="link_Backup_Postgres"><path d="M156.898,402.0536 C211.778,455.5036 325.5997,562.3973 437.1697,641.2373 C485.5297,675.4073 544.3997,708.0873 587.8197,730.6973 " fill="none" id="Backup-backto-Postgres" style="stroke:#000000;stroke-width:1;"/><polygon fill="#000000" points="152.5997,397.8673,156.2562,407.0122,156.1816,401.3559,161.8379,401.2812,152.5997,397.8673" style="stroke:#000000;stroke-width:1;"/><text fill="#000000" font-family="Verdana" font-size="13" lengthAdjust="spacing" textLength="108.2275" x="438.1697" y="582.8071">&#9729;&#65039; Sauvegarde</text><text fill="#000000" font-family="Verdana" font-size="13" lengthAdjust="spacing" textLength="90.4541" x="447.0564" y="598.6064">(Quotidienne)</text></g><!--reverse link Monitor to Odoo--><g id="link_Monitor_Odoo"><path d="M482.2525,402.4885 C517.0425,443.8385 574.2397,511.8173 608.9997,553.1373 " fill="none" id="Monitor-backto-Odoo" style="stroke:#000000;stroke-width:1;"/><polygon fill="#000000" points="478.3897,397.8973,481.1231,407.3593,481.6087,401.7233,487.2447,402.2089,478.3897,397.8973" style="stroke:#000000;stroke-width:1;"/><text fill="#000000" font-family="Verdana" font-size="13" lengthAdjust="spacing" textLength="81.3516" x="545.1697" y="462.3071">&#128200; Metriques</text><text fill="#000000" font-family="Verdana" font-size="13" lengthAdjust="spacing" textLength="57.1924" x="557.2493" y="478.1064">(Alertes)</text></g><!--reverse link Odoo to StockReel--><g id="link_Odoo_StockReel"><path d="M661.0377,548.2346 C678.4777,525.8546 701.2497,502.4973 732.1697,489.2373 C833.9197,445.5973 1119.4697,475.9073 1230.1697,474.2373 C1735.1997,466.6373 2332.2697,421.8373 2512.1697,489.2373 C2546.8797,502.2473 2578.2997,530.9873 2599.1397,553.6573 " fill="none" id="Odoo-backto-StockReel" style="stroke:#000000;stroke-width:1;"/><polygon fill="#000000" points="657.3497,552.9673,666.0369,548.327,660.4231,549.0234,659.7266,543.4096,657.3497,552.9673" style="stroke:#000000;stroke-width:1;"/><text fill="#000000" font-family="Verdana" font-size="13" lengthAdjust="spacing" textLength="87.9722" x="1237.365" y="462.3071">&#128202; Stock sync</text><text fill="#000000" font-family="Verdana" font-size="13" lengthAdjust="spacing" textLength="100.3628" x="1231.1697" y="478.1064">(Bidirectionnel)</text></g><!--link MLEngine to Postgres--><g id="link_MLEngine_Postgres"><path d="M1233.4197,367.6973 C1110.6697,370.9673 851.1097,385.3373 792.1697,448.2373 C715.0897,530.4973 831.5997,607.5473 768.1697,700.7373 C759.3697,713.6673 752.0626,720.8803 738.5326,729.0703 " fill="none" id="MLEngine-to-Postgres" style="stroke:#000000;stroke-width:1;"/><polygon fill="#000000" points="733.3997,732.1773,743.1703,730.9387,737.6771,729.5881,739.0276,724.0948,733.3997,732.1773" style="stroke:#000000;stroke-width:1;"/><text fill="#000000" font-family="Verdana" font-size="13" lengthAdjust="spacing" textLength="110.062" x="789.1697" y="582.8071">&#129504; Apprentissage</text><text fill="#000000" font-family="Verdana" font-size="13" lengthAdjust="spacing" textLength="78.1143" x="805.1436" y="598.6064">(Historique)</text></g><!--link AppMobile to GMN47--><g id="link_AppMobile_GMN47"><path d="M2309.0397,333.6373 C2365.3197,298.7573 2461.8497,245.2173 2553.6697,224.2373 C2657.2197,200.5773 2932.8497,185.2673 3031.6697,224.2373 C3077.0397,242.1273 3116.8197,280.7173 3144.2197,313.0873 " fill="none" id="AppMobile-GMN47" style="stroke:#000000;stroke-width:1;stroke-dasharray:7.0,7.0;"/></g><!--link Odoo to GMN50--><g id="link_Odoo_GMN50"><path d="M652.5597,553.1173 C671.6597,521.5673 705.5797,475.3773 749.6697,455.4873 C807.4497,429.4173 2972.1797,433.6073 3031.6697,455.4873 C3073.7597,470.9673 3112.1497,503.7973 3139.8897,532.5573 " fill="none" id="Odoo-GMN50" style="stroke:#000000;stroke-width:1;stroke-dasharray:7.0,7.0;"/></g><!--link PortiqueRFID to GMN53--><g id="link_PortiqueRFID_GMN53"><path d="M2739.6597,333.6573 C2757.1397,299.3473 2790.0997,246.8273 2836.6697,224.2373 C2929.4397,179.2273 3204.6897,186.5673 3300.6697,224.2373 C3346.2297,242.1173 3386.2797,280.7073 3413.8897,313.0873 " fill="none" id="PortiqueRFID-GMN53" style="stroke:#000000;stroke-width:1;stroke-dasharray:7.0,7.0;"/></g><!--link RexelAPI to GMN56--><g id="link_RexelAPI_GMN56"><path d="M2088.4397,553.0173 C2110.4397,521.3973 2148.7797,475.1473 2195.6697,455.4873 C2252.4397,431.6873 3246.2297,433.3673 3303.6697,455.4873 C3344.0997,471.0573 3380.2297,503.8773 3406.1097,532.6173 " fill="none" id="RexelAPI-GMN56" style="stroke:#000000;stroke-width:1;stroke-dasharray:7.0,7.0;"/></g><rect fill="none" height="112.0879" id="_legend" rx="7.5" ry="7.5" style="stroke:#000000;stroke-width:1;" width="206.9023" x="1681.0448" y="830.7373"/><text fill="#000000" font-family="Verdana" font-size="14" lengthAdjust="spacing" textLength="187.3867" x="1686.0448" y="849.8125">&#128994; = Amelioration majeure</text><text fill="#000000" font-family="Verdana" font-size="14" lengthAdjust="spacing" textLength="114.249" x="1686.0448" y="866.8271">&#128241; = Mobile-first</text><text fill="#000000" font-family="Verdana" font-size="14" lengthAdjust="spacing" textLength="131.2295" x="1686.0448" y="883.8418">&#129302; = IA/ML integre</text><text fill="#000000" font-family="Verdana" font-size="14" lengthAdjust="spacing" textLength="164.5" x="1686.0448" y="900.8564">&#128272; = Securite renforcee</text><text fill="#000000" font-family="Verdana" font-size="14" lengthAdjust="spacing" textLength="196.9023" x="1686.0448" y="917.8711">&#9889; = Performance optimisee</text><text fill="#000000" font-family="Verdana" font-size="14" lengthAdjust="spacing" textLength="178.042" x="1686.0448" y="934.8857">&#128202; = Analytics temps reel</text><!--SRC=[VLVTRXj55BxtKnngGKchKBTfqgHIaUprRciKnuxjGa7SZDTZU-XwPfcPJPCY992uG1LIAq08SLEe4Dp25LpnC7q1-WYSCpFUtVoK-2B9pFa_v_lc-0sxv2iEUSQ4R5XXCmvjdIw5vQajD8UerzcFOHF69yQIO4zQli3pjw2lPbnBtcX8_0CkJRZMQ0EFfoBZbu0PM1yruvqaYNVWimRW3rjmQU5Id-dqO_bsjEHpY9PCMi7rXbEZ6oUPgbMkf9DkvpaCPah10RFYYAEY68pXAhJbJ2inyueevBr3SwyLntkjirOeP1ZCvvcGP69y8bDWXLLUFLoWycxIsTjjVBvEhSiiWmWjS0ttJgPQp9my7OTJod0hIKA6DO_nQEZZFhf-2pqEv6Qk-KeO7bpILNFtLXJ77QSwGvjJPj3fK1cBXHuVxiFrRLIzXu5o678zLth5P1ei1343pPixkpSwDyyLRjY3kypoH-m4ZOpYyGIhTbUpV7cu7wesx0K1Q6udUt7xVDds8POBNxEXvZEHMg6a2TtQztSOm6xtUXJLoiPpPI5IKk8i-ObmH-iJQ2P9qZex5x4MD1Tzjc16o78ewFXiN4EbhVYqu31AUbtK-OXFDOFamTvEgxMkZfSW0NBNlTKwbrrN5UcIMuir7ATCbdRwqTRMsavD1gsqjuELgbjZgzA7EF2htC28yungJJudR17gv2JeYYpiHcW12vLcgfZ1fKGLMWfZUA5DMJ3Zr2AIe2OsarQoUz68ZVWn6aKHGXC6bAa5bkIgT-XzEn5dfDEAiU9dJOpnTyvqC3BKuXZrkyBa0Hbq_p_gxSBI1AA4GVNus79fn3GB4-flw-fLucEkZqJAGvhULpXo9vZrDdtEPprKZn1t7OgtoynogfYUcNNJyQf35KlYcvtjSz4-9bxhiFHXaPFso6lv0sXsj-XpdZcai4eBkK2L6pUltGh3xu-X6RNeGvbTzWqy9eH0ZXgfo5c6AMx2-rnRoB7NGF_Fi-8OL6u5qO5f4El1vamzafllrfZiDhnw_jsVZdRrdAKSB4FqPGJ5-mzATRxHg5HA8nMmoShtp-3UP38ardplWmdH7qyBJLJKQDH4DxLOB2sgEsvoYb_1H3Dfc8SzQlevrpZC6mqdjdPPiX7fVViFqPKHnX9TeLexGaHGKJE1VBznockHeth99QJ-wmymBXOBRjPUUsqG_lMXa8aGWjefbBk2_UQWxBXznTmTjGqCJw-bAXDcewvU0tUejbDUkMgYtk48InOHfKsPrkZxbBzrwXM-oSZJl_xz-wdZ9MpOWg97pcZXFAXP8IpwnpaXl017jE0hQYviGObRCldDCwZWRV3fEjE8YmoiWUlQyGSuP5C36BxBHX7NjUdvkr2tmgshojUm1hR8S3j0rQIW3S6bKkBOuJhCHEYD1wEpyGJVQvQTM95IHRf28yyT5boVK4t3v7YrWCRRyFB7BwcIOrOSyGLYt3MaK5RC14UORTHzhT4OukrpgwbDvAkT8VQuhtj2mCDkpWYdl09fSToechYPyVaf563mdkH3wJiO0SKlo0gMlvpT2x7m-y-4QOrSWZIFBnqzw0WCvGBqqo2biipDEWPdWAru9fJs9_YYudlfEWDgNbzq_6hbwEhLy-SluCgLTZ_Uxmr6xKblS326IJmQjNi7LwuuaPTVlAXH2Q89Xn7NgVBEBKWgx45QJGjS-ifBXuh3qRKA2kNLSAciCh3WAbCfouYHJAKd5fAvPP9dM32DNSAa6rpEWD9gd4dExqH-eQhd5GtY-oCOVpYUnFqO-eDkF3g8QtcTMbjN8jNAXAciH0XnRWUQgRHOqUvMk_KRreoUFHcc7FRstjbxirw1Z8MR9VRkiP88I7wgj8lGCf1kKpMlpVFiRfAqplJn_cJGnowENITXCfYqz-lvZdZASt85ZjZWoC2D5YOkIuaMu0AEEuM3FD9GhPLkact97kK54dswpj0nDQyDm6ZGWntaHV7wfAfDmwyhzOJYQB3kNZGuE8YZIJsTajkCGzYIniJKkkEuwuA8VIhp-WQLrKSwKYjSbnsYgjV0r6g443N8XWA7Xic2PrbzD2zNB4AKaLVhToFZ2vARAejcgpplGBk6NBJv2SR4mps-BNV2DwJDkT36XdDyw-v0htqDD-tmn8KBVBJlW7-egSnSelkKX-n- -WKlQzy8gdLWxUu9XREct7hrA7AVGEC_]--></g></svg>