<svg xmlns="http://www.w3.org/2000/svg" xmlns:xlink="http://www.w3.org/1999/xlink" contentStyleType="text/css" height="1459px" preserveAspectRatio="none" style="width:1108px;height:1459px;background:#FFFFFF;" version="1.1" viewBox="0 0 1108 1459" width="1108px" zoomAndPan="magnify"><title>Processus Commande Mat&#233;riel - CIBLE (ODOO + RFID)</title><defs/><g><text fill="#000000" font-family="sans-serif" font-size="14" font-weight="bold" lengthAdjust="spacing" textLength="366.7959" x="366.6658" y="29.5332">Processus Commande Mat&#233;riel - CIBLE (ODOO + RFID)</text><rect fill="#FFFFFF" height="91.0547" style="stroke:#181818;stroke-width:1;" width="10" x="302.4131" y="268.2344"/><rect fill="#FFFFFF" height="30.3516" style="stroke:#181818;stroke-width:1;" width="10" x="569.4502" y="458.6953"/><rect fill="#FFFFFF" height="83.0547" style="stroke:#181818;stroke-width:1;" width="10" x="569.4502" y="616.4531"/><rect fill="#FFFFFF" height="73.7031" style="stroke:#181818;stroke-width:1;" width="10" x="569.4502" y="948.3203"/><rect fill="#FFFFFF" height="143.7578" style="stroke:#181818;stroke-width:1;" width="10" x="802.7813" y="804.5625"/><line style="stroke:#181818;stroke-width:0.5;stroke-dasharray:5.0,5.0;" x1="69" x2="69" y1="138.8281" y2="1360.2422"/><line style="stroke:#181818;stroke-width:0.5;stroke-dasharray:5.0,5.0;" x1="159.7031" x2="159.7031" y1="138.8281" y2="1360.2422"/><line style="stroke:#181818;stroke-width:0.5;stroke-dasharray:5.0,5.0;" x1="224.8271" x2="224.8271" y1="138.8281" y2="1360.2422"/><line style="stroke:#181818;stroke-width:0.5;stroke-dasharray:5.0,5.0;" x1="306.5098" x2="306.5098" y1="138.8281" y2="1360.2422"/><line style="stroke:#181818;stroke-width:0.5;stroke-dasharray:5.0,5.0;" x1="573.9365" x2="573.9365" y1="138.8281" y2="1360.2422"/><line style="stroke:#181818;stroke-width:0.5;stroke-dasharray:5.0,5.0;" x1="807.3091" x2="807.3091" y1="138.8281" y2="1360.2422"/><line style="stroke:#181818;stroke-width:0.5;stroke-dasharray:5.0,5.0;" x1="936.2534" x2="936.2534" y1="138.8281" y2="1360.2422"/><text fill="#000000" font-family="sans-serif" font-size="14" lengthAdjust="spacing" textLength="31.1104" x="51.2964" y="118.1426">Marc</text><text fill="#000000" font-family="sans-serif" font-size="14" lengthAdjust="spacing" textLength="95.7031" x="19" y="135.752">(Chef Chantier)</text><ellipse cx="69.8516" cy="52.1094" fill="#FFB6C1" rx="8" ry="8" style="stroke:#181818;stroke-width:0.5;"/><path d="M69.8516,60.1094 L69.8516,87.1094 M56.8516,68.1094 L82.8516,68.1094 M69.8516,87.1094 L56.8516,102.1094 M69.8516,87.1094 L82.8516,102.1094 " fill="none" style="stroke:#181818;stroke-width:0.5;"/><text fill="#000000" font-family="sans-serif" font-size="14" lengthAdjust="spacing" textLength="31.1104" x="51.2964" y="1373.7754">Marc</text><text fill="#000000" font-family="sans-serif" font-size="14" lengthAdjust="spacing" textLength="95.7031" x="19" y="1391.3848">(Chef Chantier)</text><ellipse cx="69.8516" cy="1402.9609" fill="#FFB6C1" rx="8" ry="8" style="stroke:#181818;stroke-width:0.5;"/><path d="M69.8516,1410.9609 L69.8516,1437.9609 M56.8516,1418.9609 L82.8516,1418.9609 M69.8516,1437.9609 L56.8516,1452.9609 M69.8516,1437.9609 L82.8516,1452.9609 " fill="none" style="stroke:#181818;stroke-width:0.5;"/><text fill="#000000" font-family="sans-serif" font-size="14" lengthAdjust="spacing" textLength="37.3447" x="138.0928" y="118.1426">Sylvie</text><text fill="#000000" font-family="sans-serif" font-size="14" lengthAdjust="spacing" textLength="52.124" x="130.7031" y="135.752">(Achats)</text><ellipse cx="159.7651" cy="52.1094" fill="#ADD8E6" rx="8" ry="8" style="stroke:#181818;stroke-width:0.5;"/><path d="M159.7651,60.1094 L159.7651,87.1094 M146.7651,68.1094 L172.7651,68.1094 M159.7651,87.1094 L146.7651,102.1094 M159.7651,87.1094 L172.7651,102.1094 " fill="none" style="stroke:#181818;stroke-width:0.5;"/><text fill="#000000" font-family="sans-serif" font-size="14" lengthAdjust="spacing" textLength="37.3447" x="138.0928" y="1373.7754">Sylvie</text><text fill="#000000" font-family="sans-serif" font-size="14" lengthAdjust="spacing" textLength="52.124" x="130.7031" y="1391.3848">(Achats)</text><ellipse cx="159.7651" cy="1402.9609" fill="#ADD8E6" rx="8" ry="8" style="stroke:#181818;stroke-width:0.5;"/><path d="M159.7651,1410.9609 L159.7651,1437.9609 M146.7651,1418.9609 L172.7651,1418.9609 M159.7651,1437.9609 L146.7651,1452.9609 M159.7651,1437.9609 L172.7651,1452.9609 " fill="none" style="stroke:#181818;stroke-width:0.5;"/><text fill="#000000" font-family="sans-serif" font-size="14" lengthAdjust="spacing" textLength="24.1104" x="210.1133" y="118.1426">&#201;ric</text><text fill="#000000" font-family="sans-serif" font-size="14" lengthAdjust="spacing" textLength="46.6826" x="198.8271" y="135.752">(D&#233;p&#244;t)</text><ellipse cx="225.1685" cy="52.1094" fill="#98FB98" rx="8" ry="8" style="stroke:#181818;stroke-width:0.5;"/><path d="M225.1685,60.1094 L225.1685,87.1094 M212.1685,68.1094 L238.1685,68.1094 M225.1685,87.1094 L212.1685,102.1094 M225.1685,87.1094 L238.1685,102.1094 " fill="none" style="stroke:#181818;stroke-width:0.5;"/><text fill="#000000" font-family="sans-serif" font-size="14" lengthAdjust="spacing" textLength="24.1104" x="210.1133" y="1373.7754">&#201;ric</text><text fill="#000000" font-family="sans-serif" font-size="14" lengthAdjust="spacing" textLength="46.6826" x="198.8271" y="1391.3848">(D&#233;p&#244;t)</text><ellipse cx="225.1685" cy="1402.9609" fill="#98FB98" rx="8" ry="8" style="stroke:#181818;stroke-width:0.5;"/><path d="M225.1685,1410.9609 L225.1685,1437.9609 M212.1685,1418.9609 L238.1685,1418.9609 M225.1685,1437.9609 L212.1685,1452.9609 M225.1685,1437.9609 L238.1685,1452.9609 " fill="none" style="stroke:#181818;stroke-width:0.5;"/><rect fill="#90EE90" height="49.2188" rx="2.5" ry="2.5" style="stroke:#181818;stroke-width:0.5;" width="91.8066" x="261.5098" y="88.6094"/><text fill="#000000" font-family="sans-serif" font-size="14" lengthAdjust="spacing" textLength="70.041" x="272.3926" y="110.1426">App Mobile</text><text fill="#000000" font-family="sans-serif" font-size="14" lengthAdjust="spacing" textLength="77.8066" x="268.5098" y="127.752">(Odoo Field)</text><rect fill="#90EE90" height="49.2188" rx="2.5" ry="2.5" style="stroke:#181818;stroke-width:0.5;" width="91.8066" x="261.5098" y="1359.2422"/><text fill="#000000" font-family="sans-serif" font-size="14" lengthAdjust="spacing" textLength="70.041" x="272.3926" y="1380.7754">App Mobile</text><text fill="#000000" font-family="sans-serif" font-size="14" lengthAdjust="spacing" textLength="77.8066" x="268.5098" y="1398.3848">(Odoo Field)</text><rect fill="#87CEEB" height="49.2188" rx="2.5" ry="2.5" style="stroke:#181818;stroke-width:0.5;" width="105.0273" x="521.9365" y="88.6094"/><text fill="#000000" font-family="sans-serif" font-size="14" lengthAdjust="spacing" textLength="66.9238" x="540.9883" y="110.1426">Odoo ERP</text><text fill="#000000" font-family="sans-serif" font-size="14" lengthAdjust="spacing" textLength="91.0273" x="528.9365" y="127.752">(Achats/Stock)</text><rect fill="#87CEEB" height="49.2188" rx="2.5" ry="2.5" style="stroke:#181818;stroke-width:0.5;" width="105.0273" x="521.9365" y="1359.2422"/><text fill="#000000" font-family="sans-serif" font-size="14" lengthAdjust="spacing" textLength="66.9238" x="540.9883" y="1380.7754">Odoo ERP</text><text fill="#000000" font-family="sans-serif" font-size="14" lengthAdjust="spacing" textLength="91.0273" x="528.9365" y="1398.3848">(Achats/Stock)</text><rect fill="#FFA500" height="49.2188" rx="2.5" ry="2.5" style="stroke:#181818;stroke-width:0.5;" width="122.9443" x="746.3091" y="88.6094"/><text fill="#000000" font-family="sans-serif" font-size="14" lengthAdjust="spacing" textLength="88.6963" x="763.4331" y="110.1426">Scanner RFID</text><text fill="#000000" font-family="sans-serif" font-size="14" lengthAdjust="spacing" textLength="108.9443" x="753.3091" y="127.752">(Odoo Inventaire)</text><rect fill="#FFA500" height="49.2188" rx="2.5" ry="2.5" style="stroke:#181818;stroke-width:0.5;" width="122.9443" x="746.3091" y="1359.2422"/><text fill="#000000" font-family="sans-serif" font-size="14" lengthAdjust="spacing" textLength="88.6963" x="763.4331" y="1380.7754">Scanner RFID</text><text fill="#000000" font-family="sans-serif" font-size="14" lengthAdjust="spacing" textLength="108.9443" x="753.3091" y="1398.3848">(Odoo Inventaire)</text><rect fill="#E2E2F0" height="49.2188" rx="2.5" ry="2.5" style="stroke:#181818;stroke-width:0.5;" width="115.9375" x="879.2534" y="88.6094"/><text fill="#000000" font-family="sans-serif" font-size="14" lengthAdjust="spacing" textLength="73.917" x="900.2637" y="110.1426">Fournisseur</text><text fill="#000000" font-family="sans-serif" font-size="14" lengthAdjust="spacing" textLength="101.9375" x="886.2534" y="127.752">(Rexel/Sonepar)</text><rect fill="#E2E2F0" height="49.2188" rx="2.5" ry="2.5" style="stroke:#181818;stroke-width:0.5;" width="115.9375" x="879.2534" y="1359.2422"/><text fill="#000000" font-family="sans-serif" font-size="14" lengthAdjust="spacing" textLength="73.917" x="900.2637" y="1380.7754">Fournisseur</text><text fill="#000000" font-family="sans-serif" font-size="14" lengthAdjust="spacing" textLength="101.9375" x="886.2534" y="1398.3848">(Rexel/Sonepar)</text><rect fill="#FFFFFF" height="91.0547" style="stroke:#181818;stroke-width:1;" width="10" x="302.4131" y="268.2344"/><rect fill="#FFFFFF" height="30.3516" style="stroke:#181818;stroke-width:1;" width="10" x="569.4502" y="458.6953"/><rect fill="#FFFFFF" height="83.0547" style="stroke:#181818;stroke-width:1;" width="10" x="569.4502" y="616.4531"/><rect fill="#FFFFFF" height="73.7031" style="stroke:#181818;stroke-width:1;" width="10" x="569.4502" y="948.3203"/><rect fill="#FFFFFF" height="143.7578" style="stroke:#181818;stroke-width:1;" width="10" x="802.7813" y="804.5625"/><rect fill="#EEEEEE" height="3" style="stroke:#EEEEEE;stroke-width:1;" width="1101.1274" x="0" y="170.0039"/><line style="stroke:#000000;stroke-width:1;" x1="0" x2="1101.1274" y1="170.0039" y2="170.0039"/><line style="stroke:#000000;stroke-width:1;" x1="0" x2="1101.1274" y1="173.0039" y2="173.0039"/><rect fill="#EEEEEE" height="24.3516" style="stroke:#000000;stroke-width:2;" width="144.7427" x="478.1924" y="158.8281"/><text fill="#000000" font-family="sans-serif" font-size="13" font-weight="bold" lengthAdjust="spacing" textLength="127.1309" x="484.1924" y="176.3232">JOUR 1 - Lundi 9h00</text><path d="M5,198.1797 L5,240.1797 L135,240.1797 L135,208.1797 L125,198.1797 L5,198.1797 " fill="#E0F7FA" style="stroke:#181818;stroke-width:0.5;"/><path d="M125,198.1797 L125,208.1797 L135,208.1797 L125,198.1797 " fill="#E0F7FA" style="stroke:#181818;stroke-width:0.5;"/><text fill="#000000" font-family="sans-serif" font-size="13" font-weight="bold" lengthAdjust="spacing" textLength="96.7891" x="11" y="216.6748">Besoin identifi&#233;</text><text fill="#000000" font-family="sans-serif" font-size="13" lengthAdjust="spacing" textLength="109.8335" x="11" y="233.0264">C&#226;ble 3G2.5 - 50m</text><polygon fill="#181818" points="290.4131,264.2344,300.4131,268.2344,290.4131,272.2344,294.4131,268.2344" style="stroke:#181818;stroke-width:1;"/><line style="stroke:#181818;stroke-width:1;" x1="69.8516" x2="296.4131" y1="268.2344" y2="268.2344"/><text fill="#000000" font-family="sans-serif" font-size="13" lengthAdjust="spacing" textLength="165.312" x="76.8516" y="263.3779">&#128269; Recherche "C&#226;ble 3G2.5"</text><polygon fill="#181818" points="562.4502,294.5859,572.4502,298.5859,562.4502,302.5859,566.4502,298.5859" style="stroke:#181818;stroke-width:1;"/><line style="stroke:#181818;stroke-width:1;" x1="312.4131" x2="568.4502" y1="298.5859" y2="298.5859"/><text fill="#000000" font-family="sans-serif" font-size="13" lengthAdjust="spacing" textLength="146.6626" x="319.4131" y="293.7295">Check Stock Temps R&#233;el</text><polygon fill="#181818" points="323.4131,324.9375,313.4131,328.9375,323.4131,332.9375,319.4131,328.9375" style="stroke:#181818;stroke-width:1;"/><line style="stroke:#181818;stroke-width:1;stroke-dasharray:2.0,2.0;" x1="317.4131" x2="573.4502" y1="328.9375" y2="328.9375"/><text fill="#000000" font-family="sans-serif" font-size="13" lengthAdjust="spacing" textLength="238.0371" x="329.4131" y="324.0811">"Stock D&#233;p&#244;t: 0 | Dispo Fournisseur: Oui"</text><polygon fill="#181818" points="80.8516,355.2891,70.8516,359.2891,80.8516,363.2891,76.8516,359.2891" style="stroke:#181818;stroke-width:1;"/><line style="stroke:#181818;stroke-width:1;stroke-dasharray:2.0,2.0;" x1="74.8516" x2="306.4131" y1="359.2891" y2="359.2891"/><text fill="#000000" font-family="sans-serif" font-size="13" lengthAdjust="spacing" textLength="147.7734" x="86.8516" y="354.4326">Affiche r&#233;sultats + Photos</text><polygon fill="#181818" points="295.4131,404.9922,305.4131,408.9922,295.4131,412.9922,299.4131,408.9922" style="stroke:#181818;stroke-width:1;"/><line style="stroke:#181818;stroke-width:1;" x1="69.8516" x2="301.4131" y1="408.9922" y2="408.9922"/><text fill="#000000" font-family="sans-serif" font-size="13" lengthAdjust="spacing" textLength="163.3252" x="76.8516" y="404.1357">&#128722; Ajoute au panier &amp; Valide</text><path d="M312,372.2891 L312,431.2891 L525,431.2891 L525,382.2891 L515,372.2891 L312,372.2891 " fill="#90EE90" style="stroke:#181818;stroke-width:0.5;"/><path d="M515,372.2891 L515,382.2891 L525,382.2891 L515,372.2891 " fill="#90EE90" style="stroke:#181818;stroke-width:0.5;"/><text fill="#000000" font-family="sans-serif" font-size="13" lengthAdjust="spacing" textLength="13" x="318" y="390.7842">&#9989;</text><text fill="#000000" font-family="sans-serif" font-size="13" font-weight="bold" lengthAdjust="spacing" textLength="91.7744" x="334.6118" y="390.7842">Z&#233;ro Ressaisie</text><text fill="#000000" font-family="sans-serif" font-size="13" lengthAdjust="spacing" textLength="192.9624" x="318" y="407.1357">R&#233;f&#233;rence unique &amp; standardis&#233;e</text><text fill="#000000" font-family="sans-serif" font-size="13" lengthAdjust="spacing" textLength="98.8394" x="318" y="423.4873">&#9201;&#65039; 30 secondes</text><polygon fill="#181818" points="557.4502,454.6953,567.4502,458.6953,557.4502,462.6953,561.4502,458.6953" style="stroke:#181818;stroke-width:1;"/><line style="stroke:#181818;stroke-width:1;" x1="307.4131" x2="563.4502" y1="458.6953" y2="458.6953"/><text fill="#000000" font-family="sans-serif" font-size="13" lengthAdjust="spacing" textLength="176.2998" x="314.4131" y="453.8389">Cr&#233;ation Demande Achat (DA)</text><polygon fill="#181818" points="170.7651,485.0469,160.7651,489.0469,170.7651,493.0469,166.7651,489.0469" style="stroke:#181818;stroke-width:1;"/><line style="stroke:#181818;stroke-width:1;" x1="164.7651" x2="573.4502" y1="489.0469" y2="489.0469"/><text fill="#000000" font-family="sans-serif" font-size="13" lengthAdjust="spacing" textLength="216.5884" x="176.7651" y="484.1904">&#128276; Notification "Nouvelle DA de Marc"</text><rect fill="#EEEEEE" height="3" style="stroke:#EEEEEE;stroke-width:1;" width="1101.1274" x="0" y="518.2227"/><line style="stroke:#000000;stroke-width:1;" x1="0" x2="1101.1274" y1="518.2227" y2="518.2227"/><line style="stroke:#000000;stroke-width:1;" x1="0" x2="1101.1274" y1="521.2227" y2="521.2227"/><rect fill="#EEEEEE" height="24.3516" style="stroke:#000000;stroke-width:2;" width="121.6309" x="489.7483" y="507.0469"/><text fill="#000000" font-family="sans-serif" font-size="13" font-weight="bold" lengthAdjust="spacing" textLength="104.019" x="495.7483" y="524.542">Validation (9h05)</text><polygon fill="#181818" points="562.4502,570.9258,572.4502,574.9258,562.4502,578.9258,566.4502,574.9258" style="stroke:#181818;stroke-width:1;"/><line style="stroke:#181818;stroke-width:1;" x1="159.7651" x2="568.4502" y1="574.9258" y2="574.9258"/><text fill="#000000" font-family="sans-serif" font-size="13" lengthAdjust="spacing" textLength="72.979" x="166.7651" y="570.0693">Consulte DA</text><path d="M579,546.3984 L579,588.3984 L727,588.3984 L727,556.3984 L717,546.3984 L579,546.3984 " fill="#ADD8E6" style="stroke:#181818;stroke-width:0.5;"/><path d="M717,546.3984 L717,556.3984 L727,556.3984 L717,546.3984 " fill="#ADD8E6" style="stroke:#181818;stroke-width:0.5;"/><text fill="#000000" font-family="sans-serif" font-size="13" lengthAdjust="spacing" textLength="13" x="585" y="564.8936">&#9989;</text><text fill="#000000" font-family="sans-serif" font-size="13" font-weight="bold" lengthAdjust="spacing" textLength="100.4136" x="601.6118" y="564.8936">Validation 1 Clic</text><text fill="#000000" font-family="sans-serif" font-size="13" lengthAdjust="spacing" textLength="127.1372" x="585" y="581.2451">Prix &amp; R&#233;f pr&#233;-remplis</text><polygon fill="#181818" points="557.4502,612.4531,567.4502,616.4531,557.4502,620.4531,561.4502,616.4531" style="stroke:#181818;stroke-width:1;"/><line style="stroke:#181818;stroke-width:1;" x1="159.7651" x2="563.4502" y1="616.4531" y2="616.4531"/><text fill="#000000" font-family="sans-serif" font-size="13" lengthAdjust="spacing" textLength="106.9453" x="166.7651" y="611.5967">Valide Commande</text><polygon fill="#181818" points="925.2222,653.9805,935.2222,657.9805,925.2222,661.9805,929.2222,657.9805" style="stroke:#181818;stroke-width:1;"/><line style="stroke:#181818;stroke-width:1;" x1="579.4502" x2="931.2222" y1="657.9805" y2="657.9805"/><text fill="#000000" font-family="sans-serif" font-size="13" lengthAdjust="spacing" textLength="189.2808" x="586.4502" y="653.124">&#128231; Envoi Commande (Email/API)</text><path d="M942,629.4531 L942,671.4531 L1090,671.4531 L1090,639.4531 L1080,629.4531 L942,629.4531 " fill="#87CEEB" style="stroke:#181818;stroke-width:0.5;"/><path d="M1080,629.4531 L1080,639.4531 L1090,639.4531 L1080,629.4531 " fill="#87CEEB" style="stroke:#181818;stroke-width:0.5;"/><text fill="#000000" font-family="sans-serif" font-size="13" lengthAdjust="spacing" textLength="13" x="948" y="647.9482">&#9989;</text><text fill="#000000" font-family="sans-serif" font-size="13" font-weight="bold" lengthAdjust="spacing" textLength="79.4409" x="964.6118" y="647.9482">Automatique</text><text fill="#000000" font-family="sans-serif" font-size="13" lengthAdjust="spacing" textLength="127.9053" x="948" y="664.2998">PDF g&#233;n&#233;r&#233; &amp; envoy&#233;</text><polygon fill="#181818" points="80.8516,695.5078,70.8516,699.5078,80.8516,703.5078,76.8516,699.5078" style="stroke:#181818;stroke-width:1;"/><line style="stroke:#181818;stroke-width:1;stroke-dasharray:2.0,2.0;" x1="74.8516" x2="573.4502" y1="699.5078" y2="699.5078"/><text fill="#000000" font-family="sans-serif" font-size="13" lengthAdjust="spacing" textLength="260.6475" x="86.8516" y="694.6514">&#128276; Notif "Commande Valid&#233;e - Livr. Mercredi"</text><rect fill="#EEEEEE" height="3" style="stroke:#EEEEEE;stroke-width:1;" width="1101.1274" x="0" y="728.6836"/><line style="stroke:#000000;stroke-width:1;" x1="0" x2="1101.1274" y1="728.6836" y2="728.6836"/><line style="stroke:#000000;stroke-width:1;" x1="0" x2="1101.1274" y1="731.6836" y2="731.6836"/><rect fill="#EEEEEE" height="24.3516" style="stroke:#000000;stroke-width:2;" width="163.5571" x="468.7852" y="717.5078"/><text fill="#000000" font-family="sans-serif" font-size="13" font-weight="bold" lengthAdjust="spacing" textLength="145.9453" x="474.7852" y="735.0029">JOUR 3 - Mercredi 8h00</text><polygon fill="#181818" points="236.1685,770.2109,226.1685,774.2109,236.1685,778.2109,232.1685,774.2109" style="stroke:#181818;stroke-width:1;"/><line style="stroke:#181818;stroke-width:1;" x1="230.1685" x2="936.2222" y1="774.2109" y2="774.2109"/><text fill="#000000" font-family="sans-serif" font-size="13" lengthAdjust="spacing" textLength="117.0444" x="242.1685" y="769.3545">&#128666; Livraison Camion</text><polygon fill="#181818" points="790.7813,800.5625,800.7813,804.5625,790.7813,808.5625,794.7813,804.5625" style="stroke:#181818;stroke-width:1;"/><line style="stroke:#181818;stroke-width:1;" x1="225.1685" x2="796.7813" y1="804.5625" y2="804.5625"/><text fill="#000000" font-family="sans-serif" font-size="13" lengthAdjust="spacing" textLength="144.5171" x="232.1685" y="799.7061">&#128299; Scanne Colis / Palette</text><polygon fill="#181818" points="585.4502,830.9141,575.4502,834.9141,585.4502,838.9141,581.4502,834.9141" style="stroke:#181818;stroke-width:1;"/><line style="stroke:#181818;stroke-width:1;" x1="579.4502" x2="801.7813" y1="834.9141" y2="834.9141"/><text fill="#000000" font-family="sans-serif" font-size="13" lengthAdjust="spacing" textLength="135.1416" x="591.4502" y="830.0576">Identification R&#233;ception</text><polygon fill="#181818" points="790.7813,872.4414,800.7813,876.4414,790.7813,880.4414,794.7813,876.4414" style="stroke:#181818;stroke-width:1;"/><line style="stroke:#181818;stroke-width:1;stroke-dasharray:2.0,2.0;" x1="574.4502" x2="796.7813" y1="876.4414" y2="876.4414"/><text fill="#000000" font-family="sans-serif" font-size="13" lengthAdjust="spacing" textLength="204.3311" x="581.4502" y="871.585">"Commande #PO12345 pour Marc"</text><path d="M817,847.9141 L817,889.9141 L1025,889.9141 L1025,857.9141 L1015,847.9141 L817,847.9141 " fill="#FFA500" style="stroke:#181818;stroke-width:0.5;"/><path d="M1015,847.9141 L1015,857.9141 L1025,857.9141 L1015,847.9141 " fill="#FFA500" style="stroke:#181818;stroke-width:0.5;"/><text fill="#000000" font-family="sans-serif" font-size="13" lengthAdjust="spacing" textLength="13" x="823" y="866.4092">&#9989;</text><text fill="#000000" font-family="sans-serif" font-size="13" font-weight="bold" lengthAdjust="spacing" textLength="170.5171" x="839.6118" y="866.4092">Reconnaissance Imm&#233;diate</text><text fill="#000000" font-family="sans-serif" font-size="13" lengthAdjust="spacing" textLength="141.6416" x="823" y="882.7607">Pas de recherche papier</text><polygon fill="#181818" points="790.7813,913.9688,800.7813,917.9688,790.7813,921.9688,794.7813,917.9688" style="stroke:#181818;stroke-width:1;"/><line style="stroke:#181818;stroke-width:1;" x1="225.1685" x2="796.7813" y1="917.9688" y2="917.9688"/><text fill="#000000" font-family="sans-serif" font-size="13" lengthAdjust="spacing" textLength="147.3926" x="232.1685" y="913.1123">Confirme Quantit&#233; (Scan)</text><polygon fill="#181818" points="590.4502,944.3203,580.4502,948.3203,590.4502,952.3203,586.4502,948.3203" style="stroke:#181818;stroke-width:1;"/><line style="stroke:#181818;stroke-width:1;" x1="584.4502" x2="806.7813" y1="948.3203" y2="948.3203"/><text fill="#000000" font-family="sans-serif" font-size="13" lengthAdjust="spacing" textLength="91.0381" x="596.4502" y="943.4639">&#128230; Entr&#233;e Stock</text><line style="stroke:#181818;stroke-width:1;" x1="579.4502" x2="621.4502" y1="978.6719" y2="978.6719"/><line style="stroke:#181818;stroke-width:1;" x1="621.4502" x2="621.4502" y1="978.6719" y2="991.6719"/><line style="stroke:#181818;stroke-width:1;" x1="580.4502" x2="621.4502" y1="991.6719" y2="991.6719"/><polygon fill="#181818" points="590.4502,987.6719,580.4502,991.6719,590.4502,995.6719,586.4502,991.6719" style="stroke:#181818;stroke-width:1;"/><text fill="#000000" font-family="sans-serif" font-size="13" lengthAdjust="spacing" textLength="99.7026" x="586.4502" y="973.8154">Mise &#224; jour Stock</text><polygon fill="#181818" points="80.8516,1018.0234,70.8516,1022.0234,80.8516,1026.0234,76.8516,1022.0234" style="stroke:#181818;stroke-width:1;"/><line style="stroke:#181818;stroke-width:1;" x1="74.8516" x2="573.4502" y1="1022.0234" y2="1022.0234"/><text fill="#000000" font-family="sans-serif" font-size="13" lengthAdjust="spacing" textLength="199.9766" x="86.8516" y="1017.167">&#128276; Notif "Mat&#233;riel Re&#231;u au D&#233;p&#244;t !"</text><rect fill="#EEEEEE" height="3" style="stroke:#EEEEEE;stroke-width:1;" width="1101.1274" x="0" y="1051.1992"/><line style="stroke:#000000;stroke-width:1;" x1="0" x2="1101.1274" y1="1051.1992" y2="1051.1992"/><line style="stroke:#000000;stroke-width:1;" x1="0" x2="1101.1274" y1="1054.1992" y2="1054.1992"/><rect fill="#EEEEEE" height="24.3516" style="stroke:#000000;stroke-width:2;" width="105.7554" x="497.686" y="1040.0234"/><text fill="#000000" font-family="sans-serif" font-size="13" font-weight="bold" lengthAdjust="spacing" textLength="88.1436" x="503.686" y="1057.5186">JOUR 3 - 8h30</text><polygon fill="#181818" points="213.1685,1092.7266,223.1685,1096.7266,213.1685,1100.7266,217.1685,1096.7266" style="stroke:#181818;stroke-width:1;"/><line style="stroke:#181818;stroke-width:1;" x1="69.8516" x2="219.1685" y1="1096.7266" y2="1096.7266"/><text fill="#000000" font-family="sans-serif" font-size="13" lengthAdjust="spacing" textLength="106.2153" x="76.8516" y="1091.8701">R&#233;cup&#232;re mat&#233;riel</text><polygon fill="#181818" points="795.7813,1123.0781,805.7813,1127.0781,795.7813,1131.0781,799.7813,1127.0781" style="stroke:#181818;stroke-width:1;"/><line style="stroke:#181818;stroke-width:1;" x1="225.1685" x2="801.7813" y1="1127.0781" y2="1127.0781"/><text fill="#000000" font-family="sans-serif" font-size="13" lengthAdjust="spacing" textLength="190.0234" x="232.1685" y="1122.2217">&#128299; Scanne Sortie (Vers Chantier)</text><polygon fill="#181818" points="585.4502,1164.6055,575.4502,1168.6055,585.4502,1172.6055,581.4502,1168.6055" style="stroke:#181818;stroke-width:1;"/><line style="stroke:#181818;stroke-width:1;" x1="579.4502" x2="806.7813" y1="1168.6055" y2="1168.6055"/><text fill="#000000" font-family="sans-serif" font-size="13" lengthAdjust="spacing" textLength="154.978" x="591.4502" y="1163.749">&#128201; Sortie Stock -&gt; Chantier</text><path d="M812,1140.0781 L812,1182.0781 L985,1182.0781 L985,1150.0781 L975,1140.0781 L812,1140.0781 " fill="#90EE90" style="stroke:#181818;stroke-width:0.5;"/><path d="M975,1140.0781 L975,1150.0781 L985,1150.0781 L975,1140.0781 " fill="#90EE90" style="stroke:#181818;stroke-width:0.5;"/><text fill="#000000" font-family="sans-serif" font-size="13" lengthAdjust="spacing" textLength="13" x="818" y="1158.5732">&#9989;</text><text fill="#000000" font-family="sans-serif" font-size="13" font-weight="bold" lengthAdjust="spacing" textLength="106.9199" x="834.6118" y="1158.5732">Tra&#231;abilit&#233; Totale</text><text fill="#000000" font-family="sans-serif" font-size="13" lengthAdjust="spacing" textLength="152.4961" x="818" y="1174.9248">Imputation analytique auto</text><rect fill="#EEEEEE" height="3" style="stroke:#EEEEEE;stroke-width:1;" width="1101.1274" x="0" y="1208.957"/><line style="stroke:#000000;stroke-width:1;" x1="0" x2="1101.1274" y1="1208.957" y2="1208.957"/><line style="stroke:#000000;stroke-width:1;" x1="0" x2="1101.1274" y1="1211.957" y2="1211.957"/><rect fill="#EEEEEE" height="24.3516" style="stroke:#000000;stroke-width:2;" width="57.3291" x="521.8992" y="1197.7813"/><text fill="#000000" font-family="sans-serif" font-size="13" font-weight="bold" lengthAdjust="spacing" textLength="39.7173" x="527.8992" y="1215.2764">BILAN</text><path d="M17,1237.1328 L17,1345.1328 L988,1345.1328 L988,1247.1328 L978,1237.1328 L17,1237.1328 " fill="#E8F5E9" style="stroke:#181818;stroke-width:0.5;"/><path d="M978,1237.1328 L978,1247.1328 L988,1247.1328 L978,1237.1328 " fill="#E8F5E9" style="stroke:#181818;stroke-width:0.5;"/><text fill="#000000" font-family="sans-serif" font-size="13" font-weight="bold" lengthAdjust="spacing" textLength="119.8945" x="407.1462" y="1255.6279">M&#201;TRIQUES CIBLE</text><text fill="#000000" font-family="sans-serif" font-size="13" lengthAdjust="spacing" textLength="99.5503" x="407.1462" y="1271.9795">&#9201;&#65039; Dur&#233;e totale:</text><text fill="#000000" font-family="sans-serif" font-size="13" font-weight="bold" lengthAdjust="spacing" textLength="42.6245" x="510.3083" y="1271.9795">2 jours</text><text fill="#000000" font-family="sans-serif" font-size="13" lengthAdjust="spacing" textLength="32.5" x="556.5447" y="1271.9795">(vs 3)</text><text fill="#000000" font-family="sans-serif" font-size="13" lengthAdjust="spacing" textLength="97.5444" x="407.1462" y="1288.3311">&#128222; Appels &#233;vit&#233;s:</text><text fill="#000000" font-family="sans-serif" font-size="13" font-weight="bold" lengthAdjust="spacing" textLength="33.249" x="508.3025" y="1288.3311">100%</text><text fill="#000000" font-family="sans-serif" font-size="13" lengthAdjust="spacing" textLength="91.292" x="407.1462" y="1304.6826">&#9851;&#65039; Ressaisies:</text><text fill="#000000" font-family="sans-serif" font-size="13" font-weight="bold" lengthAdjust="spacing" textLength="7.23" x="502.05" y="1304.6826">0</text><text fill="#000000" font-family="sans-serif" font-size="13" lengthAdjust="spacing" textLength="32.5" x="512.8918" y="1304.6826">(vs 6)</text><text fill="#000000" font-family="sans-serif" font-size="13" lengthAdjust="spacing" textLength="87.4136" x="407.1462" y="1321.0342">&#9989; Taux erreur:</text><text fill="#000000" font-family="sans-serif" font-size="13" font-weight="bold" lengthAdjust="spacing" textLength="29.9927" x="498.1716" y="1321.0342">&lt; 1%</text><text fill="#000000" font-family="sans-serif" font-size="13" lengthAdjust="spacing" textLength="87.4263" x="407.1462" y="1337.3857">&#128522; Satisfaction:</text><text fill="#000000" font-family="sans-serif" font-size="13" font-weight="bold" lengthAdjust="spacing" textLength="58.5317" x="498.1843" y="1337.3857">Maximale</text><!--SRC=[XLRDZXj54BxFKnIsGBPXi-CrtjWM6sbiZv7HUktOcnmGbywu7NSoCprqzrYx4bSEYnH52Zb0G0HnOB4u8N50uZXlmWkGHw2wUyO_cnyEAwscgwhh-wbgAwP22XF10ofbAg77euZ4SmeZehArO3I40-WDkwS-LCRzyHW-XEbWsAyw3WaK5r0Q4H5y4LTwIxg0tfB4Yb5HBG6He4-WF1XqZtlr8dfs6QuOnNWlM18bRQ3z26Mlts_vnqLeTYMOhjpFradsfxAXFdw3ShirwBPRJaA4OW5By58eUKa28_w0XRhwUCuv3B3vkKtJX-Msw_jjTp_B1FhJoQQZmvdYmMERPGxBhTizt-_kfyq24iTK62gAwuRnYiQAC45jjZxJyBscU-FI0Kz5pAIagS3aARsWuU6CnnI3RAe9S9oJ4_XiV6yATPJWD8td3DfBruMJ4yU9kQB0LzY2PTbt1xS7dWDGgtMfv2m6DiTks89bwreDl_UoNnwWq8rFZsuriLpJZHmQpq7NSHnJu-2Efga3hru-Vm9J6Yofm3yexMQMj3XiHV1oZ7KqhPYcuNTGV1ey1aCVdDCeGGQoDGqTGyv1KRra0t9HE-32Lz1dCk6mmqe7nYahsVAOgDlhWBTOCDsGoDOo3HLgXLwSBBdYqfdJlRvk0lhX6NYFU8gd90NK02qA7y1z4Y99bah17YxLnY80__puDLBvEKu0Howa94moQeX4K0lyJEE0GXgpBrEAfQJ2cI5YpYH2rkbF__ZthwVGS47IWECuoHsszrb3E4Gn7aEVsi4pFeHAtwjkoTQnEP5tyd4nGZs7Cwv53co9qXbFLpH4jVeUc1aMGMcN75D7-yfWjqaLD5MpQboL3-AsEHvhgdMvFPhoGIresYbMXrx80aFKHB0Bf4Rp1GcYF11eYf3jCd7pFgl8PWUz1RynYeR_xJNuyOgpxTAg-15XuQ4t6LRt6ivdk6ZOInMFi64KpxRQ7y33R1sZhjaQUwPOzJ9RRplTUDXQSSiyZaTnjsaUvTV3obRY5enmW0ITipShO2QxWS556BIAuJO0DLAzxVHjBrwOacX2fBX78cJQSSmgn22zPqnBluDTIqW7qWo7C24XLMg7HXtgcBsqeNoOhudSGQXMG1FzxnQplM0Bj3mPruyQ7pSXmJvpZ-sIdQ-yWkofde0OUvT4pymmYhBrd64xbdfSTrXJRFPDGX8SpnsJxED4IowOY2ZSJVLRWsyKL3JiwWrSw8vVqHrAQ4NCpjbLmH3n5dlP_16J5BAVuP76QFEBWDSzi7qhfpIxJlMMoHSSlFS_whUM3IjwiRAivbg7DCb-4nIYelWx59znV5xG_lUfaDjN-7LAhef8kuNng0X-rney5oIx9lYq6hhFkK9V6V66KP8gQnmIa_3IJ1IYLtn7FqJR7PvwPszujpwoiupFLslGzDlc-HfbL-VJuTrx_ip-x30NvVkqdnevbUcWWy57HXzPgq5b9Q5HnL14-PFU-pIKaArNkcMfG-kk-xwjzVtVkjPcgvjJDoznNCrHdvFq0gWGvZMgrJw1kir-zVAxRs26cEL2gyfZVJeY5ooof6nm_mS0]--></g></svg>