<svg xmlns="http://www.w3.org/2000/svg" xmlns:xlink="http://www.w3.org/1999/xlink" contentStyleType="text/css" height="2292px" preserveAspectRatio="none" style="width:1042px;height:2292px;background:#FFFFFF;" version="1.1" viewBox="0 0 1042 2292" width="1042px" zoomAndPan="magnify"><title>Processus Commande Mat&#233;riel - &#201;TAT ACTUEL (CHAOS)</title><defs/><g><text fill="#000000" font-family="sans-serif" font-size="14" font-weight="bold" lengthAdjust="spacing" textLength="381.1719" x="326.6038" y="29.5332">Processus Commande Mat&#233;riel - &#201;TAT ACTUEL (CHAOS)</text><line style="stroke:#181818;stroke-width:0.5;stroke-dasharray:5.0,5.0;" x1="100" x2="100" y1="138.8281" y2="2193.25"/><line style="stroke:#181818;stroke-width:0.5;stroke-dasharray:5.0,5.0;" x1="272.0044" x2="272.0044" y1="138.8281" y2="2193.25"/><line style="stroke:#181818;stroke-width:0.5;stroke-dasharray:5.0,5.0;" x1="440.208" x2="440.208" y1="138.8281" y2="2193.25"/><line style="stroke:#181818;stroke-width:0.5;stroke-dasharray:5.0,5.0;" x1="614.1318" x2="614.1318" y1="138.8281" y2="2193.25"/><line style="stroke:#181818;stroke-width:0.5;stroke-dasharray:5.0,5.0;" x1="689.8281" x2="689.8281" y1="138.8281" y2="2193.25"/><line style="stroke:#181818;stroke-width:0.5;stroke-dasharray:5.0,5.0;" x1="748.0625" x2="748.0625" y1="138.8281" y2="2193.25"/><line style="stroke:#181818;stroke-width:0.5;stroke-dasharray:5.0,5.0;" x1="826.0693" x2="826.0693" y1="138.8281" y2="2193.25"/><text fill="#000000" font-family="sans-serif" font-size="14" lengthAdjust="spacing" textLength="31.1104" x="82.2964" y="118.1426">Marc</text><text fill="#000000" font-family="sans-serif" font-size="14" lengthAdjust="spacing" textLength="95.7031" x="50" y="135.752">(Chef Chantier)</text><ellipse cx="100.8516" cy="52.1094" fill="#FFB6C1" rx="8" ry="8" style="stroke:#181818;stroke-width:0.5;"/><path d="M100.8516,60.1094 L100.8516,87.1094 M87.8516,68.1094 L113.8516,68.1094 M100.8516,87.1094 L87.8516,102.1094 M100.8516,87.1094 L113.8516,102.1094 " fill="none" style="stroke:#181818;stroke-width:0.5;"/><text fill="#000000" font-family="sans-serif" font-size="14" lengthAdjust="spacing" textLength="31.1104" x="82.2964" y="2206.7832">Marc</text><text fill="#000000" font-family="sans-serif" font-size="14" lengthAdjust="spacing" textLength="95.7031" x="50" y="2224.3926">(Chef Chantier)</text><ellipse cx="100.8516" cy="2235.9688" fill="#FFB6C1" rx="8" ry="8" style="stroke:#181818;stroke-width:0.5;"/><path d="M100.8516,2243.9688 L100.8516,2270.9688 M87.8516,2251.9688 L113.8516,2251.9688 M100.8516,2270.9688 L87.8516,2285.9688 M100.8516,2270.9688 L113.8516,2285.9688 " fill="none" style="stroke:#181818;stroke-width:0.5;"/><text fill="#000000" font-family="sans-serif" font-size="14" lengthAdjust="spacing" textLength="37.3447" x="250.394" y="118.1426">Sylvie</text><text fill="#000000" font-family="sans-serif" font-size="14" lengthAdjust="spacing" textLength="52.124" x="243.0044" y="135.752">(Achats)</text><ellipse cx="272.0664" cy="52.1094" fill="#ADD8E6" rx="8" ry="8" style="stroke:#181818;stroke-width:0.5;"/><path d="M272.0664,60.1094 L272.0664,87.1094 M259.0664,68.1094 L285.0664,68.1094 M272.0664,87.1094 L259.0664,102.1094 M272.0664,87.1094 L285.0664,102.1094 " fill="none" style="stroke:#181818;stroke-width:0.5;"/><text fill="#000000" font-family="sans-serif" font-size="14" lengthAdjust="spacing" textLength="37.3447" x="250.394" y="2206.7832">Sylvie</text><text fill="#000000" font-family="sans-serif" font-size="14" lengthAdjust="spacing" textLength="52.124" x="243.0044" y="2224.3926">(Achats)</text><ellipse cx="272.0664" cy="2235.9688" fill="#ADD8E6" rx="8" ry="8" style="stroke:#181818;stroke-width:0.5;"/><path d="M272.0664,2243.9688 L272.0664,2270.9688 M259.0664,2251.9688 L285.0664,2251.9688 M272.0664,2270.9688 L259.0664,2285.9688 M272.0664,2270.9688 L285.0664,2285.9688 " fill="none" style="stroke:#181818;stroke-width:0.5;"/><text fill="#000000" font-family="sans-serif" font-size="14" lengthAdjust="spacing" textLength="24.1104" x="425.4941" y="118.1426">&#201;ric</text><text fill="#000000" font-family="sans-serif" font-size="14" lengthAdjust="spacing" textLength="46.6826" x="414.208" y="135.752">(D&#233;p&#244;t)</text><ellipse cx="440.5493" cy="52.1094" fill="#98FB98" rx="8" ry="8" style="stroke:#181818;stroke-width:0.5;"/><path d="M440.5493,60.1094 L440.5493,87.1094 M427.5493,68.1094 L453.5493,68.1094 M440.5493,87.1094 L427.5493,102.1094 M440.5493,87.1094 L453.5493,102.1094 " fill="none" style="stroke:#181818;stroke-width:0.5;"/><text fill="#000000" font-family="sans-serif" font-size="14" lengthAdjust="spacing" textLength="24.1104" x="425.4941" y="2206.7832">&#201;ric</text><text fill="#000000" font-family="sans-serif" font-size="14" lengthAdjust="spacing" textLength="46.6826" x="414.208" y="2224.3926">(D&#233;p&#244;t)</text><ellipse cx="440.5493" cy="2235.9688" fill="#98FB98" rx="8" ry="8" style="stroke:#181818;stroke-width:0.5;"/><path d="M440.5493,2243.9688 L440.5493,2270.9688 M427.5493,2251.9688 L453.5493,2251.9688 M440.5493,2270.9688 L427.5493,2285.9688 M440.5493,2270.9688 L453.5493,2285.9688 " fill="none" style="stroke:#181818;stroke-width:0.5;"/><rect fill="#FF6B6B" height="31.6094" rx="2.5" ry="2.5" style="stroke:#181818;stroke-width:0.5;" width="81.6963" x="574.1318" y="106.2188"/><text fill="#000000" font-family="sans-serif" font-size="14" lengthAdjust="spacing" textLength="67.6963" x="581.1318" y="127.752">Sage MDE</text><rect fill="#FF6B6B" height="31.6094" rx="2.5" ry="2.5" style="stroke:#181818;stroke-width:0.5;" width="81.6963" x="574.1318" y="2192.25"/><text fill="#000000" font-family="sans-serif" font-size="14" lengthAdjust="spacing" textLength="67.6963" x="581.1318" y="2213.7832">Sage MDE</text><rect fill="#FFD700" height="31.6094" rx="2.5" ry="2.5" style="stroke:#181818;stroke-width:0.5;" width="48.2344" x="665.8281" y="106.2188"/><text fill="#000000" font-family="sans-serif" font-size="14" lengthAdjust="spacing" textLength="34.2344" x="672.8281" y="127.752">Excel</text><rect fill="#FFD700" height="31.6094" rx="2.5" ry="2.5" style="stroke:#181818;stroke-width:0.5;" width="48.2344" x="665.8281" y="2192.25"/><text fill="#000000" font-family="sans-serif" font-size="14" lengthAdjust="spacing" textLength="34.2344" x="672.8281" y="2213.7832">Excel</text><rect fill="#E2E2F0" height="31.6094" rx="2.5" ry="2.5" style="stroke:#181818;stroke-width:0.5;" width="49.0068" x="724.0625" y="106.2188"/><text fill="#000000" font-family="sans-serif" font-size="14" lengthAdjust="spacing" textLength="35.0068" x="731.0625" y="127.752">Email</text><rect fill="#E2E2F0" height="31.6094" rx="2.5" ry="2.5" style="stroke:#181818;stroke-width:0.5;" width="49.0068" x="724.0625" y="2192.25"/><text fill="#000000" font-family="sans-serif" font-size="14" lengthAdjust="spacing" textLength="35.0068" x="731.0625" y="2213.7832">Email</text><rect fill="#E2E2F0" height="31.6094" rx="2.5" ry="2.5" style="stroke:#181818;stroke-width:0.5;" width="87.917" x="783.0693" y="106.2188"/><text fill="#000000" font-family="sans-serif" font-size="14" lengthAdjust="spacing" textLength="73.917" x="790.0693" y="127.752">Fournisseur</text><rect fill="#E2E2F0" height="31.6094" rx="2.5" ry="2.5" style="stroke:#181818;stroke-width:0.5;" width="87.917" x="783.0693" y="2192.25"/><text fill="#000000" font-family="sans-serif" font-size="14" lengthAdjust="spacing" textLength="73.917" x="790.0693" y="2213.7832">Fournisseur</text><rect fill="#EEEEEE" height="3" style="stroke:#EEEEEE;stroke-width:1;" width="1035.3794" x="0" y="170.0039"/><line style="stroke:#000000;stroke-width:1;" x1="0" x2="1035.3794" y1="170.0039" y2="170.0039"/><line style="stroke:#000000;stroke-width:1;" x1="0" x2="1035.3794" y1="173.0039" y2="173.0039"/><rect fill="#EEEEEE" height="24.3516" style="stroke:#000000;stroke-width:2;" width="144.7427" x="445.3184" y="158.8281"/><text fill="#000000" font-family="sans-serif" font-size="13" font-weight="bold" lengthAdjust="spacing" textLength="127.1309" x="451.3184" y="176.3232">JOUR 1 - Lundi 9h00</text><path d="M35,198.1797 L35,240.1797 L165,240.1797 L165,208.1797 L155,198.1797 L35,198.1797 " fill="#FFAAAA" style="stroke:#181818;stroke-width:0.5;"/><path d="M155,198.1797 L155,208.1797 L165,208.1797 L155,198.1797 " fill="#FFAAAA" style="stroke:#181818;stroke-width:0.5;"/><text fill="#000000" font-family="sans-serif" font-size="13" font-weight="bold" lengthAdjust="spacing" textLength="96.7891" x="41" y="216.6748">Besoin identifi&#233;</text><text fill="#000000" font-family="sans-serif" font-size="13" lengthAdjust="spacing" textLength="109.8335" x="41" y="233.0264">C&#226;ble 3G2.5 - 50m</text><line style="stroke:#181818;stroke-width:1;" x1="100.8516" x2="142.8516" y1="272.9102" y2="272.9102"/><line style="stroke:#181818;stroke-width:1;" x1="142.8516" x2="142.8516" y1="272.9102" y2="285.9102"/><line style="stroke:#181818;stroke-width:1;" x1="101.8516" x2="142.8516" y1="285.9102" y2="285.9102"/><polygon fill="#181818" points="111.8516,281.9102,101.8516,285.9102,111.8516,289.9102,107.8516,285.9102" style="stroke:#181818;stroke-width:1;"/><text fill="#000000" font-family="sans-serif" font-size="13" lengthAdjust="spacing" textLength="114.188" x="107.8516" y="268.0537">Cherche bon papier</text><path d="M233.188,250.8828 L233.188,292.8828 L425.188,292.8828 L425.188,260.8828 L415.188,250.8828 L233.188,250.8828 " fill="#FF6B6B" style="stroke:#181818;stroke-width:0.5;"/><path d="M415.188,250.8828 L415.188,260.8828 L425.188,260.8828 L415.188,250.8828 " fill="#FF6B6B" style="stroke:#181818;stroke-width:0.5;"/><text fill="#000000" font-family="sans-serif" font-size="13" lengthAdjust="spacing" textLength="171.6406" x="239.188" y="269.3779">&#128308; Support papier uniquement</text><text fill="#000000" font-family="sans-serif" font-size="13" lengthAdjust="spacing" textLength="85.2617" x="239.188" y="285.7295">&#9200; 5 min perdu</text><line style="stroke:#181818;stroke-width:1;" x1="100.8516" x2="142.8516" y1="325.6133" y2="325.6133"/><line style="stroke:#181818;stroke-width:1;" x1="142.8516" x2="142.8516" y1="325.6133" y2="338.6133"/><line style="stroke:#181818;stroke-width:1;" x1="101.8516" x2="142.8516" y1="338.6133" y2="338.6133"/><polygon fill="#181818" points="111.8516,334.6133,101.8516,338.6133,111.8516,342.6133,107.8516,338.6133" style="stroke:#181818;stroke-width:1;"/><text fill="#000000" font-family="sans-serif" font-size="13" lengthAdjust="spacing" textLength="125.728" x="107.8516" y="320.7568">Remplit bon &#224; la main</text><path d="M244.728,303.5859 L244.728,345.5859 L416.728,345.5859 L416.728,313.5859 L406.728,303.5859 L244.728,303.5859 " fill="#FF6B6B" style="stroke:#181818;stroke-width:0.5;"/><path d="M406.728,303.5859 L406.728,313.5859 L416.728,313.5859 L406.728,303.5859 " fill="#FF6B6B" style="stroke:#181818;stroke-width:0.5;"/><text fill="#000000" font-family="sans-serif" font-size="13" lengthAdjust="spacing" textLength="134.0244" x="250.728" y="322.0811">&#128308; R&#233;f&#233;rence impr&#233;cise</text><text fill="#000000" font-family="sans-serif" font-size="13" lengthAdjust="spacing" textLength="151.5947" x="250.728" y="338.4326">"c&#226;ble 3G2.5" sans d&#233;tails</text><line style="stroke:#181818;stroke-width:2;" x1="254.0664" x2="264.0664" y1="379.8164" y2="389.8164"/><line style="stroke:#181818;stroke-width:2;" x1="254.0664" x2="264.0664" y1="389.8164" y2="379.8164"/><line style="stroke:#181818;stroke-width:1;" x1="100.8516" x2="259.0664" y1="384.8164" y2="384.8164"/><text fill="#000000" font-family="sans-serif" font-size="13" lengthAdjust="spacing" textLength="111.3188" x="107.8516" y="379.96">Appel t&#233;l&#233;phonique</text><path d="M277,356.2891 L277,398.2891 L403,398.2891 L403,366.2891 L393,356.2891 L277,356.2891 " fill="#FF6B6B" style="stroke:#181818;stroke-width:0.5;"/><path d="M393,356.2891 L393,366.2891 L403,366.2891 L393,356.2891 " fill="#FF6B6B" style="stroke:#181818;stroke-width:0.5;"/><text fill="#000000" font-family="sans-serif" font-size="13" lengthAdjust="spacing" textLength="105.8726" x="283" y="374.7842">&#128308; Pas de r&#233;ponse</text><text fill="#000000" font-family="sans-serif" font-size="13" lengthAdjust="spacing" textLength="62.8799" x="283" y="391.1357">En r&#233;union</text><line style="stroke:#181818;stroke-width:1;" x1="100.8516" x2="142.8516" y1="426.3438" y2="426.3438"/><line style="stroke:#181818;stroke-width:1;" x1="142.8516" x2="142.8516" y1="426.3438" y2="439.3438"/><line style="stroke:#181818;stroke-width:1;" x1="101.8516" x2="142.8516" y1="439.3438" y2="439.3438"/><polygon fill="#181818" points="111.8516,435.3438,101.8516,439.3438,111.8516,443.3438,107.8516,439.3438" style="stroke:#181818;stroke-width:1;"/><text fill="#000000" font-family="sans-serif" font-size="13" lengthAdjust="spacing" textLength="96.8335" x="107.8516" y="421.4873">Rappelle... 3 fois</text><path d="M215.8335,412.4922 L215.8335,438.4922 L366.8335,438.4922 L366.8335,422.4922 L356.8335,412.4922 L215.8335,412.4922 " fill="#FF6B6B" style="stroke:#181818;stroke-width:0.5;"/><path d="M356.8335,412.4922 L356.8335,422.4922 L366.8335,422.4922 L356.8335,412.4922 " fill="#FF6B6B" style="stroke:#181818;stroke-width:0.5;"/><text fill="#000000" font-family="sans-serif" font-size="13" lengthAdjust="spacing" textLength="130.7935" x="221.8335" y="430.9873">&#9200; 25 minutes perdues</text><polygon fill="#181818" points="260.0664,465.6953,270.0664,469.6953,260.0664,473.6953,264.0664,469.6953" style="stroke:#181818;stroke-width:1;"/><line style="stroke:#181818;stroke-width:1;" x1="100.8516" x2="266.0664" y1="469.6953" y2="469.6953"/><text fill="#000000" font-family="sans-serif" font-size="13" lengthAdjust="spacing" textLength="119.958" x="107.8516" y="464.8389">Appel r&#233;ussi (10h45)</text><path d="M63,482.6953 L63,524.6953 L309,524.6953 L309,492.6953 L299,482.6953 L63,482.6953 " fill="#FEFFDD" style="stroke:#181818;stroke-width:0.5;"/><path d="M299,482.6953 L299,492.6953 L309,492.6953 L299,482.6953 " fill="#FEFFDD" style="stroke:#181818;stroke-width:0.5;"/><text fill="#000000" font-family="sans-serif" font-size="13" lengthAdjust="spacing" textLength="90.3398" x="114.6409" y="501.1904">&#201;change verbal</text><text fill="#000000" font-family="sans-serif" font-size="13" lengthAdjust="spacing" textLength="133.8467" x="114.6409" y="517.542">"J'ai besoin de c&#226;ble..."</text><polygon fill="#181818" points="602.98,548.75,612.98,552.75,602.98,556.75,606.98,552.75" style="stroke:#181818;stroke-width:1;"/><line style="stroke:#181818;stroke-width:1;" x1="272.0664" x2="608.98" y1="552.75" y2="552.75"/><text fill="#000000" font-family="sans-serif" font-size="13" lengthAdjust="spacing" textLength="145.812" x="279.0664" y="547.8936">Recherche "c&#226;ble 3G2.5"</text><polygon fill="#181818" points="283.0664,639.332,273.0664,643.332,283.0664,647.332,279.0664,643.332" style="stroke:#181818;stroke-width:1;"/><line style="stroke:#181818;stroke-width:1;stroke-dasharray:2.0,2.0;" x1="277.0664" x2="613.98" y1="643.332" y2="643.332"/><text fill="#000000" font-family="sans-serif" font-size="13" lengthAdjust="spacing" textLength="74.4263" x="289.0664" y="638.4756">12 r&#233;sultats !</text><path d="M619,565.75 L619,705.75 L811,705.75 L811,575.75 L801,565.75 L619,565.75 " fill="#FF6B6B" style="stroke:#181818;stroke-width:0.5;"/><path d="M801,565.75 L801,575.75 L811,575.75 L801,565.75 " fill="#FF6B6B" style="stroke:#181818;stroke-width:0.5;"/><text fill="#000000" font-family="sans-serif" font-size="13" lengthAdjust="spacing" textLength="11.1973" x="625" y="584.2451">&#128308;</text><text fill="#000000" font-family="sans-serif" font-size="13" font-weight="bold" lengthAdjust="spacing" textLength="154.5781" x="639.8091" y="584.2451">BASE DONN&#201;ES CHAOS</text><text fill="#000000" font-family="sans-serif" font-size="13" lengthAdjust="spacing" textLength="143.8062" x="625" y="600.5967">12 r&#233;f&#233;rences diff&#233;rentes</text><text fill="#000000" font-family="sans-serif" font-size="13" lengthAdjust="spacing" textLength="129.3335" x="625" y="616.9482">pour le M&#202;ME produit:</text><text fill="#000000" font-family="sans-serif" font-size="13" lengthAdjust="spacing" textLength="171.9326" x="625" y="633.2998">- CABLE-3G2.5-ROUGE-50M</text><text fill="#000000" font-family="sans-serif" font-size="13" lengthAdjust="spacing" textLength="110.5698" x="625" y="649.6514">- CBL_3G25_R_50</text><text fill="#000000" font-family="sans-serif" font-size="13" lengthAdjust="spacing" textLength="142.3145" x="625" y="666.0029">- 3G2.5-CABLE-ROUGE</text><text fill="#000000" font-family="sans-serif" font-size="13" lengthAdjust="spacing" textLength="155.3462" x="625" y="682.3545">- CABLE_3G_2.5_ROUGE</text><text fill="#000000" font-family="sans-serif" font-size="13" lengthAdjust="spacing" textLength="18.7764" x="625" y="698.7061">- ...</text><line style="stroke:#181818;stroke-width:1;" x1="272.0664" x2="314.0664" y1="738.5898" y2="738.5898"/><line style="stroke:#181818;stroke-width:1;" x1="314.0664" x2="314.0664" y1="738.5898" y2="751.5898"/><line style="stroke:#181818;stroke-width:1;" x1="273.0664" x2="314.0664" y1="751.5898" y2="751.5898"/><polygon fill="#181818" points="283.0664,747.5898,273.0664,751.5898,283.0664,755.5898,279.0664,751.5898" style="stroke:#181818;stroke-width:1;"/><text fill="#000000" font-family="sans-serif" font-size="13" lengthAdjust="spacing" textLength="154.4829" x="279.0664" y="733.7334">Choisit une r&#233;f "au hasard"</text><path d="M445.4829,716.5625 L445.4829,758.5625 L582.4829,758.5625 L582.4829,726.5625 L572.4829,716.5625 L445.4829,716.5625 " fill="#FFD700" style="stroke:#181818;stroke-width:0.5;"/><path d="M572.4829,716.5625 L572.4829,726.5625 L582.4829,726.5625 L572.4829,716.5625 " fill="#FFD700" style="stroke:#181818;stroke-width:0.5;"/><text fill="#000000" font-family="sans-serif" font-size="13" lengthAdjust="spacing" textLength="105.498" x="451.4829" y="735.0576">&#9888;&#65039; Faible chance</text><text fill="#000000" font-family="sans-serif" font-size="13" lengthAdjust="spacing" textLength="116.3652" x="451.4829" y="751.4092">que ce soit la bonne</text><polygon fill="#181818" points="677.9453,793.793,687.9453,797.793,677.9453,801.793,681.9453,797.793" style="stroke:#181818;stroke-width:1;"/><line style="stroke:#181818;stroke-width:1;" x1="272.0664" x2="683.9453" y1="797.793" y2="797.793"/><text fill="#000000" font-family="sans-serif" font-size="13" lengthAdjust="spacing" textLength="117.0571" x="279.0664" y="792.9365">Cherche fournisseur</text><path d="M694,769.2656 L694,811.2656 L848,811.2656 L848,779.2656 L838,769.2656 L694,769.2656 " fill="#FF6B6B" style="stroke:#181818;stroke-width:0.5;"/><path d="M838,769.2656 L838,779.2656 L848,779.2656 L838,769.2656 " fill="#FF6B6B" style="stroke:#181818;stroke-width:0.5;"/><text fill="#000000" font-family="sans-serif" font-size="13" lengthAdjust="spacing" textLength="133.3325" x="700" y="787.7607">&#128308; Donn&#233;es &#233;parpill&#233;es</text><text fill="#000000" font-family="sans-serif" font-size="13" lengthAdjust="spacing" textLength="48.4009" x="700" y="804.1123">&#9200; 8 min</text><polygon fill="#181818" points="815.0278,846.4961,825.0278,850.4961,815.0278,854.4961,819.0278,850.4961" style="stroke:#181818;stroke-width:1;"/><line style="stroke:#181818;stroke-width:1;" x1="272.0664" x2="821.0278" y1="850.4961" y2="850.4961"/><text fill="#000000" font-family="sans-serif" font-size="13" lengthAdjust="spacing" textLength="111.3188" x="279.0664" y="845.6396">Appel t&#233;l&#233;phonique</text><path d="M832,821.9688 L832,863.9688 L1025,863.9688 L1025,831.9688 L1015,821.9688 L832,821.9688 " fill="#FF6B6B" style="stroke:#181818;stroke-width:0.5;"/><path d="M1015,821.9688 L1015,831.9688 L1025,831.9688 L1015,821.9688 " fill="#FF6B6B" style="stroke:#181818;stroke-width:0.5;"/><text fill="#000000" font-family="sans-serif" font-size="13" lengthAdjust="spacing" textLength="172.3516" x="838" y="840.4639">&#128308; Pas de commande en ligne</text><text fill="#000000" font-family="sans-serif" font-size="13" lengthAdjust="spacing" textLength="134.4243" x="838" y="856.8154">&#9200; 15 min au t&#233;l&#233;phone</text><polygon fill="#181818" points="283.0664,888.0234,273.0664,892.0234,283.0664,896.0234,279.0664,892.0234" style="stroke:#181818;stroke-width:1;"/><line style="stroke:#181818;stroke-width:1;stroke-dasharray:2.0,2.0;" x1="277.0664" x2="826.0278" y1="892.0234" y2="892.0234"/><text fill="#000000" font-family="sans-serif" font-size="13" lengthAdjust="spacing" textLength="98.8394" x="289.0664" y="887.167">"Dispo sous 48h"</text><polygon fill="#181818" points="736.5659,962.2539,746.5659,966.2539,736.5659,970.2539,740.5659,966.2539" style="stroke:#181818;stroke-width:1;"/><line style="stroke:#181818;stroke-width:1;" x1="272.0664" x2="742.5659" y1="966.2539" y2="966.2539"/><text fill="#000000" font-family="sans-serif" font-size="13" lengthAdjust="spacing" textLength="135.0972" x="279.0664" y="961.3975">&#201;crit email confirmation</text><path d="M753,905.0234 L753,1013.0234 L910,1013.0234 L910,915.0234 L900,905.0234 L753,905.0234 " fill="#FF6B6B" style="stroke:#181818;stroke-width:0.5;"/><path d="M900,905.0234 L900,915.0234 L910,915.0234 L900,905.0234 " fill="#FF6B6B" style="stroke:#181818;stroke-width:0.5;"/><text fill="#000000" font-family="sans-serif" font-size="13" lengthAdjust="spacing" textLength="11.1973" x="759" y="923.5186">&#128308;</text><text fill="#000000" font-family="sans-serif" font-size="13" font-weight="bold" lengthAdjust="spacing" textLength="83.0845" x="773.8091" y="923.5186">RE-SAISIE #4</text><text fill="#000000" font-family="sans-serif" font-size="13" lengthAdjust="spacing" textLength="136.5762" x="759" y="939.8701">Recopie manuellement:</text><text fill="#000000" font-family="sans-serif" font-size="13" lengthAdjust="spacing" textLength="67.9199" x="759" y="956.2217">- R&#233;f&#233;rence</text><text fill="#000000" font-family="sans-serif" font-size="13" lengthAdjust="spacing" textLength="57.0845" x="759" y="972.5732">- Quantit&#233;</text><text fill="#000000" font-family="sans-serif" font-size="13" lengthAdjust="spacing" textLength="30.3291" x="759" y="988.9248">- Prix</text><text fill="#000000" font-family="sans-serif" font-size="13" lengthAdjust="spacing" textLength="55.6309" x="759" y="1005.2764">- Adresse</text><polygon fill="#181818" points="602.98,1039.4844,612.98,1043.4844,602.98,1047.4844,606.98,1043.4844" style="stroke:#181818;stroke-width:1;"/><line style="stroke:#181818;stroke-width:1;" x1="272.0664" x2="608.98" y1="1043.4844" y2="1043.4844"/><text fill="#000000" font-family="sans-serif" font-size="13" lengthAdjust="spacing" textLength="99.709" x="279.0664" y="1038.6279">Saisit commande</text><path d="M619,1023.1328 L619,1049.1328 L737,1049.1328 L737,1033.1328 L727,1023.1328 L619,1023.1328 " fill="#FF6B6B" style="stroke:#181818;stroke-width:0.5;"/><path d="M727,1023.1328 L727,1033.1328 L737,1033.1328 L727,1023.1328 " fill="#FF6B6B" style="stroke:#181818;stroke-width:0.5;"/><text fill="#000000" font-family="sans-serif" font-size="13" lengthAdjust="spacing" textLength="11.1973" x="625" y="1041.6279">&#128308;</text><text fill="#000000" font-family="sans-serif" font-size="13" font-weight="bold" lengthAdjust="spacing" textLength="83.0845" x="639.8091" y="1041.6279">RE-SAISIE #5</text><polygon fill="#181818" points="677.9453,1075.8359,687.9453,1079.8359,677.9453,1083.8359,681.9453,1079.8359" style="stroke:#181818;stroke-width:1;"/><line style="stroke:#181818;stroke-width:1;" x1="272.0664" x2="683.9453" y1="1079.8359" y2="1079.8359"/><text fill="#000000" font-family="sans-serif" font-size="13" lengthAdjust="spacing" textLength="93.209" x="279.0664" y="1074.9795">Saisit dans suivi</text><path d="M694,1059.4844 L694,1085.4844 L812,1085.4844 L812,1069.4844 L802,1059.4844 L694,1059.4844 " fill="#FF6B6B" style="stroke:#181818;stroke-width:0.5;"/><path d="M802,1059.4844 L802,1069.4844 L812,1069.4844 L802,1059.4844 " fill="#FF6B6B" style="stroke:#181818;stroke-width:0.5;"/><text fill="#000000" font-family="sans-serif" font-size="13" lengthAdjust="spacing" textLength="11.1973" x="700" y="1077.9795">&#128308;</text><text fill="#000000" font-family="sans-serif" font-size="13" font-weight="bold" lengthAdjust="spacing" textLength="83.0845" x="714.8091" y="1077.9795">RE-SAISIE #6</text><polygon fill="#181818" points="111.8516,1109.1875,101.8516,1113.1875,111.8516,1117.1875,107.8516,1113.1875" style="stroke:#181818;stroke-width:1;"/><line style="stroke:#181818;stroke-width:1;" x1="105.8516" x2="271.0664" y1="1113.1875" y2="1113.1875"/><text fill="#000000" font-family="sans-serif" font-size="13" lengthAdjust="spacing" textLength="147.2148" x="117.8516" y="1108.3311">SMS "Livraison mercredi"</text><rect fill="#EEEEEE" height="3" style="stroke:#EEEEEE;stroke-width:1;" width="1035.3794" x="0" y="1142.3633"/><line style="stroke:#000000;stroke-width:1;" x1="0" x2="1035.3794" y1="1142.3633" y2="1142.3633"/><line style="stroke:#000000;stroke-width:1;" x1="0" x2="1035.3794" y1="1145.3633" y2="1145.3633"/><rect fill="#EEEEEE" height="24.3516" style="stroke:#000000;stroke-width:2;" width="110.7954" x="462.292" y="1131.1875"/><text fill="#000000" font-family="sans-serif" font-size="13" font-weight="bold" lengthAdjust="spacing" textLength="93.1836" x="468.292" y="1148.6826">JOUR 2 - Mardi</text><path d="M55,1170.5391 L55,1212.5391 L870,1212.5391 L870,1180.5391 L860,1170.5391 L55,1170.5391 " fill="#FFFFCC" style="stroke:#181818;stroke-width:0.5;"/><path d="M860,1170.5391 L860,1180.5391 L870,1180.5391 L860,1170.5391 " fill="#FFFFCC" style="stroke:#181818;stroke-width:0.5;"/><text fill="#000000" font-family="sans-serif" font-size="13" lengthAdjust="spacing" textLength="22.75" x="382.1182" y="1189.0342">&#9208;&#65039;</text><text fill="#000000" font-family="sans-serif" font-size="13" font-weight="bold" lengthAdjust="spacing" textLength="126.3882" x="408.48" y="1189.0342">CHANTIER BLOQU&#201;</text><text fill="#000000" font-family="sans-serif" font-size="13" lengthAdjust="spacing" textLength="92.4917" x="382.1182" y="1205.3857">Attente livraison</text><polygon fill="#181818" points="260.0664,1247.7695,270.0664,1251.7695,260.0664,1255.7695,264.0664,1251.7695" style="stroke:#181818;stroke-width:1;"/><line style="stroke:#181818;stroke-width:1;" x1="100.8516" x2="266.0664" y1="1251.7695" y2="1251.7695"/><text fill="#000000" font-family="sans-serif" font-size="13" lengthAdjust="spacing" textLength="110.5635" x="107.8516" y="1246.9131">Rappelle pour suivi</text><path d="M277,1223.2422 L277,1265.2422 L406,1265.2422 L406,1233.2422 L396,1223.2422 L277,1223.2422 " fill="#FF6B6B" style="stroke:#181818;stroke-width:0.5;"/><path d="M396,1223.2422 L396,1233.2422 L406,1233.2422 L396,1223.2422 " fill="#FF6B6B" style="stroke:#181818;stroke-width:0.5;"/><text fill="#000000" font-family="sans-serif" font-size="13" lengthAdjust="spacing" textLength="108.0244" x="283" y="1241.7373">&#128308; Aucune visibilit&#233;</text><text fill="#000000" font-family="sans-serif" font-size="13" lengthAdjust="spacing" textLength="60.6899" x="283" y="1258.0889">temps r&#233;el</text><rect fill="#EEEEEE" height="3" style="stroke:#EEEEEE;stroke-width:1;" width="1035.3794" x="0" y="1292.1211"/><line style="stroke:#000000;stroke-width:1;" x1="0" x2="1035.3794" y1="1292.1211" y2="1292.1211"/><line style="stroke:#000000;stroke-width:1;" x1="0" x2="1035.3794" y1="1295.1211" y2="1295.1211"/><rect fill="#EEEEEE" height="24.3516" style="stroke:#000000;stroke-width:2;" width="163.5571" x="435.9111" y="1280.9453"/><text fill="#000000" font-family="sans-serif" font-size="13" font-weight="bold" lengthAdjust="spacing" textLength="145.9453" x="441.9111" y="1298.4404">JOUR 3 - Mercredi 9h00</text><polygon fill="#181818" points="451.5493,1333.6484,441.5493,1337.6484,451.5493,1341.6484,447.5493,1337.6484" style="stroke:#181818;stroke-width:1;"/><line style="stroke:#181818;stroke-width:1;" x1="445.5493" x2="826.0278" y1="1337.6484" y2="1337.6484"/><text fill="#000000" font-family="sans-serif" font-size="13" lengthAdjust="spacing" textLength="97.5444" x="457.5493" y="1332.792">Livraison camion</text><line style="stroke:#181818;stroke-width:1;" x1="440.5493" x2="482.5493" y1="1372.6758" y2="1372.6758"/><line style="stroke:#181818;stroke-width:1;" x1="482.5493" x2="482.5493" y1="1372.6758" y2="1385.6758"/><line style="stroke:#181818;stroke-width:1;" x1="441.5493" x2="482.5493" y1="1385.6758" y2="1385.6758"/><polygon fill="#181818" points="451.5493,1381.6758,441.5493,1385.6758,451.5493,1389.6758,447.5493,1385.6758" style="stroke:#181818;stroke-width:1;"/><text fill="#000000" font-family="sans-serif" font-size="13" lengthAdjust="spacing" textLength="160.4307" x="447.5493" y="1367.8193">Cherche bon de commande</text><path d="M619.4307,1350.6484 L619.4307,1392.6484 L799.4307,1392.6484 L799.4307,1360.6484 L789.4307,1350.6484 L619.4307,1350.6484 " fill="#FF6B6B" style="stroke:#181818;stroke-width:0.5;"/><path d="M789.4307,1350.6484 L789.4307,1360.6484 L799.4307,1360.6484 L789.4307,1350.6484 " fill="#FF6B6B" style="stroke:#181818;stroke-width:0.5;"/><text fill="#000000" font-family="sans-serif" font-size="13" lengthAdjust="spacing" textLength="159.3325" x="625.4307" y="1369.1436">&#128308; Pas de r&#233;f&#233;rence crois&#233;e</text><text fill="#000000" font-family="sans-serif" font-size="13" lengthAdjust="spacing" textLength="120.6626" x="625.4307" y="1385.4951">&#9200; 15 min &#224; chercher</text><line style="stroke:#181818;stroke-width:1;" x1="440.5493" x2="482.5493" y1="1441.7305" y2="1441.7305"/><line style="stroke:#181818;stroke-width:1;" x1="482.5493" x2="482.5493" y1="1441.7305" y2="1454.7305"/><line style="stroke:#181818;stroke-width:1;" x1="441.5493" x2="482.5493" y1="1454.7305" y2="1454.7305"/><polygon fill="#181818" points="451.5493,1450.7305,441.5493,1454.7305,451.5493,1458.7305,447.5493,1454.7305" style="stroke:#181818;stroke-width:1;"/><text fill="#000000" font-family="sans-serif" font-size="13" lengthAdjust="spacing" textLength="118.498" x="447.5493" y="1436.874">Compare r&#233;f&#233;rences</text><path d="M577.498,1403.3516 L577.498,1478.3516 L789.498,1478.3516 L789.498,1413.3516 L779.498,1403.3516 L577.498,1403.3516 " fill="#FF6B6B" style="stroke:#181818;stroke-width:0.5;"/><path d="M779.498,1403.3516 L779.498,1413.3516 L789.498,1413.3516 L779.498,1403.3516 " fill="#FF6B6B" style="stroke:#181818;stroke-width:0.5;"/><text fill="#000000" font-family="sans-serif" font-size="13" lengthAdjust="spacing" textLength="11.1973" x="583.498" y="1421.8467">&#128308;</text><text fill="#000000" font-family="sans-serif" font-size="13" font-weight="bold" lengthAdjust="spacing" textLength="132.0693" x="598.3071" y="1421.8467">NOMENCLATURES &#8800;</text><text fill="#000000" font-family="sans-serif" font-size="13" lengthAdjust="spacing" textLength="133.5103" x="583.498" y="1438.1982">Bon: "CBL-3x2.5-R-50"</text><text fill="#000000" font-family="sans-serif" font-size="13" lengthAdjust="spacing" textLength="191.3057" x="583.498" y="1454.5498">Cmd: "CABLE_3G_2.5_ROUGE"</text><text fill="#000000" font-family="sans-serif" font-size="13" lengthAdjust="spacing" textLength="107.9736" x="583.498" y="1470.9014">C'est le m&#234;me ???</text><polygon fill="#181818" points="283.0664,1513.2852,273.0664,1517.2852,283.0664,1521.2852,279.0664,1517.2852" style="stroke:#181818;stroke-width:1;"/><line style="stroke:#181818;stroke-width:1;" x1="277.0664" x2="439.5493" y1="1517.2852" y2="1517.2852"/><text fill="#000000" font-family="sans-serif" font-size="13" lengthAdjust="spacing" textLength="98.998" x="289.0664" y="1512.4287">Appel v&#233;rification</text><path d="M445,1488.7578 L445,1530.7578 L580,1530.7578 L580,1498.7578 L570,1488.7578 L445,1488.7578 " fill="#FF6B6B" style="stroke:#181818;stroke-width:0.5;"/><path d="M570,1488.7578 L570,1498.7578 L580,1498.7578 L570,1488.7578 " fill="#FF6B6B" style="stroke:#181818;stroke-width:0.5;"/><text fill="#000000" font-family="sans-serif" font-size="13" lengthAdjust="spacing" textLength="114.5308" x="451" y="1507.2529">&#128308; Pas de tra&#231;abilit&#233;</text><text fill="#000000" font-family="sans-serif" font-size="13" lengthAdjust="spacing" textLength="55.6309" x="451" y="1523.6045">&#9200; 10 min</text><line style="stroke:#181818;stroke-width:1;" x1="440.5493" x2="482.5493" y1="1563.4883" y2="1563.4883"/><line style="stroke:#181818;stroke-width:1;" x1="482.5493" x2="482.5493" y1="1563.4883" y2="1576.4883"/><line style="stroke:#181818;stroke-width:1;" x1="441.5493" x2="482.5493" y1="1576.4883" y2="1576.4883"/><polygon fill="#181818" points="451.5493,1572.4883,441.5493,1576.4883,451.5493,1580.4883,447.5493,1576.4883" style="stroke:#181818;stroke-width:1;"/><text fill="#000000" font-family="sans-serif" font-size="13" lengthAdjust="spacing" textLength="130.7871" x="447.5493" y="1558.6318">Compte manuellement</text><path d="M589.7871,1541.4609 L589.7871,1583.4609 L696.7871,1583.4609 L696.7871,1551.4609 L686.7871,1541.4609 L589.7871,1541.4609 " fill="#FF6B6B" style="stroke:#181818;stroke-width:0.5;"/><path d="M686.7871,1541.4609 L686.7871,1551.4609 L696.7871,1551.4609 L686.7871,1541.4609 " fill="#FF6B6B" style="stroke:#181818;stroke-width:0.5;"/><text fill="#000000" font-family="sans-serif" font-size="13" lengthAdjust="spacing" textLength="86.3535" x="595.7871" y="1559.9561">&#128308; Pas de scan</text><text fill="#000000" font-family="sans-serif" font-size="13" lengthAdjust="spacing" textLength="55.6309" x="595.7871" y="1576.3076">&#9200; 10 min</text><polygon fill="#181818" points="602.98,1626.8672,612.98,1630.8672,602.98,1634.8672,606.98,1630.8672" style="stroke:#181818;stroke-width:1;"/><line style="stroke:#181818;stroke-width:1;" x1="440.5493" x2="608.98" y1="1630.8672" y2="1630.8672"/><text fill="#000000" font-family="sans-serif" font-size="13" lengthAdjust="spacing" textLength="88.8799" x="447.5493" y="1626.0107">Saisit r&#233;ception</text><path d="M619,1594.1641 L619,1653.1641 L749,1653.1641 L749,1604.1641 L739,1594.1641 L619,1594.1641 " fill="#FF6B6B" style="stroke:#181818;stroke-width:0.5;"/><path d="M739,1594.1641 L739,1604.1641 L749,1604.1641 L739,1594.1641 " fill="#FF6B6B" style="stroke:#181818;stroke-width:0.5;"/><text fill="#000000" font-family="sans-serif" font-size="13" lengthAdjust="spacing" textLength="11.1973" x="625" y="1612.6592">&#128308;</text><text fill="#000000" font-family="sans-serif" font-size="13" font-weight="bold" lengthAdjust="spacing" textLength="83.0845" x="639.8091" y="1612.6592">RE-SAISIE #7</text><text fill="#000000" font-family="sans-serif" font-size="13" lengthAdjust="spacing" textLength="109.8335" x="625" y="1629.0107">Interface complexe</text><text fill="#000000" font-family="sans-serif" font-size="13" lengthAdjust="spacing" textLength="55.6309" x="625" y="1645.3623">&#9200; 20 min</text><polygon fill="#181818" points="111.8516,1676.5703,101.8516,1680.5703,111.8516,1684.5703,107.8516,1680.5703" style="stroke:#181818;stroke-width:1;"/><line style="stroke:#181818;stroke-width:1;" x1="105.8516" x2="439.5493" y1="1680.5703" y2="1680.5703"/><text fill="#000000" font-family="sans-serif" font-size="13" lengthAdjust="spacing" textLength="90.1558" x="117.8516" y="1675.7139">"Mat&#233;riel dispo"</text><rect fill="#EEEEEE" height="3" style="stroke:#EEEEEE;stroke-width:1;" width="1035.3794" x="0" y="1709.7461"/><line style="stroke:#000000;stroke-width:1;" x1="0" x2="1035.3794" y1="1709.7461" y2="1709.7461"/><line style="stroke:#000000;stroke-width:1;" x1="0" x2="1035.3794" y1="1712.7461" y2="1712.7461"/><rect fill="#EEEEEE" height="24.3516" style="stroke:#000000;stroke-width:2;" width="112.9854" x="461.197" y="1698.5703"/><text fill="#000000" font-family="sans-serif" font-size="13" font-weight="bold" lengthAdjust="spacing" textLength="95.3735" x="467.197" y="1716.0654">JOUR 3 - 16h00</text><line style="stroke:#181818;stroke-width:1;" x1="100.8516" x2="142.8516" y1="1755.2734" y2="1755.2734"/><line style="stroke:#181818;stroke-width:1;" x1="142.8516" x2="142.8516" y1="1755.2734" y2="1768.2734"/><line style="stroke:#181818;stroke-width:1;" x1="101.8516" x2="142.8516" y1="1768.2734" y2="1768.2734"/><polygon fill="#181818" points="111.8516,1764.2734,101.8516,1768.2734,111.8516,1772.2734,107.8516,1768.2734" style="stroke:#181818;stroke-width:1;"/><text fill="#000000" font-family="sans-serif" font-size="13" lengthAdjust="spacing" textLength="110.5825" x="107.8516" y="1750.417">R&#233;cup&#232;re au d&#233;p&#244;t</text><line style="stroke:#181818;stroke-width:1;" x1="100.8516" x2="142.8516" y1="1798.625" y2="1798.625"/><line style="stroke:#181818;stroke-width:1;" x1="142.8516" x2="142.8516" y1="1798.625" y2="1811.625"/><line style="stroke:#181818;stroke-width:1;" x1="101.8516" x2="142.8516" y1="1811.625" y2="1811.625"/><polygon fill="#181818" points="111.8516,1807.625,101.8516,1811.625,111.8516,1815.625,107.8516,1811.625" style="stroke:#181818;stroke-width:1;"/><text fill="#000000" font-family="sans-serif" font-size="13" lengthAdjust="spacing" textLength="130.0762" x="107.8516" y="1793.7686">D&#233;ballage sur chantier</text><path d="M5,1824.625 L5,1915.625 L198,1915.625 L198,1834.625 L188,1824.625 L5,1824.625 " fill="#FF0000" style="stroke:#181818;stroke-width:0.5;"/><path d="M188,1824.625 L188,1834.625 L198,1834.625 L188,1824.625 " fill="#FF0000" style="stroke:#181818;stroke-width:0.5;"/><text fill="#000000" font-family="sans-serif" font-size="13" lengthAdjust="spacing" textLength="13" x="11" y="1843.1201">&#10060;</text><text fill="#000000" font-family="sans-serif" font-size="13" font-weight="bold" lengthAdjust="spacing" textLength="98.9473" x="27.6118" y="1843.1201">CATASTROPHE</text><text fill="#000000" font-family="sans-serif" font-size="13" lengthAdjust="spacing" textLength="172.2563" x="11" y="1859.4717">C'EST LE MAUVAIS C&#194;BLE !</text><text fill="#000000" font-family="sans-serif" font-size="13" lengthAdjust="spacing" textLength="3.6118" x="11" y="1875.8232">&#160;</text><text fill="#000000" font-family="sans-serif" font-size="13" lengthAdjust="spacing" textLength="106.5962" x="11" y="1892.1748">&#128308; Chantier bloqu&#233;</text><text fill="#000000" font-family="sans-serif" font-size="13" lengthAdjust="spacing" textLength="156.7808" x="11" y="1908.5264">&#128557; Il faut tout recommencer</text><polygon fill="#181818" points="260.0664,1939.7344,270.0664,1943.7344,260.0664,1947.7344,264.0664,1943.7344" style="stroke:#181818;stroke-width:1;"/><line style="stroke:#181818;stroke-width:1;" x1="100.8516" x2="266.0664" y1="1943.7344" y2="1943.7344"/><text fill="#000000" font-family="sans-serif" font-size="13" lengthAdjust="spacing" textLength="89.2417" x="107.8516" y="1938.8779">Appel furieux &#129324;</text><path d="M63,1956.7344 L63,1998.7344 L309,1998.7344 L309,1966.7344 L299,1956.7344 L63,1956.7344 " fill="#FF0000" style="stroke:#181818;stroke-width:0.5;"/><path d="M299,1956.7344 L299,1966.7344 L309,1966.7344 L299,1956.7344 " fill="#FF0000" style="stroke:#181818;stroke-width:0.5;"/><text fill="#000000" font-family="sans-serif" font-size="13" lengthAdjust="spacing" textLength="13" x="94.1792" y="1975.2295">&#128557;</text><text fill="#000000" font-family="sans-serif" font-size="13" font-weight="bold" lengthAdjust="spacing" textLength="158.1582" x="110.791" y="1975.2295">IL FAUT RECOMMENCER</text><text fill="#000000" font-family="sans-serif" font-size="13" lengthAdjust="spacing" textLength="164.7407" x="94.1792" y="1991.5811">Tout le processus &#224; refaire...</text><rect fill="#EEEEEE" height="3" style="stroke:#EEEEEE;stroke-width:1;" width="1035.3794" x="0" y="2025.6133"/><line style="stroke:#000000;stroke-width:1;" x1="0" x2="1035.3794" y1="2025.6133" y2="2025.6133"/><line style="stroke:#000000;stroke-width:1;" x1="0" x2="1035.3794" y1="2028.6133" y2="2028.6133"/><rect fill="#EEEEEE" height="24.3516" style="stroke:#000000;stroke-width:2;" width="57.3291" x="489.0251" y="2014.4375"/><text fill="#000000" font-family="sans-serif" font-size="13" font-weight="bold" lengthAdjust="spacing" textLength="39.7173" x="495.0251" y="2031.9326">BILAN</text><path d="M55,2053.7891 L55,2177.7891 L870,2177.7891 L870,2063.7891 L860,2053.7891 L55,2053.7891 " fill="#FFCCCC" style="stroke:#181818;stroke-width:0.5;"/><path d="M860,2053.7891 L860,2063.7891 L870,2063.7891 L860,2053.7891 " fill="#FFCCCC" style="stroke:#181818;stroke-width:0.5;"/><text fill="#000000" font-family="sans-serif" font-size="13" font-weight="bold" lengthAdjust="spacing" textLength="162.5254" x="377.2305" y="2072.2842">M&#201;TRIQUES PROCESSUS</text><text fill="#000000" font-family="sans-serif" font-size="13" lengthAdjust="spacing" textLength="91.0444" x="377.2305" y="2088.6357">&#9200; Dur&#233;e totale:</text><text fill="#000000" font-family="sans-serif" font-size="13" font-weight="bold" lengthAdjust="spacing" textLength="50.2163" x="471.8867" y="2088.6357">~3 jours</text><text fill="#000000" font-family="sans-serif" font-size="13" lengthAdjust="spacing" textLength="118.498" x="377.2305" y="2104.9873">&#128222; Nombreux appels</text><text fill="#000000" font-family="sans-serif" font-size="13" lengthAdjust="spacing" textLength="135.3574" x="377.2305" y="2121.3389">&#9851;&#65039; Multiples re-saisies</text><text fill="#000000" font-family="sans-serif" font-size="13" lengthAdjust="spacing" textLength="87.4136" x="377.2305" y="2137.6904">&#10060; Taux erreur:</text><text fill="#000000" font-family="sans-serif" font-size="13" font-weight="bold" lengthAdjust="spacing" textLength="33.9727" x="468.2559" y="2137.6904">&#201;lev&#233;</text><text fill="#000000" font-family="sans-serif" font-size="13" lengthAdjust="spacing" textLength="88.1436" x="377.2305" y="2154.042">&#128557; Stress &#233;lev&#233;</text><text fill="#000000" font-family="sans-serif" font-size="13" lengthAdjust="spacing" textLength="118.1489" x="377.2305" y="2170.3936">&#9208;&#65039; Chantier bloqu&#233;</text><!--SRC=[dLTDRzj64BtpLqpfGn8XCcGxSXm3Ja1HLA90iXnHwgc0iQPMqHRyof8Kd4iFlQaea4DxQ0kq2Oe2hOiMw26703tod-GFD3-XRvUK9Vb3Jkk38N97CpjlthmPfIBrEHt9oED9aYLaHq70mX6dBalpCocuJrNAPmDhG9Oz63eTkcq_iNhk7SDWNXf9ChjCUf-5j-q97vCzOM4gkBnZ4aj8dT16gzNOjRVcrkvBVoeux2rlmjAaC2nUqeRLREuvktFJV2Q5yjpCp-ByRLgOEdX76m_sMeq7UqRCP2ey4ICeFBFdk7NJAJog1uJURUmsLisSKu_xXIlrIHarxzTg5um29aeZzMdri1LbCXH9mZEfJVIpOHmSqDFUi4zR0AoJXID13oQr6XqS64OOfPoYAPVda5ZuCuWgbGPF8X6I6740DnRvMQM2ztR-ymdAilDuUxCET_LQOF1mHCgFOMWVrOVQrpuWvzARS3g9GefP3F2BS58ydwJd411zUFtjMtApE8vaMXfI5eeN6GyG6WRlN_r5TGfmcPZBKNPjm3uFOb-aEc3-Xdn6W2XS4xIVdur19Hvwd4GGo_pC4md7gUajfMbImiA4HlbP2iIJI-5FIvRianN7g1lOwOCOaqZdi2Ry4Ke4FYDi78KwhXEg9oGVXTTdoLGKdszkRj8EZIEHN1r2eRQjOSjIdXJGyUGAjwktL_6JHD3jhThaNltE1ORSBQtXFv-XJqAG6MSdp5UeFRt519qKl45Y1OYufxaKjUme5HUTe8hcbJnP1TtGZL9Tkj_MjhfSalafsfC-MGCio6kv3ZLxXuVvp759wuAcR-5ZNdJ0ByR50o32SOo68LoXct_LTIYMqIWJwJuEgcHRZOvJrNUhzdl3nqwrNkiM9utECTxNZ_l7zPf-KrWLtz2s2m-mFCRXyU8ryBaQdZ9jUu8IWzLPgAao9fDbD649aoFp0WPQBb3v7zxyy-uLjPXGSAegUQfW82E1wAXEgde3NHBoAoDh-LdqxtYXAcimRy9TVWP8mMOcO-7xwgdauPwYuPMnj4JztyxnvYE1X-IBvo4lmsqLQW6S5XwNKzL1LxXbDaKIHy06W-RUtiHSWKC9xRxYkmHoN3qXSZWMCc2fwjHrHEmxLTTgkss7Dkvf1eBl4IGEqXHcgesLnXKCMr8Z_VmiKoCB6UYd8obEzGTh934G-PgMSfacp1oTZxrV7VTRGuVIwqXfOPA9gVXOlxlN-2tapEswP7R4LC8zT3i0voGV2NCnjhQHD6mnjYvFhBi5WLJyLiksTVtVAV9NAcZwmq7RwLEZqtisp6SQVIjDLQ-3BMN0DNeu5zf25MvAsSeyrQ5JW7GY_B9iAIPIehgM-qk1vedjgCJAV1SZkIJdGxrGxDC26ey5Ycs6NZJEpvUdx59BVDJOEHz-deJ6u9Qh_OCPMcgpNBhzXV1HW7PVyPQi9SPXh-iSsXrhCEn3cT_FtkYwD2A8W0abhUwSQeM5kffgtGX6wlqbvTHdjtYIAhKEyjy3JeyUFRhYbgl3RQeMnx7mRkhR4g9KilnNjYYdngPsGSikuv6kTlVDSHAFXJUvNsbjjQdm-B-8ptqDSnlSbsFcQPx4FZ-TLtpxkh15avgBdNkaXD9S9V7Mxfoy5rOLN3EByz_03sZngDYMBnfXYSRwuAjfdw3Fl79HlsethTMA-VRZrwg_hO7b3lgzeoTEiPdUSjm1THpgMiDFaJLMrIz16omASq3clm7en8zUPBgY7rv_zoUrVHgpBAKqmZ_9LGif7iiRTwLn1aYoKtZvvG_ZcarfwTuwMANIxb3B6WwexzYzhce6fwyJ6AZmIcxEV_AW0IKVCo7vwf80x1ljZdMuNX1jMmjYfTB5hwH- -zaG_NRKxzcEwmwBRKXLlfafUKBkAVEHMANonGvz3XU9jlZm-fkVw30AJgJAKmkYdkdV_wr4jejTJ816a3XUJHGrYucF-WmOxBd4rwHocizyFYr_GcWOt5HDCImB-lr2jo_Lw3phVm40]--></g></svg>