<svg xmlns="http://www.w3.org/2000/svg" xmlns:xlink="http://www.w3.org/1999/xlink" contentStyleType="text/css" height="767px" preserveAspectRatio="none" style="width:2191px;height:767px;background:#FFFFFF;" version="1.1" viewBox="0 0 2191 767" width="2191px" zoomAndPan="magnify"><title>Component Diagram - Architecture Syst&#232;me CIBLE (ODOO)</title><defs/><g><text fill="#000000" font-family="sans-serif" font-size="14" font-weight="bold" lengthAdjust="spacing" textLength="395.9512" x="890.9211" y="24.5332">Component Diagram - Architecture Syst&#232;me CIBLE (ODOO)</text><!--cluster Terrain (Mobilit?)--><g id="cluster_Terrain (Mobilit&#233;)"><path d="M8.5,44.6094 L123.0586,44.6094 A3.75,3.75 0 0 1 125.5586,47.1094 L132.5586,68.2188 L313.5,68.2188 A2.5,2.5 0 0 1 316,70.7188 L316,482.6094 A2.5,2.5 0 0 1 313.5,485.1094 L8.5,485.1094 A2.5,2.5 0 0 1 6,482.6094 L6,47.1094 A2.5,2.5 0 0 1 8.5,44.6094 " fill="#E8F5E9" style="stroke:#000000;stroke-width:1.5;"/><line style="stroke:#000000;stroke-width:1.5;" x1="6" x2="132.5586" y1="68.2188" y2="68.2188"/><text fill="#000000" font-family="sans-serif" font-size="14" font-weight="bold" lengthAdjust="spacing" textLength="113.5586" x="10" y="61.1426">Terrain (Mobilit&#233;)</text></g><!--cluster AppMobile--><g id="cluster_AppMobile"><rect fill="#90EE90" height="262.5" rx="2.5" ry="2.5" style="stroke:#181818;stroke-width:1;" width="246" x="38" y="190.6094"/><text fill="#000000" font-family="sans-serif" font-size="14" font-weight="bold" lengthAdjust="spacing" textLength="115.8691" x="103.0654" y="207.1426">App Mobile Odoo</text></g><!--cluster D?p?t (Logistique)--><g id="cluster_D&#233;p&#244;t (Logistique)"><path d="M1472.5,44.6094 L1597.1484,44.6094 A3.75,3.75 0 0 1 1599.6484,47.1094 L1606.6484,68.2188 L1845.5,68.2188 A2.5,2.5 0 0 1 1848,70.7188 L1848,482.6094 A2.5,2.5 0 0 1 1845.5,485.1094 L1472.5,485.1094 A2.5,2.5 0 0 1 1470,482.6094 L1470,47.1094 A2.5,2.5 0 0 1 1472.5,44.6094 " fill="#FFF3E0" style="stroke:#000000;stroke-width:1.5;"/><line style="stroke:#000000;stroke-width:1.5;" x1="1470" x2="1606.6484" y1="68.2188" y2="68.2188"/><text fill="#000000" font-family="sans-serif" font-size="14" font-weight="bold" lengthAdjust="spacing" textLength="123.6484" x="1474" y="61.1426">D&#233;p&#244;t (Logistique)</text></g><!--cluster Scanner--><g id="cluster_Scanner"><rect fill="#FFA500" height="262.5" rx="2.5" ry="2.5" style="stroke:#181818;stroke-width:1;" width="314" x="1502" y="190.6094"/><text fill="#000000" font-family="sans-serif" font-size="14" font-weight="bold" lengthAdjust="spacing" textLength="94.9033" x="1611.5483" y="207.1426">Terminal RFID</text></g><!--cluster Si?ge (Back-Office)--><g id="cluster_Si&#232;ge (Back-Office)"><path d="M1002.5,44.6094 L1131.8721,44.6094 A3.75,3.75 0 0 1 1134.3721,47.1094 L1141.3721,68.2188 L1405.5,68.2188 A2.5,2.5 0 0 1 1408,70.7188 L1408,482.6094 A2.5,2.5 0 0 1 1405.5,485.1094 L1002.5,485.1094 A2.5,2.5 0 0 1 1000,482.6094 L1000,47.1094 A2.5,2.5 0 0 1 1002.5,44.6094 " fill="#E3F2FD" style="stroke:#000000;stroke-width:1.5;"/><line style="stroke:#000000;stroke-width:1.5;" x1="1000" x2="1141.3721" y1="68.2188" y2="68.2188"/><text fill="#000000" font-family="sans-serif" font-size="14" font-weight="bold" lengthAdjust="spacing" textLength="128.3721" x="1004" y="61.1426">Si&#232;ge (Back-Office)</text></g><!--cluster OdooWeb--><g id="cluster_OdooWeb"><rect fill="#87CEEB" height="262.5" rx="2.5" ry="2.5" style="stroke:#181818;stroke-width:1;" width="344" x="1032" y="190.6094"/><text fill="#000000" font-family="sans-serif" font-size="14" font-weight="bold" lengthAdjust="spacing" textLength="69.9863" x="1169.0068" y="207.1426">Odoo Web</text></g><!--cluster Odoo Enterprise Core--><g id="cluster_Odoo Enterprise Core"><path d="M342.5,355.1094 L488.9688,355.1094 A3.75,3.75 0 0 1 491.4688,357.6094 L498.4688,378.7188 L973.5,378.7188 A2.5,2.5 0 0 1 976,381.2188 L976,635.6094 A2.5,2.5 0 0 1 973.5,638.1094 L342.5,638.1094 A2.5,2.5 0 0 1 340,635.6094 L340,357.6094 A2.5,2.5 0 0 1 342.5,355.1094 " fill="#E1BEE7" style="stroke:#000000;stroke-width:1.5;"/><line style="stroke:#000000;stroke-width:1.5;" x1="340" x2="498.4688" y1="378.7188" y2="378.7188"/><text fill="#000000" font-family="sans-serif" font-size="14" font-weight="bold" lengthAdjust="spacing" textLength="145.4688" x="344" y="371.6426">Odoo Enterprise Core</text></g><!--cluster ?cosyst?me Externe--><g id="cluster_&#201;cosyst&#232;me Externe"><path d="M1013.8216,549.9997 C1026.4413,525.7615 1044.4621,529.1264 1059.2168,547.7379 C1071.4307,527.6818 1086.6967,527.8161 1101.4887,544.7953 C1115.4284,525.3529 1130.1543,524.1932 1142.3328,546.5176 C1159.4101,524.0263 1174.2157,526.9135 1190.9694,546.8884 C1200.4245,526.683 1219.4931,528.6541 1229.3998,546.4315 C1245.432,526.5838 1259.7244,522.5389 1275.3271,546.8779 C1284.3835,527.7699 1300.0238,522.5974 1316.0854,538.7895 C1330.4916,519.3515 1347.0692,516.186 1360.7757,539.5206 C1377.3115,518.8683 1399.4027,520.3362 1410.2578,545.6375 C1425.9665,526.6383 1438.8192,526.8872 1452.5854,547.7026 C1466.7614,526.3762 1479.8029,524.1306 1494.838,546.8791 C1506.18,522.4718 1524.2921,525.3443 1539.4717,542.7861 C1554.0901,522.8449 1572.4113,526.8446 1582.9525,547.187 C1593.7502,524.7672 1612.7792,523.7969 1624.5686,546.2676 C1632.226,551.5062 1631.071,557.2517 1624.5214,562.4489 C1635.3581,566.8391 1633.8393,576.6374 1625.4842,581.974 C1633.5034,586.9741 1633.4362,594.6861 1625.1767,599.3989 C1635.1837,604.1057 1635.9576,612.2233 1628.713,619.9052 C1612.0438,641.821 1597.5975,644.1998 1581.8914,618.9491 C1574.8275,641.0987 1554.7684,642.1858 1541.5659,625.2887 C1527.1225,646.7988 1510.7619,650.4922 1495.5786,626.0288 C1479.9418,646.5833 1467.3987,643.2861 1454.9301,622.8845 C1445.2957,645.1007 1424.613,649.4598 1409.8187,628.2439 C1394.8961,650.9876 1375.5155,653.4441 1359.9546,628.9172 C1348.8911,647.3237 1326.9811,649.7836 1315.6581,629.2121 C1303.4597,647.4175 1284.93,644.0999 1275.659,625.988 C1262.9201,644.531 1244.549,645.1707 1233.159,624.5252 C1219.3227,643.7693 1198.8744,644.8453 1185.1114,624.4363 C1176.8046,645.6928 1157.5342,643.9004 1146.8543,626.8034 C1131.7558,645.476 1114.2705,651.7623 1100.0734,625.8574 C1082.8878,645.261 1067.5648,638.9064 1056.9427,618.7089 C1043.0962,642.3854 1025.7058,642.2387 1011.5688,618.9897 C1001.8664,614.9595 1000.2189,607.9512 1009.1546,601.3675 C1000.0257,595.8279 998.1203,589.1036 1006.8549,581.4967 C998.5166,574.9648 999.8765,568.5279 1009.4153,564.7252 C1004.1122,558.9084 1006.0718,551.9106 1013.8216,549.9997 " fill="#F5F5F5" style="stroke:#181818;stroke-width:1;"/><text fill="#000000" font-family="sans-serif" font-size="14" font-weight="bold" lengthAdjust="spacing" textLength="136.9648" x="1247.0176" y="562.6426">&#201;cosyst&#232;me Externe</text></g><!--entity Marc--><g id="elem_Marc"><rect fill="#FFB6C1" height="37.6094" rx="2.5" ry="2.5" style="stroke:#181818;stroke-width:0.5;" width="106.3789" x="194" y="80.6094"/><text fill="#000000" font-family="sans-serif" font-size="14" lengthAdjust="spacing" textLength="86.3789" x="204" y="105.1426">Chef Chantier</text></g><!--entity Catalogue--><g id="elem_Catalogue"><rect fill="#F1F1F1" height="37.6094" rx="2.5" ry="2.5" style="stroke:#181818;stroke-width:0.5;" width="83.8271" x="62" y="234.6094"/><text fill="#000000" font-family="sans-serif" font-size="14" lengthAdjust="spacing" textLength="63.8271" x="72" y="259.1426">Catalogue</text></g><!--entity Panier--><g id="elem_Panier"><rect fill="#F1F1F1" height="37.6094" rx="2.5" ry="2.5" style="stroke:#181818;stroke-width:0.5;" width="60.4688" x="181" y="234.6094"/><text fill="#000000" font-family="sans-serif" font-size="14" lengthAdjust="spacing" textLength="40.4688" x="191" y="259.1426">Panier</text></g><!--entity Suivi Commandes--><g id="elem_Suivi Commandes"><rect fill="#F1F1F1" height="37.6094" rx="2.5" ry="2.5" style="stroke:#181818;stroke-width:0.5;" width="133.5996" x="62" y="391.1094"/><text fill="#000000" font-family="sans-serif" font-size="14" lengthAdjust="spacing" textLength="113.5996" x="72" y="415.6426">Suivi Commandes</text></g><!--entity Eric--><g id="elem_Eric"><rect fill="#98FB98" height="37.6094" rx="2.5" ry="2.5" style="stroke:#181818;stroke-width:0.5;" width="88.4756" x="1486" y="80.6094"/><text fill="#000000" font-family="sans-serif" font-size="14" lengthAdjust="spacing" textLength="68.4756" x="1496" y="105.1426">Magasinier</text></g><!--entity Scan R?ception--><g id="elem_Scan R&#233;ception"><rect fill="#F1F1F1" height="37.6094" rx="2.5" ry="2.5" style="stroke:#181818;stroke-width:0.5;" width="118.8408" x="1545.5" y="234.6094"/><text fill="#000000" font-family="sans-serif" font-size="14" lengthAdjust="spacing" textLength="98.8408" x="1555.5" y="259.1426">Scan R&#233;ception</text></g><!--entity Scan Sortie--><g id="elem_Scan Sortie"><rect fill="#F1F1F1" height="37.6094" rx="2.5" ry="2.5" style="stroke:#181818;stroke-width:0.5;" width="92.3721" x="1700" y="234.6094"/><text fill="#000000" font-family="sans-serif" font-size="14" lengthAdjust="spacing" textLength="72.3721" x="1710" y="259.1426">Scan Sortie</text></g><!--entity Inventaire--><g id="elem_Inventaire"><rect fill="#F1F1F1" height="37.6094" rx="2.5" ry="2.5" style="stroke:#181818;stroke-width:0.5;" width="81.4824" x="1564.5" y="391.1094"/><text fill="#000000" font-family="sans-serif" font-size="14" lengthAdjust="spacing" textLength="61.4824" x="1574.5" y="415.6426">Inventaire</text></g><!--entity Sylvie--><g id="elem_Sylvie"><rect fill="#ADD8E6" height="37.6094" rx="2.5" ry="2.5" style="stroke:#181818;stroke-width:0.5;" width="146.0684" x="1205" y="80.6094"/><text fill="#000000" font-family="sans-serif" font-size="14" lengthAdjust="spacing" textLength="126.0684" x="1215" y="105.1426">Gestionnaire Achats</text></g><!--entity Julien--><g id="elem_Julien"><rect fill="#FFDAB9" height="37.6094" rx="2.5" ry="2.5" style="stroke:#181818;stroke-width:0.5;" width="153.0752" x="1016.5" y="80.6094"/><text fill="#000000" font-family="sans-serif" font-size="14" lengthAdjust="spacing" textLength="133.0752" x="1026.5" y="105.1426">Responsable Affaires</text></g><!--entity Validation Achats--><g id="elem_Validation Achats"><rect fill="#F1F1F1" height="37.6094" rx="2.5" ry="2.5" style="stroke:#181818;stroke-width:0.5;" width="128.1787" x="1075" y="234.6094"/><text fill="#000000" font-family="sans-serif" font-size="14" lengthAdjust="spacing" textLength="108.1787" x="1085" y="259.1426">Validation Achats</text></g><!--entity Dashboards BI--><g id="elem_Dashboards BI"><rect fill="#F1F1F1" height="37.6094" rx="2.5" ry="2.5" style="stroke:#181818;stroke-width:0.5;" width="112.6064" x="1238.5" y="234.6094"/><text fill="#000000" font-family="sans-serif" font-size="14" lengthAdjust="spacing" textLength="92.6064" x="1248.5" y="259.1426">Dashboards BI</text></g><!--entity Gestion Stock--><g id="elem_Gestion Stock"><rect fill="#F1F1F1" height="37.6094" rx="2.5" ry="2.5" style="stroke:#181818;stroke-width:0.5;" width="107.1514" x="1085.5" y="391.1094"/><text fill="#000000" font-family="sans-serif" font-size="14" lengthAdjust="spacing" textLength="87.1514" x="1095.5" y="415.6426">Gestion Stock</text></g><!--entity DB--><g id="elem_DB"><path d="M551,568.1094 C551,558.1094 640.7788,558.1094 640.7788,558.1094 C640.7788,558.1094 730.5576,558.1094 730.5576,568.1094 L730.5576,612.3281 C730.5576,622.3281 640.7788,622.3281 640.7788,622.3281 C640.7788,622.3281 551,622.3281 551,612.3281 L551,568.1094 " fill="#BA68C8" style="stroke:#181818;stroke-width:0.5;"/><path d="M551,568.1094 C551,578.1094 640.7788,578.1094 640.7788,578.1094 C640.7788,578.1094 730.5576,578.1094 730.5576,568.1094 " fill="none" style="stroke:#181818;stroke-width:0.5;"/><text fill="#000000" font-family="sans-serif" font-size="14" lengthAdjust="spacing" textLength="159.5576" x="561" y="596.6426">Base de Donn&#233;es Unique</text><text fill="#000000" font-family="sans-serif" font-size="14" lengthAdjust="spacing" textLength="85.5859" x="561" y="614.252">(PostgreSQL)</text></g><!--entity ModAchats--><g id="elem_ModAchats"><rect fill="#F1F1F1" height="37.6094" rx="2.5" ry="2.5" style="stroke:#181818;stroke-width:0.5;" width="112.6064" x="680.5" y="391.1094"/><text fill="#000000" font-family="sans-serif" font-size="14" lengthAdjust="spacing" textLength="92.6064" x="690.5" y="415.6426">Module Achats</text></g><!--entity ModStock--><g id="elem_ModStock"><rect fill="#F1F1F1" height="37.6094" rx="2.5" ry="2.5" style="stroke:#181818;stroke-width:0.5;" width="131.2891" x="828.5" y="391.1094"/><text fill="#000000" font-family="sans-serif" font-size="14" lengthAdjust="spacing" textLength="111.2891" x="838.5" y="415.6426">Module Inventaire</text></g><!--entity ModCompta--><g id="elem_ModCompta"><rect fill="#F1F1F1" height="37.6094" rx="2.5" ry="2.5" style="stroke:#181818;stroke-width:0.5;" width="147.6201" x="497" y="391.1094"/><text fill="#000000" font-family="sans-serif" font-size="14" lengthAdjust="spacing" textLength="127.6201" x="507" y="415.6426">Module Comptabilit&#233;</text></g><!--entity ModProjet--><g id="elem_ModProjet"><rect fill="#F1F1F1" height="37.6094" rx="2.5" ry="2.5" style="stroke:#181818;stroke-width:0.5;" width="106.3789" x="356" y="391.1094"/><text fill="#000000" font-family="sans-serif" font-size="14" lengthAdjust="spacing" textLength="86.3789" x="366" y="415.6426">Module Projet</text></g><!--entity F1--><g id="elem_F1"><rect fill="#F1F1F1" height="37.6094" rx="2.5" ry="2.5" style="stroke:#181818;stroke-width:0.5;" width="156.1514" x="1459" y="571.1094"/><text fill="#000000" font-family="sans-serif" font-size="14" lengthAdjust="spacing" textLength="136.1514" x="1469" y="595.6426">Fournisseur A (Rexel)</text></g><!--entity F2--><g id="elem_F2"><rect fill="#F1F1F1" height="37.6094" rx="2.5" ry="2.5" style="stroke:#181818;stroke-width:0.5;" width="173.2891" x="1250.5" y="571.1094"/><text fill="#000000" font-family="sans-serif" font-size="14" lengthAdjust="spacing" textLength="153.2891" x="1260.5" y="595.6426">Fournisseur B (Sonepar)</text></g><!--entity Ext--><g id="elem_Ext"><rect fill="#F1F1F1" height="37.6094" rx="2.5" ry="2.5" style="stroke:#181818;stroke-width:0.5;" width="198.9922" x="1016.5" y="571.1094"/><text fill="#000000" font-family="sans-serif" font-size="14" lengthAdjust="spacing" textLength="178.9922" x="1026.5" y="595.6426">Banques / Expert Comptable</text></g><g id="elem_GMN48"><path d="M533.5,685.1094 L533.5,760.5156 A0,0 0 0 0 533.5,760.5156 L748.0591,760.5156 A0,0 0 0 0 748.0591,760.5156 L748.0591,695.1094 L738.0591,685.1094 L645,685.1094 L641,622.3694 L637,685.1094 L533.5,685.1094 A0,0 0 0 0 533.5,685.1094 " fill="#FEFFDD" style="stroke:#181818;stroke-width:0.5;"/><path d="M738.0591,685.1094 L738.0591,695.1094 L748.0591,695.1094 L738.0591,685.1094 " fill="#FEFFDD" style="stroke:#181818;stroke-width:0.5;"/><text fill="#000000" font-family="sans-serif" font-size="13" lengthAdjust="spacing" textLength="13" x="539.5" y="703.6045">&#9989;</text><text fill="#000000" font-family="sans-serif" font-size="13" font-weight="bold" lengthAdjust="spacing" textLength="176.9473" x="556.1118" y="703.6045">SINGLE SOURCE OF TRUTH</text><text fill="#000000" font-family="sans-serif" font-size="13" lengthAdjust="spacing" textLength="96.1289" x="539.5" y="719.9561">- Donn&#233;e unique</text><text fill="#000000" font-family="sans-serif" font-size="13" lengthAdjust="spacing" textLength="135.8208" x="539.5" y="736.3076">- Mise &#224; jour temps r&#233;el</text><text fill="#000000" font-family="sans-serif" font-size="13" lengthAdjust="spacing" textLength="107.6816" x="539.5" y="752.6592">- Plus de doublons</text></g><g id="elem_GMN51"><path d="M1864,216.1094 L1864,291.5156 L1998.439,291.5156 L1998.439,226.1094 L1988.439,216.1094 L1864,216.1094 " fill="#FEFFDD" style="stroke:#181818;stroke-width:0.5;"/><path d="M1988.439,216.1094 L1988.439,226.1094 L1998.439,226.1094 L1988.439,216.1094 " fill="#FEFFDD" style="stroke:#181818;stroke-width:1;"/><text fill="#000000" font-family="sans-serif" font-size="13" lengthAdjust="spacing" textLength="13" x="1870" y="234.6045">&#9989;</text><text fill="#000000" font-family="sans-serif" font-size="13" font-weight="bold" lengthAdjust="spacing" textLength="92.46" x="1886.6118" y="234.6045">UX OPTIMIS&#201;E</text><text fill="#000000" font-family="sans-serif" font-size="13" lengthAdjust="spacing" textLength="81.6436" x="1870" y="250.9561">- Mode Offline</text><text fill="#000000" font-family="sans-serif" font-size="13" lengthAdjust="spacing" textLength="98.2744" x="1870" y="267.3076">- Photos produits</text><text fill="#000000" font-family="sans-serif" font-size="13" lengthAdjust="spacing" textLength="113.439" x="1870" y="283.6592">- Scan Code-barres</text></g><g id="elem_GMN54"><path d="M2033,216.1094 L2033,291.5156 L2184.7935,291.5156 L2184.7935,226.1094 L2174.7935,216.1094 L2033,216.1094 " fill="#FEFFDD" style="stroke:#181818;stroke-width:0.5;"/><path d="M2174.7935,216.1094 L2174.7935,226.1094 L2184.7935,226.1094 L2174.7935,216.1094 " fill="#FEFFDD" style="stroke:#181818;stroke-width:1;"/><text fill="#000000" font-family="sans-serif" font-size="13" lengthAdjust="spacing" textLength="13" x="2039" y="234.6045">&#9989;</text><text fill="#000000" font-family="sans-serif" font-size="13" font-weight="bold" lengthAdjust="spacing" textLength="76.5527" x="2055.6118" y="234.6045">EFFICACIT&#201;</text><text fill="#000000" font-family="sans-serif" font-size="13" lengthAdjust="spacing" textLength="109.1226" x="2039" y="250.9561">- R&#233;ception en 30s</text><text fill="#000000" font-family="sans-serif" font-size="13" lengthAdjust="spacing" textLength="130.7935" x="2039" y="267.3076">- Inventaire permanent</text><text fill="#000000" font-family="sans-serif" font-size="13" lengthAdjust="spacing" textLength="72.96" x="2039" y="283.6592">- Z&#233;ro erreur</text></g><!--link Marc to AppMobile--><g id="link_Marc_AppMobile"><path d="M250.44,118.6394 C252.33,128.5494 254.8375,141.695 257.5442,155.8836 C258.8976,162.9779 260.3007,170.3329 261.7014,177.6746 C262.4018,181.3455 263.1015,185.013 263.7941,188.6429 C263.8806,189.0967 262.8426,183.6561 262.9289,184.1086 " fill="none" id="Marc-to-AppMobile" style="stroke:#181818;stroke-width:1;"/><polygon fill="#181818" points="264.0534,190.0023,266.2958,180.4121,263.1163,185.0909,258.4376,181.9114,264.0534,190.0023" style="stroke:#181818;stroke-width:1;"/><text fill="#000000" font-family="sans-serif" font-size="13" lengthAdjust="spacing" textLength="35.3945" x="260" y="163.1045">Utilise</text></g><!--link Eric to Scanner--><g id="link_Eric_Scanner"><path d="M1527.63,118.6394 C1526.325,128.5494 1524.5944,141.695 1522.7267,155.8836 C1521.7929,162.9779 1520.8248,170.3329 1519.8585,177.6746 C1519.3754,181.3455 1518.8927,185.013 1518.415,188.6429 C1518.3553,189.0967 1519.0785,183.6011 1519.019,184.0536 " fill="none" id="Eric-to-Scanner" style="stroke:#181818;stroke-width:1;"/><polygon fill="#181818" points="1518.2361,190.0023,1523.3762,181.6012,1518.8885,185.045,1515.4446,180.5573,1518.2361,190.0023" style="stroke:#181818;stroke-width:1;"/><text fill="#000000" font-family="sans-serif" font-size="13" lengthAdjust="spacing" textLength="35.3945" x="1524" y="163.1045">Utilise</text></g><!--link Sylvie to OdooWeb--><g id="link_Sylvie_OdooWeb"><path d="M1253.2,118.6994 C1230.27,134.3594 1194.59,156.1194 1160,166.6094 C1138.45,173.1494 1076.14,160.0094 1059,174.6094 C1055.71,177.4106 1052.9381,180.6772 1050.6071,184.2553 C1049.4417,186.0443 1048.3864,187.9113 1047.4317,189.8369 C1047.3124,190.0776 1049.7876,184.9085 1049.6714,185.1509 " fill="none" id="Sylvie-to-OdooWeb" style="stroke:#181818;stroke-width:1;"/><polygon fill="#181818" points="1047.0784,190.5617,1054.5751,184.1743,1049.2392,186.0527,1047.3608,180.7169,1047.0784,190.5617" style="stroke:#181818;stroke-width:1;"/><text fill="#000000" font-family="sans-serif" font-size="13" lengthAdjust="spacing" textLength="84.5508" x="1202" y="163.1045">Valide &amp; Pilote</text></g><!--link Julien to OdooWeb--><g id="link_Julien_OdooWeb"><path d="M1083.47,118.7594 C1076.03,133.4894 1065.83,154.9794 1059,174.6094 C1057.58,178.6906 1056.2253,182.9272 1054.9409,187.2216 C1054.6198,188.2952 1055.9705,183.6087 1055.6583,184.6881 " fill="none" id="Julien-to-OdooWeb" style="stroke:#181818;stroke-width:1;"/><polygon fill="#181818" points="1053.9909,190.4517,1060.3344,182.9178,1055.3804,185.6487,1052.6495,180.6947,1053.9909,190.4517" style="stroke:#181818;stroke-width:1;"/><text fill="#000000" font-family="sans-serif" font-size="13" lengthAdjust="spacing" textLength="82.3735" x="1069" y="163.1045">Consulte KPIs</text></g><!--link ModAchats to DB--><g id="link_ModAchats_DB"><path d="M724.4203,434.4395 C708.1103,464.6595 680.7984,515.3186 660.6684,552.6386 " fill="none" id="ModAchats-DB" style="stroke:#181818;stroke-width:1;"/><polygon fill="#181818" points="727.27,429.1594,719.4754,435.1797,724.8952,433.5594,726.5155,438.9793,727.27,429.1594" style="stroke:#181818;stroke-width:1;"/><polygon fill="#181818" points="657.82,557.9194,665.6131,551.8971,660.1937,553.5187,658.5721,548.0993,657.82,557.9194" style="stroke:#181818;stroke-width:1;"/></g><!--link ModStock to DB--><g id="link_ModStock_DB"><path d="M877.8008,434.11 C863.2708,453.49 841.08,478.5494 811,493.1094 C784.8,505.7894 772.69,489.5094 746,501.1094 C716.33,513.9994 692.7731,533.7673 673.2531,553.4673 " fill="none" id="ModStock-DB" style="stroke:#181818;stroke-width:1;"/><polygon fill="#181818" points="881.4,429.3094,872.8008,434.1108,878.4007,433.3099,879.2016,438.9097,881.4,429.3094" style="stroke:#181818;stroke-width:1;"/><polygon fill="#181818" points="669.03,557.7294,678.2061,554.1517,672.5493,554.1777,672.5233,548.5209,669.03,557.7294" style="stroke:#181818;stroke-width:1;"/></g><!--link ModCompta to DB--><g id="link_ModCompta_DB"><path d="M580.2952,434.7434 C592.1752,464.9634 611.865,515.0153 626.535,552.3353 " fill="none" id="ModCompta-DB" style="stroke:#181818;stroke-width:1;"/><polygon fill="#181818" points="578.1,429.1594,577.6701,438.9988,579.9293,433.8127,585.1154,436.0719,578.1,429.1594" style="stroke:#181818;stroke-width:1;"/><polygon fill="#181818" points="628.73,557.9194,629.1602,548.0799,626.9008,553.266,621.7147,551.0066,628.73,557.9194" style="stroke:#181818;stroke-width:1;"/></g><!--link ModProjet to DB--><g id="link_ModProjet_DB"><path d="M425.567,434.0217 C438.817,451.7117 457.05,473.8794 480,493.1094 C510.06,518.2994 542.2224,538.1667 573.4324,555.1867 " fill="none" id="ModProjet-DB" style="stroke:#181818;stroke-width:1;"/><polygon fill="#181818" points="421.97,429.2194,424.1639,438.8208,424.9675,433.2213,430.567,434.0248,421.97,429.2194" style="stroke:#181818;stroke-width:1;"/><polygon fill="#181818" points="578.7,558.0594,572.7136,550.2387,574.3103,555.6655,568.8835,557.2622,578.7,558.0594" style="stroke:#181818;stroke-width:1;"/></g><!--link AppMobile to ModAchats--><g id="link_AppMobile_ModAchats"><path d="M290.4494,255.026 C291.2296,255.0529 286.637,254.9008 287.5111,254.934 C294.5043,255.1994 304.4651,255.676 316.7883,256.5258 C341.4347,258.2253 375.5306,261.4175 414.2338,267.3981 C491.64,279.3594 587.475,302.4744 663,347.1094 C683.78,359.3894 700.2311,373.3462 714.4711,386.8162 " fill="none" id="AppMobile-ModAchats" style="stroke:#181818;stroke-width:1;"/><polygon fill="#181818" points="284.4527,254.8244,293.3133,259.1245,289.4499,254.9924,293.582,251.129,284.4527,254.8244" style="stroke:#181818;stroke-width:1;"/><polygon fill="#181818" points="718.83,390.9394,715.0405,381.8487,715.1976,387.5034,709.543,387.6605,718.83,390.9394" style="stroke:#181818;stroke-width:1;"/><text fill="#000000" font-family="sans-serif" font-size="13" lengthAdjust="spacing" textLength="60.6899" x="645" y="335.6045">API / Sync</text></g><!--link AppMobile to ModProjet--><g id="link_AppMobile_ModProjet"><path d="M288.1128,268.6787 C288.3217,268.9214 284.9306,264.9815 285.1461,265.2319 C286.8702,267.235 288.8042,269.4818 290.9183,271.9378 C299.3747,281.7619 310.7131,294.9331 323.0288,309.2394 C347.66,337.8519 372.2859,366.4569 389.4959,386.4519 " fill="none" id="AppMobile-ModProjet" style="stroke:#181818;stroke-width:1;"/><polygon fill="#181818" points="284.1987,264.1311,287.0381,273.5618,287.4604,267.9207,293.1015,268.343,284.1987,264.1311" style="stroke:#181818;stroke-width:1;"/><polygon fill="#181818" points="393.41,390.9994,390.5705,381.5687,390.1482,387.2098,384.5072,386.7875,393.41,390.9994" style="stroke:#181818;stroke-width:1;"/><text fill="#000000" font-family="sans-serif" font-size="13" lengthAdjust="spacing" textLength="60.7026" x="348" y="335.6045">Imputation</text></g><!--link Scanner to ModStock--><g id="link_Scanner_ModStock"><path d="M1496.1788,258.5249 C1494.4786,259.0037 1497.7002,258.0931 1495.5694,258.6883 C1487.0463,261.0691 1475.2525,264.3225 1461.575,267.9831 C1434.22,275.3044 1399.33,284.2544 1368,291.1094 C1231.66,320.9494 1193.54,309.9694 1059,347.1094 C1016.08,358.9594 974.1914,375.0687 941.2414,388.7487 " fill="none" id="Scanner-ModStock" style="stroke:#181818;stroke-width:1;"/><polygon fill="#181818" points="1501.9538,256.8969,1492.2061,255.4889,1497.1413,258.2535,1494.3767,263.1888,1501.9538,256.8969" style="stroke:#181818;stroke-width:1;"/><polygon fill="#181818" points="935.7,391.0494,945.5459,391.2927,940.3178,389.1322,942.4783,383.9041,935.7,391.0494" style="stroke:#181818;stroke-width:1;"/><text fill="#000000" font-family="sans-serif" font-size="13" lengthAdjust="spacing" textLength="60.6899" x="1176" y="335.6045">API / Sync</text></g><!--link OdooWeb to ModAchats--><g id="link_OdooWeb_ModAchats"><path d="M1026.1102,258.5251 C1025.535,258.69 1029.8602,257.4563 1029.2347,257.6371 C1027.9837,257.9986 1026.6332,258.3918 1025.1884,258.816 C1022.2987,259.6646 1019.0316,260.6377 1015.428,261.7317 C1001.0134,266.1078 981.2144,272.4188 958.6488,280.4331 C913.5175,296.4619 857.32,319.3044 811,347.1094 C790.31,359.5294 773.8479,373.4858 759.5879,386.9158 " fill="none" id="OdooWeb-ModAchats" style="stroke:#181818;stroke-width:1;"/><polygon fill="#181818" points="1031.8794,256.8771,1022.1269,255.503,1027.0717,258.2505,1024.3242,263.1953,1031.8794,256.8771" style="stroke:#181818;stroke-width:1;"/><polygon fill="#181818" points="755.22,391.0294,764.5142,387.7708,758.8599,387.6014,759.0294,381.947,755.22,391.0294" style="stroke:#181818;stroke-width:1;"/><text fill="#000000" font-family="sans-serif" font-size="13" lengthAdjust="spacing" textLength="13" x="859" y="335.6045">UI</text></g><!--link OdooWeb to ModStock--><g id="link_OdooWeb_ModStock"><path d="M1027.8687,267.4444 C1027.4248,267.9141 1030.4322,264.7312 1029.959,265.2319 C1028.0664,267.235 1025.9434,269.4818 1023.6227,271.9378 C1014.3397,281.7619 1001.8931,294.9331 988.3738,309.2394 C961.335,337.8519 934.126,366.6435 915.231,386.6385 " fill="none" id="OdooWeb-ModStock" style="stroke:#181818;stroke-width:1;"/><polygon fill="#181818" points="1031.9893,263.0832,1022.9009,266.8779,1028.5554,266.7175,1028.7158,272.3721,1031.9893,263.0832" style="stroke:#181818;stroke-width:1;"/><polygon fill="#181818" points="911.11,390.9994,920.1988,387.2054,914.5442,387.3653,914.3842,381.7107,911.11,390.9994" style="stroke:#181818;stroke-width:1;"/><text fill="#000000" font-family="sans-serif" font-size="13" lengthAdjust="spacing" textLength="13" x="976" y="335.6045">UI</text></g><!--link OdooWeb to ModCompta--><g id="link_OdooWeb_ModCompta"><path d="M1025.5537,254.6526 C1025.0596,254.6552 1029.8195,254.6329 1029.2883,254.6361 C1027.1633,254.6491 1024.7443,254.6674 1022.0513,254.6933 C1011.2791,254.797 996.1227,255.0214 977.8666,255.5022 C941.3544,256.4638 892.4438,258.4506 841.4125,262.5469 C739.35,270.7394 628.805,287.3694 592,321.1094 C572.66,338.8294 569.5545,364.8797 569.7745,385.0197 " fill="none" id="OdooWeb-ModCompta" style="stroke:#181818;stroke-width:1;"/><polygon fill="#181818" points="1031.5537,254.6238,1022.5345,250.6671,1026.5537,254.6478,1022.573,258.667,1031.5537,254.6238" style="stroke:#181818;stroke-width:1;"/><polygon fill="#181818" points="569.84,391.0194,573.7415,381.9762,569.7854,386.0197,565.7419,382.0636,569.84,391.0194" style="stroke:#181818;stroke-width:1;"/><text fill="#000000" font-family="sans-serif" font-size="13" lengthAdjust="spacing" textLength="13" x="593" y="335.6045">UI</text></g><!--link ModAchats to F1--><g id="link_ModAchats_F1"><path d="M747.28,429.4694 C759.54,449.2994 782.07,479.8394 811,493.1094 C845.25,508.8194 1113.3,492.5894 1150,501.1094 C1168.6,505.4294 1170.42,514.7194 1189,519.1094 C1243.53,531.9994 1387.52,510.4094 1441,527.1094 C1469.6,536.0394 1493.1977,552.2228 1511.5677,567.1028 " fill="none" id="ModAchats-to-F1" style="stroke:#181818;stroke-width:1;"/><polygon fill="#181818" points="1516.23,570.8794,1511.7542,562.1063,1512.3447,567.7322,1506.7188,568.3227,1516.23,570.8794" style="stroke:#181818;stroke-width:1;"/><text fill="#000000" font-family="sans-serif" font-size="13" lengthAdjust="spacing" textLength="150.979" x="1190" y="515.6045">Email / EDI (Commandes)</text></g><!--link ModAchats to F2--><g id="link_ModAchats_F2"><path d="M747.81,429.1894 C760.4,448.4794 783.07,478.2494 811,493.1094 C883.53,531.6894 912.16,511.9494 994,519.1094 C1046.94,523.7394 1182.01,512.1394 1233,527.1094 C1263.46,536.0494 1289.3502,552.4359 1309.4202,567.3159 " fill="none" id="ModAchats-to-F2" style="stroke:#181818;stroke-width:1;"/><polygon fill="#181818" points="1314.24,570.8894,1309.3926,562.316,1310.2235,567.9115,1304.628,568.7424,1314.24,570.8894" style="stroke:#181818;stroke-width:1;"/><text fill="#000000" font-family="sans-serif" font-size="13" lengthAdjust="spacing" textLength="150.979" x="995" y="515.6045">Email / EDI (Commandes)</text></g><!--link F1 to ModStock--><g id="link_F1_ModStock"><path d="M1513.29,570.9294 C1494.53,557.2694 1467.22,538.9594 1441,527.1094 C1402.28,509.6094 1391,507.5194 1349,501.1094 C1285.27,491.3794 1121.55,508.7094 1059,493.1094 C1007.17,480.1794 957.8107,452.4369 926.2407,432.4669 " fill="none" id="F1-to-ModStock" style="stroke:#181818;stroke-width:1;"/><polygon fill="#181818" points="921.17,429.2594,926.6377,437.4511,925.3956,431.9323,930.9144,430.6902,921.17,429.2594" style="stroke:#181818;stroke-width:1;"/><text fill="#000000" font-family="sans-serif" font-size="13" lengthAdjust="spacing" textLength="134.3926" x="1423" y="515.6045">BL &#201;lectronique (Futur)</text></g><!--link AppMobile to GMN51--><g id="link_AppMobile_GMN51"><path d="M284.7467,251.9104 C288.8872,251.1149 294.4445,250.0546 301.3043,248.7617 C315.0239,246.1758 333.9534,242.6598 357.178,238.4727 C403.6272,230.0984 467.2569,219.04 540.7488,207.3706 C687.7325,184.0319 874.165,158.2494 1041.5,146.6094 C1207.54,135.0594 1632.79,93.3894 1790.5,146.6094 C1831.17,160.3294 1869.38,191.0494 1895.65,216.0594 " fill="none" id="AppMobile-GMN51" style="stroke:#181818;stroke-width:1;stroke-dasharray:7.0,7.0;"/></g><!--link Scanner to GMN54--><g id="link_Scanner_GMN54"><path d="M1515.9026,190.2436 C1515.955,190.0642 1516.0077,189.8849 1516.0609,189.7057 C1516.1672,189.3474 1516.2751,188.9894 1516.3848,188.6318 C1518.1393,182.9109 1520.3248,177.3023 1523.0409,172.0442 C1528.4731,161.5281 1536.0275,152.4144 1546.5,146.6094 C1590.43,122.2594 1951.95,127.7594 1998.5,146.6094 C2033.03,160.5894 2062.74,191.1094 2082.63,215.9894 " fill="none" id="Scanner-GMN54" style="stroke:#181818;stroke-width:1;stroke-dasharray:7.0,7.0;"/></g><!--SRC=[VLNDRkCs4BxxAGOEqDe1ZEO7oTf1KK2ofAssSUrQSLiqpO6MQPiRcbH9AjYWs6CFUOSUUjpS-mPwapv9XwJadsnQn4dCuQVvllaqGnfcE8MXt1HIK64WOcIbo0Pw4AXypGpDJQaeP8_QL9ysY4p3wnWwusWyxhPQ-fw9WbXytcJ8p2CcLFWS4IjEMws2vFTaHQ5zGvKYJ41d9EUCCrCzTzjm5FUJYtW0lxS0ReThkeJXcWZ3gBe3ec54L0v7IH9U3ayHiMM1Tb0Ku19H62-aR5iqnkhGqU0aZWSdBgrDJ0pXSbNIEx-U464P_28hsGEp5co8M51jen_n5p-ElTVxPY_n5SmCYjUqzN6ljAXwBgg_3NIkvOffmtuhgQqjIPBps8ku7P4LqKmqXSMAOM63VX8E-eU5eKqR9WY7QP96hgmi9q9GPVC55oVRecmOfjLpJWl3fBZRYsPIeOLr91KFc9WmHVTAS_osj2RvwuLbhFg4_piX1dhZvPBbhh3uF3bB8b_OMwejlR044EHhOhIhC7la3mpVH115_VZI8gTKOv6QpD77OBcq3tZekv8pAcnzKH0ElC0zH-pxXP_et9bX5_WTZlflXd4SDcRyI3XR42kaqU3Z4T7hkIHgeI5CwrYj638Zy_izJsh5rfM6vGfSOWfVm8HnQIZ2QhM7i24MLd93uRj9gWyiTEfZOQWg5DgBI4MjXQTX7Bznyb4tcHFSQeVsBx95w6VrJ3NCXEsbNqLd8hLPAPhzSDrrDaGX78N1PN_OzzflHt9HyeCNW16_sjlUwuKQuapOGzYZ0ENu0Mr0FhY7cYZvdffcsw_gcMbOuMlhK1JwcACv3FcaXp6VQHj37tCkomMqgwTSwkOGYZ-WcyAwc5pO7z-8YIoLO5hJKa40dIdzG7dNIKnEN-w7qCcmk_3igX5d5X4IWMvh-0eP2gfCOmRtRY6jLVGbJ2bthQRHJwT4jtOdXDE-S-4AWacA6RD7aR-2gWk-WdHJbCPbRJKZsM2yTmU9ciRxZ6oMVhRNFFxALlqAtDv1NRN3khNBRHz9JX4RRmZZrgCeXSxssEo-X9xz3nJpl10NNaFrnF7MKDArF7II4cyUl6C4JXtCfJ5o0tBfE-MVF_-0u-Ci_VujNaRPU3OTnZ1Eu6Owk_ds-1W1lMQ4e7JfN6Xanw_w2zvZ8u2XcqA3GWXtcnDUQZjw2rdEELhGec81bhjMeDXgRQo0xJlSwfZz3EF9JJfAi-efhkcnDBoObalEX2UVhAMH6Wg50yJSJFRSsOizjg2zEL5u6FudPzqHMyOuIT9XC4nlggUQRtSF09vDvoUUO3VkWFsCxkFARVnIFIi9U27ZCEnO_mK0]--></g></svg>