<svg xmlns="http://www.w3.org/2000/svg" xmlns:xlink="http://www.w3.org/1999/xlink" contentStyleType="text/css" height="1114px" preserveAspectRatio="none" style="width:2060px;height:1114px;background:#FFFFFF;" version="1.1" viewBox="0 0 2060 1114" width="2060px" zoomAndPan="magnify"><title>Component Diagram - Architecture Syst&#232;me ACTUEL</title><defs/><g><text fill="#000000" font-family="sans-serif" font-size="14" font-weight="bold" lengthAdjust="spacing" textLength="354.7305" x="845.8247" y="24.5332">Component Diagram - Architecture Syst&#232;me ACTUEL</text><!--cluster Chantiers (5 sites)--><g id="cluster_Chantiers (5 sites)"><path d="M8.5,44.6094 L130.8721,44.6094 A3.75,3.75 0 0 1 133.3721,47.1094 L140.3721,68.2188 L674.5,68.2188 A2.5,2.5 0 0 1 677,70.7188 L677,153.1094 A2.5,2.5 0 0 1 674.5,155.6094 L8.5,155.6094 A2.5,2.5 0 0 1 6,153.1094 L6,47.1094 A2.5,2.5 0 0 1 8.5,44.6094 " fill="#FFE4E1" style="stroke:#000000;stroke-width:1.5;"/><line style="stroke:#000000;stroke-width:1.5;" x1="6" x2="140.3721" y1="68.2188" y2="68.2188"/><text fill="#000000" font-family="sans-serif" font-size="14" font-weight="bold" lengthAdjust="spacing" textLength="121.3721" x="10" y="61.1426">Chantiers (5 sites)</text></g><!--cluster Bureau Si?ge--><g id="cluster_Bureau Si&#232;ge"><path d="M1137.5,52.6094 L1227.9756,52.6094 A3.75,3.75 0 0 1 1230.4756,55.1094 L1237.4756,76.2188 L1669.5,76.2188 A2.5,2.5 0 0 1 1672,78.7188 L1672,145.1094 A2.5,2.5 0 0 1 1669.5,147.6094 L1137.5,147.6094 A2.5,2.5 0 0 1 1135,145.1094 L1135,55.1094 A2.5,2.5 0 0 1 1137.5,52.6094 " fill="#E6F3FF" style="stroke:#000000;stroke-width:1.5;"/><line style="stroke:#000000;stroke-width:1.5;" x1="1135" x2="1237.4756" y1="76.2188" y2="76.2188"/><text fill="#000000" font-family="sans-serif" font-size="14" font-weight="bold" lengthAdjust="spacing" textLength="89.4756" x="1139" y="69.1426">Bureau Si&#232;ge</text></g><!--cluster D?p?t--><g id="cluster_D&#233;p&#244;t"><path d="M856.5,547.6094 L897.1621,547.6094 A3.75,3.75 0 0 1 899.6621,550.1094 L906.6621,571.2188 L1204.5,571.2188 A2.5,2.5 0 0 1 1207,573.7188 L1207,640.1094 A2.5,2.5 0 0 1 1204.5,642.6094 L856.5,642.6094 A2.5,2.5 0 0 1 854,640.1094 L854,550.1094 A2.5,2.5 0 0 1 856.5,547.6094 " fill="#E8F5E9" style="stroke:#000000;stroke-width:1.5;"/><line style="stroke:#000000;stroke-width:1.5;" x1="854" x2="906.6621" y1="571.2188" y2="571.2188"/><text fill="#000000" font-family="sans-serif" font-size="14" font-weight="bold" lengthAdjust="spacing" textLength="39.6621" x="858" y="564.1426">D&#233;p&#244;t</text></g><!--cluster Syst?me Legacy--><g id="cluster_Syst&#232;me Legacy"><path d="M908.5,739.6094 L1019.2305,739.6094 A3.75,3.75 0 0 1 1021.7305,742.1094 L1028.7305,763.2188 L1447.5,763.2188 A2.5,2.5 0 0 1 1450,765.7188 L1450,1104.6094 A2.5,2.5 0 0 1 1447.5,1107.1094 L908.5,1107.1094 A2.5,2.5 0 0 1 906,1104.6094 L906,742.1094 A2.5,2.5 0 0 1 908.5,739.6094 " fill="#FFCCCC" style="stroke:#000000;stroke-width:1.5;"/><line style="stroke:#000000;stroke-width:1.5;" x1="906" x2="1028.7305" y1="763.2188" y2="763.2188"/><text fill="#000000" font-family="sans-serif" font-size="14" font-weight="bold" lengthAdjust="spacing" textLength="109.7305" x="910" y="756.1426">Syst&#232;me Legacy</text></g><!--cluster SageMDE--><g id="cluster_SageMDE"><path d="M1097,801.6094 C1097,791.6094 1257.5,791.6094 1257.5,791.6094 C1257.5,791.6094 1418,791.6094 1418,801.6094 L1418,1065.1094 C1418,1075.1094 1257.5,1075.1094 1257.5,1075.1094 C1257.5,1075.1094 1097,1075.1094 1097,1065.1094 L1097,801.6094 " fill="#FF6B6B" style="stroke:#181818;stroke-width:1;"/><path d="M1097,801.6094 C1097,811.6094 1257.5,811.6094 1257.5,811.6094 C1257.5,811.6094 1418,811.6094 1418,801.6094 " fill="none" style="stroke:#181818;stroke-width:1;"/><text fill="#000000" font-family="sans-serif" font-size="14" font-weight="bold" lengthAdjust="spacing" textLength="68.4619" x="1223.269" y="828.1426">Sage MDE</text><text fill="#000000" font-family="sans-serif" font-size="14" font-weight="bold" lengthAdjust="spacing" textLength="105.793" x="1204.6035" y="845.752">(Windows 2012)</text></g><!--cluster Fichiers Excel (Chaos)--><g id="cluster_Fichiers Excel (Chaos)"><path d="M1476.5,824.1094 L1627.665,824.1094 A3.75,3.75 0 0 1 1630.165,826.6094 L1637.165,847.7188 L1994.5,847.7188 A2.5,2.5 0 0 1 1997,850.2188 L1997,1083.1094 A2.5,2.5 0 0 1 1994.5,1085.6094 L1476.5,1085.6094 A2.5,2.5 0 0 1 1474,1083.1094 L1474,826.6094 A2.5,2.5 0 0 1 1476.5,824.1094 " fill="#FFF9E6" style="stroke:#000000;stroke-width:1.5;"/><line style="stroke:#000000;stroke-width:1.5;" x1="1474" x2="1637.165" y1="847.7188" y2="847.7188"/><text fill="#000000" font-family="sans-serif" font-size="14" font-weight="bold" lengthAdjust="spacing" textLength="150.165" x="1478" y="840.6426">Fichiers Excel (Chaos)</text></g><!--cluster Communication--><g id="cluster_Communication"><path d="M109.5,221.6094 L216.2793,221.6094 A3.75,3.75 0 0 1 218.7793,224.1094 L225.7793,245.2188 L442.5,245.2188 A2.5,2.5 0 0 1 445,247.7188 L445,460.1094 A2.5,2.5 0 0 1 442.5,462.6094 L109.5,462.6094 A2.5,2.5 0 0 1 107,460.1094 L107,224.1094 A2.5,2.5 0 0 1 109.5,221.6094 " fill="#F0F0F0" style="stroke:#000000;stroke-width:1.5;"/><line style="stroke:#000000;stroke-width:1.5;" x1="107" x2="225.7793" y1="245.2188" y2="245.2188"/><text fill="#000000" font-family="sans-serif" font-size="14" font-weight="bold" lengthAdjust="spacing" textLength="105.7793" x="111" y="238.1426">Communication</text></g><!--cluster Fournisseurs (50+)--><g id="cluster_Fournisseurs (50+)"><path d="M488.0711,375.6795 C499.0031,350.858 517.8235,343.6542 536.7675,367.6948 C553.8178,343.5466 576.4878,345.4609 591.4991,369.9875 C606.9037,355.0219 621.6049,354.1503 632.76,374.8971 C646.9868,348.2855 668.0561,346.0008 685.6965,371.4243 C699.9487,349.5036 716.9364,352.7636 731.3777,371.2103 C747.4603,345.0282 768.4595,345.7947 787.8689,367.2666 C800.6095,344.3141 822.557,349.0602 833.3134,369.3516 C848.6484,345.3744 862.6609,345.0996 879.1186,368.2606 C899.4706,344.4628 915.3293,349.2785 928.6374,375.2668 C948.9597,349.5747 966.5785,348.6425 986.439,375.7723 C998.4918,355.9295 1018.5888,348.381 1033.1675,373.125 C1046.1768,344.913 1067.3558,346.9312 1083.1376,370.4468 C1097.5877,345.7883 1120.6936,350.2614 1133.023,372.6934 C1149.3642,352.5226 1167.3672,351.108 1182,374.6094 C1183.2753,373.8963 1184.1153,374.4092 1184.0881,375.864 C1194.1929,382.4669 1197.513,389.0955 1186.5737,398.0555 C1195.4881,400.5501 1197.3569,408.5247 1191.4464,415.2264 C1202.2873,425.8236 1199.3566,432.7481 1186.9977,439.0047 C1195.3967,451.425 1191.2657,462.7255 1175,462.6094 C1176.2171,463.328 1176.591,464.7911 1175.0407,465.548 C1159.6685,488.533 1142.3948,492.3457 1126.5077,466.0552 C1110.9227,485.4915 1095.042,490.6769 1079.2933,466.2314 C1065.2082,487.2411 1048.4756,488.9678 1033.4966,467.1881 C1018.5363,490.584 997.4337,491.821 981.3405,468.4515 C970.5352,492.8079 948.8518,488.8801 935.8403,470.8179 C918.3399,499.2995 897.6913,502.1412 879.1069,471.8645 C868.319,495.6309 852.7548,493.4895 837.4319,476.5021 C819.677,499.308 801.8334,496.5249 785.6727,474.6551 C771.6231,500.4478 747.156,495.8183 733.0822,474.6822 C719.5869,495.1324 701.1606,494.017 689.557,472.7105 C671.2504,494.95 648.6887,493.8087 635.9191,466.693 C623.829,489.5719 599.4798,496.8887 584.5496,469.6012 C569.1747,487.402 547.9278,490.1374 537.5862,464.197 C515.0495,489.8179 491.0077,490.161 477,455.6094 C478.4468,454.5388 479.8595,454.8232 480.3096,456.7207 C470.2273,453.6801 469.1666,445.0003 477.3266,438.9052 C467.2877,433.6762 466.9687,424.5884 475.6901,417.8979 C466.365,410.3936 467.8993,403.0562 477.9727,397.7496 C464.5569,385.1098 469.3703,374.6407 484,367.6094 C488.4103,367.9174 491.4571,371.4385 488.0711,375.6795 " fill="#E0E0E0" style="stroke:#181818;stroke-width:1;"/><text fill="#000000" font-family="sans-serif" font-size="14" font-weight="bold" lengthAdjust="spacing" textLength="125.6514" x="766.6743" y="387.1426">Fournisseurs (50+)</text></g><!--entity Marc1--><g id="elem_Marc1"><rect fill="#FFB6C1" height="37.6094" rx="2.5" ry="2.5" style="stroke:#181818;stroke-width:0.5;" width="118.0547" x="22" y="91.1094"/><text fill="#000000" font-family="sans-serif" font-size="14" lengthAdjust="spacing" textLength="98.0547" x="32" y="115.6426">Chef Chantier 1</text></g><!--entity Marc2--><g id="elem_Marc2"><rect fill="#FFB6C1" height="37.6094" rx="2.5" ry="2.5" style="stroke:#181818;stroke-width:0.5;" width="118.0547" x="390" y="91.1094"/><text fill="#000000" font-family="sans-serif" font-size="14" lengthAdjust="spacing" textLength="98.0547" x="400" y="115.6426">Chef Chantier 2</text></g><!--entity Marc3--><g id="elem_Marc3"><rect fill="#FFB6C1" height="37.6094" rx="2.5" ry="2.5" style="stroke:#181818;stroke-width:0.5;" width="118.0547" x="543" y="91.1094"/><text fill="#000000" font-family="sans-serif" font-size="14" lengthAdjust="spacing" textLength="98.0547" x="553" y="115.6426">Chef Chantier 3</text></g><g id="elem_GMN6"><path d="M175.5,80.6094 L175.5,106.1094 L140.3,110.1094 L175.5,114.1094 L175.5,139.6641 A0,0 0 0 0 175.5,139.6641 L354.0425,139.6641 A0,0 0 0 0 354.0425,139.6641 L354.0425,90.6094 L344.0425,80.6094 L175.5,80.6094 A0,0 0 0 0 175.5,80.6094 " fill="#FEFFDD" style="stroke:#181818;stroke-width:0.5;"/><path d="M344.0425,80.6094 L344.0425,90.6094 L354.0425,90.6094 L344.0425,80.6094 " fill="#FEFFDD" style="stroke:#181818;stroke-width:0.5;"/><text fill="#000000" font-family="sans-serif" font-size="13" lengthAdjust="spacing" textLength="122.0718" x="181.5" y="99.1045">&#128308; Pas d'acc&#232;s digital</text><text fill="#000000" font-family="sans-serif" font-size="13" lengthAdjust="spacing" textLength="157.5425" x="181.5" y="115.4561">&#128196; Bons papier uniquement</text><text fill="#000000" font-family="sans-serif" font-size="13" lengthAdjust="spacing" textLength="149.6016" x="181.5" y="131.8076">&#128222; T&#233;l&#233;phone uniquement</text></g><!--entity Sylvie--><g id="elem_Sylvie"><rect fill="#ADD8E6" height="37.6094" rx="2.5" ry="2.5" style="stroke:#181818;stroke-width:0.5;" width="146.0684" x="1151" y="91.1094"/><text fill="#000000" font-family="sans-serif" font-size="14" lengthAdjust="spacing" textLength="126.0684" x="1161" y="115.6426">Gestionnaire Achats</text></g><!--entity Julien--><g id="elem_Julien"><rect fill="#FFDAB9" height="37.6094" rx="2.5" ry="2.5" style="stroke:#181818;stroke-width:0.5;" width="153.0752" x="1502.5" y="91.1094"/><text fill="#000000" font-family="sans-serif" font-size="14" lengthAdjust="spacing" textLength="133.0752" x="1512.5" y="115.6426">Responsable Affaires</text></g><g id="elem_GMN12"><path d="M1332.5,88.6094 L1332.5,106.1094 L1297.22,110.1094 L1332.5,114.1094 L1332.5,131.3125 A0,0 0 0 0 1332.5,131.3125 L1467.6689,131.3125 A0,0 0 0 0 1467.6689,131.3125 L1467.6689,98.6094 L1457.6689,88.6094 L1332.5,88.6094 A0,0 0 0 0 1332.5,88.6094 " fill="#FEFFDD" style="stroke:#181818;stroke-width:0.5;"/><path d="M1457.6689,88.6094 L1457.6689,98.6094 L1467.6689,98.6094 L1457.6689,88.6094 " fill="#FEFFDD" style="stroke:#181818;stroke-width:0.5;"/><text fill="#000000" font-family="sans-serif" font-size="13" lengthAdjust="spacing" textLength="64.2891" x="1338.5" y="107.1045">&#128105;&#8205;&#128188; Sylvie</text><text fill="#000000" font-family="sans-serif" font-size="13" lengthAdjust="spacing" textLength="114.1689" x="1338.5" y="123.4561">Hub central (goulot)</text></g><!--entity Eric--><g id="elem_Eric"><rect fill="#98FB98" height="37.6094" rx="2.5" ry="2.5" style="stroke:#181818;stroke-width:0.5;" width="88.4756" x="870" y="586.1094"/><text fill="#000000" font-family="sans-serif" font-size="14" lengthAdjust="spacing" textLength="68.4756" x="880" y="610.6426">Magasinier</text></g><g id="elem_GMN17"><path d="M993.5,583.6094 L993.5,601.1094 L958.15,605.1094 L993.5,609.1094 L993.5,626.3125 A0,0 0 0 0 993.5,626.3125 L1190.4634,626.3125 A0,0 0 0 0 1190.4634,626.3125 L1190.4634,593.6094 L1180.4634,583.6094 L993.5,583.6094 A0,0 0 0 0 993.5,583.6094 " fill="#FEFFDD" style="stroke:#181818;stroke-width:0.5;"/><path d="M1180.4634,583.6094 L1180.4634,593.6094 L1190.4634,593.6094 L1180.4634,583.6094 " fill="#FEFFDD" style="stroke:#181818;stroke-width:0.5;"/><text fill="#000000" font-family="sans-serif" font-size="13" lengthAdjust="spacing" textLength="39" x="999.5" y="602.1045">&#128230; &#201;ric</text><text fill="#000000" font-family="sans-serif" font-size="13" lengthAdjust="spacing" textLength="175.9634" x="999.5" y="618.4561">&#128308; 1 seul PC pour 3 personnes</text></g><g id="elem_GMN25"><path d="M922.5,841.6094 L922.5,933.3672 L1069.9707,933.3672 L1069.9707,851.6094 L1059.9707,841.6094 L922.5,841.6094 " fill="#FEFFDD" style="stroke:#181818;stroke-width:0.5;"/><path d="M1059.9707,841.6094 L1059.9707,851.6094 L1069.9707,851.6094 L1059.9707,841.6094 " fill="#FEFFDD" style="stroke:#181818;stroke-width:1;"/><text fill="#000000" font-family="sans-serif" font-size="13" lengthAdjust="spacing" textLength="20.9473" x="928.5" y="860.1045">&#9888;&#65039;</text><text fill="#000000" font-family="sans-serif" font-size="13" font-weight="bold" lengthAdjust="spacing" textLength="71.5063" x="953.0591" y="860.1045">OBSOL&#200;TE</text><text fill="#000000" font-family="sans-serif" font-size="13" lengthAdjust="spacing" textLength="64.6191" x="928.5" y="876.4561">- Pas d'API</text><text fill="#000000" font-family="sans-serif" font-size="13" lengthAdjust="spacing" textLength="117.7744" x="928.5" y="892.8076">- Interface complexe</text><text fill="#000000" font-family="sans-serif" font-size="13" lengthAdjust="spacing" textLength="126.4707" x="928.5" y="909.1592">- Donn&#233;es chaotiques</text><text fill="#000000" font-family="sans-serif" font-size="13" lengthAdjust="spacing" textLength="125.0171" x="928.5" y="925.5107">- 12 r&#233;f pour 1 produit</text></g><!--entity Module Achats--><g id="elem_Module Achats"><rect fill="#F1F1F1" height="37.6094" rx="2.5" ry="2.5" style="stroke:#181818;stroke-width:0.5;" width="112.6064" x="1140.5" y="868.6094"/><text fill="#000000" font-family="sans-serif" font-size="14" lengthAdjust="spacing" textLength="92.6064" x="1150.5" y="893.1426">Module Achats</text></g><!--entity Module Stock--><g id="elem_Module Stock"><rect fill="#F1F1F1" height="37.6094" rx="2.5" ry="2.5" style="stroke:#181818;stroke-width:0.5;" width="104.8203" x="1288.5" y="868.6094"/><text fill="#000000" font-family="sans-serif" font-size="14" lengthAdjust="spacing" textLength="84.8203" x="1298.5" y="893.1426">Module Stock</text></g><!--entity Module Commandes--><g id="elem_Module Commandes"><rect fill="#F1F1F1" height="37.6094" rx="2.5" ry="2.5" style="stroke:#181818;stroke-width:0.5;" width="149.1719" x="1140.5" y="1013.1094"/><text fill="#000000" font-family="sans-serif" font-size="14" lengthAdjust="spacing" textLength="129.1719" x="1150.5" y="1037.6426">Module Commandes</text></g><!--entity Excel1--><g id="elem_Excel1"><rect fill="#FFD700" height="55.2188" rx="2.5" ry="2.5" style="stroke:#181818;stroke-width:0.5;" width="100.917" x="1790.5" y="860.1094"/><text fill="#000000" font-family="sans-serif" font-size="14" lengthAdjust="spacing" textLength="34.2344" x="1800.5" y="884.6426">Excel</text><text fill="#000000" font-family="sans-serif" font-size="14" lengthAdjust="spacing" textLength="80.917" x="1800.5" y="902.252">Fournisseurs</text></g><!--entity Excel2--><g id="elem_Excel2"><rect fill="#FFD700" height="55.2188" rx="2.5" ry="2.5" style="stroke:#181818;stroke-width:0.5;" width="133.5996" x="1621" y="860.1094"/><text fill="#000000" font-family="sans-serif" font-size="14" lengthAdjust="spacing" textLength="34.2344" x="1631" y="884.6426">Excel</text><text fill="#000000" font-family="sans-serif" font-size="14" lengthAdjust="spacing" textLength="113.5996" x="1631" y="902.252">Suivi Commandes</text></g><!--entity Excel3--><g id="elem_Excel3"><rect fill="#FFD700" height="55.2188" rx="2.5" ry="2.5" style="stroke:#181818;stroke-width:0.5;" width="96.2617" x="1490" y="860.1094"/><text fill="#000000" font-family="sans-serif" font-size="14" lengthAdjust="spacing" textLength="34.2344" x="1500" y="884.6426">Excel</text><text fill="#000000" font-family="sans-serif" font-size="14" lengthAdjust="spacing" textLength="76.2617" x="1500" y="902.252">Stock D&#233;p&#244;t</text></g><!--entity Excel4--><g id="elem_Excel4"><rect fill="#FFD700" height="55.2188" rx="2.5" ry="2.5" style="stroke:#181818;stroke-width:0.5;" width="54.2344" x="1927" y="860.1094"/><text fill="#000000" font-family="sans-serif" font-size="14" lengthAdjust="spacing" textLength="34.2344" x="1937" y="884.6426">Excel</text><text fill="#000000" font-family="sans-serif" font-size="14" lengthAdjust="spacing" textLength="24.1104" x="1937" y="902.252">Prix</text></g><g id="elem_GMN33"><path d="M1759,994.6094 L1759,1070.0156 A0,0 0 0 0 1759,1070.0156 L1923.3872,1070.0156 A0,0 0 0 0 1923.3872,1070.0156 L1923.3872,1004.6094 L1913.3872,994.6094 L1845,994.6094 L1841,915.4094 L1837,994.6094 L1759,994.6094 A0,0 0 0 0 1759,994.6094 " fill="#FEFFDD" style="stroke:#181818;stroke-width:0.5;"/><path d="M1913.3872,994.6094 L1913.3872,1004.6094 L1923.3872,1004.6094 L1913.3872,994.6094 " fill="#FEFFDD" style="stroke:#181818;stroke-width:0.5;"/><text fill="#000000" font-family="sans-serif" font-size="13" lengthAdjust="spacing" textLength="11.1973" x="1765" y="1013.1045">&#128308;</text><text fill="#000000" font-family="sans-serif" font-size="13" font-weight="bold" lengthAdjust="spacing" textLength="128.5781" x="1779.8091" y="1013.1045">SILOS DE DONN&#201;ES</text><text fill="#000000" font-family="sans-serif" font-size="13" lengthAdjust="spacing" textLength="62.8672" x="1765" y="1029.4561">- Doublons</text><text fill="#000000" font-family="sans-serif" font-size="13" lengthAdjust="spacing" textLength="85.9917" x="1765" y="1045.8076">- Incoh&#233;rences</text><text fill="#000000" font-family="sans-serif" font-size="13" lengthAdjust="spacing" textLength="78.7554" x="1765" y="1062.1592">- Pas de sync</text></g><!--entity Tel--><g id="elem_Tel"><rect fill="#FFD700" height="37.6094" rx="2.5" ry="2.5" style="stroke:#181818;stroke-width:0.5;" width="120.3926" x="218" y="257.6094"/><text fill="#000000" font-family="sans-serif" font-size="14" lengthAdjust="spacing" textLength="100.3926" x="228" y="282.1426">T&#233;l&#233;phone/SMS</text></g><!--entity Email--><g id="elem_Email"><rect fill="#F1F1F1" height="37.6094" rx="2.5" ry="2.5" style="stroke:#181818;stroke-width:0.5;" width="55.0068" x="373.5" y="257.6094"/><text fill="#000000" font-family="sans-serif" font-size="14" lengthAdjust="spacing" textLength="35.0068" x="383.5" y="282.1426">Email</text></g><!--entity Paper--><g id="elem_Paper"><rect fill="#FF6B6B" height="37.6094" rx="2.5" ry="2.5" style="stroke:#181818;stroke-width:0.5;" width="60.4688" x="123" y="257.6094"/><text fill="#000000" font-family="sans-serif" font-size="14" lengthAdjust="spacing" textLength="40.4688" x="133" y="282.1426">Papier</text></g><g id="elem_GMN40"><path d="M210,403.6094 L210,446.3125 A0,0 0 0 0 210,446.3125 L346.2671,446.3125 A0,0 0 0 0 346.2671,446.3125 L346.2671,413.6094 L336.2671,403.6094 L282,403.6094 L278,295.8694 L274,403.6094 L210,403.6094 A0,0 0 0 0 210,403.6094 " fill="#FEFFDD" style="stroke:#181818;stroke-width:0.5;"/><path d="M336.2671,403.6094 L336.2671,413.6094 L346.2671,413.6094 L336.2671,403.6094 " fill="#FEFFDD" style="stroke:#181818;stroke-width:0.5;"/><text fill="#000000" font-family="sans-serif" font-size="13" lengthAdjust="spacing" textLength="115.2671" x="216" y="422.1045">&#128308; 15-20 appels/jour</text><text fill="#000000" font-family="sans-serif" font-size="13" lengthAdjust="spacing" textLength="99.7217" x="216" y="438.4561">Pas de tra&#231;abilit&#233;</text></g><!--entity F1--><g id="elem_F1"><rect fill="#F1F1F1" height="37.6094" rx="2.5" ry="2.5" style="stroke:#181818;stroke-width:0.5;" width="107.1445" x="924.5" y="406.1094"/><text fill="#000000" font-family="sans-serif" font-size="14" lengthAdjust="spacing" textLength="87.1445" x="934.5" y="430.6426">Fournisseur A</text></g><!--entity F2--><g id="elem_F2"><rect fill="#F1F1F1" height="37.6094" rx="2.5" ry="2.5" style="stroke:#181818;stroke-width:0.5;" width="107.1445" x="1066.5" y="406.1094"/><text fill="#000000" font-family="sans-serif" font-size="14" lengthAdjust="spacing" textLength="87.1445" x="1076.5" y="430.6426">Fournisseur B</text></g><!--entity F3--><g id="elem_F3"><rect fill="#F1F1F1" height="37.6094" rx="2.5" ry="2.5" style="stroke:#181818;stroke-width:0.5;" width="107.917" x="781" y="406.1094"/><text fill="#000000" font-family="sans-serif" font-size="14" lengthAdjust="spacing" textLength="87.917" x="791" y="430.6426">Fournisseur C</text></g><!--entity F4--><g id="elem_F4"><rect fill="#F1F1F1" height="37.6094" rx="2.5" ry="2.5" style="stroke:#181818;stroke-width:0.5;" width="93.9307" x="485" y="406.1094"/><text fill="#000000" font-family="sans-serif" font-size="14" lengthAdjust="spacing" textLength="73.9307" x="495" y="430.6426">... 47 autres</text></g><g id="elem_GMN48"><path d="M614,395.6094 L614,454.6641 L745.5825,454.6641 L745.5825,405.6094 L735.5825,395.6094 L614,395.6094 " fill="#FEFFDD" style="stroke:#181818;stroke-width:0.5;"/><path d="M735.5825,395.6094 L735.5825,405.6094 L745.5825,405.6094 L735.5825,395.6094 " fill="#FEFFDD" style="stroke:#181818;stroke-width:1;"/><text fill="#000000" font-family="sans-serif" font-size="13" lengthAdjust="spacing" textLength="72.2046" x="620" y="414.1045">&#128308; Pas d'EDI</text><text fill="#000000" font-family="sans-serif" font-size="13" lengthAdjust="spacing" textLength="71.4873" x="620" y="430.4561">&#128308; Pas d'API</text><text fill="#000000" font-family="sans-serif" font-size="13" lengthAdjust="spacing" textLength="110.5825" x="620" y="446.8076">&#128222; 100% t&#233;l&#233;phone</text></g><g id="elem_GMN77"><path d="M547.5,534.6094 L547.5,675.4219 L812.3706,675.4219 L812.3706,544.6094 L802.3706,534.6094 L547.5,534.6094 " fill="#FEFFDD" style="stroke:#181818;stroke-width:0.5;"/><path d="M802.3706,534.6094 L802.3706,544.6094 L812.3706,544.6094 L802.3706,534.6094 " fill="#FEFFDD" style="stroke:#181818;stroke-width:1;"/><text fill="#000000" font-family="sans-serif" font-size="13" font-weight="bold" lengthAdjust="spacing" textLength="188.5063" x="553.5" y="553.1045">PROBL&#200;MES ARCHITECTURE</text><text fill="#000000" font-family="sans-serif" font-size="13" lengthAdjust="spacing" textLength="175.2334" x="553.5" y="569.4561">&#128308; Aucune int&#233;gration syst&#232;me</text><text fill="#000000" font-family="sans-serif" font-size="13" lengthAdjust="spacing" textLength="188.9253" x="553.5" y="585.8076">&#128308; Sylvie = goulot d'&#233;tranglement</text><text fill="#000000" font-family="sans-serif" font-size="13" lengthAdjust="spacing" textLength="186.7925" x="553.5" y="602.1592">&#128308; Donn&#233;es &#233;parpill&#233;es (6 outils)</text><text fill="#000000" font-family="sans-serif" font-size="13" lengthAdjust="spacing" textLength="125.3408" x="553.5" y="618.5107">&#128308; Multiples re-saisies</text><text fill="#000000" font-family="sans-serif" font-size="13" lengthAdjust="spacing" textLength="135.0845" x="553.5" y="634.8623">&#128308; Pas d'automatisation</text><text fill="#000000" font-family="sans-serif" font-size="13" lengthAdjust="spacing" textLength="168.708" x="553.5" y="651.2139">&#128308; Pas de visibilit&#233; temps r&#233;el</text><text fill="#000000" font-family="sans-serif" font-size="13" lengthAdjust="spacing" textLength="243.8706" x="553.5" y="667.5654">&#128308; Taux &#233;lev&#233; de commandes incompl&#232;tes</text></g><!--link SageMDE to GMN25--><g id="link_SageMDE_GMN25"><path d="M1096.9746,887.6094 C1096.9293,887.6094 1096.884,887.6094 1096.8387,887.6094 C1096.4763,887.6094 1096.1139,887.6094 1095.7516,887.6094 C1092.8525,887.6094 1089.9538,887.6094 1087.055,887.6094 C1081.2575,887.6094 1075.46,887.6094 1069.66,887.6094 " fill="none" id="SageMDE-GMN25" style="stroke:#181818;stroke-width:1;stroke-dasharray:7.0,7.0;"/></g><!--link F1 to GMN48--><g id="link_F1_GMN48"><path d="M967.97,405.7194 C954.11,381.2894 926.53,340.4494 889.5,323.6094 C845.4,303.5494 825.21,304.9594 780.5,323.6094 C745.94,338.0294 717.19,370.7494 699.41,395.1694 " fill="none" id="F1-GMN48" style="stroke:#181818;stroke-width:1;stroke-dasharray:7.0,7.0;"/></g><!--link Marc1 to Tel--><g id="link_Marc1_Tel"><path d="M102.95,129.3094 C117.69,140.6894 138.01,154.8094 158,163.6094 C172.21,169.8694 178.81,163.4194 192,171.6094 C226.84,193.2294 251.1903,228.7164 265.0403,252.2864 " fill="none" id="Marc1-to-Tel" style="stroke:#181818;stroke-width:1;stroke-dasharray:7.0,7.0;"/><polygon fill="#181818" points="268.08,257.4594,266.9691,247.6734,265.5469,253.1485,260.0717,251.7263,268.08,257.4594" style="stroke:#181818;stroke-width:1;"/><text fill="#000000" font-family="sans-serif" font-size="13" lengthAdjust="spacing" textLength="38.3081" x="232" y="194.1045">appels</text></g><!--link Marc2 to Tel--><g id="link_Marc2_Tel"><path d="M427.85,129.1394 C413.12,140.7594 392.51,155.1994 372,163.6094 C353.61,171.1494 343.81,159.5594 328,171.6094 C300.12,192.8594 288.3516,227.8159 282.8316,251.5059 " fill="none" id="Marc2-to-Tel" style="stroke:#181818;stroke-width:1;stroke-dasharray:7.0,7.0;"/><polygon fill="#181818" points="281.47,257.3494,287.408,249.4919,282.6047,252.4798,279.6167,247.6765,281.47,257.3494" style="stroke:#181818;stroke-width:1;"/><text fill="#000000" font-family="sans-serif" font-size="13" lengthAdjust="spacing" textLength="38.3081" x="329" y="194.1045">appels</text></g><!--link Marc3 to Tel--><g id="link_Marc3_Tel"><path d="M588.22,129.3194 C569.96,151.8694 535.41,189.2894 496,205.6094 C467.21,217.5294 385.12,202.5094 356,213.6094 C331.59,222.9194 313.055,238.5493 298.495,253.2993 " fill="none" id="Marc3-to-Tel" style="stroke:#181818;stroke-width:1;stroke-dasharray:7.0,7.0;"/><polygon fill="#181818" points="294.28,257.5694,303.4493,253.9743,297.7925,254.011,297.7559,248.3543,294.28,257.5694" style="stroke:#181818;stroke-width:1;"/><text fill="#000000" font-family="sans-serif" font-size="13" lengthAdjust="spacing" textLength="38.3081" x="549" y="194.1045">appels</text></g><!--link Marc1 to Paper--><g id="link_Marc1_Paper"><path d="M87.91,129.3794 C95.26,148.5294 107.39,179.4194 119,205.6094 C126.88,223.3994 133.9691,237.9566 141.0091,251.9866 " fill="none" id="Marc1-to-Paper" style="stroke:#181818;stroke-width:1;stroke-dasharray:7.0,7.0;"/><polygon fill="#181818" points="143.7,257.3494,143.2388,247.5113,141.4576,252.8804,136.0885,251.0992,143.7,257.3494" style="stroke:#181818;stroke-width:1;"/><text fill="#000000" font-family="sans-serif" font-size="13" lengthAdjust="spacing" textLength="67.939" x="120" y="194.1045">bons papier</text></g><!--link Tel to Sylvie--><g id="link_Tel_Sylvie"><path d="M294.19,257.3294 C308.7,242.4194 331.42,222.4394 356,213.6094 C379.32,205.2294 777.43,208.8594 802,205.6094 C863.77,197.4394 877.29,185.6194 938,171.6094 C1010.2,154.9494 1087.1913,138.8197 1145.0813,126.9997 " fill="none" id="Tel-to-Sylvie" style="stroke:#181818;stroke-width:1;stroke-dasharray:7.0,7.0;"/><polygon fill="#181818" points="1150.96,125.7994,1141.3417,123.6807,1146.0611,126.7996,1142.9421,131.519,1150.96,125.7994" style="stroke:#181818;stroke-width:1;"/><text fill="#000000" font-family="sans-serif" font-size="13" lengthAdjust="spacing" textLength="86.7217" x="941.5295" y="186.1045">tous les appels</text><text fill="#000000" font-family="sans-serif" font-size="13" lengthAdjust="spacing" textLength="91.7808" x="939" y="202.4561">passent par elle</text></g><!--link Sylvie to Tel--><g id="link_Sylvie_Tel"><path d="M1150.72,112.9194 C1045.17,116.9494 844.91,129.9094 680,171.6094 C640.95,181.4794 635.4,197.2594 596,205.6094 C543.8,216.6794 406.08,195.1894 356,213.6094 C331.49,222.6294 312.9447,238.2893 298.4247,253.1393 " fill="none" id="Sylvie-to-Tel" style="stroke:#181818;stroke-width:1;stroke-dasharray:7.0,7.0;"/><polygon fill="#181818" points="294.23,257.4294,303.3821,253.7908,297.7256,253.8543,297.662,248.1978,294.23,257.4294" style="stroke:#181818;stroke-width:1;"/><text fill="#000000" font-family="sans-serif" font-size="13" lengthAdjust="spacing" textLength="112.728" x="681" y="194.1045">appels fournisseurs</text></g><!--link Paper to Sylvie--><g id="link_Paper_Sylvie"><path d="M161.28,257.3794 C169.02,242.7094 182.07,223.0394 200,213.6094 C233.86,195.7894 336.58,220.0894 372,205.6094 C392.98,197.0294 388.95,180.0094 410,171.6094 C437.56,160.5994 647.38,165.4694 677,163.6094 C846.96,152.9194 1039.8784,132.2871 1144.7284,120.3671 " fill="none" id="Paper-to-Sylvie" style="stroke:#181818;stroke-width:1;stroke-dasharray:7.0,7.0;"/><polygon fill="#181818" points="1150.69,119.6894,1141.2958,116.7316,1145.722,120.2542,1142.1994,124.6804,1150.69,119.6894" style="stroke:#181818;stroke-width:1;"/><text fill="#000000" font-family="sans-serif" font-size="13" lengthAdjust="spacing" textLength="76.5972" x="411" y="194.1045">centralisation</text></g><!--link Sylvie to SageMDE--><g id="link_Sylvie_SageMDE"><path d="M1227.67,129.2794 C1233.44,159.5094 1244,222.0994 1244,275.6094 C1244,275.6094 1244,275.6094 1244,496.6094 C1244,577.8494 1246.29,604.5094 1207,675.6094 C1192.1,702.5694 1184.01,708.7994 1157,723.6094 C1143.77,730.8594 1134.04,720.3394 1124,731.6094 C1118.32,737.9869 1114.285,750.6125 1111.4294,766.0248 C1110.0016,773.731 1109.4858,776.1657 1108.5895,784.8326 " fill="none" id="Sylvie-to-SageMDE" style="stroke:#181818;stroke-width:1;"/><polygon fill="#181818" points="1107.9723,790.8007,1112.8769,782.26,1108.4866,785.8272,1104.9193,781.437,1107.9723,790.8007" style="stroke:#181818;stroke-width:1;"/><text fill="#000000" font-family="sans-serif" font-size="13" lengthAdjust="spacing" textLength="33.2363" x="1245" y="430.6045">saisie</text></g><!--link Sylvie to Excel1--><g id="link_Sylvie_Excel1"><path d="M1248.45,129.3594 C1266,141.3794 1290.75,156.2294 1315,163.6094 C1327.57,167.4394 1423.31,162.7294 1433,171.6094 C1534.83,264.8994 1414.07,357.8094 1481,478.6094 C1564.22,628.8094 1671.12,593.3794 1773,731.6094 C1802.81,772.0594 1821.3387,821.9061 1831.5487,854.3461 " fill="none" id="Sylvie-to-Excel1" style="stroke:#181818;stroke-width:1;"/><polygon fill="#181818" points="1833.35,860.0694,1834.4635,850.2837,1831.8489,855.3,1826.8326,852.6854,1833.35,860.0694" style="stroke:#181818;stroke-width:1;"/><text fill="#000000" font-family="sans-serif" font-size="13" lengthAdjust="spacing" textLength="33.2363" x="1482" y="430.6045">saisie</text></g><!--link Sylvie to Excel2--><g id="link_Sylvie_Excel2"><path d="M1237.25,129.2694 C1245.39,140.9694 1255.63,156.7094 1263,171.6094 C1368.64,385.0594 1275.93,507.8694 1445,675.6094 C1498.19,728.3794 1547.01,682.9794 1604,731.6094 C1644.63,766.2794 1667.0191,820.0018 1678.3491,854.3218 " fill="none" id="Sylvie-to-Excel2" style="stroke:#181818;stroke-width:1;"/><polygon fill="#181818" points="1680.23,860.0194,1681.207,850.2191,1678.6626,855.2714,1673.6102,852.727,1680.23,860.0194" style="stroke:#181818;stroke-width:1;"/><text fill="#000000" font-family="sans-serif" font-size="13" lengthAdjust="spacing" textLength="33.2363" x="1337" y="430.6045">saisie</text></g><!--link Sylvie to Email--><g id="link_Sylvie_Email"><path d="M1196.51,129.2094 C1161.51,151.2794 1098.43,187.8294 1039,205.6094 C810.82,273.8894 524.8897,277.006 434.7497,276.156 " fill="none" id="Sylvie-to-Email" style="stroke:#181818;stroke-width:1;"/><polygon fill="#181818" points="428.75,276.0994,437.7119,280.1841,433.7498,276.1465,437.7873,272.1844,428.75,276.0994" style="stroke:#181818;stroke-width:1;"/><text fill="#000000" font-family="sans-serif" font-size="13" lengthAdjust="spacing" textLength="70.8081" x="1118" y="194.1045">confirmation</text></g><!--link Tel to F1--><g id="link_Tel_F1"><path d="M338.35,292.1294 C344.3,293.3794 350.26,294.5694 356,295.6094 C454.82,313.5894 481.11,308.0294 580,325.6094 C616.31,332.0594 624.41,338.9894 661,343.6094 C688.13,347.0394 881.96,340.5994 907,351.6094 C932.8,362.9494 950.6368,383.5327 962.9668,401.0527 " fill="none" id="Tel-to-F1" style="stroke:#181818;stroke-width:1;stroke-dasharray:7.0,7.0;"/><polygon fill="#181818" points="966.42,405.9594,964.5114,396.2972,963.5424,401.8705,957.9691,400.9014,966.42,405.9594" style="stroke:#181818;stroke-width:1;"/><text fill="#000000" font-family="sans-serif" font-size="13" lengthAdjust="spacing" textLength="70.8081" x="662" y="340.1045">commandes</text></g><!--link Tel to F2--><g id="link_Tel_F2"><path d="M338.27,292.6094 C344.24,293.7694 350.22,294.7994 356,295.6094 C609.42,331.1794 681.28,269.7094 931,325.6094 C951.62,330.2294 954.52,338.4194 975,343.6094 C1007.07,351.7294 1019.24,337.1694 1049,351.6094 C1074.2,363.8394 1091.9608,383.9871 1104.4708,401.1871 " fill="none" id="Tel-to-F2" style="stroke:#181818;stroke-width:1;stroke-dasharray:7.0,7.0;"/><polygon fill="#181818" points="1108,406.0394,1105.9411,396.4081,1105.059,401.9958,1099.4713,401.1137,1108,406.0394" style="stroke:#181818;stroke-width:1;"/><text fill="#000000" font-family="sans-serif" font-size="13" lengthAdjust="spacing" textLength="70.8081" x="976" y="340.1045">commandes</text></g><!--link Tel to F3--><g id="link_Tel_F3"><path d="M326.56,295.6794 C371.78,311.5694 441.43,333.6694 504,343.6094 C532.44,348.1294 736.59,340.1394 763,351.6094 C789.03,362.9194 807.1573,383.5307 819.7073,401.0607 " fill="none" id="Tel-to-F3" style="stroke:#181818;stroke-width:1;stroke-dasharray:7.0,7.0;"/><polygon fill="#181818" points="823.2,405.9394,821.2134,396.293,820.2894,401.8738,814.7085,400.9499,823.2,405.9394" style="stroke:#181818;stroke-width:1;"/><text fill="#000000" font-family="sans-serif" font-size="13" lengthAdjust="spacing" textLength="70.8081" x="505" y="340.1045">commandes</text></g><!--link Email to F1--><g id="link_Email_F1"><path d="M428.59,281.5294 C533.45,296.4194 901.57,348.8494 907,351.6094 C931.81,364.2294 949.4677,384.0687 962.0877,401.0987 " fill="none" id="Email-to-F1" style="stroke:#181818;stroke-width:1;stroke-dasharray:7.0,7.0;"/><polygon fill="#181818" points="965.66,405.9194,963.5153,396.3069,962.6831,401.9022,957.0878,401.07,965.66,405.9194" style="stroke:#181818;stroke-width:1;"/><text fill="#000000" font-family="sans-serif" font-size="13" lengthAdjust="spacing" textLength="70.8081" x="852" y="340.1045">confirmation</text></g><!--link Email to F2--><g id="link_Email_F2"><path d="M428.86,278.2194 C546.67,280.9694 1000.37,293.5794 1055,325.6094 C1085.75,343.6394 1102.5559,377.0771 1111.5559,400.2271 " fill="none" id="Email-to-F2" style="stroke:#181818;stroke-width:1;stroke-dasharray:7.0,7.0;"/><polygon fill="#181818" points="1113.73,405.8194,1114.197,395.9816,1111.9183,401.1592,1106.7407,398.8804,1113.73,405.8194" style="stroke:#181818;stroke-width:1;"/><text fill="#000000" font-family="sans-serif" font-size="13" lengthAdjust="spacing" textLength="70.8081" x="1075" y="340.1045">confirmation</text></g><!--link F1 to Eric--><g id="link_F1_Eric"><path d="M971.51,444.1594 C959.24,478.2694 934.8197,546.2131 922.5397,580.3731 " fill="none" id="F1-to-Eric" style="stroke:#181818;stroke-width:1;stroke-dasharray:7.0,7.0;"/><polygon fill="#181818" points="920.51,586.0194,927.3188,578.9032,922.2015,581.3142,919.7904,576.1968,920.51,586.0194" style="stroke:#181818;stroke-width:1;"/><text fill="#000000" font-family="sans-serif" font-size="13" lengthAdjust="spacing" textLength="47.6836" x="956" y="501.1045">livraison</text></g><!--link F2 to Eric--><g id="link_F2_Eric"><path d="M1095.37,444.2594 C1057.11,472.5094 986.65,524.7994 976,534.6094 C958.39,550.8194 944.2386,566.8814 932.2086,581.4614 " fill="none" id="F2-to-Eric" style="stroke:#181818;stroke-width:1;stroke-dasharray:7.0,7.0;"/><polygon fill="#181818" points="928.39,586.0894,937.2032,581.6931,931.5722,582.2327,931.0325,576.6016,928.39,586.0894" style="stroke:#181818;stroke-width:1;"/><text fill="#000000" font-family="sans-serif" font-size="13" lengthAdjust="spacing" textLength="47.6836" x="1038" y="501.1045">livraison</text></g><!--link F3 to Eric--><g id="link_F3_Eric"><path d="M843.01,444.1594 C858.15,478.2694 888.3761,546.3752 903.5361,580.5352 " fill="none" id="F3-to-Eric" style="stroke:#181818;stroke-width:1;stroke-dasharray:7.0,7.0;"/><polygon fill="#181818" points="905.97,586.0194,905.9754,576.1705,903.9418,581.4492,898.6631,579.4157,905.97,586.0194" style="stroke:#181818;stroke-width:1;"/><text fill="#000000" font-family="sans-serif" font-size="13" lengthAdjust="spacing" textLength="47.6836" x="870" y="501.1045">livraison</text></g><!--link Eric to SageMDE--><g id="link_Eric_SageMDE"><path d="M926.79,624.3194 C938.27,639.5994 956.3,661.1894 976,675.6094 C1025.13,711.5594 1067.25,680.9494 1101,731.6094 C1110.4025,745.7219 1115.4194,762.2756 1117.6397,779.2144 C1117.9172,781.3317 1118.1511,783.4551 1118.3443,785.5804 C1118.4409,786.6431 1118.5274,787.7063 1118.6041,788.7695 C1118.6425,789.3011 1118.6784,789.8326 1118.7119,790.3642 C1118.7287,790.6299 1118.3938,784.906 1118.4094,785.1717 " fill="none" id="Eric-to-SageMDE" style="stroke:#181818;stroke-width:1;"/><polygon fill="#181818" points="1118.7604,791.1614,1122.227,781.9428,1118.4679,786.17,1114.2407,782.4109,1118.7604,791.1614" style="stroke:#181818;stroke-width:1;"/><text fill="#000000" font-family="sans-serif" font-size="13" lengthAdjust="spacing" textLength="53.479" x="1095" y="720.1045">r&#233;ception</text></g><!--link Eric to Excel3--><g id="link_Eric_Excel3"><path d="M924.83,624.1494 C935.64,640.4294 953.81,663.6094 976,675.6094 C991.76,684.1394 1277.19,721.6494 1295,723.6094 C1320.46,726.4094 1387.22,719.8894 1410,731.6094 C1465.09,759.9394 1502.483,818.2125 1521.973,854.5325 " fill="none" id="Eric-to-Excel3" style="stroke:#181818;stroke-width:1;"/><polygon fill="#181818" points="1524.81,859.8194,1524.079,849.9977,1522.4458,855.4136,1517.0298,853.7804,1524.81,859.8194" style="stroke:#181818;stroke-width:1;"/><text fill="#000000" font-family="sans-serif" font-size="13" lengthAdjust="spacing" textLength="30.3418" x="1296" y="720.1045">stock</text></g><!--link Julien to SageMDE--><g id="link_Julien_SageMDE"><path d="M1575.33,129.2794 C1569.56,159.5094 1559,222.0994 1559,275.6094 C1559,275.6094 1559,275.6094 1559,606.1094 C1559,718.5294 1443.63,694.6494 1335,723.6094 C1312.33,729.6494 1141.27,715.7294 1124,731.6094 C1117.7125,737.3894 1113.3688,749.7119 1110.393,765.0066 C1108.9051,772.6539 1107.7592,781.0443 1106.8833,789.7314 C1106.8286,790.2744 1107.3517,784.8463 1107.299,785.3914 " fill="none" id="Julien-to-SageMDE" style="stroke:#181818;stroke-width:1;stroke-dasharray:7.0,7.0;"/><polygon fill="#181818" points="1106.7222,791.3637,1111.5689,782.7899,1107.2029,786.3868,1103.6059,782.0208,1106.7222,791.3637" style="stroke:#181818;stroke-width:1;"/><text fill="#000000" font-family="sans-serif" font-size="13" lengthAdjust="spacing" textLength="69.3799" x="1560" y="430.6045">consultation</text></g><!--link Julien to Excel1--><g id="link_Julien_Excel1"><path d="M1655.84,125.3594 C1733.15,144.6594 1841,187.3894 1841,275.6094 C1841,275.6094 1841,275.6094 1841,606.1094 C1841,699.3694 1841,804.0594 1841,853.9194 " fill="none" id="Julien-to-Excel1" style="stroke:#181818;stroke-width:1;stroke-dasharray:7.0,7.0;"/><polygon fill="#181818" points="1841,859.9194,1845,850.9194,1841,854.9194,1837,850.9194,1841,859.9194" style="stroke:#181818;stroke-width:1;"/><text fill="#000000" font-family="sans-serif" font-size="13" lengthAdjust="spacing" textLength="69.3799" x="1842" y="430.6045">consultation</text></g><!--link Julien to Excel2--><g id="link_Julien_Excel2"><path d="M1584.45,129.3194 C1596.16,169.2094 1623.82,267.4594 1638,351.6094 C1670.58,545.0194 1683.1001,775.6155 1686.6301,853.9955 " fill="none" id="Julien-to-Excel2" style="stroke:#181818;stroke-width:1;stroke-dasharray:7.0,7.0;"/><polygon fill="#181818" points="1686.9,859.9894,1690.491,850.8185,1686.675,854.9944,1682.4991,851.1785,1686.9,859.9894" style="stroke:#181818;stroke-width:1;"/><text fill="#000000" font-family="sans-serif" font-size="13" lengthAdjust="spacing" textLength="69.3799" x="1656" y="430.6045">consultation</text></g><!--link Julien to Excel4--><g id="link_Julien_Excel4"><path d="M1655.75,126.1194 C1772.68,151.2294 1982,205.8994 1982,275.6094 C1982,275.6094 1982,275.6094 1982,606.1094 C1982,699.8294 1967.2705,804.3736 1959.3805,854.0836 " fill="none" id="Julien-to-Excel4" style="stroke:#181818;stroke-width:1;stroke-dasharray:7.0,7.0;"/><polygon fill="#181818" points="1958.44,860.0094,1963.8014,851.7477,1959.2238,855.0712,1955.9003,850.4936,1958.44,860.0094" style="stroke:#181818;stroke-width:1;"/><text fill="#000000" font-family="sans-serif" font-size="13" lengthAdjust="spacing" textLength="69.3799" x="1983" y="430.6045">consultation</text></g><!--link Julien to Tel--><g id="link_Julien_Tel"><path d="M1552.67,129.2594 C1534.47,140.9294 1509.25,155.3794 1485,163.6094 C1469.69,168.7994 1213.12,204.3594 1197,205.6094 C1173.71,207.4094 378.02,205.8094 356,213.6094 C331.22,222.3894 312.5415,238.2867 298.0615,253.2567 " fill="none" id="Julien-to-Tel" style="stroke:#181818;stroke-width:1;stroke-dasharray:7.0,7.0;"/><polygon fill="#181818" points="293.89,257.5694,303.0223,253.8814,297.3662,253.9755,297.2721,248.3194,293.89,257.5694" style="stroke:#181818;stroke-width:1;"/><text fill="#000000" font-family="sans-serif" font-size="13" lengthAdjust="spacing" textLength="87.458" x="1439" y="194.1045">appels &#233;quipes</text></g><!--link GMN48 to GMN77--><g id="link_GMN48_GMN77"><path d="M680,454.7094 C680,476.2294 680,506.6794 680,534.4694 " fill="none" id="GMN48-GMN77" style="stroke:#181818;stroke-width:1;stroke-dasharray:7.0,7.0;"/></g><!--SRC=[XLPBRzj64BxpLmnY5B5Lo94eMx4DD80UPEB2YWLJHGzr3sjg9Msp8XdkqhLH1EYXX-PG57sSUcXwQgrx3Ztqnd-IFz3yXCu-H96ob4eNQURRsPblNYkPv1HwyJo98nf9w3CoJSaSwj19mncJD9HPIY6u5JA_crFez4QVUMUE8rwmA24A6IxF1l8MJQLuWaHJJXqd8U4BCgNme3SZaMGq5R1x20ADYhq7iEFxte7NX6ySW2zwCpg19GoQNm8HC21fs5ImRhlNl0zo2v2x7TGgGAq2XAWebkWfcyuan1Dp4Ke1th_vzIqCySJu8Gd3_0v_i2cJX5ljBzz1Duu492HHrhE8lSpe76DVwd-7KRxW-IAP8ILLFOt6-bxdLOcPBf9BCWXOVZUbo8dNzbk-RpXvIeLaSHGHXWdeX3CYXOuckENNZC9Efzy_yjeAUK45fa2GA-I_Cvce0mRwQSOPZLJa_Kxt-7xanfHr_gV5ksz_UF_cvt_AucVP5OGOG4eux4xZZCToRrimVOmxVojL64V-eNTimXYGAH4iGhwqIrxAGjWvFlAxnqVt7LBQ9PT_GlvwzHSJqmH1Cmx37YHnXhc514iA2Q9YcqT5sPxHAGblTT7ryACz6nD9heXGC0KUzBtBQFTp5etZhmMuZQQBHQheHYNgrD5sjztLHrLOyJZZHLugia36uOkg21jiJg8nrSXN6n9XBj5dtltsnxz__mYrsdatE3_BlnzvjPfMr6rfTeQdzlzf96aw8I7LNSZf3RMAFjAIBwW0T2-MgWg5rJHTIFF5n53OX2H51zdM-lGP3W7LkDvDIB42iB5Ysxp-iTSs6TQwoyX7Yn4JcAFKL9-MwmxkFsuqIiWWOzUin4a1TZU15PjWQsi5RMs03bDsiq8S58WbtLUnbF5SrvbsRLLQjLfmUdOU0EQvV_xyUVxQ2mhI-t5snR6z2ix3U9OlKXg51QawBnJ4RHHkOr95Y_CW9Agd5O4DzJK4bcR6es0Gw116I7SvmZbXtCIcVYdHK0yXBSEVE8viXMu85usLskYmxZQ090dbuj5Nc3IjiY5We-T_aIl6cSmNQx64FCx6M1EbFED0Rtoiwi5hgAy9fmI0ZlRFRwxBkqRkhijxHjvIyltzVJXu32IJotdc7znl7V_UwFRwf-kYPSle4TriD3u2kU9yBSo7S46vJfCe5ebmp3RQtt-YCtDY-NFC_jaeRcqM6oCcOoUOesAThDrShXT7ML77xEm_0Hbd0ZWskB5yYSiO2SG5ZaiPACVrQswe7BA3d0bZj7AV1UsM1lwUOuNr-fDY39w084pWTYZfRADlLRcRLQgGbLTnD67ftFXazUlCmQHKT5N7o-LOyEGtjM4xO5PYTxEuLH4RnqfcIlwLTEwwhkBM6RjECMGrDtoJShtvJe0l5OxlRf6tDiihzirkr9XgUd2wXpGnpYwrTc9Y5jGmhHeoRmJ7FXLqlHIsC3oHSMd2Ao6AX7yGuFuVuE03W4hsyyNBZ2MO6gSqsB1jQxNXnNaNT-J02w1pqNjsElBmWNfXDgRk_quMPlWKOn4sFBvirJKufyspO8cnHVS9c0SEpejyWGsWNh7syQPXnLB5kK7IX76k_-ss8Suaus9l2HnWG2nHtPdIkYbyuLHVbna6WCxOJYphA5pZ0Jk1GT9v8bHEzGJNg179Rj05JgzHFwQhmiKWzJCWlyCNjbECjFy0]--></g></svg>