<svg xmlns="http://www.w3.org/2000/svg" xmlns:xlink="http://www.w3.org/1999/xlink" contentStyleType="text/css" height="570px" preserveAspectRatio="none" style="width:436px;height:570px;background:#FFFFFF;" version="1.1" viewBox="0 0 436 570" width="436px" zoomAndPan="magnify"><title>Gantt - Comparaison Processus ACTUEL vs CIBLE</title><defs/><g><text fill="#000000" font-family="sans-serif" font-size="14" font-weight="bold" lengthAdjust="spacing" textLength="339.1787" x="10" y="24.5332">Gantt - Comparaison Processus ACTUEL vs CIBLE</text><rect fill="#D3D3D3" height="39" style="stroke:none;stroke-width:1;" width="128" x="116.0894" y="38.6094"/><rect fill="#D3D3D3" height="40" style="stroke:none;stroke-width:1;" width="128" x="116.0894" y="527.5469"/><text fill="#000000" font-family="sans-serif" font-size="10" lengthAdjust="spacing" textLength="13.8916" x="117.1436" y="62.9902">Mo</text><text fill="#000000" font-family="sans-serif" font-size="10" lengthAdjust="spacing" textLength="11.6699" x="134.2544" y="62.9902">Tu</text><text fill="#000000" font-family="sans-serif" font-size="10" lengthAdjust="spacing" textLength="15" x="148.5894" y="62.9902">We</text><text fill="#000000" font-family="sans-serif" font-size="10" lengthAdjust="spacing" textLength="11.6699" x="166.2544" y="62.9902">Th</text><text fill="#000000" font-family="sans-serif" font-size="10" lengthAdjust="spacing" textLength="9.4385" x="183.3701" y="62.9902">Fr</text><text fill="#000000" font-family="sans-serif" font-size="10" lengthAdjust="spacing" textLength="12.2314" x="197.9736" y="62.9902">Sa</text><text fill="#000000" font-family="sans-serif" font-size="10" lengthAdjust="spacing" textLength="12.2314" x="213.9736" y="62.9902">Su</text><text fill="#000000" font-family="sans-serif" font-size="10" lengthAdjust="spacing" textLength="13.8916" x="229.1436" y="62.9902">Mo</text><text fill="#000000" font-family="sans-serif" font-size="10" lengthAdjust="spacing" textLength="5.5615" x="121.3086" y="74.9902">8</text><text fill="#000000" font-family="sans-serif" font-size="10" lengthAdjust="spacing" textLength="5.5615" x="137.3086" y="74.9902">9</text><text fill="#000000" font-family="sans-serif" font-size="10" lengthAdjust="spacing" textLength="11.123" x="150.5278" y="74.9902">10</text><text fill="#000000" font-family="sans-serif" font-size="10" lengthAdjust="spacing" textLength="11.123" x="166.5278" y="74.9902">11</text><text fill="#000000" font-family="sans-serif" font-size="10" lengthAdjust="spacing" textLength="11.123" x="182.5278" y="74.9902">12</text><text fill="#000000" font-family="sans-serif" font-size="10" lengthAdjust="spacing" textLength="11.123" x="198.5278" y="74.9902">13</text><text fill="#000000" font-family="sans-serif" font-size="10" lengthAdjust="spacing" textLength="11.123" x="214.5278" y="74.9902">14</text><text fill="#000000" font-family="sans-serif" font-size="10" lengthAdjust="spacing" textLength="11.123" x="230.5278" y="74.9902">15</text><text fill="#000000" font-family="sans-serif" font-size="12" font-weight="bold" lengthAdjust="spacing" textLength="76.0547" x="142.062" y="51.0664">January 2024</text><line style="stroke:#C0C0C0;stroke-width:1;" x1="116.0894" x2="116.0894" y1="77.6094" y2="527.5469"/><line style="stroke:#C0C0C0;stroke-width:1;" x1="132.0894" x2="132.0894" y1="77.6094" y2="527.5469"/><line style="stroke:#C0C0C0;stroke-width:1;" x1="148.0894" x2="148.0894" y1="77.6094" y2="527.5469"/><line style="stroke:#C0C0C0;stroke-width:1;" x1="164.0894" x2="164.0894" y1="77.6094" y2="527.5469"/><line style="stroke:#C0C0C0;stroke-width:1;" x1="180.0894" x2="180.0894" y1="77.6094" y2="527.5469"/><line style="stroke:#C0C0C0;stroke-width:1;" x1="196.0894" x2="196.0894" y1="77.6094" y2="527.5469"/><line style="stroke:#C0C0C0;stroke-width:1;" x1="212.0894" x2="212.0894" y1="77.6094" y2="527.5469"/><line style="stroke:#C0C0C0;stroke-width:1;" x1="228.0894" x2="228.0894" y1="77.6094" y2="527.5469"/><line style="stroke:#C0C0C0;stroke-width:1;" x1="244.0894" x2="244.0894" y1="77.6094" y2="527.5469"/><line style="stroke:#C0C0C0;stroke-width:1;" x1="116.0894" x2="244.0894" y1="77.6094" y2="77.6094"/><line style="stroke:#C0C0C0;stroke-width:1;" x1="116.0894" x2="244.0894" y1="527.5469" y2="527.5469"/><line style="stroke:#181818;stroke-width:1.5;" x1="115.0894" x2="107.0894" y1="138.1992" y2="138.1992"/><line style="stroke:#181818;stroke-width:1.5;" x1="107.0894" x2="107.0894" y1="138.1992" y2="156.0352"/><line style="stroke:#181818;stroke-width:1.5;" x1="107.0894" x2="115.0894" y1="156.0352" y2="156.0352"/><polygon fill="#181818" points="111.0894,152.0352,111.0894,156.0352,111.0894,160.0352,115.0894,156.0352" style="stroke:#181818;stroke-width:1.5;"/><line style="stroke:#181818;stroke-width:1.5;" x1="115.0894" x2="107.0894" y1="138.1992" y2="138.1992"/><line style="stroke:#181818;stroke-width:1.5;" x1="107.0894" x2="107.0894" y1="138.1992" y2="173.8711"/><line style="stroke:#181818;stroke-width:1.5;" x1="107.0894" x2="115.0894" y1="173.8711" y2="173.8711"/><polygon fill="#181818" points="111.0894,169.8711,111.0894,173.8711,111.0894,177.8711,115.0894,173.8711" style="stroke:#181818;stroke-width:1.5;"/><line style="stroke:#181818;stroke-width:1.5;" x1="123.0894" x2="123.0894" y1="145.1172" y2="225.543"/><line style="stroke:#181818;stroke-width:1.5;" x1="123.0894" x2="131.0894" y1="225.543" y2="225.543"/><polygon fill="#181818" points="127.0894,221.543,127.0894,225.543,127.0894,229.543,131.0894,225.543" style="stroke:#181818;stroke-width:1.5;"/><line style="stroke:#181818;stroke-width:1.5;" x1="131.0894" x2="123.0894" y1="225.543" y2="225.543"/><line style="stroke:#181818;stroke-width:1.5;" x1="123.0894" x2="123.0894" y1="225.543" y2="243.3789"/><line style="stroke:#181818;stroke-width:1.5;" x1="123.0894" x2="131.0894" y1="243.3789" y2="243.3789"/><polygon fill="#181818" points="127.0894,239.3789,127.0894,243.3789,127.0894,247.3789,131.0894,243.3789" style="stroke:#181818;stroke-width:1.5;"/><line style="stroke:#181818;stroke-width:1.5;" x1="139.0894" x2="139.0894" y1="232.4609" y2="295.0508"/><line style="stroke:#181818;stroke-width:1.5;" x1="139.0894" x2="147.0894" y1="295.0508" y2="295.0508"/><polygon fill="#181818" points="143.0894,291.0508,143.0894,295.0508,143.0894,299.0508,147.0894,295.0508" style="stroke:#181818;stroke-width:1.5;"/><line style="stroke:#181818;stroke-width:1.5;" x1="147.0894" x2="139.0894" y1="295.0508" y2="295.0508"/><line style="stroke:#181818;stroke-width:1.5;" x1="139.0894" x2="139.0894" y1="295.0508" y2="312.8867"/><line style="stroke:#181818;stroke-width:1.5;" x1="139.0894" x2="147.0894" y1="312.8867" y2="312.8867"/><polygon fill="#181818" points="143.0894,308.8867,143.0894,312.8867,143.0894,316.8867,147.0894,312.8867" style="stroke:#181818;stroke-width:1.5;"/><line style="stroke:#181818;stroke-width:1.5;" x1="155.0894" x2="155.0894" y1="301.9688" y2="330.7227"/><line style="stroke:#181818;stroke-width:1.5;" x1="155.0894" x2="163.0894" y1="330.7227" y2="330.7227"/><polygon fill="#181818" points="159.0894,326.7227,159.0894,330.7227,159.0894,334.7227,163.0894,330.7227" style="stroke:#181818;stroke-width:1.5;"/><line style="stroke:#181818;stroke-width:1.5;" x1="227.0894" x2="219.0894" y1="382.3945" y2="382.3945"/><line style="stroke:#181818;stroke-width:1.5;" x1="219.0894" x2="219.0894" y1="382.3945" y2="400.2305"/><line style="stroke:#181818;stroke-width:1.5;" x1="219.0894" x2="227.0894" y1="400.2305" y2="400.2305"/><polygon fill="#181818" points="223.0894,396.2305,223.0894,400.2305,223.0894,404.2305,227.0894,400.2305" style="stroke:#181818;stroke-width:1.5;"/><line style="stroke:#181818;stroke-width:1.5;" x1="235.0894" x2="235.0894" y1="407.1484" y2="418.0664"/><line style="stroke:#181818;stroke-width:1.5;" x1="235.0894" x2="243.0894" y1="418.0664" y2="418.0664"/><polygon fill="#181818" points="239.0894,414.0664,239.0894,418.0664,239.0894,422.0664,243.0894,418.0664" style="stroke:#181818;stroke-width:1.5;"/><rect fill="#FF0000" height="13.8359" style="stroke:none;stroke-width:1;" width="44" x="118.0894" y="79.6094"/><line style="stroke:#FF0000;stroke-width:1;" x1="118.0894" x2="162.0894" y1="79.6094" y2="79.6094"/><line style="stroke:#FF0000;stroke-width:1;" x1="118.0894" x2="162.0894" y1="93.4453" y2="93.4453"/><line style="stroke:#FF0000;stroke-width:1;" x1="118.0894" x2="118.0894" y1="79.6094" y2="93.4453"/><line style="stroke:#FF0000;stroke-width:1;" x1="162.0894" x2="162.0894" y1="79.6094" y2="93.4453"/><line style="stroke:#181818;stroke-width:1;" x1="116.0894" x2="121.0894" y1="112.3633" y2="112.3633"/><line style="stroke:#181818;stroke-width:1;" x1="235.6323" x2="243.0894" y1="112.3633" y2="112.3633"/><rect fill="#FFB6C1" height="13.8359" style="stroke:none;stroke-width:1;" width="12" x="118.0894" y="131.2813"/><line style="stroke:#FFB6C1;stroke-width:1;" x1="118.0894" x2="130.0894" y1="131.2813" y2="131.2813"/><line style="stroke:#FFB6C1;stroke-width:1;" x1="118.0894" x2="130.0894" y1="145.1172" y2="145.1172"/><line style="stroke:#FFB6C1;stroke-width:1;" x1="118.0894" x2="118.0894" y1="131.2813" y2="145.1172"/><line style="stroke:#FFB6C1;stroke-width:1;" x1="130.0894" x2="130.0894" y1="131.2813" y2="145.1172"/><rect fill="#FF0000" height="13.8359" style="stroke:none;stroke-width:1;" width="12" x="118.0894" y="149.1172"/><line style="stroke:#FF0000;stroke-width:1;" x1="118.0894" x2="130.0894" y1="149.1172" y2="149.1172"/><line style="stroke:#FF0000;stroke-width:1;" x1="118.0894" x2="130.0894" y1="162.9531" y2="162.9531"/><line style="stroke:#FF0000;stroke-width:1;" x1="118.0894" x2="118.0894" y1="149.1172" y2="162.9531"/><line style="stroke:#FF0000;stroke-width:1;" x1="130.0894" x2="130.0894" y1="149.1172" y2="162.9531"/><rect fill="#FFA500" height="13.8359" style="stroke:none;stroke-width:1;" width="12" x="118.0894" y="166.9531"/><line style="stroke:#FFA500;stroke-width:1;" x1="118.0894" x2="130.0894" y1="166.9531" y2="166.9531"/><line style="stroke:#FFA500;stroke-width:1;" x1="118.0894" x2="130.0894" y1="180.7891" y2="180.7891"/><line style="stroke:#FFA500;stroke-width:1;" x1="118.0894" x2="118.0894" y1="166.9531" y2="180.7891"/><line style="stroke:#FFA500;stroke-width:1;" x1="130.0894" x2="130.0894" y1="166.9531" y2="180.7891"/><line style="stroke:#181818;stroke-width:1;" x1="116.0894" x2="121.0894" y1="199.707" y2="199.707"/><line style="stroke:#181818;stroke-width:1;" x1="198.9424" x2="243.0894" y1="199.707" y2="199.707"/><rect fill="#FF0000" height="13.8359" style="stroke:none;stroke-width:1;" width="12" x="134.0894" y="218.625"/><line style="stroke:#FF0000;stroke-width:1;" x1="134.0894" x2="146.0894" y1="218.625" y2="218.625"/><line style="stroke:#FF0000;stroke-width:1;" x1="134.0894" x2="146.0894" y1="232.4609" y2="232.4609"/><line style="stroke:#FF0000;stroke-width:1;" x1="134.0894" x2="134.0894" y1="218.625" y2="232.4609"/><line style="stroke:#FF0000;stroke-width:1;" x1="146.0894" x2="146.0894" y1="218.625" y2="232.4609"/><rect fill="#FF0000" height="13.8359" style="stroke:none;stroke-width:1;" width="12" x="134.0894" y="236.4609"/><line style="stroke:#FF0000;stroke-width:1;" x1="134.0894" x2="146.0894" y1="236.4609" y2="236.4609"/><line style="stroke:#FF0000;stroke-width:1;" x1="134.0894" x2="146.0894" y1="250.2969" y2="250.2969"/><line style="stroke:#FF0000;stroke-width:1;" x1="134.0894" x2="134.0894" y1="236.4609" y2="250.2969"/><line style="stroke:#FF0000;stroke-width:1;" x1="146.0894" x2="146.0894" y1="236.4609" y2="250.2969"/><line style="stroke:#181818;stroke-width:1;" x1="116.0894" x2="121.0894" y1="269.2148" y2="269.2148"/><line style="stroke:#181818;stroke-width:1;" x1="214.2231" x2="243.0894" y1="269.2148" y2="269.2148"/><rect fill="#90EE90" height="13.8359" style="stroke:none;stroke-width:1;" width="12" x="150.0894" y="288.1328"/><line style="stroke:#90EE90;stroke-width:1;" x1="150.0894" x2="162.0894" y1="288.1328" y2="288.1328"/><line style="stroke:#90EE90;stroke-width:1;" x1="150.0894" x2="162.0894" y1="301.9688" y2="301.9688"/><line style="stroke:#90EE90;stroke-width:1;" x1="150.0894" x2="150.0894" y1="288.1328" y2="301.9688"/><line style="stroke:#90EE90;stroke-width:1;" x1="162.0894" x2="162.0894" y1="288.1328" y2="301.9688"/><rect fill="#FFB6C1" height="13.8359" style="stroke:none;stroke-width:1;" width="12" x="150.0894" y="305.9688"/><line style="stroke:#FFB6C1;stroke-width:1;" x1="150.0894" x2="162.0894" y1="305.9688" y2="305.9688"/><line style="stroke:#FFB6C1;stroke-width:1;" x1="150.0894" x2="162.0894" y1="319.8047" y2="319.8047"/><line style="stroke:#FFB6C1;stroke-width:1;" x1="150.0894" x2="150.0894" y1="305.9688" y2="319.8047"/><line style="stroke:#FFB6C1;stroke-width:1;" x1="162.0894" x2="162.0894" y1="305.9688" y2="319.8047"/><rect fill="#FF0000" height="13.8359" style="stroke:none;stroke-width:1;" width="1" x="166.0894" y="323.8047"/><line style="stroke:#FF0000;stroke-width:1;" x1="166.0894" x2="167.0894" y1="323.8047" y2="323.8047"/><line style="stroke:#FF0000;stroke-width:1;" x1="166.0894" x2="167.0894" y1="337.6406" y2="337.6406"/><line style="stroke:#FF0000;stroke-width:1;" x1="166.0894" x2="166.0894" y1="323.8047" y2="337.6406"/><line style="stroke:#FF0000;stroke-width:1;" x1="167.0894" x2="167.0894" y1="323.8047" y2="337.6406"/><line style="stroke:#181818;stroke-width:1;" x1="116.0894" x2="121.0894" y1="356.5586" y2="356.5586"/><line style="stroke:#181818;stroke-width:1;" x1="235.0093" x2="243.0894" y1="356.5586" y2="356.5586"/><rect fill="#008000" height="13.8359" style="stroke:none;stroke-width:1;" width="12" x="230.0894" y="375.4766"/><line style="stroke:#008000;stroke-width:1;" x1="230.0894" x2="242.0894" y1="375.4766" y2="375.4766"/><line style="stroke:#008000;stroke-width:1;" x1="230.0894" x2="242.0894" y1="389.3125" y2="389.3125"/><line style="stroke:#008000;stroke-width:1;" x1="230.0894" x2="230.0894" y1="375.4766" y2="389.3125"/><line style="stroke:#008000;stroke-width:1;" x1="242.0894" x2="242.0894" y1="375.4766" y2="389.3125"/><rect fill="#90EE90" height="13.8359" style="stroke:none;stroke-width:1;" width="12" x="230.0894" y="393.3125"/><line style="stroke:#90EE90;stroke-width:1;" x1="230.0894" x2="242.0894" y1="393.3125" y2="393.3125"/><line style="stroke:#90EE90;stroke-width:1;" x1="230.0894" x2="242.0894" y1="407.1484" y2="407.1484"/><line style="stroke:#90EE90;stroke-width:1;" x1="230.0894" x2="230.0894" y1="393.3125" y2="407.1484"/><line style="stroke:#90EE90;stroke-width:1;" x1="242.0894" x2="242.0894" y1="393.3125" y2="407.1484"/><path d="M244.0894,426.9844 L244.0894,527.5469 L434.9116,527.5469 L434.9116,436.9844 L424.9116,426.9844 L244.0894,426.9844 " fill="#FEFFDD" style="stroke:#181818;stroke-width:0.5;"/><path d="M424.9116,426.9844 L424.9116,436.9844 L434.9116,436.9844 L424.9116,426.9844 " fill="#FEFFDD" style="stroke:#181818;stroke-width:0.5;"/><text fill="#000000" font-family="sans-serif" font-size="9" font-weight="bold" lengthAdjust="spacing" textLength="68.502" x="250.0894" y="441.3271">COMPARAISON</text><text fill="#000000" font-family="sans-serif" font-size="9" lengthAdjust="spacing" textLength="49.5088" x="250.0894" y="452.6475">&#9200; ACTUEL:</text><text fill="#000000" font-family="sans-serif" font-size="9" font-weight="bold" lengthAdjust="spacing" textLength="29.5093" x="302.0986" y="452.6475">3 jours</text><text fill="#000000" font-family="sans-serif" font-size="9" lengthAdjust="spacing" textLength="80.2617" x="334.1084" y="452.6475">(taux d'&#233;chec &#233;lev&#233;)</text><text fill="#000000" font-family="sans-serif" font-size="9" lengthAdjust="spacing" textLength="40.0122" x="250.0894" y="463.9678">&#9200; CIBLE:</text><text fill="#000000" font-family="sans-serif" font-size="9" font-weight="bold" lengthAdjust="spacing" textLength="32.2603" x="292.6021" y="463.9678">&lt; 1 jour</text><text fill="#000000" font-family="sans-serif" font-size="9" lengthAdjust="spacing" textLength="66.5244" x="327.3628" y="463.9678">(livraison rapide)</text><text fill="#000000" font-family="sans-serif" font-size="9" lengthAdjust="spacing" textLength="2.5005" x="250.0894" y="475.2881">&#160;</text><text fill="#000000" font-family="sans-serif" font-size="9" lengthAdjust="spacing" textLength="82.0107" x="250.0894" y="486.6084">&#128202; AM&#201;LIORATION:</text><text fill="#000000" font-family="sans-serif" font-size="9" lengthAdjust="spacing" textLength="98.5342" x="250.0894" y="497.9287">- Temps fortement r&#233;duit</text><text fill="#000000" font-family="sans-serif" font-size="9" lengthAdjust="spacing" textLength="100.0371" x="250.0894" y="509.249">- Process digital optimis&#233;</text><text fill="#000000" font-family="sans-serif" font-size="9" lengthAdjust="spacing" textLength="169.8223" x="250.0894" y="520.5693">- Taux succ&#232;s: Insuffisant &#8594; Tr&#232;s am&#233;lior&#233;</text><rect fill="#008000" height="13.8359" style="stroke:none;stroke-width:1;" width="1" x="246.0894" y="411.1484"/><line style="stroke:#008000;stroke-width:1;" x1="246.0894" x2="247.0894" y1="411.1484" y2="411.1484"/><line style="stroke:#008000;stroke-width:1;" x1="246.0894" x2="247.0894" y1="424.9844" y2="424.9844"/><line style="stroke:#008000;stroke-width:1;" x1="246.0894" x2="246.0894" y1="411.1484" y2="424.9844"/><line style="stroke:#008000;stroke-width:1;" x1="247.0894" x2="247.0894" y1="411.1484" y2="424.9844"/><text fill="#000000" font-family="sans-serif" font-size="11" lengthAdjust="spacing" textLength="172.3638" x="166.0894" y="91.0283">PROCESSUS ACTUEL (3 JOURS)</text><text fill="#000000" font-family="sans-serif" font-size="11" lengthAdjust="spacing" textLength="104.543" x="126.0894" y="116.8643">Jour 1 - Lundi (Matin)</text><text fill="#000000" font-family="sans-serif" font-size="11" lengthAdjust="spacing" textLength="132.3706" x="134.0894" y="142.7002">Marc: Besoin &#8594; Bon rempli</text><text fill="#000000" font-family="sans-serif" font-size="11" lengthAdjust="spacing" textLength="132.0483" x="134.0894" y="160.5361">Marc: Essaie joindre Sylvie</text><text fill="#000000" font-family="sans-serif" font-size="11" lengthAdjust="spacing" textLength="121.043" x="134.0894" y="178.3721">Sylvie: Traite commande</text><text fill="#000000" font-family="sans-serif" font-size="11" lengthAdjust="spacing" textLength="67.853" x="126.0894" y="204.208">Jour 2 - Mardi</text><text fill="#000000" font-family="sans-serif" font-size="11" lengthAdjust="spacing" textLength="134.1592" x="150.0894" y="230.0439">&#9208;&#65039; ATTENTE LIVRAISON</text><text fill="#000000" font-family="sans-serif" font-size="11" lengthAdjust="spacing" textLength="91.7222" x="150.0894" y="247.8799">&#9940; Chantier bloqu&#233;</text><text fill="#000000" font-family="sans-serif" font-size="11" lengthAdjust="spacing" textLength="83.1338" x="126.0894" y="273.7158">Jour 3 - Mercredi</text><text fill="#000000" font-family="sans-serif" font-size="11" lengthAdjust="spacing" textLength="117.0845" x="166.0894" y="299.5518">&#201;ric: R&#233;ception + Saisie</text><text fill="#000000" font-family="sans-serif" font-size="11" lengthAdjust="spacing" textLength="108.8345" x="166.0894" y="317.3877">Marc: R&#233;cup&#232;re d&#233;p&#244;t</text><text fill="#000000" font-family="sans-serif" font-size="11" lengthAdjust="spacing" textLength="138.1392" x="166.0894" y="335.2236">&#10060; ERREUR - Recommence</text><text fill="#000000" font-family="sans-serif" font-size="11" lengthAdjust="spacing" textLength="103.9199" x="126.0894" y="361.0596">PROCESSUS CIBLE</text><text fill="#000000" font-family="sans-serif" font-size="11" lengthAdjust="spacing" textLength="103.9199" x="246.0894" y="386.8955">PROCESSUS CIBLE</text><text fill="#000000" font-family="sans-serif" font-size="11" lengthAdjust="spacing" textLength="182.499" x="246.0894" y="404.7314">Marc: Commande mobile &#8594; Livraison</text><text fill="#000000" font-family="sans-serif" font-size="11" lengthAdjust="spacing" textLength="50.1284" x="246.0894" y="422.5674">&#9989; Succ&#232;s</text><text fill="#000000" font-family="sans-serif" font-size="10" lengthAdjust="spacing" textLength="13.8916" x="117.1436" y="537.9277">Mo</text><text fill="#000000" font-family="sans-serif" font-size="10" lengthAdjust="spacing" textLength="11.6699" x="134.2544" y="537.9277">Tu</text><text fill="#000000" font-family="sans-serif" font-size="10" lengthAdjust="spacing" textLength="15" x="148.5894" y="537.9277">We</text><text fill="#000000" font-family="sans-serif" font-size="10" lengthAdjust="spacing" textLength="11.6699" x="166.2544" y="537.9277">Th</text><text fill="#000000" font-family="sans-serif" font-size="10" lengthAdjust="spacing" textLength="9.4385" x="183.3701" y="537.9277">Fr</text><text fill="#000000" font-family="sans-serif" font-size="10" lengthAdjust="spacing" textLength="12.2314" x="197.9736" y="537.9277">Sa</text><text fill="#000000" font-family="sans-serif" font-size="10" lengthAdjust="spacing" textLength="12.2314" x="213.9736" y="537.9277">Su</text><text fill="#000000" font-family="sans-serif" font-size="10" lengthAdjust="spacing" textLength="13.8916" x="229.1436" y="537.9277">Mo</text><text fill="#000000" font-family="sans-serif" font-size="10" lengthAdjust="spacing" textLength="5.5615" x="121.3086" y="551.9277">8</text><text fill="#000000" font-family="sans-serif" font-size="10" lengthAdjust="spacing" textLength="5.5615" x="137.3086" y="551.9277">9</text><text fill="#000000" font-family="sans-serif" font-size="10" lengthAdjust="spacing" textLength="11.123" x="150.5278" y="551.9277">10</text><text fill="#000000" font-family="sans-serif" font-size="10" lengthAdjust="spacing" textLength="11.123" x="166.5278" y="551.9277">11</text><text fill="#000000" font-family="sans-serif" font-size="10" lengthAdjust="spacing" textLength="11.123" x="182.5278" y="551.9277">12</text><text fill="#000000" font-family="sans-serif" font-size="10" lengthAdjust="spacing" textLength="11.123" x="198.5278" y="551.9277">13</text><text fill="#000000" font-family="sans-serif" font-size="10" lengthAdjust="spacing" textLength="11.123" x="214.5278" y="551.9277">14</text><text fill="#000000" font-family="sans-serif" font-size="10" lengthAdjust="spacing" textLength="11.123" x="230.5278" y="551.9277">15</text><text fill="#000000" font-family="sans-serif" font-size="12" font-weight="bold" lengthAdjust="spacing" textLength="76.0547" x="142.062" y="567.0039">January 2024</text><!--SRC=[fLNDRjj64BxlKymjaWgcrazSWJ2AI0pjof0iWQHyCG9ZHQxaJKYkkhiKAXGvja2A0WRQtjgYr-ZMGm-vyqtq0kqZT9O_ST3OIe1UfENip7pxVJip-rHfAlMAfbh3cVczTaIoff9o9TBhGQWp5byxV14pGZJNCIkzm8Bt_60cHSYKoXGCd63kZc6Zm1aDnouXQybJhKAAaH7byPQG4wMtCVkI5A3FE5r9ci2t143pXCKyPSK7m926BrTIP6daY5X8YFdgHgFp5dTVaLVavFCg4K7u5opKK71Hq3dgzAoZjdNK9-HgvaqTr_VdVdsqHXVEftFFRpu7gk2gj3w7c2eCxU8Xjmfe6W5N41fSXiiKF1OHObbmBZ89RQG_ndDnQ4oevcaJB8jSJQWCRHWo9T1___rFC4Hb94lMCQ-WsZLCsy3SWp8s56SyVLbdSvMYdC4BJ1b91lustd1MPUjycAqIWEe2x94g3G_GkIgpsH3WBMg6sqc2ddNwxlz8FvKqNR4xmJee6192mOnG-zktVx-zXK4Gk1U12-FHfJSO-TEB2hZt2S0CZG-msl_w2pWtM5kSILZ4ukiitrMPdnpEtFkOOk_uT0qV9aFSAodbhoN7w_BoNSZMckF5VmO-ziQxoph-1EZxIHKrSIOPI-kYC2ZPEd-31H7bktN-bwv0lZWCSdo8ttkbj__zHt0zpvrxIDDZfYvO6jPC-ZN8qLslV83oyFqO3UzwiXWIXOB_iPLWrV9XKdMhjv_S0rUALglcLEKDYLXmd4QcGyTyKqwm2gvzKC3oD1_JiBgg_M_VWP-5OVv6LSaxXuLp3XHsnIGLsAOBeRL8S0QsMivqCXkKlTDgeML_-sSrvMpSxUBOoAHgjQ2XQVODH8-mRcvO2FakPfjyrwmY2becu0Hfcn0J4TVAWAHh7h4cGUz__lZv1nXCyjVZqTGR1AFfXOrM2m8SSWgMGcg6bQ91vhieuxhOgvu6YFYAQng3mFP8kCftPQGvc2fbic6Kgcovv0gRjxYUGA8PQ887vWAJ4gEE4O6GfxWi7X2S_Z7-poVuw32fJEkr7vkoUDnld4eE5s83M1tjljthsRrZSDoWg9ecQPpDng2GRuXzn9MMV96PrcsISxgXu6MfUP1iC5-DOD84twsDuAORBaLgs9Bpoqdf15y9xQ-5BfoFUzQGQ_2Pn6F1vOGyOqkQnHf3Gn7nT6N3F3Yr-cICepAZAmHQIkBWSwVbrePJxry0]--></g></svg>