<svg xmlns="http://www.w3.org/2000/svg" xmlns:xlink="http://www.w3.org/1999/xlink" contentStyleType="text/css" height="598px" preserveAspectRatio="none" style="width:439px;height:598px;background:#FFFFFF;" version="1.1" viewBox="0 0 439 598" width="439px" zoomAndPan="magnify"><title>Gantt - Comparaison Processus ACTUEL vs CIBLE</title><defs/><g><text fill="#000000" font-family="sans-serif" font-size="14" font-weight="bold" lengthAdjust="spacing" textLength="335.6627" x="10" y="24.9659">Gantt - Comparaison Processus ACTUEL vs CIBLE</text><rect fill="#D3D3D3" height="39" style="stroke:none;stroke-width:1;" width="128" x="114.3314" y="40.0679"/><rect fill="#D3D3D3" height="40" style="stroke:none;stroke-width:1;" width="128" x="114.3314" y="554.8428"/><text fill="#000000" font-family="sans-serif" font-size="10" lengthAdjust="spacing" textLength="15.12" x="114.7714" y="64.7579">Mo</text><text fill="#000000" font-family="sans-serif" font-size="10" lengthAdjust="spacing" textLength="11.74" x="132.4614" y="64.7579">Tu</text><text fill="#000000" font-family="sans-serif" font-size="10" lengthAdjust="spacing" textLength="14.94" x="146.8614" y="64.7579">We</text><text fill="#000000" font-family="sans-serif" font-size="10" lengthAdjust="spacing" textLength="11.74" x="164.4614" y="64.7579">Th</text><text fill="#000000" font-family="sans-serif" font-size="10" lengthAdjust="spacing" textLength="9.32" x="181.6714" y="64.7579">Fr</text><text fill="#000000" font-family="sans-serif" font-size="10" lengthAdjust="spacing" textLength="11.1" x="196.7814" y="64.7579">Sa</text><text fill="#000000" font-family="sans-serif" font-size="10" lengthAdjust="spacing" textLength="11.67" x="212.4964" y="64.7579">Su</text><text fill="#000000" font-family="sans-serif" font-size="10" lengthAdjust="spacing" textLength="15.12" x="226.7714" y="64.7579">Mo</text><text fill="#000000" font-family="sans-serif" font-size="10" lengthAdjust="spacing" textLength="5.72" x="119.4714" y="76.7579">8</text><text fill="#000000" font-family="sans-serif" font-size="10" lengthAdjust="spacing" textLength="5.72" x="135.4714" y="76.7579">9</text><text fill="#000000" font-family="sans-serif" font-size="10" lengthAdjust="spacing" textLength="11.44" x="148.6114" y="76.7579">10</text><text fill="#000000" font-family="sans-serif" font-size="10" lengthAdjust="spacing" textLength="11.44" x="164.6114" y="76.7579">11</text><text fill="#000000" font-family="sans-serif" font-size="10" lengthAdjust="spacing" textLength="11.44" x="180.6114" y="76.7579">12</text><text fill="#000000" font-family="sans-serif" font-size="10" lengthAdjust="spacing" textLength="11.44" x="196.6114" y="76.7579">13</text><text fill="#000000" font-family="sans-serif" font-size="10" lengthAdjust="spacing" textLength="11.44" x="212.6114" y="76.7579">14</text><text fill="#000000" font-family="sans-serif" font-size="10" lengthAdjust="spacing" textLength="11.44" x="228.6114" y="76.7579">15</text><text fill="#000000" font-family="sans-serif" font-size="12" font-weight="bold" lengthAdjust="spacing" textLength="77.0885" x="139.7871" y="52.896">January 2024</text><line style="stroke:#C0C0C0;stroke-width:1;" x1="114.3314" x2="114.3314" y1="79.0679" y2="554.8428"/><line style="stroke:#C0C0C0;stroke-width:1;" x1="130.3314" x2="130.3314" y1="79.0679" y2="554.8428"/><line style="stroke:#C0C0C0;stroke-width:1;" x1="146.3314" x2="146.3314" y1="79.0679" y2="554.8428"/><line style="stroke:#C0C0C0;stroke-width:1;" x1="162.3314" x2="162.3314" y1="79.0679" y2="554.8428"/><line style="stroke:#C0C0C0;stroke-width:1;" x1="178.3314" x2="178.3314" y1="79.0679" y2="554.8428"/><line style="stroke:#C0C0C0;stroke-width:1;" x1="194.3314" x2="194.3314" y1="79.0679" y2="554.8428"/><line style="stroke:#C0C0C0;stroke-width:1;" x1="210.3314" x2="210.3314" y1="79.0679" y2="554.8428"/><line style="stroke:#C0C0C0;stroke-width:1;" x1="226.3314" x2="226.3314" y1="79.0679" y2="554.8428"/><line style="stroke:#C0C0C0;stroke-width:1;" x1="242.3314" x2="242.3314" y1="79.0679" y2="554.8428"/><line style="stroke:#C0C0C0;stroke-width:1;" x1="114.3314" x2="242.3314" y1="79.0679" y2="79.0679"/><line style="stroke:#C0C0C0;stroke-width:1;" x1="114.3314" x2="242.3314" y1="554.8428" y2="554.8428"/><line style="stroke:#181818;stroke-width:1.5;" x1="113.3314" x2="105.3314" y1="142.5226" y2="142.5226"/><line style="stroke:#181818;stroke-width:1.5;" x1="105.3314" x2="105.3314" y1="142.5226" y2="161.5045"/><line style="stroke:#181818;stroke-width:1.5;" x1="105.3314" x2="113.3314" y1="161.5045" y2="161.5045"/><polygon fill="#181818" points="109.3314,157.5045,109.3314,161.5045,109.3314,165.5045,113.3314,161.5045" style="stroke:#181818;stroke-width:1.5;"/><line style="stroke:#181818;stroke-width:1.5;" x1="113.3314" x2="105.3314" y1="142.5226" y2="142.5226"/><line style="stroke:#181818;stroke-width:1.5;" x1="105.3314" x2="105.3314" y1="142.5226" y2="180.4864"/><line style="stroke:#181818;stroke-width:1.5;" x1="105.3314" x2="113.3314" y1="180.4864" y2="180.4864"/><polygon fill="#181818" points="109.3314,176.4864,109.3314,180.4864,109.3314,184.4864,113.3314,180.4864" style="stroke:#181818;stroke-width:1.5;"/><line style="stroke:#181818;stroke-width:1.5;" x1="121.3314" x2="121.3314" y1="150.0136" y2="234.4502"/><line style="stroke:#181818;stroke-width:1.5;" x1="121.3314" x2="129.3314" y1="234.4502" y2="234.4502"/><polygon fill="#181818" points="125.3314,230.4502,125.3314,234.4502,125.3314,238.4502,129.3314,234.4502" style="stroke:#181818;stroke-width:1.5;"/><line style="stroke:#181818;stroke-width:1.5;" x1="129.3314" x2="121.3314" y1="234.4502" y2="234.4502"/><line style="stroke:#181818;stroke-width:1.5;" x1="121.3314" x2="121.3314" y1="234.4502" y2="253.4321"/><line style="stroke:#181818;stroke-width:1.5;" x1="121.3314" x2="129.3314" y1="253.4321" y2="253.4321"/><polygon fill="#181818" points="125.3314,249.4321,125.3314,253.4321,125.3314,257.4321,129.3314,253.4321" style="stroke:#181818;stroke-width:1.5;"/><line style="stroke:#181818;stroke-width:1.5;" x1="137.3314" x2="137.3314" y1="241.9411" y2="307.3959"/><line style="stroke:#181818;stroke-width:1.5;" x1="137.3314" x2="145.3314" y1="307.3959" y2="307.3959"/><polygon fill="#181818" points="141.3314,303.3959,141.3314,307.3959,141.3314,311.3959,145.3314,307.3959" style="stroke:#181818;stroke-width:1.5;"/><line style="stroke:#181818;stroke-width:1.5;" x1="145.3314" x2="137.3314" y1="307.3959" y2="307.3959"/><line style="stroke:#181818;stroke-width:1.5;" x1="137.3314" x2="137.3314" y1="307.3959" y2="326.3777"/><line style="stroke:#181818;stroke-width:1.5;" x1="137.3314" x2="145.3314" y1="326.3777" y2="326.3777"/><polygon fill="#181818" points="141.3314,322.3777,141.3314,326.3777,141.3314,330.3777,145.3314,326.3777" style="stroke:#181818;stroke-width:1.5;"/><line style="stroke:#181818;stroke-width:1.5;" x1="153.3314" x2="153.3314" y1="314.8868" y2="345.3596"/><line style="stroke:#181818;stroke-width:1.5;" x1="153.3314" x2="161.3314" y1="345.3596" y2="345.3596"/><polygon fill="#181818" points="157.3314,341.3596,157.3314,345.3596,157.3314,349.3596,161.3314,345.3596" style="stroke:#181818;stroke-width:1.5;"/><line style="stroke:#181818;stroke-width:1.5;" x1="225.3314" x2="217.3314" y1="399.3234" y2="399.3234"/><line style="stroke:#181818;stroke-width:1.5;" x1="217.3314" x2="217.3314" y1="399.3234" y2="418.3053"/><line style="stroke:#181818;stroke-width:1.5;" x1="217.3314" x2="225.3314" y1="418.3053" y2="418.3053"/><polygon fill="#181818" points="221.3314,414.3053,221.3314,418.3053,221.3314,422.3053,225.3314,418.3053" style="stroke:#181818;stroke-width:1.5;"/><line style="stroke:#181818;stroke-width:1.5;" x1="233.3314" x2="233.3314" y1="425.7962" y2="437.2872"/><line style="stroke:#181818;stroke-width:1.5;" x1="233.3314" x2="241.3314" y1="437.2872" y2="437.2872"/><polygon fill="#181818" points="237.3314,433.2872,237.3314,437.2872,237.3314,441.2872,241.3314,437.2872" style="stroke:#181818;stroke-width:1.5;"/><rect fill="#FF0000" height="14.9819" style="stroke:none;stroke-width:1;" width="44" x="116.3314" y="81.0679"/><line style="stroke:#FF0000;stroke-width:1;" x1="116.3314" x2="160.3314" y1="81.0679" y2="81.0679"/><line style="stroke:#FF0000;stroke-width:1;" x1="116.3314" x2="160.3314" y1="96.0498" y2="96.0498"/><line style="stroke:#FF0000;stroke-width:1;" x1="116.3314" x2="116.3314" y1="81.0679" y2="96.0498"/><line style="stroke:#FF0000;stroke-width:1;" x1="160.3314" x2="160.3314" y1="81.0679" y2="96.0498"/><line style="stroke:#181818;stroke-width:1;" x1="114.3314" x2="119.3314" y1="115.5407" y2="115.5407"/><line style="stroke:#181818;stroke-width:1;" x1="236.9216" x2="241.3314" y1="115.5407" y2="115.5407"/><rect fill="#FFB6C1" height="14.9819" style="stroke:none;stroke-width:1;" width="12" x="116.3314" y="135.0317"/><line style="stroke:#FFB6C1;stroke-width:1;" x1="116.3314" x2="128.3314" y1="135.0317" y2="135.0317"/><line style="stroke:#FFB6C1;stroke-width:1;" x1="116.3314" x2="128.3314" y1="150.0136" y2="150.0136"/><line style="stroke:#FFB6C1;stroke-width:1;" x1="116.3314" x2="116.3314" y1="135.0317" y2="150.0136"/><line style="stroke:#FFB6C1;stroke-width:1;" x1="128.3314" x2="128.3314" y1="135.0317" y2="150.0136"/><rect fill="#FF0000" height="14.9819" style="stroke:none;stroke-width:1;" width="12" x="116.3314" y="154.0136"/><line style="stroke:#FF0000;stroke-width:1;" x1="116.3314" x2="128.3314" y1="154.0136" y2="154.0136"/><line style="stroke:#FF0000;stroke-width:1;" x1="116.3314" x2="128.3314" y1="168.9955" y2="168.9955"/><line style="stroke:#FF0000;stroke-width:1;" x1="116.3314" x2="116.3314" y1="154.0136" y2="168.9955"/><line style="stroke:#FF0000;stroke-width:1;" x1="128.3314" x2="128.3314" y1="154.0136" y2="168.9955"/><rect fill="#FFA500" height="14.9819" style="stroke:none;stroke-width:1;" width="12" x="116.3314" y="172.9955"/><line style="stroke:#FFA500;stroke-width:1;" x1="116.3314" x2="128.3314" y1="172.9955" y2="172.9955"/><line style="stroke:#FFA500;stroke-width:1;" x1="116.3314" x2="128.3314" y1="187.9774" y2="187.9774"/><line style="stroke:#FFA500;stroke-width:1;" x1="116.3314" x2="116.3314" y1="172.9955" y2="187.9774"/><line style="stroke:#FFA500;stroke-width:1;" x1="128.3314" x2="128.3314" y1="172.9955" y2="187.9774"/><line style="stroke:#181818;stroke-width:1;" x1="114.3314" x2="119.3314" y1="207.4683" y2="207.4683"/><line style="stroke:#181818;stroke-width:1;" x1="199.0379" x2="241.3314" y1="207.4683" y2="207.4683"/><rect fill="#FF0000" height="14.9819" style="stroke:none;stroke-width:1;" width="12" x="132.3314" y="226.9592"/><line style="stroke:#FF0000;stroke-width:1;" x1="132.3314" x2="144.3314" y1="226.9592" y2="226.9592"/><line style="stroke:#FF0000;stroke-width:1;" x1="132.3314" x2="144.3314" y1="241.9411" y2="241.9411"/><line style="stroke:#FF0000;stroke-width:1;" x1="132.3314" x2="132.3314" y1="226.9592" y2="241.9411"/><line style="stroke:#FF0000;stroke-width:1;" x1="144.3314" x2="144.3314" y1="226.9592" y2="241.9411"/><rect fill="#FF0000" height="14.9819" style="stroke:none;stroke-width:1;" width="12" x="132.3314" y="245.9411"/><line style="stroke:#FF0000;stroke-width:1;" x1="132.3314" x2="144.3314" y1="245.9411" y2="245.9411"/><line style="stroke:#FF0000;stroke-width:1;" x1="132.3314" x2="144.3314" y1="260.923" y2="260.923"/><line style="stroke:#FF0000;stroke-width:1;" x1="132.3314" x2="132.3314" y1="245.9411" y2="260.923"/><line style="stroke:#FF0000;stroke-width:1;" x1="144.3314" x2="144.3314" y1="245.9411" y2="260.923"/><line style="stroke:#181818;stroke-width:1;" x1="114.3314" x2="119.3314" y1="280.414" y2="280.414"/><line style="stroke:#181818;stroke-width:1;" x1="215.0977" x2="241.3314" y1="280.414" y2="280.414"/><rect fill="#90EE90" height="14.9819" style="stroke:none;stroke-width:1;" width="12" x="148.3314" y="299.9049"/><line style="stroke:#90EE90;stroke-width:1;" x1="148.3314" x2="160.3314" y1="299.9049" y2="299.9049"/><line style="stroke:#90EE90;stroke-width:1;" x1="148.3314" x2="160.3314" y1="314.8868" y2="314.8868"/><line style="stroke:#90EE90;stroke-width:1;" x1="148.3314" x2="148.3314" y1="299.9049" y2="314.8868"/><line style="stroke:#90EE90;stroke-width:1;" x1="160.3314" x2="160.3314" y1="299.9049" y2="314.8868"/><rect fill="#FFB6C1" height="14.9819" style="stroke:none;stroke-width:1;" width="12" x="148.3314" y="318.8868"/><line style="stroke:#FFB6C1;stroke-width:1;" x1="148.3314" x2="160.3314" y1="318.8868" y2="318.8868"/><line style="stroke:#FFB6C1;stroke-width:1;" x1="148.3314" x2="160.3314" y1="333.8687" y2="333.8687"/><line style="stroke:#FFB6C1;stroke-width:1;" x1="148.3314" x2="148.3314" y1="318.8868" y2="333.8687"/><line style="stroke:#FFB6C1;stroke-width:1;" x1="160.3314" x2="160.3314" y1="318.8868" y2="333.8687"/><rect fill="#FF0000" height="14.9819" style="stroke:none;stroke-width:1;" width="1" x="164.3314" y="337.8687"/><line style="stroke:#FF0000;stroke-width:1;" x1="164.3314" x2="165.3314" y1="337.8687" y2="337.8687"/><line style="stroke:#FF0000;stroke-width:1;" x1="164.3314" x2="165.3314" y1="352.8506" y2="352.8506"/><line style="stroke:#FF0000;stroke-width:1;" x1="164.3314" x2="164.3314" y1="337.8687" y2="352.8506"/><line style="stroke:#FF0000;stroke-width:1;" x1="165.3314" x2="165.3314" y1="337.8687" y2="352.8506"/><line style="stroke:#181818;stroke-width:1;" x1="114.3314" x2="119.3314" y1="372.3415" y2="372.3415"/><line style="stroke:#181818;stroke-width:1;" x1="223.2157" x2="241.3314" y1="372.3415" y2="372.3415"/><rect fill="#008000" height="14.9819" style="stroke:none;stroke-width:1;" width="12" x="228.3314" y="391.8325"/><line style="stroke:#008000;stroke-width:1;" x1="228.3314" x2="240.3314" y1="391.8325" y2="391.8325"/><line style="stroke:#008000;stroke-width:1;" x1="228.3314" x2="240.3314" y1="406.8143" y2="406.8143"/><line style="stroke:#008000;stroke-width:1;" x1="228.3314" x2="228.3314" y1="391.8325" y2="406.8143"/><line style="stroke:#008000;stroke-width:1;" x1="240.3314" x2="240.3314" y1="391.8325" y2="406.8143"/><rect fill="#90EE90" height="14.9819" style="stroke:none;stroke-width:1;" width="12" x="228.3314" y="410.8143"/><line style="stroke:#90EE90;stroke-width:1;" x1="228.3314" x2="240.3314" y1="410.8143" y2="410.8143"/><line style="stroke:#90EE90;stroke-width:1;" x1="228.3314" x2="240.3314" y1="425.7962" y2="425.7962"/><line style="stroke:#90EE90;stroke-width:1;" x1="228.3314" x2="228.3314" y1="410.8143" y2="425.7962"/><line style="stroke:#90EE90;stroke-width:1;" x1="240.3314" x2="240.3314" y1="410.8143" y2="425.7962"/><path d="M242.3314,446.7781 L242.3314,554.8428 L435.7365,554.8428 L435.7365,456.7781 L425.7365,446.7781 L242.3314,446.7781 " fill="#FEFFDD" style="stroke:#181818;stroke-width:0.5;"/><path d="M425.7365,446.7781 L425.7365,456.7781 L435.7365,456.7781 L425.7365,446.7781 " fill="#FEFFDD" style="stroke:#181818;stroke-width:0.5;"/><text fill="#000000" font-family="sans-serif" font-size="9" font-weight="bold" lengthAdjust="spacing" textLength="68.3375" x="248.3314" y="461.3992">COMPARAISON</text><text fill="#000000" font-family="sans-serif" font-size="9" lengthAdjust="spacing" textLength="37.4942" x="248.3314" y="473.6573">&#9200; ACTUEL:</text><text fill="#000000" font-family="sans-serif" font-size="9" font-weight="bold" lengthAdjust="spacing" textLength="30.2762" x="288.1656" y="473.6573">3 jours</text><text fill="#000000" font-family="sans-serif" font-size="9" lengthAdjust="spacing" textLength="99.9547" x="320.7818" y="473.6573">(50% d'&#233;chec &#8594; 6 jours)</text><text fill="#000000" font-family="sans-serif" font-size="9" lengthAdjust="spacing" textLength="29.0612" x="248.3314" y="485.9154">&#9200; CIBLE:</text><text fill="#000000" font-family="sans-serif" font-size="9" font-weight="bold" lengthAdjust="spacing" textLength="33.2912" x="279.7326" y="485.9154">&lt; 1 jour</text><text fill="#000000" font-family="sans-serif" font-size="9" lengthAdjust="spacing" textLength="70.5965" x="315.3638" y="485.9154">(livraison rapide)</text><text fill="#000000" font-family="sans-serif" font-size="9" lengthAdjust="spacing" textLength="2.34" x="248.3314" y="498.1734">&#160;</text><text fill="#000000" font-family="sans-serif" font-size="9" lengthAdjust="spacing" textLength="71.7395" x="248.3314" y="510.4315">&#128202; AM&#201;LIORATION:</text><text fill="#000000" font-family="sans-serif" font-size="9" lengthAdjust="spacing" textLength="106.6057" x="248.3314" y="522.6896">- Temps fortement r&#233;duit</text><text fill="#000000" font-family="sans-serif" font-size="9" lengthAdjust="spacing" textLength="105.5528" x="248.3314" y="534.9477">- Process digital optimis&#233;</text><text fill="#000000" font-family="sans-serif" font-size="9" lengthAdjust="spacing" textLength="149.9321" x="248.3314" y="547.2058">- Taux succ&#232;s: 50% &#8594; Tr&#232;s am&#233;lior&#233;</text><rect fill="#008000" height="14.9819" style="stroke:none;stroke-width:1;" width="1" x="244.3314" y="429.7962"/><line style="stroke:#008000;stroke-width:1;" x1="244.3314" x2="245.3314" y1="429.7962" y2="429.7962"/><line style="stroke:#008000;stroke-width:1;" x1="244.3314" x2="245.3314" y1="444.7781" y2="444.7781"/><line style="stroke:#008000;stroke-width:1;" x1="244.3314" x2="244.3314" y1="429.7962" y2="444.7781"/><line style="stroke:#008000;stroke-width:1;" x1="245.3314" x2="245.3314" y1="429.7962" y2="444.7781"/><text fill="#000000" font-family="sans-serif" font-size="11" lengthAdjust="spacing" textLength="155.3189" x="164.3314" y="92.8268">PROCESSUS ACTUEL (3 JOURS)</text><text fill="#000000" font-family="sans-serif" font-size="11" lengthAdjust="spacing" textLength="107.5902" x="124.3314" y="119.8087">Jour 1 - Lundi (Matin)</text><text fill="#000000" font-family="sans-serif" font-size="11" lengthAdjust="spacing" textLength="140.348" x="132.3314" y="146.7906">Marc: Besoin &#8594; Bon rempli</text><text fill="#000000" font-family="sans-serif" font-size="11" lengthAdjust="spacing" textLength="135.123" x="132.3314" y="165.7725">Marc: Essaie joindre Sylvie</text><text fill="#000000" font-family="sans-serif" font-size="11" lengthAdjust="spacing" textLength="126.0701" x="132.3314" y="184.7544">Sylvie: Traite commande</text><text fill="#000000" font-family="sans-serif" font-size="11" lengthAdjust="spacing" textLength="69.7065" x="124.3314" y="211.7363">Jour 2 - Mardi</text><text fill="#000000" font-family="sans-serif" font-size="11" lengthAdjust="spacing" textLength="108.3712" x="148.3314" y="238.7182">&#9208;&#65039; ATTENTE LIVRAISON</text><text fill="#000000" font-family="sans-serif" font-size="11" lengthAdjust="spacing" textLength="86.0194" x="148.3314" y="257.7">&#9940; Chantier bloqu&#233;</text><text fill="#000000" font-family="sans-serif" font-size="11" lengthAdjust="spacing" textLength="85.7664" x="124.3314" y="284.6819">Jour 3 - Mercredi</text><text fill="#000000" font-family="sans-serif" font-size="11" lengthAdjust="spacing" textLength="117.5122" x="164.3314" y="311.6638">&#201;ric: R&#233;ception + Saisie</text><text fill="#000000" font-family="sans-serif" font-size="11" lengthAdjust="spacing" textLength="113.8382" x="164.3314" y="330.6457">Marc: R&#233;cup&#232;re d&#233;p&#244;t</text><text fill="#000000" font-family="sans-serif" font-size="11" lengthAdjust="spacing" textLength="122.9571" x="164.3314" y="349.6276">&#10060; ERREUR - Recommence</text><text fill="#000000" font-family="sans-serif" font-size="11" lengthAdjust="spacing" textLength="93.8843" x="124.3314" y="376.6095">PROCESSUS CIBLE</text><text fill="#000000" font-family="sans-serif" font-size="11" lengthAdjust="spacing" textLength="93.8843" x="244.3314" y="403.5914">PROCESSUS CIBLE</text><text fill="#000000" font-family="sans-serif" font-size="11" lengthAdjust="spacing" textLength="193.5217" x="244.3314" y="422.5733">Marc: Commande mobile &#8594; Livraison</text><text fill="#000000" font-family="sans-serif" font-size="11" lengthAdjust="spacing" textLength="37.7297" x="244.3314" y="441.5551">&#9989; Succ&#232;s</text><text fill="#000000" font-family="sans-serif" font-size="10" lengthAdjust="spacing" textLength="15.12" x="114.7714" y="565.5328">Mo</text><text fill="#000000" font-family="sans-serif" font-size="10" lengthAdjust="spacing" textLength="11.74" x="132.4614" y="565.5328">Tu</text><text fill="#000000" font-family="sans-serif" font-size="10" lengthAdjust="spacing" textLength="14.94" x="146.8614" y="565.5328">We</text><text fill="#000000" font-family="sans-serif" font-size="10" lengthAdjust="spacing" textLength="11.74" x="164.4614" y="565.5328">Th</text><text fill="#000000" font-family="sans-serif" font-size="10" lengthAdjust="spacing" textLength="9.32" x="181.6714" y="565.5328">Fr</text><text fill="#000000" font-family="sans-serif" font-size="10" lengthAdjust="spacing" textLength="11.1" x="196.7814" y="565.5328">Sa</text><text fill="#000000" font-family="sans-serif" font-size="10" lengthAdjust="spacing" textLength="11.67" x="212.4964" y="565.5328">Su</text><text fill="#000000" font-family="sans-serif" font-size="10" lengthAdjust="spacing" textLength="15.12" x="226.7714" y="565.5328">Mo</text><text fill="#000000" font-family="sans-serif" font-size="10" lengthAdjust="spacing" textLength="5.72" x="119.4714" y="579.5328">8</text><text fill="#000000" font-family="sans-serif" font-size="10" lengthAdjust="spacing" textLength="5.72" x="135.4714" y="579.5328">9</text><text fill="#000000" font-family="sans-serif" font-size="10" lengthAdjust="spacing" textLength="11.44" x="148.6114" y="579.5328">10</text><text fill="#000000" font-family="sans-serif" font-size="10" lengthAdjust="spacing" textLength="11.44" x="164.6114" y="579.5328">11</text><text fill="#000000" font-family="sans-serif" font-size="10" lengthAdjust="spacing" textLength="11.44" x="180.6114" y="579.5328">12</text><text fill="#000000" font-family="sans-serif" font-size="10" lengthAdjust="spacing" textLength="11.44" x="196.6114" y="579.5328">13</text><text fill="#000000" font-family="sans-serif" font-size="10" lengthAdjust="spacing" textLength="11.44" x="212.6114" y="579.5328">14</text><text fill="#000000" font-family="sans-serif" font-size="10" lengthAdjust="spacing" textLength="11.44" x="228.6114" y="579.5328">15</text><text fill="#000000" font-family="sans-serif" font-size="12" font-weight="bold" lengthAdjust="spacing" textLength="77.0885" x="139.7871" y="594.6709">January 2024</text><!--SRC=[fLNDZjis4BxpAUPIn7QXrFPwNSDO5B6roiAklJOaUI-BO45BZ9U993eaPTGeSao050KMQ7jhYrxZMmyzvAutyGkqZz2XVh91i-i4wCMcPiZv-7tpmqTAKwbNDD4QpiplbItYDPMKAv5S3GATikZAvik84QAvZbYn2opuO1_CfGYOKgc2WUqld0bi5DYZuSGXP2rvebL0yMH8URGbv4JfRSI-8JdeAQShIMFudW1e7hE89op_01ZIuFbAYZG9RH492H5VNMlSl4NlI_AId7nL1Y88_um56d8k2jhDTiTgjgncZv3BkJkp7SzRUDNLQaSmdYrSh_u4g8BBmle48ghmw15USgk09Y5m1O71PRXCm6KX8PO5Ov5AQ27z2TwBGsrADK_gO5daSafbq8SXKmBtxr__14DKHh9u7V4IgbN1j0pC7IWJGt7Ea-TLD4SfoXaymv2XPE1jemrdPRJsnz5A0QZEmHwemd0FdSiYMXzypA9cw8vZt5c5F_eVuMUI9YjsArWR1KD2A9WHQd_pxkztDp3mVUVSTs0okd078szsNW9tFWEOeV4ULljVVm7x6ckBCmdBIBn8irqP-VXmvCwd57lFvyZmOJ90Nq4fUoCvfilDTW5RQuw9_n8yx8ttoUf-1lJTfFAQE9EC9LLH69HqdRt5WWYptJhxIvSWNny6wHxYzq7fxN__4HpNTHOkqdIPgGkM11MJNWNIlEsLZr3kpu_HyBOdyo6HA_WVMm5MBkydLRLww_WEk4AqIZMxB6-8nPBZD38TEk6ROeALSAs30XQt-PI6PQhslxq2Bms2xAqgWxSF2sSVAEoIIIAmJPT2Qn7Z36mqxDbqFYXwfz50o_xcptBAzT5xX6CZbQhHWDfnymi87s3PNBCW9zujVFNoKCxCd3b1viPZ3aMLE23fceUiJd3tFt_y_0CCfjcRoMZc3lpHxBoFLWjyd7CAdWgf6HQB1fdjmfJht5U-3X3o5TSq0e4T4dELxOgJDFqELA5K7ynDpGLzYPz0usmNSO71Y176y2Va4IxpjmC7VuJ_Yoc-DqmgqtMjXwOY7lPgZoM7Sx41B8nMhz_fz3jTi1q_BvWwgPtD9w2GPu0jn9MMV9cQhgsJCTrGSDF4l4LzcArPCZxzjZA0asou58bXICONqziDtOurv1ey9l4cS34bf-mfJIED9m8HycJLXuN_sEgH2Gx6bAumDYRKniTDootwl7y1]--></g></svg>