<svg xmlns="http://www.w3.org/2000/svg" xmlns:xlink="http://www.w3.org/1999/xlink" contentStyleType="text/css" height="728px" preserveAspectRatio="none" style="width:1106px;height:728px;background:#FFFFFF;" version="1.1" viewBox="0 0 1106 728" width="1106px" zoomAndPan="magnify"><title>Network Diagram - Flux de Donn&#233;es ACTUEL</title><defs/><g><text fill="#000000" font-family="sans-serif" font-size="14" font-weight="bold" lengthAdjust="spacing" textLength="300.2686" x="395.9051" y="24.5332">Network Diagram - Flux de Donn&#233;es ACTUEL</text><!--cluster Chantiers (Terrain)--><g id="cluster_Chantiers (Terrain)"><path d="M545.5788,128.1094 L671.8268,128.1094 A3.75,3.75 0 0 1 674.3268,130.6094 L681.3268,151.7188 L910.5788,151.7188 A2.5,2.5 0 0 1 913.0788,154.2188 L913.0788,242.6094 A2.5,2.5 0 0 1 910.5788,245.1094 L545.5788,245.1094 A2.5,2.5 0 0 1 543.0788,242.6094 L543.0788,130.6094 A2.5,2.5 0 0 1 545.5788,128.1094 " fill="#FFE4E1" style="stroke:#000000;stroke-width:1.5;"/><line style="stroke:#000000;stroke-width:1.5;" x1="543.0788" x2="681.3268" y1="151.7188" y2="151.7188"/><text fill="#000000" font-family="sans-serif" font-size="14" font-weight="bold" lengthAdjust="spacing" textLength="125.248" x="547.0788" y="144.6426">Chantiers (Terrain)</text></g><!--cluster Bureau Si?ge--><g id="cluster_Bureau Si&#232;ge"><path d="M666.5788,421.6094 L757.0543,421.6094 A3.75,3.75 0 0 1 759.5543,424.1094 L766.5543,445.2188 L918.5788,445.2188 A2.5,2.5 0 0 1 921.0788,447.7188 L921.0788,712.1094 A2.5,2.5 0 0 1 918.5788,714.6094 L666.5788,714.6094 A2.5,2.5 0 0 1 664.0788,712.1094 L664.0788,424.1094 A2.5,2.5 0 0 1 666.5788,421.6094 " fill="#E6F3FF" style="stroke:#000000;stroke-width:1.5;"/><line style="stroke:#000000;stroke-width:1.5;" x1="664.0788" x2="766.5543" y1="445.2188" y2="445.2188"/><text fill="#000000" font-family="sans-serif" font-size="14" font-weight="bold" lengthAdjust="spacing" textLength="89.4756" x="668.0788" y="438.1426">Bureau Si&#232;ge</text></g><!--cluster D?p?t--><g id="cluster_D&#233;p&#244;t"><path d="M947.5788,412.6094 L988.2409,412.6094 A3.75,3.75 0 0 1 990.7409,415.1094 L997.7409,436.2188 L1096.5788,436.2188 A2.5,2.5 0 0 1 1099.0788,438.7188 L1099.0788,545.1094 A2.5,2.5 0 0 1 1096.5788,547.6094 L947.5788,547.6094 A2.5,2.5 0 0 1 945.0788,545.1094 L945.0788,415.1094 A2.5,2.5 0 0 1 947.5788,412.6094 " fill="#E8F5E9" style="stroke:#000000;stroke-width:1.5;"/><line style="stroke:#000000;stroke-width:1.5;" x1="945.0788" x2="997.7409" y1="436.2188" y2="436.2188"/><text fill="#000000" font-family="sans-serif" font-size="14" font-weight="bold" lengthAdjust="spacing" textLength="39.6621" x="949.0788" y="429.1426">D&#233;p&#244;t</text></g><!--cluster Internet--><g id="cluster_Internet"><path d="M34.9896,607.0898 C39.8169,598.213 48.2781,599.675 52.6285,607.5907 C56.4828,597.598 63.8453,596.7664 69.9844,605.4696 C77.1267,595.2709 85.0825,596.4449 89.9095,607.6273 C93.5712,598.3542 102.4692,596.5823 107.9537,605.8537 C112.26,596.4013 119.8587,595.9138 125.3346,604.7416 C131.0614,595.2646 137.7956,595.1631 144.9269,603.1675 C150.8533,594.2389 159.2888,597.4466 162.7626,605.7117 C168.2394,595.9253 173.7736,595.7727 180.9203,604.0315 C186.9594,595.4986 195.0581,592.7934 201.2132,603.9117 C207.3316,596.1711 212.6851,596.6498 218.3027,604.4619 C224.2533,595.6498 229.7392,596.1751 235.7332,604.4177 C243.0119,596.5889 249.8864,597.3016 255.8666,605.9997 C262.5748,598.6282 268.1369,600.3977 272.9322,608.1571 C283.0313,597.6804 291.6014,598.0203 297.0788,612.6094 C298.0456,612.3734 298.7404,613.0397 298.5477,614.0153 C309.1824,620.1944 311.08,629.1307 300.6598,637.2257 C309.7955,643.3028 309.2628,653.9009 299.6822,659.1431 C310.3646,665.0018 310.7174,674.8338 299.2762,680.2673 C309.4186,692.4873 306.9663,703.827 290.0788,706.6094 C291.2837,706.1192 292.3422,706.7867 292.2888,708.1279 C288.567,716.9831 279.4942,719.5725 273.565,710.4236 C267.9189,717.9651 260.19,718.4284 255.4914,709.3907 C250.458,720.4671 240.7039,719.4452 235.3114,709.7395 C230.2134,717.0024 224.9769,719.0935 218.737,710.9694 C212.5503,718.6591 204.6648,720.3482 199.0844,710.2978 C195.1073,719.3505 186.4285,721.1593 180.62,712.1724 C175.7212,720.08 168.582,719.9551 163.0316,712.9405 C157.4452,721.8607 149.4857,721.7406 145.0517,711.8397 C139.7462,719.3569 131.0583,719.3077 126.8885,710.5706 C121.555,721.1875 115.7272,721.041 108.402,712.4916 C101.8835,721.7159 94.6048,720.6995 89.2669,711.2798 C81.5139,720.4035 74.9433,718.4038 70.1591,708.3256 C65.7203,717.4539 58.1853,716.7249 53.2359,708.8333 C39.8519,718.5146 30.2733,716.9838 26.0788,699.6094 C28.908,698.8689 29.6623,700.3196 29.5216,702.7919 C17.5886,699.3751 11.2618,692.0581 20.6441,680.2477 C8.4994,677.3962 7.0838,667.6187 14.6815,659.1797 C6,648.1276 9.7377,641.8464 21.2003,636.6133 C11.7994,623.4593 15.3149,608.3558 33.0788,605.6094 C34.3845,605.0402 35.0586,605.8845 34.9896,607.0898 " fill="#E0F7FA" style="stroke:#181818;stroke-width:1;"/><text fill="#000000" font-family="sans-serif" font-size="14" font-weight="bold" lengthAdjust="spacing" textLength="51.3379" x="135.9098" y="625.1426">Internet</text></g><!--cluster Fournisseurs--><g id="cluster_Fournisseurs"><path d="M331.5788,597.6094 L421.2682,597.6094 A3.75,3.75 0 0 1 423.7682,600.1094 L430.7682,621.2188 L637.5788,621.2188 A2.5,2.5 0 0 1 640.0788,623.7188 L640.0788,712.1094 A2.5,2.5 0 0 1 637.5788,714.6094 L331.5788,714.6094 A2.5,2.5 0 0 1 329.0788,712.1094 L329.0788,600.1094 A2.5,2.5 0 0 1 331.5788,597.6094 " fill="#E0E0E0" style="stroke:#000000;stroke-width:1.5;"/><line style="stroke:#000000;stroke-width:1.5;" x1="329.0788" x2="430.7682" y1="621.2188" y2="621.2188"/><text fill="#000000" font-family="sans-serif" font-size="14" font-weight="bold" lengthAdjust="spacing" textLength="88.6895" x="333.0788" y="614.1426">Fournisseurs</text></g><!--entity marc1--><g id="elem_marc1"><rect fill="#F1F1F1" height="65.2188" rx="2.5" ry="2.5" style="stroke:#181818;stroke-width:0.5;" width="89" x="559.5788" y="164.1094"/><rect fill="#F1F1F1" height="10" style="stroke:#181818;stroke-width:0.5;" width="15" x="628.5788" y="169.1094"/><rect fill="#F1F1F1" height="2" style="stroke:#181818;stroke-width:0.5;" width="4" x="626.5788" y="171.1094"/><rect fill="#F1F1F1" height="2" style="stroke:#181818;stroke-width:0.5;" width="4" x="626.5788" y="175.1094"/><text fill="#000000" font-family="sans-serif" font-size="14" lengthAdjust="spacing" textLength="49" x="574.5788" y="198.6426">&#128241; Marc</text><text fill="#000000" font-family="sans-serif" font-size="14" lengthAdjust="spacing" textLength="41.248" x="574.5788" y="216.252">Chef 1</text></g><!--entity marc2--><g id="elem_marc2"><rect fill="#F1F1F1" height="65.2188" rx="2.5" ry="2.5" style="stroke:#181818;stroke-width:0.5;" width="89" x="683.5788" y="164.1094"/><rect fill="#F1F1F1" height="10" style="stroke:#181818;stroke-width:0.5;" width="15" x="752.5788" y="169.1094"/><rect fill="#F1F1F1" height="2" style="stroke:#181818;stroke-width:0.5;" width="4" x="750.5788" y="171.1094"/><rect fill="#F1F1F1" height="2" style="stroke:#181818;stroke-width:0.5;" width="4" x="750.5788" y="175.1094"/><text fill="#000000" font-family="sans-serif" font-size="14" lengthAdjust="spacing" textLength="49" x="698.5788" y="198.6426">&#128241; Marc</text><text fill="#000000" font-family="sans-serif" font-size="14" lengthAdjust="spacing" textLength="41.248" x="698.5788" y="216.252">Chef 2</text></g><!--entity marc3--><g id="elem_marc3"><rect fill="#F1F1F1" height="65.2188" rx="2.5" ry="2.5" style="stroke:#181818;stroke-width:0.5;" width="89" x="807.5788" y="164.1094"/><rect fill="#F1F1F1" height="10" style="stroke:#181818;stroke-width:0.5;" width="15" x="876.5788" y="169.1094"/><rect fill="#F1F1F1" height="2" style="stroke:#181818;stroke-width:0.5;" width="4" x="874.5788" y="171.1094"/><rect fill="#F1F1F1" height="2" style="stroke:#181818;stroke-width:0.5;" width="4" x="874.5788" y="175.1094"/><text fill="#000000" font-family="sans-serif" font-size="14" lengthAdjust="spacing" textLength="49" x="822.5788" y="198.6426">&#128241; Marc</text><text fill="#000000" font-family="sans-serif" font-size="14" lengthAdjust="spacing" textLength="41.248" x="822.5788" y="216.252">Chef 3</text></g><!--entity sylvie--><g id="elem_sylvie"><rect fill="#F1F1F1" height="65.2188" rx="2.5" ry="2.5" style="stroke:#181818;stroke-width:0.5;" width="95.2344" x="680.5788" y="457.6094"/><rect fill="#F1F1F1" height="10" style="stroke:#181818;stroke-width:0.5;" width="15" x="755.8131" y="462.6094"/><rect fill="#F1F1F1" height="2" style="stroke:#181818;stroke-width:0.5;" width="4" x="753.8131" y="464.6094"/><rect fill="#F1F1F1" height="2" style="stroke:#181818;stroke-width:0.5;" width="4" x="753.8131" y="468.6094"/><text fill="#000000" font-family="sans-serif" font-size="14" lengthAdjust="spacing" textLength="55.2344" x="695.5788" y="492.1426">&#128187; Sylvie</text><text fill="#000000" font-family="sans-serif" font-size="14" lengthAdjust="spacing" textLength="42.7998" x="695.5788" y="509.752">Achats</text></g><!--entity julien--><g id="elem_julien"><rect fill="#F1F1F1" height="65.2188" rx="2.5" ry="2.5" style="stroke:#181818;stroke-width:0.5;" width="94.4688" x="811.0788" y="457.6094"/><rect fill="#F1F1F1" height="10" style="stroke:#181818;stroke-width:0.5;" width="15" x="885.5475" y="462.6094"/><rect fill="#F1F1F1" height="2" style="stroke:#181818;stroke-width:0.5;" width="4" x="883.5475" y="464.6094"/><rect fill="#F1F1F1" height="2" style="stroke:#181818;stroke-width:0.5;" width="4" x="883.5475" y="468.6094"/><text fill="#000000" font-family="sans-serif" font-size="14" lengthAdjust="spacing" textLength="54.4688" x="826.0788" y="492.1426">&#128187; Julien</text><text fill="#000000" font-family="sans-serif" font-size="14" lengthAdjust="spacing" textLength="47.4619" x="826.0788" y="509.752">Affaires</text></g><!--entity server--><g id="elem_server"><rect fill="#F1F1F1" height="65.2188" rx="2.5" ry="2.5" style="stroke:#181818;stroke-width:0.5;" width="107.6963" x="797.0788" y="633.6094"/><rect fill="#F1F1F1" height="10" style="stroke:#181818;stroke-width:0.5;" width="15" x="884.775" y="638.6094"/><rect fill="#F1F1F1" height="2" style="stroke:#181818;stroke-width:0.5;" width="4" x="882.775" y="640.6094"/><rect fill="#F1F1F1" height="2" style="stroke:#181818;stroke-width:0.5;" width="4" x="882.775" y="644.6094"/><text fill="#000000" font-family="sans-serif" font-size="14" lengthAdjust="spacing" textLength="66.9102" x="812.0788" y="668.1426">&#128421;&#65039; Serveur</text><text fill="#000000" font-family="sans-serif" font-size="14" lengthAdjust="spacing" textLength="67.6963" x="812.0788" y="685.752">Sage MDE</text></g><!--entity eric--><g id="elem_eric"><rect fill="#F1F1F1" height="82.8281" rx="2.5" ry="2.5" style="stroke:#181818;stroke-width:0.5;" width="120.5342" x="961.5788" y="448.6094"/><rect fill="#F1F1F1" height="10" style="stroke:#181818;stroke-width:0.5;" width="15" x="1062.1129" y="453.6094"/><rect fill="#F1F1F1" height="2" style="stroke:#181818;stroke-width:0.5;" width="4" x="1060.1129" y="455.6094"/><rect fill="#F1F1F1" height="2" style="stroke:#181818;stroke-width:0.5;" width="4" x="1060.1129" y="459.6094"/><text fill="#000000" font-family="sans-serif" font-size="14" lengthAdjust="spacing" textLength="42" x="976.5788" y="483.1426">&#128187; &#201;ric</text><text fill="#000000" font-family="sans-serif" font-size="14" lengthAdjust="spacing" textLength="37.3584" x="976.5788" y="500.752">D&#233;p&#244;t</text><text fill="#000000" font-family="sans-serif" font-size="14" lengthAdjust="spacing" textLength="80.5342" x="976.5788" y="518.3613">&#128308; 1 seul PC!</text></g><!--entity cloud--><g id="elem_cloud"><rect fill="#F1F1F1" height="65.2188" rx="2.5" ry="2.5" style="stroke:#181818;stroke-width:0.5;" width="125.6816" x="163.0788" y="633.6094"/><rect fill="#F1F1F1" height="10" style="stroke:#181818;stroke-width:0.5;" width="15" x="268.7604" y="638.6094"/><rect fill="#F1F1F1" height="2" style="stroke:#181818;stroke-width:0.5;" width="4" x="266.7604" y="640.6094"/><rect fill="#F1F1F1" height="2" style="stroke:#181818;stroke-width:0.5;" width="4" x="266.7604" y="644.6094"/><text fill="#000000" font-family="sans-serif" font-size="14" lengthAdjust="spacing" textLength="85.6816" x="178.0788" y="668.1426">&#9729;&#65039; OneDrive</text><text fill="#000000" font-family="sans-serif" font-size="14" lengthAdjust="spacing" textLength="52.9102" x="178.0788" y="685.752">Excel x4</text></g><!--entity email--><g id="elem_email"><rect fill="#F1F1F1" height="65.2188" rx="2.5" ry="2.5" style="stroke:#181818;stroke-width:0.5;" width="92.8965" x="34.5788" y="633.6094"/><rect fill="#F1F1F1" height="10" style="stroke:#181818;stroke-width:0.5;" width="15" x="107.4752" y="638.6094"/><rect fill="#F1F1F1" height="2" style="stroke:#181818;stroke-width:0.5;" width="4" x="105.4752" y="640.6094"/><rect fill="#F1F1F1" height="2" style="stroke:#181818;stroke-width:0.5;" width="4" x="105.4752" y="644.6094"/><text fill="#000000" font-family="sans-serif" font-size="14" lengthAdjust="spacing" textLength="52.8965" x="49.5788" y="668.1426">&#128231; Email</text><text fill="#000000" font-family="sans-serif" font-size="14" lengthAdjust="spacing" textLength="48.248" x="49.5788" y="685.752">Outlook</text></g><!--entity fourn1--><g id="elem_fourn1"><rect fill="#F1F1F1" height="65.2188" rx="2.5" ry="2.5" style="stroke:#181818;stroke-width:0.5;" width="122.1133" x="502.0788" y="633.6094"/><rect fill="#F1F1F1" height="10" style="stroke:#181818;stroke-width:0.5;" width="15" x="604.192" y="638.6094"/><rect fill="#F1F1F1" height="2" style="stroke:#181818;stroke-width:0.5;" width="4" x="602.192" y="640.6094"/><rect fill="#F1F1F1" height="2" style="stroke:#181818;stroke-width:0.5;" width="4" x="602.192" y="644.6094"/><text fill="#000000" font-family="sans-serif" font-size="14" lengthAdjust="spacing" textLength="67.6895" x="517.0788" y="668.1426">&#128222; Fourn A</text><text fill="#000000" font-family="sans-serif" font-size="14" lengthAdjust="spacing" textLength="82.1133" x="517.0788" y="685.752">&#128308; T&#233;l&#233;phone</text></g><!--entity fourn2--><g id="elem_fourn2"><rect fill="#F1F1F1" height="65.2188" rx="2.5" ry="2.5" style="stroke:#181818;stroke-width:0.5;" width="122.1133" x="345.0788" y="633.6094"/><rect fill="#F1F1F1" height="10" style="stroke:#181818;stroke-width:0.5;" width="15" x="447.192" y="638.6094"/><rect fill="#F1F1F1" height="2" style="stroke:#181818;stroke-width:0.5;" width="4" x="445.192" y="640.6094"/><rect fill="#F1F1F1" height="2" style="stroke:#181818;stroke-width:0.5;" width="4" x="445.192" y="644.6094"/><text fill="#000000" font-family="sans-serif" font-size="14" lengthAdjust="spacing" textLength="67.6895" x="360.0788" y="668.1426">&#128222; Fourn B</text><text fill="#000000" font-family="sans-serif" font-size="14" lengthAdjust="spacing" textLength="82.1133" x="360.0788" y="685.752">&#128308; T&#233;l&#233;phone</text></g><g id="elem_N1"><path d="M233.5788,44.6094 L233.5788,348.9375 L524.7985,348.9375 L524.7985,54.6094 L514.7985,44.6094 L233.5788,44.6094 " fill="#FEFFDD" style="stroke:#181818;stroke-width:0.5;"/><path d="M514.7985,44.6094 L514.7985,54.6094 L524.7985,54.6094 L514.7985,44.6094 " fill="#FEFFDD" style="stroke:#181818;stroke-width:1;"/><text fill="#000000" font-family="sans-serif" font-size="13" lengthAdjust="spacing" textLength="11.1973" x="239.5788" y="63.1045">&#128308;</text><text fill="#000000" font-family="sans-serif" font-size="13" font-weight="bold" lengthAdjust="spacing" textLength="213.7954" x="254.3878" y="63.1045">FLUX DE DONN&#201;ES CHAOTIQUES</text><text fill="#000000" font-family="sans-serif" font-size="13" lengthAdjust="spacing" textLength="3.6118" x="239.5788" y="79.4561">&#160;</text><text fill="#000000" font-family="sans-serif" font-size="13" font-weight="bold" lengthAdjust="spacing" textLength="70.8018" x="239.5788" y="95.8076">Probl&#232;mes:</text><text fill="#000000" font-family="sans-serif" font-size="13" lengthAdjust="spacing" textLength="270.2197" x="239.5788" y="112.1592">1. Chantiers D&#201;CONNECT&#201;S (t&#233;l&#233;phone only)</text><text fill="#000000" font-family="sans-serif" font-size="13" lengthAdjust="spacing" textLength="203.3726" x="239.5788" y="128.5107">2. Sylvie = HUB CENTRAL (goulot)</text><text fill="#000000" font-family="sans-serif" font-size="13" lengthAdjust="spacing" textLength="136.5889" x="239.5788" y="144.8623">3. Donn&#233;es &#233;parpill&#233;es:</text><text fill="#000000" font-family="sans-serif" font-size="13" lengthAdjust="spacing" textLength="156.7681" x="250.4142" y="161.2139">- Sage MDE (serveur local)</text><text fill="#000000" font-family="sans-serif" font-size="13" lengthAdjust="spacing" textLength="124.249" x="250.4142" y="177.5654">- Excel x4 (OneDrive)</text><text fill="#000000" font-family="sans-serif" font-size="13" lengthAdjust="spacing" textLength="97.519" x="250.4142" y="193.917">- Email (Outlook)</text><text fill="#000000" font-family="sans-serif" font-size="13" lengthAdjust="spacing" textLength="153.1943" x="250.4142" y="210.2686">- T&#233;l&#233;phone (pas de trace)</text><text fill="#000000" font-family="sans-serif" font-size="13" lengthAdjust="spacing" textLength="85.979" x="250.4142" y="226.6201">- Papier (bons)</text><text fill="#000000" font-family="sans-serif" font-size="13" lengthAdjust="spacing" textLength="185.3071" x="239.5788" y="242.9717">4. Pas d'int&#233;gration fournisseurs</text><text fill="#000000" font-family="sans-serif" font-size="13" lengthAdjust="spacing" textLength="249.2788" x="239.5788" y="259.3232">5. Multiples re-saisies des m&#234;mes donn&#233;es</text><text fill="#000000" font-family="sans-serif" font-size="13" lengthAdjust="spacing" textLength="3.6118" x="239.5788" y="275.6748">&#160;</text><text fill="#000000" font-family="sans-serif" font-size="13" font-weight="bold" lengthAdjust="spacing" textLength="46.23" x="239.5788" y="292.0264">Impact:</text><text fill="#000000" font-family="sans-serif" font-size="13" lengthAdjust="spacing" textLength="159.3135" x="239.5788" y="308.3779">&#128308; Processus tr&#232;s inefficace</text><text fill="#000000" font-family="sans-serif" font-size="13" lengthAdjust="spacing" textLength="245.6733" x="239.5788" y="324.7295">&#10060; Taux &#233;lev&#233; de commandes incompl&#232;tes</text><text fill="#000000" font-family="sans-serif" font-size="13" lengthAdjust="spacing" textLength="211.3516" x="239.5788" y="341.0811">&#9208;&#65039; Chantiers bloqu&#233;s fr&#233;quemment</text></g><!--link marc1 to sylvie--><g id="link_marc1_sylvie"><path d="M608.5688,229.2994 C615.1588,269.7494 629.7588,341.1194 657.0788,396.6094 C667.8988,418.5894 680.4719,435.8701 694.8219,452.8201 " fill="none" id="marc1-to-sylvie" style="stroke:#181818;stroke-width:1;stroke-dasharray:7.0,7.0;"/><polygon fill="#181818" points="698.6988,457.3994,695.9363,447.9459,695.468,453.5833,689.8306,453.115,698.6988,457.3994" style="stroke:#181818;stroke-width:1;"/><text fill="#000000" font-family="sans-serif" font-size="13" lengthAdjust="spacing" textLength="61.439" x="658.0788" y="393.1045">T&#233;l&#233;phone</text></g><!--link marc2 to sylvie--><g id="link_marc2_sylvie"><path d="M728.0788,229.3594 C728.0788,285.4294 728.0788,395.3494 728.0788,451.3994 " fill="none" id="marc2-to-sylvie" style="stroke:#181818;stroke-width:1;stroke-dasharray:7.0,7.0;"/><polygon fill="#181818" points="728.0788,457.3994,732.0788,448.3994,728.0788,452.3994,724.0788,448.3994,728.0788,457.3994" style="stroke:#181818;stroke-width:1;"/><text fill="#000000" font-family="sans-serif" font-size="13" lengthAdjust="spacing" textLength="61.439" x="729.0788" y="393.1045">T&#233;l&#233;phone</text></g><!--link marc3 to sylvie--><g id="link_marc3_sylvie"><path d="M847.5888,229.2994 C840.9988,269.7494 826.3988,341.1194 799.0788,396.6094 C795.7688,403.3294 776.283,428.4951 757.283,452.4951 " fill="none" id="marc3-to-sylvie" style="stroke:#181818;stroke-width:1;stroke-dasharray:7.0,7.0;"/><polygon fill="#181818" points="753.5588,457.1994,762.2813,452.6258,756.6623,453.2791,756.0089,447.6602,753.5588,457.1994" style="stroke:#181818;stroke-width:1;"/><text fill="#000000" font-family="sans-serif" font-size="13" lengthAdjust="spacing" textLength="61.439" x="806.0788" y="393.1045">T&#233;l&#233;phone</text></g><!--link sylvie to server--><g id="link_sylvie_server"><path d="M750.3488,522.6194 C772.5788,554.0594 803.0663,597.1793 825.2963,628.6393 " fill="none" id="sylvie-to-server" style="stroke:#181818;stroke-width:1;"/><polygon fill="#181818" points="828.7588,633.5394,826.8318,623.8809,825.8734,629.4559,820.2983,628.4975,828.7588,633.5394" style="stroke:#181818;stroke-width:1;"/><text fill="#000000" font-family="sans-serif" font-size="13" lengthAdjust="spacing" textLength="25.2891" x="790.0788" y="578.1045">LAN</text></g><!--link julien to server--><g id="link_julien_server"><path d="M856.8088,522.6194 C855.5488,554.0594 853.8608,596.0843 852.5908,627.5443 " fill="none" id="julien-to-server" style="stroke:#181818;stroke-width:1;"/><polygon fill="#181818" points="852.3488,633.5394,856.7085,624.708,852.5504,628.5434,848.715,624.3854,852.3488,633.5394" style="stroke:#181818;stroke-width:1;"/><text fill="#000000" font-family="sans-serif" font-size="13" lengthAdjust="spacing" textLength="25.2891" x="855.0788" y="578.1045">LAN</text></g><!--link eric to server--><g id="link_eric_server"><path d="M981.9888,531.9094 C951.4788,562.9394 914.3245,600.7501 886.3145,629.2501 " fill="none" id="eric-to-server" style="stroke:#181818;stroke-width:1;"/><polygon fill="#181818" points="882.1088,633.5294,891.2701,629.9143,885.6135,629.9633,885.5645,624.3067,882.1088,633.5294" style="stroke:#181818;stroke-width:1;"/><text fill="#000000" font-family="sans-serif" font-size="13" lengthAdjust="spacing" textLength="25.2891" x="947.0788" y="578.1045">LAN</text></g><!--link sylvie to cloud--><g id="link_sylvie_cloud"><path d="M680.2788,496.0294 C602.9588,505.4594 447.1788,530.6494 329.0788,589.6094 C305.4688,601.3994 286.2563,614.8067 267.4163,629.7767 " fill="none" id="sylvie-to-cloud" style="stroke:#181818;stroke-width:1;"/><polygon fill="#181818" points="262.7188,633.5094,272.2536,631.0421,266.6334,630.3988,267.2767,624.7787,262.7188,633.5094" style="stroke:#181818;stroke-width:1;"/><text fill="#000000" font-family="sans-serif" font-size="13" lengthAdjust="spacing" textLength="44.0845" x="380.0788" y="578.1045">Internet</text></g><!--link julien to cloud--><g id="link_julien_cloud"><path d="M834.1188,522.6694 C823.0188,534.9894 808.8088,547.9694 793.0788,555.6094 C766.8988,568.3194 756.8088,558.9394 728.0788,563.6094 C688.2488,570.0794 679.1788,577.0694 639.0788,581.6094 C604.8388,585.4794 361.6888,578.4694 329.0788,589.6094 C302.6388,598.6394 281.8158,613.1432 262.8758,629.5332 " fill="none" id="julien-to-cloud" style="stroke:#181818;stroke-width:1;"/><polygon fill="#181818" points="258.3388,633.4594,267.7618,630.5948,262.1196,630.1875,262.5269,624.5454,258.3388,633.4594" style="stroke:#181818;stroke-width:1;"/><text fill="#000000" font-family="sans-serif" font-size="13" lengthAdjust="spacing" textLength="44.0845" x="729.0788" y="578.1045">Internet</text></g><!--link sylvie to email--><g id="link_sylvie_email"><path d="M680.1988,494.9794 C557.9988,505.5294 237.7288,537.5094 146.0788,589.6094 C127.7388,600.0394 115.6311,612.8121 104.3111,628.4221 " fill="none" id="sylvie-to-email" style="stroke:#181818;stroke-width:1;"/><polygon fill="#181818" points="100.7888,633.2794,109.3105,628.3417,103.7241,629.2317,102.8341,623.6452,100.7888,633.2794" style="stroke:#181818;stroke-width:1;"/><text fill="#000000" font-family="sans-serif" font-size="13" lengthAdjust="spacing" textLength="44.0845" x="213.0788" y="578.1045">Internet</text></g><!--link sylvie to fourn1--><g id="link_sylvie_fourn1"><path d="M680.2988,499.9994 C644.3488,509.3594 597.1288,527.9194 572.0788,563.6094 C557.9488,583.7394 556.0539,605.9466 557.6939,627.5166 " fill="none" id="sylvie-to-fourn1" style="stroke:#181818;stroke-width:1;stroke-dasharray:7.0,7.0;"/><polygon fill="#181818" points="558.1488,633.4994,561.4549,624.222,557.7697,628.5138,553.478,624.8285,558.1488,633.4994" style="stroke:#181818;stroke-width:1;"/><text fill="#000000" font-family="sans-serif" font-size="13" lengthAdjust="spacing" textLength="61.439" x="573.0788" y="578.1045">T&#233;l&#233;phone</text></g><!--link sylvie to fourn2--><g id="link_sylvie_fourn2"><path d="M680.3588,497.6294 C630.1288,506.2694 550.4088,525.1494 492.0788,563.6094 C464.6988,581.6594 444.6312,605.9774 429.1612,628.4474 " fill="none" id="sylvie-to-fourn2" style="stroke:#181818;stroke-width:1;stroke-dasharray:7.0,7.0;"/><polygon fill="#181818" points="425.7588,633.3894,434.1571,628.2447,428.5941,629.271,427.5677,623.7081,425.7588,633.3894" style="stroke:#181818;stroke-width:1;"/><text fill="#000000" font-family="sans-serif" font-size="13" lengthAdjust="spacing" textLength="61.439" x="493.0788" y="578.1045">T&#233;l&#233;phone</text></g><!--SRC=[VLHDRzD04BtxLmpbW1if4KbQFY9HANLijIXD2aaa9C9XwswIfUlTTBqEhH07Zf6GAW52NA0dHCCDgOTA7FrF-WVeJs3MTZxwGPDBCk_jp9itEwkPvXGQLB-HQWzgZFGL2I0F7eyEO9T2JGeHJsW8LQVTSUkMDIJ-7kbJM786H6X6LGXscof5c5XUWhkUvwwuHNXh0RoyEFxq6xQ8yhl26T0U55y12I70GF4ck3I3IpV1vHbSjjujw5YF52KHj5XyqgUem7tWbJrlgk3Z7sWTyX6ZNL7r1qI7IPOm2SqOJoFEg416hqUOeYddTH9CELz-_3qxWXPL8ngfhcYPmbirDyrbekgIf5ey6SQdseXvvAswZnV4n6F5iAECqHKNnvzFeOX98WxRpfqa8qMAoUTp6Ut2qgRGL0cQfBllFVIgQRhph- -DgAQWDSL6s9zxu5CE1oj9ZkHiPkDFS0F2U5Sq8ysbt4kBcD0brPwCb60XIb5XKijyPvFy3WaErKnpEvvmR68W1KtozGnQl49UlurSCjMJsm25mbes4wWiaXEuT3jS_ZziPT5yVYqR4nBgrOQLplPwt3X_FRgO9fr91QP3MKnr3LiycFYz26QO4PzwTqNyLRnqjJaXDJLcDephYSsvd5Vll82Q2xLcen6FtHOu6zLcU_DPnstbSXRoShbj9NTuV1BGi88XW681vgjSYySE7dMTTZnkWQtdzK0AVhYC_58XsoXu0XkTTN3SHljvjGvsNqPSQaCf5-Rl1XudQiWuD_yg2E8d3zCD0ZjCbmguz0bVdkBJkmpsz7xFeSH8ExlBi_22DM0FqHPylBGY_lpWDXbYZs3lI16Qu4e1GyYxnmJsYU-UPbAaNcTRWAJL0cn5NBCXnruKpOU4XOoQxFWMnRy2ypDhDRLtCy25qgcroL3GRv-6OHIYdFWa12PehyTyL8QCysyVe4tmgKNrT1HFZ6fV1W4HfW0J-7k8mzBKQ3a_EZCRFv_M3fVxKJp1VLBnP3-YGK25jgZO1NCth7y0]--></g></svg>