<svg xmlns="http://www.w3.org/2000/svg" xmlns:xlink="http://www.w3.org/1999/xlink" contentStyleType="text/css" height="313px" preserveAspectRatio="none" style="width:926px;height:313px;background:#FFFFFF;" version="1.1" viewBox="0 0 926 313" width="926px" zoomAndPan="magnify"><title>Mind Map - Pain Points Achats &amp; Logistique</title><defs/><g><text fill="#000000" font-family="sans-serif" font-size="14" font-weight="bold" lengthAdjust="spacing" textLength="292.4551" x="315.4082" y="34.5332">Mind Map - Pain Points Achats &amp; Logistique</text><rect fill="#F1F1F1" height="55.2188" rx="12.5" ry="12.5" style="stroke:#181818;stroke-width:1.5;" width="124.624" x="393.2783" y="147.4609"/><text fill="#000000" font-family="sans-serif" font-size="14" lengthAdjust="spacing" textLength="12.0586" x="403.2783" y="171.9941">&#128308;</text><text fill="#000000" font-family="sans-serif" font-size="14" font-weight="bold" lengthAdjust="spacing" textLength="88.6758" x="419.2266" y="171.9941">PROBL&#200;MES</text><text fill="#000000" font-family="sans-serif" font-size="14" font-weight="bold" lengthAdjust="spacing" textLength="68.4551" x="403.2783" y="189.6035">MAJEURS</text><rect fill="#F1F1F1" height="55.2188" rx="12.5" ry="12.5" style="stroke:#181818;stroke-width:1.5;" width="144.9268" x="567.9023" y="60.2188"/><text fill="#000000" font-family="sans-serif" font-size="14" lengthAdjust="spacing" textLength="124.9268" x="577.9023" y="84.752">&#128308; Base de donn&#233;es</text><text fill="#000000" font-family="sans-serif" font-size="14" lengthAdjust="spacing" textLength="49.7861" x="577.9023" y="102.3613">CHAOS</text><text fill="#000000" font-family="sans-serif" font-size="14" lengthAdjust="spacing" textLength="129.1855" x="765.8291" y="64.1426">Doublons r&#233;f&#233;rences</text><path d="M712.8291,87.8281 L722.8291,87.8281 C737.8291,87.8281 737.8291,58.4141 752.8291,58.4141 L762.8291,58.4141 " fill="none" style="stroke:#181818;stroke-width:1;"/><text fill="#000000" font-family="sans-serif" font-size="14" lengthAdjust="spacing" textLength="119.8613" x="765.8291" y="83.752">Donn&#233;es obsol&#232;tes</text><path d="M712.8291,87.8281 L722.8291,87.8281 C737.8291,87.8281 737.8291,78.0234 752.8291,78.0234 L762.8291,78.0234 " fill="none" style="stroke:#181818;stroke-width:1;"/><text fill="#000000" font-family="sans-serif" font-size="14" lengthAdjust="spacing" textLength="112.0615" x="765.8291" y="103.3613">Double tarification</text><path d="M712.8291,87.8281 L722.8291,87.8281 C737.8291,87.8281 737.8291,97.6328 752.8291,97.6328 L762.8291,97.6328 " fill="none" style="stroke:#181818;stroke-width:1;"/><text fill="#000000" font-family="sans-serif" font-size="14" lengthAdjust="spacing" textLength="148.4424" x="765.8291" y="122.9707">Sage MDE "calamiteux"</text><path d="M712.8291,87.8281 L722.8291,87.8281 C737.8291,87.8281 737.8291,117.2422 752.8291,117.2422 L762.8291,117.2422 " fill="none" style="stroke:#181818;stroke-width:1;"/><path d="M517.9023,175.0703 L527.9023,175.0703 C542.9023,175.0703 542.9023,87.8281 557.9023,87.8281 L567.9023,87.8281 " fill="none" style="stroke:#181818;stroke-width:1;"/><rect fill="#F1F1F1" height="55.2188" rx="12.5" ry="12.5" style="stroke:#181818;stroke-width:1.5;" width="98.9756" x="567.9023" y="147.4609"/><text fill="#000000" font-family="sans-serif" font-size="14" lengthAdjust="spacing" textLength="78.9756" x="577.9023" y="171.9941">&#128308; Livraisons</text><text fill="#000000" font-family="sans-serif" font-size="14" lengthAdjust="spacing" textLength="74.7031" x="577.9023" y="189.6035">incompl&#232;tes</text><text fill="#000000" font-family="sans-serif" font-size="14" font-weight="bold" lengthAdjust="spacing" textLength="107.3447" x="719.8779" y="142.5801">Taux insuffisant</text><text fill="#000000" font-family="sans-serif" font-size="14" lengthAdjust="spacing" textLength="56.0205" x="719.8779" y="160.1895">complets</text><path d="M666.8779,175.0703 L676.8779,175.0703 C691.8779,175.0703 691.8779,145.6563 706.8779,145.6563 L716.8779,145.6563 " fill="none" style="stroke:#181818;stroke-width:1;"/><text fill="#000000" font-family="sans-serif" font-size="14" lengthAdjust="spacing" textLength="124.5098" x="719.8779" y="179.7988">Reliquats non suivis</text><path d="M666.8779,175.0703 L676.8779,175.0703 C691.8779,175.0703 691.8779,174.0703 706.8779,174.0703 L716.8779,174.0703 " fill="none" style="stroke:#181818;stroke-width:1;"/><text fill="#000000" font-family="sans-serif" font-size="14" lengthAdjust="spacing" textLength="112.8477" x="719.8779" y="199.4082">Chantiers bloqu&#233;s</text><path d="M666.8779,175.0703 L676.8779,175.0703 C691.8779,175.0703 691.8779,193.6797 706.8779,193.6797 L716.8779,193.6797 " fill="none" style="stroke:#181818;stroke-width:1;"/><text fill="#000000" font-family="sans-serif" font-size="14" lengthAdjust="spacing" textLength="157.9443" x="719.8779" y="219.0176">Re-commandes multiples</text><path d="M666.8779,175.0703 L676.8779,175.0703 C691.8779,175.0703 691.8779,213.2891 706.8779,213.2891 L716.8779,213.2891 " fill="none" style="stroke:#181818;stroke-width:1;"/><path d="M517.9023,175.0703 L527.9023,175.0703 C542.9023,175.0703 542.9023,175.0703 557.9023,175.0703 L567.9023,175.0703 " fill="none" style="stroke:#181818;stroke-width:1;"/><rect fill="#F1F1F1" height="55.2188" rx="12.5" ry="12.5" style="stroke:#181818;stroke-width:1.5;" width="91.5654" x="567.9023" y="234.7031"/><text fill="#000000" font-family="sans-serif" font-size="14" lengthAdjust="spacing" textLength="59.5342" x="577.9023" y="259.2363">&#128308; Pas de</text><text fill="#000000" font-family="sans-serif" font-size="14" lengthAdjust="spacing" textLength="71.5654" x="577.9023" y="276.8457">visibilit&#233; TR</text><text fill="#000000" font-family="sans-serif" font-size="14" lengthAdjust="spacing" textLength="87.9443" x="712.4678" y="238.627">Stock inconnu</text><path d="M659.4678,262.3125 L669.4678,262.3125 C684.4678,262.3125 684.4678,232.8984 699.4678,232.8984 L709.4678,232.8984 " fill="none" style="stroke:#181818;stroke-width:1;"/><text fill="#000000" font-family="sans-serif" font-size="14" lengthAdjust="spacing" textLength="116.7236" x="712.4678" y="258.2363">Statut commandes</text><path d="M659.4678,262.3125 L669.4678,262.3125 C684.4678,262.3125 684.4678,252.5078 699.4678,252.5078 L709.4678,252.5078 " fill="none" style="stroke:#181818;stroke-width:1;"/><text fill="#000000" font-family="sans-serif" font-size="14" lengthAdjust="spacing" textLength="86.3721" x="712.4678" y="277.8457">Co&#251;ts affaires</text><path d="M659.4678,262.3125 L669.4678,262.3125 C684.4678,262.3125 684.4678,272.1172 699.4678,272.1172 L709.4678,272.1172 " fill="none" style="stroke:#181818;stroke-width:1;"/><text fill="#000000" font-family="sans-serif" font-size="14" lengthAdjust="spacing" textLength="128.3994" x="712.4678" y="297.4551">Impossible de piloter</text><path d="M659.4678,262.3125 L669.4678,262.3125 C684.4678,262.3125 684.4678,291.7266 699.4678,291.7266 L709.4678,291.7266 " fill="none" style="stroke:#181818;stroke-width:1;"/><path d="M517.9023,175.0703 L527.9023,175.0703 C542.9023,175.0703 542.9023,262.3125 557.9023,262.3125 L567.9023,262.3125 " fill="none" style="stroke:#181818;stroke-width:1;"/><rect fill="#F1F1F1" height="55.2188" rx="12.5" ry="12.5" style="stroke:#181818;stroke-width:1.5;" width="133.21" x="210.0684" y="69.0234"/><text fill="#000000" font-family="sans-serif" font-size="14" lengthAdjust="spacing" textLength="113.21" x="220.0684" y="93.5566">&#128308; Communication</text><text fill="#000000" font-family="sans-serif" font-size="14" lengthAdjust="spacing" textLength="62.2686" x="220.0684" y="111.166">archa&#239;que</text><text fill="#000000" font-family="sans-serif" font-size="14" lengthAdjust="spacing" textLength="101.1992" x="55.8691" y="72.9473">100% t&#233;l&#233;phone</text><path d="M210.0684,96.6328 L200.0684,96.6328 C185.0684,96.6328 185.0684,67.2188 170.0684,67.2188 L160.0684,67.2188 " fill="none" style="stroke:#181818;stroke-width:1;"/><text fill="#000000" font-family="sans-serif" font-size="14" lengthAdjust="spacing" textLength="61.8105" x="95.2578" y="92.5566">Pas d'EDI</text><path d="M210.0684,96.6328 L200.0684,96.6328 C185.0684,96.6328 185.0684,86.8281 170.0684,86.8281 L160.0684,86.8281 " fill="none" style="stroke:#181818;stroke-width:1;"/><text fill="#000000" font-family="sans-serif" font-size="14" lengthAdjust="spacing" textLength="61.0381" x="96.0303" y="112.166">Pas d'API</text><path d="M210.0684,96.6328 L200.0684,96.6328 C185.0684,96.6328 185.0684,106.4375 170.0684,106.4375 L160.0684,106.4375 " fill="none" style="stroke:#181818;stroke-width:1;"/><text fill="#000000" font-family="sans-serif" font-size="14" lengthAdjust="spacing" textLength="147.0684" x="10" y="131.7754">Commandes manuelles</text><path d="M210.0684,96.6328 L200.0684,96.6328 C185.0684,96.6328 185.0684,126.0469 170.0684,126.0469 L160.0684,126.0469 " fill="none" style="stroke:#181818;stroke-width:1;"/><path d="M393.2783,175.0703 L383.2783,175.0703 C368.2783,175.0703 368.2783,96.6328 353.2783,96.6328 L343.2783,96.6328 " fill="none" style="stroke:#181818;stroke-width:1;"/><rect fill="#F1F1F1" height="55.2188" rx="12.5" ry="12.5" style="stroke:#181818;stroke-width:1.5;" width="105.6133" x="237.665" y="147.4609"/><text fill="#000000" font-family="sans-serif" font-size="14" lengthAdjust="spacing" textLength="81.3066" x="247.665" y="171.9941">&#128308; Processus</text><text fill="#000000" font-family="sans-serif" font-size="14" lengthAdjust="spacing" textLength="85.6133" x="247.665" y="189.6035">100% manuel</text><text fill="#000000" font-family="sans-serif" font-size="14" lengthAdjust="spacing" textLength="123.7305" x="60.9346" y="151.3848">Z&#233;ro automatisation</text><path d="M237.665,175.0703 L227.665,175.0703 C212.665,175.0703 212.665,145.6563 197.665,145.6563 L187.665,145.6563 " fill="none" style="stroke:#181818;stroke-width:1;"/><text fill="#000000" font-family="sans-serif" font-size="14" lengthAdjust="spacing" textLength="109.7236" x="74.9414" y="170.9941">Z&#233;ro digitalisation</text><path d="M237.665,175.0703 L227.665,175.0703 C212.665,175.0703 212.665,165.2656 197.665,165.2656 L187.665,165.2656 " fill="none" style="stroke:#181818;stroke-width:1;"/><text fill="#000000" font-family="sans-serif" font-size="14" lengthAdjust="spacing" textLength="117.9268" x="66.7383" y="190.6035">Papier + t&#233;l&#233;phone</text><path d="M237.665,175.0703 L227.665,175.0703 C212.665,175.0703 212.665,184.875 197.665,184.875 L187.665,184.875 " fill="none" style="stroke:#181818;stroke-width:1;"/><text fill="#000000" font-family="sans-serif" font-size="14" lengthAdjust="spacing" textLength="121.3721" x="63.293" y="210.2129">Multiples ressaisies</text><path d="M237.665,175.0703 L227.665,175.0703 C212.665,175.0703 212.665,204.4844 197.665,204.4844 L187.665,204.4844 " fill="none" style="stroke:#181818;stroke-width:1;"/><path d="M393.2783,175.0703 L383.2783,175.0703 C368.2783,175.0703 368.2783,175.0703 353.2783,175.0703 L343.2783,175.0703 " fill="none" style="stroke:#181818;stroke-width:1;"/><rect fill="#F1F1F1" height="55.2188" rx="12.5" ry="12.5" style="stroke:#181818;stroke-width:1.5;" width="83.4307" x="259.8477" y="225.8984"/><text fill="#000000" font-family="sans-serif" font-size="14" lengthAdjust="spacing" textLength="63.4307" x="269.8477" y="250.4316">&#128308; Aucune</text><text fill="#000000" font-family="sans-serif" font-size="14" lengthAdjust="spacing" textLength="59.917" x="269.8477" y="268.041">tra&#231;abilit&#233;</text><text fill="#000000" font-family="sans-serif" font-size="14" lengthAdjust="spacing" textLength="144.751" x="62.0967" y="229.8223">Qui a command&#233; quoi?</text><path d="M259.8477,253.5078 L249.8477,253.5078 C234.8477,253.5078 234.8477,224.0938 219.8477,224.0938 L209.8477,224.0938 " fill="none" style="stroke:#181818;stroke-width:1;"/><text fill="#000000" font-family="sans-serif" font-size="14" lengthAdjust="spacing" textLength="131.5371" x="75.3105" y="249.4316">Validation non trac&#233;e</text><path d="M259.8477,253.5078 L249.8477,253.5078 C234.8477,253.5078 234.8477,243.7031 219.8477,243.7031 L209.8477,243.7031 " fill="none" style="stroke:#181818;stroke-width:1;"/><text fill="#000000" font-family="sans-serif" font-size="14" lengthAdjust="spacing" textLength="88.7031" x="118.1445" y="269.041">Emails perdus</text><path d="M259.8477,253.5078 L249.8477,253.5078 C234.8477,253.5078 234.8477,263.3125 219.8477,263.3125 L209.8477,263.3125 " fill="none" style="stroke:#181818;stroke-width:1;"/><text fill="#000000" font-family="sans-serif" font-size="14" lengthAdjust="spacing" textLength="102.7305" x="104.1172" y="288.6504">Litiges fr&#233;quents</text><path d="M259.8477,253.5078 L249.8477,253.5078 C234.8477,253.5078 234.8477,282.9219 219.8477,282.9219 L209.8477,282.9219 " fill="none" style="stroke:#181818;stroke-width:1;"/><path d="M393.2783,175.0703 L383.2783,175.0703 C368.2783,175.0703 368.2783,253.5078 353.2783,253.5078 L343.2783,253.5078 " fill="none" style="stroke:#181818;stroke-width:1;"/><!--SRC=[PLFDRjD04BxlKumg0QrHgWQ5gig5febBMyNK96aFA5AriTVfYFMkkpzHUGCUW3j7o8aBDuv-8Hw1yK_IL4YMhDtvvfjllfazjOuRbwDASrv0p57TnHgLitU3v9xJRwoNQ1q-UC6OGoS5H0I6YD2T6WyD7Xeyl8JTZ03-Vl_s6u8WdboVZSklKJWDWhaAWcXm5TvCwC225dF6hO2KFgrKkHPsheONW-ifnOCx66c_a5fPCEKwAzT6g4JOJQZ1WrvOBSkVxYb0EGAeFymmuGwrQW9JlgGkHY7i9Lpo79tmZtjiAsICAyFHKhMvGfNelDXb3O8Pzu-0oleiGykLgnggKSArc8cGr7xbXj8AhCSLjf7XFIMWC1QedGTVhhSP7QB8kKgfaTnBXqHddpJ5t98tSqL4k429hbp3RDAsutJo6IgbIldD5NVUmPQoBQxBFwI9Pnb7ixcyp0jjYLJMvXSejHE6CIao1nPJyQHXI6nUjKxE5JSqyF9NDUQQg7jqz098bopNnRrMxMqj_5Kukjmz3kBBZQ9jprnv8P_tR3GDsNeQGytTG9h4JxG36hXtEYSvTcUuJIJ59JekdqLYNf3pyFf_aT76S21RBCqUTtKCVE8LUUyCBt_mrlqcyQD7u1kRQIGFNkEx9dHBrTEwUhq4b9pGbZQnCESeBHJ2fBuTmnWTBab0HWjEbjA3OknKqAjiNYPZiQJDkOd6iABjgLYxXs-EtlGEJ_RF3S87lOBkM-YUz7kzVkyOXk4Cgl01styVZy5gRn8QCBrBWmjVgJfWLtp5OU9f7tFHX-gqFuiEO1fkBY6aVJDQvII7NTr63GWkj9iMsjNWurxd31rCXI5PS1knaSWukKcfYKvHBVjmCplldB0nLqjFxwvF7RAXfWBcIn_E9_y0]--></g></svg>