<svg xmlns="http://www.w3.org/2000/svg" xmlns:xlink="http://www.w3.org/1999/xlink" contentStyleType="text/css" height="1306px" preserveAspectRatio="none" style="width:1130px;height:1306px;background:#FFFFFF;" version="1.1" viewBox="0 0 1130 1306" width="1130px" zoomAndPan="magnify"><title>Processus Commande - CIBLE (Optimis&#233;)</title><defs/><g><text fill="#000000" font-family="sans-serif" font-size="14" font-weight="bold" lengthAdjust="spacing" textLength="278.5029" x="424.7166" y="34.5332">Processus Commande - CIBLE (Optimis&#233;)</text><rect fill="none" height="22.6406" style="stroke:none;stroke-width:1;" width="1097.936" x="15" y="51.0645"/><ellipse cx="180.4087" cy="88.7051" fill="#222222" rx="10" ry="10" style="stroke:#222222;stroke-width:1;"/><rect fill="#F1F1F1" height="35.0938" rx="12.5" ry="12.5" style="stroke:#181818;stroke-width:0.5;" width="146.7383" x="107.0396" y="118.7051"/><text fill="#000000" font-family="sans-serif" font-size="12" lengthAdjust="spacing" textLength="126.7383" x="117.0396" y="141.1621">Identifie besoin mat&#233;riel</text><rect fill="#F1F1F1" height="35.0938" rx="12.5" ry="12.5" style="stroke:#181818;stroke-width:0.5;" width="148.7363" x="106.0405" y="173.7988"/><text fill="#000000" font-family="sans-serif" font-size="12" lengthAdjust="spacing" textLength="128.7363" x="116.0405" y="196.2559">Ouvre App Mobile Odoo</text><polygon fill="#F1F1F1" points="155.033,228.8926,205.7844,228.8926,217.7844,240.8926,205.7844,252.8926,155.033,252.8926,143.033,240.8926,155.033,228.8926" style="stroke:#181818;stroke-width:0.5;"/><text fill="#000000" font-family="sans-serif" font-size="11" lengthAdjust="spacing" textLength="50.7515" x="155.033" y="245.3936">Urgence ?</text><text fill="#000000" font-family="sans-serif" font-size="11" lengthAdjust="spacing" textLength="17.1177" x="125.9153" y="238.4756">Oui</text><text fill="#000000" font-family="sans-serif" font-size="11" lengthAdjust="spacing" textLength="20.1792" x="217.7844" y="238.4756">Non</text><rect fill="#F1F1F1" height="35.0938" rx="12.5" ry="12.5" style="stroke:#181818;stroke-width:0.5;" width="154.7422" x="21" y="262.8926"/><text fill="#000000" font-family="sans-serif" font-size="12" lengthAdjust="spacing" textLength="134.7422" x="31" y="285.3496">Scan code-barres produit</text><rect fill="#F1F1F1" height="35.0938" rx="12.5" ry="12.5" style="stroke:#181818;stroke-width:0.5;" width="133.4082" x="195.7422" y="262.8926"/><text fill="#000000" font-family="sans-serif" font-size="12" lengthAdjust="spacing" textLength="113.4082" x="205.7422" y="285.3496">Recherche catalogue</text><polygon fill="#F1F1F1" points="180.4087,303.9863,192.4087,315.9863,180.4087,327.9863,168.4087,315.9863,180.4087,303.9863" style="stroke:#181818;stroke-width:0.5;"/><rect fill="#F1F1F1" height="35.0938" rx="12.5" ry="12.5" style="stroke:#181818;stroke-width:0.5;" width="107.3984" x="126.7095" y="347.9863"/><text fill="#000000" font-family="sans-serif" font-size="12" lengthAdjust="spacing" textLength="87.3984" x="136.7095" y="370.4434">Ajoute au panier</text><rect fill="#F1F1F1" height="35.0938" rx="12.5" ry="12.5" style="stroke:#181818;stroke-width:0.5;" width="106.7305" x="127.0435" y="403.0801"/><text fill="#000000" font-family="sans-serif" font-size="12" lengthAdjust="spacing" textLength="86.7305" x="137.0435" y="425.5371">Valide demande</text><rect fill="#F1F1F1" height="35.0938" rx="12.5" ry="12.5" style="stroke:#181818;stroke-width:0.5;" width="122.5625" x="119.1274" y="1162.2051"/><text fill="#000000" font-family="sans-serif" font-size="12" lengthAdjust="spacing" textLength="102.5625" x="129.1274" y="1184.6621">Re&#231;oit notif "Dispo"</text><rect fill="#F1F1F1" height="35.0938" rx="12.5" ry="12.5" style="stroke:#181818;stroke-width:0.5;" width="118.0449" x="121.3862" y="1217.2988"/><text fill="#000000" font-family="sans-serif" font-size="12" lengthAdjust="spacing" textLength="98.0449" x="131.3862" y="1239.7559">R&#233;cup&#232;re mat&#233;riel</text><ellipse cx="180.4087" cy="1283.3926" fill="none" rx="11" ry="11" style="stroke:#222222;stroke-width:1;"/><ellipse cx="180.4087" cy="1283.3926" fill="#222222" rx="6" ry="6" style="stroke:#222222;stroke-width:1;"/><line style="stroke:#000000;stroke-width:1.5;" x1="15" x2="15" y1="51.0645" y2="1294.3926"/><rect fill="#F1F1F1" height="35.0938" rx="12.5" ry="12.5" style="stroke:#181818;stroke-width:0.5;" width="114.7168" x="436.5337" y="458.1738"/><text fill="#000000" font-family="sans-serif" font-size="12" lengthAdjust="spacing" textLength="94.7168" x="446.5337" y="480.6309">Re&#231;oit notification</text><rect fill="#F1F1F1" height="35.0938" rx="12.5" ry="12.5" style="stroke:#181818;stroke-width:0.5;" width="180.7461" x="403.519" y="513.2676"/><text fill="#000000" font-family="sans-serif" font-size="12" lengthAdjust="spacing" textLength="160.7461" x="413.519" y="535.7246">V&#233;rifie demande (Prix/Budget)</text><polygon fill="#F1F1F1" points="474.0164,568.3613,513.7678,568.3613,525.7678,580.3613,513.7678,592.3613,474.0164,592.3613,462.0164,580.3613,474.0164,568.3613" style="stroke:#181818;stroke-width:0.5;"/><text fill="#000000" font-family="sans-serif" font-size="11" lengthAdjust="spacing" textLength="39.7515" x="474.0164" y="584.8623">Valid&#233; ?</text><text fill="#000000" font-family="sans-serif" font-size="11" lengthAdjust="spacing" textLength="17.1177" x="444.8987" y="577.9443">Oui</text><text fill="#000000" font-family="sans-serif" font-size="11" lengthAdjust="spacing" textLength="20.1792" x="525.7678" y="577.9443">Non</text><rect fill="#F1F1F1" height="35.0938" rx="12.5" ry="12.5" style="stroke:#181818;stroke-width:0.5;" width="100.7129" x="367.5039" y="602.3613"/><text fill="#000000" font-family="sans-serif" font-size="12" lengthAdjust="spacing" textLength="80.7129" x="377.5039" y="624.8184">Valide en 1 clic</text><rect fill="#F1F1F1" height="35.0938" rx="12.5" ry="12.5" style="stroke:#181818;stroke-width:0.5;" width="157.4199" x="339.1504" y="657.4551"/><text fill="#000000" font-family="sans-serif" font-size="12" lengthAdjust="spacing" textLength="137.4199" x="349.1504" y="679.9121">Commande envoy&#233;e auto</text><rect fill="#F1F1F1" height="35.0938" rx="12.5" ry="12.5" style="stroke:#181818;stroke-width:0.5;" width="106.707" x="516.5703" y="602.3613"/><text fill="#000000" font-family="sans-serif" font-size="12" lengthAdjust="spacing" textLength="86.707" x="526.5703" y="624.8184">Modifie / Rejette</text><ellipse cx="569.9238" cy="668.4551" fill="none" rx="11" ry="11" style="stroke:#222222;stroke-width:1;"/><ellipse cx="569.9238" cy="668.4551" fill="#222222" rx="6" ry="6" style="stroke:#222222;stroke-width:1;"/><line style="stroke:#000000;stroke-width:1.5;" x1="333.1504" x2="333.1504" y1="51.0645" y2="1294.3926"/><rect fill="#F1F1F1" height="35.0938" rx="12.5" ry="12.5" style="stroke:#181818;stroke-width:0.5;" width="181.3789" x="633.2773" y="712.5488"/><text fill="#000000" font-family="sans-serif" font-size="12" lengthAdjust="spacing" textLength="161.3789" x="643.2773" y="735.0059">Re&#231;oit commande (Email/EDI)</text><rect fill="#F1F1F1" height="35.0938" rx="12.5" ry="12.5" style="stroke:#181818;stroke-width:0.5;" width="120.7285" x="663.6025" y="767.6426"/><text fill="#000000" font-family="sans-serif" font-size="12" lengthAdjust="spacing" textLength="100.7285" x="673.6025" y="790.0996">Pr&#233;pare &amp; Exp&#233;die</text><line style="stroke:#000000;stroke-width:1.5;" x1="627.2773" x2="627.2773" y1="51.0645" y2="1294.3926"/><rect fill="#F1F1F1" height="35.0938" rx="12.5" ry="12.5" style="stroke:#181818;stroke-width:0.5;" width="126.0488" x="903.3511" y="822.7363"/><text fill="#000000" font-family="sans-serif" font-size="12" lengthAdjust="spacing" textLength="106.0488" x="913.3511" y="845.1934">Re&#231;oit marchandise</text><rect fill="#F1F1F1" height="35.0938" rx="12.5" ry="12.5" style="stroke:#181818;stroke-width:0.5;" width="145.3848" x="893.6831" y="877.8301"/><text fill="#000000" font-family="sans-serif" font-size="12" lengthAdjust="spacing" textLength="125.3848" x="903.6831" y="900.2871">Scan RFID colis/palette</text><rect fill="#F1F1F1" height="35.0938" rx="12.5" ry="12.5" style="stroke:#181818;stroke-width:0.5;" width="138.084" x="897.3335" y="932.9238"/><text fill="#000000" font-family="sans-serif" font-size="12" lengthAdjust="spacing" textLength="118.084" x="907.3335" y="955.3809">Contr&#244;le quantit&#233; auto</text><polygon fill="#F1F1F1" points="937.6401,988.0176,995.1108,988.0176,1007.1108,1000.0176,995.1108,1012.0176,937.6401,1012.0176,925.6401,1000.0176,937.6401,988.0176" style="stroke:#181818;stroke-width:0.5;"/><text fill="#000000" font-family="sans-serif" font-size="11" lengthAdjust="spacing" textLength="57.4707" x="937.6401" y="1004.5186">Conforme ?</text><text fill="#000000" font-family="sans-serif" font-size="11" lengthAdjust="spacing" textLength="17.1177" x="908.5225" y="997.6006">Oui</text><text fill="#000000" font-family="sans-serif" font-size="11" lengthAdjust="spacing" textLength="20.1792" x="1007.1108" y="997.6006">Non</text><rect fill="#F1F1F1" height="35.0938" rx="12.5" ry="12.5" style="stroke:#181818;stroke-width:0.5;" width="106.0566" x="837.6523" y="1022.0176"/><text fill="#000000" font-family="sans-serif" font-size="12" lengthAdjust="spacing" textLength="86.0566" x="847.6523" y="1044.4746">Valide r&#233;ception</text><rect fill="#F1F1F1" height="35.0938" rx="12.5" ry="12.5" style="stroke:#181818;stroke-width:0.5;" width="132.0488" x="824.6563" y="1077.1113"/><text fill="#000000" font-family="sans-serif" font-size="12" lengthAdjust="spacing" textLength="112.0488" x="834.6563" y="1099.5684">Stock mis &#224; jour auto</text><rect fill="#F1F1F1" height="35.0938" rx="12.5" ry="12.5" style="stroke:#181818;stroke-width:0.5;" width="130.7305" x="976.7051" y="1022.0176"/><text fill="#000000" font-family="sans-serif" font-size="12" lengthAdjust="spacing" textLength="110.7305" x="986.7051" y="1044.4746">Signale litige (Photo)</text><polygon fill="#F1F1F1" points="966.3755,1118.2051,978.3755,1130.2051,966.3755,1142.2051,954.3755,1130.2051,966.3755,1118.2051" style="stroke:#181818;stroke-width:0.5;"/><line style="stroke:#000000;stroke-width:1.5;" x1="818.6563" x2="818.6563" y1="51.0645" y2="1294.3926"/><line style="stroke:#000000;stroke-width:1.5;" x1="1111.4355" x2="1111.4355" y1="51.0645" y2="1294.3926"/><line style="stroke:#181818;stroke-width:1;" x1="180.4087" x2="180.4087" y1="98.7051" y2="118.7051"/><polygon fill="#181818" points="176.4087,108.7051,180.4087,118.7051,184.4087,108.7051,180.4087,112.7051" style="stroke:#181818;stroke-width:1;"/><line style="stroke:#181818;stroke-width:1;" x1="180.4087" x2="180.4087" y1="153.7988" y2="173.7988"/><polygon fill="#181818" points="176.4087,163.7988,180.4087,173.7988,184.4087,163.7988,180.4087,167.7988" style="stroke:#181818;stroke-width:1;"/><line style="stroke:#181818;stroke-width:1;" x1="143.033" x2="98.3711" y1="240.8926" y2="240.8926"/><line style="stroke:#181818;stroke-width:1;" x1="98.3711" x2="98.3711" y1="240.8926" y2="262.8926"/><polygon fill="#181818" points="94.3711,252.8926,98.3711,262.8926,102.3711,252.8926,98.3711,256.8926" style="stroke:#181818;stroke-width:1;"/><line style="stroke:#181818;stroke-width:1;" x1="217.7844" x2="262.4463" y1="240.8926" y2="240.8926"/><line style="stroke:#181818;stroke-width:1;" x1="262.4463" x2="262.4463" y1="240.8926" y2="262.8926"/><polygon fill="#181818" points="258.4463,252.8926,262.4463,262.8926,266.4463,252.8926,262.4463,256.8926" style="stroke:#181818;stroke-width:1;"/><line style="stroke:#181818;stroke-width:1;" x1="98.3711" x2="98.3711" y1="297.9863" y2="315.9863"/><line style="stroke:#181818;stroke-width:1;" x1="98.3711" x2="168.4087" y1="315.9863" y2="315.9863"/><polygon fill="#181818" points="158.4087,311.9863,168.4087,315.9863,158.4087,319.9863,162.4087,315.9863" style="stroke:#181818;stroke-width:1;"/><line style="stroke:#181818;stroke-width:1;" x1="262.4463" x2="262.4463" y1="297.9863" y2="315.9863"/><line style="stroke:#181818;stroke-width:1;" x1="262.4463" x2="192.4087" y1="315.9863" y2="315.9863"/><polygon fill="#181818" points="202.4087,311.9863,192.4087,315.9863,202.4087,319.9863,198.4087,315.9863" style="stroke:#181818;stroke-width:1;"/><line style="stroke:#181818;stroke-width:1;" x1="180.4087" x2="180.4087" y1="208.8926" y2="228.8926"/><polygon fill="#181818" points="176.4087,218.8926,180.4087,228.8926,184.4087,218.8926,180.4087,222.8926" style="stroke:#181818;stroke-width:1;"/><line style="stroke:#181818;stroke-width:1;" x1="180.4087" x2="180.4087" y1="327.9863" y2="347.9863"/><polygon fill="#181818" points="176.4087,337.9863,180.4087,347.9863,184.4087,337.9863,180.4087,341.9863" style="stroke:#181818;stroke-width:1;"/><line style="stroke:#181818;stroke-width:1;" x1="180.4087" x2="180.4087" y1="383.0801" y2="403.0801"/><polygon fill="#181818" points="176.4087,393.0801,180.4087,403.0801,184.4087,393.0801,180.4087,397.0801" style="stroke:#181818;stroke-width:1;"/><line style="stroke:#181818;stroke-width:1;" x1="180.4087" x2="180.4087" y1="1197.2988" y2="1217.2988"/><polygon fill="#181818" points="176.4087,1207.2988,180.4087,1217.2988,184.4087,1207.2988,180.4087,1211.2988" style="stroke:#181818;stroke-width:1;"/><line style="stroke:#181818;stroke-width:1;" x1="180.4087" x2="180.4087" y1="1252.3926" y2="1272.3926"/><polygon fill="#181818" points="176.4087,1262.3926,180.4087,1272.3926,184.4087,1262.3926,180.4087,1266.3926" style="stroke:#181818;stroke-width:1;"/><line style="stroke:#181818;stroke-width:1;" x1="493.8921" x2="493.8921" y1="493.2676" y2="513.2676"/><polygon fill="#181818" points="489.8921,503.2676,493.8921,513.2676,497.8921,503.2676,493.8921,507.2676" style="stroke:#181818;stroke-width:1;"/><line style="stroke:#181818;stroke-width:1;" x1="417.8604" x2="417.8604" y1="637.4551" y2="657.4551"/><polygon fill="#181818" points="413.8604,647.4551,417.8604,657.4551,421.8604,647.4551,417.8604,651.4551" style="stroke:#181818;stroke-width:1;"/><line style="stroke:#181818;stroke-width:1;" x1="569.9238" x2="569.9238" y1="637.4551" y2="657.4551"/><polygon fill="#181818" points="565.9238,647.4551,569.9238,657.4551,573.9238,647.4551,569.9238,651.4551" style="stroke:#181818;stroke-width:1;"/><line style="stroke:#181818;stroke-width:1;" x1="462.0164" x2="417.8604" y1="580.3613" y2="580.3613"/><line style="stroke:#181818;stroke-width:1;" x1="417.8604" x2="417.8604" y1="580.3613" y2="602.3613"/><polygon fill="#181818" points="413.8604,592.3613,417.8604,602.3613,421.8604,592.3613,417.8604,596.3613" style="stroke:#181818;stroke-width:1;"/><line style="stroke:#181818;stroke-width:1;" x1="525.7678" x2="569.9238" y1="580.3613" y2="580.3613"/><line style="stroke:#181818;stroke-width:1;" x1="569.9238" x2="569.9238" y1="580.3613" y2="602.3613"/><polygon fill="#181818" points="565.9238,592.3613,569.9238,602.3613,573.9238,592.3613,569.9238,596.3613" style="stroke:#181818;stroke-width:1;"/><line style="stroke:#181818;stroke-width:1;" x1="417.8604" x2="417.8604" y1="692.5488" y2="697.5488"/><line style="stroke:#181818;stroke-width:1;" x1="417.8604" x2="723.9668" y1="697.5488" y2="697.5488"/><line style="stroke:#181818;stroke-width:1;" x1="723.9668" x2="723.9668" y1="697.5488" y2="712.5488"/><polygon fill="#181818" points="719.9668,702.5488,723.9668,712.5488,727.9668,702.5488,723.9668,706.5488" style="stroke:#181818;stroke-width:1;"/><line style="stroke:#181818;stroke-width:1;" x1="493.8921" x2="493.8921" y1="548.3613" y2="568.3613"/><polygon fill="#181818" points="489.8921,558.3613,493.8921,568.3613,497.8921,558.3613,493.8921,562.3613" style="stroke:#181818;stroke-width:1;"/><line style="stroke:#181818;stroke-width:1;" x1="723.9668" x2="723.9668" y1="747.6426" y2="767.6426"/><polygon fill="#181818" points="719.9668,757.6426,723.9668,767.6426,727.9668,757.6426,723.9668,761.6426" style="stroke:#181818;stroke-width:1;"/><line style="stroke:#181818;stroke-width:1;" x1="966.3755" x2="966.3755" y1="857.8301" y2="877.8301"/><polygon fill="#181818" points="962.3755,867.8301,966.3755,877.8301,970.3755,867.8301,966.3755,871.8301" style="stroke:#181818;stroke-width:1;"/><line style="stroke:#181818;stroke-width:1;" x1="966.3755" x2="966.3755" y1="912.9238" y2="932.9238"/><polygon fill="#181818" points="962.3755,922.9238,966.3755,932.9238,970.3755,922.9238,966.3755,926.9238" style="stroke:#181818;stroke-width:1;"/><line style="stroke:#181818;stroke-width:1;" x1="890.6807" x2="890.6807" y1="1057.1113" y2="1077.1113"/><polygon fill="#181818" points="886.6807,1067.1113,890.6807,1077.1113,894.6807,1067.1113,890.6807,1071.1113" style="stroke:#181818;stroke-width:1;"/><line style="stroke:#181818;stroke-width:1;" x1="925.6401" x2="890.6807" y1="1000.0176" y2="1000.0176"/><line style="stroke:#181818;stroke-width:1;" x1="890.6807" x2="890.6807" y1="1000.0176" y2="1022.0176"/><polygon fill="#181818" points="886.6807,1012.0176,890.6807,1022.0176,894.6807,1012.0176,890.6807,1016.0176" style="stroke:#181818;stroke-width:1;"/><line style="stroke:#181818;stroke-width:1;" x1="1007.1108" x2="1042.0703" y1="1000.0176" y2="1000.0176"/><line style="stroke:#181818;stroke-width:1;" x1="1042.0703" x2="1042.0703" y1="1000.0176" y2="1022.0176"/><polygon fill="#181818" points="1038.0703,1012.0176,1042.0703,1022.0176,1046.0703,1012.0176,1042.0703,1016.0176" style="stroke:#181818;stroke-width:1;"/><line style="stroke:#181818;stroke-width:1;" x1="890.6807" x2="890.6807" y1="1112.2051" y2="1130.2051"/><line style="stroke:#181818;stroke-width:1;" x1="890.6807" x2="954.3755" y1="1130.2051" y2="1130.2051"/><polygon fill="#181818" points="944.3755,1126.2051,954.3755,1130.2051,944.3755,1134.2051,948.3755,1130.2051" style="stroke:#181818;stroke-width:1;"/><line style="stroke:#181818;stroke-width:1;" x1="1042.0703" x2="1042.0703" y1="1057.1113" y2="1130.2051"/><line style="stroke:#181818;stroke-width:1;" x1="1042.0703" x2="978.3755" y1="1130.2051" y2="1130.2051"/><polygon fill="#181818" points="988.3755,1126.2051,978.3755,1130.2051,988.3755,1134.2051,984.3755,1130.2051" style="stroke:#181818;stroke-width:1;"/><line style="stroke:#181818;stroke-width:1;" x1="966.3755" x2="966.3755" y1="968.0176" y2="988.0176"/><polygon fill="#181818" points="962.3755,978.0176,966.3755,988.0176,970.3755,978.0176,966.3755,982.0176" style="stroke:#181818;stroke-width:1;"/><line style="stroke:#181818;stroke-width:1;" x1="180.4087" x2="180.4087" y1="438.1738" y2="443.1738"/><line style="stroke:#181818;stroke-width:1;" x1="180.4087" x2="493.8921" y1="443.1738" y2="443.1738"/><line style="stroke:#181818;stroke-width:1;" x1="493.8921" x2="493.8921" y1="443.1738" y2="458.1738"/><polygon fill="#181818" points="489.8921,448.1738,493.8921,458.1738,497.8921,448.1738,493.8921,452.1738" style="stroke:#181818;stroke-width:1;"/><line style="stroke:#181818;stroke-width:1;" x1="723.9668" x2="723.9668" y1="802.7363" y2="807.7363"/><line style="stroke:#181818;stroke-width:1;" x1="723.9668" x2="966.3755" y1="807.7363" y2="807.7363"/><line style="stroke:#181818;stroke-width:1;" x1="966.3755" x2="966.3755" y1="807.7363" y2="822.7363"/><polygon fill="#181818" points="962.3755,812.7363,966.3755,822.7363,970.3755,812.7363,966.3755,816.7363" style="stroke:#181818;stroke-width:1;"/><line style="stroke:#181818;stroke-width:1;" x1="966.3755" x2="966.3755" y1="1142.2051" y2="1147.2051"/><line style="stroke:#181818;stroke-width:1;" x1="966.3755" x2="180.4087" y1="1147.2051" y2="1147.2051"/><line style="stroke:#181818;stroke-width:1;" x1="180.4087" x2="180.4087" y1="1147.2051" y2="1162.2051"/><polygon fill="#181818" points="176.4087,1152.2051,180.4087,1162.2051,184.4087,1152.2051,180.4087,1156.2051" style="stroke:#181818;stroke-width:1;"/><text fill="#000000" font-family="sans-serif" font-size="18" lengthAdjust="spacing" textLength="125.0244" x="111.563" y="69.75">Chantier (Marc)</text><text fill="#000000" font-family="sans-serif" font-size="18" lengthAdjust="spacing" textLength="123.0469" x="418.6904" y="69.75">Bureau (Sylvie)</text><text fill="#000000" font-family="sans-serif" font-size="18" lengthAdjust="spacing" textLength="95.0361" x="675.4487" y="69.75">Fournisseur</text><text fill="#000000" font-family="sans-serif" font-size="18" lengthAdjust="spacing" textLength="96.0205" x="917.0356" y="69.75">D&#233;p&#244;t (&#201;ric)</text><!--SRC=[TP9DRjj038NtEWMHHI4j0gDRQL74Fm4CrBLXezsFHxJDL1fEvyT805-Wj-YkrJutc8kLaft0RTg5DXI7VDzx31GQX9LZZTv73nDkMsLgX5kOpCSVPv0lRQ2MVEgAB3jD3ie4GWVvGZbTd38Vb0jPEQzHwZj2sA9dCj2ga3f7s5HPkOn7Xt1dBInuIx9kMJDN6UqW_-psQ3J2XmB20OriYrHa0EL6AmEQQxpTAkVGWtLSHmfLXer7o3-n6VhMg0_ev0EjWcfu7r5QJ4sxhBnxu1WGL0IhZ8WMALzKGm9Num1P2T4uEfIEVFFK70c5I4Qcdqm13FT4CfROz4zxdfxmyXZobQF7qJZMUmp56MSOdxgtE9UzKdeFkY5TzSLNhz4S-IbrlTJ0VnCkk1xMZc2D3nW2zczzO7l1p4xt79qXxp6wA_dwPNe-QnKrezbqBYhBbKkTLPB7EvWzsjJLDDWmbMfw3f2dxuxqjGsj12sfr-IbyPpB-du-bVaD-P5LpLcJq9ZWqhF4-otsHoBvNtXwP-JlZbsB_xL6P6cqPw_x_0Fhho1t1-a7I8xkdzviQ6z403GKQDydSk30HVNgp9jp_JDSk9cIjtmZwjUoFjhqIuovEjt1vjy0]--></g></svg>