<svg xmlns="http://www.w3.org/2000/svg" xmlns:xlink="http://www.w3.org/1999/xlink" contentStyleType="text/css" height="295px" preserveAspectRatio="none" style="width:893px;height:295px;background:#FFFFFF;" version="1.1" viewBox="0 0 893 295" width="893px" zoomAndPan="magnify"><title>Mind Map - Solutions Cibles (Odoo + RFID)</title><defs/><g><text fill="#000000" font-family="sans-serif" font-size="14" font-weight="bold" lengthAdjust="spacing" textLength="285.0381" x="302.7617" y="34.5332">Mind Map - Solutions Cibles (Odoo + RFID)</text><rect fill="#F1F1F1" height="55.2188" rx="12.5" ry="12.5" style="stroke:#181818;stroke-width:1.5;" width="101.6689" x="394.4268" y="138.6563"/><text fill="#000000" font-family="sans-serif" font-size="14" font-weight="bold" lengthAdjust="spacing" textLength="81.6689" x="404.4268" y="163.1895">SOLUTIONS</text><text fill="#000000" font-family="sans-serif" font-size="14" font-weight="bold" lengthAdjust="spacing" textLength="51.3379" x="404.4268" y="180.7988">CIBLES</text><rect fill="#F1F1F1" height="55.2188" rx="12.5" ry="12.5" style="stroke:#181818;stroke-width:1.5;" width="143.1699" x="546.0957" y="60.2188"/><text fill="#000000" font-family="sans-serif" font-size="14" lengthAdjust="spacing" textLength="123.1699" x="556.0957" y="84.752">Base de Donn&#195;&#169;es</text><text fill="#000000" font-family="sans-serif" font-size="14" lengthAdjust="spacing" textLength="54.4482" x="556.0957" y="102.3613">UNIQUE</text><text fill="#000000" font-family="sans-serif" font-size="14" lengthAdjust="spacing" textLength="136.582" x="742.2656" y="64.1426">R&#195;&#169;f&#195;&#169;rence Unique</text><path d="M689.2656,87.8281 L699.2656,87.8281 C714.2656,87.8281 714.2656,58.4141 729.2656,58.4141 L739.2656,58.4141 " fill="none" style="stroke:#181818;stroke-width:1;"/><text fill="#000000" font-family="sans-serif" font-size="14" lengthAdjust="spacing" textLength="98.834" x="742.2656" y="83.752">Photos Produits</text><path d="M689.2656,87.8281 L699.2656,87.8281 C714.2656,87.8281 714.2656,78.0234 729.2656,78.0234 L739.2656,78.0234 " fill="none" style="stroke:#181818;stroke-width:1;"/><text fill="#000000" font-family="sans-serif" font-size="14" lengthAdjust="spacing" textLength="137.6826" x="742.2656" y="103.3613">Prix &#195;&#160; jour (Pricelists)</text><path d="M689.2656,87.8281 L699.2656,87.8281 C714.2656,87.8281 714.2656,97.6328 729.2656,97.6328 L739.2656,97.6328 " fill="none" style="stroke:#181818;stroke-width:1;"/><text fill="#000000" font-family="sans-serif" font-size="14" lengthAdjust="spacing" textLength="139.2959" x="742.2656" y="122.9707">Single Source of Truth</text><path d="M689.2656,87.8281 L699.2656,87.8281 C714.2656,87.8281 714.2656,117.2422 729.2656,117.2422 L739.2656,117.2422 " fill="none" style="stroke:#181818;stroke-width:1;"/><path d="M496.0957,166.2656 L506.0957,166.2656 C521.0957,166.2656 521.0957,87.8281 536.0957,87.8281 L546.0957,87.8281 " fill="none" style="stroke:#181818;stroke-width:1;"/><rect fill="#F1F1F1" height="55.2188" rx="12.5" ry="12.5" style="stroke:#181818;stroke-width:1.5;" width="90.041" x="546.0957" y="138.6563"/><text fill="#000000" font-family="sans-serif" font-size="14" lengthAdjust="spacing" textLength="70.041" x="556.0957" y="163.1895">App Mobile</text><text fill="#000000" font-family="sans-serif" font-size="14" lengthAdjust="spacing" textLength="53.6689" x="556.0957" y="180.7988">(Terrain)</text><text fill="#000000" font-family="sans-serif" font-size="14" lengthAdjust="spacing" textLength="134.6133" x="689.1367" y="142.5801">Commande en 3 clics</text><path d="M636.1367,166.2656 L646.1367,166.2656 C661.1367,166.2656 661.1367,136.8516 676.1367,136.8516 L686.1367,136.8516 " fill="none" style="stroke:#181818;stroke-width:1;"/><text fill="#000000" font-family="sans-serif" font-size="14" lengthAdjust="spacing" textLength="113.6133" x="689.1367" y="162.1895">Scan Code-barres</text><path d="M636.1367,166.2656 L646.1367,166.2656 C661.1367,166.2656 661.1367,156.4609 676.1367,156.4609 L686.1367,156.4609 " fill="none" style="stroke:#181818;stroke-width:1;"/><text fill="#000000" font-family="sans-serif" font-size="14" lengthAdjust="spacing" textLength="137.71" x="689.1367" y="181.7988">Suivi Statut (Tracking)</text><path d="M636.1367,166.2656 L646.1367,166.2656 C661.1367,166.2656 661.1367,176.0703 676.1367,176.0703 L686.1367,176.0703 " fill="none" style="stroke:#181818;stroke-width:1;"/><text fill="#000000" font-family="sans-serif" font-size="14" lengthAdjust="spacing" textLength="79.3721" x="689.1367" y="201.4082">Mode Offline</text><path d="M636.1367,166.2656 L646.1367,166.2656 C661.1367,166.2656 661.1367,195.6797 676.1367,195.6797 L686.1367,195.6797 " fill="none" style="stroke:#181818;stroke-width:1;"/><path d="M496.0957,166.2656 L506.0957,166.2656 C521.0957,166.2656 521.0957,166.2656 536.0957,166.2656 L546.0957,166.2656 " fill="none" style="stroke:#181818;stroke-width:1;"/><rect fill="#F1F1F1" height="55.2188" rx="12.5" ry="12.5" style="stroke:#181818;stroke-width:1.5;" width="83.8271" x="546.0957" y="217.0938"/><text fill="#000000" font-family="sans-serif" font-size="14" lengthAdjust="spacing" textLength="63.8271" x="556.0957" y="241.627">Logistique</text><text fill="#000000" font-family="sans-serif" font-size="14" lengthAdjust="spacing" textLength="32.6621" x="556.0957" y="259.2363">RFID</text><text fill="#000000" font-family="sans-serif" font-size="14" lengthAdjust="spacing" textLength="168.2871" x="682.9229" y="221.0176">Scan R&#195;&#169;ception (Rapide)</text><path d="M629.9229,244.7031 L639.9229,244.7031 C654.9229,244.7031 654.9229,215.2891 669.9229,215.2891 L679.9229,215.2891 " fill="none" style="stroke:#181818;stroke-width:1;"/><text fill="#000000" font-family="sans-serif" font-size="14" lengthAdjust="spacing" textLength="133.8545" x="682.9229" y="240.627">Inventaire Permanent</text><path d="M629.9229,244.7031 L639.9229,244.7031 C654.9229,244.7031 654.9229,234.8984 669.9229,234.8984 L679.9229,234.8984 " fill="none" style="stroke:#181818;stroke-width:1;"/><text fill="#000000" font-family="sans-serif" font-size="14" lengthAdjust="spacing" textLength="126.2393" x="682.9229" y="260.2363">Stock Temps R&#195;&#169;el</text><path d="M629.9229,244.7031 L639.9229,244.7031 C654.9229,244.7031 654.9229,254.5078 669.9229,254.5078 L679.9229,254.5078 " fill="none" style="stroke:#181818;stroke-width:1;"/><text fill="#000000" font-family="sans-serif" font-size="14" lengthAdjust="spacing" textLength="83.4395" x="682.9229" y="279.8457">Z&#195;&#169;ro Erreur</text><path d="M629.9229,244.7031 L639.9229,244.7031 C654.9229,244.7031 654.9229,274.1172 669.9229,274.1172 L679.9229,274.1172 " fill="none" style="stroke:#181818;stroke-width:1;"/><path d="M496.0957,166.2656 L506.0957,166.2656 C521.0957,166.2656 521.0957,244.7031 536.0957,244.7031 L546.0957,244.7031 " fill="none" style="stroke:#181818;stroke-width:1;"/><rect fill="#F1F1F1" height="55.2188" rx="12.5" ry="12.5" style="stroke:#181818;stroke-width:1.5;" width="112.6064" x="231.8203" y="61.8281"/><text fill="#000000" font-family="sans-serif" font-size="14" lengthAdjust="spacing" textLength="92.6064" x="241.8203" y="86.3613">Automatisation</text><text fill="#000000" font-family="sans-serif" font-size="14" lengthAdjust="spacing" textLength="54.4688" x="241.8203" y="103.9707">(Bureau)</text><text fill="#000000" font-family="sans-serif" font-size="14" lengthAdjust="spacing" textLength="100.3857" x="78.4346" y="65.752">Validation 1 Clic</text><path d="M231.8203,89.4375 L221.8203,89.4375 C206.8203,89.4375 206.8203,60.0234 191.8203,60.0234 L181.8203,60.0234 " fill="none" style="stroke:#181818;stroke-width:1;"/><text fill="#000000" font-family="sans-serif" font-size="14" lengthAdjust="spacing" textLength="143.1582" x="35.6621" y="85.3613">Envoi Auto (Email/EDI)</text><path d="M231.8203,89.4375 L221.8203,89.4375 C206.8203,89.4375 206.8203,79.6328 191.8203,79.6328 L181.8203,79.6328 " fill="none" style="stroke:#181818;stroke-width:1;"/><text fill="#000000" font-family="sans-serif" font-size="14" lengthAdjust="spacing" textLength="168.8203" x="10" y="104.9707">3-Way Matching (Factures)</text><path d="M231.8203,89.4375 L221.8203,89.4375 C206.8203,89.4375 206.8203,99.2422 191.8203,99.2422 L181.8203,99.2422 " fill="none" style="stroke:#181818;stroke-width:1;"/><text fill="#000000" font-family="sans-serif" font-size="14" lengthAdjust="spacing" textLength="108.9443" x="69.876" y="124.5801">Notifications Auto</text><path d="M231.8203,89.4375 L221.8203,89.4375 C206.8203,89.4375 206.8203,118.8516 191.8203,118.8516 L181.8203,118.8516 " fill="none" style="stroke:#181818;stroke-width:1;"/><path d="M394.4268,166.2656 L384.4268,166.2656 C369.4268,166.2656 369.4268,89.4375 354.4268,89.4375 L344.4268,89.4375 " fill="none" style="stroke:#181818;stroke-width:1;"/><rect fill="#F1F1F1" height="55.2188" rx="12.5" ry="12.5" style="stroke:#181818;stroke-width:1.5;" width="70.5928" x="273.834" y="140.2656"/><text fill="#000000" font-family="sans-serif" font-size="14" lengthAdjust="spacing" textLength="50.5928" x="283.834" y="164.7988">Pilotage</text><text fill="#000000" font-family="sans-serif" font-size="14" lengthAdjust="spacing" textLength="22.5518" x="283.834" y="182.4082">(BI)</text><text fill="#000000" font-family="sans-serif" font-size="14" lengthAdjust="spacing" textLength="166.7148" x="54.1191" y="144.1895">Dashboards Temps R&#195;&#169;el</text><path d="M273.834,167.875 L263.834,167.875 C248.834,167.875 248.834,138.4609 233.834,138.4609 L223.834,138.4609 " fill="none" style="stroke:#181818;stroke-width:1;"/><text fill="#000000" font-family="sans-serif" font-size="14" lengthAdjust="spacing" textLength="150.5547" x="70.2793" y="163.7988">KPIs (D&#195;&#169;lai, Qualit&#195;&#169;)</text><path d="M273.834,167.875 L263.834,167.875 C248.834,167.875 248.834,158.0703 233.834,158.0703 L223.834,158.0703 " fill="none" style="stroke:#181818;stroke-width:1;"/><text fill="#000000" font-family="sans-serif" font-size="14" lengthAdjust="spacing" textLength="104.2686" x="116.5654" y="183.4082">Alertes Ruptures</text><path d="M273.834,167.875 L263.834,167.875 C248.834,167.875 248.834,177.6797 233.834,177.6797 L223.834,177.6797 " fill="none" style="stroke:#181818;stroke-width:1;"/><text fill="#000000" font-family="sans-serif" font-size="14" lengthAdjust="spacing" textLength="136.5752" x="84.2588" y="203.0176">Budget vs R&#195;&#169;alis&#195;&#169;</text><path d="M273.834,167.875 L263.834,167.875 C248.834,167.875 248.834,197.2891 233.834,197.2891 L223.834,197.2891 " fill="none" style="stroke:#181818;stroke-width:1;"/><path d="M394.4268,166.2656 L384.4268,166.2656 C369.4268,166.2656 369.4268,167.875 354.4268,167.875 L344.4268,167.875 " fill="none" style="stroke:#181818;stroke-width:1;"/><rect fill="#F1F1F1" height="55.2188" rx="12.5" ry="12.5" style="stroke:#181818;stroke-width:1.5;" width="100.917" x="243.5098" y="217.0938"/><text fill="#000000" font-family="sans-serif" font-size="14" lengthAdjust="spacing" textLength="78.0254" x="253.5098" y="241.627">Int&#195;&#169;gration</text><text fill="#000000" font-family="sans-serif" font-size="14" lengthAdjust="spacing" textLength="80.917" x="253.5098" y="259.2363">Fournisseurs</text><text fill="#000000" font-family="sans-serif" font-size="14" lengthAdjust="spacing" textLength="141.0459" x="49.4639" y="230.8223">Catalogues Import&#195;&#169;s</text><path d="M243.5098,244.7031 L233.5098,244.7031 C218.5098,244.7031 218.5098,225.0938 203.5098,225.0938 L193.5098,225.0938 " fill="none" style="stroke:#181818;stroke-width:1;"/><text fill="#000000" font-family="sans-serif" font-size="14" lengthAdjust="spacing" textLength="110.0996" x="80.4102" y="250.4316">Prix N&#195;&#169;goci&#195;&#169;s</text><path d="M243.5098,244.7031 L233.5098,244.7031 C218.5098,244.7031 218.5098,244.7031 203.5098,244.7031 L193.5098,244.7031 " fill="none" style="stroke:#181818;stroke-width:1;"/><text fill="#000000" font-family="sans-serif" font-size="14" lengthAdjust="spacing" textLength="69.2275" x="121.2822" y="270.041">EDI (Futur)</text><path d="M243.5098,244.7031 L233.5098,244.7031 C218.5098,244.7031 218.5098,264.3125 203.5098,264.3125 L193.5098,264.3125 " fill="none" style="stroke:#181818;stroke-width:1;"/><path d="M394.4268,166.2656 L384.4268,166.2656 C369.4268,166.2656 369.4268,244.7031 354.4268,244.7031 L344.4268,244.7031 " fill="none" style="stroke:#181818;stroke-width:1;"/><!--SRC=[RLFDRjf04BxxAUPet98MGgA8Ku8nhLiC14CgLKZHOgzXc_MkkpkBcdDVfDU-HljY7V-WvD0BPkVdcs- -cRcro0oMGkKbgo3Lqg7GoZxUPKU6zd6k3yAY-Ewuvw50oI6XK4WejlyI3Q7OIsx1N-PQmnjOp-9fp_C2289qETzkukKY3OAT2e8mdimZ-ky50KoOvP1pc6gb_lxyyvlRdTekuljjHDxW4TQriQX_35SPXwrgU3I-rL6Zjh0oEdS2RMSquWTG_2_uffq1dzuPbyJVzjg0LAW3jP2Ib_1q0HlZyEZLPEwg2XAz5vBlbB_XnZ2XkgnGboLJH9Ghk8HCYgohbsPCaJVd_JqpXf-jJfm4fCZG8VWRmx8dAjjX9HGDowAGGl6cxel0ErNBzWgvwJ_ZLIqn-6jMYPntCB4wSOLC60uhReWTlRfCrDaJR7XPsHQ0ozRnjH5IGqHCdV4yoGi4Iv1j-mvroL1OLbSZ2IRESEQwSWzCYhpnm0124g0rH-gaHPCAVbGo8Tz5qxXBkUn_OS-q9vWTgNlmPon3WZnFOg5H529ZxVhK40sDbP0QsQ6UmUICD6NskDVCvFP_RNrUnRHtqzeacNWBzuwuOltiqkyaDqYxkNPLGw2rJbn-u0Yd3eroRFrjICIgoJ-OJeiPhOiIrf9iNNR8a4bzS0GRbvKsJVph9Lmq03eJhnoa3SdWY0ITnYsdWskFplDMaYdS9dCuSMCRaI-6xuUZYnj_PWH9TOB15GnkngFHU7GDORI1sjtp_0-hETXscNFQ8YFspJtsl4_inAXZXQBaOwXV_YRfGHgTZVNiXD6gh1VdqqFI1i57ZMcbiGc-7lKd0Y7bXcZ1G-9DUS6SH4hDT4v37KDO3OPNGs_ErC7HrCPG62_KLC4yZs6s_WS0]--></g></svg>