<svg xmlns="http://www.w3.org/2000/svg" xmlns:xlink="http://www.w3.org/1999/xlink" contentStyleType="text/css" height="295px" preserveAspectRatio="none" style="width:881px;height:295px;background:#FFFFFF;" version="1.1" viewBox="0 0 881 295" width="881px" zoomAndPan="magnify"><title>Mind Map - Solutions Cibles (Odoo + RFID)</title><defs/><g><text fill="#000000" font-family="sans-serif" font-size="14" font-weight="bold" lengthAdjust="spacing" textLength="285.0381" x="296.8281" y="34.5332">Mind Map - Solutions Cibles (Odoo + RFID)</text><rect fill="#F1F1F1" height="55.2188" rx="12.5" ry="12.5" style="stroke:#181818;stroke-width:1.5;" width="101.6689" x="394.4268" y="138.6563"/><text fill="#000000" font-family="sans-serif" font-size="14" font-weight="bold" lengthAdjust="spacing" textLength="81.6689" x="404.4268" y="163.1895">SOLUTIONS</text><text fill="#000000" font-family="sans-serif" font-size="14" font-weight="bold" lengthAdjust="spacing" textLength="51.3379" x="404.4268" y="180.7988">CIBLES</text><rect fill="#F1F1F1" height="55.2188" rx="12.5" ry="12.5" style="stroke:#181818;stroke-width:1.5;" width="131.3027" x="546.0957" y="60.2188"/><text fill="#000000" font-family="sans-serif" font-size="14" lengthAdjust="spacing" textLength="111.3027" x="556.0957" y="84.752">Base de Donn&#233;es</text><text fill="#000000" font-family="sans-serif" font-size="14" lengthAdjust="spacing" textLength="54.4482" x="556.0957" y="102.3613">UNIQUE</text><text fill="#000000" font-family="sans-serif" font-size="14" lengthAdjust="spacing" textLength="112.8477" x="730.3984" y="64.1426">R&#233;f&#233;rence Unique</text><path d="M677.3984,87.8281 L687.3984,87.8281 C702.3984,87.8281 702.3984,58.4141 717.3984,58.4141 L727.3984,58.4141 " fill="none" style="stroke:#181818;stroke-width:1;"/><text fill="#000000" font-family="sans-serif" font-size="14" lengthAdjust="spacing" textLength="98.834" x="730.3984" y="83.752">Photos Produits</text><path d="M677.3984,87.8281 L687.3984,87.8281 C702.3984,87.8281 702.3984,78.0234 717.3984,78.0234 L727.3984,78.0234 " fill="none" style="stroke:#181818;stroke-width:1;"/><text fill="#000000" font-family="sans-serif" font-size="14" lengthAdjust="spacing" textLength="132.2412" x="730.3984" y="103.3613">Prix &#224; jour (Pricelists)</text><path d="M677.3984,87.8281 L687.3984,87.8281 C702.3984,87.8281 702.3984,97.6328 717.3984,97.6328 L727.3984,97.6328 " fill="none" style="stroke:#181818;stroke-width:1;"/><text fill="#000000" font-family="sans-serif" font-size="14" lengthAdjust="spacing" textLength="139.2959" x="730.3984" y="122.9707">Single Source of Truth</text><path d="M677.3984,87.8281 L687.3984,87.8281 C702.3984,87.8281 702.3984,117.2422 717.3984,117.2422 L727.3984,117.2422 " fill="none" style="stroke:#181818;stroke-width:1;"/><path d="M496.0957,166.2656 L506.0957,166.2656 C521.0957,166.2656 521.0957,87.8281 536.0957,87.8281 L546.0957,87.8281 " fill="none" style="stroke:#181818;stroke-width:1;"/><rect fill="#F1F1F1" height="55.2188" rx="12.5" ry="12.5" style="stroke:#181818;stroke-width:1.5;" width="90.041" x="546.0957" y="138.6563"/><text fill="#000000" font-family="sans-serif" font-size="14" lengthAdjust="spacing" textLength="70.041" x="556.0957" y="163.1895">App Mobile</text><text fill="#000000" font-family="sans-serif" font-size="14" lengthAdjust="spacing" textLength="53.6689" x="556.0957" y="180.7988">(Terrain)</text><text fill="#000000" font-family="sans-serif" font-size="14" lengthAdjust="spacing" textLength="134.6133" x="689.1367" y="142.5801">Commande en 3 clics</text><path d="M636.1367,166.2656 L646.1367,166.2656 C661.1367,166.2656 661.1367,136.8516 676.1367,136.8516 L686.1367,136.8516 " fill="none" style="stroke:#181818;stroke-width:1;"/><text fill="#000000" font-family="sans-serif" font-size="14" lengthAdjust="spacing" textLength="113.6133" x="689.1367" y="162.1895">Scan Code-barres</text><path d="M636.1367,166.2656 L646.1367,166.2656 C661.1367,166.2656 661.1367,156.4609 676.1367,156.4609 L686.1367,156.4609 " fill="none" style="stroke:#181818;stroke-width:1;"/><text fill="#000000" font-family="sans-serif" font-size="14" lengthAdjust="spacing" textLength="137.71" x="689.1367" y="181.7988">Suivi Statut (Tracking)</text><path d="M636.1367,166.2656 L646.1367,166.2656 C661.1367,166.2656 661.1367,176.0703 676.1367,176.0703 L686.1367,176.0703 " fill="none" style="stroke:#181818;stroke-width:1;"/><text fill="#000000" font-family="sans-serif" font-size="14" lengthAdjust="spacing" textLength="79.3721" x="689.1367" y="201.4082">Mode Offline</text><path d="M636.1367,166.2656 L646.1367,166.2656 C661.1367,166.2656 661.1367,195.6797 676.1367,195.6797 L686.1367,195.6797 " fill="none" style="stroke:#181818;stroke-width:1;"/><path d="M496.0957,166.2656 L506.0957,166.2656 C521.0957,166.2656 521.0957,166.2656 536.0957,166.2656 L546.0957,166.2656 " fill="none" style="stroke:#181818;stroke-width:1;"/><rect fill="#F1F1F1" height="55.2188" rx="12.5" ry="12.5" style="stroke:#181818;stroke-width:1.5;" width="83.8271" x="546.0957" y="217.0938"/><text fill="#000000" font-family="sans-serif" font-size="14" lengthAdjust="spacing" textLength="63.8271" x="556.0957" y="241.627">Logistique</text><text fill="#000000" font-family="sans-serif" font-size="14" lengthAdjust="spacing" textLength="32.6621" x="556.0957" y="259.2363">RFID</text><text fill="#000000" font-family="sans-serif" font-size="14" lengthAdjust="spacing" textLength="156.4199" x="682.9229" y="221.0176">Scan R&#233;ception (Rapide)</text><path d="M629.9229,244.7031 L639.9229,244.7031 C654.9229,244.7031 654.9229,215.2891 669.9229,215.2891 L679.9229,215.2891 " fill="none" style="stroke:#181818;stroke-width:1;"/><text fill="#000000" font-family="sans-serif" font-size="14" lengthAdjust="spacing" textLength="133.8545" x="682.9229" y="240.627">Inventaire Permanent</text><path d="M629.9229,244.7031 L639.9229,244.7031 C654.9229,244.7031 654.9229,234.8984 669.9229,234.8984 L679.9229,234.8984 " fill="none" style="stroke:#181818;stroke-width:1;"/><text fill="#000000" font-family="sans-serif" font-size="14" lengthAdjust="spacing" textLength="114.3721" x="682.9229" y="260.2363">Stock Temps R&#233;el</text><path d="M629.9229,244.7031 L639.9229,244.7031 C654.9229,244.7031 654.9229,254.5078 669.9229,254.5078 L679.9229,254.5078 " fill="none" style="stroke:#181818;stroke-width:1;"/><text fill="#000000" font-family="sans-serif" font-size="14" lengthAdjust="spacing" textLength="71.5723" x="682.9229" y="279.8457">Z&#233;ro Erreur</text><path d="M629.9229,244.7031 L639.9229,244.7031 C654.9229,244.7031 654.9229,274.1172 669.9229,274.1172 L679.9229,274.1172 " fill="none" style="stroke:#181818;stroke-width:1;"/><path d="M496.0957,166.2656 L506.0957,166.2656 C521.0957,166.2656 521.0957,244.7031 536.0957,244.7031 L546.0957,244.7031 " fill="none" style="stroke:#181818;stroke-width:1;"/><rect fill="#F1F1F1" height="55.2188" rx="12.5" ry="12.5" style="stroke:#181818;stroke-width:1.5;" width="112.6064" x="231.8203" y="61.8281"/><text fill="#000000" font-family="sans-serif" font-size="14" lengthAdjust="spacing" textLength="92.6064" x="241.8203" y="86.3613">Automatisation</text><text fill="#000000" font-family="sans-serif" font-size="14" lengthAdjust="spacing" textLength="54.4688" x="241.8203" y="103.9707">(Bureau)</text><text fill="#000000" font-family="sans-serif" font-size="14" lengthAdjust="spacing" textLength="100.3857" x="78.4346" y="65.752">Validation 1 Clic</text><path d="M231.8203,89.4375 L221.8203,89.4375 C206.8203,89.4375 206.8203,60.0234 191.8203,60.0234 L181.8203,60.0234 " fill="none" style="stroke:#181818;stroke-width:1;"/><text fill="#000000" font-family="sans-serif" font-size="14" lengthAdjust="spacing" textLength="143.1582" x="35.6621" y="85.3613">Envoi Auto (Email/EDI)</text><path d="M231.8203,89.4375 L221.8203,89.4375 C206.8203,89.4375 206.8203,79.6328 191.8203,79.6328 L181.8203,79.6328 " fill="none" style="stroke:#181818;stroke-width:1;"/><text fill="#000000" font-family="sans-serif" font-size="14" lengthAdjust="spacing" textLength="168.8203" x="10" y="104.9707">3-Way Matching (Factures)</text><path d="M231.8203,89.4375 L221.8203,89.4375 C206.8203,89.4375 206.8203,99.2422 191.8203,99.2422 L181.8203,99.2422 " fill="none" style="stroke:#181818;stroke-width:1;"/><text fill="#000000" font-family="sans-serif" font-size="14" lengthAdjust="spacing" textLength="108.9443" x="69.876" y="124.5801">Notifications Auto</text><path d="M231.8203,89.4375 L221.8203,89.4375 C206.8203,89.4375 206.8203,118.8516 191.8203,118.8516 L181.8203,118.8516 " fill="none" style="stroke:#181818;stroke-width:1;"/><path d="M394.4268,166.2656 L384.4268,166.2656 C369.4268,166.2656 369.4268,89.4375 354.4268,89.4375 L344.4268,89.4375 " fill="none" style="stroke:#181818;stroke-width:1;"/><rect fill="#F1F1F1" height="55.2188" rx="12.5" ry="12.5" style="stroke:#181818;stroke-width:1.5;" width="70.5928" x="273.834" y="140.2656"/><text fill="#000000" font-family="sans-serif" font-size="14" lengthAdjust="spacing" textLength="50.5928" x="283.834" y="164.7988">Pilotage</text><text fill="#000000" font-family="sans-serif" font-size="14" lengthAdjust="spacing" textLength="22.5518" x="283.834" y="182.4082">(BI)</text><text fill="#000000" font-family="sans-serif" font-size="14" lengthAdjust="spacing" textLength="154.8477" x="65.9863" y="144.1895">Dashboards Temps R&#233;el</text><path d="M273.834,167.875 L263.834,167.875 C248.834,167.875 248.834,138.4609 233.834,138.4609 L223.834,138.4609 " fill="none" style="stroke:#181818;stroke-width:1;"/><text fill="#000000" font-family="sans-serif" font-size="14" lengthAdjust="spacing" textLength="126.8203" x="94.0137" y="163.7988">KPIs (D&#233;lai, Qualit&#233;)</text><path d="M273.834,167.875 L263.834,167.875 C248.834,167.875 248.834,158.0703 233.834,158.0703 L223.834,158.0703 " fill="none" style="stroke:#181818;stroke-width:1;"/><text fill="#000000" font-family="sans-serif" font-size="14" lengthAdjust="spacing" textLength="104.2686" x="116.5654" y="183.4082">Alertes Ruptures</text><path d="M273.834,167.875 L263.834,167.875 C248.834,167.875 248.834,177.6797 233.834,177.6797 L223.834,177.6797 " fill="none" style="stroke:#181818;stroke-width:1;"/><text fill="#000000" font-family="sans-serif" font-size="14" lengthAdjust="spacing" textLength="112.8408" x="107.9932" y="203.0176">Budget vs R&#233;alis&#233;</text><path d="M273.834,167.875 L263.834,167.875 C248.834,167.875 248.834,197.2891 233.834,197.2891 L223.834,197.2891 " fill="none" style="stroke:#181818;stroke-width:1;"/><path d="M394.4268,166.2656 L384.4268,166.2656 C369.4268,166.2656 369.4268,167.875 354.4268,167.875 L344.4268,167.875 " fill="none" style="stroke:#181818;stroke-width:1;"/><rect fill="#F1F1F1" height="55.2188" rx="12.5" ry="12.5" style="stroke:#181818;stroke-width:1.5;" width="100.917" x="243.5098" y="217.0938"/><text fill="#000000" font-family="sans-serif" font-size="14" lengthAdjust="spacing" textLength="66.1582" x="253.5098" y="241.627">Int&#233;gration</text><text fill="#000000" font-family="sans-serif" font-size="14" lengthAdjust="spacing" textLength="80.917" x="253.5098" y="259.2363">Fournisseurs</text><text fill="#000000" font-family="sans-serif" font-size="14" lengthAdjust="spacing" textLength="129.1787" x="61.3311" y="230.8223">Catalogues Import&#233;s</text><path d="M243.5098,244.7031 L233.5098,244.7031 C218.5098,244.7031 218.5098,225.0938 203.5098,225.0938 L193.5098,225.0938 " fill="none" style="stroke:#181818;stroke-width:1;"/><text fill="#000000" font-family="sans-serif" font-size="14" lengthAdjust="spacing" textLength="86.3652" x="104.1445" y="250.4316">Prix N&#233;goci&#233;s</text><path d="M243.5098,244.7031 L233.5098,244.7031 C218.5098,244.7031 218.5098,244.7031 203.5098,244.7031 L193.5098,244.7031 " fill="none" style="stroke:#181818;stroke-width:1;"/><text fill="#000000" font-family="sans-serif" font-size="14" lengthAdjust="spacing" textLength="69.2275" x="121.2822" y="270.041">EDI (Futur)</text><path d="M243.5098,244.7031 L233.5098,244.7031 C218.5098,244.7031 218.5098,264.3125 203.5098,264.3125 L193.5098,264.3125 " fill="none" style="stroke:#181818;stroke-width:1;"/><path d="M394.4268,166.2656 L384.4268,166.2656 C369.4268,166.2656 369.4268,244.7031 354.4268,244.7031 L344.4268,244.7031 " fill="none" style="stroke:#181818;stroke-width:1;"/><!--SRC=[PLFRRjf047ttLyoZSKlQ93IAU4e0qxh5GB19fGefMkmrJBFUTVU2ch_fAz_1ZtLyeOdKjzsPEMVEp9wzCvPfMwBCIrP1eeIpgAHvki_sp9gdcTgXiVZBSS-pQ0M7c4eXfjh-QpMCSIku0N-HAmNlO3MD9ZtF2o08aiLidKQBUH846na4usWq2-di1G6CcE6GSvWeAKz7RZPoFOyUrY7bWYTOdOx5wQYvp3YiPQEWYI_toYe3IwroXzPqGOs_uVG7VYgdmQTRnWNfDhqsdQ3SaVI4iiIc2aYritkl5d5VLH2hBGg-aNxAjMOeEzHObIMJ991Bk8PCODPrIp8cAPlp_fPfpSzHXmU4n3BhBFYfPjapjUsuOgg6HL48bBpf-xhOZQpNzOQP9izuLIyM_1MhCESTIIGFN5g6ciEIQz96jmvdLVOCAIyhKyEvQCC_Q84AGjBejES9NbWmHDSExgmgcKN3wauq_CXfpbpNwf49p9iCNCAOHc_3eJmeRA3WXoL3yI6SH1takl-TlP0pRBQdkS6ViimIvVaDvifYWHbh3LDJD3AMA9HbkthxepFJX9dzLZ6Tc_z7-hQCo6UJqr4mV0yFZdJQqx43tWkkBVbmvQgcTHiTkNp7BHmQ7getfsFJEfA4tEbk_YcPGw8njAeEDsQM2RLpH1YLbT9K_TPkSmAh3Fy5QHCqjAF6PFqxJX-g_LIUjnHCsdKyWmFNfbdfnTN7gy75hJ_LI8ivmEKdkBmT3WR3mGsCmnJgTC_pFozdO5hJvkGMZTlcl_Myh-p0Q4ffiUH3g6z-6lSW2S_1-gLGArdM5ldw6BT5y4NPf5AsARuPz4Te8U6QPC5Zx4rumPom1CrKJayuX7KwxTzwCoPtZfve28NsneeQw9SXJ5T_0G00]--></g></svg>