<svg xmlns="http://www.w3.org/2000/svg" xmlns:xlink="http://www.w3.org/1999/xlink" contentStyleType="text/css" height="1612px" preserveAspectRatio="none" style="width:1032px;height:1612px;background:#FFFFFF;" version="1.1" viewBox="0 0 1032 1612" width="1032px" zoomAndPan="magnify"><title>Use Case Diagram - Achats &amp; Logistique ACTUEL</title><defs/><g><text fill="#000000" font-family="sans-serif" font-size="14" font-weight="bold" lengthAdjust="spacing" textLength="331.3994" x="343.3003" y="24.5332">Use Case Diagram - Achats &amp; Logistique ACTUEL</text><!--cluster Syst?me Achats-Logistique ACTUEL--><g id="cluster_Syst&#232;me Achats-Logistique ACTUEL"><rect fill="#FFFFCC" height="830" rx="2.5" ry="2.5" style="stroke:#181818;stroke-width:1;" width="843" x="183" y="168.6094"/><text fill="#000000" font-family="sans-serif" font-size="14" font-weight="bold" lengthAdjust="spacing" textLength="244.2617" x="482.3691" y="185.1426">Syst&#232;me Achats-Logistique ACTUEL</text></g><!--cluster Outils (Silos)--><g id="cluster_Outils (Silos)"><rect fill="#FFE4E1" height="514" rx="2.5" ry="2.5" style="stroke:#181818;stroke-width:1;" width="169" x="584" y="1025.6094"/><text fill="#000000" font-family="sans-serif" font-size="14" font-weight="bold" lengthAdjust="spacing" textLength="86.3379" x="625.3311" y="1042.1426">Outils (Silos)</text></g><g id="elem_UC1"><ellipse cx="668.4518" cy="463.5128" fill="#FFD700" rx="65.9518" ry="27.9034" style="stroke:#181818;stroke-width:0.5;"/><text fill="#000000" font-family="sans-serif" font-size="14" lengthAdjust="spacing" textLength="77.0273" x="629.9382" y="458.4366">Commander</text><text fill="#000000" font-family="sans-serif" font-size="14" lengthAdjust="spacing" textLength="49.793" x="643.5554" y="476.046">mat&#233;riel</text></g><g id="elem_GMN9"><path d="M861.5,442.1094 L861.5,459.6094 L734.54,463.6094 L861.5,467.6094 L861.5,484.8125 A0,0 0 0 0 861.5,484.8125 L1008.9009,484.8125 A0,0 0 0 0 1008.9009,484.8125 L1008.9009,452.1094 L998.9009,442.1094 L861.5,442.1094 A0,0 0 0 0 861.5,442.1094 " fill="#FEFFDD" style="stroke:#181818;stroke-width:0.5;"/><path d="M998.9009,442.1094 L998.9009,452.1094 L1008.9009,452.1094 L998.9009,442.1094 " fill="#FEFFDD" style="stroke:#181818;stroke-width:0.5;"/><text fill="#000000" font-family="sans-serif" font-size="13" lengthAdjust="spacing" textLength="126.4009" x="867.5" y="460.6045">&#128308; Taux d'erreur &#233;lev&#233;</text><text fill="#000000" font-family="sans-serif" font-size="13" lengthAdjust="spacing" textLength="55.6309" x="867.5" y="476.9561">&#9200; 3 jours</text></g><g id="elem_UC2"><ellipse cx="284.353" cy="402.5128" fill="#FFD700" rx="53.853" ry="27.9034" style="stroke:#181818;stroke-width:0.5;"/><text fill="#000000" font-family="sans-serif" font-size="14" lengthAdjust="spacing" textLength="59.917" x="254.3945" y="397.4366">Consulter</text><text fill="#000000" font-family="sans-serif" font-size="14" lengthAdjust="spacing" textLength="32.6758" x="268.0151" y="415.046">stock</text></g><g id="elem_GMN13"><path d="M591.5,295.6094 L591.5,321.9609 L745.8389,321.9609 L745.8389,305.6094 L735.8389,295.6094 L591.5,295.6094 " fill="#FEFFDD" style="stroke:#181818;stroke-width:0.5;"/><path d="M735.8389,295.6094 L735.8389,305.6094 L745.8389,305.6094 L735.8389,295.6094 " fill="#FEFFDD" style="stroke:#181818;stroke-width:1;"/><text fill="#000000" font-family="sans-serif" font-size="13" lengthAdjust="spacing" textLength="133.3389" x="597.5" y="314.1045">&#128308; Donn&#233;es non fiables</text></g><g id="elem_UC3"><ellipse cx="668.4056" cy="754.5128" fill="#FFD700" rx="65.4056" ry="27.9034" style="stroke:#181818;stroke-width:0.5;"/><text fill="#000000" font-family="sans-serif" font-size="14" lengthAdjust="spacing" textLength="40.4482" x="648.1815" y="749.4366">Traiter</text><text fill="#000000" font-family="sans-serif" font-size="14" lengthAdjust="spacing" textLength="76.2549" x="630.2782" y="767.046">commandes</text></g><g id="elem_GMN17"><path d="M213.5,729.1094 L213.5,771.8125 A0,0 0 0 0 213.5,771.8125 L355.8926,771.8125 A0,0 0 0 0 355.8926,771.8125 L355.8926,755.3394 L602.97,753.9294 L355.8926,747.3394 L355.8926,739.1094 L345.8926,729.1094 L213.5,729.1094 A0,0 0 0 0 213.5,729.1094 " fill="#FEFFDD" style="stroke:#181818;stroke-width:0.5;"/><path d="M345.8926,729.1094 L345.8926,739.1094 L355.8926,739.1094 L345.8926,729.1094 " fill="#FEFFDD" style="stroke:#181818;stroke-width:0.5;"/><text fill="#000000" font-family="sans-serif" font-size="13" lengthAdjust="spacing" textLength="81.2754" x="219.5" y="747.6045">&#128308; 6 re-saisies</text><text fill="#000000" font-family="sans-serif" font-size="13" lengthAdjust="spacing" textLength="121.3926" x="219.5" y="763.9561">&#9200; 2h par commande</text></g><g id="elem_UC4"><ellipse cx="668.326" cy="954.5128" fill="#FF6B6B" rx="86.326" ry="27.9034" style="stroke:#181818;stroke-width:0.5;"/><text fill="#000000" font-family="sans-serif" font-size="14" lengthAdjust="spacing" textLength="72.3652" x="632.1434" y="949.4366">Rechercher</text><text fill="#000000" font-family="sans-serif" font-size="14" lengthAdjust="spacing" textLength="105.8408" x="615.4056" y="967.046">r&#233;f&#233;rence produit</text></g><g id="elem_GMN21"><path d="M860,933.1094 L860,950.6094 L755.01,954.6094 L860,958.6094 L860,975.8125 A0,0 0 0 0 860,975.8125 L1009.9907,975.8125 A0,0 0 0 0 1009.9907,975.8125 L1009.9907,943.1094 L999.9907,933.1094 L860,933.1094 A0,0 0 0 0 860,933.1094 " fill="#FEFFDD" style="stroke:#181818;stroke-width:0.5;"/><path d="M999.9907,933.1094 L999.9907,943.1094 L1009.9907,943.1094 L999.9907,933.1094 " fill="#FEFFDD" style="stroke:#181818;stroke-width:0.5;"/><text fill="#000000" font-family="sans-serif" font-size="13" lengthAdjust="spacing" textLength="128.9907" x="866" y="951.6045">&#128308; 12 variantes/produit</text><text fill="#000000" font-family="sans-serif" font-size="13" lengthAdjust="spacing" textLength="93.9517" x="866" y="967.9561">Confusion totale</text></g><g id="elem_UC5"><ellipse cx="668.3699" cy="554.5128" fill="#FFD700" rx="70.3699" ry="27.9034" style="stroke:#181818;stroke-width:0.5;"/><text fill="#000000" font-family="sans-serif" font-size="14" lengthAdjust="spacing" textLength="83.2754" x="626.7322" y="549.4366">R&#233;ceptionner</text><text fill="#000000" font-family="sans-serif" font-size="14" lengthAdjust="spacing" textLength="58.3516" x="639.1941" y="567.046">livraisons</text></g><g id="elem_GMN25"><path d="M214.5,557.1094 L214.5,599.8125 A0,0 0 0 0 214.5,599.8125 L354.728,599.8125 A0,0 0 0 0 354.728,599.8125 L354.728,578.2594 L598.84,558.9194 L354.728,570.2594 L354.728,567.1094 L344.728,557.1094 L214.5,557.1094 A0,0 0 0 0 214.5,557.1094 " fill="#FEFFDD" style="stroke:#181818;stroke-width:0.5;"/><path d="M344.728,557.1094 L344.728,567.1094 L354.728,567.1094 L344.728,557.1094 " fill="#FEFFDD" style="stroke:#181818;stroke-width:0.5;"/><text fill="#000000" font-family="sans-serif" font-size="13" lengthAdjust="spacing" textLength="94.3071" x="220.5" y="575.6045">&#128308; 100% manuel</text><text fill="#000000" font-family="sans-serif" font-size="13" lengthAdjust="spacing" textLength="119.228" x="220.5" y="591.9561">&#9200; 1h30 par livraison</text></g><g id="elem_UC6"><ellipse cx="668.4567" cy="645.5128" fill="#FF6B6B" rx="65.9567" ry="27.9034" style="stroke:#181818;stroke-width:0.5;"/><text fill="#000000" font-family="sans-serif" font-size="14" lengthAdjust="spacing" textLength="77.0342" x="629.9396" y="640.4366">Suivre co&#251;ts</text><text fill="#000000" font-family="sans-serif" font-size="14" lengthAdjust="spacing" textLength="63.0342" x="636.9396" y="658.046">par affaire</text></g><g id="elem_GMN29"><path d="M199,635.1094 L199,694.1641 A0,0 0 0 0 199,694.1641 L369.8809,694.1641 A0,0 0 0 0 369.8809,694.1641 L369.8809,664.3894 L602.83,648.8294 L369.8809,656.3894 L369.8809,645.1094 L359.8809,635.1094 L199,635.1094 A0,0 0 0 0 199,635.1094 " fill="#FEFFDD" style="stroke:#181818;stroke-width:0.5;"/><path d="M359.8809,635.1094 L359.8809,645.1094 L369.8809,645.1094 L359.8809,635.1094 " fill="#FEFFDD" style="stroke:#181818;stroke-width:0.5;"/><text fill="#000000" font-family="sans-serif" font-size="13" lengthAdjust="spacing" textLength="144.8979" x="205" y="653.6045">&#128308; Donn&#233;es incoh&#233;rentes</text><text fill="#000000" font-family="sans-serif" font-size="13" lengthAdjust="spacing" textLength="117.7871" x="205" y="669.9561">&#9200; 3h pour un chiffre</text><text fill="#000000" font-family="sans-serif" font-size="13" lengthAdjust="spacing" textLength="149.8809" x="205" y="686.3076">Marge d'erreur importante</text></g><g id="elem_UC7"><ellipse cx="284.6139" cy="493.5128" fill="#FFD700" rx="62.1139" ry="27.9034" style="stroke:#181818;stroke-width:0.5;"/><text fill="#000000" font-family="sans-serif" font-size="14" lengthAdjust="spacing" textLength="35.7861" x="266.7208" y="488.4366">G&#233;rer</text><text fill="#000000" font-family="sans-serif" font-size="14" lengthAdjust="spacing" textLength="71.5996" x="248.814" y="506.046">stock d&#233;p&#244;t</text></g><g id="elem_GMN33"><path d="M594.5,357.1094 L594.5,399.8125 A0,0 0 0 0 594.5,399.8125 L594.5,399.8125 L336.62,478.2194 L602.5,399.8125 L742.7007,399.8125 A0,0 0 0 0 742.7007,399.8125 L742.7007,367.1094 L732.7007,357.1094 L594.5,357.1094 A0,0 0 0 0 594.5,357.1094 " fill="#FEFFDD" style="stroke:#181818;stroke-width:0.5;"/><path d="M732.7007,357.1094 L732.7007,367.1094 L742.7007,367.1094 L732.7007,357.1094 " fill="#FEFFDD" style="stroke:#181818;stroke-width:0.5;"/><text fill="#000000" font-family="sans-serif" font-size="13" lengthAdjust="spacing" textLength="114.5308" x="600.5" y="375.6045">&#128308; Pas de tra&#231;abilit&#233;</text><text fill="#000000" font-family="sans-serif" font-size="13" lengthAdjust="spacing" textLength="127.2007" x="600.5" y="391.9561">Rangement chaotique</text></g><g id="elem_UC8"><ellipse cx="668.4056" cy="863.5128" fill="#FFD700" rx="65.4056" ry="27.9034" style="stroke:#181818;stroke-width:0.5;"/><text fill="#000000" font-family="sans-serif" font-size="14" lengthAdjust="spacing" textLength="60.6963" x="638.0575" y="858.4366">Contacter</text><text fill="#000000" font-family="sans-serif" font-size="14" lengthAdjust="spacing" textLength="76.2549" x="630.2782" y="876.046">fournisseurs</text></g><g id="elem_GMN37"><path d="M870,842.1094 L870,859.6094 L734.2,863.6094 L870,867.6094 L870,884.8125 A0,0 0 0 0 870,884.8125 L999.7798,884.8125 A0,0 0 0 0 999.7798,884.8125 L999.7798,852.1094 L989.7798,842.1094 L870,842.1094 A0,0 0 0 0 870,842.1094 " fill="#FEFFDD" style="stroke:#181818;stroke-width:0.5;"/><path d="M989.7798,842.1094 L989.7798,852.1094 L999.7798,852.1094 L989.7798,842.1094 " fill="#FEFFDD" style="stroke:#181818;stroke-width:0.5;"/><text fill="#000000" font-family="sans-serif" font-size="13" lengthAdjust="spacing" textLength="108.7798" x="876" y="860.6045">&#128308; 100% t&#233;l&#233;phone</text><text fill="#000000" font-family="sans-serif" font-size="13" lengthAdjust="spacing" textLength="81.9609" x="876" y="876.9561">Pas d'EDI/API</text></g><g id="elem_UC9"><ellipse cx="284.6307" cy="311.5128" fill="#F1F1F1" rx="78.6307" ry="27.9034" style="stroke:#181818;stroke-width:0.5;"/><text fill="#000000" font-family="sans-serif" font-size="14" lengthAdjust="spacing" textLength="43.5791" x="262.8412" y="306.4366">Valider</text><text fill="#000000" font-family="sans-serif" font-size="14" lengthAdjust="spacing" textLength="94.958" x="237.1517" y="324.046">budgets achats</text></g><g id="elem_UC10"><ellipse cx="668.5085" cy="232.5128" fill="#FF6B6B" rx="72.0085" ry="27.9034" style="stroke:#181818;stroke-width:0.5;"/><text fill="#000000" font-family="sans-serif" font-size="14" lengthAdjust="spacing" textLength="54.4688" x="641.2741" y="227.4366">Analyser</text><text fill="#000000" font-family="sans-serif" font-size="14" lengthAdjust="spacing" textLength="85.5928" x="625.7121" y="245.046">performances</text></g><g id="elem_GMN42"><path d="M207,205.1094 L207,247.8125 A0,0 0 0 0 207,247.8125 L362.4243,247.8125 A0,0 0 0 0 362.4243,247.8125 L362.4243,231.8194 L596.26,231.4894 L362.4243,223.8194 L362.4243,215.1094 L352.4243,205.1094 L207,205.1094 A0,0 0 0 0 207,205.1094 " fill="#FEFFDD" style="stroke:#181818;stroke-width:0.5;"/><path d="M352.4243,205.1094 L352.4243,215.1094 L362.4243,215.1094 L352.4243,205.1094 " fill="#FEFFDD" style="stroke:#181818;stroke-width:0.5;"/><text fill="#000000" font-family="sans-serif" font-size="13" lengthAdjust="spacing" textLength="76.9463" x="213" y="223.6045">&#128308; Impossible</text><text fill="#000000" font-family="sans-serif" font-size="13" lengthAdjust="spacing" textLength="134.4243" x="213" y="239.9561">Donn&#233;es inexploitables</text></g><g id="elem_Sage"><ellipse cx="668.3538" cy="1313.5128" fill="#FF6B6B" rx="59.3538" ry="27.9034" style="stroke:#181818;stroke-width:0.5;"/><text fill="#000000" font-family="sans-serif" font-size="14" lengthAdjust="spacing" textLength="67.6963" x="634.5056" y="1308.4366">Sage MDE</text><text fill="#000000" font-family="sans-serif" font-size="14" lengthAdjust="spacing" textLength="65.3584" x="635.6746" y="1326.046">(Obsol&#232;te)</text></g><g id="elem_Excel1"><ellipse cx="668.7022" cy="1404.5128" fill="#FFD700" rx="68.7022" ry="27.9034" style="stroke:#181818;stroke-width:0.5;"/><text fill="#000000" font-family="sans-serif" font-size="14" lengthAdjust="spacing" textLength="34.2344" x="651.585" y="1399.4366">Excel</text><text fill="#000000" font-family="sans-serif" font-size="14" lengthAdjust="spacing" textLength="80.917" x="628.2437" y="1417.046">Fournisseurs</text></g><g id="elem_Excel2"><ellipse cx="668.6926" cy="1495.5128" fill="#FFD700" rx="35.6926" ry="27.9034" style="stroke:#181818;stroke-width:0.5;"/><text fill="#000000" font-family="sans-serif" font-size="14" lengthAdjust="spacing" textLength="34.2344" x="651.5755" y="1490.4366">Excel</text><text fill="#000000" font-family="sans-serif" font-size="14" lengthAdjust="spacing" textLength="30.3447" x="653.5203" y="1508.046">Suivi</text></g><g id="elem_Email"><ellipse cx="668.7389" cy="1234.5611" fill="#F1F1F1" rx="36.2389" ry="15.4517" style="stroke:#181818;stroke-width:0.5;"/><text fill="#000000" font-family="sans-serif" font-size="14" lengthAdjust="spacing" textLength="35.0068" x="651.2354" y="1238.2896">Email</text></g><g id="elem_Tel"><ellipse cx="668.3128" cy="1168.6831" fill="#FFD700" rx="58.8128" ry="15.5738" style="stroke:#181818;stroke-width:0.5;"/><text fill="#000000" font-family="sans-serif" font-size="14" lengthAdjust="spacing" textLength="66.165" x="632.2302" y="1173.1997">T&#233;l&#233;phone</text></g><g id="elem_Paper"><ellipse cx="668.6424" cy="1089.5128" fill="#FF6B6B" rx="40.6424" ry="27.9034" style="stroke:#181818;stroke-width:0.5;"/><text fill="#000000" font-family="sans-serif" font-size="14" lengthAdjust="spacing" textLength="40.4688" x="648.408" y="1084.4366">Papier</text><text fill="#000000" font-family="sans-serif" font-size="14" lengthAdjust="spacing" textLength="41.2344" x="648.0252" y="1102.046">(Bons)</text></g><!--entity Marc--><g id="elem_Marc"><ellipse cx="70.8516" cy="363.6094" fill="#FFB6C1" rx="8" ry="8" style="stroke:#181818;stroke-width:0.5;"/><path d="M70.8516,371.6094 L70.8516,398.6094 M57.8516,379.6094 L83.8516,379.6094 M70.8516,398.6094 L57.8516,413.6094 M70.8516,398.6094 L83.8516,413.6094 " fill="none" style="stroke:#181818;stroke-width:0.5;"/><text fill="#000000" font-family="sans-serif" font-size="14" lengthAdjust="spacing" textLength="31.1104" x="23" y="429.6426">Marc</text><text fill="#000000" font-family="sans-serif" font-size="14" lengthAdjust="spacing" textLength="95.7031" x="23" y="447.252">(Chef Chantier)</text></g><!--entity Sylvie--><g id="elem_Sylvie"><ellipse cx="284.6963" cy="1195.6094" fill="#ADD8E6" rx="8" ry="8" style="stroke:#181818;stroke-width:0.5;"/><path d="M284.6963,1203.6094 L284.6963,1230.6094 M271.6963,1211.6094 L297.6963,1211.6094 M284.6963,1230.6094 L271.6963,1245.6094 M284.6963,1230.6094 L297.6963,1245.6094 " fill="none" style="stroke:#181818;stroke-width:0.5;"/><text fill="#000000" font-family="sans-serif" font-size="14" lengthAdjust="spacing" textLength="37.3447" x="217" y="1261.6426">Sylvie</text><text fill="#000000" font-family="sans-serif" font-size="14" lengthAdjust="spacing" textLength="135.3926" x="217" y="1279.252">(Gestionnaire Achats)</text></g><!--entity Julien--><g id="elem_Julien"><ellipse cx="71.124" cy="1057.6094" fill="#FFDAB9" rx="8" ry="8" style="stroke:#181818;stroke-width:0.5;"/><path d="M71.124,1065.6094 L71.124,1092.6094 M58.124,1073.6094 L84.124,1073.6094 M71.124,1092.6094 L58.124,1107.6094 M71.124,1092.6094 L84.124,1107.6094 " fill="none" style="stroke:#181818;stroke-width:0.5;"/><text fill="#000000" font-family="sans-serif" font-size="14" lengthAdjust="spacing" textLength="36.5791" x="22.5" y="1123.6426">Julien</text><text fill="#000000" font-family="sans-serif" font-size="14" lengthAdjust="spacing" textLength="97.248" x="22.5" y="1141.252">(Resp. Affaires)</text></g><!--entity Eric--><g id="elem_Eric"><ellipse cx="70.8999" cy="729.6094" fill="#98FB98" rx="8" ry="8" style="stroke:#181818;stroke-width:0.5;"/><path d="M70.8999,737.6094 L70.8999,764.6094 M57.8999,745.6094 L83.8999,745.6094 M70.8999,764.6094 L57.8999,779.6094 M70.8999,764.6094 L83.8999,779.6094 " fill="none" style="stroke:#181818;stroke-width:0.5;"/><text fill="#000000" font-family="sans-serif" font-size="14" lengthAdjust="spacing" textLength="24.1104" x="32" y="795.6426">&#201;ric</text><text fill="#000000" font-family="sans-serif" font-size="14" lengthAdjust="spacing" textLength="77.7998" x="32" y="813.252">(Magasinier)</text></g><!--entity Christine--><g id="elem_Christine"><ellipse cx="70.9619" cy="232.6094" fill="#DDA0DD" rx="8" ry="8" style="stroke:#181818;stroke-width:0.5;"/><path d="M70.9619,240.6094 L70.9619,267.6094 M57.9619,248.6094 L83.9619,248.6094 M70.9619,267.6094 L57.9619,282.6094 M70.9619,267.6094 L83.9619,282.6094 " fill="none" style="stroke:#181818;stroke-width:0.5;"/><text fill="#000000" font-family="sans-serif" font-size="14" lengthAdjust="spacing" textLength="55.2412" x="6" y="298.6426">Christine</text><text fill="#000000" font-family="sans-serif" font-size="14" lengthAdjust="spacing" textLength="129.9238" x="6" y="316.252">(Directrice G&#233;n&#233;rale)</text></g><g id="elem_GMN82"><path d="M538,44.6094 L538,152.7188 L798.5288,152.7188 L798.5288,54.6094 L788.5288,44.6094 L538,44.6094 " fill="#FEFFDD" style="stroke:#181818;stroke-width:0.5;"/><path d="M788.5288,44.6094 L788.5288,54.6094 L798.5288,54.6094 L788.5288,44.6094 " fill="#FEFFDD" style="stroke:#181818;stroke-width:1;"/><text fill="#000000" font-family="sans-serif" font-size="13" font-weight="bold" lengthAdjust="spacing" textLength="149.519" x="544" y="63.1045">PROBL&#200;MES MAJEURS</text><text fill="#000000" font-family="sans-serif" font-size="13" lengthAdjust="spacing" textLength="190.4233" x="544" y="79.4561">&#128308; Aucune int&#233;gration entre outils</text><text fill="#000000" font-family="sans-serif" font-size="13" lengthAdjust="spacing" textLength="239.5288" x="544" y="95.8076">&#128308; Re-saisie 6-7 fois des m&#234;mes donn&#233;es</text><text fill="#000000" font-family="sans-serif" font-size="13" lengthAdjust="spacing" textLength="168.708" x="544" y="112.1592">&#128308; Pas de visibilit&#233; temps r&#233;el</text><text fill="#000000" font-family="sans-serif" font-size="13" lengthAdjust="spacing" textLength="126.4009" x="544" y="128.5107">&#128308; Taux d'erreur &#233;lev&#233;</text><text fill="#000000" font-family="sans-serif" font-size="13" lengthAdjust="spacing" textLength="123.9126" x="544" y="144.8623">&#128308; Pertes importantes</text></g><!--link UC2 to GMN13--><g id="link_UC2_GMN13"><path d="M333.4,390.5094 C384.16,377.7294 466.68,357.0394 538,339.6094 C562.48,333.6294 589.59,327.1194 612.65,321.6194 " fill="none" id="UC2-GMN13" style="stroke:#181818;stroke-width:1;stroke-dasharray:7.0,7.0;"/></g><!--link Marc to UC1--><g id="link_Marc_UC1"><path d="M119.16,360.0894 C125.49,352.7394 131.38,344.8094 136,336.6094 C169.6,276.9694 120.81,229.4394 175,187.6094 C243.6,134.6494 292.73,148.3594 370,187.6094 C482.86,244.9294 436.51,341.9494 538,417.6094 C558.95,433.2194 579.922,442.1788 603.642,449.2788 " fill="none" id="Marc-to-UC1" style="stroke:#181818;stroke-width:1;"/><polygon fill="#181818" points="609.39,450.9994,601.915,444.5866,604.6,449.5656,599.6209,452.2506,609.39,450.9994" style="stroke:#181818;stroke-width:1;"/></g><!--link Marc to UC2--><g id="link_Marc_UC2"><path d="M119.2,402.6094 C152.19,402.6094 190.29,402.6094 224.49,402.6094 " fill="none" id="Marc-to-UC2" style="stroke:#181818;stroke-width:1;"/><polygon fill="#181818" points="230.49,402.6094,221.49,398.6094,225.49,402.6094,221.49,406.6094,230.49,402.6094" style="stroke:#181818;stroke-width:1;"/></g><!--link Marc to Paper--><g id="link_Marc_Paper"><path d="M83.47,450.3294 C97.38,509.4794 120.84,613.5194 136,703.6094 C147.63,772.7294 135.08,958.9894 175,1016.6094 C264.42,1145.6794 352.46,1156.1294 508,1134.6094 C551.75,1128.5594 594.7083,1115.5369 626.6383,1104.5169 " fill="none" id="Marc-to-Paper" style="stroke:#181818;stroke-width:1;stroke-dasharray:7.0,7.0;"/><polygon fill="#181818" points="632.31,1102.5594,622.4975,1101.7145,627.5836,1104.1906,625.1074,1109.2767,632.31,1102.5594" style="stroke:#181818;stroke-width:1;"/><text fill="#000000" font-family="sans-serif" font-size="13" lengthAdjust="spacing" textLength="33.2363" x="268" y="1013.1045">utilise</text></g><!--link Sylvie to UC3--><g id="link_Sylvie_UC3"><path d="M350.53,1186.7394 C358.19,1178.4994 365.03,1169.3994 370,1159.6094 C401.93,1096.7094 356.08,898.7994 400,843.6094 C413.6,826.5194 532.5074,791.5898 606.7574,771.0398 " fill="none" id="Sylvie-to-UC3" style="stroke:#181818;stroke-width:1;"/><polygon fill="#181818" points="612.54,769.4394,602.7991,767.985,607.7212,770.7731,604.933,775.6951,612.54,769.4394" style="stroke:#181818;stroke-width:1;"/></g><!--link Sylvie to UC4--><g id="link_Sylvie_UC4"><path d="M349.49,1186.8494 C357.4,1178.5394 364.59,1169.3894 370,1159.6094 C409.24,1088.6294 340.63,1034.8594 400,979.6094 C451.56,931.6294 529.4126,930.7563 589.4826,938.7663 " fill="none" id="Sylvie-to-UC4" style="stroke:#181818;stroke-width:1;"/><polygon fill="#181818" points="595.43,939.5594,587.0377,934.4049,590.4739,938.8985,585.9803,942.3347,595.43,939.5594" style="stroke:#181818;stroke-width:1;"/></g><!--link Sylvie to UC8--><g id="link_Sylvie_UC8"><path d="M349.91,1187.0694 C357.76,1178.7294 364.82,1169.5194 370,1159.6094 C396.13,1109.6294 361.02,948.3594 400,907.6094 C427.2,879.1694 527.0477,869.4136 597.1577,865.8536 " fill="none" id="Sylvie-to-UC8" style="stroke:#181818;stroke-width:1;"/><polygon fill="#181818" points="603.15,865.5494,593.9587,862.0109,598.1564,865.8029,594.3644,870.0006,603.15,865.5494" style="stroke:#181818;stroke-width:1;"/></g><!--link Sylvie to Sage--><g id="link_Sylvie_Sage"><path d="M352.19,1270.0294 C367.53,1276.8894 384.04,1283.2694 400,1287.6094 C470.13,1306.6594 547.9419,1311.9986 602.8319,1313.3786 " fill="none" id="Sylvie-to-Sage" style="stroke:#181818;stroke-width:1;stroke-dasharray:7.0,7.0;"/><polygon fill="#181818" points="608.83,1313.5294,599.9334,1309.3044,603.8316,1313.4037,599.7323,1317.3019,608.83,1313.5294" style="stroke:#181818;stroke-width:1;"/><text fill="#000000" font-family="sans-serif" font-size="13" lengthAdjust="spacing" textLength="33.2363" x="437.5" y="1284.1045">utilise</text></g><!--link Sylvie to Excel1--><g id="link_Sylvie_Excel1"><path d="M339.08,1282.3294 C365.3,1305.3394 392.77,1328.7894 400,1332.6094 C464.87,1366.8294 541.4689,1384.8001 597.5789,1394.5701 " fill="none" id="Sylvie-to-Excel1" style="stroke:#181818;stroke-width:1;stroke-dasharray:7.0,7.0;"/><polygon fill="#181818" points="603.49,1395.5994,595.3096,1390.1148,598.5641,1394.7417,593.9372,1397.9962,603.49,1395.5994" style="stroke:#181818;stroke-width:1;"/><text fill="#000000" font-family="sans-serif" font-size="13" lengthAdjust="spacing" textLength="33.2363" x="437.5" y="1329.1045">utilise</text></g><!--link Sylvie to Excel2--><g id="link_Sylvie_Excel2"><path d="M347.28,1282.3294 C355.7,1290.7594 363.63,1299.9494 370,1309.6094 C393.22,1344.7994 370.57,1369.4094 400,1399.6094 C464.05,1465.3394 570.2794,1485.5433 626.8394,1492.0533 " fill="none" id="Sylvie-to-Excel2" style="stroke:#181818;stroke-width:1;stroke-dasharray:7.0,7.0;"/><polygon fill="#181818" points="632.8,1492.7394,624.3164,1487.7365,627.8328,1492.1677,623.4017,1495.684,632.8,1492.7394" style="stroke:#181818;stroke-width:1;"/><text fill="#000000" font-family="sans-serif" font-size="13" lengthAdjust="spacing" textLength="33.2363" x="437.5" y="1396.1045">utilise</text></g><!--link Sylvie to Email--><g id="link_Sylvie_Email"><path d="M352.04,1250.9694 C367.67,1254.1494 384.34,1256.9894 400,1258.6094 C485.11,1267.4294 579.7626,1252.4264 629.8826,1242.5764 " fill="none" id="Sylvie-to-Email" style="stroke:#181818;stroke-width:1;stroke-dasharray:7.0,7.0;"/><polygon fill="#181818" points="635.77,1241.4194,626.1676,1239.23,630.8638,1242.3836,627.7103,1247.0799,635.77,1241.4194" style="stroke:#181818;stroke-width:1;"/><text fill="#000000" font-family="sans-serif" font-size="13" lengthAdjust="spacing" textLength="33.2363" x="437.5" y="1255.1045">utilise</text></g><!--link Sylvie to Tel--><g id="link_Sylvie_Tel"><path d="M352.33,1225.2194 C396.58,1218.7994 455.86,1209.8194 508,1200.6094 C546.66,1193.7794 584.4869,1186.1567 616.3569,1179.4967 " fill="none" id="Sylvie-to-Tel" style="stroke:#181818;stroke-width:1;stroke-dasharray:7.0,7.0;"/><polygon fill="#181818" points="622.23,1178.2694,612.6021,1176.195,617.3357,1179.2922,614.2385,1184.0258,622.23,1178.2694" style="stroke:#181818;stroke-width:1;"/><text fill="#000000" font-family="sans-serif" font-size="13" lengthAdjust="spacing" textLength="33.2363" x="437.5" y="1197.1045">utilise</text></g><!--link Julien to UC1--><g id="link_Julien_UC1"><path d="M86.23,1048.9394 C101.81,1003.5194 130.65,935.5994 175,890.6094 C243.52,821.0994 306.82,863.9994 370,789.6094 C397.84,756.8294 380.41,735.8994 400,697.6094 C447.38,605.0194 454.41,570.4894 538,508.6094 C558.85,493.1694 579.661,484.4027 603.301,477.4927 " fill="none" id="Julien-to-UC1" style="stroke:#181818;stroke-width:1;"/><polygon fill="#181818" points="609.06,475.8094,599.2992,474.4951,604.2608,477.2122,601.5437,482.1738,609.06,475.8094" style="stroke:#181818;stroke-width:1;"/></g><!--link Julien to UC6--><g id="link_Julien_UC6"><path d="M119.63,1058.4094 C181.09,1007.9094 289.64,914.5594 370,822.6094 C385.33,805.0594 381.8,794.1594 400,779.6094 C440.49,747.2494 464.08,763.1294 508,735.6094 C523.2,726.0794 523.12,718.6294 538,708.6094 C563.71,691.2894 589.4128,678.3966 614.7328,667.1966 " fill="none" id="Julien-to-UC6" style="stroke:#181818;stroke-width:1;"/><polygon fill="#181818" points="620.22,664.7694,610.3712,664.752,615.6474,666.792,613.6074,672.0682,620.22,664.7694" style="stroke:#181818;stroke-width:1;"/></g><!--link Julien to UC9--><g id="link_Julien_UC9"><path d="M85.96,1049.0794 C100.76,996.7494 123.67,909.9194 136,833.6094 C152.96,728.6194 112.38,442.5694 175,356.6094 C185.33,342.4294 195.4114,334.9825 211.6214,328.3125 " fill="none" id="Julien-to-UC9" style="stroke:#181818;stroke-width:1;"/><polygon fill="#181818" points="217.17,326.0294,207.325,325.755,212.5461,327.932,210.3691,333.1531,217.17,326.0294" style="stroke:#181818;stroke-width:1;"/></g><!--link Julien to Sage--><g id="link_Julien_Sage"><path d="M72.47,1144.1394 C76.03,1213.0494 93.99,1338.7694 175,1396.6094 C235.24,1439.6094 440.74,1421.4994 508,1390.6094 C525.72,1382.4694 521.65,1369.2294 538,1358.6094 C561.25,1343.4994 584.3984,1334.504 608.9984,1327.354 " fill="none" id="Julien-to-Sage" style="stroke:#181818;stroke-width:1;stroke-dasharray:7.0,7.0;"/><polygon fill="#181818" points="614.76,1325.6794,605.0012,1324.3502,609.9587,1327.0749,607.234,1332.0323,614.76,1325.6794" style="stroke:#181818;stroke-width:1;"/><text fill="#000000" font-family="sans-serif" font-size="13" lengthAdjust="spacing" textLength="48.4199" x="260.5" y="1393.1045">consulte</text></g><!--link Julien to Excel1--><g id="link_Julien_Excel1"><path d="M78.87,1144.3894 C92.52,1231.8094 126.02,1411.9094 175,1448.6094 C242.24,1498.9894 488.7739,1447.9922 603.8339,1420.5322 " fill="none" id="Julien-to-Excel1" style="stroke:#181818;stroke-width:1;stroke-dasharray:7.0,7.0;"/><polygon fill="#181818" points="609.67,1419.1394,599.9873,1417.3379,604.8066,1420.3001,601.8444,1425.1194,609.67,1419.1394" style="stroke:#181818;stroke-width:1;"/><text fill="#000000" font-family="sans-serif" font-size="13" lengthAdjust="spacing" textLength="48.4199" x="260.5" y="1445.1045">consulte</text></g><!--link Julien to Excel2--><g id="link_Julien_Excel2"><path d="M77.08,1144.3894 C88.43,1240.8694 119.31,1453.4494 175,1496.6094 C315.23,1605.2994 546.0396,1539.1293 630.6096,1509.3993 " fill="none" id="Julien-to-Excel2" style="stroke:#181818;stroke-width:1;stroke-dasharray:7.0,7.0;"/><polygon fill="#181818" points="636.27,1507.4094,626.4528,1506.6206,631.553,1509.0676,629.106,1514.1678,636.27,1507.4094" style="stroke:#181818;stroke-width:1;"/><text fill="#000000" font-family="sans-serif" font-size="13" lengthAdjust="spacing" textLength="48.4199" x="260.5" y="1493.1045">consulte</text></g><!--link Eric to UC5--><g id="link_Eric_UC5"><path d="M110.29,784.0794 C170.1,805.5794 287.39,836.8594 370,789.6094 C392.83,776.5494 380.11,755.8094 400,738.6094 C439.21,704.7094 472.86,732.7094 508,694.6094 C538.02,662.0594 507.14,631.3594 538,599.6094 C555.17,581.9394 573.8474,572.8455 596.8874,566.3155 " fill="none" id="Eric-to-UC5" style="stroke:#181818;stroke-width:1;"/><polygon fill="#181818" points="602.66,564.6794,592.9103,563.2851,597.8495,566.0428,595.0918,570.9819,602.66,564.6794" style="stroke:#181818;stroke-width:1;"/></g><!--link Eric to UC7--><g id="link_Eric_UC7"><path d="M82.43,720.9794 C95.83,670.0194 123.75,589.7594 175,539.6094 C190.21,524.7294 205.3374,516.4067 224.6274,509.3267 " fill="none" id="Eric-to-UC7" style="stroke:#181818;stroke-width:1;"/><polygon fill="#181818" points="230.26,507.2594,220.4329,506.6053,225.5662,508.9821,223.1893,514.1154,230.26,507.2594" style="stroke:#181818;stroke-width:1;"/></g><!--link Eric to UC2--><g id="link_Eric_UC2"><path d="M74.98,721.0294 C81.71,652.3294 103.65,525.1194 175,447.6094 C190.61,430.6494 207.8708,421.7448 228.6608,415.0248 " fill="none" id="Eric-to-UC2" style="stroke:#181818;stroke-width:1;"/><polygon fill="#181818" points="234.37,413.1794,224.576,412.1413,229.6124,414.7172,227.0365,419.7536,234.37,413.1794" style="stroke:#181818;stroke-width:1;"/></g><!--link Eric to Sage--><g id="link_Eric_Sage"><path d="M85.17,816.2794 C99.29,868.7194 121.62,955.6594 136,1031.6094 C147.93,1094.6294 126.68,1275.4294 175,1317.6094 C238.61,1373.1294 491.2705,1341.5266 606.1405,1323.7566 " fill="none" id="Eric-to-Sage" style="stroke:#181818;stroke-width:1;stroke-dasharray:7.0,7.0;"/><polygon fill="#181818" points="612.07,1322.8394,602.5643,1320.2623,607.1288,1323.6038,603.7873,1328.1683,612.07,1322.8394" style="stroke:#181818;stroke-width:1;"/><text fill="#000000" font-family="sans-serif" font-size="13" lengthAdjust="spacing" textLength="33.2363" x="268" y="1314.1045">utilise</text></g><!--link Christine to UC10--><g id="link_Christine_UC10"><path d="M88.5,223.8094 C103.09,189.6894 128.02,146.3294 166,125.6094 C299.44,52.8194 373.61,54.5894 508,125.6094 C528.93,136.6694 520.09,154.1294 538,169.6094 C560.23,188.8094 583.7945,201.3446 608.7845,211.7946 " fill="none" id="Christine-to-UC10" style="stroke:#181818;stroke-width:1;"/><polygon fill="#181818" points="614.32,214.1094,607.5599,206.9469,609.7071,212.1804,604.4736,214.3276,614.32,214.1094" style="stroke:#181818;stroke-width:1;"/></g><!--link Christine to UC9--><g id="link_Christine_UC9"><path d="M136.03,283.7194 C160.96,288.4294 183.6648,292.7231 209.0148,297.5231 " fill="none" id="Christine-to-UC9" style="stroke:#181818;stroke-width:1;"/><polygon fill="#181818" points="214.91,298.6394,206.8113,293.0348,209.9973,297.7092,205.323,300.8952,214.91,298.6394" style="stroke:#181818;stroke-width:1;"/></g><!--link UC1 to UC4--><g id="link_UC1_UC4"><path d="M605.59,472.5794 C581.56,478.9694 555.71,489.8994 538,508.6094 C440.13,611.9594 452.59,773.6494 460.5,798.6094 C478.57,855.6194 490.32,872.5094 538,908.6094 C555.53,921.8794 571.5034,929.6155 592.1234,936.5555 " fill="none" id="UC1-to-UC4" style="stroke:#181818;stroke-width:1;stroke-dasharray:7.0,7.0;"/><polygon fill="#181818" points="597.81,938.4694,590.5561,931.8075,593.0712,936.8745,588.0042,939.3896,597.81,938.4694" style="stroke:#181818;stroke-width:1;"/><text fill="#000000" font-family="sans-serif" font-size="13" lengthAdjust="spacing" textLength="55.6563" x="426.5" y="795.1045">&#171;include&#187;</text></g><!--link UC3 to UC4--><g id="link_UC3_UC4"><path d="M616.53,771.7894 C537.84,800.4194 403.36,861.2594 460.5,926.6094 C491.92,962.5394 539.6574,969.3265 584.6374,967.0965 " fill="none" id="UC3-to-UC4" style="stroke:#181818;stroke-width:1;stroke-dasharray:7.0,7.0;"/><polygon fill="#181818" points="590.63,966.7994,581.443,963.2499,585.6361,967.047,581.8391,971.2401,590.63,966.7994" style="stroke:#181818;stroke-width:1;"/><text fill="#000000" font-family="sans-serif" font-size="13" lengthAdjust="spacing" textLength="55.6563" x="426.5" y="923.1045">&#171;include&#187;</text></g><!--link UC3 to UC8--><g id="link_UC3_UC8"><path d="M668.5,782.9594 C668.5,799.1594 668.5,813.3894 668.5,829.5394 " fill="none" id="UC3-to-UC8" style="stroke:#181818;stroke-width:1;stroke-dasharray:7.0,7.0;"/><polygon fill="#181818" points="668.5,835.5394,672.5,826.5394,668.5,830.5394,664.5,826.5394,668.5,835.5394" style="stroke:#181818;stroke-width:1;"/><text fill="#000000" font-family="sans-serif" font-size="13" lengthAdjust="spacing" textLength="55.6563" x="629" y="814.6045">&#171;include&#187;</text></g><!--link UC5 to UC4--><g id="link_UC5_UC4"><path d="M602.5,564.7694 C579.48,571.2994 555.15,582.0194 538,599.6094 C407.45,733.5594 449.5,843.2894 460.5,862.6094 C486.63,908.4994 536.4023,930.1218 583.5523,941.6718 " fill="none" id="UC5-to-UC4" style="stroke:#181818;stroke-width:1;stroke-dasharray:7.0,7.0;"/><polygon fill="#181818" points="589.38,943.0994,581.5902,937.0729,584.5236,941.9097,579.6867,944.8432,589.38,943.0994" style="stroke:#181818;stroke-width:1;"/><text fill="#000000" font-family="sans-serif" font-size="13" lengthAdjust="spacing" textLength="55.6563" x="426.5" y="859.1045">&#171;include&#187;</text></g><!--link UC6 to UC3--><g id="link_UC6_UC3"><path d="M668.5,673.9594 C668.5,690.1594 668.5,704.3894 668.5,720.5394 " fill="none" id="UC6-to-UC3" style="stroke:#181818;stroke-width:1;stroke-dasharray:7.0,7.0;"/><polygon fill="#181818" points="668.5,726.5394,672.5,717.5394,668.5,721.5394,664.5,717.5394,668.5,726.5394" style="stroke:#181818;stroke-width:1;"/><text fill="#000000" font-family="sans-serif" font-size="13" lengthAdjust="spacing" textLength="55.6563" x="629" y="705.6045">&#171;include&#187;</text></g><!--link UC4 to Tel--><g id="link_UC4_Tel"><path d="M593.72,940.5194 C541.11,935.3694 473.48,939.2394 435,982.6094 C380.84,1043.6494 468.6,1091.6794 538,1134.6094 C561.1,1148.8994 584.1706,1156.0729 608.9306,1160.8929 " fill="none" id="UC4-to-Tel" style="stroke:#181818;stroke-width:1;stroke-dasharray:7.0,7.0;"/><polygon fill="#181818" points="614.82,1162.0394,606.7502,1156.3933,609.9121,1161.084,605.2215,1164.2459,614.82,1162.0394" style="stroke:#181818;stroke-width:1;"/><text fill="#000000" font-family="sans-serif" font-size="13" lengthAdjust="spacing" textLength="53.4917" x="427.7268" y="997.1045">&#171;extend&#187;</text><text fill="#000000" font-family="sans-serif" font-size="13" lengthAdjust="spacing" textLength="106.9453" x="401" y="1013.4561">appels clarification</text></g><!--link UC8 to Email--><g id="link_UC8_Email"><path d="M607.21,873.7994 C583.28,880.3694 557.08,891.1194 538,908.6094 C426.91,1010.4694 415.5,1055.5894 453,1133.6094 C485.58,1201.3894 574.8079,1223.0079 627.1179,1230.3279 " fill="none" id="UC8-to-Email" style="stroke:#181818;stroke-width:1;stroke-dasharray:7.0,7.0;"/><polygon fill="#181818" points="633.06,1231.1594,624.7012,1225.9507,628.1082,1230.4665,623.5925,1233.8735,633.06,1231.1594" style="stroke:#181818;stroke-width:1;"/><text fill="#000000" font-family="sans-serif" font-size="13" lengthAdjust="spacing" textLength="53.4917" x="427.6582" y="1114.1045">&#171;extend&#187;</text><text fill="#000000" font-family="sans-serif" font-size="13" lengthAdjust="spacing" textLength="70.8081" x="419" y="1130.4561">confirmation</text></g><!--link Paper to GMN82--><g id="link_Paper_GMN82"><path d="M629.15,1082.5794 C578.44,1071.1794 492.25,1043.3194 454,981.1094 C363.8,834.3994 363.53,352.6494 454,206.1094 C473.31,174.8294 504.8,152.3394 537.77,136.2994 " fill="none" id="Paper-GMN82" style="stroke:#181818;stroke-width:1;stroke-dasharray:7.0,7.0;"/></g><!--SRC=[VLOxR-is5DxrAmuIj4a3EDUFnB6Bm81jsK4k4YHmaavUQ9cosLAKIb91BehkxTIbUyTUT-fmjuxw9_q5_Gazf9vsB0zv79tNTzxKJ7CABuh2cE0lbv6L904qOEYjYLRmDTo5AwOq-p6cC1m_lqpk78TJNuCEGRBLMiEIIUff5Wh78PuE9HpT4-dDnUbuJNqOhudGZCflZe0eC1mudav7tN4hbtxwn5yPHVaRgemPGT1WvZ_LIYNWUEYwlKatr_iOSqO5wiseYivXwFj6CLD9cSQLEnprSvNaLyaCidko8eg90jO4FyDnlpSTzNkvx7WjJTp287DjY2X4uIRPY6GZ2QUfQY46nwuxRBgkunXP8bQOLunDwUHpa8VJU9VC8mDnEXsFuIV70OWLzKmTZiPX412nf78k0gBH8QFS-diPjsnKLyqcoejGqwmCeMzu-0tWlpz-_mBF97w3vGcLaiOIaWsdhyd6il_zxM_emFTXB1NIL2ojcHttGiLS6_TAXzuFcUls0TVjqhMBHKmsLA6C09-H1QUrdfubOTQFbqMiCb-TNL-swwohJkcg2v8s566AMHTfSEqrH4H2Rh7EzOnwQohDprp8PEDZbgd04aSoNCPCPpWk38xkg3lQ4_D52QJLXbSY6JOxLHyo2vQBgVHZXNsD4wEnRMhH91kFHdO0323ENZ4p2kkGuRYipyTb1KQp-HLWr37bHJfQwqxJ9gImMOVXAKO9YebB_j5gBemEISSg0z7TJKO9ehkd_WohkhPfrPNoTB0ys7mG2_3MpFSbjIpS3IjQTYmBeb1gayywj3V6SjwXi4msKV8bhzhLWKwzAf4-el2IWfOa-PCi66Swcv4P3Z0D43T29A6Ts0Eped5d62G-XYMOKeW_Brll093UJjtGESSerg58CsBHdKpSsm_3nziwzzyHpkoUMCJB5SMLJUogoTptjsI7Wl1FoWX7LFgXn4RnYe5hDUkBssgMK6-nC4gn1Kz1LefDto8UClrktd_UseaFiMPSmUaJuw7PrkXqSZ5fuGAiTYB1NhXt9xXy7nOgvCbddIrSooc15XgJDu_okPZkbi1-h-xCNGtJzAmKRUyL3GXBzw_zRsk1bKMp0i-KxxFmI29c4dywmf5E8y5FL1QXO99EO4OvCIiWlPIEFPUDni1kzWhHJedpyq5cv5imIMMARXj93wUJtSzKjxDDNcoJlPmqjcsgIzCLJfRKUbwxXcUojvzbybOJHdhCdUocv_dO8hlRP3ydAs5usKshieeuQfdjAdCBbNrCEFRfa3gzh19NLQAT4djokcMnU4iuvQiYYxRvxbFVwDuAZyTuCntpB3YtzKJZrzSi_JuOEEQG7cRqtZ4kwpIwAQEpmq0WapTDXRbo1ie55FMylgQ6inmCve944SN1zpZUIPzvDcZ7-AyqHbKUq-upt57fsz9kf4MeTHZWN9sTFSuUHdV9B_UJ9xWVVfoyp9xEpfniHGrZByP4CO4R5T-pnW1k8usdBRJB9vURvMy7w3Qkm0-PkGOAWkIl0FyiiytcR1-BLrJ8JWLe6aGAyF5Wp-t1TrTgWafjLcLnsvHJRCd_0G00]--></g></svg>