<svg xmlns="http://www.w3.org/2000/svg" xmlns:xlink="http://www.w3.org/1999/xlink" contentStyleType="text/css" height="1888px" preserveAspectRatio="none" style="width:931px;height:1888px;background:#FFFFFF;" version="1.1" viewBox="0 0 931 1888" width="931px" zoomAndPan="magnify"><title>Processus Prise de RDV - &#201;TAT ACTUEL (Archa&#239;que)</title><defs/><g><text fill="#000000" font-family="sans-serif" font-size="14" font-weight="bold" lengthAdjust="spacing" textLength="353.9648" x="287.0675" y="34.5332">Processus Prise de RDV - &#201;TAT ACTUEL (Archa&#239;que)</text><ellipse cx="457.9294" cy="58.6094" fill="#222222" rx="10" ry="10" style="stroke:#222222;stroke-width:1;"/><path d="M552.2976,92.9805 L552.2976,102.1563 L532.2976,106.1563 L552.2976,110.1563 L552.2976,119.332 A0,0 0 0 0 552.2976,119.332 L690.3801,119.332 A0,0 0 0 0 690.3801,119.332 L690.3801,102.9805 L680.3801,92.9805 L552.2976,92.9805 A0,0 0 0 0 552.2976,92.9805 " fill="#FEFFDD" style="stroke:#181818;stroke-width:0.5;"/><path d="M680.3801,92.9805 L680.3801,102.9805 L690.3801,102.9805 L680.3801,92.9805 " fill="#FEFFDD" style="stroke:#181818;stroke-width:0.5;"/><text fill="#000000" font-family="sans-serif" font-size="13" lengthAdjust="spacing" textLength="117.0825" x="558.2976" y="111.4756">&#128222; T&#233;l&#233;phone sonne</text><rect fill="#F1F1F1" height="35.0938" rx="12.5" ry="12.5" style="stroke:#181818;stroke-width:0.5;" width="148.7363" x="383.5613" y="88.6094"/><text fill="#000000" font-family="sans-serif" font-size="12" lengthAdjust="spacing" textLength="128.7363" x="393.5613" y="111.0664">Client appelle pour RDV</text><rect fill="#F1F1F1" height="35.0938" rx="12.5" ry="12.5" style="stroke:#181818;stroke-width:0.5;" width="104.041" x="405.9089" y="143.7031"/><text fill="#000000" font-family="sans-serif" font-size="12" lengthAdjust="spacing" textLength="84.041" x="415.9089" y="166.1602">Claire d&#233;croche</text><path d="M528.614,203.168 L528.614,212.3438 L508.614,216.3438 L528.614,220.3438 L528.614,229.5195 A0,0 0 0 0 528.614,229.5195 L654.7566,229.5195 A0,0 0 0 0 654.7566,229.5195 L654.7566,213.168 L644.7566,203.168 L528.614,203.168 A0,0 0 0 0 528.614,203.168 " fill="#FEFFDD" style="stroke:#181818;stroke-width:0.5;"/><path d="M644.7566,203.168 L644.7566,213.168 L654.7566,213.168 L644.7566,203.168 " fill="#FEFFDD" style="stroke:#181818;stroke-width:0.5;"/><text fill="#000000" font-family="sans-serif" font-size="13" lengthAdjust="spacing" textLength="105.1426" x="534.614" y="221.6631">&#128308; &#9200; 30 secondes</text><rect fill="#F1F1F1" height="35.0938" rx="12.5" ry="12.5" style="stroke:#181818;stroke-width:0.5;" width="101.3691" x="407.2449" y="198.7969"/><text fill="#000000" font-family="sans-serif" font-size="12" lengthAdjust="spacing" textLength="81.3691" x="417.2449" y="221.2539">Cherche post-it</text><path d="M528.6111,258.2617 L528.6111,267.4375 L508.6111,271.4375 L528.6111,275.4375 L528.6111,284.6133 A0,0 0 0 0 528.6111,284.6133 L708.9309,284.6133 A0,0 0 0 0 708.9309,284.6133 L708.9309,268.2617 L698.9309,258.2617 L528.6111,258.2617 A0,0 0 0 0 528.6111,258.2617 " fill="#FEFFDD" style="stroke:#181818;stroke-width:0.5;"/><path d="M698.9309,258.2617 L698.9309,268.2617 L708.9309,268.2617 L698.9309,258.2617 " fill="#FEFFDD" style="stroke:#181818;stroke-width:0.5;"/><text fill="#000000" font-family="sans-serif" font-size="13" lengthAdjust="spacing" textLength="159.3198" x="534.6111" y="276.7568">&#128308; Informations incompl&#232;tes</text><rect fill="#F1F1F1" height="35.0938" rx="12.5" ry="12.5" style="stroke:#181818;stroke-width:0.5;" width="101.3633" x="407.2478" y="253.8906"/><text fill="#000000" font-family="sans-serif" font-size="12" lengthAdjust="spacing" textLength="81.3633" x="417.2478" y="276.3477">Note sur post-it</text><path d="M571.2351,305.1797 L571.2351,322.5313 L551.2351,326.5313 L571.2351,330.5313 L571.2351,347.8828 A0,0 0 0 0 571.2351,347.8828 L759.1531,347.8828 A0,0 0 0 0 759.1531,347.8828 L759.1531,315.1797 L749.1531,305.1797 L571.2351,305.1797 A0,0 0 0 0 571.2351,305.1797 " fill="#FEFFDD" style="stroke:#181818;stroke-width:0.5;"/><path d="M749.1531,305.1797 L749.1531,315.1797 L759.1531,315.1797 L749.1531,305.1797 " fill="#FEFFDD" style="stroke:#181818;stroke-width:0.5;"/><text fill="#000000" font-family="sans-serif" font-size="13" lengthAdjust="spacing" textLength="81.2817" x="577.2351" y="323.6748">&#128308; &#9200; 1 minute</text><text fill="#000000" font-family="sans-serif" font-size="13" lengthAdjust="spacing" textLength="166.918" x="577.2351" y="340.0264">Fichier r&#233;seau X:\Planning\...</text><rect fill="#F1F1F1" height="35.0938" rx="12.5" ry="12.5" style="stroke:#181818;stroke-width:0.5;" width="186.6113" x="364.6238" y="308.9844"/><text fill="#000000" font-family="sans-serif" font-size="12" lengthAdjust="spacing" textLength="166.6113" x="374.6238" y="331.4414">Ouvre Excel "Planning Ga&#235;tan"</text><path d="M546.9656,364.0781 L546.9656,381.4297 L526.9656,385.4297 L546.9656,389.4297 L546.9656,406.7813 A0,0 0 0 0 546.9656,406.7813 L720.9568,406.7813 A0,0 0 0 0 720.9568,406.7813 L720.9568,374.0781 L710.9568,364.0781 L546.9656,364.0781 A0,0 0 0 0 546.9656,364.0781 " fill="#FEFFDD" style="stroke:#181818;stroke-width:0.5;"/><path d="M710.9568,364.0781 L710.9568,374.0781 L720.9568,374.0781 L710.9568,364.0781 " fill="#FEFFDD" style="stroke:#181818;stroke-width:0.5;"/><text fill="#000000" font-family="sans-serif" font-size="13" lengthAdjust="spacing" textLength="152.9912" x="552.9656" y="382.5732">&#128308; "Dispo ?" = INCERTAIN</text><text fill="#000000" font-family="sans-serif" font-size="13" lengthAdjust="spacing" textLength="72.9727" x="552.9656" y="398.9248">&#9200; 2 minutes</text><rect fill="#F1F1F1" height="35.0938" rx="12.5" ry="12.5" style="stroke:#181818;stroke-width:0.5;" width="138.0723" x="388.8933" y="367.8828"/><text fill="#000000" font-family="sans-serif" font-size="12" lengthAdjust="spacing" textLength="118.0723" x="398.8933" y="390.3398">Regarde disponibilit&#233;s</text><polygon fill="#F1F1F1" points="424.6018,426.7813,491.2571,426.7813,503.2571,438.7813,491.2571,450.7813,424.6018,450.7813,412.6018,438.7813,424.6018,426.7813" style="stroke:#181818;stroke-width:0.5;"/><text fill="#000000" font-family="sans-serif" font-size="11" lengthAdjust="spacing" textLength="66.6553" x="424.6018" y="443.2822">S&#251;r &#224; 100% ?</text><text fill="#000000" font-family="sans-serif" font-size="11" lengthAdjust="spacing" textLength="38.5" x="374.1018" y="436.3643">&#10060; NON</text><text fill="#000000" font-family="sans-serif" font-size="11" lengthAdjust="spacing" textLength="67.23" x="503.2571" y="436.3643">&#9989; OUI - Rare</text><path d="M307.0364,460.7813 L307.0364,494.4844 L287.0364,498.4844 L307.0364,502.4844 L307.0364,536.1875 A0,0 0 0 0 307.0364,536.1875 L448.2419,536.1875 A0,0 0 0 0 448.2419,536.1875 L448.2419,470.7813 L438.2419,460.7813 L307.0364,460.7813 A0,0 0 0 0 307.0364,460.7813 " fill="#FEFFDD" style="stroke:#181818;stroke-width:0.5;"/><path d="M438.2419,460.7813 L438.2419,470.7813 L448.2419,470.7813 L438.2419,460.7813 " fill="#FEFFDD" style="stroke:#181818;stroke-width:0.5;"/><text fill="#000000" font-family="sans-serif" font-size="13" lengthAdjust="spacing" textLength="120.2056" x="313.0364" y="479.2764">&#128556; "Je dois confirmer</text><text fill="#000000" font-family="sans-serif" font-size="13" lengthAdjust="spacing" textLength="118.79" x="313.0364" y="495.6279">avec le technicien..."</text><text fill="#000000" font-family="sans-serif" font-size="13" lengthAdjust="spacing" textLength="72.9727" x="313.0364" y="511.9795">&#9200; 5 minutes</text><text fill="#000000" font-family="sans-serif" font-size="13" lengthAdjust="spacing" textLength="79.46" x="313.0364" y="528.3311">(client frustr&#233;)</text><rect fill="#F1F1F1" height="50.1875" rx="12.5" ry="12.5" style="stroke:#181818;stroke-width:0.5;" width="111.3945" x="175.6418" y="473.3906"/><text fill="#000000" font-family="sans-serif" font-size="12" lengthAdjust="spacing" textLength="91.3945" x="185.6418" y="495.8477">Propose cr&#233;neau</text><text fill="#000000" font-family="sans-serif" font-size="12" lengthAdjust="spacing" textLength="60.6738" x="185.6418" y="510.9414">(PAS S&#219;R)</text><path d="M302.9495,568.1055 L302.9495,577.2813 L282.9495,581.2813 L302.9495,585.2813 L302.9495,594.457 A0,0 0 0 0 302.9495,594.457 L405.2312,594.457 A0,0 0 0 0 405.2312,594.457 L405.2312,578.1055 L395.2312,568.1055 L302.9495,568.1055 A0,0 0 0 0 302.9495,568.1055 " fill="#FEFFDD" style="stroke:#181818;stroke-width:0.5;"/><path d="M395.2312,568.1055 L395.2312,578.1055 L405.2312,578.1055 L395.2312,568.1055 " fill="#FEFFDD" style="stroke:#181818;stroke-width:0.5;"/><text fill="#000000" font-family="sans-serif" font-size="13" lengthAdjust="spacing" textLength="81.2817" x="308.9495" y="586.6006">&#128308; &#9200; 1 minute</text><rect fill="#F1F1F1" height="50.1875" rx="12.5" ry="12.5" style="stroke:#181818;stroke-width:0.5;" width="103.2207" x="179.7288" y="556.1875"/><text fill="#000000" font-family="sans-serif" font-size="12" lengthAdjust="spacing" textLength="81.3633" x="189.7288" y="578.6445">Note sur post-it</text><text fill="#000000" font-family="sans-serif" font-size="12" lengthAdjust="spacing" textLength="83.2207" x="189.7288" y="593.7383">"Mail Ga&#235;tan..."</text><path d="M316.7043,630.7461 L316.7043,639.9219 L296.7043,643.9219 L316.7043,647.9219 L316.7043,657.0977 A0,0 0 0 0 316.7043,657.0977 L425.4861,657.0977 A0,0 0 0 0 425.4861,657.0977 L425.4861,640.7461 L415.4861,630.7461 L316.7043,630.7461 A0,0 0 0 0 316.7043,630.7461 " fill="#FEFFDD" style="stroke:#181818;stroke-width:0.5;"/><path d="M415.4861,630.7461 L415.4861,640.7461 L425.4861,640.7461 L415.4861,630.7461 " fill="#FEFFDD" style="stroke:#181818;stroke-width:0.5;"/><text fill="#000000" font-family="sans-serif" font-size="13" lengthAdjust="spacing" textLength="87.7817" x="322.7043" y="649.2412">&#128308; &#9200; 3 minutes</text><rect fill="#F1F1F1" height="35.0938" rx="12.5" ry="12.5" style="stroke:#181818;stroke-width:0.5;" width="130.7305" x="165.9739" y="626.375"/><text fill="#000000" font-family="sans-serif" font-size="12" lengthAdjust="spacing" textLength="110.7305" x="175.9739" y="648.832">Envoie MAIL Ga&#235;tan</text><path d="M330.7053,693.3867 L330.7053,702.5625 L310.7053,706.5625 L330.7053,710.5625 L330.7053,719.7383 A0,0 0 0 0 330.7053,719.7383 L573.1624,719.7383 A0,0 0 0 0 573.1624,719.7383 L573.1624,703.3867 L563.1624,693.3867 L330.7053,693.3867 A0,0 0 0 0 330.7053,693.3867 " fill="#FEFFDD" style="stroke:#181818;stroke-width:0.5;"/><path d="M563.1624,693.3867 L563.1624,703.3867 L573.1624,703.3867 L563.1624,693.3867 " fill="#FEFFDD" style="stroke:#181818;stroke-width:0.5;"/><text fill="#000000" font-family="sans-serif" font-size="13" lengthAdjust="spacing" textLength="221.457" x="336.7053" y="711.8818">&#128308; Communication asynchrone LENTE</text><rect fill="#F1F1F1" height="50.1875" rx="12.5" ry="12.5" style="stroke:#181818;stroke-width:0.5;" width="158.7324" x="151.9729" y="681.4688"/><text fill="#000000" font-family="sans-serif" font-size="12" lengthAdjust="spacing" textLength="118.0195" x="161.9729" y="703.9258">ATTENTE 7 HEURES</text><text fill="#000000" font-family="sans-serif" font-size="12" lengthAdjust="spacing" textLength="138.7324" x="161.9729" y="719.0195">(Ga&#235;tan sur interventions)</text><polygon fill="#F1F1F1" points="194.0342,751.6563,268.644,751.6563,280.644,763.6563,268.644,775.6563,194.0342,775.6563,182.0342,763.6563,194.0342,751.6563" style="stroke:#181818;stroke-width:0.5;"/><text fill="#000000" font-family="sans-serif" font-size="11" lengthAdjust="spacing" textLength="74.6099" x="194.0342" y="768.1572">Ga&#235;tan dispo ?</text><text fill="#000000" font-family="sans-serif" font-size="11" lengthAdjust="spacing" textLength="38.5" x="143.5342" y="761.2393">&#10060; NON</text><text fill="#000000" font-family="sans-serif" font-size="11" lengthAdjust="spacing" textLength="33.6123" x="280.644" y="761.2393">&#9989; OUI</text><rect fill="#F1F1F1" height="50.1875" rx="12.5" ry="12.5" style="stroke:#181818;stroke-width:0.5;" width="143.9082" x="11.3926" y="785.6563"/><text fill="#000000" font-family="sans-serif" font-size="12" lengthAdjust="spacing" textLength="80.0625" x="21.3926" y="808.1133">Ga&#235;tan r&#233;pond</text><text fill="#000000" font-family="sans-serif" font-size="12" lengthAdjust="spacing" textLength="123.9082" x="21.3926" y="823.207">"D&#233;sol&#233; pris, je peux..."</text><path d="M173.3936,859.5859 L173.3936,876.9375 L153.3936,880.9375 L173.3936,884.9375 L173.3936,902.2891 A0,0 0 0 0 173.3936,902.2891 L304.9761,902.2891 A0,0 0 0 0 304.9761,902.2891 L304.9761,869.5859 L294.9761,859.5859 L173.3936,859.5859 A0,0 0 0 0 173.3936,859.5859 " fill="#FEFFDD" style="stroke:#181818;stroke-width:0.5;"/><path d="M294.9761,859.5859 L294.9761,869.5859 L304.9761,869.5859 L294.9761,859.5859 " fill="#FEFFDD" style="stroke:#181818;stroke-width:0.5;"/><text fill="#000000" font-family="sans-serif" font-size="13" lengthAdjust="spacing" textLength="87.7817" x="179.3936" y="878.0811">&#128308; &#9200; 2 minutes</text><text fill="#000000" font-family="sans-serif" font-size="13" lengthAdjust="spacing" textLength="110.5825" x="179.3936" y="894.4326">Souvent r&#233;pondeur</text><rect fill="#F1F1F1" height="50.1875" rx="12.5" ry="12.5" style="stroke:#181818;stroke-width:0.5;" width="140.0938" x="13.2998" y="855.8438"/><text fill="#000000" font-family="sans-serif" font-size="12" lengthAdjust="spacing" textLength="71.3789" x="23.2998" y="878.3008">Appelle client</text><text fill="#000000" font-family="sans-serif" font-size="12" lengthAdjust="spacing" textLength="120.0938" x="23.2998" y="893.3945">pour nouveau cr&#233;neau</text><path d="M140.0215,974.9492 L140.0215,992.3008 L120.0215,996.3008 L140.0215,1000.3008 L140.0215,1017.6523 A0,0 0 0 0 140.0215,1017.6523 L254.9668,1017.6523 A0,0 0 0 0 254.9668,1017.6523 L254.9668,984.9492 L244.9668,974.9492 L140.0215,974.9492 A0,0 0 0 0 140.0215,974.9492 " fill="#FEFFDD" style="stroke:#181818;stroke-width:0.5;"/><path d="M244.9668,974.9492 L244.9668,984.9492 L254.9668,984.9492 L244.9668,974.9492 " fill="#FEFFDD" style="stroke:#181818;stroke-width:0.5;"/><text fill="#000000" font-family="sans-serif" font-size="13" lengthAdjust="spacing" textLength="87.7817" x="146.0215" y="993.4443">&#128308; &#9200; 5 minutes</text><text fill="#000000" font-family="sans-serif" font-size="13" lengthAdjust="spacing" textLength="93.9453" x="146.0215" y="1009.7959">Pas de template</text><rect fill="#F1F1F1" height="35.0938" rx="12.5" ry="12.5" style="stroke:#181818;stroke-width:0.5;" width="73.3496" x="46.6719" y="978.7539"/><text fill="#000000" font-family="sans-serif" font-size="12" lengthAdjust="spacing" textLength="53.3496" x="56.6719" y="1001.2109">Mail client</text><rect fill="#F1F1F1" height="50.1875" rx="12.5" ry="12.5" style="stroke:#181818;stroke-width:0.5;" width="144.6934" x="11" y="1037.6523"/><text fill="#000000" font-family="sans-serif" font-size="12" lengthAdjust="spacing" textLength="124.6934" x="21" y="1060.1094">ATTENTE 15 HEURES</text><text fill="#000000" font-family="sans-serif" font-size="12" lengthAdjust="spacing" textLength="70.3594" x="21" y="1075.2031">(nuit + matin)</text><rect fill="#F1F1F1" height="35.0938" rx="12.5" ry="12.5" style="stroke:#181818;stroke-width:0.5;" width="120.5703" x="23.0615" y="1107.8398"/><text fill="#000000" font-family="sans-serif" font-size="12" lengthAdjust="spacing" textLength="100.5703" x="33.0615" y="1130.2969">Client r&#233;pond "OK"</text><polygon fill="#F1F1F1" points="40.5444,926.0313,126.1489,926.0313,138.1489,938.0313,126.1489,950.0313,40.5444,950.0313,28.5444,938.0313,40.5444,926.0313" style="stroke:#181818;stroke-width:0.5;"/><text fill="#000000" font-family="sans-serif" font-size="11" lengthAdjust="spacing" textLength="38.5" x="87.3467" y="961.4502">&#10060; NON</text><text fill="#000000" font-family="sans-serif" font-size="11" lengthAdjust="spacing" textLength="85.6045" x="40.5444" y="942.5322">Client d&#233;croche ?</text><polygon fill="#F1F1F1" points="83.3467,1162.9336,95.3467,1174.9336,83.3467,1186.9336,71.3467,1174.9336,83.3467,1162.9336" style="stroke:#181818;stroke-width:0.5;"/><rect fill="#F1F1F1" height="35.0938" rx="12.5" ry="12.5" style="stroke:#181818;stroke-width:0.5;" width="108.7109" x="324.9761" y="785.6563"/><text fill="#000000" font-family="sans-serif" font-size="12" lengthAdjust="spacing" textLength="88.7109" x="334.9761" y="808.1133">Ga&#235;tan confirme</text><polygon fill="#F1F1F1" points="231.3391,1192.9336,243.3391,1204.9336,231.3391,1216.9336,219.3391,1204.9336,231.3391,1192.9336" style="stroke:#181818;stroke-width:0.5;"/><rect fill="#F1F1F1" height="50.1875" rx="12.5" ry="12.5" style="stroke:#181818;stroke-width:0.5;" width="117.3828" x="172.6477" y="1236.9336"/><text fill="#000000" font-family="sans-serif" font-size="12" lengthAdjust="spacing" textLength="71.3789" x="182.6477" y="1259.3906">Appelle client</text><text fill="#000000" font-family="sans-serif" font-size="12" lengthAdjust="spacing" textLength="97.3828" x="182.6477" y="1274.4844">confirmation finale</text><path d="M288.0139,1360.4102 L288.0139,1369.5859 L268.0139,1373.5859 L288.0139,1377.5859 L288.0139,1386.7617 A0,0 0 0 0 288.0139,1386.7617 L396.7957,1386.7617 A0,0 0 0 0 396.7957,1386.7617 L396.7957,1370.4102 L386.7957,1360.4102 L288.0139,1360.4102 A0,0 0 0 0 288.0139,1360.4102 " fill="#FEFFDD" style="stroke:#181818;stroke-width:0.5;"/><path d="M386.7957,1360.4102 L386.7957,1370.4102 L396.7957,1370.4102 L386.7957,1360.4102 " fill="#FEFFDD" style="stroke:#181818;stroke-width:0.5;"/><text fill="#000000" font-family="sans-serif" font-size="13" lengthAdjust="spacing" textLength="87.7817" x="294.0139" y="1378.9053">&#128308; &#9200; 5 minutes</text><rect fill="#F1F1F1" height="35.0938" rx="12.5" ry="12.5" style="stroke:#181818;stroke-width:0.5;" width="73.3496" x="194.6643" y="1356.0391"/><text fill="#000000" font-family="sans-serif" font-size="12" lengthAdjust="spacing" textLength="53.3496" x="204.6643" y="1378.4961">Mail client</text><rect fill="#F1F1F1" height="35.0938" rx="12.5" ry="12.5" style="stroke:#181818;stroke-width:0.5;" width="146.7148" x="157.9817" y="1426.1328"/><text fill="#000000" font-family="sans-serif" font-size="12" lengthAdjust="spacing" textLength="126.7148" x="167.9817" y="1448.5898">ATTENTE client r&#233;pond</text><polygon fill="#F1F1F1" points="188.5369,1307.1211,274.1414,1307.1211,286.1414,1319.1211,274.1414,1331.1211,188.5369,1331.1211,176.5369,1319.1211,188.5369,1307.1211" style="stroke:#181818;stroke-width:0.5;"/><text fill="#000000" font-family="sans-serif" font-size="11" lengthAdjust="spacing" textLength="38.5" x="235.3391" y="1342.54">&#10060; NON</text><text fill="#000000" font-family="sans-serif" font-size="11" lengthAdjust="spacing" textLength="85.6045" x="188.5369" y="1323.6221">Client d&#233;croche ?</text><polygon fill="#F1F1F1" points="231.3391,1481.2266,243.3391,1493.2266,231.3391,1505.2266,219.3391,1493.2266,231.3391,1481.2266" style="stroke:#181818;stroke-width:0.5;"/><path d="M795.8772,465.1523 L795.8772,474.3281 L775.8772,478.3281 L795.8772,482.3281 L795.8772,491.5039 A0,0 0 0 0 795.8772,491.5039 L919.0999,491.5039 A0,0 0 0 0 919.0999,491.5039 L919.0999,475.1523 L909.0999,465.1523 L795.8772,465.1523 A0,0 0 0 0 795.8772,465.1523 " fill="#FEFFDD" style="stroke:#181818;stroke-width:0.5;"/><path d="M909.0999,465.1523 L909.0999,475.1523 L919.0999,475.1523 L909.0999,465.1523 " fill="#FEFFDD" style="stroke:#181818;stroke-width:0.5;"/><text fill="#000000" font-family="sans-serif" font-size="13" lengthAdjust="spacing" textLength="102.2227" x="801.8772" y="483.6475">&#9989; RARE (&lt; 10%)</text><rect fill="#F1F1F1" height="35.0938" rx="12.5" ry="12.5" style="stroke:#181818;stroke-width:0.5;" width="182.7148" x="593.1624" y="460.7813"/><text fill="#000000" font-family="sans-serif" font-size="12" lengthAdjust="spacing" textLength="162.7148" x="603.1624" y="483.2383">Confirme RDV imm&#233;diatement</text><polygon fill="#F1F1F1" points="457.9294,1511.2266,469.9294,1523.2266,457.9294,1535.2266,445.9294,1523.2266,457.9294,1511.2266" style="stroke:#181818;stroke-width:0.5;"/><path d="M544.9646,1559.5977 L544.9646,1568.7734 L524.9646,1572.7734 L544.9646,1576.7734 L544.9646,1585.9492 A0,0 0 0 0 544.9646,1585.9492 L653.7463,1585.9492 A0,0 0 0 0 653.7463,1585.9492 L653.7463,1569.5977 L643.7463,1559.5977 L544.9646,1559.5977 A0,0 0 0 0 544.9646,1559.5977 " fill="#FEFFDD" style="stroke:#181818;stroke-width:0.5;"/><path d="M643.7463,1559.5977 L643.7463,1569.5977 L653.7463,1569.5977 L643.7463,1559.5977 " fill="#FEFFDD" style="stroke:#181818;stroke-width:0.5;"/><text fill="#000000" font-family="sans-serif" font-size="13" lengthAdjust="spacing" textLength="87.7817" x="550.9646" y="1578.0928">&#128308; &#9200; 2 minutes</text><rect fill="#F1F1F1" height="35.0938" rx="12.5" ry="12.5" style="stroke:#181818;stroke-width:0.5;" width="134.0703" x="390.8943" y="1555.2266"/><text fill="#000000" font-family="sans-serif" font-size="12" lengthAdjust="spacing" textLength="114.0703" x="400.8943" y="1577.6836">Saisie Excel planning</text><path d="M542.6091,1622.2383 L542.6091,1631.4141 L522.6091,1635.4141 L542.6091,1639.4141 L542.6091,1648.5898 A0,0 0 0 0 542.6091,1648.5898 L651.3909,1648.5898 A0,0 0 0 0 651.3909,1648.5898 L651.3909,1632.2383 L641.3909,1622.2383 L542.6091,1622.2383 A0,0 0 0 0 542.6091,1622.2383 " fill="#FEFFDD" style="stroke:#181818;stroke-width:0.5;"/><path d="M641.3909,1622.2383 L641.3909,1632.2383 L651.3909,1632.2383 L641.3909,1622.2383 " fill="#FEFFDD" style="stroke:#181818;stroke-width:0.5;"/><text fill="#000000" font-family="sans-serif" font-size="13" lengthAdjust="spacing" textLength="87.7817" x="548.6091" y="1640.7334">&#128308; &#9200; 2 minutes</text><rect fill="#F1F1F1" height="50.1875" rx="12.5" ry="12.5" style="stroke:#181818;stroke-width:0.5;" width="129.3594" x="393.2498" y="1610.3203"/><text fill="#000000" font-family="sans-serif" font-size="12" lengthAdjust="spacing" textLength="77.373" x="403.2498" y="1632.7773">Saisie Outlook</text><text fill="#000000" font-family="sans-serif" font-size="12" lengthAdjust="spacing" textLength="109.3594" x="403.2498" y="1647.8711">(DOUBLE SAISIE !!)</text><path d="M548.9519,1676.7031 L548.9519,1694.0547 L528.9519,1698.0547 L548.9519,1702.0547 L548.9519,1719.4063 A0,0 0 0 0 548.9519,1719.4063 L663.8972,1719.4063 A0,0 0 0 0 663.8972,1719.4063 L663.8972,1686.7031 L653.8972,1676.7031 L548.9519,1676.7031 A0,0 0 0 0 548.9519,1676.7031 " fill="#FEFFDD" style="stroke:#181818;stroke-width:0.5;"/><path d="M653.8972,1676.7031 L653.8972,1686.7031 L663.8972,1686.7031 L653.8972,1676.7031 " fill="#FEFFDD" style="stroke:#181818;stroke-width:0.5;"/><text fill="#000000" font-family="sans-serif" font-size="13" lengthAdjust="spacing" textLength="87.7817" x="554.9519" y="1695.1982">&#128308; &#9200; 5 minutes</text><text fill="#000000" font-family="sans-serif" font-size="13" lengthAdjust="spacing" textLength="93.9453" x="554.9519" y="1711.5498">Pas de template</text><rect fill="#F1F1F1" height="35.0938" rx="12.5" ry="12.5" style="stroke:#181818;stroke-width:0.5;" width="142.0449" x="386.907" y="1680.5078"/><text fill="#000000" font-family="sans-serif" font-size="12" lengthAdjust="spacing" textLength="122.0449" x="396.907" y="1702.9648">Mail confirmation client</text><path d="M550.6306,1743.7773 L550.6306,1752.9531 L530.6306,1756.9531 L550.6306,1760.9531 L550.6306,1770.1289 A0,0 0 0 0 550.6306,1770.1289 L659.4124,1770.1289 A0,0 0 0 0 659.4124,1770.1289 L659.4124,1753.7773 L649.4124,1743.7773 L550.6306,1743.7773 A0,0 0 0 0 550.6306,1743.7773 " fill="#FEFFDD" style="stroke:#181818;stroke-width:0.5;"/><path d="M649.4124,1743.7773 L649.4124,1753.7773 L659.4124,1753.7773 L649.4124,1743.7773 " fill="#FEFFDD" style="stroke:#181818;stroke-width:0.5;"/><text fill="#000000" font-family="sans-serif" font-size="13" lengthAdjust="spacing" textLength="87.7817" x="556.6306" y="1762.2725">&#128308; &#9200; 3 minutes</text><rect fill="#F1F1F1" height="35.0938" rx="12.5" ry="12.5" style="stroke:#181818;stroke-width:0.5;" width="145.4023" x="385.2283" y="1739.4063"/><text fill="#000000" font-family="sans-serif" font-size="12" lengthAdjust="spacing" textLength="125.4023" x="395.2283" y="1761.8633">Mail notification Ga&#235;tan</text><path d="M488.9294,1784.5 L488.9294,1826.3789 L468.9294,1830.3789 L488.9294,1834.3789 L488.9294,1876.2578 A0,0 0 0 0 488.9294,1876.2578 L702.8538,1876.2578 A0,0 0 0 0 702.8538,1876.2578 L702.8538,1794.5 L692.8538,1784.5 L488.9294,1784.5 A0,0 0 0 0 488.9294,1784.5 " fill="#FEFFDD" style="stroke:#181818;stroke-width:0.5;"/><path d="M692.8538,1784.5 L692.8538,1794.5 L702.8538,1794.5 L692.8538,1784.5 " fill="#FEFFDD" style="stroke:#181818;stroke-width:0.5;"/><text fill="#000000" font-family="sans-serif" font-size="13" font-weight="bold" lengthAdjust="spacing" textLength="123.5127" x="494.9294" y="1802.9951">TOTAL: 48 HEURES</text><text fill="#000000" font-family="sans-serif" font-size="13" font-weight="bold" lengthAdjust="spacing" textLength="70.0845" x="494.9294" y="1819.3467">14 &#201;TAPES</text><text fill="#000000" font-family="sans-serif" font-size="13" lengthAdjust="spacing" textLength="114.8989" x="568.6257" y="1819.3467">(dont 10 manuelles)</text><text fill="#000000" font-family="sans-serif" font-size="13" font-weight="bold" lengthAdjust="spacing" textLength="153.1689" x="494.9294" y="1835.6982">40 min temps actif Claire</text><text fill="#000000" font-family="sans-serif" font-size="13" font-weight="bold" lengthAdjust="spacing" textLength="45.5063" x="494.9294" y="1852.0498">3 outils</text><text fill="#000000" font-family="sans-serif" font-size="13" lengthAdjust="spacing" textLength="123.5317" x="544.0476" y="1852.0498">(Excel, Outlook, mail)</text><text fill="#000000" font-family="sans-serif" font-size="13" font-weight="bold" lengthAdjust="spacing" textLength="54.2153" x="494.9294" y="1868.4014">3 saisies</text><text fill="#000000" font-family="sans-serif" font-size="13" lengthAdjust="spacing" textLength="135.0972" x="552.7566" y="1868.4014">(post-it, Excel, Outlook)</text><ellipse cx="457.9294" cy="1830.3789" fill="none" rx="11" ry="11" style="stroke:#222222;stroke-width:1;"/><ellipse cx="457.9294" cy="1830.3789" fill="#222222" rx="6" ry="6" style="stroke:#222222;stroke-width:1;"/><line style="stroke:#181818;stroke-width:1;" x1="457.9294" x2="457.9294" y1="68.6094" y2="88.6094"/><polygon fill="#181818" points="453.9294,78.6094,457.9294,88.6094,461.9294,78.6094,457.9294,82.6094" style="stroke:#181818;stroke-width:1;"/><line style="stroke:#181818;stroke-width:1;" x1="457.9294" x2="457.9294" y1="123.7031" y2="143.7031"/><polygon fill="#181818" points="453.9294,133.7031,457.9294,143.7031,461.9294,133.7031,457.9294,137.7031" style="stroke:#181818;stroke-width:1;"/><line style="stroke:#181818;stroke-width:1;" x1="457.9294" x2="457.9294" y1="178.7969" y2="198.7969"/><polygon fill="#181818" points="453.9294,188.7969,457.9294,198.7969,461.9294,188.7969,457.9294,192.7969" style="stroke:#181818;stroke-width:1;"/><line style="stroke:#181818;stroke-width:1;" x1="457.9294" x2="457.9294" y1="233.8906" y2="253.8906"/><polygon fill="#181818" points="453.9294,243.8906,457.9294,253.8906,461.9294,243.8906,457.9294,247.8906" style="stroke:#181818;stroke-width:1;"/><line style="stroke:#181818;stroke-width:1;" x1="457.9294" x2="457.9294" y1="288.9844" y2="308.9844"/><polygon fill="#181818" points="453.9294,298.9844,457.9294,308.9844,461.9294,298.9844,457.9294,302.9844" style="stroke:#181818;stroke-width:1;"/><line style="stroke:#181818;stroke-width:1;" x1="457.9294" x2="457.9294" y1="344.0781" y2="367.8828"/><polygon fill="#181818" points="453.9294,357.8828,457.9294,367.8828,461.9294,357.8828,457.9294,361.8828" style="stroke:#181818;stroke-width:1;"/><line style="stroke:#181818;stroke-width:1;" x1="231.3391" x2="231.3391" y1="523.5781" y2="556.1875"/><polygon fill="#181818" points="227.3391,546.1875,231.3391,556.1875,235.3391,546.1875,231.3391,550.1875" style="stroke:#181818;stroke-width:1;"/><line style="stroke:#181818;stroke-width:1;" x1="231.3391" x2="231.3391" y1="606.375" y2="626.375"/><polygon fill="#181818" points="227.3391,616.375,231.3391,626.375,235.3391,616.375,231.3391,620.375" style="stroke:#181818;stroke-width:1;"/><line style="stroke:#181818;stroke-width:1;" x1="231.3391" x2="231.3391" y1="661.4688" y2="681.4688"/><polygon fill="#181818" points="227.3391,671.4688,231.3391,681.4688,235.3391,671.4688,231.3391,675.4688" style="stroke:#181818;stroke-width:1;"/><line style="stroke:#181818;stroke-width:1;" x1="83.3467" x2="83.3467" y1="835.8438" y2="855.8438"/><polygon fill="#181818" points="79.3467,845.8438,83.3467,855.8438,87.3467,845.8438,83.3467,849.8438" style="stroke:#181818;stroke-width:1;"/><line style="stroke:#181818;stroke-width:1;" x1="83.3467" x2="83.3467" y1="1013.8477" y2="1037.6523"/><polygon fill="#181818" points="79.3467,1027.6523,83.3467,1037.6523,87.3467,1027.6523,83.3467,1031.6523" style="stroke:#181818;stroke-width:1;"/><line style="stroke:#181818;stroke-width:1;" x1="83.3467" x2="83.3467" y1="1087.8398" y2="1107.8398"/><polygon fill="#181818" points="79.3467,1097.8398,83.3467,1107.8398,87.3467,1097.8398,83.3467,1101.8398" style="stroke:#181818;stroke-width:1;"/><line style="stroke:#181818;stroke-width:1;" x1="83.3467" x2="83.3467" y1="950.0313" y2="978.7539"/><polygon fill="#181818" points="79.3467,968.7539,83.3467,978.7539,87.3467,968.7539,83.3467,972.7539" style="stroke:#181818;stroke-width:1;"/><line style="stroke:#181818;stroke-width:1;" x1="138.1489" x2="264.9668" y1="938.0313" y2="938.0313"/><polygon fill="#181818" points="260.9668,1048.9414,264.9668,1058.9414,268.9668,1048.9414,264.9668,1052.9414" style="stroke:#181818;stroke-width:1;"/><line style="stroke:#181818;stroke-width:1;" x1="264.9668" x2="264.9668" y1="938.0313" y2="1174.9336"/><line style="stroke:#181818;stroke-width:1;" x1="264.9668" x2="95.3467" y1="1174.9336" y2="1174.9336"/><polygon fill="#181818" points="105.3467,1170.9336,95.3467,1174.9336,105.3467,1178.9336,101.3467,1174.9336" style="stroke:#181818;stroke-width:1;"/><line style="stroke:#181818;stroke-width:1;" x1="83.3467" x2="83.3467" y1="1142.9336" y2="1162.9336"/><polygon fill="#181818" points="79.3467,1152.9336,83.3467,1162.9336,87.3467,1152.9336,83.3467,1156.9336" style="stroke:#181818;stroke-width:1;"/><line style="stroke:#181818;stroke-width:1;" x1="83.3467" x2="83.3467" y1="906.0313" y2="926.0313"/><polygon fill="#181818" points="79.3467,916.0313,83.3467,926.0313,87.3467,916.0313,83.3467,920.0313" style="stroke:#181818;stroke-width:1;"/><line style="stroke:#181818;stroke-width:1;" x1="182.0342" x2="83.3467" y1="763.6563" y2="763.6563"/><line style="stroke:#181818;stroke-width:1;" x1="83.3467" x2="83.3467" y1="763.6563" y2="785.6563"/><polygon fill="#181818" points="79.3467,775.6563,83.3467,785.6563,87.3467,775.6563,83.3467,779.6563" style="stroke:#181818;stroke-width:1;"/><line style="stroke:#181818;stroke-width:1;" x1="280.644" x2="379.3315" y1="763.6563" y2="763.6563"/><line style="stroke:#181818;stroke-width:1;" x1="379.3315" x2="379.3315" y1="763.6563" y2="785.6563"/><polygon fill="#181818" points="375.3315,775.6563,379.3315,785.6563,383.3315,775.6563,379.3315,779.6563" style="stroke:#181818;stroke-width:1;"/><line style="stroke:#181818;stroke-width:1;" x1="83.3467" x2="83.3467" y1="1186.9336" y2="1204.9336"/><line style="stroke:#181818;stroke-width:1;" x1="83.3467" x2="219.3391" y1="1204.9336" y2="1204.9336"/><polygon fill="#181818" points="209.3391,1200.9336,219.3391,1204.9336,209.3391,1208.9336,213.3391,1204.9336" style="stroke:#181818;stroke-width:1;"/><line style="stroke:#181818;stroke-width:1;" x1="379.3315" x2="379.3315" y1="820.75" y2="1204.9336"/><line style="stroke:#181818;stroke-width:1;" x1="379.3315" x2="243.3391" y1="1204.9336" y2="1204.9336"/><polygon fill="#181818" points="253.3391,1200.9336,243.3391,1204.9336,253.3391,1208.9336,249.3391,1204.9336" style="stroke:#181818;stroke-width:1;"/><line style="stroke:#181818;stroke-width:1;" x1="231.3391" x2="231.3391" y1="731.6563" y2="751.6563"/><polygon fill="#181818" points="227.3391,741.6563,231.3391,751.6563,235.3391,741.6563,231.3391,745.6563" style="stroke:#181818;stroke-width:1;"/><line style="stroke:#181818;stroke-width:1;" x1="231.3391" x2="231.3391" y1="1216.9336" y2="1236.9336"/><polygon fill="#181818" points="227.3391,1226.9336,231.3391,1236.9336,235.3391,1226.9336,231.3391,1230.9336" style="stroke:#181818;stroke-width:1;"/><line style="stroke:#181818;stroke-width:1;" x1="231.3391" x2="231.3391" y1="1391.1328" y2="1426.1328"/><polygon fill="#181818" points="227.3391,1416.1328,231.3391,1426.1328,235.3391,1416.1328,231.3391,1420.1328" style="stroke:#181818;stroke-width:1;"/><line style="stroke:#181818;stroke-width:1;" x1="231.3391" x2="231.3391" y1="1331.1211" y2="1356.0391"/><polygon fill="#181818" points="227.3391,1346.0391,231.3391,1356.0391,235.3391,1346.0391,231.3391,1350.0391" style="stroke:#181818;stroke-width:1;"/><line style="stroke:#181818;stroke-width:1;" x1="286.1414" x2="406.7957" y1="1319.1211" y2="1319.1211"/><polygon fill="#181818" points="402.7957,1398.6328,406.7957,1408.6328,410.7957,1398.6328,406.7957,1402.6328" style="stroke:#181818;stroke-width:1;"/><line style="stroke:#181818;stroke-width:1;" x1="406.7957" x2="406.7957" y1="1319.1211" y2="1493.2266"/><line style="stroke:#181818;stroke-width:1;" x1="406.7957" x2="243.3391" y1="1493.2266" y2="1493.2266"/><polygon fill="#181818" points="253.3391,1489.2266,243.3391,1493.2266,253.3391,1497.2266,249.3391,1493.2266" style="stroke:#181818;stroke-width:1;"/><line style="stroke:#181818;stroke-width:1;" x1="231.3391" x2="231.3391" y1="1461.2266" y2="1481.2266"/><polygon fill="#181818" points="227.3391,1471.2266,231.3391,1481.2266,235.3391,1471.2266,231.3391,1475.2266" style="stroke:#181818;stroke-width:1;"/><line style="stroke:#181818;stroke-width:1;" x1="231.3391" x2="231.3391" y1="1287.1211" y2="1307.1211"/><polygon fill="#181818" points="227.3391,1297.1211,231.3391,1307.1211,235.3391,1297.1211,231.3391,1301.1211" style="stroke:#181818;stroke-width:1;"/><line style="stroke:#181818;stroke-width:1;" x1="412.6018" x2="231.3391" y1="438.7813" y2="438.7813"/><line style="stroke:#181818;stroke-width:1;" x1="231.3391" x2="231.3391" y1="438.7813" y2="473.3906"/><polygon fill="#181818" points="227.3391,463.3906,231.3391,473.3906,235.3391,463.3906,231.3391,467.3906" style="stroke:#181818;stroke-width:1;"/><line style="stroke:#181818;stroke-width:1;" x1="503.2571" x2="684.5198" y1="438.7813" y2="438.7813"/><line style="stroke:#181818;stroke-width:1;" x1="684.5198" x2="684.5198" y1="438.7813" y2="460.7813"/><polygon fill="#181818" points="680.5198,450.7813,684.5198,460.7813,688.5198,450.7813,684.5198,454.7813" style="stroke:#181818;stroke-width:1;"/><line style="stroke:#181818;stroke-width:1;" x1="231.3391" x2="231.3391" y1="1505.2266" y2="1523.2266"/><line style="stroke:#181818;stroke-width:1;" x1="231.3391" x2="445.9294" y1="1523.2266" y2="1523.2266"/><polygon fill="#181818" points="435.9294,1519.2266,445.9294,1523.2266,435.9294,1527.2266,439.9294,1523.2266" style="stroke:#181818;stroke-width:1;"/><line style="stroke:#181818;stroke-width:1;" x1="684.5198" x2="684.5198" y1="495.875" y2="1523.2266"/><line style="stroke:#181818;stroke-width:1;" x1="684.5198" x2="469.9294" y1="1523.2266" y2="1523.2266"/><polygon fill="#181818" points="479.9294,1519.2266,469.9294,1523.2266,479.9294,1527.2266,475.9294,1523.2266" style="stroke:#181818;stroke-width:1;"/><line style="stroke:#181818;stroke-width:1;" x1="457.9294" x2="457.9294" y1="402.9766" y2="426.7813"/><polygon fill="#181818" points="453.9294,416.7813,457.9294,426.7813,461.9294,416.7813,457.9294,420.7813" style="stroke:#181818;stroke-width:1;"/><line style="stroke:#181818;stroke-width:1;" x1="457.9294" x2="457.9294" y1="1535.2266" y2="1555.2266"/><polygon fill="#181818" points="453.9294,1545.2266,457.9294,1555.2266,461.9294,1545.2266,457.9294,1549.2266" style="stroke:#181818;stroke-width:1;"/><line style="stroke:#181818;stroke-width:1;" x1="457.9294" x2="457.9294" y1="1590.3203" y2="1610.3203"/><polygon fill="#181818" points="453.9294,1600.3203,457.9294,1610.3203,461.9294,1600.3203,457.9294,1604.3203" style="stroke:#181818;stroke-width:1;"/><line style="stroke:#181818;stroke-width:1;" x1="457.9294" x2="457.9294" y1="1660.5078" y2="1680.5078"/><polygon fill="#181818" points="453.9294,1670.5078,457.9294,1680.5078,461.9294,1670.5078,457.9294,1674.5078" style="stroke:#181818;stroke-width:1;"/><line style="stroke:#181818;stroke-width:1;" x1="457.9294" x2="457.9294" y1="1715.6016" y2="1739.4063"/><polygon fill="#181818" points="453.9294,1729.4063,457.9294,1739.4063,461.9294,1729.4063,457.9294,1733.4063" style="stroke:#181818;stroke-width:1;"/><line style="stroke:#181818;stroke-width:1;" x1="457.9294" x2="457.9294" y1="1774.5" y2="1819.3789"/><polygon fill="#181818" points="453.9294,1809.3789,457.9294,1819.3789,461.9294,1809.3789,457.9294,1813.3789" style="stroke:#181818;stroke-width:1;"/><!--SRC=[bLRDZkD44BxxAMejhHJFpewIdHc1Oj3AP0o4pIPHua4SSccSphZ1xZRkThGy08ULa3Z00MbtWUD6kz9ouCRHRp9Fm2DGtROpTdvMS8lQrLzzLTzNrL5CnHIccGYfbBd4NqnIM5AONNq93w5u7dW1U8FWsXz1nyl2Y1JllikfOrbIaKnPLdyGCyeLa3IbCKAb8i_qPTVYGb78s4saB81_Vl_vDmYAJLniqaXm2b9mJYtAbw3Z30vX6QOkDY6oYQYhpoAAAJMeL0-PsiFyvI-u_UbFEE-2fA7WIogRY6CTB97EUwuF-Kfa2L5CS0cCXo99u-ArQWDDyZKoyv-5D0Px6XFE6R-1pqZnHX5k7sFLWuJn7040FcLXn6W6MR6HbEJmLNzHmopEpiwQkMRqXcJO_oMJgU3iQnOpXRSE9R6lT0myjk5Z68u7_YpmXcFyg9C_gf8tws0hwCoBlpCe_e1UjtiV7ZkW8igXS_lgHnXFnWvUxgCNi5yKGYJBaUo2TwRU7ER5YvdZOa2BXsRowrkmlq32Wab04LOiIsXclf4r3G4zeMWOSHQYJx1OstpI72-t7FL99ooDjCfogJ2t9dF77OdjohdWzbF2ube73NsGtxuSBLYVhmMZyDGRZcgezy6SDqYtSBmWyCU13n_0v_xrp9zZtoeuGvfnHRCr5gYTvXpBC119acEhZ261oEzv66LwN4OQUoUbrhDEiIojS41Gf5O7OLVHKqjit1LQIk0iGehpVWhVu8ZH_5dPmlAELyrpgSg2cxdc8bzh_zRUS4tiJY6DPZrgAGmmr_THuue8pKkVD8igowgModOP7AaCUHeBb2JTwcoFJuFHvGuZW2cHUjyfYfDFZ3tsAJNaxLtUwSjpfk01wFN17NSRMf6lYWHxyiHswphPIeiOutnrRb_-09FhuOv6zGIvLXrl7L2ZYYfjicASnDIjBV4VUxVVkUCwjhksxKshCM6hwWRzLhNufin8Hisc6LIbchU69KcnMJ9K8Aa8xT3H03DlvaFd8znUzrlheShKdnCcMRsfqsh37jlFXrPaZJ39LIp4jwZnrUJwav4FSsyu7_fmxvxpl-3A7ZV5gXj-6AJPw5rZxiBYRxQgLyLsSnrv8G-GaqgaLZl-v2IO1Dwe3nSVLYu_EJ77lGlpLs2g3w2p52Xqhul6vxcsfNHCq4LNPp649P0GsK7vg5SWvo1onMAf8On4ftMVJn6AnKuL9Oq69gnQzQVGZdVkolWN]--></g></svg>