<svg xmlns="http://www.w3.org/2000/svg" xmlns:xlink="http://www.w3.org/1999/xlink" contentStyleType="text/css" height="1886px" preserveAspectRatio="none" style="width:1032px;height:1886px;background:#FFFFFF;" version="1.1" viewBox="0 0 1032 1886" width="1032px" zoomAndPan="magnify"><title>Processus Appel Client - &#195;&#8240;TAT ACTUEL (Syst&#195;&#168;me Post-it)</title><defs/><g><text fill="#000000" font-family="sans-serif" font-size="14" font-weight="bold" lengthAdjust="spacing" textLength="409.418" x="307.354" y="29.5332">Processus Appel Client - &#195;&#8240;TAT ACTUEL (Syst&#195;&#168;me Post-it)</text><line style="stroke:#181818;stroke-width:0.5;stroke-dasharray:5.0,5.0;" x1="87" x2="87" y1="138.8281" y2="1787.2188"/><line style="stroke:#181818;stroke-width:0.5;stroke-dasharray:5.0,5.0;" x1="354.3926" x2="354.3926" y1="138.8281" y2="1787.2188"/><line style="stroke:#181818;stroke-width:0.5;stroke-dasharray:5.0,5.0;" x1="506.2188" x2="506.2188" y1="138.8281" y2="1787.2188"/><line style="stroke:#181818;stroke-width:0.5;stroke-dasharray:5.0,5.0;" x1="584.2461" x2="584.2461" y1="138.8281" y2="1787.2188"/><line style="stroke:#181818;stroke-width:0.5;stroke-dasharray:5.0,5.0;" x1="659.9219" x2="659.9219" y1="138.8281" y2="1787.2188"/><line style="stroke:#181818;stroke-width:0.5;stroke-dasharray:5.0,5.0;" x1="735.708" x2="735.708" y1="138.8281" y2="1787.2188"/><line style="stroke:#181818;stroke-width:0.5;stroke-dasharray:5.0,5.0;" x1="796.6113" x2="796.6113" y1="138.8281" y2="1787.2188"/><line style="stroke:#181818;stroke-width:0.5;stroke-dasharray:5.0,5.0;" x1="861.8457" x2="861.8457" y1="138.8281" y2="1787.2188"/><text fill="#000000" font-family="sans-serif" font-size="14" lengthAdjust="spacing" textLength="35.793" x="66.3965" y="118.1426">Client</text><text fill="#000000" font-family="sans-serif" font-size="14" lengthAdjust="spacing" textLength="64.5859" x="52" y="135.752">M. Dupont</text><ellipse cx="87.293" cy="52.1094" fill="#FFB6C1" rx="8" ry="8" style="stroke:#181818;stroke-width:0.5;"/><path d="M87.293,60.1094 L87.293,87.1094 M74.293,68.1094 L100.293,68.1094 M87.293,87.1094 L74.293,102.1094 M87.293,87.1094 L100.293,102.1094 " fill="none" style="stroke:#181818;stroke-width:0.5;"/><text fill="#000000" font-family="sans-serif" font-size="14" lengthAdjust="spacing" textLength="35.793" x="66.3965" y="1800.752">Client</text><text fill="#000000" font-family="sans-serif" font-size="14" lengthAdjust="spacing" textLength="64.5859" x="52" y="1818.3613">M. Dupont</text><ellipse cx="87.293" cy="1829.9375" fill="#FFB6C1" rx="8" ry="8" style="stroke:#181818;stroke-width:0.5;"/><path d="M87.293,1837.9375 L87.293,1864.9375 M74.293,1845.9375 L100.293,1845.9375 M87.293,1864.9375 L74.293,1879.9375 M87.293,1864.9375 L100.293,1879.9375 " fill="none" style="stroke:#181818;stroke-width:0.5;"/><text fill="#000000" font-family="sans-serif" font-size="14" lengthAdjust="spacing" textLength="36.5654" x="334.0649" y="118.1426">Claire</text><text fill="#000000" font-family="sans-serif" font-size="14" lengthAdjust="spacing" textLength="73.9102" x="315.3926" y="135.752">(Assistante)</text><ellipse cx="355.3477" cy="52.1094" fill="#ADD8E6" rx="8" ry="8" style="stroke:#181818;stroke-width:0.5;"/><path d="M355.3477,60.1094 L355.3477,87.1094 M342.3477,68.1094 L368.3477,68.1094 M355.3477,87.1094 L342.3477,102.1094 M355.3477,87.1094 L368.3477,102.1094 " fill="none" style="stroke:#181818;stroke-width:0.5;"/><text fill="#000000" font-family="sans-serif" font-size="14" lengthAdjust="spacing" textLength="36.5654" x="334.0649" y="1800.752">Claire</text><text fill="#000000" font-family="sans-serif" font-size="14" lengthAdjust="spacing" textLength="73.9102" x="315.3926" y="1818.3613">(Assistante)</text><ellipse cx="355.3477" cy="1829.9375" fill="#ADD8E6" rx="8" ry="8" style="stroke:#181818;stroke-width:0.5;"/><path d="M355.3477,1837.9375 L355.3477,1864.9375 M342.3477,1845.9375 L368.3477,1845.9375 M355.3477,1864.9375 L342.3477,1879.9375 M355.3477,1864.9375 L368.3477,1879.9375 " fill="none" style="stroke:#181818;stroke-width:0.5;"/><text fill="#000000" font-family="sans-serif" font-size="14" lengthAdjust="spacing" textLength="55.2617" x="476.1016" y="118.1426">Ga&#195;&#171;tan</text><text fill="#000000" font-family="sans-serif" font-size="14" lengthAdjust="spacing" textLength="77.0273" x="465.2188" y="135.752">(Technicien)</text><ellipse cx="506.7324" cy="52.1094" fill="#98FB98" rx="8" ry="8" style="stroke:#181818;stroke-width:0.5;"/><path d="M506.7324,60.1094 L506.7324,87.1094 M493.7324,68.1094 L519.7324,68.1094 M506.7324,87.1094 L493.7324,102.1094 M506.7324,87.1094 L519.7324,102.1094 " fill="none" style="stroke:#181818;stroke-width:0.5;"/><text fill="#000000" font-family="sans-serif" font-size="14" lengthAdjust="spacing" textLength="55.2617" x="476.1016" y="1800.752">Ga&#195;&#171;tan</text><text fill="#000000" font-family="sans-serif" font-size="14" lengthAdjust="spacing" textLength="77.0273" x="465.2188" y="1818.3613">(Technicien)</text><ellipse cx="506.7324" cy="1829.9375" fill="#98FB98" rx="8" ry="8" style="stroke:#181818;stroke-width:0.5;"/><path d="M506.7324,1837.9375 L506.7324,1864.9375 M493.7324,1845.9375 L519.7324,1845.9375 M506.7324,1864.9375 L493.7324,1879.9375 M506.7324,1864.9375 L519.7324,1879.9375 " fill="none" style="stroke:#181818;stroke-width:0.5;"/><rect fill="#FFD700" height="31.6094" rx="2.5" ry="2.5" style="stroke:#181818;stroke-width:0.5;" width="53.6758" x="558.2461" y="106.2188"/><text fill="#000000" font-family="sans-serif" font-size="14" lengthAdjust="spacing" textLength="39.6758" x="565.2461" y="127.752">Post-it</text><rect fill="#FFD700" height="31.6094" rx="2.5" ry="2.5" style="stroke:#181818;stroke-width:0.5;" width="53.6758" x="558.2461" y="1786.2188"/><text fill="#000000" font-family="sans-serif" font-size="14" lengthAdjust="spacing" textLength="39.6758" x="565.2461" y="1807.752">Post-it</text><rect fill="#FF6B6B" height="31.6094" rx="2.5" ry="2.5" style="stroke:#181818;stroke-width:0.5;" width="77.7861" x="621.9219" y="106.2188"/><text fill="#000000" font-family="sans-serif" font-size="14" lengthAdjust="spacing" textLength="63.7861" x="628.9219" y="127.752">MDE ERP</text><rect fill="#FF6B6B" height="31.6094" rx="2.5" ry="2.5" style="stroke:#181818;stroke-width:0.5;" width="77.7861" x="621.9219" y="1786.2188"/><text fill="#000000" font-family="sans-serif" font-size="14" lengthAdjust="spacing" textLength="63.7861" x="628.9219" y="1807.752">MDE ERP</text><rect fill="#FF6B6B" height="31.6094" rx="2.5" ry="2.5" style="stroke:#181818;stroke-width:0.5;" width="52.9033" x="709.708" y="106.2188"/><text fill="#000000" font-family="sans-serif" font-size="14" lengthAdjust="spacing" textLength="38.9033" x="716.708" y="127.752">SAGE</text><rect fill="#FF6B6B" height="31.6094" rx="2.5" ry="2.5" style="stroke:#181818;stroke-width:0.5;" width="52.9033" x="709.708" y="1786.2188"/><text fill="#000000" font-family="sans-serif" font-size="14" lengthAdjust="spacing" textLength="38.9033" x="716.708" y="1807.752">SAGE</text><rect fill="#FFD700" height="31.6094" rx="2.5" ry="2.5" style="stroke:#181818;stroke-width:0.5;" width="48.2344" x="772.6113" y="106.2188"/><text fill="#000000" font-family="sans-serif" font-size="14" lengthAdjust="spacing" textLength="34.2344" x="779.6113" y="127.752">Excel</text><rect fill="#FFD700" height="31.6094" rx="2.5" ry="2.5" style="stroke:#181818;stroke-width:0.5;" width="48.2344" x="772.6113" y="1786.2188"/><text fill="#000000" font-family="sans-serif" font-size="14" lengthAdjust="spacing" textLength="34.2344" x="779.6113" y="1807.752">Excel</text><rect fill="#E2E2F0" height="31.6094" rx="2.5" ry="2.5" style="stroke:#181818;stroke-width:0.5;" width="62.248" x="830.8457" y="106.2188"/><text fill="#000000" font-family="sans-serif" font-size="14" lengthAdjust="spacing" textLength="48.248" x="837.8457" y="127.752">Outlook</text><rect fill="#E2E2F0" height="31.6094" rx="2.5" ry="2.5" style="stroke:#181818;stroke-width:0.5;" width="62.248" x="830.8457" y="1786.2188"/><text fill="#000000" font-family="sans-serif" font-size="14" lengthAdjust="spacing" textLength="48.248" x="837.8457" y="1807.752">Outlook</text><rect fill="#EEEEEE" height="3" style="stroke:#EEEEEE;stroke-width:1;" width="1025.126" x="0" y="170.0039"/><line style="stroke:#000000;stroke-width:1;" x1="0" x2="1025.126" y1="170.0039" y2="170.0039"/><line style="stroke:#000000;stroke-width:1;" x1="0" x2="1025.126" y1="173.0039" y2="173.0039"/><rect fill="#EEEEEE" height="24.3516" style="stroke:#000000;stroke-width:2;" width="183.7363" x="420.6948" y="158.8281"/><text fill="#000000" font-family="sans-serif" font-size="13" font-weight="bold" lengthAdjust="spacing" textLength="166.1245" x="426.6948" y="176.3232">LUNDI 9:15 - Appel Entrant</text><path d="M5,198.1797 L5,240.1797 L168,240.1797 L168,208.1797 L158,198.1797 L5,198.1797 " fill="#FFAAAA" style="stroke:#181818;stroke-width:0.5;"/><path d="M158,198.1797 L158,208.1797 L168,208.1797 L158,198.1797 " fill="#FFAAAA" style="stroke:#181818;stroke-width:0.5;"/><text fill="#000000" font-family="sans-serif" font-size="13" font-weight="bold" lengthAdjust="spacing" textLength="142.4922" x="11" y="216.6748">Probl&#195;&#168;me &#195;&#169;lectrique</text><text fill="#000000" font-family="sans-serif" font-size="13" lengthAdjust="spacing" textLength="133.7007" x="11" y="233.0264">Tableau dysfonctionnel</text><polygon fill="#181818" points="343.3477,264.2344,353.3477,268.2344,343.3477,272.2344,347.3477,268.2344" style="stroke:#181818;stroke-width:1;"/><line style="stroke:#181818;stroke-width:1;" x1="87.293" x2="349.3477" y1="268.2344" y2="268.2344"/><text fill="#000000" font-family="sans-serif" font-size="13" lengthAdjust="spacing" textLength="163.6997" x="94.293" y="263.3779">&#240;&#376;&#8220;&#382; Appel t&#195;&#169;l&#195;&#169;phonique</text><path d="M258,281.2344 L258,323.2344 L452,323.2344 L452,291.2344 L442,281.2344 L258,281.2344 " fill="#FF6B6B" style="stroke:#181818;stroke-width:0.5;"/><path d="M442,281.2344 L442,291.2344 L452,291.2344 L442,281.2344 " fill="#FF6B6B" style="stroke:#181818;stroke-width:0.5;"/><text fill="#000000" font-family="sans-serif" font-size="13" lengthAdjust="spacing" textLength="24.5591" x="264" y="299.7295">&#240;&#376;&#8221;&#180;</text><text fill="#000000" font-family="sans-serif" font-size="13" font-weight="bold" lengthAdjust="spacing" textLength="81.6182" x="292.1709" y="299.7295">PAS DE CRM</text><text fill="#000000" font-family="sans-serif" font-size="13" lengthAdjust="spacing" textLength="173.6274" x="264" y="316.0811">Aucune remont&#195;&#169;e fiche auto</text><polygon fill="#181818" points="573.084,358.4648,583.084,362.4648,573.084,366.4648,577.084,362.4648" style="stroke:#181818;stroke-width:1;"/><line style="stroke:#181818;stroke-width:1;" x1="355.3477" x2="579.084" y1="362.4648" y2="362.4648"/><text fill="#000000" font-family="sans-serif" font-size="13" lengthAdjust="spacing" textLength="127.1689" x="362.3477" y="357.6084">Cherche post-it vierge</text><path d="M590,333.9375 L590,375.9375 L742,375.9375 L742,343.9375 L732,333.9375 L590,333.9375 " fill="#FF6B6B" style="stroke:#181818;stroke-width:0.5;"/><path d="M732,333.9375 L732,343.9375 L742,343.9375 L732,333.9375 " fill="#FF6B6B" style="stroke:#181818;stroke-width:0.5;"/><text fill="#000000" font-family="sans-serif" font-size="13" lengthAdjust="spacing" textLength="99.5122" x="596" y="352.4326">&#226;&#65533;&#176; 30 secondes</text><text fill="#000000" font-family="sans-serif" font-size="13" lengthAdjust="spacing" textLength="131.5107" x="596" y="368.7842">&#240;&#376;&#8221;&#180; Risque perte 80%</text><polygon fill="#181818" points="573.084,419.3438,583.084,423.3438,573.084,427.3438,577.084,423.3438" style="stroke:#181818;stroke-width:1;"/><line style="stroke:#181818;stroke-width:1;" x1="355.3477" x2="579.084" y1="423.3438" y2="423.3438"/><text fill="#000000" font-family="sans-serif" font-size="13" lengthAdjust="spacing" textLength="160.9956" x="362.3477" y="418.4873">Note "M Dupont pb tableau"</text><path d="M590,386.6406 L590,445.6406 L803,445.6406 L803,396.6406 L793,386.6406 L590,386.6406 " fill="#FF6B6B" style="stroke:#181818;stroke-width:0.5;"/><path d="M793,386.6406 L793,396.6406 L803,396.6406 L793,386.6406 " fill="#FF6B6B" style="stroke:#181818;stroke-width:0.5;"/><text fill="#000000" font-family="sans-serif" font-size="13" lengthAdjust="spacing" textLength="24.5591" x="596" y="405.1357">&#240;&#376;&#8221;&#180;</text><text fill="#000000" font-family="sans-serif" font-size="13" font-weight="bold" lengthAdjust="spacing" textLength="164.6772" x="624.1709" y="405.1357">Informations incompl&#195;&#168;tes</text><text fill="#000000" font-family="sans-serif" font-size="13" lengthAdjust="spacing" textLength="147.9448" x="596" y="421.4873">Pas de n&#194;&#176; t&#195;&#169;l&#195;&#169;phone</text><text fill="#000000" font-family="sans-serif" font-size="13" lengthAdjust="spacing" textLength="81.9736" x="596" y="437.8389">Pas d'adresse</text><polygon fill="#181818" points="648.8149,469.0469,658.8149,473.0469,648.8149,477.0469,652.8149,473.0469" style="stroke:#181818;stroke-width:1;"/><line style="stroke:#181818;stroke-width:1;" x1="355.3477" x2="654.8149" y1="473.0469" y2="473.0469"/><text fill="#000000" font-family="sans-serif" font-size="13" lengthAdjust="spacing" textLength="83.0781" x="362.3477" y="468.1904">Ouvre... ferme</text><polygon fill="#181818" points="724.1597,499.3984,734.1597,503.3984,724.1597,507.3984,728.1597,503.3984" style="stroke:#181818;stroke-width:1;"/><line style="stroke:#181818;stroke-width:1;" x1="355.3477" x2="730.1597" y1="503.3984" y2="503.3984"/><text fill="#000000" font-family="sans-serif" font-size="13" lengthAdjust="spacing" textLength="83.0781" x="362.3477" y="498.542">Ouvre... ferme</text><polygon fill="#181818" points="784.7285,540.9258,794.7285,544.9258,784.7285,548.9258,788.7285,544.9258" style="stroke:#181818;stroke-width:1;"/><line style="stroke:#181818;stroke-width:1;" x1="355.3477" x2="790.7285" y1="544.9258" y2="544.9258"/><text fill="#000000" font-family="sans-serif" font-size="13" lengthAdjust="spacing" textLength="67.2026" x="362.3477" y="540.0693">Ouvre enfin</text><path d="M801,516.3984 L801,558.3984 L1011,558.3984 L1011,526.3984 L1001,516.3984 L801,516.3984 " fill="#FF6B6B" style="stroke:#181818;stroke-width:0.5;"/><path d="M1001,516.3984 L1001,526.3984 L1011,526.3984 L1001,516.3984 " fill="#FF6B6B" style="stroke:#181818;stroke-width:0.5;"/><text fill="#000000" font-family="sans-serif" font-size="13" lengthAdjust="spacing" textLength="24.5591" x="807" y="534.8936">&#240;&#376;&#8221;&#180;</text><text fill="#000000" font-family="sans-serif" font-size="13" font-weight="bold" lengthAdjust="spacing" textLength="161.6494" x="835.1709" y="534.8936">Donn&#195;&#169;es &#195;&#169;parpill&#195;&#169;es</text><text fill="#000000" font-family="sans-serif" font-size="13" lengthAdjust="spacing" textLength="161.6431" x="807" y="551.2451">&#226;&#65533;&#176; 5 minutes de recherche</text><polygon fill="#181818" points="724.1597,593.6289,734.1597,597.6289,724.1597,601.6289,728.1597,597.6289" style="stroke:#181818;stroke-width:1;"/><line style="stroke:#181818;stroke-width:1;" x1="355.3477" x2="730.1597" y1="597.6289" y2="597.6289"/><text fill="#000000" font-family="sans-serif" font-size="13" lengthAdjust="spacing" textLength="74.4199" x="362.3477" y="592.7725">Trouve client</text><path d="M741,569.1016 L741,611.1016 L929,611.1016 L929,579.1016 L919,569.1016 L741,569.1016 " fill="#FFD700" style="stroke:#181818;stroke-width:0.5;"/><path d="M919,569.1016 L919,579.1016 L929,579.1016 L919,569.1016 " fill="#FFD700" style="stroke:#181818;stroke-width:0.5;"/><text fill="#000000" font-family="sans-serif" font-size="13" lengthAdjust="spacing" textLength="156.4189" x="747" y="587.5967">&#226;&#353;&#160;&#239;&#184;&#65533; Historique incomplet</text><text fill="#000000" font-family="sans-serif" font-size="13" lengthAdjust="spacing" textLength="167.6035" x="747" y="603.9482">&#226;&#65533;&#338; Pas d'historique appels</text><polygon fill="#181818" points="98.293,635.1563,88.293,639.1563,98.293,643.1563,94.293,639.1563" style="stroke:#181818;stroke-width:1;"/><line style="stroke:#181818;stroke-width:1;" x1="92.293" x2="354.3477" y1="639.1563" y2="639.1563"/><text fill="#000000" font-family="sans-serif" font-size="13" lengthAdjust="spacing" textLength="145.7993" x="104.293" y="634.2998">"Je vous rappelle ce soir"</text><path d="M228,652.1563 L228,694.1563 L481,694.1563 L481,662.1563 L471,652.1563 L228,652.1563 " fill="#FF6B6B" style="stroke:#181818;stroke-width:0.5;"/><path d="M471,652.1563 L471,662.1563 L481,662.1563 L471,652.1563 " fill="#FF6B6B" style="stroke:#181818;stroke-width:0.5;"/><text fill="#000000" font-family="sans-serif" font-size="13" lengthAdjust="spacing" textLength="24.5591" x="234" y="670.6514">&#240;&#376;&#8221;&#180;</text><text fill="#000000" font-family="sans-serif" font-size="13" font-weight="bold" lengthAdjust="spacing" textLength="203.8994" x="262.1709" y="670.6514">Pas de confirmation imm&#195;&#169;diate</text><text fill="#000000" font-family="sans-serif" font-size="13" lengthAdjust="spacing" textLength="117.2539" x="234" y="687.0029">D&#195;&#169;lai inacceptable</text><path d="M226,704.8594 L226,730.8594 L483,730.8594 L483,714.8594 L473,704.8594 L226,704.8594 " fill="#FEFFDD" style="stroke:#181818;stroke-width:0.5;"/><path d="M473,704.8594 L473,714.8594 L483,714.8594 L473,704.8594 " fill="#FEFFDD" style="stroke:#181818;stroke-width:0.5;"/><text fill="#000000" font-family="sans-serif" font-size="13" lengthAdjust="spacing" textLength="236.5771" x="232" y="723.3545">&#240;&#376;&#732;&#176; "J'esp&#195;&#168;re que je vais pas oublier..."</text><rect fill="#EEEEEE" height="3" style="stroke:#EEEEEE;stroke-width:1;" width="1025.126" x="0" y="757.3867"/><line style="stroke:#000000;stroke-width:1;" x1="0" x2="1025.126" y1="757.3867" y2="757.3867"/><line style="stroke:#000000;stroke-width:1;" x1="0" x2="1025.126" y1="760.3867" y2="760.3867"/><rect fill="#EEEEEE" height="24.3516" style="stroke:#000000;stroke-width:2;" width="243.7407" x="390.6926" y="746.2109"/><text fill="#000000" font-family="sans-serif" font-size="13" font-weight="bold" lengthAdjust="spacing" textLength="226.1289" x="396.6926" y="763.7061">LUNDI 10:45 - Recherche Technicien</text><polygon fill="#181818" points="494.7324,798.9141,504.7324,802.9141,494.7324,806.9141,498.7324,802.9141" style="stroke:#181818;stroke-width:1;"/><line style="stroke:#181818;stroke-width:1;" x1="355.3477" x2="500.7324" y1="802.9141" y2="802.9141"/><text fill="#000000" font-family="sans-serif" font-size="13" lengthAdjust="spacing" textLength="63.5908" x="362.3477" y="798.0576">&#240;&#376;&#8220;&#382; Appel</text><line style="stroke:#181818;stroke-width:2;" x1="362.3477" x2="372.3477" y1="839.4414" y2="849.4414"/><line style="stroke:#181818;stroke-width:2;" x1="362.3477" x2="372.3477" y1="849.4414" y2="839.4414"/><line style="stroke:#181818;stroke-width:1;" x1="367.3477" x2="505.7324" y1="844.4414" y2="844.4414"/><text fill="#000000" font-family="sans-serif" font-size="13" lengthAdjust="spacing" textLength="102.083" x="372.3477" y="839.585">Pas de r&#195;&#169;ponse</text><path d="M511,815.9141 L511,857.9141 L664,857.9141 L664,825.9141 L654,815.9141 L511,815.9141 " fill="#FF6B6B" style="stroke:#181818;stroke-width:0.5;"/><path d="M654,815.9141 L654,825.9141 L664,825.9141 L654,815.9141 " fill="#FF6B6B" style="stroke:#181818;stroke-width:0.5;"/><text fill="#000000" font-family="sans-serif" font-size="13" lengthAdjust="spacing" textLength="119.2217" x="517" y="834.4092">&#240;&#376;&#8221;&#180; Sur intervention</text><text fill="#000000" font-family="sans-serif" font-size="13" lengthAdjust="spacing" textLength="132.7422" x="517" y="850.7607">&#226;&#65533;&#176; 2 minutes perdues</text><polygon fill="#181818" points="494.7324,893.1445,504.7324,897.1445,494.7324,901.1445,498.7324,897.1445" style="stroke:#181818;stroke-width:1;"/><line style="stroke:#181818;stroke-width:1;" x1="355.3477" x2="500.7324" y1="897.1445" y2="897.1445"/><text fill="#000000" font-family="sans-serif" font-size="13" lengthAdjust="spacing" textLength="58.1636" x="362.3477" y="892.2881">&#240;&#376;&#8217;&#172; SMS</text><path d="M511,868.6172 L511,910.6172 L737,910.6172 L737,878.6172 L727,868.6172 L511,868.6172 " fill="#FF6B6B" style="stroke:#181818;stroke-width:0.5;"/><path d="M727,868.6172 L727,878.6172 L737,878.6172 L727,868.6172 " fill="#FF6B6B" style="stroke:#181818;stroke-width:0.5;"/><text fill="#000000" font-family="sans-serif" font-size="13" lengthAdjust="spacing" textLength="24.5591" x="517" y="887.1123">&#240;&#376;&#8221;&#180;</text><text fill="#000000" font-family="sans-serif" font-size="13" font-weight="bold" lengthAdjust="spacing" textLength="175.7476" x="545.1709" y="887.1123">Pas de syst&#195;&#168;me structur&#195;&#169;</text><text fill="#000000" font-family="sans-serif" font-size="13" lengthAdjust="spacing" textLength="205.8164" x="517" y="903.4639">"Client Dupont pb tableau peux tu?"</text><path d="M259,921.3203 L259,963.3203 L450,963.3203 L450,931.3203 L440,921.3203 L259,921.3203 " fill="#FEFFDD" style="stroke:#181818;stroke-width:0.5;"/><path d="M440,921.3203 L440,931.3203 L450,931.3203 L440,921.3203 " fill="#FEFFDD" style="stroke:#181818;stroke-width:0.5;"/><text fill="#000000" font-family="sans-serif" font-size="13" lengthAdjust="spacing" textLength="22.1787" x="265" y="939.8154">&#226;&#65533;&#176;</text><text fill="#000000" font-family="sans-serif" font-size="13" font-weight="bold" lengthAdjust="spacing" textLength="145.1646" x="290.7905" y="939.8154">ATTENTE... ATTENTE...</text><text fill="#000000" font-family="sans-serif" font-size="13" lengthAdjust="spacing" textLength="167.6353" x="265" y="956.167">Aucune notification syst&#195;&#168;me</text><rect fill="#EEEEEE" height="3" style="stroke:#EEEEEE;stroke-width:1;" width="1025.126" x="0" y="990.1992"/><line style="stroke:#000000;stroke-width:1;" x1="0" x2="1025.126" y1="990.1992" y2="990.1992"/><line style="stroke:#000000;stroke-width:1;" x1="0" x2="1025.126" y1="993.1992" y2="993.1992"/><rect fill="#EEEEEE" height="24.3516" style="stroke:#000000;stroke-width:2;" width="261.2158" x="381.9551" y="979.0234"/><text fill="#000000" font-family="sans-serif" font-size="13" font-weight="bold" lengthAdjust="spacing" textLength="243.604" x="387.9551" y="996.5186">LUNDI 16:00 - Ga&#195;&#171;tan r&#195;&#169;pond ENFIN</text><polygon fill="#181818" points="366.3477,1031.7266,356.3477,1035.7266,366.3477,1039.7266,362.3477,1035.7266" style="stroke:#181818;stroke-width:1;"/><line style="stroke:#181818;stroke-width:1;" x1="360.3477" x2="505.7324" y1="1035.7266" y2="1035.7266"/><text fill="#000000" font-family="sans-serif" font-size="13" lengthAdjust="spacing" textLength="127.3848" x="372.3477" y="1030.8701">&#240;&#376;&#8217;&#172; "Ok demain 14h"</text><polygon fill="#181818" points="573.084,1062.0781,583.084,1066.0781,573.084,1070.0781,577.084,1066.0781" style="stroke:#181818;stroke-width:1;"/><line style="stroke:#181818;stroke-width:1;" x1="355.3477" x2="579.084" y1="1066.0781" y2="1066.0781"/><text fill="#000000" font-family="sans-serif" font-size="13" lengthAdjust="spacing" textLength="99.7153" x="362.3477" y="1061.2217">Regarde post-it...</text><path d="M261,1079.0781 L261,1121.0781 L448,1121.0781 L448,1089.0781 L438,1079.0781 L261,1079.0781 " fill="#FF0000" style="stroke:#181818;stroke-width:0.5;"/><path d="M438,1079.0781 L438,1089.0781 L448,1089.0781 L438,1079.0781 " fill="#FF0000" style="stroke:#181818;stroke-width:0.5;"/><text fill="#000000" font-family="sans-serif" font-size="13" lengthAdjust="spacing" textLength="27.3647" x="267" y="1097.5732">&#240;&#376;&#732;&#177;</text><text fill="#000000" font-family="sans-serif" font-size="13" font-weight="bold" lengthAdjust="spacing" textLength="98.9473" x="297.9766" y="1097.5732">CATASTROPHE</text><text fill="#000000" font-family="sans-serif" font-size="13" lengthAdjust="spacing" textLength="166.5562" x="267" y="1113.9248">Num&#195;&#169;ro client pas not&#195;&#169; !!</text><polygon fill="#181818" points="724.1597,1148.1328,734.1597,1152.1328,724.1597,1156.1328,728.1597,1152.1328" style="stroke:#181818;stroke-width:1;"/><line style="stroke:#181818;stroke-width:1;" x1="355.3477" x2="730.1597" y1="1152.1328" y2="1152.1328"/><text fill="#000000" font-family="sans-serif" font-size="13" lengthAdjust="spacing" textLength="170.3394" x="362.3477" y="1147.2764">Recherche n&#194;&#176; t&#195;&#169;l&#195;&#169;phone</text><path d="M741,1131.7813 L741,1157.7813 L844,1157.7813 L844,1141.7813 L834,1131.7813 L741,1131.7813 " fill="#FF6B6B" style="stroke:#181818;stroke-width:0.5;"/><path d="M834,1131.7813 L834,1141.7813 L844,1141.7813 L834,1131.7813 " fill="#FF6B6B" style="stroke:#181818;stroke-width:0.5;"/><text fill="#000000" font-family="sans-serif" font-size="13" lengthAdjust="spacing" textLength="82.1514" x="747" y="1150.2764">&#226;&#65533;&#176; 3 minutes</text><polygon fill="#181818" points="98.293,1181.4844,88.293,1185.4844,98.293,1189.4844,94.293,1185.4844" style="stroke:#181818;stroke-width:1;"/><line style="stroke:#181818;stroke-width:1;" x1="92.293" x2="354.3477" y1="1185.4844" y2="1185.4844"/><text fill="#000000" font-family="sans-serif" font-size="13" lengthAdjust="spacing" textLength="63.5908" x="104.293" y="1180.6279">&#240;&#376;&#8220;&#382; Appel</text><line style="stroke:#181818;stroke-width:2;" x1="337.3477" x2="347.3477" y1="1213.8359" y2="1223.8359"/><line style="stroke:#181818;stroke-width:2;" x1="337.3477" x2="347.3477" y1="1223.8359" y2="1213.8359"/><line style="stroke:#181818;stroke-width:1;" x1="87.293" x2="342.3477" y1="1218.8359" y2="1218.8359"/><text fill="#000000" font-family="sans-serif" font-size="13" lengthAdjust="spacing" textLength="75.3467" x="94.293" y="1213.9795">R&#195;&#169;pondeur</text><path d="M360,1198.4844 L360,1224.4844 L511,1224.4844 L511,1208.4844 L501,1198.4844 L360,1198.4844 " fill="#FFD700" style="stroke:#181818;stroke-width:0.5;"/><path d="M501,1198.4844 L501,1208.4844 L511,1208.4844 L501,1198.4844 " fill="#FFD700" style="stroke:#181818;stroke-width:0.5;"/><text fill="#000000" font-family="sans-serif" font-size="13" lengthAdjust="spacing" textLength="130.3047" x="366" y="1216.9795">&#240;&#376;&#732;&#8226; Client absent 17h</text><polygon fill="#181818" points="849.9697,1259.3633,859.9697,1263.3633,849.9697,1267.3633,853.9697,1263.3633" style="stroke:#181818;stroke-width:1;"/><line style="stroke:#181818;stroke-width:1;" x1="355.3477" x2="855.9697" y1="1263.3633" y2="1263.3633"/><text fill="#000000" font-family="sans-serif" font-size="13" lengthAdjust="spacing" textLength="179.6958" x="362.3477" y="1258.5068">&#195;&#8240;crit mail MANUELLEMENT</text><path d="M866,1234.8359 L866,1276.8359 L1014,1276.8359 L1014,1244.8359 L1004,1234.8359 L866,1234.8359 " fill="#FF6B6B" style="stroke:#181818;stroke-width:0.5;"/><path d="M1004,1234.8359 L1004,1244.8359 L1014,1244.8359 L1004,1234.8359 " fill="#FF6B6B" style="stroke:#181818;stroke-width:0.5;"/><text fill="#000000" font-family="sans-serif" font-size="13" lengthAdjust="spacing" textLength="24.5591" x="872" y="1253.3311">&#240;&#376;&#8221;&#180;</text><text fill="#000000" font-family="sans-serif" font-size="13" font-weight="bold" lengthAdjust="spacing" textLength="98.9854" x="900.1709" y="1253.3311">Pas de template</text><text fill="#000000" font-family="sans-serif" font-size="13" lengthAdjust="spacing" textLength="82.1514" x="872" y="1269.6826">&#226;&#65533;&#176; 5 minutes</text><polygon fill="#181818" points="573.084,1303.8906,583.084,1307.8906,573.084,1311.8906,577.084,1307.8906" style="stroke:#181818;stroke-width:1;"/><line style="stroke:#181818;stroke-width:1;" x1="355.3477" x2="579.084" y1="1307.8906" y2="1307.8906"/><text fill="#000000" font-family="sans-serif" font-size="13" lengthAdjust="spacing" textLength="80.9263" x="362.3477" y="1303.0342">Jette le post-it</text><path d="M590,1287.5391 L590,1313.5391 L899,1313.5391 L899,1297.5391 L889,1287.5391 L590,1287.5391 " fill="#FF0000" style="stroke:#181818;stroke-width:0.5;"/><path d="M889,1287.5391 L889,1297.5391 L899,1297.5391 L889,1287.5391 " fill="#FF0000" style="stroke:#181818;stroke-width:0.5;"/><text fill="#000000" font-family="sans-serif" font-size="13" lengthAdjust="spacing" textLength="24.5591" x="596" y="1306.0342">&#240;&#376;&#8221;&#180;</text><text fill="#000000" font-family="sans-serif" font-size="13" font-weight="bold" lengthAdjust="spacing" textLength="259.9556" x="624.1709" y="1306.0342">AUCUNE TRA&#195;&#8225;ABILIT&#195;&#8240; conserv&#195;&#169;e !!</text><rect fill="#EEEEEE" height="3" style="stroke:#EEEEEE;stroke-width:1;" width="1025.126" x="0" y="1340.0664"/><line style="stroke:#000000;stroke-width:1;" x1="0" x2="1025.126" y1="1340.0664" y2="1340.0664"/><line style="stroke:#000000;stroke-width:1;" x1="0" x2="1025.126" y1="1343.0664" y2="1343.0664"/><rect fill="#EEEEEE" height="24.3516" style="stroke:#000000;stroke-width:2;" width="288.9868" x="368.0696" y="1328.8906"/><text fill="#000000" font-family="sans-serif" font-size="13" font-weight="bold" lengthAdjust="spacing" textLength="271.375" x="374.0696" y="1346.3857">MARDI 13:00 - Client rappelle &#195;&#8240;NERV&#195;&#8240;</text><polygon fill="#181818" points="343.3477,1381.5938,353.3477,1385.5938,343.3477,1389.5938,347.3477,1385.5938" style="stroke:#181818;stroke-width:1;"/><line style="stroke:#181818;stroke-width:1;" x1="87.293" x2="349.3477" y1="1385.5938" y2="1385.5938"/><text fill="#000000" font-family="sans-serif" font-size="13" lengthAdjust="spacing" textLength="244.0547" x="94.293" y="1380.7373">&#240;&#376;&#8220;&#382; "Vous deviez me rappeler hier soir !!"</text><path d="M283,1398.5938 L283,1440.5938 L426,1440.5938 L426,1408.5938 L416,1398.5938 L283,1398.5938 " fill="#FF0000" style="stroke:#181818;stroke-width:0.5;"/><path d="M416,1398.5938 L416,1408.5938 L426,1408.5938 L416,1398.5938 " fill="#FF0000" style="stroke:#181818;stroke-width:0.5;"/><text fill="#000000" font-family="sans-serif" font-size="13" lengthAdjust="spacing" textLength="27.3647" x="289" y="1417.0889">&#240;&#376;&#732;&#177;</text><text fill="#000000" font-family="sans-serif" font-size="13" font-weight="bold" lengthAdjust="spacing" textLength="40.4409" x="319.9766" y="1417.0889">OUBLI</text><text fill="#000000" font-family="sans-serif" font-size="13" lengthAdjust="spacing" textLength="122.2813" x="289" y="1433.4404">Post-it jet&#195;&#169; trop t&#195;&#180;t</text><polygon fill="#181818" points="98.293,1464.6484,88.293,1468.6484,98.293,1472.6484,94.293,1468.6484" style="stroke:#181818;stroke-width:1;"/><line style="stroke:#181818;stroke-width:1;" x1="92.293" x2="354.3477" y1="1468.6484" y2="1468.6484"/><text fill="#000000" font-family="sans-serif" font-size="13" lengthAdjust="spacing" textLength="139.2803" x="104.293" y="1463.792">"Toutes mes excuses..."</text><path d="M5,1481.6484 L5,1523.6484 L170,1523.6484 L170,1491.6484 L160,1481.6484 L5,1481.6484 " fill="#FEFFDD" style="stroke:#181818;stroke-width:0.5;"/><path d="M160,1481.6484 L160,1491.6484 L170,1491.6484 L160,1481.6484 " fill="#FEFFDD" style="stroke:#181818;stroke-width:0.5;"/><text fill="#000000" font-family="sans-serif" font-size="13" lengthAdjust="spacing" textLength="144.1743" x="11" y="1500.1436">&#240;&#376;&#732;&#160; Image d&#195;&#169;grad&#195;&#169;e</text><text fill="#000000" font-family="sans-serif" font-size="13" lengthAdjust="spacing" textLength="96.1162" x="11" y="1516.4951">Satisfaction 4/10</text><polygon fill="#181818" points="573.084,1550.7031,583.084,1554.7031,573.084,1558.7031,577.084,1554.7031" style="stroke:#181818;stroke-width:1;"/><line style="stroke:#181818;stroke-width:1;" x1="355.3477" x2="579.084" y1="1554.7031" y2="1554.7031"/><text fill="#000000" font-family="sans-serif" font-size="13" lengthAdjust="spacing" textLength="103.3018" x="362.3477" y="1549.8467">NOUVEAU post-it</text><path d="M590,1534.3516 L590,1560.3516 L882,1560.3516 L882,1544.3516 L872,1534.3516 L590,1534.3516 " fill="#FF6B6B" style="stroke:#181818;stroke-width:0.5;"/><path d="M872,1534.3516 L872,1544.3516 L882,1544.3516 L872,1534.3516 " fill="#FF6B6B" style="stroke:#181818;stroke-width:0.5;"/><text fill="#000000" font-family="sans-serif" font-size="13" lengthAdjust="spacing" textLength="24.5591" x="596" y="1552.8467">&#240;&#376;&#8221;&#180;</text><text fill="#000000" font-family="sans-serif" font-size="13" font-weight="bold" lengthAdjust="spacing" textLength="243.3818" x="624.1709" y="1552.8467">Retour au m&#195;&#170;me syst&#195;&#168;me d&#195;&#169;faillant</text><rect fill="#EEEEEE" height="3" style="stroke:#EEEEEE;stroke-width:1;" width="1025.126" x="0" y="1586.8789"/><line style="stroke:#000000;stroke-width:1;" x1="0" x2="1025.126" y1="1586.8789" y2="1586.8789"/><line style="stroke:#000000;stroke-width:1;" x1="0" x2="1025.126" y1="1589.8789" y2="1589.8789"/><rect fill="#EEEEEE" height="24.3516" style="stroke:#000000;stroke-width:2;" width="57.3291" x="483.8984" y="1575.7031"/><text fill="#000000" font-family="sans-serif" font-size="13" font-weight="bold" lengthAdjust="spacing" textLength="39.7173" x="489.8984" y="1593.1982">BILAN</text><path d="M56,1615.0547 L56,1772.0547 L892,1772.0547 L892,1625.0547 L882,1615.0547 L56,1615.0547 " fill="#FFCCCC" style="stroke:#181818;stroke-width:0.5;"/><path d="M882,1615.0547 L882,1625.0547 L892,1625.0547 L882,1615.0547 " fill="#FFCCCC" style="stroke:#181818;stroke-width:0.5;"/><text fill="#000000" font-family="sans-serif" font-size="13" font-weight="bold" lengthAdjust="spacing" textLength="179.3784" x="328.2004" y="1633.5498">M&#195;&#8240;TRIQUES PROCESSUS</text><text fill="#000000" font-family="sans-serif" font-size="13" lengthAdjust="spacing" textLength="111.2427" x="328.2004" y="1649.9014">&#226;&#65533;&#176; Dur&#195;&#169;e totale:</text><text fill="#000000" font-family="sans-serif" font-size="13" font-weight="bold" lengthAdjust="spacing" textLength="55.6309" x="443.0549" y="1649.9014">2 JOURS</text><text fill="#000000" font-family="sans-serif" font-size="13" lengthAdjust="spacing" textLength="85.2554" x="328.2004" y="1666.2529">&#240;&#376;&#8220;&#382; Contacts:</text><text fill="#000000" font-family="sans-serif" font-size="13" font-weight="bold" lengthAdjust="spacing" textLength="7.23" x="417.0676" y="1666.2529">8</text><text fill="#000000" font-family="sans-serif" font-size="13" lengthAdjust="spacing" textLength="119.9199" x="427.9094" y="1666.2529">(appels, SMS, mails)</text><text fill="#000000" font-family="sans-serif" font-size="13" lengthAdjust="spacing" textLength="125.6201" x="328.2004" y="1682.6045">&#226;&#65533;&#177;&#239;&#184;&#65533; Temps perdu:</text><text fill="#000000" font-family="sans-serif" font-size="13" font-weight="bold" lengthAdjust="spacing" textLength="67.9136" x="457.4324" y="1682.6045">40 minutes</text><text fill="#000000" font-family="sans-serif" font-size="13" lengthAdjust="spacing" textLength="74.0454" x="328.2004" y="1698.9561">&#240;&#376;&#8220;&#65533; Post-it:</text><text fill="#000000" font-family="sans-serif" font-size="13" font-weight="bold" lengthAdjust="spacing" textLength="7.23" x="405.8577" y="1698.9561">2</text><text fill="#000000" font-family="sans-serif" font-size="13" lengthAdjust="spacing" textLength="194.1938" x="416.6995" y="1698.9561">(dont 1 jet&#195;&#169; pr&#195;&#169;matur&#195;&#169;ment)</text><text fill="#000000" font-family="sans-serif" font-size="13" lengthAdjust="spacing" textLength="103.3271" x="328.2004" y="1715.3076">&#240;&#376;&#8221;&#180; Risque oubli:</text><text fill="#000000" font-family="sans-serif" font-size="13" font-weight="bold" lengthAdjust="spacing" textLength="26.019" x="435.1394" y="1715.3076">80%</text><text fill="#000000" font-family="sans-serif" font-size="13" lengthAdjust="spacing" textLength="101.8862" x="328.2004" y="1731.6592">&#240;&#376;&#732;&#164; Satisfaction:</text><text fill="#000000" font-family="sans-serif" font-size="13" font-weight="bold" lengthAdjust="spacing" textLength="25.3018" x="433.6985" y="1731.6592">4/10</text><text fill="#000000" font-family="sans-serif" font-size="13" lengthAdjust="spacing" textLength="3.6118" x="328.2004" y="1748.0107">&#160;</text><text fill="#000000" font-family="sans-serif" font-size="13" lengthAdjust="spacing" textLength="23.9878" x="328.2004" y="1764.3623">&#240;&#376;&#8217;&#176;</text><text fill="#000000" font-family="sans-serif" font-size="13" font-weight="bold" lengthAdjust="spacing" textLength="121.1831" x="355.8" y="1764.3623">CO&#195;&#8250;T: 748K&#226;&#8218;&#172;/AN</text><!--SRC=[ZLVTRXD75BxtKvmiGX0BWWqX14jfjR4tu3Isq_MQAsusw-DuOV-OcOr2hwBo1hsZeXAWNlG7gI1nWIgrbHpbgc-H5-WhzCpCxlg7ZKEan2llcVFtVUSx4-6B066VnHvodd8mamG3Q0O-HW9kmkcByvFtZkc0sNG6rXvSxp_dulJ5v9UG3iLStFJ5QgNYUY9cOEXJZwFE6hJI98w40IxFVLtPsTdUQDQdjgxFy75qtUJSvyAD1Avcvl85N35RhKrh8pT_u5BGtycCJZZeZIFV8w_wn0CNwGLSkR-vitr_ivAuJD3RX5o2aUMexEIphn9ftQlLvkqwBGiiUr_PqQSqsjZUs9utwfiFB6KX7yfDh6CF0-r5FfK7wwKYYEEdoYnxhbIsjc1lq6sruNwZVfSwhu6m8i7acQsjIYMA1K9yX6ocfIRzL02gLKBm8CY0eOzV0_G4yv-bMAtIUySz2D1DOVYSZ-B84tuSHHXKC1g2z5gfv81_bVM_0QVlppwTdxmw-plBH2YlyayoZYFfUJuZZLhM4yYE_pJvA7Cp-q3zRTeTbOoPUcc4m30aYaY722FV6oEugOZdSb8-AIUDN0EQOsJICD6emf6Fx11r6im_78lP1Dx-zyzVa_TmfmOSlJWQ8fzBo_OvrG09CZgyMRkwD71NHZ0w6QqXEG2XEsfS47oc-dOqYbdeofvpy2Cl3XC5b42ksh5FB1WYHAVVKxRpNSRyzJLto6W-iJH9uck3U7J4S6rj3KR8GfnvAxcwvBMYQVOUC1hvqUKLjOWz2ZUkg4RSJlmWqD-ealBUtuNGZr8gL1R8Q6mLVAL5w3GT5gT729vYuq8YQewaxxCtazUdVqm-KGnuIDeHAvxdhKMH9t3sGzQyyTJ8bLpcfHde4MY0iOjm59CKCcLCwkWXyDXdnXVpNIDAf1lv6VBWXw5iqD1tXHx9baBQzIblr_CmKOIQIMmnLXRZtrVKLsFt6l94aeXoa6KzePHTdqD2aUFqW2fX1BOnuwwGbtgjiIxrnSxXWAcUAfcPTaGBwsTIKCa4z-Pn8HPPnKpHWNYEbv6edp8gN20xefvJVsP8SxiW3StcCCLojEPpUpbv1_rE_tBgPedowHRZWgMUI5Ng2fXiZNq-wvHFUWmY_Tgu1AQia6hLT1ohwrXoxgQFinf8fttIFasHQLAbk6qqQZN2hTY4HRU7O7Ltsbq5NWxDeexB1XczfrHxwFeHrDV7HfdEsNZeic4Xi9HjAUThDJsAceyVgDAcwPXzn-xjFxHKVTrKqPt5sImhPf8h-IMih2oHW2alonLnkTZdt5awuOjypfVVbCzstbfCsGKof6e_FtcRBsFtWCkF-hrnQUnippVqZSfZjBq8YG0wPfVkLNjMXzZnnVGLI4AN2ybdOhjqa-sYe1X10V52p1bayvZce3deMk3OfapzZRdTtcixgWgfS9n6ME_mbHLAPuwu7TEMnBsZYPlrgL1LvQ9hsO-qBoqz5zz2Z4TIauT8E_yxeBdLVeYMOn8xfS-KWV65TEqDjlVQUljcLuadgBafM9mepdqKoxU44okD2kaNZxsK8rUAktX9cyPz3UtGFKGOoZY7p5MVKY_wDFvyvAfR6QpVgjUMNqLwWqUMERW0lnBEs2XYKblIBpcIluLpwgUI614H0xfbBk97I9lTqgldZPpFCcQJVjGTjAF_Mx3RtmwiFkpRlQRLxm_wSonjQQKb3iV23GZXQlKsxFO6TcPMuDqayQMUS6cnMQt2TRswRqYTlw5cXwyMVZ_azm679YDR7FBWUYqVYbdlqZ33NSMNteTIw-i53HAL9UrkdMv8DQ-MNH_LibKfrguM8GZid-TGLQaGi6HHE7cfDaIp9tlsfzE0U-kRtvo-FJ_vSVBkbjcTXU9_]--></g></svg>