<svg xmlns="http://www.w3.org/2000/svg" xmlns:xlink="http://www.w3.org/1999/xlink" contentStyleType="text/css" height="449px" preserveAspectRatio="none" style="width:1231px;height:449px;background:#FFFFFF;" version="1.1" viewBox="0 0 1231 449" width="1231px" zoomAndPan="magnify"><title>Architecture Service Client CIBLE (Odoo Ecosystem)</title><defs/><g><text fill="#000000" font-family="sans-serif" font-size="14" font-weight="bold" lengthAdjust="spacing" textLength="352.4268" x="432.3574" y="24.5332">Architecture Service Client CIBLE (Odoo Ecosystem)</text><!--cluster Front-End (Web + Mobile)--><g id="cluster_Front-End (Web + Mobile)"><path d="M194.5,44.6094 L365.4209,44.6094 A3.75,3.75 0 0 1 367.9209,47.1094 L374.9209,68.2188 L523.5,68.2188 A2.5,2.5 0 0 1 526,70.7188 L526,142.1094 A2.5,2.5 0 0 1 523.5,144.6094 L194.5,144.6094 A2.5,2.5 0 0 1 192,142.1094 L192,47.1094 A2.5,2.5 0 0 1 194.5,44.6094 " fill="#E3F2FD" style="stroke:#000000;stroke-width:1.5;"/><line style="stroke:#000000;stroke-width:1.5;" x1="192" x2="374.9209" y1="68.2188" y2="68.2188"/><text fill="#000000" font-family="sans-serif" font-size="14" font-weight="bold" lengthAdjust="spacing" textLength="169.9209" x="196" y="61.1426">Front-End (Web + Mobile)</text></g><!--cluster Odoo Enterprise Core--><g id="cluster_Odoo Enterprise Core"><path d="M8.5,194.6094 L154.9688,194.6094 A3.75,3.75 0 0 1 157.4688,197.1094 L164.4688,218.2188 L680.5,218.2188 A2.5,2.5 0 0 1 683,220.7188 L683,439.6094 A2.5,2.5 0 0 1 680.5,442.1094 L8.5,442.1094 A2.5,2.5 0 0 1 6,439.6094 L6,197.1094 A2.5,2.5 0 0 1 8.5,194.6094 " fill="#E1BEE7" style="stroke:#000000;stroke-width:1.5;"/><line style="stroke:#000000;stroke-width:1.5;" x1="6" x2="164.4688" y1="218.2188" y2="218.2188"/><text fill="#000000" font-family="sans-serif" font-size="14" font-weight="bold" lengthAdjust="spacing" textLength="145.4688" x="10" y="211.1426">Odoo Enterprise Core</text></g><!--cluster Int?grations Externes--><g id="cluster_Int&#233;grations Externes"><path d="M709.5,342.6094 L853.6514,342.6094 A3.75,3.75 0 0 1 856.1514,345.1094 L863.1514,366.2188 L1039.5,366.2188 A2.5,2.5 0 0 1 1042,368.7188 L1042,440.1094 A2.5,2.5 0 0 1 1039.5,442.6094 L709.5,442.6094 A2.5,2.5 0 0 1 707,440.1094 L707,345.1094 A2.5,2.5 0 0 1 709.5,342.6094 " fill="#FFF3E0" style="stroke:#000000;stroke-width:1.5;"/><line style="stroke:#000000;stroke-width:1.5;" x1="707" x2="863.1514" y1="366.2188" y2="366.2188"/><text fill="#000000" font-family="sans-serif" font-size="14" font-weight="bold" lengthAdjust="spacing" textLength="143.1514" x="711" y="359.1426">Int&#233;grations Externes</text></g><!--entity Portal--><g id="elem_Portal"><rect fill="#90EE90" height="47.6094" rx="2.5" ry="2.5" style="stroke:#181818;stroke-width:0.5;" width="119.3652" x="208.5" y="80.6094"/><rect fill="#90EE90" height="10" style="stroke:#181818;stroke-width:0.5;" width="15" x="307.8652" y="85.6094"/><rect fill="#90EE90" height="2" style="stroke:#181818;stroke-width:0.5;" width="4" x="305.8652" y="87.6094"/><rect fill="#90EE90" height="2" style="stroke:#181818;stroke-width:0.5;" width="4" x="305.8652" y="91.6094"/><text fill="#000000" font-family="sans-serif" font-size="14" lengthAdjust="spacing" textLength="79.3652" x="223.5" y="115.1426">Portail Client</text></g><!--entity WebClaire--><g id="elem_WebClaire"><rect fill="#ADD8E6" height="47.6094" rx="2.5" ry="2.5" style="stroke:#181818;stroke-width:0.5;" width="147.3652" x="362.5" y="80.6094"/><rect fill="#ADD8E6" height="10" style="stroke:#181818;stroke-width:0.5;" width="15" x="489.8652" y="85.6094"/><rect fill="#ADD8E6" height="2" style="stroke:#181818;stroke-width:0.5;" width="4" x="487.8652" y="87.6094"/><rect fill="#ADD8E6" height="2" style="stroke:#181818;stroke-width:0.5;" width="4" x="487.8652" y="91.6094"/><text fill="#000000" font-family="sans-serif" font-size="14" lengthAdjust="spacing" textLength="107.3652" x="377.5" y="115.1426">App Claire (Web)</text></g><!--entity ModCRM--><g id="elem_ModCRM"><rect fill="#F1F1F1" height="47.6094" rx="2.5" ry="2.5" style="stroke:#181818;stroke-width:0.5;" width="121.6895" x="545" y="230.6094"/><rect fill="#F1F1F1" height="10" style="stroke:#181818;stroke-width:0.5;" width="15" x="646.6895" y="235.6094"/><rect fill="#F1F1F1" height="2" style="stroke:#181818;stroke-width:0.5;" width="4" x="644.6895" y="237.6094"/><rect fill="#F1F1F1" height="2" style="stroke:#181818;stroke-width:0.5;" width="4" x="644.6895" y="241.6094"/><text fill="#000000" font-family="sans-serif" font-size="14" lengthAdjust="spacing" textLength="81.6895" x="560" y="265.1426">Module CRM</text></g><!--entity ModHelpdesk--><g id="elem_ModHelpdesk"><rect fill="#F1F1F1" height="47.6094" rx="2.5" ry="2.5" style="stroke:#181818;stroke-width:0.5;" width="148.1719" x="362" y="230.6094"/><rect fill="#F1F1F1" height="10" style="stroke:#181818;stroke-width:0.5;" width="15" x="490.1719" y="235.6094"/><rect fill="#F1F1F1" height="2" style="stroke:#181818;stroke-width:0.5;" width="4" x="488.1719" y="237.6094"/><rect fill="#F1F1F1" height="2" style="stroke:#181818;stroke-width:0.5;" width="4" x="488.1719" y="241.6094"/><text fill="#000000" font-family="sans-serif" font-size="14" lengthAdjust="spacing" textLength="108.1719" x="377" y="265.1426">Module Helpdesk</text></g><!--entity ModPlanning--><g id="elem_ModPlanning"><rect fill="#F1F1F1" height="47.6094" rx="2.5" ry="2.5" style="stroke:#181818;stroke-width:0.5;" width="144.2959" x="183" y="230.6094"/><rect fill="#F1F1F1" height="10" style="stroke:#181818;stroke-width:0.5;" width="15" x="307.2959" y="235.6094"/><rect fill="#F1F1F1" height="2" style="stroke:#181818;stroke-width:0.5;" width="4" x="305.2959" y="237.6094"/><rect fill="#F1F1F1" height="2" style="stroke:#181818;stroke-width:0.5;" width="4" x="305.2959" y="241.6094"/><text fill="#000000" font-family="sans-serif" font-size="14" lengthAdjust="spacing" textLength="104.2959" x="198" y="265.1426">Module Planning</text></g><!--entity ModPortal--><g id="elem_ModPortal"><rect fill="#F1F1F1" height="47.6094" rx="2.5" ry="2.5" style="stroke:#181818;stroke-width:0.5;" width="126.3789" x="22" y="230.6094"/><rect fill="#F1F1F1" height="10" style="stroke:#181818;stroke-width:0.5;" width="15" x="128.3789" y="235.6094"/><rect fill="#F1F1F1" height="2" style="stroke:#181818;stroke-width:0.5;" width="4" x="126.3789" y="237.6094"/><rect fill="#F1F1F1" height="2" style="stroke:#181818;stroke-width:0.5;" width="4" x="126.3789" y="241.6094"/><text fill="#000000" font-family="sans-serif" font-size="14" lengthAdjust="spacing" textLength="86.3789" x="37" y="265.1426">Module Portal</text></g><!--entity DB--><g id="elem_DB"><path d="M386,389.1094 C386,379.1094 436.0825,379.1094 436.0825,379.1094 C436.0825,379.1094 486.165,379.1094 486.165,389.1094 L486.165,415.7188 C486.165,425.7188 436.0825,425.7188 436.0825,425.7188 C436.0825,425.7188 386,425.7188 386,415.7188 L386,389.1094 " fill="#BA68C8" style="stroke:#181818;stroke-width:0.5;"/><path d="M386,389.1094 C386,399.1094 436.0825,399.1094 436.0825,399.1094 C436.0825,399.1094 486.165,399.1094 486.165,389.1094 " fill="none" style="stroke:#181818;stroke-width:0.5;"/><text fill="#000000" font-family="sans-serif" font-size="14" lengthAdjust="spacing" textLength="80.165" x="396" y="417.6426">Base Unique</text></g><!--entity CTI--><g id="elem_CTI"><rect fill="#FFA500" height="47.6094" rx="2.5" ry="2.5" style="stroke:#181818;stroke-width:0.5;" width="135.7168" x="890" y="378.6094"/><rect fill="#FFA500" height="10" style="stroke:#181818;stroke-width:0.5;" width="15" x="1005.7168" y="383.6094"/><rect fill="#FFA500" height="2" style="stroke:#181818;stroke-width:0.5;" width="4" x="1003.7168" y="385.6094"/><rect fill="#FFA500" height="2" style="stroke:#181818;stroke-width:0.5;" width="4" x="1003.7168" y="389.6094"/><text fill="#000000" font-family="sans-serif" font-size="14" lengthAdjust="spacing" textLength="95.7168" x="905" y="413.1426">CTI T&#233;l&#233;phonie</text></g><!--entity SAGE--><g id="elem_SAGE"><rect fill="#FFCC80" height="47.6094" rx="2.5" ry="2.5" style="stroke:#181818;stroke-width:0.5;" width="131.8135" x="723" y="378.6094"/><rect fill="#FFCC80" height="10" style="stroke:#181818;stroke-width:0.5;" width="15" x="834.8135" y="383.6094"/><rect fill="#FFCC80" height="2" style="stroke:#181818;stroke-width:0.5;" width="4" x="832.8135" y="385.6094"/><rect fill="#FFCC80" height="2" style="stroke:#181818;stroke-width:0.5;" width="4" x="832.8135" y="389.6094"/><text fill="#000000" font-family="sans-serif" font-size="14" lengthAdjust="spacing" textLength="91.8135" x="738" y="413.1426">SAGE Compta</text></g><g id="elem_GMN23"><path d="M1061.5,365.1094 L1061.5,440.5156 L1224.1416,440.5156 L1224.1416,375.1094 L1214.1416,365.1094 L1061.5,365.1094 " fill="#FEFFDD" style="stroke:#181818;stroke-width:0.5;"/><path d="M1214.1416,365.1094 L1214.1416,375.1094 L1224.1416,375.1094 L1214.1416,365.1094 " fill="#FEFFDD" style="stroke:#181818;stroke-width:1;"/><text fill="#000000" font-family="sans-serif" font-size="13" font-weight="bold" lengthAdjust="spacing" textLength="109.7891" x="1067.5" y="383.6045">DONNEE UNIQUE</text><text fill="#000000" font-family="sans-serif" font-size="13" lengthAdjust="spacing" textLength="88.1309" x="1067.5" y="399.9561">- Fini les post-it</text><text fill="#000000" font-family="sans-serif" font-size="13" lengthAdjust="spacing" textLength="115.5972" x="1067.5" y="416.3076">- Historique complet</text><text fill="#000000" font-family="sans-serif" font-size="13" lengthAdjust="spacing" textLength="141.6416" x="1067.5" y="432.6592">- Recherche instantan&#233;e</text></g><!--link ModCRM to DB--><g id="link_ModCRM_DB"><path d="M574.5083,282.6486 C542.4883,310.1486 498.5226,347.9212 466.8026,375.1512 " fill="none" id="ModCRM-DB" style="stroke:#181818;stroke-width:1;"/><polygon fill="#181818" points="579.06,278.7394,569.6263,281.5687,575.2669,281.997,574.8385,287.6377,579.06,278.7394" style="stroke:#181818;stroke-width:1;"/><polygon fill="#181818" points="462.25,379.0594,471.6844,376.2322,466.0438,375.8026,466.4735,370.162,462.25,379.0594" style="stroke:#181818;stroke-width:1;"/></g><!--link ModHelpdesk to DB--><g id="link_ModHelpdesk_DB"><path d="M436,284.7394 C436,312.2394 436,345.8294 436,373.0594 " fill="none" id="ModHelpdesk-DB" style="stroke:#181818;stroke-width:1;"/><polygon fill="#181818" points="436,278.7394,432,287.7394,436,283.7394,440,287.7394,436,278.7394" style="stroke:#181818;stroke-width:1;"/><polygon fill="#181818" points="436,379.0594,440,370.0594,436,374.0594,432,370.0594,436,379.0594" style="stroke:#181818;stroke-width:1;"/></g><!--link ModPlanning to DB--><g id="link_ModPlanning_DB"><path d="M288.3499,282.5066 C322.4399,310.0066 369.6093,348.0632 403.3793,375.2932 " fill="none" id="ModPlanning-DB" style="stroke:#181818;stroke-width:1;"/><polygon fill="#181818" points="283.68,278.7394,288.1735,287.5034,287.5716,281.8787,293.1964,281.2769,283.68,278.7394" style="stroke:#181818;stroke-width:1;"/><polygon fill="#181818" points="408.05,379.0594,403.5547,370.2963,404.1577,375.9209,398.5331,376.5239,408.05,379.0594" style="stroke:#181818;stroke-width:1;"/></g><!--link ModPortal to DB--><g id="link_ModPortal_DB"><path d="M146.1596,281.0444 C213.6196,309.1144 315.2801,351.3952 380.2201,378.4052 " fill="none" id="ModPortal-DB" style="stroke:#181818;stroke-width:1;"/><polygon fill="#181818" points="140.62,278.7394,147.3927,285.8899,145.2363,280.6602,150.466,278.5038,140.62,278.7394" style="stroke:#181818;stroke-width:1;"/><polygon fill="#181818" points="385.76,380.7094,378.9862,373.5598,381.1434,378.7892,375.914,380.9464,385.76,380.7094" style="stroke:#181818;stroke-width:1;"/></g><!--link Portal to ModPortal--><g id="link_Portal_ModPortal"><path d="M238.06,128.7594 C217.4,144.8294 189.38,166.8294 165,186.6094 C147.28,200.9994 132.2036,213.5776 116.8136,226.5776 " fill="none" id="Portal-to-ModPortal" style="stroke:#181818;stroke-width:1;"/><polygon fill="#181818" points="112.23,230.4494,121.6866,227.6974,116.0497,227.2229,116.5242,221.586,112.23,230.4494" style="stroke:#181818;stroke-width:1;"/><text fill="#000000" font-family="sans-serif" font-size="13" lengthAdjust="spacing" textLength="60.6772" x="196" y="175.1045">Prise RDV</text></g><!--link WebClaire to ModCRM--><g id="link_WebClaire_ModCRM"><path d="M462.56,128.7294 C494.41,156.4594 542.9351,198.6992 574.8151,226.4592 " fill="none" id="WebClaire-to-ModCRM" style="stroke:#181818;stroke-width:1;"/><polygon fill="#181818" points="579.34,230.3994,575.1794,221.4725,575.5692,227.1159,569.9258,227.5058,579.34,230.3994" style="stroke:#181818;stroke-width:1;"/><text fill="#000000" font-family="sans-serif" font-size="13" lengthAdjust="spacing" textLength="68.6372" x="516" y="175.1045">Fiche Client</text></g><!--link WebClaire to ModHelpdesk--><g id="link_WebClaire_ModHelpdesk"><path d="M436,128.7294 C436,156.3794 436,196.3694 436,224.1594 " fill="none" id="WebClaire-to-ModHelpdesk" style="stroke:#181818;stroke-width:1;"/><polygon fill="#181818" points="436,230.1594,440,221.1594,436,225.1594,432,221.1594,436,230.1594" style="stroke:#181818;stroke-width:1;"/><text fill="#000000" font-family="sans-serif" font-size="13" lengthAdjust="spacing" textLength="41.1709" x="437" y="175.1045">Tickets</text></g><!--link CTI to ModCRM--><g id="link_CTI_ModCRM"><path d="M932.63,378.3794 C916.43,364.3894 894.51,346.9594 873,334.6094 C807.82,297.1694 729.2028,277.1885 672.8928,266.3985 " fill="none" id="CTI-to-ModCRM" style="stroke:#181818;stroke-width:1;"/><polygon fill="#181818" points="667,265.2694,675.0864,270.8916,671.9107,266.2103,676.592,263.0346,667,265.2694" style="stroke:#181818;stroke-width:1;"/><text fill="#000000" font-family="sans-serif" font-size="13" lengthAdjust="spacing" textLength="90.3335" x="854" y="323.1045">Remont&#233;e Auto</text></g><!--link ModCRM to SAGE--><g id="link_ModCRM_SAGE"><path d="M635,278.7394 C669.26,306.0794 721.2396,347.5477 755.4496,374.8377 " fill="none" id="ModCRM-to-SAGE" style="stroke:#181818;stroke-width:1;"/><polygon fill="#181818" points="760.14,378.5794,755.5988,369.84,756.2313,375.4613,750.6099,376.0939,760.14,378.5794" style="stroke:#181818;stroke-width:1;"/><text fill="#000000" font-family="sans-serif" font-size="13" lengthAdjust="spacing" textLength="105.4727" x="693" y="323.1045">Sync Clients (API)</text></g><!--link DB to GMN23--><g id="link_DB_GMN23"><path d="M484.35,378.9894 C586.77,332.3094 832.02,238.4294 1024.5,306.6094 C1057.44,318.2794 1087.92,343.4394 1109.71,365.0694 " fill="none" id="DB-GMN23" style="stroke:#181818;stroke-width:1;stroke-dasharray:7.0,7.0;"/></g><!--SRC=[PLF1Zjem4BtdAqPmA50XqQwwPL5LAIHE5wcmR83sKFLWmXGiZ9tQfkggwWVn7VpOZfrabsqbA_AyUPfvyyPnmac4s1GxuR1mHuEmGFDB50Y95AWS99FnPmQTkutMm0fj7wp3GpUAIbxi-HQXbHcjN9-f3NI-uXfUmrIlXSHk2zhiAdkRfV0d0lWsryPn8Ukotu5R2924zis0iPk19yLbIGGkI8OlrWqqkjHOEqxJ8RkE_bwqhuGfXwOqmf9iRT2tVZDcx7tLUgetHveooQUX7eLqlKZSeYmtQFTDjealA7F9bH9gsr2Q-98IfdaYX8ZIT3RSyJKdRQsn_wwK-7aaZKHCnz0UnzV3P5WnAsdmeT__IBaAQDIyH1i1_w2LemrswTD4kVDfQxWJMbbWlyamXPQSohBiYWqgfvBb19RdapoVofrM0iCq7YHM_6uGThI8Fp5o-L0w7j8XfdoI30U-uol8KLPjebgFb_EiRWJpiAay_H8zxxRc-F57a8bYrxp0_pbFZenWAOezEXjvZIygv7ZGVc9wt4UdenhtbA1t18i7LTGTB7JY-OJUjD8EmOZjpe7-KPdQwwLtinbZi9fDxbUiroEiJ_gK08aMIcrTNxW0tWhhjF6xXOBiaLZ1ET8iniyZb7LSqI5P4T8Fu_j5Zm00]--></g></svg>