<svg xmlns="http://www.w3.org/2000/svg" xmlns:xlink="http://www.w3.org/1999/xlink" contentStyleType="text/css" height="295px" preserveAspectRatio="none" style="width:859px;height:295px;background:#FFFFFF;" version="1.1" viewBox="0 0 859 295" width="859px" zoomAndPan="magnify"><title>Mind Map - Solutions Cibles (Odoo CRM)</title><defs/><g><text fill="#000000" font-family="sans-serif" font-size="14" font-weight="bold" lengthAdjust="spacing" textLength="272.1934" x="292.1455" y="34.5332">Mind Map - Solutions Cibles (Odoo CRM)</text><rect fill="#F1F1F1" height="37.6094" rx="12.5" ry="12.5" style="stroke:#181818;stroke-width:1.5;" width="154.5928" x="348.7354" y="147.4609"/><text fill="#000000" font-family="sans-serif" font-size="14" lengthAdjust="spacing" textLength="134.5928" x="358.7354" y="171.9941">SOLUTIONS CIBLES</text><rect fill="#F1F1F1" height="55.2188" rx="12.5" ry="12.5" style="stroke:#181818;stroke-width:1.5;" width="59.6758" x="553.3281" y="60.2188"/><text fill="#000000" font-family="sans-serif" font-size="14" lengthAdjust="spacing" textLength="38.9102" x="563.3281" y="84.752">Fin du</text><text fill="#000000" font-family="sans-serif" font-size="14" lengthAdjust="spacing" textLength="39.6758" x="563.3281" y="102.3613">Post-it</text><text fill="#000000" font-family="sans-serif" font-size="14" lengthAdjust="spacing" textLength="154.0547" x="666.0039" y="64.1426">Odoo Helpdesk (Tickets)</text><path d="M613.0039,87.8281 L623.0039,87.8281 C638.0039,87.8281 638.0039,58.4141 653.0039,58.4141 L663.0039,58.4141 " fill="none" style="stroke:#181818;stroke-width:1;"/><text fill="#000000" font-family="sans-serif" font-size="14" lengthAdjust="spacing" textLength="129.3701" x="666.0039" y="83.752">Tra&#195;&#167;abilit&#195;&#169; Totale</text><path d="M613.0039,87.8281 L623.0039,87.8281 C638.0039,87.8281 638.0039,78.0234 653.0039,78.0234 L663.0039,78.0234 " fill="none" style="stroke:#181818;stroke-width:1;"/><text fill="#000000" font-family="sans-serif" font-size="14" lengthAdjust="spacing" textLength="119.0479" x="666.0039" y="103.3613">Historique Complet</text><path d="M613.0039,87.8281 L623.0039,87.8281 C638.0039,87.8281 638.0039,97.6328 653.0039,97.6328 L663.0039,97.6328 " fill="none" style="stroke:#181818;stroke-width:1;"/><text fill="#000000" font-family="sans-serif" font-size="14" lengthAdjust="spacing" textLength="156.6318" x="666.0039" y="122.9707">Recherche Instantan&#195;&#169;e</text><path d="M613.0039,87.8281 L623.0039,87.8281 C638.0039,87.8281 638.0039,117.2422 653.0039,117.2422 L663.0039,117.2422 " fill="none" style="stroke:#181818;stroke-width:1;"/><path d="M503.3281,166.2656 L513.3281,166.2656 C528.3281,166.2656 528.3281,87.8281 543.3281,87.8281 L553.3281,87.8281 " fill="none" style="stroke:#181818;stroke-width:1;"/><rect fill="#F1F1F1" height="55.2188" rx="12.5" ry="12.5" style="stroke:#181818;stroke-width:1.5;" width="85.3447" x="553.3281" y="138.6563"/><text fill="#000000" font-family="sans-serif" font-size="14" lengthAdjust="spacing" textLength="65.3447" x="563.3281" y="163.1895">Prise RDV</text><text fill="#000000" font-family="sans-serif" font-size="14" lengthAdjust="spacing" textLength="55.2686" x="563.3281" y="180.7988">En Ligne</text><text fill="#000000" font-family="sans-serif" font-size="14" lengthAdjust="spacing" textLength="110.5029" x="691.6729" y="142.5801">Portail Client 24/7</text><path d="M638.6729,166.2656 L648.6729,166.2656 C663.6729,166.2656 663.6729,136.8516 678.6729,136.8516 L688.6729,136.8516 " fill="none" style="stroke:#181818;stroke-width:1;"/><text fill="#000000" font-family="sans-serif" font-size="14" lengthAdjust="spacing" textLength="155.8115" x="691.6729" y="162.1895">Calendrier Temps R&#195;&#169;el</text><path d="M638.6729,166.2656 L648.6729,166.2656 C663.6729,166.2656 663.6729,156.4609 678.6729,156.4609 L688.6729,156.4609 " fill="none" style="stroke:#181818;stroke-width:1;"/><text fill="#000000" font-family="sans-serif" font-size="14" lengthAdjust="spacing" textLength="111.2822" x="691.6729" y="181.7988">SMS Rappel Auto</text><path d="M638.6729,166.2656 L648.6729,166.2656 C663.6729,166.2656 663.6729,176.0703 678.6729,176.0703 L688.6729,176.0703 " fill="none" style="stroke:#181818;stroke-width:1;"/><text fill="#000000" font-family="sans-serif" font-size="14" lengthAdjust="spacing" textLength="93.96" x="691.6729" y="201.4082">D&#195;&#169;lai &lt; 2 min</text><path d="M638.6729,166.2656 L648.6729,166.2656 C663.6729,166.2656 663.6729,195.6797 678.6729,195.6797 L688.6729,195.6797 " fill="none" style="stroke:#181818;stroke-width:1;"/><path d="M503.3281,166.2656 L513.3281,166.2656 C528.3281,166.2656 528.3281,166.2656 543.3281,166.2656 L553.3281,166.2656 " fill="none" style="stroke:#181818;stroke-width:1;"/><rect fill="#F1F1F1" height="55.2188" rx="12.5" ry="12.5" style="stroke:#181818;stroke-width:1.5;" width="96.46" x="553.3281" y="217.0938"/><text fill="#000000" font-family="sans-serif" font-size="14" lengthAdjust="spacing" textLength="76.46" x="563.3281" y="241.627">Remont&#195;&#169;e</text><text fill="#000000" font-family="sans-serif" font-size="14" lengthAdjust="spacing" textLength="75.4961" x="563.3281" y="259.2363">Auto Appels</text><text fill="#000000" font-family="sans-serif" font-size="14" lengthAdjust="spacing" textLength="93.7617" x="702.7881" y="221.0176">CTI Int&#195;&#169;gr&#195;&#169;</text><path d="M649.7881,244.7031 L659.7881,244.7031 C674.7881,244.7031 674.7881,215.2891 689.7881,215.2891 L699.7881,215.2891 " fill="none" style="stroke:#181818;stroke-width:1;"/><text fill="#000000" font-family="sans-serif" font-size="14" lengthAdjust="spacing" textLength="122.9512" x="702.7881" y="240.627">Pop-up Fiche Client</text><path d="M649.7881,244.7031 L659.7881,244.7031 C674.7881,244.7031 674.7881,234.8984 689.7881,234.8984 L699.7881,234.8984 " fill="none" style="stroke:#181818;stroke-width:1;"/><text fill="#000000" font-family="sans-serif" font-size="14" lengthAdjust="spacing" textLength="141.627" x="702.7881" y="260.2363">Enregistrement Appels</text><path d="M649.7881,244.7031 L659.7881,244.7031 C674.7881,244.7031 674.7881,254.5078 689.7881,254.5078 L699.7881,254.5078 " fill="none" style="stroke:#181818;stroke-width:1;"/><text fill="#000000" font-family="sans-serif" font-size="14" lengthAdjust="spacing" textLength="123.1289" x="702.7881" y="279.8457">Stats Temps R&#195;&#169;el</text><path d="M649.7881,244.7031 L659.7881,244.7031 C674.7881,244.7031 674.7881,274.1172 689.7881,274.1172 L699.7881,274.1172 " fill="none" style="stroke:#181818;stroke-width:1;"/><path d="M503.3281,166.2656 L513.3281,166.2656 C528.3281,166.2656 528.3281,244.7031 543.3281,244.7031 L553.3281,244.7031 " fill="none" style="stroke:#181818;stroke-width:1;"/><rect fill="#F1F1F1" height="55.2188" rx="12.5" ry="12.5" style="stroke:#181818;stroke-width:1.5;" width="87.7031" x="211.0322" y="99.4375"/><text fill="#000000" font-family="sans-serif" font-size="14" lengthAdjust="spacing" textLength="67.7031" x="221.0322" y="123.9707">Fin Double</text><text fill="#000000" font-family="sans-serif" font-size="14" lengthAdjust="spacing" textLength="38.1309" x="221.0322" y="141.5801">Saisie</text><text fill="#000000" font-family="sans-serif" font-size="14" lengthAdjust="spacing" textLength="124.1201" x="33.9121" y="103.3613">Sync Odoo &gt; SAGE</text><path d="M211.0322,127.0469 L201.0322,127.0469 C186.0322,127.0469 186.0322,97.6328 171.0322,97.6328 L161.0322,97.6328 " fill="none" style="stroke:#181818;stroke-width:1;"/><text fill="#000000" font-family="sans-serif" font-size="14" lengthAdjust="spacing" textLength="77.8271" x="80.2051" y="122.9707">Data Unique</text><path d="M211.0322,127.0469 L201.0322,127.0469 C186.0322,127.0469 186.0322,117.2422 171.0322,117.2422 L161.0322,117.2422 " fill="none" style="stroke:#181818;stroke-width:1;"/><text fill="#000000" font-family="sans-serif" font-size="14" lengthAdjust="spacing" textLength="97.5898" x="60.4424" y="142.5801">Moins d'Erreurs</text><path d="M211.0322,127.0469 L201.0322,127.0469 C186.0322,127.0469 186.0322,136.8516 171.0322,136.8516 L161.0322,136.8516 " fill="none" style="stroke:#181818;stroke-width:1;"/><text fill="#000000" font-family="sans-serif" font-size="14" lengthAdjust="spacing" textLength="84.0684" x="73.9639" y="162.1895">Gain 825h/an</text><path d="M211.0322,127.0469 L201.0322,127.0469 C186.0322,127.0469 186.0322,156.4609 171.0322,156.4609 L161.0322,156.4609 " fill="none" style="stroke:#181818;stroke-width:1;"/><path d="M348.7354,166.2656 L338.7354,166.2656 C323.7354,166.2656 323.7354,127.0469 308.7354,127.0469 L298.7354,127.0469 " fill="none" style="stroke:#181818;stroke-width:1;"/><rect fill="#F1F1F1" height="55.2188" rx="12.5" ry="12.5" style="stroke:#181818;stroke-width:1.5;" width="76.0205" x="222.7148" y="177.875"/><text fill="#000000" font-family="sans-serif" font-size="14" lengthAdjust="spacing" textLength="35.793" x="232.7148" y="202.4082">KPI &amp;</text><text fill="#000000" font-family="sans-serif" font-size="14" lengthAdjust="spacing" textLength="56.0205" x="232.7148" y="220.0176">Analytics</text><text fill="#000000" font-family="sans-serif" font-size="14" lengthAdjust="spacing" textLength="159.7148" x="10" y="181.7988">Dashboard Temps R&#195;&#169;el</text><path d="M222.7148,205.4844 L212.7148,205.4844 C197.7148,205.4844 197.7148,176.0703 182.7148,176.0703 L172.7148,176.0703 " fill="none" style="stroke:#181818;stroke-width:1;"/><text fill="#000000" font-family="sans-serif" font-size="14" lengthAdjust="spacing" textLength="68.4688" x="101.2461" y="201.4082">NPS Client</text><path d="M222.7148,205.4844 L212.7148,205.4844 C197.7148,205.4844 197.7148,195.6797 182.7148,195.6797 L172.7148,195.6797 " fill="none" style="stroke:#181818;stroke-width:1;"/><text fill="#000000" font-family="sans-serif" font-size="14" lengthAdjust="spacing" textLength="114.584" x="55.1309" y="221.0176">Temps R&#195;&#169;ponse</text><path d="M222.7148,205.4844 L212.7148,205.4844 C197.7148,205.4844 197.7148,215.2891 182.7148,215.2891 L172.7148,215.2891 " fill="none" style="stroke:#181818;stroke-width:1;"/><text fill="#000000" font-family="sans-serif" font-size="14" lengthAdjust="spacing" textLength="113.0322" x="56.6826" y="240.627">Taux R&#195;&#169;solution</text><path d="M222.7148,205.4844 L212.7148,205.4844 C197.7148,205.4844 197.7148,234.8984 182.7148,234.8984 L172.7148,234.8984 " fill="none" style="stroke:#181818;stroke-width:1;"/><path d="M348.7354,166.2656 L338.7354,166.2656 C323.7354,166.2656 323.7354,205.4844 308.7354,205.4844 L298.7354,205.4844 " fill="none" style="stroke:#181818;stroke-width:1;"/><!--SRC=[RLF1Jjj04BtlLyofJI856YjG55KLu1W8ZS7o6awHqCOUmgZhNNTt7PLpFwRgRxG_rbtRgBIgP5lspDkPUU-DJwqJnjMagbeqmBLi7Mbb7pYQFPKOIqBb67Fa94BgOP1wtFGF4cBQIhGmkgsqXZXFnunDWD-kxuhLxGs7U7M-JZYRJE2255JjHcNQkYav7veyG7Vg2cLJeVqCeuBAp-Zik4yMHlpwzlExs98avzz-GA6TaDXdhyWwRUXBYn3hkf4ubConV4BZRrWfpqxvAvn55eR835c4V7c_KOc2DUtKK2tJnWcIq3E6Q7xula_4lg6g3A610kl6GjvLatsMfnnoqJGeuQnrkWyk0q8AWWyGWTUswvnZhLN70ZSgOE4i7BD3bsBbn-tIEnEUBrCrqxRnqWKwWnbT8b46Tru0WtKOztKfxeIp_ypA93uwi5JrAWGhbhhrncqK5sHf484_gxAtv2Fmiyjae2ESW3iLbEu3gIPlVFKsCGPRCxIz5BxeINJqT2Xwmf-o5RpnL9MGpuvA-rBCFcsrCDN_rBp9-5yiNq4Qlsj3-qAqN_kW7RQGiLFlqR35Z6NIktwNhc6Fnleqp0wYTz7yu6HqOGXkz1vcHp0xMSpdY_ann4a18Jrceyji3LQtfaIeWhYqxSgFsRNO2yXRvQZ61OIlKP6EWISlGM_8denMmGrsVP_s8BZIZZVQTU3Z-VIS78G_o-_IVSgM-2XQwVpHKbUaTWk8crbq5B6rKBjMx7odHyDYxJkOvmLSvBy1]--></g></svg>