<svg xmlns="http://www.w3.org/2000/svg" xmlns:xlink="http://www.w3.org/1999/xlink" contentStyleType="text/css" height="1192px" preserveAspectRatio="none" style="width:1017px;height:1192px;background:#FFFFFF;" version="1.1" viewBox="0 0 1017 1192" width="1017px" zoomAndPan="magnify"><title>Use Case - Service Client Duret &#195;&#8240;lectricit&#195;&#169;</title><defs/><g><text fill="#000000" font-family="sans-serif" font-size="14" font-weight="bold" lengthAdjust="spacing" textLength="310.1328" x="346.7981" y="24.5332">Use Case - Service Client Duret &#195;&#8240;lectricit&#195;&#169;</text><!--cluster Service Client--><g id="cluster_Service Client"><rect fill="none" height="899" rx="2.5" ry="2.5" style="stroke:#181818;stroke-width:1;" width="538.5" x="162" y="182.1094"/><text fill="#000000" font-family="sans-serif" font-size="14" font-weight="bold" lengthAdjust="spacing" textLength="92.5996" x="384.9502" y="198.6426">Service Client</text></g><g id="elem_UC1"><ellipse cx="275.6705" cy="737.0128" fill="#F1F1F1" rx="68.1705" ry="27.9034" style="stroke:#181818;stroke-width:0.5;"/><text fill="#000000" font-family="sans-serif" font-size="14" lengthAdjust="spacing" textLength="80.165" x="235.588" y="731.9366">Appeler pour</text><text fill="#000000" font-family="sans-serif" font-size="14" lengthAdjust="spacing" textLength="64.5791" x="243.381" y="749.546">probl&#195;&#168;me</text></g><g id="elem_UC2"><ellipse cx="275.5144" cy="442.2123" fill="#F1F1F1" rx="68.5144" ry="16.1029" style="stroke:#181818;stroke-width:0.5;"/><text fill="#000000" font-family="sans-serif" font-size="14" lengthAdjust="spacing" textLength="83.2549" x="230.887" y="446.7289">Prendre RDV</text></g><g id="elem_UC3"><ellipse cx="275.7022" cy="511.0498" fill="#F1F1F1" rx="75.2022" ry="17.4404" style="stroke:#181818;stroke-width:0.5;"/><text fill="#000000" font-family="sans-serif" font-size="14" lengthAdjust="spacing" textLength="101.9375" x="221.7335" y="515.5664">Demander devis</text></g><g id="elem_UC4"><ellipse cx="275.6688" cy="582.1431" fill="#F1F1F1" rx="80.6688" ry="18.5338" style="stroke:#181818;stroke-width:0.5;"/><text fill="#000000" font-family="sans-serif" font-size="14" lengthAdjust="spacing" textLength="115.9512" x="216.9975" y="586.0739">Suivre intervention</text></g><g id="elem_UC5"><ellipse cx="275.2689" cy="654.9632" fill="#F1F1F1" rx="82.2689" ry="18.8538" style="stroke:#181818;stroke-width:0.5;"/><text fill="#000000" font-family="sans-serif" font-size="14" lengthAdjust="spacing" textLength="119.8408" x="215.3219" y="658.6997">Donner satisfaction</text></g><g id="elem_UC6"><ellipse cx="602.7891" cy="511.2672" fill="#F1F1F1" rx="71.2891" ry="16.6578" style="stroke:#181818;stroke-width:0.5;"/><text fill="#000000" font-family="sans-serif" font-size="14" lengthAdjust="spacing" textLength="91.2188" x="554.1797" y="515.7838">G&#195;&#169;rer tickets</text></g><g id="elem_UC7"><ellipse cx="603.1294" cy="335.3353" fill="#F1F1F1" rx="81.6294" ry="18.7259" style="stroke:#181818;stroke-width:0.5;"/><text fill="#000000" font-family="sans-serif" font-size="14" lengthAdjust="spacing" textLength="118.2959" x="543.6922" y="339.1494">Organiser planning</text></g><g id="elem_UC8"><ellipse cx="275.3327" cy="306.8759" fill="#F1F1F1" rx="74.3327" ry="17.2665" style="stroke:#181818;stroke-width:0.5;"/><text fill="#000000" font-family="sans-serif" font-size="14" lengthAdjust="spacing" textLength="99.5996" x="222.5329" y="311.3925">Relancer clients</text></g><g id="elem_UC9"><ellipse cx="275.4276" cy="375.2949" fill="#F1F1F1" rx="66.4276" ry="15.6855" style="stroke:#181818;stroke-width:0.5;"/><text fill="#000000" font-family="sans-serif" font-size="14" lengthAdjust="spacing" textLength="77.0068" x="233.9242" y="379.8115">Traiter mails</text></g><g id="elem_UC10"><ellipse cx="275.3404" cy="235.9775" fill="#F1F1F1" rx="77.3404" ry="17.8681" style="stroke:#181818;stroke-width:0.5;"/><text fill="#000000" font-family="sans-serif" font-size="14" lengthAdjust="spacing" textLength="107.5703" x="219.3229" y="240.3123">Cr&#195;&#169;er chantiers</text></g><g id="elem_UC11"><ellipse cx="275.608" cy="1044.131" fill="#F1F1F1" rx="90.608" ry="20.5216" style="stroke:#181818;stroke-width:0.5;"/><text fill="#000000" font-family="sans-serif" font-size="14" lengthAdjust="spacing" textLength="139.4873" x="205.8644" y="1047.8595">R&#195;&#169;aliser intervention</text></g><g id="elem_UC12"><ellipse cx="602.82" cy="974.8734" fill="#F1F1F1" rx="74.32" ry="17.264" style="stroke:#181818;stroke-width:0.5;"/><text fill="#000000" font-family="sans-serif" font-size="14" lengthAdjust="spacing" textLength="99.5654" x="550.0373" y="979.39">Remplir CERFA</text></g><g id="elem_UC13"><ellipse cx="275.4994" cy="966.0093" fill="#F1F1F1" rx="97.4994" ry="21.8999" style="stroke:#181818;stroke-width:0.5;"/><text fill="#000000" font-family="sans-serif" font-size="14" lengthAdjust="spacing" textLength="155.2373" x="197.8808" y="969.7378">G&#195;&#169;n&#195;&#169;rer devis terrain</text></g><g id="elem_UC14"><ellipse cx="603.2308" cy="1046.2555" fill="#F1F1F1" rx="71.2308" ry="16.6462" style="stroke:#181818;stroke-width:0.5;"/><text fill="#000000" font-family="sans-serif" font-size="14" lengthAdjust="spacing" textLength="91.0547" x="554.7034" y="1050.7721">Pointer heures</text></g><g id="elem_UC15"><ellipse cx="275.5596" cy="816.9213" fill="#F1F1F1" rx="72.0596" ry="16.8119" style="stroke:#181818;stroke-width:0.5;"/><text fill="#000000" font-family="sans-serif" font-size="14" lengthAdjust="spacing" textLength="93.3721" x="225.8736" y="821.4379">Consulter KPIs</text></g><g id="elem_UC16"><ellipse cx="275.3588" cy="889.1811" fill="#F1F1F1" rx="85.8588" ry="19.5718" style="stroke:#181818;stroke-width:0.5;"/><text fill="#000000" font-family="sans-serif" font-size="14" lengthAdjust="spacing" textLength="128.3926" x="211.1625" y="892.9097">Analyser satisfaction</text></g><!--entity Client--><g id="elem_Client"><ellipse cx="60.3965" cy="551.6094" fill="#F1F1F1" rx="8" ry="8" style="stroke:#181818;stroke-width:0.5;"/><path d="M60.3965,559.6094 L60.3965,586.6094 M47.3965,567.6094 L73.3965,567.6094 M60.3965,586.6094 L47.3965,601.6094 M60.3965,586.6094 L73.3965,601.6094 " fill="none" style="stroke:#181818;stroke-width:0.5;"/><text fill="#000000" font-family="sans-serif" font-size="14" lengthAdjust="spacing" textLength="35.793" x="42.5" y="617.6426">Client</text></g><!--entity Claire--><g id="elem_Claire"><ellipse cx="60.4551" cy="197.1094" fill="#F1F1F1" rx="8" ry="8" style="stroke:#181818;stroke-width:0.5;"/><path d="M60.4551,205.1094 L60.4551,232.1094 M47.4551,213.1094 L73.4551,213.1094 M60.4551,232.1094 L47.4551,247.1094 M60.4551,232.1094 L73.4551,247.1094 " fill="none" style="stroke:#181818;stroke-width:0.5;"/><text fill="#000000" font-family="sans-serif" font-size="14" lengthAdjust="spacing" textLength="36.5654" x="23.5" y="263.1426">Claire</text><text fill="#000000" font-family="sans-serif" font-size="14" lengthAdjust="spacing" textLength="73.9102" x="23.5" y="280.752">(Assistante)</text></g><!--entity Gaetan--><g id="elem_Gaetan"><ellipse cx="60.4653" cy="1050.1094" fill="#F1F1F1" rx="8" ry="8" style="stroke:#181818;stroke-width:0.5;"/><path d="M60.4653,1058.1094 L60.4653,1085.1094 M47.4653,1066.1094 L73.4653,1066.1094 M60.4653,1085.1094 L47.4653,1100.1094 M60.4653,1085.1094 L73.4653,1100.1094 " fill="none" style="stroke:#181818;stroke-width:0.5;"/><text fill="#000000" font-family="sans-serif" font-size="14" lengthAdjust="spacing" textLength="55.2617" x="6" y="1116.1426">Ga&#195;&#171;tan</text><text fill="#000000" font-family="sans-serif" font-size="14" lengthAdjust="spacing" textLength="108.9307" x="6" y="1133.752">(Technicien SAV)</text></g><!--entity Direction--><g id="elem_Direction"><ellipse cx="60.6206" cy="826.6094" fill="#F1F1F1" rx="8" ry="8" style="stroke:#181818;stroke-width:0.5;"/><path d="M60.6206,834.6094 L60.6206,861.6094 M47.6206,842.6094 L73.6206,842.6094 M60.6206,861.6094 L47.6206,876.6094 M60.6206,861.6094 L73.6206,876.6094 " fill="none" style="stroke:#181818;stroke-width:0.5;"/><text fill="#000000" font-family="sans-serif" font-size="14" lengthAdjust="spacing" textLength="55.2412" x="33" y="892.6426">Direction</text></g><g id="elem_GMN44"><path d="M803,489.6094 L803,507.1094 L674.7,511.1094 L803,515.1094 L803,532.3125 A0,0 0 0 0 803,532.3125 L985.2432,532.3125 A0,0 0 0 0 985.2432,532.3125 L985.2432,499.6094 L975.2432,489.6094 L803,489.6094 A0,0 0 0 0 803,489.6094 " fill="#FEFFDD" style="stroke:#181818;stroke-width:0.5;"/><path d="M975.2432,489.6094 L975.2432,499.6094 L985.2432,499.6094 L975.2432,489.6094 " fill="#FEFFDD" style="stroke:#181818;stroke-width:0.5;"/><text fill="#000000" font-family="sans-serif" font-size="13" lengthAdjust="spacing" textLength="123.5254" x="809" y="508.1045">&#240;&#376;&#8221;&#180; ACTUEL: Post-it</text><text fill="#000000" font-family="sans-serif" font-size="13" lengthAdjust="spacing" textLength="161.2432" x="809" y="524.4561">&#226;&#339;&#8230; CIBLE: HubSpot CRM</text></g><g id="elem_GMN47"><path d="M777,313.6094 L777,331.1094 L684.5,335.1094 L777,339.1094 L777,356.3125 A0,0 0 0 0 777,356.3125 L1010.729,356.3125 A0,0 0 0 0 1010.729,356.3125 L1010.729,323.6094 L1000.729,313.6094 L777,313.6094 A0,0 0 0 0 777,313.6094 " fill="#FEFFDD" style="stroke:#181818;stroke-width:0.5;"/><path d="M1000.729,313.6094 L1000.729,323.6094 L1010.729,323.6094 L1000.729,313.6094 " fill="#FEFFDD" style="stroke:#181818;stroke-width:0.5;"/><text fill="#000000" font-family="sans-serif" font-size="13" lengthAdjust="spacing" textLength="154.978" x="783" y="332.1045">&#240;&#376;&#8221;&#180; ACTUEL: Excel + 48h</text><text fill="#000000" font-family="sans-serif" font-size="13" lengthAdjust="spacing" textLength="212.729" x="783" y="348.4561">&#226;&#339;&#8230; CIBLE: Calendrier temps r&#195;&#169;el</text></g><g id="elem_GMN50"><path d="M797.5,953.6094 L797.5,971.1094 L677.67,975.1094 L797.5,979.1094 L797.5,996.3125 A0,0 0 0 0 797.5,996.3125 L990.4326,996.3125 A0,0 0 0 0 990.4326,996.3125 L990.4326,963.6094 L980.4326,953.6094 L797.5,953.6094 A0,0 0 0 0 797.5,953.6094 " fill="#FEFFDD" style="stroke:#181818;stroke-width:0.5;"/><path d="M980.4326,953.6094 L980.4326,963.6094 L990.4326,963.6094 L980.4326,953.6094 " fill="#FEFFDD" style="stroke:#181818;stroke-width:0.5;"/><text fill="#000000" font-family="sans-serif" font-size="13" lengthAdjust="spacing" textLength="171.9326" x="803.5" y="972.1045">&#240;&#376;&#8221;&#180; ACTUEL: Papier CERFA</text><text fill="#000000" font-family="sans-serif" font-size="13" lengthAdjust="spacing" textLength="142.4731" x="803.5" y="988.4561">&#226;&#339;&#8230; CIBLE: App mobile</text></g><g id="elem_GMN53"><path d="M518,122.6094 L518,165.3125 L687.8208,165.3125 L687.8208,132.6094 L677.8208,122.6094 L518,122.6094 " fill="#FEFFDD" style="stroke:#181818;stroke-width:0.5;"/><path d="M677.8208,122.6094 L677.8208,132.6094 L687.8208,132.6094 L677.8208,122.6094 " fill="#FEFFDD" style="stroke:#181818;stroke-width:1;"/><text fill="#000000" font-family="sans-serif" font-size="13" lengthAdjust="spacing" textLength="148.8208" x="524" y="141.1045">&#240;&#376;&#8221;&#180; ACTUEL: Impossible</text><text fill="#000000" font-family="sans-serif" font-size="13" lengthAdjust="spacing" textLength="142.4731" x="524" y="157.4561">&#226;&#339;&#8230; CIBLE: App mobile</text></g><g id="elem_GMN56"><path d="M490,44.6094 L490,87.3125 L716.499,87.3125 L716.499,54.6094 L706.499,44.6094 L490,44.6094 " fill="#FEFFDD" style="stroke:#181818;stroke-width:0.5;"/><path d="M706.499,44.6094 L706.499,54.6094 L716.499,54.6094 L706.499,44.6094 " fill="#FEFFDD" style="stroke:#181818;stroke-width:1;"/><text fill="#000000" font-family="sans-serif" font-size="13" lengthAdjust="spacing" textLength="164.7217" x="496" y="63.1045">&#240;&#376;&#8221;&#180; ACTUEL: Excel manuel</text><text fill="#000000" font-family="sans-serif" font-size="13" lengthAdjust="spacing" textLength="205.499" x="496" y="79.4561">&#226;&#339;&#8230; CIBLE: Power BI temps r&#195;&#169;el</text></g><!--link Client to UC1--><g id="link_Client_UC1"><path d="M78.67,609.2494 C95.31,633.6194 122.6,668.8894 154,691.1094 C173.1,704.6294 191.0139,712.8347 212.2339,720.1047 " fill="none" id="Client-to-UC1" style="stroke:#181818;stroke-width:1;"/><polygon fill="#181818" points="217.91,722.0494,210.6922,715.3483,213.1799,720.4288,208.0994,722.9165,217.91,722.0494" style="stroke:#181818;stroke-width:1;"/></g><!--link Client to UC2--><g id="link_Client_UC2"><path d="M78.71,554.6194 C95.2,530.4994 122.21,496.2294 154,476.1094 C173.2,463.9694 190.9657,457.4695 212.1757,452.3795 " fill="none" id="Client-to-UC2" style="stroke:#181818;stroke-width:1;"/><polygon fill="#181818" points="218.01,450.9794,208.3251,449.19,213.148,452.1462,210.1919,456.9691,218.01,450.9794" style="stroke:#181818;stroke-width:1;"/></g><!--link Client to UC3--><g id="link_Client_UC3"><path d="M78.72,574.8794 C97.17,567.2594 127.4,555.1294 154,546.1094 C177.31,538.2094 197.7434,532.0813 219.7534,525.9013 " fill="none" id="Client-to-UC3" style="stroke:#181818;stroke-width:1;"/><polygon fill="#181818" points="225.53,524.2794,215.7838,522.8612,220.7162,525.631,217.9464,530.5634,225.53,524.2794" style="stroke:#181818;stroke-width:1;"/></g><!--link Client to UC4--><g id="link_Client_UC4"><path d="M78.57,582.1094 C103.74,582.1094 146.44,582.1094 188.99,582.1094 " fill="none" id="Client-to-UC4" style="stroke:#181818;stroke-width:1;"/><polygon fill="#181818" points="194.99,582.1094,185.99,578.1094,189.99,582.1094,185.99,586.1094,194.99,582.1094" style="stroke:#181818;stroke-width:1;"/></g><!--link Client to UC5--><g id="link_Client_UC5"><path d="M78.75,589.2594 C97.22,596.8194 127.47,608.8894 154,618.1094 C176.53,625.9494 195.973,632.0953 217.473,638.5453 " fill="none" id="Client-to-UC5" style="stroke:#181818;stroke-width:1;"/><polygon fill="#181818" points="223.22,640.2694,215.749,633.8519,218.4309,638.8326,213.4502,641.5145,223.22,640.2694" style="stroke:#181818;stroke-width:1;"/></g><!--link Claire to UC6--><g id="link_Claire_UC6"><path d="M97.57,219.3294 C158.25,193.7194 282.96,152.6194 373,200.1094 C454.45,243.0794 435.2,297.1094 490,371.1094 C523.9,416.8894 562.7157,464.1527 584.2957,490.0127 " fill="none" id="Claire-to-UC6" style="stroke:#181818;stroke-width:1;"/><polygon fill="#181818" points="588.14,494.6194,585.4447,485.1465,584.9365,490.7805,579.3025,490.2722,588.14,494.6194" style="stroke:#181818;stroke-width:1;"/></g><!--link Claire to UC7--><g id="link_Claire_UC7"><path d="M89.57,188.4194 C103.57,169.3494 122.38,149.4894 145,139.1094 C237.11,96.8694 272.31,127.6894 373,139.1094 C412.42,143.5894 426.36,138.0694 460,159.1094 C493.37,179.9794 558.169,271.1764 586.179,311.8864 " fill="none" id="Claire-to-UC7" style="stroke:#181818;stroke-width:1;"/><polygon fill="#181818" points="589.58,316.8294,587.7739,307.1475,586.7459,312.7102,581.1832,311.6822,589.58,316.8294" style="stroke:#181818;stroke-width:1;"/></g><!--link Claire to UC8--><g id="link_Claire_UC8"><path d="M97.75,250.5094 C114.73,257.0794 135.29,264.7894 154,271.1094 C177.89,279.1894 198.9878,285.6368 221.2778,292.1068 " fill="none" id="Claire-to-UC8" style="stroke:#181818;stroke-width:1;"/><polygon fill="#181818" points="227.04,293.7794,219.5118,287.4291,222.2382,292.3856,217.2817,295.112,227.04,293.7794" style="stroke:#181818;stroke-width:1;"/></g><!--link Claire to UC9--><g id="link_Claire_UC9"><path d="M93.33,283.8494 C109.31,304.4794 130.31,327.2494 154,342.1094 C173.38,354.2694 191.4118,360.6784 212.7818,365.5784 " fill="none" id="Claire-to-UC9" style="stroke:#181818;stroke-width:1;"/><polygon fill="#181818" points="218.63,366.9194,210.7516,361.0091,213.7565,365.8019,208.9637,368.8068,218.63,366.9194" style="stroke:#181818;stroke-width:1;"/></g><!--link Claire to UC10--><g id="link_Claire_UC10"><path d="M97.63,236.1094 C125.05,236.1094 157.73,236.1094 191.93,236.1094 " fill="none" id="Claire-to-UC10" style="stroke:#181818;stroke-width:1;"/><polygon fill="#181818" points="197.93,236.1094,188.93,232.1094,192.93,236.1094,188.93,240.1094,197.93,236.1094" style="stroke:#181818;stroke-width:1;"/></g><!--link Gaetan to UC11--><g id="link_Gaetan_UC11"><path d="M115.25,1077.7594 C143.59,1071.7694 172.7395,1065.6093 202.7095,1059.2793 " fill="none" id="Gaetan-to-UC11" style="stroke:#181818;stroke-width:1;"/><polygon fill="#181818" points="208.58,1058.0394,198.9477,1055.9856,203.6879,1059.0726,200.6009,1063.8129,208.58,1058.0394" style="stroke:#181818;stroke-width:1;"/></g><!--link Gaetan to UC12--><g id="link_Gaetan_UC12"><path d="M115.2,1100.4894 C197.84,1114.7594 357.38,1129.0894 460,1054.1094 C478.52,1040.5794 471.53,1025.7194 490,1012.1094 C506.24,1000.1494 520.819,993.63 539.679,988.02 " fill="none" id="Gaetan-to-UC12" style="stroke:#181818;stroke-width:1;"/><polygon fill="#181818" points="545.43,986.3094,535.6631,985.0414,540.6375,987.7349,537.944,992.7093,545.43,986.3094" style="stroke:#181818;stroke-width:1;"/></g><!--link Gaetan to UC13--><g id="link_Gaetan_UC13"><path d="M107.03,1041.5394 C121.15,1028.7194 137.39,1015.7494 154,1006.1094 C170.97,996.2694 184.9945,990.286 203.5245,984.256 " fill="none" id="Gaetan-to-UC13" style="stroke:#181818;stroke-width:1;"/><polygon fill="#181818" points="209.23,982.3994,199.434,981.3807,204.4754,983.9466,201.9095,988.9881,209.23,982.3994" style="stroke:#181818;stroke-width:1;"/></g><!--link Gaetan to UC14--><g id="link_Gaetan_UC14"><path d="M115.38,1130.9394 C124.81,1136.3594 134.86,1141.0694 145,1144.1094 C279.1,1184.3094 326.34,1185.7594 460,1144.1094 C511.76,1127.9894 556.9627,1089.8047 581.5627,1066.4047 " fill="none" id="Gaetan-to-UC14" style="stroke:#181818;stroke-width:1;"/><polygon fill="#181818" points="585.91,1062.2694,576.6321,1065.5741,582.2872,1065.7154,582.1458,1071.3705,585.91,1062.2694" style="stroke:#181818;stroke-width:1;"/></g><!--link Direction to UC15--><g id="link_Direction_UC15"><path d="M88.05,852.1294 C120.5,846.0294 170.3931,836.6668 212.5131,828.7568 " fill="none" id="Direction-to-UC15" style="stroke:#181818;stroke-width:1;"/><polygon fill="#181818" points="218.41,827.6494,208.8263,825.3792,213.4959,828.5722,210.3029,833.2418,218.41,827.6494" style="stroke:#181818;stroke-width:1;"/></g><!--link Direction to UC16--><g id="link_Direction_UC16"><path d="M88.05,861.0994 C116.71,865.4094 157.6364,871.5589 197.2164,877.4989 " fill="none" id="Direction-to-UC16" style="stroke:#181818;stroke-width:1;"/><polygon fill="#181818" points="203.15,878.3894,194.8433,873.0979,198.2054,877.6473,193.656,881.0094,203.15,878.3894" style="stroke:#181818;stroke-width:1;"/></g><!--link UC1 to UC6--><g id="link_UC1_UC6"><path d="M323.74,717.1394 C339.78,709.6894 357.55,700.7094 373,691.1094 C457.43,638.7094 542.7099,564.7128 579.8599,531.2828 " fill="none" id="UC1-to-UC6" style="stroke:#181818;stroke-width:1;stroke-dasharray:7.0,7.0;"/><polygon fill="#181818" points="584.32,527.2694,574.9543,530.3162,580.6033,530.6139,580.3055,536.2629,584.32,527.2694" style="stroke:#181818;stroke-width:1;"/><text fill="#000000" font-family="sans-serif" font-size="13" lengthAdjust="spacing" textLength="55.6563" x="404" y="628.6045">&#171;include&#187;</text></g><!--link UC2 to UC7--><g id="link_UC2_UC7"><path d="M316.09,429.0994 C376.57,409.2194 486.0101,373.2433 550.1901,352.1433 " fill="none" id="UC2-to-UC7" style="stroke:#181818;stroke-width:1;stroke-dasharray:7.0,7.0;"/><polygon fill="#181818" points="555.89,350.2694,546.0909,349.2803,551.1401,351.831,548.5895,356.8801,555.89,350.2694" style="stroke:#181818;stroke-width:1;"/><text fill="#000000" font-family="sans-serif" font-size="13" lengthAdjust="spacing" textLength="55.6563" x="404" y="379.6045">&#171;include&#187;</text></g><!--link UC3 to UC6--><g id="link_UC3_UC6"><path d="M350.77,511.1094 C404.99,511.1094 472.05,511.1094 525.4,511.1094 " fill="none" id="UC3-to-UC6" style="stroke:#181818;stroke-width:1;stroke-dasharray:7.0,7.0;"/><polygon fill="#181818" points="531.4,511.1094,522.4,507.1094,526.4,511.1094,522.4,515.1094,531.4,511.1094" style="stroke:#181818;stroke-width:1;"/><text fill="#000000" font-family="sans-serif" font-size="13" lengthAdjust="spacing" textLength="55.6563" x="404" y="507.6045">&#171;include&#187;</text></g><!--link UC11 to UC12--><g id="link_UC11_UC12"><path d="M342.37,1030.1494 C402.56,1017.3894 484.6705,999.9839 541.1705,988.0039 " fill="none" id="UC11-to-UC12" style="stroke:#181818;stroke-width:1;stroke-dasharray:7.0,7.0;"/><polygon fill="#181818" points="547.04,986.7594,537.406,984.7132,542.1487,987.7965,539.0654,992.5392,547.04,986.7594" style="stroke:#181818;stroke-width:1;"/><text fill="#000000" font-family="sans-serif" font-size="13" lengthAdjust="spacing" textLength="55.6563" x="404" y="1002.6045">&#171;include&#187;</text></g><!--link UC11 to UC14--><g id="link_UC11_UC14"><path d="M366.31,1044.6694 C418.52,1044.9894 477.3801,1045.3422 525.8301,1045.6422 " fill="none" id="UC11-to-UC14" style="stroke:#181818;stroke-width:1;stroke-dasharray:7.0,7.0;"/><polygon fill="#181818" points="531.83,1045.6794,522.8549,1041.6237,526.8301,1045.6484,522.8054,1049.6236,531.83,1045.6794" style="stroke:#181818;stroke-width:1;"/><text fill="#000000" font-family="sans-serif" font-size="13" lengthAdjust="spacing" textLength="55.6563" x="404" y="1041.6045">&#171;include&#187;</text></g><!--link UC13 to GMN53--><g id="link_UC13_GMN53"><path d="M343.21,950.1094 C354.84,944.3894 365.57,936.6294 373,926.1094 C409.54,874.4094 385.38,417.9194 403,357.1094 C424.99,281.2394 433.21,257.0294 490,202.1094 C505.66,186.9694 526.07,174.8294 545.17,165.6594 " fill="none" id="UC13-GMN53" style="stroke:#181818;stroke-width:1;stroke-dasharray:7.0,7.0;"/></g><!--link UC15 to GMN56--><g id="link_UC15_GMN56"><path d="M335.63,807.6394 C350.05,802.4594 363.92,794.4594 373,782.1094 C416.3,723.2494 357.96,182.6594 403,125.1094 C424.1,98.1594 456.94,83.0794 489.91,74.7794 " fill="none" id="UC15-GMN56" style="stroke:#181818;stroke-width:1;stroke-dasharray:7.0,7.0;"/></g><!--SRC=[dLJBRXCn5DtFLrnb1KAfc3pRgggKJaA9A29AcgwwSIPkOk7O8ziJG0YfKZ-1DHiM2CIc2nQiM_L7-YLSJyRfE9DsmMOqn-Vut8TzRPZX5CQQGaJmKuKHLKiM8-IC2WFTL543jrVtbzUSnaQnc9dRgvjVGS3fXG4ZGR7PtC2KAQIP5450OYCLL5O65I0wzteW28hFnREEramR8WnzdiiiuMJ71EFyHXgLfpIU2mnD1OmwPolrCQ58EdNNnS-uxaCszeU86HPPyKkhmES08DKqjeLNEab2ELMGo5ITYqJ92SVuFnSqCnn7OL4yK5HC5OLXzoodQqMwInT4JD5iIfTCvufwKJ5AsHBtCwnTBJ4Pb_WuQdX6KWYqqSGmVK7YWgmP57N7zaWKAWsBtrFZGhQAcdTgHWJJjaHEX61YbglQHTMG8XcZACwQv9nsYvfJHHZc3Gl2k1Fi5GMHilbOapcUBgFAgSANNjf3AoCyIsfBAyBGpsoHSAOWwWrVTPoYLkg2SAt8UWzeYjck7Rr36CWiACmfNl9rYWqlnKWAdNAhUZFehpLDx-O8mZ_fxSSKje8lGP3FKhLwc5qa3zPyMFTXmuTDwsM79CSj7xPzkEl3FH_QirZDa5i8Dt1j0zStC7PgFMXkhLbUQWK1Vc5d9yiOzk7WW8cOfrDwU8XCBMVQ9QR-o1vhv_p2McdR0zVOt2YaeVc39I_o0RczlljxV_djvWzqejDnxsGV1bARAZEM-txtzVxo1qJzevFUFhnE9wD46eY6RmDy0C3QbKtRMqrx7sFAuGKqTkTbuuXm-w0mEy5upJMi1eW_4IMx-bjo9ubroOQa70SVELZ82UFqAUVwLkV-8f7uO4zmxt_wDfze33wOATPRSXx83rZEKV-nllm3]--></g></svg>