<svg xmlns="http://www.w3.org/2000/svg" xmlns:xlink="http://www.w3.org/1999/xlink" contentStyleType="text/css" height="675px" preserveAspectRatio="none" style="width:889px;height:675px;background:#FFFFFF;" version="1.1" viewBox="0 0 889 675" width="889px" zoomAndPan="magnify"><title>Cycle de Vie Incident Chantier</title><defs/><g><text fill="#000000" font-family="sans-serif" font-size="14" font-weight="bold" lengthAdjust="spacing" textLength="200.7236" x="337.5317" y="24.5332">Cycle de Vie Incident Chantier</text><ellipse cx="632" cy="54.6094" fill="#222222" rx="10" ry="10" style="stroke:#222222;stroke-width:1;"/><g id="Nouveau"><rect fill="#F1F1F1" height="50" rx="12.5" ry="12.5" style="stroke:#181818;stroke-width:0.5;" width="76.041" x="594" y="130.1094"/><line style="stroke:#181818;stroke-width:0.5;" x1="594" x2="670.041" y1="157.7188" y2="157.7188"/><text fill="#000000" font-family="sans-serif" font-size="14" lengthAdjust="spacing" textLength="56.041" x="604" y="149.6426">Nouveau</text></g><g id="EnCours"><rect fill="#F1F1F1" height="50" rx="12.5" ry="12.5" style="stroke:#181818;stroke-width:0.5;" width="74.4688" x="373" y="267.1094"/><line style="stroke:#181818;stroke-width:0.5;" x1="373" x2="447.4688" y1="294.7188" y2="294.7188"/><text fill="#000000" font-family="sans-serif" font-size="14" lengthAdjust="spacing" textLength="54.4688" x="383" y="286.6426">EnCours</text></g><g id="Annule"><rect fill="#F1F1F1" height="50" rx="12.5" ry="12.5" style="stroke:#181818;stroke-width:0.5;" width="63.5928" x="527" y="536.6094"/><line style="stroke:#181818;stroke-width:0.5;" x1="527" x2="590.5928" y1="564.2188" y2="564.2188"/><text fill="#000000" font-family="sans-serif" font-size="14" lengthAdjust="spacing" textLength="43.5928" x="537" y="556.1426">Annule</text></g><g id="Bloque"><rect fill="#F1F1F1" height="50" rx="12.5" ry="12.5" style="stroke:#181818;stroke-width:0.5;" width="63.5928" x="315" y="404.1094"/><line style="stroke:#181818;stroke-width:0.5;" x1="315" x2="378.5928" y1="431.7188" y2="431.7188"/><text fill="#000000" font-family="sans-serif" font-size="14" lengthAdjust="spacing" textLength="43.5928" x="325" y="423.6426">Bloque</text></g><g id="Resolu"><rect fill="#F1F1F1" height="50" rx="12.5" ry="12.5" style="stroke:#181818;stroke-width:0.5;" width="63.5791" x="7" y="404.1094"/><line style="stroke:#181818;stroke-width:0.5;" x1="7" x2="70.5791" y1="431.7188" y2="431.7188"/><text fill="#000000" font-family="sans-serif" font-size="14" lengthAdjust="spacing" textLength="43.5791" x="17" y="423.6426">Resolu</text></g><g id="Ferme"><rect fill="#F1F1F1" height="50" rx="12.5" ry="12.5" style="stroke:#181818;stroke-width:0.5;" width="60.4482" x="392" y="536.6094"/><line style="stroke:#181818;stroke-width:0.5;" x1="392" x2="452.4482" y1="564.2188" y2="564.2188"/><text fill="#000000" font-family="sans-serif" font-size="14" lengthAdjust="spacing" textLength="40.4482" x="402" y="556.1426">Ferme</text></g><ellipse cx="470" cy="658.6094" fill="none" rx="11" ry="11" style="stroke:#222222;stroke-width:1;"/><ellipse cx="470" cy="658.6094" fill="#222222" rx="6" ry="6" style="stroke:#222222;stroke-width:1;"/><g id="elem_GMN2"><path d="M705.5,125.6094 L705.5,151.1094 L670.3,155.1094 L705.5,159.1094 L705.5,184.6641 A0,0 0 0 0 705.5,184.6641 L862.3462,184.6641 A0,0 0 0 0 862.3462,184.6641 L862.3462,135.6094 L852.3462,125.6094 L705.5,125.6094 A0,0 0 0 0 705.5,125.6094 " fill="#FEFFDD" style="stroke:#181818;stroke-width:0.5;"/><path d="M852.3462,125.6094 L852.3462,135.6094 L862.3462,135.6094 L852.3462,125.6094 " fill="#FEFFDD" style="stroke:#181818;stroke-width:0.5;"/><text fill="#000000" font-family="sans-serif" font-size="13" lengthAdjust="spacing" textLength="128.6226" x="711.5" y="144.1045">Cree par chef chantier</text><text fill="#000000" font-family="sans-serif" font-size="13" lengthAdjust="spacing" textLength="119.9326" x="711.5" y="160.4561">via formulaire mobile</text><text fill="#000000" font-family="sans-serif" font-size="13" lengthAdjust="spacing" textLength="135.8462" x="711.5" y="176.8076">Notification auto RA/BE</text></g><g id="elem_GMN5"><path d="M482.5,262.6094 L482.5,288.1094 L447.3,292.1094 L482.5,296.1094 L482.5,321.6641 A0,0 0 0 0 482.5,321.6641 L645.8335,321.6641 A0,0 0 0 0 645.8335,321.6641 L645.8335,272.6094 L635.8335,262.6094 L482.5,262.6094 A0,0 0 0 0 482.5,262.6094 " fill="#FEFFDD" style="stroke:#181818;stroke-width:0.5;"/><path d="M635.8335,262.6094 L635.8335,272.6094 L645.8335,272.6094 L635.8335,262.6094 " fill="#FEFFDD" style="stroke:#181818;stroke-width:0.5;"/><text fill="#000000" font-family="sans-serif" font-size="13" lengthAdjust="spacing" textLength="105.5044" x="488.5" y="281.1045">RA ou BE assigne</text><text fill="#000000" font-family="sans-serif" font-size="13" lengthAdjust="spacing" textLength="142.3335" x="488.5" y="297.4561">Commentaires possibles</text><text fill="#000000" font-family="sans-serif" font-size="13" lengthAdjust="spacing" textLength="92.479" x="488.5" y="313.8076">Suivi temps reel</text></g><g id="elem_GMN8"><path d="M414,399.6094 L414,425.1094 L379.27,429.1094 L414,433.1094 L414,458.6641 A0,0 0 0 0 414,458.6641 L586.0425,458.6641 A0,0 0 0 0 586.0425,458.6641 L586.0425,409.6094 L576.0425,399.6094 L414,399.6094 A0,0 0 0 0 414,399.6094 " fill="#FEFFDD" style="stroke:#181818;stroke-width:0.5;"/><path d="M576.0425,399.6094 L576.0425,409.6094 L586.0425,409.6094 L576.0425,399.6094 " fill="#FEFFDD" style="stroke:#181818;stroke-width:0.5;"/><text fill="#000000" font-family="sans-serif" font-size="13" lengthAdjust="spacing" textLength="125.7471" x="420" y="418.1045">Attente reponse client</text><text fill="#000000" font-family="sans-serif" font-size="13" lengthAdjust="spacing" textLength="151.0425" x="420" y="434.4561">ou information manquante</text><text fill="#000000" font-family="sans-serif" font-size="13" lengthAdjust="spacing" textLength="141.2925" x="420" y="450.8076">Rappel automatique J+2</text></g><g id="elem_GMN11"><path d="M106.5,399.6094 L106.5,425.1094 L71.18,429.1094 L106.5,433.1094 L106.5,458.6641 A0,0 0 0 0 106.5,458.6641 L279.2598,458.6641 A0,0 0 0 0 279.2598,458.6641 L279.2598,409.6094 L269.2598,399.6094 L106.5,399.6094 A0,0 0 0 0 106.5,399.6094 " fill="#FEFFDD" style="stroke:#181818;stroke-width:0.5;"/><path d="M269.2598,399.6094 L269.2598,409.6094 L279.2598,409.6094 L269.2598,399.6094 " fill="#FEFFDD" style="stroke:#181818;stroke-width:0.5;"/><text fill="#000000" font-family="sans-serif" font-size="13" lengthAdjust="spacing" textLength="104.7998" x="112.5" y="418.1045">Solution proposee</text><text fill="#000000" font-family="sans-serif" font-size="13" lengthAdjust="spacing" textLength="151.7598" x="112.5" y="434.4561">Validation chef necessaire</text><text fill="#000000" font-family="sans-serif" font-size="13" lengthAdjust="spacing" textLength="91.0444" x="112.5" y="450.8076">avant fermeture</text></g><!--link *start* to Nouveau--><g id="link_*start*_Nouveau"><path d="M632,64.6994 C632,79.3694 632,102.7394 632,123.8194 " fill="none" id="*start*-to-Nouveau" style="stroke:#181818;stroke-width:1;"/><polygon fill="#181818" points="632,129.8194,636,120.8194,632,124.8194,628,120.8194,632,129.8194" style="stroke:#181818;stroke-width:1;"/></g><!--link Nouveau to EnCours--><g id="link_Nouveau_EnCours"><path d="M593.84,179.3194 C552.8,204.2694 493.1162,240.5613 452.4262,265.3113 " fill="none" id="Nouveau-to-EnCours" style="stroke:#181818;stroke-width:1;"/><polygon fill="#181818" points="447.3,268.4294,457.068,267.1698,451.5718,265.831,452.9106,260.3349,447.3,268.4294" style="stroke:#181818;stroke-width:1;"/><text fill="#000000" font-family="sans-serif" font-size="13" lengthAdjust="spacing" textLength="133.6753" x="536" y="229.1045">Prise en charge RA/BE</text></g><!--link Nouveau to Annule--><g id="link_Nouveau_Annule"><path d="M657.74,180.4194 C710.59,233.3494 821.56,362.0294 762,458.6094 C724.42,519.5394 643.9628,544.1204 596.8928,553.9704 " fill="none" id="Nouveau-to-Annule" style="stroke:#181818;stroke-width:1;"/><polygon fill="#181818" points="591.02,555.1994,600.6485,557.2711,595.914,554.1752,599.0099,549.4407,591.02,555.1994" style="stroke:#181818;stroke-width:1;"/><text fill="#000000" font-family="sans-serif" font-size="13" lengthAdjust="spacing" textLength="104.7871" x="777" y="366.1045">Doublon ou erreur</text></g><!--link EnCours to Bloque--><g id="link_EnCours_Bloque"><path d="M431.29,317.1994 C442.2,332.5994 451.41,352.7694 442,369.6094 C440.18,372.8794 411.1177,390.4607 384.2677,406.3007 " fill="none" id="EnCours-to-Bloque" style="stroke:#181818;stroke-width:1;"/><polygon fill="#181818" points="379.1,409.3494,388.8841,408.2215,383.4065,406.8088,384.8192,401.3312,379.1,409.3494" style="stroke:#181818;stroke-width:1;"/><text fill="#000000" font-family="sans-serif" font-size="13" lengthAdjust="spacing" textLength="109.1162" x="447" y="366.1045">Attente information</text></g><!--link Bloque to EnCours--><g id="link_Bloque_EnCours"><path d="M334.13,403.9594 C327.66,388.3494 322.76,367.9694 331,351.6094 C339.91,333.9294 351.8244,323.3619 367.8144,313.7019 " fill="none" id="Bloque-to-EnCours" style="stroke:#181818;stroke-width:1;"/><polygon fill="#181818" points="372.95,310.5994,363.1783,311.8295,368.6703,313.1848,367.315,318.6769,372.95,310.5994" style="stroke:#181818;stroke-width:1;"/><text fill="#000000" font-family="sans-serif" font-size="13" lengthAdjust="spacing" textLength="101.1626" x="332" y="366.1045">Information recue</text></g><!--link EnCours to Resolu--><g id="link_EnCours_Resolu"><path d="M372.78,293.3694 C288.38,294.8094 86.42,303.3394 43,351.6094 C30.46,365.5494 29.6077,381.4091 32.1877,398.1791 " fill="none" id="EnCours-to-Resolu" style="stroke:#181818;stroke-width:1;"/><polygon fill="#181818" points="33.1,404.1094,35.685,394.6058,32.3397,399.1675,27.778,395.8223,33.1,404.1094" style="stroke:#181818;stroke-width:1;"/><text fill="#000000" font-family="sans-serif" font-size="13" lengthAdjust="spacing" textLength="93.9517" x="44" y="366.1045">Solution trouvee</text></g><!--link Resolu to EnCours--><g id="link_Resolu_EnCours"><path d="M71.23,408.9694 C77.08,405.7194 83.17,402.4694 89,399.6094 C138.71,375.1794 151.71,369.8694 204,351.6094 C262.09,331.3194 325.3539,314.2837 366.9339,303.7437 " fill="none" id="Resolu-to-EnCours" style="stroke:#181818;stroke-width:1;"/><polygon fill="#181818" points="372.75,302.2694,363.0431,300.6034,367.9033,303.498,365.0088,308.3582,372.75,302.2694" style="stroke:#181818;stroke-width:1;"/><text fill="#000000" font-family="sans-serif" font-size="13" lengthAdjust="spacing" textLength="113.458" x="205" y="366.1045">Solution incomplete</text></g><!--link EnCours to Annule--><g id="link_EnCours_Annule"><path d="M447.13,313.5394 C453.03,316.4294 459.12,319.2294 465,321.6094 C508.01,339.0294 526.61,325.5494 565,351.6094 C587.51,366.8894 594.06,373.9094 603,399.6094 C619.62,447.3694 596.1668,499.6388 577.6168,531.3888 " fill="none" id="EnCours-to-Annule" style="stroke:#181818;stroke-width:1;"/><polygon fill="#181818" points="574.59,536.5694,582.5839,530.8163,577.1123,532.2522,575.6764,526.7806,574.59,536.5694" style="stroke:#181818;stroke-width:1;"/><text fill="#000000" font-family="sans-serif" font-size="13" lengthAdjust="spacing" textLength="143.8125" x="610" y="434.6045">Finalement non pertinent</text></g><!--link Bloque to Annule--><g id="link_Bloque_Annule"><path d="M379.2,449.9294 C419.16,474.5294 481.8007,513.0837 521.7407,537.6737 " fill="none" id="Bloque-to-Annule" style="stroke:#181818;stroke-width:1;"/><polygon fill="#181818" points="526.85,540.8194,521.2832,532.6947,522.5923,538.198,517.089,539.5071,526.85,540.8194" style="stroke:#181818;stroke-width:1;"/><text fill="#000000" font-family="sans-serif" font-size="13" lengthAdjust="spacing" textLength="52.0508" x="467" y="503.1045">Abandon</text></g><!--link Resolu to Ferme--><g id="link_Resolu_Ferme"><path d="M71.01,449.7294 C76.88,452.9294 83.04,456.0394 89,458.6094 C196.69,505.1094 326.5606,538.3304 385.9706,552.3604 " fill="none" id="Resolu-to-Ferme" style="stroke:#181818;stroke-width:1;"/><polygon fill="#181818" points="391.81,553.7394,383.9703,547.778,386.9439,552.5902,382.1316,555.5638,391.81,553.7394" style="stroke:#181818;stroke-width:1;"/><text fill="#000000" font-family="sans-serif" font-size="13" lengthAdjust="spacing" textLength="135.1416" x="216" y="503.1045">Validation chef chantier</text></g><!--link Ferme to *end*--><g id="link_Ferme_*end*"><path d="M434.36,587.0694 C444.47,607.0894 455.5154,628.9335 462.6154,642.9935 " fill="none" id="Ferme-to-*end*" style="stroke:#181818;stroke-width:1;"/><polygon fill="#181818" points="465.32,648.3494,464.8337,638.5125,463.0662,643.8862,457.6925,642.1187,465.32,648.3494" style="stroke:#181818;stroke-width:1;"/></g><!--link Annule to *end*--><g id="link_Annule_*end*"><path d="M536.08,587.0694 C516.51,607.9694 493.6918,632.3204 481.1118,645.7504 " fill="none" id="Annule-to-*end*" style="stroke:#181818;stroke-width:1;"/><polygon fill="#181818" points="477.01,650.1294,486.082,646.2955,480.4282,646.4802,480.2434,640.8264,477.01,650.1294" style="stroke:#181818;stroke-width:1;"/></g><!--SRC=[TP9DQnj138RlyojqRWY57dC8hBSEf8TG7CYbz32UrTg2MMao7uR- -qhPzSOsvB8VqZjw9BrJgKQ4_b_Gvu3mHWZF76X0hj0VFLV2xDoVRt_X_luHNgITq3Vdbe-Fu9PxQRd00_pEL12G8HnzFY3ikk-RxPMsOsvAUe2VqlPH6AG1venD8USwfjj4UM-cwshLLX28HycJhoHy9TnXaTXK-AeloqBDniChrOfz8lOH9vkELPimLsBzSsuXNW_q_4c5ZA7XfMmjskqz3zgNMvgnv1FcoN9lFj8m5mX776qpyqulj9-yTGZY85EAMD6vkPG9rGQtKC-_ZaMta-bmh23ZQX10dn4X-No31JYH1vkgHKyPOP8zHTJuYrGQASoz-bPbiGzv08FSefQkzUIkCnitM_2bq86jM2-JBTa81P9eV1_HjA-DJWGLfrHqenY_B3ylMa-SRq369ApNAqGomy2O5xS29i_lJQUqCpkV4iQFAInhZlsw-_4bQ_R2kZllFsNHhj5gtJh86B0KcqoJ_gH46CsXsZIo4lu3]--></g></svg>