<svg xmlns="http://www.w3.org/2000/svg" xmlns:xlink="http://www.w3.org/1999/xlink" contentStyleType="text/css" height="1920px" preserveAspectRatio="none" style="width:994px;height:1920px;background:#FFFFFF;" version="1.1" viewBox="0 0 994 1920" width="994px" zoomAndPan="magnify"><title>Processus Prise de RDV - &#195;&#8240;TAT ACTUEL (Archa&#195;&#175;que)</title><defs/><g><text fill="#000000" font-family="sans-serif" font-size="14" font-weight="bold" lengthAdjust="spacing" textLength="386.0664" x="302.715" y="34.5332">Processus Prise de RDV - &#195;&#8240;TAT ACTUEL (Archa&#195;&#175;que)</text><ellipse cx="488.9873" cy="58.6094" fill="#222222" rx="10" ry="10" style="stroke:#222222;stroke-width:1;"/><path d="M583.3555,92.9805 L583.3555,102.1563 L563.3555,106.1563 L583.3555,110.1563 L583.3555,119.332 A0,0 0 0 0 583.3555,119.332 L757.207,119.332 A0,0 0 0 0 757.207,119.332 L757.207,102.9805 L747.207,92.9805 L583.3555,92.9805 A0,0 0 0 0 583.3555,92.9805 " fill="#FEFFDD" style="stroke:#181818;stroke-width:0.5;"/><path d="M747.207,92.9805 L747.207,102.9805 L757.207,102.9805 L747.207,92.9805 " fill="#FEFFDD" style="stroke:#181818;stroke-width:0.5;"/><text fill="#000000" font-family="sans-serif" font-size="13" lengthAdjust="spacing" textLength="152.8516" x="589.3555" y="111.4756">&#240;&#376;&#8220;&#382; T&#195;&#169;l&#195;&#169;phone sonne</text><rect fill="#F1F1F1" height="35.0938" rx="12.5" ry="12.5" style="stroke:#181818;stroke-width:0.5;" width="148.7363" x="414.6191" y="88.6094"/><text fill="#000000" font-family="sans-serif" font-size="12" lengthAdjust="spacing" textLength="128.7363" x="424.6191" y="111.0664">Client appelle pour RDV</text><rect fill="#F1F1F1" height="35.0938" rx="12.5" ry="12.5" style="stroke:#181818;stroke-width:0.5;" width="114.2129" x="431.8809" y="143.7031"/><text fill="#000000" font-family="sans-serif" font-size="12" lengthAdjust="spacing" textLength="94.2129" x="441.8809" y="166.1602">Claire d&#195;&#169;croche</text><path d="M559.6719,203.168 L559.6719,212.3438 L539.6719,216.3438 L559.6719,220.3438 L559.6719,229.5195 A0,0 0 0 0 559.6719,229.5195 L708.355,229.5195 A0,0 0 0 0 708.355,229.5195 L708.355,213.168 L698.355,203.168 L559.6719,203.168 A0,0 0 0 0 559.6719,203.168 " fill="#FEFFDD" style="stroke:#181818;stroke-width:0.5;"/><path d="M698.355,203.168 L698.355,213.168 L708.355,213.168 L698.355,203.168 " fill="#FEFFDD" style="stroke:#181818;stroke-width:0.5;"/><text fill="#000000" font-family="sans-serif" font-size="13" lengthAdjust="spacing" textLength="127.6831" x="565.6719" y="221.6631">&#240;&#376;&#8221;&#180; &#226;&#65533;&#176; 30 secondes</text><rect fill="#F1F1F1" height="35.0938" rx="12.5" ry="12.5" style="stroke:#181818;stroke-width:0.5;" width="101.3691" x="438.3027" y="198.7969"/><text fill="#000000" font-family="sans-serif" font-size="12" lengthAdjust="spacing" textLength="81.3691" x="448.3027" y="221.2539">Cherche post-it</text><path d="M559.6689,258.2617 L559.6689,267.4375 L539.6689,271.4375 L559.6689,275.4375 L559.6689,284.6133 A0,0 0 0 0 559.6689,284.6133 L759.1206,284.6133 A0,0 0 0 0 759.1206,284.6133 L759.1206,268.2617 L749.1206,258.2617 L559.6689,258.2617 A0,0 0 0 0 559.6689,258.2617 " fill="#FEFFDD" style="stroke:#181818;stroke-width:0.5;"/><path d="M749.1206,258.2617 L749.1206,268.2617 L759.1206,268.2617 L749.1206,258.2617 " fill="#FEFFDD" style="stroke:#181818;stroke-width:0.5;"/><text fill="#000000" font-family="sans-serif" font-size="13" lengthAdjust="spacing" textLength="178.4517" x="565.6689" y="276.7568">&#240;&#376;&#8221;&#180; Informations incompl&#195;&#168;tes</text><rect fill="#F1F1F1" height="35.0938" rx="12.5" ry="12.5" style="stroke:#181818;stroke-width:0.5;" width="101.3633" x="438.3057" y="253.8906"/><text fill="#000000" font-family="sans-serif" font-size="12" lengthAdjust="spacing" textLength="81.3633" x="448.3057" y="276.3477">Note sur post-it</text><path d="M606.2949,305.1797 L606.2949,322.5313 L586.2949,326.5313 L606.2949,330.5313 L606.2949,347.8828 A0,0 0 0 0 606.2949,347.8828 L805.2324,347.8828 A0,0 0 0 0 805.2324,347.8828 L805.2324,315.1797 L795.2324,305.1797 L606.2949,305.1797 A0,0 0 0 0 606.2949,305.1797 " fill="#FEFFDD" style="stroke:#181818;stroke-width:0.5;"/><path d="M795.2324,305.1797 L795.2324,315.1797 L805.2324,315.1797 L795.2324,305.1797 " fill="#FEFFDD" style="stroke:#181818;stroke-width:0.5;"/><text fill="#000000" font-family="sans-serif" font-size="13" lengthAdjust="spacing" textLength="103.8223" x="612.2949" y="323.6748">&#240;&#376;&#8221;&#180; &#226;&#65533;&#176; 1 minute</text><text fill="#000000" font-family="sans-serif" font-size="13" lengthAdjust="spacing" textLength="177.9375" x="612.2949" y="340.0264">Fichier r&#195;&#169;seau X:\Planning\...</text><rect fill="#F1F1F1" height="35.0938" rx="12.5" ry="12.5" style="stroke:#181818;stroke-width:0.5;" width="194.6152" x="391.6797" y="308.9844"/><text fill="#000000" font-family="sans-serif" font-size="12" lengthAdjust="spacing" textLength="174.6152" x="401.6797" y="331.4414">Ouvre Excel "Planning Ga&#195;&#171;tan"</text><path d="M583.1094,364.0781 L583.1094,381.4297 L563.1094,385.4297 L583.1094,389.4297 L583.1094,406.7813 A0,0 0 0 0 583.1094,406.7813 L770.4624,406.7813 A0,0 0 0 0 770.4624,406.7813 L770.4624,374.0781 L760.4624,364.0781 L583.1094,364.0781 A0,0 0 0 0 583.1094,364.0781 " fill="#FEFFDD" style="stroke:#181818;stroke-width:0.5;"/><path d="M760.4624,364.0781 L760.4624,374.0781 L770.4624,374.0781 L760.4624,364.0781 " fill="#FEFFDD" style="stroke:#181818;stroke-width:0.5;"/><text fill="#000000" font-family="sans-serif" font-size="13" lengthAdjust="spacing" textLength="166.353" x="589.1094" y="382.5732">&#240;&#376;&#8221;&#180; "Dispo ?" = INCERTAIN</text><text fill="#000000" font-family="sans-serif" font-size="13" lengthAdjust="spacing" textLength="82.1514" x="589.1094" y="398.9248">&#226;&#65533;&#176; 2 minutes</text><rect fill="#F1F1F1" height="35.0938" rx="12.5" ry="12.5" style="stroke:#181818;stroke-width:0.5;" width="148.2441" x="414.8652" y="367.8828"/><text fill="#000000" font-family="sans-serif" font-size="12" lengthAdjust="spacing" textLength="128.2441" x="424.8652" y="390.3398">Regarde disponibilit&#195;&#169;s</text><polygon fill="#F1F1F1" points="449.8535,426.7813,528.1211,426.7813,540.1211,438.7813,528.1211,450.7813,449.8535,450.7813,437.8535,438.7813,449.8535,426.7813" style="stroke:#181818;stroke-width:0.5;"/><text fill="#000000" font-family="sans-serif" font-size="11" lengthAdjust="spacing" textLength="78.2676" x="449.8535" y="443.2822">S&#195;&#187;r &#195;&#160; 100% ?</text><text fill="#000000" font-family="sans-serif" font-size="11" lengthAdjust="spacing" textLength="52.8677" x="384.9858" y="436.3643">&#226;&#65533;&#338; NON</text><text fill="#000000" font-family="sans-serif" font-size="11" lengthAdjust="spacing" textLength="80.792" x="540.1211" y="436.3643">&#226;&#339;&#8230; OUI - Rare</text><path d="M331.9553,460.7813 L331.9553,494.4844 L311.9553,498.4844 L331.9553,502.4844 L331.9553,536.1875 A0,0 0 0 0 331.9553,536.1875 L487.9827,536.1875 A0,0 0 0 0 487.9827,536.1875 L487.9827,470.7813 L477.9827,460.7813 L331.9553,460.7813 A0,0 0 0 0 331.9553,460.7813 " fill="#FEFFDD" style="stroke:#181818;stroke-width:0.5;"/><path d="M477.9827,460.7813 L477.9827,470.7813 L487.9827,470.7813 L477.9827,460.7813 " fill="#FEFFDD" style="stroke:#181818;stroke-width:0.5;"/><text fill="#000000" font-family="sans-serif" font-size="13" lengthAdjust="spacing" textLength="135.0273" x="337.9553" y="479.2764">&#240;&#376;&#732;&#172; "Je dois confirmer</text><text fill="#000000" font-family="sans-serif" font-size="13" lengthAdjust="spacing" textLength="118.79" x="337.9553" y="495.6279">avec le technicien..."</text><text fill="#000000" font-family="sans-serif" font-size="13" lengthAdjust="spacing" textLength="82.1514" x="337.9553" y="511.9795">&#226;&#65533;&#176; 5 minutes</text><text fill="#000000" font-family="sans-serif" font-size="13" lengthAdjust="spacing" textLength="90.4795" x="337.9553" y="528.3311">(client frustr&#195;&#169;)</text><rect fill="#F1F1F1" height="50.1875" rx="12.5" ry="12.5" style="stroke:#181818;stroke-width:0.5;" width="121.5664" x="190.3889" y="473.3906"/><text fill="#000000" font-family="sans-serif" font-size="12" lengthAdjust="spacing" textLength="101.5664" x="200.3889" y="495.8477">Propose cr&#195;&#169;neau</text><text fill="#000000" font-family="sans-serif" font-size="12" lengthAdjust="spacing" textLength="63.8027" x="200.3889" y="510.9414">(PAS S&#195;&#8250;R)</text><path d="M326.7844,568.1055 L326.7844,577.2813 L306.7844,581.2813 L326.7844,585.2813 L326.7844,594.457 A0,0 0 0 0 326.7844,594.457 L451.6067,594.457 A0,0 0 0 0 451.6067,594.457 L451.6067,578.1055 L441.6067,568.1055 L326.7844,568.1055 A0,0 0 0 0 326.7844,568.1055 " fill="#FEFFDD" style="stroke:#181818;stroke-width:0.5;"/><path d="M441.6067,568.1055 L441.6067,578.1055 L451.6067,578.1055 L441.6067,568.1055 " fill="#FEFFDD" style="stroke:#181818;stroke-width:0.5;"/><text fill="#000000" font-family="sans-serif" font-size="13" lengthAdjust="spacing" textLength="103.8223" x="332.7844" y="586.6006">&#240;&#376;&#8221;&#180; &#226;&#65533;&#176; 1 minute</text><rect fill="#F1F1F1" height="50.1875" rx="12.5" ry="12.5" style="stroke:#181818;stroke-width:0.5;" width="111.2246" x="195.5598" y="556.1875"/><text fill="#000000" font-family="sans-serif" font-size="12" lengthAdjust="spacing" textLength="81.3633" x="205.5598" y="578.6445">Note sur post-it</text><text fill="#000000" font-family="sans-serif" font-size="12" lengthAdjust="spacing" textLength="91.2246" x="205.5598" y="593.7383">"Mail Ga&#195;&#171;tan..."</text><path d="M340.5393,630.7461 L340.5393,639.9219 L320.5393,643.9219 L340.5393,647.9219 L340.5393,657.0977 A0,0 0 0 0 340.5393,657.0977 L471.8616,657.0977 A0,0 0 0 0 471.8616,657.0977 L471.8616,640.7461 L461.8616,630.7461 L340.5393,630.7461 A0,0 0 0 0 340.5393,630.7461 " fill="#FEFFDD" style="stroke:#181818;stroke-width:0.5;"/><path d="M461.8616,630.7461 L461.8616,640.7461 L471.8616,640.7461 L461.8616,630.7461 " fill="#FEFFDD" style="stroke:#181818;stroke-width:0.5;"/><text fill="#000000" font-family="sans-serif" font-size="13" lengthAdjust="spacing" textLength="110.3223" x="346.5393" y="649.2412">&#240;&#376;&#8221;&#180; &#226;&#65533;&#176; 3 minutes</text><rect fill="#F1F1F1" height="35.0938" rx="12.5" ry="12.5" style="stroke:#181818;stroke-width:0.5;" width="138.7344" x="181.8049" y="626.375"/><text fill="#000000" font-family="sans-serif" font-size="12" lengthAdjust="spacing" textLength="118.7344" x="191.8049" y="648.832">Envoie MAIL Ga&#195;&#171;tan</text><path d="M354.5403,693.3867 L354.5403,702.5625 L334.5403,706.5625 L354.5403,710.5625 L354.5403,719.7383 A0,0 0 0 0 354.5403,719.7383 L610.3591,719.7383 A0,0 0 0 0 610.3591,719.7383 L610.3591,703.3867 L600.3591,693.3867 L354.5403,693.3867 A0,0 0 0 0 354.5403,693.3867 " fill="#FEFFDD" style="stroke:#181818;stroke-width:0.5;"/><path d="M600.3591,693.3867 L600.3591,703.3867 L610.3591,703.3867 L600.3591,693.3867 " fill="#FEFFDD" style="stroke:#181818;stroke-width:0.5;"/><text fill="#000000" font-family="sans-serif" font-size="13" lengthAdjust="spacing" textLength="234.8188" x="360.5403" y="711.8818">&#240;&#376;&#8221;&#180; Communication asynchrone LENTE</text><rect fill="#F1F1F1" height="50.1875" rx="12.5" ry="12.5" style="stroke:#181818;stroke-width:0.5;" width="166.7363" x="167.804" y="681.4688"/><text fill="#000000" font-family="sans-serif" font-size="12" lengthAdjust="spacing" textLength="118.0195" x="177.804" y="703.9258">ATTENTE 7 HEURES</text><text fill="#000000" font-family="sans-serif" font-size="12" lengthAdjust="spacing" textLength="146.7363" x="177.804" y="719.0195">(Ga&#195;&#171;tan sur interventions)</text><polygon fill="#F1F1F1" points="210.1987,751.6563,292.1455,751.6563,304.1455,763.6563,292.1455,775.6563,210.1987,775.6563,198.1987,763.6563,210.1987,751.6563" style="stroke:#181818;stroke-width:0.5;"/><text fill="#000000" font-family="sans-serif" font-size="11" lengthAdjust="spacing" textLength="81.9468" x="210.1987" y="768.1572">Ga&#195;&#171;tan dispo ?</text><text fill="#000000" font-family="sans-serif" font-size="11" lengthAdjust="spacing" textLength="52.8677" x="145.3311" y="761.2393">&#226;&#65533;&#338; NON</text><text fill="#000000" font-family="sans-serif" font-size="11" lengthAdjust="spacing" textLength="47.1743" x="304.1455" y="761.2393">&#226;&#339;&#8230; OUI</text><rect fill="#F1F1F1" height="50.1875" rx="12.5" ry="12.5" style="stroke:#181818;stroke-width:0.5;" width="164.252" x="11" y="785.6563"/><text fill="#000000" font-family="sans-serif" font-size="12" lengthAdjust="spacing" textLength="98.2383" x="21" y="808.1133">Ga&#195;&#171;tan r&#195;&#169;pond</text><text fill="#000000" font-family="sans-serif" font-size="12" lengthAdjust="spacing" textLength="144.252" x="21" y="823.207">"D&#195;&#169;sol&#195;&#169; pris, je peux..."</text><path d="M188.2588,859.5859 L188.2588,876.9375 L168.2588,880.9375 L188.2588,884.9375 L188.2588,902.2891 A0,0 0 0 0 188.2588,902.2891 L330.8608,902.2891 A0,0 0 0 0 330.8608,902.2891 L330.8608,869.5859 L320.8608,859.5859 L188.2588,859.5859 A0,0 0 0 0 188.2588,859.5859 " fill="#FEFFDD" style="stroke:#181818;stroke-width:0.5;"/><path d="M320.8608,859.5859 L320.8608,869.5859 L330.8608,869.5859 L320.8608,859.5859 " fill="#FEFFDD" style="stroke:#181818;stroke-width:0.5;"/><text fill="#000000" font-family="sans-serif" font-size="13" lengthAdjust="spacing" textLength="110.3223" x="194.2588" y="878.0811">&#240;&#376;&#8221;&#180; &#226;&#65533;&#176; 2 minutes</text><text fill="#000000" font-family="sans-serif" font-size="13" lengthAdjust="spacing" textLength="121.6021" x="194.2588" y="894.4326">Souvent r&#195;&#169;pondeur</text><rect fill="#F1F1F1" height="50.1875" rx="12.5" ry="12.5" style="stroke:#181818;stroke-width:0.5;" width="150.2656" x="17.9932" y="855.8438"/><text fill="#000000" font-family="sans-serif" font-size="12" lengthAdjust="spacing" textLength="71.3789" x="27.9932" y="878.3008">Appelle client</text><text fill="#000000" font-family="sans-serif" font-size="12" lengthAdjust="spacing" textLength="130.2656" x="27.9932" y="893.3945">pour nouveau cr&#195;&#169;neau</text><path d="M149.8008,974.9492 L149.8008,992.3008 L129.8008,996.3008 L149.8008,1000.3008 L149.8008,1017.6523 A0,0 0 0 0 149.8008,1017.6523 L281.123,1017.6523 A0,0 0 0 0 281.123,1017.6523 L281.123,984.9492 L271.123,974.9492 L149.8008,974.9492 A0,0 0 0 0 149.8008,974.9492 " fill="#FEFFDD" style="stroke:#181818;stroke-width:0.5;"/><path d="M271.123,974.9492 L271.123,984.9492 L281.123,984.9492 L271.123,974.9492 " fill="#FEFFDD" style="stroke:#181818;stroke-width:0.5;"/><text fill="#000000" font-family="sans-serif" font-size="13" lengthAdjust="spacing" textLength="110.3223" x="155.8008" y="993.4443">&#240;&#376;&#8221;&#180; &#226;&#65533;&#176; 5 minutes</text><text fill="#000000" font-family="sans-serif" font-size="13" lengthAdjust="spacing" textLength="93.9453" x="155.8008" y="1009.7959">Pas de template</text><rect fill="#F1F1F1" height="35.0938" rx="12.5" ry="12.5" style="stroke:#181818;stroke-width:0.5;" width="73.3496" x="56.4512" y="978.7539"/><text fill="#000000" font-family="sans-serif" font-size="12" lengthAdjust="spacing" textLength="53.3496" x="66.4512" y="1001.2109">Mail client</text><rect fill="#F1F1F1" height="50.1875" rx="12.5" ry="12.5" style="stroke:#181818;stroke-width:0.5;" width="144.6934" x="20.7793" y="1037.6523"/><text fill="#000000" font-family="sans-serif" font-size="12" lengthAdjust="spacing" textLength="124.6934" x="30.7793" y="1060.1094">ATTENTE 15 HEURES</text><text fill="#000000" font-family="sans-serif" font-size="12" lengthAdjust="spacing" textLength="70.3594" x="30.7793" y="1075.2031">(nuit + matin)</text><rect fill="#F1F1F1" height="35.0938" rx="12.5" ry="12.5" style="stroke:#181818;stroke-width:0.5;" width="130.7422" x="27.7549" y="1107.8398"/><text fill="#000000" font-family="sans-serif" font-size="12" lengthAdjust="spacing" textLength="110.7422" x="37.7549" y="1130.2969">Client r&#195;&#169;pond "OK"</text><polygon fill="#F1F1F1" points="45.6616,926.0313,140.5903,926.0313,152.5903,938.0313,140.5903,950.0313,45.6616,950.0313,33.6616,938.0313,45.6616,926.0313" style="stroke:#181818;stroke-width:0.5;"/><text fill="#000000" font-family="sans-serif" font-size="11" lengthAdjust="spacing" textLength="52.8677" x="97.126" y="961.4502">&#226;&#65533;&#338; NON</text><text fill="#000000" font-family="sans-serif" font-size="11" lengthAdjust="spacing" textLength="94.9287" x="45.6616" y="942.5322">Client d&#195;&#169;croche ?</text><polygon fill="#F1F1F1" points="93.126,1162.9336,105.126,1174.9336,93.126,1186.9336,81.126,1174.9336,93.126,1162.9336" style="stroke:#181818;stroke-width:0.5;"/><rect fill="#F1F1F1" height="35.0938" rx="12.5" ry="12.5" style="stroke:#181818;stroke-width:0.5;" width="116.7148" x="350.8608" y="785.6563"/><text fill="#000000" font-family="sans-serif" font-size="12" lengthAdjust="spacing" textLength="96.7148" x="360.8608" y="808.1133">Ga&#195;&#171;tan confirme</text><polygon fill="#F1F1F1" points="251.1721,1192.9336,263.1721,1204.9336,251.1721,1216.9336,239.1721,1204.9336,251.1721,1192.9336" style="stroke:#181818;stroke-width:0.5;"/><rect fill="#F1F1F1" height="50.1875" rx="12.5" ry="12.5" style="stroke:#181818;stroke-width:0.5;" width="117.3828" x="192.4807" y="1236.9336"/><text fill="#000000" font-family="sans-serif" font-size="12" lengthAdjust="spacing" textLength="71.3789" x="202.4807" y="1259.3906">Appelle client</text><text fill="#000000" font-family="sans-serif" font-size="12" lengthAdjust="spacing" textLength="97.3828" x="202.4807" y="1274.4844">confirmation finale</text><path d="M307.8469,1360.4102 L307.8469,1369.5859 L287.8469,1373.5859 L307.8469,1377.5859 L307.8469,1386.7617 A0,0 0 0 0 307.8469,1386.7617 L439.1692,1386.7617 A0,0 0 0 0 439.1692,1386.7617 L439.1692,1370.4102 L429.1692,1360.4102 L307.8469,1360.4102 A0,0 0 0 0 307.8469,1360.4102 " fill="#FEFFDD" style="stroke:#181818;stroke-width:0.5;"/><path d="M429.1692,1360.4102 L429.1692,1370.4102 L439.1692,1370.4102 L429.1692,1360.4102 " fill="#FEFFDD" style="stroke:#181818;stroke-width:0.5;"/><text fill="#000000" font-family="sans-serif" font-size="13" lengthAdjust="spacing" textLength="110.3223" x="313.8469" y="1378.9053">&#240;&#376;&#8221;&#180; &#226;&#65533;&#176; 5 minutes</text><rect fill="#F1F1F1" height="35.0938" rx="12.5" ry="12.5" style="stroke:#181818;stroke-width:0.5;" width="73.3496" x="214.4973" y="1356.0391"/><text fill="#000000" font-family="sans-serif" font-size="12" lengthAdjust="spacing" textLength="53.3496" x="224.4973" y="1378.4961">Mail client</text><rect fill="#F1F1F1" height="35.0938" rx="12.5" ry="12.5" style="stroke:#181818;stroke-width:0.5;" width="156.8867" x="172.7288" y="1426.1328"/><text fill="#000000" font-family="sans-serif" font-size="12" lengthAdjust="spacing" textLength="136.8867" x="182.7288" y="1448.5898">ATTENTE client r&#195;&#169;pond</text><polygon fill="#F1F1F1" points="203.7078,1307.1211,298.6365,1307.1211,310.6365,1319.1211,298.6365,1331.1211,203.7078,1331.1211,191.7078,1319.1211,203.7078,1307.1211" style="stroke:#181818;stroke-width:0.5;"/><text fill="#000000" font-family="sans-serif" font-size="11" lengthAdjust="spacing" textLength="52.8677" x="255.1721" y="1342.54">&#226;&#65533;&#338; NON</text><text fill="#000000" font-family="sans-serif" font-size="11" lengthAdjust="spacing" textLength="94.9287" x="203.7078" y="1323.6221">Client d&#195;&#169;croche ?</text><polygon fill="#F1F1F1" points="251.1721,1481.2266,263.1721,1493.2266,251.1721,1505.2266,239.1721,1493.2266,251.1721,1481.2266" style="stroke:#181818;stroke-width:0.5;"/><path d="M843.2458,465.1523 L843.2458,474.3281 L823.2458,478.3281 L843.2458,482.3281 L843.2458,491.5039 A0,0 0 0 0 843.2458,491.5039 L982.4963,491.5039 A0,0 0 0 0 982.4963,491.5039 L982.4963,475.1523 L972.4963,465.1523 L843.2458,465.1523 A0,0 0 0 0 843.2458,465.1523 " fill="#FEFFDD" style="stroke:#181818;stroke-width:0.5;"/><path d="M972.4963,465.1523 L972.4963,475.1523 L982.4963,475.1523 L972.4963,465.1523 " fill="#FEFFDD" style="stroke:#181818;stroke-width:0.5;"/><text fill="#000000" font-family="sans-serif" font-size="13" lengthAdjust="spacing" textLength="118.2505" x="849.2458" y="483.6475">&#226;&#339;&#8230; RARE (&lt; 10%)</text><rect fill="#F1F1F1" height="35.0938" rx="12.5" ry="12.5" style="stroke:#181818;stroke-width:0.5;" width="192.8867" x="630.3591" y="460.7813"/><text fill="#000000" font-family="sans-serif" font-size="12" lengthAdjust="spacing" textLength="172.8867" x="640.3591" y="483.2383">Confirme RDV imm&#195;&#169;diatement</text><polygon fill="#F1F1F1" points="488.9873,1511.2266,500.9873,1523.2266,488.9873,1535.2266,476.9873,1523.2266,488.9873,1511.2266" style="stroke:#181818;stroke-width:0.5;"/><path d="M576.0225,1559.5977 L576.0225,1568.7734 L556.0225,1572.7734 L576.0225,1576.7734 L576.0225,1585.9492 A0,0 0 0 0 576.0225,1585.9492 L707.3447,1585.9492 A0,0 0 0 0 707.3447,1585.9492 L707.3447,1569.5977 L697.3447,1559.5977 L576.0225,1559.5977 A0,0 0 0 0 576.0225,1559.5977 " fill="#FEFFDD" style="stroke:#181818;stroke-width:0.5;"/><path d="M697.3447,1559.5977 L697.3447,1569.5977 L707.3447,1569.5977 L697.3447,1559.5977 " fill="#FEFFDD" style="stroke:#181818;stroke-width:0.5;"/><text fill="#000000" font-family="sans-serif" font-size="13" lengthAdjust="spacing" textLength="110.3223" x="582.0225" y="1578.0928">&#240;&#376;&#8221;&#180; &#226;&#65533;&#176; 2 minutes</text><rect fill="#F1F1F1" height="35.0938" rx="12.5" ry="12.5" style="stroke:#181818;stroke-width:0.5;" width="134.0703" x="421.9521" y="1555.2266"/><text fill="#000000" font-family="sans-serif" font-size="12" lengthAdjust="spacing" textLength="114.0703" x="431.9521" y="1577.6836">Saisie Excel planning</text><path d="M573.667,1622.2383 L573.667,1631.4141 L553.667,1635.4141 L573.667,1639.4141 L573.667,1648.5898 A0,0 0 0 0 573.667,1648.5898 L704.9893,1648.5898 A0,0 0 0 0 704.9893,1648.5898 L704.9893,1632.2383 L694.9893,1622.2383 L573.667,1622.2383 A0,0 0 0 0 573.667,1622.2383 " fill="#FEFFDD" style="stroke:#181818;stroke-width:0.5;"/><path d="M694.9893,1622.2383 L694.9893,1632.2383 L704.9893,1632.2383 L694.9893,1622.2383 " fill="#FEFFDD" style="stroke:#181818;stroke-width:0.5;"/><text fill="#000000" font-family="sans-serif" font-size="13" lengthAdjust="spacing" textLength="110.3223" x="579.667" y="1640.7334">&#240;&#376;&#8221;&#180; &#226;&#65533;&#176; 2 minutes</text><rect fill="#F1F1F1" height="50.1875" rx="12.5" ry="12.5" style="stroke:#181818;stroke-width:0.5;" width="129.3594" x="424.3076" y="1610.3203"/><text fill="#000000" font-family="sans-serif" font-size="12" lengthAdjust="spacing" textLength="77.373" x="434.3076" y="1632.7773">Saisie Outlook</text><text fill="#000000" font-family="sans-serif" font-size="12" lengthAdjust="spacing" textLength="109.3594" x="434.3076" y="1647.8711">(DOUBLE SAISIE !!)</text><path d="M580.0098,1676.7031 L580.0098,1694.0547 L560.0098,1698.0547 L580.0098,1702.0547 L580.0098,1719.4063 A0,0 0 0 0 580.0098,1719.4063 L711.332,1719.4063 A0,0 0 0 0 711.332,1719.4063 L711.332,1686.7031 L701.332,1676.7031 L580.0098,1676.7031 A0,0 0 0 0 580.0098,1676.7031 " fill="#FEFFDD" style="stroke:#181818;stroke-width:0.5;"/><path d="M701.332,1676.7031 L701.332,1686.7031 L711.332,1686.7031 L701.332,1676.7031 " fill="#FEFFDD" style="stroke:#181818;stroke-width:0.5;"/><text fill="#000000" font-family="sans-serif" font-size="13" lengthAdjust="spacing" textLength="110.3223" x="586.0098" y="1695.1982">&#240;&#376;&#8221;&#180; &#226;&#65533;&#176; 5 minutes</text><text fill="#000000" font-family="sans-serif" font-size="13" lengthAdjust="spacing" textLength="93.9453" x="586.0098" y="1711.5498">Pas de template</text><rect fill="#F1F1F1" height="35.0938" rx="12.5" ry="12.5" style="stroke:#181818;stroke-width:0.5;" width="142.0449" x="417.9648" y="1680.5078"/><text fill="#000000" font-family="sans-serif" font-size="12" lengthAdjust="spacing" textLength="122.0449" x="427.9648" y="1702.9648">Mail confirmation client</text><path d="M585.6904,1743.7773 L585.6904,1752.9531 L565.6904,1756.9531 L585.6904,1760.9531 L585.6904,1770.1289 A0,0 0 0 0 585.6904,1770.1289 L717.0127,1770.1289 A0,0 0 0 0 717.0127,1770.1289 L717.0127,1753.7773 L707.0127,1743.7773 L585.6904,1743.7773 A0,0 0 0 0 585.6904,1743.7773 " fill="#FEFFDD" style="stroke:#181818;stroke-width:0.5;"/><path d="M707.0127,1743.7773 L707.0127,1753.7773 L717.0127,1753.7773 L707.0127,1743.7773 " fill="#FEFFDD" style="stroke:#181818;stroke-width:0.5;"/><text fill="#000000" font-family="sans-serif" font-size="13" lengthAdjust="spacing" textLength="110.3223" x="591.6904" y="1762.2725">&#240;&#376;&#8221;&#180; &#226;&#65533;&#176; 3 minutes</text><rect fill="#F1F1F1" height="35.0938" rx="12.5" ry="12.5" style="stroke:#181818;stroke-width:0.5;" width="153.4063" x="412.2842" y="1739.4063"/><text fill="#000000" font-family="sans-serif" font-size="12" lengthAdjust="spacing" textLength="133.4063" x="422.2842" y="1761.8633">Mail notification Ga&#195;&#171;tan</text><path d="M519.9873,1784.5 L519.9873,1842.7305 L499.9873,1846.7305 L519.9873,1850.7305 L519.9873,1908.9609 A0,0 0 0 0 519.9873,1908.9609 L746.4355,1908.9609 A0,0 0 0 0 746.4355,1908.9609 L746.4355,1794.5 L736.4355,1784.5 L519.9873,1784.5 A0,0 0 0 0 519.9873,1784.5 " fill="#FEFFDD" style="stroke:#181818;stroke-width:0.5;"/><path d="M736.4355,1784.5 L736.4355,1794.5 L746.4355,1794.5 L736.4355,1784.5 " fill="#FEFFDD" style="stroke:#181818;stroke-width:0.5;"/><text fill="#000000" font-family="sans-serif" font-size="13" font-weight="bold" lengthAdjust="spacing" textLength="123.5127" x="525.9873" y="1802.9951">TOTAL: 48 HEURES</text><text fill="#000000" font-family="sans-serif" font-size="13" font-weight="bold" lengthAdjust="spacing" textLength="86.9375" x="525.9873" y="1819.3467">14 &#195;&#8240;TAPES</text><text fill="#000000" font-family="sans-serif" font-size="13" lengthAdjust="spacing" textLength="114.8989" x="616.5366" y="1819.3467">(dont 10 manuelles)</text><text fill="#000000" font-family="sans-serif" font-size="13" font-weight="bold" lengthAdjust="spacing" textLength="153.1689" x="525.9873" y="1835.6982">40 min temps actif Claire</text><text fill="#000000" font-family="sans-serif" font-size="13" font-weight="bold" lengthAdjust="spacing" textLength="45.5063" x="525.9873" y="1852.0498">3 outils</text><text fill="#000000" font-family="sans-serif" font-size="13" lengthAdjust="spacing" textLength="123.5317" x="575.1055" y="1852.0498">(Excel, Outlook, mail)</text><text fill="#000000" font-family="sans-serif" font-size="13" font-weight="bold" lengthAdjust="spacing" textLength="54.2153" x="525.9873" y="1868.4014">3 saisies</text><text fill="#000000" font-family="sans-serif" font-size="13" lengthAdjust="spacing" textLength="135.0972" x="583.8145" y="1868.4014">(post-it, Excel, Outlook)</text><text fill="#000000" font-family="sans-serif" font-size="13" lengthAdjust="spacing" textLength="3.6118" x="525.9873" y="1884.7529">&#160;</text><text fill="#000000" font-family="sans-serif" font-size="13" lengthAdjust="spacing" textLength="23.9878" x="525.9873" y="1901.1045">&#240;&#376;&#8217;&#176;</text><text fill="#000000" font-family="sans-serif" font-size="13" font-weight="bold" lengthAdjust="spacing" textLength="121.1831" x="553.5869" y="1901.1045">CO&#195;&#8250;T: 110K&#226;&#8218;&#172;/AN</text><ellipse cx="488.9873" cy="1846.7305" fill="none" rx="11" ry="11" style="stroke:#222222;stroke-width:1;"/><ellipse cx="488.9873" cy="1846.7305" fill="#222222" rx="6" ry="6" style="stroke:#222222;stroke-width:1;"/><line style="stroke:#181818;stroke-width:1;" x1="488.9873" x2="488.9873" y1="68.6094" y2="88.6094"/><polygon fill="#181818" points="484.9873,78.6094,488.9873,88.6094,492.9873,78.6094,488.9873,82.6094" style="stroke:#181818;stroke-width:1;"/><line style="stroke:#181818;stroke-width:1;" x1="488.9873" x2="488.9873" y1="123.7031" y2="143.7031"/><polygon fill="#181818" points="484.9873,133.7031,488.9873,143.7031,492.9873,133.7031,488.9873,137.7031" style="stroke:#181818;stroke-width:1;"/><line style="stroke:#181818;stroke-width:1;" x1="488.9873" x2="488.9873" y1="178.7969" y2="198.7969"/><polygon fill="#181818" points="484.9873,188.7969,488.9873,198.7969,492.9873,188.7969,488.9873,192.7969" style="stroke:#181818;stroke-width:1;"/><line style="stroke:#181818;stroke-width:1;" x1="488.9873" x2="488.9873" y1="233.8906" y2="253.8906"/><polygon fill="#181818" points="484.9873,243.8906,488.9873,253.8906,492.9873,243.8906,488.9873,247.8906" style="stroke:#181818;stroke-width:1;"/><line style="stroke:#181818;stroke-width:1;" x1="488.9873" x2="488.9873" y1="288.9844" y2="308.9844"/><polygon fill="#181818" points="484.9873,298.9844,488.9873,308.9844,492.9873,298.9844,488.9873,302.9844" style="stroke:#181818;stroke-width:1;"/><line style="stroke:#181818;stroke-width:1;" x1="488.9873" x2="488.9873" y1="344.0781" y2="367.8828"/><polygon fill="#181818" points="484.9873,357.8828,488.9873,367.8828,492.9873,357.8828,488.9873,361.8828" style="stroke:#181818;stroke-width:1;"/><line style="stroke:#181818;stroke-width:1;" x1="251.1721" x2="251.1721" y1="523.5781" y2="556.1875"/><polygon fill="#181818" points="247.1721,546.1875,251.1721,556.1875,255.1721,546.1875,251.1721,550.1875" style="stroke:#181818;stroke-width:1;"/><line style="stroke:#181818;stroke-width:1;" x1="251.1721" x2="251.1721" y1="606.375" y2="626.375"/><polygon fill="#181818" points="247.1721,616.375,251.1721,626.375,255.1721,616.375,251.1721,620.375" style="stroke:#181818;stroke-width:1;"/><line style="stroke:#181818;stroke-width:1;" x1="251.1721" x2="251.1721" y1="661.4688" y2="681.4688"/><polygon fill="#181818" points="247.1721,671.4688,251.1721,681.4688,255.1721,671.4688,251.1721,675.4688" style="stroke:#181818;stroke-width:1;"/><line style="stroke:#181818;stroke-width:1;" x1="93.126" x2="93.126" y1="835.8438" y2="855.8438"/><polygon fill="#181818" points="89.126,845.8438,93.126,855.8438,97.126,845.8438,93.126,849.8438" style="stroke:#181818;stroke-width:1;"/><line style="stroke:#181818;stroke-width:1;" x1="93.126" x2="93.126" y1="1013.8477" y2="1037.6523"/><polygon fill="#181818" points="89.126,1027.6523,93.126,1037.6523,97.126,1027.6523,93.126,1031.6523" style="stroke:#181818;stroke-width:1;"/><line style="stroke:#181818;stroke-width:1;" x1="93.126" x2="93.126" y1="1087.8398" y2="1107.8398"/><polygon fill="#181818" points="89.126,1097.8398,93.126,1107.8398,97.126,1097.8398,93.126,1101.8398" style="stroke:#181818;stroke-width:1;"/><line style="stroke:#181818;stroke-width:1;" x1="93.126" x2="93.126" y1="950.0313" y2="978.7539"/><polygon fill="#181818" points="89.126,968.7539,93.126,978.7539,97.126,968.7539,93.126,972.7539" style="stroke:#181818;stroke-width:1;"/><line style="stroke:#181818;stroke-width:1;" x1="152.5903" x2="291.123" y1="938.0313" y2="938.0313"/><polygon fill="#181818" points="287.123,1048.9414,291.123,1058.9414,295.123,1048.9414,291.123,1052.9414" style="stroke:#181818;stroke-width:1;"/><line style="stroke:#181818;stroke-width:1;" x1="291.123" x2="291.123" y1="938.0313" y2="1174.9336"/><line style="stroke:#181818;stroke-width:1;" x1="291.123" x2="105.126" y1="1174.9336" y2="1174.9336"/><polygon fill="#181818" points="115.126,1170.9336,105.126,1174.9336,115.126,1178.9336,111.126,1174.9336" style="stroke:#181818;stroke-width:1;"/><line style="stroke:#181818;stroke-width:1;" x1="93.126" x2="93.126" y1="1142.9336" y2="1162.9336"/><polygon fill="#181818" points="89.126,1152.9336,93.126,1162.9336,97.126,1152.9336,93.126,1156.9336" style="stroke:#181818;stroke-width:1;"/><line style="stroke:#181818;stroke-width:1;" x1="93.126" x2="93.126" y1="906.0313" y2="926.0313"/><polygon fill="#181818" points="89.126,916.0313,93.126,926.0313,97.126,916.0313,93.126,920.0313" style="stroke:#181818;stroke-width:1;"/><line style="stroke:#181818;stroke-width:1;" x1="198.1987" x2="93.126" y1="763.6563" y2="763.6563"/><line style="stroke:#181818;stroke-width:1;" x1="93.126" x2="93.126" y1="763.6563" y2="785.6563"/><polygon fill="#181818" points="89.126,775.6563,93.126,785.6563,97.126,775.6563,93.126,779.6563" style="stroke:#181818;stroke-width:1;"/><line style="stroke:#181818;stroke-width:1;" x1="304.1455" x2="409.2183" y1="763.6563" y2="763.6563"/><line style="stroke:#181818;stroke-width:1;" x1="409.2183" x2="409.2183" y1="763.6563" y2="785.6563"/><polygon fill="#181818" points="405.2183,775.6563,409.2183,785.6563,413.2183,775.6563,409.2183,779.6563" style="stroke:#181818;stroke-width:1;"/><line style="stroke:#181818;stroke-width:1;" x1="93.126" x2="93.126" y1="1186.9336" y2="1204.9336"/><line style="stroke:#181818;stroke-width:1;" x1="93.126" x2="239.1721" y1="1204.9336" y2="1204.9336"/><polygon fill="#181818" points="229.1721,1200.9336,239.1721,1204.9336,229.1721,1208.9336,233.1721,1204.9336" style="stroke:#181818;stroke-width:1;"/><line style="stroke:#181818;stroke-width:1;" x1="409.2183" x2="409.2183" y1="820.75" y2="1204.9336"/><line style="stroke:#181818;stroke-width:1;" x1="409.2183" x2="263.1721" y1="1204.9336" y2="1204.9336"/><polygon fill="#181818" points="273.1721,1200.9336,263.1721,1204.9336,273.1721,1208.9336,269.1721,1204.9336" style="stroke:#181818;stroke-width:1;"/><line style="stroke:#181818;stroke-width:1;" x1="251.1721" x2="251.1721" y1="731.6563" y2="751.6563"/><polygon fill="#181818" points="247.1721,741.6563,251.1721,751.6563,255.1721,741.6563,251.1721,745.6563" style="stroke:#181818;stroke-width:1;"/><line style="stroke:#181818;stroke-width:1;" x1="251.1721" x2="251.1721" y1="1216.9336" y2="1236.9336"/><polygon fill="#181818" points="247.1721,1226.9336,251.1721,1236.9336,255.1721,1226.9336,251.1721,1230.9336" style="stroke:#181818;stroke-width:1;"/><line style="stroke:#181818;stroke-width:1;" x1="251.1721" x2="251.1721" y1="1391.1328" y2="1426.1328"/><polygon fill="#181818" points="247.1721,1416.1328,251.1721,1426.1328,255.1721,1416.1328,251.1721,1420.1328" style="stroke:#181818;stroke-width:1;"/><line style="stroke:#181818;stroke-width:1;" x1="251.1721" x2="251.1721" y1="1331.1211" y2="1356.0391"/><polygon fill="#181818" points="247.1721,1346.0391,251.1721,1356.0391,255.1721,1346.0391,251.1721,1350.0391" style="stroke:#181818;stroke-width:1;"/><line style="stroke:#181818;stroke-width:1;" x1="310.6365" x2="449.1692" y1="1319.1211" y2="1319.1211"/><polygon fill="#181818" points="445.1692,1398.6328,449.1692,1408.6328,453.1692,1398.6328,449.1692,1402.6328" style="stroke:#181818;stroke-width:1;"/><line style="stroke:#181818;stroke-width:1;" x1="449.1692" x2="449.1692" y1="1319.1211" y2="1493.2266"/><line style="stroke:#181818;stroke-width:1;" x1="449.1692" x2="263.1721" y1="1493.2266" y2="1493.2266"/><polygon fill="#181818" points="273.1721,1489.2266,263.1721,1493.2266,273.1721,1497.2266,269.1721,1493.2266" style="stroke:#181818;stroke-width:1;"/><line style="stroke:#181818;stroke-width:1;" x1="251.1721" x2="251.1721" y1="1461.2266" y2="1481.2266"/><polygon fill="#181818" points="247.1721,1471.2266,251.1721,1481.2266,255.1721,1471.2266,251.1721,1475.2266" style="stroke:#181818;stroke-width:1;"/><line style="stroke:#181818;stroke-width:1;" x1="251.1721" x2="251.1721" y1="1287.1211" y2="1307.1211"/><polygon fill="#181818" points="247.1721,1297.1211,251.1721,1307.1211,255.1721,1297.1211,251.1721,1301.1211" style="stroke:#181818;stroke-width:1;"/><line style="stroke:#181818;stroke-width:1;" x1="437.8535" x2="251.1721" y1="438.7813" y2="438.7813"/><line style="stroke:#181818;stroke-width:1;" x1="251.1721" x2="251.1721" y1="438.7813" y2="473.3906"/><polygon fill="#181818" points="247.1721,463.3906,251.1721,473.3906,255.1721,463.3906,251.1721,467.3906" style="stroke:#181818;stroke-width:1;"/><line style="stroke:#181818;stroke-width:1;" x1="540.1211" x2="726.8025" y1="438.7813" y2="438.7813"/><line style="stroke:#181818;stroke-width:1;" x1="726.8025" x2="726.8025" y1="438.7813" y2="460.7813"/><polygon fill="#181818" points="722.8025,450.7813,726.8025,460.7813,730.8025,450.7813,726.8025,454.7813" style="stroke:#181818;stroke-width:1;"/><line style="stroke:#181818;stroke-width:1;" x1="251.1721" x2="251.1721" y1="1505.2266" y2="1523.2266"/><line style="stroke:#181818;stroke-width:1;" x1="251.1721" x2="476.9873" y1="1523.2266" y2="1523.2266"/><polygon fill="#181818" points="466.9873,1519.2266,476.9873,1523.2266,466.9873,1527.2266,470.9873,1523.2266" style="stroke:#181818;stroke-width:1;"/><line style="stroke:#181818;stroke-width:1;" x1="726.8025" x2="726.8025" y1="495.875" y2="1523.2266"/><line style="stroke:#181818;stroke-width:1;" x1="726.8025" x2="500.9873" y1="1523.2266" y2="1523.2266"/><polygon fill="#181818" points="510.9873,1519.2266,500.9873,1523.2266,510.9873,1527.2266,506.9873,1523.2266" style="stroke:#181818;stroke-width:1;"/><line style="stroke:#181818;stroke-width:1;" x1="488.9873" x2="488.9873" y1="402.9766" y2="426.7813"/><polygon fill="#181818" points="484.9873,416.7813,488.9873,426.7813,492.9873,416.7813,488.9873,420.7813" style="stroke:#181818;stroke-width:1;"/><line style="stroke:#181818;stroke-width:1;" x1="488.9873" x2="488.9873" y1="1535.2266" y2="1555.2266"/><polygon fill="#181818" points="484.9873,1545.2266,488.9873,1555.2266,492.9873,1545.2266,488.9873,1549.2266" style="stroke:#181818;stroke-width:1;"/><line style="stroke:#181818;stroke-width:1;" x1="488.9873" x2="488.9873" y1="1590.3203" y2="1610.3203"/><polygon fill="#181818" points="484.9873,1600.3203,488.9873,1610.3203,492.9873,1600.3203,488.9873,1604.3203" style="stroke:#181818;stroke-width:1;"/><line style="stroke:#181818;stroke-width:1;" x1="488.9873" x2="488.9873" y1="1660.5078" y2="1680.5078"/><polygon fill="#181818" points="484.9873,1670.5078,488.9873,1680.5078,492.9873,1670.5078,488.9873,1674.5078" style="stroke:#181818;stroke-width:1;"/><line style="stroke:#181818;stroke-width:1;" x1="488.9873" x2="488.9873" y1="1715.6016" y2="1739.4063"/><polygon fill="#181818" points="484.9873,1729.4063,488.9873,1739.4063,492.9873,1729.4063,488.9873,1733.4063" style="stroke:#181818;stroke-width:1;"/><line style="stroke:#181818;stroke-width:1;" x1="488.9873" x2="488.9873" y1="1774.5" y2="1835.7305"/><polygon fill="#181818" points="484.9873,1825.7305,488.9873,1835.7305,492.9873,1825.7305,488.9873,1829.7305" style="stroke:#181818;stroke-width:1;"/><!--SRC=[dLP1Zzj45BxxLxnQgXI7xP9qTmMAGPN9kf0sJQB4YpZaOfp9Ui2PCPvnL6uhzH-qfw9Mgdf082gn1mu814Y9ziI_s3_0N-3Ds4xi9DiKBb4qUUzxt_VUDsyYgOm8318U425IWT-e830XC3pz7Ex0yidrnQNdUE2qlJEt2pKd2K9_-MJnypSfiGn3I3-HXj5gHvGm2NuSamZnOfuc2i4s69S44deUIWDWUNdrw_N5Ywi_mKE87oFr4OUS4H2SCM8GDW6Le05zcY0H5H8Wkv3OwZGaM5_X2tc7oftmBnU_mFBrFt_ziRY4emO84d0s8Q8CtbDP0Ydkm-cmAKzclgIS2Q0iuBDOaVv1Ll7wwHovkey34e4vY7p6A3k7JrMVVf8-C_VoRCACiXIn0ExJ8AGaWKGf5yHFuOlMkC0S7nuUbWiFoRcVuB0cLCISqIzfHANEkx6YUQf2uPu97qEdrtQ7djFfgOYSoTsSILaVdK9jXB2_9-Y7nIjeDXgtuPu5CYGCQZhpwYdq-ZqBWLhe9MmhWK0hOAXWp6e3PmGZPQRVXfQDKHLs6R-_NopUWFa0nN0g08SsfScC9FftVqu2G5z94eIC1kWrR8IPfUR4JrR4rMajo0mvJL8XDH75RIq9UMwQOCpCHpwDrcDJ9MxWUkFqAXLSDkUKm2EdqrsZlXFYKKbC1TBnFBVdkV01VEQU3TqHjdQ5hCLG9aaoH-dAijPRYxNvR9PYDxMzmHVViY1Cr6NigX8RbPK7rfKccObki03oN8VgvgCv9zZVK-rDhkyznBXf3k0hlCmaVPprEijryYMIZN3Cz39XF9shox1sbQsZDzJjQkRTYZC0HWeAlR5YHjBCPMMzcU9yhPMsq5j48tLje8otdPzj4Tn5yMI38i305seBIu8RnzVMscPOyaFpP6q8bb89xu5QMyooLw6vbfLgCFiFJRiGJgTgu17UMnHszUpwudledtMsfbbSIzieiemT4ykZCcDDAVCZOXSc-ayjtMxeEyoxsinLoohz2ZQQKTAprGHy1eT-GlHoQ-VwzVD8PpELFw4ue5dESFEsvJ13P-X2xIDSdRShYoYlsHhvLD3Y2OdpRR_tsTYrh0keVYeZphz6FvpsppxfkZ1oEgEE2xTkMVyFDnj5URB5NFQWbUUnQUjDVFnEfyLAAktCVU_y3i92yjYe9jRhNjzpkYqu_Z2_BlMwFcuU5_zq1keCQXEExcWsy1AnL5bRM3hkkA4AQVe2_02vGlP79SSv0fvA6Wa5eMTvKCpX0A5ePELHGiz8X-Mlpm5KuorZ9VGv2gpNsttzV7ejQ3OR3vUlho- -Mxnvt-bXvPNcVm40]--></g></svg>