<svg xmlns="http://www.w3.org/2000/svg" xmlns:xlink="http://www.w3.org/1999/xlink" contentStyleType="text/css" height="834px" preserveAspectRatio="none" style="width:645px;height:834px;background:#FFFFFF;" version="1.1" viewBox="0 0 645 834" width="645px" zoomAndPan="magnify"><title>Appel Client - CIBLE (Odoo CRM + CTI)</title><defs/><g><text fill="#000000" font-family="sans-serif" font-size="14" font-weight="bold" lengthAdjust="spacing" textLength="260.1484" x="188.49" y="29.5332">Appel Client - CIBLE (Odoo CRM + CTI)</text><rect fill="#FFFFFF" height="151.7578" style="stroke:#181818;stroke-width:1;" width="10" x="105.2979" y="215.5313"/><rect fill="#FFFFFF" height="60.7031" style="stroke:#181818;stroke-width:1;" width="10" x="291.2563" y="245.8828"/><rect fill="#FFFFFF" height="30.3516" style="stroke:#181818;stroke-width:1;" width="10" x="291.2563" y="441.9922"/><rect fill="#FFFFFF" height="47.5273" style="stroke:#181818;stroke-width:1;" width="10" x="291.2563" y="513.8711"/><line style="stroke:#181818;stroke-width:0.5;stroke-dasharray:5.0,5.0;" x1="25" x2="25" y1="138.8281" y2="734.8047"/><line style="stroke:#181818;stroke-width:0.5;stroke-dasharray:5.0,5.0;" x1="109.793" x2="109.793" y1="138.8281" y2="734.8047"/><line style="stroke:#181818;stroke-width:0.5;stroke-dasharray:5.0,5.0;" x1="296.0195" x2="296.0195" y1="138.8281" y2="734.8047"/><line style="stroke:#181818;stroke-width:0.5;stroke-dasharray:5.0,5.0;" x1="510.7852" x2="510.7852" y1="138.8281" y2="734.8047"/><text fill="#000000" font-family="sans-serif" font-size="14" lengthAdjust="spacing" textLength="35.793" x="5" y="135.752">Client</text><ellipse cx="25.8965" cy="69.7188" fill="#E2E2F0" rx="8" ry="8" style="stroke:#181818;stroke-width:0.5;"/><path d="M25.8965,77.7188 L25.8965,104.7188 M12.8965,85.7188 L38.8965,85.7188 M25.8965,104.7188 L12.8965,119.7188 M25.8965,104.7188 L38.8965,119.7188 " fill="none" style="stroke:#181818;stroke-width:0.5;"/><text fill="#000000" font-family="sans-serif" font-size="14" lengthAdjust="spacing" textLength="35.793" x="5" y="748.3379">Client</text><ellipse cx="25.8965" cy="759.9141" fill="#E2E2F0" rx="8" ry="8" style="stroke:#181818;stroke-width:0.5;"/><path d="M25.8965,767.9141 L25.8965,794.9141 M12.8965,775.9141 L38.8965,775.9141 M25.8965,794.9141 L12.8965,809.9141 M25.8965,794.9141 L38.8965,809.9141 " fill="none" style="stroke:#181818;stroke-width:0.5;"/><rect fill="#FFA500" height="49.2188" rx="2.5" ry="2.5" style="stroke:#181818;stroke-width:0.5;" width="107.0098" x="56.793" y="88.6094"/><text fill="#000000" font-family="sans-serif" font-size="14" lengthAdjust="spacing" textLength="93.0098" x="63.793" y="110.1426">T&#195;&#169;l&#195;&#169;phonie</text><text fill="#000000" font-family="sans-serif" font-size="14" lengthAdjust="spacing" textLength="31.876" x="94.3599" y="127.752">(CTI)</text><rect fill="#FFA500" height="49.2188" rx="2.5" ry="2.5" style="stroke:#181818;stroke-width:0.5;" width="107.0098" x="56.793" y="733.8047"/><text fill="#000000" font-family="sans-serif" font-size="14" lengthAdjust="spacing" textLength="93.0098" x="63.793" y="755.3379">T&#195;&#169;l&#195;&#169;phonie</text><text fill="#000000" font-family="sans-serif" font-size="14" lengthAdjust="spacing" textLength="31.876" x="94.3599" y="772.9473">(CTI)</text><rect fill="#87CEEB" height="49.2188" rx="2.5" ry="2.5" style="stroke:#181818;stroke-width:0.5;" width="132.4736" x="230.0195" y="88.6094"/><text fill="#000000" font-family="sans-serif" font-size="14" lengthAdjust="spacing" textLength="70.0205" x="261.2461" y="110.1426">Odoo CRM</text><text fill="#000000" font-family="sans-serif" font-size="14" lengthAdjust="spacing" textLength="118.4736" x="237.0195" y="127.752">(Remont&#195;&#169;e Auto)</text><rect fill="#87CEEB" height="49.2188" rx="2.5" ry="2.5" style="stroke:#181818;stroke-width:0.5;" width="132.4736" x="230.0195" y="733.8047"/><text fill="#000000" font-family="sans-serif" font-size="14" lengthAdjust="spacing" textLength="70.0205" x="261.2461" y="755.3379">Odoo CRM</text><text fill="#000000" font-family="sans-serif" font-size="14" lengthAdjust="spacing" textLength="118.4736" x="237.0195" y="772.9473">(Remont&#195;&#169;e Auto)</text><text fill="#000000" font-family="sans-serif" font-size="14" lengthAdjust="spacing" textLength="36.5654" x="490.3472" y="118.1426">Claire</text><text fill="#000000" font-family="sans-serif" font-size="14" lengthAdjust="spacing" textLength="95.6895" x="460.7852" y="135.752">(Service Client)</text><ellipse cx="511.6299" cy="52.1094" fill="#FFB6C1" rx="8" ry="8" style="stroke:#181818;stroke-width:0.5;"/><path d="M511.6299,60.1094 L511.6299,87.1094 M498.6299,68.1094 L524.6299,68.1094 M511.6299,87.1094 L498.6299,102.1094 M511.6299,87.1094 L524.6299,102.1094 " fill="none" style="stroke:#181818;stroke-width:0.5;"/><text fill="#000000" font-family="sans-serif" font-size="14" lengthAdjust="spacing" textLength="36.5654" x="490.3472" y="748.3379">Claire</text><text fill="#000000" font-family="sans-serif" font-size="14" lengthAdjust="spacing" textLength="95.6895" x="460.7852" y="765.9473">(Service Client)</text><ellipse cx="511.6299" cy="777.5234" fill="#FFB6C1" rx="8" ry="8" style="stroke:#181818;stroke-width:0.5;"/><path d="M511.6299,785.5234 L511.6299,812.5234 M498.6299,793.5234 L524.6299,793.5234 M511.6299,812.5234 L498.6299,827.5234 M511.6299,812.5234 L524.6299,827.5234 " fill="none" style="stroke:#181818;stroke-width:0.5;"/><rect fill="#FFFFFF" height="151.7578" style="stroke:#181818;stroke-width:1;" width="10" x="105.2979" y="215.5313"/><rect fill="#FFFFFF" height="60.7031" style="stroke:#181818;stroke-width:1;" width="10" x="291.2563" y="245.8828"/><rect fill="#FFFFFF" height="30.3516" style="stroke:#181818;stroke-width:1;" width="10" x="291.2563" y="441.9922"/><rect fill="#FFFFFF" height="47.5273" style="stroke:#181818;stroke-width:1;" width="10" x="291.2563" y="513.8711"/><rect fill="#EEEEEE" height="3" style="stroke:#EEEEEE;stroke-width:1;" width="638.1284" x="0" y="170.0039"/><line style="stroke:#000000;stroke-width:1;" x1="0" x2="638.1284" y1="170.0039" y2="170.0039"/><line style="stroke:#000000;stroke-width:1;" x1="0" x2="638.1284" y1="173.0039" y2="173.0039"/><rect fill="#EEEEEE" height="24.3516" style="stroke:#000000;stroke-width:2;" width="104.2891" x="266.9197" y="158.8281"/><text fill="#000000" font-family="sans-serif" font-size="13" font-weight="bold" lengthAdjust="spacing" textLength="86.6772" x="272.9197" y="176.3232">Client Appelle</text><polygon fill="#181818" points="93.2979,211.5313,103.2979,215.5313,93.2979,219.5313,97.2979,215.5313" style="stroke:#181818;stroke-width:1;"/><line style="stroke:#181818;stroke-width:1;" x1="25.8965" x2="99.2979" y1="215.5313" y2="215.5313"/><text fill="#000000" font-family="sans-serif" font-size="13" lengthAdjust="spacing" textLength="43.3672" x="32.8965" y="210.6748">Appelle</text><polygon fill="#181818" points="279.2563,241.8828,289.2563,245.8828,279.2563,249.8828,283.2563,245.8828" style="stroke:#181818;stroke-width:1;"/><line style="stroke:#181818;stroke-width:1;" x1="115.2979" x2="285.2563" y1="245.8828" y2="245.8828"/><text fill="#000000" font-family="sans-serif" font-size="13" lengthAdjust="spacing" textLength="156.9585" x="122.2979" y="241.0264">Recherche Num&#195;&#169;ro (API)</text><polygon fill="#181818" points="126.2979,272.2344,116.2979,276.2344,126.2979,280.2344,122.2979,276.2344" style="stroke:#181818;stroke-width:1;"/><line style="stroke:#181818;stroke-width:1;stroke-dasharray:2.0,2.0;" x1="120.2979" x2="290.2563" y1="276.2344" y2="276.2344"/><text fill="#000000" font-family="sans-serif" font-size="13" lengthAdjust="spacing" textLength="130.9585" x="132.2979" y="271.3779">Fiche Client Trouv&#195;&#169;e</text><polygon fill="#181818" points="499.6299,302.5859,509.6299,306.5859,499.6299,310.5859,503.6299,306.5859" style="stroke:#181818;stroke-width:1;"/><line style="stroke:#181818;stroke-width:1;" x1="296.2563" x2="505.6299" y1="306.5859" y2="306.5859"/><text fill="#000000" font-family="sans-serif" font-size="13" lengthAdjust="spacing" textLength="114.1689" x="303.2563" y="301.7295">Pop-up Fiche Client</text><polygon fill="#181818" points="499.6299,332.9375,509.6299,336.9375,499.6299,340.9375,503.6299,336.9375" style="stroke:#181818;stroke-width:1;"/><line style="stroke:#181818;stroke-width:1;" x1="115.2979" x2="505.6299" y1="336.9375" y2="336.9375"/><text fill="#000000" font-family="sans-serif" font-size="13" lengthAdjust="spacing" textLength="131.1489" x="122.2979" y="332.0811">Sonnerie + Nom Client</text><polygon fill="#181818" points="121.2979,363.2891,111.2979,367.2891,121.2979,371.2891,117.2979,367.2891" style="stroke:#181818;stroke-width:1;"/><line style="stroke:#181818;stroke-width:1;" x1="115.2979" x2="510.6299" y1="367.2891" y2="367.2891"/><text fill="#000000" font-family="sans-serif" font-size="13" lengthAdjust="spacing" textLength="66.6567" x="127.2979" y="362.4326">D&#195;&#169;croche</text><rect fill="#EEEEEE" height="3" style="stroke:#EEEEEE;stroke-width:1;" width="638.1284" x="0" y="396.4648"/><line style="stroke:#000000;stroke-width:1;" x1="0" x2="638.1284" y1="396.4648" y2="396.4648"/><line style="stroke:#000000;stroke-width:1;" x1="0" x2="638.1284" y1="399.4648" y2="399.4648"/><rect fill="#EEEEEE" height="24.3516" style="stroke:#000000;stroke-width:2;" width="146.2026" x="245.9629" y="385.2891"/><text fill="#000000" font-family="sans-serif" font-size="13" font-weight="bold" lengthAdjust="spacing" textLength="128.5908" x="251.9629" y="402.7842">Traitement Demande</text><polygon fill="#181818" points="312.2563,437.9922,302.2563,441.9922,312.2563,445.9922,308.2563,441.9922" style="stroke:#181818;stroke-width:1;"/><line style="stroke:#181818;stroke-width:1;" x1="306.2563" x2="510.6299" y1="441.9922" y2="441.9922"/><text fill="#000000" font-family="sans-serif" font-size="13" lengthAdjust="spacing" textLength="113.4453" x="318.2563" y="437.1357">Consulte Historique</text><polygon fill="#181818" points="499.6299,468.3438,509.6299,472.3438,499.6299,476.3438,503.6299,472.3438" style="stroke:#181818;stroke-width:1;"/><line style="stroke:#181818;stroke-width:1;stroke-dasharray:2.0,2.0;" x1="296.2563" x2="505.6299" y1="472.3438" y2="472.3438"/><text fill="#000000" font-family="sans-serif" font-size="13" lengthAdjust="spacing" textLength="186.3735" x="303.2563" y="467.4873">Derniers Tickets, RDV, Factures</text><polygon fill="#181818" points="312.2563,509.8711,302.2563,513.8711,312.2563,517.8711,308.2563,513.8711" style="stroke:#181818;stroke-width:1;"/><line style="stroke:#181818;stroke-width:1;" x1="306.2563" x2="510.6299" y1="513.8711" y2="513.8711"/><text fill="#000000" font-family="sans-serif" font-size="13" lengthAdjust="spacing" textLength="136.8872" x="318.2563" y="509.0146">Cr&#195;&#169;&#195;&#169; Ticket (3 clics)</text><path d="M516,485.3438 L516,527.3438 L627,527.3438 L627,495.3438 L617,485.3438 L516,485.3438 " fill="#E8F5E9" style="stroke:#181818;stroke-width:0.5;"/><path d="M617,485.3438 L617,495.3438 L627,495.3438 L617,485.3438 " fill="#E8F5E9" style="stroke:#181818;stroke-width:0.5;"/><text fill="#000000" font-family="sans-serif" font-size="13" font-weight="bold" lengthAdjust="spacing" textLength="89.5591" x="522" y="503.8389">Plus de post-it</text><text fill="#000000" font-family="sans-serif" font-size="13" lengthAdjust="spacing" textLength="90.4985" x="522" y="520.1904">Tout est trac&#195;&#169;</text><line style="stroke:#181818;stroke-width:1;" x1="301.2563" x2="343.2563" y1="560.3984" y2="560.3984"/><line style="stroke:#181818;stroke-width:1;" x1="343.2563" x2="343.2563" y1="560.3984" y2="573.3984"/><line style="stroke:#181818;stroke-width:1;" x1="296.2563" x2="343.2563" y1="573.3984" y2="573.3984"/><polygon fill="#181818" points="306.2563,569.3984,296.2563,573.3984,306.2563,577.3984,302.2563,573.3984" style="stroke:#181818;stroke-width:1;"/><text fill="#000000" font-family="sans-serif" font-size="13" lengthAdjust="spacing" textLength="117.7681" x="308.2563" y="555.542">Notif Email Manager</text><polygon fill="#181818" points="36.8965,594.75,26.8965,598.75,36.8965,602.75,32.8965,598.75" style="stroke:#181818;stroke-width:1;"/><line style="stroke:#181818;stroke-width:1;" x1="30.8965" x2="510.6299" y1="598.75" y2="598.75"/><text fill="#000000" font-family="sans-serif" font-size="13" lengthAdjust="spacing" textLength="163.8838" x="42.8965" y="593.8936">"On vous rappelle sous 24h"</text><rect fill="#EEEEEE" height="3" style="stroke:#EEEEEE;stroke-width:1;" width="638.1284" x="0" y="627.9258"/><line style="stroke:#000000;stroke-width:1;" x1="0" x2="638.1284" y1="627.9258" y2="627.9258"/><line style="stroke:#000000;stroke-width:1;" x1="0" x2="638.1284" y1="630.9258" y2="630.9258"/><rect fill="#EEEEEE" height="24.3516" style="stroke:#000000;stroke-width:2;" width="112.2236" x="262.9524" y="616.75"/><text fill="#000000" font-family="sans-serif" font-size="13" font-weight="bold" lengthAdjust="spacing" textLength="94.6118" x="268.9524" y="634.2451">Automatisation</text><line style="stroke:#181818;stroke-width:1;" x1="296.2563" x2="338.2563" y1="673.4531" y2="673.4531"/><line style="stroke:#181818;stroke-width:1;" x1="338.2563" x2="338.2563" y1="673.4531" y2="686.4531"/><line style="stroke:#181818;stroke-width:1;" x1="297.2563" x2="338.2563" y1="686.4531" y2="686.4531"/><polygon fill="#181818" points="307.2563,682.4531,297.2563,686.4531,307.2563,690.4531,303.2563,686.4531" style="stroke:#181818;stroke-width:1;"/><text fill="#000000" font-family="sans-serif" font-size="13" lengthAdjust="spacing" textLength="193.4766" x="303.2563" y="668.5967">Relance Auto J+1 (si non trait&#195;&#169;)</text><polygon fill="#181818" points="36.8965,712.8047,26.8965,716.8047,36.8965,720.8047,32.8965,716.8047" style="stroke:#181818;stroke-width:1;"/><line style="stroke:#181818;stroke-width:1;" x1="30.8965" x2="295.2563" y1="716.8047" y2="716.8047"/><text fill="#000000" font-family="sans-serif" font-size="13" lengthAdjust="spacing" textLength="148.0972" x="42.8965" y="711.9482">Email Confirmation Ticket</text><!--SRC=[VLFDRjD04BxlKuoIIv8sKWiKIgHKIXn75D4GkHOdBYjdseomTytkEY_0q_0Qy6BCUEsceOB3Hl5wlf_vPXmeb0YBkiOIafBG19X2ShlybCBeyyvQIB8xE8CalnqhfOjW7GnYtG2qxo2grYvGGRLc-23__UFNpr9-whqrX5_DIE1j_PPl48RhzUBguk8KrgjnUOQLDK4Os5eJRCIs1SFhTqcQBezMD3bHk4Tte08xG-FEdBmKjUNRv5Af-RnliUsN-vxFbUgxledcPlrBaQ233XZlLRJEPU9Z1XaMUtHyODDKOjLP62ss7DCJJWfLwtfwP5-JO3hHtDdcqFRPrTrqfcUmjVMqgK_ArGvFkO-UUjIzDGOT8OziOwiUrmLnDB4IpS9PvdvE6XkLd7AdAM0b7bTOQRFhi-g9OWY9DRuf6Vc1FC-3lZVuh_PxXojql1FEGqx5Dmp-7BBLbtDOCwnnw5_s-4BJYNav7GMCNaDHKk7_ZjvO_kVeSHzWc5wlhzBt2c0osPQD1swejZvCAKmcV9lR9W3w0C7fGhWLcXq8WNgQJ9JVs40Fa5QQIhZJHZ-Y-v_dE84PhxU1WsLXfxlTy_Bqwir-q0OkQrxfG9wFDMtOfxePbjeKyNk0ZsUNCFB41equflPR6J_ReIWQNVAG7iXLaJX6flu0]--></g></svg>