<svg xmlns="http://www.w3.org/2000/svg" xmlns:xlink="http://www.w3.org/1999/xlink" contentStyleType="text/css" height="599px" preserveAspectRatio="none" style="width:2468px;height:599px;background:#FFFFFF;" version="1.1" viewBox="0 0 2468 599" width="2468px" zoomAndPan="magnify"><title>Architecture Composants - Solution Service Client</title><defs/><g><text fill="#000000" font-family="sans-serif" font-size="14" font-weight="bold" lengthAdjust="spacing" textLength="336.0615" x="1059.1521" y="24.5332">Architecture Composants - Solution Service Client</text><!--cluster Frontend--><g id="cluster_Frontend"><path d="M1156.5,192.6094 L1218.1553,192.6094 A3.75,3.75 0 0 1 1220.6553,195.1094 L1227.6553,216.2188 L1791.5,216.2188 A2.5,2.5 0 0 1 1794,218.7188 L1794,290.1094 A2.5,2.5 0 0 1 1791.5,292.6094 L1156.5,292.6094 A2.5,2.5 0 0 1 1154,290.1094 L1154,195.1094 A2.5,2.5 0 0 1 1156.5,192.6094 " fill="none" style="stroke:#000000;stroke-width:1.5;"/><line style="stroke:#000000;stroke-width:1.5;" x1="1154" x2="1227.6553" y1="216.2188" y2="216.2188"/><text fill="#000000" font-family="sans-serif" font-size="14" font-weight="bold" lengthAdjust="spacing" textLength="60.6553" x="1158" y="209.1426">Frontend</text></g><!--cluster Backend - HubSpot CRM--><g id="cluster_Backend - HubSpot CRM"><path d="M763.5,354.1094 L929.3896,354.1094 A3.75,3.75 0 0 1 931.8896,356.6094 L938.8896,377.7188 L1438.5,377.7188 A2.5,2.5 0 0 1 1441,380.2188 L1441,584.6094 A2.5,2.5 0 0 1 1438.5,587.1094 L763.5,587.1094 A2.5,2.5 0 0 1 761,584.6094 L761,356.6094 A2.5,2.5 0 0 1 763.5,354.1094 " fill="none" style="stroke:#000000;stroke-width:1.5;"/><line style="stroke:#000000;stroke-width:1.5;" x1="761" x2="938.8896" y1="377.7188" y2="377.7188"/><text fill="#000000" font-family="sans-serif" font-size="14" font-weight="bold" lengthAdjust="spacing" textLength="164.8896" x="765" y="370.6426">Backend - HubSpot CRM</text></g><!--cluster Int??grations--><g id="cluster_Int&#195;&#169;grations"><path d="M8.5,192.6094 L102.2568,192.6094 A3.75,3.75 0 0 1 104.7568,195.1094 L111.7568,216.2188 L659.5,216.2188 A2.5,2.5 0 0 1 662,218.7188 L662,290.1094 A2.5,2.5 0 0 1 659.5,292.6094 L8.5,292.6094 A2.5,2.5 0 0 1 6,290.1094 L6,195.1094 A2.5,2.5 0 0 1 8.5,192.6094 " fill="none" style="stroke:#000000;stroke-width:1.5;"/><line style="stroke:#000000;stroke-width:1.5;" x1="6" x2="111.7568" y1="216.2188" y2="216.2188"/><text fill="#000000" font-family="sans-serif" font-size="14" font-weight="bold" lengthAdjust="spacing" textLength="92.7568" x="10" y="209.1426">Int&#195;&#169;grations</text></g><!--cluster Data & ML--><g id="cluster_Data &amp; ML"><path d="M688.5,44.6094 L757.9482,44.6094 A3.75,3.75 0 0 1 760.4482,47.1094 L767.4482,68.2188 L974.5,68.2188 A2.5,2.5 0 0 1 977,70.7188 L977,290.1094 A2.5,2.5 0 0 1 974.5,292.6094 L688.5,292.6094 A2.5,2.5 0 0 1 686,290.1094 L686,47.1094 A2.5,2.5 0 0 1 688.5,44.6094 " fill="none" style="stroke:#000000;stroke-width:1.5;"/><line style="stroke:#000000;stroke-width:1.5;" x1="686" x2="767.4482" y1="68.2188" y2="68.2188"/><text fill="#000000" font-family="sans-serif" font-size="14" font-weight="bold" lengthAdjust="spacing" textLength="68.4482" x="690" y="61.1426">Data &amp; ML</text></g><!--cluster Syst??mes Existants--><g id="cluster_Syst&#195;&#168;mes Existants"><path d="M121.5,354.1094 L261.0029,354.1094 A3.75,3.75 0 0 1 263.5029,356.6094 L270.5029,377.7188 L734.5,377.7188 A2.5,2.5 0 0 1 737,380.2188 L737,451.6094 A2.5,2.5 0 0 1 734.5,454.1094 L121.5,454.1094 A2.5,2.5 0 0 1 119,451.6094 L119,356.6094 A2.5,2.5 0 0 1 121.5,354.1094 " fill="none" style="stroke:#000000;stroke-width:1.5;"/><line style="stroke:#000000;stroke-width:1.5;" x1="119" x2="270.5029" y1="377.7188" y2="377.7188"/><text fill="#000000" font-family="sans-serif" font-size="14" font-weight="bold" lengthAdjust="spacing" textLength="138.5029" x="123" y="370.6426">Syst&#195;&#168;mes Existants</text></g><!--entity PortailWeb--><g id="elem_PortailWeb"><rect fill="#F1F1F1" height="47.6094" rx="2.5" ry="2.5" style="stroke:#181818;stroke-width:0.5;" width="152.041" x="1170" y="228.6094"/><rect fill="#F1F1F1" height="10" style="stroke:#181818;stroke-width:0.5;" width="15" x="1302.041" y="233.6094"/><rect fill="#F1F1F1" height="2" style="stroke:#181818;stroke-width:0.5;" width="4" x="1300.041" y="235.6094"/><rect fill="#F1F1F1" height="2" style="stroke:#181818;stroke-width:0.5;" width="4" x="1300.041" y="239.6094"/><text fill="#000000" font-family="sans-serif" font-size="14" lengthAdjust="spacing" textLength="112.041" x="1185" y="263.1426">Portail Client Web</text></g><!--entity AppMobile--><g id="elem_AppMobile"><rect fill="#F1F1F1" height="47.6094" rx="2.5" ry="2.5" style="stroke:#181818;stroke-width:0.5;" width="181.6338" x="1357" y="228.6094"/><rect fill="#F1F1F1" height="10" style="stroke:#181818;stroke-width:0.5;" width="15" x="1518.6338" y="233.6094"/><rect fill="#F1F1F1" height="2" style="stroke:#181818;stroke-width:0.5;" width="4" x="1516.6338" y="235.6094"/><rect fill="#F1F1F1" height="2" style="stroke:#181818;stroke-width:0.5;" width="4" x="1516.6338" y="239.6094"/><text fill="#000000" font-family="sans-serif" font-size="14" lengthAdjust="spacing" textLength="141.6338" x="1372" y="263.1426">App Mobile Technicien</text></g><!--entity InterfaceClaire--><g id="elem_InterfaceClaire"><rect fill="#F1F1F1" height="47.6094" rx="2.5" ry="2.5" style="stroke:#181818;stroke-width:0.5;" width="202.627" x="1574.5" y="228.6094"/><rect fill="#F1F1F1" height="10" style="stroke:#181818;stroke-width:0.5;" width="15" x="1757.127" y="233.6094"/><rect fill="#F1F1F1" height="2" style="stroke:#181818;stroke-width:0.5;" width="4" x="1755.127" y="235.6094"/><rect fill="#F1F1F1" height="2" style="stroke:#181818;stroke-width:0.5;" width="4" x="1755.127" y="239.6094"/><text fill="#000000" font-family="sans-serif" font-size="14" lengthAdjust="spacing" textLength="162.627" x="1589.5" y="263.1426">Interface Claire (HubSpot)</text></g><!--entity CRMCore--><g id="elem_CRMCore"><rect fill="#F1F1F1" height="47.6094" rx="2.5" ry="2.5" style="stroke:#181818;stroke-width:0.5;" width="106.1172" x="978" y="390.1094"/><rect fill="#F1F1F1" height="10" style="stroke:#181818;stroke-width:0.5;" width="15" x="1064.1172" y="395.1094"/><rect fill="#F1F1F1" height="2" style="stroke:#181818;stroke-width:0.5;" width="4" x="1062.1172" y="397.1094"/><rect fill="#F1F1F1" height="2" style="stroke:#181818;stroke-width:0.5;" width="4" x="1062.1172" y="401.1094"/><text fill="#000000" font-family="sans-serif" font-size="14" lengthAdjust="spacing" textLength="66.1172" x="993" y="424.6426">CRM Core</text></g><!--entity Ticketing--><g id="elem_Ticketing"><rect fill="#F1F1F1" height="47.6094" rx="2.5" ry="2.5" style="stroke:#181818;stroke-width:0.5;" width="146.5859" x="957.5" y="523.1094"/><rect fill="#F1F1F1" height="10" style="stroke:#181818;stroke-width:0.5;" width="15" x="1084.0859" y="528.1094"/><rect fill="#F1F1F1" height="2" style="stroke:#181818;stroke-width:0.5;" width="4" x="1082.0859" y="530.1094"/><rect fill="#F1F1F1" height="2" style="stroke:#181818;stroke-width:0.5;" width="4" x="1082.0859" y="534.1094"/><text fill="#000000" font-family="sans-serif" font-size="14" lengthAdjust="spacing" textLength="106.5859" x="972.5" y="557.6426">Ticketing System</text></g><!--entity Workflows--><g id="elem_Workflows"><rect fill="#F1F1F1" height="47.6094" rx="2.5" ry="2.5" style="stroke:#181818;stroke-width:0.5;" width="145.041" x="777.5" y="523.1094"/><rect fill="#F1F1F1" height="10" style="stroke:#181818;stroke-width:0.5;" width="15" x="902.541" y="528.1094"/><rect fill="#F1F1F1" height="2" style="stroke:#181818;stroke-width:0.5;" width="4" x="900.541" y="530.1094"/><rect fill="#F1F1F1" height="2" style="stroke:#181818;stroke-width:0.5;" width="4" x="900.541" y="534.1094"/><text fill="#000000" font-family="sans-serif" font-size="14" lengthAdjust="spacing" textLength="105.041" x="792.5" y="557.6426">Workflow Engine</text></g><!--entity Analytics--><g id="elem_Analytics"><rect fill="#F1F1F1" height="47.6094" rx="2.5" ry="2.5" style="stroke:#181818;stroke-width:0.5;" width="143.5029" x="1140" y="523.1094"/><rect fill="#F1F1F1" height="10" style="stroke:#181818;stroke-width:0.5;" width="15" x="1263.5029" y="528.1094"/><rect fill="#F1F1F1" height="2" style="stroke:#181818;stroke-width:0.5;" width="4" x="1261.5029" y="530.1094"/><rect fill="#F1F1F1" height="2" style="stroke:#181818;stroke-width:0.5;" width="4" x="1261.5029" y="534.1094"/><text fill="#000000" font-family="sans-serif" font-size="14" lengthAdjust="spacing" textLength="103.5029" x="1155" y="557.6426">Analytics Engine</text></g><!--entity Chatbot--><g id="elem_Chatbot"><rect fill="#F1F1F1" height="47.6094" rx="2.5" ry="2.5" style="stroke:#181818;stroke-width:0.5;" width="106.1514" x="1319" y="523.1094"/><rect fill="#F1F1F1" height="10" style="stroke:#181818;stroke-width:0.5;" width="15" x="1405.1514" y="528.1094"/><rect fill="#F1F1F1" height="2" style="stroke:#181818;stroke-width:0.5;" width="4" x="1403.1514" y="530.1094"/><rect fill="#F1F1F1" height="2" style="stroke:#181818;stroke-width:0.5;" width="4" x="1403.1514" y="534.1094"/><text fill="#000000" font-family="sans-serif" font-size="14" lengthAdjust="spacing" textLength="66.1514" x="1334" y="557.6426">Chatbot IA</text></g><!--entity CTI--><g id="elem_CTI"><rect fill="#F1F1F1" height="47.6094" rx="2.5" ry="2.5" style="stroke:#181818;stroke-width:0.5;" width="131.0342" x="186.5" y="228.6094"/><rect fill="#F1F1F1" height="10" style="stroke:#181818;stroke-width:0.5;" width="15" x="297.5342" y="233.6094"/><rect fill="#F1F1F1" height="2" style="stroke:#181818;stroke-width:0.5;" width="4" x="295.5342" y="235.6094"/><rect fill="#F1F1F1" height="2" style="stroke:#181818;stroke-width:0.5;" width="4" x="295.5342" y="239.6094"/><text fill="#000000" font-family="sans-serif" font-size="14" lengthAdjust="spacing" textLength="91.0342" x="201.5" y="263.1426">CTI Connector</text></g><!--entity SAGESync--><g id="elem_SAGESync"><rect fill="#F1F1F1" height="47.6094" rx="2.5" ry="2.5" style="stroke:#181818;stroke-width:0.5;" width="113.917" x="353" y="228.6094"/><rect fill="#F1F1F1" height="10" style="stroke:#181818;stroke-width:0.5;" width="15" x="446.917" y="233.6094"/><rect fill="#F1F1F1" height="2" style="stroke:#181818;stroke-width:0.5;" width="4" x="444.917" y="235.6094"/><rect fill="#F1F1F1" height="2" style="stroke:#181818;stroke-width:0.5;" width="4" x="444.917" y="239.6094"/><text fill="#000000" font-family="sans-serif" font-size="14" lengthAdjust="spacing" textLength="73.917" x="368" y="263.1426">SAGE Sync</text></g><!--entity EmailConn--><g id="elem_EmailConn"><rect fill="#F1F1F1" height="47.6094" rx="2.5" ry="2.5" style="stroke:#181818;stroke-width:0.5;" width="143.4893" x="502.5" y="228.6094"/><rect fill="#F1F1F1" height="10" style="stroke:#181818;stroke-width:0.5;" width="15" x="625.9893" y="233.6094"/><rect fill="#F1F1F1" height="2" style="stroke:#181818;stroke-width:0.5;" width="4" x="623.9893" y="235.6094"/><rect fill="#F1F1F1" height="2" style="stroke:#181818;stroke-width:0.5;" width="4" x="623.9893" y="239.6094"/><text fill="#000000" font-family="sans-serif" font-size="14" lengthAdjust="spacing" textLength="103.4893" x="517.5" y="263.1426">Email Connector</text></g><!--entity SMS--><g id="elem_SMS"><rect fill="#F1F1F1" height="47.6094" rx="2.5" ry="2.5" style="stroke:#181818;stroke-width:0.5;" width="129.4756" x="22.5" y="228.6094"/><rect fill="#F1F1F1" height="10" style="stroke:#181818;stroke-width:0.5;" width="15" x="131.9756" y="233.6094"/><rect fill="#F1F1F1" height="2" style="stroke:#181818;stroke-width:0.5;" width="4" x="129.9756" y="235.6094"/><rect fill="#F1F1F1" height="2" style="stroke:#181818;stroke-width:0.5;" width="4" x="129.9756" y="239.6094"/><text fill="#000000" font-family="sans-serif" font-size="14" lengthAdjust="spacing" textLength="89.4756" x="37.5" y="263.1426">SMS Gateway</text></g><!--entity DWH--><g id="elem_DWH"><rect fill="#F1F1F1" height="47.6094" rx="2.5" ry="2.5" style="stroke:#181818;stroke-width:0.5;" width="145.0547" x="815.5" y="80.6094"/><rect fill="#F1F1F1" height="10" style="stroke:#181818;stroke-width:0.5;" width="15" x="940.5547" y="85.6094"/><rect fill="#F1F1F1" height="2" style="stroke:#181818;stroke-width:0.5;" width="4" x="938.5547" y="87.6094"/><rect fill="#F1F1F1" height="2" style="stroke:#181818;stroke-width:0.5;" width="4" x="938.5547" y="91.6094"/><text fill="#000000" font-family="sans-serif" font-size="14" lengthAdjust="spacing" textLength="105.0547" x="830.5" y="115.1426">Data Warehouse</text></g><!--entity ML--><g id="elem_ML"><rect fill="#F1F1F1" height="47.6094" rx="2.5" ry="2.5" style="stroke:#181818;stroke-width:0.5;" width="125.5928" x="702" y="228.6094"/><rect fill="#F1F1F1" height="10" style="stroke:#181818;stroke-width:0.5;" width="15" x="807.5928" y="233.6094"/><rect fill="#F1F1F1" height="2" style="stroke:#181818;stroke-width:0.5;" width="4" x="805.5928" y="235.6094"/><rect fill="#F1F1F1" height="2" style="stroke:#181818;stroke-width:0.5;" width="4" x="805.5928" y="239.6094"/><text fill="#000000" font-family="sans-serif" font-size="14" lengthAdjust="spacing" textLength="85.5928" x="717" y="263.1426">ML Prediction</text></g><!--entity PowerBI--><g id="elem_PowerBI"><rect fill="#F1F1F1" height="47.6094" rx="2.5" ry="2.5" style="stroke:#181818;stroke-width:0.5;" width="96.7998" x="863.5" y="228.6094"/><rect fill="#F1F1F1" height="10" style="stroke:#181818;stroke-width:0.5;" width="15" x="940.2998" y="233.6094"/><rect fill="#F1F1F1" height="2" style="stroke:#181818;stroke-width:0.5;" width="4" x="938.2998" y="235.6094"/><rect fill="#F1F1F1" height="2" style="stroke:#181818;stroke-width:0.5;" width="4" x="938.2998" y="239.6094"/><text fill="#000000" font-family="sans-serif" font-size="14" lengthAdjust="spacing" textLength="56.7998" x="878.5" y="263.1426">Power BI</text></g><!--entity SAGE--><g id="elem_SAGE"><rect fill="#F1F1F1" height="47.6094" rx="2.5" ry="2.5" style="stroke:#181818;stroke-width:0.5;" width="78.9033" x="379.5" y="390.1094"/><rect fill="#F1F1F1" height="10" style="stroke:#181818;stroke-width:0.5;" width="15" x="438.4033" y="395.1094"/><rect fill="#F1F1F1" height="2" style="stroke:#181818;stroke-width:0.5;" width="4" x="436.4033" y="397.1094"/><rect fill="#F1F1F1" height="2" style="stroke:#181818;stroke-width:0.5;" width="4" x="436.4033" y="401.1094"/><text fill="#000000" font-family="sans-serif" font-size="14" lengthAdjust="spacing" textLength="38.9033" x="394.5" y="424.6426">SAGE</text></g><!--entity ERP--><g id="elem_ERP"><rect fill="#F1F1F1" height="47.6094" rx="2.5" ry="2.5" style="stroke:#181818;stroke-width:0.5;" width="103.7861" x="494" y="390.1094"/><rect fill="#F1F1F1" height="10" style="stroke:#181818;stroke-width:0.5;" width="15" x="577.7861" y="395.1094"/><rect fill="#F1F1F1" height="2" style="stroke:#181818;stroke-width:0.5;" width="4" x="575.7861" y="397.1094"/><rect fill="#F1F1F1" height="2" style="stroke:#181818;stroke-width:0.5;" width="4" x="575.7861" y="401.1094"/><text fill="#000000" font-family="sans-serif" font-size="14" lengthAdjust="spacing" textLength="63.7861" x="509" y="424.6426">MDE ERP</text></g><!--entity Tel--><g id="elem_Tel"><rect fill="#F1F1F1" height="47.6094" rx="2.5" ry="2.5" style="stroke:#181818;stroke-width:0.5;" width="209.292" x="135.5" y="390.1094"/><rect fill="#F1F1F1" height="10" style="stroke:#181818;stroke-width:0.5;" width="15" x="324.792" y="395.1094"/><rect fill="#F1F1F1" height="2" style="stroke:#181818;stroke-width:0.5;" width="4" x="322.792" y="397.1094"/><rect fill="#F1F1F1" height="2" style="stroke:#181818;stroke-width:0.5;" width="4" x="322.792" y="401.1094"/><text fill="#000000" font-family="sans-serif" font-size="14" lengthAdjust="spacing" textLength="169.292" x="150.5" y="424.6426">Standard T&#195;&#169;l&#195;&#169;phonique</text></g><!--entity Outlook--><g id="elem_Outlook"><rect fill="#F1F1F1" height="47.6094" rx="2.5" ry="2.5" style="stroke:#181818;stroke-width:0.5;" width="88.248" x="633" y="390.1094"/><rect fill="#F1F1F1" height="10" style="stroke:#181818;stroke-width:0.5;" width="15" x="701.248" y="395.1094"/><rect fill="#F1F1F1" height="2" style="stroke:#181818;stroke-width:0.5;" width="4" x="699.248" y="397.1094"/><rect fill="#F1F1F1" height="2" style="stroke:#181818;stroke-width:0.5;" width="4" x="699.248" y="401.1094"/><text fill="#000000" font-family="sans-serif" font-size="14" lengthAdjust="spacing" textLength="48.248" x="648" y="424.6426">Outlook</text></g><g id="elem_GMN43"><path d="M1812.5,215.1094 L1812.5,290.5156 L2009.2031,290.5156 L2009.2031,225.1094 L1999.2031,215.1094 L1812.5,215.1094 " fill="#FEFFDD" style="stroke:#181818;stroke-width:0.5;"/><path d="M1999.2031,215.1094 L1999.2031,225.1094 L2009.2031,225.1094 L1999.2031,215.1094 " fill="#FEFFDD" style="stroke:#181818;stroke-width:1;"/><text fill="#000000" font-family="sans-serif" font-size="13" lengthAdjust="spacing" textLength="26.73" x="1818.5" y="233.6045">&#240;&#376;&#8220;&#382;</text><text fill="#000000" font-family="sans-serif" font-size="13" font-weight="bold" lengthAdjust="spacing" textLength="145.3613" x="1848.8418" y="233.6045">Remont&#195;&#169;e Fiche Auto</text><text fill="#000000" font-family="sans-serif" font-size="13" lengthAdjust="spacing" textLength="95.9385" x="1818.5" y="249.9561">Appel entrant &#226;&#8224;&#8217;</text><text fill="#000000" font-family="sans-serif" font-size="13" lengthAdjust="spacing" textLength="106.1836" x="1818.5" y="266.3076">Recherche n&#194;&#176; &#226;&#8224;&#8217;</text><text fill="#000000" font-family="sans-serif" font-size="13" lengthAdjust="spacing" textLength="104.7744" x="1818.5" y="282.6592">Affiche fiche client</text></g><g id="elem_GMN46"><path d="M2044.5,223.1094 L2044.5,282.1641 L2245.9766,282.1641 L2245.9766,233.1094 L2235.9766,223.1094 L2044.5,223.1094 " fill="#FEFFDD" style="stroke:#181818;stroke-width:0.5;"/><path d="M2235.9766,223.1094 L2235.9766,233.1094 L2245.9766,233.1094 L2235.9766,223.1094 " fill="#FEFFDD" style="stroke:#181818;stroke-width:1;"/><text fill="#000000" font-family="sans-serif" font-size="13" lengthAdjust="spacing" textLength="24.5591" x="2050.5" y="241.6045">&#240;&#376;&#8221;&#8222;</text><text fill="#000000" font-family="sans-serif" font-size="13" font-weight="bold" lengthAdjust="spacing" textLength="132.2026" x="2078.6709" y="241.6045">Sync Bidirectionnelle</text><text fill="#000000" font-family="sans-serif" font-size="13" lengthAdjust="spacing" textLength="137.2617" x="2050.5" y="257.9561">Clients, Devis, Factures</text><text fill="#000000" font-family="sans-serif" font-size="13" lengthAdjust="spacing" textLength="180.4766" x="2050.5" y="274.3076">Temps r&#195;&#169;el + Batch quotidien</text></g><g id="elem_GMN49"><path d="M2280.5,215.1094 L2280.5,290.5156 L2461.3657,290.5156 L2461.3657,225.1094 L2451.3657,215.1094 L2280.5,215.1094 " fill="#FEFFDD" style="stroke:#181818;stroke-width:0.5;"/><path d="M2451.3657,215.1094 L2451.3657,225.1094 L2461.3657,225.1094 L2451.3657,215.1094 " fill="#FEFFDD" style="stroke:#181818;stroke-width:1;"/><text fill="#000000" font-family="sans-serif" font-size="13" lengthAdjust="spacing" textLength="27.46" x="2286.5" y="233.6045">&#240;&#376;&#164;-</text><text fill="#000000" font-family="sans-serif" font-size="13" font-weight="bold" lengthAdjust="spacing" textLength="91.7236" x="2317.5718" y="233.6045">3 Mod&#195;&#168;les ML</text><text fill="#000000" font-family="sans-serif" font-size="13" lengthAdjust="spacing" textLength="159.8657" x="2286.5" y="249.9561">- Pr&#195;&#169;vision volume appels</text><text fill="#000000" font-family="sans-serif" font-size="13" lengthAdjust="spacing" textLength="118.498" x="2286.5" y="266.3076">- Risque churn client</text><text fill="#000000" font-family="sans-serif" font-size="13" lengthAdjust="spacing" textLength="132.958" x="2286.5" y="282.6592">- Optimisation planning</text></g><g id="elem_GMN52"><path d="M1460.5,501.1094 L1460.5,592.8672 L1645.5234,592.8672 L1645.5234,511.1094 L1635.5234,501.1094 L1460.5,501.1094 " fill="#FEFFDD" style="stroke:#181818;stroke-width:0.5;"/><path d="M1635.5234,501.1094 L1635.5234,511.1094 L1645.5234,511.1094 L1635.5234,501.1094 " fill="#FEFFDD" style="stroke:#181818;stroke-width:1;"/><text fill="#000000" font-family="sans-serif" font-size="13" lengthAdjust="spacing" textLength="18.0591" x="1466.5" y="519.6045">&#226;&#353;&#161;</text><text fill="#000000" font-family="sans-serif" font-size="13" font-weight="bold" lengthAdjust="spacing" textLength="101.8418" x="1488.1709" y="519.6045">Automatisations</text><text fill="#000000" font-family="sans-serif" font-size="13" lengthAdjust="spacing" textLength="143.7998" x="1466.5" y="535.9561">- Relances automatiques</text><text fill="#000000" font-family="sans-serif" font-size="13" lengthAdjust="spacing" textLength="164.0234" x="1466.5" y="552.3076">- Questionnaires satisfaction</text><text fill="#000000" font-family="sans-serif" font-size="13" lengthAdjust="spacing" textLength="145.2153" x="1466.5" y="568.6592">- Notifications multi-canal</text><text fill="#000000" font-family="sans-serif" font-size="13" lengthAdjust="spacing" textLength="96.1035" x="1466.5" y="585.0107">- Escalades SLA</text></g><!--link PortailWeb to CRMCore--><g id="link_PortailWeb_CRMCore"><path d="M1214.74,276.7994 C1173.97,307.0394 1107.8989,356.0648 1067.1189,386.3148 " fill="none" id="PortailWeb-to-CRMCore" style="stroke:#181818;stroke-width:1;"/><polygon fill="#181818" points="1062.3,389.8894,1071.9115,387.7401,1066.3158,386.9105,1067.1453,381.3148,1062.3,389.8894" style="stroke:#181818;stroke-width:1;"/><text fill="#000000" font-family="sans-serif" font-size="13" lengthAdjust="spacing" textLength="59.2363" x="1152" y="334.6045">REST API</text></g><!--link AppMobile to CRMCore--><g id="link_AppMobile_CRMCore"><path d="M1396.9,276.6094 C1379.01,284.4594 1358.71,293.1394 1340,300.6094 C1251.06,336.1194 1151.6681,371.4315 1089.7981,392.9115 " fill="none" id="AppMobile-to-CRMCore" style="stroke:#181818;stroke-width:1;"/><polygon fill="#181818" points="1084.13,394.8794,1093.9441,395.7063,1088.8534,393.2395,1091.3203,388.1488,1084.13,394.8794" style="stroke:#181818;stroke-width:1;"/><text fill="#000000" font-family="sans-serif" font-size="13" lengthAdjust="spacing" textLength="78.0381" x="1290" y="334.6045">GraphQL API</text></g><!--link InterfaceClaire to CRMCore--><g id="link_InterfaceClaire_CRMCore"><path d="M1623.05,276.6994 C1602.67,285.0094 1579.01,293.9594 1557,300.6094 C1387.38,351.8594 1186.1505,387.966 1090.2905,403.726 " fill="none" id="InterfaceClaire-to-CRMCore" style="stroke:#181818;stroke-width:1;"/><polygon fill="#181818" points="1084.37,404.6994,1093.8997,407.1863,1089.3038,403.8882,1092.6019,399.2923,1084.37,404.6994" style="stroke:#181818;stroke-width:1;"/><text fill="#000000" font-family="sans-serif" font-size="13" lengthAdjust="spacing" textLength="88.8862" x="1487" y="334.6045">Interface native</text></g><!--link CRMCore to Ticketing--><g id="link_CRMCore_Ticketing"><path d="M1031,438.2294 C1031,462.0294 1031,492.9094 1031,516.7794 " fill="none" id="CRMCore-to-Ticketing" style="stroke:#181818;stroke-width:1;"/><polygon fill="#181818" points="1031,522.7794,1035,513.7794,1031,517.7794,1027,513.7794,1031,522.7794" style="stroke:#181818;stroke-width:1;"/></g><!--link CRMCore to Workflows--><g id="link_CRMCore_Workflows"><path d="M999.06,438.2294 C966.07,462.0994 919.76,495.6108 886.79,519.4808 " fill="none" id="CRMCore-to-Workflows" style="stroke:#181818;stroke-width:1;"/><polygon fill="#181818" points="881.93,522.9994,891.5657,520.9615,885.98,520.0672,886.8743,514.4815,881.93,522.9994" style="stroke:#181818;stroke-width:1;"/></g><!--link CRMCore to Analytics--><g id="link_CRMCore_Analytics"><path d="M1062.94,438.2294 C1095.93,462.0994 1142.24,495.6108 1175.21,519.4808 " fill="none" id="CRMCore-to-Analytics" style="stroke:#181818;stroke-width:1;"/><polygon fill="#181818" points="1180.07,522.9994,1175.1257,514.4815,1176.02,520.0672,1170.4343,520.9615,1180.07,522.9994" style="stroke:#181818;stroke-width:1;"/></g><!--link CRMCore to Chatbot--><g id="link_CRMCore_Chatbot"><path d="M1084.25,427.5594 C1140.05,441.6194 1229.52,467.0494 1302,501.1094 C1314.94,507.1894 1323.3471,511.9872 1334.9171,519.6472 " fill="none" id="CRMCore-to-Chatbot" style="stroke:#181818;stroke-width:1;"/><polygon fill="#181818" points="1339.92,522.9594,1334.6238,514.6558,1335.7509,520.1992,1330.2075,521.3263,1339.92,522.9594" style="stroke:#181818;stroke-width:1;"/></g><!--link CTI to Tel--><g id="link_CTI_Tel"><path d="M250.26,276.7994 C247.98,307.0394 244.469,353.6562 242.199,383.9062 " fill="none" id="CTI-to-Tel" style="stroke:#181818;stroke-width:1;"/><polygon fill="#181818" points="241.75,389.8894,246.4123,381.2139,242.1242,384.9034,238.4347,380.6153,241.75,389.8894" style="stroke:#181818;stroke-width:1;"/></g><!--link CTI to CRMCore--><g id="link_CTI_CRMCore"><path d="M280.88,276.7494 C308.39,297.2494 351.89,325.7794 395,338.1094 C431.55,348.5594 699.28,341.4194 737,346.1094 C822.46,356.7394 913.6993,379.762 972.1393,396.012 " fill="none" id="CTI-to-CRMCore" style="stroke:#181818;stroke-width:1;"/><polygon fill="#181818" points="977.92,397.6194,970.3206,391.3545,973.1028,396.2799,968.1774,399.0621,977.92,397.6194" style="stroke:#181818;stroke-width:1;"/><text fill="#000000" font-family="sans-serif" font-size="13" lengthAdjust="spacing" textLength="130.9839" x="396" y="334.6045">Remont&#195;&#169;e fiche auto</text></g><!--link SAGESync to SAGE--><g id="link_SAGESync_SAGE"><path d="M366.54,276.7094 C341.31,293.1794 317.48,316.2094 334,338.1094 C341.79,348.4394 351.12,339.0994 362,346.1094 C379.33,357.2694 390.7936,370.378 401.0036,384.928 " fill="none" id="SAGESync-to-SAGE" style="stroke:#181818;stroke-width:1;"/><polygon fill="#181818" points="404.45,389.8394,402.5546,380.1746,401.578,385.7465,396.0061,384.7699,404.45,389.8394" style="stroke:#181818;stroke-width:1;"/></g><!--link SAGESync to CRMCore--><g id="link_SAGESync_CRMCore"><path d="M442.51,276.6994 C455.32,285.0594 470.43,294.0394 485,300.6094 C538.66,324.7894 554.05,327.8294 612,338.1094 C666.81,347.8294 681.91,338.1194 737,346.1094 C822.23,358.4694 913.5244,381.0565 972.0444,396.7365 " fill="none" id="SAGESync-to-CRMCore" style="stroke:#181818;stroke-width:1;"/><polygon fill="#181818" points="977.84,398.2894,970.1819,392.0963,973.0104,396.9953,968.1114,399.8238,977.84,398.2894" style="stroke:#181818;stroke-width:1;"/><text fill="#000000" font-family="sans-serif" font-size="13" lengthAdjust="spacing" textLength="119.2344" x="613" y="334.6045">Sync bidirectionnelle</text></g><!--link EmailConn to Outlook--><g id="link_EmailConn_Outlook"><path d="M619.17,276.8094 C635.91,287.6994 653.37,302.2394 664,320.1094 C676.67,341.4094 678.9705,364.2001 678.6705,384.0801 " fill="none" id="EmailConn-to-Outlook" style="stroke:#181818;stroke-width:1;"/><polygon fill="#181818" points="678.58,390.0794,682.7153,381.1408,678.6554,385.0799,674.7163,381.02,678.58,390.0794" style="stroke:#181818;stroke-width:1;"/></g><!--link EmailConn to CRMCore--><g id="link_EmailConn_CRMCore"><path d="M626.99,276.6494 C645.55,284.5094 666.6,293.1794 686,300.6094 C787.78,339.5894 903.7996,375.547 972.0696,395.877 " fill="none" id="EmailConn-to-CRMCore" style="stroke:#181818;stroke-width:1;"/><polygon fill="#181818" points="977.82,397.5894,970.3359,391.1871,973.028,396.1624,968.0527,398.8544,977.82,397.5894" style="stroke:#181818;stroke-width:1;"/><text fill="#000000" font-family="sans-serif" font-size="13" lengthAdjust="spacing" textLength="78.0254" x="790" y="334.6045">Parsing mails</text></g><!--link CRMCore to DWH--><g id="link_CRMCore_DWH"><path d="M1032.25,389.9194 C1033.65,342.0194 1030.67,230.5994 979,158.6094 C970.15,146.2794 962.6423,139.4373 949.5423,131.6773 " fill="none" id="CRMCore-to-DWH" style="stroke:#181818;stroke-width:1;"/><polygon fill="#181818" points="944.38,128.6194,950.0848,136.6478,948.6819,131.1677,954.162,129.7648,944.38,128.6194" style="stroke:#181818;stroke-width:1;"/><text fill="#000000" font-family="sans-serif" font-size="13" lengthAdjust="spacing" textLength="102.083" x="1028" y="258.1045">Export donn&#195;&#169;es</text></g><!--link DWH to ML--><g id="link_DWH_ML"><path d="M867.21,128.6494 C858.96,137.8894 849.45,148.6794 841,158.6094 C820.99,182.1094 802.4802,204.8438 787.2402,223.7938 " fill="none" id="DWH-to-ML" style="stroke:#181818;stroke-width:1;"/><polygon fill="#181818" points="783.48,228.4694,792.2373,223.9628,786.6135,224.5731,786.0032,218.9492,783.48,228.4694" style="stroke:#181818;stroke-width:1;"/><text fill="#000000" font-family="sans-serif" font-size="13" lengthAdjust="spacing" textLength="46.9663" x="842" y="173.1045">Training</text></g><!--link ML to CRMCore--><g id="link_ML_CRMCore"><path d="M803.39,276.6294 C853.89,306.9094 936.9737,356.7346 987.4737,387.0046 " fill="none" id="ML-to-CRMCore" style="stroke:#181818;stroke-width:1;"/><polygon fill="#181818" points="992.62,390.0894,986.957,382.0314,988.3314,387.5188,982.8441,388.8932,992.62,390.0894" style="stroke:#181818;stroke-width:1;"/><text fill="#000000" font-family="sans-serif" font-size="13" lengthAdjust="spacing" textLength="75.3276" x="899" y="334.6045">Pr&#195;&#169;dictions</text></g><!--link DWH to PowerBI--><g id="link_DWH_PowerBI"><path d="M891.8,128.7394 C896.3,156.0794 902.758,195.3686 907.238,222.6586 " fill="none" id="DWH-to-PowerBI" style="stroke:#181818;stroke-width:1;"/><polygon fill="#181818" points="908.21,228.5794,910.6992,219.0503,907.4,223.6454,902.8049,220.3462,908.21,228.5794" style="stroke:#181818;stroke-width:1;"/><text fill="#000000" font-family="sans-serif" font-size="13" lengthAdjust="spacing" textLength="70.0972" x="900" y="173.1045">Dashboards</text></g><!--link CTI to GMN43--><g id="link_CTI_GMN43"><path d="M268.68,228.2994 C286.37,204.8794 316.67,170.9694 352.5,156.6094 C425.93,127.1694 1701.16,132.4794 1776.5,156.6094 C1812.56,168.1594 1847.2,193.3194 1872.29,214.9894 " fill="none" id="CTI-GMN43" style="stroke:#181818;stroke-width:1;stroke-dasharray:7.0,7.0;"/></g><!--link SAGESync to GMN46--><g id="link_SAGESync_GMN46"><path d="M424.89,228.3494 C440.81,204.9794 468.42,171.0994 502.5,156.6094 C579.55,123.8494 1929.72,131.2094 2009.5,156.6094 C2050.3,169.5994 2089.36,199.8194 2114.97,222.9094 " fill="none" id="SAGESync-GMN46" style="stroke:#181818;stroke-width:1;stroke-dasharray:7.0,7.0;"/></g><!--link ML to GMN49--><g id="link_ML_GMN49"><path d="M781.24,228.3094 C798.48,204.9094 828.11,170.9994 863.5,156.6094 C934.62,127.6794 2172.78,131.9894 2245.5,156.6094 C2279.8,168.2194 2312.09,193.3794 2335.33,215.0294 " fill="none" id="ML-GMN49" style="stroke:#181818;stroke-width:1;stroke-dasharray:7.0,7.0;"/></g><!--link Workflows to GMN52--><g id="link_Workflows_GMN52"><path d="M879.4,523.0494 C899.91,507.8894 928.67,489.6994 957.5,481.6094 C1007.35,467.6194 1373.13,469.5994 1423.5,481.6094 C1441.39,485.8794 1459.61,493.0394 1476.51,501.0894 " fill="none" id="Workflows-GMN52" style="stroke:#181818;stroke-width:1;stroke-dasharray:7.0,7.0;"/></g><!--SRC=[TLNDRjD04BxxAKOS41HouiO1AMdIDb828RRK0-AmSJRnglQksLstL0YfWgT00WI80znwvCIXKL-aJyBCh1qxaRWak_FxpUmtOwzyBg5lqqnvcVhAIZWqHMcSqDv13sAJLruP3R6qvof5RQwazb5KYlHCh2NSEx96UwcNz-1T1F1gPgmNAg_ju5GkNeDmK8lnIaRzieIfMIXCdSWqqof5OxP3JL2GsHW3svNWh48Xj0SdrI8kZN_8jbjrq4RlEwW6U41GM47j0eVpQGqHJrYabHm4BtGcUQBGnokzXlZIULcmVYiaYrDZprQvkO2HNYiT0ZGonuLfaLzwbRgknLR8oJFX5mXdt0_fmtK7EzQr-NZpUsq5TTurg9CnejOQNydOu9kCIH7tZqU8MASif1jTI3Cg-2Lsd5X68dQTnd0ilBmGby5v6kyW6Gelu3vC9pK6lfyAApDJkL3SyFI4DDC9pAnSgfGWis8w2NIua1O6uve4U1cCTr9Ggx7QNuL4R6-LyqIyEXtLiYsAimn7C9hFGY7p6TkWmrBO9IJKivn-oinezQOA-1APazcBokV6dB6eFXECbfRGwprho01FOJwA4-ZFnj6Ma7i6nrQKsSi9s-mHSS-oPR761psNKTJeoAxbLrVQagehROdKbJOKYeWX719BRiwTYcHX0h4ah5IQIH2LDr7K48RDkT4xaZO0YnPgYHNoAskPuvX6MqAnUTFRNMaRP2QiemaZjTlj13893KPlItmJMA8hOtKHoKcF57iAYHLAKxVmjXVPadtDmDQhvXmQ38NB5WQfWdcryHAiMcSUpAeUfCtrxP-xgy-tV-7WeDki8svM7vjrS81cI0YP0-usYqo5pO-xgsztLvzGCSTD9YtPwis7c-kkghyA7G-_QLYXj9u8npwQpWG7I5_khhuY9kx_OA__32diMlSOXl9SuT-Hu4rE-oQHHUc0MuEe7y50-3I3DvNn64Zg_uBWwQNqDpzxcFi9hkibZMakQR8vQwzkEQQa3yGvVYaA91Mrnx5whXnE8QHPPNLJDCbVb5uLol5sWp8NcX_qVqYw-tNpu_RxpNV4GwzHO80GnDLuvXA3fOXGr6fC7w2yn0FtZERJ0Rav74aIiVuvzWCV9qI3eigzwgK2nusr8vUAN2pHCPxqMw3_0000]--></g></svg>