<svg xmlns="http://www.w3.org/2000/svg" xmlns:xlink="http://www.w3.org/1999/xlink" contentStyleType="text/css" height="707px" preserveAspectRatio="none" style="width:868px;height:707px;background:#FFFFFF;" version="1.1" viewBox="0 0 868 707" width="868px" zoomAndPan="magnify"><title>Prise RDV - CIBLE (Portail Client Odoo)</title><defs/><g><text fill="#000000" font-family="sans-serif" font-size="14" font-weight="bold" lengthAdjust="spacing" textLength="262.1309" x="301.6277" y="34.5332">Prise RDV - CIBLE (Portail Client Odoo)</text><rect fill="none" height="22.6406" style="stroke:none;stroke-width:1;" width="835.3862" x="15" y="51.0645"/><ellipse cx="107.4561" cy="88.7051" fill="#222222" rx="10" ry="10" style="stroke:#222222;stroke-width:1;"/><rect fill="#F1F1F1" height="35.0938" rx="12.5" ry="12.5" style="stroke:#181818;stroke-width:0.5;" width="122.7148" x="46.0986" y="118.7051"/><text fill="#000000" font-family="sans-serif" font-size="12" lengthAdjust="spacing" textLength="102.7148" x="56.0986" y="141.1621">Ouvre Portail Odoo</text><path d="M213.9121,169.9941 L213.9121,187.3457 L193.9121,191.3457 L213.9121,195.3457 L213.9121,212.6973 A0,0 0 0 0 213.9121,212.6973 L475.7295,212.6973 A0,0 0 0 0 475.7295,212.6973 L475.7295,179.9941 L465.7295,169.9941 L213.9121,169.9941 A0,0 0 0 0 213.9121,169.9941 " fill="#FEFFDD" style="stroke:#181818;stroke-width:0.5;"/><path d="M465.7295,169.9941 L465.7295,179.9941 L475.7295,179.9941 L465.7295,169.9941 " fill="#FEFFDD" style="stroke:#181818;stroke-width:0.5;"/><text fill="#000000" font-family="sans-serif" font-size="13" font-weight="bold" lengthAdjust="spacing" textLength="152.623" x="219.9121" y="188.4893">Calendrier Temps R&#195;&#169;el</text><text fill="#000000" font-family="sans-serif" font-size="13" lengthAdjust="spacing" textLength="240.8174" x="219.9121" y="204.8408">Synchronis&#195;&#169; avec Planning Techniciens</text><rect fill="#F1F1F1" height="35.0938" rx="12.5" ry="12.5" style="stroke:#181818;stroke-width:0.5;" width="172.9121" x="21" y="173.7988"/><text fill="#000000" font-family="sans-serif" font-size="12" lengthAdjust="spacing" textLength="152.9121" x="31" y="196.2559">Consulte Cr&#195;&#169;neaux Dispos</text><rect fill="#F1F1F1" height="35.0938" rx="12.5" ry="12.5" style="stroke:#181818;stroke-width:0.5;" width="152.4219" x="31.2451" y="232.6973"/><text fill="#000000" font-family="sans-serif" font-size="12" lengthAdjust="spacing" textLength="132.4219" x="41.2451" y="255.1543">S&#195;&#169;lectionne Cr&#195;&#169;neau</text><rect fill="#F1F1F1" height="35.0938" rx="12.5" ry="12.5" style="stroke:#181818;stroke-width:0.5;" width="136.0156" x="39.4482" y="287.791"/><text fill="#000000" font-family="sans-serif" font-size="12" lengthAdjust="spacing" textLength="116.0156" x="49.4482" y="310.248">Confirme RDV (1 clic)</text><line style="stroke:#000000;stroke-width:1.5;" x1="15" x2="15" y1="51.0645" y2="695.4473"/><rect fill="#F1F1F1" height="35.0938" rx="12.5" ry="12.5" style="stroke:#181818;stroke-width:0.5;" width="166.9414" x="491.959" y="342.8848"/><text fill="#000000" font-family="sans-serif" font-size="12" lengthAdjust="spacing" textLength="146.9414" x="501.959" y="365.3418">Bloque Cr&#195;&#169;neau Planning</text><rect fill="#F1F1F1" height="35.0938" rx="12.5" ry="12.5" style="stroke:#181818;stroke-width:0.5;" width="154.7188" x="498.0703" y="397.9785"/><text fill="#000000" font-family="sans-serif" font-size="12" lengthAdjust="spacing" textLength="134.7188" x="508.0703" y="420.4355">Envoi Email Confirmation</text><rect fill="#F1F1F1" height="35.0938" rx="12.5" ry="12.5" style="stroke:#181818;stroke-width:0.5;" width="140.7207" x="505.0693" y="453.0723"/><text fill="#000000" font-family="sans-serif" font-size="12" lengthAdjust="spacing" textLength="120.7207" x="515.0693" y="475.5293">Envoi SMS Rappel J-1</text><rect fill="#F1F1F1" height="35.0938" rx="12.5" ry="12.5" style="stroke:#181818;stroke-width:0.5;" width="177.4004" x="486.7295" y="508.166"/><text fill="#000000" font-family="sans-serif" font-size="12" lengthAdjust="spacing" textLength="157.4004" x="496.7295" y="530.623">Notif Technicien (App Mobile)</text><line style="stroke:#000000;stroke-width:1.5;" x1="480.7295" x2="480.7295" y1="51.0645" y2="695.4473"/><rect fill="#F1F1F1" height="35.0938" rx="12.5" ry="12.5" style="stroke:#181818;stroke-width:0.5;" width="170.7559" x="674.1299" y="563.2598"/><text fill="#000000" font-family="sans-serif" font-size="12" lengthAdjust="spacing" textLength="150.7559" x="684.1299" y="585.7168">Re&#195;&#167;oit RDV dans Planning</text><rect fill="#F1F1F1" height="35.0938" rx="12.5" ry="12.5" style="stroke:#181818;stroke-width:0.5;" width="138.9043" x="690.0557" y="618.3535"/><text fill="#000000" font-family="sans-serif" font-size="12" lengthAdjust="spacing" textLength="118.9043" x="700.0557" y="640.8105">Pr&#195;&#169;pare Intervention</text><ellipse cx="759.5078" cy="684.4473" fill="none" rx="11" ry="11" style="stroke:#222222;stroke-width:1;"/><ellipse cx="759.5078" cy="684.4473" fill="#222222" rx="6" ry="6" style="stroke:#222222;stroke-width:1;"/><line style="stroke:#000000;stroke-width:1.5;" x1="668.1299" x2="668.1299" y1="51.0645" y2="695.4473"/><line style="stroke:#000000;stroke-width:1.5;" x1="848.8857" x2="848.8857" y1="51.0645" y2="695.4473"/><line style="stroke:#181818;stroke-width:1;" x1="107.4561" x2="107.4561" y1="98.7051" y2="118.7051"/><polygon fill="#181818" points="103.4561,108.7051,107.4561,118.7051,111.4561,108.7051,107.4561,112.7051" style="stroke:#181818;stroke-width:1;"/><line style="stroke:#181818;stroke-width:1;" x1="107.4561" x2="107.4561" y1="153.7988" y2="173.7988"/><polygon fill="#181818" points="103.4561,163.7988,107.4561,173.7988,111.4561,163.7988,107.4561,167.7988" style="stroke:#181818;stroke-width:1;"/><line style="stroke:#181818;stroke-width:1;" x1="107.4561" x2="107.4561" y1="208.8926" y2="232.6973"/><polygon fill="#181818" points="103.4561,222.6973,107.4561,232.6973,111.4561,222.6973,107.4561,226.6973" style="stroke:#181818;stroke-width:1;"/><line style="stroke:#181818;stroke-width:1;" x1="107.4561" x2="107.4561" y1="267.791" y2="287.791"/><polygon fill="#181818" points="103.4561,277.791,107.4561,287.791,111.4561,277.791,107.4561,281.791" style="stroke:#181818;stroke-width:1;"/><line style="stroke:#181818;stroke-width:1;" x1="575.4297" x2="575.4297" y1="377.9785" y2="397.9785"/><polygon fill="#181818" points="571.4297,387.9785,575.4297,397.9785,579.4297,387.9785,575.4297,391.9785" style="stroke:#181818;stroke-width:1;"/><line style="stroke:#181818;stroke-width:1;" x1="575.4297" x2="575.4297" y1="433.0723" y2="453.0723"/><polygon fill="#181818" points="571.4297,443.0723,575.4297,453.0723,579.4297,443.0723,575.4297,447.0723" style="stroke:#181818;stroke-width:1;"/><line style="stroke:#181818;stroke-width:1;" x1="575.4297" x2="575.4297" y1="488.166" y2="508.166"/><polygon fill="#181818" points="571.4297,498.166,575.4297,508.166,579.4297,498.166,575.4297,502.166" style="stroke:#181818;stroke-width:1;"/><line style="stroke:#181818;stroke-width:1;" x1="759.5078" x2="759.5078" y1="598.3535" y2="618.3535"/><polygon fill="#181818" points="755.5078,608.3535,759.5078,618.3535,763.5078,608.3535,759.5078,612.3535" style="stroke:#181818;stroke-width:1;"/><line style="stroke:#181818;stroke-width:1;" x1="759.5078" x2="759.5078" y1="653.4473" y2="673.4473"/><polygon fill="#181818" points="755.5078,663.4473,759.5078,673.4473,763.5078,663.4473,759.5078,667.4473" style="stroke:#181818;stroke-width:1;"/><line style="stroke:#181818;stroke-width:1;" x1="107.4561" x2="107.4561" y1="322.8848" y2="327.8848"/><line style="stroke:#181818;stroke-width:1;" x1="107.4561" x2="575.4297" y1="327.8848" y2="327.8848"/><line style="stroke:#181818;stroke-width:1;" x1="575.4297" x2="575.4297" y1="327.8848" y2="342.8848"/><polygon fill="#181818" points="571.4297,332.8848,575.4297,342.8848,579.4297,332.8848,575.4297,336.8848" style="stroke:#181818;stroke-width:1;"/><line style="stroke:#181818;stroke-width:1;" x1="575.4297" x2="575.4297" y1="543.2598" y2="548.2598"/><line style="stroke:#181818;stroke-width:1;" x1="575.4297" x2="759.5078" y1="548.2598" y2="548.2598"/><line style="stroke:#181818;stroke-width:1;" x1="759.5078" x2="759.5078" y1="548.2598" y2="563.2598"/><polygon fill="#181818" points="755.5078,553.2598,759.5078,563.2598,763.5078,553.2598,759.5078,557.2598" style="stroke:#181818;stroke-width:1;"/><text fill="#000000" font-family="sans-serif" font-size="18" lengthAdjust="spacing" textLength="46.0195" x="224.855" y="69.75">Client</text><text fill="#000000" font-family="sans-serif" font-size="18" lengthAdjust="spacing" textLength="131.0449" x="508.9072" y="69.75">Systeme (Odoo)</text><text fill="#000000" font-family="sans-serif" font-size="18" lengthAdjust="spacing" textLength="163.0811" x="676.9673" y="69.75">Technicien (Gaetan)</text><!--SRC=[JP71JiCm38RlUGeVkqexSErEh9lG46DLYxY7pDiiPKv8t8f9k_4mYDU05oDjqTHZ_F_-_JaM4ejG1Oe8zUeLvb1kbazho2eNH9E5qXAom6xlt4ofw_YygYWwY2fsRHTI-x-tDorKKJgEhHM4Cln-_dmpwlO3LXIzYml5BWc1ZYTH07bUQeky3uG1Nl3i8zHz2zeyJt9pONCAZYdsHT0T6gYiPYO-9hivCPc44rMAW3vOgQBfhHQDa6EU8enW1mhdSTFi3embCrkahPfB54prR5ZpgegbTU_jjFisDyMikNC4w_FmFMEaxiVTf6RRGAszHmkFyxjKVdP2XmanPFVUmzQzaSK1O2ezQ1JDFKMDQVoN8nc0zvhZ5ACQuBnE1zYmOEZIOGQAACwhFm00]--></g></svg>