<svg xmlns="http://www.w3.org/2000/svg" xmlns:xlink="http://www.w3.org/1999/xlink" contentStyleType="text/css" height="1459px" preserveAspectRatio="none" style="width:1191px;height:1459px;background:#FFFFFF;" version="1.1" viewBox="0 0 1191 1459" width="1191px" zoomAndPan="magnify"><title>Processus Commande Mat&#195;&#169;riel - CIBLE (ODOO + RFID)</title><defs/><g><text fill="#000000" font-family="sans-serif" font-size="14" font-weight="bold" lengthAdjust="spacing" textLength="379.4355" x="401.8203" y="29.5332">Processus Commande Mat&#195;&#169;riel - CIBLE (ODOO + RFID)</text><rect fill="#FFFFFF" height="91.0547" style="stroke:#181818;stroke-width:1;" width="10" x="324.4941" y="268.2344"/><rect fill="#FFFFFF" height="30.3516" style="stroke:#181818;stroke-width:1;" width="10" x="608.3208" y="458.6953"/><rect fill="#FFFFFF" height="83.0547" style="stroke:#181818;stroke-width:1;" width="10" x="608.3208" y="616.4531"/><rect fill="#FFFFFF" height="73.7031" style="stroke:#181818;stroke-width:1;" width="10" x="608.3208" y="948.3203"/><rect fill="#FFFFFF" height="143.7578" style="stroke:#181818;stroke-width:1;" width="10" x="841.6519" y="804.5625"/><line style="stroke:#181818;stroke-width:0.5;stroke-dasharray:5.0,5.0;" x1="73" x2="73" y1="138.8281" y2="1360.2422"/><line style="stroke:#181818;stroke-width:0.5;stroke-dasharray:5.0,5.0;" x1="163.7031" x2="163.7031" y1="138.8281" y2="1360.2422"/><line style="stroke:#181818;stroke-width:0.5;stroke-dasharray:5.0,5.0;" x1="237.8271" x2="237.8271" y1="138.8281" y2="1360.2422"/><line style="stroke:#181818;stroke-width:0.5;stroke-dasharray:5.0,5.0;" x1="328.5908" x2="328.5908" y1="138.8281" y2="1360.2422"/><line style="stroke:#181818;stroke-width:0.5;stroke-dasharray:5.0,5.0;" x1="612.8071" x2="612.8071" y1="138.8281" y2="1360.2422"/><line style="stroke:#181818;stroke-width:0.5;stroke-dasharray:5.0,5.0;" x1="846.1797" x2="846.1797" y1="138.8281" y2="1360.2422"/><line style="stroke:#181818;stroke-width:0.5;stroke-dasharray:5.0,5.0;" x1="975.124" x2="975.124" y1="138.8281" y2="1360.2422"/><text fill="#000000" font-family="sans-serif" font-size="14" lengthAdjust="spacing" textLength="31.1104" x="55.2964" y="118.1426">Marc</text><text fill="#000000" font-family="sans-serif" font-size="14" lengthAdjust="spacing" textLength="95.7031" x="23" y="135.752">(Chef Chantier)</text><ellipse cx="73.8516" cy="52.1094" fill="#FFB6C1" rx="8" ry="8" style="stroke:#181818;stroke-width:0.5;"/><path d="M73.8516,60.1094 L73.8516,87.1094 M60.8516,68.1094 L86.8516,68.1094 M73.8516,87.1094 L60.8516,102.1094 M73.8516,87.1094 L86.8516,102.1094 " fill="none" style="stroke:#181818;stroke-width:0.5;"/><text fill="#000000" font-family="sans-serif" font-size="14" lengthAdjust="spacing" textLength="31.1104" x="55.2964" y="1373.7754">Marc</text><text fill="#000000" font-family="sans-serif" font-size="14" lengthAdjust="spacing" textLength="95.7031" x="23" y="1391.3848">(Chef Chantier)</text><ellipse cx="73.8516" cy="1402.9609" fill="#FFB6C1" rx="8" ry="8" style="stroke:#181818;stroke-width:0.5;"/><path d="M73.8516,1410.9609 L73.8516,1437.9609 M60.8516,1418.9609 L86.8516,1418.9609 M73.8516,1437.9609 L60.8516,1452.9609 M73.8516,1437.9609 L86.8516,1452.9609 " fill="none" style="stroke:#181818;stroke-width:0.5;"/><text fill="#000000" font-family="sans-serif" font-size="14" lengthAdjust="spacing" textLength="37.3447" x="142.0928" y="118.1426">Sylvie</text><text fill="#000000" font-family="sans-serif" font-size="14" lengthAdjust="spacing" textLength="52.124" x="134.7031" y="135.752">(Achats)</text><ellipse cx="163.7651" cy="52.1094" fill="#ADD8E6" rx="8" ry="8" style="stroke:#181818;stroke-width:0.5;"/><path d="M163.7651,60.1094 L163.7651,87.1094 M150.7651,68.1094 L176.7651,68.1094 M163.7651,87.1094 L150.7651,102.1094 M163.7651,87.1094 L176.7651,102.1094 " fill="none" style="stroke:#181818;stroke-width:0.5;"/><text fill="#000000" font-family="sans-serif" font-size="14" lengthAdjust="spacing" textLength="37.3447" x="142.0928" y="1373.7754">Sylvie</text><text fill="#000000" font-family="sans-serif" font-size="14" lengthAdjust="spacing" textLength="52.124" x="134.7031" y="1391.3848">(Achats)</text><ellipse cx="163.7651" cy="1402.9609" fill="#ADD8E6" rx="8" ry="8" style="stroke:#181818;stroke-width:0.5;"/><path d="M163.7651,1410.9609 L163.7651,1437.9609 M150.7651,1418.9609 L176.7651,1418.9609 M163.7651,1437.9609 L150.7651,1452.9609 M163.7651,1437.9609 L176.7651,1452.9609 " fill="none" style="stroke:#181818;stroke-width:0.5;"/><text fill="#000000" font-family="sans-serif" font-size="14" lengthAdjust="spacing" textLength="41.0498" x="214.6841" y="118.1426">&#195;&#8240;ric</text><text fill="#000000" font-family="sans-serif" font-size="14" lengthAdjust="spacing" textLength="64.7637" x="202.8271" y="135.752">(D&#195;&#169;p&#195;&#180;t)</text><ellipse cx="238.209" cy="52.1094" fill="#98FB98" rx="8" ry="8" style="stroke:#181818;stroke-width:0.5;"/><path d="M238.209,60.1094 L238.209,87.1094 M225.209,68.1094 L251.209,68.1094 M238.209,87.1094 L225.209,102.1094 M238.209,87.1094 L251.209,102.1094 " fill="none" style="stroke:#181818;stroke-width:0.5;"/><text fill="#000000" font-family="sans-serif" font-size="14" lengthAdjust="spacing" textLength="41.0498" x="214.6841" y="1373.7754">&#195;&#8240;ric</text><text fill="#000000" font-family="sans-serif" font-size="14" lengthAdjust="spacing" textLength="64.7637" x="202.8271" y="1391.3848">(D&#195;&#169;p&#195;&#180;t)</text><ellipse cx="238.209" cy="1402.9609" fill="#98FB98" rx="8" ry="8" style="stroke:#181818;stroke-width:0.5;"/><path d="M238.209,1410.9609 L238.209,1437.9609 M225.209,1418.9609 L251.209,1418.9609 M238.209,1437.9609 L225.209,1452.9609 M238.209,1437.9609 L251.209,1452.9609 " fill="none" style="stroke:#181818;stroke-width:0.5;"/><rect fill="#90EE90" height="49.2188" rx="2.5" ry="2.5" style="stroke:#181818;stroke-width:0.5;" width="91.8066" x="283.5908" y="88.6094"/><text fill="#000000" font-family="sans-serif" font-size="14" lengthAdjust="spacing" textLength="70.041" x="294.4736" y="110.1426">App Mobile</text><text fill="#000000" font-family="sans-serif" font-size="14" lengthAdjust="spacing" textLength="77.8066" x="290.5908" y="127.752">(Odoo Field)</text><rect fill="#90EE90" height="49.2188" rx="2.5" ry="2.5" style="stroke:#181818;stroke-width:0.5;" width="91.8066" x="283.5908" y="1359.2422"/><text fill="#000000" font-family="sans-serif" font-size="14" lengthAdjust="spacing" textLength="70.041" x="294.4736" y="1380.7754">App Mobile</text><text fill="#000000" font-family="sans-serif" font-size="14" lengthAdjust="spacing" textLength="77.8066" x="290.5908" y="1398.3848">(Odoo Field)</text><rect fill="#87CEEB" height="49.2188" rx="2.5" ry="2.5" style="stroke:#181818;stroke-width:0.5;" width="105.0273" x="560.8071" y="88.6094"/><text fill="#000000" font-family="sans-serif" font-size="14" lengthAdjust="spacing" textLength="66.9238" x="579.8589" y="110.1426">Odoo ERP</text><text fill="#000000" font-family="sans-serif" font-size="14" lengthAdjust="spacing" textLength="91.0273" x="567.8071" y="127.752">(Achats/Stock)</text><rect fill="#87CEEB" height="49.2188" rx="2.5" ry="2.5" style="stroke:#181818;stroke-width:0.5;" width="105.0273" x="560.8071" y="1359.2422"/><text fill="#000000" font-family="sans-serif" font-size="14" lengthAdjust="spacing" textLength="66.9238" x="579.8589" y="1380.7754">Odoo ERP</text><text fill="#000000" font-family="sans-serif" font-size="14" lengthAdjust="spacing" textLength="91.0273" x="567.8071" y="1398.3848">(Achats/Stock)</text><rect fill="#FFA500" height="49.2188" rx="2.5" ry="2.5" style="stroke:#181818;stroke-width:0.5;" width="122.9443" x="785.1797" y="88.6094"/><text fill="#000000" font-family="sans-serif" font-size="14" lengthAdjust="spacing" textLength="88.6963" x="802.3037" y="110.1426">Scanner RFID</text><text fill="#000000" font-family="sans-serif" font-size="14" lengthAdjust="spacing" textLength="108.9443" x="792.1797" y="127.752">(Odoo Inventaire)</text><rect fill="#FFA500" height="49.2188" rx="2.5" ry="2.5" style="stroke:#181818;stroke-width:0.5;" width="122.9443" x="785.1797" y="1359.2422"/><text fill="#000000" font-family="sans-serif" font-size="14" lengthAdjust="spacing" textLength="88.6963" x="802.3037" y="1380.7754">Scanner RFID</text><text fill="#000000" font-family="sans-serif" font-size="14" lengthAdjust="spacing" textLength="108.9443" x="792.1797" y="1398.3848">(Odoo Inventaire)</text><rect fill="#E2E2F0" height="49.2188" rx="2.5" ry="2.5" style="stroke:#181818;stroke-width:0.5;" width="115.9375" x="918.124" y="88.6094"/><text fill="#000000" font-family="sans-serif" font-size="14" lengthAdjust="spacing" textLength="73.917" x="939.1343" y="110.1426">Fournisseur</text><text fill="#000000" font-family="sans-serif" font-size="14" lengthAdjust="spacing" textLength="101.9375" x="925.124" y="127.752">(Rexel/Sonepar)</text><rect fill="#E2E2F0" height="49.2188" rx="2.5" ry="2.5" style="stroke:#181818;stroke-width:0.5;" width="115.9375" x="918.124" y="1359.2422"/><text fill="#000000" font-family="sans-serif" font-size="14" lengthAdjust="spacing" textLength="73.917" x="939.1343" y="1380.7754">Fournisseur</text><text fill="#000000" font-family="sans-serif" font-size="14" lengthAdjust="spacing" textLength="101.9375" x="925.124" y="1398.3848">(Rexel/Sonepar)</text><rect fill="#FFFFFF" height="91.0547" style="stroke:#181818;stroke-width:1;" width="10" x="324.4941" y="268.2344"/><rect fill="#FFFFFF" height="30.3516" style="stroke:#181818;stroke-width:1;" width="10" x="608.3208" y="458.6953"/><rect fill="#FFFFFF" height="83.0547" style="stroke:#181818;stroke-width:1;" width="10" x="608.3208" y="616.4531"/><rect fill="#FFFFFF" height="73.7031" style="stroke:#181818;stroke-width:1;" width="10" x="608.3208" y="948.3203"/><rect fill="#FFFFFF" height="143.7578" style="stroke:#181818;stroke-width:1;" width="10" x="841.6519" y="804.5625"/><rect fill="#EEEEEE" height="3" style="stroke:#EEEEEE;stroke-width:1;" width="1184.0762" x="0" y="170.0039"/><line style="stroke:#000000;stroke-width:1;" x1="0" x2="1184.0762" y1="170.0039" y2="170.0039"/><line style="stroke:#000000;stroke-width:1;" x1="0" x2="1184.0762" y1="173.0039" y2="173.0039"/><rect fill="#EEEEEE" height="24.3516" style="stroke:#000000;stroke-width:2;" width="144.7427" x="519.6667" y="158.8281"/><text fill="#000000" font-family="sans-serif" font-size="13" font-weight="bold" lengthAdjust="spacing" textLength="127.1309" x="525.6667" y="176.3232">JOUR 1 - Lundi 9h00</text><path d="M5,198.1797 L5,240.1797 L144,240.1797 L144,208.1797 L134,198.1797 L5,198.1797 " fill="#E0F7FA" style="stroke:#181818;stroke-width:0.5;"/><path d="M134,198.1797 L134,208.1797 L144,208.1797 L134,198.1797 " fill="#E0F7FA" style="stroke:#181818;stroke-width:0.5;"/><text fill="#000000" font-family="sans-serif" font-size="13" font-weight="bold" lengthAdjust="spacing" textLength="108.5259" x="11" y="216.6748">Besoin identifi&#195;&#169;</text><text fill="#000000" font-family="sans-serif" font-size="13" lengthAdjust="spacing" textLength="118.5044" x="11" y="233.0264">C&#195;&#162;ble 3G2.5 - 50m</text><polygon fill="#181818" points="312.4941,264.2344,322.4941,268.2344,312.4941,272.2344,316.4941,268.2344" style="stroke:#181818;stroke-width:1;"/><line style="stroke:#181818;stroke-width:1;" x1="73.8516" x2="318.4941" y1="268.2344" y2="268.2344"/><text fill="#000000" font-family="sans-serif" font-size="13" lengthAdjust="spacing" textLength="190.9629" x="80.8516" y="263.3779">&#240;&#376;&#8221;&#65533; Recherche "C&#195;&#162;ble 3G2.5"</text><polygon fill="#181818" points="601.3208,294.5859,611.3208,298.5859,601.3208,302.5859,605.3208,298.5859" style="stroke:#181818;stroke-width:1;"/><line style="stroke:#181818;stroke-width:1;" x1="334.4941" x2="607.3208" y1="298.5859" y2="298.5859"/><text fill="#000000" font-family="sans-serif" font-size="13" lengthAdjust="spacing" textLength="157.6821" x="341.4941" y="293.7295">Check Stock Temps R&#195;&#169;el</text><polygon fill="#181818" points="345.4941,324.9375,335.4941,328.9375,345.4941,332.9375,341.4941,328.9375" style="stroke:#181818;stroke-width:1;"/><line style="stroke:#181818;stroke-width:1;stroke-dasharray:2.0,2.0;" x1="339.4941" x2="612.3208" y1="328.9375" y2="328.9375"/><text fill="#000000" font-family="sans-serif" font-size="13" lengthAdjust="spacing" textLength="254.8267" x="351.4941" y="324.0811">"Stock D&#195;&#169;p&#195;&#180;t: 0 | Dispo Fournisseur: Oui"</text><polygon fill="#181818" points="84.8516,355.2891,74.8516,359.2891,84.8516,363.2891,80.8516,359.2891" style="stroke:#181818;stroke-width:1;"/><line style="stroke:#181818;stroke-width:1;stroke-dasharray:2.0,2.0;" x1="78.8516" x2="328.4941" y1="359.2891" y2="359.2891"/><text fill="#000000" font-family="sans-serif" font-size="13" lengthAdjust="spacing" textLength="158.793" x="90.8516" y="354.4326">Affiche r&#195;&#169;sultats + Photos</text><polygon fill="#181818" points="317.4941,404.9922,327.4941,408.9922,317.4941,412.9922,321.4941,408.9922" style="stroke:#181818;stroke-width:1;"/><line style="stroke:#181818;stroke-width:1;" x1="73.8516" x2="323.4941" y1="408.9922" y2="408.9922"/><text fill="#000000" font-family="sans-serif" font-size="13" lengthAdjust="spacing" textLength="173.2212" x="80.8516" y="404.1357">&#240;&#376;&#8250;&#8217; Ajoute au panier &amp; Valide</text><path d="M334,372.2891 L334,431.2891 L581,431.2891 L581,382.2891 L571,372.2891 L334,372.2891 " fill="#90EE90" style="stroke:#181818;stroke-width:0.5;"/><path d="M571,372.2891 L571,382.2891 L581,382.2891 L571,372.2891 " fill="#90EE90" style="stroke:#181818;stroke-width:0.5;"/><text fill="#000000" font-family="sans-serif" font-size="13" lengthAdjust="spacing" textLength="29.0278" x="340" y="390.7842">&#226;&#339;&#8230;</text><text fill="#000000" font-family="sans-serif" font-size="13" font-weight="bold" lengthAdjust="spacing" textLength="103.5112" x="372.6396" y="390.7842">Z&#195;&#169;ro Ressaisie</text><text fill="#000000" font-family="sans-serif" font-size="13" lengthAdjust="spacing" textLength="226.021" x="340" y="407.1357">R&#195;&#169;f&#195;&#169;rence unique &amp; standardis&#195;&#169;e</text><text fill="#000000" font-family="sans-serif" font-size="13" lengthAdjust="spacing" textLength="119.1392" x="340" y="423.4873">&#226;&#65533;&#177;&#239;&#184;&#65533; 30 secondes</text><polygon fill="#181818" points="596.3208,454.6953,606.3208,458.6953,596.3208,462.6953,600.3208,458.6953" style="stroke:#181818;stroke-width:1;"/><line style="stroke:#181818;stroke-width:1;" x1="329.4941" x2="602.3208" y1="458.6953" y2="458.6953"/><text fill="#000000" font-family="sans-serif" font-size="13" lengthAdjust="spacing" textLength="187.3193" x="336.4941" y="453.8389">Cr&#195;&#169;ation Demande Achat (DA)</text><polygon fill="#181818" points="174.7651,485.0469,164.7651,489.0469,174.7651,493.0469,170.7651,489.0469" style="stroke:#181818;stroke-width:1;"/><line style="stroke:#181818;stroke-width:1;" x1="168.7651" x2="612.3208" y1="489.0469" y2="489.0469"/><text fill="#000000" font-family="sans-serif" font-size="13" lengthAdjust="spacing" textLength="228.1475" x="180.7651" y="484.1904">&#240;&#376;&#8221;&#8221; Notification "Nouvelle DA de Marc"</text><rect fill="#EEEEEE" height="3" style="stroke:#EEEEEE;stroke-width:1;" width="1184.0762" x="0" y="518.2227"/><line style="stroke:#000000;stroke-width:1;" x1="0" x2="1184.0762" y1="518.2227" y2="518.2227"/><line style="stroke:#000000;stroke-width:1;" x1="0" x2="1184.0762" y1="521.2227" y2="521.2227"/><rect fill="#EEEEEE" height="24.3516" style="stroke:#000000;stroke-width:2;" width="121.6309" x="531.2227" y="507.0469"/><text fill="#000000" font-family="sans-serif" font-size="13" font-weight="bold" lengthAdjust="spacing" textLength="104.019" x="537.2227" y="524.542">Validation (9h05)</text><polygon fill="#181818" points="601.3208,570.9258,611.3208,574.9258,601.3208,578.9258,605.3208,574.9258" style="stroke:#181818;stroke-width:1;"/><line style="stroke:#181818;stroke-width:1;" x1="163.7651" x2="607.3208" y1="574.9258" y2="574.9258"/><text fill="#000000" font-family="sans-serif" font-size="13" lengthAdjust="spacing" textLength="72.979" x="170.7651" y="570.0693">Consulte DA</text><path d="M618,546.3984 L618,588.3984 L788,588.3984 L788,556.3984 L778,546.3984 L618,546.3984 " fill="#ADD8E6" style="stroke:#181818;stroke-width:0.5;"/><path d="M778,546.3984 L778,556.3984 L788,556.3984 L778,546.3984 " fill="#ADD8E6" style="stroke:#181818;stroke-width:0.5;"/><text fill="#000000" font-family="sans-serif" font-size="13" lengthAdjust="spacing" textLength="29.0278" x="624" y="564.8936">&#226;&#339;&#8230;</text><text fill="#000000" font-family="sans-serif" font-size="13" font-weight="bold" lengthAdjust="spacing" textLength="100.4136" x="656.6396" y="564.8936">Validation 1 Clic</text><text fill="#000000" font-family="sans-serif" font-size="13" lengthAdjust="spacing" textLength="149.1763" x="624" y="581.2451">Prix &amp; R&#195;&#169;f pr&#195;&#169;-remplis</text><polygon fill="#181818" points="596.3208,612.4531,606.3208,616.4531,596.3208,620.4531,600.3208,616.4531" style="stroke:#181818;stroke-width:1;"/><line style="stroke:#181818;stroke-width:1;" x1="163.7651" x2="602.3208" y1="616.4531" y2="616.4531"/><text fill="#000000" font-family="sans-serif" font-size="13" lengthAdjust="spacing" textLength="106.9453" x="170.7651" y="611.5967">Valide Commande</text><polygon fill="#181818" points="964.0928,653.9805,974.0928,657.9805,964.0928,661.9805,968.0928,657.9805" style="stroke:#181818;stroke-width:1;"/><line style="stroke:#181818;stroke-width:1;" x1="618.3208" x2="970.0928" y1="657.9805" y2="657.9805"/><text fill="#000000" font-family="sans-serif" font-size="13" lengthAdjust="spacing" textLength="203.7407" x="625.3208" y="653.124">&#240;&#376;&#8220;&#167; Envoi Commande (Email/API)</text><path d="M981,629.4531 L981,671.4531 L1173,671.4531 L1173,639.4531 L1163,629.4531 L981,629.4531 " fill="#87CEEB" style="stroke:#181818;stroke-width:0.5;"/><path d="M1163,629.4531 L1163,639.4531 L1173,639.4531 L1163,629.4531 " fill="#87CEEB" style="stroke:#181818;stroke-width:0.5;"/><text fill="#000000" font-family="sans-serif" font-size="13" lengthAdjust="spacing" textLength="29.0278" x="987" y="647.9482">&#226;&#339;&#8230;</text><text fill="#000000" font-family="sans-serif" font-size="13" font-weight="bold" lengthAdjust="spacing" textLength="79.4409" x="1019.6396" y="647.9482">Automatique</text><text fill="#000000" font-family="sans-serif" font-size="13" lengthAdjust="spacing" textLength="171.9834" x="987" y="664.2998">PDF g&#195;&#169;n&#195;&#169;r&#195;&#169; &amp; envoy&#195;&#169;</text><polygon fill="#181818" points="84.8516,695.5078,74.8516,699.5078,84.8516,703.5078,80.8516,699.5078" style="stroke:#181818;stroke-width:1;"/><line style="stroke:#181818;stroke-width:1;stroke-dasharray:2.0,2.0;" x1="78.8516" x2="612.3208" y1="699.5078" y2="699.5078"/><text fill="#000000" font-family="sans-serif" font-size="13" lengthAdjust="spacing" textLength="283.2261" x="90.8516" y="694.6514">&#240;&#376;&#8221;&#8221; Notif "Commande Valid&#195;&#169;e - Livr. Mercredi"</text><rect fill="#EEEEEE" height="3" style="stroke:#EEEEEE;stroke-width:1;" width="1184.0762" x="0" y="728.6836"/><line style="stroke:#000000;stroke-width:1;" x1="0" x2="1184.0762" y1="728.6836" y2="728.6836"/><line style="stroke:#000000;stroke-width:1;" x1="0" x2="1184.0762" y1="731.6836" y2="731.6836"/><rect fill="#EEEEEE" height="24.3516" style="stroke:#000000;stroke-width:2;" width="163.5571" x="510.2595" y="717.5078"/><text fill="#000000" font-family="sans-serif" font-size="13" font-weight="bold" lengthAdjust="spacing" textLength="145.9453" x="516.2595" y="735.0029">JOUR 3 - Mercredi 8h00</text><polygon fill="#181818" points="249.209,770.2109,239.209,774.2109,249.209,778.2109,245.209,774.2109" style="stroke:#181818;stroke-width:1;"/><line style="stroke:#181818;stroke-width:1;" x1="243.209" x2="975.0928" y1="774.2109" y2="774.2109"/><text fill="#000000" font-family="sans-serif" font-size="13" lengthAdjust="spacing" textLength="132.9453" x="255.209" y="769.3545">&#240;&#376;&#353;&#353; Livraison Camion</text><polygon fill="#181818" points="829.6519,800.5625,839.6519,804.5625,829.6519,808.5625,833.6519,804.5625" style="stroke:#181818;stroke-width:1;"/><line style="stroke:#181818;stroke-width:1;" x1="238.209" x2="835.6519" y1="804.5625" y2="804.5625"/><text fill="#000000" font-family="sans-serif" font-size="13" lengthAdjust="spacing" textLength="158.9771" x="245.209" y="799.7061">&#240;&#376;&#8221;&#171; Scanne Colis / Palette</text><polygon fill="#181818" points="624.3208,830.9141,614.3208,834.9141,624.3208,838.9141,620.3208,834.9141" style="stroke:#181818;stroke-width:1;"/><line style="stroke:#181818;stroke-width:1;" x1="618.3208" x2="840.6519" y1="834.9141" y2="834.9141"/><text fill="#000000" font-family="sans-serif" font-size="13" lengthAdjust="spacing" textLength="146.1611" x="630.3208" y="830.0576">Identification R&#195;&#169;ception</text><polygon fill="#181818" points="829.6519,872.4414,839.6519,876.4414,829.6519,880.4414,833.6519,876.4414" style="stroke:#181818;stroke-width:1;"/><line style="stroke:#181818;stroke-width:1;stroke-dasharray:2.0,2.0;" x1="613.3208" x2="835.6519" y1="876.4414" y2="876.4414"/><text fill="#000000" font-family="sans-serif" font-size="13" lengthAdjust="spacing" textLength="204.3311" x="620.3208" y="871.585">"Commande #PO12345 pour Marc"</text><path d="M856,847.9141 L856,889.9141 L1091,889.9141 L1091,857.9141 L1081,847.9141 L856,847.9141 " fill="#FFA500" style="stroke:#181818;stroke-width:0.5;"/><path d="M1081,847.9141 L1081,857.9141 L1091,857.9141 L1081,847.9141 " fill="#FFA500" style="stroke:#181818;stroke-width:0.5;"/><text fill="#000000" font-family="sans-serif" font-size="13" lengthAdjust="spacing" textLength="29.0278" x="862" y="866.4092">&#226;&#339;&#8230;</text><text fill="#000000" font-family="sans-serif" font-size="13" font-weight="bold" lengthAdjust="spacing" textLength="182.2539" x="894.6396" y="866.4092">Reconnaissance Imm&#195;&#169;diate</text><text fill="#000000" font-family="sans-serif" font-size="13" lengthAdjust="spacing" textLength="141.6416" x="862" y="882.7607">Pas de recherche papier</text><polygon fill="#181818" points="829.6519,913.9688,839.6519,917.9688,829.6519,921.9688,833.6519,917.9688" style="stroke:#181818;stroke-width:1;"/><line style="stroke:#181818;stroke-width:1;" x1="238.209" x2="835.6519" y1="917.9688" y2="917.9688"/><text fill="#000000" font-family="sans-serif" font-size="13" lengthAdjust="spacing" textLength="158.4121" x="245.209" y="913.1123">Confirme Quantit&#195;&#169; (Scan)</text><polygon fill="#181818" points="629.3208,944.3203,619.3208,948.3203,629.3208,952.3203,625.3208,948.3203" style="stroke:#181818;stroke-width:1;"/><line style="stroke:#181818;stroke-width:1;" x1="623.3208" x2="845.6519" y1="948.3203" y2="948.3203"/><text fill="#000000" font-family="sans-serif" font-size="13" lengthAdjust="spacing" textLength="112.6646" x="635.3208" y="943.4639">&#240;&#376;&#8220;&#166; Entr&#195;&#169;e Stock</text><line style="stroke:#181818;stroke-width:1;" x1="618.3208" x2="660.3208" y1="978.6719" y2="978.6719"/><line style="stroke:#181818;stroke-width:1;" x1="660.3208" x2="660.3208" y1="978.6719" y2="991.6719"/><line style="stroke:#181818;stroke-width:1;" x1="619.3208" x2="660.3208" y1="991.6719" y2="991.6719"/><polygon fill="#181818" points="629.3208,987.6719,619.3208,991.6719,629.3208,995.6719,625.3208,991.6719" style="stroke:#181818;stroke-width:1;"/><text fill="#000000" font-family="sans-serif" font-size="13" lengthAdjust="spacing" textLength="104.7554" x="625.3208" y="973.8154">Mise &#195;&#160; jour Stock</text><polygon fill="#181818" points="84.8516,1018.0234,74.8516,1022.0234,84.8516,1026.0234,80.8516,1022.0234" style="stroke:#181818;stroke-width:1;"/><line style="stroke:#181818;stroke-width:1;" x1="78.8516" x2="612.3208" y1="1022.0234" y2="1022.0234"/><text fill="#000000" font-family="sans-serif" font-size="13" lengthAdjust="spacing" textLength="248.7456" x="90.8516" y="1017.167">&#240;&#376;&#8221;&#8221; Notif "Mat&#195;&#169;riel Re&#195;&#167;u au D&#195;&#169;p&#195;&#180;t !"</text><rect fill="#EEEEEE" height="3" style="stroke:#EEEEEE;stroke-width:1;" width="1184.0762" x="0" y="1051.1992"/><line style="stroke:#000000;stroke-width:1;" x1="0" x2="1184.0762" y1="1051.1992" y2="1051.1992"/><line style="stroke:#000000;stroke-width:1;" x1="0" x2="1184.0762" y1="1054.1992" y2="1054.1992"/><rect fill="#EEEEEE" height="24.3516" style="stroke:#000000;stroke-width:2;" width="105.7554" x="539.1604" y="1040.0234"/><text fill="#000000" font-family="sans-serif" font-size="13" font-weight="bold" lengthAdjust="spacing" textLength="88.1436" x="545.1604" y="1057.5186">JOUR 3 - 8h30</text><polygon fill="#181818" points="226.209,1092.7266,236.209,1096.7266,226.209,1100.7266,230.209,1096.7266" style="stroke:#181818;stroke-width:1;"/><line style="stroke:#181818;stroke-width:1;" x1="73.8516" x2="232.209" y1="1096.7266" y2="1096.7266"/><text fill="#000000" font-family="sans-serif" font-size="13" lengthAdjust="spacing" textLength="134.0244" x="80.8516" y="1091.8701">R&#195;&#169;cup&#195;&#168;re mat&#195;&#169;riel</text><polygon fill="#181818" points="834.6519,1123.0781,844.6519,1127.0781,834.6519,1131.0781,838.6519,1127.0781" style="stroke:#181818;stroke-width:1;"/><line style="stroke:#181818;stroke-width:1;" x1="238.209" x2="840.6519" y1="1127.0781" y2="1127.0781"/><text fill="#000000" font-family="sans-serif" font-size="13" lengthAdjust="spacing" textLength="204.4834" x="245.209" y="1122.2217">&#240;&#376;&#8221;&#171; Scanne Sortie (Vers Chantier)</text><polygon fill="#181818" points="624.3208,1164.6055,614.3208,1168.6055,624.3208,1172.6055,620.3208,1168.6055" style="stroke:#181818;stroke-width:1;"/><line style="stroke:#181818;stroke-width:1;" x1="618.3208" x2="845.6519" y1="1168.6055" y2="1168.6055"/><text fill="#000000" font-family="sans-serif" font-size="13" lengthAdjust="spacing" textLength="177.9375" x="630.3208" y="1163.749">&#240;&#376;&#8220;&#8240; Sortie Stock -&gt; Chantier</text><path d="M851,1140.0781 L851,1182.0781 L1032,1182.0781 L1032,1150.0781 L1022,1140.0781 L851,1140.0781 " fill="#90EE90" style="stroke:#181818;stroke-width:0.5;"/><path d="M1022,1140.0781 L1022,1150.0781 L1032,1150.0781 L1022,1140.0781 " fill="#90EE90" style="stroke:#181818;stroke-width:0.5;"/><text fill="#000000" font-family="sans-serif" font-size="13" lengthAdjust="spacing" textLength="29.0278" x="857" y="1158.5732">&#226;&#339;&#8230;</text><text fill="#000000" font-family="sans-serif" font-size="13" font-weight="bold" lengthAdjust="spacing" textLength="128.0449" x="889.6396" y="1158.5732">Tra&#195;&#167;abilit&#195;&#169; Totale</text><text fill="#000000" font-family="sans-serif" font-size="13" lengthAdjust="spacing" textLength="152.4961" x="857" y="1174.9248">Imputation analytique auto</text><rect fill="#EEEEEE" height="3" style="stroke:#EEEEEE;stroke-width:1;" width="1184.0762" x="0" y="1208.957"/><line style="stroke:#000000;stroke-width:1;" x1="0" x2="1184.0762" y1="1208.957" y2="1208.957"/><line style="stroke:#000000;stroke-width:1;" x1="0" x2="1184.0762" y1="1211.957" y2="1211.957"/><rect fill="#EEEEEE" height="24.3516" style="stroke:#000000;stroke-width:2;" width="57.3291" x="563.3735" y="1197.7813"/><text fill="#000000" font-family="sans-serif" font-size="13" font-weight="bold" lengthAdjust="spacing" textLength="39.7173" x="569.3735" y="1215.2764">BILAN</text><path d="M21,1237.1328 L21,1345.1328 L1027,1345.1328 L1027,1247.1328 L1017,1237.1328 L21,1237.1328 " fill="#E8F5E9" style="stroke:#181818;stroke-width:0.5;"/><path d="M1017,1237.1328 L1017,1247.1328 L1027,1247.1328 L1017,1237.1328 " fill="#E8F5E9" style="stroke:#181818;stroke-width:0.5;"/><text fill="#000000" font-family="sans-serif" font-size="13" font-weight="bold" lengthAdjust="spacing" textLength="136.7476" x="412.9219" y="1255.6279">M&#195;&#8240;TRIQUES CIBLE</text><text fill="#000000" font-family="sans-serif" font-size="13" lengthAdjust="spacing" textLength="130.8696" x="412.9219" y="1271.9795">&#226;&#65533;&#177;&#239;&#184;&#65533; Dur&#195;&#169;e totale:</text><text fill="#000000" font-family="sans-serif" font-size="13" font-weight="bold" lengthAdjust="spacing" textLength="42.6245" x="547.4033" y="1271.9795">2 jours</text><text fill="#000000" font-family="sans-serif" font-size="13" lengthAdjust="spacing" textLength="32.5" x="593.6396" y="1271.9795">(vs 3)</text><text fill="#000000" font-family="sans-serif" font-size="13" lengthAdjust="spacing" textLength="133.3135" x="412.9219" y="1288.3311">&#240;&#376;&#8220;&#382; Appels &#195;&#169;vit&#195;&#169;s:</text><text fill="#000000" font-family="sans-serif" font-size="13" font-weight="bold" lengthAdjust="spacing" textLength="33.249" x="549.8472" y="1288.3311">100%</text><text fill="#000000" font-family="sans-serif" font-size="13" lengthAdjust="spacing" textLength="112.2773" x="412.9219" y="1304.6826">&#226;&#8482;&#187;&#239;&#184;&#65533; Ressaisies:</text><text fill="#000000" font-family="sans-serif" font-size="13" font-weight="bold" lengthAdjust="spacing" textLength="7.23" x="528.811" y="1304.6826">0</text><text fill="#000000" font-family="sans-serif" font-size="13" lengthAdjust="spacing" textLength="32.5" x="539.6528" y="1304.6826">(vs 6)</text><text fill="#000000" font-family="sans-serif" font-size="13" lengthAdjust="spacing" textLength="103.4414" x="412.9219" y="1321.0342">&#226;&#339;&#8230; Taux erreur:</text><text fill="#000000" font-family="sans-serif" font-size="13" font-weight="bold" lengthAdjust="spacing" textLength="29.9927" x="519.9751" y="1321.0342">&lt; 1%</text><text fill="#000000" font-family="sans-serif" font-size="13" lengthAdjust="spacing" textLength="103.3271" x="412.9219" y="1337.3857">&#240;&#376;&#732;&#352; Satisfaction:</text><text fill="#000000" font-family="sans-serif" font-size="13" font-weight="bold" lengthAdjust="spacing" textLength="58.5317" x="519.8608" y="1337.3857">Maximale</text><!--SRC=[XLRTRXf75BxVfpW5jG9Qnuif3g0w4eQbeZA6W9EBgZUJPGYJxEviPsQHBVN2Kle6lQgKIealaaQzQ2hr8chLLiBYgc_X5-WhzCpCBYoMBKis0lRyVjztpa4n5L0O2UvJAHC97Hw699fI611r-MBvJZ0Qm0vq-eT77fI6tU4GFeLnhzyjEmxn5HTG613XVnELEdCwWywSH8fHKIu0aQ2VGB7NEzplL3FhoLcmO1Jjs_wSA6aDxPTGR7Ux3My_CxrySNN-NZ0TlAjhYV7bTsKzFFmUYir6xx3PS68Y5FDPZBcXq8vZ6F0dBD19XbFEeOSzJAsRVbXikfxNTBUzZA4t7gqBsvqexZ-tNkPXiN6_utc7ssuJdqGH5GQHB5q_Mj184IQezTRFD0hjkdijQOyd8c9IqaIWyvYUqc1tmYEAHjRL63ZEmG5yDNmqXYeoSPH4KmRDkUl2mO7ZH5nHu0iimOBjkRtxlRO3KAaSKibP16oArR0PqmXMAlYaW-ykdY3hjI_txjKnPDqD7HfDGSTo71Ddvu66gWMNxrSVhiv_-k-Vls1C_JaL-0-5xGW5pHTR42m4VHmDCRfhA5ge1-e_1mCbdD0mHZHq7JHm35GxMPw2DSdHt08NleCkap6774uj62QiO9EWiows1UtPZEd2X7QNIQ2GFvJfQCuLbywKRjLtKuD_N9t_2ErdF44RaW2oWng6J-0n2H0-2x9WJ-TgBHw0oulL3rVdRn3ehysWS4H8Ii8aemPcq-ZCFAAHJo69sBS9nQ1IuO0HCMNIG6528S3Btov_NNxGIDTSaDJdE8KonyishgPLeXYFe4ljn1hTGgdRBcy8qTOfr0_IALkJYdzmpBKqV1keSCoJ1GsGrsuRp0eGVY4FduccrMXmiKubb6AzRBIOJl6cI1vfCdIuBGZJASz3c0jOXKx0V0FXIB1J1CmY2R7fUKUWZ0AMH-PwNilQUfNTWeOHLGR6o-LRyA85Pvi5MF92meBTzgXVtge-NGFvwjk9uY5MZ_pQkhizUAgBZGpz-WNRe1Z_JB_VbBuU0glZwyJWf6NLc9wCNlGEO0jn3mOuZO9EsSqKcOLHG-FC31hPpZ2TQmZq4hLPLwzNhqrOr2zoq24XKk4uPikYeLvXw_AMlu1TUuWL4W6xC281LIe7jBPtpDvRaz9Frr2gDSEfJsFzOGE3pRFfkZWQLlTgdzSXnf9JFUQvI9Tgdekndfm8sv14Jrq_37McASEoB3UuLZ6oM6-pcCGux3avRJUD8fun4L9ucEZJPeuYb3G0vMiTPafwWqfImd9brbgU7uFCBOgqOGPCKa3lL_1CDsqZP2QtwIH_hSSKtxvDz2BBxLFuw0wTDEOrAuziFrfrMA8I7UHdGI7S9BfB7HEEfmxdw34LSlF3u6RGyD1dzlOIe47cSjVwFH54DqpmvAVqd725YZHqzyCuKLPo92B1cHbIX4Rn7EC8ms7_g7rymqNzpEu9FAoDNjrhciCwC3zCJiRzXu-yYVrfP79TM-FT91M1CkMqq7FFS2eh5IWj9DJAsia2iFfRtoCQI4tzkuLjH6gVgkj-d8Q_-lvY-MSMVdrjZ9MRnjmlvx0v8SafK27CtQnKle1g6Wbp_ljozGecY8oSQL7mI5iCo2aBBNHhTFu7]--></g></svg>