<svg xmlns="http://www.w3.org/2000/svg" xmlns:xlink="http://www.w3.org/1999/xlink" contentStyleType="text/css" height="763px" preserveAspectRatio="none" style="width:857px;height:763px;background:#FFFFFF;" version="1.1" viewBox="0 0 857 763" width="857px" zoomAndPan="magnify"><title>Processus Paie - CIBLE (Odoo + PayFit)</title><defs/><g><text fill="#000000" font-family="sans-serif" font-size="14" font-weight="bold" lengthAdjust="spacing" textLength="265.6787" x="291.9795" y="29.5332">Processus Paie - CIBLE (Odoo + PayFit)</text><rect fill="#FFFFFF" height="60.7031" style="stroke:#181818;stroke-width:1;" width="10" x="389.502" y="215.5313"/><rect fill="#FFFFFF" height="46.7031" style="stroke:#181818;stroke-width:1;" width="10" x="389.502" y="350.9375"/><rect fill="#FFFFFF" height="195.1094" style="stroke:#181818;stroke-width:1;" width="10" x="565.8628" y="397.6406"/><line style="stroke:#181818;stroke-width:0.5;stroke-dasharray:5.0,5.0;" x1="29" x2="29" y1="138.8281" y2="663.4531"/><line style="stroke:#181818;stroke-width:0.5;stroke-dasharray:5.0,5.0;" x1="94.5928" x2="94.5928" y1="138.8281" y2="663.4531"/><line style="stroke:#181818;stroke-width:0.5;stroke-dasharray:5.0,5.0;" x1="165.8477" x2="165.8477" y1="138.8281" y2="663.4531"/><line style="stroke:#181818;stroke-width:0.5;stroke-dasharray:5.0,5.0;" x1="394.4478" x2="394.4478" y1="138.8281" y2="663.4531"/><line style="stroke:#181818;stroke-width:0.5;stroke-dasharray:5.0,5.0;" x1="570.4595" x2="570.4595" y1="138.8281" y2="663.4531"/><line style="stroke:#181818;stroke-width:0.5;stroke-dasharray:5.0,5.0;" x1="750.6865" x2="750.6865" y1="138.8281" y2="663.4531"/><line style="stroke:#181818;stroke-width:0.5;stroke-dasharray:5.0,5.0;" x1="817.9551" x2="817.9551" y1="138.8281" y2="663.4531"/><text fill="#000000" font-family="sans-serif" font-size="14" lengthAdjust="spacing" textLength="43.5928" x="5" y="118.1426">Sophie</text><text fill="#000000" font-family="sans-serif" font-size="14" lengthAdjust="spacing" textLength="29.5449" x="12.0239" y="135.752">(RH)</text><ellipse cx="29.7964" cy="52.1094" fill="#FFB6C1" rx="8" ry="8" style="stroke:#181818;stroke-width:0.5;"/><path d="M29.7964,60.1094 L29.7964,87.1094 M16.7964,68.1094 L42.7964,68.1094 M29.7964,87.1094 L16.7964,102.1094 M29.7964,87.1094 L42.7964,102.1094 " fill="none" style="stroke:#181818;stroke-width:0.5;"/><text fill="#000000" font-family="sans-serif" font-size="14" lengthAdjust="spacing" textLength="43.5928" x="5" y="676.9863">Sophie</text><text fill="#000000" font-family="sans-serif" font-size="14" lengthAdjust="spacing" textLength="29.5449" x="12.0239" y="694.5957">(RH)</text><ellipse cx="29.7964" cy="706.1719" fill="#FFB6C1" rx="8" ry="8" style="stroke:#181818;stroke-width:0.5;"/><path d="M29.7964,714.1719 L29.7964,741.1719 M16.7964,722.1719 L42.7964,722.1719 M29.7964,741.1719 L16.7964,756.1719 M29.7964,741.1719 L42.7964,756.1719 " fill="none" style="stroke:#181818;stroke-width:0.5;"/><text fill="#000000" font-family="sans-serif" font-size="14" lengthAdjust="spacing" textLength="55.2549" x="64.5928" y="135.752">Manager</text><ellipse cx="95.2202" cy="69.7188" fill="#ADD8E6" rx="8" ry="8" style="stroke:#181818;stroke-width:0.5;"/><path d="M95.2202,77.7188 L95.2202,104.7188 M82.2202,85.7188 L108.2202,85.7188 M95.2202,104.7188 L82.2202,119.7188 M95.2202,104.7188 L108.2202,119.7188 " fill="none" style="stroke:#181818;stroke-width:0.5;"/><text fill="#000000" font-family="sans-serif" font-size="14" lengthAdjust="spacing" textLength="55.2549" x="64.5928" y="676.9863">Manager</text><ellipse cx="95.2202" cy="688.5625" fill="#ADD8E6" rx="8" ry="8" style="stroke:#181818;stroke-width:0.5;"/><path d="M95.2202,696.5625 L95.2202,723.5625 M82.2202,704.5625 L108.2202,704.5625 M95.2202,723.5625 L82.2202,738.5625 M95.2202,723.5625 L108.2202,738.5625 " fill="none" style="stroke:#181818;stroke-width:0.5;"/><text fill="#000000" font-family="sans-serif" font-size="14" lengthAdjust="spacing" textLength="55.4463" x="135.8477" y="135.752">Salari&#195;&#169;</text><ellipse cx="166.5708" cy="69.7188" fill="#90EE90" rx="8" ry="8" style="stroke:#181818;stroke-width:0.5;"/><path d="M166.5708,77.7188 L166.5708,104.7188 M153.5708,85.7188 L179.5708,85.7188 M166.5708,104.7188 L153.5708,119.7188 M166.5708,104.7188 L179.5708,119.7188 " fill="none" style="stroke:#181818;stroke-width:0.5;"/><text fill="#000000" font-family="sans-serif" font-size="14" lengthAdjust="spacing" textLength="55.4463" x="135.8477" y="676.9863">Salari&#195;&#169;</text><ellipse cx="166.5708" cy="688.5625" fill="#90EE90" rx="8" ry="8" style="stroke:#181818;stroke-width:0.5;"/><path d="M166.5708,696.5625 L166.5708,723.5625 M153.5708,704.5625 L179.5708,704.5625 M166.5708,723.5625 L153.5708,738.5625 M166.5708,723.5625 L179.5708,738.5625 " fill="none" style="stroke:#181818;stroke-width:0.5;"/><rect fill="#87CEEB" height="49.2188" rx="2.5" ry="2.5" style="stroke:#181818;stroke-width:0.5;" width="116.1084" x="336.4478" y="88.6094"/><text fill="#000000" font-family="sans-serif" font-size="14" lengthAdjust="spacing" textLength="58.3584" x="365.3228" y="110.1426">Odoo RH</text><text fill="#000000" font-family="sans-serif" font-size="14" lengthAdjust="spacing" textLength="102.1084" x="343.4478" y="127.752">(Cong&#195;&#169;s/NDF)</text><rect fill="#87CEEB" height="49.2188" rx="2.5" ry="2.5" style="stroke:#181818;stroke-width:0.5;" width="116.1084" x="336.4478" y="662.4531"/><text fill="#000000" font-family="sans-serif" font-size="14" lengthAdjust="spacing" textLength="58.3584" x="365.3228" y="683.9863">Odoo RH</text><text fill="#000000" font-family="sans-serif" font-size="14" lengthAdjust="spacing" textLength="102.1084" x="343.4478" y="701.5957">(Cong&#195;&#169;s/NDF)</text><rect fill="#FFA500" height="49.2188" rx="2.5" ry="2.5" style="stroke:#181818;stroke-width:0.5;" width="98.8066" x="521.4595" y="88.6094"/><text fill="#000000" font-family="sans-serif" font-size="14" lengthAdjust="spacing" textLength="39.6758" x="551.0249" y="110.1426">PayFit</text><text fill="#000000" font-family="sans-serif" font-size="14" lengthAdjust="spacing" textLength="84.8066" x="528.4595" y="127.752">(Moteur Paie)</text><rect fill="#FFA500" height="49.2188" rx="2.5" ry="2.5" style="stroke:#181818;stroke-width:0.5;" width="98.8066" x="521.4595" y="662.4531"/><text fill="#000000" font-family="sans-serif" font-size="14" lengthAdjust="spacing" textLength="39.6758" x="551.0249" y="683.9863">PayFit</text><text fill="#000000" font-family="sans-serif" font-size="14" lengthAdjust="spacing" textLength="84.8066" x="528.4595" y="701.5957">(Moteur Paie)</text><rect fill="#E2E2F0" height="31.6094" rx="2.5" ry="2.5" style="stroke:#181818;stroke-width:0.5;" width="62.2686" x="719.6865" y="106.2188"/><text fill="#000000" font-family="sans-serif" font-size="14" lengthAdjust="spacing" textLength="48.2686" x="726.6865" y="127.752">Banque</text><rect fill="#E2E2F0" height="31.6094" rx="2.5" ry="2.5" style="stroke:#181818;stroke-width:0.5;" width="62.2686" x="719.6865" y="662.4531"/><text fill="#000000" font-family="sans-serif" font-size="14" lengthAdjust="spacing" textLength="48.2686" x="726.6865" y="683.9863">Banque</text><rect fill="#E2E2F0" height="31.6094" rx="2.5" ry="2.5" style="stroke:#181818;stroke-width:0.5;" width="53.6826" x="791.9551" y="106.2188"/><text fill="#000000" font-family="sans-serif" font-size="14" lengthAdjust="spacing" textLength="39.6826" x="798.9551" y="127.752">Admin</text><rect fill="#E2E2F0" height="31.6094" rx="2.5" ry="2.5" style="stroke:#181818;stroke-width:0.5;" width="53.6826" x="791.9551" y="662.4531"/><text fill="#000000" font-family="sans-serif" font-size="14" lengthAdjust="spacing" textLength="39.6826" x="798.9551" y="683.9863">Admin</text><rect fill="#FFFFFF" height="60.7031" style="stroke:#181818;stroke-width:1;" width="10" x="389.502" y="215.5313"/><rect fill="#FFFFFF" height="46.7031" style="stroke:#181818;stroke-width:1;" width="10" x="389.502" y="350.9375"/><rect fill="#FFFFFF" height="195.1094" style="stroke:#181818;stroke-width:1;" width="10" x="565.8628" y="397.6406"/><rect fill="#EEEEEE" height="3" style="stroke:#EEEEEE;stroke-width:1;" width="850.6377" x="0" y="170.0039"/><line style="stroke:#000000;stroke-width:1;" x1="0" x2="850.6377" y1="170.0039" y2="170.0039"/><line style="stroke:#000000;stroke-width:1;" x1="0" x2="850.6377" y1="173.0039" y2="173.0039"/><rect fill="#EEEEEE" height="24.3516" style="stroke:#000000;stroke-width:2;" width="149.04" x="350.7988" y="158.8281"/><text fill="#000000" font-family="sans-serif" font-size="13" font-weight="bold" lengthAdjust="spacing" textLength="131.4282" x="356.7988" y="176.3232">Tout au long du mois</text><polygon fill="#181818" points="377.502,211.5313,387.502,215.5313,377.502,219.5313,381.502,215.5313" style="stroke:#181818;stroke-width:1;"/><line style="stroke:#181818;stroke-width:1;" x1="166.5708" x2="383.502" y1="215.5313" y2="215.5313"/><text fill="#000000" font-family="sans-serif" font-size="13" lengthAdjust="spacing" textLength="203.9312" x="173.5708" y="210.6748">Pose Cong&#195;&#169;s / NDF (App Mobile)</text><polygon fill="#181818" points="106.2202,241.8828,96.2202,245.8828,106.2202,249.8828,102.2202,245.8828" style="stroke:#181818;stroke-width:1;"/><line style="stroke:#181818;stroke-width:1;" x1="100.2202" x2="388.502" y1="245.8828" y2="245.8828"/><text fill="#000000" font-family="sans-serif" font-size="13" lengthAdjust="spacing" textLength="87.439" x="112.2202" y="241.0264">Notif Validation</text><polygon fill="#181818" points="382.502,272.2344,392.502,276.2344,382.502,280.2344,386.502,276.2344" style="stroke:#181818;stroke-width:1;"/><line style="stroke:#181818;stroke-width:1;" x1="95.2202" x2="388.502" y1="276.2344" y2="276.2344"/><text fill="#000000" font-family="sans-serif" font-size="13" lengthAdjust="spacing" textLength="36.1372" x="102.2202" y="271.3779">Valide</text><rect fill="#EEEEEE" height="3" style="stroke:#EEEEEE;stroke-width:1;" width="850.6377" x="0" y="305.4102"/><line style="stroke:#000000;stroke-width:1;" x1="0" x2="850.6377" y1="305.4102" y2="305.4102"/><line style="stroke:#000000;stroke-width:1;" x1="0" x2="850.6377" y1="308.4102" y2="308.4102"/><rect fill="#EEEEEE" height="24.3516" style="stroke:#000000;stroke-width:2;" width="217.1567" x="316.7405" y="294.2344"/><text fill="#000000" font-family="sans-serif" font-size="13" font-weight="bold" lengthAdjust="spacing" textLength="199.5449" x="322.7405" y="311.7295">Fin du mois (Pr&#195;&#169;paration Paie)</text><polygon fill="#181818" points="377.502,346.9375,387.502,350.9375,377.502,354.9375,381.502,350.9375" style="stroke:#181818;stroke-width:1;"/><line style="stroke:#181818;stroke-width:1;" x1="29.7964" x2="383.502" y1="350.9375" y2="350.9375"/><text fill="#000000" font-family="sans-serif" font-size="13" lengthAdjust="spacing" textLength="107.1167" x="36.7964" y="346.0811">Cl&#195;&#180;ture P&#195;&#169;riode</text><polygon fill="#181818" points="553.8628,393.6406,563.8628,397.6406,553.8628,401.6406,557.8628,397.6406" style="stroke:#181818;stroke-width:1;"/><line style="stroke:#181818;stroke-width:1;" x1="394.502" x2="559.8628" y1="397.6406" y2="397.6406"/><text fill="#000000" font-family="sans-serif" font-size="13" lengthAdjust="spacing" textLength="119.9326" x="401.502" y="376.4326">Sync Variables (API)</text><text fill="#000000" font-family="sans-serif" font-size="13" lengthAdjust="spacing" textLength="147.3608" x="401.502" y="392.7842">(Absences, Primes, NDF)</text><line style="stroke:#181818;stroke-width:1;" x1="575.8628" x2="617.8628" y1="427.9922" y2="427.9922"/><line style="stroke:#181818;stroke-width:1;" x1="617.8628" x2="617.8628" y1="427.9922" y2="440.9922"/><line style="stroke:#181818;stroke-width:1;" x1="576.8628" x2="617.8628" y1="440.9922" y2="440.9922"/><polygon fill="#181818" points="586.8628,436.9922,576.8628,440.9922,586.8628,444.9922,582.8628,440.9922" style="stroke:#181818;stroke-width:1;"/><text fill="#000000" font-family="sans-serif" font-size="13" lengthAdjust="spacing" textLength="145.958" x="582.8628" y="423.1357">Calcul Paie &amp; Cotisations</text><polygon fill="#181818" points="40.7964,467.3438,30.7964,471.3438,40.7964,475.3438,36.7964,471.3438" style="stroke:#181818;stroke-width:1;"/><line style="stroke:#181818;stroke-width:1;" x1="34.7964" x2="564.8628" y1="471.3438" y2="471.3438"/><text fill="#000000" font-family="sans-serif" font-size="13" lengthAdjust="spacing" textLength="148.1226" x="46.7964" y="466.4873">Synth&#195;&#168;se pour Contr&#195;&#180;le</text><polygon fill="#181818" points="553.8628,497.6953,563.8628,501.6953,553.8628,505.6953,557.8628,501.6953" style="stroke:#181818;stroke-width:1;"/><line style="stroke:#181818;stroke-width:1;" x1="29.7964" x2="559.8628" y1="501.6953" y2="501.6953"/><text fill="#000000" font-family="sans-serif" font-size="13" lengthAdjust="spacing" textLength="65.7681" x="36.7964" y="496.8389">Valide Paie</text><polygon fill="#181818" points="738.8208,528.0469,748.8208,532.0469,738.8208,536.0469,742.8208,532.0469" style="stroke:#181818;stroke-width:1;"/><line style="stroke:#181818;stroke-width:1;" x1="575.8628" x2="744.8208" y1="532.0469" y2="532.0469"/><text fill="#000000" font-family="sans-serif" font-size="13" lengthAdjust="spacing" textLength="127.1563" x="582.8628" y="527.1904">Ordre Virement SEPA</text><polygon fill="#181818" points="177.5708,558.3984,167.5708,562.3984,177.5708,566.3984,173.5708,562.3984" style="stroke:#181818;stroke-width:1;"/><line style="stroke:#181818;stroke-width:1;" x1="171.5708" x2="564.8628" y1="562.3984" y2="562.3984"/><text fill="#000000" font-family="sans-serif" font-size="13" lengthAdjust="spacing" textLength="179.1689" x="183.5708" y="557.542">Bulletin Paie (Email/Coffre-fort)</text><polygon fill="#181818" points="806.7964,588.75,816.7964,592.75,806.7964,596.75,810.7964,592.75" style="stroke:#181818;stroke-width:1;"/><line style="stroke:#181818;stroke-width:1;" x1="570.8628" x2="812.7964" y1="592.75" y2="592.75"/><text fill="#000000" font-family="sans-serif" font-size="13" lengthAdjust="spacing" textLength="104.0508" x="577.8628" y="587.8936">DSN Automatique</text><path d="M34,605.75 L34,647.75 L144,647.75 L144,615.75 L134,605.75 L34,605.75 " fill="#E8F5E9" style="stroke:#181818;stroke-width:0.5;"/><path d="M134,605.75 L134,615.75 L144,615.75 L134,605.75 " fill="#E8F5E9" style="stroke:#181818;stroke-width:0.5;"/><text fill="#000000" font-family="sans-serif" font-size="13" font-weight="bold" lengthAdjust="spacing" textLength="89.5781" x="40" y="624.2451">Gain de temps</text><text fill="#000000" font-family="sans-serif" font-size="13" lengthAdjust="spacing" textLength="50.2227" x="40" y="640.5967">3j -&gt; 0.5j</text><!--SRC=[RLFDZjem4BxxAKQBL04jXQfY2v6e54BehbJOQAdsr8iX1cRhsAdZhBJdlanxtoTeNwnZ6z9isrCIU-Rxcub5AmLaHkz4LTKLP1m5322vddzCeNkJQmqlwV1nYRR76DzPRU1YeyiZYi-gUtlLkm1UGJY0pd8vlqpUdCjMNF63CBxYz0wTUB6Of9SD4fVSuAzlFt_ughGeeJCTfUbqn4fkBEwmvCh2XHToUqMKYLO7LryDrujbOFUNdScx94tdpzk2SEfQQIjguzs5dd3Z5CVZqLzaSww-riANqUiNncOp-AHh2xm6IVIGrr1eh60sOyn97hpt6YB8T2MWKGX388tGZSiILdgBKlISRtpWLlW6vfLJzocT2DRQuXxkkCISMzIAdNDhAFoTOBbuZkGqBb4rqhgPSHh8byS9phtWqwmQm4HIuPEj3Qs1Qp6e2V__EaDg4MmUrOwK6EHRAOWipgvxb7AyhOIYHNf52uM5UxeP_Qkr-Gnux3IC5a72vQwMOHjVKA8MA- -ZQjK68rwCFPBoxvHzgMdAD03ht3z9qN9xXWu1UkWMc1jq13ScfnZkq8X2q2PiqYnkrT2e8vZNKWgB8L7efWL7EKpqVc_4OAyD_IL_6kAyG1N1OhE6kBQw80kqMEqyJW4mHVi91Wz72thV_4xfP3bEfmoWt__0tN05M56KLRzFPs_l7SNezVYU2PM3Gs2_0G00]--></g></svg>