<svg xmlns="http://www.w3.org/2000/svg" xmlns:xlink="http://www.w3.org/1999/xlink" contentStyleType="text/css" height="892px" preserveAspectRatio="none" style="width:814px;height:892px;background:#FFFFFF;" version="1.1" viewBox="0 0 814 892" width="814px" zoomAndPan="magnify"><title>Workflow Generation Rapport Intervention</title><defs/><g><text fill="#000000" font-family="sans-serif" font-size="14" font-weight="bold" lengthAdjust="spacing" textLength="282.3447" x="264.4653" y="34.5332">Workflow Generation Rapport Intervention</text><ellipse cx="419.3647" cy="58.6094" fill="#222222" rx="10" ry="10" style="stroke:#222222;stroke-width:1;"/><rect fill="#F1F1F1" height="50.1875" rx="12.5" ry="12.5" style="stroke:#181818;stroke-width:0.5;" width="154.0801" x="342.3247" y="88.6094"/><text fill="#000000" font-family="sans-serif" font-size="12" lengthAdjust="spacing" textLength="114.7207" x="352.3247" y="111.0664">Chef chantier termine</text><text fill="#000000" font-family="sans-serif" font-size="12" lengthAdjust="spacing" textLength="134.0801" x="352.3247" y="126.1602">intervention petit chantier</text><polygon fill="#F1F1F1" points="393.3821,158.7969,445.3474,158.7969,457.3474,170.7969,445.3474,182.7969,393.3821,182.7969,381.3821,170.7969,393.3821,158.7969" style="stroke:#181818;stroke-width:0.5;"/><text fill="#000000" font-family="sans-serif" font-size="11" lengthAdjust="spacing" textLength="51.9653" x="393.3821" y="175.2979">Systeme ?</text><text fill="#000000" font-family="sans-serif" font-size="11" lengthAdjust="spacing" textLength="85.5884" x="295.7937" y="168.3799">ACTUEL: Manuel</text><text fill="#000000" font-family="sans-serif" font-size="11" lengthAdjust="spacing" textLength="127.1768" x="457.3474" y="168.3799">CIBLE: Application Mobile</text><path d="M239.458,192.7969 L239.458,210.1484 L219.458,214.1484 L239.458,218.1484 L239.458,235.5 A0,0 0 0 0 239.458,235.5 L358.0024,235.5 A0,0 0 0 0 358.0024,235.5 L358.0024,202.7969 L348.0024,192.7969 L239.458,192.7969 A0,0 0 0 0 239.458,192.7969 " fill="#FEFFDD" style="stroke:#181818;stroke-width:0.5;"/><path d="M348.0024,192.7969 L348.0024,202.7969 L358.0024,202.7969 L348.0024,192.7969 " fill="#FEFFDD" style="stroke:#181818;stroke-width:0.5;"/><text fill="#000000" font-family="sans-serif" font-size="13" lengthAdjust="spacing" textLength="97.5444" x="245.458" y="211.292">Pas sur chantier,</text><text fill="#000000" font-family="sans-serif" font-size="13" lengthAdjust="spacing" textLength="72.2744" x="245.458" y="227.6436">doit attendre</text><rect fill="#F1F1F1" height="35.0938" rx="12.5" ry="12.5" style="stroke:#181818;stroke-width:0.5;" width="198.7754" x="20.6826" y="196.6016"/><text fill="#000000" font-family="sans-serif" font-size="12" lengthAdjust="spacing" textLength="178.7754" x="30.6826" y="219.0586">Rentrer au bureau ou a la maison</text><rect fill="#F1F1F1" height="50.1875" rx="12.5" ry="12.5" style="stroke:#181818;stroke-width:0.5;" width="121.373" x="59.3838" y="262.9844"/><text fill="#000000" font-family="sans-serif" font-size="12" lengthAdjust="spacing" textLength="52.6699" x="69.3838" y="285.4414">Ouvrir PC</text><text fill="#000000" font-family="sans-serif" font-size="12" lengthAdjust="spacing" textLength="101.373" x="69.3838" y="300.5352">Lancer Word/Excel</text><path d="M212.7744,375.2148 L212.7744,384.3906 L192.7744,388.3906 L212.7744,392.3906 L212.7744,401.5664 A0,0 0 0 0 212.7744,401.5664 L328.4307,401.5664 A0,0 0 0 0 328.4307,401.5664 L328.4307,385.2148 L318.4307,375.2148 L212.7744,375.2148 A0,0 0 0 0 212.7744,375.2148 " fill="#FEFFDD" style="stroke:#181818;stroke-width:0.5;"/><path d="M318.4307,375.2148 L318.4307,385.2148 L328.4307,385.2148 L318.4307,375.2148 " fill="#FEFFDD" style="stroke:#181818;stroke-width:0.5;"/><text fill="#000000" font-family="sans-serif" font-size="13" lengthAdjust="spacing" textLength="94.6563" x="218.7744" y="393.71">15-20 min saisie</text><rect fill="#F1F1F1" height="95.4688" rx="12.5" ry="12.5" style="stroke:#181818;stroke-width:0.5;" width="145.4082" x="47.3662" y="340.6563"/><text fill="#000000" font-family="sans-serif" font-size="12" lengthAdjust="spacing" textLength="115.3828" x="57.3662" y="363.1133">Saisir manuellement :</text><text fill="#000000" font-family="sans-serif" font-size="12" lengthAdjust="spacing" textLength="87.3691" x="57.3662" y="378.207">- Client, adresse</text><text fill="#000000" font-family="sans-serif" font-size="12" lengthAdjust="spacing" textLength="125.4082" x="57.3662" y="393.3008">- Date, heures debut/fin</text><text fill="#000000" font-family="sans-serif" font-size="12" lengthAdjust="spacing" textLength="84.0234" x="57.3662" y="408.3945">- Materiel utilise</text><text fill="#000000" font-family="sans-serif" font-size="12" lengthAdjust="spacing" textLength="78.0293" x="57.3662" y="423.4883">- Observations</text><path d="M249.1406,471.125 L249.1406,488.4766 L229.1406,492.4766 L249.1406,496.4766 L249.1406,513.8281 A0,0 0 0 0 249.1406,513.8281 L438.5249,513.8281 A0,0 0 0 0 438.5249,513.8281 L438.5249,481.125 L428.5249,471.125 L249.1406,471.125 A0,0 0 0 0 249.1406,471.125 " fill="#FEFFDD" style="stroke:#181818;stroke-width:0.5;"/><path d="M428.5249,471.125 L428.5249,481.125 L438.5249,481.125 L428.5249,471.125 " fill="#FEFFDD" style="stroke:#181818;stroke-width:0.5;"/><text fill="#000000" font-family="sans-serif" font-size="13" lengthAdjust="spacing" textLength="67.9199" x="255.1406" y="489.6201">Cable USB,</text><text fill="#000000" font-family="sans-serif" font-size="13" lengthAdjust="spacing" textLength="168.3843" x="255.1406" y="505.9717">recherche photos pertinentes</text><rect fill="#F1F1F1" height="35.0938" rx="12.5" ry="12.5" style="stroke:#181818;stroke-width:0.5;" width="218.1406" x="11" y="474.9297"/><text fill="#000000" font-family="sans-serif" font-size="12" lengthAdjust="spacing" textLength="198.1406" x="21" y="497.3867">Telecharger photos depuis telephone</text><path d="M219.1055,553.1992 L219.1055,562.375 L199.1055,566.375 L219.1055,570.375 L219.1055,579.5508 A0,0 0 0 0 219.1055,579.5508 L290.6836,579.5508 A0,0 0 0 0 290.6836,579.5508 L290.6836,563.1992 L280.6836,553.1992 L219.1055,553.1992 A0,0 0 0 0 219.1055,553.1992 " fill="#FEFFDD" style="stroke:#181818;stroke-width:0.5;"/><path d="M280.6836,553.1992 L280.6836,563.1992 L290.6836,563.1992 L280.6836,553.1992 " fill="#FEFFDD" style="stroke:#181818;stroke-width:0.5;"/><text fill="#000000" font-family="sans-serif" font-size="13" lengthAdjust="spacing" textLength="50.5781" x="225.1055" y="571.6943">5-10 min</text><rect fill="#F1F1F1" height="35.0938" rx="12.5" ry="12.5" style="stroke:#181818;stroke-width:0.5;" width="158.0703" x="41.0352" y="548.8281"/><text fill="#000000" font-family="sans-serif" font-size="12" lengthAdjust="spacing" textLength="138.0703" x="51.0352" y="571.2852">Inserer photos dans Word</text><rect fill="#F1F1F1" height="35.0938" rx="12.5" ry="12.5" style="stroke:#181818;stroke-width:0.5;" width="91.3555" x="74.3926" y="618.9219"/><text fill="#000000" font-family="sans-serif" font-size="12" lengthAdjust="spacing" textLength="71.3555" x="84.3926" y="641.3789">Generer PDF</text><path d="M209.4316,700.9336 L209.4316,710.1094 L189.4316,714.1094 L209.4316,718.1094 L209.4316,727.2852 A0,0 0 0 0 209.4316,727.2852 L316.4233,727.2852 A0,0 0 0 0 316.4233,727.2852 L316.4233,710.9336 L306.4233,700.9336 L209.4316,700.9336 A0,0 0 0 0 209.4316,700.9336 " fill="#FEFFDD" style="stroke:#181818;stroke-width:0.5;"/><path d="M306.4233,700.9336 L306.4233,710.9336 L316.4233,710.9336 L306.4233,700.9336 " fill="#FEFFDD" style="stroke:#181818;stroke-width:0.5;"/><text fill="#000000" font-family="sans-serif" font-size="13" lengthAdjust="spacing" textLength="85.9917" x="215.4316" y="719.4287">30-45 min total</text><rect fill="#F1F1F1" height="50.1875" rx="12.5" ry="12.5" style="stroke:#181818;stroke-width:0.5;" width="138.7227" x="50.709" y="689.0156"/><text fill="#000000" font-family="sans-serif" font-size="12" lengthAdjust="spacing" textLength="118.7227" x="60.709" y="711.4727">Envoyer email manuel</text><text fill="#000000" font-family="sans-serif" font-size="12" lengthAdjust="spacing" textLength="83.0508" x="60.709" y="726.5664">Client + Bureau</text><path d="M531.4395,196.5391 L531.4395,239.2422 A0,0 0 0 0 531.4395,239.2422 L641.3066,239.2422 A0,0 0 0 0 641.3066,239.2422 L641.3066,221.8906 L661.3066,217.8906 L641.3066,213.8906 L641.3066,206.5391 L631.3066,196.5391 L531.4395,196.5391 A0,0 0 0 0 531.4395,196.5391 " fill="#FEFFDD" style="stroke:#181818;stroke-width:0.5;"/><path d="M631.3066,196.5391 L631.3066,206.5391 L641.3066,206.5391 L631.3066,196.5391 " fill="#FEFFDD" style="stroke:#181818;stroke-width:0.5;"/><text fill="#000000" font-family="sans-serif" font-size="13" lengthAdjust="spacing" textLength="73.7026" x="537.4395" y="215.0342">Sur chantier,</text><text fill="#000000" font-family="sans-serif" font-size="13" lengthAdjust="spacing" textLength="88.8672" x="537.4395" y="231.3857">immediatement</text><rect fill="#F1F1F1" height="50.1875" rx="12.5" ry="12.5" style="stroke:#181818;stroke-width:0.5;" width="114.7051" x="661.3066" y="192.7969"/><text fill="#000000" font-family="sans-serif" font-size="12" lengthAdjust="spacing" textLength="94.7051" x="671.3066" y="215.2539">Ouvrir app mobile</text><text fill="#000000" font-family="sans-serif" font-size="12" lengthAdjust="spacing" textLength="91.3828" x="671.3066" y="230.3477">Module Rapports</text><path d="M499.2876,274.2109 L499.2876,316.9141 A0,0 0 0 0 499.2876,316.9141 L632.292,316.9141 A0,0 0 0 0 632.292,316.9141 L632.292,299.5625 L652.292,295.5625 L632.292,291.5625 L632.292,284.2109 L622.292,274.2109 L499.2876,274.2109 A0,0 0 0 0 499.2876,274.2109 " fill="#FEFFDD" style="stroke:#181818;stroke-width:0.5;"/><path d="M622.292,274.2109 L622.292,284.2109 L632.292,284.2109 L622.292,274.2109 " fill="#FEFFDD" style="stroke:#181818;stroke-width:0.5;"/><text fill="#000000" font-family="sans-serif" font-size="13" lengthAdjust="spacing" textLength="112.0044" x="505.2876" y="292.7061">Infos client/adresse</text><text fill="#000000" font-family="sans-serif" font-size="13" lengthAdjust="spacing" textLength="78.0508" x="505.2876" y="309.0576">automatiques</text><rect fill="#F1F1F1" height="50.1875" rx="12.5" ry="12.5" style="stroke:#181818;stroke-width:0.5;" width="132.7344" x="652.292" y="270.4688"/><text fill="#000000" font-family="sans-serif" font-size="12" lengthAdjust="spacing" textLength="112.7344" x="662.292" y="292.9258">Selectionner chantier</text><text fill="#000000" font-family="sans-serif" font-size="12" lengthAdjust="spacing" textLength="62.0039" x="662.292" y="308.0195">(pre-rempli)</text><path d="M487.229,360.0586 L487.229,386.4102 A0,0 0 0 0 487.229,386.4102 L616.958,386.4102 A0,0 0 0 0 616.958,386.4102 L616.958,378.0586 L636.958,373.2344 L616.958,370.0586 L616.958,370.0586 L606.958,360.0586 L487.229,360.0586 A0,0 0 0 0 487.229,360.0586 " fill="#FEFFDD" style="stroke:#181818;stroke-width:0.5;"/><path d="M606.958,360.0586 L606.958,370.0586 L616.958,370.0586 L606.958,360.0586 " fill="#FEFFDD" style="stroke:#181818;stroke-width:0.5;"/><text fill="#000000" font-family="sans-serif" font-size="13" lengthAdjust="spacing" textLength="108.729" x="493.229" y="378.5537">GPS + timestamps</text><rect fill="#F1F1F1" height="50.1875" rx="12.5" ry="12.5" style="stroke:#181818;stroke-width:0.5;" width="163.4023" x="636.958" y="348.1406"/><text fill="#000000" font-family="sans-serif" font-size="12" lengthAdjust="spacing" textLength="127.4063" x="646.958" y="370.5977">Verifier heures debut/fin</text><text fill="#000000" font-family="sans-serif" font-size="12" lengthAdjust="spacing" textLength="143.4023" x="646.958" y="385.6914">(tracees automatiquement)</text><path d="M458.5249,437.0703 L458.5249,479.7734 A0,0 0 0 0 458.5249,479.7734 L639.9619,479.7734 A0,0 0 0 0 639.9619,479.7734 L639.9619,462.4219 L659.9619,458.4219 L639.9619,454.4219 L639.9619,447.0703 L629.9619,437.0703 L458.5249,437.0703 A0,0 0 0 0 458.5249,437.0703 " fill="#FEFFDD" style="stroke:#181818;stroke-width:0.5;"/><path d="M629.9619,437.0703 L629.9619,447.0703 L639.9619,447.0703 L629.9619,437.0703 " fill="#FEFFDD" style="stroke:#181818;stroke-width:0.5;"/><text fill="#000000" font-family="sans-serif" font-size="13" lengthAdjust="spacing" textLength="96.1035" x="464.5249" y="455.5654">Prises avec app,</text><text fill="#000000" font-family="sans-serif" font-size="13" lengthAdjust="spacing" textLength="160.437" x="464.5249" y="471.917">automatiquement attachees</text><rect fill="#F1F1F1" height="50.1875" rx="12.5" ry="12.5" style="stroke:#181818;stroke-width:0.5;" width="117.3945" x="659.9619" y="433.3281"/><text fill="#000000" font-family="sans-serif" font-size="12" lengthAdjust="spacing" textLength="97.3945" x="669.9619" y="455.7852">Photos avant/after</text><text fill="#000000" font-family="sans-serif" font-size="12" lengthAdjust="spacing" textLength="89.3965" x="669.9619" y="470.8789">(deja uploadees)</text><path d="M464.3179,530.4336 L464.3179,556.7852 A0,0 0 0 0 464.3179,556.7852 L622.624,556.7852 A0,0 0 0 0 622.624,556.7852 L622.624,548.4336 L642.624,543.6094 L622.624,540.4336 L622.624,540.4336 L612.624,530.4336 L464.3179,530.4336 A0,0 0 0 0 464.3179,530.4336 " fill="#FEFFDD" style="stroke:#181818;stroke-width:0.5;"/><path d="M612.624,530.4336 L612.624,540.4336 L622.624,540.4336 L612.624,530.4336 " fill="#FEFFDD" style="stroke:#181818;stroke-width:0.5;"/><text fill="#000000" font-family="sans-serif" font-size="13" lengthAdjust="spacing" textLength="137.3062" x="470.3179" y="548.9287">Reconnaissance vocale</text><rect fill="#F1F1F1" height="50.1875" rx="12.5" ry="12.5" style="stroke:#181818;stroke-width:0.5;" width="152.0703" x="642.624" y="518.5156"/><text fill="#000000" font-family="sans-serif" font-size="12" lengthAdjust="spacing" textLength="109.3945" x="652.624" y="540.9727">Ajouter observations</text><text fill="#000000" font-family="sans-serif" font-size="12" lengthAdjust="spacing" textLength="132.0703" x="652.624" y="556.0664">(optionnel, voix possible)</text><path d="M463.6904,608.0742 L463.6904,634.4258 A0,0 0 0 0 463.6904,634.4258 L614.043,634.4258 A0,0 0 0 0 614.043,634.4258 L614.043,626.0742 L634.043,621.25 L614.043,618.0742 L614.043,618.0742 L604.043,608.0742 L463.6904,608.0742 A0,0 0 0 0 463.6904,608.0742 " fill="#FEFFDD" style="stroke:#181818;stroke-width:0.5;"/><path d="M604.043,608.0742 L604.043,618.0742 L614.043,618.0742 L604.043,608.0742 " fill="#FEFFDD" style="stroke:#181818;stroke-width:0.5;"/><text fill="#000000" font-family="sans-serif" font-size="13" lengthAdjust="spacing" textLength="129.3525" x="469.6904" y="626.5693">Template automatique</text><rect fill="#F1F1F1" height="35.0938" rx="12.5" ry="12.5" style="stroke:#181818;stroke-width:0.5;" width="169.2324" x="634.043" y="603.7031"/><text fill="#000000" font-family="sans-serif" font-size="12" lengthAdjust="spacing" textLength="149.2324" x="644.043" y="626.1602">Clic "Generer Rapport PDF"</text><path d="M555.4854,685.7148 L555.4854,712.0664 A0,0 0 0 0 555.4854,712.0664 L636.458,712.0664 A0,0 0 0 0 636.458,712.0664 L636.458,703.7148 L656.458,698.8906 L636.458,695.7148 L636.458,695.7148 L626.458,685.7148 L555.4854,685.7148 A0,0 0 0 0 555.4854,685.7148 " fill="#FEFFDD" style="stroke:#181818;stroke-width:0.5;"/><path d="M626.458,685.7148 L626.458,695.7148 L636.458,695.7148 L626.458,685.7148 " fill="#FEFFDD" style="stroke:#181818;stroke-width:0.5;"/><text fill="#000000" font-family="sans-serif" font-size="13" lengthAdjust="spacing" textLength="59.9727" x="561.4854" y="704.21">2 min total</text><rect fill="#F1F1F1" height="50.1875" rx="12.5" ry="12.5" style="stroke:#181818;stroke-width:0.5;" width="124.4023" x="656.458" y="673.7969"/><text fill="#000000" font-family="sans-serif" font-size="12" lengthAdjust="spacing" textLength="89.3848" x="666.458" y="696.2539">App genere PDF</text><text fill="#000000" font-family="sans-serif" font-size="12" lengthAdjust="spacing" textLength="104.4023" x="666.458" y="711.3477">+ envoie auto email</text><polygon fill="#F1F1F1" points="419.3647,745.2031,431.3647,757.2031,419.3647,769.2031,407.3647,757.2031,419.3647,745.2031" style="stroke:#181818;stroke-width:0.5;"/><rect fill="#F1F1F1" height="50.1875" rx="12.5" ry="12.5" style="stroke:#181818;stroke-width:0.5;" width="132.0547" x="353.3374" y="789.2031"/><text fill="#000000" font-family="sans-serif" font-size="12" lengthAdjust="spacing" textLength="112.0547" x="363.3374" y="811.6602">Rapport PDF envoye</text><text fill="#000000" font-family="sans-serif" font-size="12" lengthAdjust="spacing" textLength="83.0508" x="363.3374" y="826.7539">Client + Bureau</text><ellipse cx="419.3647" cy="870.3906" fill="none" rx="11" ry="11" style="stroke:#222222;stroke-width:1;"/><ellipse cx="419.3647" cy="870.3906" fill="#222222" rx="6" ry="6" style="stroke:#222222;stroke-width:1;"/><line style="stroke:#181818;stroke-width:1;" x1="419.3647" x2="419.3647" y1="68.6094" y2="88.6094"/><polygon fill="#181818" points="415.3647,78.6094,419.3647,88.6094,423.3647,78.6094,419.3647,82.6094" style="stroke:#181818;stroke-width:1;"/><line style="stroke:#181818;stroke-width:1;" x1="120.0703" x2="120.0703" y1="231.6953" y2="262.9844"/><polygon fill="#181818" points="116.0703,252.9844,120.0703,262.9844,124.0703,252.9844,120.0703,256.9844" style="stroke:#181818;stroke-width:1;"/><line style="stroke:#181818;stroke-width:1;" x1="120.0703" x2="120.0703" y1="313.1719" y2="340.6563"/><polygon fill="#181818" points="116.0703,330.6563,120.0703,340.6563,124.0703,330.6563,120.0703,334.6563" style="stroke:#181818;stroke-width:1;"/><line style="stroke:#181818;stroke-width:1;" x1="120.0703" x2="120.0703" y1="436.125" y2="474.9297"/><polygon fill="#181818" points="116.0703,464.9297,120.0703,474.9297,124.0703,464.9297,120.0703,468.9297" style="stroke:#181818;stroke-width:1;"/><line style="stroke:#181818;stroke-width:1;" x1="120.0703" x2="120.0703" y1="510.0234" y2="548.8281"/><polygon fill="#181818" points="116.0703,538.8281,120.0703,548.8281,124.0703,538.8281,120.0703,542.8281" style="stroke:#181818;stroke-width:1;"/><line style="stroke:#181818;stroke-width:1;" x1="120.0703" x2="120.0703" y1="583.9219" y2="618.9219"/><polygon fill="#181818" points="116.0703,608.9219,120.0703,618.9219,124.0703,608.9219,120.0703,612.9219" style="stroke:#181818;stroke-width:1;"/><line style="stroke:#181818;stroke-width:1;" x1="120.0703" x2="120.0703" y1="654.0156" y2="689.0156"/><polygon fill="#181818" points="116.0703,679.0156,120.0703,689.0156,124.0703,679.0156,120.0703,683.0156" style="stroke:#181818;stroke-width:1;"/><line style="stroke:#181818;stroke-width:1;" x1="718.6592" x2="718.6592" y1="242.9844" y2="270.4688"/><polygon fill="#181818" points="714.6592,260.4688,718.6592,270.4688,722.6592,260.4688,718.6592,264.4688" style="stroke:#181818;stroke-width:1;"/><line style="stroke:#181818;stroke-width:1;" x1="718.6592" x2="718.6592" y1="320.6563" y2="348.1406"/><polygon fill="#181818" points="714.6592,338.1406,718.6592,348.1406,722.6592,338.1406,718.6592,342.1406" style="stroke:#181818;stroke-width:1;"/><line style="stroke:#181818;stroke-width:1;" x1="718.6592" x2="718.6592" y1="398.3281" y2="433.3281"/><polygon fill="#181818" points="714.6592,423.3281,718.6592,433.3281,722.6592,423.3281,718.6592,427.3281" style="stroke:#181818;stroke-width:1;"/><line style="stroke:#181818;stroke-width:1;" x1="718.6592" x2="718.6592" y1="483.5156" y2="518.5156"/><polygon fill="#181818" points="714.6592,508.5156,718.6592,518.5156,722.6592,508.5156,718.6592,512.5156" style="stroke:#181818;stroke-width:1;"/><line style="stroke:#181818;stroke-width:1;" x1="718.6592" x2="718.6592" y1="568.7031" y2="603.7031"/><polygon fill="#181818" points="714.6592,593.7031,718.6592,603.7031,722.6592,593.7031,718.6592,597.7031" style="stroke:#181818;stroke-width:1;"/><line style="stroke:#181818;stroke-width:1;" x1="718.6592" x2="718.6592" y1="638.7969" y2="673.7969"/><polygon fill="#181818" points="714.6592,663.7969,718.6592,673.7969,722.6592,663.7969,718.6592,667.7969" style="stroke:#181818;stroke-width:1;"/><line style="stroke:#181818;stroke-width:1;" x1="381.3821" x2="120.0703" y1="170.7969" y2="170.7969"/><line style="stroke:#181818;stroke-width:1;" x1="120.0703" x2="120.0703" y1="170.7969" y2="196.6016"/><polygon fill="#181818" points="116.0703,186.6016,120.0703,196.6016,124.0703,186.6016,120.0703,190.6016" style="stroke:#181818;stroke-width:1;"/><line style="stroke:#181818;stroke-width:1;" x1="457.3474" x2="718.6592" y1="170.7969" y2="170.7969"/><line style="stroke:#181818;stroke-width:1;" x1="718.6592" x2="718.6592" y1="170.7969" y2="192.7969"/><polygon fill="#181818" points="714.6592,182.7969,718.6592,192.7969,722.6592,182.7969,718.6592,186.7969" style="stroke:#181818;stroke-width:1;"/><line style="stroke:#181818;stroke-width:1;" x1="120.0703" x2="120.0703" y1="739.2031" y2="757.2031"/><line style="stroke:#181818;stroke-width:1;" x1="120.0703" x2="407.3647" y1="757.2031" y2="757.2031"/><polygon fill="#181818" points="397.3647,753.2031,407.3647,757.2031,397.3647,761.2031,401.3647,757.2031" style="stroke:#181818;stroke-width:1;"/><line style="stroke:#181818;stroke-width:1;" x1="718.6592" x2="718.6592" y1="723.9844" y2="757.2031"/><line style="stroke:#181818;stroke-width:1;" x1="718.6592" x2="431.3647" y1="757.2031" y2="757.2031"/><polygon fill="#181818" points="441.3647,753.2031,431.3647,757.2031,441.3647,761.2031,437.3647,757.2031" style="stroke:#181818;stroke-width:1;"/><line style="stroke:#181818;stroke-width:1;" x1="419.3647" x2="419.3647" y1="138.7969" y2="158.7969"/><polygon fill="#181818" points="415.3647,148.7969,419.3647,158.7969,423.3647,148.7969,419.3647,152.7969" style="stroke:#181818;stroke-width:1;"/><line style="stroke:#181818;stroke-width:1;" x1="419.3647" x2="419.3647" y1="769.2031" y2="789.2031"/><polygon fill="#181818" points="415.3647,779.2031,419.3647,789.2031,423.3647,779.2031,419.3647,783.2031" style="stroke:#181818;stroke-width:1;"/><line style="stroke:#181818;stroke-width:1;" x1="419.3647" x2="419.3647" y1="839.3906" y2="859.3906"/><polygon fill="#181818" points="415.3647,849.3906,419.3647,859.3906,423.3647,849.3906,419.3647,853.3906" style="stroke:#181818;stroke-width:1;"/><!--SRC=[RLHDJzj04BtxLumu9I8H7osNSAWWf2WI4H61zkBBnXwJfUlTxNwayE_xTXr2S7kmR8rdthnvytQ338hfft6_6cN-q2rhTY98e-b1M6jSeBaExBQiKx0eV10k5CLakk66ger0c1qXevMQIoqFaiboa66VT5aKig71wiq7Rfc-3IbiMDFWQlhuDBkRq4Beo6fO54IJ1o0uu8f8w-WOBnD9a1BK2kcDlaIIDe79oUTDcD1IUFBHxNkDIbqRz1OXiAuTPz3xk7NIqN9QwZkXAy1ZxFfazbgnkimPAu0ZeyrC55ZgG9DIZscg9Bv7983bFQVGZGWyeWs3dgUQrp6SD5AdFmlySP8LnI2LxBBlrnwwP65zd_pPnVZybA0V-TI_8_l8YZ6DUmPDkp71f2OsIW-j5IEYkOyp5MkiycbrZUaTYjdXUI-sx08sXFNuZ3_N87I0BRJFSlH1ByPdcLikokv0qVBcUoVOJ6_D6mACjQYTRgNkrA9ZkiwxwqD-EHr_lSZp1XE4AWfMdcamdL_VpIPqPQsILMV1XLbBnSF3xS6KrEPmgHUcZfXuPzGFNHKtQBFwx0VPjbnB4V9MksqdYLCV3BNFBFN0EXuxRa5Zs8ESwmPQLNcyaxqNH0oc1U7VSQVj3wo_ISVYNtSCWXCL8tPGb0ZrEzqkLz0lo9Pnu5hRuIwxNOcjIEsRaDdM_28eMcL43Tm-pjB1WAc4goJTw1FRx6yS4G6VxAXVlPW8N387VaKJOpkTr8YsHhwIDTvBkAtVxe4hfC75FXqmv5P2TNw69oewUZVG-zq28ntr81wJybZJeK8TDMp-ETUdib8V4yDziali7DY3ElzaCbtB1XVNGUiCyCR_CIokEMEBlm00]--></g></svg>