<svg xmlns="http://www.w3.org/2000/svg" xmlns:xlink="http://www.w3.org/1999/xlink" contentStyleType="text/css" height="859px" preserveAspectRatio="none" style="width:1738px;height:859px;background:#FFFFFF;" version="1.1" viewBox="0 0 1738 859" width="1738px" zoomAndPan="magnify"><title>Architecture Syst&#195;&#168;me CIBLE (Odoo Field Service)</title><defs/><g><text fill="#000000" font-family="sans-serif" font-size="14" font-weight="bold" lengthAdjust="spacing" textLength="336.8545" x="694.0288" y="24.5332">Architecture Syst&#195;&#168;me CIBLE (Odoo Field Service)</text><!--cluster Terrain (Mobilit??)--><g id="cluster_Terrain (Mobilit&#195;&#169;)"><path d="M1087.5,44.6094 L1214.6982,44.6094 A3.75,3.75 0 0 1 1217.1982,47.1094 L1224.1982,68.2188 L1559.5,68.2188 A2.5,2.5 0 0 1 1562,70.7188 L1562,507.6094 A2.5,2.5 0 0 1 1559.5,510.1094 L1087.5,510.1094 A2.5,2.5 0 0 1 1085,507.6094 L1085,47.1094 A2.5,2.5 0 0 1 1087.5,44.6094 " fill="#E8F5E9" style="stroke:#000000;stroke-width:1.5;"/><line style="stroke:#000000;stroke-width:1.5;" x1="1085" x2="1224.1982" y1="68.2188" y2="68.2188"/><text fill="#000000" font-family="sans-serif" font-size="14" font-weight="bold" lengthAdjust="spacing" textLength="126.1982" x="1089" y="61.1426">Terrain (Mobilit&#195;&#169;)</text></g><!--cluster AppMobile--><g id="cluster_AppMobile"><rect fill="#90EE90" height="277.5" rx="2.5" ry="2.5" style="stroke:#181818;stroke-width:1;" width="413" x="1117" y="200.6094"/><rect fill="#90EE90" height="10" style="stroke:#181818;stroke-width:1;" width="15" x="1510" y="205.6094"/><rect fill="#90EE90" height="2" style="stroke:#181818;stroke-width:1;" width="4" x="1508" y="207.6094"/><rect fill="#90EE90" height="2" style="stroke:#181818;stroke-width:1;" width="4" x="1508" y="211.6094"/><text fill="#000000" font-family="sans-serif" font-size="14" font-weight="bold" lengthAdjust="spacing" textLength="115.8691" x="1265.5654" y="228.1426">App Mobile Odoo</text></g><!--cluster Bureau (Pilotage)--><g id="cluster_Bureau (Pilotage)"><path d="M8.5,44.6094 L125.4033,44.6094 A3.75,3.75 0 0 1 127.9033,47.1094 L134.9033,68.2188 L447.5,68.2188 A2.5,2.5 0 0 1 450,70.7188 L450,507.6094 A2.5,2.5 0 0 1 447.5,510.1094 L8.5,510.1094 A2.5,2.5 0 0 1 6,507.6094 L6,47.1094 A2.5,2.5 0 0 1 8.5,44.6094 " fill="#E3F2FD" style="stroke:#000000;stroke-width:1.5;"/><line style="stroke:#000000;stroke-width:1.5;" x1="6" x2="134.9033" y1="68.2188" y2="68.2188"/><text fill="#000000" font-family="sans-serif" font-size="14" font-weight="bold" lengthAdjust="spacing" textLength="115.9033" x="10" y="61.1426">Bureau (Pilotage)</text></g><!--cluster OdooWeb--><g id="cluster_OdooWeb"><rect fill="#87CEEB" height="277.5" rx="2.5" ry="2.5" style="stroke:#181818;stroke-width:1;" width="380" x="38" y="200.6094"/><rect fill="#87CEEB" height="10" style="stroke:#181818;stroke-width:1;" width="15" x="398" y="205.6094"/><rect fill="#87CEEB" height="2" style="stroke:#181818;stroke-width:1;" width="4" x="396" y="207.6094"/><rect fill="#87CEEB" height="2" style="stroke:#181818;stroke-width:1;" width="4" x="396" y="211.6094"/><text fill="#000000" font-family="sans-serif" font-size="14" font-weight="bold" lengthAdjust="spacing" textLength="69.9863" x="193.0068" y="228.1426">Odoo Web</text></g><!--cluster Odoo Enterprise Core--><g id="cluster_Odoo Enterprise Core"><path d="M476.5,370.1094 L622.9688,370.1094 A3.75,3.75 0 0 1 625.4688,372.6094 L632.4688,393.7188 L1058.5,393.7188 A2.5,2.5 0 0 1 1061,396.2188 L1061,743.6094 A2.5,2.5 0 0 1 1058.5,746.1094 L476.5,746.1094 A2.5,2.5 0 0 1 474,743.6094 L474,372.6094 A2.5,2.5 0 0 1 476.5,370.1094 " fill="#E1BEE7" style="stroke:#000000;stroke-width:1.5;"/><line style="stroke:#000000;stroke-width:1.5;" x1="474" x2="632.4688" y1="393.7188" y2="393.7188"/><text fill="#000000" font-family="sans-serif" font-size="14" font-weight="bold" lengthAdjust="spacing" textLength="145.4688" x="478" y="386.6426">Odoo Enterprise Core</text></g><!--entity Marc--><g id="elem_Marc"><rect fill="#FFB6C1" height="47.6094" rx="2.5" ry="2.5" style="stroke:#181818;stroke-width:0.5;" width="126.3789" x="1101" y="80.6094"/><rect fill="#FFB6C1" height="10" style="stroke:#181818;stroke-width:0.5;" width="15" x="1207.3789" y="85.6094"/><rect fill="#FFB6C1" height="2" style="stroke:#181818;stroke-width:0.5;" width="4" x="1205.3789" y="87.6094"/><rect fill="#FFB6C1" height="2" style="stroke:#181818;stroke-width:0.5;" width="4" x="1205.3789" y="91.6094"/><text fill="#000000" font-family="sans-serif" font-size="14" lengthAdjust="spacing" textLength="86.3789" x="1116" y="115.1426">Chef Chantier</text></g><!--entity Planning--><g id="elem_Planning"><rect fill="#F1F1F1" height="47.6094" rx="2.5" ry="2.5" style="stroke:#181818;stroke-width:0.5;" width="94.4893" x="1160" y="244.6094"/><rect fill="#F1F1F1" height="10" style="stroke:#181818;stroke-width:0.5;" width="15" x="1234.4893" y="249.6094"/><rect fill="#F1F1F1" height="2" style="stroke:#181818;stroke-width:0.5;" width="4" x="1232.4893" y="251.6094"/><rect fill="#F1F1F1" height="2" style="stroke:#181818;stroke-width:0.5;" width="4" x="1232.4893" y="255.6094"/><text fill="#000000" font-family="sans-serif" font-size="14" lengthAdjust="spacing" textLength="54.4893" x="1175" y="279.1426">Planning</text></g><!--entity Rapports--><g id="elem_Rapports"><rect fill="#F1F1F1" height="47.6094" rx="2.5" ry="2.5" style="stroke:#181818;stroke-width:0.5;" width="96.8066" x="1289.5" y="244.6094"/><rect fill="#F1F1F1" height="10" style="stroke:#181818;stroke-width:0.5;" width="15" x="1366.3066" y="249.6094"/><rect fill="#F1F1F1" height="2" style="stroke:#181818;stroke-width:0.5;" width="4" x="1364.3066" y="251.6094"/><rect fill="#F1F1F1" height="2" style="stroke:#181818;stroke-width:0.5;" width="4" x="1364.3066" y="255.6094"/><text fill="#000000" font-family="sans-serif" font-size="14" lengthAdjust="spacing" textLength="56.8066" x="1304.5" y="279.1426">Rapports</text></g><!--entity Photos--><g id="elem_Photos"><rect fill="#F1F1F1" height="47.6094" rx="2.5" ry="2.5" style="stroke:#181818;stroke-width:0.5;" width="83.5859" x="1422" y="244.6094"/><rect fill="#F1F1F1" height="10" style="stroke:#181818;stroke-width:0.5;" width="15" x="1485.5859" y="249.6094"/><rect fill="#F1F1F1" height="2" style="stroke:#181818;stroke-width:0.5;" width="4" x="1483.5859" y="251.6094"/><rect fill="#F1F1F1" height="2" style="stroke:#181818;stroke-width:0.5;" width="4" x="1483.5859" y="255.6094"/><text fill="#000000" font-family="sans-serif" font-size="14" lengthAdjust="spacing" textLength="43.5859" x="1437" y="279.1426">Photos</text></g><!--entity Signature--><g id="elem_Signature"><rect fill="#F1F1F1" height="47.6094" rx="2.5" ry="2.5" style="stroke:#181818;stroke-width:0.5;" width="99.9307" x="1160" y="406.1094"/><rect fill="#F1F1F1" height="10" style="stroke:#181818;stroke-width:0.5;" width="15" x="1239.9307" y="411.1094"/><rect fill="#F1F1F1" height="2" style="stroke:#181818;stroke-width:0.5;" width="4" x="1237.9307" y="413.1094"/><rect fill="#F1F1F1" height="2" style="stroke:#181818;stroke-width:0.5;" width="4" x="1237.9307" y="417.1094"/><text fill="#000000" font-family="sans-serif" font-size="14" lengthAdjust="spacing" textLength="59.9307" x="1175" y="440.6426">Signature</text></g><!--entity Mode Offline--><g id="elem_Mode Offline"><rect fill="#F1F1F1" height="47.6094" rx="2.5" ry="2.5" style="stroke:#181818;stroke-width:0.5;" width="119.3721" x="1295.5" y="406.1094"/><rect fill="#F1F1F1" height="10" style="stroke:#181818;stroke-width:0.5;" width="15" x="1394.8721" y="411.1094"/><rect fill="#F1F1F1" height="2" style="stroke:#181818;stroke-width:0.5;" width="4" x="1392.8721" y="413.1094"/><rect fill="#F1F1F1" height="2" style="stroke:#181818;stroke-width:0.5;" width="4" x="1392.8721" y="417.1094"/><text fill="#000000" font-family="sans-serif" font-size="14" lengthAdjust="spacing" textLength="79.3721" x="1310.5" y="440.6426">Mode Offline</text></g><!--entity Julien--><g id="elem_Julien"><rect fill="#ADD8E6" height="47.6094" rx="2.5" ry="2.5" style="stroke:#181818;stroke-width:0.5;" width="173.0752" x="260.5" y="80.6094"/><rect fill="#ADD8E6" height="10" style="stroke:#181818;stroke-width:0.5;" width="15" x="413.5752" y="85.6094"/><rect fill="#ADD8E6" height="2" style="stroke:#181818;stroke-width:0.5;" width="4" x="411.5752" y="87.6094"/><rect fill="#ADD8E6" height="2" style="stroke:#181818;stroke-width:0.5;" width="4" x="411.5752" y="91.6094"/><text fill="#000000" font-family="sans-serif" font-size="14" lengthAdjust="spacing" textLength="133.0752" x="275.5" y="115.1426">Responsable Affaires</text></g><!--entity Planification--><g id="elem_Planification"><rect fill="#F1F1F1" height="47.6094" rx="2.5" ry="2.5" style="stroke:#181818;stroke-width:0.5;" width="115.4893" x="62.5" y="244.6094"/><rect fill="#F1F1F1" height="10" style="stroke:#181818;stroke-width:0.5;" width="15" x="157.9893" y="249.6094"/><rect fill="#F1F1F1" height="2" style="stroke:#181818;stroke-width:0.5;" width="4" x="155.9893" y="251.6094"/><rect fill="#F1F1F1" height="2" style="stroke:#181818;stroke-width:0.5;" width="4" x="155.9893" y="255.6094"/><text fill="#000000" font-family="sans-serif" font-size="14" lengthAdjust="spacing" textLength="75.4893" x="77.5" y="279.1426">Planification</text></g><!--entity Validation Rapports--><g id="elem_Validation Rapports"><rect fill="#F1F1F1" height="47.6094" rx="2.5" ry="2.5" style="stroke:#181818;stroke-width:0.5;" width="162.1855" x="213" y="244.6094"/><rect fill="#F1F1F1" height="10" style="stroke:#181818;stroke-width:0.5;" width="15" x="355.1855" y="249.6094"/><rect fill="#F1F1F1" height="2" style="stroke:#181818;stroke-width:0.5;" width="4" x="353.1855" y="251.6094"/><rect fill="#F1F1F1" height="2" style="stroke:#181818;stroke-width:0.5;" width="4" x="353.1855" y="255.6094"/><text fill="#000000" font-family="sans-serif" font-size="14" lengthAdjust="spacing" textLength="122.1855" x="228" y="279.1426">Validation Rapports</text></g><!--entity Suivi Rentabilit??--><g id="elem_Suivi Rentabilit&#195;&#169;"><rect fill="#F1F1F1" height="47.6094" rx="2.5" ry="2.5" style="stroke:#181818;stroke-width:0.5;" width="152.2529" x="62" y="406.1094"/><rect fill="#F1F1F1" height="10" style="stroke:#181818;stroke-width:0.5;" width="15" x="194.2529" y="411.1094"/><rect fill="#F1F1F1" height="2" style="stroke:#181818;stroke-width:0.5;" width="4" x="192.2529" y="413.1094"/><rect fill="#F1F1F1" height="2" style="stroke:#181818;stroke-width:0.5;" width="4" x="192.2529" y="417.1094"/><text fill="#000000" font-family="sans-serif" font-size="14" lengthAdjust="spacing" textLength="112.2529" x="77" y="440.6426">Suivi Rentabilit&#195;&#169;</text></g><!--entity DB--><g id="elem_DB"><path d="M587.5,693.1094 C587.5,683.1094 683.2124,683.1094 683.2124,683.1094 C683.2124,683.1094 778.9248,683.1094 778.9248,693.1094 L778.9248,719.7188 C778.9248,729.7188 683.2124,729.7188 683.2124,729.7188 C683.2124,729.7188 587.5,729.7188 587.5,719.7188 L587.5,693.1094 " fill="#BA68C8" style="stroke:#181818;stroke-width:0.5;"/><path d="M587.5,693.1094 C587.5,703.1094 683.2124,703.1094 683.2124,703.1094 C683.2124,703.1094 778.9248,703.1094 778.9248,693.1094 " fill="none" style="stroke:#181818;stroke-width:0.5;"/><text fill="#000000" font-family="sans-serif" font-size="14" lengthAdjust="spacing" textLength="171.4248" x="597.5" y="721.6426">Base de Donn&#195;&#169;es Unique</text></g><!--entity ModProjet--><g id="elem_ModProjet"><rect fill="#F1F1F1" height="47.6094" rx="2.5" ry="2.5" style="stroke:#181818;stroke-width:0.5;" width="126.3789" x="490" y="574.1094"/><rect fill="#F1F1F1" height="10" style="stroke:#181818;stroke-width:0.5;" width="15" x="596.3789" y="579.1094"/><rect fill="#F1F1F1" height="2" style="stroke:#181818;stroke-width:0.5;" width="4" x="594.3789" y="581.1094"/><rect fill="#F1F1F1" height="2" style="stroke:#181818;stroke-width:0.5;" width="4" x="594.3789" y="585.1094"/><text fill="#000000" font-family="sans-serif" font-size="14" lengthAdjust="spacing" textLength="86.3789" x="505" y="608.6426">Module Projet</text></g><!--entity ModField--><g id="elem_ModField"><rect fill="#F1F1F1" height="47.6094" rx="2.5" ry="2.5" style="stroke:#181818;stroke-width:0.5;" width="170.7236" x="605.5" y="406.1094"/><rect fill="#F1F1F1" height="10" style="stroke:#181818;stroke-width:0.5;" width="15" x="756.2236" y="411.1094"/><rect fill="#F1F1F1" height="2" style="stroke:#181818;stroke-width:0.5;" width="4" x="754.2236" y="413.1094"/><rect fill="#F1F1F1" height="2" style="stroke:#181818;stroke-width:0.5;" width="4" x="754.2236" y="417.1094"/><text fill="#000000" font-family="sans-serif" font-size="14" lengthAdjust="spacing" textLength="130.7236" x="620.5" y="440.6426">Module Field Service</text></g><!--entity ModDoc--><g id="elem_ModDoc"><rect fill="#F1F1F1" height="47.6094" rx="2.5" ry="2.5" style="stroke:#181818;stroke-width:0.5;" width="160.6133" x="883.5" y="574.1094"/><rect fill="#F1F1F1" height="10" style="stroke:#181818;stroke-width:0.5;" width="15" x="1024.1133" y="579.1094"/><rect fill="#F1F1F1" height="2" style="stroke:#181818;stroke-width:0.5;" width="4" x="1022.1133" y="581.1094"/><rect fill="#F1F1F1" height="2" style="stroke:#181818;stroke-width:0.5;" width="4" x="1022.1133" y="585.1094"/><text fill="#000000" font-family="sans-serif" font-size="14" lengthAdjust="spacing" textLength="120.6133" x="898.5" y="608.6426">Module Documents</text></g><!--entity ModFact--><g id="elem_ModFact"><rect fill="#F1F1F1" height="47.6094" rx="2.5" ry="2.5" style="stroke:#181818;stroke-width:0.5;" width="159.8408" x="688" y="574.1094"/><rect fill="#F1F1F1" height="10" style="stroke:#181818;stroke-width:0.5;" width="15" x="827.8408" y="579.1094"/><rect fill="#F1F1F1" height="2" style="stroke:#181818;stroke-width:0.5;" width="4" x="825.8408" y="581.1094"/><rect fill="#F1F1F1" height="2" style="stroke:#181818;stroke-width:0.5;" width="4" x="825.8408" y="585.1094"/><text fill="#000000" font-family="sans-serif" font-size="14" lengthAdjust="spacing" textLength="119.8408" x="703" y="608.6426">Module Facturation</text></g><g id="elem_GMN33"><path d="M1578.5,231.1094 L1578.5,306.5156 L1731.9121,306.5156 L1731.9121,241.1094 L1721.9121,231.1094 L1578.5,231.1094 " fill="#FEFFDD" style="stroke:#181818;stroke-width:0.5;"/><path d="M1721.9121,231.1094 L1721.9121,241.1094 L1731.9121,241.1094 L1721.9121,231.1094 " fill="#FEFFDD" style="stroke:#181818;stroke-width:1;"/><text fill="#000000" font-family="sans-serif" font-size="13" font-weight="bold" lengthAdjust="spacing" textLength="88.1245" x="1584.5" y="249.6045">ZERO PAPIER</text><text fill="#000000" font-family="sans-serif" font-size="13" lengthAdjust="spacing" textLength="121.3735" x="1584.5" y="265.9561">- Plus de Word/Excel</text><text fill="#000000" font-family="sans-serif" font-size="13" lengthAdjust="spacing" textLength="132.4121" x="1584.5" y="282.3076">- Photos centralis&#195;&#169;es</text><text fill="#000000" font-family="sans-serif" font-size="13" lengthAdjust="spacing" textLength="97.5508" x="1584.5" y="298.6592">- Signature client</text></g><g id="elem_GMN36"><path d="M614.5,793.1094 L614.5,852.1641 A0,0 0 0 0 614.5,852.1641 L751.0972,852.1641 A0,0 0 0 0 751.0972,852.1641 L751.0972,803.1094 L741.0972,793.1094 L687,793.1094 L683,730.1294 L679,793.1094 L614.5,793.1094 A0,0 0 0 0 614.5,793.1094 " fill="#FEFFDD" style="stroke:#181818;stroke-width:0.5;"/><path d="M741.0972,793.1094 L741.0972,803.1094 L751.0972,803.1094 L741.0972,793.1094 " fill="#FEFFDD" style="stroke:#181818;stroke-width:0.5;"/><text fill="#000000" font-family="sans-serif" font-size="13" font-weight="bold" lengthAdjust="spacing" textLength="109.7891" x="620.5" y="811.6045">DONNEE UNIQUE</text><text fill="#000000" font-family="sans-serif" font-size="13" lengthAdjust="spacing" textLength="83.9795" x="620.5" y="827.9561">- Temps r&#195;&#169;el</text><text fill="#000000" font-family="sans-serif" font-size="13" lengthAdjust="spacing" textLength="115.5972" x="620.5" y="844.3076">- Historique complet</text></g><!--link Marc to AppMobile--><g id="link_Marc_AppMobile"><path d="M1158,128.7394 C1153.95,144.4694 1148.54,165.7694 1144,184.6094 C1142.9263,189.0644 1141.8339,193.6575 1140.7432,198.29 C1140.6069,198.869 1140.4706,199.4487 1140.3343,200.0288 C1140.3003,200.1738 1141.6373,194.4776 1141.6032,194.6227 " fill="none" id="Marc-to-AppMobile" style="stroke:#181818;stroke-width:1;"/><polygon fill="#181818" points="1140.2322,200.464,1146.1829,192.6161,1141.3747,195.5963,1138.3946,190.788,1140.2322,200.464" style="stroke:#181818;stroke-width:1;"/><text fill="#000000" font-family="sans-serif" font-size="13" lengthAdjust="spacing" textLength="35.3945" x="1150" y="173.1045">Utilise</text></g><!--link Julien to OdooWeb--><g id="link_Julien_OdooWeb"><path d="M362.11,128.6094 C371.58,143.9394 383.4,164.8194 391,184.6094 C392.6425,188.8869 394.1658,193.3455 395.5746,197.8786 C395.7507,198.4452 395.9251,199.013 396.0976,199.5818 C396.1839,199.8662 394.5469,194.4034 394.6322,194.6883 " fill="none" id="Julien-to-OdooWeb" style="stroke:#181818;stroke-width:1;"/><polygon fill="#181818" points="396.3551,200.4356,397.6024,190.666,394.9194,195.6462,389.9393,192.9632,396.3551,200.4356" style="stroke:#181818;stroke-width:1;"/><text fill="#000000" font-family="sans-serif" font-size="13" lengthAdjust="spacing" textLength="32.519" x="389" y="173.1045">Pilote</text></g><!--link ModProjet to DB--><g id="link_ModProjet_DB"><path d="M585.8516,626.0214 C607.8016,644.0014 628.8291,661.2265 650.6491,679.1065 " fill="none" id="ModProjet-DB" style="stroke:#181818;stroke-width:1;"/><polygon fill="#181818" points="581.21,622.2194,585.6376,631.0169,585.078,625.3878,590.7071,624.8281,581.21,622.2194" style="stroke:#181818;stroke-width:1;"/><polygon fill="#181818" points="655.29,682.9094,650.8639,674.1111,651.4226,679.7403,645.7934,680.299,655.29,682.9094" style="stroke:#181818;stroke-width:1;"/></g><!--link ModField to DB--><g id="link_ModField_DB"><path d="M684.7407,460.1703 C677.4807,496.0703 666.66,561.4194 671,622.1094 C672.48,642.8494 675.003,660.3645 677.853,677.1045 " fill="none" id="ModField-DB" style="stroke:#181818;stroke-width:1;"/><polygon fill="#181818" points="685.93,454.2894,680.2254,462.3179,684.9389,459.1902,688.0667,463.9037,685.93,454.2894" style="stroke:#181818;stroke-width:1;"/><polygon fill="#181818" points="678.86,683.0194,681.2927,673.4757,678.0208,678.0903,673.4062,674.8184,678.86,683.0194" style="stroke:#181818;stroke-width:1;"/></g><!--link ModDoc to DB--><g id="link_ModDoc_DB"><path d="M897.4195,624.346 C849.7995,642.396 795.2307,663.0732 748.0207,680.9632 " fill="none" id="ModDoc-DB" style="stroke:#181818;stroke-width:1;"/><polygon fill="#181818" points="903.03,622.2194,893.1965,621.669,898.3546,623.9916,896.032,629.1496,903.03,622.2194" style="stroke:#181818;stroke-width:1;"/><polygon fill="#181818" points="742.41,683.0894,752.2434,683.6406,747.0856,681.3176,749.4086,676.1597,742.41,683.0894" style="stroke:#181818;stroke-width:1;"/></g><!--link ModFact to DB--><g id="link_ModFact_DB"><path d="M745.8156,626.9076 C731.4556,644.8876 719.1327,660.3398 704.8627,678.2198 " fill="none" id="ModFact-DB" style="stroke:#181818;stroke-width:1;"/><polygon fill="#181818" points="749.56,622.2194,740.818,626.7555,746.4397,626.1263,747.069,631.748,749.56,622.2194" style="stroke:#181818;stroke-width:1;"/><polygon fill="#181818" points="701.12,682.9094,709.8605,678.3702,704.2389,679.0014,703.6077,673.3799,701.12,682.9094" style="stroke:#181818;stroke-width:1;"/></g><!--link AppMobile to ModField--><g id="link_AppMobile_ModField"><path d="M1111.2226,274.6732 C1110.8286,274.818 1115.4723,273.1114 1115.0536,273.2653 C1114.216,273.5731 1113.3293,273.899 1112.3947,274.2424 C1104.9182,276.99 1094.3814,280.8623 1081.5078,285.5933 C1055.7606,295.0553 1020.6663,307.9525 982.0125,322.1581 C904.705,350.5694 818.7916,382.1442 759.3116,404.0092 " fill="none" id="AppMobile-ModField" style="stroke:#181818;stroke-width:1;"/><polygon fill="#181818" points="1116.8543,272.6036,1107.0269,271.9535,1112.1612,274.3283,1109.7865,279.4625,1116.8543,272.6036" style="stroke:#181818;stroke-width:1;"/><polygon fill="#181818" points="753.68,406.0794,763.5074,406.7285,758.373,404.3542,760.7472,399.2197,753.68,406.0794" style="stroke:#181818;stroke-width:1;"/><text fill="#000000" font-family="sans-serif" font-size="13" lengthAdjust="spacing" textLength="62.1245" x="934" y="350.6045">Sync (API)</text></g><!--link AppMobile to ModDoc--><g id="link_AppMobile_ModDoc"><path d="M1534.0283,377.3492 C1534.3325,377.758 1531.4897,373.9819 1531.7884,374.3906 C1532.3859,375.2078 1532.9723,376.0248 1533.5477,376.8415 C1534.6985,378.4749 1535.8052,380.1073 1536.8678,381.7386 C1541.118,388.2639 1544.6623,394.773 1547.4995,401.2711 C1553.1741,414.2672 1556.0206,427.2188 1556.0313,440.1656 C1556.0525,466.0594 1544.73,491.9344 1522,518.1094 C1461.14,588.1994 1189.94,597.7778 1050.54,598.0478 " fill="none" id="AppMobile-ModDoc" style="stroke:#181818;stroke-width:1;"/><polygon fill="#181818" points="1530.4256,372.5512,1532.631,382.15,1533.4278,376.5495,1539.0283,377.3464,1530.4256,372.5512" style="stroke:#181818;stroke-width:1;"/><polygon fill="#181818" points="1044.54,598.0594,1053.5477,602.0419,1049.54,598.0497,1053.5322,594.042,1044.54,598.0594" style="stroke:#181818;stroke-width:1;"/><text fill="#000000" font-family="sans-serif" font-size="13" lengthAdjust="spacing" textLength="85.2808" x="1557" y="435.6045">Upload Photos</text></g><!--link OdooWeb to ModField--><g id="link_OdooWeb_ModField"><path d="M423.3788,277.2041 C428.2198,279.9517 429.824,280.8623 438.1592,285.5933 C454.8297,295.0553 477.5519,307.9525 502.5787,322.1581 C552.6325,350.5694 606.6872,381.2522 645.2022,403.1172 " fill="none" id="OdooWeb-ModField" style="stroke:#181818;stroke-width:1;"/><polygon fill="#181818" points="418.1607,274.2424,424.0134,282.1636,422.5091,276.7105,427.9623,275.2062,418.1607,274.2424" style="stroke:#181818;stroke-width:1;"/><polygon fill="#181818" points="650.42,406.0794,644.568,398.1576,646.0718,403.6109,640.6185,405.1147,650.42,406.0794" style="stroke:#181818;stroke-width:1;"/><text fill="#000000" font-family="sans-serif" font-size="13" lengthAdjust="spacing" textLength="13" x="551" y="350.6045">UI</text></g><!--link OdooWeb to ModProjet--><g id="link_OdooWeb_ModProjet"><path d="M420.4313,293.4978 C420.9048,294.5822 419.6918,291.804 420.1982,292.9639 C422.2239,297.6036 424.5084,302.8359 427.0119,308.5695 C437.0256,331.5041 450.5425,362.46 465.0125,395.5981 C493.9525,461.8744 524.304,531.3807 540.469,568.4007 " fill="none" id="OdooWeb-ModProjet" style="stroke:#181818;stroke-width:1;"/><polygon fill="#181818" points="418.0306,287.999,417.9658,297.8476,420.0312,292.5813,425.2975,294.6467,418.0306,287.999" style="stroke:#181818;stroke-width:1;"/><polygon fill="#181818" points="542.87,573.8994,542.9342,564.0507,540.8692,569.3172,535.6027,567.2521,542.87,573.8994" style="stroke:#181818;stroke-width:1;"/><text fill="#000000" font-family="sans-serif" font-size="13" lengthAdjust="spacing" textLength="13" x="519" y="435.6045">UI</text></g><!--link ModField to ModFact--><g id="link_ModField_ModFact"><path d="M701.71,454.1894 C716.38,485.8194 740.0453,536.8464 754.7353,568.5164 " fill="none" id="ModField-to-ModFact" style="stroke:#181818;stroke-width:1;"/><polygon fill="#181818" points="757.26,573.9594,757.1016,564.1118,755.1561,569.4236,749.8443,567.4781,757.26,573.9594" style="stroke:#181818;stroke-width:1;"/><text fill="#000000" font-family="sans-serif" font-size="13" lengthAdjust="spacing" textLength="120.1294" x="744" y="540.6045">D&#195;&#169;clenche Facture</text></g><!--link AppMobile to GMN33--><g id="link_AppMobile_GMN33"><path d="M1130.573,200.541 C1132.3172,194.5523 1134.5166,188.6827 1137.28,183.1822 C1142.8069,172.1813 1150.59,162.6569 1161.5,156.6094 C1228.17,119.6594 1432.14,132.6394 1504.5,156.6094 C1548.71,171.2594 1590.49,204.4894 1618.76,230.9694 " fill="none" id="AppMobile-GMN33" style="stroke:#181818;stroke-width:1;stroke-dasharray:7.0,7.0;"/></g><!--SRC=[RLFHRjCm57tFLror3tIL9ZOGMrSXf2PnHH7RIhio2RG7Dxbf3QuTR6S2eJtnC_0Ry6DSEqcN3QIsgazkphddt6idd4IOc6mh76QkCWZBRzRz-V7xvmuXcSLl6GmkSwrXAb3ci4HpAp8yYAAIPv_v1g5tXSPmeM1mhjT22l_khuCUzDbe-eATmVS8u6EonGAIBLTEeBa1Rk6ScmpwqsbyaXnJHQPtfLQe7FGcPGc12i4BztmrOGtKFpjYxEmeq1BnN7AbXDhSrCS5Bqjjd6sEywrskZqinKPnxx0vd-kS58f22XMWE_hI9pHsUFYgepc6bIDd5gExZk-Og7W5WxcGsX4IF3-VFfkcjUS5Mh9a-Te7N1HS6BJ1-fjA2bJGdwJfY9tKgXt_8UrhN0VZ_a3_eJywJHYBkxP58JBkX5QDd_TSYZm0y2Y6PILk1Io8dUydr77SzECzjt9Z2AuU6WwDCUNGb8R2W4GRz9wFOyPEGsSapzVS-d3yB-MRQgMy75fOAV6bmk0gZQ4VJqv6oQZkmC-YefZcHdz2L- -7pkjJv_635Moh0jWfIdLMxSYgRGi8w79ml-LrRYq3GStiMr5uwTD8unghTHz0HFgeXaZs2ANsXFAMGSP6zviK2lQCOxfhAeF1P3ux-4-Hrw3LAwNcETIh7BK3Uaoqcltpg74IdkqhszTyjsD8_MWoYIhRjibW52aQF1YnsJhGnVqr89_3uGUsk8GvDSmMmo4XXp2NbVMJljOcVyg-PYXhEFGB6Kt2q6BQUWd2e_r5XCmldejGvU156-crTaxll7O8TpXCBoyk68FLnUpTYZMoLxWhBPX0Mok-5jPfutSit2Q97UA_]--></g></svg>