<svg xmlns="http://www.w3.org/2000/svg" xmlns:xlink="http://www.w3.org/1999/xlink" contentStyleType="text/css" height="919px" preserveAspectRatio="none" style="width:2264px;height:919px;background:#FFFFFF;" version="1.1" viewBox="0 0 2264 919" width="2264px" zoomAndPan="magnify"><title>Infrastructure Deploiement Application Mobile Chantier</title><defs/><g><text fill="#000000" font-family="sans-serif" font-size="14" font-weight="bold" lengthAdjust="spacing" textLength="367.9307" x="941.2365" y="24.5332">Infrastructure Deploiement Application Mobile Chantier</text><!--cluster Utilisateurs Mobiles--><g id="cluster_Utilisateurs Mobiles"><polygon fill="none" points="402.6897,54.6094,412.6897,44.6094,659.6897,44.6094,659.6897,132.6094,649.6897,142.6094,402.6897,142.6094,402.6897,54.6094" style="stroke:#181818;stroke-width:1;"/><line style="stroke:#181818;stroke-width:1;" x1="649.6897" x2="659.6897" y1="54.6094" y2="44.6094"/><line style="stroke:#181818;stroke-width:1;" x1="402.6897" x2="649.6897" y1="54.6094" y2="54.6094"/><line style="stroke:#181818;stroke-width:1;" x1="649.6897" x2="649.6897" y1="54.6094" y2="142.6094"/><text fill="#000000" font-family="sans-serif" font-size="14" font-weight="bold" lengthAdjust="spacing" textLength="132.2549" x="461.0623" y="72.1426">Utilisateurs Mobiles</text></g><!--cluster Azure Cloud France--><g id="cluster_Azure Cloud France"><path d="M72.7168,209.664 C105.2049,161.3262 150.5357,163.2102 178.5001,214.4688 C206.4013,166.335 242.9494,165.5546 278.2884,206.0991 C313.0573,161.6144 344.9778,149.9565 382.3626,203.3165 C412.9815,148.742 445.7287,146.3993 480.9932,199.0429 C513.4387,147.9256 546.1544,152.6397 582.1411,195.2201 C615.2039,138.9914 657.237,142.0175 687.9778,197.4215 C726.0061,155.8661 759.999,159.0567 788.9449,207.5996 C820.1233,164.9305 863.3967,161.7183 894.1068,208.1523 C919.9673,157.1269 954.7156,157.4991 991.4227,196.4165 C1017.672,151.3392 1067.9444,155.9306 1092.269,198.6278 C1137.0069,152.6161 1174.8212,157.0958 1209.9242,210.0788 C1234.1411,170.2113 1277.2031,163.9062 1304.5623,206.4711 C1337.694,153.7161 1381.503,152.816 1411.0454,209.9491 C1442.8545,165.9405 1473.5477,155.2554 1507.6897,207.6094 C1511.4334,203.9779 1516.1427,203.8653 1517.7769,209.8274 C1565.4549,242.304 1576.8646,284.8837 1517.8017,317.3849 C1567.08,347.8731 1573.4605,384.5796 1529.7761,425.3758 C1578.5238,462.0652 1571.1749,499.503 1520.4904,527.1174 C1581.5549,563.333 1575.2316,602.4295 1520.4533,638.6066 C1564.7954,674.8917 1561.8438,707.0545 1512.5257,735.6917 C1559.7699,769.6699 1554.1082,813.1154 1500.6897,835.1094 C1507.3191,836.2182 1508.602,840.1943 1505.312,845.6521 C1477.0727,895.4056 1437.14,896.2677 1403.3192,851.6866 C1379.0338,888.8118 1337.3412,893.0749 1313.504,851.1772 C1276.8776,903.2932 1226.2779,903.8857 1197.4886,843.1224 C1169.6846,901.9068 1133.2711,901.6862 1095.226,852.854 C1053.9699,893.6023 1021.8246,892.5976 993.9014,838.5959 C966.5788,888.4666 935.9172,886.8413 904.0362,842.9656 C875.0134,894.6687 823.4226,912.2401 787.3545,850.1924 C753.5806,898.4446 706.298,898.5366 682.9964,839.9622 C662.2724,888.1878 622.2992,885.3252 594.414,847.3185 C562.7461,904.3862 522.0968,910.6785 483.7075,853.8519 C446.8409,903.3075 410.2615,892.7112 378.2296,848.4126 C345.2672,895.4256 314.3913,888.5328 286.4897,843.3755 C255.8087,887.6245 214.314,905.2282 179.469,847.7565 C133.4935,905.4565 87.2011,888.0823 60.6897,828.1094 C65.0145,822.7176 71.9027,823.3143 74.8177,829.7881 C25.2503,806.3768 15.1649,758.2418 65.148,725.5919 C24.125,704.8325 18.1563,661.2895 60.3019,636.0299 C17.5318,604.6482 6.1969,555.6441 65.8318,529.5823 C18.7016,498.1339 15.4117,457.8289 69.195,429.7811 C24.1966,389.7408 8.446,355.2277 70.6382,316.5535 C6.8163,279.1157 6,241.239 67.6897,200.6094 C73.801,200.6088 75.9443,204.4798 72.7168,209.664 " fill="none" style="stroke:#181818;stroke-width:1;"/><text fill="#000000" font-family="sans-serif" font-size="14" font-weight="bold" lengthAdjust="spacing" textLength="132.2412" x="718.0691" y="220.1426">Azure Cloud France</text></g><!--cluster Azure App Service--><g id="cluster_Azure App Service"><polygon fill="none" points="394.6897,251.6094,404.6897,241.6094,593.6897,241.6094,593.6897,553.6094,583.6897,563.6094,394.6897,563.6094,394.6897,251.6094" style="stroke:#181818;stroke-width:1;"/><line style="stroke:#181818;stroke-width:1;" x1="583.6897" x2="593.6897" y1="251.6094" y2="241.6094"/><line style="stroke:#181818;stroke-width:1;" x1="394.6897" x2="583.6897" y1="251.6094" y2="251.6094"/><line style="stroke:#181818;stroke-width:1;" x1="583.6897" x2="583.6897" y1="251.6094" y2="563.6094"/><text fill="#000000" font-family="sans-serif" font-size="14" font-weight="bold" lengthAdjust="spacing" textLength="123.71" x="428.3347" y="269.1426">Azure App Service</text></g><!--cluster Azure Functions--><g id="cluster_Azure Functions"><polygon fill="none" points="875.6897,468.6094,885.6897,458.6094,1441.6897,458.6094,1441.6897,553.6094,1431.6897,563.6094,875.6897,563.6094,875.6897,468.6094" style="stroke:#181818;stroke-width:1;"/><line style="stroke:#181818;stroke-width:1;" x1="1431.6897" x2="1441.6897" y1="468.6094" y2="458.6094"/><line style="stroke:#181818;stroke-width:1;" x1="875.6897" x2="1431.6897" y1="468.6094" y2="468.6094"/><line style="stroke:#181818;stroke-width:1;" x1="1431.6897" x2="1431.6897" y1="468.6094" y2="563.6094"/><text fill="#000000" font-family="sans-serif" font-size="14" font-weight="bold" lengthAdjust="spacing" textLength="109.6689" x="1099.8552" y="486.1426">Azure Functions</text></g><!--cluster DB--><g id="cluster_DB"><path d="M625.6897,429.6094 C625.6897,419.6094 728.1897,419.6094 728.1897,419.6094 C728.1897,419.6094 830.6897,419.6094 830.6897,429.6094 L830.6897,582.6094 C830.6897,592.6094 728.1897,592.6094 728.1897,592.6094 C728.1897,592.6094 625.6897,592.6094 625.6897,582.6094 L625.6897,429.6094 " fill="none" style="stroke:#181818;stroke-width:1;"/><path d="M625.6897,429.6094 C625.6897,439.6094 728.1897,439.6094 728.1897,439.6094 C728.1897,439.6094 830.6897,439.6094 830.6897,429.6094 " fill="none" style="stroke:#181818;stroke-width:1;"/><text fill="#000000" font-family="sans-serif" font-size="14" font-weight="bold" lengthAdjust="spacing" textLength="189.834" x="633.2727" y="456.1426">Azure Database PostgreSQL</text></g><!--cluster Azure Blob Storage--><g id="cluster_Azure Blob Storage"><polygon fill="none" points="965.6897,717.1094,975.6897,707.1094,1472.6897,707.1094,1472.6897,809.1094,1462.6897,819.1094,965.6897,819.1094,965.6897,717.1094" style="stroke:#181818;stroke-width:1;"/><line style="stroke:#181818;stroke-width:1;" x1="1462.6897" x2="1472.6897" y1="717.1094" y2="707.1094"/><line style="stroke:#181818;stroke-width:1;" x1="965.6897" x2="1462.6897" y1="717.1094" y2="717.1094"/><line style="stroke:#181818;stroke-width:1;" x1="1462.6897" x2="1462.6897" y1="717.1094" y2="819.1094"/><text fill="#000000" font-family="sans-serif" font-size="14" font-weight="bold" lengthAdjust="spacing" textLength="129.9033" x="1150.2381" y="734.6426">Azure Blob Storage</text></g><!--cluster Azure Files--><g id="cluster_Azure Files"><polygon fill="none" points="220.6897,256.6094,230.6897,246.6094,370.6897,246.6094,370.6897,348.6094,360.6897,358.6094,220.6897,358.6094,220.6897,256.6094" style="stroke:#181818;stroke-width:1;"/><line style="stroke:#181818;stroke-width:1;" x1="360.6897" x2="370.6897" y1="256.6094" y2="246.6094"/><line style="stroke:#181818;stroke-width:1;" x1="220.6897" x2="360.6897" y1="256.6094" y2="256.6094"/><line style="stroke:#181818;stroke-width:1;" x1="360.6897" x2="360.6897" y1="256.6094" y2="358.6094"/><text fill="#000000" font-family="sans-serif" font-size="14" font-weight="bold" lengthAdjust="spacing" textLength="74.6895" x="254.345" y="274.1426">Azure Files</text></g><!--cluster Redis Cache--><g id="cluster_Redis Cache"><path d="M76.6897,246.6094 C76.6897,236.6094 136.6897,236.6094 136.6897,236.6094 C136.6897,236.6094 196.6897,236.6094 196.6897,246.6094 L196.6897,348.6094 C196.6897,358.6094 136.6897,358.6094 136.6897,358.6094 C136.6897,358.6094 76.6897,358.6094 76.6897,348.6094 L76.6897,246.6094 " fill="none" style="stroke:#181818;stroke-width:1;"/><path d="M76.6897,246.6094 C76.6897,256.6094 136.6897,256.6094 136.6897,256.6094 C136.6897,256.6094 196.6897,256.6094 196.6897,246.6094 " fill="none" style="stroke:#181818;stroke-width:1;"/><text fill="#000000" font-family="sans-serif" font-size="14" font-weight="bold" lengthAdjust="spacing" textLength="84.0342" x="94.6726" y="273.1426">Redis Cache</text></g><!--cluster Services Externes--><g id="cluster_Services Externes"><path d="M1557.2438,660.1697 C1568.9672,641.3208 1586.1965,643.6641 1595.2492,662.839 C1604.0028,644.355 1619.2712,647.8418 1629.4271,661.3405 C1639.2649,646.0526 1653.2513,644.5254 1663.6559,660.7242 C1672.2193,648.1739 1685.2316,646.2664 1694.2202,660.2342 C1704.5687,643.0607 1721.2567,636.7631 1734.4008,657.2516 C1742.4527,642.4791 1754.9664,642.6585 1763.544,656.7202 C1776.7498,638.7651 1790.3357,640.6785 1801.5282,658.8377 C1809.6716,643.8444 1823.3245,640.9146 1833.4405,656.799 C1844.471,638.9974 1862.0428,638.8605 1871.0293,658.8329 C1880.1994,644.2316 1892.6117,643.0263 1902.871,657.646 C1915.0467,637.8567 1929.7137,640.7026 1941.1175,658.4328 C1955.4462,642.6523 1967.125,643.5973 1976.1808,663.5995 C1987.1607,649.5619 1997.8843,646.5981 2009.2057,663.2318 C2022.5182,646.7595 2036.5006,647.7111 2047.6897,665.6094 C2048.9378,664.6921 2050.3177,665.2753 2050.5907,666.7782 C2072.9293,677.8485 2072.847,696.8668 2055.1363,711.9658 C2076.1025,725.3918 2071.9192,742.7283 2053.2167,754.358 C2073.3407,767.5825 2072.6526,787.6868 2051.0694,798.9007 C2069.5061,820.1805 2065.9566,835.6428 2040.6897,847.6094 C2044.6041,847.915 2045.8107,849.6382 2043.9816,853.2787 C2033.6974,867.0857 2022.074,870.9516 2011.4534,853.6303 C1999.7326,870.2466 1987.771,872.9375 1973.5779,856.4598 C1962.3955,875.4657 1945.7982,870.4596 1936.8536,854.1339 C1930.3251,868.8683 1918.9908,870.1856 1907.9302,859.2381 C1897.4621,880.5162 1877.7239,878.3171 1867.2901,859.2035 C1856.8909,876.8255 1840.9932,874.5004 1833.2208,856.6786 C1826.5918,874.1704 1811.7826,875.6858 1801.432,860.2742 C1787.0116,879.0743 1775.4205,874.6391 1763.3364,857.7784 C1754.2117,872.5776 1740.1112,870.2864 1731.3798,857.3256 C1718.7658,872.0455 1708.2338,871.2508 1696.9264,855.8319 C1685.7549,874.473 1671.7239,870.7047 1661.3522,855.0033 C1649.9793,872.9313 1636.9775,871.6433 1624.7929,855.8843 C1612.282,870.4128 1602.0983,868.5544 1591.3284,853.8887 C1571.1878,871.1064 1554.761,866.34 1547.6897,840.6094 C1550.047,841.8516 1550.4318,844.0404 1548.0857,845.652 C1522.2605,832.0471 1528.7343,809.6475 1549.3026,797.208 C1528.2624,786.4108 1524.4852,772.4313 1544.7259,756.942 C1524.2844,742.0377 1525.6043,719.7888 1550.2525,710.2178 C1523.5151,693.0941 1531.3398,671.4266 1554.6897,658.6094 C1556.1609,657.7287 1557.2167,658.6865 1557.2438,660.1697 " fill="none" style="stroke:#181818;stroke-width:1;"/><text fill="#000000" font-family="sans-serif" font-size="14" font-weight="bold" lengthAdjust="spacing" textLength="120.6406" x="1737.3694" y="678.1426">Services Externes</text></g><!--cluster SendGrid--><g id="cluster_SendGrid"><polygon fill="none" points="1830.6897,712.6094,1840.6897,702.6094,2023.6897,702.6094,2023.6897,813.6094,2013.6897,823.6094,1830.6897,823.6094,1830.6897,712.6094" style="stroke:#181818;stroke-width:1;"/><line style="stroke:#181818;stroke-width:1;" x1="2013.6897" x2="2023.6897" y1="712.6094" y2="702.6094"/><line style="stroke:#181818;stroke-width:1;" x1="1830.6897" x2="2013.6897" y1="712.6094" y2="712.6094"/><line style="stroke:#181818;stroke-width:1;" x1="2013.6897" x2="2013.6897" y1="712.6094" y2="823.6094"/><text fill="#000000" font-family="sans-serif" font-size="14" font-weight="bold" lengthAdjust="spacing" textLength="63.0068" x="1891.6863" y="730.1426">SendGrid</text></g><!--cluster Firebase/APNS--><g id="cluster_Firebase/APNS"><polygon fill="none" points="1571.6897,712.6094,1581.6897,702.6094,1790.6897,702.6094,1790.6897,813.6094,1780.6897,823.6094,1571.6897,823.6094,1571.6897,712.6094" style="stroke:#181818;stroke-width:1;"/><line style="stroke:#181818;stroke-width:1;" x1="1780.6897" x2="1790.6897" y1="712.6094" y2="702.6094"/><line style="stroke:#181818;stroke-width:1;" x1="1571.6897" x2="1780.6897" y1="712.6094" y2="712.6094"/><line style="stroke:#181818;stroke-width:1;" x1="1780.6897" x2="1780.6897" y1="712.6094" y2="823.6094"/><text fill="#000000" font-family="sans-serif" font-size="14" font-weight="bold" lengthAdjust="spacing" textLength="100.3721" x="1627.0037" y="730.1426">Firebase/APNS</text></g><!--entity iOS--><g id="elem_iOS"><rect fill="#F1F1F1" height="40.6094" rx="2.5" ry="2.5" style="stroke:#181818;stroke-width:0.5;" width="82.1377" x="418.6897" y="85.6094"/><polygon fill="#F1F1F1" points="483.8274,90.6094,483.8274,104.6094,495.8274,104.6094,495.8274,96.6094,489.8274,90.6094,483.8274,90.6094" style="stroke:#181818;stroke-width:0.5;"/><line style="stroke:#181818;stroke-width:0.5;" x1="489.8274" x2="489.8274" y1="90.6094" y2="96.6094"/><line style="stroke:#181818;stroke-width:0.5;" x1="495.8274" x2="489.8274" y1="96.6094" y2="96.6094"/><text fill="#000000" font-family="sans-serif" font-size="14" lengthAdjust="spacing" textLength="52.1377" x="428.6897" y="113.1426">App iOS</text></g><!--entity Android--><g id="elem_Android"><rect fill="#F1F1F1" height="40.6094" rx="2.5" ry="2.5" style="stroke:#181818;stroke-width:0.5;" width="107.0547" x="536.1897" y="85.6094"/><polygon fill="#F1F1F1" points="626.2444,90.6094,626.2444,104.6094,638.2444,104.6094,638.2444,96.6094,632.2444,90.6094,626.2444,90.6094" style="stroke:#181818;stroke-width:0.5;"/><line style="stroke:#181818;stroke-width:0.5;" x1="632.2444" x2="632.2444" y1="90.6094" y2="96.6094"/><line style="stroke:#181818;stroke-width:0.5;" x1="638.2444" x2="632.2444" y1="96.6094" y2="96.6094"/><text fill="#000000" font-family="sans-serif" font-size="14" lengthAdjust="spacing" textLength="77.0547" x="546.1897" y="113.1426">App Android</text></g><!--entity API--><g id="elem_API"><rect fill="#F1F1F1" height="65.2188" rx="2.5" ry="2.5" style="stroke:#181818;stroke-width:0.5;" width="103.793" x="473.6897" y="282.6094"/><rect fill="#F1F1F1" height="10" style="stroke:#181818;stroke-width:0.5;" width="15" x="557.4827" y="287.6094"/><rect fill="#F1F1F1" height="2" style="stroke:#181818;stroke-width:0.5;" width="4" x="555.4827" y="289.6094"/><rect fill="#F1F1F1" height="2" style="stroke:#181818;stroke-width:0.5;" width="4" x="555.4827" y="293.6094"/><text fill="#000000" font-family="sans-serif" font-size="14" lengthAdjust="spacing" textLength="63.793" x="488.6897" y="317.1426">API REST</text><text fill="#000000" font-family="sans-serif" font-size="14" lengthAdjust="spacing" textLength="47.4688" x="488.6897" y="334.752">Node.js</text></g><!--entity Auth--><g id="elem_Auth"><rect fill="#F1F1F1" height="47.6094" rx="2.5" ry="2.5" style="stroke:#181818;stroke-width:0.5;" width="101.4551" x="475.1897" y="499.6094"/><rect fill="#F1F1F1" height="10" style="stroke:#181818;stroke-width:0.5;" width="15" x="556.6448" y="504.6094"/><rect fill="#F1F1F1" height="2" style="stroke:#181818;stroke-width:0.5;" width="4" x="554.6448" y="506.6094"/><rect fill="#F1F1F1" height="2" style="stroke:#181818;stroke-width:0.5;" width="4" x="554.6448" y="510.6094"/><text fill="#000000" font-family="sans-serif" font-size="14" lengthAdjust="spacing" textLength="61.4551" x="490.1897" y="534.1426">Auth JWT</text></g><!--entity FuncPhoto--><g id="elem_FuncPhoto"><rect fill="#F1F1F1" height="47.6094" rx="2.5" ry="2.5" style="stroke:#181818;stroke-width:0.5;" width="169.9512" x="891.6897" y="499.6094"/><rect fill="#F1F1F1" height="10" style="stroke:#181818;stroke-width:0.5;" width="15" x="1041.6409" y="504.6094"/><rect fill="#F1F1F1" height="2" style="stroke:#181818;stroke-width:0.5;" width="4" x="1039.6409" y="506.6094"/><rect fill="#F1F1F1" height="2" style="stroke:#181818;stroke-width:0.5;" width="4" x="1039.6409" y="510.6094"/><text fill="#000000" font-family="sans-serif" font-size="14" lengthAdjust="spacing" textLength="129.9512" x="906.6897" y="534.1426">Compression Photos</text></g><!--entity FuncPDF--><g id="elem_FuncPDF"><rect fill="#F1F1F1" height="47.6094" rx="2.5" ry="2.5" style="stroke:#181818;stroke-width:0.5;" width="141.1582" x="1097.1897" y="499.6094"/><rect fill="#F1F1F1" height="10" style="stroke:#181818;stroke-width:0.5;" width="15" x="1218.3479" y="504.6094"/><rect fill="#F1F1F1" height="2" style="stroke:#181818;stroke-width:0.5;" width="4" x="1216.3479" y="506.6094"/><rect fill="#F1F1F1" height="2" style="stroke:#181818;stroke-width:0.5;" width="4" x="1216.3479" y="510.6094"/><text fill="#000000" font-family="sans-serif" font-size="14" lengthAdjust="spacing" textLength="101.1582" x="1112.1897" y="534.1426">Generation PDF</text></g><!--entity FuncPush--><g id="elem_FuncPush"><rect fill="#F1F1F1" height="47.6094" rx="2.5" ry="2.5" style="stroke:#181818;stroke-width:0.5;" width="152.0547" x="1273.6897" y="499.6094"/><rect fill="#F1F1F1" height="10" style="stroke:#181818;stroke-width:0.5;" width="15" x="1405.7444" y="504.6094"/><rect fill="#F1F1F1" height="2" style="stroke:#181818;stroke-width:0.5;" width="4" x="1403.7444" y="506.6094"/><rect fill="#F1F1F1" height="2" style="stroke:#181818;stroke-width:0.5;" width="4" x="1403.7444" y="510.6094"/><text fill="#000000" font-family="sans-serif" font-size="14" lengthAdjust="spacing" textLength="112.0547" x="1288.6897" y="534.1426">Notifications Push</text></g><!--entity Chantiers\nIncidents\nRapports\nCommandes--><g id="elem_Chantiers\nIncidents\nRapports\nCommandes"><rect fill="#F1F1F1" height="90.4375" rx="35" ry="35" style="stroke:#181818;stroke-width:0.5;" width="99.3652" x="697.1897" y="478.6094"/><text fill="#000000" font-family="sans-serif" font-size="14" lengthAdjust="spacing" textLength="59.917" x="707.1897" y="503.1426">Chantiers</text><text fill="#000000" font-family="sans-serif" font-size="14" lengthAdjust="spacing" textLength="56.0342" x="707.1897" y="520.752">Incidents</text><text fill="#000000" font-family="sans-serif" font-size="14" lengthAdjust="spacing" textLength="56.8066" x="707.1897" y="538.3613">Rapports</text><text fill="#000000" font-family="sans-serif" font-size="14" lengthAdjust="spacing" textLength="79.3652" x="707.1897" y="555.9707">Commandes</text></g><!--entity BlobPhotos--><g id="elem_BlobPhotos"><rect fill="#F1F1F1" height="55.2188" rx="35" ry="35" style="stroke:#181818;stroke-width:0.5;" width="175.6338" x="981.6897" y="748.1094"/><text fill="#000000" font-family="sans-serif" font-size="14" lengthAdjust="spacing" textLength="43.5859" x="991.6897" y="772.6426">Photos</text><text fill="#000000" font-family="sans-serif" font-size="14" lengthAdjust="spacing" textLength="155.6338" x="991.6897" y="790.252">(organisees par chantier)</text></g><!--entity BlobPDF--><g id="elem_BlobPDF"><rect fill="#F1F1F1" height="37.6094" rx="35" ry="35" style="stroke:#181818;stroke-width:0.5;" width="108.6963" x="1193.1897" y="756.6094"/><text fill="#000000" font-family="sans-serif" font-size="14" lengthAdjust="spacing" textLength="88.6963" x="1203.1897" y="781.1426">PDF Rapports</text></g><!--entity BlobPlans--><g id="elem_BlobPlans"><rect fill="#F1F1F1" height="37.6094" rx="35" ry="35" style="stroke:#181818;stroke-width:0.5;" width="118.8271" x="1337.1897" y="756.6094"/><text fill="#000000" font-family="sans-serif" font-size="14" lengthAdjust="spacing" textLength="98.8271" x="1347.1897" y="781.1426">Plans Chantiers</text></g><!--entity Plans\nAnnotations--><g id="elem_Plans\nAnnotations"><rect fill="#F1F1F1" height="55.2188" rx="35" ry="35" style="stroke:#181818;stroke-width:0.5;" width="93.9443" x="248.6897" y="287.6094"/><text fill="#000000" font-family="sans-serif" font-size="14" lengthAdjust="spacing" textLength="35.0205" x="258.6897" y="312.1426">Plans</text><text fill="#000000" font-family="sans-serif" font-size="14" lengthAdjust="spacing" textLength="73.9443" x="258.6897" y="329.752">Annotations</text></g><!--entity Sessions\nCache API--><g id="elem_Sessions\nCache API"><rect fill="#F1F1F1" height="55.2188" rx="35" ry="35" style="stroke:#181818;stroke-width:0.5;" width="86.9238" x="93.1897" y="287.6094"/><text fill="#000000" font-family="sans-serif" font-size="14" lengthAdjust="spacing" textLength="56.8066" x="103.1897" y="312.1426">Sessions</text><text fill="#000000" font-family="sans-serif" font-size="14" lengthAdjust="spacing" textLength="66.9238" x="103.1897" y="329.752">Cache API</text></g><!--entity Email Service--><g id="elem_Email Service"><rect fill="#F1F1F1" height="47.6094" rx="2.5" ry="2.5" style="stroke:#181818;stroke-width:0.5;" width="125.5791" x="1873.6897" y="751.6094"/><rect fill="#F1F1F1" height="10" style="stroke:#181818;stroke-width:0.5;" width="15" x="1979.2688" y="756.6094"/><rect fill="#F1F1F1" height="2" style="stroke:#181818;stroke-width:0.5;" width="4" x="1977.2688" y="758.6094"/><rect fill="#F1F1F1" height="2" style="stroke:#181818;stroke-width:0.5;" width="4" x="1977.2688" y="762.6094"/><text fill="#000000" font-family="sans-serif" font-size="14" lengthAdjust="spacing" textLength="85.5791" x="1888.6897" y="786.1426">Email Service</text></g><!--entity Push Notifications--><g id="elem_Push Notifications"><rect fill="#F1F1F1" height="47.6094" rx="2.5" ry="2.5" style="stroke:#181818;stroke-width:0.5;" width="152.0547" x="1614.6897" y="751.6094"/><rect fill="#F1F1F1" height="10" style="stroke:#181818;stroke-width:0.5;" width="15" x="1746.7444" y="756.6094"/><rect fill="#F1F1F1" height="2" style="stroke:#181818;stroke-width:0.5;" width="4" x="1744.7444" y="758.6094"/><rect fill="#F1F1F1" height="2" style="stroke:#181818;stroke-width:0.5;" width="4" x="1744.7444" y="762.6094"/><text fill="#000000" font-family="sans-serif" font-size="14" lengthAdjust="spacing" textLength="112.0547" x="1629.6897" y="786.1426">Push Notifications</text></g><!--entity Redis--><g id="elem_Redis"><ellipse cx="1746.6897" cy="523.6094" fill="#F1F1F1" rx="8" ry="8" style="stroke:#181818;stroke-width:0.5;"/><text fill="#000000" font-family="sans-serif" font-size="14" lengthAdjust="spacing" textLength="35.793" x="1728.7932" y="555.1426">Redis</text></g><g id="elem_GMN42"><path d="M1534.6897,486.1094 L1534.6897,561.5156 L1684.325,561.5156 L1684.325,496.1094 L1674.325,486.1094 L1534.6897,486.1094 " fill="#FEFFDD" style="stroke:#181818;stroke-width:0.5;"/><path d="M1674.325,486.1094 L1674.325,496.1094 L1684.325,496.1094 L1674.325,486.1094 " fill="#FEFFDD" style="stroke:#181818;stroke-width:1;"/><text fill="#000000" font-family="sans-serif" font-size="13" lengthAdjust="spacing" textLength="128.6353" x="1540.6897" y="504.6045">Managed PostgreSQL</text><text fill="#000000" font-family="sans-serif" font-size="13" lengthAdjust="spacing" textLength="99.7407" x="1540.6897" y="520.9561">Backup quotidien</text><text fill="#000000" font-family="sans-serif" font-size="13" lengthAdjust="spacing" textLength="105.5107" x="1540.6897" y="537.3076">Retention 30 jours</text><text fill="#000000" font-family="sans-serif" font-size="13" lengthAdjust="spacing" textLength="101.1563" x="1540.6897" y="553.6592">Encryption at rest</text></g><g id="elem_GMN45"><path d="M2072.1897,746.1094 L2072.1897,805.1641 L2257.4036,805.1641 L2257.4036,756.1094 L2247.4036,746.1094 L2072.1897,746.1094 " fill="#FEFFDD" style="stroke:#181818;stroke-width:0.5;"/><path d="M2247.4036,746.1094 L2247.4036,756.1094 L2257.4036,756.1094 L2247.4036,746.1094 " fill="#FEFFDD" style="stroke:#181818;stroke-width:1;"/><text fill="#000000" font-family="sans-serif" font-size="13" lengthAdjust="spacing" textLength="156.8062" x="2078.1897" y="764.6045">Stockage redondant (GRS)</text><text fill="#000000" font-family="sans-serif" font-size="13" lengthAdjust="spacing" textLength="130.0698" x="2078.1897" y="780.9561">Lifecycle management</text><text fill="#000000" font-family="sans-serif" font-size="13" lengthAdjust="spacing" textLength="164.2139" x="2078.1897" y="797.3076">Photos &gt;1 an &#226;&#8224;&#8217; Archive tier</text></g><g id="elem_GMN48"><path d="M1809.1897,486.1094 L1809.1897,561.5156 L1947.9895,561.5156 L1947.9895,496.1094 L1937.9895,486.1094 L1809.1897,486.1094 " fill="#FEFFDD" style="stroke:#181818;stroke-width:0.5;"/><path d="M1937.9895,486.1094 L1937.9895,496.1094 L1947.9895,496.1094 L1937.9895,486.1094 " fill="#FEFFDD" style="stroke:#181818;stroke-width:1;"/><text fill="#000000" font-family="sans-serif" font-size="13" lengthAdjust="spacing" textLength="117.7998" x="1815.1897" y="504.6045">Scaling automatique</text><text fill="#000000" font-family="sans-serif" font-size="13" lengthAdjust="spacing" textLength="93.9326" x="1815.1897" y="520.9561">Min: 2 instances</text><text fill="#000000" font-family="sans-serif" font-size="13" lengthAdjust="spacing" textLength="104.7744" x="1815.1897" y="537.3076">Max: 10 instances</text><text fill="#000000" font-family="sans-serif" font-size="13" lengthAdjust="spacing" textLength="113.0708" x="1815.1897" y="553.6592">Trigger: CPU &gt;70%</text></g><!--link iOS to API--><g id="link_iOS_API"><path d="M460.4697,126.8594 C461.3797,140.9194 463.3697,160.1594 467.6897,176.6094 C477.5997,214.3194 493.2544,249.834 506.6644,277.134 " fill="none" id="iOS-to-API" style="stroke:#181818;stroke-width:1;"/><polygon fill="#181818" points="509.3097,282.5194,508.932,272.6778,507.1053,278.0316,501.7515,276.2049,509.3097,282.5194" style="stroke:#181818;stroke-width:1;"/><text fill="#000000" font-family="sans-serif" font-size="13" lengthAdjust="spacing" textLength="91.749" x="468.6897" y="173.1045">HTTPS TLS 1.3</text></g><!--link Android to API--><g id="link_Android_API"><path d="M583.5497,126.9594 C572.4197,162.9794 550.5617,233.657 537.2017,276.877 " fill="none" id="Android-to-API" style="stroke:#181818;stroke-width:1;"/><polygon fill="#181818" points="535.4297,282.6094,541.9093,275.1921,536.9064,277.8324,534.2661,272.8295,535.4297,282.6094" style="stroke:#181818;stroke-width:1;"/><text fill="#000000" font-family="sans-serif" font-size="13" lengthAdjust="spacing" textLength="91.749" x="572.6897" y="173.1045">HTTPS TLS 1.3</text></g><!--link API to Auth--><g id="link_API_Auth"><path d="M525.6897,347.9194 C525.6897,389.7794 525.6897,456.3694 525.6897,493.4094 " fill="none" id="API-to-Auth" style="stroke:#181818;stroke-width:1;"/><polygon fill="#181818" points="525.6897,499.4094,529.6897,490.4094,525.6897,494.4094,521.6897,490.4094,525.6897,499.4094" style="stroke:#181818;stroke-width:1;"/></g><!--link API to DB--><g id="link_API_DB"><path d="M552.8097,347.8094 C565.9697,363.9494 581.5197,384.2194 593.6897,403.6094 C601.4122,415.9144 608.9072,429.37 615.8189,442.6647 C617.5469,445.9884 619.2383,449.302 620.8878,452.585 C621.7125,454.2266 622.5268,455.8605 623.3298,457.4842 C623.7313,458.296 624.13,459.1053 624.5258,459.9117 C624.7238,460.3149 624.921,460.7174 625.1174,461.1192 C625.2156,461.32 622.6817,456.1288 622.7796,456.3293 " fill="none" id="API-to-DB" style="stroke:#181818;stroke-width:1;"/><polygon fill="#181818" points="625.4115,461.7212,625.0582,451.8787,623.2183,457.2279,617.869,455.3879,625.4115,461.7212" style="stroke:#181818;stroke-width:1;"/></g><!--link API to BlobPhotos--><g id="link_API_BlobPhotos"><path d="M577.9097,317.7694 C641.8197,322.6294 749.3597,340.4194 812.6897,403.6094 C880.1597,470.9294 823.4097,528.9094 875.6897,608.6094 C914.9597,668.4694 976.8805,715.5667 1020.9405,744.6167 " fill="none" id="API-to-BlobPhotos" style="stroke:#181818;stroke-width:1;"/><polygon fill="#181818" points="1025.9497,747.9194,1020.6377,739.6258,1021.7754,745.1671,1016.2341,746.3048,1025.9497,747.9194" style="stroke:#181818;stroke-width:1;"/></g><!--link API to BlobPDF--><g id="link_API_BlobPDF"><path d="M577.7997,316.9594 C763.5897,320.5194 1385.5097,337.3594 1441.6897,403.6094 C1500.6197,473.0994 1496.7897,536.0494 1441.6897,608.6094 C1407.6497,653.4394 1363.7497,607.5794 1319.6897,642.6094 C1282.0897,672.4994 1263.0818,721.8679 1254.3918,750.5079 " fill="none" id="API-to-BlobPDF" style="stroke:#181818;stroke-width:1;"/><polygon fill="#181818" points="1252.6497,756.2494,1259.0906,748.7985,1254.1015,751.4648,1251.4352,746.4757,1252.6497,756.2494" style="stroke:#181818;stroke-width:1;"/></g><!--link API to BlobPlans--><g id="link_API_BlobPlans"><path d="M577.8497,316.3094 C769.0897,317.6294 1423.2497,327.7094 1471.6897,403.6094 C1546.8197,521.3194 1448.7775,694.188 1412.1975,751.258 " fill="none" id="API-to-BlobPlans" style="stroke:#181818;stroke-width:1;"/><polygon fill="#181818" points="1408.9597,756.3094,1417.184,750.8908,1411.6579,752.0999,1410.4488,746.5737,1408.9597,756.3094" style="stroke:#181818;stroke-width:1;"/></g><!--link API to Redis--><g id="link_API_Redis"><path d="M577.6897,318.0794 C724.2397,323.9194 1153.0097,342.8994 1507.6897,377.6094 C1594.7097,386.1294 1634.4097,348.9994 1702.6897,403.6094 C1738.2997,432.0894 1744.7387,486.3297 1746.0287,508.3397 " fill="none" id="API-to-Redis" style="stroke:#181818;stroke-width:1;"/><polygon fill="#181818" points="1746.3797,514.3294,1749.8463,505.1108,1746.0872,509.3379,1741.86,505.5788,1746.3797,514.3294" style="stroke:#181818;stroke-width:1;"/></g><!--link FuncPhoto to BlobPhotos--><g id="link_FuncPhoto_BlobPhotos"><path d="M985.2697,547.6794 C1002.5397,594.0994 1039.2975,692.916 1057.6475,742.236 " fill="none" id="FuncPhoto-to-BlobPhotos" style="stroke:#181818;stroke-width:1;"/><polygon fill="#181818" points="1059.7397,747.8594,1060.3503,738.0295,1057.9962,743.1732,1052.8524,740.8191,1059.7397,747.8594" style="stroke:#181818;stroke-width:1;"/><text fill="#000000" font-family="sans-serif" font-size="13" lengthAdjust="spacing" textLength="76.5845" x="1015.6897" y="631.1045">Compression</text></g><!--link FuncPDF to BlobPDF--><g id="link_FuncPDF_BlobPDF"><path d="M1175.0697,547.6794 C1190.8497,596.9994 1225.7717,706.1046 1240.0417,750.7146 " fill="none" id="FuncPDF-to-BlobPDF" style="stroke:#181818;stroke-width:1;"/><polygon fill="#181818" points="1241.8697,756.4294,1242.9375,746.6386,1240.3463,751.6671,1235.3178,749.076,1241.8697,756.4294" style="stroke:#181818;stroke-width:1;"/><text fill="#000000" font-family="sans-serif" font-size="13" lengthAdjust="spacing" textLength="64.3208" x="1200.6897" y="631.1045">Generation</text></g><!--link FuncPush to Firebase/APNS--><g id="link_FuncPush_Firebase/APNS"><path d="M1375.5697,547.6794 C1401.0997,570.8494 1440.8397,607.9794 1472.6897,642.6094 C1497.8547,669.9644 1524.1697,702.3694 1544.406,728.2256 C1554.5241,741.1538 1563.1225,752.4447 1569.2977,760.6486 C1570.0696,761.6741 1567.2044,757.8507 1567.8988,758.7769 " fill="none" id="FuncPush-to-Firebase/APNS" style="stroke:#181818;stroke-width:1;"/><polygon fill="#181818" points="1571.498,763.5775,1569.2996,753.9772,1568.4987,759.577,1562.8988,758.7761,1571.498,763.5775" style="stroke:#181818;stroke-width:1;"/></g><!--link API to SendGrid--><g id="link_API_SendGrid"><path d="M578.0097,317.2494 C831.1397,323.0394 1918.4197,350.9094 1965.6897,403.6094 C2026.5297,471.4294 2019.5797,535.1494 1965.6897,608.6094 C1935.9197,649.1894 1890.2797,604.2594 1857.6897,642.6094 C1848.2447,653.7244 1842.2978,667.3631 1838.6994,681.6103 C1837.7998,685.1721 1837.047,688.7719 1836.4229,692.3799 C1836.1109,694.1838 1835.8311,695.9898 1835.5813,697.7941 C1835.4564,698.6962 1835.3389,699.5979 1835.2287,700.4987 C1835.1736,700.9491 1835.1203,701.3993 1835.0687,701.8492 C1835.043,702.0742 1835.678,696.3355 1835.6531,696.5603 " fill="none" id="API-to-SendGrid" style="stroke:#181818;stroke-width:1;"/><polygon fill="#181818" points="1834.9927,702.5238,1839.959,694.0188,1835.543,697.5542,1832.0076,693.1383,1834.9927,702.5238" style="stroke:#181818;stroke-width:1;"/><text fill="#000000" font-family="sans-serif" font-size="13" lengthAdjust="spacing" textLength="36.1118" x="2009.6897" y="529.1045">SMTP</text></g><!--link API to FuncPush--><g id="link_API_FuncPush"><path d="M577.9097,317.2594 C724.9197,321.2894 1139.1197,338.2894 1255.6897,403.6094 C1294.9597,425.6194 1320.9055,466.015 1335.6655,493.935 " fill="none" id="API-to-FuncPush" style="stroke:#181818;stroke-width:1;"/><polygon fill="#181818" points="1338.4697,499.2394,1337.7997,489.4133,1336.1329,494.819,1330.7272,493.1522,1338.4697,499.2394" style="stroke:#181818;stroke-width:1;"/><text fill="#000000" font-family="sans-serif" font-size="13" lengthAdjust="spacing" textLength="39.0317" x="1236.6897" y="392.1045">Queue</text></g><!--link DB to GMN42--><g id="link_DB_GMN42"><path d="M665.0934,419.3792 C665.2954,418.951 665.5003,418.5247 665.708,418.1004 C666.1234,417.2519 666.5502,416.4115 666.9886,415.5798 C674.0041,402.2738 684.0097,391.2144 698.1897,385.1094 C738.5997,367.7094 1449.7797,367.7094 1490.1897,385.1094 C1535.8397,404.7694 1570.3397,452.1494 1590.2497,486.0094 " fill="none" id="DB-GMN42" style="stroke:#181818;stroke-width:1;stroke-dasharray:7.0,7.0;"/></g><!--link BlobPhotos to GMN45--><g id="link_BlobPhotos_GMN45"><path d="M1081.9097,747.9894 C1100.0097,711.1694 1137.8597,648.0594 1193.1897,625.6094 C1234.6297,608.7994 1956.4397,609.5794 1998.1897,625.6094 C2060.8397,649.6694 2114.6597,709.4094 2143.0997,745.8194 " fill="none" id="BlobPhotos-GMN45" style="stroke:#181818;stroke-width:1;stroke-dasharray:7.0,7.0;"/></g><!--link API to GMN48--><g id="link_API_GMN48"><path d="M577.8897,317.2094 C735.9697,320.9194 1223.2297,335.2294 1624.6897,377.6094 C1699.3897,385.4994 1727.5297,364.5394 1791.6897,403.6094 C1823.4897,422.9794 1847.2497,458.7694 1861.8297,486.0594 " fill="none" id="API-GMN48" style="stroke:#181818;stroke-width:1;stroke-dasharray:7.0,7.0;"/></g><!--SRC=[TLJDRjim3BxxAGW30zf3ktOz3CYXGD8aNOQsS-CKk-IYo4oirf5SIIxQ3GNw6hiDUvMzIPzabEMVnCboYKL-8Zz-96M5pH0cSgcPiRhWjj08Gymp9N2Dqa8_ppF1cHLAmhLQ249Vf4nQWJe8f4eGmZihCc6OnKAR2cD2-1a0C6t5ad4B8OK1yIqEWHdtl-FhoqGhaPJ-wZju3GAUgI8Xn0z7ww8yZ3MJ75ry2k89UBSB4wD-4juBzEDgdIlfoWZxqGIcetWsbpTqv_ZU-5JHP0TOs1I-VfzvFnq8yDhDDIuaTvAOFPakw5EZCKwnA5LM-LJkIddiuYzHelO2HyDnYnsEkyWRHP9LpJ0G5IPjqNIeYIRCiWKp3TbXVOwKiIkDyUrLUMyugCWRgpHR4Rxkh9dBYUGYeQpqEMLvhhJxejBMJ2RKtdsY33ArWDZ72hkXlH9pUQ3qYabX40taJ0ElKXwMb5m8Z-pS7ewXfj42AuLQLCP8bwQ85kZiUzlOZcetp5psfLJMQntkIZl5H50knjFTMcFVVIUOyxifyn7QYQu6rS3esQAMDGjFBaQPN6gt3Jl3DLepaJLZlbtJM6Xqv3xsevjuprqt8x0rGmqhMaauEZftJA47NsQpA8RPLGodnsT1jOx_zGVEM3hTijI7uQ3vt6ZgbedQjtKkkrHRIds3eDcQJYHYiR5dGRKmcx49qMvMKEz8YUWerLPG2qztu-jPrDYRspsuBR10z_9P12rMgGMrTCK2N3D9tKysjeoC0yOVYXmU2v8z4IZ9D4LBxN3hVdO2zueUJJAE9DSlUMbb5gWi6n0NS6cwoRPsXDQDFxYXqvWecT3amy7bD3uarvLO8d_Xz62lIsRkEITpfT_vAJ09V_-yl_r-V_i5VSrJyOHGlkkTp0jbhLgxrFwvZ3dBX5m1AyXCyZwI85I-a3tu148QwnveKohot8FJaotRZEfOeQRsHNTm_ldaGvlj7m00]--></g></svg>