<svg xmlns="http://www.w3.org/2000/svg" xmlns:xlink="http://www.w3.org/1999/xlink" contentStyleType="text/css" height="1052px" preserveAspectRatio="none" style="width:842px;height:1052px;background:#FFFFFF;" version="1.1" viewBox="0 0 842 1052" width="842px" zoomAndPan="magnify"><title>Processus Rapport - CIBLE (Automatis&#195;&#169;)</title><defs/><g><text fill="#000000" font-family="sans-serif" font-size="14" font-weight="bold" lengthAdjust="spacing" textLength="284.9014" x="277.2869" y="34.5332">Processus Rapport - CIBLE (Automatis&#195;&#169;)</text><rect fill="none" height="22.6406" style="stroke:none;stroke-width:1;" width="809.4751" x="15" y="51.0645"/><ellipse cx="107.7021" cy="88.7051" fill="#222222" rx="10" ry="10" style="stroke:#222222;stroke-width:1;"/><rect fill="#F1F1F1" height="35.0938" rx="12.5" ry="12.5" style="stroke:#181818;stroke-width:0.5;" width="106.6953" x="54.3545" y="118.7051"/><text fill="#000000" font-family="sans-serif" font-size="12" lengthAdjust="spacing" textLength="86.6953" x="64.3545" y="141.1621">Termine travaux</text><rect fill="#F1F1F1" height="35.0938" rx="12.5" ry="12.5" style="stroke:#181818;stroke-width:0.5;" width="110.0527" x="52.6758" y="173.7988"/><text fill="#000000" font-family="sans-serif" font-size="12" lengthAdjust="spacing" textLength="90.0527" x="62.6758" y="196.2559">Ouvre App Odoo</text><rect fill="#F1F1F1" height="35.0938" rx="12.5" ry="12.5" style="stroke:#181818;stroke-width:0.5;" width="173.4043" x="21" y="228.8926"/><text fill="#000000" font-family="sans-serif" font-size="12" lengthAdjust="spacing" textLength="153.4043" x="31" y="251.3496">Prend photos (Avant/Apr&#195;&#168;s)</text><rect fill="#F1F1F1" height="35.0938" rx="12.5" ry="12.5" style="stroke:#181818;stroke-width:0.5;" width="167.3867" x="24.0088" y="283.9863"/><text fill="#000000" font-family="sans-serif" font-size="12" lengthAdjust="spacing" textLength="147.3867" x="34.0088" y="306.4434">Dicte commentaires vocaux</text><rect fill="#F1F1F1" height="35.0938" rx="12.5" ry="12.5" style="stroke:#181818;stroke-width:0.5;" width="110.0352" x="52.6846" y="339.0801"/><text fill="#000000" font-family="sans-serif" font-size="12" lengthAdjust="spacing" textLength="90.0352" x="62.6846" y="361.5371">Fait signer Client</text><rect fill="#F1F1F1" height="35.0938" rx="12.5" ry="12.5" style="stroke:#181818;stroke-width:0.5;" width="99.3828" x="58.0107" y="394.1738"/><text fill="#000000" font-family="sans-serif" font-size="12" lengthAdjust="spacing" textLength="79.3828" x="68.0107" y="416.6309">Valide Rapport</text><line style="stroke:#000000;stroke-width:1.5;" x1="15" x2="15" y1="51.0645" y2="1040.0176"/><polygon fill="#F1F1F1" points="297.6689,449.2676,371.8115,449.2676,383.8115,461.2676,371.8115,473.2676,297.6689,473.2676,285.6689,461.2676,297.6689,449.2676" style="stroke:#181818;stroke-width:0.5;"/><text fill="#000000" font-family="sans-serif" font-size="11" lengthAdjust="spacing" textLength="74.1426" x="297.6689" y="465.7686">R&#195;&#169;seau 4G ?</text><text fill="#000000" font-family="sans-serif" font-size="11" lengthAdjust="spacing" textLength="17.1177" x="268.5513" y="458.8506">Oui</text><text fill="#000000" font-family="sans-serif" font-size="11" lengthAdjust="spacing" textLength="20.1792" x="383.8115" y="458.8506">Non</text><rect fill="#F1F1F1" height="35.0938" rx="12.5" ry="12.5" style="stroke:#181818;stroke-width:0.5;" width="116.2051" x="204.4043" y="483.2676"/><text fill="#000000" font-family="sans-serif" font-size="12" lengthAdjust="spacing" textLength="96.2051" x="214.4043" y="505.7246">Sync Imm&#195;&#169;diate</text><rect fill="#F1F1F1" height="35.0938" rx="12.5" ry="12.5" style="stroke:#181818;stroke-width:0.5;" width="102.0547" x="355.9463" y="483.2676"/><text fill="#000000" font-family="sans-serif" font-size="12" lengthAdjust="spacing" textLength="82.0547" x="365.9463" y="505.7246">Stockage Local</text><rect fill="#F1F1F1" height="35.0938" rx="12.5" ry="12.5" style="stroke:#181818;stroke-width:0.5;" width="132.7285" x="340.6094" y="538.3613"/><text fill="#000000" font-family="sans-serif" font-size="12" lengthAdjust="spacing" textLength="112.7285" x="350.6094" y="560.8184">Sync d&#195;&#168;s connexion</text><polygon fill="#F1F1F1" points="334.7402,579.4551,346.7402,591.4551,334.7402,603.4551,322.7402,591.4551,334.7402,579.4551" style="stroke:#181818;stroke-width:0.5;"/><rect fill="#F1F1F1" height="35.0938" rx="12.5" ry="12.5" style="stroke:#181818;stroke-width:0.5;" width="102.8574" x="283.3115" y="623.4551"/><text fill="#000000" font-family="sans-serif" font-size="12" lengthAdjust="spacing" textLength="82.8574" x="293.3115" y="645.9121">G&#195;&#169;n&#195;&#168;re PDF</text><rect fill="#F1F1F1" height="35.0938" rx="12.5" ry="12.5" style="stroke:#181818;stroke-width:0.5;" width="124.0449" x="272.7178" y="678.5488"/><text fill="#000000" font-family="sans-serif" font-size="12" lengthAdjust="spacing" textLength="104.0449" x="282.7178" y="701.0059">Envoie Email Client</text><rect fill="#F1F1F1" height="35.0938" rx="12.5" ry="12.5" style="stroke:#181818;stroke-width:0.5;" width="96.043" x="286.7188" y="733.6426"/><text fill="#000000" font-family="sans-serif" font-size="12" lengthAdjust="spacing" textLength="76.043" x="296.7188" y="756.0996">Notifie Bureau</text><line style="stroke:#000000;stroke-width:1.5;" x1="198.4043" x2="198.4043" y1="51.0645" y2="1040.0176"/><rect fill="#F1F1F1" height="35.0938" rx="12.5" ry="12.5" style="stroke:#181818;stroke-width:0.5;" width="90.6992" x="598.9336" y="788.7363"/><text fill="#000000" font-family="sans-serif" font-size="12" lengthAdjust="spacing" textLength="70.6992" x="608.9336" y="811.1934">Re&#195;&#167;oit Notif</text><rect fill="#F1F1F1" height="35.0938" rx="12.5" ry="12.5" style="stroke:#181818;stroke-width:0.5;" width="146.8965" x="570.835" y="843.8301"/><text fill="#000000" font-family="sans-serif" font-size="12" lengthAdjust="spacing" textLength="126.8965" x="580.835" y="866.2871">V&#195;&#169;rifie Photos/Heures</text><polygon fill="#F1F1F1" points="615.5479,898.9238,673.0186,898.9238,685.0186,910.9238,673.0186,922.9238,615.5479,922.9238,603.5479,910.9238,615.5479,898.9238" style="stroke:#181818;stroke-width:0.5;"/><text fill="#000000" font-family="sans-serif" font-size="11" lengthAdjust="spacing" textLength="57.4707" x="615.5479" y="915.4248">Conforme ?</text><text fill="#000000" font-family="sans-serif" font-size="11" lengthAdjust="spacing" textLength="17.1177" x="586.4302" y="908.5068">Oui</text><text fill="#000000" font-family="sans-serif" font-size="11" lengthAdjust="spacing" textLength="20.1792" x="685.0186" y="908.5068">Non</text><rect fill="#F1F1F1" height="35.0938" rx="12.5" ry="12.5" style="stroke:#181818;stroke-width:0.5;" width="144.0723" x="483.3379" y="932.9238"/><text fill="#000000" font-family="sans-serif" font-size="12" lengthAdjust="spacing" textLength="124.0723" x="493.3379" y="955.3809">Valide pour Facturation</text><rect fill="#F1F1F1" height="35.0938" rx="12.5" ry="12.5" style="stroke:#181818;stroke-width:0.5;" width="171.5645" x="647.4102" y="932.9238"/><text fill="#000000" font-family="sans-serif" font-size="12" lengthAdjust="spacing" textLength="151.5645" x="657.4102" y="955.3809">Demande Pr&#195;&#169;cision (Chat)</text><polygon fill="#F1F1F1" points="644.2832,974.0176,656.2832,986.0176,644.2832,998.0176,632.2832,986.0176,644.2832,974.0176" style="stroke:#181818;stroke-width:0.5;"/><ellipse cx="644.2832" cy="1029.0176" fill="none" rx="11" ry="11" style="stroke:#222222;stroke-width:1;"/><ellipse cx="644.2832" cy="1029.0176" fill="#222222" rx="6" ry="6" style="stroke:#222222;stroke-width:1;"/><line style="stroke:#000000;stroke-width:1.5;" x1="477.3379" x2="477.3379" y1="51.0645" y2="1040.0176"/><line style="stroke:#000000;stroke-width:1.5;" x1="822.9746" x2="822.9746" y1="51.0645" y2="1040.0176"/><line style="stroke:#181818;stroke-width:1;" x1="107.7021" x2="107.7021" y1="98.7051" y2="118.7051"/><polygon fill="#181818" points="103.7021,108.7051,107.7021,118.7051,111.7021,108.7051,107.7021,112.7051" style="stroke:#181818;stroke-width:1;"/><line style="stroke:#181818;stroke-width:1;" x1="107.7021" x2="107.7021" y1="153.7988" y2="173.7988"/><polygon fill="#181818" points="103.7021,163.7988,107.7021,173.7988,111.7021,163.7988,107.7021,167.7988" style="stroke:#181818;stroke-width:1;"/><line style="stroke:#181818;stroke-width:1;" x1="107.7021" x2="107.7021" y1="208.8926" y2="228.8926"/><polygon fill="#181818" points="103.7021,218.8926,107.7021,228.8926,111.7021,218.8926,107.7021,222.8926" style="stroke:#181818;stroke-width:1;"/><line style="stroke:#181818;stroke-width:1;" x1="107.7021" x2="107.7021" y1="263.9863" y2="283.9863"/><polygon fill="#181818" points="103.7021,273.9863,107.7021,283.9863,111.7021,273.9863,107.7021,277.9863" style="stroke:#181818;stroke-width:1;"/><line style="stroke:#181818;stroke-width:1;" x1="107.7021" x2="107.7021" y1="319.0801" y2="339.0801"/><polygon fill="#181818" points="103.7021,329.0801,107.7021,339.0801,111.7021,329.0801,107.7021,333.0801" style="stroke:#181818;stroke-width:1;"/><line style="stroke:#181818;stroke-width:1;" x1="107.7021" x2="107.7021" y1="374.1738" y2="394.1738"/><polygon fill="#181818" points="103.7021,384.1738,107.7021,394.1738,111.7021,384.1738,107.7021,388.1738" style="stroke:#181818;stroke-width:1;"/><line style="stroke:#181818;stroke-width:1;" x1="406.9736" x2="406.9736" y1="518.3613" y2="538.3613"/><polygon fill="#181818" points="402.9736,528.3613,406.9736,538.3613,410.9736,528.3613,406.9736,532.3613" style="stroke:#181818;stroke-width:1;"/><line style="stroke:#181818;stroke-width:1;" x1="285.6689" x2="262.5068" y1="461.2676" y2="461.2676"/><line style="stroke:#181818;stroke-width:1;" x1="262.5068" x2="262.5068" y1="461.2676" y2="483.2676"/><polygon fill="#181818" points="258.5068,473.2676,262.5068,483.2676,266.5068,473.2676,262.5068,477.2676" style="stroke:#181818;stroke-width:1;"/><line style="stroke:#181818;stroke-width:1;" x1="383.8115" x2="406.9736" y1="461.2676" y2="461.2676"/><line style="stroke:#181818;stroke-width:1;" x1="406.9736" x2="406.9736" y1="461.2676" y2="483.2676"/><polygon fill="#181818" points="402.9736,473.2676,406.9736,483.2676,410.9736,473.2676,406.9736,477.2676" style="stroke:#181818;stroke-width:1;"/><line style="stroke:#181818;stroke-width:1;" x1="262.5068" x2="262.5068" y1="518.3613" y2="591.4551"/><line style="stroke:#181818;stroke-width:1;" x1="262.5068" x2="322.7402" y1="591.4551" y2="591.4551"/><polygon fill="#181818" points="312.7402,587.4551,322.7402,591.4551,312.7402,595.4551,316.7402,591.4551" style="stroke:#181818;stroke-width:1;"/><line style="stroke:#181818;stroke-width:1;" x1="406.9736" x2="406.9736" y1="573.4551" y2="591.4551"/><line style="stroke:#181818;stroke-width:1;" x1="406.9736" x2="346.7402" y1="591.4551" y2="591.4551"/><polygon fill="#181818" points="356.7402,587.4551,346.7402,591.4551,356.7402,595.4551,352.7402,591.4551" style="stroke:#181818;stroke-width:1;"/><line style="stroke:#181818;stroke-width:1;" x1="334.7402" x2="334.7402" y1="603.4551" y2="623.4551"/><polygon fill="#181818" points="330.7402,613.4551,334.7402,623.4551,338.7402,613.4551,334.7402,617.4551" style="stroke:#181818;stroke-width:1;"/><line style="stroke:#181818;stroke-width:1;" x1="334.7402" x2="334.7402" y1="658.5488" y2="678.5488"/><polygon fill="#181818" points="330.7402,668.5488,334.7402,678.5488,338.7402,668.5488,334.7402,672.5488" style="stroke:#181818;stroke-width:1;"/><line style="stroke:#181818;stroke-width:1;" x1="334.7402" x2="334.7402" y1="713.6426" y2="733.6426"/><polygon fill="#181818" points="330.7402,723.6426,334.7402,733.6426,338.7402,723.6426,334.7402,727.6426" style="stroke:#181818;stroke-width:1;"/><line style="stroke:#181818;stroke-width:1;" x1="644.2832" x2="644.2832" y1="823.8301" y2="843.8301"/><polygon fill="#181818" points="640.2832,833.8301,644.2832,843.8301,648.2832,833.8301,644.2832,837.8301" style="stroke:#181818;stroke-width:1;"/><line style="stroke:#181818;stroke-width:1;" x1="603.5479" x2="555.374" y1="910.9238" y2="910.9238"/><line style="stroke:#181818;stroke-width:1;" x1="555.374" x2="555.374" y1="910.9238" y2="932.9238"/><polygon fill="#181818" points="551.374,922.9238,555.374,932.9238,559.374,922.9238,555.374,926.9238" style="stroke:#181818;stroke-width:1;"/><line style="stroke:#181818;stroke-width:1;" x1="685.0186" x2="733.1924" y1="910.9238" y2="910.9238"/><line style="stroke:#181818;stroke-width:1;" x1="733.1924" x2="733.1924" y1="910.9238" y2="932.9238"/><polygon fill="#181818" points="729.1924,922.9238,733.1924,932.9238,737.1924,922.9238,733.1924,926.9238" style="stroke:#181818;stroke-width:1;"/><line style="stroke:#181818;stroke-width:1;" x1="555.374" x2="555.374" y1="968.0176" y2="986.0176"/><line style="stroke:#181818;stroke-width:1;" x1="555.374" x2="632.2832" y1="986.0176" y2="986.0176"/><polygon fill="#181818" points="622.2832,982.0176,632.2832,986.0176,622.2832,990.0176,626.2832,986.0176" style="stroke:#181818;stroke-width:1;"/><line style="stroke:#181818;stroke-width:1;" x1="733.1924" x2="733.1924" y1="968.0176" y2="986.0176"/><line style="stroke:#181818;stroke-width:1;" x1="733.1924" x2="656.2832" y1="986.0176" y2="986.0176"/><polygon fill="#181818" points="666.2832,982.0176,656.2832,986.0176,666.2832,990.0176,662.2832,986.0176" style="stroke:#181818;stroke-width:1;"/><line style="stroke:#181818;stroke-width:1;" x1="644.2832" x2="644.2832" y1="878.9238" y2="898.9238"/><polygon fill="#181818" points="640.2832,888.9238,644.2832,898.9238,648.2832,888.9238,644.2832,892.9238" style="stroke:#181818;stroke-width:1;"/><line style="stroke:#181818;stroke-width:1;" x1="644.2832" x2="644.2832" y1="998.0176" y2="1018.0176"/><polygon fill="#181818" points="640.2832,1008.0176,644.2832,1018.0176,648.2832,1008.0176,644.2832,1012.0176" style="stroke:#181818;stroke-width:1;"/><line style="stroke:#181818;stroke-width:1;" x1="107.7021" x2="107.7021" y1="429.2676" y2="434.2676"/><line style="stroke:#181818;stroke-width:1;" x1="107.7021" x2="334.7402" y1="434.2676" y2="434.2676"/><line style="stroke:#181818;stroke-width:1;" x1="334.7402" x2="334.7402" y1="434.2676" y2="449.2676"/><polygon fill="#181818" points="330.7402,439.2676,334.7402,449.2676,338.7402,439.2676,334.7402,443.2676" style="stroke:#181818;stroke-width:1;"/><line style="stroke:#181818;stroke-width:1;" x1="334.7402" x2="334.7402" y1="768.7363" y2="773.7363"/><line style="stroke:#181818;stroke-width:1;" x1="334.7402" x2="644.2832" y1="773.7363" y2="773.7363"/><line style="stroke:#181818;stroke-width:1;" x1="644.2832" x2="644.2832" y1="773.7363" y2="788.7363"/><polygon fill="#181818" points="640.2832,778.7363,644.2832,788.7363,648.2832,778.7363,644.2832,782.7363" style="stroke:#181818;stroke-width:1;"/><text fill="#000000" font-family="sans-serif" font-size="18" lengthAdjust="spacing" textLength="125.0244" x="44.1899" y="69.75">Chantier (Marc)</text><text fill="#000000" font-family="sans-serif" font-size="18" lengthAdjust="spacing" textLength="131.0449" x="272.3486" y="69.75">Systeme (Odoo)</text><text fill="#000000" font-family="sans-serif" font-size="18" lengthAdjust="spacing" textLength="122.0625" x="589.125" y="69.75">Bureau (Julien)</text><!--SRC=[PPBFRXGn3CRlUGeVPmwe5qup1xJTFwMejAijucvbl5sBIJnAd54hzSR30Ay1BuOpIuiGjyZv_FdtEL7MaM2Vn5FE9SC1fqcImXjONr_URA5P5PM0oldNrvy_MkUUroUCofIW-OZ9jyykAoPrtITAWIE19fonFFQkkojp8bXD4zmD8bRO9ue3J2THoUOycz75Qahc_3stThzXhmHUGg2eo8aopEBFPZjaXSmFqIQlHpQ15J_Zo0EzGFT6T_-KbG91KqSQ71-XELJqJ5ZWxHMyQq5F54rGk7K0tVrJz70TGXKDZ4gzep6Rmwt4iq35Vy47WXjZ6VlNdc7XDjmOwP4bMbyS-EXSTrMzOhss_FlDpaYtSHOcs0RayI__hIWVhNnPak5L_lC9cW-bQYn0To0p-YQMVb7NrDK-BOtxPPSNxydQSh-aNKiyIh8L_9VqpxOcAGbswBKaUzU5-v-y6meOX_efwXpFsJHcUq9jNo9cbSdz1W00]--></g></svg>