<svg xmlns="http://www.w3.org/2000/svg" xmlns:xlink="http://www.w3.org/1999/xlink" contentStyleType="text/css" height="295px" preserveAspectRatio="none" style="width:879px;height:295px;background:#FFFFFF;" version="1.1" viewBox="0 0 879 295" width="879px" zoomAndPan="magnify"><title>Mind Map - Solutions Cibles (Odoo Field Service)</title><defs/><g><text fill="#000000" font-family="sans-serif" font-size="14" font-weight="bold" lengthAdjust="spacing" textLength="326.6895" x="275.0283" y="34.5332">Mind Map - Solutions Cibles (Odoo Field Service)</text><rect fill="#F1F1F1" height="37.6094" rx="12.5" ry="12.5" style="stroke:#181818;stroke-width:1.5;" width="154.5928" x="345.625" y="147.4609"/><text fill="#000000" font-family="sans-serif" font-size="14" lengthAdjust="spacing" textLength="134.5928" x="355.625" y="171.9941">SOLUTIONS CIBLES</text><rect fill="#F1F1F1" height="55.2188" rx="12.5" ry="12.5" style="stroke:#181818;stroke-width:1.5;" width="108.9014" x="550.2178" y="60.2188"/><text fill="#000000" font-family="sans-serif" font-size="14" lengthAdjust="spacing" textLength="56.8066" x="560.2178" y="84.752">Rapports</text><text fill="#000000" font-family="sans-serif" font-size="14" lengthAdjust="spacing" textLength="88.9014" x="560.2178" y="102.3613">Automatis&#195;&#169;s</text><text fill="#000000" font-family="sans-serif" font-size="14" lengthAdjust="spacing" textLength="70.041" x="712.1191" y="64.1426">App Mobile</text><path d="M659.1191,87.8281 L669.1191,87.8281 C684.1191,87.8281 684.1191,58.4141 699.1191,58.4141 L709.1191,58.4141 " fill="none" style="stroke:#181818;stroke-width:1;"/><text fill="#000000" font-family="sans-serif" font-size="14" lengthAdjust="spacing" textLength="98.2461" x="712.1191" y="83.752">Dict&#195;&#169;e Vocale</text><path d="M659.1191,87.8281 L669.1191,87.8281 C684.1191,87.8281 684.1191,78.0234 699.1191,78.0234 L709.1191,78.0234 " fill="none" style="stroke:#181818;stroke-width:1;"/><text fill="#000000" font-family="sans-serif" font-size="14" lengthAdjust="spacing" textLength="129.582" x="712.1191" y="103.3613">Photos Int&#195;&#169;gr&#195;&#169;es</text><path d="M659.1191,87.8281 L669.1191,87.8281 C684.1191,87.8281 684.1191,97.6328 699.1191,97.6328 L709.1191,97.6328 " fill="none" style="stroke:#181818;stroke-width:1;"/><text fill="#000000" font-family="sans-serif" font-size="14" lengthAdjust="spacing" textLength="117.332" x="712.1191" y="122.9707">Signature &#195;&#8240;cran</text><path d="M659.1191,87.8281 L669.1191,87.8281 C684.1191,87.8281 684.1191,117.2422 699.1191,117.2422 L709.1191,117.2422 " fill="none" style="stroke:#181818;stroke-width:1;"/><path d="M500.2178,166.2656 L510.2178,166.2656 C525.2178,166.2656 525.2178,87.8281 540.2178,87.8281 L550.2178,87.8281 " fill="none" style="stroke:#181818;stroke-width:1;"/><rect fill="#F1F1F1" height="55.2188" rx="12.5" ry="12.5" style="stroke:#181818;stroke-width:1.5;" width="107.3359" x="550.2178" y="138.6563"/><text fill="#000000" font-family="sans-serif" font-size="14" lengthAdjust="spacing" textLength="63.2188" x="560.2178" y="163.1895">Visibilit&#195;&#169;</text><text fill="#000000" font-family="sans-serif" font-size="14" lengthAdjust="spacing" textLength="87.3359" x="560.2178" y="180.7988">Temps R&#195;&#169;el</text><text fill="#000000" font-family="sans-serif" font-size="14" lengthAdjust="spacing" textLength="119.2803" x="710.5537" y="142.5801">Planning Partag&#195;&#169;</text><path d="M657.5537,166.2656 L667.5537,166.2656 C682.5537,166.2656 682.5537,136.8516 697.5537,136.8516 L707.5537,136.8516 " fill="none" style="stroke:#181818;stroke-width:1;"/><text fill="#000000" font-family="sans-serif" font-size="14" lengthAdjust="spacing" textLength="113.627" x="710.5537" y="162.1895">Statut Intervention</text><path d="M657.5537,166.2656 L667.5537,166.2656 C682.5537,166.2656 682.5537,156.4609 697.5537,156.4609 L707.5537,156.4609 " fill="none" style="stroke:#181818;stroke-width:1;"/><text fill="#000000" font-family="sans-serif" font-size="14" lengthAdjust="spacing" textLength="136.3838" x="710.5537" y="181.7988">Remont&#195;&#169;e Incidents</text><path d="M657.5537,166.2656 L667.5537,166.2656 C682.5537,166.2656 682.5537,176.0703 697.5537,176.0703 L707.5537,176.0703 " fill="none" style="stroke:#181818;stroke-width:1;"/><text fill="#000000" font-family="sans-serif" font-size="14" lengthAdjust="spacing" textLength="107.5908" x="710.5537" y="201.4082">G&#195;&#169;olocalisation</text><path d="M657.5537,166.2656 L667.5537,166.2656 C682.5537,166.2656 682.5537,195.6797 697.5537,195.6797 L707.5537,195.6797 " fill="none" style="stroke:#181818;stroke-width:1;"/><path d="M500.2178,166.2656 L510.2178,166.2656 C525.2178,166.2656 525.2178,166.2656 540.2178,166.2656 L550.2178,166.2656 " fill="none" style="stroke:#181818;stroke-width:1;"/><rect fill="#F1F1F1" height="55.2188" rx="12.5" ry="12.5" style="stroke:#181818;stroke-width:1.5;" width="109.6807" x="550.2178" y="217.0938"/><text fill="#000000" font-family="sans-serif" font-size="14" lengthAdjust="spacing" textLength="43.5859" x="560.2178" y="241.627">Photos</text><text fill="#000000" font-family="sans-serif" font-size="14" lengthAdjust="spacing" textLength="89.6807" x="560.2178" y="259.2363">Centralis&#195;&#169;es</text><text fill="#000000" font-family="sans-serif" font-size="14" lengthAdjust="spacing" textLength="98.8408" x="712.8984" y="221.0176">Stockage Cloud</text><path d="M659.8984,244.7031 L669.8984,244.7031 C684.8984,244.7031 684.8984,215.2891 699.8984,215.2891 L709.8984,215.2891 " fill="none" style="stroke:#181818;stroke-width:1;"/><text fill="#000000" font-family="sans-serif" font-size="14" lengthAdjust="spacing" textLength="154.8477" x="712.8984" y="240.627">Classement par Chantier</text><path d="M659.8984,244.7031 L669.8984,244.7031 C684.8984,244.7031 684.8984,234.8984 699.8984,234.8984 L709.8984,234.8984 " fill="none" style="stroke:#181818;stroke-width:1;"/><text fill="#000000" font-family="sans-serif" font-size="14" lengthAdjust="spacing" textLength="105.0615" x="712.8984" y="260.2363">Preuve Juridique</text><path d="M659.8984,244.7031 L669.8984,244.7031 C684.8984,244.7031 684.8984,254.5078 699.8984,254.5078 L709.8984,254.5078 " fill="none" style="stroke:#181818;stroke-width:1;"/><text fill="#000000" font-family="sans-serif" font-size="14" lengthAdjust="spacing" textLength="133.834" x="712.8984" y="279.8457">Historique Accessible</text><path d="M659.8984,244.7031 L669.8984,244.7031 C684.8984,244.7031 684.8984,274.1172 699.8984,274.1172 L709.8984,274.1172 " fill="none" style="stroke:#181818;stroke-width:1;"/><path d="M500.2178,166.2656 L510.2178,166.2656 C525.2178,166.2656 525.2178,244.7031 540.2178,244.7031 L550.2178,244.7031 " fill="none" style="stroke:#181818;stroke-width:1;"/><rect fill="#F1F1F1" height="55.2188" rx="12.5" ry="12.5" style="stroke:#181818;stroke-width:1.5;" width="69.0342" x="226.5908" y="99.4375"/><text fill="#000000" font-family="sans-serif" font-size="14" lengthAdjust="spacing" textLength="49.0342" x="236.5908" y="123.9707">Gain de</text><text fill="#000000" font-family="sans-serif" font-size="14" lengthAdjust="spacing" textLength="42.7861" x="236.5908" y="141.5801">Temps</text><text fill="#000000" font-family="sans-serif" font-size="14" lengthAdjust="spacing" textLength="163.5908" x="10" y="103.3613">Z&#195;&#169;ro Ressaisie (Bureau)</text><path d="M226.5908,127.0469 L216.5908,127.0469 C201.5908,127.0469 201.5908,97.6328 186.5908,97.6328 L176.5908,97.6328 " fill="none" style="stroke:#181818;stroke-width:1;"/><text fill="#000000" font-family="sans-serif" font-size="14" lengthAdjust="spacing" textLength="118.2891" x="55.3018" y="122.9707">Facturation Rapide</text><path d="M226.5908,127.0469 L216.5908,127.0469 C201.5908,127.0469 201.5908,117.2422 186.5908,117.2422 L176.5908,117.2422 " fill="none" style="stroke:#181818;stroke-width:1;"/><text fill="#000000" font-family="sans-serif" font-size="14" lengthAdjust="spacing" textLength="94.5" x="79.0908" y="142.5801">Moins d'Appels</text><path d="M226.5908,127.0469 L216.5908,127.0469 C201.5908,127.0469 201.5908,136.8516 186.5908,136.8516 L176.5908,136.8516 " fill="none" style="stroke:#181818;stroke-width:1;"/><text fill="#000000" font-family="sans-serif" font-size="14" lengthAdjust="spacing" textLength="135.5977" x="37.9932" y="162.1895">Plus de Productivit&#195;&#169;</text><path d="M226.5908,127.0469 L216.5908,127.0469 C201.5908,127.0469 201.5908,156.4609 186.5908,156.4609 L176.5908,156.4609 " fill="none" style="stroke:#181818;stroke-width:1;"/><path d="M345.625,166.2656 L335.625,166.2656 C320.625,166.2656 320.625,127.0469 305.625,127.0469 L295.625,127.0469 " fill="none" style="stroke:#181818;stroke-width:1;"/><rect fill="#F1F1F1" height="55.2188" rx="12.5" ry="12.5" style="stroke:#181818;stroke-width:1.5;" width="92.3721" x="203.2529" y="177.875"/><text fill="#000000" font-family="sans-serif" font-size="14" lengthAdjust="spacing" textLength="72.3721" x="213.2529" y="202.4082">Satisfaction</text><text fill="#000000" font-family="sans-serif" font-size="14" lengthAdjust="spacing" textLength="35.793" x="213.2529" y="220.0176">Client</text><text fill="#000000" font-family="sans-serif" font-size="14" lengthAdjust="spacing" textLength="116.6963" x="33.5566" y="181.7988">Rapport Pro (PDF)</text><path d="M203.2529,205.4844 L193.2529,205.4844 C178.2529,205.4844 178.2529,176.0703 163.2529,176.0703 L153.2529,176.0703 " fill="none" style="stroke:#181818;stroke-width:1;"/><text fill="#000000" font-family="sans-serif" font-size="14" lengthAdjust="spacing" textLength="86.3789" x="63.874" y="201.4082">Transparence</text><path d="M203.2529,205.4844 L193.2529,205.4844 C178.2529,205.4844 178.2529,195.6797 163.2529,195.6797 L153.2529,195.6797 " fill="none" style="stroke:#181818;stroke-width:1;"/><text fill="#000000" font-family="sans-serif" font-size="14" lengthAdjust="spacing" textLength="85.2031" x="65.0498" y="221.0176">R&#195;&#169;activit&#195;&#169;</text><path d="M203.2529,205.4844 L193.2529,205.4844 C178.2529,205.4844 178.2529,215.2891 163.2529,215.2891 L153.2529,215.2891 " fill="none" style="stroke:#181818;stroke-width:1;"/><text fill="#000000" font-family="sans-serif" font-size="14" lengthAdjust="spacing" textLength="98.0547" x="52.1982" y="240.627">Image Moderne</text><path d="M203.2529,205.4844 L193.2529,205.4844 C178.2529,205.4844 178.2529,234.8984 163.2529,234.8984 L153.2529,234.8984 " fill="none" style="stroke:#181818;stroke-width:1;"/><path d="M345.625,166.2656 L335.625,166.2656 C320.625,166.2656 320.625,205.4844 305.625,205.4844 L295.625,205.4844 " fill="none" style="stroke:#181818;stroke-width:1;"/><!--SRC=[LLFDJXin4BxxAURM959H4mM4SWAM18Ao46L33XKIChkJCAhNtlfdfTugyJIzzHdAc_H9ElPkrFRe-Vr-nXVEI-jhqbKj6oYC2fwCTi_PgzIUq3eXF7c5a7C9v5ppyMyLPFIYqC7WeJ865eIgWW9jIoKEXHX1yR1wt2uVxWl8bbUhUI568zZ8fZ7MkoTz6RoffIVt_lRhX-FSw1akcmPoyq8Ak_SrbJwc4NQcbCVe-jLuus2fK-vWKqK_eQ23bZvOXFUttzz_bbPg4VVko17FfTJofBTODmusgLFrKvNKclG1rgo8FCHKFzBpG1_NCJVKaNgNs61jT8zlgKkgEDd3k8bHeo9eSZArH1GTyYUTSQMDgV-WUrD-aGU4J9bGTR5CIUUmvd9ef8MZBJrYYw55k0kMAleQUdLkoNbZunikonATYoO9eN3lmJ761EH6aeOAUo6wniyHZ3LCopd9SY4ChbX86OPTVY5B5ZQHYJR6KIcU6-9Rg3wmUQZSKSp08MI8fWgbfxOJFkqkekbx7iQ3M0f5pAuNj3kEs0M3zVMYNxnb4ntJHrtsAvDnyf-vARgietgvgT1gfdc1VDNTPGiHtVMF-GfQFkh8O7mo-JIPdfmF5fRWthGmFeNn-MmwdKtF89jl8QQ7Od2pNe4pmPO85IjhwIKT_r3SoLR29h0VDSuWlWRRV0Z5_1Y4kMx96XtT4tUxl2k2M-EBnlXKV3RzU4K-VHgqiCl5DUvbK9vRIrFnCSuWQyQJqubOINq8J6y6UoiomnlijnaiDdy0]--></g></svg>