<svg xmlns="http://www.w3.org/2000/svg" xmlns:xlink="http://www.w3.org/1999/xlink" contentStyleType="text/css" height="295px" preserveAspectRatio="none" style="width:905px;height:295px;background:#FFFFFF;" version="1.1" viewBox="0 0 905 295" width="905px" zoomAndPan="magnify"><title>Mind Map - Solutions Cibles (Odoo + PayFit)</title><defs/><g><text fill="#000000" font-family="sans-serif" font-size="14" font-weight="bold" lengthAdjust="spacing" textLength="294.3896" x="304.0195" y="34.5332">Mind Map - Solutions Cibles (Odoo + PayFit)</text><rect fill="#F1F1F1" height="37.6094" rx="12.5" ry="12.5" style="stroke:#181818;stroke-width:1.5;" width="154.5928" x="368.5664" y="147.4609"/><text fill="#000000" font-family="sans-serif" font-size="14" lengthAdjust="spacing" textLength="134.5928" x="378.5664" y="171.9941">SOLUTIONS CIBLES</text><rect fill="#F1F1F1" height="55.2188" rx="12.5" ry="12.5" style="stroke:#181818;stroke-width:1.5;" width="109.6875" x="573.1592" y="60.2188"/><text fill="#000000" font-family="sans-serif" font-size="14" lengthAdjust="spacing" textLength="28.0205" x="583.1592" y="84.752">Paie</text><text fill="#000000" font-family="sans-serif" font-size="14" lengthAdjust="spacing" textLength="89.6875" x="583.1592" y="102.3613">Automatis&#195;&#169;e</text><text fill="#000000" font-family="sans-serif" font-size="14" lengthAdjust="spacing" textLength="157.582" x="735.8467" y="64.1426">Sync Auto Odoo &gt; PayFit</text><path d="M682.8467,87.8281 L692.8467,87.8281 C707.8467,87.8281 707.8467,58.4141 722.8467,58.4141 L732.8467,58.4141 " fill="none" style="stroke:#181818;stroke-width:1;"/><text fill="#000000" font-family="sans-serif" font-size="14" lengthAdjust="spacing" textLength="118.2754" x="735.8467" y="83.752">Plus de Ressaisies</text><path d="M682.8467,87.8281 L692.8467,87.8281 C707.8467,87.8281 707.8467,78.0234 722.8467,78.0234 L732.8467,78.0234 " fill="none" style="stroke:#181818;stroke-width:1;"/><text fill="#000000" font-family="sans-serif" font-size="14" lengthAdjust="spacing" textLength="112.0547" x="735.8467" y="103.3613">DSN Automatique</text><path d="M682.8467,87.8281 L692.8467,87.8281 C707.8467,87.8281 707.8467,97.6328 722.8467,97.6328 L732.8467,97.6328 " fill="none" style="stroke:#181818;stroke-width:1;"/><text fill="#000000" font-family="sans-serif" font-size="14" lengthAdjust="spacing" textLength="97.2686" x="735.8467" y="122.9707">Bulletins Justes</text><path d="M682.8467,87.8281 L692.8467,87.8281 C707.8467,87.8281 707.8467,117.2422 722.8467,117.2422 L732.8467,117.2422 " fill="none" style="stroke:#181818;stroke-width:1;"/><path d="M523.1592,166.2656 L533.1592,166.2656 C548.1592,166.2656 548.1592,87.8281 563.1592,87.8281 L573.1592,87.8281 " fill="none" style="stroke:#181818;stroke-width:1;"/><rect fill="#F1F1F1" height="55.2188" rx="12.5" ry="12.5" style="stroke:#181818;stroke-width:1.5;" width="95.5029" x="573.1592" y="138.6563"/><text fill="#000000" font-family="sans-serif" font-size="14" lengthAdjust="spacing" textLength="48.248" x="583.1592" y="163.1895">Gestion</text><text fill="#000000" font-family="sans-serif" font-size="14" lengthAdjust="spacing" textLength="75.5029" x="583.1592" y="180.7988">Quotidienne</text><text fill="#000000" font-family="sans-serif" font-size="14" lengthAdjust="spacing" textLength="143.377" x="721.6621" y="142.5801">App Mobile (Cong&#195;&#169;s)</text><path d="M668.6621,166.2656 L678.6621,166.2656 C693.6621,166.2656 693.6621,136.8516 708.6621,136.8516 L718.6621,136.8516 " fill="none" style="stroke:#181818;stroke-width:1;"/><text fill="#000000" font-family="sans-serif" font-size="14" lengthAdjust="spacing" textLength="126.834" x="721.6621" y="162.1895">Scan Notes de Frais</text><path d="M668.6621,166.2656 L678.6621,166.2656 C693.6621,166.2656 693.6621,156.4609 708.6621,156.4609 L718.6621,156.4609 " fill="none" style="stroke:#181818;stroke-width:1;"/><text fill="#000000" font-family="sans-serif" font-size="14" lengthAdjust="spacing" textLength="123.7373" x="721.6621" y="181.7988">Annuaire Entreprise</text><path d="M668.6621,166.2656 L678.6621,166.2656 C693.6621,166.2656 693.6621,176.0703 708.6621,176.0703 L718.6621,176.0703 " fill="none" style="stroke:#181818;stroke-width:1;"/><text fill="#000000" font-family="sans-serif" font-size="14" lengthAdjust="spacing" textLength="137.7168" x="721.6621" y="201.4082">Organigramme &#195;&#160; jour</text><path d="M668.6621,166.2656 L678.6621,166.2656 C693.6621,166.2656 693.6621,195.6797 708.6621,195.6797 L718.6621,195.6797 " fill="none" style="stroke:#181818;stroke-width:1;"/><path d="M523.1592,166.2656 L533.1592,166.2656 C548.1592,166.2656 548.1592,166.2656 563.1592,166.2656 L573.1592,166.2656 " fill="none" style="stroke:#181818;stroke-width:1;"/><rect fill="#F1F1F1" height="55.2188" rx="12.5" ry="12.5" style="stroke:#181818;stroke-width:1.5;" width="93.165" x="573.1592" y="217.0938"/><text fill="#000000" font-family="sans-serif" font-size="14" lengthAdjust="spacing" textLength="73.165" x="583.1592" y="241.627">Onboarding</text><text fill="#000000" font-family="sans-serif" font-size="14" lengthAdjust="spacing" textLength="38.1309" x="583.1592" y="259.2363">Fluide</text><text fill="#000000" font-family="sans-serif" font-size="14" lengthAdjust="spacing" textLength="107.3721" x="719.3242" y="221.0176">Checklist Digitale</text><path d="M666.3242,244.7031 L676.3242,244.7031 C691.3242,244.7031 691.3242,215.2891 706.3242,215.2891 L716.3242,215.2891 " fill="none" style="stroke:#181818;stroke-width:1;"/><text fill="#000000" font-family="sans-serif" font-size="14" lengthAdjust="spacing" textLength="116.6348" x="719.3242" y="240.627">Mat&#195;&#169;riel Pr&#195;&#170;t J1</text><path d="M666.3242,244.7031 L676.3242,244.7031 C691.3242,244.7031 691.3242,234.8984 706.3242,234.8984 L716.3242,234.8984 " fill="none" style="stroke:#181818;stroke-width:1;"/><text fill="#000000" font-family="sans-serif" font-size="14" lengthAdjust="spacing" textLength="93.3584" x="719.3242" y="260.2363">Acc&#195;&#168;s IT Auto</text><path d="M666.3242,244.7031 L676.3242,244.7031 C691.3242,244.7031 691.3242,254.5078 706.3242,254.5078 L716.3242,254.5078 " fill="none" style="stroke:#181818;stroke-width:1;"/><text fill="#000000" font-family="sans-serif" font-size="14" lengthAdjust="spacing" textLength="118.2754" x="719.3242" y="279.8457">Marque Employeur</text><path d="M666.3242,244.7031 L676.3242,244.7031 C691.3242,244.7031 691.3242,274.1172 706.3242,274.1172 L716.3242,274.1172 " fill="none" style="stroke:#181818;stroke-width:1;"/><path d="M523.1592,166.2656 L533.1592,166.2656 C548.1592,166.2656 548.1592,244.7031 563.1592,244.7031 L573.1592,244.7031 " fill="none" style="stroke:#181818;stroke-width:1;"/><rect fill="#F1F1F1" height="55.2188" rx="12.5" ry="12.5" style="stroke:#181818;stroke-width:1.5;" width="119.5928" x="198.9736" y="99.4375"/><text fill="#000000" font-family="sans-serif" font-size="14" lengthAdjust="spacing" textLength="49.0342" x="208.9736" y="123.9707">Gain de</text><text fill="#000000" font-family="sans-serif" font-size="14" lengthAdjust="spacing" textLength="99.5928" x="208.9736" y="141.5801">Temps (Sophie)</text><text fill="#000000" font-family="sans-serif" font-size="14" lengthAdjust="spacing" textLength="91.8203" x="54.1533" y="103.3613">-2.5j / semaine</text><path d="M198.9736,127.0469 L188.9736,127.0469 C173.9736,127.0469 173.9736,97.6328 158.9736,97.6328 L148.9736,97.6328 " fill="none" style="stroke:#181818;stroke-width:1;"/><text fill="#000000" font-family="sans-serif" font-size="14" lengthAdjust="spacing" textLength="90.2549" x="55.7188" y="122.9707">Focus Humain</text><path d="M198.9736,127.0469 L188.9736,127.0469 C173.9736,127.0469 173.9736,117.2422 158.9736,117.2422 L148.9736,117.2422 " fill="none" style="stroke:#181818;stroke-width:1;"/><text fill="#000000" font-family="sans-serif" font-size="14" lengthAdjust="spacing" textLength="100.3721" x="45.6016" y="142.5801">Moins de Stress</text><path d="M198.9736,127.0469 L188.9736,127.0469 C173.9736,127.0469 173.9736,136.8516 158.9736,136.8516 L148.9736,136.8516 " fill="none" style="stroke:#181818;stroke-width:1;"/><text fill="#000000" font-family="sans-serif" font-size="14" lengthAdjust="spacing" textLength="91.0547" x="54.9189" y="162.1895">Plus de Valeur</text><path d="M198.9736,127.0469 L188.9736,127.0469 C173.9736,127.0469 173.9736,156.4609 158.9736,156.4609 L148.9736,156.4609 " fill="none" style="stroke:#181818;stroke-width:1;"/><path d="M368.5664,166.2656 L358.5664,166.2656 C343.5664,166.2656 343.5664,127.0469 328.5664,127.0469 L318.5664,127.0469 " fill="none" style="stroke:#181818;stroke-width:1;"/><rect fill="#F1F1F1" height="55.2188" rx="12.5" ry="12.5" style="stroke:#181818;stroke-width:1.5;" width="108.3203" x="210.2461" y="177.875"/><text fill="#000000" font-family="sans-serif" font-size="14" lengthAdjust="spacing" textLength="80.3359" x="220.2461" y="202.4082">Conformit&#195;&#169;</text><text fill="#000000" font-family="sans-serif" font-size="14" lengthAdjust="spacing" textLength="88.3203" x="220.2461" y="220.0176">&amp; S&#195;&#169;curit&#195;&#169;</text><text fill="#000000" font-family="sans-serif" font-size="14" lengthAdjust="spacing" textLength="115.3496" x="41.8965" y="181.7988">RGPD Respect&#195;&#169;</text><path d="M210.2461,205.4844 L200.2461,205.4844 C185.2461,205.4844 185.2461,176.0703 170.2461,176.0703 L160.2461,176.0703 " fill="none" style="stroke:#181818;stroke-width:1;"/><text fill="#000000" font-family="sans-serif" font-size="14" lengthAdjust="spacing" textLength="141.8115" x="15.4346" y="201.4082">Historique Centralis&#195;&#169;</text><path d="M210.2461,205.4844 L200.2461,205.4844 C185.2461,205.4844 185.2461,195.6797 170.2461,195.6797 L160.2461,195.6797 " fill="none" style="stroke:#181818;stroke-width:1;"/><text fill="#000000" font-family="sans-serif" font-size="14" lengthAdjust="spacing" textLength="147.2461" x="10" y="221.0176">Coffre-fort Num&#195;&#169;rique</text><path d="M210.2461,205.4844 L200.2461,205.4844 C185.2461,205.4844 185.2461,215.2891 170.2461,215.2891 L160.2461,215.2891 " fill="none" style="stroke:#181818;stroke-width:1;"/><text fill="#000000" font-family="sans-serif" font-size="14" lengthAdjust="spacing" textLength="97.2617" x="59.9844" y="240.627">Contrats &#195;&#160; jour</text><path d="M210.2461,205.4844 L200.2461,205.4844 C185.2461,205.4844 185.2461,234.8984 170.2461,234.8984 L160.2461,234.8984 " fill="none" style="stroke:#181818;stroke-width:1;"/><path d="M368.5664,166.2656 L358.5664,166.2656 C343.5664,166.2656 343.5664,205.4844 328.5664,205.4844 L318.5664,205.4844 " fill="none" style="stroke:#181818;stroke-width:1;"/><!--SRC=[LLDDRzf04BtxLyof0YhIWaWKSQYI60X162WcEI55YpsGITUxxduWSSuVwR7jpsZ_M6Tjfqrlw_buxysRyPLrmhY2L5w84b8jlIEjxEDw6aMEd4H8E0S99xl_qX3JJgA5rZBN6jx3IfmcvDfHr85qER_Vt2qNASHtD_Dn6dKwd2RSgcllT24SsTylltuWnpkFa9vK1Y415TAd1gbEhgIta2EiqLf1bj3MyL6wW5Umhxv1kl5IeYFMDlFMSMaWlaKRz6xLPwyTvOHADUNNPGc9tX4Fs8grEWHDjjs8oeI2XMQGm3unpDqqAUK56OInSWPBGxP1Mvg3K7GmeYWG6EeRF6jlAWbBjTF2vAGEMpMHdlAc9Nx2x8iaws141t92Dl54kA3544fO6Nx-T33hDVnPne7l5kusbG6l7OPTW75HIdt2G2jnxy06gie4GOe7sQeD5YNlBDNb4s4pQxT_TluC7y1YmMMDXedEsFcf3w66GmTdsOsK1xVs__qyiFXcMhPohqr1rGnRzGxIyCYygIDrt_fsDGfBBJ5x4vso5zg4XKACxA-GzQKqTkdztc2NmHqiV55Rz7VvJCiDphxr_WhvfkkxZgAL5ChT9tCueh5y4T0xwt_i3yukMnD3lEiZzCwXTpaS38Q32uZ76mZfTjIwNSt1Cbw6aBD0Gxlg3sX7Ct4KiFRAKO5325-jJTA6TFmQv2Cvaj6gu66YsKDI5y5KkxJKhYg-67Hlo46AXcN1GnADS2-yTDoQwN0oGuZBNl-y7ys5EdXnOAQzYMBD3EOqXCdw3m00]--></g></svg>