<svg xmlns="http://www.w3.org/2000/svg" xmlns:xlink="http://www.w3.org/1999/xlink" contentStyleType="text/css" height="1868px" preserveAspectRatio="none" style="width:815px;height:1868px;background:#FFFFFF;" version="1.1" viewBox="0 0 815 1868" width="815px" zoomAndPan="magnify"><title>Processus Prise RDV Maintenance - ACTUEL vs CIBLE</title><defs/><g><text fill="#000000" font-family="sans-serif" font-size="14" font-weight="bold" lengthAdjust="spacing" textLength="365.6611" x="223.4185" y="34.5332">Processus Prise RDV Maintenance - ACTUEL vs CIBLE</text><rect fill="none" height="22.6406" style="stroke:none;stroke-width:1;" width="782.498" x="15" y="51.0645"/><rect fill="#F08080" height="1805.8672" style="stroke:#F08080;stroke-width:1;" width="409.1475" x="15" y="51.0645"/><ellipse cx="163.5674" cy="88.7051" fill="#222222" rx="10" ry="10" style="stroke:#222222;stroke-width:1;"/><rect fill="#F1F1F1" height="35.0938" rx="12.5" ry="12.5" style="stroke:#181818;stroke-width:0.5;" width="178.0859" x="74.5244" y="118.7051"/><text fill="#000000" font-family="sans-serif" font-size="12" lengthAdjust="spacing" textLength="158.0859" x="84.5244" y="141.1621">Client souhaite RDV entretien</text><path d="M249.2695,177.541 L249.2695,194.8926 L229.2695,198.8926 L249.2695,202.8926 L249.2695,220.2441 A0,0 0 0 0 249.2695,220.2441 L419.1475,220.2441 A0,0 0 0 0 419.1475,220.2441 L419.1475,187.541 L409.1475,177.541 L249.2695,177.541 A0,0 0 0 0 249.2695,177.541 " fill="#FF6B6B" style="stroke:#181818;stroke-width:0.5;"/><path d="M409.1475,177.541 L409.1475,187.541 L419.1475,187.541 L409.1475,177.541 " fill="#FF6B6B" style="stroke:#181818;stroke-width:0.5;"/><text fill="#000000" font-family="sans-serif" font-size="13" lengthAdjust="spacing" textLength="148.8779" x="255.2695" y="196.0361">Dispo 8h-18h uniquement</text><text fill="#000000" font-family="sans-serif" font-size="13" lengthAdjust="spacing" textLength="109.8208" x="255.2695" y="212.3877">Pas de self-service</text><rect fill="#F1F1F1" height="50.1875" rx="12.5" ry="12.5" style="stroke:#181818;stroke-width:0.5;" width="131.4043" x="97.8652" y="173.7988"/><text fill="#000000" font-family="sans-serif" font-size="12" lengthAdjust="spacing" textLength="90.0586" x="107.8652" y="196.2559">Appelle Clothilde</text><text fill="#000000" font-family="sans-serif" font-size="12" lengthAdjust="spacing" textLength="111.4043" x="107.8652" y="211.3496">(8h-18h uniquement)</text><rect fill="#F1F1F1" height="35.0938" rx="12.5" ry="12.5" style="stroke:#181818;stroke-width:0.5;" width="175.4434" x="75.8457" y="243.9863"/><text fill="#000000" font-family="sans-serif" font-size="12" lengthAdjust="spacing" textLength="155.4434" x="85.8457" y="266.4434">Clothilde decroche telephone</text><path d="M274.9307,295.2754 L274.9307,312.627 L254.9307,316.627 L274.9307,320.627 L274.9307,337.9785 A0,0 0 0 0 274.9307,337.9785 L414.4541,337.9785 A0,0 0 0 0 414.4541,337.9785 L414.4541,305.2754 L404.4541,295.2754 L274.9307,295.2754 A0,0 0 0 0 274.9307,295.2754 " fill="#FF6B6B" style="stroke:#181818;stroke-width:0.5;"/><path d="M404.4541,295.2754 L404.4541,305.2754 L414.4541,305.2754 L404.4541,295.2754 " fill="#FF6B6B" style="stroke:#181818;stroke-width:0.5;"/><text fill="#000000" font-family="sans-serif" font-size="13" lengthAdjust="spacing" textLength="118.5234" x="280.9307" y="313.7705">Donnees eparpillees</text><text fill="#000000" font-family="sans-serif" font-size="13" lengthAdjust="spacing" textLength="73.6899" x="280.9307" y="330.1221">Pas de CRM</text><rect fill="#F1F1F1" height="35.0938" rx="12.5" ry="12.5" style="stroke:#181818;stroke-width:0.5;" width="182.7266" x="72.2041" y="299.0801"/><text fill="#000000" font-family="sans-serif" font-size="12" lengthAdjust="spacing" textLength="162.7266" x="82.2041" y="321.5371">Recherche client Excel (2 min)</text><rect fill="#F1F1F1" height="35.0938" rx="12.5" ry="12.5" style="stroke:#181818;stroke-width:0.5;" width="166.707" x="80.2139" y="357.9785"/><text fill="#000000" font-family="sans-serif" font-size="12" lengthAdjust="spacing" textLength="146.707" x="90.2139" y="380.4355">Verifie contrat Word (2 min)</text><rect fill="#F1F1F1" height="35.0938" rx="12.5" ry="12.5" style="stroke:#181818;stroke-width:0.5;" width="201.4297" x="62.8525" y="413.0723"/><text fill="#000000" font-family="sans-serif" font-size="12" lengthAdjust="spacing" textLength="181.4297" x="72.8525" y="435.5293">Consulte planning Outlook (3 min)</text><polygon fill="#F1F1F1" points="123.2063,468.166,203.9285,468.166,215.9285,480.166,203.9285,492.166,123.2063,492.166,111.2063,480.166,123.2063,468.166" style="stroke:#181818;stroke-width:0.5;"/><text fill="#000000" font-family="sans-serif" font-size="11" lengthAdjust="spacing" textLength="80.7222" x="123.2063" y="484.667">Creneau dispo ?</text><text fill="#000000" font-family="sans-serif" font-size="11" lengthAdjust="spacing" textLength="14.6792" x="96.5271" y="477.749">oui</text><text fill="#000000" font-family="sans-serif" font-size="11" lengthAdjust="spacing" textLength="18.353" x="215.9285" y="477.749">non</text><rect fill="#F1F1F1" height="35.0938" rx="12.5" ry="12.5" style="stroke:#181818;stroke-width:0.5;" width="111.3945" x="21" y="502.166"/><text fill="#000000" font-family="sans-serif" font-size="12" lengthAdjust="spacing" textLength="91.3945" x="31" y="524.623">Propose creneau</text><rect fill="#F1F1F1" height="35.0938" rx="12.5" ry="12.5" style="stroke:#181818;stroke-width:0.5;" width="196.0859" x="152.3945" y="502.166"/><text fill="#000000" font-family="sans-serif" font-size="12" lengthAdjust="spacing" textLength="176.0859" x="162.3945" y="524.623">Recherche autre creneau (5 min)</text><rect fill="#F1F1F1" height="35.0938" rx="12.5" ry="12.5" style="stroke:#181818;stroke-width:0.5;" width="64.6953" x="218.0898" y="557.2598"/><text fill="#000000" font-family="sans-serif" font-size="12" lengthAdjust="spacing" textLength="44.6953" x="228.0898" y="579.7168">Propose</text><polygon fill="#F1F1F1" points="163.5674,598.3535,175.5674,610.3535,163.5674,622.3535,151.5674,610.3535,163.5674,598.3535" style="stroke:#181818;stroke-width:0.5;"/><rect fill="#F1F1F1" height="35.0938" rx="12.5" ry="12.5" style="stroke:#181818;stroke-width:0.5;" width="158.0938" x="84.5205" y="642.3535"/><text fill="#000000" font-family="sans-serif" font-size="12" lengthAdjust="spacing" textLength="138.0938" x="94.5205" y="664.8105">Client accepte ou negocie</text><path d="M252.5889,701.8184 L252.5889,710.9941 L232.5889,714.9941 L252.5889,718.9941 L252.5889,728.1699 A0,0 0 0 0 252.5889,728.1699 L348.7261,728.1699 A0,0 0 0 0 348.7261,728.1699 L348.7261,711.8184 L338.7261,701.8184 L252.5889,701.8184 A0,0 0 0 0 252.5889,701.8184 " fill="#FF6B6B" style="stroke:#181818;stroke-width:0.5;"/><path d="M338.7261,701.8184 L338.7261,711.8184 L348.7261,711.8184 L338.7261,701.8184 " fill="#FF6B6B" style="stroke:#181818;stroke-width:0.5;"/><text fill="#000000" font-family="sans-serif" font-size="13" lengthAdjust="spacing" textLength="75.1372" x="258.5889" y="720.3135">RE-SAISIE 1</text><rect fill="#F1F1F1" height="35.0938" rx="12.5" ry="12.5" style="stroke:#181818;stroke-width:0.5;" width="138.043" x="94.5459" y="697.4473"/><text fill="#000000" font-family="sans-serif" font-size="12" lengthAdjust="spacing" textLength="118.043" x="104.5459" y="719.9043">Saisie Outlook (2 min)</text><path d="M246.583,756.9121 L246.583,766.0879 L226.583,770.0879 L246.583,774.0879 L246.583,783.2637 A0,0 0 0 0 246.583,783.2637 L342.7202,783.2637 A0,0 0 0 0 342.7202,783.2637 L342.7202,766.9121 L332.7202,756.9121 L246.583,756.9121 A0,0 0 0 0 246.583,756.9121 " fill="#FF6B6B" style="stroke:#181818;stroke-width:0.5;"/><path d="M332.7202,756.9121 L332.7202,766.9121 L342.7202,766.9121 L332.7202,756.9121 " fill="#FF6B6B" style="stroke:#181818;stroke-width:0.5;"/><text fill="#000000" font-family="sans-serif" font-size="13" lengthAdjust="spacing" textLength="75.1372" x="252.583" y="775.4072">RE-SAISIE 2</text><rect fill="#F1F1F1" height="35.0938" rx="12.5" ry="12.5" style="stroke:#181818;stroke-width:0.5;" width="126.0313" x="100.5518" y="752.541"/><text fill="#000000" font-family="sans-serif" font-size="12" lengthAdjust="spacing" textLength="106.0313" x="110.5518" y="774.998">Saisie Excel (1 min)</text><path d="M245.2471,803.8301 L245.2471,821.1816 L225.2471,825.1816 L245.2471,829.1816 L245.2471,846.5332 A0,0 0 0 0 245.2471,846.5332 L391.9688,846.5332 A0,0 0 0 0 391.9688,846.5332 L391.9688,813.8301 L381.9688,803.8301 L245.2471,803.8301 A0,0 0 0 0 245.2471,803.8301 " fill="#FF6B6B" style="stroke:#181818;stroke-width:0.5;"/><path d="M381.9688,803.8301 L381.9688,813.8301 L391.9688,813.8301 L381.9688,803.8301 " fill="#FF6B6B" style="stroke:#181818;stroke-width:0.5;"/><text fill="#000000" font-family="sans-serif" font-size="13" lengthAdjust="spacing" textLength="75.1372" x="251.2471" y="822.3252">RE-SAISIE 3</text><text fill="#000000" font-family="sans-serif" font-size="13" lengthAdjust="spacing" textLength="125.7217" x="251.2471" y="838.6768">Triple saisie manuelle</text><rect fill="#F1F1F1" height="35.0938" rx="12.5" ry="12.5" style="stroke:#181818;stroke-width:0.5;" width="123.3594" x="101.8877" y="807.6348"/><text fill="#000000" font-family="sans-serif" font-size="12" lengthAdjust="spacing" textLength="103.3594" x="111.8877" y="830.0918">Saisie GAO (2 min)</text><rect fill="#F1F1F1" height="35.0938" rx="12.5" ry="12.5" style="stroke:#181818;stroke-width:0.5;" width="215.4102" x="55.8623" y="866.5332"/><text fill="#000000" font-family="sans-serif" font-size="12" lengthAdjust="spacing" textLength="195.4102" x="65.8623" y="888.9902">Redaction email confirmation (5 min)</text><rect fill="#F1F1F1" height="35.0938" rx="12.5" ry="12.5" style="stroke:#181818;stroke-width:0.5;" width="115.3672" x="105.8838" y="921.627"/><text fill="#000000" font-family="sans-serif" font-size="12" lengthAdjust="spacing" textLength="95.3672" x="115.8838" y="944.084">Client recoit email</text><path d="M230.9092,966.7207 L230.9092,1008.5996 L210.9092,1012.5996 L230.9092,1016.5996 L230.9092,1058.4785 A0,0 0 0 0 230.9092,1058.4785 L400.7871,1058.4785 A0,0 0 0 0 400.7871,1058.4785 L400.7871,976.7207 L390.7871,966.7207 L230.9092,966.7207 A0,0 0 0 0 230.9092,966.7207 " fill="#FEFFDD" style="stroke:#181818;stroke-width:0.5;"/><path d="M390.7871,966.7207 L390.7871,976.7207 L400.7871,976.7207 L390.7871,966.7207 " fill="#FEFFDD" style="stroke:#181818;stroke-width:0.5;"/><text fill="#000000" font-family="sans-serif" font-size="13" font-weight="bold" lengthAdjust="spacing" textLength="140.8418" x="236.9092" y="985.2158">TEMPS TOTAL: 19 min</text><text fill="#000000" font-family="sans-serif" font-size="13" lengthAdjust="spacing" textLength="112.0044" x="236.9092" y="1001.5674">Client attend: 8 min</text><text fill="#000000" font-family="sans-serif" font-size="13" lengthAdjust="spacing" textLength="96.8271" x="236.9092" y="1017.9189">Clothilde: 19 min</text><text fill="#000000" font-family="sans-serif" font-size="13" lengthAdjust="spacing" textLength="125.7217" x="236.9092" y="1034.2705">Triple saisie manuelle</text><text fill="#000000" font-family="sans-serif" font-size="13" lengthAdjust="spacing" textLength="148.8779" x="236.9092" y="1050.6221">Dispo 8h-18h uniquement</text><rect fill="#FF6B6B" height="35.0938" rx="12.5" ry="12.5" style="stroke:#181818;stroke-width:0.5;" width="94.6836" x="116.2256" y="995.0527"/><text fill="#000000" font-family="sans-serif" font-size="12" lengthAdjust="spacing" textLength="74.6836" x="126.2256" y="1017.5098">RDV confirme</text><ellipse cx="163.5674" cy="1089.4785" fill="none" rx="11" ry="11" style="stroke:#222222;stroke-width:1;"/><ellipse cx="163.5674" cy="1089.4785" fill="#222222" rx="6" ry="6" style="stroke:#222222;stroke-width:1;"/><line style="stroke:#000000;stroke-width:1.5;" x1="15" x2="15" y1="51.0645" y2="1856.9316"/><rect fill="#90EE90" height="1805.8672" style="stroke:#90EE90;stroke-width:1;" width="371.8501" x="424.1475" y="51.0645"/><ellipse cx="536.5283" cy="1120.4785" fill="#222222" rx="10" ry="10" style="stroke:#222222;stroke-width:1;"/><rect fill="#F1F1F1" height="35.0938" rx="12.5" ry="12.5" style="stroke:#181818;stroke-width:0.5;" width="178.0859" x="447.4854" y="1150.4785"/><text fill="#000000" font-family="sans-serif" font-size="12" lengthAdjust="spacing" textLength="158.0859" x="457.4854" y="1172.9355">Client souhaite RDV entretien</text><path d="M630.5684,1209.3145 L630.5684,1226.666 L610.5684,1230.666 L630.5684,1234.666 L630.5684,1252.0176 A0,0 0 0 0 630.5684,1252.0176 L719.4756,1252.0176 A0,0 0 0 0 719.4756,1252.0176 L719.4756,1219.3145 L709.4756,1209.3145 L630.5684,1209.3145 A0,0 0 0 0 630.5684,1209.3145 " fill="#90EE90" style="stroke:#181818;stroke-width:0.5;"/><path d="M709.4756,1209.3145 L709.4756,1219.3145 L719.4756,1219.3145 L709.4756,1209.3145 " fill="#90EE90" style="stroke:#181818;stroke-width:0.5;"/><text fill="#000000" font-family="sans-serif" font-size="13" lengthAdjust="spacing" textLength="62.1499" x="636.5684" y="1227.8096">Dispo 24/7</text><text fill="#000000" font-family="sans-serif" font-size="13" lengthAdjust="spacing" textLength="67.9072" x="636.5684" y="1244.1611">Self-service</text><rect fill="#F1F1F1" height="50.1875" rx="12.5" ry="12.5" style="stroke:#181818;stroke-width:0.5;" width="148.0801" x="462.4883" y="1205.5723"/><text fill="#000000" font-family="sans-serif" font-size="12" lengthAdjust="spacing" textLength="128.0801" x="472.4883" y="1228.0293">Se connecte portail web</text><text fill="#000000" font-family="sans-serif" font-size="12" lengthAdjust="spacing" textLength="71.3613" x="472.4883" y="1243.123">(20h30 - soir)</text><rect fill="#F1F1F1" height="35.0938" rx="12.5" ry="12.5" style="stroke:#181818;stroke-width:0.5;" width="157.4082" x="457.8242" y="1275.7598"/><text fill="#000000" font-family="sans-serif" font-size="12" lengthAdjust="spacing" textLength="137.4082" x="467.8242" y="1298.2168">Selectionne Prendre RDV</text><path d="M639.9023,1334.5957 L639.9023,1351.9473 L619.9023,1355.9473 L639.9023,1359.9473 L639.9023,1377.2988 A0,0 0 0 0 639.9023,1377.2988 L790.9976,1377.2988 A0,0 0 0 0 790.9976,1377.2988 L790.9976,1344.5957 L780.9976,1334.5957 L639.9023,1334.5957 A0,0 0 0 0 639.9023,1334.5957 " fill="#90EE90" style="stroke:#181818;stroke-width:0.5;"/><path d="M780.9976,1334.5957 L780.9976,1344.5957 L790.9976,1344.5957 L780.9976,1334.5957 " fill="#90EE90" style="stroke:#181818;stroke-width:0.5;"/><text fill="#000000" font-family="sans-serif" font-size="13" lengthAdjust="spacing" textLength="114.8989" x="645.9023" y="1353.0908">Planning temps reel</text><text fill="#000000" font-family="sans-serif" font-size="13" lengthAdjust="spacing" textLength="130.0952" x="645.9023" y="1369.4424">Zone geo automatique</text><rect fill="#F1F1F1" height="50.1875" rx="12.5" ry="12.5" style="stroke:#181818;stroke-width:0.5;" width="166.748" x="453.1543" y="1330.8535"/><text fill="#000000" font-family="sans-serif" font-size="12" lengthAdjust="spacing" textLength="146.748" x="463.1543" y="1353.3105">Calendrier affiche creneaux</text><text fill="#000000" font-family="sans-serif" font-size="12" lengthAdjust="spacing" textLength="140.7773" x="463.1543" y="1368.4043">dispos zone geographique</text><rect fill="#F1F1F1" height="35.0938" rx="12.5" ry="12.5" style="stroke:#181818;stroke-width:0.5;" width="148.0449" x="462.5059" y="1401.041"/><text fill="#000000" font-family="sans-serif" font-size="12" lengthAdjust="spacing" textLength="128.0449" x="472.5059" y="1423.498">Choisit creneau (2 clics)</text><path d="M635.2324,1452.3301 L635.2324,1469.6816 L615.2324,1473.6816 L635.2324,1477.6816 L635.2324,1495.0332 A0,0 0 0 0 635.2324,1495.0332 L744.3887,1495.0332 A0,0 0 0 0 744.3887,1495.0332 L744.3887,1462.3301 L734.3887,1452.3301 L635.2324,1452.3301 A0,0 0 0 0 635.2324,1452.3301 " fill="#90EE90" style="stroke:#181818;stroke-width:0.5;"/><path d="M734.3887,1452.3301 L734.3887,1462.3301 L744.3887,1462.3301 L734.3887,1452.3301 " fill="#90EE90" style="stroke:#181818;stroke-width:0.5;"/><text fill="#000000" font-family="sans-serif" font-size="13" lengthAdjust="spacing" textLength="78.0571" x="641.2324" y="1470.8252">Saisie unique</text><text fill="#000000" font-family="sans-serif" font-size="13" lengthAdjust="spacing" textLength="88.1563" x="641.2324" y="1487.1768">Sync auto ERP</text><rect fill="#F1F1F1" height="35.0938" rx="12.5" ry="12.5" style="stroke:#181818;stroke-width:0.5;" width="157.4082" x="457.8242" y="1456.1348"/><text fill="#000000" font-family="sans-serif" font-size="12" lengthAdjust="spacing" textLength="137.4082" x="467.8242" y="1478.5918">Confirmation automatique</text><path d="M647.7275,1511.2285 L647.7275,1528.5801 L627.7275,1532.5801 L647.7275,1536.5801 L647.7275,1553.9316 A0,0 0 0 0 647.7275,1553.9316 L768.4492,1553.9316 A0,0 0 0 0 768.4492,1553.9316 L768.4492,1521.2285 L758.4492,1511.2285 L647.7275,1511.2285 A0,0 0 0 0 647.7275,1511.2285 " fill="#90EE90" style="stroke:#181818;stroke-width:0.5;"/><path d="M758.4492,1511.2285 L758.4492,1521.2285 L768.4492,1521.2285 L758.4492,1511.2285 " fill="#90EE90" style="stroke:#181818;stroke-width:0.5;"/><text fill="#000000" font-family="sans-serif" font-size="13" lengthAdjust="spacing" textLength="99.7217" x="653.7275" y="1529.7236">Notifications auto</text><text fill="#000000" font-family="sans-serif" font-size="13" lengthAdjust="spacing" textLength="62.8672" x="653.7275" y="1546.0752">Rappel J-2</text><rect fill="#F1F1F1" height="35.0938" rx="12.5" ry="12.5" style="stroke:#181818;stroke-width:0.5;" width="182.3984" x="445.3291" y="1515.0332"/><text fill="#000000" font-family="sans-serif" font-size="12" lengthAdjust="spacing" textLength="162.3984" x="455.3291" y="1537.4902">Recoit email + SMS rappel J-2</text><rect fill="#F1F1F1" height="35.0938" rx="12.5" ry="12.5" style="stroke:#181818;stroke-width:0.5;" width="212.7617" x="430.1475" y="1573.9316"/><text fill="#000000" font-family="sans-serif" font-size="12" lengthAdjust="spacing" textLength="192.7617" x="440.1475" y="1596.3887">Clothilde recoit alerte Nouveau RDV</text><rect fill="#F1F1F1" height="35.0938" rx="12.5" ry="12.5" style="stroke:#181818;stroke-width:0.5;" width="122.6973" x="475.1797" y="1629.0254"/><text fill="#000000" font-family="sans-serif" font-size="12" lengthAdjust="spacing" textLength="102.6973" x="485.1797" y="1651.4824">Valide RDV (2 min)</text><path d="M603.8701,1674.1191 L603.8701,1740.5254 L583.8701,1744.5254 L603.8701,1748.5254 L603.8701,1814.9316 A0,0 0 0 0 603.8701,1814.9316 L773.6973,1814.9316 A0,0 0 0 0 773.6973,1814.9316 L773.6973,1684.1191 L763.6973,1674.1191 L603.8701,1674.1191 A0,0 0 0 0 603.8701,1674.1191 " fill="#FEFFDD" style="stroke:#181818;stroke-width:0.5;"/><path d="M763.6973,1674.1191 L763.6973,1684.1191 L773.6973,1684.1191 L763.6973,1674.1191 " fill="#FEFFDD" style="stroke:#181818;stroke-width:0.5;"/><text fill="#000000" font-family="sans-serif" font-size="13" font-weight="bold" lengthAdjust="spacing" textLength="133.6118" x="609.8701" y="1692.6143">TEMPS TOTAL: 3 min</text><text fill="#000000" font-family="sans-serif" font-size="13" lengthAdjust="spacing" textLength="133.6816" x="609.8701" y="1708.9658">Client: 1 min autonome</text><text fill="#000000" font-family="sans-serif" font-size="13" lengthAdjust="spacing" textLength="148.1353" x="609.8701" y="1725.3174">Clothilde: 2 min validation</text><text fill="#000000" font-family="sans-serif" font-size="13" lengthAdjust="spacing" textLength="81.6372" x="609.8701" y="1741.6689">Zero ressaisie</text><text fill="#000000" font-family="sans-serif" font-size="13" lengthAdjust="spacing" textLength="62.1499" x="609.8701" y="1758.0205">Dispo 24/7</text><text fill="#000000" font-family="sans-serif" font-size="13" lengthAdjust="spacing" textLength="3.6118" x="609.8701" y="1774.3721">&#160;</text><text fill="#000000" font-family="sans-serif" font-size="13" font-weight="bold" lengthAdjust="spacing" textLength="148.8271" x="609.8701" y="1790.7236">GAIN: 17 min x 600 RDV</text><text fill="#000000" font-family="sans-serif" font-size="13" font-weight="bold" lengthAdjust="spacing" textLength="138.0234" x="609.8701" y="1807.0752">= 170h/an = 8,500 EUR</text><rect fill="#90EE90" height="35.0938" rx="12.5" ry="12.5" style="stroke:#181818;stroke-width:0.5;" width="94.6836" x="489.1865" y="1726.9785"/><text fill="#000000" font-family="sans-serif" font-size="12" lengthAdjust="spacing" textLength="74.6836" x="499.1865" y="1749.4355">RDV confirme</text><ellipse cx="536.5283" cy="1845.9316" fill="none" rx="11" ry="11" style="stroke:#222222;stroke-width:1;"/><ellipse cx="536.5283" cy="1845.9316" fill="#222222" rx="6" ry="6" style="stroke:#222222;stroke-width:1;"/><line style="stroke:#000000;stroke-width:1.5;" x1="424.1475" x2="424.1475" y1="51.0645" y2="1856.9316"/><line style="stroke:#000000;stroke-width:1.5;" x1="795.9976" x2="795.9976" y1="51.0645" y2="1856.9316"/><line style="stroke:#181818;stroke-width:1;" x1="163.5674" x2="163.5674" y1="98.7051" y2="118.7051"/><polygon fill="#181818" points="159.5674,108.7051,163.5674,118.7051,167.5674,108.7051,163.5674,112.7051" style="stroke:#181818;stroke-width:1;"/><line style="stroke:#181818;stroke-width:1;" x1="163.5674" x2="163.5674" y1="153.7988" y2="173.7988"/><polygon fill="#181818" points="159.5674,163.7988,163.5674,173.7988,167.5674,163.7988,163.5674,167.7988" style="stroke:#181818;stroke-width:1;"/><line style="stroke:#181818;stroke-width:1;" x1="163.5674" x2="163.5674" y1="223.9863" y2="243.9863"/><polygon fill="#181818" points="159.5674,233.9863,163.5674,243.9863,167.5674,233.9863,163.5674,237.9863" style="stroke:#181818;stroke-width:1;"/><line style="stroke:#181818;stroke-width:1;" x1="163.5674" x2="163.5674" y1="279.0801" y2="299.0801"/><polygon fill="#181818" points="159.5674,289.0801,163.5674,299.0801,167.5674,289.0801,163.5674,293.0801" style="stroke:#181818;stroke-width:1;"/><line style="stroke:#181818;stroke-width:1;" x1="163.5674" x2="163.5674" y1="334.1738" y2="357.9785"/><polygon fill="#181818" points="159.5674,347.9785,163.5674,357.9785,167.5674,347.9785,163.5674,351.9785" style="stroke:#181818;stroke-width:1;"/><line style="stroke:#181818;stroke-width:1;" x1="163.5674" x2="163.5674" y1="393.0723" y2="413.0723"/><polygon fill="#181818" points="159.5674,403.0723,163.5674,413.0723,167.5674,403.0723,163.5674,407.0723" style="stroke:#181818;stroke-width:1;"/><line style="stroke:#181818;stroke-width:1;" x1="250.4375" x2="250.4375" y1="537.2598" y2="557.2598"/><polygon fill="#181818" points="246.4375,547.2598,250.4375,557.2598,254.4375,547.2598,250.4375,551.2598" style="stroke:#181818;stroke-width:1;"/><line style="stroke:#181818;stroke-width:1;" x1="111.2063" x2="76.6973" y1="480.166" y2="480.166"/><line style="stroke:#181818;stroke-width:1;" x1="76.6973" x2="76.6973" y1="480.166" y2="502.166"/><polygon fill="#181818" points="72.6973,492.166,76.6973,502.166,80.6973,492.166,76.6973,496.166" style="stroke:#181818;stroke-width:1;"/><line style="stroke:#181818;stroke-width:1;" x1="215.9285" x2="250.4375" y1="480.166" y2="480.166"/><line style="stroke:#181818;stroke-width:1;" x1="250.4375" x2="250.4375" y1="480.166" y2="502.166"/><polygon fill="#181818" points="246.4375,492.166,250.4375,502.166,254.4375,492.166,250.4375,496.166" style="stroke:#181818;stroke-width:1;"/><line style="stroke:#181818;stroke-width:1;" x1="76.6973" x2="76.6973" y1="537.2598" y2="610.3535"/><line style="stroke:#181818;stroke-width:1;" x1="76.6973" x2="151.5674" y1="610.3535" y2="610.3535"/><polygon fill="#181818" points="141.5674,606.3535,151.5674,610.3535,141.5674,614.3535,145.5674,610.3535" style="stroke:#181818;stroke-width:1;"/><line style="stroke:#181818;stroke-width:1;" x1="250.4375" x2="250.4375" y1="592.3535" y2="610.3535"/><line style="stroke:#181818;stroke-width:1;" x1="250.4375" x2="175.5674" y1="610.3535" y2="610.3535"/><polygon fill="#181818" points="185.5674,606.3535,175.5674,610.3535,185.5674,614.3535,181.5674,610.3535" style="stroke:#181818;stroke-width:1;"/><line style="stroke:#181818;stroke-width:1;" x1="163.5674" x2="163.5674" y1="448.166" y2="468.166"/><polygon fill="#181818" points="159.5674,458.166,163.5674,468.166,167.5674,458.166,163.5674,462.166" style="stroke:#181818;stroke-width:1;"/><line style="stroke:#181818;stroke-width:1;" x1="163.5674" x2="163.5674" y1="622.3535" y2="642.3535"/><polygon fill="#181818" points="159.5674,632.3535,163.5674,642.3535,167.5674,632.3535,163.5674,636.3535" style="stroke:#181818;stroke-width:1;"/><line style="stroke:#181818;stroke-width:1;" x1="163.5674" x2="163.5674" y1="677.4473" y2="697.4473"/><polygon fill="#181818" points="159.5674,687.4473,163.5674,697.4473,167.5674,687.4473,163.5674,691.4473" style="stroke:#181818;stroke-width:1;"/><line style="stroke:#181818;stroke-width:1;" x1="163.5674" x2="163.5674" y1="732.541" y2="752.541"/><polygon fill="#181818" points="159.5674,742.541,163.5674,752.541,167.5674,742.541,163.5674,746.541" style="stroke:#181818;stroke-width:1;"/><line style="stroke:#181818;stroke-width:1;" x1="163.5674" x2="163.5674" y1="787.6348" y2="807.6348"/><polygon fill="#181818" points="159.5674,797.6348,163.5674,807.6348,167.5674,797.6348,163.5674,801.6348" style="stroke:#181818;stroke-width:1;"/><line style="stroke:#181818;stroke-width:1;" x1="163.5674" x2="163.5674" y1="842.7285" y2="866.5332"/><polygon fill="#181818" points="159.5674,856.5332,163.5674,866.5332,167.5674,856.5332,163.5674,860.5332" style="stroke:#181818;stroke-width:1;"/><line style="stroke:#181818;stroke-width:1;" x1="163.5674" x2="163.5674" y1="901.627" y2="921.627"/><polygon fill="#181818" points="159.5674,911.627,163.5674,921.627,167.5674,911.627,163.5674,915.627" style="stroke:#181818;stroke-width:1;"/><line style="stroke:#181818;stroke-width:1;" x1="163.5674" x2="163.5674" y1="956.7207" y2="995.0527"/><polygon fill="#181818" points="159.5674,985.0527,163.5674,995.0527,167.5674,985.0527,163.5674,989.0527" style="stroke:#181818;stroke-width:1;"/><line style="stroke:#181818;stroke-width:1;" x1="163.5674" x2="163.5674" y1="1030.1465" y2="1078.4785"/><polygon fill="#181818" points="159.5674,1068.4785,163.5674,1078.4785,167.5674,1068.4785,163.5674,1072.4785" style="stroke:#181818;stroke-width:1;"/><line style="stroke:#181818;stroke-width:1;" x1="536.5283" x2="536.5283" y1="1130.4785" y2="1150.4785"/><polygon fill="#181818" points="532.5283,1140.4785,536.5283,1150.4785,540.5283,1140.4785,536.5283,1144.4785" style="stroke:#181818;stroke-width:1;"/><line style="stroke:#181818;stroke-width:1;" x1="536.5283" x2="536.5283" y1="1185.5723" y2="1205.5723"/><polygon fill="#181818" points="532.5283,1195.5723,536.5283,1205.5723,540.5283,1195.5723,536.5283,1199.5723" style="stroke:#181818;stroke-width:1;"/><line style="stroke:#181818;stroke-width:1;" x1="536.5283" x2="536.5283" y1="1255.7598" y2="1275.7598"/><polygon fill="#181818" points="532.5283,1265.7598,536.5283,1275.7598,540.5283,1265.7598,536.5283,1269.7598" style="stroke:#181818;stroke-width:1;"/><line style="stroke:#181818;stroke-width:1;" x1="536.5283" x2="536.5283" y1="1310.8535" y2="1330.8535"/><polygon fill="#181818" points="532.5283,1320.8535,536.5283,1330.8535,540.5283,1320.8535,536.5283,1324.8535" style="stroke:#181818;stroke-width:1;"/><line style="stroke:#181818;stroke-width:1;" x1="536.5283" x2="536.5283" y1="1381.041" y2="1401.041"/><polygon fill="#181818" points="532.5283,1391.041,536.5283,1401.041,540.5283,1391.041,536.5283,1395.041" style="stroke:#181818;stroke-width:1;"/><line style="stroke:#181818;stroke-width:1;" x1="536.5283" x2="536.5283" y1="1436.1348" y2="1456.1348"/><polygon fill="#181818" points="532.5283,1446.1348,536.5283,1456.1348,540.5283,1446.1348,536.5283,1450.1348" style="stroke:#181818;stroke-width:1;"/><line style="stroke:#181818;stroke-width:1;" x1="536.5283" x2="536.5283" y1="1491.2285" y2="1515.0332"/><polygon fill="#181818" points="532.5283,1505.0332,536.5283,1515.0332,540.5283,1505.0332,536.5283,1509.0332" style="stroke:#181818;stroke-width:1;"/><line style="stroke:#181818;stroke-width:1;" x1="536.5283" x2="536.5283" y1="1550.127" y2="1573.9316"/><polygon fill="#181818" points="532.5283,1563.9316,536.5283,1573.9316,540.5283,1563.9316,536.5283,1567.9316" style="stroke:#181818;stroke-width:1;"/><line style="stroke:#181818;stroke-width:1;" x1="536.5283" x2="536.5283" y1="1609.0254" y2="1629.0254"/><polygon fill="#181818" points="532.5283,1619.0254,536.5283,1629.0254,540.5283,1619.0254,536.5283,1623.0254" style="stroke:#181818;stroke-width:1;"/><line style="stroke:#181818;stroke-width:1;" x1="536.5283" x2="536.5283" y1="1664.1191" y2="1726.9785"/><polygon fill="#181818" points="532.5283,1716.9785,536.5283,1726.9785,540.5283,1716.9785,536.5283,1720.9785" style="stroke:#181818;stroke-width:1;"/><line style="stroke:#181818;stroke-width:1;" x1="536.5283" x2="536.5283" y1="1762.0723" y2="1834.9316"/><polygon fill="#181818" points="532.5283,1824.9316,536.5283,1834.9316,540.5283,1824.9316,536.5283,1828.9316" style="stroke:#181818;stroke-width:1;"/><text fill="#000000" font-family="sans-serif" font-size="18" lengthAdjust="spacing" textLength="235.0811" x="102.0332" y="69.75">ACTUEL - Processus Manuel</text><text fill="#000000" font-family="sans-serif" font-size="18" lengthAdjust="spacing" textLength="210.0938" x="505.0256" y="69.75">CIBLE - Portail Client 24/7</text><!--SRC=[bLJVRzem47xFNt7INYWRAj2rfQ1gecbQCK6BW7RIr1SlEOWrOsUsmxg9Ftvd9mJeojIz9VVpkxlli-LM88orYj6OtD0NDmYJwqSOCIujIYPZX0Rqmzb3D8ILWN1mDOo2OFrko1Uf3PLcObrw6pk5HapcADQ1iKpRe1iAZjA2KNdAk2qwa46Z9NilwFQp30KX2OMoAHS9FibQ9ssqEYdaal_8SKdHHxr0AahMhZEykxavkpgx2W2kkSaK_1LEdZ4pa20O5FE6GRtYCGOe4t1b0eUgx4P1CK5F4ImAp58baK1Da2pQMUC2VlGSeu1Q6vPS7WIZf4GqW1dJ6QUPq6o1X9FHRlz7r7pEgRoYLJ0BNvHEjkMxeP8c5zGZ4qnABXTmdrkXr7UedPGn0Pz3BTGeaUMG-3ryEWAReeIQolaHjUxIKJ95LusBi5w0WlvgKadltax9SZh89WngfsMFROcU0y_dGNLF5iUO4K2LWyI5YhbRsvHnGqDLMF-vhadKcFO7qq44hTtDb3NAXRVULg7zIeNR_lsR4PpGtqppZ7XeYkobPx7O8yq44nPRhYJWad7XZZVdUicygLhQPaCQOyLj4TeBogvTH_yo3tTX4O1wVHQDnbEOtS_wmowqBbp1UfqycvrRacNIXOvpU7D9uatmuIaEIwMQprYLLUg-rOXoxHNlnAsqTGENEDeVZy_VhE-f9xd4sB6vhFCJlv7Asytqf4dLZUBwnOakcb5qqQnGkuRqCpqWPhAZlujq3nevj8VXJi64- -MeWStdt0kw8Fdpa_IYCV2R90yBL0lDijIjvG2KyKQA5fUPeVEY8ElNCjj9I3agK86zXoPLT0cxrLRRFIcnALM-vSzE_W409Q-Bsxd_NpBsQH1DnliytJ8FtiDqD0MQZPvP-Dne7oX-fomzIB77OdnL9v0gw_MtiwGuBLbJoJkLhzo8nUeVcU19GOTAXMMx_n31oGiD4DETnGEKQedxAl1zOEKw-q7SVL0hmcaAGUmpohUxxG_kgEgvJts6isRJOVOjw_LBSZJJOoRX4ZeVJiaNFKp8jo-QFm00]--></g></svg>