<svg xmlns="http://www.w3.org/2000/svg" xmlns:xlink="http://www.w3.org/1999/xlink" contentStyleType="text/css" height="661px" preserveAspectRatio="none" style="width:2121px;height:661px;background:#FFFFFF;" version="1.1" viewBox="0 0 2121 661" width="2121px" zoomAndPan="magnify"><title>Deploiement Infrastructure - SAV Cloud</title><defs/><g><text fill="#000000" font-family="sans-serif" font-size="14" font-weight="bold" lengthAdjust="spacing" textLength="263.6963" x="921.6519" y="24.5332">Deploiement Infrastructure - SAV Cloud</text><!--cluster Azure Cloud (EU - France Central)--><g id="cluster_Azure Cloud (EU - France Central)"><polygon fill="none" points="482,254.1094,492,244.1094,1627,244.1094,1627,634.1094,1617,644.1094,482,644.1094,482,254.1094" style="stroke:#181818;stroke-width:1;"/><line style="stroke:#181818;stroke-width:1;" x1="1617" x2="1627" y1="254.1094" y2="244.1094"/><line style="stroke:#181818;stroke-width:1;" x1="482" x2="1617" y1="254.1094" y2="254.1094"/><line style="stroke:#181818;stroke-width:1;" x1="1617" x2="1617" y1="254.1094" y2="644.1094"/><text fill="#000000" font-family="sans-serif" font-size="14" font-weight="bold" lengthAdjust="spacing" textLength="225.5791" x="937.7104" y="271.6426">Azure Cloud (EU - France Central)</text></g><!--cluster ERP/CRM Terrain SaaS--><g id="cluster_ERP/CRM Terrain SaaS"><polygon fill="none" points="1290,303.1094,1300,293.1094,1603,293.1094,1603,610.1094,1593,620.1094,1290,620.1094,1290,303.1094" style="stroke:#181818;stroke-width:1;"/><line style="stroke:#181818;stroke-width:1;" x1="1593" x2="1603" y1="303.1094" y2="293.1094"/><line style="stroke:#181818;stroke-width:1;" x1="1290" x2="1593" y1="303.1094" y2="303.1094"/><line style="stroke:#181818;stroke-width:1;" x1="1593" x2="1593" y1="303.1094" y2="620.1094"/><text fill="#000000" font-family="sans-serif" font-size="14" font-weight="bold" lengthAdjust="spacing" textLength="154.0479" x="1365.4761" y="320.6426">ERP/CRM Terrain SaaS</text></g><!--cluster Azure Blob Storage--><g id="cluster_Azure Blob Storage"><polygon fill="none" points="807,508.1094,817,498.1094,1266,498.1094,1266,610.1094,1256,620.1094,807,620.1094,807,508.1094" style="stroke:#181818;stroke-width:1;"/><line style="stroke:#181818;stroke-width:1;" x1="1256" x2="1266" y1="508.1094" y2="498.1094"/><line style="stroke:#181818;stroke-width:1;" x1="807" x2="1256" y1="508.1094" y2="508.1094"/><line style="stroke:#181818;stroke-width:1;" x1="1256" x2="1256" y1="508.1094" y2="620.1094"/><text fill="#000000" font-family="sans-serif" font-size="14" font-weight="bold" lengthAdjust="spacing" textLength="129.9033" x="967.5483" y="525.6426">Azure Blob Storage</text></g><!--cluster Services Complementaires--><g id="cluster_Services Complementaires"><polygon fill="none" points="506,508.1094,516,498.1094,783,498.1094,783,610.1094,773,620.1094,506,620.1094,506,508.1094" style="stroke:#181818;stroke-width:1;"/><line style="stroke:#181818;stroke-width:1;" x1="773" x2="783" y1="508.1094" y2="498.1094"/><line style="stroke:#181818;stroke-width:1;" x1="506" x2="773" y1="508.1094" y2="508.1094"/><line style="stroke:#181818;stroke-width:1;" x1="773" x2="773" y1="508.1094" y2="620.1094"/><text fill="#000000" font-family="sans-serif" font-size="14" font-weight="bold" lengthAdjust="spacing" textLength="178.9785" x="551.0107" y="525.6426">Services Complementaires</text></g><!--cluster Technicien - Smartphone (iOS)--><g id="cluster_Technicien - Smartphone (iOS)"><polygon fill="none" points="1605,54.6094,1615,44.6094,1910,44.6094,1910,156.6094,1900,166.6094,1605,166.6094,1605,54.6094" style="stroke:#181818;stroke-width:1;"/><line style="stroke:#181818;stroke-width:1;" x1="1900" x2="1910" y1="54.6094" y2="44.6094"/><line style="stroke:#181818;stroke-width:1;" x1="1605" x2="1900" y1="54.6094" y2="54.6094"/><line style="stroke:#181818;stroke-width:1;" x1="1900" x2="1900" y1="54.6094" y2="166.6094"/><text fill="#000000" font-family="sans-serif" font-size="14" font-weight="bold" lengthAdjust="spacing" textLength="204.5791" x="1651.2104" y="72.1426">Technicien - Smartphone (iOS)</text></g><!--cluster Technicien - Smartphone (Android)--><g id="cluster_Technicien - Smartphone (Android)"><polygon fill="none" points="787,54.6094,797,44.6094,1097,44.6094,1097,156.6094,1087,166.6094,787,166.6094,787,54.6094" style="stroke:#181818;stroke-width:1;"/><line style="stroke:#181818;stroke-width:1;" x1="1087" x2="1097" y1="54.6094" y2="44.6094"/><line style="stroke:#181818;stroke-width:1;" x1="787" x2="1087" y1="54.6094" y2="54.6094"/><line style="stroke:#181818;stroke-width:1;" x1="1087" x2="1087" y1="54.6094" y2="166.6094"/><text fill="#000000" font-family="sans-serif" font-size="14" font-weight="bold" lengthAdjust="spacing" textLength="234.1172" x="820.9414" y="72.1426">Technicien - Smartphone (Android)</text></g><!--cluster Client - Navigateur Web--><g id="cluster_Client - Navigateur Web"><polygon fill="none" points="1121,54.6094,1131,44.6094,1354,44.6094,1354,156.6094,1344,166.6094,1121,166.6094,1121,54.6094" style="stroke:#181818;stroke-width:1;"/><line style="stroke:#181818;stroke-width:1;" x1="1344" x2="1354" y1="54.6094" y2="44.6094"/><line style="stroke:#181818;stroke-width:1;" x1="1121" x2="1344" y1="54.6094" y2="54.6094"/><line style="stroke:#181818;stroke-width:1;" x1="1344" x2="1344" y1="54.6094" y2="166.6094"/><text fill="#000000" font-family="sans-serif" font-size="14" font-weight="bold" lengthAdjust="spacing" textLength="157.1309" x="1154.9346" y="72.1426">Client - Navigateur Web</text></g><!--cluster Clothilde - Desktop--><g id="cluster_Clothilde - Desktop"><polygon fill="none" points="1378,54.6094,1388,44.6094,1581,44.6094,1581,156.6094,1571,166.6094,1378,166.6094,1378,54.6094" style="stroke:#181818;stroke-width:1;"/><line style="stroke:#181818;stroke-width:1;" x1="1571" x2="1581" y1="54.6094" y2="44.6094"/><line style="stroke:#181818;stroke-width:1;" x1="1378" x2="1571" y1="54.6094" y2="54.6094"/><line style="stroke:#181818;stroke-width:1;" x1="1571" x2="1571" y1="54.6094" y2="166.6094"/><text fill="#000000" font-family="sans-serif" font-size="14" font-weight="bold" lengthAdjust="spacing" textLength="127.5586" x="1411.7207" y="72.1426">Clothilde - Desktop</text></g><!--cluster Direction - Desktop--><g id="cluster_Direction - Desktop"><polygon fill="none" points="1900,303.1094,1910,293.1094,2104,293.1094,2104,405.1094,2094,415.1094,1900,415.1094,1900,303.1094" style="stroke:#181818;stroke-width:1;"/><line style="stroke:#181818;stroke-width:1;" x1="2094" x2="2104" y1="303.1094" y2="293.1094"/><line style="stroke:#181818;stroke-width:1;" x1="1900" x2="2094" y1="303.1094" y2="303.1094"/><line style="stroke:#181818;stroke-width:1;" x1="2094" x2="2094" y1="303.1094" y2="415.1094"/><text fill="#000000" font-family="sans-serif" font-size="14" font-weight="bold" lengthAdjust="spacing" textLength="128.3516" x="1933.8242" y="320.6426">Direction - Desktop</text></g><!--cluster On-Premise Duret - Annecy--><g id="cluster_On-Premise Duret - Annecy"><polygon fill="none" points="16,508.1094,26,498.1094,287,498.1094,287,610.1094,277,620.1094,16,620.1094,16,508.1094" style="stroke:#181818;stroke-width:1;"/><line style="stroke:#181818;stroke-width:1;" x1="277" x2="287" y1="508.1094" y2="498.1094"/><line style="stroke:#181818;stroke-width:1;" x1="16" x2="277" y1="508.1094" y2="508.1094"/><line style="stroke:#181818;stroke-width:1;" x1="277" x2="277" y1="508.1094" y2="620.1094"/><text fill="#000000" font-family="sans-serif" font-size="14" font-weight="bold" lengthAdjust="spacing" textLength="182.0479" x="56.4761" y="525.6426">On-Premise Duret - Annecy</text></g><!--entity ERPApp--><g id="elem_ERPApp"><rect fill="#F1F1F1" height="65.2188" rx="2.5" ry="2.5" style="stroke:#181818;stroke-width:0.5;" width="141.165" x="1306.5" y="334.1094"/><rect fill="#F1F1F1" height="10" style="stroke:#181818;stroke-width:0.5;" width="15" x="1427.665" y="339.1094"/><rect fill="#F1F1F1" height="2" style="stroke:#181818;stroke-width:0.5;" width="4" x="1425.665" y="341.1094"/><rect fill="#F1F1F1" height="2" style="stroke:#181818;stroke-width:0.5;" width="4" x="1425.665" y="345.1094"/><text fill="#000000" font-family="sans-serif" font-size="14" lengthAdjust="spacing" textLength="101.165" x="1321.5" y="368.6426">Application Web</text><text fill="#000000" font-family="sans-serif" font-size="14" lengthAdjust="spacing" textLength="77.0205" x="1321.5" y="386.252">ERP Terrain</text></g><!--entity API--><g id="elem_API"><rect fill="#F1F1F1" height="65.2188" rx="2.5" ry="2.5" style="stroke:#181818;stroke-width:0.5;" width="103.793" x="1483" y="334.1094"/><rect fill="#F1F1F1" height="10" style="stroke:#181818;stroke-width:0.5;" width="15" x="1566.793" y="339.1094"/><rect fill="#F1F1F1" height="2" style="stroke:#181818;stroke-width:0.5;" width="4" x="1564.793" y="341.1094"/><rect fill="#F1F1F1" height="2" style="stroke:#181818;stroke-width:0.5;" width="4" x="1564.793" y="345.1094"/><text fill="#000000" font-family="sans-serif" font-size="14" lengthAdjust="spacing" textLength="63.793" x="1498" y="368.6426">API REST</text><text fill="#000000" font-family="sans-serif" font-size="14" lengthAdjust="spacing" textLength="47.4688" x="1498" y="386.252">Node.js</text></g><!--entity DBSQL--><g id="elem_DBSQL"><rect fill="#F1F1F1" height="65.2188" rx="2.5" ry="2.5" style="stroke:#181818;stroke-width:0.5;" width="116.2617" x="1471" y="539.1094"/><rect fill="#F1F1F1" height="10" style="stroke:#181818;stroke-width:0.5;" width="15" x="1567.2617" y="544.1094"/><rect fill="#F1F1F1" height="2" style="stroke:#181818;stroke-width:0.5;" width="4" x="1565.2617" y="546.1094"/><rect fill="#F1F1F1" height="2" style="stroke:#181818;stroke-width:0.5;" width="4" x="1565.2617" y="550.1094"/><text fill="#000000" font-family="sans-serif" font-size="14" lengthAdjust="spacing" textLength="76.2617" x="1486" y="573.6426">PostgreSQL</text><text fill="#000000" font-family="sans-serif" font-size="14" lengthAdjust="spacing" textLength="64.5859" x="1486" y="591.252">Base ERP</text></g><!--entity BlobPhotos--><g id="elem_BlobPhotos"><rect fill="#F1F1F1" height="65.2188" rx="2.5" ry="2.5" style="stroke:#181818;stroke-width:0.5;" width="120.1582" x="823" y="539.1094"/><rect fill="#F1F1F1" height="10" style="stroke:#181818;stroke-width:0.5;" width="15" x="923.1582" y="544.1094"/><rect fill="#F1F1F1" height="2" style="stroke:#181818;stroke-width:0.5;" width="4" x="921.1582" y="546.1094"/><rect fill="#F1F1F1" height="2" style="stroke:#181818;stroke-width:0.5;" width="4" x="921.1582" y="550.1094"/><text fill="#000000" font-family="sans-serif" font-size="14" lengthAdjust="spacing" textLength="43.5859" x="838" y="573.6426">Photos</text><text fill="#000000" font-family="sans-serif" font-size="14" lengthAdjust="spacing" textLength="80.1582" x="838" y="591.252">Interventions</text></g><!--entity BlobPDF--><g id="elem_BlobPDF"><rect fill="#F1F1F1" height="47.6094" rx="2.5" ry="2.5" style="stroke:#181818;stroke-width:0.5;" width="128.6963" x="978.5" y="547.6094"/><rect fill="#F1F1F1" height="10" style="stroke:#181818;stroke-width:0.5;" width="15" x="1087.1963" y="552.6094"/><rect fill="#F1F1F1" height="2" style="stroke:#181818;stroke-width:0.5;" width="4" x="1085.1963" y="554.6094"/><rect fill="#F1F1F1" height="2" style="stroke:#181818;stroke-width:0.5;" width="4" x="1085.1963" y="558.6094"/><text fill="#000000" font-family="sans-serif" font-size="14" lengthAdjust="spacing" textLength="88.6963" x="993.5" y="582.1426">PDF Rapports</text></g><!--entity BlobDevis--><g id="elem_BlobDevis"><rect fill="#F1F1F1" height="47.6094" rx="2.5" ry="2.5" style="stroke:#181818;stroke-width:0.5;" width="106.8965" x="1142.5" y="547.6094"/><rect fill="#F1F1F1" height="10" style="stroke:#181818;stroke-width:0.5;" width="15" x="1229.3965" y="552.6094"/><rect fill="#F1F1F1" height="2" style="stroke:#181818;stroke-width:0.5;" width="4" x="1227.3965" y="554.6094"/><rect fill="#F1F1F1" height="2" style="stroke:#181818;stroke-width:0.5;" width="4" x="1227.3965" y="558.6094"/><text fill="#000000" font-family="sans-serif" font-size="14" lengthAdjust="spacing" textLength="66.8965" x="1157.5" y="582.1426">PDF Devis</text></g><!--entity Twilio--><g id="elem_Twilio"><rect fill="#F1F1F1" height="65.2188" rx="2.5" ry="2.5" style="stroke:#181818;stroke-width:0.5;" width="110.0068" x="522" y="539.1094"/><rect fill="#F1F1F1" height="10" style="stroke:#181818;stroke-width:0.5;" width="15" x="612.0068" y="544.1094"/><rect fill="#F1F1F1" height="2" style="stroke:#181818;stroke-width:0.5;" width="4" x="610.0068" y="546.1094"/><rect fill="#F1F1F1" height="2" style="stroke:#181818;stroke-width:0.5;" width="4" x="610.0068" y="550.1094"/><text fill="#000000" font-family="sans-serif" font-size="14" lengthAdjust="spacing" textLength="70.0068" x="537" y="573.6426">Twilio SMS</text><text fill="#000000" font-family="sans-serif" font-size="14" lengthAdjust="spacing" textLength="55.248" x="537" y="591.252">Gateway</text></g><!--entity SendGrid--><g id="elem_SendGrid"><rect fill="#F1F1F1" height="65.2188" rx="2.5" ry="2.5" style="stroke:#181818;stroke-width:0.5;" width="99.1445" x="667.5" y="539.1094"/><rect fill="#F1F1F1" height="10" style="stroke:#181818;stroke-width:0.5;" width="15" x="746.6445" y="544.1094"/><rect fill="#F1F1F1" height="2" style="stroke:#181818;stroke-width:0.5;" width="4" x="744.6445" y="546.1094"/><rect fill="#F1F1F1" height="2" style="stroke:#181818;stroke-width:0.5;" width="4" x="744.6445" y="550.1094"/><text fill="#000000" font-family="sans-serif" font-size="14" lengthAdjust="spacing" textLength="59.1445" x="682.5" y="573.6426">SendGrid</text><text fill="#000000" font-family="sans-serif" font-size="14" lengthAdjust="spacing" textLength="38.8896" x="682.5" y="591.252">SMTP</text></g><!--entity AppIOS--><g id="elem_AppIOS"><rect fill="#F1F1F1" height="65.2188" rx="2.5" ry="2.5" style="stroke:#181818;stroke-width:0.5;" width="110.041" x="1784" y="85.6094"/><rect fill="#F1F1F1" height="10" style="stroke:#181818;stroke-width:0.5;" width="15" x="1874.041" y="90.6094"/><rect fill="#F1F1F1" height="2" style="stroke:#181818;stroke-width:0.5;" width="4" x="1872.041" y="92.6094"/><rect fill="#F1F1F1" height="2" style="stroke:#181818;stroke-width:0.5;" width="4" x="1872.041" y="96.6094"/><text fill="#000000" font-family="sans-serif" font-size="14" lengthAdjust="spacing" textLength="70.041" x="1799" y="120.1426">App Mobile</text><text fill="#000000" font-family="sans-serif" font-size="14" lengthAdjust="spacing" textLength="23.3379" x="1799" y="137.752">iOS</text></g><!--entity SQLiteIOS--><g id="elem_SQLiteIOS"><rect fill="#F1F1F1" height="65.2188" rx="2.5" ry="2.5" style="stroke:#181818;stroke-width:0.5;" width="127.1445" x="1621.5" y="85.6094"/><rect fill="#F1F1F1" height="10" style="stroke:#181818;stroke-width:0.5;" width="15" x="1728.6445" y="90.6094"/><rect fill="#F1F1F1" height="2" style="stroke:#181818;stroke-width:0.5;" width="4" x="1726.6445" y="92.6094"/><rect fill="#F1F1F1" height="2" style="stroke:#181818;stroke-width:0.5;" width="4" x="1726.6445" y="96.6094"/><text fill="#000000" font-family="sans-serif" font-size="14" lengthAdjust="spacing" textLength="42.7998" x="1636.5" y="120.1426">SQLite</text><text fill="#000000" font-family="sans-serif" font-size="14" lengthAdjust="spacing" textLength="87.1445" x="1636.5" y="137.752">Local (Offline)</text></g><!--entity AppAndroid--><g id="elem_AppAndroid"><rect fill="#F1F1F1" height="65.2188" rx="2.5" ry="2.5" style="stroke:#181818;stroke-width:0.5;" width="110.041" x="808" y="85.6094"/><rect fill="#F1F1F1" height="10" style="stroke:#181818;stroke-width:0.5;" width="15" x="898.041" y="90.6094"/><rect fill="#F1F1F1" height="2" style="stroke:#181818;stroke-width:0.5;" width="4" x="896.041" y="92.6094"/><rect fill="#F1F1F1" height="2" style="stroke:#181818;stroke-width:0.5;" width="4" x="896.041" y="96.6094"/><text fill="#000000" font-family="sans-serif" font-size="14" lengthAdjust="spacing" textLength="70.041" x="823" y="120.1426">App Mobile</text><text fill="#000000" font-family="sans-serif" font-size="14" lengthAdjust="spacing" textLength="48.2549" x="823" y="137.752">Android</text></g><!--entity SQLiteAndroid--><g id="elem_SQLiteAndroid"><rect fill="#F1F1F1" height="65.2188" rx="2.5" ry="2.5" style="stroke:#181818;stroke-width:0.5;" width="127.1445" x="953.5" y="85.6094"/><rect fill="#F1F1F1" height="10" style="stroke:#181818;stroke-width:0.5;" width="15" x="1060.6445" y="90.6094"/><rect fill="#F1F1F1" height="2" style="stroke:#181818;stroke-width:0.5;" width="4" x="1058.6445" y="92.6094"/><rect fill="#F1F1F1" height="2" style="stroke:#181818;stroke-width:0.5;" width="4" x="1058.6445" y="96.6094"/><text fill="#000000" font-family="sans-serif" font-size="14" lengthAdjust="spacing" textLength="42.7998" x="968.5" y="120.1426">SQLite</text><text fill="#000000" font-family="sans-serif" font-size="14" lengthAdjust="spacing" textLength="87.1445" x="968.5" y="137.752">Local (Offline)</text></g><!--entity PortailBrowser--><g id="elem_PortailBrowser"><rect fill="#F1F1F1" height="65.2188" rx="2.5" ry="2.5" style="stroke:#181818;stroke-width:0.5;" width="119.3652" x="1218.5" y="85.6094"/><rect fill="#F1F1F1" height="10" style="stroke:#181818;stroke-width:0.5;" width="15" x="1317.8652" y="90.6094"/><rect fill="#F1F1F1" height="2" style="stroke:#181818;stroke-width:0.5;" width="4" x="1315.8652" y="92.6094"/><rect fill="#F1F1F1" height="2" style="stroke:#181818;stroke-width:0.5;" width="4" x="1315.8652" y="96.6094"/><text fill="#000000" font-family="sans-serif" font-size="14" lengthAdjust="spacing" textLength="79.3652" x="1233.5" y="120.1426">Portail Client</text><text fill="#000000" font-family="sans-serif" font-size="14" lengthAdjust="spacing" textLength="50.5723" x="1233.5" y="137.752">React.js</text></g><!--entity AdminWeb--><g id="elem_AdminWeb"><rect fill="#F1F1F1" height="65.2188" rx="2.5" ry="2.5" style="stroke:#181818;stroke-width:0.5;" width="127.1514" x="1394.5" y="85.6094"/><rect fill="#F1F1F1" height="10" style="stroke:#181818;stroke-width:0.5;" width="15" x="1501.6514" y="90.6094"/><rect fill="#F1F1F1" height="2" style="stroke:#181818;stroke-width:0.5;" width="4" x="1499.6514" y="92.6094"/><rect fill="#F1F1F1" height="2" style="stroke:#181818;stroke-width:0.5;" width="4" x="1499.6514" y="96.6094"/><text fill="#000000" font-family="sans-serif" font-size="14" lengthAdjust="spacing" textLength="87.1514" x="1409.5" y="120.1426">Interface ERP</text><text fill="#000000" font-family="sans-serif" font-size="14" lengthAdjust="spacing" textLength="72.3584" x="1409.5" y="137.752">Web Admin</text></g><!--entity PowerBI--><g id="elem_PowerBI"><rect fill="#F1F1F1" height="65.2188" rx="2.5" ry="2.5" style="stroke:#181818;stroke-width:0.5;" width="115.4893" x="1917.5" y="334.1094"/><rect fill="#F1F1F1" height="10" style="stroke:#181818;stroke-width:0.5;" width="15" x="2012.9893" y="339.1094"/><rect fill="#F1F1F1" height="2" style="stroke:#181818;stroke-width:0.5;" width="4" x="2010.9893" y="341.1094"/><rect fill="#F1F1F1" height="2" style="stroke:#181818;stroke-width:0.5;" width="4" x="2010.9893" y="345.1094"/><text fill="#000000" font-family="sans-serif" font-size="14" lengthAdjust="spacing" textLength="75.4893" x="1932.5" y="368.6426">Dashboards</text><text fill="#000000" font-family="sans-serif" font-size="14" lengthAdjust="spacing" textLength="56.7998" x="1932.5" y="386.252">Power BI</text></g><!--entity GAOLegacy--><g id="elem_GAOLegacy"><rect fill="#F1F1F1" height="65.2188" rx="2.5" ry="2.5" style="stroke:#181818;stroke-width:0.5;" width="85.1445" x="185.5" y="539.1094"/><rect fill="#F1F1F1" height="10" style="stroke:#181818;stroke-width:0.5;" width="15" x="250.6445" y="544.1094"/><rect fill="#F1F1F1" height="2" style="stroke:#181818;stroke-width:0.5;" width="4" x="248.6445" y="546.1094"/><rect fill="#F1F1F1" height="2" style="stroke:#181818;stroke-width:0.5;" width="4" x="248.6445" y="550.1094"/><text fill="#000000" font-family="sans-serif" font-size="14" lengthAdjust="spacing" textLength="31.1172" x="200.5" y="573.6426">GAO</text><text fill="#000000" font-family="sans-serif" font-size="14" lengthAdjust="spacing" textLength="45.1445" x="200.5" y="591.252">Legacy</text></g><!--entity SAGELegacy--><g id="elem_SAGELegacy"><rect fill="#F1F1F1" height="65.2188" rx="2.5" ry="2.5" style="stroke:#181818;stroke-width:0.5;" width="117.8135" x="32" y="539.1094"/><rect fill="#F1F1F1" height="10" style="stroke:#181818;stroke-width:0.5;" width="15" x="129.8135" y="544.1094"/><rect fill="#F1F1F1" height="2" style="stroke:#181818;stroke-width:0.5;" width="4" x="127.8135" y="546.1094"/><rect fill="#F1F1F1" height="2" style="stroke:#181818;stroke-width:0.5;" width="4" x="127.8135" y="550.1094"/><text fill="#000000" font-family="sans-serif" font-size="14" lengthAdjust="spacing" textLength="38.9033" x="47" y="573.6426">SAGE</text><text fill="#000000" font-family="sans-serif" font-size="14" lengthAdjust="spacing" textLength="77.8135" x="47" y="591.252">Comptabilite</text></g><g id="elem_GMN46"><path d="M1929.5,72.1094 L1929.5,114.1094 L1894.08,118.1094 L1929.5,122.1094 L1929.5,163.8672 A0,0 0 0 0 1929.5,163.8672 L2074.0762,163.8672 A0,0 0 0 0 2074.0762,163.8672 L2074.0762,82.1094 L2064.0762,72.1094 L1929.5,72.1094 A0,0 0 0 0 1929.5,72.1094 " fill="#FEFFDD" style="stroke:#181818;stroke-width:0.5;"/><path d="M2064.0762,72.1094 L2064.0762,82.1094 L2074.0762,82.1094 L2064.0762,72.1094 " fill="#FEFFDD" style="stroke:#181818;stroke-width:0.5;"/><text fill="#000000" font-family="sans-serif" font-size="13" font-weight="bold" lengthAdjust="spacing" textLength="98.2173" x="1935.5" y="90.6045">MODE OFFLINE</text><text fill="#000000" font-family="sans-serif" font-size="13" lengthAdjust="spacing" textLength="3.6118" x="2037.3291" y="90.6045">:</text><text fill="#000000" font-family="sans-serif" font-size="13" lengthAdjust="spacing" textLength="123.5762" x="1935.5" y="106.9561">- Cache planning jour</text><text fill="#000000" font-family="sans-serif" font-size="13" lengthAdjust="spacing" textLength="122.1289" x="1935.5" y="123.3076">- Rapports en attente</text><text fill="#000000" font-family="sans-serif" font-size="13" lengthAdjust="spacing" textLength="109.8525" x="1935.5" y="139.6592">- Photos en attente</text><text fill="#000000" font-family="sans-serif" font-size="13" lengthAdjust="spacing" textLength="116.3081" x="1935.5" y="156.0107">- Sync auto WiFi/4G</text></g><g id="elem_GMN49"><path d="M1859.5,517.6094 L1859.5,625.7188 L2056.0635,625.7188 L2056.0635,527.6094 L2046.0635,517.6094 L1859.5,517.6094 " fill="#FEFFDD" style="stroke:#181818;stroke-width:0.5;"/><path d="M2046.0635,517.6094 L2046.0635,527.6094 L2056.0635,527.6094 L2046.0635,517.6094 " fill="#FEFFDD" style="stroke:#181818;stroke-width:1;"/><text fill="#000000" font-family="sans-serif" font-size="13" font-weight="bold" lengthAdjust="spacing" textLength="65.73" x="1865.5" y="536.1045">SECURITE</text><text fill="#000000" font-family="sans-serif" font-size="13" lengthAdjust="spacing" textLength="3.6118" x="1934.8418" y="536.1045">:</text><text fill="#000000" font-family="sans-serif" font-size="13" lengthAdjust="spacing" textLength="175.5635" x="1865.5" y="552.4561">- Chiffrement AES-256 (repos)</text><text fill="#000000" font-family="sans-serif" font-size="13" lengthAdjust="spacing" textLength="101.1372" x="1865.5" y="568.8076">- TLS 1.3 (transit)</text><text fill="#000000" font-family="sans-serif" font-size="13" lengthAdjust="spacing" textLength="107.6816" x="1865.5" y="585.1592">- Backup quotidien</text><text fill="#000000" font-family="sans-serif" font-size="13" lengthAdjust="spacing" textLength="113.4517" x="1865.5" y="601.5107">- Retention 30 jours</text><text fill="#000000" font-family="sans-serif" font-size="13" lengthAdjust="spacing" textLength="104.749" x="1865.5" y="617.8623">- RGPD compliant</text></g><g id="elem_GMN52"><path d="M306,525.6094 L306,617.3672 L466.4517,617.3672 L466.4517,535.6094 L456.4517,525.6094 L306,525.6094 " fill="#FEFFDD" style="stroke:#181818;stroke-width:0.5;"/><path d="M456.4517,525.6094 L456.4517,535.6094 L466.4517,535.6094 L456.4517,525.6094 " fill="#FEFFDD" style="stroke:#181818;stroke-width:1;"/><text fill="#000000" font-family="sans-serif" font-size="13" font-weight="bold" lengthAdjust="spacing" textLength="127.0991" x="312" y="544.1045">AUTHENTIFICATION</text><text fill="#000000" font-family="sans-serif" font-size="13" lengthAdjust="spacing" textLength="3.6118" x="442.7109" y="544.1045">:</text><text fill="#000000" font-family="sans-serif" font-size="13" lengthAdjust="spacing" textLength="108.0054" x="312" y="560.4561">- OAuth 2.0 + JWT</text><text fill="#000000" font-family="sans-serif" font-size="13" lengthAdjust="spacing" textLength="97.5381" x="312" y="576.8076">- MFA disponible</text><text fill="#000000" font-family="sans-serif" font-size="13" lengthAdjust="spacing" textLength="139.4517" x="312" y="593.1592">- Session timeout 30min</text><text fill="#000000" font-family="sans-serif" font-size="13" lengthAdjust="spacing" textLength="127.1626" x="312" y="609.5107">- Audit trail (logs 1 an)</text></g><g id="elem_GMN55"><path d="M1643.5,534.1094 L1643.5,609.5156 L1824.8926,609.5156 L1824.8926,544.1094 L1814.8926,534.1094 L1643.5,534.1094 " fill="#FEFFDD" style="stroke:#181818;stroke-width:0.5;"/><path d="M1814.8926,534.1094 L1814.8926,544.1094 L1824.8926,544.1094 L1814.8926,534.1094 " fill="#FEFFDD" style="stroke:#181818;stroke-width:1;"/><text fill="#000000" font-family="sans-serif" font-size="13" font-weight="bold" lengthAdjust="spacing" textLength="89.5527" x="1649.5" y="552.6045">INTEGRATION</text><text fill="#000000" font-family="sans-serif" font-size="13" lengthAdjust="spacing" textLength="3.6118" x="1742.6646" y="552.6045">:</text><text fill="#000000" font-family="sans-serif" font-size="13" lengthAdjust="spacing" textLength="130.7998" x="1649.5" y="568.9561">- Phase 2 (optionnelle)</text><text fill="#000000" font-family="sans-serif" font-size="13" lengthAdjust="spacing" textLength="140.188" x="1649.5" y="585.3076">- Consultation historique</text><text fill="#000000" font-family="sans-serif" font-size="13" lengthAdjust="spacing" textLength="160.3926" x="1649.5" y="601.6592">- Ou remplacement complet</text></g><!--link AppIOS to API--><g id="link_AppIOS_API"><path d="M1801.23,150.6494 C1790.25,159.0294 1777.98,167.6594 1766,174.6094 C1746.79,185.7494 1738.59,181.9594 1720,194.1094 C1701.58,206.1494 1700.09,213.0894 1684,228.1094 C1644.89,264.6194 1604.1191,302.1909 1573.8491,329.9909 " fill="none" id="AppIOS-to-API" style="stroke:#181818;stroke-width:1;"/><polygon fill="#181818" points="1569.43,334.0494,1578.7643,330.9077,1573.1126,330.6673,1573.353,325.0155,1569.43,334.0494" style="stroke:#181818;stroke-width:1;"/><text fill="#000000" font-family="sans-serif" font-size="13" lengthAdjust="spacing" textLength="91.749" x="1721" y="208.6045">HTTPS/TLS 1.3</text><text fill="#000000" font-family="sans-serif" font-size="13" lengthAdjust="spacing" textLength="59.2363" x="1737.2563" y="224.9561">API REST</text></g><!--link AppAndroid to API--><g id="link_AppAndroid_API"><path d="M896.13,150.7794 C907.84,160.1094 921.68,169.2594 936,174.6094 C997.74,197.6994 1172.38,165.9894 1232,194.1094 C1250.77,202.9594 1245.12,219.4994 1264,228.1094 C1284.34,237.3794 1446.03,224.2794 1465,236.1094 C1499.81,257.8094 1516.7825,297.4445 1525.8825,328.2945 " fill="none" id="AppAndroid-to-API" style="stroke:#181818;stroke-width:1;"/><polygon fill="#181818" points="1527.58,334.0494,1528.8703,324.2854,1526.1654,329.2537,1521.1971,326.5488,1527.58,334.0494" style="stroke:#181818;stroke-width:1;"/><text fill="#000000" font-family="sans-serif" font-size="13" lengthAdjust="spacing" textLength="91.749" x="1265" y="208.6045">HTTPS/TLS 1.3</text><text fill="#000000" font-family="sans-serif" font-size="13" lengthAdjust="spacing" textLength="59.2363" x="1281.2563" y="224.9561">API REST</text></g><!--link PortailBrowser to API--><g id="link_PortailBrowser_API"><path d="M1327.69,150.6194 C1343.32,159.4394 1360.96,168.3194 1378,174.6094 C1418.85,189.6794 1441.12,165.5694 1474,194.1094 C1515.05,229.7294 1527.8077,288.9472 1532.1977,327.8772 " fill="none" id="PortailBrowser-to-API" style="stroke:#181818;stroke-width:1;"/><polygon fill="#181818" points="1532.87,333.8394,1535.8363,324.4478,1532.3097,328.8709,1527.8867,325.3443,1532.87,333.8394" style="stroke:#181818;stroke-width:1;"/><text fill="#000000" font-family="sans-serif" font-size="13" lengthAdjust="spacing" textLength="42.6118" x="1510.3123" y="208.6045">HTTPS</text><text fill="#000000" font-family="sans-serif" font-size="13" lengthAdjust="spacing" textLength="59.2363" x="1502" y="224.9561">API REST</text></g><!--link AdminWeb to ERPApp--><g id="link_AdminWeb_ERPApp"><path d="M1408.1,150.6294 C1391.47,159.7794 1372.46,168.8494 1354,174.6094 C1317.7,185.9294 1209.31,165.7294 1184,194.1094 C1133.88,250.3094 1227.1565,304.2195 1300.9865,336.2795 " fill="none" id="AdminWeb-to-ERPApp" style="stroke:#181818;stroke-width:1;"/><polygon fill="#181818" points="1306.49,338.6694,1299.828,331.4156,1301.9037,336.6778,1296.6415,338.7536,1306.49,338.6694" style="stroke:#181818;stroke-width:1;"/><text fill="#000000" font-family="sans-serif" font-size="13" lengthAdjust="spacing" textLength="42.6118" x="1185" y="216.6045">HTTPS</text></g><!--link AppIOS to BlobPhotos--><g id="link_AppIOS_BlobPhotos"><path d="M1836.78,150.9794 C1834.23,173.4494 1828.75,203.7694 1817,228.1094 C1752.84,361.0494 1736.46,419.0294 1603,482.1094 C1570.75,497.3494 993.76,475.9994 961,490.1094 C937.59,500.1994 921.372,516.2865 907.542,534.2365 " fill="none" id="AppIOS-to-BlobPhotos" style="stroke:#181818;stroke-width:1;"/><polygon fill="#181818" points="903.88,538.9894,912.5416,534.3014,906.9316,535.0286,906.2044,529.4187,903.88,538.9894" style="stroke:#181818;stroke-width:1;"/><text fill="#000000" font-family="sans-serif" font-size="13" lengthAdjust="spacing" textLength="41.1963" x="1813" y="364.1045">Upload</text><text fill="#000000" font-family="sans-serif" font-size="13" lengthAdjust="spacing" textLength="39.0317" x="1814.0823" y="380.4561">photos</text></g><!--link AppAndroid to BlobPhotos--><g id="link_AppAndroid_BlobPhotos"><path d="M864.41,150.8594 C868.08,233.7594 877.6538,450.0453 881.3338,532.9053 " fill="none" id="AppAndroid-to-BlobPhotos" style="stroke:#181818;stroke-width:1;"/><polygon fill="#181818" points="881.6,538.8994,885.1967,529.7308,881.3782,533.9043,877.2046,530.0857,881.6,538.8994" style="stroke:#181818;stroke-width:1;"/><text fill="#000000" font-family="sans-serif" font-size="13" lengthAdjust="spacing" textLength="41.1963" x="877" y="364.1045">Upload</text><text fill="#000000" font-family="sans-serif" font-size="13" lengthAdjust="spacing" textLength="39.0317" x="878.0823" y="380.4561">photos</text></g><!--link API to DBSQL--><g id="link_API_DBSQL"><path d="M1534.06,399.3294 C1532.94,437.3494 1531.248,494.702 1530.118,532.782 " fill="none" id="API-to-DBSQL" style="stroke:#181818;stroke-width:1;"/><polygon fill="#181818" points="1529.94,538.7794,1534.2052,529.902,1530.0883,533.7816,1526.2087,529.6647,1529.94,538.7794" style="stroke:#181818;stroke-width:1;"/><text fill="#000000" font-family="sans-serif" font-size="13" lengthAdjust="spacing" textLength="26.0127" x="1565.075" y="454.1045">SQL</text><text fill="#000000" font-family="sans-serif" font-size="13" lengthAdjust="spacing" textLength="88.1626" x="1534" y="470.4561">AES-256 repos</text></g><!--link API to BlobPhotos--><g id="link_API_BlobPhotos"><path d="M1503.91,399.3294 C1492.63,408.7994 1479.15,417.9994 1465,423.1094 C1427.37,436.6894 1139.79,411.3594 1105,431.1094 C1081.73,444.3194 1095.94,468.3294 1073,482.1094 C1051.61,494.9594 983.62,479.5694 961,490.1094 C938.07,500.7994 922.0283,516.6726 908.1283,534.3526 " fill="none" id="API-to-BlobPhotos" style="stroke:#181818;stroke-width:1;"/><polygon fill="#181818" points="904.42,539.0694,913.127,534.4664,907.5103,535.1387,906.838,529.5219,904.42,539.0694" style="stroke:#181818;stroke-width:1;"/><text fill="#000000" font-family="sans-serif" font-size="13" lengthAdjust="spacing" textLength="83.0908" x="1106" y="462.1045">Store/Retrieve</text></g><!--link API to BlobPDF--><g id="link_API_BlobPDF"><path d="M1503.87,399.2394 C1492.59,408.6994 1479.12,417.9194 1465,423.1094 C1440.48,432.1194 1252.64,418.0794 1230,431.1094 C1206.81,444.4594 1220.67,467.8994 1198,482.1094 C1170.34,499.4394 1154.49,476.1294 1125,490.1094 C1097.78,503.0094 1077.8407,523.9766 1063.0307,542.8766 " fill="none" id="API-to-BlobPDF" style="stroke:#181818;stroke-width:1;"/><polygon fill="#181818" points="1059.33,547.5994,1068.0296,542.9824,1062.414,543.6637,1061.7326,538.0481,1059.33,547.5994" style="stroke:#181818;stroke-width:1;"/><text fill="#000000" font-family="sans-serif" font-size="13" lengthAdjust="spacing" textLength="88.8862" x="1231" y="462.1045">Generate/Store</text></g><!--link API to BlobDevis--><g id="link_API_BlobDevis"><path d="M1501.03,399.2894 C1490.17,408.0594 1477.66,416.8694 1465,423.1094 C1451.85,429.5894 1446.78,426.0994 1433,431.1094 C1384.24,448.8294 1377.08,465.3094 1328,482.1094 C1311.67,487.6994 1305.48,482.4794 1290,490.1094 C1261.28,504.2594 1238.3071,524.8828 1220.6471,543.2628 " fill="none" id="API-to-BlobDevis" style="stroke:#181818;stroke-width:1;"/><polygon fill="#181818" points="1216.49,547.5894,1225.6099,543.8709,1219.9542,543.9839,1219.8412,538.3282,1216.49,547.5894" style="stroke:#181818;stroke-width:1;"/><text fill="#000000" font-family="sans-serif" font-size="13" lengthAdjust="spacing" textLength="88.8862" x="1434" y="462.1045">Generate/Store</text></g><!--link ERPApp to Twilio--><g id="link_ERPApp_Twilio"><path d="M1306.11,375.4694 C1215.02,385.9894 1052.14,406.2494 914,431.1094 C795.67,452.4094 753.91,429.6394 650,490.1094 C629.29,502.1594 614.8065,517.3046 601.7965,534.3046 " fill="none" id="ERPApp-to-Twilio" style="stroke:#181818;stroke-width:1;"/><polygon fill="#181818" points="598.15,539.0694,606.7962,534.3532,601.1887,535.0987,600.4432,529.4912,598.15,539.0694" style="stroke:#181818;stroke-width:1;"/><text fill="#000000" font-family="sans-serif" font-size="13" lengthAdjust="spacing" textLength="20.9536" x="938.8386" y="454.1045">API</text><text fill="#000000" font-family="sans-serif" font-size="13" lengthAdjust="spacing" textLength="68.6309" x="915" y="470.4561">SMS clients</text></g><!--link ERPApp to SendGrid--><g id="link_ERPApp_SendGrid"><path d="M1306.14,373.5694 C1216.68,382.2394 1069.02,400.6894 1024,431.1094 C1001.83,446.0894 1015.13,468.6594 992,482.1094 C956.43,502.7994 845.11,474.5994 807,490.1094 C781.76,500.3794 762.9987,516.5605 746.6587,534.3505 " fill="none" id="ERPApp-to-SendGrid" style="stroke:#181818;stroke-width:1;"/><polygon fill="#181818" points="742.6,538.7694,751.634,534.8468,745.9823,535.087,745.7422,529.4352,742.6,538.7694" style="stroke:#181818;stroke-width:1;"/><text fill="#000000" font-family="sans-serif" font-size="13" lengthAdjust="spacing" textLength="20.9536" x="1034.0264" y="454.1045">API</text><text fill="#000000" font-family="sans-serif" font-size="13" lengthAdjust="spacing" textLength="39.0063" x="1025" y="470.4561">Emails</text></g><!--link API to GAOLegacy--><g id="link_API_GAOLegacy"><path d="M1499.7149,403.0294 C1488.3649,412.6094 1479.33,418.0494 1465,423.1094 C1438.2,432.5594 469.92,425.8294 442,431.1094 C369.98,444.7294 346.43,445.8594 288,490.1094 C270.77,503.1594 259.3788,517.3922 248.8888,533.8222 " fill="none" id="API-GAOLegacy" style="stroke:#181818;stroke-width:1;"/><polygon fill="#181818" points="1504.3,399.1594,1494.8424,401.9077,1500.4791,402.3844,1500.0024,408.0211,1504.3,399.1594" style="stroke:#181818;stroke-width:1;"/><polygon fill="#181818" points="245.66,538.8794,253.8747,533.4462,248.3507,534.6651,247.1318,529.1411,245.66,538.8794" style="stroke:#181818;stroke-width:1;"/><text fill="#000000" font-family="sans-serif" font-size="13" lengthAdjust="spacing" textLength="51.2954" x="453.4863" y="445.6045">API/CSV</text><text fill="#000000" font-family="sans-serif" font-size="13" lengthAdjust="spacing" textLength="72.2681" x="443" y="461.9561">Consultation</text><text fill="#000000" font-family="sans-serif" font-size="13" lengthAdjust="spacing" textLength="61.4263" x="448.4209" y="478.3076">(optionnel)</text></g><!--link API to SAGELegacy--><g id="link_API_SAGELegacy"><path d="M1504.3,399.1694 C1492.96,408.7494 1479.34,418.0694 1465,423.1094 C1431.83,434.7794 230.52,415.5194 199,431.1094 C153.56,453.5794 124.4056,499.929 107.5856,533.689 " fill="none" id="API-to-SAGELegacy" style="stroke:#181818;stroke-width:1;"/><polygon fill="#181818" points="104.91,539.0594,112.5037,532.7876,107.1397,534.5841,105.3432,529.22,104.91,539.0594" style="stroke:#181818;stroke-width:1;"/><text fill="#000000" font-family="sans-serif" font-size="13" lengthAdjust="spacing" textLength="20.9536" x="236.4958" y="454.1045">API</text><text fill="#000000" font-family="sans-serif" font-size="13" lengthAdjust="spacing" textLength="93.9453" x="200" y="470.4561">Facturation auto</text></g><!--link SQLiteIOS to API--><g id="link_SQLiteIOS_API"><path d="M1648.66,150.7694 C1635.66,163.3594 1621.61,178.5394 1611,194.1094 C1580.48,238.9294 1559.4629,292.3161 1547.1329,328.1361 " fill="none" id="SQLiteIOS-to-API" style="stroke:#0000FF;stroke-width:1;"/><polygon fill="#0000FF" points="1545.18,333.8094,1551.8915,326.6013,1546.8074,329.0816,1544.3271,323.9975,1545.18,333.8094" style="stroke:#0000FF;stroke-width:1;"/><text fill="#000000" font-family="sans-serif" font-size="13" lengthAdjust="spacing" textLength="67.2026" x="1612" y="208.6045">Sync offline</text><text fill="#000000" font-family="sans-serif" font-size="13" lengthAdjust="spacing" textLength="49.5244" x="1620.8391" y="224.9561">&#8594; online</text></g><!--link SQLiteAndroid to API--><g id="link_SQLiteAndroid_API"><path d="M1080.52,141.1194 C1115.9,152.6294 1160.96,166.0694 1202,174.6094 C1273.43,189.4794 1299.86,161.2394 1365,194.1094 C1383.53,203.4594 1378.47,218.7794 1397,228.1094 C1424.18,241.7894 1439.82,219.0194 1465,236.1094 C1498.73,258.9994 1515.8207,297.9093 1525.2607,328.3093 " fill="none" id="SQLiteAndroid-to-API" style="stroke:#0000FF;stroke-width:1;"/><polygon fill="#0000FF" points="1527.04,334.0394,1528.191,324.258,1525.5572,329.2643,1520.5509,326.6305,1527.04,334.0394" style="stroke:#0000FF;stroke-width:1;"/><text fill="#000000" font-family="sans-serif" font-size="13" lengthAdjust="spacing" textLength="67.2026" x="1398" y="208.6045">Sync offline</text><text fill="#000000" font-family="sans-serif" font-size="13" lengthAdjust="spacing" textLength="49.5244" x="1406.8391" y="224.9561">&#8594; online</text></g><!--link PowerBI to DBSQL--><g id="link_PowerBI_DBSQL"><path d="M1955.18,399.1594 C1935.91,426.6494 1903.9,464.7694 1865,482.1094 C1816.47,503.7494 1675.68,471.2394 1626,490.1094 C1599.2,500.2894 1578.6572,516.8713 1560.8572,534.8013 " fill="none" id="PowerBI-to-DBSQL" style="stroke:#181818;stroke-width:1;"/><polygon fill="#181818" points="1556.63,539.0594,1565.8095,535.4904,1560.1526,535.511,1560.1321,529.8542,1556.63,539.0594" style="stroke:#181818;stroke-width:1;"/><text fill="#000000" font-family="sans-serif" font-size="13" lengthAdjust="spacing" textLength="69.3481" x="1929" y="454.1045">DirectQuery</text><text fill="#000000" font-family="sans-serif" font-size="13" lengthAdjust="spacing" textLength="52.019" x="1937.6646" y="470.4561">Analytics</text></g><!--link GMN49 to DBSQL--><g id="link_GMN49_DBSQL"><path d="M1912.04,517.4294 C1888.56,493.9494 1857.91,469.0194 1824.5,456.6094 C1749.09,428.6094 1717.79,425.7394 1643.5,456.6094 C1603.56,473.1994 1570.35,511.2394 1550.16,539.0494 " fill="none" id="GMN49-DBSQL" style="stroke:#181818;stroke-width:1;stroke-dasharray:7.0,7.0;"/></g><!--link API to GMN52--><g id="link_API_GMN52"><path d="M1504.29,399.1394 C1492.94,408.7194 1479.33,418.0394 1465,423.1094 C1422.84,438.0294 703.94,422.7594 660,431.1094 C587.99,444.7994 571.07,456.3694 506,490.1094 C486.29,500.3294 465.87,513.0994 447.58,525.4494 " fill="none" id="API-GMN52" style="stroke:#181818;stroke-width:1;stroke-dasharray:7.0,7.0;"/></g><!--link GAOLegacy to GMN55--><g id="link_GAOLegacy_GMN55"><path d="M239.87,538.8694 C251.79,511.3594 273.09,473.8494 305.5,456.6094 C368.28,423.2094 1518.21,433.5994 1585.5,456.6094 C1630.08,471.8494 1671.65,506.5294 1699.4,533.8394 " fill="none" id="GAOLegacy-GMN55" style="stroke:#181818;stroke-width:1;stroke-dasharray:7.0,7.0;"/></g><!--SRC=[bLR9ajis4BtpAxgSYwIKHbwI7APIgQ9MCpLQB78yXw4F4DcIO4C03O8pDKdvcW_89-PBqW18ITGaJgoJq7ZTUEZbWOORWJ36GYYE1vG68hdLh3Iwoaob4VeGX-zX95IL1u5KESABy3UxuKpGcTmIPAgPpCX4_fg9xWluFGW0F7goNWr6wpaag3NZ4cB6OWi0-cNgK2XfJxqFYqBmZ1ck9DpX9fNar_Xy05O2hGdpp6qLmNeI9wbSq6bN7qk79Qi3viom3IiHxbUgD3kDyRkRL0wjXS8vw7X8DW9_EJ7szniAjO7OACrssF0j_PB2xPLHPIeZQL0_41EYxO-sRdxtmcCyXJKh2gND6N0yVOuQumC_GTogpI-c8tc69Ome3y9LZN6DvJzaDNdaWYk8vt4gPypW8tjoaRtz4XsZp6UQvwcCvubFJsDo3Buq7P1WjfSyuoXjVnoODiMUOa27B-Ekfz4kBSpLXWjC9G5yXOeYMiR1UOce3jmGv4PbJ41dkTqABh7hQRWzw_7V74APQyNph_EeGGsNUlcDV1gl8wUHuFQaFYpO0zzHlYjjc_aPanLr0UC2F3wLQsIPQPgttXngzLYYFW-kp9wBtCxa6CjFHXNF0hj-tBBCzNSgwMm8yqCzGUuVcKuXnzGscHkvVmyvPkL-evZEgTrNwX4r3AEQ9os6qIdQKlPN6W-SaZUc2R9v2AN4xCd7F6Ls5YufhRXZcUz6MljLE__XR99As-DaeNOrw5DFvXfD9_i-Wdx_5plqS0rlasGL3vAR65vTlQ4wr_eGd8hyFy3j4bmwd4UjK-eWNg4QL8lRIHLe-vR4bj6G5LucBfXz3HhOWot8gHRjEpqB9t7_zOy_WSR2XgiXhJXMnt2mHgCvFc0RGv9p3JEKgAbX1mxP0ZW5UWu9wkjQM2qprpPBLZnYo5ndb-UWHaeQsEH0AQxlzBC57Dl08mQZ-BsjlomhOTp3aCgEAkmVYQ9xv7XgY2RobDctoxybh38g28xw0VtxxpQYmW_7aiPFCWFbXpkLV_tn9oXf_mUj6Vy6lw0UZ5QX_AIzgr0_MV5XuidmhBIJOn0qt-qDnJgfOgytNuudi9nERwB5fDU3QpBsOSIoFK8Xc9HSxk2ZghIpDmyBa1WoOoZpwEnr_I-iZhdD2zpnAH_yC0keCc2Pr7m4RXsTvctizUB9w7OT9MTCzdoxrVwBeUc_Zcl0hjklPmewz44WIswyTSYoJrK1dojbU4uDuicZyGyel7dfhbHwysmrTZeaE9Fcak966QCEBcVkhU_rmjlaxMIHHDDe52RHSd6akWmhiuVNLo_XU_ZrBd6s-JI4d9UaSNmZwgnWMLeIXXzGLOR8q6YxdR3AkG6w22bsHwXT2Q-0oUubfMCLp-MiruiMoMIsRbDQxQt2lOPJEmlq6JflTzXp-s70FrUUuRAY4QTyaBoxlBlau5bg_WO0]--></g></svg>