<svg xmlns="http://www.w3.org/2000/svg" xmlns:xlink="http://www.w3.org/1999/xlink" contentStyleType="text/css" height="404px" preserveAspectRatio="none" style="width:364px;height:404px;background:#FFFFFF;" version="1.1" viewBox="0 0 364 404" width="364px" zoomAndPan="magnify"><title>Comparaison Temps Avant Apres Intervention SAV</title><defs/><g><text fill="#000000" font-family="sans-serif" font-size="14" font-weight="bold" lengthAdjust="spacing" textLength="341.5166" x="10" y="24.5332">Comparaison Temps Avant Apres Intervention SAV</text><text fill="#000000" font-family="sans-serif" font-size="10" lengthAdjust="spacing" textLength="13.8916" x="118.3125" y="62.9902">Mo</text><text fill="#000000" font-family="sans-serif" font-size="10" lengthAdjust="spacing" textLength="11.6699" x="135.4233" y="62.9902">Tu</text><text fill="#000000" font-family="sans-serif" font-size="10" lengthAdjust="spacing" textLength="15" x="149.7583" y="62.9902">We</text><text fill="#000000" font-family="sans-serif" font-size="10" lengthAdjust="spacing" textLength="11.6699" x="167.4233" y="62.9902">Th</text><text fill="#000000" font-family="sans-serif" font-size="10" lengthAdjust="spacing" textLength="9.4385" x="184.5391" y="62.9902">Fr</text><text fill="#000000" font-family="sans-serif" font-size="10" lengthAdjust="spacing" textLength="12.2314" x="199.1426" y="62.9902">Sa</text><text fill="#000000" font-family="sans-serif" font-size="10" lengthAdjust="spacing" textLength="12.2314" x="215.1426" y="62.9902">Su</text><text fill="#000000" font-family="sans-serif" font-size="10" lengthAdjust="spacing" textLength="13.8916" x="230.3125" y="62.9902">Mo</text><text fill="#000000" font-family="sans-serif" font-size="10" lengthAdjust="spacing" textLength="11.123" x="119.6968" y="74.9902">17</text><text fill="#000000" font-family="sans-serif" font-size="10" lengthAdjust="spacing" textLength="11.123" x="135.6968" y="74.9902">18</text><text fill="#000000" font-family="sans-serif" font-size="10" lengthAdjust="spacing" textLength="11.123" x="151.6968" y="74.9902">19</text><text fill="#000000" font-family="sans-serif" font-size="10" lengthAdjust="spacing" textLength="11.123" x="167.6968" y="74.9902">20</text><text fill="#000000" font-family="sans-serif" font-size="10" lengthAdjust="spacing" textLength="11.123" x="183.6968" y="74.9902">21</text><text fill="#000000" font-family="sans-serif" font-size="10" lengthAdjust="spacing" textLength="11.123" x="199.6968" y="74.9902">22</text><text fill="#000000" font-family="sans-serif" font-size="10" lengthAdjust="spacing" textLength="11.123" x="215.6968" y="74.9902">23</text><text fill="#000000" font-family="sans-serif" font-size="10" lengthAdjust="spacing" textLength="11.123" x="231.6968" y="74.9902">24</text><text fill="#000000" font-family="sans-serif" font-size="12" font-weight="bold" lengthAdjust="spacing" textLength="88.7168" x="136.8999" y="51.0664">November 2025</text><line style="stroke:#C0C0C0;stroke-width:1;" x1="117.2583" x2="117.2583" y1="77.6094" y2="361.1484"/><line style="stroke:#C0C0C0;stroke-width:1;" x1="133.2583" x2="133.2583" y1="77.6094" y2="361.1484"/><line style="stroke:#C0C0C0;stroke-width:1;" x1="149.2583" x2="149.2583" y1="77.6094" y2="361.1484"/><line style="stroke:#C0C0C0;stroke-width:1;" x1="165.2583" x2="165.2583" y1="77.6094" y2="361.1484"/><line style="stroke:#C0C0C0;stroke-width:1;" x1="181.2583" x2="181.2583" y1="77.6094" y2="361.1484"/><line style="stroke:#C0C0C0;stroke-width:1;" x1="197.2583" x2="197.2583" y1="77.6094" y2="361.1484"/><line style="stroke:#C0C0C0;stroke-width:1;" x1="213.2583" x2="213.2583" y1="77.6094" y2="361.1484"/><line style="stroke:#C0C0C0;stroke-width:1;" x1="229.2583" x2="229.2583" y1="77.6094" y2="361.1484"/><line style="stroke:#C0C0C0;stroke-width:1;" x1="245.2583" x2="245.2583" y1="77.6094" y2="361.1484"/><line style="stroke:#C0C0C0;stroke-width:1;" x1="117.2583" x2="245.2583" y1="77.6094" y2="77.6094"/><line style="stroke:#C0C0C0;stroke-width:1;" x1="117.2583" x2="245.2583" y1="361.1484" y2="361.1484"/><line style="stroke:#181818;stroke-width:1.5;" x1="116.2583" x2="108.2583" y1="86.5273" y2="86.5273"/><line style="stroke:#181818;stroke-width:1.5;" x1="108.2583" x2="108.2583" y1="86.5273" y2="104.3633"/><line style="stroke:#181818;stroke-width:1.5;" x1="108.2583" x2="116.2583" y1="104.3633" y2="104.3633"/><polygon fill="#181818" points="112.2583,100.3633,112.2583,104.3633,112.2583,108.3633,116.2583,104.3633" style="stroke:#181818;stroke-width:1.5;"/><line style="stroke:#181818;stroke-width:1.5;" x1="124.2583" x2="124.2583" y1="111.2813" y2="122.1992"/><line style="stroke:#181818;stroke-width:1.5;" x1="124.2583" x2="132.2583" y1="122.1992" y2="122.1992"/><polygon fill="#181818" points="128.2583,118.1992,128.2583,122.1992,128.2583,126.1992,132.2583,122.1992" style="stroke:#181818;stroke-width:1.5;"/><line style="stroke:#181818;stroke-width:1.5;" x1="140.2583" x2="140.2583" y1="129.1172" y2="140.0352"/><line style="stroke:#181818;stroke-width:1.5;" x1="140.2583" x2="148.2583" y1="140.0352" y2="140.0352"/><polygon fill="#181818" points="144.2583,136.0352,144.2583,140.0352,144.2583,144.0352,148.2583,140.0352" style="stroke:#181818;stroke-width:1.5;"/><line style="stroke:#181818;stroke-width:1.5;" x1="156.2583" x2="156.2583" y1="146.9531" y2="157.8711"/><line style="stroke:#181818;stroke-width:1.5;" x1="156.2583" x2="164.2583" y1="157.8711" y2="157.8711"/><polygon fill="#181818" points="160.2583,153.8711,160.2583,157.8711,160.2583,161.8711,164.2583,157.8711" style="stroke:#181818;stroke-width:1.5;"/><line style="stroke:#181818;stroke-width:1.5;" x1="172.2583" x2="172.2583" y1="164.7891" y2="175.707"/><line style="stroke:#181818;stroke-width:1.5;" x1="172.2583" x2="180.2583" y1="175.707" y2="175.707"/><polygon fill="#181818" points="176.2583,171.707,176.2583,175.707,176.2583,179.707,180.2583,175.707" style="stroke:#181818;stroke-width:1.5;"/><line style="stroke:#181818;stroke-width:1.5;" x1="188.2583" x2="188.2583" y1="182.625" y2="193.543"/><line style="stroke:#181818;stroke-width:1.5;" x1="188.2583" x2="196.2583" y1="193.543" y2="193.543"/><polygon fill="#181818" points="192.2583,189.543,192.2583,193.543,192.2583,197.543,196.2583,193.543" style="stroke:#181818;stroke-width:1.5;"/><line style="stroke:#181818;stroke-width:1.5;" x1="204.2583" x2="204.2583" y1="200.4609" y2="211.3789"/><line style="stroke:#181818;stroke-width:1.5;" x1="204.2583" x2="212.2583" y1="211.3789" y2="211.3789"/><polygon fill="#181818" points="208.2583,207.3789,208.2583,211.3789,208.2583,215.3789,212.2583,211.3789" style="stroke:#181818;stroke-width:1.5;"/><line style="stroke:#181818;stroke-width:1.5;" x1="220.2583" x2="220.2583" y1="218.2969" y2="229.2148"/><line style="stroke:#181818;stroke-width:1.5;" x1="220.2583" x2="228.2583" y1="229.2148" y2="229.2148"/><polygon fill="#181818" points="224.2583,225.2148,224.2583,229.2148,224.2583,233.2148,228.2583,229.2148" style="stroke:#181818;stroke-width:1.5;"/><line style="stroke:#181818;stroke-width:1.5;" x1="116.2583" x2="108.2583" y1="86.5273" y2="86.5273"/><line style="stroke:#181818;stroke-width:1.5;" x1="108.2583" x2="108.2583" y1="86.5273" y2="280.8867"/><line style="stroke:#181818;stroke-width:1.5;" x1="108.2583" x2="116.2583" y1="280.8867" y2="280.8867"/><polygon fill="#181818" points="112.2583,276.8867,112.2583,280.8867,112.2583,284.8867,116.2583,280.8867" style="stroke:#181818;stroke-width:1.5;"/><line style="stroke:#181818;stroke-width:1.5;" x1="116.2583" x2="108.2583" y1="280.8867" y2="280.8867"/><line style="stroke:#181818;stroke-width:1.5;" x1="108.2583" x2="108.2583" y1="280.8867" y2="298.7227"/><line style="stroke:#181818;stroke-width:1.5;" x1="108.2583" x2="116.2583" y1="298.7227" y2="298.7227"/><polygon fill="#181818" points="112.2583,294.7227,112.2583,298.7227,112.2583,302.7227,116.2583,298.7227" style="stroke:#181818;stroke-width:1.5;"/><line style="stroke:#181818;stroke-width:1.5;" x1="124.2583" x2="124.2583" y1="305.6406" y2="316.5586"/><line style="stroke:#181818;stroke-width:1.5;" x1="124.2583" x2="132.2583" y1="316.5586" y2="316.5586"/><polygon fill="#181818" points="128.2583,312.5586,128.2583,316.5586,128.2583,320.5586,132.2583,316.5586" style="stroke:#181818;stroke-width:1.5;"/><line style="stroke:#181818;stroke-width:1.5;" x1="140.2583" x2="140.2583" y1="323.4766" y2="334.3945"/><line style="stroke:#181818;stroke-width:1.5;" x1="140.2583" x2="148.2583" y1="334.3945" y2="334.3945"/><polygon fill="#181818" points="144.2583,330.3945,144.2583,334.3945,144.2583,338.3945,148.2583,334.3945" style="stroke:#181818;stroke-width:1.5;"/><line style="stroke:#181818;stroke-width:1.5;" x1="156.2583" x2="156.2583" y1="341.3125" y2="352.2305"/><line style="stroke:#181818;stroke-width:1.5;" x1="156.2583" x2="164.2583" y1="352.2305" y2="352.2305"/><polygon fill="#181818" points="160.2583,348.2305,160.2583,352.2305,160.2583,356.2305,164.2583,352.2305" style="stroke:#181818;stroke-width:1.5;"/><rect fill="#FF0000" height="13.8359" style="stroke:none;stroke-width:1;" width="12" x="119.2583" y="79.6094"/><line style="stroke:#FF0000;stroke-width:1;" x1="119.2583" x2="131.2583" y1="79.6094" y2="79.6094"/><line style="stroke:#FF0000;stroke-width:1;" x1="119.2583" x2="131.2583" y1="93.4453" y2="93.4453"/><line style="stroke:#FF0000;stroke-width:1;" x1="119.2583" x2="119.2583" y1="79.6094" y2="93.4453"/><line style="stroke:#FF0000;stroke-width:1;" x1="131.2583" x2="131.2583" y1="79.6094" y2="93.4453"/><rect fill="#F08080" height="13.8359" style="stroke:none;stroke-width:1;" width="12" x="119.2583" y="97.4453"/><line style="stroke:#F08080;stroke-width:1;" x1="119.2583" x2="131.2583" y1="97.4453" y2="97.4453"/><line style="stroke:#F08080;stroke-width:1;" x1="119.2583" x2="131.2583" y1="111.2813" y2="111.2813"/><line style="stroke:#F08080;stroke-width:1;" x1="119.2583" x2="119.2583" y1="97.4453" y2="111.2813"/><line style="stroke:#F08080;stroke-width:1;" x1="131.2583" x2="131.2583" y1="97.4453" y2="111.2813"/><rect fill="#F08080" height="13.8359" style="stroke:none;stroke-width:1;" width="12" x="135.2583" y="115.2813"/><line style="stroke:#F08080;stroke-width:1;" x1="135.2583" x2="147.2583" y1="115.2813" y2="115.2813"/><line style="stroke:#F08080;stroke-width:1;" x1="135.2583" x2="147.2583" y1="129.1172" y2="129.1172"/><line style="stroke:#F08080;stroke-width:1;" x1="135.2583" x2="135.2583" y1="115.2813" y2="129.1172"/><line style="stroke:#F08080;stroke-width:1;" x1="147.2583" x2="147.2583" y1="115.2813" y2="129.1172"/><rect fill="#FFA500" height="13.8359" style="stroke:none;stroke-width:1;" width="12" x="151.2583" y="133.1172"/><line style="stroke:#FFA500;stroke-width:1;" x1="151.2583" x2="163.2583" y1="133.1172" y2="133.1172"/><line style="stroke:#FFA500;stroke-width:1;" x1="151.2583" x2="163.2583" y1="146.9531" y2="146.9531"/><line style="stroke:#FFA500;stroke-width:1;" x1="151.2583" x2="151.2583" y1="133.1172" y2="146.9531"/><line style="stroke:#FFA500;stroke-width:1;" x1="163.2583" x2="163.2583" y1="133.1172" y2="146.9531"/><rect fill="#90EE90" height="13.8359" style="stroke:none;stroke-width:1;" width="12" x="167.2583" y="150.9531"/><line style="stroke:#90EE90;stroke-width:1;" x1="167.2583" x2="179.2583" y1="150.9531" y2="150.9531"/><line style="stroke:#90EE90;stroke-width:1;" x1="167.2583" x2="179.2583" y1="164.7891" y2="164.7891"/><line style="stroke:#90EE90;stroke-width:1;" x1="167.2583" x2="167.2583" y1="150.9531" y2="164.7891"/><line style="stroke:#90EE90;stroke-width:1;" x1="179.2583" x2="179.2583" y1="150.9531" y2="164.7891"/><rect fill="#FF0000" height="13.8359" style="stroke:none;stroke-width:1;" width="12" x="183.2583" y="168.7891"/><line style="stroke:#FF0000;stroke-width:1;" x1="183.2583" x2="195.2583" y1="168.7891" y2="168.7891"/><line style="stroke:#FF0000;stroke-width:1;" x1="183.2583" x2="195.2583" y1="182.625" y2="182.625"/><line style="stroke:#FF0000;stroke-width:1;" x1="183.2583" x2="183.2583" y1="168.7891" y2="182.625"/><line style="stroke:#FF0000;stroke-width:1;" x1="195.2583" x2="195.2583" y1="168.7891" y2="182.625"/><rect fill="#FFA500" height="13.8359" style="stroke:none;stroke-width:1;" width="12" x="199.2583" y="186.625"/><line style="stroke:#FFA500;stroke-width:1;" x1="199.2583" x2="211.2583" y1="186.625" y2="186.625"/><line style="stroke:#FFA500;stroke-width:1;" x1="199.2583" x2="211.2583" y1="200.4609" y2="200.4609"/><line style="stroke:#FFA500;stroke-width:1;" x1="199.2583" x2="199.2583" y1="186.625" y2="200.4609"/><line style="stroke:#FFA500;stroke-width:1;" x1="211.2583" x2="211.2583" y1="186.625" y2="200.4609"/><rect fill="#F08080" height="13.8359" style="stroke:none;stroke-width:1;" width="12" x="215.2583" y="204.4609"/><line style="stroke:#F08080;stroke-width:1;" x1="215.2583" x2="227.2583" y1="204.4609" y2="204.4609"/><line style="stroke:#F08080;stroke-width:1;" x1="215.2583" x2="227.2583" y1="218.2969" y2="218.2969"/><line style="stroke:#F08080;stroke-width:1;" x1="215.2583" x2="215.2583" y1="204.4609" y2="218.2969"/><line style="stroke:#F08080;stroke-width:1;" x1="227.2583" x2="227.2583" y1="204.4609" y2="218.2969"/><rect fill="#FF0000" height="13.8359" style="stroke:none;stroke-width:1;" width="12" x="231.2583" y="222.2969"/><line style="stroke:#FF0000;stroke-width:1;" x1="231.2583" x2="243.2583" y1="222.2969" y2="222.2969"/><line style="stroke:#FF0000;stroke-width:1;" x1="231.2583" x2="243.2583" y1="236.1328" y2="236.1328"/><line style="stroke:#FF0000;stroke-width:1;" x1="231.2583" x2="231.2583" y1="222.2969" y2="236.1328"/><line style="stroke:#FF0000;stroke-width:1;" x1="243.2583" x2="243.2583" y1="222.2969" y2="236.1328"/><line style="stroke:#181818;stroke-width:1;" x1="117.2583" x2="122.2583" y1="255.0508" y2="255.0508"/><line style="stroke:#181818;stroke-width:1;" x1="177.4937" x2="244.2583" y1="255.0508" y2="255.0508"/><rect fill="#90EE90" height="13.8359" style="stroke:none;stroke-width:1;" width="12" x="119.2583" y="273.9688"/><line style="stroke:#90EE90;stroke-width:1;" x1="119.2583" x2="131.2583" y1="273.9688" y2="273.9688"/><line style="stroke:#90EE90;stroke-width:1;" x1="119.2583" x2="131.2583" y1="287.8047" y2="287.8047"/><line style="stroke:#90EE90;stroke-width:1;" x1="119.2583" x2="119.2583" y1="273.9688" y2="287.8047"/><line style="stroke:#90EE90;stroke-width:1;" x1="131.2583" x2="131.2583" y1="273.9688" y2="287.8047"/><rect fill="#90EE90" height="13.8359" style="stroke:none;stroke-width:1;" width="12" x="119.2583" y="291.8047"/><line style="stroke:#90EE90;stroke-width:1;" x1="119.2583" x2="131.2583" y1="291.8047" y2="291.8047"/><line style="stroke:#90EE90;stroke-width:1;" x1="119.2583" x2="131.2583" y1="305.6406" y2="305.6406"/><line style="stroke:#90EE90;stroke-width:1;" x1="119.2583" x2="119.2583" y1="291.8047" y2="305.6406"/><line style="stroke:#90EE90;stroke-width:1;" x1="131.2583" x2="131.2583" y1="291.8047" y2="305.6406"/><rect fill="#90EE90" height="13.8359" style="stroke:none;stroke-width:1;" width="12" x="135.2583" y="309.6406"/><line style="stroke:#90EE90;stroke-width:1;" x1="135.2583" x2="147.2583" y1="309.6406" y2="309.6406"/><line style="stroke:#90EE90;stroke-width:1;" x1="135.2583" x2="147.2583" y1="323.4766" y2="323.4766"/><line style="stroke:#90EE90;stroke-width:1;" x1="135.2583" x2="135.2583" y1="309.6406" y2="323.4766"/><line style="stroke:#90EE90;stroke-width:1;" x1="147.2583" x2="147.2583" y1="309.6406" y2="323.4766"/><rect fill="#90EE90" height="13.8359" style="stroke:none;stroke-width:1;" width="12" x="151.2583" y="327.4766"/><line style="stroke:#90EE90;stroke-width:1;" x1="151.2583" x2="163.2583" y1="327.4766" y2="327.4766"/><line style="stroke:#90EE90;stroke-width:1;" x1="151.2583" x2="163.2583" y1="341.3125" y2="341.3125"/><line style="stroke:#90EE90;stroke-width:1;" x1="151.2583" x2="151.2583" y1="327.4766" y2="341.3125"/><line style="stroke:#90EE90;stroke-width:1;" x1="163.2583" x2="163.2583" y1="327.4766" y2="341.3125"/><rect fill="#90EE90" height="13.8359" style="stroke:none;stroke-width:1;" width="12" x="167.2583" y="345.3125"/><line style="stroke:#90EE90;stroke-width:1;" x1="167.2583" x2="179.2583" y1="345.3125" y2="345.3125"/><line style="stroke:#90EE90;stroke-width:1;" x1="167.2583" x2="179.2583" y1="359.1484" y2="359.1484"/><line style="stroke:#90EE90;stroke-width:1;" x1="167.2583" x2="167.2583" y1="345.3125" y2="359.1484"/><line style="stroke:#90EE90;stroke-width:1;" x1="179.2583" x2="179.2583" y1="345.3125" y2="359.1484"/><text fill="#000000" font-family="sans-serif" font-size="11" lengthAdjust="spacing" textLength="133.2676" x="135.2583" y="91.0283">SYSTEME ACTUEL - 2h44</text><text fill="#000000" font-family="sans-serif" font-size="11" lengthAdjust="spacing" textLength="97.2329" x="135.2583" y="108.8643">Preparation tournee</text><text fill="#000000" font-family="sans-serif" font-size="11" lengthAdjust="spacing" textLength="93.5483" x="151.2583" y="126.7002">Deplacement client</text><text fill="#000000" font-family="sans-serif" font-size="11" lengthAdjust="spacing" textLength="100.2837" x="167.2583" y="144.5361">Appel Clothilde infos</text><text fill="#000000" font-family="sans-serif" font-size="11" lengthAdjust="spacing" textLength="108.2437" x="183.2583" y="162.3721">Intervention technique</text><text fill="#000000" font-family="sans-serif" font-size="11" lengthAdjust="spacing" textLength="107.583" x="199.2583" y="180.208">CERFA papier remplir</text><text fill="#000000" font-family="sans-serif" font-size="11" lengthAdjust="spacing" textLength="79.4922" x="215.2583" y="198.0439">Photos tel perso</text><text fill="#000000" font-family="sans-serif" font-size="11" lengthAdjust="spacing" textLength="80.7222" x="231.2583" y="215.8799">Signature papier</text><text fill="#000000" font-family="sans-serif" font-size="11" lengthAdjust="spacing" textLength="99.6445" x="247.2583" y="233.7158">Retour scan CERFA</text><text fill="#000000" font-family="sans-serif" font-size="11" lengthAdjust="spacing" textLength="45.2354" x="127.2583" y="259.5518">VERSUS</text><text fill="#000000" font-family="sans-serif" font-size="11" lengthAdjust="spacing" textLength="121.6606" x="135.2583" y="285.3877">SYSTEME CIBLE - 1h58</text><text fill="#000000" font-family="sans-serif" font-size="11" lengthAdjust="spacing" textLength="108.2329" x="135.2583" y="303.2236">Preparation tournee C</text><text fill="#000000" font-family="sans-serif" font-size="11" lengthAdjust="spacing" textLength="108.8291" x="151.2583" y="321.0596">Deplacement optimise</text><text fill="#000000" font-family="sans-serif" font-size="11" lengthAdjust="spacing" textLength="119.2437" x="167.2583" y="338.8955">Intervention technique C</text><text fill="#000000" font-family="sans-serif" font-size="11" lengthAdjust="spacing" textLength="92.3398" x="183.2583" y="356.7314">Rapport digital app</text><text fill="#000000" font-family="sans-serif" font-size="10" lengthAdjust="spacing" textLength="13.8916" x="118.3125" y="371.5293">Mo</text><text fill="#000000" font-family="sans-serif" font-size="10" lengthAdjust="spacing" textLength="11.6699" x="135.4233" y="371.5293">Tu</text><text fill="#000000" font-family="sans-serif" font-size="10" lengthAdjust="spacing" textLength="15" x="149.7583" y="371.5293">We</text><text fill="#000000" font-family="sans-serif" font-size="10" lengthAdjust="spacing" textLength="11.6699" x="167.4233" y="371.5293">Th</text><text fill="#000000" font-family="sans-serif" font-size="10" lengthAdjust="spacing" textLength="9.4385" x="184.5391" y="371.5293">Fr</text><text fill="#000000" font-family="sans-serif" font-size="10" lengthAdjust="spacing" textLength="12.2314" x="199.1426" y="371.5293">Sa</text><text fill="#000000" font-family="sans-serif" font-size="10" lengthAdjust="spacing" textLength="12.2314" x="215.1426" y="371.5293">Su</text><text fill="#000000" font-family="sans-serif" font-size="10" lengthAdjust="spacing" textLength="13.8916" x="230.3125" y="371.5293">Mo</text><text fill="#000000" font-family="sans-serif" font-size="10" lengthAdjust="spacing" textLength="11.123" x="119.6968" y="385.5293">17</text><text fill="#000000" font-family="sans-serif" font-size="10" lengthAdjust="spacing" textLength="11.123" x="135.6968" y="385.5293">18</text><text fill="#000000" font-family="sans-serif" font-size="10" lengthAdjust="spacing" textLength="11.123" x="151.6968" y="385.5293">19</text><text fill="#000000" font-family="sans-serif" font-size="10" lengthAdjust="spacing" textLength="11.123" x="167.6968" y="385.5293">20</text><text fill="#000000" font-family="sans-serif" font-size="10" lengthAdjust="spacing" textLength="11.123" x="183.6968" y="385.5293">21</text><text fill="#000000" font-family="sans-serif" font-size="10" lengthAdjust="spacing" textLength="11.123" x="199.6968" y="385.5293">22</text><text fill="#000000" font-family="sans-serif" font-size="10" lengthAdjust="spacing" textLength="11.123" x="215.6968" y="385.5293">23</text><text fill="#000000" font-family="sans-serif" font-size="10" lengthAdjust="spacing" textLength="11.123" x="231.6968" y="385.5293">24</text><text fill="#000000" font-family="sans-serif" font-size="12" font-weight="bold" lengthAdjust="spacing" textLength="88.7168" x="136.8999" y="400.6055">November 2025</text><!--SRC=[fPJVJzim4CVV_LVSs-0XQ0vfgVf42861sgrAIgK98MJI8_NasfxjLEA_twKDj5CtWUXBVZYvx-TyTr-V-o1Sg8KE0QxRwsDcbbOu8RtHZpSwe5kX3j9ene8C2c7dEqnnQJsaAmg4r3hqi1i1PJfZp3gfWwy4XSw5L2_jYlc5LO0rsaFyDUv5d4VyZB7xycSvpSSvfDdqBXz11F4YIHv0UBXFgz2WUW0bF4LnKdi1eUSWFLH66OVqgA70ESbC7BP9hhC8fd4QiHFXxmcCPBq8cN52hJzsIOhmbi0Nlraap2LQ9IfSqdwXKf9k7IK-WC9R0kfs6wcrg21J9YoacYC5FXlV8KxVG_nmGjUu9nzlvVzgLi1geUNlvhLGoOUsSEqGzHxZTCl8yk8g1IkiH0UEvaL9rn5w7-ZbddIobPuiJ32U4bTWqNdJoVO_MPZULhcKjHQXSTWbtYcV7T3L_bQzm7OaWJoXOLsUJdxmcNgSlUb64Spoehmh8Ofsd9JTN8noCX9Vz0ORK2QV51xGtJqR_CDja7Ki_ddG9i__sCtO89VITzEQnGTW-7kEUDlCwG6K7TyLmbhZ0inbBKCxAzPsW0DCbsrDTqxNzP7Es4JH_MuyWXKvfDqKFw7pDZaP75qv2T_D2dWF-62O9CEaJzCuRO_Zv9WTNKz6uAcN5HtRqWSddvgsACViLgm450sLQ8b3QD-EfkDZAFFNHSZrIZgZspQnszbuynDyCw6q9gn_xYVHXGnGjhLsC1kpItmMZGeKMfcvrFKGCilZNin6PDL6r4HwTYmpH70lGxWg_W00]--></g></svg>