<svg xmlns="http://www.w3.org/2000/svg" xmlns:xlink="http://www.w3.org/1999/xlink" contentStyleType="text/css" height="1735px" preserveAspectRatio="none" style="width:677px;height:1735px;background:#FFFFFF;" version="1.1" viewBox="0 0 677 1735" width="677px" zoomAndPan="magnify"><title>Use Case - Systeme SAV Maintenance (CIBLE)</title><defs/><g><text fill="#000000" font-family="sans-serif" font-size="14" font-weight="bold" lengthAdjust="spacing" textLength="309.6543" x="176.6729" y="24.5332">Use Case - Systeme SAV Maintenance (CIBLE)</text><!--cluster ERP/CRM Terrain--><g id="cluster_ERP/CRM Terrain"><rect fill="none" height="1200" rx="2.5" ry="2.5" style="stroke:#181818;stroke-width:1;" width="541" x="130" y="308.1094"/><text fill="#000000" font-family="sans-serif" font-size="14" font-weight="bold" lengthAdjust="spacing" textLength="115.9102" x="342.5449" y="324.6426">ERP/CRM Terrain</text></g><g id="elem_UC1"><ellipse cx="237.6754" cy="645.0128" fill="#F1F1F1" rx="68.1754" ry="27.9034" style="stroke:#181818;stroke-width:0.5;"/><text fill="#000000" font-family="sans-serif" font-size="14" lengthAdjust="spacing" textLength="59.917" x="207.7169" y="639.9366">Consulter</text><text fill="#000000" font-family="sans-serif" font-size="14" lengthAdjust="spacing" textLength="80.1719" x="197.5894" y="657.546">planning jour</text></g><g id="elem_UC2"><ellipse cx="237.2806" cy="554.0128" fill="#F1F1F1" rx="91.2806" ry="27.9034" style="stroke:#181818;stroke-width:0.5;"/><text fill="#000000" font-family="sans-serif" font-size="14" lengthAdjust="spacing" textLength="96.4756" x="189.0428" y="548.9366">Remplir rapport</text><text fill="#000000" font-family="sans-serif" font-size="14" lengthAdjust="spacing" textLength="112.8477" x="180.8568" y="566.546">intervention digital</text></g><g id="elem_UC3"><ellipse cx="237.6617" cy="372.0128" fill="#F1F1F1" rx="73.6617" ry="27.9034" style="stroke:#181818;stroke-width:0.5;"/><text fill="#000000" font-family="sans-serif" font-size="14" lengthAdjust="spacing" textLength="87.9307" x="193.6963" y="366.9366">Generer devis</text><text fill="#000000" font-family="sans-serif" font-size="14" lengthAdjust="spacing" textLength="39.6826" x="217.8203" y="384.546">terrain</text></g><g id="elem_UC4"><ellipse cx="237.5644" cy="463.0128" fill="#F1F1F1" rx="72.5644" ry="27.9034" style="stroke:#181818;stroke-width:0.5;"/><text fill="#000000" font-family="sans-serif" font-size="14" lengthAdjust="spacing" textLength="77.8135" x="198.6577" y="457.9366">Pointer GPS</text><text fill="#000000" font-family="sans-serif" font-size="14" lengthAdjust="spacing" textLength="86.3789" x="194.3749" y="475.546">arrivee/depart</text></g><g id="elem_UC5"><ellipse cx="565.6769" cy="456.0128" fill="#F1F1F1" rx="79.1769" ry="27.9034" style="stroke:#181818;stroke-width:0.5;"/><text fill="#000000" font-family="sans-serif" font-size="14" lengthAdjust="spacing" textLength="95.7305" x="517.8117" y="450.9366">Prendre photos</text><text fill="#000000" font-family="sans-serif" font-size="14" lengthAdjust="spacing" textLength="57.5928" x="536.8806" y="468.546">integrees</text></g><g id="elem_UC6"><ellipse cx="565.4201" cy="551.0128" fill="#F1F1F1" rx="65.4201" ry="27.9034" style="stroke:#181818;stroke-width:0.5;"/><text fill="#000000" font-family="sans-serif" font-size="14" lengthAdjust="spacing" textLength="59.9307" x="535.4548" y="545.9366">Signature</text><text fill="#000000" font-family="sans-serif" font-size="14" lengthAdjust="spacing" textLength="76.2754" x="527.2824" y="563.546">electronique</text></g><g id="elem_UC7"><ellipse cx="237.6146" cy="1009.0128" fill="#F1F1F1" rx="67.6146" ry="27.9034" style="stroke:#181818;stroke-width:0.5;"/><text fill="#000000" font-family="sans-serif" font-size="14" lengthAdjust="spacing" textLength="50.5791" x="212.3251" y="1003.9366">Planifier</text><text fill="#000000" font-family="sans-serif" font-size="14" lengthAdjust="spacing" textLength="79.3789" x="197.9252" y="1021.546">interventions</text></g><g id="elem_UC8"><ellipse cx="237.4056" cy="736.0128" fill="#F1F1F1" rx="65.4056" ry="27.9034" style="stroke:#181818;stroke-width:0.5;"/><text fill="#000000" font-family="sans-serif" font-size="14" lengthAdjust="spacing" textLength="70.0342" x="202.3885" y="730.9366">Gerer base</text><text fill="#000000" font-family="sans-serif" font-size="14" lengthAdjust="spacing" textLength="76.2549" x="199.2782" y="748.546">clients (300)</text></g><g id="elem_UC9"><ellipse cx="237.4518" cy="827.0128" fill="#F1F1F1" rx="65.9518" ry="27.9034" style="stroke:#181818;stroke-width:0.5;"/><text fill="#000000" font-family="sans-serif" font-size="14" lengthAdjust="spacing" textLength="77.0273" x="198.9382" y="821.9366">Valider RDV</text><text fill="#000000" font-family="sans-serif" font-size="14" lengthAdjust="spacing" textLength="38.1309" x="218.3864" y="839.546">portail</text></g><g id="elem_UC10"><ellipse cx="237.2533" cy="918.0128" fill="#F1F1F1" rx="69.2533" ry="27.9034" style="stroke:#181818;stroke-width:0.5;"/><text fill="#000000" font-family="sans-serif" font-size="14" lengthAdjust="spacing" textLength="81.6963" x="196.4051" y="912.9366">Gerer alertes</text><text fill="#000000" font-family="sans-serif" font-size="14" lengthAdjust="spacing" textLength="61.4756" x="206.5155" y="930.546">fin contrat</text></g><g id="elem_UC11"><ellipse cx="237.3554" cy="1282.0128" fill="#F1F1F1" rx="70.3554" ry="27.9034" style="stroke:#181818;stroke-width:0.5;"/><text fill="#000000" font-family="sans-serif" font-size="14" lengthAdjust="spacing" textLength="83.2549" x="195.7279" y="1276.9366">Prendre RDV</text><text fill="#000000" font-family="sans-serif" font-size="14" lengthAdjust="spacing" textLength="80.1787" x="197.266" y="1294.546">en ligne 24/7</text></g><g id="elem_UC12"><ellipse cx="237.2637" cy="1100.0128" fill="#F1F1F1" rx="74.7637" ry="27.9034" style="stroke:#181818;stroke-width:0.5;"/><text fill="#000000" font-family="sans-serif" font-size="14" lengthAdjust="spacing" textLength="89.4893" x="192.5191" y="1094.9366">Voir historique</text><text fill="#000000" font-family="sans-serif" font-size="14" lengthAdjust="spacing" textLength="79.3789" x="197.5743" y="1112.546">interventions</text></g><g id="elem_UC13"><ellipse cx="237.3505" cy="1191.0128" fill="#F1F1F1" rx="70.3505" ry="27.9034" style="stroke:#181818;stroke-width:0.5;"/><text fill="#000000" font-family="sans-serif" font-size="14" lengthAdjust="spacing" textLength="74.7031" x="199.999" y="1185.9366">Telecharger</text><text fill="#000000" font-family="sans-serif" font-size="14" lengthAdjust="spacing" textLength="83.248" x="195.7265" y="1203.546">rapports PDF</text></g><g id="elem_UC14"><ellipse cx="565.6139" cy="1149.0128" fill="#F1F1F1" rx="62.1139" ry="27.9034" style="stroke:#181818;stroke-width:0.5;"/><text fill="#000000" font-family="sans-serif" font-size="14" lengthAdjust="spacing" textLength="71.5996" x="529.814" y="1143.9366">Renouveler</text><text fill="#000000" font-family="sans-serif" font-size="14" lengthAdjust="spacing" textLength="42.7998" x="544.2139" y="1161.546">contrat</text></g><g id="elem_UC15"><ellipse cx="237.4273" cy="1464.0128" fill="#F1F1F1" rx="81.9273" ry="27.9034" style="stroke:#181818;stroke-width:0.5;"/><text fill="#000000" font-family="sans-serif" font-size="14" lengthAdjust="spacing" textLength="59.917" x="207.4688" y="1458.9366">Consulter</text><text fill="#000000" font-family="sans-serif" font-size="14" lengthAdjust="spacing" textLength="99.6201" x="187.6173" y="1476.546">dashboards KPI</text></g><g id="elem_UC16"><ellipse cx="237.5069" cy="1373.0128" fill="#F1F1F1" rx="61.0069" ry="27.9034" style="stroke:#181818;stroke-width:0.5;"/><text fill="#000000" font-family="sans-serif" font-size="14" lengthAdjust="spacing" textLength="54.4688" x="210.2725" y="1367.9366">Analyser</text><text fill="#000000" font-family="sans-serif" font-size="14" lengthAdjust="spacing" textLength="70.0342" x="202.4898" y="1385.546">satisfaction</text></g><g id="elem_UC17"><ellipse cx="565.6227" cy="1464.0128" fill="#F1F1F1" rx="89.6227" ry="27.9034" style="stroke:#181818;stroke-width:0.5;"/><text fill="#000000" font-family="sans-serif" font-size="14" lengthAdjust="spacing" textLength="59.8965" x="535.6744" y="1458.9366">Optimiser</text><text fill="#000000" font-family="sans-serif" font-size="14" lengthAdjust="spacing" textLength="110.5029" x="510.3712" y="1476.546">tournees (Zoning)</text></g><!--entity Tech--><g id="elem_Tech"><ellipse cx="44.5137" cy="379.1094" fill="#F1F1F1" rx="8" ry="8" style="stroke:#181818;stroke-width:0.5;"/><path d="M44.5137,387.1094 L44.5137,414.1094 M31.5137,395.1094 L57.5137,395.1094 M44.5137,414.1094 L31.5137,429.1094 M44.5137,414.1094 L57.5137,429.1094 " fill="none" style="stroke:#181818;stroke-width:0.5;"/><text fill="#000000" font-family="sans-serif" font-size="14" lengthAdjust="spacing" textLength="45.9238" x="6" y="445.1426">Gaetan</text><text fill="#000000" font-family="sans-serif" font-size="14" lengthAdjust="spacing" textLength="77.0273" x="6" y="462.752">(Technicien)</text></g><!--entity Clo--><g id="elem_Clo"><ellipse cx="44.4067" cy="833.1094" fill="#F1F1F1" rx="8" ry="8" style="stroke:#181818;stroke-width:0.5;"/><path d="M44.4067,841.1094 L44.4067,868.1094 M31.4067,849.1094 L57.4067,849.1094 M44.4067,868.1094 L31.4067,883.1094 M44.4067,868.1094 L57.4067,883.1094 " fill="none" style="stroke:#181818;stroke-width:0.5;"/><text fill="#000000" font-family="sans-serif" font-size="14" lengthAdjust="spacing" textLength="54.4756" x="12.5" y="899.1426">Clothilde</text><text fill="#000000" font-family="sans-serif" font-size="14" lengthAdjust="spacing" textLength="63.8135" x="12.5" y="916.752">(Planning)</text></g><!--entity Client--><g id="elem_Client"><ellipse cx="44.3965" cy="1205.6094" fill="#F1F1F1" rx="8" ry="8" style="stroke:#181818;stroke-width:0.5;"/><path d="M44.3965,1213.6094 L44.3965,1240.6094 M31.3965,1221.6094 L57.3965,1221.6094 M44.3965,1240.6094 L31.3965,1255.6094 M44.3965,1240.6094 L57.3965,1255.6094 " fill="none" style="stroke:#181818;stroke-width:0.5;"/><text fill="#000000" font-family="sans-serif" font-size="14" lengthAdjust="spacing" textLength="35.793" x="26.5" y="1271.6426">Client</text></g><!--entity Dir--><g id="elem_Dir"><ellipse cx="44.6206" cy="1544.6094" fill="#F1F1F1" rx="8" ry="8" style="stroke:#181818;stroke-width:0.5;"/><path d="M44.6206,1552.6094 L44.6206,1579.6094 M31.6206,1560.6094 L57.6206,1560.6094 M44.6206,1579.6094 L31.6206,1594.6094 M44.6206,1579.6094 L57.6206,1594.6094 " fill="none" style="stroke:#181818;stroke-width:0.5;"/><text fill="#000000" font-family="sans-serif" font-size="14" lengthAdjust="spacing" textLength="55.2412" x="17" y="1610.6426">Direction</text></g><g id="elem_GMN45"><path d="M493,44.6094 L493,103.6641 L638.2744,103.6641 L638.2744,54.6094 L628.2744,44.6094 L493,44.6094 " fill="#FEFFDD" style="stroke:#181818;stroke-width:0.5;"/><path d="M628.2744,44.6094 L628.2744,54.6094 L638.2744,54.6094 L628.2744,44.6094 " fill="#FEFFDD" style="stroke:#181818;stroke-width:1;"/><text fill="#000000" font-family="sans-serif" font-size="13" font-weight="bold" lengthAdjust="spacing" textLength="65.0063" x="499" y="63.1045">NOUVEAU</text><text fill="#000000" font-family="sans-serif" font-size="13" lengthAdjust="spacing" textLength="55.6563" x="567.6182" y="63.1045">: 45K&#8364;/an</text><text fill="#000000" font-family="sans-serif" font-size="13" lengthAdjust="spacing" textLength="106.9517" x="499" y="79.4561">50 devis terrain/an</text><text fill="#000000" font-family="sans-serif" font-size="13" lengthAdjust="spacing" textLength="101.1626" x="499" y="95.8076">vs 0 actuellement</text></g><g id="elem_GMN48"><path d="M493,138.6094 L493,197.6641 L638.2744,197.6641 L638.2744,148.6094 L628.2744,138.6094 L493,138.6094 " fill="#FEFFDD" style="stroke:#181818;stroke-width:0.5;"/><path d="M628.2744,138.6094 L628.2744,148.6094 L638.2744,148.6094 L628.2744,138.6094 " fill="#FEFFDD" style="stroke:#181818;stroke-width:1;"/><text fill="#000000" font-family="sans-serif" font-size="13" font-weight="bold" lengthAdjust="spacing" textLength="65.0063" x="499" y="157.1045">NOUVEAU</text><text fill="#000000" font-family="sans-serif" font-size="13" lengthAdjust="spacing" textLength="55.6563" x="567.6182" y="157.1045">: 30K&#8364;/an</text><text fill="#000000" font-family="sans-serif" font-size="13" lengthAdjust="spacing" textLength="120.6816" x="499" y="173.4561">Refacturation heures</text><text fill="#000000" font-family="sans-serif" font-size="13" lengthAdjust="spacing" textLength="95.3862" x="499" y="189.8076">supplementaires</text></g><g id="elem_GMN51"><path d="M488,232.6094 L488,291.6641 L643.418,291.6641 L643.418,242.6094 L633.418,232.6094 L488,232.6094 " fill="#FEFFDD" style="stroke:#181818;stroke-width:0.5;"/><path d="M633.418,232.6094 L633.418,242.6094 L643.418,242.6094 L633.418,232.6094 " fill="#FEFFDD" style="stroke:#181818;stroke-width:1;"/><text fill="#000000" font-family="sans-serif" font-size="13" font-weight="bold" lengthAdjust="spacing" textLength="65.0063" x="494" y="251.1045">NOUVEAU</text><text fill="#000000" font-family="sans-serif" font-size="13" lengthAdjust="spacing" textLength="55.6563" x="562.6182" y="251.1045">: 35K&#8364;/an</text><text fill="#000000" font-family="sans-serif" font-size="13" lengthAdjust="spacing" textLength="134.418" x="494" y="267.4561">Reduction appels -40%</text><text fill="#000000" font-family="sans-serif" font-size="13" lengthAdjust="spacing" textLength="99.0044" x="494" y="283.8076">Disponibilite 24/7</text></g><g id="elem_GMN54"><path d="M164,1669.6094 L164,1728.6641 L311.4517,1728.6641 L311.4517,1679.6094 L301.4517,1669.6094 L164,1669.6094 " fill="#FEFFDD" style="stroke:#181818;stroke-width:0.5;"/><path d="M301.4517,1669.6094 L301.4517,1679.6094 L311.4517,1679.6094 L301.4517,1669.6094 " fill="#FEFFDD" style="stroke:#181818;stroke-width:1;"/><text fill="#000000" font-family="sans-serif" font-size="13" font-weight="bold" lengthAdjust="spacing" textLength="55.6309" x="170" y="1688.1045">PHASE 3</text><text fill="#000000" font-family="sans-serif" font-size="13" lengthAdjust="spacing" textLength="55.6563" x="229.2427" y="1688.1045">: 15K&#8364;/an</text><text fill="#000000" font-family="sans-serif" font-size="13" lengthAdjust="spacing" textLength="126.4517" x="170" y="1704.4561">Optimisation tournees</text><text fill="#000000" font-family="sans-serif" font-size="13" lengthAdjust="spacing" textLength="112.709" x="170" y="1720.8076">-20% km parcourus</text></g><!--link Tech to UC1--><g id="link_Tech_UC1"><path d="M54.9,465.8594 C65.11,506.1494 85.13,562.8894 122,599.1094 C137.28,614.1194 152.4448,622.4246 172.1348,629.4046 " fill="none" id="Tech-to-UC1" style="stroke:#181818;stroke-width:1;"/><polygon fill="#181818" points="177.79,631.4094,170.6437,624.6322,173.0774,629.7388,167.9707,632.1724,177.79,631.4094" style="stroke:#181818;stroke-width:1;"/></g><!--link Tech to UC2--><g id="link_Tech_UC2"><path d="M78.69,465.6794 C90.97,480.7494 105.86,496.4894 122,508.1094 C136.95,518.8794 149.21,525.3688 166.29,532.2088 " fill="none" id="Tech-to-UC2" style="stroke:#181818;stroke-width:1;"/><polygon fill="#181818" points="171.86,534.4394,164.9921,527.3802,167.2184,532.5805,162.018,534.8068,171.86,534.4394" style="stroke:#181818;stroke-width:1;"/></g><!--link Tech to UC3--><g id="link_Tech_UC3"><path d="M83.24,409.0194 C109.33,402.7394 138.7967,395.634 168.9467,388.374 " fill="none" id="Tech-to-UC3" style="stroke:#181818;stroke-width:1;"/><polygon fill="#181818" points="174.78,386.9694,165.0937,385.1875,169.9189,388.1399,166.9665,392.9652,174.78,386.9694" style="stroke:#181818;stroke-width:1;"/></g><!--link Tech to UC4--><g id="link_Tech_UC4"><path d="M83.24,426.9994 C109.44,433.1694 139.0898,440.1638 169.3198,447.2838 " fill="none" id="Tech-to-UC4" style="stroke:#181818;stroke-width:1;"/><polygon fill="#181818" points="175.16,448.6594,167.3167,442.7026,170.2932,447.5131,165.4827,450.4895,175.16,448.6594" style="stroke:#181818;stroke-width:1;"/></g><!--link Tech to UC5--><g id="link_Tech_UC5"><path d="M52.51,370.4594 C60.53,334.7694 77.49,288.2594 113,265.1094 C236.99,184.2894 316.67,193.1494 446,265.1094 C450.15,267.4194 513.2966,371.3343 544.8866,423.6043 " fill="none" id="Tech-to-UC5" style="stroke:#181818;stroke-width:1;"/><polygon fill="#181818" points="547.99,428.7394,546.7582,418.9678,545.4038,424.4602,539.9115,423.1058,547.99,428.7394" style="stroke:#181818;stroke-width:1;"/></g><!--link Tech to UC6--><g id="link_Tech_UC6"><path d="M72.63,370.4794 C85.21,353.1694 101.88,335.5494 122,326.1094 C205.29,287.0394 245.61,287.2494 329,326.1094 C375.04,347.5594 436.93,468.6594 476,501.1094 C489.44,512.2694 500.4448,519.4207 515.3548,527.5007 " fill="none" id="Tech-to-UC6" style="stroke:#181818;stroke-width:1;"/><polygon fill="#181818" points="520.63,530.3594,514.623,522.5545,516.234,527.9771,510.8114,529.5881,520.63,530.3594" style="stroke:#181818;stroke-width:1;"/></g><!--link Clo to UC7--><g id="link_Clo_UC7"><path d="M76.73,917.8794 C89.34,933.8094 104.95,950.7594 122,963.1094 C139.78,975.9894 156.0471,983.8628 175.9171,991.1528 " fill="none" id="Clo-to-UC7" style="stroke:#181818;stroke-width:1;"/><polygon fill="#181818" points="181.55,993.2194,174.4784,986.3642,176.8559,991.4972,171.723,993.8747,181.55,993.2194" style="stroke:#181818;stroke-width:1;"/></g><!--link Clo to UC8--><g id="link_Clo_UC8"><path d="M76.68,826.2694 C89.29,810.3394 104.9,793.3994 122,781.1094 C139.95,768.2094 156.4469,760.3899 176.4669,753.2699 " fill="none" id="Clo-to-UC8" style="stroke:#181818;stroke-width:1;"/><polygon fill="#181818" points="182.12,751.2594,172.3,750.5064,177.4091,752.9348,174.9806,758.0439,182.12,751.2594" style="stroke:#181818;stroke-width:1;"/></g><!--link Clo to UC9--><g id="link_Clo_UC9"><path d="M76.61,864.7794 C104.41,858.2294 139.9997,849.8446 173.7197,841.9046 " fill="none" id="Clo-to-UC9" style="stroke:#181818;stroke-width:1;"/><polygon fill="#181818" points="179.56,840.5294,169.8828,838.6987,174.6931,841.6754,171.7164,846.4857,179.56,840.5294" style="stroke:#181818;stroke-width:1;"/></g><!--link Clo to UC10--><g id="link_Clo_UC10"><path d="M76.61,879.5994 C103.78,886.1494 138.127,894.4137 171.407,902.4337 " fill="none" id="Clo-to-UC10" style="stroke:#181818;stroke-width:1;"/><polygon fill="#181818" points="177.24,903.8394,169.4276,897.8422,172.3792,902.668,167.5534,905.6195,177.24,903.8394" style="stroke:#181818;stroke-width:1;"/></g><!--link Client to UC11--><g id="link_Client_UC11"><path d="M62.79,1240.2694 C88.32,1246.4194 131.4965,1256.8257 170.9765,1266.3257 " fill="none" id="Client-to-UC11" style="stroke:#181818;stroke-width:1;"/><polygon fill="#181818" points="176.81,1267.7294,168.9956,1261.7348,171.9488,1266.5596,167.124,1269.5128,176.81,1267.7294" style="stroke:#181818;stroke-width:1;"/></g><!--link Client to UC12--><g id="link_Client_UC12"><path d="M62.76,1209.0594 C76.68,1189.0794 97.86,1162.4494 122,1145.1094 C138.56,1133.2094 153.075,1126.0074 171.825,1119.0474 " fill="none" id="Client-to-UC12" style="stroke:#181818;stroke-width:1;"/><polygon fill="#181818" points="177.45,1116.9594,167.6206,1116.3414,172.7625,1118.6994,170.4045,1123.8413,177.45,1116.9594" style="stroke:#181818;stroke-width:1;"/></g><!--link Client to UC13--><g id="link_Client_UC13"><path d="M62.79,1232.0394 C88.22,1226.0394 131.1401,1215.9363 170.5401,1206.6463 " fill="none" id="Client-to-UC13" style="stroke:#181818;stroke-width:1;"/><polygon fill="#181818" points="176.38,1205.2694,166.7022,1203.4416,171.5134,1206.4168,168.5382,1211.2281,176.38,1205.2694" style="stroke:#181818;stroke-width:1;"/></g><!--link Client to UC14--><g id="link_Client_UC14"><path d="M50.66,1275.2894 C60.59,1343.7994 84.69,1480.8194 122,1509.1094 C195.31,1564.6994 248.08,1552.8694 329,1509.1094 C464.17,1436.0094 532.3845,1253.5944 554.6645,1182.5544 " fill="none" id="Client-to-UC14" style="stroke:#181818;stroke-width:1;"/><polygon fill="#181818" points="556.46,1176.8294,549.95,1184.2199,554.9637,1181.6002,557.5834,1186.614,556.46,1176.8294" style="stroke:#181818;stroke-width:1;"/></g><!--link Dir to UC15--><g id="link_Dir_UC15"><path d="M72.3,1568.6394 C85.28,1564.9694 100.86,1559.7794 114,1553.1094 C147.99,1535.8594 178.1441,1513.4084 201.9141,1493.8784 " fill="none" id="Dir-to-UC15" style="stroke:#181818;stroke-width:1;"/><polygon fill="#181818" points="206.55,1490.0694,197.0568,1492.6922,202.6867,1493.2435,202.1354,1498.8734,206.55,1490.0694" style="stroke:#181818;stroke-width:1;"/></g><!--link Dir to UC16--><g id="link_Dir_UC16"><path d="M55.71,1535.9694 C66.72,1500.8294 87.48,1449.9994 122,1418.1094 C138.79,1402.5994 155.8408,1394.0654 176.6508,1387.2154 " fill="none" id="Dir-to-UC16" style="stroke:#181818;stroke-width:1;"/><polygon fill="#181818" points="182.35,1385.3394,172.5506,1384.3539,177.6007,1386.9027,175.0519,1391.9528,182.35,1385.3394" style="stroke:#181818;stroke-width:1;"/></g><!--link Dir to UC17--><g id="link_Dir_UC17"><path d="M72.06,1575.8494 C122.71,1576.6794 236.3,1575.7994 329,1555.1094 C396.16,1540.1194 464.0743,1511.8082 510.7743,1490.2082 " fill="none" id="Dir-to-UC17" style="stroke:#181818;stroke-width:1;"/><polygon fill="#181818" points="516.22,1487.6894,506.3722,1487.8371,511.6819,1489.7884,509.7306,1495.098,516.22,1487.6894" style="stroke:#181818;stroke-width:1;"/></g><!--link UC2 to UC5--><g id="link_UC2_UC5"><path d="M303.3,534.6294 C361.97,516.9894 441.974,492.9467 499.024,475.7967 " fill="none" id="UC2-to-UC5" style="stroke:#181818;stroke-width:1;stroke-dasharray:7.0,7.0;"/><polygon fill="#181818" points="504.77,474.0694,494.9995,472.8297,499.9817,475.5088,497.3026,480.491,504.77,474.0694" style="stroke:#181818;stroke-width:1;"/><text fill="#000000" font-family="sans-serif" font-size="13" lengthAdjust="spacing" textLength="55.6563" x="375" y="490.6045">&#171;include&#187;</text></g><!--link UC2 to UC6--><g id="link_UC2_UC6"><path d="M329.31,553.2694 C383.57,552.7794 445.2003,552.2047 494.0003,551.7547 " fill="none" id="UC2-to-UC6" style="stroke:#181818;stroke-width:1;stroke-dasharray:7.0,7.0;"/><polygon fill="#181818" points="500,551.6994,490.9635,547.7825,495.0002,551.7455,491.0373,555.7822,500,551.6994" style="stroke:#181818;stroke-width:1;"/><text fill="#000000" font-family="sans-serif" font-size="13" lengthAdjust="spacing" textLength="55.6563" x="375" y="549.6045">&#171;include&#187;</text></g><!--link UC7 to UC17--><g id="link_UC7_UC17"><path d="M288.81,1027.6794 C302.91,1034.5094 317.5,1043.2794 329,1054.1094 C392.12,1113.5494 508.8181,1348.6777 548.5981,1430.9477 " fill="none" id="UC7-to-UC17" style="stroke:#181818;stroke-width:1;stroke-dasharray:7.0,7.0;"/><polygon fill="#181818" points="551.21,1436.3494,550.8933,1426.5056,549.0334,1431.848,543.6911,1429.9881,551.21,1436.3494" style="stroke:#181818;stroke-width:1;"/><text fill="#000000" font-family="sans-serif" font-size="13" lengthAdjust="spacing" textLength="53.4917" x="375.885" y="1071.6045">&#171;extend&#187;</text><text fill="#000000" font-family="sans-serif" font-size="13" lengthAdjust="spacing" textLength="85.2617" x="360" y="1087.9561">optimisation IA</text></g><!--link UC10 to UC14--><g id="link_UC10_UC14"><path d="M284.62,938.7594 C299.17,945.8694 315.07,954.2794 329,963.1094 C409.09,1013.8794 489.8389,1082.4907 532.4289,1120.2207 " fill="none" id="UC10-to-UC14" style="stroke:#181818;stroke-width:1;stroke-dasharray:7.0,7.0;"/><polygon fill="#181818" points="536.92,1124.1994,532.8357,1115.2373,533.1774,1120.8838,527.5309,1121.2255,536.92,1124.1994" style="stroke:#181818;stroke-width:1;"/><text fill="#000000" font-family="sans-serif" font-size="13" lengthAdjust="spacing" textLength="51.3081" x="377.3123" y="966.6045">&#171;trigger&#187;</text><text fill="#000000" font-family="sans-serif" font-size="13" lengthAdjust="spacing" textLength="67.9326" x="369" y="982.9561">alertes auto</text></g><!--link UC3 to GMN45--><g id="link_UC3_GMN45"><path d="M259.02,345.1994 C297.49,296.0694 384.82,190.5094 476,121.1094 C484.17,114.8894 493.27,109.0494 502.45,103.7294 " fill="none" id="UC3-GMN45" style="stroke:#181818;stroke-width:1;stroke-dasharray:7.0,7.0;"/></g><!--link UC4 to GMN48--><g id="link_UC4_GMN48"><path d="M284.4,441.5894 C298.94,434.2994 314.89,425.7894 329,417.1094 C343.08,408.4494 344.91,403.7594 359,395.1094 C395.93,372.4394 419.44,385.3494 446,351.1094 C483.94,302.2094 438.55,264.3894 476,215.1094 C480.95,208.5994 487.06,202.8994 493.75,197.9194 " fill="none" id="UC4-GMN48" style="stroke:#181818;stroke-width:1;stroke-dasharray:7.0,7.0;"/></g><!--link UC11 to GMN51--><g id="link_UC11_GMN51"><path d="M293.93,1265.3194 C307.63,1258.4694 320.73,1249.0194 329,1236.1094 C375.07,1164.1994 322.17,545.1594 359,468.1094 C381.14,421.7894 415.11,433.1194 446,392.1094 C464.9,367.0194 456.15,352.4494 476,328.1094 C487.14,314.4494 501.71,302.0794 515.8,291.8394 " fill="none" id="UC11-GMN51" style="stroke:#181818;stroke-width:1;stroke-dasharray:7.0,7.0;"/></g><!--link GMN54 to UC17--><g id="link_GMN54_UC17"><path d="M311.21,1691.9494 C353.74,1684.8094 406.64,1670.5594 446,1642.1094 C499.86,1603.1894 536.34,1531.6694 553.41,1492.1694 " fill="none" id="GMN54-UC17" style="stroke:#181818;stroke-width:1;stroke-dasharray:7.0,7.0;"/></g><!--SRC=[TLNDJXin4BxxAKQHa00fPFD7eAeYfO5IH2bHGdAeSZ6xayIjiRUsDoggUkdpzAdw91rxTuKJu1Bjp7oUyNp-PkA4amXpYp3czDE4sPDr-8Wm6otWbWlbK76L8XoEhpzylZnYJEBAWTDWn7hZ81C6KoUqOeodJXjeN75qN2tLuJsc6oLIWUge0To2jslGM6gt4J93maqaLqgeTOcYo3E8phhAwp_hm4LTDCJ8Oimxk5fJButBwQGrdjvIFMEeWGRyOW25nTGts1XhPGlfq2nLNXM6Rxem8TLyt8wnKtpCfJ1WU9vhuvRAqs6sT1EgJQslXUEoEjY93rwXGeC6CjmAk_I7ofi4P3T6JdJ82LUJsL9nOyGMiPLXpeshuBqTk46L6OHyevssvONM1j5Mu7uCdecrugumH39AuiTe9NuKM45FsKvYuaAiXASbRhBEEzZjplVsGDzBbOQ7iN3OJPAZ2dmMWnTSYepWqui5CKuiSb5JTluoAPTe759ZAw4WrSePNlFGJjXhJ8Iyg41IimYTNcjGutUUSg7f7JV2aduy1wztsTvvn7jFseQRjIUbae25oSN76jtTrOhInPQE47ZluZtsXW0pRZSFcflCmitakeRllE58SVbaFTXo9-oAF-kUeASnz2vtub44h2D1Ar8577xLpwD51mRiDsD-4A7P70QvHqOdDhgnqOkDVcoGYcXYAsCGVPz5t-VHjt_6SffhHtlFxkpPtJsRwAIHhwr-R9p6ne0nwWbEJiAbuHsyVoz8hqM6ms4KETsBK6XGXTg34CEVj0IpuN2fT4an3_D_FVBOTbA3Um7iQ2-IOZow4ZFmmcd6b7POBKszgjR0yV6Nk_dYSZG_FgR3lVxDlpz_MrnHf9-KomEgtL5wjnOI80aKA2KjQTg8T37mcL_cxxt8tqsUyq_HIwamPIiRf2rXoMsBF2ypS-4zRwSFuxMNln_dpueWLQ31GMcXsKiEo7yXR4wIV11Ik79Szsk4_vUon22Kc7mQpIwX6qgqen9tyMFKYYT_ivCSmFT7e1sQahU8klWF]--></g></svg>