<svg xmlns="http://www.w3.org/2000/svg" xmlns:xlink="http://www.w3.org/1999/xlink" contentStyleType="text/css" height="963px" preserveAspectRatio="none" style="width:1118px;height:963px;background:#FFFFFF;" version="1.1" viewBox="0 0 1118 963" width="1118px" zoomAndPan="magnify"><title>Pain Points Service Client - 748K&#226;&#8218;&#172;/an</title><defs/><g><text fill="#000000" font-family="sans-serif" font-size="14" font-weight="bold" lengthAdjust="spacing" textLength="258.7129" x="428.2446" y="34.5332">Pain Points Service Client - 748K&#226;&#8218;&#172;/an</text><rect fill="#F1F1F1" height="55.2188" rx="12.5" ry="12.5" style="stroke:#181818;stroke-width:1.5;" width="165.4756" x="499.9658" y="472.3125"/><text fill="#000000" font-family="sans-serif" font-size="14" lengthAdjust="spacing" textLength="145.4756" x="509.9658" y="496.8457">&#240;&#376;&#8221;&#180; SERVICE CLIENT</text><text fill="#000000" font-family="sans-serif" font-size="14" font-weight="bold" lengthAdjust="spacing" textLength="73.5479" x="509.9658" y="514.4551">748K&#226;&#8218;&#172;/an</text><rect fill="#F1F1F1" height="55.2188" rx="12.5" ry="12.5" style="stroke:#181818;stroke-width:1.5;" width="102.4824" x="715.4414" y="171.4375"/><text fill="#000000" font-family="sans-serif" font-size="14" lengthAdjust="spacing" textLength="82.4824" x="725.4414" y="195.9707">Temps perdu</text><text fill="#000000" font-family="sans-serif" font-size="14" font-weight="bold" lengthAdjust="spacing" textLength="73.5479" x="725.4414" y="213.5801">154K&#226;&#8218;&#172;/an</text><rect fill="#F1F1F1" height="55.2188" rx="12.5" ry="12.5" style="stroke:#181818;stroke-width:1.5;" width="128.917" x="867.9238" y="58.6094"/><text fill="#000000" font-family="sans-serif" font-size="14" lengthAdjust="spacing" textLength="108.917" x="877.9238" y="83.1426">Prise RDV (10h/j)</text><text fill="#000000" font-family="sans-serif" font-size="14" lengthAdjust="spacing" textLength="71.2305" x="877.9238" y="100.752">110K&#226;&#8218;&#172;/an</text><path d="M817.9238,199.0469 L827.9238,199.0469 C842.9238,199.0469 842.9238,86.2188 857.9238,86.2188 L867.9238,86.2188 " fill="none" style="stroke:#181818;stroke-width:1;"/><rect fill="#F1F1F1" height="55.2188" rx="12.5" ry="12.5" style="stroke:#181818;stroke-width:1.5;" width="114.165" x="867.9238" y="133.8281"/><text fill="#000000" font-family="sans-serif" font-size="14" lengthAdjust="spacing" textLength="94.165" x="877.9238" y="158.3613">Recherche info</text><text fill="#000000" font-family="sans-serif" font-size="14" lengthAdjust="spacing" textLength="67.334" x="877.9238" y="175.9707">5.5K&#226;&#8218;&#172;/an</text><path d="M817.9238,199.0469 L827.9238,199.0469 C842.9238,199.0469 842.9238,161.4375 857.9238,161.4375 L867.9238,161.4375 " fill="none" style="stroke:#181818;stroke-width:1;"/><rect fill="#F1F1F1" height="55.2188" rx="12.5" ry="12.5" style="stroke:#181818;stroke-width:1.5;" width="104.0479" x="867.9238" y="209.0469"/><text fill="#000000" font-family="sans-serif" font-size="14" lengthAdjust="spacing" textLength="84.0479" x="877.9238" y="233.5801">Double saisie</text><text fill="#000000" font-family="sans-serif" font-size="14" lengthAdjust="spacing" textLength="67.334" x="877.9238" y="251.1895">7.9K&#226;&#8218;&#172;/an</text><path d="M817.9238,199.0469 L827.9238,199.0469 C842.9238,199.0469 842.9238,236.6563 857.9238,236.6563 L867.9238,236.6563 " fill="none" style="stroke:#181818;stroke-width:1;"/><rect fill="#F1F1F1" height="55.2188" rx="12.5" ry="12.5" style="stroke:#181818;stroke-width:1.5;" width="146.0684" x="867.9238" y="284.2656"/><text fill="#000000" font-family="sans-serif" font-size="14" lengthAdjust="spacing" textLength="126.0684" x="877.9238" y="308.7988">Relances manuelles</text><text fill="#000000" font-family="sans-serif" font-size="14" lengthAdjust="spacing" textLength="63.4443" x="877.9238" y="326.4082">30K&#226;&#8218;&#172;/an</text><path d="M817.9238,199.0469 L827.9238,199.0469 C842.9238,199.0469 842.9238,311.875 857.9238,311.875 L867.9238,311.875 " fill="none" style="stroke:#181818;stroke-width:1;"/><path d="M665.4414,499.9219 L675.4414,499.9219 C690.4414,499.9219 690.4414,199.0469 705.4414,199.0469 L715.4414,199.0469 " fill="none" style="stroke:#181818;stroke-width:1;"/><rect fill="#F1F1F1" height="55.2188" rx="12.5" ry="12.5" style="stroke:#181818;stroke-width:1.5;" width="166.5078" x="715.4414" y="509.9219"/><text fill="#000000" font-family="sans-serif" font-size="14" lengthAdjust="spacing" textLength="146.5078" x="725.4414" y="534.4551">Opportunit&#195;&#169;s perdues</text><text fill="#000000" font-family="sans-serif" font-size="14" font-weight="bold" lengthAdjust="spacing" textLength="73.5479" x="725.4414" y="552.0645">294K&#226;&#8218;&#172;/an</text><rect fill="#F1F1F1" height="55.2188" rx="12.5" ry="12.5" style="stroke:#181818;stroke-width:1.5;" width="161.6338" x="931.9492" y="359.4844"/><text fill="#000000" font-family="sans-serif" font-size="14" lengthAdjust="spacing" textLength="141.6338" x="941.9492" y="384.0176">Demandes techniciens</text><text fill="#000000" font-family="sans-serif" font-size="14" lengthAdjust="spacing" textLength="75.1201" x="941.9492" y="401.627">93.6K&#226;&#8218;&#172;/an</text><path d="M881.9492,537.5313 L891.9492,537.5313 C906.9492,537.5313 906.9492,387.0938 921.9492,387.0938 L931.9492,387.0938 " fill="none" style="stroke:#181818;stroke-width:1;"/><rect fill="#F1F1F1" height="55.2188" rx="12.5" ry="12.5" style="stroke:#181818;stroke-width:1.5;" width="94.6963" x="931.9492" y="434.7031"/><text fill="#000000" font-family="sans-serif" font-size="14" lengthAdjust="spacing" textLength="74.6963" x="941.9492" y="459.2363">Clients SAV</text><text fill="#000000" font-family="sans-serif" font-size="14" lengthAdjust="spacing" textLength="71.2305" x="941.9492" y="476.8457">100K&#226;&#8218;&#172;/an</text><path d="M881.9492,537.5313 L891.9492,537.5313 C906.9492,537.5313 906.9492,462.3125 921.9492,462.3125 L931.9492,462.3125 " fill="none" style="stroke:#181818;stroke-width:1;"/><rect fill="#F1F1F1" height="55.2188" rx="12.5" ry="12.5" style="stroke:#181818;stroke-width:1.5;" width="98.5791" x="931.9492" y="509.9219"/><text fill="#000000" font-family="sans-serif" font-size="14" lengthAdjust="spacing" textLength="78.5791" x="941.9492" y="534.4551">Devis terrain</text><text fill="#000000" font-family="sans-serif" font-size="14" lengthAdjust="spacing" textLength="63.4443" x="941.9492" y="552.0645">45K&#226;&#8218;&#172;/an</text><path d="M881.9492,537.5313 L891.9492,537.5313 C906.9492,537.5313 906.9492,537.5313 921.9492,537.5313 L931.9492,537.5313 " fill="none" style="stroke:#181818;stroke-width:1;"/><rect fill="#F1F1F1" height="55.2188" rx="12.5" ry="12.5" style="stroke:#181818;stroke-width:1.5;" width="149.9648" x="931.9492" y="585.1406"/><text fill="#000000" font-family="sans-serif" font-size="14" lengthAdjust="spacing" textLength="129.9648" x="941.9492" y="609.6738">Refacturation heures</text><text fill="#000000" font-family="sans-serif" font-size="14" lengthAdjust="spacing" textLength="63.4443" x="941.9492" y="627.2832">30K&#226;&#8218;&#172;/an</text><path d="M881.9492,537.5313 L891.9492,537.5313 C906.9492,537.5313 906.9492,612.75 921.9492,612.75 L931.9492,612.75 " fill="none" style="stroke:#181818;stroke-width:1;"/><rect fill="#F1F1F1" height="55.2188" rx="12.5" ry="12.5" style="stroke:#181818;stroke-width:1.5;" width="174.2529" x="931.9492" y="660.3594"/><text fill="#000000" font-family="sans-serif" font-size="14" lengthAdjust="spacing" textLength="154.2529" x="941.9492" y="684.8926">Clients oubli&#195;&#169;s (post-it)</text><text fill="#000000" font-family="sans-serif" font-size="14" lengthAdjust="spacing" textLength="63.4443" x="941.9492" y="702.502">25K&#226;&#8218;&#172;/an</text><path d="M881.9492,537.5313 L891.9492,537.5313 C906.9492,537.5313 906.9492,687.9688 921.9492,687.9688 L931.9492,687.9688 " fill="none" style="stroke:#181818;stroke-width:1;"/><path d="M665.4414,499.9219 L675.4414,499.9219 C690.4414,499.9219 690.4414,537.5313 705.4414,537.5313 L715.4414,537.5313 " fill="none" style="stroke:#181818;stroke-width:1;"/><rect fill="#F1F1F1" height="55.2188" rx="12.5" ry="12.5" style="stroke:#181818;stroke-width:1.5;" width="109.4893" x="715.4414" y="810.7969"/><text fill="#000000" font-family="sans-serif" font-size="14" lengthAdjust="spacing" textLength="89.4893" x="725.4414" y="835.3301">Clients perdus</text><text fill="#000000" font-family="sans-serif" font-size="14" font-weight="bold" lengthAdjust="spacing" textLength="73.5479" x="725.4414" y="852.9395">300K&#226;&#8218;&#172;/an</text><rect fill="#F1F1F1" height="55.2188" rx="12.5" ry="12.5" style="stroke:#181818;stroke-width:1.5;" width="217.8457" x="874.9307" y="735.5781"/><text fill="#000000" font-family="sans-serif" font-size="14" lengthAdjust="spacing" textLength="197.8457" x="884.9307" y="760.1113">Insatisfaction (r&#195;&#169;tention -10%)</text><text fill="#000000" font-family="sans-serif" font-size="14" lengthAdjust="spacing" textLength="71.2305" x="884.9307" y="777.7207">200K&#226;&#8218;&#172;/an</text><path d="M824.9307,838.4063 L834.9307,838.4063 C849.9307,838.4063 849.9307,763.1875 864.9307,763.1875 L874.9307,763.1875 " fill="none" style="stroke:#181818;stroke-width:1;"/><rect fill="#F1F1F1" height="55.2188" rx="12.5" ry="12.5" style="stroke:#181818;stroke-width:1.5;" width="160.2734" x="874.9307" y="810.7969"/><text fill="#000000" font-family="sans-serif" font-size="14" lengthAdjust="spacing" textLength="140.2734" x="884.9307" y="835.3301">D&#195;&#169;lais inacceptables</text><text fill="#000000" font-family="sans-serif" font-size="14" lengthAdjust="spacing" textLength="63.4443" x="884.9307" y="852.9395">50K&#226;&#8218;&#172;/an</text><path d="M824.9307,838.4063 L834.9307,838.4063 C849.9307,838.4063 849.9307,838.4063 864.9307,838.4063 L874.9307,838.4063 " fill="none" style="stroke:#181818;stroke-width:1;"/><rect fill="#F1F1F1" height="55.2188" rx="12.5" ry="12.5" style="stroke:#181818;stroke-width:1.5;" width="83.4443" x="874.9307" y="886.0156"/><text fill="#000000" font-family="sans-serif" font-size="14" lengthAdjust="spacing" textLength="39.6826" x="884.9307" y="910.5488">Oublis</text><text fill="#000000" font-family="sans-serif" font-size="14" lengthAdjust="spacing" textLength="63.4443" x="884.9307" y="928.1582">50K&#226;&#8218;&#172;/an</text><path d="M824.9307,838.4063 L834.9307,838.4063 C849.9307,838.4063 849.9307,913.625 864.9307,913.625 L874.9307,913.625 " fill="none" style="stroke:#181818;stroke-width:1;"/><path d="M665.4414,499.9219 L675.4414,499.9219 C690.4414,499.9219 690.4414,838.4063 705.4414,838.4063 L715.4414,838.4063 " fill="none" style="stroke:#181818;stroke-width:1;"/><rect fill="#F1F1F1" height="55.2188" rx="12.5" ry="12.5" style="stroke:#181818;stroke-width:1.5;" width="122.6895" x="327.2764" y="171.4375"/><text fill="#000000" font-family="sans-serif" font-size="14" lengthAdjust="spacing" textLength="102.6895" x="337.2764" y="195.9707">Syst&#195;&#168;me post-it</text><text fill="#000000" font-family="sans-serif" font-size="14" font-weight="bold" lengthAdjust="spacing" textLength="86.3311" x="337.2764" y="213.5801">&#240;&#376;&#8221;&#180; Critique</text><rect fill="#F1F1F1" height="55.2188" rx="12.5" ry="12.5" style="stroke:#181818;stroke-width:1.5;" width="153.2803" x="123.9961" y="133.8281"/><text fill="#000000" font-family="sans-serif" font-size="14" lengthAdjust="spacing" textLength="133.2803" x="133.9961" y="158.3613">Aucune tra&#195;&#167;abilit&#195;&#169;</text><text fill="#000000" font-family="sans-serif" font-size="14" lengthAdjust="spacing" textLength="112.834" x="133.9961" y="175.9707">(80% risque oubli)</text><path d="M327.2764,199.0469 L317.2764,199.0469 C302.2764,199.0469 302.2764,161.4375 287.2764,161.4375 L277.2764,161.4375 " fill="none" style="stroke:#181818;stroke-width:1;"/><rect fill="#F1F1F1" height="55.2188" rx="12.5" ry="12.5" style="stroke:#181818;stroke-width:1.5;" width="145.3027" x="131.9736" y="209.0469"/><text fill="#000000" font-family="sans-serif" font-size="14" lengthAdjust="spacing" textLength="117.7012" x="141.9736" y="233.5801">Post-it perdu/jet&#195;&#169;</text><text fill="#000000" font-family="sans-serif" font-size="14" lengthAdjust="spacing" textLength="125.3027" x="141.9736" y="251.1895">10 clients/an perdus</text><path d="M327.2764,199.0469 L317.2764,199.0469 C302.2764,199.0469 302.2764,236.6563 287.2764,236.6563 L277.2764,236.6563 " fill="none" style="stroke:#181818;stroke-width:1;"/><path d="M499.9658,499.9219 L489.9658,499.9219 C474.9658,499.9219 474.9658,199.0469 459.9658,199.0469 L449.9658,199.0469 " fill="none" style="stroke:#181818;stroke-width:1;"/><rect fill="#F1F1F1" height="55.2188" rx="12.5" ry="12.5" style="stroke:#181818;stroke-width:1.5;" width="183.2422" x="266.7236" y="321.875"/><text fill="#000000" font-family="sans-serif" font-size="14" lengthAdjust="spacing" textLength="163.2422" x="276.7236" y="346.4082">Donn&#195;&#169;es &#195;&#169;parpill&#195;&#169;es</text><text fill="#000000" font-family="sans-serif" font-size="14" font-weight="bold" lengthAdjust="spacing" textLength="86.3311" x="276.7236" y="364.0176">&#240;&#376;&#8221;&#180; Critique</text><rect fill="#F1F1F1" height="55.2188" rx="12.5" ry="12.5" style="stroke:#181818;stroke-width:1.5;" width="206.7236" x="10" y="284.2656"/><text fill="#000000" font-family="sans-serif" font-size="14" lengthAdjust="spacing" textLength="186.7236" x="20" y="308.7988">7 outils (ERP, SAGE, Excel...)</text><text fill="#000000" font-family="sans-serif" font-size="14" lengthAdjust="spacing" textLength="128.6182" x="20" y="326.4082">Aucune int&#195;&#169;gration</text><path d="M266.7236,349.4844 L256.7236,349.4844 C241.7236,349.4844 241.7236,311.875 226.7236,311.875 L216.7236,311.875 " fill="none" style="stroke:#181818;stroke-width:1;"/><rect fill="#F1F1F1" height="55.2188" rx="12.5" ry="12.5" style="stroke:#181818;stroke-width:1.5;" width="138.2822" x="78.4414" y="359.4844"/><text fill="#000000" font-family="sans-serif" font-size="14" lengthAdjust="spacing" textLength="118.2822" x="88.4414" y="384.0176">Double/triple saisie</text><text fill="#000000" font-family="sans-serif" font-size="14" lengthAdjust="spacing" textLength="95.9219" x="88.4414" y="401.627">Incoh&#195;&#169;rences</text><path d="M266.7236,349.4844 L256.7236,349.4844 C241.7236,349.4844 241.7236,387.0938 226.7236,387.0938 L216.7236,387.0938 " fill="none" style="stroke:#181818;stroke-width:1;"/><path d="M499.9658,499.9219 L489.9658,499.9219 C474.9658,499.9219 474.9658,349.4844 459.9658,349.4844 L449.9658,349.4844 " fill="none" style="stroke:#181818;stroke-width:1;"/><rect fill="#F1F1F1" height="55.2188" rx="12.5" ry="12.5" style="stroke:#181818;stroke-width:1.5;" width="187.2754" x="262.6904" y="472.3125"/><text fill="#000000" font-family="sans-serif" font-size="14" lengthAdjust="spacing" textLength="167.2754" x="272.6904" y="496.8457">Planning RDV archa&#195;&#175;que</text><text fill="#000000" font-family="sans-serif" font-size="14" font-weight="bold" lengthAdjust="spacing" textLength="86.3311" x="272.6904" y="514.4551">&#240;&#376;&#8221;&#180; Critique</text><rect fill="#F1F1F1" height="55.2188" rx="12.5" ry="12.5" style="stroke:#181818;stroke-width:1.5;" width="127.3789" x="85.3115" y="434.7031"/><text fill="#000000" font-family="sans-serif" font-size="14" lengthAdjust="spacing" textLength="88.7168" x="95.3115" y="459.2363">48h pour RDV</text><text fill="#000000" font-family="sans-serif" font-size="14" lengthAdjust="spacing" textLength="107.3789" x="95.3115" y="476.8457">vs 2 min possible</text><path d="M262.6904,499.9219 L252.6904,499.9219 C237.6904,499.9219 237.6904,462.3125 222.6904,462.3125 L212.6904,462.3125 " fill="none" style="stroke:#181818;stroke-width:1;"/><rect fill="#F1F1F1" height="55.2188" rx="12.5" ry="12.5" style="stroke:#181818;stroke-width:1.5;" width="169.625" x="43.0654" y="509.9219"/><text fill="#000000" font-family="sans-serif" font-size="14" lengthAdjust="spacing" textLength="94.1582" x="53.0654" y="534.4551">Excel non sync</text><text fill="#000000" font-family="sans-serif" font-size="14" lengthAdjust="spacing" textLength="149.625" x="53.0654" y="552.0645">Ga&#195;&#171;tan pas consult&#195;&#169;</text><path d="M262.6904,499.9219 L252.6904,499.9219 C237.6904,499.9219 237.6904,537.5313 222.6904,537.5313 L212.6904,537.5313 " fill="none" style="stroke:#181818;stroke-width:1;"/><path d="M499.9658,499.9219 L489.9658,499.9219 C474.9658,499.9219 474.9658,499.9219 459.9658,499.9219 L449.9658,499.9219 " fill="none" style="stroke:#181818;stroke-width:1;"/><rect fill="#F1F1F1" height="55.2188" rx="12.5" ry="12.5" style="stroke:#181818;stroke-width:1.5;" width="119.5586" x="330.4072" y="622.75"/><text fill="#000000" font-family="sans-serif" font-size="14" lengthAdjust="spacing" textLength="90.2549" x="340.4072" y="647.2832">CERFA papier</text><text fill="#000000" font-family="sans-serif" font-size="14" font-weight="bold" lengthAdjust="spacing" textLength="99.5586" x="340.4072" y="664.8926">&#240;&#376;&#376;&#160; Important</text><rect fill="#F1F1F1" height="55.2188" rx="12.5" ry="12.5" style="stroke:#181818;stroke-width:1.5;" width="236.3506" x="44.0566" y="585.1406"/><text fill="#000000" font-family="sans-serif" font-size="14" lengthAdjust="spacing" textLength="216.3506" x="54.0566" y="609.6738">Chronophage (10 min/intervention)</text><text fill="#000000" font-family="sans-serif" font-size="14" lengthAdjust="spacing" textLength="50.6064" x="54.0566" y="627.2832">400h/an</text><path d="M330.4072,650.3594 L320.4072,650.3594 C305.4072,650.3594 305.4072,612.75 290.4072,612.75 L280.4072,612.75 " fill="none" style="stroke:#181818;stroke-width:1;"/><rect fill="#F1F1F1" height="55.2188" rx="12.5" ry="12.5" style="stroke:#181818;stroke-width:1.5;" width="68.248" x="212.1592" y="660.3594"/><text fill="#000000" font-family="sans-serif" font-size="14" lengthAdjust="spacing" textLength="42.0137" x="222.1592" y="684.8926">Illisible</text><text fill="#000000" font-family="sans-serif" font-size="14" lengthAdjust="spacing" textLength="48.248" x="222.1592" y="702.502">Pas pro</text><path d="M330.4072,650.3594 L320.4072,650.3594 C305.4072,650.3594 305.4072,687.9688 290.4072,687.9688 L280.4072,687.9688 " fill="none" style="stroke:#181818;stroke-width:1;"/><path d="M499.9658,499.9219 L489.9658,499.9219 C474.9658,499.9219 474.9658,650.3594 459.9658,650.3594 L449.9658,650.3594 " fill="none" style="stroke:#181818;stroke-width:1;"/><rect fill="#F1F1F1" height="55.2188" rx="12.5" ry="12.5" style="stroke:#181818;stroke-width:1.5;" width="159.2891" x="290.6768" y="773.1875"/><text fill="#000000" font-family="sans-serif" font-size="14" lengthAdjust="spacing" textLength="139.2891" x="300.6768" y="797.7207">Portail client inexistant</text><text fill="#000000" font-family="sans-serif" font-size="14" font-weight="bold" lengthAdjust="spacing" textLength="99.5586" x="300.6768" y="815.3301">&#240;&#376;&#376;&#160; Important</text><rect fill="#F1F1F1" height="55.2188" rx="12.5" ry="12.5" style="stroke:#181818;stroke-width:1.5;" width="185.375" x="55.3018" y="735.5781"/><text fill="#000000" font-family="sans-serif" font-size="14" lengthAdjust="spacing" textLength="165.375" x="65.3018" y="760.1113">Appels entrants &#195;&#169;lev&#195;&#169;s</text><text fill="#000000" font-family="sans-serif" font-size="14" lengthAdjust="spacing" textLength="87.9375" x="65.3018" y="777.7207">-40% possible</text><path d="M290.6768,800.7969 L280.6768,800.7969 C265.6768,800.7969 265.6768,763.1875 250.6768,763.1875 L240.6768,763.1875 " fill="none" style="stroke:#181818;stroke-width:1;"/><rect fill="#F1F1F1" height="55.2188" rx="12.5" ry="12.5" style="stroke:#181818;stroke-width:1.5;" width="154.832" x="85.8447" y="810.7969"/><text fill="#000000" font-family="sans-serif" font-size="14" lengthAdjust="spacing" textLength="134.832" x="95.8447" y="835.3301">Disponibilit&#195;&#169; 8h-18h</text><text fill="#000000" font-family="sans-serif" font-size="14" lengthAdjust="spacing" textLength="45.1377" x="95.8447" y="852.9395">vs 24/7</text><path d="M290.6768,800.7969 L280.6768,800.7969 C265.6768,800.7969 265.6768,838.4063 250.6768,838.4063 L240.6768,838.4063 " fill="none" style="stroke:#181818;stroke-width:1;"/><path d="M499.9658,499.9219 L489.9658,499.9219 C474.9658,499.9219 474.9658,800.7969 459.9658,800.7969 L449.9658,800.7969 " fill="none" style="stroke:#181818;stroke-width:1;"/><!--SRC=[VLJ1Rjj64BtpA-OIG2OYYPGfMzOfhYIxIkn4a5sT21XhQcrjGCrkTvT2V0lGloXGeEYbBLgWFVIGiutyIBwaCrowjQt01q4W-NRclJTlvvNpmlgrmkLQ69W9XHSphT2xYpDfDwgG5wDIIVHHv9KlPOs0W8060G41RTZF1c_kVldoySVRFxi2eoY6kxy_V_hoyQVRV-1iCbzCHnCOdKmdRyzpZEF7w3YEuXZEvTeuCD8kAuQa_Umf98QPLKx2VBo0LfgikkztSapJv65ZHirbiPAMVg3mIkVOx_IVGiQwkYH9JYYdP8xxdOFj8gN0GZfO2wnaMKgNusxoM6CCxupHrbUe_DqFjxytz1aQnxs3hmWOIogtfAgUEA8go3q27-nszfxs3ywIquSB4fbiYHpBZU8orj9OSipwsmAkHE4hAxpI22jPsMq93nkn8ogeQ1djV5jvihVNVohv7bzBhPNkFcBNA9sYeywEEN3_bkNIdaxoKpjDNd3nhyXYM4bZeTc9ef36YylQ-_uMz1qJtleIbVBAWrDBMRCzkt4ycj_M4XfHpFZ_R8wiykhxIZQi3wkYGWdU2ZhqgxXKPPXiZgr1yW8eVeGDLks4H8QYmOtkUzcWqmIAu1DnQgog-Omr8aCe0lndX3MgBCERPvdjKrUlIXhEP3vxIR4udho4oOT2bfrEXxnicDFjv6BNOUmFijxrLfa7aPzYeLSCjP9ZNfERKUHHuNLzmmJT87RXB-BmBBDii29lAykdSjmuw04j5RRRAMfSOsgYW3HwTuD5ZiTS-G_FtWW7XKPNbJNn4B79_EYGlXWbxNthpvzkVuRfcg-RGD-q7gsiHcrMubhoHk2-NNA0bbC86lcI9RGeciHCImeCSyfnHcsDrK4srrHbCp6oK7vGZhiys_lG64dZe1DMy7seWoitzGtAiPrHN1vPC5REQ5J_HGe6gtOwM0N7ikv-5BsIj8h3EeuYdeN_xlG4Dj8wlZDffvVqiiwWTMGLlDKRIFkG3ePPDipsoB5puCyxKUjuTWAEna7RUKaohBgiQYkYrs8ZO5wHCMiv17vgdP_kq7Q-VmaJt2WoTCrB__NYD83WM-tFZFOrU2zhVqDfv_KlBInEep5j6HeT7Itqag8pX959U_rUT2BmkgAv3E7AHYDD7UpD48xc_m80]--></g></svg>