<svg xmlns="http://www.w3.org/2000/svg" xmlns:xlink="http://www.w3.org/1999/xlink" contentStyleType="text/css" height="707px" preserveAspectRatio="none" style="width:839px;height:707px;background:#FFFFFF;" version="1.1" viewBox="0 0 839 707" width="839px" zoomAndPan="magnify"><title>Prise RDV - CIBLE (Portail Client Odoo)</title><defs/><g><text fill="#000000" font-family="sans-serif" font-size="14" font-weight="bold" lengthAdjust="spacing" textLength="262.1309" x="287.1946" y="34.5332">Prise RDV - CIBLE (Portail Client Odoo)</text><rect fill="none" height="22.6406" style="stroke:none;stroke-width:1;" width="806.52" x="15" y="51.0645"/><ellipse cx="102.3701" cy="88.7051" fill="#222222" rx="10" ry="10" style="stroke:#222222;stroke-width:1;"/><rect fill="#F1F1F1" height="35.0938" rx="12.5" ry="12.5" style="stroke:#181818;stroke-width:0.5;" width="122.7148" x="41.0127" y="118.7051"/><text fill="#000000" font-family="sans-serif" font-size="12" lengthAdjust="spacing" textLength="102.7148" x="51.0127" y="141.1621">Ouvre Portail Odoo</text><path d="M203.7402,169.9941 L203.7402,187.3457 L183.7402,191.3457 L203.7402,195.3457 L203.7402,212.6973 A0,0 0 0 0 203.7402,212.6973 L454.5381,212.6973 A0,0 0 0 0 454.5381,212.6973 L454.5381,179.9941 L444.5381,169.9941 L203.7402,169.9941 A0,0 0 0 0 203.7402,169.9941 " fill="#FEFFDD" style="stroke:#181818;stroke-width:0.5;"/><path d="M444.5381,169.9941 L444.5381,179.9941 L454.5381,179.9941 L444.5381,169.9941 " fill="#FEFFDD" style="stroke:#181818;stroke-width:0.5;"/><text fill="#000000" font-family="sans-serif" font-size="13" font-weight="bold" lengthAdjust="spacing" textLength="140.8862" x="209.7402" y="188.4893">Calendrier Temps R&#233;el</text><text fill="#000000" font-family="sans-serif" font-size="13" lengthAdjust="spacing" textLength="229.7979" x="209.7402" y="204.8408">Synchronis&#233; avec Planning Techniciens</text><rect fill="#F1F1F1" height="35.0938" rx="12.5" ry="12.5" style="stroke:#181818;stroke-width:0.5;" width="162.7402" x="21" y="173.7988"/><text fill="#000000" font-family="sans-serif" font-size="12" lengthAdjust="spacing" textLength="142.7402" x="31" y="196.2559">Consulte Cr&#233;neaux Dispos</text><rect fill="#F1F1F1" height="35.0938" rx="12.5" ry="12.5" style="stroke:#181818;stroke-width:0.5;" width="132.0781" x="36.3311" y="232.6973"/><text fill="#000000" font-family="sans-serif" font-size="12" lengthAdjust="spacing" textLength="112.0781" x="46.3311" y="255.1543">S&#233;lectionne Cr&#233;neau</text><rect fill="#F1F1F1" height="35.0938" rx="12.5" ry="12.5" style="stroke:#181818;stroke-width:0.5;" width="136.0156" x="34.3623" y="287.791"/><text fill="#000000" font-family="sans-serif" font-size="12" lengthAdjust="spacing" textLength="116.0156" x="44.3623" y="310.248">Confirme RDV (1 clic)</text><line style="stroke:#000000;stroke-width:1.5;" x1="15" x2="15" y1="51.0645" y2="695.4473"/><rect fill="#F1F1F1" height="35.0938" rx="12.5" ry="12.5" style="stroke:#181818;stroke-width:0.5;" width="156.7695" x="475.8535" y="342.8848"/><text fill="#000000" font-family="sans-serif" font-size="12" lengthAdjust="spacing" textLength="136.7695" x="485.8535" y="365.3418">Bloque Cr&#233;neau Planning</text><rect fill="#F1F1F1" height="35.0938" rx="12.5" ry="12.5" style="stroke:#181818;stroke-width:0.5;" width="154.7188" x="476.8789" y="397.9785"/><text fill="#000000" font-family="sans-serif" font-size="12" lengthAdjust="spacing" textLength="134.7188" x="486.8789" y="420.4355">Envoi Email Confirmation</text><rect fill="#F1F1F1" height="35.0938" rx="12.5" ry="12.5" style="stroke:#181818;stroke-width:0.5;" width="140.7207" x="483.8779" y="453.0723"/><text fill="#000000" font-family="sans-serif" font-size="12" lengthAdjust="spacing" textLength="120.7207" x="493.8779" y="475.5293">Envoi SMS Rappel J-1</text><rect fill="#F1F1F1" height="35.0938" rx="12.5" ry="12.5" style="stroke:#181818;stroke-width:0.5;" width="177.4004" x="465.5381" y="508.166"/><text fill="#000000" font-family="sans-serif" font-size="12" lengthAdjust="spacing" textLength="157.4004" x="475.5381" y="530.623">Notif Technicien (App Mobile)</text><line style="stroke:#000000;stroke-width:1.5;" x1="459.5381" x2="459.5381" y1="51.0645" y2="695.4473"/><rect fill="#F1F1F1" height="35.0938" rx="12.5" ry="12.5" style="stroke:#181818;stroke-width:0.5;" width="162.0781" x="653.4399" y="563.2598"/><text fill="#000000" font-family="sans-serif" font-size="12" lengthAdjust="spacing" textLength="142.0781" x="663.4399" y="585.7168">Re&#231;oit RDV dans Planning</text><rect fill="#F1F1F1" height="35.0938" rx="12.5" ry="12.5" style="stroke:#181818;stroke-width:0.5;" width="128.7324" x="670.1128" y="618.3535"/><text fill="#000000" font-family="sans-serif" font-size="12" lengthAdjust="spacing" textLength="108.7324" x="680.1128" y="640.8105">Pr&#233;pare Intervention</text><ellipse cx="734.479" cy="684.4473" fill="none" rx="11" ry="11" style="stroke:#222222;stroke-width:1;"/><ellipse cx="734.479" cy="684.4473" fill="#222222" rx="6" ry="6" style="stroke:#222222;stroke-width:1;"/><line style="stroke:#000000;stroke-width:1.5;" x1="646.9385" x2="646.9385" y1="51.0645" y2="695.4473"/><line style="stroke:#000000;stroke-width:1.5;" x1="820.0195" x2="820.0195" y1="51.0645" y2="695.4473"/><line style="stroke:#181818;stroke-width:1;" x1="102.3701" x2="102.3701" y1="98.7051" y2="118.7051"/><polygon fill="#181818" points="98.3701,108.7051,102.3701,118.7051,106.3701,108.7051,102.3701,112.7051" style="stroke:#181818;stroke-width:1;"/><line style="stroke:#181818;stroke-width:1;" x1="102.3701" x2="102.3701" y1="153.7988" y2="173.7988"/><polygon fill="#181818" points="98.3701,163.7988,102.3701,173.7988,106.3701,163.7988,102.3701,167.7988" style="stroke:#181818;stroke-width:1;"/><line style="stroke:#181818;stroke-width:1;" x1="102.3701" x2="102.3701" y1="208.8926" y2="232.6973"/><polygon fill="#181818" points="98.3701,222.6973,102.3701,232.6973,106.3701,222.6973,102.3701,226.6973" style="stroke:#181818;stroke-width:1;"/><line style="stroke:#181818;stroke-width:1;" x1="102.3701" x2="102.3701" y1="267.791" y2="287.791"/><polygon fill="#181818" points="98.3701,277.791,102.3701,287.791,106.3701,277.791,102.3701,281.791" style="stroke:#181818;stroke-width:1;"/><line style="stroke:#181818;stroke-width:1;" x1="554.2383" x2="554.2383" y1="377.9785" y2="397.9785"/><polygon fill="#181818" points="550.2383,387.9785,554.2383,397.9785,558.2383,387.9785,554.2383,391.9785" style="stroke:#181818;stroke-width:1;"/><line style="stroke:#181818;stroke-width:1;" x1="554.2383" x2="554.2383" y1="433.0723" y2="453.0723"/><polygon fill="#181818" points="550.2383,443.0723,554.2383,453.0723,558.2383,443.0723,554.2383,447.0723" style="stroke:#181818;stroke-width:1;"/><line style="stroke:#181818;stroke-width:1;" x1="554.2383" x2="554.2383" y1="488.166" y2="508.166"/><polygon fill="#181818" points="550.2383,498.166,554.2383,508.166,558.2383,498.166,554.2383,502.166" style="stroke:#181818;stroke-width:1;"/><line style="stroke:#181818;stroke-width:1;" x1="734.479" x2="734.479" y1="598.3535" y2="618.3535"/><polygon fill="#181818" points="730.479,608.3535,734.479,618.3535,738.479,608.3535,734.479,612.3535" style="stroke:#181818;stroke-width:1;"/><line style="stroke:#181818;stroke-width:1;" x1="734.479" x2="734.479" y1="653.4473" y2="673.4473"/><polygon fill="#181818" points="730.479,663.4473,734.479,673.4473,738.479,663.4473,734.479,667.4473" style="stroke:#181818;stroke-width:1;"/><line style="stroke:#181818;stroke-width:1;" x1="102.3701" x2="102.3701" y1="322.8848" y2="327.8848"/><line style="stroke:#181818;stroke-width:1;" x1="102.3701" x2="554.2383" y1="327.8848" y2="327.8848"/><line style="stroke:#181818;stroke-width:1;" x1="554.2383" x2="554.2383" y1="327.8848" y2="342.8848"/><polygon fill="#181818" points="550.2383,332.8848,554.2383,342.8848,558.2383,332.8848,554.2383,336.8848" style="stroke:#181818;stroke-width:1;"/><line style="stroke:#181818;stroke-width:1;" x1="554.2383" x2="554.2383" y1="543.2598" y2="548.2598"/><line style="stroke:#181818;stroke-width:1;" x1="554.2383" x2="734.479" y1="548.2598" y2="548.2598"/><line style="stroke:#181818;stroke-width:1;" x1="734.479" x2="734.479" y1="548.2598" y2="563.2598"/><polygon fill="#181818" points="730.479,553.2598,734.479,563.2598,738.479,553.2598,734.479,557.2598" style="stroke:#181818;stroke-width:1;"/><text fill="#000000" font-family="sans-serif" font-size="18" lengthAdjust="spacing" textLength="46.0195" x="214.2593" y="69.75">Client</text><text fill="#000000" font-family="sans-serif" font-size="18" lengthAdjust="spacing" textLength="131.0449" x="487.7158" y="69.75">Systeme (Odoo)</text><text fill="#000000" font-family="sans-serif" font-size="18" lengthAdjust="spacing" textLength="163.0811" x="651.9385" y="69.75">Technicien (Gaetan)</text><!--SRC=[JP71Ri8m38RlUGeVIoKEkvRJA6XY6gDgfzspOi1ISBB4hOR4-qnzZhxOqdO2Zlbj__zdHqWCGk4f89IhJvX3lbc-hI4fh1TD1d93o0AxlRKpfQxJywg2Q2ygspMjZ-F_lKFJGcMvvT0OGSXztp7gvWTM59mD2yKsofwE9r40QPfhWxptX1u-yEm2b7s79arZiRfmVVAMAVGTw1PhA8nc9Zx6rlh4L4UGeE8u3APAPLNV6Qo5BFCzUi8va3zF-oLFK1kgPukuItK9Wb5FnkMkAbiQ-ztSPs-9qMJDhILOdyUJJ8PwYBgLgcq5fNOE3RpEdwByReKE3woGF3i7M_j51iVunzABHj4yC9JO_rgI4NQlEJn2517CwNZm3GlwDdx4I134ElK7]--></g></svg>