<svg xmlns="http://www.w3.org/2000/svg" xmlns:xlink="http://www.w3.org/1999/xlink" contentStyleType="text/css" height="1184px" preserveAspectRatio="none" style="width:942px;height:1184px;background:#FFFFFF;" version="1.1" viewBox="0 0 942 1184" width="942px" zoomAndPan="magnify"><title>Use Case - Service Client Duret &#201;lectricit&#233;</title><defs/><g><text fill="#000000" font-family="sans-serif" font-size="14" font-weight="bold" lengthAdjust="spacing" textLength="279.3438" x="324.6689" y="24.5332">Use Case - Service Client Duret &#201;lectricit&#233;</text><!--cluster Service Client--><g id="cluster_Service Client"><rect fill="none" height="891" rx="2.5" ry="2.5" style="stroke:#181818;stroke-width:1;" width="504" x="162" y="182.1094"/><text fill="#000000" font-family="sans-serif" font-size="14" font-weight="bold" lengthAdjust="spacing" textLength="92.5996" x="367.7002" y="198.6426">Service Client</text></g><g id="elem_UC1"><ellipse cx="265.1705" cy="735.0128" fill="#F1F1F1" rx="68.1705" ry="27.9034" style="stroke:#181818;stroke-width:0.5;"/><text fill="#000000" font-family="sans-serif" font-size="14" lengthAdjust="spacing" textLength="80.165" x="225.088" y="729.9366">Appeler pour</text><text fill="#000000" font-family="sans-serif" font-size="14" lengthAdjust="spacing" textLength="58.3652" x="235.9879" y="747.546">probl&#232;me</text></g><g id="elem_UC2"><ellipse cx="265.0144" cy="440.2123" fill="#F1F1F1" rx="68.5144" ry="16.1029" style="stroke:#181818;stroke-width:0.5;"/><text fill="#000000" font-family="sans-serif" font-size="14" lengthAdjust="spacing" textLength="83.2549" x="220.387" y="444.7289">Prendre RDV</text></g><g id="elem_UC3"><ellipse cx="265.2022" cy="509.0498" fill="#F1F1F1" rx="75.2022" ry="17.4404" style="stroke:#181818;stroke-width:0.5;"/><text fill="#000000" font-family="sans-serif" font-size="14" lengthAdjust="spacing" textLength="101.9375" x="211.2335" y="513.5664">Demander devis</text></g><g id="elem_UC4"><ellipse cx="265.1688" cy="580.1431" fill="#F1F1F1" rx="80.6688" ry="18.5338" style="stroke:#181818;stroke-width:0.5;"/><text fill="#000000" font-family="sans-serif" font-size="14" lengthAdjust="spacing" textLength="115.9512" x="206.4975" y="584.0739">Suivre intervention</text></g><g id="elem_UC5"><ellipse cx="264.7689" cy="652.9632" fill="#F1F1F1" rx="82.2689" ry="18.8538" style="stroke:#181818;stroke-width:0.5;"/><text fill="#000000" font-family="sans-serif" font-size="14" lengthAdjust="spacing" textLength="119.8408" x="204.8219" y="656.6997">Donner satisfaction</text></g><g id="elem_UC6"><ellipse cx="568.7009" cy="508.9496" fill="#F1F1F1" rx="67.2009" ry="15.8402" style="stroke:#181818;stroke-width:0.5;"/><text fill="#000000" font-family="sans-serif" font-size="14" lengthAdjust="spacing" textLength="79.3516" x="526.0251" y="513.4662">G&#233;rer tickets</text></g><g id="elem_UC7"><ellipse cx="568.6294" cy="334.3353" fill="#F1F1F1" rx="81.6294" ry="18.7259" style="stroke:#181818;stroke-width:0.5;"/><text fill="#000000" font-family="sans-serif" font-size="14" lengthAdjust="spacing" textLength="118.2959" x="509.1922" y="338.1494">Organiser planning</text></g><g id="elem_UC8"><ellipse cx="264.8327" cy="304.8759" fill="#F1F1F1" rx="74.3327" ry="17.2665" style="stroke:#181818;stroke-width:0.5;"/><text fill="#000000" font-family="sans-serif" font-size="14" lengthAdjust="spacing" textLength="99.5996" x="212.0329" y="309.3925">Relancer clients</text></g><g id="elem_UC9"><ellipse cx="264.9276" cy="373.2949" fill="#F1F1F1" rx="66.4276" ry="15.6855" style="stroke:#181818;stroke-width:0.5;"/><text fill="#000000" font-family="sans-serif" font-size="14" lengthAdjust="spacing" textLength="77.0068" x="223.4242" y="377.8115">Traiter mails</text></g><g id="elem_UC10"><ellipse cx="264.9029" cy="235.09" fill="#F1F1F1" rx="72.9029" ry="16.9806" style="stroke:#181818;stroke-width:0.5;"/><text fill="#000000" font-family="sans-serif" font-size="14" lengthAdjust="spacing" textLength="95.7031" x="214.0513" y="239.6066">Cr&#233;er chantiers</text></g><g id="elem_UC11"><ellipse cx="265.0319" cy="1037.1157" fill="#F1F1F1" rx="85.5319" ry="19.5064" style="stroke:#181818;stroke-width:0.5;"/><text fill="#000000" font-family="sans-serif" font-size="14" lengthAdjust="spacing" textLength="127.6201" x="201.2218" y="1040.8443">R&#233;aliser intervention</text></g><g id="elem_UC12"><ellipse cx="568.32" cy="966.8734" fill="#F1F1F1" rx="74.32" ry="17.264" style="stroke:#181818;stroke-width:0.5;"/><text fill="#000000" font-family="sans-serif" font-size="14" lengthAdjust="spacing" textLength="99.5654" x="515.5373" y="971.39">Remplir CERFA</text></g><g id="elem_UC13"><ellipse cx="265.1804" cy="961.9455" fill="#F1F1F1" rx="87.1804" ry="19.8361" style="stroke:#181818;stroke-width:0.5;"/><text fill="#000000" font-family="sans-serif" font-size="14" lengthAdjust="spacing" textLength="131.5029" x="199.4289" y="965.674">G&#233;n&#233;rer devis terrain</text></g><g id="elem_UC14"><ellipse cx="568.7308" cy="1038.2555" fill="#F1F1F1" rx="71.2308" ry="16.6462" style="stroke:#181818;stroke-width:0.5;"/><text fill="#000000" font-family="sans-serif" font-size="14" lengthAdjust="spacing" textLength="91.0547" x="520.2034" y="1042.7721">Pointer heures</text></g><g id="elem_UC15"><ellipse cx="265.0596" cy="814.9213" fill="#F1F1F1" rx="72.0596" ry="16.8119" style="stroke:#181818;stroke-width:0.5;"/><text fill="#000000" font-family="sans-serif" font-size="14" lengthAdjust="spacing" textLength="93.3721" x="215.3736" y="819.4379">Consulter KPIs</text></g><g id="elem_UC16"><ellipse cx="264.8588" cy="887.1811" fill="#F1F1F1" rx="85.8588" ry="19.5718" style="stroke:#181818;stroke-width:0.5;"/><text fill="#000000" font-family="sans-serif" font-size="14" lengthAdjust="spacing" textLength="128.3926" x="200.6625" y="890.9097">Analyser satisfaction</text></g><!--entity Client--><g id="elem_Client"><ellipse cx="60.3965" cy="549.6094" fill="#F1F1F1" rx="8" ry="8" style="stroke:#181818;stroke-width:0.5;"/><path d="M60.3965,557.6094 L60.3965,584.6094 M47.3965,565.6094 L73.3965,565.6094 M60.3965,584.6094 L47.3965,599.6094 M60.3965,584.6094 L73.3965,599.6094 " fill="none" style="stroke:#181818;stroke-width:0.5;"/><text fill="#000000" font-family="sans-serif" font-size="14" lengthAdjust="spacing" textLength="35.793" x="42.5" y="615.6426">Client</text></g><!--entity Claire--><g id="elem_Claire"><ellipse cx="60.4551" cy="196.1094" fill="#F1F1F1" rx="8" ry="8" style="stroke:#181818;stroke-width:0.5;"/><path d="M60.4551,204.1094 L60.4551,231.1094 M47.4551,212.1094 L73.4551,212.1094 M60.4551,231.1094 L47.4551,246.1094 M60.4551,231.1094 L73.4551,246.1094 " fill="none" style="stroke:#181818;stroke-width:0.5;"/><text fill="#000000" font-family="sans-serif" font-size="14" lengthAdjust="spacing" textLength="36.5654" x="23.5" y="262.1426">Claire</text><text fill="#000000" font-family="sans-serif" font-size="14" lengthAdjust="spacing" textLength="73.9102" x="23.5" y="279.752">(Assistante)</text></g><!--entity Gaetan--><g id="elem_Gaetan"><ellipse cx="60.4653" cy="1042.1094" fill="#F1F1F1" rx="8" ry="8" style="stroke:#181818;stroke-width:0.5;"/><path d="M60.4653,1050.1094 L60.4653,1077.1094 M47.4653,1058.1094 L73.4653,1058.1094 M60.4653,1077.1094 L47.4653,1092.1094 M60.4653,1077.1094 L73.4653,1092.1094 " fill="none" style="stroke:#181818;stroke-width:0.5;"/><text fill="#000000" font-family="sans-serif" font-size="14" lengthAdjust="spacing" textLength="45.9238" x="6" y="1108.1426">Ga&#235;tan</text><text fill="#000000" font-family="sans-serif" font-size="14" lengthAdjust="spacing" textLength="108.9307" x="6" y="1125.752">(Technicien SAV)</text></g><!--entity Direction--><g id="elem_Direction"><ellipse cx="60.6206" cy="824.6094" fill="#F1F1F1" rx="8" ry="8" style="stroke:#181818;stroke-width:0.5;"/><path d="M60.6206,832.6094 L60.6206,859.6094 M47.6206,840.6094 L73.6206,840.6094 M60.6206,859.6094 L47.6206,874.6094 M60.6206,859.6094 L73.6206,874.6094 " fill="none" style="stroke:#181818;stroke-width:0.5;"/><text fill="#000000" font-family="sans-serif" font-size="14" lengthAdjust="spacing" textLength="55.2412" x="33" y="890.6426">Direction</text></g><g id="elem_GMN44"><path d="M749.5,487.6094 L749.5,505.1094 L635.61,509.1094 L749.5,513.1094 L749.5,530.3125 A0,0 0 0 0 749.5,530.3125 L915.7153,530.3125 A0,0 0 0 0 915.7153,530.3125 L915.7153,497.6094 L905.7153,487.6094 L749.5,487.6094 A0,0 0 0 0 749.5,487.6094 " fill="#FEFFDD" style="stroke:#181818;stroke-width:0.5;"/><path d="M905.7153,487.6094 L905.7153,497.6094 L915.7153,497.6094 L905.7153,487.6094 " fill="#FEFFDD" style="stroke:#181818;stroke-width:0.5;"/><text fill="#000000" font-family="sans-serif" font-size="13" lengthAdjust="spacing" textLength="110.1636" x="755.5" y="506.1045">&#128308; ACTUEL: Post-it</text><text fill="#000000" font-family="sans-serif" font-size="13" lengthAdjust="spacing" textLength="145.2153" x="755.5" y="522.4561">&#9989; CIBLE: HubSpot CRM</text></g><g id="elem_GMN47"><path d="M729,312.6094 L729,330.1094 L650.25,334.1094 L729,338.1094 L729,355.3125 A0,0 0 0 0 729,355.3125 L935.6816,355.3125 A0,0 0 0 0 935.6816,355.3125 L935.6816,322.6094 L925.6816,312.6094 L729,312.6094 A0,0 0 0 0 729,312.6094 " fill="#FEFFDD" style="stroke:#181818;stroke-width:0.5;"/><path d="M925.6816,312.6094 L925.6816,322.6094 L935.6816,322.6094 L925.6816,312.6094 " fill="#FEFFDD" style="stroke:#181818;stroke-width:0.5;"/><text fill="#000000" font-family="sans-serif" font-size="13" lengthAdjust="spacing" textLength="141.6162" x="735" y="331.1045">&#128308; ACTUEL: Excel + 48h</text><text fill="#000000" font-family="sans-serif" font-size="13" lengthAdjust="spacing" textLength="185.6816" x="735" y="347.4561">&#9989; CIBLE: Calendrier temps r&#233;el</text></g><g id="elem_GMN50"><path d="M742.5,945.6094 L742.5,963.1094 L643.18,967.1094 L742.5,971.1094 L742.5,988.3125 A0,0 0 0 0 742.5,988.3125 L922.0708,988.3125 A0,0 0 0 0 922.0708,988.3125 L922.0708,955.6094 L912.0708,945.6094 L742.5,945.6094 A0,0 0 0 0 742.5,945.6094 " fill="#FEFFDD" style="stroke:#181818;stroke-width:0.5;"/><path d="M912.0708,945.6094 L912.0708,955.6094 L922.0708,955.6094 L912.0708,945.6094 " fill="#FEFFDD" style="stroke:#181818;stroke-width:0.5;"/><text fill="#000000" font-family="sans-serif" font-size="13" lengthAdjust="spacing" textLength="158.5708" x="748.5" y="964.1045">&#128308; ACTUEL: Papier CERFA</text><text fill="#000000" font-family="sans-serif" font-size="13" lengthAdjust="spacing" textLength="126.4453" x="748.5" y="980.4561">&#9989; CIBLE: App mobile</text></g><g id="elem_GMN53"><path d="M490.5,122.6094 L490.5,165.3125 L646.959,165.3125 L646.959,132.6094 L636.959,122.6094 L490.5,122.6094 " fill="#FEFFDD" style="stroke:#181818;stroke-width:0.5;"/><path d="M636.959,122.6094 L636.959,132.6094 L646.959,132.6094 L636.959,122.6094 " fill="#FEFFDD" style="stroke:#181818;stroke-width:1;"/><text fill="#000000" font-family="sans-serif" font-size="13" lengthAdjust="spacing" textLength="135.459" x="496.5" y="141.1045">&#128308; ACTUEL: Impossible</text><text fill="#000000" font-family="sans-serif" font-size="13" lengthAdjust="spacing" textLength="126.4453" x="496.5" y="157.4561">&#9989; CIBLE: App mobile</text></g><g id="elem_GMN56"><path d="M469,44.6094 L469,87.3125 L668.4517,87.3125 L668.4517,54.6094 L658.4517,44.6094 L469,44.6094 " fill="#FEFFDD" style="stroke:#181818;stroke-width:0.5;"/><path d="M658.4517,44.6094 L658.4517,54.6094 L668.4517,54.6094 L658.4517,44.6094 " fill="#FEFFDD" style="stroke:#181818;stroke-width:1;"/><text fill="#000000" font-family="sans-serif" font-size="13" lengthAdjust="spacing" textLength="151.3599" x="475" y="63.1045">&#128308; ACTUEL: Excel manuel</text><text fill="#000000" font-family="sans-serif" font-size="13" lengthAdjust="spacing" textLength="178.4517" x="475" y="79.4561">&#9989; CIBLE: Power BI temps r&#233;el</text></g><!--link Client to UC1--><g id="link_Client_UC1"><path d="M78.51,606.5494 C95.24,630.7794 122.75,666.2494 154,689.1094 C170.79,701.3994 185.7556,708.9607 204.5356,716.2407 " fill="none" id="Client-to-UC1" style="stroke:#181818;stroke-width:1;"/><polygon fill="#181818" points="210.13,718.4094,203.1842,711.4268,205.468,716.6022,200.2927,718.886,210.13,718.4094" style="stroke:#181818;stroke-width:1;"/></g><!--link Client to UC2--><g id="link_Client_UC2"><path d="M78.51,553.2694 C95.05,529.2594 122.26,494.7494 154,474.1094 C171.18,462.9494 186.4404,456.8442 205.5204,451.6542 " fill="none" id="Client-to-UC2" style="stroke:#181818;stroke-width:1;"/><polygon fill="#181818" points="211.31,450.0794,201.5757,448.5819,206.4853,451.3918,203.6755,456.3014,211.31,450.0794" style="stroke:#181818;stroke-width:1;"/></g><!--link Client to UC3--><g id="link_Client_UC3"><path d="M78.77,573.0194 C97.26,565.5094 127.52,553.4694 154,544.1094 C175.07,536.6694 192.9221,530.8559 212.8321,524.6459 " fill="none" id="Client-to-UC3" style="stroke:#181818;stroke-width:1;"/><polygon fill="#181818" points="218.56,522.8594,208.7772,521.7206,213.7868,524.3482,211.1592,529.3577,218.56,522.8594" style="stroke:#181818;stroke-width:1;"/></g><!--link Client to UC4--><g id="link_Client_UC4"><path d="M78.77,580.1094 C102.1,580.1094 139.27,580.1094 178.06,580.1094 " fill="none" id="Client-to-UC4" style="stroke:#181818;stroke-width:1;"/><polygon fill="#181818" points="184.06,580.1094,175.06,576.1094,179.06,580.1094,175.06,584.1094,184.06,580.1094" style="stroke:#181818;stroke-width:1;"/></g><!--link Client to UC5--><g id="link_Client_UC5"><path d="M78.8,587.1294 C97.31,594.5594 127.59,606.5394 154,616.1094 C174.36,623.4994 191.3261,629.3073 210.7661,635.7673 " fill="none" id="Client-to-UC5" style="stroke:#181818;stroke-width:1;"/><polygon fill="#181818" points="216.46,637.6594,209.1806,631.0253,211.7151,636.0826,206.6578,638.6171,216.46,637.6594" style="stroke:#181818;stroke-width:1;"/></g><!--link Claire to UC6--><g id="link_Claire_UC6"><path d="M97.88,218.0394 C155.39,193.7294 269.27,156.6194 352,200.1094 C433.19,242.7894 416.48,294.9194 469,370.1094 C500.33,414.9694 534.3324,462.7071 552.7124,488.4371 " fill="none" id="Claire-to-UC6" style="stroke:#181818;stroke-width:1;"/><polygon fill="#181818" points="556.2,493.3194,554.2234,483.6709,553.2937,489.2508,547.7137,488.321,556.2,493.3194" style="stroke:#181818;stroke-width:1;"/></g><!--link Claire to UC7--><g id="link_Claire_UC7"><path d="M90.04,187.3894 C104.03,168.6794 122.69,149.2794 145,139.1094 C228.72,100.9694 260.59,128.7394 352,139.1094 C391.42,143.5894 405.85,137.3194 439,159.1094 C500.26,199.3994 540.0801,274.0488 556.8901,310.1988 " fill="none" id="Claire-to-UC7" style="stroke:#181818;stroke-width:1;"/><polygon fill="#181818" points="559.42,315.6394,559.2522,305.7919,557.3118,311.1056,551.9981,309.1651,559.42,315.6394" style="stroke:#181818;stroke-width:1;"/></g><!--link Claire to UC8--><g id="link_Claire_UC8"><path d="M97.86,248.8194 C114.86,255.1394 135.41,262.6594 154,269.1094 C175.64,276.6294 194.1109,282.7439 214.2809,289.2639 " fill="none" id="Claire-to-UC8" style="stroke:#181818;stroke-width:1;"/><polygon fill="#181818" points="219.99,291.1094,212.6566,284.5351,215.2324,289.5715,210.196,292.1472,219.99,291.1094" style="stroke:#181818;stroke-width:1;"/></g><!--link Claire to UC9--><g id="link_Claire_UC9"><path d="M94,282.6694 C109.97,302.9094 130.79,325.2294 154,340.1094 C171.29,351.1994 186.6661,357.1779 205.8161,362.1979 " fill="none" id="Claire-to-UC9" style="stroke:#181818;stroke-width:1;"/><polygon fill="#181818" points="211.62,363.7194,203.9284,357.568,206.7834,362.4515,201.8999,365.3065,211.62,363.7194" style="stroke:#181818;stroke-width:1;"/></g><!--link Claire to UC10--><g id="link_Claire_UC10"><path d="M97.7,235.1094 C123.75,235.1094 153.77,235.1094 185.62,235.1094 " fill="none" id="Claire-to-UC10" style="stroke:#181818;stroke-width:1;"/><polygon fill="#181818" points="191.62,235.1094,182.62,231.1094,186.62,235.1094,182.62,239.1094,191.62,235.1094" style="stroke:#181818;stroke-width:1;"/></g><!--link Gaetan to UC11--><g id="link_Gaetan_UC11"><path d="M115.23,1069.4394 C142.07,1063.6094 168.7969,1057.804 196.6269,1051.754 " fill="none" id="Gaetan-to-UC11" style="stroke:#181818;stroke-width:1;"/><polygon fill="#181818" points="202.49,1050.4794,192.8457,1048.4825,197.6041,1051.5415,194.5451,1056.2999,202.49,1050.4794" style="stroke:#181818;stroke-width:1;"/></g><!--link Gaetan to UC12--><g id="link_Gaetan_UC12"><path d="M115.28,1092.0094 C194.34,1104.8194 342.94,1116.2994 439,1046.1094 C457.52,1032.5794 450.81,1018.0894 469,1004.1094 C482.98,993.3794 494.7541,987.4537 511.0541,981.7737 " fill="none" id="Gaetan-to-UC12" style="stroke:#181818;stroke-width:1;"/><polygon fill="#181818" points="516.72,979.7994,506.905,978.9837,511.9985,981.4447,509.5375,986.5381,516.72,979.7994" style="stroke:#181818;stroke-width:1;"/></g><!--link Gaetan to UC13--><g id="link_Gaetan_UC13"><path d="M108.69,1033.5894 C122.47,1021.4894 138.12,1009.3294 154,1000.1094 C170.34,990.6294 183.7263,984.9019 201.3563,979.0419 " fill="none" id="Gaetan-to-UC13" style="stroke:#181818;stroke-width:1;"/><polygon fill="#181818" points="207.05,977.1494,197.2478,976.1923,202.3052,978.7265,199.7711,983.784,207.05,977.1494" style="stroke:#181818;stroke-width:1;"/></g><!--link Gaetan to UC14--><g id="link_Gaetan_UC14"><path d="M115.38,1122.9394 C124.81,1128.3594 134.86,1133.0694 145,1136.1094 C270.16,1173.6294 315.21,1177.9294 439,1136.1094 C487.11,1119.8594 527.3333,1081.9831 549.1633,1058.6231 " fill="none" id="Gaetan-to-UC14" style="stroke:#181818;stroke-width:1;"/><polygon fill="#181818" points="553.26,1054.2394,544.1925,1058.0839,549.8461,1057.8925,550.0375,1063.5461,553.26,1054.2394" style="stroke:#181818;stroke-width:1;"/></g><!--link Direction to UC15--><g id="link_Direction_UC15"><path d="M88.39,849.7994 C119.05,843.7494 164.1037,834.8419 203.2437,827.1119 " fill="none" id="Direction-to-UC15" style="stroke:#181818;stroke-width:1;"/><polygon fill="#181818" points="209.13,825.9494,199.5255,823.769,204.2247,826.9181,201.0756,831.6174,209.13,825.9494" style="stroke:#181818;stroke-width:1;"/></g><!--link Direction to UC16--><g id="link_Direction_UC16"><path d="M88.39,859.3594 C115.18,863.5994 151.5234,869.3435 187.8734,875.0835 " fill="none" id="Direction-to-UC16" style="stroke:#181818;stroke-width:1;"/><polygon fill="#181818" points="193.8,876.0194,185.5341,870.6645,188.8612,875.2395,184.2862,878.5666,193.8,876.0194" style="stroke:#181818;stroke-width:1;"/></g><!--link UC1 to UC6--><g id="link_UC1_UC6"><path d="M309.88,713.8594 C323.71,706.5794 338.81,698.0194 352,689.1094 C431.61,635.4094 511.9519,561.8933 546.7619,528.9533 " fill="none" id="UC1-to-UC6" style="stroke:#181818;stroke-width:1;stroke-dasharray:7.0,7.0;"/><polygon fill="#181818" points="551.12,524.8294,541.8336,528.1099,547.4883,528.266,547.3322,533.9207,551.12,524.8294" style="stroke:#181818;stroke-width:1;"/><text fill="#000000" font-family="sans-serif" font-size="13" lengthAdjust="spacing" textLength="55.6563" x="383" y="621.6045">&#171;include&#187;</text></g><!--link UC2 to UC7--><g id="link_UC2_UC7"><path d="M303.88,426.7994 C359.79,407.1394 458.4998,372.4399 517.7598,351.5999 " fill="none" id="UC2-to-UC7" style="stroke:#181818;stroke-width:1;stroke-dasharray:7.0,7.0;"/><polygon fill="#181818" points="523.42,349.6094,513.6027,348.8217,518.7032,351.2681,516.2567,356.3686,523.42,349.6094" style="stroke:#181818;stroke-width:1;"/><text fill="#000000" font-family="sans-serif" font-size="13" lengthAdjust="spacing" textLength="55.6563" x="383" y="377.6045">&#171;include&#187;</text></g><!--link UC3 to UC6--><g id="link_UC3_UC6"><path d="M340.14,509.1094 C389.48,509.1094 447.74,509.1094 495.35,509.1094 " fill="none" id="UC3-to-UC6" style="stroke:#181818;stroke-width:1;stroke-dasharray:7.0,7.0;"/><polygon fill="#181818" points="501.35,509.1094,492.35,505.1094,496.35,509.1094,492.35,513.1094,501.35,509.1094" style="stroke:#181818;stroke-width:1;"/><text fill="#000000" font-family="sans-serif" font-size="13" lengthAdjust="spacing" textLength="55.6563" x="383" y="505.6045">&#171;include&#187;</text></g><!--link UC11 to UC12--><g id="link_UC11_UC12"><path d="M325.57,1023.2794 C380.65,1010.4894 455.9154,993.0163 508.7654,980.7463 " fill="none" id="UC11-to-UC12" style="stroke:#181818;stroke-width:1;stroke-dasharray:7.0,7.0;"/><polygon fill="#181818" points="514.61,979.3894,504.9386,977.5284,509.7395,980.5201,506.7478,985.3211,514.61,979.3894" style="stroke:#181818;stroke-width:1;"/><text fill="#000000" font-family="sans-serif" font-size="13" lengthAdjust="spacing" textLength="55.6563" x="383" y="994.6045">&#171;include&#187;</text></g><!--link UC11 to UC14--><g id="link_UC11_UC14"><path d="M350.79,1037.3994 C396.94,1037.5494 447.37,1037.7202 491.08,1037.8602 " fill="none" id="UC11-to-UC14" style="stroke:#181818;stroke-width:1;stroke-dasharray:7.0,7.0;"/><polygon fill="#181818" points="497.08,1037.8794,488.0929,1033.8506,492.08,1037.8634,488.0672,1041.8505,497.08,1037.8794" style="stroke:#181818;stroke-width:1;"/><text fill="#000000" font-family="sans-serif" font-size="13" lengthAdjust="spacing" textLength="55.6563" x="383" y="1034.6045">&#171;include&#187;</text></g><!--link UC13 to GMN53--><g id="link_UC13_GMN53"><path d="M323.76,947.0994 C334.79,941.6294 345.05,934.1894 352,924.1094 C387.94,871.9994 364.21,415.8694 382,355.1094 C403.98,280.0394 414.11,257.8394 469,202.1094 C483.48,187.4094 502.45,175.0794 519.88,165.6194 " fill="none" id="UC13-GMN53" style="stroke:#181818;stroke-width:1;stroke-dasharray:7.0,7.0;"/></g><!--link UC15 to GMN56--><g id="link_UC15_GMN56"><path d="M319.72,803.9194 C332.24,798.7394 344.19,791.1694 352,780.1094 C394.04,720.6094 337.66,182.9194 382,125.1094 C402.77,98.0294 436.03,83.1294 468.68,75.0194 " fill="none" id="UC15-GMN56" style="stroke:#181818;stroke-width:1;stroke-dasharray:7.0,7.0;"/></g><!--SRC=[dLJBZjCm5DtdAwww0g6EIDyp6etKISjGCOYgdSvgDcvwfxLmxSXn2WYnPC6U9H9RAhRyGVw4B-0Jk4wJJfoMMR2fUdpEFJxNyRNXHY3COeI0qKyTfgWtF2GeE4e3WqIZWVIBmD1e7dAJRZrFuBq1eq3pvSh0WciYkPAUnqAZDDHsjJLWSMxpG30Ityad_JZciM7IuDDSPeb2TiNIdqIIxWR3bQHjKSAqVxlJNZ4aij0EYjqpRl2GnVvXSadTrToUQl3H0qXY36t7jNuKeK0DaKhqdOoqcelqnnepkrdWbwLZZNAX4IQ3svnkbEa1hfbSaDK2DppE5SsoOfhm3TLpwbjlA4eHUnQq72Cb9Td4pF3udeKbMTihwwxIhIQTuU5RDCM6dRBYZLuooMFRdc1IShdCLTsoQe94XYGAimCgd7fbpOrcd5B3cd5H24xBWa2dMskneg_AKHSQ_xaJUP9kcSW27Ja4ttTJhIF1DGJ3oOj-eMXK-fUx8yXE7CYGKkxTdACVgsn3M27Tw7subXCkK39EX5Mz6e_schPpMoGJ7-BZ7yVlU9yyBn-SUlqYkpuERBYmwSAM2zlMouv5ZZikxBgmvy9J5zgli9kROi6lu4O5DokOJce_NCLQ-t2futdq2oSdMM8uW_DpBaEHBF3YWfX6pdGFcEO_QgnTuUSt3ieUk5QrK2g3-HEbxlF1-FFzwo_e1pUpuVKPZ5LiwjpGykzldo4ONLuFp-1bCfz6oa0mUUtHj8DrEVJgLhs6xqCKy0nQlPNh5p1X7mrkvvGkT0nsJCGZrjaLTtEoo9PdS-2Qqzi5QpNd0XypR5ODH-j8qGCyfxB_i6iVxvtUleGQSmp7wXq5lnmTR_ql]--></g></svg>