<svg xmlns="http://www.w3.org/2000/svg" xmlns:xlink="http://www.w3.org/1999/xlink" contentStyleType="text/css" height="1273px" preserveAspectRatio="none" style="width:783px;height:1273px;background:#FFFFFF;" version="1.1" viewBox="0 0 783 1273" width="783px" zoomAndPan="magnify"><title>Processus Prise RDV Maintenance - ACTUEL vs CIBLE</title><defs/><g><text fill="#000000" font-family="sans-serif" font-size="14" font-weight="bold" lengthAdjust="spacing" textLength="365.6611" x="207.2469" y="34.5332">Processus Prise RDV Maintenance - ACTUEL vs CIBLE</text><ellipse cx="399.304" cy="58.6094" fill="#222222" rx="10" ry="10" style="stroke:#222222;stroke-width:1;"/><rect fill="#555555" height="6" rx="2.5" ry="2.5" style="stroke:#555555;stroke-width:1;" width="761.155" x="11" y="88.6094"/><rect fill="#F08080" height="1089.9375" style="stroke:#000000;stroke-width:1.5;" width="384.7568" x="23" y="104.6094"/><path d="M146.5928,104.6094 L146.5928,115.2188 L136.5928,125.2188 L23,125.2188 " fill="none" style="stroke:#000000;stroke-width:1.5;"/><text fill="#000000" font-family="sans-serif" font-size="14" lengthAdjust="spacing" textLength="113.5928" x="26" y="120.1426">ACTUEL - Manuel</text><rect fill="#F1F1F1" height="35.0938" rx="12.5" ry="12.5" style="stroke:#181818;stroke-width:0.5;" width="128.0527" x="169.3198" y="142.2188"/><text fill="#000000" font-family="sans-serif" font-size="12" lengthAdjust="spacing" textLength="108.0527" x="179.3198" y="164.6758">Client souhaite RDV</text><rect fill="#F1F1F1" height="50.1875" rx="12.5" ry="12.5" style="stroke:#181818;stroke-width:0.5;" width="131.4043" x="167.644" y="197.3125"/><text fill="#FF0000" font-family="sans-serif" font-size="12" lengthAdjust="spacing" textLength="90.0586" x="177.644" y="219.7695">Appelle Clothilde</text><text fill="#000000" font-family="sans-serif" font-size="12" lengthAdjust="spacing" textLength="111.4043" x="177.644" y="234.8633">(8h-18h uniquement)</text><rect fill="#F1F1F1" height="35.0938" rx="12.5" ry="12.5" style="stroke:#181818;stroke-width:0.5;" width="119.3926" x="173.6499" y="282.5"/><text fill="#FF0000" font-family="sans-serif" font-size="12" lengthAdjust="spacing" textLength="99.3926" x="183.6499" y="304.957">Clothilde decroche</text><rect fill="#F1F1F1" height="50.1875" rx="12.5" ry="12.5" style="stroke:#181818;stroke-width:0.5;" width="142.0566" x="162.3179" y="349.4453"/><text fill="#FF0000" font-family="sans-serif" font-size="12" lengthAdjust="spacing" textLength="122.0566" x="172.3179" y="371.9023">Recherche client Excel</text><text fill="#000000" font-family="sans-serif" font-size="12" lengthAdjust="spacing" textLength="37.3359" x="172.3179" y="386.9961">(2 min)</text><rect fill="#F1F1F1" height="50.1875" rx="12.5" ry="12.5" style="stroke:#181818;stroke-width:0.5;" width="126.0371" x="170.3276" y="431.4844"/><text fill="#FF0000" font-family="sans-serif" font-size="12" lengthAdjust="spacing" textLength="106.0371" x="180.3276" y="453.9414">Verifie contrat Word</text><text fill="#000000" font-family="sans-serif" font-size="12" lengthAdjust="spacing" textLength="37.3359" x="180.3276" y="469.0352">(2 min)</text><rect fill="#F1F1F1" height="50.1875" rx="12.5" ry="12.5" style="stroke:#181818;stroke-width:0.5;" width="160.7598" x="152.9663" y="516.6719"/><text fill="#FF0000" font-family="sans-serif" font-size="12" lengthAdjust="spacing" textLength="140.7598" x="162.9663" y="539.1289">Consulte planning Outlook</text><text fill="#000000" font-family="sans-serif" font-size="12" lengthAdjust="spacing" textLength="37.3359" x="162.9663" y="554.2227">(3 min)</text><polygon fill="#F1F1F1" points="192.9851,601.8594,273.7073,601.8594,285.7073,613.8594,273.7073,625.8594,192.9851,625.8594,180.9851,613.8594,192.9851,601.8594" style="stroke:#181818;stroke-width:0.5;"/><text fill="#000000" font-family="sans-serif" font-size="11" lengthAdjust="spacing" textLength="80.7222" x="192.9851" y="618.3604">Creneau dispo ?</text><text fill="#000000" font-family="sans-serif" font-size="11" lengthAdjust="spacing" textLength="14.6792" x="166.3059" y="611.4424">oui</text><text fill="#000000" font-family="sans-serif" font-size="11" lengthAdjust="spacing" textLength="18.353" x="285.7073" y="611.4424">non</text><rect fill="#F1F1F1" height="35.0938" rx="12.5" ry="12.5" style="stroke:#181818;stroke-width:0.5;" width="111.3945" x="100.9463" y="635.8594"/><text fill="#FF0000" font-family="sans-serif" font-size="12" lengthAdjust="spacing" textLength="91.3945" x="110.9463" y="658.3164">Propose creneau</text><rect fill="#F1F1F1" height="50.1875" rx="12.5" ry="12.5" style="stroke:#181818;stroke-width:0.5;" width="155.416" x="232.3408" y="635.8594"/><text fill="#FF0000" font-family="sans-serif" font-size="12" lengthAdjust="spacing" textLength="135.416" x="242.3408" y="658.3164">Recherche autre creneau</text><text fill="#000000" font-family="sans-serif" font-size="12" lengthAdjust="spacing" textLength="37.3359" x="242.3408" y="673.4102">(5 min)</text><polygon fill="#F1F1F1" points="233.3462,692.0469,245.3462,704.0469,233.3462,716.0469,221.3462,704.0469,233.3462,692.0469" style="stroke:#181818;stroke-width:0.5;"/><rect fill="#F1F1F1" height="35.0938" rx="12.5" ry="12.5" style="stroke:#181818;stroke-width:0.5;" width="96.043" x="185.3247" y="751.0469"/><text fill="#FF0000" font-family="sans-serif" font-size="12" lengthAdjust="spacing" textLength="76.043" x="195.3247" y="773.5039">Client accepte</text><rect fill="#F1F1F1" height="35.0938" rx="12.5" ry="12.5" style="stroke:#181818;stroke-width:0.5;" width="138.043" x="164.3247" y="821.1406"/><text fill="#FF0000" font-family="sans-serif" font-size="12" lengthAdjust="spacing" textLength="77.373" x="174.3247" y="843.5977">Saisie Outlook</text><text fill="#000000" font-family="sans-serif" font-size="12" lengthAdjust="spacing" textLength="37.3359" x="255.0317" y="843.5977">(2 min)</text><rect fill="#F1F1F1" height="35.0938" rx="12.5" ry="12.5" style="stroke:#181818;stroke-width:0.5;" width="126.0313" x="170.3306" y="891.2344"/><text fill="#FF0000" font-family="sans-serif" font-size="12" lengthAdjust="spacing" textLength="65.3613" x="180.3306" y="913.6914">Saisie Excel</text><text fill="#000000" font-family="sans-serif" font-size="12" lengthAdjust="spacing" textLength="37.3359" x="249.0259" y="913.6914">(1 min)</text><rect fill="#F1F1F1" height="35.0938" rx="12.5" ry="12.5" style="stroke:#181818;stroke-width:0.5;" width="123.3594" x="171.6665" y="957.1797"/><text fill="#FF0000" font-family="sans-serif" font-size="12" lengthAdjust="spacing" textLength="62.6895" x="181.6665" y="979.6367">Saisie GAO</text><text fill="#000000" font-family="sans-serif" font-size="12" lengthAdjust="spacing" textLength="37.3359" x="247.6899" y="979.6367">(2 min)</text><rect fill="#F1F1F1" height="50.1875" rx="12.5" ry="12.5" style="stroke:#181818;stroke-width:0.5;" width="118.7012" x="173.9956" y="1027.2734"/><text fill="#FF0000" font-family="sans-serif" font-size="12" lengthAdjust="spacing" textLength="98.7012" x="183.9956" y="1049.7305">Email confirmation</text><text fill="#000000" font-family="sans-serif" font-size="12" lengthAdjust="spacing" textLength="37.3359" x="183.9956" y="1064.8242">(5 min)</text><path d="M33,1090.7891 L33,1182.5469 A0,0 0 0 0 33,1182.5469 L166.0044,1182.5469 A0,0 0 0 0 166.0044,1182.5469 L166.0044,1140.668 L186.0044,1136.668 L166.0044,1132.668 L166.0044,1100.7891 L156.0044,1090.7891 L33,1090.7891 A0,0 0 0 0 33,1090.7891 " fill="#FEFFDD" style="stroke:#181818;stroke-width:0.5;"/><path d="M156.0044,1090.7891 L156.0044,1100.7891 L166.0044,1100.7891 L156.0044,1090.7891 " fill="#FEFFDD" style="stroke:#181818;stroke-width:0.5;"/><text fill="#000000" font-family="sans-serif" font-size="13" font-weight="bold" lengthAdjust="spacing" textLength="101.8418" x="39" y="1109.2842">ACTUEL: 19 min</text><text fill="#000000" font-family="sans-serif" font-size="13" lengthAdjust="spacing" textLength="112.0044" x="39" y="1125.6357">Client attend: 8 min</text><text fill="#000000" font-family="sans-serif" font-size="13" lengthAdjust="spacing" textLength="96.8271" x="39" y="1141.9873">Clothilde: 19 min</text><text fill="#000000" font-family="sans-serif" font-size="13" lengthAdjust="spacing" textLength="69.3545" x="39" y="1158.3389">Triple saisie</text><text fill="#000000" font-family="sans-serif" font-size="13" lengthAdjust="spacing" textLength="77.3271" x="39" y="1174.6904">Dispo 8h-18h</text><rect fill="#F1F1F1" height="35.0938" rx="12.5" ry="12.5" style="stroke:#181818;stroke-width:0.5;" width="94.6836" x="186.0044" y="1119.1211"/><text fill="#FF0000" font-family="sans-serif" font-size="12" lengthAdjust="spacing" textLength="74.6836" x="196.0044" y="1141.5781">RDV confirme</text><rect fill="#90EE90" height="847.75" style="stroke:#000000;stroke-width:1.5;" width="339.8511" x="420.304" y="233.0391"/><path d="M553.2483,233.0391 L553.2483,243.6484 L543.2483,253.6484 L420.304,253.6484 " fill="none" style="stroke:#000000;stroke-width:1.5;"/><text fill="#000000" font-family="sans-serif" font-size="14" lengthAdjust="spacing" textLength="122.9443" x="423.304" y="248.5723">CIBLE - Digital 24/7</text><rect fill="#F1F1F1" height="35.0938" rx="12.5" ry="12.5" style="stroke:#181818;stroke-width:0.5;" width="128.0527" x="449.6516" y="270.6484"/><text fill="#000000" font-family="sans-serif" font-size="12" lengthAdjust="spacing" textLength="108.0527" x="459.6516" y="293.1055">Client souhaite RDV</text><rect fill="#F1F1F1" height="50.1875" rx="12.5" ry="12.5" style="stroke:#181818;stroke-width:0.5;" width="148.0801" x="439.6379" y="337.5938"/><text fill="#008000" font-family="sans-serif" font-size="12" lengthAdjust="spacing" textLength="128.0801" x="449.6379" y="360.0508">Se connecte portail web</text><text fill="#000000" font-family="sans-serif" font-size="12" lengthAdjust="spacing" textLength="71.3613" x="449.6379" y="375.1445">(20h30 - soir)</text><rect fill="#F1F1F1" height="35.0938" rx="12.5" ry="12.5" style="stroke:#181818;stroke-width:0.5;" width="157.4082" x="434.9739" y="419.6328"/><text fill="#008000" font-family="sans-serif" font-size="12" lengthAdjust="spacing" textLength="137.4082" x="444.9739" y="442.0898">Selectionne Prendre RDV</text><rect fill="#F1F1F1" height="50.1875" rx="12.5" ry="12.5" style="stroke:#181818;stroke-width:0.5;" width="166.748" x="430.304" y="489.7266"/><text fill="#008000" font-family="sans-serif" font-size="12" lengthAdjust="spacing" textLength="146.748" x="440.304" y="512.1836">Calendrier affiche creneaux</text><text fill="#000000" font-family="sans-serif" font-size="12" lengthAdjust="spacing" textLength="87.3984" x="440.304" y="527.2773">dispos zone geo</text><rect fill="#F1F1F1" height="50.1875" rx="12.5" ry="12.5" style="stroke:#181818;stroke-width:0.5;" width="103.3789" x="461.9885" y="574.9141"/><text fill="#008000" font-family="sans-serif" font-size="12" lengthAdjust="spacing" textLength="83.3789" x="471.9885" y="597.3711">Choisit creneau</text><text fill="#000000" font-family="sans-serif" font-size="12" lengthAdjust="spacing" textLength="41.332" x="471.9885" y="612.4648">(2 clics)</text><rect fill="#F1F1F1" height="35.0938" rx="12.5" ry="12.5" style="stroke:#181818;stroke-width:0.5;" width="114.7168" x="456.3196" y="660.1016"/><text fill="#008000" font-family="sans-serif" font-size="12" lengthAdjust="spacing" textLength="94.7168" x="466.3196" y="682.5586">Confirmation auto</text><rect fill="#F1F1F1" height="35.0938" rx="12.5" ry="12.5" style="stroke:#181818;stroke-width:0.5;" width="146.3809" x="440.4875" y="730.1953"/><text fill="#008000" font-family="sans-serif" font-size="12" lengthAdjust="spacing" textLength="126.3809" x="450.4875" y="752.6523">Email + SMS rappel J-2</text><rect fill="#F1F1F1" height="35.0938" rx="12.5" ry="12.5" style="stroke:#181818;stroke-width:0.5;" width="132.7227" x="447.3167" y="800.2891"/><text fill="#008000" font-family="sans-serif" font-size="12" lengthAdjust="spacing" textLength="112.7227" x="457.3167" y="822.7461">Clothilde recoit alerte</text><rect fill="#F1F1F1" height="35.0938" rx="12.5" ry="12.5" style="stroke:#181818;stroke-width:0.5;" width="122.6973" x="452.3293" y="870.3828"/><text fill="#008000" font-family="sans-serif" font-size="12" lengthAdjust="spacing" textLength="62.0273" x="462.3293" y="892.8398">Valide RDV</text><text fill="#000000" font-family="sans-serif" font-size="12" lengthAdjust="spacing" textLength="37.3359" x="527.6907" y="892.8398">(2 min)</text><path d="M581.0198,936.3281 L581.0198,994.5586 L561.0198,998.5586 L581.0198,1002.5586 L581.0198,1060.7891 A0,0 0 0 0 581.0198,1060.7891 L750.155,1060.7891 A0,0 0 0 0 750.155,1060.7891 L750.155,946.3281 L740.155,936.3281 L581.0198,936.3281 A0,0 0 0 0 581.0198,936.3281 " fill="#FEFFDD" style="stroke:#181818;stroke-width:0.5;"/><path d="M740.155,936.3281 L740.155,946.3281 L750.155,946.3281 L740.155,936.3281 " fill="#FEFFDD" style="stroke:#181818;stroke-width:0.5;"/><text fill="#000000" font-family="sans-serif" font-size="13" font-weight="bold" lengthAdjust="spacing" textLength="80.8945" x="587.0198" y="954.8232">CIBLE: 3 min</text><text fill="#000000" font-family="sans-serif" font-size="13" lengthAdjust="spacing" textLength="133.6816" x="587.0198" y="971.1748">Client: 1 min autonome</text><text fill="#000000" font-family="sans-serif" font-size="13" lengthAdjust="spacing" textLength="148.1353" x="587.0198" y="987.5264">Clothilde: 2 min validation</text><text fill="#000000" font-family="sans-serif" font-size="13" lengthAdjust="spacing" textLength="81.6372" x="587.0198" y="1003.8779">Zero ressaisie</text><text fill="#000000" font-family="sans-serif" font-size="13" lengthAdjust="spacing" textLength="62.1499" x="587.0198" y="1020.2295">Dispo 24/7</text><text fill="#000000" font-family="sans-serif" font-size="13" font-weight="bold" lengthAdjust="spacing" textLength="145.2153" x="587.0198" y="1036.5811">GAIN: 17min x 600 RDV</text><text fill="#000000" font-family="sans-serif" font-size="13" font-weight="bold" lengthAdjust="spacing" textLength="138.0234" x="587.0198" y="1052.9326">= 170h/an = 8,500 EUR</text><rect fill="#F1F1F1" height="35.0938" rx="12.5" ry="12.5" style="stroke:#181818;stroke-width:0.5;" width="94.6836" x="466.3362" y="981.0117"/><text fill="#008000" font-family="sans-serif" font-size="12" lengthAdjust="spacing" textLength="74.6836" x="476.3362" y="1003.4688">RDV confirme</text><rect fill="#555555" height="6" rx="2.5" ry="2.5" style="stroke:#555555;stroke-width:1;" width="761.155" x="11" y="1214.5469"/><ellipse cx="399.304" cy="1251.5469" fill="none" rx="11" ry="11" style="stroke:#222222;stroke-width:1;"/><ellipse cx="399.304" cy="1251.5469" fill="#222222" rx="6" ry="6" style="stroke:#222222;stroke-width:1;"/><line style="stroke:#181818;stroke-width:1;" x1="233.3462" x2="233.3462" y1="177.3125" y2="197.3125"/><polygon fill="#181818" points="229.3462,187.3125,233.3462,197.3125,237.3462,187.3125,233.3462,191.3125" style="stroke:#181818;stroke-width:1;"/><line style="stroke:#181818;stroke-width:1;" x1="233.3462" x2="233.3462" y1="247.5" y2="282.5"/><polygon fill="#181818" points="229.3462,272.5,233.3462,282.5,237.3462,272.5,233.3462,276.5" style="stroke:#181818;stroke-width:1;"/><line style="stroke:#181818;stroke-width:1;" x1="233.3462" x2="233.3462" y1="317.5938" y2="349.4453"/><polygon fill="#181818" points="229.3462,339.4453,233.3462,349.4453,237.3462,339.4453,233.3462,343.4453" style="stroke:#181818;stroke-width:1;"/><line style="stroke:#181818;stroke-width:1;" x1="233.3462" x2="233.3462" y1="399.6328" y2="431.4844"/><polygon fill="#181818" points="229.3462,421.4844,233.3462,431.4844,237.3462,421.4844,233.3462,425.4844" style="stroke:#181818;stroke-width:1;"/><line style="stroke:#181818;stroke-width:1;" x1="233.3462" x2="233.3462" y1="481.6719" y2="516.6719"/><polygon fill="#181818" points="229.3462,506.6719,233.3462,516.6719,237.3462,506.6719,233.3462,510.6719" style="stroke:#181818;stroke-width:1;"/><line style="stroke:#181818;stroke-width:1;" x1="180.9851" x2="156.6436" y1="613.8594" y2="613.8594"/><line style="stroke:#181818;stroke-width:1;" x1="156.6436" x2="156.6436" y1="613.8594" y2="635.8594"/><polygon fill="#181818" points="152.6436,625.8594,156.6436,635.8594,160.6436,625.8594,156.6436,629.8594" style="stroke:#181818;stroke-width:1;"/><line style="stroke:#181818;stroke-width:1;" x1="285.7073" x2="310.0488" y1="613.8594" y2="613.8594"/><line style="stroke:#181818;stroke-width:1;" x1="310.0488" x2="310.0488" y1="613.8594" y2="635.8594"/><polygon fill="#181818" points="306.0488,625.8594,310.0488,635.8594,314.0488,625.8594,310.0488,629.8594" style="stroke:#181818;stroke-width:1;"/><line style="stroke:#181818;stroke-width:1;" x1="156.6436" x2="156.6436" y1="670.9531" y2="704.0469"/><line style="stroke:#181818;stroke-width:1;" x1="156.6436" x2="221.3462" y1="704.0469" y2="704.0469"/><polygon fill="#181818" points="211.3462,700.0469,221.3462,704.0469,211.3462,708.0469,215.3462,704.0469" style="stroke:#181818;stroke-width:1;"/><line style="stroke:#181818;stroke-width:1;" x1="310.0488" x2="310.0488" y1="686.0469" y2="704.0469"/><line style="stroke:#181818;stroke-width:1;" x1="310.0488" x2="245.3462" y1="704.0469" y2="704.0469"/><polygon fill="#181818" points="255.3462,700.0469,245.3462,704.0469,255.3462,708.0469,251.3462,704.0469" style="stroke:#181818;stroke-width:1;"/><line style="stroke:#181818;stroke-width:1;" x1="233.3462" x2="233.3462" y1="566.8594" y2="601.8594"/><polygon fill="#181818" points="229.3462,591.8594,233.3462,601.8594,237.3462,591.8594,233.3462,595.8594" style="stroke:#181818;stroke-width:1;"/><line style="stroke:#181818;stroke-width:1;" x1="233.3462" x2="233.3462" y1="716.0469" y2="751.0469"/><polygon fill="#181818" points="229.3462,741.0469,233.3462,751.0469,237.3462,741.0469,233.3462,745.0469" style="stroke:#181818;stroke-width:1;"/><line style="stroke:#181818;stroke-width:1;" x1="233.3462" x2="233.3462" y1="786.1406" y2="821.1406"/><polygon fill="#181818" points="229.3462,811.1406,233.3462,821.1406,237.3462,811.1406,233.3462,815.1406" style="stroke:#181818;stroke-width:1;"/><line style="stroke:#181818;stroke-width:1;" x1="233.3462" x2="233.3462" y1="856.2344" y2="891.2344"/><polygon fill="#181818" points="229.3462,881.2344,233.3462,891.2344,237.3462,881.2344,233.3462,885.2344" style="stroke:#181818;stroke-width:1;"/><line style="stroke:#181818;stroke-width:1;" x1="233.3462" x2="233.3462" y1="926.3281" y2="957.1797"/><polygon fill="#181818" points="229.3462,947.1797,233.3462,957.1797,237.3462,947.1797,233.3462,951.1797" style="stroke:#181818;stroke-width:1;"/><line style="stroke:#181818;stroke-width:1;" x1="233.3462" x2="233.3462" y1="992.2734" y2="1027.2734"/><polygon fill="#181818" points="229.3462,1017.2734,233.3462,1027.2734,237.3462,1017.2734,233.3462,1021.2734" style="stroke:#181818;stroke-width:1;"/><line style="stroke:#181818;stroke-width:1;" x1="233.3462" x2="233.3462" y1="1077.4609" y2="1119.1211"/><polygon fill="#181818" points="229.3462,1109.1211,233.3462,1119.1211,237.3462,1109.1211,233.3462,1113.1211" style="stroke:#181818;stroke-width:1;"/><line style="stroke:#181818;stroke-width:1;" x1="513.678" x2="513.678" y1="305.7422" y2="337.5938"/><polygon fill="#181818" points="509.678,327.5938,513.678,337.5938,517.678,327.5938,513.678,331.5938" style="stroke:#181818;stroke-width:1;"/><line style="stroke:#181818;stroke-width:1;" x1="513.678" x2="513.678" y1="387.7813" y2="419.6328"/><polygon fill="#181818" points="509.678,409.6328,513.678,419.6328,517.678,409.6328,513.678,413.6328" style="stroke:#181818;stroke-width:1;"/><line style="stroke:#181818;stroke-width:1;" x1="513.678" x2="513.678" y1="454.7266" y2="489.7266"/><polygon fill="#181818" points="509.678,479.7266,513.678,489.7266,517.678,479.7266,513.678,483.7266" style="stroke:#181818;stroke-width:1;"/><line style="stroke:#181818;stroke-width:1;" x1="513.678" x2="513.678" y1="539.9141" y2="574.9141"/><polygon fill="#181818" points="509.678,564.9141,513.678,574.9141,517.678,564.9141,513.678,568.9141" style="stroke:#181818;stroke-width:1;"/><line style="stroke:#181818;stroke-width:1;" x1="513.678" x2="513.678" y1="625.1016" y2="660.1016"/><polygon fill="#181818" points="509.678,650.1016,513.678,660.1016,517.678,650.1016,513.678,654.1016" style="stroke:#181818;stroke-width:1;"/><line style="stroke:#181818;stroke-width:1;" x1="513.678" x2="513.678" y1="695.1953" y2="730.1953"/><polygon fill="#181818" points="509.678,720.1953,513.678,730.1953,517.678,720.1953,513.678,724.1953" style="stroke:#181818;stroke-width:1;"/><line style="stroke:#181818;stroke-width:1;" x1="513.678" x2="513.678" y1="765.2891" y2="800.2891"/><polygon fill="#181818" points="509.678,790.2891,513.678,800.2891,517.678,790.2891,513.678,794.2891" style="stroke:#181818;stroke-width:1;"/><line style="stroke:#181818;stroke-width:1;" x1="513.678" x2="513.678" y1="835.3828" y2="870.3828"/><polygon fill="#181818" points="509.678,860.3828,513.678,870.3828,517.678,860.3828,513.678,864.3828" style="stroke:#181818;stroke-width:1;"/><line style="stroke:#181818;stroke-width:1;" x1="513.678" x2="513.678" y1="905.4766" y2="981.0117"/><polygon fill="#181818" points="509.678,971.0117,513.678,981.0117,517.678,971.0117,513.678,975.0117" style="stroke:#181818;stroke-width:1;"/><line style="stroke:#181818;stroke-width:1;" x1="233.3462" x2="233.3462" y1="94.6094" y2="142.2188"/><polygon fill="#181818" points="229.3462,132.2188,233.3462,142.2188,237.3462,132.2188,233.3462,136.2188" style="stroke:#181818;stroke-width:1;"/><line style="stroke:#181818;stroke-width:1;" x1="513.678" x2="513.678" y1="94.6094" y2="270.6484"/><polygon fill="#181818" points="509.678,260.6484,513.678,270.6484,517.678,260.6484,513.678,264.6484" style="stroke:#181818;stroke-width:1;"/><line style="stroke:#181818;stroke-width:1;" x1="233.3462" x2="233.3462" y1="1154.2148" y2="1214.5469"/><polygon fill="#181818" points="229.3462,1204.5469,233.3462,1214.5469,237.3462,1204.5469,233.3462,1208.5469" style="stroke:#181818;stroke-width:1;"/><line style="stroke:#181818;stroke-width:1;" x1="513.678" x2="513.678" y1="1016.1055" y2="1214.5469"/><polygon fill="#181818" points="509.678,1204.5469,513.678,1214.5469,517.678,1204.5469,513.678,1208.5469" style="stroke:#181818;stroke-width:1;"/><line style="stroke:#181818;stroke-width:1;" x1="399.304" x2="399.304" y1="68.6094" y2="88.6094"/><polygon fill="#181818" points="395.304,78.6094,399.304,88.6094,403.304,78.6094,399.304,82.6094" style="stroke:#181818;stroke-width:1;"/><line style="stroke:#181818;stroke-width:1;" x1="399.304" x2="399.304" y1="1220.5469" y2="1240.5469"/><polygon fill="#181818" points="395.304,1230.5469,399.304,1240.5469,403.304,1230.5469,399.304,1234.5469" style="stroke:#181818;stroke-width:1;"/><!--SRC=[ZLLTJzj047pFhrZHboHjH0Ybf2bGfIP2L50g0bIg-dArr_6AovsvErFKgl-zUsSdE8q9F4IAlJlxCJTpTkGambUZOxIsiFoFBCBbyGsS2r8EbL0nGW_6qTNrv0pkBKIddyuchPPrmhXMAzNcjWMGymCvqWgsgimU5r05oYruTKQpp4NQ20b_E1TW54b2vS3g8XFaGhyFPUGWrbARaS7aQ9pdA7cuI6gNaKpmO3i4ZtwezZ3hxGmpA1JT5JZdMfrr_1872SQyOBOii9vxYHms_8Eu76to4AEiDHp0d5H3aniqb1B3j796EFYcJV82MAILBIHldakX5AaPN1HEQdrRm-vMs02c5DgHGOMYW8Hihk5Z1ro62jgwe4x8MMt1PvfhFikuHAtkZf8ZRQLL4_AH354uirQ1HzkhhOKgeRJLm7xWKSGnvcu3yrD1bldxRtruahagV-LyeBspEVjaVF5yvSbSaFG7cPAP2o_c9pPUuOgTKa5gIuOqfVby9QQkehZRBQqnWfttlbgtMmKML3csMpA2eGykGvM65w3g_PMXdArXmthLk-CWYz8PYvC9G_33ts1K43CHIjJi6kpCRZsc6JbswE3jzlx2ioS6MM0lzUpCPnzDWnSKnbxSsZZFwI_yMVT4FzljSqUhoNIQIqY6aw_2zn5lOKAtPWsLa4X8dqTeGAGf1IENgdrux1nyO-6tvhepr8rrCisCkWR93_pD4Dl6WQEQPhndzAPHIvczXkdv58pmTnnyxWqsBhUyo0p6cgVZPSrJdYeXDq9Iii9Qi-xBxET4RBmObYeEYXd1ReE6MQN-RU10wJckgpWC0VT-l41NbV4TZURjR8EWlI2NlK_6fr-uoRulyW3l-ds_udA8RlUGO_riMoWuXE6RFOvFhY-h-8eT_4FuTl67JEUjVm00]--></g></svg>