<svg xmlns="http://www.w3.org/2000/svg" xmlns:xlink="http://www.w3.org/1999/xlink" contentStyleType="text/css" height="2016px" preserveAspectRatio="none" style="width:1027px;height:2016px;background:#FFFFFF;" version="1.1" viewBox="0 0 1027 2016" width="1027px" zoomAndPan="magnify"><title>Processus Prise RDV Maintenance - ACTUEL vs CIBLE</title><defs/><g><text fill="#000000" font-family="sans-serif" font-size="14" font-weight="bold" lengthAdjust="spacing" textLength="365.6611" x="329.5491" y="34.5332">Processus Prise RDV Maintenance - ACTUEL vs CIBLE</text><rect fill="none" height="22.6406" style="stroke:none;stroke-width:1;" width="994.7593" x="15" y="51.0645"/><ellipse cx="82.3779" cy="88.7051" fill="#222222" rx="10" ry="10" style="stroke:#222222;stroke-width:1;"/><rect fill="#F1F1F1" height="50.1875" rx="12.5" ry="12.5" style="stroke:#181818;stroke-width:0.5;" width="99.3828" x="32.6865" y="118.7051"/><text fill="#000000" font-family="sans-serif" font-size="12" lengthAdjust="spacing" textLength="79.3828" x="42.6865" y="141.1621">Client souhaite</text><text fill="#000000" font-family="sans-serif" font-size="12" lengthAdjust="spacing" textLength="75.3691" x="42.6865" y="156.2559">RDV entretien</text><rect fill="#F1F1F1" height="50.1875" rx="12.5" ry="12.5" style="stroke:#181818;stroke-width:0.5;" width="80.041" x="42.3574" y="714.0176"/><text fill="#000000" font-family="sans-serif" font-size="12" lengthAdjust="spacing" textLength="60.041" x="52.3574" y="736.4746">Accepte ou</text><text fill="#000000" font-family="sans-serif" font-size="12" lengthAdjust="spacing" textLength="42.0352" x="52.3574" y="751.5684">n&#233;gocie</text><rect fill="#F1F1F1" height="50.1875" rx="12.5" ry="12.5" style="stroke:#181818;stroke-width:0.5;" width="86.0234" x="39.3662" y="1080.0488"/><text fill="#000000" font-family="sans-serif" font-size="12" lengthAdjust="spacing" textLength="66.0234" x="49.3662" y="1102.5059">Re&#231;oit email</text><text fill="#000000" font-family="sans-serif" font-size="12" lengthAdjust="spacing" textLength="65.3613" x="49.3662" y="1117.5996">confirmation</text><path d="M113.3779,1140.2363 L113.3779,1182.1152 L93.3779,1186.1152 L113.3779,1190.1152 L113.3779,1231.9941 A0,0 0 0 0 113.3779,1231.9941 L336.6714,1231.9941 A0,0 0 0 0 336.6714,1231.9941 L336.6714,1150.2363 L326.6714,1140.2363 L113.3779,1140.2363 A0,0 0 0 0 113.3779,1140.2363 " fill="#FEFFDD" style="stroke:#181818;stroke-width:0.5;"/><path d="M326.6714,1140.2363 L326.6714,1150.2363 L336.6714,1150.2363 L326.6714,1140.2363 " fill="#FEFFDD" style="stroke:#181818;stroke-width:0.5;"/><text fill="#000000" font-family="sans-serif" font-size="13" font-weight="bold" lengthAdjust="spacing" textLength="144.4536" x="119.3779" y="1158.7314">TEMPS TOTAL : 19 min</text><text fill="#000000" font-family="sans-serif" font-size="13" lengthAdjust="spacing" textLength="115.6162" x="119.3779" y="1175.083">Client attend : 8 min</text><text fill="#000000" font-family="sans-serif" font-size="13" lengthAdjust="spacing" textLength="100.439" x="119.3779" y="1191.4346">Clothilde : 19 min</text><text fill="#000000" font-family="sans-serif" font-size="13" lengthAdjust="spacing" textLength="202.2935" x="119.3779" y="1207.7861">Triple saisie (Outlook+Excel+GAO)</text><text fill="#000000" font-family="sans-serif" font-size="13" lengthAdjust="spacing" textLength="185.7324" x="119.3779" y="1224.1377">Disponibilit&#233; 8h-18h uniquement</text><ellipse cx="82.3779" cy="1186.1152" fill="none" rx="11" ry="11" style="stroke:#222222;stroke-width:1;"/><ellipse cx="82.3779" cy="1186.1152" fill="#222222" rx="6" ry="6" style="stroke:#222222;stroke-width:1;"/><ellipse cx="82.3779" cy="1251.9941" fill="#222222" rx="10" ry="10" style="stroke:#222222;stroke-width:1;"/><rect fill="#F1F1F1" height="65.2813" rx="12.5" ry="12.5" style="stroke:#181818;stroke-width:0.5;" width="91.3613" x="36.6973" y="1281.9941"/><text fill="#000000" font-family="sans-serif" font-size="12" lengthAdjust="spacing" textLength="66.7148" x="46.6973" y="1304.4512">Se connecte</text><text fill="#000000" font-family="sans-serif" font-size="12" lengthAdjust="spacing" textLength="58.0313" x="46.6973" y="1319.5449">portail web</text><text fill="#000000" font-family="sans-serif" font-size="12" lengthAdjust="spacing" textLength="71.3613" x="46.6973" y="1334.6387">(20h30 - soir)</text><rect fill="#F1F1F1" height="50.1875" rx="12.5" ry="12.5" style="stroke:#181818;stroke-width:0.5;" width="99.8809" x="32.4375" y="1367.2754"/><text fill="#000000" font-family="sans-serif" font-size="12" lengthAdjust="spacing" textLength="62.7129" x="42.4375" y="1389.7324">S&#233;lectionne</text><text fill="#000000" font-family="sans-serif" font-size="12" lengthAdjust="spacing" textLength="79.8809" x="42.4375" y="1404.8262">"Prendre RDV"</text><rect fill="#F1F1F1" height="65.2813" rx="12.5" ry="12.5" style="stroke:#181818;stroke-width:0.5;" width="122.7559" x="21" y="1437.4629"/><text fill="#000000" font-family="sans-serif" font-size="12" lengthAdjust="spacing" textLength="94.0488" x="31" y="1459.9199">Calendrier affiche</text><text fill="#000000" font-family="sans-serif" font-size="12" lengthAdjust="spacing" textLength="87.3867" x="31" y="1475.0137">cr&#233;neaux dispos</text><text fill="#000000" font-family="sans-serif" font-size="12" lengthAdjust="spacing" textLength="102.7559" x="31" y="1490.1074">zone g&#233;ographique</text><rect fill="#F1F1F1" height="50.1875" rx="12.5" ry="12.5" style="stroke:#181818;stroke-width:0.5;" width="103.3789" x="30.6885" y="1522.7441"/><text fill="#000000" font-family="sans-serif" font-size="12" lengthAdjust="spacing" textLength="83.3789" x="40.6885" y="1545.2012">Choisit cr&#233;neau</text><text fill="#000000" font-family="sans-serif" font-size="12" lengthAdjust="spacing" textLength="41.332" x="40.6885" y="1560.2949">(2 clics)</text><rect fill="#F1F1F1" height="50.1875" rx="12.5" ry="12.5" style="stroke:#181818;stroke-width:0.5;" width="88.0273" x="38.3643" y="1592.9316"/><text fill="#000000" font-family="sans-serif" font-size="12" lengthAdjust="spacing" textLength="68.0273" x="48.3643" y="1615.3887">Confirmation</text><text fill="#000000" font-family="sans-serif" font-size="12" lengthAdjust="spacing" textLength="66.0469" x="48.3643" y="1630.4824">automatique</text><rect fill="#F1F1F1" height="50.1875" rx="12.5" ry="12.5" style="stroke:#181818;stroke-width:0.5;" width="102.6992" x="31.0283" y="1663.1191"/><text fill="#000000" font-family="sans-serif" font-size="12" lengthAdjust="spacing" textLength="76.3652" x="41.0283" y="1685.5762">Re&#231;oit email +</text><text fill="#000000" font-family="sans-serif" font-size="12" lengthAdjust="spacing" textLength="82.6992" x="41.0283" y="1700.6699">SMS rappel J-2</text><line style="stroke:#000000;stroke-width:1.5;" x1="15" x2="15" y1="51.0645" y2="2004.4941"/><rect fill="#F08080" height="1953.4297" style="stroke:#F08080;stroke-width:1;" width="141.4043" x="341.6714" y="51.0645"/><rect fill="#F1F1F1" height="50.1875" rx="12.5" ry="12.5" style="stroke:#181818;stroke-width:0.5;" width="131.4043" x="347.6714" y="188.8926"/><text fill="#000000" font-family="sans-serif" font-size="12" lengthAdjust="spacing" textLength="90.0586" x="357.6714" y="211.3496">Appelle Clothilde</text><text fill="#000000" font-family="sans-serif" font-size="12" lengthAdjust="spacing" textLength="111.4043" x="357.6714" y="226.4434">(8h-18h uniquement)</text><line style="stroke:#000000;stroke-width:1.5;" x1="341.6714" x2="341.6714" y1="51.0645" y2="2004.4941"/><rect fill="#F1F1F1" height="35.0938" rx="12.5" ry="12.5" style="stroke:#181818;stroke-width:0.5;" width="127.4082" x="546.0967" y="259.0801"/><text fill="#000000" font-family="sans-serif" font-size="12" lengthAdjust="spacing" textLength="107.4082" x="556.0967" y="281.5371">D&#233;croche t&#233;l&#233;phone</text><rect fill="#F1F1F1" height="50.1875" rx="12.5" ry="12.5" style="stroke:#181818;stroke-width:0.5;" width="109.3789" x="555.1113" y="314.1738"/><text fill="#000000" font-family="sans-serif" font-size="12" lengthAdjust="spacing" textLength="89.3789" x="565.1113" y="336.6309">Recherche client</text><text fill="#000000" font-family="sans-serif" font-size="12" lengthAdjust="spacing" textLength="70.0137" x="565.1113" y="351.7246">Excel (2 min)</text><rect fill="#F1F1F1" height="50.1875" rx="12.5" ry="12.5" style="stroke:#181818;stroke-width:0.5;" width="94.0332" x="562.7842" y="384.3613"/><text fill="#000000" font-family="sans-serif" font-size="12" lengthAdjust="spacing" textLength="74.0332" x="572.7842" y="406.8184">V&#233;rifie contrat</text><text fill="#000000" font-family="sans-serif" font-size="12" lengthAdjust="spacing" textLength="69.3398" x="572.7842" y="421.9121">Word (2 min)</text><rect fill="#F1F1F1" height="50.1875" rx="12.5" ry="12.5" style="stroke:#181818;stroke-width:0.5;" width="116.0703" x="551.7656" y="454.5488"/><text fill="#000000" font-family="sans-serif" font-size="12" lengthAdjust="spacing" textLength="96.0703" x="561.7656" y="477.0059">Consulte planning</text><text fill="#000000" font-family="sans-serif" font-size="12" lengthAdjust="spacing" textLength="82.0254" x="561.7656" y="492.0996">Outlook (3 min)</text><polygon fill="#F1F1F1" points="569.4397,524.7363,650.1619,524.7363,662.1619,536.7363,650.1619,548.7363,569.4397,548.7363,557.4397,536.7363,569.4397,524.7363" style="stroke:#181818;stroke-width:0.5;"/><text fill="#000000" font-family="sans-serif" font-size="11" lengthAdjust="spacing" textLength="80.7222" x="569.4397" y="541.2373">Cr&#233;neau dispo ?</text><text fill="#000000" font-family="sans-serif" font-size="11" lengthAdjust="spacing" textLength="14.6792" x="542.7605" y="534.3193">oui</text><text fill="#000000" font-family="sans-serif" font-size="11" lengthAdjust="spacing" textLength="18.353" x="662.1619" y="534.3193">non</text><rect fill="#F1F1F1" height="35.0938" rx="12.5" ry="12.5" style="stroke:#181818;stroke-width:0.5;" width="111.3945" x="489.0757" y="558.7363"/><text fill="#000000" font-family="sans-serif" font-size="12" lengthAdjust="spacing" textLength="91.3945" x="499.0757" y="581.1934">Propose cr&#233;neau</text><rect fill="#F1F1F1" height="50.1875" rx="12.5" ry="12.5" style="stroke:#181818;stroke-width:0.5;" width="108.7168" x="620.4702" y="558.7363"/><text fill="#000000" font-family="sans-serif" font-size="12" lengthAdjust="spacing" textLength="88.7168" x="630.4702" y="581.1934">Recherche autre</text><text fill="#000000" font-family="sans-serif" font-size="12" lengthAdjust="spacing" textLength="84.0352" x="630.4702" y="596.2871">cr&#233;neau (5 min)</text><rect fill="#F1F1F1" height="35.0938" rx="12.5" ry="12.5" style="stroke:#181818;stroke-width:0.5;" width="64.6953" x="642.481" y="628.9238"/><text fill="#000000" font-family="sans-serif" font-size="12" lengthAdjust="spacing" textLength="44.6953" x="652.481" y="651.3809">Propose</text><polygon fill="#F1F1F1" points="609.8008,670.0176,621.8008,682.0176,609.8008,694.0176,597.8008,682.0176,609.8008,670.0176" style="stroke:#181818;stroke-width:0.5;"/><rect fill="#F1F1F1" height="50.1875" rx="12.5" ry="12.5" style="stroke:#181818;stroke-width:0.5;" width="97.373" x="561.1143" y="784.2051"/><text fill="#000000" font-family="sans-serif" font-size="12" lengthAdjust="spacing" textLength="77.373" x="571.1143" y="806.6621">Saisie Outlook</text><text fill="#000000" font-family="sans-serif" font-size="12" lengthAdjust="spacing" textLength="37.3359" x="571.1143" y="821.7559">(2 min)</text><rect fill="#F1F1F1" height="50.1875" rx="12.5" ry="12.5" style="stroke:#181818;stroke-width:0.5;" width="85.3613" x="567.1201" y="854.3926"/><text fill="#000000" font-family="sans-serif" font-size="12" lengthAdjust="spacing" textLength="65.3613" x="577.1201" y="876.8496">Saisie Excel</text><text fill="#000000" font-family="sans-serif" font-size="12" lengthAdjust="spacing" textLength="37.3359" x="577.1201" y="891.9434">(1 min)</text><rect fill="#F1F1F1" height="50.1875" rx="12.5" ry="12.5" style="stroke:#181818;stroke-width:0.5;" width="82.6895" x="568.4561" y="924.5801"/><text fill="#000000" font-family="sans-serif" font-size="12" lengthAdjust="spacing" textLength="62.6895" x="578.4561" y="947.0371">Saisie GAO</text><text fill="#000000" font-family="sans-serif" font-size="12" lengthAdjust="spacing" textLength="37.3359" x="578.4561" y="962.1309">(2 min)</text><rect fill="#F1F1F1" height="65.2813" rx="12.5" ry="12.5" style="stroke:#181818;stroke-width:0.5;" width="106.0449" x="556.7783" y="994.7676"/><text fill="#000000" font-family="sans-serif" font-size="12" lengthAdjust="spacing" textLength="86.0449" x="566.7783" y="1017.2246">R&#233;daction email</text><text fill="#000000" font-family="sans-serif" font-size="12" lengthAdjust="spacing" textLength="65.3613" x="566.7783" y="1032.3184">confirmation</text><text fill="#000000" font-family="sans-serif" font-size="12" lengthAdjust="spacing" textLength="37.3359" x="566.7783" y="1047.4121">(5 min)</text><rect fill="#F1F1F1" height="50.1875" rx="12.5" ry="12.5" style="stroke:#181818;stroke-width:0.5;" width="105.2246" x="557.1885" y="1733.3066"/><text fill="#000000" font-family="sans-serif" font-size="12" lengthAdjust="spacing" textLength="67.3652" x="567.1885" y="1755.7637">Re&#231;oit alerte</text><text fill="#000000" font-family="sans-serif" font-size="12" lengthAdjust="spacing" textLength="85.2246" x="567.1885" y="1770.8574">"Nouveau RDV"</text><rect fill="#F1F1F1" height="50.1875" rx="12.5" ry="12.5" style="stroke:#181818;stroke-width:0.5;" width="82.0273" x="568.7871" y="1803.4941"/><text fill="#000000" font-family="sans-serif" font-size="12" lengthAdjust="spacing" textLength="62.0273" x="578.7871" y="1825.9512">Valide RDV</text><text fill="#000000" font-family="sans-serif" font-size="12" lengthAdjust="spacing" textLength="37.3359" x="578.7871" y="1841.0449">(2 min)</text><path d="M640.8008,1863.6816 L640.8008,1930.0879 L620.8008,1934.0879 L640.8008,1938.0879 L640.8008,2004.4941 A0,0 0 0 0 640.8008,2004.4941 L822.2061,2004.4941 A0,0 0 0 0 822.2061,2004.4941 L822.2061,1873.6816 L812.2061,1863.6816 L640.8008,1863.6816 A0,0 0 0 0 640.8008,1863.6816 " fill="#FEFFDD" style="stroke:#181818;stroke-width:0.5;"/><path d="M812.2061,1863.6816 L812.2061,1873.6816 L822.2061,1873.6816 L812.2061,1863.6816 " fill="#FEFFDD" style="stroke:#181818;stroke-width:0.5;"/><text fill="#000000" font-family="sans-serif" font-size="13" font-weight="bold" lengthAdjust="spacing" textLength="137.2236" x="646.8008" y="1882.1768">TEMPS TOTAL : 3 min</text><text fill="#000000" font-family="sans-serif" font-size="13" lengthAdjust="spacing" textLength="145.9517" x="646.8008" y="1898.5283">Client : 1 min (autonome)</text><text fill="#000000" font-family="sans-serif" font-size="13" lengthAdjust="spacing" textLength="160.4053" x="646.8008" y="1914.8799">Clothilde : 2 min (validation)</text><text fill="#000000" font-family="sans-serif" font-size="13" lengthAdjust="spacing" textLength="81.6372" x="646.8008" y="1931.2314">Z&#233;ro ressaisie</text><text fill="#000000" font-family="sans-serif" font-size="13" lengthAdjust="spacing" textLength="99.0044" x="646.8008" y="1947.583">Disponibilit&#233; 24/7</text><text fill="#000000" font-family="sans-serif" font-size="13" lengthAdjust="spacing" textLength="3.6118" x="646.8008" y="1963.9346">&#160;</text><text fill="#000000" font-family="sans-serif" font-size="13" font-weight="bold" lengthAdjust="spacing" textLength="152.8008" x="646.8008" y="1980.2861">GAIN : 17 min &#215; 600 RDV</text><text fill="#000000" font-family="sans-serif" font-size="13" font-weight="bold" lengthAdjust="spacing" textLength="114.1943" x="646.8008" y="1996.6377">= 170h/an = 8,500&#8364;</text><ellipse cx="609.8008" cy="1934.0879" fill="none" rx="11" ry="11" style="stroke:#222222;stroke-width:1;"/><ellipse cx="609.8008" cy="1934.0879" fill="#222222" rx="6" ry="6" style="stroke:#222222;stroke-width:1;"/><line style="stroke:#000000;stroke-width:1.5;" x1="483.0757" x2="483.0757" y1="51.0645" y2="2004.4941"/><rect fill="#90EE90" height="1953.4297" style="stroke:#90EE90;stroke-width:1;" width="181.0527" x="827.2061" y="51.0645"/><line style="stroke:#000000;stroke-width:1.5;" x1="827.2061" x2="827.2061" y1="51.0645" y2="2004.4941"/><line style="stroke:#000000;stroke-width:1.5;" x1="1008.2588" x2="1008.2588" y1="51.0645" y2="2004.4941"/><line style="stroke:#181818;stroke-width:1;" x1="82.3779" x2="82.3779" y1="98.7051" y2="118.7051"/><polygon fill="#181818" points="78.3779,108.7051,82.3779,118.7051,86.3779,108.7051,82.3779,112.7051" style="stroke:#181818;stroke-width:1;"/><line style="stroke:#181818;stroke-width:1;" x1="82.3779" x2="82.3779" y1="1130.2363" y2="1175.1152"/><polygon fill="#181818" points="78.3779,1165.1152,82.3779,1175.1152,86.3779,1165.1152,82.3779,1169.1152" style="stroke:#181818;stroke-width:1;"/><line style="stroke:#181818;stroke-width:1;" x1="82.3779" x2="82.3779" y1="1261.9941" y2="1281.9941"/><polygon fill="#181818" points="78.3779,1271.9941,82.3779,1281.9941,86.3779,1271.9941,82.3779,1275.9941" style="stroke:#181818;stroke-width:1;"/><line style="stroke:#181818;stroke-width:1;" x1="82.3779" x2="82.3779" y1="1347.2754" y2="1367.2754"/><polygon fill="#181818" points="78.3779,1357.2754,82.3779,1367.2754,86.3779,1357.2754,82.3779,1361.2754" style="stroke:#181818;stroke-width:1;"/><line style="stroke:#181818;stroke-width:1;" x1="82.3779" x2="82.3779" y1="1417.4629" y2="1437.4629"/><polygon fill="#181818" points="78.3779,1427.4629,82.3779,1437.4629,86.3779,1427.4629,82.3779,1431.4629" style="stroke:#181818;stroke-width:1;"/><line style="stroke:#181818;stroke-width:1;" x1="82.3779" x2="82.3779" y1="1502.7441" y2="1522.7441"/><polygon fill="#181818" points="78.3779,1512.7441,82.3779,1522.7441,86.3779,1512.7441,82.3779,1516.7441" style="stroke:#181818;stroke-width:1;"/><line style="stroke:#181818;stroke-width:1;" x1="82.3779" x2="82.3779" y1="1572.9316" y2="1592.9316"/><polygon fill="#181818" points="78.3779,1582.9316,82.3779,1592.9316,86.3779,1582.9316,82.3779,1586.9316" style="stroke:#181818;stroke-width:1;"/><line style="stroke:#181818;stroke-width:1;" x1="82.3779" x2="82.3779" y1="1643.1191" y2="1663.1191"/><polygon fill="#181818" points="78.3779,1653.1191,82.3779,1663.1191,86.3779,1653.1191,82.3779,1657.1191" style="stroke:#181818;stroke-width:1;"/><line style="stroke:#181818;stroke-width:1;" x1="609.8008" x2="609.8008" y1="294.1738" y2="314.1738"/><polygon fill="#181818" points="605.8008,304.1738,609.8008,314.1738,613.8008,304.1738,609.8008,308.1738" style="stroke:#181818;stroke-width:1;"/><line style="stroke:#181818;stroke-width:1;" x1="609.8008" x2="609.8008" y1="364.3613" y2="384.3613"/><polygon fill="#181818" points="605.8008,374.3613,609.8008,384.3613,613.8008,374.3613,609.8008,378.3613" style="stroke:#181818;stroke-width:1;"/><line style="stroke:#181818;stroke-width:1;" x1="609.8008" x2="609.8008" y1="434.5488" y2="454.5488"/><polygon fill="#181818" points="605.8008,444.5488,609.8008,454.5488,613.8008,444.5488,609.8008,448.5488" style="stroke:#181818;stroke-width:1;"/><line style="stroke:#181818;stroke-width:1;" x1="674.8286" x2="674.8286" y1="608.9238" y2="628.9238"/><polygon fill="#181818" points="670.8286,618.9238,674.8286,628.9238,678.8286,618.9238,674.8286,622.9238" style="stroke:#181818;stroke-width:1;"/><line style="stroke:#181818;stroke-width:1;" x1="557.4397" x2="544.7729" y1="536.7363" y2="536.7363"/><line style="stroke:#181818;stroke-width:1;" x1="544.7729" x2="544.7729" y1="536.7363" y2="558.7363"/><polygon fill="#181818" points="540.7729,548.7363,544.7729,558.7363,548.7729,548.7363,544.7729,552.7363" style="stroke:#181818;stroke-width:1;"/><line style="stroke:#181818;stroke-width:1;" x1="662.1619" x2="674.8286" y1="536.7363" y2="536.7363"/><line style="stroke:#181818;stroke-width:1;" x1="674.8286" x2="674.8286" y1="536.7363" y2="558.7363"/><polygon fill="#181818" points="670.8286,548.7363,674.8286,558.7363,678.8286,548.7363,674.8286,552.7363" style="stroke:#181818;stroke-width:1;"/><line style="stroke:#181818;stroke-width:1;" x1="544.7729" x2="544.7729" y1="593.8301" y2="682.0176"/><line style="stroke:#181818;stroke-width:1;" x1="544.7729" x2="597.8008" y1="682.0176" y2="682.0176"/><polygon fill="#181818" points="587.8008,678.0176,597.8008,682.0176,587.8008,686.0176,591.8008,682.0176" style="stroke:#181818;stroke-width:1;"/><line style="stroke:#181818;stroke-width:1;" x1="674.8286" x2="674.8286" y1="664.0176" y2="682.0176"/><line style="stroke:#181818;stroke-width:1;" x1="674.8286" x2="621.8008" y1="682.0176" y2="682.0176"/><polygon fill="#181818" points="631.8008,678.0176,621.8008,682.0176,631.8008,686.0176,627.8008,682.0176" style="stroke:#181818;stroke-width:1;"/><line style="stroke:#181818;stroke-width:1;" x1="609.8008" x2="609.8008" y1="504.7363" y2="524.7363"/><polygon fill="#181818" points="605.8008,514.7363,609.8008,524.7363,613.8008,514.7363,609.8008,518.7363" style="stroke:#181818;stroke-width:1;"/><line style="stroke:#181818;stroke-width:1;" x1="609.8008" x2="609.8008" y1="834.3926" y2="854.3926"/><polygon fill="#181818" points="605.8008,844.3926,609.8008,854.3926,613.8008,844.3926,609.8008,848.3926" style="stroke:#181818;stroke-width:1;"/><line style="stroke:#181818;stroke-width:1;" x1="609.8008" x2="609.8008" y1="904.5801" y2="924.5801"/><polygon fill="#181818" points="605.8008,914.5801,609.8008,924.5801,613.8008,914.5801,609.8008,918.5801" style="stroke:#181818;stroke-width:1;"/><line style="stroke:#181818;stroke-width:1;" x1="609.8008" x2="609.8008" y1="974.7676" y2="994.7676"/><polygon fill="#181818" points="605.8008,984.7676,609.8008,994.7676,613.8008,984.7676,609.8008,988.7676" style="stroke:#181818;stroke-width:1;"/><line style="stroke:#181818;stroke-width:1;" x1="609.8008" x2="609.8008" y1="1783.4941" y2="1803.4941"/><polygon fill="#181818" points="605.8008,1793.4941,609.8008,1803.4941,613.8008,1793.4941,609.8008,1797.4941" style="stroke:#181818;stroke-width:1;"/><line style="stroke:#181818;stroke-width:1;" x1="609.8008" x2="609.8008" y1="1853.6816" y2="1923.0879"/><polygon fill="#181818" points="605.8008,1913.0879,609.8008,1923.0879,613.8008,1913.0879,609.8008,1917.0879" style="stroke:#181818;stroke-width:1;"/><line style="stroke:#181818;stroke-width:1;" x1="82.3779" x2="82.3779" y1="168.8926" y2="173.8926"/><line style="stroke:#181818;stroke-width:1;" x1="82.3779" x2="413.3735" y1="173.8926" y2="173.8926"/><line style="stroke:#181818;stroke-width:1;" x1="413.3735" x2="413.3735" y1="173.8926" y2="188.8926"/><polygon fill="#181818" points="409.3735,178.8926,413.3735,188.8926,417.3735,178.8926,413.3735,182.8926" style="stroke:#181818;stroke-width:1;"/><line style="stroke:#181818;stroke-width:1;" x1="413.3735" x2="413.3735" y1="239.0801" y2="244.0801"/><line style="stroke:#181818;stroke-width:1;" x1="413.3735" x2="609.8008" y1="244.0801" y2="244.0801"/><line style="stroke:#181818;stroke-width:1;" x1="609.8008" x2="609.8008" y1="244.0801" y2="259.0801"/><polygon fill="#181818" points="605.8008,249.0801,609.8008,259.0801,613.8008,249.0801,609.8008,253.0801" style="stroke:#181818;stroke-width:1;"/><line style="stroke:#181818;stroke-width:1;" x1="609.8008" x2="609.8008" y1="694.0176" y2="699.0176"/><line style="stroke:#181818;stroke-width:1;" x1="609.8008" x2="82.3779" y1="699.0176" y2="699.0176"/><line style="stroke:#181818;stroke-width:1;" x1="82.3779" x2="82.3779" y1="699.0176" y2="714.0176"/><polygon fill="#181818" points="78.3779,704.0176,82.3779,714.0176,86.3779,704.0176,82.3779,708.0176" style="stroke:#181818;stroke-width:1;"/><line style="stroke:#181818;stroke-width:1;" x1="82.3779" x2="82.3779" y1="764.2051" y2="769.2051"/><line style="stroke:#181818;stroke-width:1;" x1="82.3779" x2="609.8008" y1="769.2051" y2="769.2051"/><line style="stroke:#181818;stroke-width:1;" x1="609.8008" x2="609.8008" y1="769.2051" y2="784.2051"/><polygon fill="#181818" points="605.8008,774.2051,609.8008,784.2051,613.8008,774.2051,609.8008,778.2051" style="stroke:#181818;stroke-width:1;"/><line style="stroke:#181818;stroke-width:1;" x1="609.8008" x2="609.8008" y1="1060.0488" y2="1065.0488"/><line style="stroke:#181818;stroke-width:1;" x1="609.8008" x2="82.3779" y1="1065.0488" y2="1065.0488"/><line style="stroke:#181818;stroke-width:1;" x1="82.3779" x2="82.3779" y1="1065.0488" y2="1080.0488"/><polygon fill="#181818" points="78.3779,1070.0488,82.3779,1080.0488,86.3779,1070.0488,82.3779,1074.0488" style="stroke:#181818;stroke-width:1;"/><line style="stroke:#181818;stroke-width:1;" x1="82.3779" x2="82.3779" y1="1713.3066" y2="1718.3066"/><line style="stroke:#181818;stroke-width:1;" x1="82.3779" x2="609.8008" y1="1718.3066" y2="1718.3066"/><line style="stroke:#181818;stroke-width:1;" x1="609.8008" x2="609.8008" y1="1718.3066" y2="1733.3066"/><polygon fill="#181818" points="605.8008,1723.3066,609.8008,1733.3066,613.8008,1723.3066,609.8008,1727.3066" style="stroke:#181818;stroke-width:1;"/><text fill="#000000" font-family="sans-serif" font-size="18" lengthAdjust="spacing" textLength="46.0195" x="155.3259" y="69.75">Client</text><text fill="#000000" font-family="sans-serif" font-size="18" lengthAdjust="spacing" textLength="71.0156" x="376.8657" y="69.75">ACTUEL</text><text fill="#000000" font-family="sans-serif" font-size="18" lengthAdjust="spacing" textLength="70.04" x="620.1208" y="69.75">Clothilde</text><text fill="#000000" font-family="sans-serif" font-size="18" lengthAdjust="spacing" textLength="171.0527" x="832.2061" y="69.75">CIBLE (Portail Client)</text><!--SRC=[XLHHRjf04FtVKupI7qCQXP2ceKPLHHqKfI890ffAbNysPi6hcbbtTvr65L-zH8zGMUejV9EUfBEB8K0gzG_Fl9bvR-OjLjfCm52hH1XJ6FebZO3HnHrSSubM8CT4m17qeid7_W0U34HNxmTznfPH9WNQ9JEMQyl2rISOLQHSMX6Zwq4HBImbkbJmOY3dgOsKvjborMx9mbwUYumOH9cogSocL1XqqgEJJWe5og-5M52FHjVFgn5KTL6L2L5E1TYgpAeoJnMABWj7WcBQnHDF9yR-Oo8o2Dgma4Xjmhkgr78c2Q286oV49wMdMu18eIaoAo3FEAB4UOotXSsK-WB1QGrYSWP1fAiI1IzWAasku5q3R2eG0bN81WC8QQUvebqcDQxBH4QV0Ihq-IUklA0jnRW6Gd1MptdgGiKubREjjOUz914vyLH5Z5YLSvL8iR-dCPU6jDO2QBKRcNN6huVY9tlnozxjDdfKbLEUMAaGn89Bgg3rpQHUS1SZv9hn5h-Hg7ufQVzLG3XZLSuOAXAWdIrOipdfNm_7CBcTz0OGmiaRrxBPPBMnk2KpJYdHSN6sKRc1iecMEJd9h1G4jUX3B_6G13NOXRiKodkPIV8DFFEPMp8uJXktNceXSEaj3y5GQKjQOCMeiNps1iRULYWIv_-yHdyJzswLhVIqHU_8AAdTdi8n6LVubIA13uQQPcl_yWvSEkAP2qYXWSzcacpoP937bULCZD_9zZ2lIZNNF4-T35-RAbg1tJZFNv8UH6Byv6ZdT6G-vNxNjJjNWyCOnzTZeERqIk73KNlVO6iuiTLEzC6DAXwSXzSwxdWcfrxMbf_-V_tJtUFJZLq00iSMrK8qTWpGNYKVt2mlgy4-qpjNeEbFpTjX__JjLyVdZAPUzgvkNFTptw7w2QzRBKUMHZURRodUIeyvmblel3nhjVxy-4s9ZKd-0W00]--></g></svg>