<svg xmlns="http://www.w3.org/2000/svg" xmlns:xlink="http://www.w3.org/1999/xlink" contentStyleType="text/css" height="1570px" preserveAspectRatio="none" style="width:464px;height:1570px;background:#FFFFFF;" version="1.1" viewBox="0 0 464 1570" width="464px" zoomAndPan="magnify"><title>Processus Prise RDV Maintenance - ACTUEL vs CIBLE</title><defs/><g><text fill="#000000" font-family="sans-serif" font-size="14" font-weight="bold" lengthAdjust="spacing" textLength="365.6611" x="47.6956" y="34.5332">Processus Prise RDV Maintenance - ACTUEL vs CIBLE</text><rect fill="#F08080" height="919.6797" style="stroke:#000000;stroke-width:1.5;" width="442.0522" x="11" y="49.6094"/><path d="M203.8408,49.6094 L203.8408,60.2188 L193.8408,70.2188 L11,70.2188 " fill="none" style="stroke:#000000;stroke-width:1.5;"/><text fill="#000000" font-family="sans-serif" font-size="14" lengthAdjust="spacing" textLength="182.8408" x="14" y="65.1426">ACTUEL - Processus Manuel</text><rect fill="#F1F1F1" height="35.0938" rx="12.5" ry="12.5" style="stroke:#181818;stroke-width:0.5;" width="178.0859" x="76.5244" y="80.2188"/><text fill="#000000" font-family="sans-serif" font-size="12" lengthAdjust="spacing" textLength="158.0859" x="86.5244" y="102.6758">Client souhaite RDV entretien</text><rect fill="#F1F1F1" height="50.1875" rx="12.5" ry="12.5" style="stroke:#181818;stroke-width:0.5;" width="131.4043" x="99.8652" y="135.3125"/><text fill="#000000" font-family="sans-serif" font-size="12" lengthAdjust="spacing" textLength="90.0586" x="109.8652" y="157.7695">Appelle Clothilde</text><text fill="#000000" font-family="sans-serif" font-size="12" lengthAdjust="spacing" textLength="111.4043" x="109.8652" y="172.8633">(8h-18h uniquement)</text><rect fill="#F1F1F1" height="35.0938" rx="12.5" ry="12.5" style="stroke:#181818;stroke-width:0.5;" width="175.4434" x="77.8457" y="205.5"/><text fill="#000000" font-family="sans-serif" font-size="12" lengthAdjust="spacing" textLength="155.4434" x="87.8457" y="227.957">Clothilde decroche telephone</text><rect fill="#F1F1F1" height="35.0938" rx="12.5" ry="12.5" style="stroke:#181818;stroke-width:0.5;" width="182.7266" x="74.2041" y="260.5938"/><text fill="#000000" font-family="sans-serif" font-size="12" lengthAdjust="spacing" textLength="162.7266" x="84.2041" y="283.0508">Recherche client Excel (2 min)</text><rect fill="#F1F1F1" height="35.0938" rx="12.5" ry="12.5" style="stroke:#181818;stroke-width:0.5;" width="166.707" x="82.2139" y="315.6875"/><text fill="#000000" font-family="sans-serif" font-size="12" lengthAdjust="spacing" textLength="146.707" x="92.2139" y="338.1445">Verifie contrat Word (2 min)</text><rect fill="#F1F1F1" height="35.0938" rx="12.5" ry="12.5" style="stroke:#181818;stroke-width:0.5;" width="201.4297" x="64.8525" y="370.7813"/><text fill="#000000" font-family="sans-serif" font-size="12" lengthAdjust="spacing" textLength="181.4297" x="74.8525" y="393.2383">Consulte planning Outlook (3 min)</text><polygon fill="#F1F1F1" points="125.2063,425.875,205.9285,425.875,217.9285,437.875,205.9285,449.875,125.2063,449.875,113.2063,437.875,125.2063,425.875" style="stroke:#181818;stroke-width:0.5;"/><text fill="#000000" font-family="sans-serif" font-size="11" lengthAdjust="spacing" textLength="80.7222" x="125.2063" y="442.376">Creneau dispo ?</text><text fill="#000000" font-family="sans-serif" font-size="11" lengthAdjust="spacing" textLength="14.6792" x="98.5271" y="435.458">oui</text><text fill="#000000" font-family="sans-serif" font-size="11" lengthAdjust="spacing" textLength="18.353" x="217.9285" y="435.458">non</text><rect fill="#F1F1F1" height="35.0938" rx="12.5" ry="12.5" style="stroke:#181818;stroke-width:0.5;" width="111.3945" x="23" y="459.875"/><text fill="#000000" font-family="sans-serif" font-size="12" lengthAdjust="spacing" textLength="91.3945" x="33" y="482.332">Propose creneau</text><rect fill="#F1F1F1" height="35.0938" rx="12.5" ry="12.5" style="stroke:#181818;stroke-width:0.5;" width="196.0859" x="154.3945" y="459.875"/><text fill="#000000" font-family="sans-serif" font-size="12" lengthAdjust="spacing" textLength="176.0859" x="164.3945" y="482.332">Recherche autre creneau (5 min)</text><rect fill="#F1F1F1" height="35.0938" rx="12.5" ry="12.5" style="stroke:#181818;stroke-width:0.5;" width="64.6953" x="220.0898" y="514.9688"/><text fill="#000000" font-family="sans-serif" font-size="12" lengthAdjust="spacing" textLength="44.6953" x="230.0898" y="537.4258">Propose</text><polygon fill="#F1F1F1" points="165.5674,556.0625,177.5674,568.0625,165.5674,580.0625,153.5674,568.0625,165.5674,556.0625" style="stroke:#181818;stroke-width:0.5;"/><rect fill="#F1F1F1" height="35.0938" rx="12.5" ry="12.5" style="stroke:#181818;stroke-width:0.5;" width="158.0938" x="86.5205" y="600.0625"/><text fill="#000000" font-family="sans-serif" font-size="12" lengthAdjust="spacing" textLength="138.0938" x="96.5205" y="622.5195">Client accepte ou negocie</text><rect fill="#F1F1F1" height="35.0938" rx="12.5" ry="12.5" style="stroke:#181818;stroke-width:0.5;" width="138.043" x="96.5459" y="655.1563"/><text fill="#000000" font-family="sans-serif" font-size="12" lengthAdjust="spacing" textLength="118.043" x="106.5459" y="677.6133">Saisie Outlook (2 min)</text><rect fill="#F1F1F1" height="35.0938" rx="12.5" ry="12.5" style="stroke:#181818;stroke-width:0.5;" width="126.0313" x="102.5518" y="710.25"/><text fill="#000000" font-family="sans-serif" font-size="12" lengthAdjust="spacing" textLength="106.0313" x="112.5518" y="732.707">Saisie Excel (1 min)</text><rect fill="#F1F1F1" height="35.0938" rx="12.5" ry="12.5" style="stroke:#181818;stroke-width:0.5;" width="123.3594" x="103.8877" y="765.3438"/><text fill="#000000" font-family="sans-serif" font-size="12" lengthAdjust="spacing" textLength="103.3594" x="113.8877" y="787.8008">Saisie GAO (2 min)</text><rect fill="#F1F1F1" height="35.0938" rx="12.5" ry="12.5" style="stroke:#181818;stroke-width:0.5;" width="215.4102" x="57.8623" y="820.4375"/><text fill="#000000" font-family="sans-serif" font-size="12" lengthAdjust="spacing" textLength="195.4102" x="67.8623" y="842.8945">Redaction email confirmation (5 min)</text><path d="M277.5986,865.5313 L277.5986,907.4102 L257.5986,911.4102 L277.5986,915.4102 L277.5986,957.2891 A0,0 0 0 0 277.5986,957.2891 L443.0522,957.2891 A0,0 0 0 0 443.0522,957.2891 L443.0522,875.5313 L433.0522,865.5313 L277.5986,865.5313 A0,0 0 0 0 277.5986,865.5313 " fill="#FEFFDD" style="stroke:#181818;stroke-width:0.5;"/><path d="M433.0522,865.5313 L433.0522,875.5313 L443.0522,875.5313 L433.0522,865.5313 " fill="#FEFFDD" style="stroke:#181818;stroke-width:0.5;"/><text fill="#000000" font-family="sans-serif" font-size="13" font-weight="bold" lengthAdjust="spacing" textLength="144.4536" x="283.5986" y="884.0264">TEMPS TOTAL : 19 min</text><text fill="#000000" font-family="sans-serif" font-size="13" lengthAdjust="spacing" textLength="115.6162" x="283.5986" y="900.3779">Client attend : 8 min</text><text fill="#000000" font-family="sans-serif" font-size="13" lengthAdjust="spacing" textLength="100.439" x="283.5986" y="916.7295">Clothilde : 19 min</text><text fill="#000000" font-family="sans-serif" font-size="13" lengthAdjust="spacing" textLength="69.3545" x="283.5986" y="933.0811">Triple saisie</text><text fill="#000000" font-family="sans-serif" font-size="13" lengthAdjust="spacing" textLength="77.3271" x="283.5986" y="949.4326">Dispo 8h-18h</text><rect fill="#F1F1F1" height="35.0938" rx="12.5" ry="12.5" style="stroke:#181818;stroke-width:0.5;" width="184.0625" x="73.5361" y="893.8633"/><text fill="#000000" font-family="sans-serif" font-size="12" lengthAdjust="spacing" textLength="164.0625" x="83.5361" y="916.3203">Client recoit email confirmation</text><rect fill="#90EE90" height="579.9141" style="stroke:#000000;stroke-width:1.5;" width="380.4766" x="49.1865" y="979.2891"/><path d="M222.5928,979.2891 L222.5928,989.8984 L212.5928,999.8984 L49.1865,999.8984 " fill="none" style="stroke:#000000;stroke-width:1.5;"/><text fill="#000000" font-family="sans-serif" font-size="14" lengthAdjust="spacing" textLength="163.4063" x="52.1865" y="994.8223">CIBLE - Portail Client 24/7</text><rect fill="#F1F1F1" height="50.1875" rx="12.5" ry="12.5" style="stroke:#181818;stroke-width:0.5;" width="180.0898" x="75.5225" y="1016.8984"/><text fill="#000000" font-family="sans-serif" font-size="12" lengthAdjust="spacing" textLength="160.0898" x="85.5225" y="1039.3555">Client se connecte portail web</text><text fill="#000000" font-family="sans-serif" font-size="12" lengthAdjust="spacing" textLength="71.3613" x="85.5225" y="1054.4492">(20h30 - soir)</text><rect fill="#F1F1F1" height="35.0938" rx="12.5" ry="12.5" style="stroke:#181818;stroke-width:0.5;" width="157.4082" x="86.8633" y="1087.0859"/><text fill="#000000" font-family="sans-serif" font-size="12" lengthAdjust="spacing" textLength="137.4082" x="96.8633" y="1109.543">Selectionne Prendre RDV</text><rect fill="#F1F1F1" height="50.1875" rx="12.5" ry="12.5" style="stroke:#181818;stroke-width:0.5;" width="166.748" x="82.1934" y="1142.1797"/><text fill="#000000" font-family="sans-serif" font-size="12" lengthAdjust="spacing" textLength="146.748" x="92.1934" y="1164.6367">Calendrier affiche creneaux</text><text fill="#000000" font-family="sans-serif" font-size="12" lengthAdjust="spacing" textLength="87.3984" x="92.1934" y="1179.7305">dispos zone geo</text><rect fill="#F1F1F1" height="35.0938" rx="12.5" ry="12.5" style="stroke:#181818;stroke-width:0.5;" width="148.0449" x="91.5449" y="1212.3672"/><text fill="#000000" font-family="sans-serif" font-size="12" lengthAdjust="spacing" textLength="128.0449" x="101.5449" y="1234.8242">Choisit creneau (2 clics)</text><rect fill="#F1F1F1" height="35.0938" rx="12.5" ry="12.5" style="stroke:#181818;stroke-width:0.5;" width="157.4082" x="86.8633" y="1267.4609"/><text fill="#000000" font-family="sans-serif" font-size="12" lengthAdjust="spacing" textLength="137.4082" x="96.8633" y="1289.918">Confirmation automatique</text><rect fill="#F1F1F1" height="35.0938" rx="12.5" ry="12.5" style="stroke:#181818;stroke-width:0.5;" width="182.3984" x="74.3682" y="1322.5547"/><text fill="#000000" font-family="sans-serif" font-size="12" lengthAdjust="spacing" textLength="162.3984" x="84.3682" y="1345.0117">Recoit email + SMS rappel J-2</text><rect fill="#F1F1F1" height="35.0938" rx="12.5" ry="12.5" style="stroke:#181818;stroke-width:0.5;" width="212.7617" x="59.1865" y="1377.6484"/><text fill="#000000" font-family="sans-serif" font-size="12" lengthAdjust="spacing" textLength="192.7617" x="69.1865" y="1400.1055">Clothilde recoit alerte Nouveau RDV</text><path d="M246.916,1422.7422 L246.916,1480.9727 L226.916,1484.9727 L246.916,1488.9727 L246.916,1547.2031 A0,0 0 0 0 246.916,1547.2031 L419.6631,1547.2031 A0,0 0 0 0 419.6631,1547.2031 L419.6631,1432.7422 L409.6631,1422.7422 L246.916,1422.7422 A0,0 0 0 0 246.916,1422.7422 " fill="#FEFFDD" style="stroke:#181818;stroke-width:0.5;"/><path d="M409.6631,1422.7422 L409.6631,1432.7422 L419.6631,1432.7422 L409.6631,1422.7422 " fill="#FEFFDD" style="stroke:#181818;stroke-width:0.5;"/><text fill="#000000" font-family="sans-serif" font-size="13" font-weight="bold" lengthAdjust="spacing" textLength="137.2236" x="252.916" y="1441.2373">TEMPS TOTAL : 3 min</text><text fill="#000000" font-family="sans-serif" font-size="13" lengthAdjust="spacing" textLength="137.2935" x="252.916" y="1457.5889">Client : 1 min autonome</text><text fill="#000000" font-family="sans-serif" font-size="13" lengthAdjust="spacing" textLength="151.7471" x="252.916" y="1473.9404">Clothilde : 2 min validation</text><text fill="#000000" font-family="sans-serif" font-size="13" lengthAdjust="spacing" textLength="81.6372" x="252.916" y="1490.292">Zero ressaisie</text><text fill="#000000" font-family="sans-serif" font-size="13" lengthAdjust="spacing" textLength="62.1499" x="252.916" y="1506.6436">Dispo 24/7</text><text fill="#000000" font-family="sans-serif" font-size="13" font-weight="bold" lengthAdjust="spacing" textLength="148.8271" x="252.916" y="1522.9951">GAIN : 17min x 600 RDV</text><text fill="#000000" font-family="sans-serif" font-size="13" font-weight="bold" lengthAdjust="spacing" textLength="138.0234" x="252.916" y="1539.3467">= 170h/an = 8,500 EUR</text><rect fill="#F1F1F1" height="35.0938" rx="12.5" ry="12.5" style="stroke:#181818;stroke-width:0.5;" width="122.6973" x="104.2188" y="1467.4258"/><text fill="#000000" font-family="sans-serif" font-size="12" lengthAdjust="spacing" textLength="102.6973" x="114.2188" y="1489.8828">Valide RDV (2 min)</text><line style="stroke:#181818;stroke-width:1;" x1="165.5674" x2="165.5674" y1="115.3125" y2="135.3125"/><polygon fill="#181818" points="161.5674,125.3125,165.5674,135.3125,169.5674,125.3125,165.5674,129.3125" style="stroke:#181818;stroke-width:1;"/><line style="stroke:#181818;stroke-width:1;" x1="165.5674" x2="165.5674" y1="185.5" y2="205.5"/><polygon fill="#181818" points="161.5674,195.5,165.5674,205.5,169.5674,195.5,165.5674,199.5" style="stroke:#181818;stroke-width:1;"/><line style="stroke:#181818;stroke-width:1;" x1="165.5674" x2="165.5674" y1="240.5938" y2="260.5938"/><polygon fill="#181818" points="161.5674,250.5938,165.5674,260.5938,169.5674,250.5938,165.5674,254.5938" style="stroke:#181818;stroke-width:1;"/><line style="stroke:#181818;stroke-width:1;" x1="165.5674" x2="165.5674" y1="295.6875" y2="315.6875"/><polygon fill="#181818" points="161.5674,305.6875,165.5674,315.6875,169.5674,305.6875,165.5674,309.6875" style="stroke:#181818;stroke-width:1;"/><line style="stroke:#181818;stroke-width:1;" x1="165.5674" x2="165.5674" y1="350.7813" y2="370.7813"/><polygon fill="#181818" points="161.5674,360.7813,165.5674,370.7813,169.5674,360.7813,165.5674,364.7813" style="stroke:#181818;stroke-width:1;"/><line style="stroke:#181818;stroke-width:1;" x1="252.4375" x2="252.4375" y1="494.9688" y2="514.9688"/><polygon fill="#181818" points="248.4375,504.9688,252.4375,514.9688,256.4375,504.9688,252.4375,508.9688" style="stroke:#181818;stroke-width:1;"/><line style="stroke:#181818;stroke-width:1;" x1="113.2063" x2="78.6973" y1="437.875" y2="437.875"/><line style="stroke:#181818;stroke-width:1;" x1="78.6973" x2="78.6973" y1="437.875" y2="459.875"/><polygon fill="#181818" points="74.6973,449.875,78.6973,459.875,82.6973,449.875,78.6973,453.875" style="stroke:#181818;stroke-width:1;"/><line style="stroke:#181818;stroke-width:1;" x1="217.9285" x2="252.4375" y1="437.875" y2="437.875"/><line style="stroke:#181818;stroke-width:1;" x1="252.4375" x2="252.4375" y1="437.875" y2="459.875"/><polygon fill="#181818" points="248.4375,449.875,252.4375,459.875,256.4375,449.875,252.4375,453.875" style="stroke:#181818;stroke-width:1;"/><line style="stroke:#181818;stroke-width:1;" x1="78.6973" x2="78.6973" y1="494.9688" y2="568.0625"/><line style="stroke:#181818;stroke-width:1;" x1="78.6973" x2="153.5674" y1="568.0625" y2="568.0625"/><polygon fill="#181818" points="143.5674,564.0625,153.5674,568.0625,143.5674,572.0625,147.5674,568.0625" style="stroke:#181818;stroke-width:1;"/><line style="stroke:#181818;stroke-width:1;" x1="252.4375" x2="252.4375" y1="550.0625" y2="568.0625"/><line style="stroke:#181818;stroke-width:1;" x1="252.4375" x2="177.5674" y1="568.0625" y2="568.0625"/><polygon fill="#181818" points="187.5674,564.0625,177.5674,568.0625,187.5674,572.0625,183.5674,568.0625" style="stroke:#181818;stroke-width:1;"/><line style="stroke:#181818;stroke-width:1;" x1="165.5674" x2="165.5674" y1="405.875" y2="425.875"/><polygon fill="#181818" points="161.5674,415.875,165.5674,425.875,169.5674,415.875,165.5674,419.875" style="stroke:#181818;stroke-width:1;"/><line style="stroke:#181818;stroke-width:1;" x1="165.5674" x2="165.5674" y1="580.0625" y2="600.0625"/><polygon fill="#181818" points="161.5674,590.0625,165.5674,600.0625,169.5674,590.0625,165.5674,594.0625" style="stroke:#181818;stroke-width:1;"/><line style="stroke:#181818;stroke-width:1;" x1="165.5674" x2="165.5674" y1="635.1563" y2="655.1563"/><polygon fill="#181818" points="161.5674,645.1563,165.5674,655.1563,169.5674,645.1563,165.5674,649.1563" style="stroke:#181818;stroke-width:1;"/><line style="stroke:#181818;stroke-width:1;" x1="165.5674" x2="165.5674" y1="690.25" y2="710.25"/><polygon fill="#181818" points="161.5674,700.25,165.5674,710.25,169.5674,700.25,165.5674,704.25" style="stroke:#181818;stroke-width:1;"/><line style="stroke:#181818;stroke-width:1;" x1="165.5674" x2="165.5674" y1="745.3438" y2="765.3438"/><polygon fill="#181818" points="161.5674,755.3438,165.5674,765.3438,169.5674,755.3438,165.5674,759.3438" style="stroke:#181818;stroke-width:1;"/><line style="stroke:#181818;stroke-width:1;" x1="165.5674" x2="165.5674" y1="800.4375" y2="820.4375"/><polygon fill="#181818" points="161.5674,810.4375,165.5674,820.4375,169.5674,810.4375,165.5674,814.4375" style="stroke:#181818;stroke-width:1;"/><line style="stroke:#181818;stroke-width:1;" x1="165.5674" x2="165.5674" y1="855.5313" y2="893.8633"/><polygon fill="#181818" points="161.5674,883.8633,165.5674,893.8633,169.5674,883.8633,165.5674,887.8633" style="stroke:#181818;stroke-width:1;"/><line style="stroke:#181818;stroke-width:1;" x1="165.5674" x2="165.5674" y1="1067.0859" y2="1087.0859"/><polygon fill="#181818" points="161.5674,1077.0859,165.5674,1087.0859,169.5674,1077.0859,165.5674,1081.0859" style="stroke:#181818;stroke-width:1;"/><line style="stroke:#181818;stroke-width:1;" x1="165.5674" x2="165.5674" y1="1122.1797" y2="1142.1797"/><polygon fill="#181818" points="161.5674,1132.1797,165.5674,1142.1797,169.5674,1132.1797,165.5674,1136.1797" style="stroke:#181818;stroke-width:1;"/><line style="stroke:#181818;stroke-width:1;" x1="165.5674" x2="165.5674" y1="1192.3672" y2="1212.3672"/><polygon fill="#181818" points="161.5674,1202.3672,165.5674,1212.3672,169.5674,1202.3672,165.5674,1206.3672" style="stroke:#181818;stroke-width:1;"/><line style="stroke:#181818;stroke-width:1;" x1="165.5674" x2="165.5674" y1="1247.4609" y2="1267.4609"/><polygon fill="#181818" points="161.5674,1257.4609,165.5674,1267.4609,169.5674,1257.4609,165.5674,1261.4609" style="stroke:#181818;stroke-width:1;"/><line style="stroke:#181818;stroke-width:1;" x1="165.5674" x2="165.5674" y1="1302.5547" y2="1322.5547"/><polygon fill="#181818" points="161.5674,1312.5547,165.5674,1322.5547,169.5674,1312.5547,165.5674,1316.5547" style="stroke:#181818;stroke-width:1;"/><line style="stroke:#181818;stroke-width:1;" x1="165.5674" x2="165.5674" y1="1357.6484" y2="1377.6484"/><polygon fill="#181818" points="161.5674,1367.6484,165.5674,1377.6484,169.5674,1367.6484,165.5674,1371.6484" style="stroke:#181818;stroke-width:1;"/><line style="stroke:#181818;stroke-width:1;" x1="165.5674" x2="165.5674" y1="1412.7422" y2="1467.4258"/><polygon fill="#181818" points="161.5674,1457.4258,165.5674,1467.4258,169.5674,1457.4258,165.5674,1461.4258" style="stroke:#181818;stroke-width:1;"/><line style="stroke:#181818;stroke-width:1;" x1="165.5674" x2="165.5674" y1="928.957" y2="1016.8984"/><polygon fill="#181818" points="161.5674,1006.8984,165.5674,1016.8984,169.5674,1006.8984,165.5674,1010.8984" style="stroke:#181818;stroke-width:1;"/><!--SRC=[XLDTRnD137pFhx3AIng8cgQKXbOL2jUeAahQAacBXFgot3avYytwsDqh5OZ_ZdVlBXy4YRSxUzOUZyUUl4QujvoYSwMJBt88qwj7c2Wo7eqoAK8NXidyOJI6PmV9pSVngDKgbFNaYGqSrBdkLfc9CYNg0tWrfcNk4xPAmwyMm7cY2Oq7nsMko5UT963HI_mY88P5WLeu9PfzJZh39zCUvDtZGGwbeUybhWH_U54Lgo6GOIgzSmIF6ekS3KR052LcGpoj-evUKjJGxiEAJ5NZ4IqjI00iB9I7psop7K32nfLQg1PQ6KDc2NUbrypVe7rIemH62sWd5Wsg4Z9o1SE7G_0v6cXpIOU2a5AYJy4YRre1GtdKyjysR6h8Xh4gHPK62ktJDQDDeLZ0PBHeRKchqXGBeSib65noIfKKCqLEnbnptvgmJjNQ7EybheTtE_WfPYgDgyUL8XsaMv1TgHZQ8jemifWo-N-0etA6XQmDDecpTJhpqUH-1lEx-N0Cvt3yFjJhT6Ao6T6BCJD93aAkpZHMQ9x4yDnI8LvoSP0OkOhBgGnLoHSPj7xlM3gQF3YQhG-iwyRzjqTdZQclBSfsTqmTNMGm3MQf7_x0h-BVVYy_wKavnsHhQSMdKKCJhazOs7WBbMnAXm2X1RLOKBHlPOEN9nFDvU2dM1oMoDM3d6K-lp5BF_WzTMi3RzOZhkBmANVKNCXcDwzXDfc1LU42uLEt_zUHrNiKTbOclENoEJHhM3ygJLbrq6kp_7-z9_lRbGM6OAHgU8Lx-utLuJdqYqD5m1UqB0pTtgh3pkhMryERsr3-BBn_WNUzNg1RT-zqBYNJou-KWKiOl3cLxEXX6hDRBla3]--></g></svg>