<svg xmlns="http://www.w3.org/2000/svg" xmlns:xlink="http://www.w3.org/1999/xlink" contentStyleType="text/css" height="1904px" preserveAspectRatio="none" style="width:1378px;height:1904px;background:#FFFFFF;" version="1.1" viewBox="0 0 1378 1904" width="1378px" zoomAndPan="magnify"><title>Arborescence Fonctionnelle Gestion Operationnelle</title><defs/><g><text fill="#000000" font-family="sans-serif" font-size="14" font-weight="bold" lengthAdjust="spacing" textLength="346.1855" x="514.7158" y="34.5332">Arborescence Fonctionnelle Gestion Operationnelle</text><rect fill="#F1F1F1" height="55.2188" rx="12.5" ry="12.5" style="stroke:#181818;stroke-width:1.5;" width="111.0615" x="583.3506" y="942.75"/><text fill="#000000" font-family="sans-serif" font-size="14" lengthAdjust="spacing" textLength="48.248" x="593.3506" y="967.2832">Gestion</text><text fill="#000000" font-family="sans-serif" font-size="14" lengthAdjust="spacing" textLength="91.0615" x="593.3506" y="984.8926">Operationnelle</text><rect fill="#F1F1F1" height="37.6094" rx="12.5" ry="12.5" style="stroke:#181818;stroke-width:1.5;" width="135.1719" x="744.4121" y="404.2656"/><text fill="#000000" font-family="sans-serif" font-size="14" lengthAdjust="spacing" textLength="115.1719" x="754.4121" y="428.7988">KPI &amp; Dashboards</text><rect fill="#F1F1F1" height="37.6094" rx="12.5" ry="12.5" style="stroke:#181818;stroke-width:1.5;" width="174.8477" x="929.584" y="173.8281"/><text fill="#000000" font-family="sans-serif" font-size="14" lengthAdjust="spacing" textLength="154.8477" x="939.584" y="198.3613">Dashboards Temps Reel</text><rect fill="#F1F1F1" height="37.6094" rx="12.5" ry="12.5" style="stroke:#181818;stroke-width:1.5;" width="163.9512" x="1154.4316" y="87.4141"/><text fill="#000000" font-family="sans-serif" font-size="14" lengthAdjust="spacing" textLength="143.9512" x="1164.4316" y="111.9473">Direction (KPI globaux)</text><path d="M1104.4316,192.6328 L1114.4316,192.6328 C1129.4316,192.6328 1129.4316,106.2188 1144.4316,106.2188 L1154.4316,106.2188 " fill="none" style="stroke:#181818;stroke-width:1;"/><rect fill="#F1F1F1" height="37.6094" rx="12.5" ry="12.5" style="stroke:#181818;stroke-width:1.5;" width="175.6133" x="1154.4316" y="145.0234"/><text fill="#000000" font-family="sans-serif" font-size="14" lengthAdjust="spacing" textLength="155.6133" x="1164.4316" y="169.5566">Sylvie (Controle Gestion)</text><path d="M1104.4316,192.6328 L1114.4316,192.6328 C1129.4316,192.6328 1129.4316,163.8281 1144.4316,163.8281 L1154.4316,163.8281 " fill="none" style="stroke:#181818;stroke-width:1;"/><rect fill="#F1F1F1" height="37.6094" rx="12.5" ry="12.5" style="stroke:#181818;stroke-width:1.5;" width="212.1855" x="1154.4316" y="202.6328"/><text fill="#000000" font-family="sans-serif" font-size="14" lengthAdjust="spacing" textLength="192.1855" x="1164.4316" y="227.166">Responsables Affaires (RBAC)</text><path d="M1104.4316,192.6328 L1114.4316,192.6328 C1129.4316,192.6328 1129.4316,221.4375 1144.4316,221.4375 L1154.4316,221.4375 " fill="none" style="stroke:#181818;stroke-width:1;"/><rect fill="#F1F1F1" height="37.6094" rx="12.5" ry="12.5" style="stroke:#181818;stroke-width:1.5;" width="165.4893" x="1154.4316" y="260.2422"/><text fill="#000000" font-family="sans-serif" font-size="14" lengthAdjust="spacing" textLength="145.4893" x="1164.4316" y="284.7754">Chefs Chantier (RBAC)</text><path d="M1104.4316,192.6328 L1114.4316,192.6328 C1129.4316,192.6328 1129.4316,279.0469 1144.4316,279.0469 L1154.4316,279.0469 " fill="none" style="stroke:#181818;stroke-width:1;"/><path d="M879.584,423.0703 L889.584,423.0703 C904.584,423.0703 904.584,192.6328 919.584,192.6328 L929.584,192.6328 " fill="none" style="stroke:#181818;stroke-width:1;"/><rect fill="#F1F1F1" height="37.6094" rx="12.5" ry="12.5" style="stroke:#181818;stroke-width:1.5;" width="182.6543" x="929.584" y="346.6563"/><text fill="#000000" font-family="sans-serif" font-size="14" lengthAdjust="spacing" textLength="162.6543" x="939.584" y="371.1895">Generation Rapports Auto</text><rect fill="#F1F1F1" height="37.6094" rx="12.5" ry="12.5" style="stroke:#181818;stroke-width:1.5;" width="135.9443" x="1162.2383" y="317.8516"/><text fill="#000000" font-family="sans-serif" font-size="14" lengthAdjust="spacing" textLength="115.9443" x="1172.2383" y="342.3848">PDF mensuel auto</text><path d="M1112.2383,365.4609 L1122.2383,365.4609 C1137.2383,365.4609 1137.2383,336.6563 1152.2383,336.6563 L1162.2383,336.6563 " fill="none" style="stroke:#181818;stroke-width:1;"/><rect fill="#F1F1F1" height="37.6094" rx="12.5" ry="12.5" style="stroke:#181818;stroke-width:1.5;" width="181.8613" x="1162.2383" y="375.4609"/><text fill="#000000" font-family="sans-serif" font-size="14" lengthAdjust="spacing" textLength="161.8613" x="1172.2383" y="399.9941">Export Excel personnalise</text><path d="M1112.2383,365.4609 L1122.2383,365.4609 C1137.2383,365.4609 1137.2383,394.2656 1152.2383,394.2656 L1162.2383,394.2656 " fill="none" style="stroke:#181818;stroke-width:1;"/><path d="M879.584,423.0703 L889.584,423.0703 C904.584,423.0703 904.584,365.4609 919.584,365.4609 L929.584,365.4609 " fill="none" style="stroke:#181818;stroke-width:1;"/><rect fill="#F1F1F1" height="37.6094" rx="12.5" ry="12.5" style="stroke:#181818;stroke-width:1.5;" width="153.0684" x="929.584" y="490.6797"/><text fill="#000000" font-family="sans-serif" font-size="14" lengthAdjust="spacing" textLength="133.0684" x="939.584" y="515.2129">Alertes Automatiques</text><rect fill="#F1F1F1" height="37.6094" rx="12.5" ry="12.5" style="stroke:#181818;stroke-width:1.5;" width="167.0889" x="1132.6523" y="433.0703"/><text fill="#000000" font-family="sans-serif" font-size="14" lengthAdjust="spacing" textLength="147.0889" x="1142.6523" y="457.6035">Depassements budgets</text><path d="M1082.6523,509.4844 L1092.6523,509.4844 C1107.6523,509.4844 1107.6523,451.875 1122.6523,451.875 L1132.6523,451.875 " fill="none" style="stroke:#181818;stroke-width:1;"/><rect fill="#F1F1F1" height="37.6094" rx="12.5" ry="12.5" style="stroke:#181818;stroke-width:1.5;" width="125.8477" x="1132.6523" y="490.6797"/><text fill="#000000" font-family="sans-serif" font-size="14" lengthAdjust="spacing" textLength="105.8477" x="1142.6523" y="515.2129">Retards planning</text><path d="M1082.6523,509.4844 L1092.6523,509.4844 C1107.6523,509.4844 1107.6523,509.4844 1122.6523,509.4844 L1132.6523,509.4844 " fill="none" style="stroke:#181818;stroke-width:1;"/><rect fill="#F1F1F1" height="37.6094" rx="12.5" ry="12.5" style="stroke:#181818;stroke-width:1.5;" width="130.5029" x="1132.6523" y="548.2891"/><text fill="#000000" font-family="sans-serif" font-size="14" lengthAdjust="spacing" textLength="110.5029" x="1142.6523" y="572.8223">Marges negatives</text><path d="M1082.6523,509.4844 L1092.6523,509.4844 C1107.6523,509.4844 1107.6523,567.0938 1122.6523,567.0938 L1132.6523,567.0938 " fill="none" style="stroke:#181818;stroke-width:1;"/><path d="M879.584,423.0703 L889.584,423.0703 C904.584,423.0703 904.584,509.4844 919.584,509.4844 L929.584,509.4844 " fill="none" style="stroke:#181818;stroke-width:1;"/><rect fill="#F1F1F1" height="37.6094" rx="12.5" ry="12.5" style="stroke:#181818;stroke-width:1.5;" width="112.5928" x="929.584" y="663.5078"/><text fill="#000000" font-family="sans-serif" font-size="14" lengthAdjust="spacing" textLength="92.5928" x="939.584" y="688.041">Predictions ML</text><rect fill="#F1F1F1" height="37.6094" rx="12.5" ry="12.5" style="stroke:#181818;stroke-width:1.5;" width="150.7168" x="1092.1768" y="605.8984"/><text fill="#000000" font-family="sans-serif" font-size="14" lengthAdjust="spacing" textLength="130.7168" x="1102.1768" y="630.4316">Projection CA 3 mois</text><path d="M1042.1768,682.3125 L1052.1768,682.3125 C1067.1768,682.3125 1067.1768,624.7031 1082.1768,624.7031 L1092.1768,624.7031 " fill="none" style="stroke:#181818;stroke-width:1;"/><rect fill="#F1F1F1" height="37.6094" rx="12.5" ry="12.5" style="stroke:#181818;stroke-width:1.5;" width="146.8477" x="1092.1768" y="663.5078"/><text fill="#000000" font-family="sans-serif" font-size="14" lengthAdjust="spacing" textLength="126.8477" x="1102.1768" y="688.041">Detection anomalies</text><path d="M1042.1768,682.3125 L1052.1768,682.3125 C1067.1768,682.3125 1067.1768,682.3125 1082.1768,682.3125 L1092.1768,682.3125 " fill="none" style="stroke:#181818;stroke-width:1;"/><rect fill="#F1F1F1" height="37.6094" rx="12.5" ry="12.5" style="stroke:#181818;stroke-width:1.5;" width="154.6338" x="1092.1768" y="721.1172"/><text fill="#000000" font-family="sans-serif" font-size="14" lengthAdjust="spacing" textLength="134.6338" x="1102.1768" y="745.6504">Optimisation planning</text><path d="M1042.1768,682.3125 L1052.1768,682.3125 C1067.1768,682.3125 1067.1768,739.9219 1082.1768,739.9219 L1092.1768,739.9219 " fill="none" style="stroke:#181818;stroke-width:1;"/><path d="M879.584,423.0703 L889.584,423.0703 C904.584,423.0703 904.584,682.3125 919.584,682.3125 L929.584,682.3125 " fill="none" style="stroke:#181818;stroke-width:1;"/><path d="M694.4121,970.3594 L704.4121,970.3594 C719.4121,970.3594 719.4121,423.0703 734.4121,423.0703 L744.4121,423.0703 " fill="none" style="stroke:#181818;stroke-width:1;"/><rect fill="#F1F1F1" height="37.6094" rx="12.5" ry="12.5" style="stroke:#181818;stroke-width:1.5;" width="145.2549" x="744.4121" y="1009.1641"/><text fill="#000000" font-family="sans-serif" font-size="14" lengthAdjust="spacing" textLength="125.2549" x="754.4121" y="1033.6973">Systeme Tickets BE</text><rect fill="#F1F1F1" height="37.6094" rx="12.5" ry="12.5" style="stroke:#181818;stroke-width:1.5;" width="139.8408" x="939.667" y="836.3359"/><text fill="#000000" font-family="sans-serif" font-size="14" lengthAdjust="spacing" textLength="119.8408" x="949.667" y="860.8691">Gestion Demandes</text><rect fill="#F1F1F1" height="37.6094" rx="12.5" ry="12.5" style="stroke:#181818;stroke-width:1.5;" width="163.1719" x="1129.5078" y="778.7266"/><text fill="#000000" font-family="sans-serif" font-size="14" lengthAdjust="spacing" textLength="143.1719" x="1139.5078" y="803.2598">Formulaire standardise</text><path d="M1079.5078,855.1406 L1089.5078,855.1406 C1104.5078,855.1406 1104.5078,797.5313 1119.5078,797.5313 L1129.5078,797.5313 " fill="none" style="stroke:#181818;stroke-width:1;"/><rect fill="#F1F1F1" height="37.6094" rx="12.5" ry="12.5" style="stroke:#181818;stroke-width:1.5;" width="159.2822" x="1129.5078" y="836.3359"/><text fill="#000000" font-family="sans-serif" font-size="14" lengthAdjust="spacing" textLength="139.2822" x="1139.5078" y="860.8691">Priorisation algorithme</text><path d="M1079.5078,855.1406 L1089.5078,855.1406 C1104.5078,855.1406 1104.5078,855.1406 1119.5078,855.1406 L1129.5078,855.1406 " fill="none" style="stroke:#181818;stroke-width:1;"/><rect fill="#F1F1F1" height="37.6094" rx="12.5" ry="12.5" style="stroke:#181818;stroke-width:1.5;" width="171.7578" x="1129.5078" y="893.9453"/><text fill="#000000" font-family="sans-serif" font-size="14" lengthAdjust="spacing" textLength="151.7578" x="1139.5078" y="918.4785">File attente transparente</text><path d="M1079.5078,855.1406 L1089.5078,855.1406 C1104.5078,855.1406 1104.5078,912.75 1119.5078,912.75 L1129.5078,912.75 " fill="none" style="stroke:#181818;stroke-width:1;"/><path d="M889.667,1027.9688 L899.667,1027.9688 C914.667,1027.9688 914.667,855.1406 929.667,855.1406 L939.667,855.1406 " fill="none" style="stroke:#181818;stroke-width:1;"/><rect fill="#F1F1F1" height="37.6094" rx="12.5" ry="12.5" style="stroke:#181818;stroke-width:1.5;" width="135.1377" x="939.667" y="1009.1641"/><text fill="#000000" font-family="sans-serif" font-size="14" lengthAdjust="spacing" textLength="115.1377" x="949.667" y="1033.6973">Traitement Tickets</text><rect fill="#F1F1F1" height="37.6094" rx="12.5" ry="12.5" style="stroke:#181818;stroke-width:1.5;" width="174.0889" x="1124.8047" y="951.5547"/><text fill="#000000" font-family="sans-serif" font-size="14" lengthAdjust="spacing" textLength="154.0889" x="1134.8047" y="976.0879">Assignment automatique</text><path d="M1074.8047,1027.9688 L1084.8047,1027.9688 C1099.8047,1027.9688 1099.8047,970.3594 1114.8047,970.3594 L1124.8047,970.3594 " fill="none" style="stroke:#181818;stroke-width:1;"/><rect fill="#F1F1F1" height="37.6094" rx="12.5" ry="12.5" style="stroke:#181818;stroke-width:1.5;" width="135.165" x="1124.8047" y="1009.1641"/><text fill="#000000" font-family="sans-serif" font-size="14" lengthAdjust="spacing" textLength="115.165" x="1134.8047" y="1033.6973">Chrono temps reel</text><path d="M1074.8047,1027.9688 L1084.8047,1027.9688 C1099.8047,1027.9688 1099.8047,1027.9688 1114.8047,1027.9688 L1124.8047,1027.9688 " fill="none" style="stroke:#181818;stroke-width:1;"/><rect fill="#F1F1F1" height="37.6094" rx="12.5" ry="12.5" style="stroke:#181818;stroke-width:1.5;" width="119.6064" x="1124.8047" y="1066.7734"/><text fill="#000000" font-family="sans-serif" font-size="14" lengthAdjust="spacing" textLength="99.6064" x="1134.8047" y="1091.3066">Upload livrables</text><path d="M1074.8047,1027.9688 L1084.8047,1027.9688 C1099.8047,1027.9688 1099.8047,1085.5781 1114.8047,1085.5781 L1124.8047,1085.5781 " fill="none" style="stroke:#181818;stroke-width:1;"/><path d="M889.667,1027.9688 L899.667,1027.9688 C914.667,1027.9688 914.667,1027.9688 929.667,1027.9688 L939.667,1027.9688 " fill="none" style="stroke:#181818;stroke-width:1;"/><rect fill="#F1F1F1" height="37.6094" rx="12.5" ry="12.5" style="stroke:#181818;stroke-width:1.5;" width="92.3721" x="939.667" y="1181.9922"/><text fill="#000000" font-family="sans-serif" font-size="14" lengthAdjust="spacing" textLength="72.3721" x="949.667" y="1206.5254">Statistiques</text><rect fill="#F1F1F1" height="37.6094" rx="12.5" ry="12.5" style="stroke:#181818;stroke-width:1.5;" width="115.71" x="1082.0391" y="1124.3828"/><text fill="#000000" font-family="sans-serif" font-size="14" lengthAdjust="spacing" textLength="95.71" x="1092.0391" y="1148.916">Productivite BE</text><path d="M1032.0391,1200.7969 L1042.0391,1200.7969 C1057.0391,1200.7969 1057.0391,1143.1875 1072.0391,1143.1875 L1082.0391,1143.1875 " fill="none" style="stroke:#181818;stroke-width:1;"/><rect fill="#F1F1F1" height="37.6094" rx="12.5" ry="12.5" style="stroke:#181818;stroke-width:1.5;" width="174.0889" x="1082.0391" y="1181.9922"/><text fill="#000000" font-family="sans-serif" font-size="14" lengthAdjust="spacing" textLength="154.0889" x="1092.0391" y="1206.5254">Satisfaction demandeurs</text><path d="M1032.0391,1200.7969 L1042.0391,1200.7969 C1057.0391,1200.7969 1057.0391,1200.7969 1072.0391,1200.7969 L1082.0391,1200.7969 " fill="none" style="stroke:#181818;stroke-width:1;"/><rect fill="#F1F1F1" height="37.6094" rx="12.5" ry="12.5" style="stroke:#181818;stroke-width:1.5;" width="174.834" x="1082.0391" y="1239.6016"/><text fill="#000000" font-family="sans-serif" font-size="14" lengthAdjust="spacing" textLength="154.834" x="1092.0391" y="1264.1348">Temps moyen traitement</text><path d="M1032.0391,1200.7969 L1042.0391,1200.7969 C1057.0391,1200.7969 1057.0391,1258.4063 1072.0391,1258.4063 L1082.0391,1258.4063 " fill="none" style="stroke:#181818;stroke-width:1;"/><path d="M889.667,1027.9688 L899.667,1027.9688 C914.667,1027.9688 914.667,1200.7969 929.667,1200.7969 L939.667,1200.7969 " fill="none" style="stroke:#181818;stroke-width:1;"/><path d="M694.4121,970.3594 L704.4121,970.3594 C719.4121,970.3594 719.4121,1027.9688 734.4121,1027.9688 L744.4121,1027.9688 " fill="none" style="stroke:#181818;stroke-width:1;"/><rect fill="#F1F1F1" height="37.6094" rx="12.5" ry="12.5" style="stroke:#181818;stroke-width:1.5;" width="98.5654" x="744.4121" y="1556.4531"/><text fill="#000000" font-family="sans-serif" font-size="14" lengthAdjust="spacing" textLength="78.5654" x="754.4121" y="1580.9863">Stocks RFID</text><rect fill="#F1F1F1" height="37.6094" rx="12.5" ry="12.5" style="stroke:#181818;stroke-width:1.5;" width="164.751" x="892.9775" y="1354.8203"/><text fill="#000000" font-family="sans-serif" font-size="14" lengthAdjust="spacing" textLength="144.751" x="902.9775" y="1379.3535">Reception Automatisee</text><rect fill="#F1F1F1" height="37.6094" rx="12.5" ry="12.5" style="stroke:#181818;stroke-width:1.5;" width="149.9443" x="1107.7285" y="1297.2109"/><text fill="#000000" font-family="sans-serif" font-size="14" lengthAdjust="spacing" textLength="129.9443" x="1117.7285" y="1321.7441">Scan RFID portiques</text><path d="M1057.7285,1373.625 L1067.7285,1373.625 C1082.7285,1373.625 1082.7285,1316.0156 1097.7285,1316.0156 L1107.7285,1316.0156 " fill="none" style="stroke:#181818;stroke-width:1;"/><rect fill="#F1F1F1" height="37.6094" rx="12.5" ry="12.5" style="stroke:#181818;stroke-width:1.5;" width="171.7646" x="1107.7285" y="1354.8203"/><text fill="#000000" font-family="sans-serif" font-size="14" lengthAdjust="spacing" textLength="151.7646" x="1117.7285" y="1379.3535">Rapprochement auto BL</text><path d="M1057.7285,1373.625 L1067.7285,1373.625 C1082.7285,1373.625 1082.7285,1373.625 1097.7285,1373.625 L1107.7285,1373.625 " fill="none" style="stroke:#181818;stroke-width:1;"/><rect fill="#F1F1F1" height="37.6094" rx="12.5" ry="12.5" style="stroke:#181818;stroke-width:1.5;" width="179.5439" x="1107.7285" y="1412.4297"/><text fill="#000000" font-family="sans-serif" font-size="14" lengthAdjust="spacing" textLength="159.5439" x="1117.7285" y="1436.9629">Creation ligne Lireco auto</text><path d="M1057.7285,1373.625 L1067.7285,1373.625 C1082.7285,1373.625 1082.7285,1431.2344 1097.7285,1431.2344 L1107.7285,1431.2344 " fill="none" style="stroke:#181818;stroke-width:1;"/><path d="M842.9775,1575.2578 L852.9775,1575.2578 C867.9775,1575.2578 867.9775,1373.625 882.9775,1373.625 L892.9775,1373.625 " fill="none" style="stroke:#181818;stroke-width:1;"/><rect fill="#F1F1F1" height="37.6094" rx="12.5" ry="12.5" style="stroke:#181818;stroke-width:1.5;" width="88.4824" x="892.9775" y="1498.8438"/><text fill="#000000" font-family="sans-serif" font-size="14" lengthAdjust="spacing" textLength="68.4824" x="902.9775" y="1523.377">Inventaires</text><rect fill="#F1F1F1" height="37.6094" rx="12.5" ry="12.5" style="stroke:#181818;stroke-width:1.5;" width="168.6064" x="1031.46" y="1470.0391"/><text fill="#000000" font-family="sans-serif" font-size="14" lengthAdjust="spacing" textLength="148.6064" x="1041.46" y="1494.5723">RFID portique (2h vs 2j)</text><path d="M981.46,1517.6484 L991.46,1517.6484 C1006.46,1517.6484 1006.46,1488.8438 1021.46,1488.8438 L1031.46,1488.8438 " fill="none" style="stroke:#181818;stroke-width:1;"/><rect fill="#F1F1F1" height="37.6094" rx="12.5" ry="12.5" style="stroke:#181818;stroke-width:1.5;" width="259.7021" x="1031.46" y="1527.6484"/><text fill="#000000" font-family="sans-serif" font-size="14" lengthAdjust="spacing" textLength="239.7021" x="1041.46" y="1552.1816">Rapprochement theorique vs physique</text><path d="M981.46,1517.6484 L991.46,1517.6484 C1006.46,1517.6484 1006.46,1546.4531 1021.46,1546.4531 L1031.46,1546.4531 " fill="none" style="stroke:#181818;stroke-width:1;"/><path d="M842.9775,1575.2578 L852.9775,1575.2578 C867.9775,1575.2578 867.9775,1517.6484 882.9775,1517.6484 L892.9775,1517.6484 " fill="none" style="stroke:#181818;stroke-width:1;"/><rect fill="#F1F1F1" height="37.6094" rx="12.5" ry="12.5" style="stroke:#181818;stroke-width:1.5;" width="162.4199" x="892.9775" y="1614.0625"/><text fill="#000000" font-family="sans-serif" font-size="14" lengthAdjust="spacing" textLength="142.4199" x="902.9775" y="1638.5957">Valorisation Coherente</text><rect fill="#F1F1F1" height="37.6094" rx="12.5" ry="12.5" style="stroke:#181818;stroke-width:1.5;" width="164.7441" x="1105.3975" y="1585.2578"/><text fill="#000000" font-family="sans-serif" font-size="14" lengthAdjust="spacing" textLength="144.7441" x="1115.3975" y="1609.791">Politique CUMP unique</text><path d="M1055.3975,1632.8672 L1065.3975,1632.8672 C1080.3975,1632.8672 1080.3975,1604.0625 1095.3975,1604.0625 L1105.3975,1604.0625 " fill="none" style="stroke:#181818;stroke-width:1;"/><rect fill="#F1F1F1" height="37.6094" rx="12.5" ry="12.5" style="stroke:#181818;stroke-width:1.5;" width="139.0615" x="1105.3975" y="1642.8672"/><text fill="#000000" font-family="sans-serif" font-size="14" lengthAdjust="spacing" textLength="119.0615" x="1115.3975" y="1667.4004">Calcul auto valeurs</text><path d="M1055.3975,1632.8672 L1065.3975,1632.8672 C1080.3975,1632.8672 1080.3975,1661.6719 1095.3975,1661.6719 L1105.3975,1661.6719 " fill="none" style="stroke:#181818;stroke-width:1;"/><path d="M842.9775,1575.2578 L852.9775,1575.2578 C867.9775,1575.2578 867.9775,1632.8672 882.9775,1632.8672 L892.9775,1632.8672 " fill="none" style="stroke:#181818;stroke-width:1;"/><rect fill="#F1F1F1" height="37.6094" rx="12.5" ry="12.5" style="stroke:#181818;stroke-width:1.5;" width="97.8271" x="892.9775" y="1758.0859"/><text fill="#000000" font-family="sans-serif" font-size="14" lengthAdjust="spacing" textLength="77.8271" x="902.9775" y="1782.6191">Consultation</text><rect fill="#F1F1F1" height="37.6094" rx="12.5" ry="12.5" style="stroke:#181818;stroke-width:1.5;" width="124.2617" x="1040.8047" y="1700.4766"/><text fill="#000000" font-family="sans-serif" font-size="14" lengthAdjust="spacing" textLength="104.2617" x="1050.8047" y="1725.0098">Stock temps reel</text><path d="M990.8047,1776.8906 L1000.8047,1776.8906 C1015.8047,1776.8906 1015.8047,1719.2813 1030.8047,1719.2813 L1040.8047,1719.2813 " fill="none" style="stroke:#181818;stroke-width:1;"/><rect fill="#F1F1F1" height="37.6094" rx="12.5" ry="12.5" style="stroke:#181818;stroke-width:1.5;" width="141.3994" x="1040.8047" y="1758.0859"/><text fill="#000000" font-family="sans-serif" font-size="14" lengthAdjust="spacing" textLength="121.3994" x="1050.8047" y="1782.6191">Recherche produits</text><path d="M990.8047,1776.8906 L1000.8047,1776.8906 C1015.8047,1776.8906 1015.8047,1776.8906 1030.8047,1776.8906 L1040.8047,1776.8906 " fill="none" style="stroke:#181818;stroke-width:1;"/><rect fill="#F1F1F1" height="37.6094" rx="12.5" ry="12.5" style="stroke:#181818;stroke-width:1.5;" width="118.8203" x="1040.8047" y="1815.6953"/><text fill="#000000" font-family="sans-serif" font-size="14" lengthAdjust="spacing" textLength="98.8203" x="1050.8047" y="1840.2285">Alertes ruptures</text><path d="M990.8047,1776.8906 L1000.8047,1776.8906 C1015.8047,1776.8906 1015.8047,1834.5 1030.8047,1834.5 L1040.8047,1834.5 " fill="none" style="stroke:#181818;stroke-width:1;"/><path d="M842.9775,1575.2578 L852.9775,1575.2578 C867.9775,1575.2578 867.9775,1776.8906 882.9775,1776.8906 L892.9775,1776.8906 " fill="none" style="stroke:#181818;stroke-width:1;"/><path d="M694.4121,970.3594 L704.4121,970.3594 C719.4121,970.3594 719.4121,1575.2578 734.4121,1575.2578 L744.4121,1575.2578 " fill="none" style="stroke:#181818;stroke-width:1;"/><rect fill="#F1F1F1" height="37.6094" rx="12.5" ry="12.5" style="stroke:#181818;stroke-width:1.5;" width="86.9238" x="446.4268" y="375.4609"/><text fill="#000000" font-family="sans-serif" font-size="14" lengthAdjust="spacing" textLength="66.9238" x="456.4268" y="399.9941">ERP Odoo</text><rect fill="#F1F1F1" height="37.6094" rx="12.5" ry="12.5" style="stroke:#181818;stroke-width:1.5;" width="67.4619" x="328.9648" y="116.2188"/><text fill="#000000" font-family="sans-serif" font-size="14" lengthAdjust="spacing" textLength="47.4619" x="338.9648" y="140.752">Affaires</text><rect fill="#F1F1F1" height="37.6094" rx="12.5" ry="12.5" style="stroke:#181818;stroke-width:1.5;" width="109.4893" x="169.4756" y="58.6094"/><text fill="#000000" font-family="sans-serif" font-size="14" lengthAdjust="spacing" textLength="89.4893" x="179.4756" y="83.1426">Creation devis</text><path d="M328.9648,135.0234 L318.9648,135.0234 C303.9648,135.0234 303.9648,77.4141 288.9648,77.4141 L278.9648,77.4141 " fill="none" style="stroke:#181818;stroke-width:1;"/><rect fill="#F1F1F1" height="37.6094" rx="12.5" ry="12.5" style="stroke:#181818;stroke-width:1.5;" width="133.6133" x="145.3516" y="116.2188"/><text fill="#000000" font-family="sans-serif" font-size="14" lengthAdjust="spacing" textLength="113.6133" x="155.3516" y="140.752">Conversion affaire</text><path d="M328.9648,135.0234 L318.9648,135.0234 C303.9648,135.0234 303.9648,135.0234 288.9648,135.0234 L278.9648,135.0234 " fill="none" style="stroke:#181818;stroke-width:1;"/><rect fill="#F1F1F1" height="37.6094" rx="12.5" ry="12.5" style="stroke:#181818;stroke-width:1.5;" width="130.5029" x="148.4619" y="173.8281"/><text fill="#000000" font-family="sans-serif" font-size="14" lengthAdjust="spacing" textLength="110.5029" x="158.4619" y="198.3613">Suivi avancement</text><path d="M328.9648,135.0234 L318.9648,135.0234 C303.9648,135.0234 303.9648,192.6328 288.9648,192.6328 L278.9648,192.6328 " fill="none" style="stroke:#181818;stroke-width:1;"/><path d="M446.4268,394.2656 L436.4268,394.2656 C421.4268,394.2656 421.4268,135.0234 406.4268,135.0234 L396.4268,135.0234 " fill="none" style="stroke:#181818;stroke-width:1;"/><rect fill="#F1F1F1" height="37.6094" rx="12.5" ry="12.5" style="stroke:#181818;stroke-width:1.5;" width="62.7998" x="333.627" y="289.0469"/><text fill="#000000" font-family="sans-serif" font-size="14" lengthAdjust="spacing" textLength="42.7998" x="343.627" y="313.5801">Achats</text><rect fill="#F1F1F1" height="37.6094" rx="12.5" ry="12.5" style="stroke:#181818;stroke-width:1.5;" width="179.5098" x="104.1172" y="231.4375"/><text fill="#000000" font-family="sans-serif" font-size="14" lengthAdjust="spacing" textLength="159.5098" x="114.1172" y="255.9707">Commandes fournisseurs</text><path d="M333.627,307.8516 L323.627,307.8516 C308.627,307.8516 308.627,250.2422 293.627,250.2422 L283.627,250.2422 " fill="none" style="stroke:#181818;stroke-width:1;"/><rect fill="#F1F1F1" height="37.6094" rx="12.5" ry="12.5" style="stroke:#181818;stroke-width:1.5;" width="104.0547" x="179.5723" y="289.0469"/><text fill="#000000" font-family="sans-serif" font-size="14" lengthAdjust="spacing" textLength="84.0547" x="189.5723" y="313.5801">Reception BL</text><path d="M333.627,307.8516 L323.627,307.8516 C308.627,307.8516 308.627,307.8516 293.627,307.8516 L283.627,307.8516 " fill="none" style="stroke:#181818;stroke-width:1;"/><rect fill="#F1F1F1" height="37.6094" rx="12.5" ry="12.5" style="stroke:#181818;stroke-width:1.5;" width="154.6064" x="129.0205" y="346.6563"/><text fill="#000000" font-family="sans-serif" font-size="14" lengthAdjust="spacing" textLength="134.6064" x="139.0205" y="371.1895">Factures fournisseurs</text><path d="M333.627,307.8516 L323.627,307.8516 C308.627,307.8516 308.627,365.4609 293.627,365.4609 L283.627,365.4609 " fill="none" style="stroke:#181818;stroke-width:1;"/><path d="M446.4268,394.2656 L436.4268,394.2656 C421.4268,394.2656 421.4268,307.8516 406.4268,307.8516 L396.4268,307.8516 " fill="none" style="stroke:#181818;stroke-width:1;"/><rect fill="#F1F1F1" height="37.6094" rx="12.5" ry="12.5" style="stroke:#181818;stroke-width:1.5;" width="167.082" x="229.3447" y="461.875"/><text fill="#000000" font-family="sans-serif" font-size="14" lengthAdjust="spacing" textLength="147.082" x="239.3447" y="486.4082">Comptabilite Analytique</text><rect fill="#F1F1F1" height="37.6094" rx="12.5" ry="12.5" style="stroke:#181818;stroke-width:1.5;" width="133.6064" x="45.7383" y="404.2656"/><text fill="#000000" font-family="sans-serif" font-size="14" lengthAdjust="spacing" textLength="113.6064" x="55.7383" y="428.7988">Marges par affaire</text><path d="M229.3447,480.6797 L219.3447,480.6797 C204.3447,480.6797 204.3447,423.0703 189.3447,423.0703 L179.3447,423.0703 " fill="none" style="stroke:#181818;stroke-width:1;"/><rect fill="#F1F1F1" height="37.6094" rx="12.5" ry="12.5" style="stroke:#181818;stroke-width:1.5;" width="105.5928" x="73.752" y="461.875"/><text fill="#000000" font-family="sans-serif" font-size="14" lengthAdjust="spacing" textLength="85.5928" x="83.752" y="486.4082">Compta client</text><path d="M229.3447,480.6797 L219.3447,480.6797 C204.3447,480.6797 204.3447,480.6797 189.3447,480.6797 L179.3447,480.6797 " fill="none" style="stroke:#181818;stroke-width:1;"/><rect fill="#F1F1F1" height="37.6094" rx="12.5" ry="12.5" style="stroke:#181818;stroke-width:1.5;" width="142.165" x="37.1797" y="519.4844"/><text fill="#000000" font-family="sans-serif" font-size="14" lengthAdjust="spacing" textLength="122.165" x="47.1797" y="544.0176">Compta fournisseur</text><path d="M229.3447,480.6797 L219.3447,480.6797 C204.3447,480.6797 204.3447,538.2891 189.3447,538.2891 L179.3447,538.2891 " fill="none" style="stroke:#181818;stroke-width:1;"/><path d="M446.4268,394.2656 L436.4268,394.2656 C421.4268,394.2656 421.4268,480.6797 406.4268,480.6797 L396.4268,480.6797 " fill="none" style="stroke:#181818;stroke-width:1;"/><rect fill="#F1F1F1" height="37.6094" rx="12.5" ry="12.5" style="stroke:#181818;stroke-width:1.5;" width="129.7031" x="266.7236" y="634.7031"/><text fill="#000000" font-family="sans-serif" font-size="14" lengthAdjust="spacing" textLength="109.7031" x="276.7236" y="659.2363">Projet (Chantiers)</text><rect fill="#F1F1F1" height="37.6094" rx="12.5" ry="12.5" style="stroke:#181818;stroke-width:1.5;" width="119.627" x="97.0967" y="577.0938"/><text fill="#000000" font-family="sans-serif" font-size="14" lengthAdjust="spacing" textLength="99.627" x="107.0967" y="601.627">Planning taches</text><path d="M266.7236,653.5078 L256.7236,653.5078 C241.7236,653.5078 241.7236,595.8984 226.7236,595.8984 L216.7236,595.8984 " fill="none" style="stroke:#181818;stroke-width:1;"/><rect fill="#F1F1F1" height="37.6094" rx="12.5" ry="12.5" style="stroke:#181818;stroke-width:1.5;" width="136.7236" x="80" y="634.7031"/><text fill="#000000" font-family="sans-serif" font-size="14" lengthAdjust="spacing" textLength="116.7236" x="90" y="659.2363">Heures employees</text><path d="M266.7236,653.5078 L256.7236,653.5078 C241.7236,653.5078 241.7236,653.5078 226.7236,653.5078 L216.7236,653.5078 " fill="none" style="stroke:#181818;stroke-width:1;"/><rect fill="#F1F1F1" height="37.6094" rx="12.5" ry="12.5" style="stroke:#181818;stroke-width:1.5;" width="117.2822" x="99.4414" y="692.3125"/><text fill="#000000" font-family="sans-serif" font-size="14" lengthAdjust="spacing" textLength="97.2822" x="109.4414" y="716.8457">Photos chantier</text><path d="M266.7236,653.5078 L256.7236,653.5078 C241.7236,653.5078 241.7236,711.1172 226.7236,711.1172 L216.7236,711.1172 " fill="none" style="stroke:#181818;stroke-width:1;"/><path d="M446.4268,394.2656 L436.4268,394.2656 C421.4268,394.2656 421.4268,653.5078 406.4268,653.5078 L396.4268,653.5078 " fill="none" style="stroke:#181818;stroke-width:1;"/><path d="M583.3506,970.3594 L573.3506,970.3594 C558.3506,970.3594 558.3506,394.2656 543.3506,394.2656 L533.3506,394.2656 " fill="none" style="stroke:#181818;stroke-width:1;"/><rect fill="#F1F1F1" height="37.6094" rx="12.5" ry="12.5" style="stroke:#181818;stroke-width:1.5;" width="149.165" x="384.1855" y="1066.7734"/><text fill="#000000" font-family="sans-serif" font-size="14" lengthAdjust="spacing" textLength="129.165" x="394.1855" y="1091.3066">RBAC Transparence</text><rect fill="#F1F1F1" height="37.6094" rx="12.5" ry="12.5" style="stroke:#181818;stroke-width:1.5;" width="98.5723" x="235.6133" y="893.9453"/><text fill="#000000" font-family="sans-serif" font-size="14" lengthAdjust="spacing" textLength="78.5723" x="245.6133" y="918.4785">Droits Acces</text><rect fill="#F1F1F1" height="37.6094" rx="12.5" ry="12.5" style="stroke:#181818;stroke-width:1.5;" width="125.8135" x="59.7998" y="749.9219"/><text fill="#000000" font-family="sans-serif" font-size="14" lengthAdjust="spacing" textLength="105.8135" x="69.7998" y="774.4551">Admin (direction)</text><path d="M235.6133,912.75 L225.6133,912.75 C210.6133,912.75 210.6133,768.7266 195.6133,768.7266 L185.6133,768.7266 " fill="none" style="stroke:#181818;stroke-width:1;"/><rect fill="#F1F1F1" height="37.6094" rx="12.5" ry="12.5" style="stroke:#181818;stroke-width:1.5;" width="175.6133" x="10" y="807.5313"/><text fill="#000000" font-family="sans-serif" font-size="14" lengthAdjust="spacing" textLength="155.6133" x="20" y="832.0645">Controle Gestion (Sylvie)</text><path d="M235.6133,912.75 L225.6133,912.75 C210.6133,912.75 210.6133,826.3359 195.6133,826.3359 L185.6133,826.3359 " fill="none" style="stroke:#181818;stroke-width:1;"/><rect fill="#F1F1F1" height="37.6094" rx="12.5" ry="12.5" style="stroke:#181818;stroke-width:1.5;" width="146.0752" x="39.5381" y="865.1406"/><text fill="#000000" font-family="sans-serif" font-size="14" lengthAdjust="spacing" textLength="126.0752" x="49.5381" y="889.6738">Responsable Affaire</text><path d="M235.6133,912.75 L225.6133,912.75 C210.6133,912.75 210.6133,883.9453 195.6133,883.9453 L185.6133,883.9453 " fill="none" style="stroke:#181818;stroke-width:1;"/><rect fill="#F1F1F1" height="37.6094" rx="12.5" ry="12.5" style="stroke:#181818;stroke-width:1.5;" width="106.3789" x="79.2344" y="922.75"/><text fill="#000000" font-family="sans-serif" font-size="14" lengthAdjust="spacing" textLength="86.3789" x="89.2344" y="947.2832">Chef Chantier</text><path d="M235.6133,912.75 L225.6133,912.75 C210.6133,912.75 210.6133,941.5547 195.6133,941.5547 L185.6133,941.5547 " fill="none" style="stroke:#181818;stroke-width:1;"/><rect fill="#F1F1F1" height="37.6094" rx="12.5" ry="12.5" style="stroke:#181818;stroke-width:1.5;" width="88.4756" x="97.1377" y="980.3594"/><text fill="#000000" font-family="sans-serif" font-size="14" lengthAdjust="spacing" textLength="68.4756" x="107.1377" y="1004.8926">Magasinier</text><path d="M235.6133,912.75 L225.6133,912.75 C210.6133,912.75 210.6133,999.1641 195.6133,999.1641 L185.6133,999.1641 " fill="none" style="stroke:#181818;stroke-width:1;"/><rect fill="#F1F1F1" height="37.6094" rx="12.5" ry="12.5" style="stroke:#181818;stroke-width:1.5;" width="104.0547" x="81.5586" y="1037.9688"/><text fill="#000000" font-family="sans-serif" font-size="14" lengthAdjust="spacing" textLength="84.0547" x="91.5586" y="1062.502">Lecture seule</text><path d="M235.6133,912.75 L225.6133,912.75 C210.6133,912.75 210.6133,1056.7734 195.6133,1056.7734 L185.6133,1056.7734 " fill="none" style="stroke:#181818;stroke-width:1;"/><path d="M384.1855,1085.5781 L374.1855,1085.5781 C359.1855,1085.5781 359.1855,912.75 344.1855,912.75 L334.1855,912.75 " fill="none" style="stroke:#181818;stroke-width:1;"/><rect fill="#F1F1F1" height="37.6094" rx="12.5" ry="12.5" style="stroke:#181818;stroke-width:1.5;" width="83.0205" x="251.165" y="1153.1875"/><text fill="#000000" font-family="sans-serif" font-size="14" lengthAdjust="spacing" textLength="63.0205" x="261.165" y="1177.7207">Audit Trail</text><rect fill="#F1F1F1" height="37.6094" rx="12.5" ry="12.5" style="stroke:#181818;stroke-width:1.5;" width="140.6338" x="60.5313" y="1095.5781"/><text fill="#000000" font-family="sans-serif" font-size="14" lengthAdjust="spacing" textLength="120.6338" x="70.5313" y="1120.1113">Logs toutes actions</text><path d="M251.165,1171.9922 L241.165,1171.9922 C226.165,1171.9922 226.165,1114.3828 211.165,1114.3828 L201.165,1114.3828 " fill="none" style="stroke:#181818;stroke-width:1;"/><rect fill="#F1F1F1" height="37.6094" rx="12.5" ry="12.5" style="stroke:#181818;stroke-width:1.5;" width="118.0684" x="83.0967" y="1153.1875"/><text fill="#000000" font-family="sans-serif" font-size="14" lengthAdjust="spacing" textLength="98.0684" x="93.0967" y="1177.7207">Retention 3 ans</text><path d="M251.165,1171.9922 L241.165,1171.9922 C226.165,1171.9922 226.165,1171.9922 211.165,1171.9922 L201.165,1171.9922 " fill="none" style="stroke:#181818;stroke-width:1;"/><rect fill="#F1F1F1" height="37.6094" rx="12.5" ry="12.5" style="stroke:#181818;stroke-width:1.5;" width="174.8477" x="26.3174" y="1210.7969"/><text fill="#000000" font-family="sans-serif" font-size="14" lengthAdjust="spacing" textLength="154.8477" x="36.3174" y="1235.3301">Recherche Elasticsearch</text><path d="M251.165,1171.9922 L241.165,1171.9922 C226.165,1171.9922 226.165,1229.6016 211.165,1229.6016 L201.165,1229.6016 " fill="none" style="stroke:#181818;stroke-width:1;"/><path d="M384.1855,1085.5781 L374.1855,1085.5781 C359.1855,1085.5781 359.1855,1171.9922 344.1855,1171.9922 L334.1855,1171.9922 " fill="none" style="stroke:#181818;stroke-width:1;"/><rect fill="#F1F1F1" height="37.6094" rx="12.5" ry="12.5" style="stroke:#181818;stroke-width:1.5;" width="96.2754" x="237.9102" y="1326.0156"/><text fill="#000000" font-family="sans-serif" font-size="14" lengthAdjust="spacing" textLength="76.2754" x="247.9102" y="1350.5488">Partage Info</text><rect fill="#F1F1F1" height="37.6094" rx="12.5" ry="12.5" style="stroke:#181818;stroke-width:1.5;" width="148.4199" x="39.4902" y="1268.4063"/><text fill="#000000" font-family="sans-serif" font-size="14" lengthAdjust="spacing" textLength="128.4199" x="49.4902" y="1292.9395">Chef voit son budget</text><path d="M237.9102,1344.8203 L227.9102,1344.8203 C212.9102,1344.8203 212.9102,1287.2109 197.9102,1287.2109 L187.9102,1287.2109 " fill="none" style="stroke:#181818;stroke-width:1;"/><rect fill="#F1F1F1" height="37.6094" rx="12.5" ry="12.5" style="stroke:#181818;stroke-width:1.5;" width="177.1787" x="10.7314" y="1326.0156"/><text fill="#000000" font-family="sans-serif" font-size="14" lengthAdjust="spacing" textLength="157.1787" x="20.7314" y="1350.5488">Chef voit consommations</text><path d="M237.9102,1344.8203 L227.9102,1344.8203 C212.9102,1344.8203 212.9102,1344.8203 197.9102,1344.8203 L187.9102,1344.8203 " fill="none" style="stroke:#181818;stroke-width:1;"/><rect fill="#F1F1F1" height="37.6094" rx="12.5" ry="12.5" style="stroke:#181818;stroke-width:1.5;" width="153.0615" x="34.8486" y="1383.625"/><text fill="#000000" font-family="sans-serif" font-size="14" lengthAdjust="spacing" textLength="133.0615" x="44.8486" y="1408.1582">Chef voit reste a faire</text><path d="M237.9102,1344.8203 L227.9102,1344.8203 C212.9102,1344.8203 212.9102,1402.4297 197.9102,1402.4297 L187.9102,1402.4297 " fill="none" style="stroke:#181818;stroke-width:1;"/><path d="M384.1855,1085.5781 L374.1855,1085.5781 C359.1855,1085.5781 359.1855,1344.8203 344.1855,1344.8203 L334.1855,1344.8203 " fill="none" style="stroke:#181818;stroke-width:1;"/><path d="M583.3506,970.3594 L573.3506,970.3594 C558.3506,970.3594 558.3506,1085.5781 543.3506,1085.5781 L533.3506,1085.5781 " fill="none" style="stroke:#181818;stroke-width:1;"/><rect fill="#F1F1F1" height="37.6094" rx="12.5" ry="12.5" style="stroke:#181818;stroke-width:1.5;" width="93.1582" x="440.1924" y="1642.8672"/><text fill="#000000" font-family="sans-serif" font-size="14" lengthAdjust="spacing" textLength="73.1582" x="450.1924" y="1667.4004">Integrations</text><rect fill="#F1F1F1" height="37.6094" rx="12.5" ry="12.5" style="stroke:#181818;stroke-width:1.5;" width="111.8135" x="278.3789" y="1470.0391"/><text fill="#000000" font-family="sans-serif" font-size="14" lengthAdjust="spacing" textLength="91.8135" x="288.3789" y="1494.5723">SAGE Compta</text><rect fill="#F1F1F1" height="37.6094" rx="12.5" ry="12.5" style="stroke:#181818;stroke-width:1.5;" width="114.1514" x="114.2275" y="1441.2344"/><text fill="#000000" font-family="sans-serif" font-size="14" lengthAdjust="spacing" textLength="94.1514" x="124.2275" y="1465.7676">Export factures</text><path d="M278.3789,1488.8438 L268.3789,1488.8438 C253.3789,1488.8438 253.3789,1460.0391 238.3789,1460.0391 L228.3789,1460.0391 " fill="none" style="stroke:#181818;stroke-width:1;"/><rect fill="#F1F1F1" height="37.6094" rx="12.5" ry="12.5" style="stroke:#181818;stroke-width:1.5;" width="128.1582" x="100.2207" y="1498.8438"/><text fill="#000000" font-family="sans-serif" font-size="14" lengthAdjust="spacing" textLength="108.1582" x="110.2207" y="1523.377">Import paiements</text><path d="M278.3789,1488.8438 L268.3789,1488.8438 C253.3789,1488.8438 253.3789,1517.6484 238.3789,1517.6484 L228.3789,1517.6484 " fill="none" style="stroke:#181818;stroke-width:1;"/><path d="M440.1924,1661.6719 L430.1924,1661.6719 C415.1924,1661.6719 415.1924,1488.8438 400.1924,1488.8438 L390.1924,1488.8438 " fill="none" style="stroke:#181818;stroke-width:1;"/><rect fill="#F1F1F1" height="37.6094" rx="12.5" ry="12.5" style="stroke:#181818;stroke-width:1.5;" width="94.6826" x="295.5098" y="1585.2578"/><text fill="#000000" font-family="sans-serif" font-size="14" lengthAdjust="spacing" textLength="74.6826" x="305.5098" y="1609.791">Lireco RFID</text><rect fill="#F1F1F1" height="37.6094" rx="12.5" ry="12.5" style="stroke:#181818;stroke-width:1.5;" width="191.9717" x="53.5381" y="1556.4531"/><text fill="#000000" font-family="sans-serif" font-size="14" lengthAdjust="spacing" textLength="171.9717" x="63.5381" y="1580.9863">Sync stocks bidirectionnelle</text><path d="M295.5098,1604.0625 L285.5098,1604.0625 C270.5098,1604.0625 270.5098,1575.2578 255.5098,1575.2578 L245.5098,1575.2578 " fill="none" style="stroke:#181818;stroke-width:1;"/><rect fill="#F1F1F1" height="37.6094" rx="12.5" ry="12.5" style="stroke:#181818;stroke-width:1.5;" width="154.627" x="90.8828" y="1614.0625"/><text fill="#000000" font-family="sans-serif" font-size="14" lengthAdjust="spacing" textLength="134.627" x="100.8828" y="1638.5957">Webhooks receptions</text><path d="M295.5098,1604.0625 L285.5098,1604.0625 C270.5098,1604.0625 270.5098,1632.8672 255.5098,1632.8672 L245.5098,1632.8672 " fill="none" style="stroke:#181818;stroke-width:1;"/><path d="M440.1924,1661.6719 L430.1924,1661.6719 C415.1924,1661.6719 415.1924,1604.0625 400.1924,1604.0625 L390.1924,1604.0625 " fill="none" style="stroke:#181818;stroke-width:1;"/><rect fill="#F1F1F1" height="37.6094" rx="12.5" ry="12.5" style="stroke:#181818;stroke-width:1.5;" width="107.1445" x="283.0479" y="1700.4766"/><text fill="#000000" font-family="sans-serif" font-size="14" lengthAdjust="spacing" textLength="87.1445" x="293.0479" y="1725.0098">Linear Tickets</text><rect fill="#F1F1F1" height="37.6094" rx="12.5" ry="12.5" style="stroke:#181818;stroke-width:1.5;" width="142.958" x="90.0898" y="1671.6719"/><text fill="#000000" font-family="sans-serif" font-size="14" lengthAdjust="spacing" textLength="122.958" x="100.0898" y="1696.2051">Sync demandes BE</text><path d="M283.0479,1719.2813 L273.0479,1719.2813 C258.0479,1719.2813 258.0479,1690.4766 243.0479,1690.4766 L233.0479,1690.4766 " fill="none" style="stroke:#181818;stroke-width:1;"/><rect fill="#F1F1F1" height="37.6094" rx="12.5" ry="12.5" style="stroke:#181818;stroke-width:1.5;" width="96.2549" x="136.793" y="1729.2813"/><text fill="#000000" font-family="sans-serif" font-size="14" lengthAdjust="spacing" textLength="76.2549" x="146.793" y="1753.8145">Notifications</text><path d="M283.0479,1719.2813 L273.0479,1719.2813 C258.0479,1719.2813 258.0479,1748.0859 243.0479,1748.0859 L233.0479,1748.0859 " fill="none" style="stroke:#181818;stroke-width:1;"/><path d="M440.1924,1661.6719 L430.1924,1661.6719 C415.1924,1661.6719 415.1924,1719.2813 400.1924,1719.2813 L390.1924,1719.2813 " fill="none" style="stroke:#181818;stroke-width:1;"/><rect fill="#F1F1F1" height="37.6094" rx="12.5" ry="12.5" style="stroke:#181818;stroke-width:1.5;" width="118.041" x="272.1514" y="1815.6953"/><text fill="#000000" font-family="sans-serif" font-size="14" lengthAdjust="spacing" textLength="98.041" x="282.1514" y="1840.2285">SendGrid Email</text><rect fill="#F1F1F1" height="37.6094" rx="12.5" ry="12.5" style="stroke:#181818;stroke-width:1.5;" width="127.3926" x="94.7588" y="1786.8906"/><text fill="#000000" font-family="sans-serif" font-size="14" lengthAdjust="spacing" textLength="107.3926" x="104.7588" y="1811.4238">Notifications auto</text><path d="M272.1514,1834.5 L262.1514,1834.5 C247.1514,1834.5 247.1514,1805.6953 232.1514,1805.6953 L222.1514,1805.6953 " fill="none" style="stroke:#181818;stroke-width:1;"/><rect fill="#F1F1F1" height="37.6094" rx="12.5" ry="12.5" style="stroke:#181818;stroke-width:1.5;" width="114.1514" x="108" y="1844.5"/><text fill="#000000" font-family="sans-serif" font-size="14" lengthAdjust="spacing" textLength="94.1514" x="118" y="1869.0332">Rapports email</text><path d="M272.1514,1834.5 L262.1514,1834.5 C247.1514,1834.5 247.1514,1863.3047 232.1514,1863.3047 L222.1514,1863.3047 " fill="none" style="stroke:#181818;stroke-width:1;"/><path d="M440.1924,1661.6719 L430.1924,1661.6719 C415.1924,1661.6719 415.1924,1834.5 400.1924,1834.5 L390.1924,1834.5 " fill="none" style="stroke:#181818;stroke-width:1;"/><path d="M583.3506,970.3594 L573.3506,970.3594 C558.3506,970.3594 558.3506,1661.6719 543.3506,1661.6719 L533.3506,1661.6719 " fill="none" style="stroke:#181818;stroke-width:1;"/><!--SRC=[RLRRRjiu47tNLypJmWwmnSPDYy9FTNn9qxKRmtQoBmiiQ6aaiQ58BKa9pT_ly29QIVR1DiYvS7ZcpA6_6ikqRRWi6jR2Blp-ir4ojrn9oGItQBBCSYiG5lgiD9eSPOwGV52GwGwDMy13YvgbxIox6Yn_otUcA_XpVm-_mOgP-goOBWpjNOsMSCAcDN105Cv29gxH7meJ5re9TMRThsam7bz4pn4cIoMjLfUQelc0fbNIiBD00ukoP9JBmEHmkrX6ZsMDfQ5l9Yr7FJ9H9XbhXmDhMwKjfUYi2d7xrGOQbAP30IpjhdyvF_h9QPkkRWAS1dt6XK1jCMHfAFE_7PfuHsoPCKW9wP1pLrHepN03wr5f1PEIoohixfYkA974YjBq8GliDHRS8sLWjurbQlKpehTSm4Te54z7scXWageHVAZbeRMyuIRSF1sRUR2DfHhXnFDdAX1krn6eG8CLDamMGvgDqaqd7E10T9C5tIBYuAhYIWz7C57HmjPDD6uujP5PIrWWMCsaQPbs2t_OIJDkFL136I5gOGolfDzd5tY77cib5LXFB9s8zTWAnGeGlDUU83x_qLAa6VU682mwGggdS-ELoSrvbIm0M8IBTpf610OtwWMbkq2iDq1eLVvCxDxShxBGtXnRdsGWXS5OzJ5dqZk2uzIe8CT6hV8QqstXDhPxgJ60AWWCXAqR7PNu2VUofn0_137LE3rCPZNq1cO_f_ztaAsH-kJyoAUjNym0C3mnSMddKjMOsaNeAL8J7xLytEsXawEsC95tONgWPsB0ZpBGM0dhqqKe76hl-aVOqL7qWTQrY2Sgn37JNMixTzLCO6d1y288qFgmXuT21KW6KNY3Nu7zC2XKJa-JxAaQd6DH7L42MCz867r_VRgyPZO5Dc4We5ITbfm6F57aqlUXTHiYawlsdRFBqrfsvawMOK5wyZBYTbG26f7NrOKWo6ckGsbfQvG_In9XIKAZ1fhO_NqSVR2CC8vrVqDV8tL24BtJYDJAAWDvpE1HTaBgfZMERnweijAAEntDyo5sKT1319DYKFbfGlsLeCCaIFrxOHzQUD7p9ES3H1KpNARr5ZtIG0Y8ACnTmQsNbaYjhQeCMDKv6eKXlyWnuUdg-KYwQTuISIqOLPiRPBGCwD9BoogaqIlLgCAUO01w7QBOlxNaTA1Zp-ZaYv4QG4IWHlfRPtwkBLRwuWt7nTqwzllLmrH6aeND-yPljeo7byU7HiqO5Cgflin9mhrkdNdgKtZGlSTVUAwLUdQp6Lazf984n6kTzjcYO9eafp-KvINFnpT0MTnfNi2wILrvvJLwTTFpZDut-qgnyTzDbZaQsyVT5eOXllum-sDsy-7BPACvfUpX-XDSVvdVtCnlFiDoVG9ddcQJk_sMEjHf-jj3BvVL_Dm5VdwdcOT3HpHeS0vkDJdjfd1S3vkmbZsd9yUhmlUdNN22RyeUMsMzy-URts-fbKVKL1OyxR8Lben4Zq9pLT3KpM7PNiy-pR8jarL739f3gREbeXFqonmsX_y0]--></g></svg>