<svg xmlns="http://www.w3.org/2000/svg" xmlns:xlink="http://www.w3.org/1999/xlink" contentStyleType="text/css" height="2122px" preserveAspectRatio="none" style="width:862px;height:2122px;background:#FFFFFF;" version="1.1" viewBox="0 0 862 2122" width="862px" zoomAndPan="magnify"><title>Processus Generation PPSPS - ETAT ACTUEL (Word Manuel)</title><defs/><g><text fill="#000000" font-family="sans-serif" font-size="14" font-weight="bold" lengthAdjust="spacing" textLength="409.9443" x="222.0889" y="29.5332">Processus Generation PPSPS - ETAT ACTUEL (Word Manuel)</text><rect fill="none" height="131.7578" style="stroke:#000000;stroke-width:1.5;" width="466.3784" x="54" y="440.0469"/><line style="stroke:#181818;stroke-width:0.5;stroke-dasharray:5.0,5.0;" x1="112" x2="112" y1="138.8281" y2="2022.2813"/><line style="stroke:#181818;stroke-width:0.5;stroke-dasharray:5.0,5.0;" x1="417.896" x2="417.896" y1="138.8281" y2="2022.2813"/><line style="stroke:#181818;stroke-width:0.5;stroke-dasharray:5.0,5.0;" x1="485.9302" x2="485.9302" y1="138.8281" y2="2022.2813"/><line style="stroke:#181818;stroke-width:0.5;stroke-dasharray:5.0,5.0;" x1="544.3784" x2="544.3784" y1="138.8281" y2="2022.2813"/><line style="stroke:#181818;stroke-width:0.5;stroke-dasharray:5.0,5.0;" x1="631.6128" x2="631.6128" y1="138.8281" y2="2022.2813"/><line style="stroke:#181818;stroke-width:0.5;stroke-dasharray:5.0,5.0;" x1="762.3223" x2="762.3223" y1="138.8281" y2="2022.2813"/><line style="stroke:#181818;stroke-width:0.5;stroke-dasharray:5.0,5.0;" x1="817.3291" x2="817.3291" y1="138.8281" y2="2022.2813"/><text fill="#000000" font-family="sans-serif" font-size="14" lengthAdjust="spacing" textLength="47.4824" x="85.3828" y="118.1426">Laurent</text><text fill="#000000" font-family="sans-serif" font-size="14" lengthAdjust="spacing" textLength="90.248" x="64" y="135.752">(Resp. Affaire)</text><ellipse cx="112.124" cy="52.1094" fill="#FFB6C1" rx="8" ry="8" style="stroke:#181818;stroke-width:0.5;"/><path d="M112.124,60.1094 L112.124,87.1094 M99.124,68.1094 L125.124,68.1094 M112.124,87.1094 L99.124,102.1094 M112.124,87.1094 L125.124,102.1094 " fill="none" style="stroke:#181818;stroke-width:0.5;"/><text fill="#000000" font-family="sans-serif" font-size="14" lengthAdjust="spacing" textLength="47.4824" x="85.3828" y="2035.8145">Laurent</text><text fill="#000000" font-family="sans-serif" font-size="14" lengthAdjust="spacing" textLength="90.248" x="64" y="2053.4238">(Resp. Affaire)</text><ellipse cx="112.124" cy="2065" fill="#FFB6C1" rx="8" ry="8" style="stroke:#181818;stroke-width:0.5;"/><path d="M112.124,2073 L112.124,2100 M99.124,2081 L125.124,2081 M112.124,2100 L99.124,2115 M112.124,2100 L125.124,2115 " fill="none" style="stroke:#181818;stroke-width:0.5;"/><rect fill="#E2E2F0" height="49.2188" rx="2.5" ry="2.5" style="stroke:#181818;stroke-width:0.5;" width="70.0342" x="382.896" y="88.6094"/><text fill="#000000" font-family="sans-serif" font-size="14" lengthAdjust="spacing" textLength="54.4551" x="390.6855" y="110.1426">Dossiers</text><text fill="#000000" font-family="sans-serif" font-size="14" lengthAdjust="spacing" textLength="56.0342" x="389.896" y="127.752">Partages</text><rect fill="#E2E2F0" height="49.2188" rx="2.5" ry="2.5" style="stroke:#181818;stroke-width:0.5;" width="70.0342" x="382.896" y="2021.2813"/><text fill="#000000" font-family="sans-serif" font-size="14" lengthAdjust="spacing" textLength="54.4551" x="390.6855" y="2042.8145">Dossiers</text><text fill="#000000" font-family="sans-serif" font-size="14" lengthAdjust="spacing" textLength="56.0342" x="389.896" y="2060.4238">Partages</text><rect fill="#4169E1" height="31.6094" rx="2.5" ry="2.5" style="stroke:#181818;stroke-width:0.5;" width="47.4482" x="462.9302" y="106.2188"/><text fill="#000000" font-family="sans-serif" font-size="14" lengthAdjust="spacing" textLength="33.4482" x="469.9302" y="127.752">Word</text><rect fill="#4169E1" height="31.6094" rx="2.5" ry="2.5" style="stroke:#181818;stroke-width:0.5;" width="47.4482" x="462.9302" y="2021.2813"/><text fill="#000000" font-family="sans-serif" font-size="14" lengthAdjust="spacing" textLength="33.4482" x="469.9302" y="2042.8145">Word</text><rect fill="#FFD700" height="31.6094" rx="2.5" ry="2.5" style="stroke:#181818;stroke-width:0.5;" width="48.2344" x="520.3784" y="106.2188"/><text fill="#000000" font-family="sans-serif" font-size="14" lengthAdjust="spacing" textLength="34.2344" x="527.3784" y="127.752">Excel</text><rect fill="#FFD700" height="31.6094" rx="2.5" ry="2.5" style="stroke:#181818;stroke-width:0.5;" width="48.2344" x="520.3784" y="2021.2813"/><text fill="#000000" font-family="sans-serif" font-size="14" lengthAdjust="spacing" textLength="34.2344" x="527.3784" y="2042.8145">Excel</text><text fill="#000000" font-family="sans-serif" font-size="14" lengthAdjust="spacing" textLength="50.5723" x="604.2988" y="118.1426">Thomas</text><text fill="#000000" font-family="sans-serif" font-size="14" lengthAdjust="spacing" textLength="101.9443" x="578.6128" y="135.752">(Bureau Etudes)</text><ellipse cx="632.585" cy="52.1094" fill="#98FB98" rx="8" ry="8" style="stroke:#181818;stroke-width:0.5;"/><path d="M632.585,60.1094 L632.585,87.1094 M619.585,68.1094 L645.585,68.1094 M632.585,87.1094 L619.585,102.1094 M632.585,87.1094 L645.585,102.1094 " fill="none" style="stroke:#181818;stroke-width:0.5;"/><text fill="#000000" font-family="sans-serif" font-size="14" lengthAdjust="spacing" textLength="50.5723" x="604.2988" y="2035.8145">Thomas</text><text fill="#000000" font-family="sans-serif" font-size="14" lengthAdjust="spacing" textLength="101.9443" x="578.6128" y="2053.4238">(Bureau Etudes)</text><ellipse cx="632.585" cy="2065" fill="#98FB98" rx="8" ry="8" style="stroke:#181818;stroke-width:0.5;"/><path d="M632.585,2073 L632.585,2100 M619.585,2081 L645.585,2081 M632.585,2100 L619.585,2115 M632.585,2100 L645.585,2115 " fill="none" style="stroke:#181818;stroke-width:0.5;"/><rect fill="#E2E2F0" height="31.6094" rx="2.5" ry="2.5" style="stroke:#181818;stroke-width:0.5;" width="49.0068" x="738.3223" y="106.2188"/><text fill="#000000" font-family="sans-serif" font-size="14" lengthAdjust="spacing" textLength="35.0068" x="745.3223" y="127.752">Email</text><rect fill="#E2E2F0" height="31.6094" rx="2.5" ry="2.5" style="stroke:#181818;stroke-width:0.5;" width="49.0068" x="738.3223" y="2021.2813"/><text fill="#000000" font-family="sans-serif" font-size="14" lengthAdjust="spacing" textLength="35.0068" x="745.3223" y="2042.8145">Email</text><text fill="#000000" font-family="sans-serif" font-size="14" lengthAdjust="spacing" textLength="35.793" x="797.3291" y="135.752">Client</text><ellipse cx="818.2256" cy="69.7188" fill="#ADD8E6" rx="8" ry="8" style="stroke:#181818;stroke-width:0.5;"/><path d="M818.2256,77.7188 L818.2256,104.7188 M805.2256,85.7188 L831.2256,85.7188 M818.2256,104.7188 L805.2256,119.7188 M818.2256,104.7188 L831.2256,119.7188 " fill="none" style="stroke:#181818;stroke-width:0.5;"/><text fill="#000000" font-family="sans-serif" font-size="14" lengthAdjust="spacing" textLength="35.793" x="797.3291" y="2035.8145">Client</text><ellipse cx="818.2256" cy="2047.3906" fill="#ADD8E6" rx="8" ry="8" style="stroke:#181818;stroke-width:0.5;"/><path d="M818.2256,2055.3906 L818.2256,2082.3906 M805.2256,2063.3906 L831.2256,2063.3906 M818.2256,2082.3906 L805.2256,2097.3906 M818.2256,2082.3906 L831.2256,2097.3906 " fill="none" style="stroke:#181818;stroke-width:0.5;"/><rect fill="#EEEEEE" height="3" style="stroke:#EEEEEE;stroke-width:1;" width="855.1221" x="0" y="170.0039"/><line style="stroke:#000000;stroke-width:1;" x1="0" x2="855.1221" y1="170.0039" y2="170.0039"/><line style="stroke:#000000;stroke-width:1;" x1="0" x2="855.1221" y1="173.0039" y2="173.0039"/><rect fill="#EEEEEE" height="24.3516" style="stroke:#000000;stroke-width:2;" width="189.5762" x="332.7729" y="158.8281"/><text fill="#000000" font-family="sans-serif" font-size="13" font-weight="bold" lengthAdjust="spacing" textLength="171.9644" x="338.7729" y="176.3232">14h00 - Recherche template</text><line style="stroke:#181818;stroke-width:1;" x1="112.124" x2="154.124" y1="220.207" y2="220.207"/><line style="stroke:#181818;stroke-width:1;" x1="154.124" x2="154.124" y1="220.207" y2="233.207"/><line style="stroke:#181818;stroke-width:1;" x1="113.124" x2="154.124" y1="233.207" y2="233.207"/><polygon fill="#181818" points="123.124,229.207,113.124,233.207,123.124,237.207,119.124,233.207" style="stroke:#181818;stroke-width:1;"/><text fill="#000000" font-family="sans-serif" font-size="13" lengthAdjust="spacing" textLength="149.5762" x="119.124" y="215.3506">Nouvelle affaire demarree</text><path d="M280.5762,198.1797 L280.5762,240.1797 L405.5762,240.1797 L405.5762,208.1797 L395.5762,198.1797 L280.5762,198.1797 " fill="#FEFFDD" style="stroke:#181818;stroke-width:0.5;"/><path d="M395.5762,198.1797 L395.5762,208.1797 L405.5762,208.1797 L395.5762,198.1797 " fill="#FEFFDD" style="stroke:#181818;stroke-width:0.5;"/><text fill="#000000" font-family="sans-serif" font-size="13" lengthAdjust="spacing" textLength="90.3271" x="286.5762" y="216.6748">Besoin: PPSPS</text><text fill="#000000" font-family="sans-serif" font-size="13" lengthAdjust="spacing" textLength="104.7935" x="286.5762" y="233.0264">pour chantier neuf</text><polygon fill="#181818" points="405.9131,275.4102,415.9131,279.4102,405.9131,283.4102,409.9131,279.4102" style="stroke:#181818;stroke-width:1;"/><line style="stroke:#181818;stroke-width:1;" x1="112.124" x2="411.9131" y1="279.4102" y2="279.4102"/><text fill="#000000" font-family="sans-serif" font-size="13" lengthAdjust="spacing" textLength="168.3779" x="119.124" y="274.5537">Connexion dossiers partages</text><path d="M422,250.8828 L422,292.8828 L592,292.8828 L592,260.8828 L582,250.8828 L422,250.8828 " fill="#FF6B6B" style="stroke:#181818;stroke-width:0.5;"/><path d="M582,250.8828 L582,260.8828 L592,260.8828 L582,250.8828 " fill="#FF6B6B" style="stroke:#181818;stroke-width:0.5;"/><text fill="#000000" font-family="sans-serif" font-size="13" lengthAdjust="spacing" textLength="149.5508" x="428" y="269.3779">[!] Dossiers mal organises</text><text fill="#000000" font-family="sans-serif" font-size="13" lengthAdjust="spacing" textLength="125.5566" x="428" y="285.7295">"Documents/PPSPS/"</text><polygon fill="#181818" points="405.9131,368.9922,415.9131,372.9922,405.9131,376.9922,409.9131,372.9922" style="stroke:#181818;stroke-width:1;"/><line style="stroke:#181818;stroke-width:1;" x1="112.124" x2="411.9131" y1="372.9922" y2="372.9922"/><text fill="#000000" font-family="sans-serif" font-size="13" lengthAdjust="spacing" textLength="161.1162" x="119.124" y="368.1357">Recherche PPSPS similaire</text><path d="M422,303.5859 L422,427.5859 L671,427.5859 L671,313.5859 L661,303.5859 L422,303.5859 " fill="#FF6B6B" style="stroke:#181818;stroke-width:0.5;"/><path d="M661,303.5859 L661,313.5859 L671,313.5859 L661,303.5859 " fill="#FF6B6B" style="stroke:#181818;stroke-width:0.5;"/><text fill="#000000" font-family="sans-serif" font-size="13" lengthAdjust="spacing" textLength="10.8354" x="428" y="322.0811">[!]</text><text fill="#000000" font-family="sans-serif" font-size="13" font-weight="bold" lengthAdjust="spacing" textLength="158.1709" x="442.4473" y="322.0811">RECHERCHE MANUELLE</text><text fill="#000000" font-family="sans-serif" font-size="13" lengthAdjust="spacing" textLength="116.6826" x="428" y="338.4326">- 200+ fichiers Word</text><text fill="#000000" font-family="sans-serif" font-size="13" lengthAdjust="spacing" textLength="135.8398" x="428" y="354.7842">- Nommage incoherent:</text><text fill="#000000" font-family="sans-serif" font-size="13" lengthAdjust="spacing" textLength="197.8564" x="435.2236" y="371.1357">"PPSPS_final_v2_OK_2023.docx"</text><text fill="#000000" font-family="sans-serif" font-size="13" lengthAdjust="spacing" textLength="221.6665" x="435.2236" y="387.4873">"PPSPS_Client_A_VRAI_FINAL.docx"</text><text fill="#000000" font-family="sans-serif" font-size="13" lengthAdjust="spacing" textLength="111.2808" x="428" y="403.8389">- Pas de versioning</text><text fill="#000000" font-family="sans-serif" font-size="13" lengthAdjust="spacing" textLength="143.7808" x="428" y="420.1904">[TIME] 30 min de fouille !</text><path d="M54,440.0469 L126.4346,440.0469 L126.4346,448.3984 L116.4346,458.3984 L54,458.3984 L54,440.0469 " fill="#EEEEEE" style="stroke:#000000;stroke-width:1.5;"/><rect fill="none" height="131.7578" style="stroke:#000000;stroke-width:1.5;" width="466.3784" x="54" y="440.0469"/><text fill="#000000" font-family="sans-serif" font-size="13" font-weight="bold" lengthAdjust="spacing" textLength="27.4346" x="69" y="454.542">loop</text><text fill="#000000" font-family="sans-serif" font-size="11" font-weight="bold" lengthAdjust="spacing" textLength="65.4092" x="141.4346" y="453.4658">[3-4 fichiers]</text><polygon fill="#181818" points="123.124,476.75,113.124,480.75,123.124,484.75,119.124,480.75" style="stroke:#181818;stroke-width:1;"/><line style="stroke:#181818;stroke-width:1;stroke-dasharray:2.0,2.0;" x1="117.124" x2="416.9131" y1="480.75" y2="480.75"/><text fill="#000000" font-family="sans-serif" font-size="13" lengthAdjust="spacing" textLength="78.749" x="129.124" y="475.8936">Fichier trouve</text><polygon fill="#181818" points="474.6543,507.1016,484.6543,511.1016,474.6543,515.1016,478.6543,511.1016" style="stroke:#181818;stroke-width:1;"/><line style="stroke:#181818;stroke-width:1;" x1="112.124" x2="480.6543" y1="511.1016" y2="511.1016"/><text fill="#000000" font-family="sans-serif" font-size="13" lengthAdjust="spacing" textLength="57.8018" x="119.124" y="506.2451">Ouverture</text><line style="stroke:#181818;stroke-width:1;" x1="112.124" x2="154.124" y1="546.1289" y2="546.1289"/><line style="stroke:#181818;stroke-width:1;" x1="154.124" x2="154.124" y1="546.1289" y2="559.1289"/><line style="stroke:#181818;stroke-width:1;" x1="113.124" x2="154.124" y1="559.1289" y2="559.1289"/><polygon fill="#181818" points="123.124,555.1289,113.124,559.1289,123.124,563.1289,119.124,559.1289" style="stroke:#181818;stroke-width:1;"/><text fill="#000000" font-family="sans-serif" font-size="13" lengthAdjust="spacing" textLength="76.6035" x="119.124" y="541.2725">Verif contenu</text><path d="M207.6035,524.1016 L207.6035,566.1016 L367.6035,566.1016 L367.6035,534.1016 L357.6035,524.1016 L207.6035,524.1016 " fill="#FFD700" style="stroke:#181818;stroke-width:0.5;"/><path d="M357.6035,524.1016 L357.6035,534.1016 L367.6035,534.1016 L357.6035,524.1016 " fill="#FFD700" style="stroke:#181818;stroke-width:0.5;"/><text fill="#000000" font-family="sans-serif" font-size="13" lengthAdjust="spacing" textLength="139.4771" x="213.6035" y="542.5967">Pas le bon type chantier</text><text fill="#000000" font-family="sans-serif" font-size="13" lengthAdjust="spacing" textLength="98.8013" x="213.6035" y="558.9482">&#226;&#8224;&#8217; Recommence</text><polygon fill="#181818" points="123.124,597.1563,113.124,601.1563,123.124,605.1563,119.124,601.1563" style="stroke:#181818;stroke-width:1;"/><line style="stroke:#181818;stroke-width:1;stroke-dasharray:2.0,2.0;" x1="117.124" x2="416.9131" y1="601.1563" y2="601.1563"/><text fill="#000000" font-family="sans-serif" font-size="13" lengthAdjust="spacing" textLength="141.6035" x="129.124" y="596.2998">PPSPS similaire trouve !</text><rect fill="#EEEEEE" height="3" style="stroke:#EEEEEE;stroke-width:1;" width="855.1221" x="0" y="630.332"/><line style="stroke:#000000;stroke-width:1;" x1="0" x2="855.1221" y1="630.332" y2="630.332"/><line style="stroke:#000000;stroke-width:1;" x1="0" x2="855.1221" y1="633.332" y2="633.332"/><rect fill="#EEEEEE" height="24.3516" style="stroke:#000000;stroke-width:2;" width="265.3481" x="294.887" y="619.1563"/><text fill="#000000" font-family="sans-serif" font-size="13" font-weight="bold" lengthAdjust="spacing" textLength="247.7363" x="300.887" y="636.6514">14h30 - Copie &amp; Adaptation (CALVAIRE)</text><polygon fill="#181818" points="474.6543,671.8594,484.6543,675.8594,474.6543,679.8594,478.6543,675.8594" style="stroke:#181818;stroke-width:1;"/><line style="stroke:#181818;stroke-width:1;" x1="112.124" x2="480.6543" y1="675.8594" y2="675.8594"/><text fill="#000000" font-family="sans-serif" font-size="13" lengthAdjust="spacing" textLength="72.2554" x="119.124" y="671.0029">Copie fichier</text><line style="stroke:#181818;stroke-width:1;" x1="112.124" x2="154.124" y1="706.2109" y2="706.2109"/><line style="stroke:#181818;stroke-width:1;" x1="154.124" x2="154.124" y1="706.2109" y2="719.2109"/><line style="stroke:#181818;stroke-width:1;" x1="113.124" x2="154.124" y1="719.2109" y2="719.2109"/><polygon fill="#181818" points="123.124,715.2109,113.124,719.2109,123.124,723.2109,119.124,719.2109" style="stroke:#181818;stroke-width:1;"/><text fill="#000000" font-family="sans-serif" font-size="13" lengthAdjust="spacing" textLength="291.7891" x="119.124" y="701.3545">Renomme "PPSPS_NouveauChantier_2025.docx"</text><polygon fill="#181818" points="474.6543,781.2656,484.6543,785.2656,474.6543,789.2656,478.6543,785.2656" style="stroke:#181818;stroke-width:1;"/><line style="stroke:#181818;stroke-width:1;" x1="112.124" x2="480.6543" y1="785.2656" y2="785.2656"/><text fill="#000000" font-family="sans-serif" font-size="13" lengthAdjust="spacing" textLength="178.4707" x="119.124" y="780.4092">Modification Section 1 (15 min)</text><path d="M491,732.2109 L491,823.2109 L695,823.2109 L695,742.2109 L685,732.2109 L491,732.2109 " fill="#FF6B6B" style="stroke:#181818;stroke-width:0.5;"/><path d="M685,732.2109 L685,742.2109 L695,742.2109 L685,732.2109 " fill="#FF6B6B" style="stroke:#181818;stroke-width:0.5;"/><text fill="#000000" font-family="sans-serif" font-size="13" lengthAdjust="spacing" textLength="10.8354" x="497" y="750.7061">[!]</text><text fill="#000000" font-family="sans-serif" font-size="13" font-weight="bold" lengthAdjust="spacing" textLength="136.1382" x="511.4473" y="750.7061">CTRL+F REMPLACER</text><text fill="#000000" font-family="sans-serif" font-size="13" lengthAdjust="spacing" textLength="183.3647" x="497" y="767.0576">- Nom client ancien &#226;&#8224;&#8217; nouveau</text><text fill="#000000" font-family="sans-serif" font-size="13" lengthAdjust="spacing" textLength="105.4917" x="497" y="783.4092">- Adresse chantier</text><text fill="#000000" font-family="sans-serif" font-size="13" lengthAdjust="spacing" textLength="131.5044" x="497" y="799.7607">- Dates previsionnelles</text><text fill="#000000" font-family="sans-serif" font-size="13" lengthAdjust="spacing" textLength="49.1436" x="497" y="816.1123">- Budget</text><polygon fill="#181818" points="474.6543,866.6719,484.6543,870.6719,474.6543,874.6719,478.6543,870.6719" style="stroke:#181818;stroke-width:1;"/><line style="stroke:#181818;stroke-width:1;" x1="112.124" x2="480.6543" y1="870.6719" y2="870.6719"/><text fill="#000000" font-family="sans-serif" font-size="13" lengthAdjust="spacing" textLength="178.4707" x="119.124" y="865.8154">Modification Section 2 (20 min)</text><path d="M491,833.9688 L491,892.9688 L648,892.9688 L648,843.9688 L638,833.9688 L491,833.9688 " fill="#FF6B6B" style="stroke:#181818;stroke-width:0.5;"/><path d="M638,833.9688 L638,843.9688 L648,843.9688 L638,833.9688 " fill="#FF6B6B" style="stroke:#181818;stroke-width:0.5;"/><text fill="#000000" font-family="sans-serif" font-size="13" lengthAdjust="spacing" textLength="98.2871" x="497" y="852.4639">- Equipe affectee</text><text fill="#000000" font-family="sans-serif" font-size="13" lengthAdjust="spacing" textLength="131.5234" x="497" y="868.8154">- Planning previsionnel</text><text fill="#000000" font-family="sans-serif" font-size="13" lengthAdjust="spacing" textLength="136.5889" x="497" y="885.167">- Coordonnees urgence</text><polygon fill="#181818" points="474.6543,987.2969,484.6543,991.2969,474.6543,995.2969,478.6543,991.2969" style="stroke:#181818;stroke-width:1;"/><line style="stroke:#181818;stroke-width:1;" x1="112.124" x2="480.6543" y1="991.2969" y2="991.2969"/><text fill="#000000" font-family="sans-serif" font-size="13" lengthAdjust="spacing" textLength="178.4707" x="119.124" y="986.4404">Modification Section 3 (45 min)</text><path d="M491,903.0234 L491,1065.0234 L692,1065.0234 L692,913.0234 L682,903.0234 L491,903.0234 " fill="#FF6B6B" style="stroke:#181818;stroke-width:0.5;"/><path d="M682,903.0234 L682,913.0234 L692,913.0234 L682,903.0234 " fill="#FF6B6B" style="stroke:#181818;stroke-width:0.5;"/><text fill="#000000" font-family="sans-serif" font-size="13" lengthAdjust="spacing" textLength="10.8354" x="497" y="921.5186">[!]</text><text fill="#000000" font-family="sans-serif" font-size="13" font-weight="bold" lengthAdjust="spacing" textLength="166.1182" x="511.4473" y="921.5186">PARTIE LA PLUS LONGUE</text><text fill="#000000" font-family="sans-serif" font-size="13" lengthAdjust="spacing" textLength="119.228" x="497" y="937.8701">Risques specifiques:</text><text fill="#000000" font-family="sans-serif" font-size="13" lengthAdjust="spacing" textLength="166.188" x="497" y="954.2217">- Analyse risques electriques</text><text fill="#000000" font-family="sans-serif" font-size="13" lengthAdjust="spacing" textLength="120.6753" x="497" y="970.5732">- Travaux en hauteur</text><text fill="#000000" font-family="sans-serif" font-size="13" lengthAdjust="spacing" textLength="69.3481" x="497" y="986.9248">- Co-activite</text><text fill="#000000" font-family="sans-serif" font-size="13" lengthAdjust="spacing" textLength="154.6543" x="497" y="1003.2764">- Substances dangereuses</text><text fill="#000000" font-family="sans-serif" font-size="13" lengthAdjust="spacing" textLength="3.6118" x="497" y="1019.6279">&#160;</text><text fill="#000000" font-family="sans-serif" font-size="13" font-weight="bold" lengthAdjust="spacing" textLength="178.3818" x="497" y="1035.9795">ADAPTATION AU CHANTIER</text><text fill="#000000" font-family="sans-serif" font-size="17" font-weight="bold" lengthAdjust="spacing" textLength="107.7192" x="497" y="1056.4834">100% manuel</text><polygon fill="#181818" points="405.9131,1088.5703,415.9131,1092.5703,405.9131,1096.5703,409.9131,1092.5703" style="stroke:#181818;stroke-width:1;"/><line style="stroke:#181818;stroke-width:1;" x1="112.124" x2="411.9131" y1="1092.5703" y2="1092.5703"/><text fill="#000000" font-family="sans-serif" font-size="13" lengthAdjust="spacing" textLength="130.7998" x="119.124" y="1087.7139">Recupere plans affaire</text><polygon fill="#181818" points="474.6543,1138.2734,484.6543,1142.2734,474.6543,1146.2734,478.6543,1142.2734" style="stroke:#181818;stroke-width:1;"/><line style="stroke:#181818;stroke-width:1;" x1="112.124" x2="480.6543" y1="1142.2734" y2="1142.2734"/><text fill="#000000" font-family="sans-serif" font-size="13" lengthAdjust="spacing" textLength="135.8398" x="119.124" y="1137.417">Insertion plans (30 min)</text><path d="M491,1105.5703 L491,1164.5703 L675,1164.5703 L675,1115.5703 L665,1105.5703 L491,1105.5703 " fill="#FF6B6B" style="stroke:#181818;stroke-width:0.5;"/><path d="M665,1105.5703 L665,1115.5703 L675,1115.5703 L665,1105.5703 " fill="#FF6B6B" style="stroke:#181818;stroke-width:0.5;"/><text fill="#000000" font-family="sans-serif" font-size="13" lengthAdjust="spacing" textLength="163.3188" x="497" y="1124.0654">- Suppression anciens plans</text><text fill="#000000" font-family="sans-serif" font-size="13" lengthAdjust="spacing" textLength="117.7935" x="497" y="1140.417">- Insertion nouveaux</text><text fill="#000000" font-family="sans-serif" font-size="13" lengthAdjust="spacing" textLength="85.9917" x="497" y="1156.7686">- Mise en page</text><line style="stroke:#181818;stroke-width:1;" x1="112.124" x2="154.124" y1="1221.1797" y2="1221.1797"/><line style="stroke:#181818;stroke-width:1;" x1="154.124" x2="154.124" y1="1221.1797" y2="1234.1797"/><line style="stroke:#181818;stroke-width:1;" x1="113.124" x2="154.124" y1="1234.1797" y2="1234.1797"/><polygon fill="#181818" points="123.124,1230.1797,113.124,1234.1797,123.124,1238.1797,119.124,1234.1797" style="stroke:#181818;stroke-width:1;"/><text fill="#000000" font-family="sans-serif" font-size="13" lengthAdjust="spacing" textLength="195.8062" x="119.124" y="1216.3232">Verif clauses obligatoires (30 min)</text><path d="M326.8062,1174.625 L326.8062,1265.625 L538.8062,1265.625 L538.8062,1184.625 L528.8062,1174.625 L326.8062,1174.625 " fill="#FF6B6B" style="stroke:#181818;stroke-width:0.5;"/><path d="M528.8062,1174.625 L528.8062,1184.625 L538.8062,1184.625 L528.8062,1174.625 " fill="#FF6B6B" style="stroke:#181818;stroke-width:0.5;"/><text fill="#000000" font-family="sans-serif" font-size="13" lengthAdjust="spacing" textLength="10.8354" x="332.8062" y="1193.1201">[!]</text><text fill="#000000" font-family="sans-serif" font-size="13" font-weight="bold" lengthAdjust="spacing" textLength="126.4009" x="347.2534" y="1193.1201">CHECKLIST PAPIER</text><text fill="#000000" font-family="sans-serif" font-size="13" lengthAdjust="spacing" textLength="191.4897" x="332.8062" y="1209.4717">40 points a verifier manuellement</text><text fill="#000000" font-family="sans-serif" font-size="13" lengthAdjust="spacing" textLength="80.9453" x="332.8062" y="1225.8232">ligne par ligne</text><text fill="#000000" font-family="sans-serif" font-size="13" lengthAdjust="spacing" textLength="3.6118" x="332.8062" y="1242.1748">&#160;</text><text fill="#000000" font-family="sans-serif" font-size="13" font-weight="bold" lengthAdjust="spacing" textLength="111.2363" x="332.8062" y="1258.5264">RISQUES OUBLIS</text><polygon fill="#181818" points="474.6543,1317.2617,484.6543,1321.2617,474.6543,1325.2617,478.6543,1321.2617" style="stroke:#181818;stroke-width:1;"/><line style="stroke:#181818;stroke-width:1;" x1="112.124" x2="480.6543" y1="1321.2617" y2="1321.2617"/><text fill="#000000" font-family="sans-serif" font-size="13" lengthAdjust="spacing" textLength="200.8716" x="119.124" y="1316.4053">Relecture &amp; mise en page (30 min)</text><path d="M491,1276.3828 L491,1351.3828 L637,1351.3828 L637,1286.3828 L627,1276.3828 L491,1276.3828 " fill="#FEFFDD" style="stroke:#181818;stroke-width:0.5;"/><path d="M627,1276.3828 L627,1286.3828 L637,1286.3828 L627,1276.3828 " fill="#FEFFDD" style="stroke:#181818;stroke-width:0.5;"/><text fill="#000000" font-family="sans-serif" font-size="13" lengthAdjust="spacing" textLength="106.9326" x="497" y="1294.8779">- Correction fautes</text><text fill="#000000" font-family="sans-serif" font-size="13" lengthAdjust="spacing" textLength="125.0107" x="497" y="1311.2295">- Numerotation pages</text><text fill="#000000" font-family="sans-serif" font-size="13" lengthAdjust="spacing" textLength="118.4917" x="497" y="1327.5811">- Table des matieres</text><text fill="#000000" font-family="sans-serif" font-size="13" lengthAdjust="spacing" textLength="70.8018" x="497" y="1343.9326">- Formatage</text><path d="M5,1361.7891 L5,1403.7891 L219,1403.7891 L219,1371.7891 L209,1361.7891 L5,1361.7891 " fill="#FFAAAA" style="stroke:#181818;stroke-width:0.5;"/><path d="M209,1361.7891 L209,1371.7891 L219,1371.7891 L209,1361.7891 " fill="#FFAAAA" style="stroke:#181818;stroke-width:0.5;"/><text fill="#000000" font-family="sans-serif" font-size="13" lengthAdjust="spacing" textLength="38.2764" x="11" y="1380.2842">[TIME]</text><text fill="#000000" font-family="sans-serif" font-size="13" font-weight="bold" lengthAdjust="spacing" textLength="149.5444" x="52.8882" y="1380.2842">2h30 de travail MANUEL</text><text fill="#000000" font-family="sans-serif" font-size="13" lengthAdjust="spacing" textLength="193.6733" x="11" y="1396.6357">100% manuel, 0% automatisation</text><rect fill="#EEEEEE" height="3" style="stroke:#EEEEEE;stroke-width:1;" width="855.1221" x="0" y="1430.668"/><line style="stroke:#000000;stroke-width:1;" x1="0" x2="855.1221" y1="1430.668" y2="1430.668"/><line style="stroke:#000000;stroke-width:1;" x1="0" x2="855.1221" y1="1433.668" y2="1433.668"/><rect fill="#EEEEEE" height="24.3516" style="stroke:#000000;stroke-width:2;" width="149.8145" x="352.6538" y="1419.4922"/><text fill="#000000" font-family="sans-serif" font-size="13" font-weight="bold" lengthAdjust="spacing" textLength="132.2026" x="358.6538" y="1436.9873">17h00 - Validation BE</text><polygon fill="#181818" points="750.8257,1472.1953,760.8257,1476.1953,750.8257,1480.1953,754.8257,1476.1953" style="stroke:#181818;stroke-width:1;"/><line style="stroke:#181818;stroke-width:1;" x1="112.124" x2="756.8257" y1="1476.1953" y2="1476.1953"/><text fill="#000000" font-family="sans-serif" font-size="13" lengthAdjust="spacing" textLength="166.9116" x="119.124" y="1471.3389">Envoi Thomas pour relecture</text><polygon fill="#181818" points="643.585,1502.5469,633.585,1506.5469,643.585,1510.5469,639.585,1506.5469" style="stroke:#181818;stroke-width:1;"/><line style="stroke:#181818;stroke-width:1;" x1="637.585" x2="761.8257" y1="1506.5469" y2="1506.5469"/><text fill="#000000" font-family="sans-serif" font-size="13" lengthAdjust="spacing" textLength="96.1035" x="649.585" y="1501.6904">PPSPS a valider</text><polygon fill="#181818" points="497.6543,1535.8984,487.6543,1539.8984,497.6543,1543.8984,493.6543,1539.8984" style="stroke:#181818;stroke-width:1;"/><line style="stroke:#181818;stroke-width:1;" x1="491.6543" x2="631.585" y1="1539.8984" y2="1539.8984"/><text fill="#000000" font-family="sans-serif" font-size="13" lengthAdjust="spacing" textLength="106.9263" x="503.6543" y="1535.042">Relecture (15 min)</text><path d="M637,1519.5469 L637,1545.5469 L777,1545.5469 L777,1529.5469 L767,1519.5469 L637,1519.5469 " fill="#98FB98" style="stroke:#181818;stroke-width:0.5;"/><path d="M767,1519.5469 L767,1529.5469 L777,1529.5469 L767,1519.5469 " fill="#98FB98" style="stroke:#181818;stroke-width:0.5;"/><text fill="#000000" font-family="sans-serif" font-size="13" lengthAdjust="spacing" textLength="119.1963" x="643" y="1538.042">Commentaires Word</text><polygon fill="#181818" points="750.8257,1569.25,760.8257,1573.25,750.8257,1577.25,754.8257,1573.25" style="stroke:#181818;stroke-width:1;"/><line style="stroke:#181818;stroke-width:1;" x1="632.585" x2="756.8257" y1="1573.25" y2="1573.25"/><text fill="#000000" font-family="sans-serif" font-size="13" lengthAdjust="spacing" textLength="106.2407" x="639.585" y="1568.3936">Renvoie a Laurent</text><polygon fill="#181818" points="474.6543,1599.6016,484.6543,1603.6016,474.6543,1607.6016,478.6543,1603.6016" style="stroke:#181818;stroke-width:1;"/><line style="stroke:#181818;stroke-width:1;" x1="112.124" x2="480.6543" y1="1603.6016" y2="1603.6016"/><text fill="#000000" font-family="sans-serif" font-size="13" lengthAdjust="spacing" textLength="117.7554" x="119.124" y="1598.7451">Corrections (10 min)</text><polygon fill="#181818" points="474.6543,1629.9531,484.6543,1633.9531,474.6543,1637.9531,478.6543,1633.9531" style="stroke:#181818;stroke-width:1;"/><line style="stroke:#181818;stroke-width:1;" x1="112.124" x2="480.6543" y1="1633.9531" y2="1633.9531"/><text fill="#000000" font-family="sans-serif" font-size="13" lengthAdjust="spacing" textLength="111.2427" x="119.124" y="1629.0967">Export PDF (5 min)</text><polygon fill="#181818" points="750.8257,1660.3047,760.8257,1664.3047,750.8257,1668.3047,754.8257,1664.3047" style="stroke:#181818;stroke-width:1;"/><line style="stroke:#181818;stroke-width:1;" x1="112.124" x2="756.8257" y1="1664.3047" y2="1664.3047"/><text fill="#000000" font-family="sans-serif" font-size="13" lengthAdjust="spacing" textLength="66.479" x="119.124" y="1659.4482">Envoi client</text><polygon fill="#181818" points="405.9131,1690.6563,415.9131,1694.6563,405.9131,1698.6563,409.9131,1694.6563" style="stroke:#181818;stroke-width:1;"/><line style="stroke:#181818;stroke-width:1;" x1="112.124" x2="411.9131" y1="1694.6563" y2="1694.6563"/><text fill="#000000" font-family="sans-serif" font-size="13" lengthAdjust="spacing" textLength="57.8081" x="119.124" y="1689.7998">Archivage</text><rect fill="#EEEEEE" height="3" style="stroke:#EEEEEE;stroke-width:1;" width="855.1221" x="0" y="1723.832"/><line style="stroke:#000000;stroke-width:1;" x1="0" x2="855.1221" y1="1723.832" y2="1723.832"/><line style="stroke:#000000;stroke-width:1;" x1="0" x2="855.1221" y1="1726.832" y2="1726.832"/><rect fill="#EEEEEE" height="24.3516" style="stroke:#000000;stroke-width:2;" width="57.3291" x="398.8965" y="1712.6563"/><text fill="#000000" font-family="sans-serif" font-size="13" font-weight="bold" lengthAdjust="spacing" textLength="39.7173" x="404.8965" y="1730.1514">BILAN</text><path d="M80,1752.0078 L80,2007.0078 L850,2007.0078 L850,1762.0078 L840,1752.0078 L80,1752.0078 " fill="#FFCCCC" style="stroke:#181818;stroke-width:0.5;"/><path d="M840,1752.0078 L840,1762.0078 L850,1762.0078 L840,1752.0078 " fill="#FFCCCC" style="stroke:#181818;stroke-width:0.5;"/><text fill="#000000" font-family="sans-serif" font-size="13" font-weight="bold" lengthAdjust="spacing" textLength="162.5254" x="357.6338" y="1770.5029">METRIQUES PROCESSUS</text><text fill="#000000" font-family="sans-serif" font-size="13" lengthAdjust="spacing" textLength="116.3208" x="357.6338" y="1786.8545">[TIME] Duree totale:</text><text fill="#000000" font-family="sans-serif" font-size="13" font-weight="bold" lengthAdjust="spacing" textLength="29.6309" x="477.5664" y="1786.8545">3h00</text><text fill="#000000" font-family="sans-serif" font-size="13" lengthAdjust="spacing" textLength="3.6118" x="357.6338" y="1803.2061">&#160;</text><text fill="#000000" font-family="sans-serif" font-size="13" lengthAdjust="spacing" textLength="89.5972" x="357.6338" y="1819.5576">Decomposition:</text><text fill="#000000" font-family="sans-serif" font-size="13" lengthAdjust="spacing" textLength="187.8843" x="357.6338" y="1835.9092">&#226;&#8364;&#162; Recherche template: 30 min</text><text fill="#000000" font-family="sans-serif" font-size="13" lengthAdjust="spacing" textLength="158.2788" x="357.6338" y="1852.2607">&#226;&#8364;&#162; Adaptation Word: 2h30</text><text fill="#000000" font-family="sans-serif" font-size="13" lengthAdjust="spacing" textLength="149.5952" x="357.6338" y="1868.6123">&#226;&#8364;&#162; Validation BE: 30 min</text><text fill="#000000" font-family="sans-serif" font-size="13" lengthAdjust="spacing" textLength="3.6118" x="357.6338" y="1884.9639">&#160;</text><text fill="#000000" font-family="sans-serif" font-size="13" lengthAdjust="spacing" textLength="68.6118" x="357.6338" y="1901.3154">[FRUSTRE]</text><text fill="#000000" font-family="sans-serif" font-size="13" font-weight="bold" lengthAdjust="spacing" textLength="133.6309" x="429.8574" y="1901.3154">FRUSTRATION: 10/10</text><text fill="#000000" font-family="sans-serif" font-size="13" lengthAdjust="spacing" textLength="93.9453" x="357.6338" y="1917.667">[!] 100% manuel</text><text fill="#000000" font-family="sans-serif" font-size="13" lengthAdjust="spacing" textLength="146.6816" x="357.6338" y="1934.0186">[!] Risques oublis clauses</text><text fill="#000000" font-family="sans-serif" font-size="13" lengthAdjust="spacing" textLength="198.6943" x="357.6338" y="1950.3701">[!] Competences RA sous-utilisees</text><text fill="#000000" font-family="sans-serif" font-size="13" lengthAdjust="spacing" textLength="3.6118" x="357.6338" y="1966.7217">&#160;</text><text fill="#000000" font-family="sans-serif" font-size="13" lengthAdjust="spacing" textLength="23.1182" x="357.6338" y="1983.0732">&#240;&#376;&#8217;&#161;</text><text fill="#000000" font-family="sans-serif" font-size="13" font-weight="bold" lengthAdjust="spacing" textLength="161.77" x="384.3638" y="1983.0732">AVEC AUTOMATISATION:</text><text fill="#000000" font-family="sans-serif" font-size="13" lengthAdjust="spacing" textLength="141.6353" x="357.6338" y="1999.4248">Possible en 30 minutes !</text><!--SRC=[bLRDZXf74BxFKvHtbOZ5nkPdlRQHDj8m33OoFvC1DeVOGhqp3RGqT8_d1wrlbjyYjyJd77BCsLPUn4-IgkuP5bYyJf0GJNTrLzLNNt_LcSWY3bwY0fwcUGelkUG9ouIIu7aJRm8rSAVs56ndEdC7KFb59I4CcSnvT6PPBCXK0YS3bYTSPczanUTf_1ZinOA9X9-T04kXM8JJNgzpuJIic2MP24JCSEwagz9Ky2Hz8psSPakUwZtbzBun-TRBEeZJyyR52_VWFFScu96sqIDosdrMhvU1JbTgpT1PfOCniHpSB0zvQk8qQt3wudcly-BvmR5h9efZQLGUvqG2CzFpPWYdThVxtBsmhCjBQ9olwdN4p-V1YYVuXOoluuXb72ulBQl4fVPJ2L4RHYhVy0WBmWo24F8rInBEBQbmMoAMgym2wF1K2Tas5SB_iSeJ25OOAe86akSBYyiGQC-UdnBMDZXAIdv3LGwBEOYB0kou8lWkEXSTTF7hWxVRxR1c4QXaoQH8qHweZ46-HYVf4ntIavFl-R_5nB0i5MiHKSRVzbwj-gxpolNn2qDxX6mSkDKgBjQWMQy_X8K8LZewOeUU7gdr6ZC28GE5tWXXdCTmjS_vGaWMpJVD-VZrl5bljXw7AhWvsRKmHPtRyolVxizx_P4zs1hLmCEoXnmsw1E15799WKxxG_SjjEgm5f9M5oeNLD07EuX4IiNGgfrlGzO-j-ZMTXdHCoQG9KGDRRW3AANQXZ6k91bE7YvlJxdYYLX0e6J6PQwjzc7MTmJqXxB2UA-H6jdxc6zfLIn_-VJrm-zVF_n65KHukGoCrsrsEB2iuxaSbBh82Q4fRakBRekZOi7XHx135cT6Y2gEFRYo-xvxTdXnJFvcIm7cqNlbSqd1bdNLrupbJf4QLVzfKTYxfmzLAF1i4yg41_gt0PN6KwhnsNs4TQR-u64FV7Ve3Mp7zGkw8YyXC7h1P82_jwXA4vasiyC4DNcl0ZNeedpWNKtuHX3h9Ab5gbSwURZasV6BTqycJQWqw_TaWlh_BXUnbYJSmhdXViGaKNul4htYAFH5Vp7CF5bgWlpVc5fGEVy-kfxjJ_ik36pm1hC93CQZbpEZ2Bv8t-NeFurvWAVJk6qWnHl_FgK3ZG6Fq6EY3VJwD64RbjyWcs75yepdIP5J3HLVR4Hcif_arsc6fSCJGYQNA2qv2I6kLQjsr_QmOVR78x1duBooHnYagJoIl5x_0TMJkkT_KCWynfC1EuPCouPm5y2-JF7o4sh6iDAwlvgJF8w9LxJ3i2yrE_NgxMa54s_qz125da29KKwF1tueDH4ZI41THsB9CeMXVo-quigySftNW_va2fxjbS2Trx752Mmlm4XkiQIeY0R6Y5FVGHlq8parCJConV3xavzdxWJ6imwUYMVTmqHVam4dKNpME_aU2xjW1NPcGzW5aSKWEC96cAX2kMBTK3Mps7L4xPoQ9rtcOhgd4lo_Zwfsep3FtQUJZP_R_bAjDaajGz9GPAo8YeweqTeXsIF08SQco6cgOzfnHAhxpBnHhbWaGXDpnprKMVtcQOChDqgKpoJzv4XAo2njGhPckTHwB1STZDfb5VkEm7rKIOjN623Ar6KofXcaM_jj0hTd5Y6YpcECg5KbT4UxHLasP6IZAErTC_ScLaa6NhS7bIA-Rq5YjFpuDRRnaICsL622kzCVs2CDxvqYFze-8Niz1p-QlqDtwlSrWpr_xBYJoMoYIrpGe8ixaGB8jeYtqRo5nSHrDEXITuvLAYXFqZxiC1___Fpfo6EqNRnMTensUgy1WzYsixx7bkr-YgldpoPJNpFK3BKIjf6JJnfr4pfUyrqPD3EbOgiS1ICjvQDOH0h4FEDQRtqRKfMdjJmJQCYDwdxvwv-_iNj-_eFqzyfrK7cduo6wdXZtsh57DQ5BYFVQH4ntTlTXzYy0]--></g></svg>