<svg xmlns="http://www.w3.org/2000/svg" xmlns:xlink="http://www.w3.org/1999/xlink" contentStyleType="text/css" height="2697px" preserveAspectRatio="none" style="width:959px;height:2697px;background:#FFFFFF;" version="1.1" viewBox="0 0 959 2697" width="959px" zoomAndPan="magnify"><title>State Diagram - Cycle de Vie d'un Devis</title><defs/><g><text fill="#000000" font-family="sans-serif" font-size="14" font-weight="bold" lengthAdjust="spacing" textLength="263.1973" x="341.0364" y="24.5332">State Diagram - Cycle de Vie d'un Devis</text><g id="DemandeClient"><rect fill="#90EE90" height="50" rx="12.5" ry="12.5" style="stroke:#181818;stroke-width:0.5;" width="120.3857" x="532.38" y="147.1094"/><line style="stroke:#181818;stroke-width:0.5;" x1="532.38" x2="652.7657" y1="174.7188" y2="174.7188"/><text fill="#000000" font-family="sans-serif" font-size="14" lengthAdjust="spacing" textLength="100.3857" x="542.38" y="166.6426">Demande Client</text></g><g id="RechercheTemplate"><rect fill="#FF6B6B" height="50" rx="12.5" ry="12.5" style="stroke:#181818;stroke-width:0.5;" width="149.9512" x="517.38" y="325.1094"/><line style="stroke:#181818;stroke-width:0.5;" x1="517.38" x2="667.3312" y1="352.7188" y2="352.7188"/><text fill="#000000" font-family="sans-serif" font-size="14" lengthAdjust="spacing" textLength="129.9512" x="527.38" y="344.6426">Recherche Template</text></g><g id="PasDeTemplate"><rect fill="#FF6B6B" height="50" rx="12.5" ry="12.5" style="stroke:#181818;stroke-width:0.5;" width="125.834" x="463.38" y="498.6094"/><line style="stroke:#181818;stroke-width:0.5;" x1="463.38" x2="589.214" y1="526.2188" y2="526.2188"/><text fill="#000000" font-family="sans-serif" font-size="14" lengthAdjust="spacing" textLength="105.834" x="473.38" y="518.1426">Pas de Template</text></g><g id="OuvertureMDE"><rect fill="#FF6B6B" height="50" rx="12.5" ry="12.5" style="stroke:#181818;stroke-width:0.5;" width="117.248" x="535.88" y="630.6094"/><line style="stroke:#181818;stroke-width:0.5;" x1="535.88" x2="653.128" y1="658.2188" y2="658.2188"/><text fill="#000000" font-family="sans-serif" font-size="14" lengthAdjust="spacing" textLength="97.248" x="545.88" y="650.1426">Ouverture MDE</text></g><g id="RechercheClient"><rect fill="#FFD700" height="50" rx="12.5" ry="12.5" style="stroke:#181818;stroke-width:0.5;" width="127.3857" x="363.88" y="779.6094"/><line style="stroke:#181818;stroke-width:0.5;" x1="363.88" x2="491.2657" y1="807.2188" y2="807.2188"/><text fill="#000000" font-family="sans-serif" font-size="14" lengthAdjust="spacing" textLength="107.3857" x="373.88" y="799.1426">Recherche Client</text></g><path d="M339.38,907.6094 L449.5426,907.6094 A12.5,12.5 0 0 1 462.0426,920.1094 L462.0426,935.2188 L326.88,935.2188 L326.88,920.1094 A12.5,12.5 0 0 1 339.38,907.6094 " fill="#FF6B6B" style="stroke:#FF6B6B;stroke-width:1;"/><rect fill="none" height="543.6094" rx="12.5" ry="12.5" style="stroke:#181818;stroke-width:0.5;" width="135.1626" x="326.88" y="907.6094"/><line style="stroke:#181818;stroke-width:0.5;" x1="326.88" x2="462.0426" y1="935.2188" y2="935.2188"/><text fill="#000000" font-family="sans-serif" font-size="14" lengthAdjust="spacing" textLength="98.834" x="345.0443" y="927.1426">Saisie Manuelle</text><ellipse cx="388.88" cy="956.2188" fill="#222222" rx="10" ry="10" style="stroke:#222222;stroke-width:1;"/><g id="SaisieManuelle.SaisieLigne1"><rect fill="#F1F1F1" height="50" rx="12.5" ry="12.5" style="stroke:#181818;stroke-width:0.5;" width="100.1719" x="338.88" y="1003.2188"/><line style="stroke:#181818;stroke-width:0.5;" x1="338.88" x2="439.0519" y1="1030.8281" y2="1030.8281"/><text fill="#000000" font-family="sans-serif" font-size="14" lengthAdjust="spacing" textLength="80.1719" x="348.88" y="1022.752">SaisieLigne1</text></g><g id="SaisieManuelle.SaisieLigne2"><rect fill="#F1F1F1" height="50" rx="12.5" ry="12.5" style="stroke:#181818;stroke-width:0.5;" width="100.1719" x="338.88" y="1107.2188"/><line style="stroke:#181818;stroke-width:0.5;" x1="338.88" x2="439.0519" y1="1134.8281" y2="1134.8281"/><text fill="#000000" font-family="sans-serif" font-size="14" lengthAdjust="spacing" textLength="80.1719" x="348.88" y="1126.752">SaisieLigne2</text></g><g id="SaisieManuelle.SaisieLigne3"><rect fill="#F1F1F1" height="50" rx="12.5" ry="12.5" style="stroke:#181818;stroke-width:0.5;" width="100.1719" x="338.88" y="1211.2188"/><line style="stroke:#181818;stroke-width:0.5;" x1="338.88" x2="439.0519" y1="1238.8281" y2="1238.8281"/><text fill="#000000" font-family="sans-serif" font-size="14" lengthAdjust="spacing" textLength="80.1719" x="348.88" y="1230.752">SaisieLigne3</text></g><g id="SaisieManuelle.SaisieAutres"><rect fill="#F1F1F1" height="50" rx="12.5" ry="12.5" style="stroke:#181818;stroke-width:0.5;" width="98.5928" x="339.38" y="1315.2188"/><line style="stroke:#181818;stroke-width:0.5;" x1="339.38" x2="437.9728" y1="1342.8281" y2="1342.8281"/><text fill="#000000" font-family="sans-serif" font-size="14" lengthAdjust="spacing" textLength="78.5928" x="349.38" y="1334.752">SaisieAutres</text></g><ellipse cx="388.88" cy="1430.2188" fill="none" rx="11" ry="11" style="stroke:#222222;stroke-width:1;"/><ellipse cx="388.88" cy="1430.2188" fill="#222222" rx="6" ry="6" style="stroke:#222222;stroke-width:1;"/><!--link *start*SaisieManuelle to SaisieLigne1--><g id="link_*start*SaisieManuelle_SaisieLigne1"><path d="M388.88,966.3688 C388.88,975.6388 388.88,984.3588 388.88,996.9988 " fill="none" id="*start*SaisieManuelle-to-SaisieLigne1" style="stroke:#181818;stroke-width:1;"/><polygon fill="#181818" points="388.88,1002.9988,392.88,993.9988,388.88,997.9988,384.88,993.9988,388.88,1002.9988" style="stroke:#181818;stroke-width:1;"/></g><!--link SaisieLigne1 to SaisieLigne2--><g id="link_SaisieLigne1_SaisieLigne2"><path d="M388.88,1053.3888 C388.88,1069.5288 388.88,1084.6888 388.88,1100.8688 " fill="none" id="SaisieLigne1-to-SaisieLigne2" style="stroke:#181818;stroke-width:1;"/><polygon fill="#181818" points="388.88,1106.8688,392.88,1097.8688,388.88,1101.8688,384.88,1097.8688,388.88,1106.8688" style="stroke:#181818;stroke-width:1;"/><text fill="#000000" font-family="sans-serif" font-size="13" lengthAdjust="spacing" textLength="62.1626" x="389.88" y="1085.7139">Popup 35s</text></g><!--link SaisieLigne2 to SaisieLigne3--><g id="link_SaisieLigne2_SaisieLigne3"><path d="M388.88,1157.3888 C388.88,1173.5288 388.88,1188.6888 388.88,1204.8688 " fill="none" id="SaisieLigne2-to-SaisieLigne3" style="stroke:#181818;stroke-width:1;"/><polygon fill="#181818" points="388.88,1210.8688,392.88,1201.8688,388.88,1205.8688,384.88,1201.8688,388.88,1210.8688" style="stroke:#181818;stroke-width:1;"/><text fill="#000000" font-family="sans-serif" font-size="13" lengthAdjust="spacing" textLength="62.1626" x="389.88" y="1189.7139">Popup 35s</text></g><!--link SaisieLigne3 to SaisieAutres--><g id="link_SaisieLigne3_SaisieAutres"><path d="M388.88,1261.3888 C388.88,1277.5288 388.88,1292.6888 388.88,1308.8688 " fill="none" id="SaisieLigne3-to-SaisieAutres" style="stroke:#181818;stroke-width:1;"/><polygon fill="#181818" points="388.88,1314.8688,392.88,1305.8688,388.88,1309.8688,384.88,1305.8688,388.88,1314.8688" style="stroke:#181818;stroke-width:1;"/><text fill="#000000" font-family="sans-serif" font-size="13" lengthAdjust="spacing" textLength="10.8354" x="389.88" y="1293.7139">...</text></g><!--link SaisieAutres to *end*SaisieManuelle--><g id="link_SaisieAutres_*end*SaisieManuelle"><path d="M388.88,1365.2688 C388.88,1382.9788 388.88,1400.1588 388.88,1413.1888 " fill="none" id="SaisieAutres-to-*end*SaisieManuelle" style="stroke:#181818;stroke-width:1;"/><polygon fill="#181818" points="388.88,1419.1888,392.88,1410.1888,388.88,1414.1888,384.88,1410.1888,388.88,1419.1888" style="stroke:#181818;stroke-width:1;"/><text fill="#000000" font-family="sans-serif" font-size="13" lengthAdjust="spacing" textLength="52.0381" x="389.88" y="1397.7139">30 lignes</text></g><g id="VerifExcel"><rect fill="#FFD700" height="50" rx="12.5" ry="12.5" style="stroke:#181818;stroke-width:0.5;" width="127.3789" x="330.88" y="1542.1094"/><line style="stroke:#181818;stroke-width:0.5;" x1="330.88" x2="458.2589" y1="1569.7188" y2="1569.7188"/><text fill="#000000" font-family="sans-serif" font-size="14" lengthAdjust="spacing" textLength="107.3789" x="340.88" y="1561.6426">Verification Excel</text></g><g id="Ajustements"><rect fill="#FFD700" height="50" rx="12.5" ry="12.5" style="stroke:#181818;stroke-width:0.5;" width="97.0342" x="383.88" y="1682.6094"/><line style="stroke:#181818;stroke-width:0.5;" x1="383.88" x2="480.9142" y1="1710.2188" y2="1710.2188"/><text fill="#000000" font-family="sans-serif" font-size="14" lengthAdjust="spacing" textLength="77.0342" x="393.88" y="1702.1426">Ajustements</text></g><g id="GenerationPDF"><rect fill="#FFD700" height="50" rx="12.5" ry="12.5" style="stroke:#181818;stroke-width:0.5;" width="121.1582" x="283.88" y="1810.6094"/><line style="stroke:#181818;stroke-width:0.5;" x1="283.88" x2="405.0382" y1="1838.2188" y2="1838.2188"/><text fill="#000000" font-family="sans-serif" font-size="14" lengthAdjust="spacing" textLength="101.1582" x="293.88" y="1830.1426">Generation PDF</text></g><g id="VerifPDF"><rect fill="#FFD700" height="50" rx="12.5" ry="12.5" style="stroke:#181818;stroke-width:0.5;" width="121.1445" x="315.88" y="1943.1094"/><line style="stroke:#181818;stroke-width:0.5;" x1="315.88" x2="437.0245" y1="1970.7188" y2="1970.7188"/><text fill="#000000" font-family="sans-serif" font-size="14" lengthAdjust="spacing" textLength="101.1445" x="325.88" y="1962.6426">Verification PDF</text></g><g id="BugPDF"><rect fill="#FF6B6B" height="50" rx="12.5" ry="12.5" style="stroke:#181818;stroke-width:0.5;" width="76.7998" x="56.88" y="2088.1094"/><line style="stroke:#181818;stroke-width:0.5;" x1="56.88" x2="133.6798" y1="2115.7188" y2="2115.7188"/><text fill="#000000" font-family="sans-serif" font-size="14" lengthAdjust="spacing" textLength="56.7998" x="66.88" y="2107.6426">Bug PDF</text></g><g id="EnvoiClient"><rect fill="#90EE90" height="50" rx="12.5" ry="12.5" style="stroke:#181818;stroke-width:0.5;" width="94.7031" x="328.88" y="2088.1094"/><line style="stroke:#181818;stroke-width:0.5;" x1="328.88" x2="423.5831" y1="2115.7188" y2="2115.7188"/><text fill="#000000" font-family="sans-serif" font-size="14" lengthAdjust="spacing" textLength="74.7031" x="338.88" y="2107.6426">Envoi Client</text></g><g id="EnAttente"><rect fill="#FFFFAA" height="50" rx="12.5" ry="12.5" style="stroke:#181818;stroke-width:0.5;" width="85.3789" x="333.88" y="2228.6094"/><line style="stroke:#181818;stroke-width:0.5;" x1="333.88" x2="419.2589" y1="2256.2188" y2="2256.2188"/><text fill="#000000" font-family="sans-serif" font-size="14" lengthAdjust="spacing" textLength="65.3789" x="343.88" y="2248.1426">En Attente</text></g><g id="Modification"><rect fill="#FFD700" height="50" rx="12.5" ry="12.5" style="stroke:#181818;stroke-width:0.5;" width="167.082" x="676.88" y="2356.6094"/><line style="stroke:#181818;stroke-width:0.5;" x1="676.88" x2="843.962" y1="2384.2188" y2="2384.2188"/><text fill="#000000" font-family="sans-serif" font-size="14" lengthAdjust="spacing" textLength="147.082" x="686.88" y="2376.1426">Modification Demandee</text></g><g id="Refus"><rect fill="#FF6B6B" height="50" rx="12.5" ry="12.5" style="stroke:#181818;stroke-width:0.5;" width="88.4688" x="202.38" y="2356.6094"/><line style="stroke:#181818;stroke-width:0.5;" x1="202.38" x2="290.8488" y1="2384.2188" y2="2384.2188"/><text fill="#000000" font-family="sans-serif" font-size="14" lengthAdjust="spacing" textLength="68.4688" x="212.38" y="2376.1426">[KO] Refus</text></g><g id="Accepte"><rect fill="#90EE90" height="50" rx="12.5" ry="12.5" style="stroke:#181818;stroke-width:0.5;" width="102.4824" x="325.38" y="2356.6094"/><line style="stroke:#181818;stroke-width:0.5;" x1="325.38" x2="427.8624" y1="2384.2188" y2="2384.2188"/><text fill="#000000" font-family="sans-serif" font-size="14" lengthAdjust="spacing" textLength="82.4824" x="335.38" y="2376.1426">[OK] Accepte</text></g><ellipse cx="592.38" cy="54.6094" fill="#222222" rx="10" ry="10" style="stroke:#222222;stroke-width:1;"/><ellipse cx="246.38" cy="2579.1094" fill="none" rx="11" ry="11" style="stroke:#222222;stroke-width:1;"/><ellipse cx="246.38" cy="2579.1094" fill="#222222" rx="6" ry="6" style="stroke:#222222;stroke-width:1;"/><g id="elem_GMN2"><path d="M687.88,142.6094 L687.88,168.1094 L652.42,172.1094 L687.88,176.1094 L687.88,201.6641 A0,0 0 0 0 687.88,201.6641 L833.1925,201.6641 A0,0 0 0 0 833.1925,201.6641 L833.1925,152.6094 L823.1925,142.6094 L687.88,142.6094 A0,0 0 0 0 687.88,142.6094 " fill="#FEFFDD" style="stroke:#181818;stroke-width:0.5;"/><path d="M823.1925,142.6094 L823.1925,152.6094 L833.1925,152.6094 L823.1925,142.6094 " fill="#FEFFDD" style="stroke:#181818;stroke-width:0.5;"/><text fill="#000000" font-family="sans-serif" font-size="13" lengthAdjust="spacing" textLength="84.5381" x="693.88" y="161.1045">Email du client</text><text fill="#000000" font-family="sans-serif" font-size="13" lengthAdjust="spacing" textLength="116.3398" x="693.88" y="177.4561">Specifications projet</text><text fill="#000000" font-family="sans-serif" font-size="13" lengthAdjust="spacing" textLength="124.3125" x="693.88" y="193.8076">Delai: 48-72h attendu</text></g><g id="elem_GMN5"><path d="M702.38,279.6094 L702.38,346.1094 L667.65,350.1094 L702.38,354.1094 L702.38,420.4219 A0,0 0 0 0 702.38,420.4219 L952.2701,420.4219 A0,0 0 0 0 952.2701,420.4219 L952.2701,289.6094 L942.2701,279.6094 L702.38,279.6094 A0,0 0 0 0 702.38,279.6094 " fill="#FEFFDD" style="stroke:#181818;stroke-width:0.5;"/><path d="M942.2701,279.6094 L942.2701,289.6094 L952.2701,289.6094 L942.2701,279.6094 " fill="#FEFFDD" style="stroke:#181818;stroke-width:0.5;"/><text fill="#000000" font-family="sans-serif" font-size="13" lengthAdjust="spacing" textLength="10.8354" x="708.38" y="298.1045">[!]</text><text fill="#000000" font-family="sans-serif" font-size="13" font-weight="bold" lengthAdjust="spacing" textLength="158.1709" x="722.8273" y="298.1045">RECHERCHE MANUELLE</text><text fill="#000000" font-family="sans-serif" font-size="13" lengthAdjust="spacing" textLength="152.458" x="708.38" y="314.4561">- Fouille dossiers partages</text><text fill="#000000" font-family="sans-serif" font-size="13" lengthAdjust="spacing" textLength="116.6826" x="708.38" y="330.8076">- 200+ fichiers Word</text><text fill="#000000" font-family="sans-serif" font-size="13" lengthAdjust="spacing" textLength="135.8398" x="708.38" y="347.1592">- Nommage incoherent:</text><text fill="#000000" font-family="sans-serif" font-size="13" lengthAdjust="spacing" textLength="197.8564" x="715.6036" y="363.5107">"PPSPS_final_v2_OK_2023.docx"</text><text fill="#000000" font-family="sans-serif" font-size="13" lengthAdjust="spacing" textLength="221.6665" x="715.6036" y="379.8623">"PPSPS_Client_A_VRAI_FINAL.docx"</text><text fill="#000000" font-family="sans-serif" font-size="13" lengthAdjust="spacing" textLength="111.2808" x="708.38" y="396.2139">- Pas de versioning</text><text fill="#000000" font-family="sans-serif" font-size="13" lengthAdjust="spacing" textLength="143.7808" x="708.38" y="412.5654">[TIME] 30 min de fouille !</text></g><g id="elem_GMN8"><path d="M322.38,502.1094 L322.38,544.8125 A0,0 0 0 0 322.38,544.8125 L428.6417,544.8125 A0,0 0 0 0 428.6417,544.8125 L428.6417,527.6094 L463.27,523.6094 L428.6417,519.6094 L428.6417,512.1094 L418.6417,502.1094 L322.38,502.1094 A0,0 0 0 0 322.38,502.1094 " fill="#FEFFDD" style="stroke:#181818;stroke-width:0.5;"/><path d="M418.6417,502.1094 L418.6417,512.1094 L428.6417,512.1094 L418.6417,502.1094 " fill="#FEFFDD" style="stroke:#181818;stroke-width:0.5;"/><text fill="#000000" font-family="sans-serif" font-size="13" lengthAdjust="spacing" textLength="85.2617" x="328.38" y="520.6045">[!] Part de zero</text><text fill="#000000" font-family="sans-serif" font-size="13" lengthAdjust="spacing" textLength="63.9399" x="328.38" y="536.9561">[TIME] +1h</text></g><g id="elem_GMN11"><path d="M687.88,609.6094 L687.88,651.6094 L653.16,655.6094 L687.88,659.6094 L687.88,701.3672 A0,0 0 0 0 687.88,701.3672 L919.1144,701.3672 A0,0 0 0 0 919.1144,701.3672 L919.1144,619.6094 L909.1144,609.6094 L687.88,609.6094 A0,0 0 0 0 687.88,609.6094 " fill="#FEFFDD" style="stroke:#181818;stroke-width:0.5;"/><path d="M909.1144,609.6094 L909.1144,619.6094 L919.1144,619.6094 L909.1144,609.6094 " fill="#FEFFDD" style="stroke:#181818;stroke-width:0.5;"/><text fill="#000000" font-family="sans-serif" font-size="13" lengthAdjust="spacing" textLength="10.8354" x="693.88" y="628.1045">[!]</text><text fill="#000000" font-family="sans-serif" font-size="13" font-weight="bold" lengthAdjust="spacing" textLength="141.5591" x="708.3273" y="628.1045">TEMPS CHARGEMENT</text><text fill="#000000" font-family="sans-serif" font-size="13" lengthAdjust="spacing" textLength="115.6099" x="693.88" y="644.4561">[TIME] 15 secondes</text><text fill="#000000" font-family="sans-serif" font-size="13" lengthAdjust="spacing" textLength="149.5889" x="693.88" y="660.8076">Attente ecran accueil: 30s</text><text fill="#000000" font-family="sans-serif" font-size="13" lengthAdjust="spacing" textLength="104.7808" x="693.88" y="677.1592">Module devis: 40s</text><text fill="#000000" font-family="sans-serif" font-size="13" lengthAdjust="spacing" textLength="210.2344" x="693.88" y="693.5107">[TIME] Total 5 min juste pour ouvrir !</text></g><g id="elem_GMN14"><path d="M526.38,783.1094 L526.38,800.6094 L490.99,804.6094 L526.38,808.6094 L526.38,825.8125 A0,0 0 0 0 526.38,825.8125 L696.569,825.8125 A0,0 0 0 0 696.569,825.8125 L696.569,793.1094 L686.569,783.1094 L526.38,783.1094 A0,0 0 0 0 526.38,783.1094 " fill="#FEFFDD" style="stroke:#181818;stroke-width:0.5;"/><path d="M686.569,783.1094 L686.569,793.1094 L696.569,793.1094 L686.569,783.1094 " fill="#FEFFDD" style="stroke:#181818;stroke-width:0.5;"/><text fill="#000000" font-family="sans-serif" font-size="13" lengthAdjust="spacing" textLength="101.1499" x="532.38" y="801.6045">Liste clients (30s)</text><text fill="#000000" font-family="sans-serif" font-size="13" lengthAdjust="spacing" textLength="149.189" x="532.38" y="817.9561">Scroll + recherche (2 min)</text></g><g id="elem_GMN17"><path d="M497.38,1076.6094 L497.38,1175.6094 L462.22,1179.6094 L497.38,1183.6094 L497.38,1282.8281 A0,0 0 0 0 497.38,1282.8281 L707.6925,1282.8281 A0,0 0 0 0 707.6925,1282.8281 L707.6925,1086.6094 L697.6925,1076.6094 L497.38,1076.6094 A0,0 0 0 0 497.38,1076.6094 " fill="#FEFFDD" style="stroke:#181818;stroke-width:0.5;"/><path d="M697.6925,1076.6094 L697.6925,1086.6094 L707.6925,1086.6094 L697.6925,1076.6094 " fill="#FEFFDD" style="stroke:#181818;stroke-width:0.5;"/><text fill="#000000" font-family="sans-serif" font-size="13" lengthAdjust="spacing" textLength="10.8354" x="503.38" y="1095.1045">[!]</text><text fill="#000000" font-family="sans-serif" font-size="13" font-weight="bold" lengthAdjust="spacing" textLength="66.4473" x="517.8273" y="1095.1045">CALVAIRE</text><text fill="#000000" font-family="sans-serif" font-size="13" lengthAdjust="spacing" textLength="152.8452" x="503.38" y="1111.4561">30 lignes &#195;&#8212; 5min = 2h30</text><text fill="#000000" font-family="sans-serif" font-size="13" lengthAdjust="spacing" textLength="3.6118" x="503.38" y="1127.8076">&#160;</text><text fill="#000000" font-family="sans-serif" font-size="13" lengthAdjust="spacing" textLength="121.3799" x="503.38" y="1144.1592">Pour CHAQUE ligne:</text><text fill="#000000" font-family="sans-serif" font-size="13" lengthAdjust="spacing" textLength="114.7148" x="503.38" y="1160.5107">- Clic "Ajouter ligne"</text><text fill="#000000" font-family="sans-serif" font-size="13" lengthAdjust="spacing" textLength="138.7534" x="503.38" y="1176.8623">- Popup catalogue (35s)</text><text fill="#000000" font-family="sans-serif" font-size="13" lengthAdjust="spacing" textLength="153.1563" x="503.38" y="1193.2139">- Recherche article (2 min)</text><text fill="#000000" font-family="sans-serif" font-size="13" lengthAdjust="spacing" textLength="155.3589" x="503.38" y="1209.5654">- Copie depuis Excel perso</text><text fill="#000000" font-family="sans-serif" font-size="13" lengthAdjust="spacing" textLength="111.2808" x="503.38" y="1225.917">- Sauvegarde (25s)</text><text fill="#000000" font-family="sans-serif" font-size="13" lengthAdjust="spacing" textLength="3.6118" x="503.38" y="1242.2686">&#160;</text><text fill="#000000" font-family="sans-serif" font-size="13" lengthAdjust="spacing" textLength="189.3125" x="503.38" y="1258.6201">[TIME] Reduit a 1h30 avec Excel</text><text fill="#000000" font-family="sans-serif" font-size="13" lengthAdjust="spacing" textLength="163.2554" x="503.38" y="1274.9717">mais TOUJOURS tres long !</text></g><g id="elem_GMN20"><path d="M146.88,1529.6094 L146.88,1605.0156 A0,0 0 0 0 146.88,1605.0156 L295.7916,1605.0156 A0,0 0 0 0 295.7916,1605.0156 L295.7916,1571.1094 L330.62,1567.1094 L295.7916,1563.1094 L295.7916,1539.6094 L285.7916,1529.6094 L146.88,1529.6094 A0,0 0 0 0 146.88,1529.6094 " fill="#FEFFDD" style="stroke:#181818;stroke-width:0.5;"/><path d="M285.7916,1529.6094 L285.7916,1539.6094 L295.7916,1539.6094 L285.7916,1529.6094 " fill="#FEFFDD" style="stroke:#181818;stroke-width:0.5;"/><text fill="#000000" font-family="sans-serif" font-size="13" lengthAdjust="spacing" textLength="90.3271" x="152.88" y="1548.1045">- Marge globale</text><text fill="#000000" font-family="sans-serif" font-size="13" lengthAdjust="spacing" textLength="122.0908" x="152.88" y="1564.4561">- Prix vs concurrence</text><text fill="#000000" font-family="sans-serif" font-size="13" lengthAdjust="spacing" textLength="127.9116" x="152.88" y="1580.8076">- Coherence quantites</text><text fill="#000000" font-family="sans-serif" font-size="13" lengthAdjust="spacing" textLength="80.9072" x="152.88" y="1597.1592">[TIME] 10 min</text></g><g id="elem_GMN23"><path d="M516.38,1686.1094 L516.38,1703.6094 L481.09,1707.6094 L516.38,1711.6094 L516.38,1728.8125 A0,0 0 0 0 516.38,1728.8125 L691.9835,1728.8125 A0,0 0 0 0 691.9835,1728.8125 L691.9835,1696.1094 L681.9835,1686.1094 L516.38,1686.1094 A0,0 0 0 0 516.38,1686.1094 " fill="#FEFFDD" style="stroke:#181818;stroke-width:0.5;"/><path d="M681.9835,1686.1094 L681.9835,1696.1094 L691.9835,1696.1094 L681.9835,1686.1094 " fill="#FEFFDD" style="stroke:#181818;stroke-width:0.5;"/><text fill="#000000" font-family="sans-serif" font-size="13" lengthAdjust="spacing" textLength="154.6035" x="522.38" y="1704.6045">[!] Re-chargements (5 min)</text><text fill="#000000" font-family="sans-serif" font-size="13" lengthAdjust="spacing" textLength="106.2153" x="522.38" y="1720.9561">Modifier 2-3 lignes</text></g><g id="elem_GMN26"><path d="M439.88,1814.1094 L439.88,1831.6094 L405.13,1835.6094 L439.88,1839.6094 L439.88,1856.8125 A0,0 0 0 0 439.88,1856.8125 L572.6876,1856.8125 A0,0 0 0 0 572.6876,1856.8125 L572.6876,1824.1094 L562.6876,1814.1094 L439.88,1814.1094 A0,0 0 0 0 439.88,1814.1094 " fill="#FEFFDD" style="stroke:#181818;stroke-width:0.5;"/><path d="M562.6876,1814.1094 L562.6876,1824.1094 L572.6876,1824.1094 L562.6876,1814.1094 " fill="#FEFFDD" style="stroke:#181818;stroke-width:0.5;"/><text fill="#000000" font-family="sans-serif" font-size="13" lengthAdjust="spacing" textLength="111.8076" x="445.88" y="1832.6045">Clic "Generer PDF"</text><text fill="#000000" font-family="sans-serif" font-size="13" lengthAdjust="spacing" textLength="59.23" x="445.88" y="1848.9561">PDF (45s)</text></g><g id="elem_GMN29"><path d="M116.38,1938.6094 L116.38,1997.6641 A0,0 0 0 0 116.38,1997.6641 L280.4625,1997.6641 A0,0 0 0 0 280.4625,1997.6641 L280.4625,1972.1094 L315.66,1968.1094 L280.4625,1964.1094 L280.4625,1948.6094 L270.4625,1938.6094 L116.38,1938.6094 A0,0 0 0 0 116.38,1938.6094 " fill="#FEFFDD" style="stroke:#181818;stroke-width:0.5;"/><path d="M270.4625,1938.6094 L270.4625,1948.6094 L280.4625,1948.6094 L270.4625,1938.6094 " fill="#FEFFDD" style="stroke:#181818;stroke-width:0.5;"/><text fill="#000000" font-family="sans-serif" font-size="13" lengthAdjust="spacing" textLength="143.0825" x="122.38" y="1957.1045">[!] Parfois bugs affichage</text><text fill="#000000" font-family="sans-serif" font-size="13" lengthAdjust="spacing" textLength="96.6621" x="122.38" y="1973.4561">&#226;&#8224;&#8217; Regeneration</text><text fill="#000000" font-family="sans-serif" font-size="13" lengthAdjust="spacing" textLength="73.6772" x="122.38" y="1989.8076">[TIME] 3 min</text></g><g id="elem_GMN32"><path d="M458.88,2075.6094 L458.88,2109.1094 L424.16,2113.1094 L458.88,2117.1094 L458.88,2151.0156 A0,0 0 0 0 458.88,2151.0156 L596.2135,2151.0156 A0,0 0 0 0 596.2135,2151.0156 L596.2135,2085.6094 L586.2135,2075.6094 L458.88,2075.6094 A0,0 0 0 0 458.88,2075.6094 " fill="#FEFFDD" style="stroke:#181818;stroke-width:0.5;"/><path d="M586.2135,2075.6094 L586.2135,2085.6094 L596.2135,2085.6094 L586.2135,2075.6094 " fill="#FEFFDD" style="stroke:#181818;stroke-width:0.5;"/><text fill="#000000" font-family="sans-serif" font-size="13" lengthAdjust="spacing" textLength="101.1563" x="464.88" y="2094.1045">- Redaction email</text><text fill="#000000" font-family="sans-serif" font-size="13" lengthAdjust="spacing" textLength="116.3335" x="464.88" y="2110.4561">- Recherche contact</text><text fill="#000000" font-family="sans-serif" font-size="13" lengthAdjust="spacing" textLength="75.1499" x="464.88" y="2126.8076">- Piece jointe</text><text fill="#000000" font-family="sans-serif" font-size="13" lengthAdjust="spacing" textLength="73.6772" x="464.88" y="2143.1592">[TIME] 7 min</text></g><g id="elem_GMN35"><path d="M453.88,2232.1094 L453.88,2249.6094 L419.14,2253.6094 L453.88,2257.6094 L453.88,2274.8125 A0,0 0 0 0 453.88,2274.8125 L600.6271,2274.8125 A0,0 0 0 0 600.6271,2274.8125 L600.6271,2242.1094 L590.6271,2232.1094 L453.88,2232.1094 A0,0 0 0 0 453.88,2232.1094 " fill="#FEFFDD" style="stroke:#181818;stroke-width:0.5;"/><path d="M590.6271,2232.1094 L590.6271,2242.1094 L600.6271,2242.1094 L590.6271,2232.1094 " fill="#FEFFDD" style="stroke:#181818;stroke-width:0.5;"/><text fill="#000000" font-family="sans-serif" font-size="13" lengthAdjust="spacing" textLength="125.7471" x="459.88" y="2250.6045">Attente reponse client</text><text fill="#000000" font-family="sans-serif" font-size="13" lengthAdjust="spacing" textLength="40.479" x="459.88" y="2266.9561">24-72h</text></g><g id="elem_GMN38"><path d="M462.88,2360.1094 L462.88,2402.8125 A0,0 0 0 0 462.88,2402.8125 L641.3844,2402.8125 A0,0 0 0 0 641.3844,2402.8125 L641.3844,2385.6094 L676.79,2381.6094 L641.3844,2377.6094 L641.3844,2370.1094 L631.3844,2360.1094 L462.88,2360.1094 A0,0 0 0 0 462.88,2360.1094 " fill="#FEFFDD" style="stroke:#181818;stroke-width:0.5;"/><path d="M631.3844,2360.1094 L631.3844,2370.1094 L641.3844,2370.1094 L631.3844,2360.1094 " fill="#FEFFDD" style="stroke:#181818;stroke-width:0.5;"/><text fill="#000000" font-family="sans-serif" font-size="13" lengthAdjust="spacing" textLength="100.439" x="468.88" y="2378.6045">Retour a la saisie</text><text fill="#000000" font-family="sans-serif" font-size="13" lengthAdjust="spacing" textLength="157.5044" x="468.88" y="2394.9561">[!] Recommence processus</text></g><g id="elem_GMN41"><path d="M292.88,2467.6094 L292.88,2690.1797 A0,0 0 0 0 292.88,2690.1797 L524.1715,2690.1797 A0,0 0 0 0 524.1715,2690.1797 L524.1715,2477.6094 L514.1715,2467.6094 L394.23,2467.6094 L380.37,2406.9694 L386.23,2467.6094 L292.88,2467.6094 A0,0 0 0 0 292.88,2467.6094 " fill="#FEFFDD" style="stroke:#181818;stroke-width:0.5;"/><path d="M514.1715,2467.6094 L514.1715,2477.6094 L524.1715,2477.6094 L514.1715,2467.6094 " fill="#FEFFDD" style="stroke:#181818;stroke-width:0.5;"/><text fill="#000000" font-family="sans-serif" font-size="13" font-weight="bold" lengthAdjust="spacing" textLength="153.1182" x="298.88" y="2486.1045">METRIQUES GLOBALES</text><text fill="#000000" font-family="sans-serif" font-size="13" lengthAdjust="spacing" textLength="116.3208" x="298.88" y="2502.4561">[TIME] Duree totale:</text><text fill="#000000" font-family="sans-serif" font-size="13" font-weight="bold" lengthAdjust="spacing" textLength="29.6309" x="418.8126" y="2502.4561">2h05</text><text fill="#000000" font-family="sans-serif" font-size="13" lengthAdjust="spacing" textLength="3.6118" x="298.88" y="2518.8076">&#160;</text><text fill="#000000" font-family="sans-serif" font-size="13" lengthAdjust="spacing" textLength="89.5972" x="298.88" y="2535.1592">Decomposition:</text><text fill="#000000" font-family="sans-serif" font-size="13" lengthAdjust="spacing" textLength="210.2915" x="298.88" y="2551.5107">&#226;&#8364;&#162; Recherche ancien devis: 45 min</text><text fill="#000000" font-family="sans-serif" font-size="13" lengthAdjust="spacing" textLength="154.6162" x="298.88" y="2567.8623">&#226;&#8364;&#162; Ouverture MDE: 5 min</text><text fill="#000000" font-family="sans-serif" font-size="13" lengthAdjust="spacing" textLength="152.5024" x="298.88" y="2584.2139">&#226;&#8364;&#162; Saisie 30 lignes: 1h30</text><text fill="#000000" font-family="sans-serif" font-size="13" lengthAdjust="spacing" textLength="142.3525" x="298.88" y="2600.5654">&#226;&#8364;&#162; Verifications: 15 min</text><text fill="#000000" font-family="sans-serif" font-size="13" lengthAdjust="spacing" textLength="144.5171" x="298.88" y="2616.917">&#226;&#8364;&#162; PDF &amp; envoi: 10 min</text><text fill="#000000" font-family="sans-serif" font-size="13" lengthAdjust="spacing" textLength="3.6118" x="298.88" y="2633.2686">&#160;</text><text fill="#000000" font-family="sans-serif" font-size="13" lengthAdjust="spacing" textLength="68.6118" x="298.88" y="2649.6201">[FRUSTRE]</text><text fill="#000000" font-family="sans-serif" font-size="13" font-weight="bold" lengthAdjust="spacing" textLength="126.4009" x="371.1036" y="2649.6201">FRUSTRATION: 9/10</text><text fill="#000000" font-family="sans-serif" font-size="13" lengthAdjust="spacing" textLength="208.0952" x="298.88" y="2665.9717">[!] Avec templates: 30 min possible !</text><text fill="#000000" font-family="sans-serif" font-size="13" lengthAdjust="spacing" textLength="190.7915" x="298.88" y="2682.3232">Economie potentielle: 1h35/devis</text></g><!--link *start* to DemandeClient--><g id="link_*start*_DemandeClient"><path d="M592.38,64.6694 C592.38,82.2194 592.38,115.3694 592.38,140.9794 " fill="none" id="*start*-to-DemandeClient" style="stroke:#181818;stroke-width:1;"/><polygon fill="#181818" points="592.38,146.9794,596.38,137.9794,592.38,141.9794,588.38,137.9794,592.38,146.9794" style="stroke:#181818;stroke-width:1;"/><text fill="#000000" font-family="sans-serif" font-size="13" lengthAdjust="spacing" textLength="125.0171" x="593.38" y="109.1045">Client demande devis</text></g><!--link DemandeClient to RechercheTemplate--><g id="link_DemandeClient_RechercheTemplate"><path d="M592.38,197.2094 C592.38,230.8194 592.38,285.4094 592.38,319.0194 " fill="none" id="DemandeClient-to-RechercheTemplate" style="stroke:#181818;stroke-width:1;"/><polygon fill="#181818" points="592.38,325.0194,596.38,316.0194,592.38,320.0194,588.38,316.0194,592.38,325.0194" style="stroke:#181818;stroke-width:1;"/><text fill="#000000" font-family="sans-serif" font-size="13" lengthAdjust="spacing" textLength="169.8315" x="593.38" y="246.1045">Laurent cherche ancien devis</text></g><!--link RechercheTemplate to PasDeTemplate--><g id="link_RechercheTemplate_PasDeTemplate"><path d="M568.17,375.1994 C551.14,393.9494 529.77,421.5994 520.38,450.6094 C515.39,465.9994 515.8136,478.2799 518.5836,492.5099 " fill="none" id="RechercheTemplate-to-PasDeTemplate" style="stroke:#181818;stroke-width:1;"/><polygon fill="#181818" points="519.73,498.3994,521.9366,488.8009,518.7746,493.4915,514.084,490.3295,519.73,498.3994" style="stroke:#181818;stroke-width:1;"/><text fill="#000000" font-family="sans-serif" font-size="13" lengthAdjust="spacing" textLength="113.4263" x="521.38" y="465.1045">Pas trouve similaire</text></g><!--link RechercheTemplate to OuvertureMDE--><g id="link_RechercheTemplate_OuvertureMDE"><path d="M607.57,375.3594 C618.84,394.8594 633.27,423.3894 639.38,450.6094 C653.94,515.5494 627.0483,586.7727 609.2083,624.9827 " fill="none" id="RechercheTemplate-to-OuvertureMDE" style="stroke:#181818;stroke-width:1;"/><polygon fill="#181818" points="606.67,630.4194,614.1019,623.9567,608.7853,625.8889,606.8531,620.5722,606.67,630.4194" style="stroke:#181818;stroke-width:1;"/><text fill="#000000" font-family="sans-serif" font-size="13" lengthAdjust="spacing" textLength="93.9326" x="644.38" y="529.1045">Template trouve</text></g><!--link PasDeTemplate to OuvertureMDE--><g id="link_PasDeTemplate_OuvertureMDE"><path d="M539.01,548.7594 C551.22,572.1094 566.8386,601.973 579.0286,625.273 " fill="none" id="PasDeTemplate-to-OuvertureMDE" style="stroke:#181818;stroke-width:1;"/><polygon fill="#181818" points="581.81,630.5894,581.1822,620.7605,579.4922,626.1591,574.0937,624.4691,581.81,630.5894" style="stroke:#181818;stroke-width:1;"/></g><!--link OuvertureMDE to RechercheClient--><g id="link_OuvertureMDE_RechercheClient"><path d="M566.8,680.8794 C535.77,708.1994 490.1641,748.3454 459.2241,775.5754 " fill="none" id="OuvertureMDE-to-RechercheClient" style="stroke:#181818;stroke-width:1;"/><polygon fill="#181818" points="454.72,779.5394,464.1188,776.5961,458.4734,776.236,458.8335,770.5907,454.72,779.5394" style="stroke:#181818;stroke-width:1;"/><text fill="#000000" font-family="sans-serif" font-size="13" lengthAdjust="spacing" textLength="83.0972" x="507.38" y="746.1045">Cherche client</text></g><!--link RechercheClient to SaisieManuelle--><g id="link_RechercheClient_SaisieManuelle"><path d="M425.24,829.7994 C423.61,848.1994 421.7089,869.7227 418.9089,901.3627 " fill="none" id="RechercheClient-to-SaisieManuelle" style="stroke:#181818;stroke-width:1;"/><polygon fill="#181818" points="418.38,907.3394,423.1578,898.727,418.8208,902.3588,415.1889,898.0218,418.38,907.3394" style="stroke:#181818;stroke-width:1;"/><text fill="#000000" font-family="sans-serif" font-size="13" lengthAdjust="spacing" textLength="85.998" x="424.38" y="874.1045">Nouveau devis</text></g><!--link SaisieManuelle to VerifExcel--><g id="link_SaisieManuelle_VerifExcel"><path d="M394.38,1451.7494 C394.38,1488.8494 394.38,1515.2694 394.38,1536.0294 " fill="none" id="SaisieManuelle-to-VerifExcel" style="stroke:#181818;stroke-width:1;"/><polygon fill="#181818" points="394.38,1542.0294,398.38,1533.0294,394.38,1537.0294,390.38,1533.0294,394.38,1542.0294" style="stroke:#181818;stroke-width:1;"/><text fill="#000000" font-family="sans-serif" font-size="13" lengthAdjust="spacing" textLength="70.8081" x="395.38" y="1496.1045">Verifications</text></g><!--link VerifExcel to Ajustements--><g id="link_VerifExcel_Ajustements"><path d="M401,1592.2294 C407.93,1617.4994 417.173,1651.1731 424.123,1676.5131 " fill="none" id="VerifExcel-to-Ajustements" style="stroke:#181818;stroke-width:1;"/><polygon fill="#181818" points="425.71,1682.2994,427.187,1672.5619,424.3875,1677.4774,419.4719,1674.6779,425.71,1682.2994" style="stroke:#181818;stroke-width:1;"/><text fill="#000000" font-family="sans-serif" font-size="13" lengthAdjust="spacing" textLength="139.4453" x="418.38" y="1649.1045">Corrections necessaires</text></g><!--link VerifExcel to GenerationPDF--><g id="link_VerifExcel_GenerationPDF"><path d="M381.04,1592.2394 C369.34,1614.8294 353.18,1649.8994 346.38,1682.6094 C337.14,1727.0494 338.9173,1774.4096 341.4073,1804.6296 " fill="none" id="VerifExcel-to-GenerationPDF" style="stroke:#181818;stroke-width:1;"/><polygon fill="#181818" points="341.9,1810.6094,345.1474,1801.3113,341.4894,1805.6263,337.1745,1801.9682,341.9,1810.6094" style="stroke:#181818;stroke-width:1;"/><text fill="#000000" font-family="sans-serif" font-size="13" lengthAdjust="spacing" textLength="18.7827" x="347.38" y="1713.1045">OK</text></g><!--link Ajustements to GenerationPDF--><g id="link_Ajustements_GenerationPDF"><path d="M415.41,1732.8994 C399.83,1755.2194 380.2959,1783.1806 364.7259,1805.4706 " fill="none" id="Ajustements-to-GenerationPDF" style="stroke:#181818;stroke-width:1;"/><polygon fill="#181818" points="361.29,1810.3894,369.723,1805.3017,364.1532,1806.2904,363.1646,1800.7206,361.29,1810.3894" style="stroke:#181818;stroke-width:1;"/></g><!--link GenerationPDF to VerifPDF--><g id="link_GenerationPDF_VerifPDF"><path d="M350.32,1860.8494 C356.07,1884.2894 363.3006,1913.7721 369.0406,1937.1721 " fill="none" id="GenerationPDF-to-VerifPDF" style="stroke:#181818;stroke-width:1;"/><polygon fill="#181818" points="370.47,1942.9994,372.2107,1933.3056,369.2788,1938.1433,364.441,1935.2115,370.47,1942.9994" style="stroke:#181818;stroke-width:1;"/><text fill="#000000" font-family="sans-serif" font-size="13" lengthAdjust="spacing" textLength="118.5107" x="362.38" y="1905.1045">Verifie mise en page</text></g><!--link VerifPDF to BugPDF--><g id="link_VerifPDF_BugPDF"><path d="M329.03,1993.2094 C274.28,2021.0694 190.5473,2063.6779 139.6573,2089.5779 " fill="none" id="VerifPDF-to-BugPDF" style="stroke:#181818;stroke-width:1;"/><polygon fill="#181818" points="134.31,2092.2994,144.1453,2091.7821,138.7661,2090.0315,140.5166,2084.6523,134.31,2092.2994" style="stroke:#181818;stroke-width:1;"/><text fill="#000000" font-family="sans-serif" font-size="13" lengthAdjust="spacing" textLength="79.5044" x="262.38" y="2042.1045">Bug affichage</text></g><!--link VerifPDF to EnvoiClient--><g id="link_VerifPDF_EnvoiClient"><path d="M376.38,1993.3694 C376.38,2019.6594 376.38,2055.3894 376.38,2081.7294 " fill="none" id="VerifPDF-to-EnvoiClient" style="stroke:#181818;stroke-width:1;"/><polygon fill="#181818" points="376.38,2087.7294,380.38,2078.7294,376.38,2082.7294,372.38,2078.7294,376.38,2087.7294" style="stroke:#181818;stroke-width:1;"/><text fill="#000000" font-family="sans-serif" font-size="13" lengthAdjust="spacing" textLength="48.3945" x="377.38" y="2042.1045">PDF OK</text></g><!--link BugPDF to GenerationPDF--><g id="link_BugPDF_GenerationPDF"><path d="M74.93,2087.8394 C47.53,2052.2094 6,1984.9694 39.38,1938.6094 C95,1861.3494 205.8316,1842.132 277.6616,1837.662 " fill="none" id="BugPDF-to-GenerationPDF" style="stroke:#181818;stroke-width:1;"/><polygon fill="#181818" points="283.65,1837.2894,274.4189,1833.8561,278.6597,1837.5999,274.9158,1841.8406,283.65,1837.2894" style="stroke:#181818;stroke-width:1;"/><text fill="#000000" font-family="sans-serif" font-size="13" lengthAdjust="spacing" textLength="57.0972" x="40.38" y="1973.6045">Regenere</text></g><!--link EnvoiClient to EnAttente--><g id="link_EnvoiClient_EnAttente"><path d="M376.38,2138.2294 C376.38,2163.4994 376.38,2196.9594 376.38,2222.2994 " fill="none" id="EnvoiClient-to-EnAttente" style="stroke:#181818;stroke-width:1;"/><polygon fill="#181818" points="376.38,2228.2994,380.38,2219.2994,376.38,2223.2994,372.38,2219.2994,376.38,2228.2994" style="stroke:#181818;stroke-width:1;"/><text fill="#000000" font-family="sans-serif" font-size="13" lengthAdjust="spacing" textLength="78.0381" x="377.38" y="2195.1045">Email envoye</text></g><!--link EnAttente to Refus--><g id="link_EnAttente_Refus"><path d="M333.5,2278.2694 C320.11,2286.8094 305.86,2297.1894 294.38,2308.6094 C280.21,2322.6994 270.8224,2336.3904 262.1724,2351.2904 " fill="none" id="EnAttente-to-Refus" style="stroke:#181818;stroke-width:1;"/><polygon fill="#181818" points="259.16,2356.4794,267.1379,2350.7042,261.6703,2352.1552,260.2193,2346.6876,259.16,2356.4794" style="stroke:#181818;stroke-width:1;"/><text fill="#000000" font-family="sans-serif" font-size="13" lengthAdjust="spacing" textLength="72.979" x="295.38" y="2323.1045">Client refuse</text></g><!--link EnAttente to Accepte--><g id="link_EnAttente_Accepte"><path d="M376.38,2278.8994 C376.38,2301.2194 376.38,2328.0994 376.38,2350.3894 " fill="none" id="EnAttente-to-Accepte" style="stroke:#181818;stroke-width:1;"/><polygon fill="#181818" points="376.38,2356.3894,380.38,2347.3894,376.38,2351.3894,372.38,2347.3894,376.38,2356.3894" style="stroke:#181818;stroke-width:1;"/><text fill="#000000" font-family="sans-serif" font-size="13" lengthAdjust="spacing" textLength="82.3799" x="377.38" y="2323.1045">Client accepte</text></g><!--link EnAttente to Modification--><g id="link_EnAttente_Modification"><path d="M418.9,2271.8994 C424.75,2274.1994 430.7,2276.4894 436.38,2278.6094 C497.21,2301.3394 512.51,2306.8794 574.38,2326.6094 C607.7,2337.2294 638.8718,2346.4877 671.0018,2355.6877 " fill="none" id="EnAttente-to-Modification" style="stroke:#181818;stroke-width:1;"/><polygon fill="#181818" points="676.77,2357.3394,669.2188,2351.0164,671.9632,2355.963,667.0166,2358.7074,676.77,2357.3394" style="stroke:#181818;stroke-width:1;"/><text fill="#000000" font-family="sans-serif" font-size="13" lengthAdjust="spacing" textLength="158.2598" x="575.38" y="2323.1045">Client demande ajustement</text></g><!--link Modification to OuvertureMDE--><g id="link_Modification_OuvertureMDE"><path d="M760.38,2356.4494 C760.38,2331.0894 760.38,2290.0494 760.38,2254.6094 C760.38,803.6094 760.38,803.6094 760.38,803.6094 C760.38,769.7294 686.9364,716.2511 637.8964,684.0711 " fill="none" id="Modification-to-OuvertureMDE" style="stroke:#181818;stroke-width:1;"/><polygon fill="#181818" points="632.88,680.7794,638.2101,689.0613,637.0603,683.5225,642.5991,682.3727,632.88,680.7794" style="stroke:#181818;stroke-width:1;"/><text fill="#000000" font-family="sans-serif" font-size="13" lengthAdjust="spacing" textLength="74.4072" x="761.38" y="1777.1045">Rouvre MDE</text></g><!--link Refus to *end*--><g id="link_Refus_*end*"><path d="M246.38,2406.9694 C246.38,2450.1694 246.38,2532.4194 246.38,2562.1094 " fill="none" id="Refus-to-*end*" style="stroke:#181818;stroke-width:1;"/><polygon fill="#181818" points="246.38,2568.1094,250.38,2559.1094,246.38,2563.1094,242.38,2559.1094,246.38,2568.1094" style="stroke:#181818;stroke-width:1;"/></g><!--link Accepte to *end*--><g id="link_Accepte_*end*"><path d="M337.39,2406.6894 C316.11,2421.7294 291,2442.9094 275.38,2467.6094 C254.71,2500.2994 249.1918,2541.3196 247.5018,2561.8696 " fill="none" id="Accepte-to-*end*" style="stroke:#181818;stroke-width:1;"/><polygon fill="#181818" points="247.01,2567.8494,251.7342,2559.2075,247.4198,2562.8662,243.7611,2558.5518,247.01,2567.8494" style="stroke:#181818;stroke-width:1;"/></g><!--SRC=[TLVDRjj64BxhAIOEq3eAvCXIb3G4Me2sgCIrPAcKx1u2mrXJAsaDYgikII5fKI1eNw6NtegS-nJDc-H9EhExf9QKVF0FTtvslldVJ6GnXsd6CWvzmPQAhQ45vnyZF9rpk17uvziyWJxVYhJHUD-yXLRh1_nSisJEpsF1ammyiF_CpJ7-rTofLdjacItJ4R2q9l_qJJi8thGRYKHs9PQh3EIYojC02DPCn33F8IfEfXiUYOM8M2Paai96oGTEvtqUC-71o-zQhpihO5d6atdUm5z0DpGQrTi9JyYZ5LVuC-FhJKnMUp1akIAwfG1B8kIlOIi5eP3K-FRrFHqCNfszEgjXtED3wzy_kOLcCmpEtmKX_i38lxeEXiEWsKHY2mOo5p55HwQfu0fXCvMn9KyrjTDkFmTqoKgJVfPghe-lv7gDF22IIEA52Cl3Su2ZoMGwcTujHCBYkstdRdnvrsbtkYTp6NquSZcCh-xykvlGlxWRN5pvmvAf1HE4Z07UufqO2P4i2SRiOXJSGhSDQq5UWuKr_8aJYNq_KJHGNT-D1AdFbCot75An5XXSnHyH7IEJoZ1metw0aYNDY9TXimPNObQzjHAlc2zqk2eiDbGJT3_f-fKhkOFz_7JbmAoghjjPMbKU0fvgcofm3gTGHLEHFRDWD9d2-Ji_V1kCWgkPpXrhscaFKXv9B01A6P-g0_NnIB44M1JbNCGUXes88pdFOrlEM4_wp6gPoOp5qDF1VSXJrB2HkGBqiXAg4kCAXagnxTg7hI5RsVl5vRIEkZHwfV-wtNwiiChsCHHafBaXXMC4-8nQIAHa7CDpKELTnnq2zUnGbZeTOye4bj-89JcdfFQmn10doslzmR11mQSHr4HjME4tSgxjhuPbA9O9FoKhdSywlKC58ZVv1hgzjChRgVDs7-VjEhn-dYcU8k_9oKd9PG-9Ywoa586O9DF6xusQzwi8owmyzuSt_aLeEbaf3b_-_FhfB-XH9dqFdLMttK3oXB894_Ydwy3mURhJO0GYEF8VP9vnPGYs1MbOE0fOB9SvHX4HFjEKNHPXfGeQR4M4jKAveHd7Dxb88VWGyHWssCQa9auPndJ9r9naIDyk_qC-pqK634xHO61R7XbfvC0vbS9iVFtZ-3gSWlPQB9DbfIXgEK1UlU5AB8m5dlae9bkPJUwfkKudb2DPgOQYRUte6jM8AHm5orZUCnqST9uI7s2R0dQ5A5Su7Y9kdQE7HSJXbvmbcSYuqm5ETMTtC3bc41vVjuMrBZSiSObw8pEe4nxnDAKkdjQ5tlA4AurlqX-WsFYo1E_eqwXT_OURWCDXSp3ahMX5y8tOSQz81Enqw5bCgKwhMwJr3fbxrPwLfO6xKy1ZRMCLpc4hgyh0fhW-HNj84vK3YX-_f1JSMLLLNgQGSPn95OxuKcpk2Mu9ItuuZmfRI-77SyWOQAVUGcAQt-VB5DY2DWww0E3Bvw-V_ldwwMzqzRAqpra73kLCOVvPlZJ6up-EqWfFa6obA0S7dJefGd857Aki69hsyr2EMKjtxj5tk3F7lVJmikfmsAOpPphRWTFQMcj4M6SPaatj2Qm6U90YCIk5yTFhcfzS2umRYi7jsSMO8yT75qCnsYs2WXyTCXZu_fxzbkwi18fli5hvRj_klAI5kc9LmMlc-Y9FTuy1HP-ynkD74TzegoqNCmSrDbEEDa7tdXUiBCSIRaN0xlS6UOLoCBLT3aGPyenc3uEOGQhRTDay8boZTJl4fmQriDnj4fMB3koY8Ur6UhKhhNv_ERurRhEh3Jcmo5ZpPUVjJcHyULjuqRH1wz4YBullKb1ZlPTP9jS8fDaS1RFm0iVg5DuEnsV-C9Ywss4VxSLrcROxxY5tPzNk8Ls_gX3-HgQ207gcrF_uzx_Fxe1rdaYuB-hkwZ1MzbiFwcIxAvMBWQTdgyDG6OeUBR9L1LJEt-X2mDUV7K-4R11UJsTXG2k8-TUVNOolF7ZpuhHji6DqVHhXcTtHKwzuk6pecNMldotu1CN2bMj1koxbgg3PhQtilJ1hNvaD_mC0]--></g></svg>